<svg version="1.1" id="Layer_1" xmlns="http://www.w3.org/2000/svg" xmlns:xlink="http://www.w3.org/1999/xlink" x="0px" y="0px"
	 width="100%" viewBox="0 0 5740 1653" enable-background="new 0 0 5740 1653" xml:space="preserve">
<path fill="#FFFFFF" opacity="1.000000" stroke="none" 
	d="
M5742.000000,602.000000 
	C5742.000000,953.273071 5742.000000,1304.546143 5742.000000,1656.000000 
	C4508.604980,1656.000000 3275.209717,1656.000000 2040.937378,1655.537476 
	C2040.060303,1655.074951 2040.091919,1654.148315 2040.892334,1653.847412 
	C2046.307251,1653.012817 2050.931396,1652.552612 2055.534668,1651.933716 
	C2094.970703,1646.631714 2132.142822,1634.994629 2165.059570,1611.950317 
	C2204.566895,1584.292236 2228.290283,1547.040894 2231.988037,1498.380005 
	C2233.797363,1474.573242 2231.402588,1451.070801 2221.062256,1429.114014 
	C2208.403076,1402.233643 2187.801025,1383.140991 2161.864014,1369.111816 
	C2128.983154,1351.326904 2093.273926,1342.240356 2057.248779,1334.027954 
	C2032.936768,1328.485718 2008.390259,1323.891235 1984.261230,1317.662109 
	C1972.143799,1314.533936 1960.513794,1309.164917 1949.054810,1303.949463 
	C1939.886108,1299.776489 1933.391113,1292.477783 1931.840576,1282.110474 
	C1929.412354,1265.874512 1936.659912,1252.023315 1951.265259,1243.737305 
	C1963.044067,1237.054565 1975.840698,1233.364258 1989.159912,1232.110596 
	C2036.114380,1227.691040 2081.341064,1235.105713 2124.850830,1253.116333 
	C2137.691650,1258.431763 2150.368652,1264.144287 2164.237793,1270.159424 
	C2179.654053,1233.956909 2195.067627,1197.760620 2210.514893,1161.485474 
	C2208.873535,1160.166870 2207.958496,1159.159912 2206.827393,1158.562622 
	C2167.839600,1137.971191 2126.107666,1126.249878 2082.650635,1119.970337 
	C2055.536377,1116.052368 2028.284668,1115.624634 2000.977417,1115.993530 
	C1967.508789,1116.445801 1934.756470,1121.239014 1902.966431,1131.994019 
	C1873.244019,1142.049561 1845.985718,1156.871094 1823.989136,1179.160156 
	C1788.136475,1215.489136 1776.373535,1260.197998 1783.023682,1310.234497 
	C1784.835327,1323.866699 1788.884277,1336.845825 1795.564453,1348.846436 
	C1809.419189,1373.735474 1829.945679,1391.568848 1854.942017,1404.801758 
	C1880.416992,1418.288086 1907.561157,1427.088867 1935.360596,1433.927979 
	C1966.652588,1441.626221 1998.154297,1448.468262 2029.497681,1455.962891 
	C2043.129639,1459.222656 2056.116943,1464.350220 2067.943848,1472.039185 
	C2088.196289,1485.205322 2089.136230,1511.937866 2067.872314,1525.658813 
	C2057.349854,1532.448364 2045.667114,1536.181152 2033.385498,1537.925537 
	C2011.205078,1541.075928 1988.911255,1540.986938 1966.690430,1538.710815 
	C1929.007812,1534.851074 1893.041504,1524.513062 1858.760620,1508.453369 
	C1846.496338,1502.707764 1834.506348,1496.376831 1821.333984,1489.783936 
	C1804.854492,1525.831665 1788.370239,1561.889893 1771.813599,1598.106323 
	C1774.671753,1599.963989 1776.584595,1601.240845 1778.529907,1602.466431 
	C1802.969116,1617.863892 1829.815796,1627.701538 1857.256470,1635.959961 
	C1887.546997,1645.075806 1918.635742,1650.377075 1950.039795,1654.451172 
	C1950.030640,1655.311890 1950.015259,1655.655884 1950.000000,1656.000000 
	C1787.938110,1656.000000 1625.876343,1656.000000 1462.670898,1655.086182 
	C1462.252930,1629.593140 1463.417480,1605.016846 1463.575317,1580.434082 
	C1463.720459,1557.843384 1462.291748,1535.243530 1462.396484,1512.651611 
	C1463.356934,1305.422729 1460.227295,1098.184814 1463.870605,890.959839 
	C1464.325684,865.078979 1462.463745,839.165894 1462.397827,813.265930 
	C1462.189209,731.271484 1462.425293,649.275757 1462.181885,567.281494 
	C1462.154785,558.172546 1464.544922,550.642944 1469.474243,543.056824 
	C1487.940186,514.638000 1506.809204,486.416809 1523.787598,457.113617 
	C1540.763062,427.815216 1556.066040,397.517151 1571.328735,367.266998 
	C1582.845581,344.440857 1593.756226,321.262939 1603.847778,297.773712 
	C1621.556885,256.553345 1633.655029,213.414200 1645.579102,170.259521 
	C1651.793213,147.769562 1652.121948,124.344948 1656.208862,101.507088 
	C1657.254639,95.663658 1657.389160,89.634689 1657.654785,83.678131 
	C1658.607666,62.312485 1655.127686,41.380489 1651.491943,20.442595 
	C1650.517090,14.829056 1647.931519,11.413969 1642.497559,9.927353 
	C1637.692993,8.612951 1632.999268,6.844941 1628.148682,5.759285 
	C1621.485718,4.267996 1614.721069,3.231407 1608.000000,1.999994 
	C2985.759521,2.000000 4363.519043,2.000000 5742.000000,2.000000 
	C5742.000000,179.394516 5742.000000,356.790009 5741.394043,534.548706 
	C5739.950195,511.868103 5732.818848,490.368958 5722.491211,470.236664 
	C5701.520020,429.357483 5668.968262,400.651581 5626.744141,382.551147 
	C5591.302734,367.358307 5554.061523,361.649994 5515.952148,361.452545 
	C5436.313477,361.039917 5356.671875,361.330811 5277.031250,361.367798 
	C5274.158691,361.369110 5271.286621,361.741577 5268.009277,361.969208 
	C5267.877441,364.577087 5267.694336,366.519409 5267.693848,368.461792 
	C5267.677246,433.440460 5267.731934,498.419250 5267.564941,563.397461 
	C5267.552734,568.166565 5269.291016,571.503357 5272.164062,574.934387 
	C5303.324219,612.146790 5334.409668,649.422424 5365.478027,686.711670 
	C5369.590332,691.647095 5373.497559,696.753357 5378.924316,703.570312 
	C5340.541992,703.570312 5304.470703,703.570312 5268.153320,703.570312 
	C5268.153320,773.205811 5268.153320,841.713623 5268.153320,910.614563 
	C5325.390137,910.614563 5382.148926,910.614563 5439.636230,910.614563 
	C5439.770020,865.465942 5439.584473,821.033020 5439.744629,776.091125 
	C5454.481934,776.091125 5467.777344,776.318726 5481.062500,776.041992 
	C5505.983887,775.522888 5531.022949,776.028625 5555.787598,773.703857 
	C5590.182129,770.475098 5622.713867,760.085205 5652.388184,741.789124 
	C5697.959473,713.691528 5727.212402,673.944275 5738.400879,621.317505 
	C5739.762207,614.912659 5740.808105,608.440857 5742.000000,602.000000 
M3513.213867,361.341278 
	C3509.956055,361.341278 3506.697998,361.341278 3502.912109,361.341278 
	C3502.912109,545.006287 3502.912109,727.702393 3502.912109,910.306641 
	C3516.033203,912.261719 3666.794434,911.720520 3674.629395,909.529419 
	C3674.629395,864.609924 3674.629395,819.424316 3674.629395,773.350342 
	C3687.807617,773.350342 3700.093750,773.697327 3712.345947,773.205200 
	C3718.553223,772.955811 3721.997314,775.411377 3725.106201,780.441345 
	C3750.431152,821.412598 3776.144531,862.145203 3801.226074,903.263611 
	C3805.128662,909.661072 3809.370605,911.502808 3816.368652,911.473694 
	C3870.345947,911.249451 3924.324707,911.358887 3978.302979,911.328186 
	C3981.510498,911.326355 3984.717773,911.007751 3987.719727,910.847473 
	C3987.978271,909.455811 3988.407471,908.643311 3988.162842,908.251831 
	C3953.725830,853.128540 3919.239502,798.035950 3884.843994,743.082825 
	C3885.284180,742.460632 3885.420166,742.107239 3885.677490,741.929321 
	C3888.666992,739.861206 3891.637695,737.762756 3894.683350,735.779541 
	C3946.269287,702.187317 3972.464600,653.618347 3977.996582,593.247253 
	C3979.225830,579.828674 3978.553223,566.204346 3978.266602,552.685059 
	C3977.674316,524.766113 3971.242432,498.108948 3958.950195,473.081482 
	C3937.786621,429.992767 3903.966064,400.380402 3860.056885,381.788116 
	C3824.886963,366.896179 3787.845215,361.619324 3750.067871,361.438080 
	C3671.767822,361.062500 3593.464844,361.334869 3513.213867,361.341278 
M4785.520020,1141.468384 
	C4755.581543,1131.774902 4724.789551,1126.341919 4693.417480,1126.159668 
	C4610.091309,1125.675293 4526.760254,1125.989258 4443.431152,1126.022461 
	C4440.571777,1126.023560 4437.711914,1126.417847 4434.854492,1126.628784 
	C4434.854492,1299.619873 4434.854492,1471.788452 4434.854492,1643.843262 
	C4444.895508,1645.884155 4578.260254,1645.635742 4586.632324,1643.416504 
	C4586.632324,1598.488037 4586.632324,1553.291382 4586.632324,1508.507568 
	C4588.223633,1507.858154 4588.835449,1507.391602 4589.449219,1507.389282 
	C4613.778809,1507.297119 4638.108887,1507.299927 4662.437500,1507.137817 
	C4666.294922,1507.112061 4668.381348,1508.959595 4670.410156,1511.943848 
	C4677.331543,1522.123291 4684.514160,1532.125122 4691.587402,1542.201294 
	C4714.334961,1574.604248 4737.185547,1606.935425 4759.696777,1639.501587 
	C4762.804199,1643.997925 4766.170410,1645.278320 4771.260254,1645.264526 
	C4820.257812,1645.131470 4869.255371,1645.197144 4918.252930,1645.143433 
	C4920.422852,1645.141113 4922.591797,1644.535645 4925.526855,1644.096558 
	C4887.211426,1589.622681 4849.446777,1535.931641 4811.383789,1481.817017 
	C4815.664551,1479.567627 4818.878418,1477.900513 4822.072266,1476.196655 
	C4860.174316,1455.873535 4888.175781,1426.458130 4903.521973,1385.664795 
	C4916.025879,1352.427734 4917.102539,1318.077271 4912.117676,1283.506836 
	C4905.723633,1239.158691 4884.208984,1203.036011 4849.184570,1175.244385 
	C4830.551758,1160.459839 4809.595703,1149.609497 4785.520020,1141.468384 
M2890.254639,681.433167 
	C2860.005615,757.777222 2828.524170,833.634216 2797.973633,910.947388 
	C2857.285156,910.947388 2914.859131,910.947388 2972.947510,910.947388 
	C2984.199219,879.394043 2995.424561,847.914368 3006.571533,816.654785 
	C3071.389404,816.654785 3135.284912,816.654785 3198.973389,816.654785 
	C3210.273682,848.378479 3221.396973,879.605713 3232.370605,910.412537 
	C3247.427979,912.383545 3402.694580,911.699463 3410.117676,909.576416 
	C3336.373535,727.006042 3262.656250,544.501587 3188.916016,361.940918 
	C3132.157471,361.940918 3075.990234,361.940918 3019.503662,361.940918 
	C2976.563965,468.256012 2933.786865,574.168945 2890.254639,681.433167 
M5061.000000,361.343597 
	C5026.154297,361.343597 4991.308594,361.343597 4955.678711,361.343597 
	C4955.678711,366.263550 4955.679199,369.865601 4955.679199,373.467651 
	C4955.679199,444.777893 4955.815430,516.088501 4955.615723,587.398193 
	C4955.525391,619.663513 4955.201172,651.941040 4954.152344,684.186035 
	C4953.486816,704.633850 4949.348633,724.657776 4938.048828,742.145142 
	C4923.116211,765.255066 4900.584473,774.760071 4873.931641,773.085632 
	C4845.861328,771.322205 4824.763672,757.506348 4813.231445,731.261719 
	C4804.265625,710.855347 4801.774902,689.014160 4801.742676,666.968811 
	C4801.601074,569.333984 4801.681641,471.698792 4801.681641,374.063751 
	C4801.681641,370.159119 4801.681641,366.254486 4801.681641,362.076782 
	C4743.815430,362.076782 4687.085938,362.076782 4629.678711,362.076782 
	C4629.678711,366.420013 4629.679199,370.035675 4629.679199,373.651367 
	C4629.679199,471.619629 4629.740723,569.587952 4629.634277,667.556091 
	C4629.608887,691.211121 4631.661621,714.633850 4636.295898,737.804993 
	C4644.716309,779.897827 4661.090820,818.107666 4690.096191,850.543030 
	C4720.665039,884.726318 4758.742188,905.673401 4802.882324,915.948059 
	C4833.430664,923.058838 4864.489746,925.207458 4895.900391,923.477661 
	C4925.981445,921.821106 4955.299316,916.901794 4983.428223,905.963867 
	C5033.218262,886.603271 5070.247559,853.003540 5094.825684,805.590576 
	C5109.377930,777.518494 5116.791016,747.315125 5121.570312,716.340820 
	C5122.197754,712.274902 5121.656250,708.028564 5121.656250,702.969360 
	C5085.097656,702.969360 5049.342773,702.969360 5012.302246,702.969360 
	C5014.419922,699.902893 5015.554199,697.949097 5016.980957,696.239685 
	C5050.855469,655.663269 5084.731934,615.088562 5118.704102,574.594116 
	C5122.226562,570.395447 5124.484863,566.326843 5124.463379,560.420715 
	C5124.235352,496.775452 5124.329102,433.129120 5124.290039,369.483124 
	C5124.288086,366.938660 5123.837891,364.394470 5123.548340,361.343140 
	C5102.924316,361.343140 5082.961914,361.343140 5061.000000,361.343597 
M2197.008545,390.031219 
	C2184.307373,384.244293 2171.950195,377.490295 2158.847412,372.832886 
	C2091.105469,348.753326 2021.478027,343.444763 1950.629517,354.196350 
	C1913.621826,359.812531 1879.512817,373.290222 1849.228271,395.660889 
	C1823.517578,414.652710 1804.469360,438.844513 1792.425659,468.564667 
	C1779.307129,500.937683 1777.253784,534.505859 1782.657593,568.468384 
	C1788.878174,607.564819 1809.050049,638.220154 1842.072388,660.318665 
	C1861.850586,673.554199 1883.252075,683.614990 1906.026001,689.931335 
	C1939.612427,699.246582 1973.561890,707.278381 2007.452148,715.461304 
	C2021.140381,718.766479 2034.216309,723.458618 2046.456177,730.268188 
	C2055.496826,735.298035 2060.957520,743.028076 2060.249023,753.884216 
	C2059.591553,763.965820 2053.441162,770.298523 2044.651123,773.943726 
	C2038.562866,776.468628 2032.119995,779.167114 2025.682739,779.621704 
	C2008.842773,780.811096 1991.790894,782.370605 1975.052734,780.994263 
	C1924.596802,776.845581 1877.837280,760.411194 1834.066406,735.198364 
	C1831.927246,733.966125 1829.586426,733.084045 1827.053101,731.905701 
	C1808.540894,777.241638 1790.357422,821.772461 1771.914307,866.939209 
	C1775.109741,869.041565 1778.020630,871.173279 1781.127197,872.965698 
	C1802.815430,885.479248 1825.809326,894.904846 1849.672729,902.440125 
	C1887.250488,914.305969 1925.782593,920.834229 1965.004517,923.250427 
	C1986.900513,924.599304 2008.794434,924.149292 2030.746460,922.294556 
	C2069.684326,919.004578 2106.654541,909.853943 2140.699219,890.127502 
	C2182.917969,865.664795 2211.629150,830.656555 2224.522217,783.260620 
	C2231.152344,758.887939 2231.748535,734.161011 2228.284180,709.252258 
	C2222.819580,669.963806 2203.734131,639.095032 2171.300293,616.255005 
	C2147.595947,599.562256 2121.391602,588.285522 2093.576416,581.062805 
	C2066.253662,573.968079 2038.554077,568.325500 2011.025391,562.021484 
	C1995.131958,558.382019 1979.244263,554.641724 1964.800903,546.698242 
	C1945.220337,535.929626 1944.557739,513.436829 1963.829224,502.014801 
	C1970.280884,498.191040 1977.720337,495.445862 1985.065186,493.832886 
	C2003.436890,489.798309 2022.182617,490.429047 2040.695312,492.552612 
	C2071.951416,496.137970 2101.632812,505.562225 2130.039795,519.023010 
	C2138.953613,523.246826 2147.842773,527.522705 2157.074951,531.933228 
	C2174.325195,486.897888 2191.406982,442.302887 2208.700195,397.156372 
	C2204.969727,394.924103 2201.595215,392.904724 2197.008545,390.031219 
M3983.000000,1125.994019 
	C3922.440918,1125.994019 3861.882080,1125.994019 3800.413574,1125.994019 
	C3800.413574,1299.401489 3800.413574,1471.799805 3800.413574,1644.640259 
	C3942.344727,1644.640259 4083.831055,1644.640259 4225.847656,1644.640259 
	C4226.399414,1606.718384 4226.943359,1569.337280 4227.503906,1530.811890 
	C4180.219238,1530.811890 4133.972656,1530.811890 4087.726318,1530.811890 
	C4041.256836,1530.811890 3994.787354,1530.811890 3948.621338,1530.811890 
	C3948.621338,1499.859375 3948.621338,1469.025879 3948.621338,1437.894409 
	C3951.781250,1437.605835 3954.052979,1437.222046 3956.325439,1437.217773 
	C3980.320557,1437.173218 4004.316650,1437.312134 4028.310791,1437.162842 
	C4078.245361,1436.852173 4128.178711,1436.405396 4178.111816,1435.972412 
	C4180.004395,1435.955933 4181.892578,1435.499268 4184.180176,1435.194946 
	C4184.827148,1399.221069 4185.465332,1363.736084 4186.126465,1326.967773 
	C4106.397461,1326.967773 4027.939209,1326.967773 3948.320557,1326.967773 
	C3948.320557,1321.834839 3948.161621,1317.916382 3948.355469,1314.015625 
	C3948.700439,1307.073853 3949.571777,1300.146729 3949.664551,1293.206055 
	C3949.865234,1278.211792 3949.682861,1263.212769 3949.732910,1248.215942 
	C3949.741455,1245.681030 3950.128662,1243.147461 3950.391602,1240.007080 
	C3953.976074,1240.007080 3956.921875,1240.006348 3959.867676,1240.007080 
	C4037.518799,1240.028687 4115.169922,1240.092407 4192.821289,1240.005127 
	C4200.304199,1239.996704 4207.785645,1239.052612 4215.656250,1238.516479 
	C4216.262207,1200.566040 4216.850098,1163.784546 4217.454102,1125.994019 
	C4139.449707,1125.994019 4062.224854,1125.994019 3983.000000,1125.994019 
M3195.696533,1151.365479 
	C3191.969482,1142.938477 3188.242188,1134.511475 3184.758789,1126.635498 
	C3129.934814,1126.635498 3076.151123,1126.635498 3021.065674,1126.635498 
	C3097.129395,1300.262451 3172.747314,1472.871582 3248.070557,1644.807617 
	C3298.563721,1644.807617 3347.524170,1644.807617 3396.268799,1644.807617 
	C3402.626709,1633.565063 3622.457275,1135.789185 3623.450195,1126.402710 
	C3574.182617,1126.402710 3524.939209,1126.402710 3475.013184,1126.402710 
	C3426.394775,1237.717163 3377.814697,1348.944092 3328.258301,1462.406372 
	C3283.581299,1357.780762 3239.826416,1255.315186 3195.696533,1151.365479 
M5309.422852,1376.447388 
	C5316.485352,1359.241577 5323.408691,1341.977173 5330.649902,1324.846802 
	C5337.750977,1308.047119 5343.839355,1290.778442 5352.706543,1272.866089 
	C5404.314453,1398.228516 5455.101074,1521.594849 5505.696777,1644.497803 
	C5531.407715,1646.853394 5656.258301,1645.746094 5662.929688,1643.153809 
	C5584.673828,1470.841431 5506.421387,1298.537354 5428.260742,1126.435425 
	C5377.921875,1126.435425 5328.368164,1126.435425 5278.807617,1126.435425 
	C5201.200684,1297.668579 5123.756836,1468.538818 5046.340820,1639.421753 
	C5045.939941,1640.305420 5045.922852,1641.366211 5045.753418,1642.348877 
	C5045.698730,1642.664673 5045.644043,1643.024658 5045.743164,1643.310791 
	C5045.846680,1643.607300 5046.137207,1643.838623 5046.786621,1644.648315 
	C5047.870605,1644.782227 5049.456543,1645.148193 5051.042480,1645.149292 
	C5098.025879,1645.183594 5145.009277,1645.093994 5191.991699,1645.297119 
	C5197.809570,1645.322266 5200.090332,1642.518311 5202.025879,1637.753296 
	C5216.520020,1602.065186 5231.145996,1566.430542 5245.797363,1530.807007 
	C5266.771484,1479.811279 5287.802246,1428.838989 5309.422852,1376.447388 
M2639.000000,1125.994873 
	C2620.367920,1125.994873 2601.736084,1125.994873 2582.757324,1125.994873 
	C2504.549805,1298.750366 2426.530762,1471.088745 2348.192139,1644.133545 
	C2351.028564,1644.544800 2353.235352,1645.141235 2355.442383,1645.143799 
	C2402.091553,1645.197998 2448.741211,1645.088501 2495.389404,1645.311646 
	C2501.047852,1645.338745 2503.583252,1643.235596 2505.626465,1638.213989 
	C2524.776611,1591.150757 2544.168457,1544.185913 2563.468994,1497.183960 
	C2592.467041,1426.566284 2621.434570,1355.935913 2650.472168,1285.334595 
	C2652.040283,1281.522217 2654.135986,1277.927002 2656.658936,1272.886475 
	C2672.424072,1311.508423 2687.377686,1348.397583 2702.531738,1385.204468 
	C2722.366455,1433.379639 2742.386230,1481.478516 2762.275146,1529.631470 
	C2777.106201,1565.538574 2792.005859,1601.419067 2806.491211,1637.465698 
	C2808.870117,1643.386230 2811.902100,1645.353638 2818.179443,1645.320435 
	C2864.827393,1645.074097 2911.476807,1645.196167 2958.125977,1645.161133 
	C2960.649902,1645.159180 2963.173096,1644.786377 2967.340576,1644.456055 
	C2888.483643,1470.807739 2810.166748,1298.348877 2731.897705,1125.994873 
	C2700.961914,1125.994873 2670.980957,1125.994873 2639.000000,1125.994873 
M4461.000000,361.342407 
	C4328.435059,361.342407 4195.870117,361.342407 4062.982422,361.342407 
	C4062.982422,410.081085 4062.982422,457.837097 4062.982422,506.095520 
	C4088.335205,506.095520 4112.977539,506.076813 4137.619629,506.100800 
	C4162.121094,506.124664 4186.626953,505.989471 4211.860352,506.202332 
	C4211.860352,641.813171 4211.860352,776.017273 4211.860352,910.605103 
	C4269.395508,910.605103 4326.163574,910.605103 4383.682617,910.605103 
	C4383.682617,876.255127 4383.683105,842.643005 4383.683105,809.030945 
	C4383.683105,775.368225 4383.683105,741.705505 4383.683105,708.042786 
	C4383.683105,674.380066 4383.665039,640.717346 4383.687988,607.054626 
	C4383.710449,573.567688 4383.585449,540.077820 4383.772461,505.802460 
	C4433.733398,505.802460 4482.250977,505.802460 4531.171875,505.802460 
	C4531.171875,457.500610 4531.171875,410.012115 4531.171875,361.342010 
	C4508.121582,361.342010 4485.560547,361.342010 4461.000000,361.342407 
M2300.317627,389.017853 
	C2300.317627,427.868011 2300.317627,466.718170 2300.317627,506.317932 
	C2350.262451,506.317932 2398.802002,506.317932 2448.462646,506.317932 
	C2448.462646,641.485046 2448.462646,775.891113 2448.462646,910.100281 
	C2461.346191,912.261658 2612.864746,911.746704 2620.521973,909.477295 
	C2620.521973,775.529358 2620.521973,641.344666 2620.521973,506.126221 
	C2670.427002,506.126221 2719.555908,506.126221 2768.507324,506.126221 
	C2770.617920,492.744110 2770.082520,368.832977 2768.009766,361.838806 
	C2612.527344,361.838806 2457.002686,361.838806 2300.317627,361.838806 
	C2300.317627,370.551117 2300.317627,378.788208 2300.317627,389.017853 
z"/>
<path fill="#5B5B5B" opacity="1.000000" stroke="none" 
	d="
M1607.064087,1.999994 
	C1614.721069,3.231407 1621.485718,4.267996 1628.148682,5.759285 
	C1632.999268,6.844941 1637.692993,8.612951 1642.497559,9.927353 
	C1647.931519,11.413969 1650.517090,14.829056 1651.491943,20.442595 
	C1655.127686,41.380489 1658.607666,62.312485 1657.654785,83.678131 
	C1657.389160,89.634689 1657.254639,95.663658 1656.208862,101.507088 
	C1652.121948,124.344948 1651.793213,147.769562 1645.579102,170.259521 
	C1633.655029,213.414200 1621.556885,256.553345 1603.847778,297.773712 
	C1593.756226,321.262939 1582.845581,344.440857 1571.328735,367.266998 
	C1556.066040,397.517151 1540.763062,427.815216 1523.787598,457.113617 
	C1506.809204,486.416809 1487.940186,514.638000 1469.474243,543.056824 
	C1464.544922,550.642944 1462.154785,558.172546 1462.181885,567.281494 
	C1462.425293,649.275757 1462.189209,731.271484 1462.397827,813.265930 
	C1462.463745,839.165894 1464.325684,865.078979 1463.870605,890.959839 
	C1460.227295,1098.184814 1463.356934,1305.422729 1462.396484,1512.651611 
	C1462.291748,1535.243530 1463.720459,1557.843384 1463.575317,1580.434082 
	C1463.417480,1605.016846 1462.252930,1629.593140 1461.763672,1655.086182 
	C1147.958252,1656.000000 833.916443,1656.000000 518.458313,1655.369629 
	C511.931732,1654.011108 506.737305,1652.278687 502.000000,1656.000000 
	C455.291534,1656.000000 408.583099,1656.000000 361.192871,1655.382568 
	C363.016785,1652.099487 365.453064,1649.364624 368.038300,1646.778564 
	C427.608917,1587.189331 487.196564,1527.616943 546.779724,1468.040161 
	C579.279724,1435.543701 611.821228,1403.088623 644.253967,1370.525269 
	C656.823425,1357.905273 663.707764,1342.910889 661.953430,1324.714722 
	C658.837708,1292.396362 627.873901,1271.490601 599.044312,1277.247437 
	C587.137695,1279.625000 577.518738,1285.243408 569.017578,1293.753174 
	C450.858551,1412.030029 332.605316,1530.212891 214.405991,1648.449585 
	C212.080292,1650.776001 210.127014,1653.474854 207.999969,1656.000000 
	C166.624878,1656.000000 125.249756,1656.000000 82.290787,1655.484619 
	C83.728035,1651.474731 86.542290,1647.773438 89.799759,1644.515259 
	C255.713257,1478.565430 421.664886,1312.653564 587.608948,1146.734375 
	C590.672974,1143.670776 593.832275,1140.688354 596.718140,1137.463135 
	C615.989502,1115.926270 615.083679,1083.397705 594.718201,1063.261841 
	C574.261230,1043.035645 541.929138,1042.471436 520.561523,1062.001221 
	C518.103027,1064.248169 515.790100,1066.655640 513.433044,1069.012085 
	C346.298370,1236.097656 179.171890,1403.191650 11.985362,1570.225464 
	C9.023884,1573.184326 5.344406,1575.424438 1.999972,1578.000000 
	C2.000000,1536.624878 2.000000,1495.249756 2.680740,1452.847900 
	C6.142792,1449.506836 9.126433,1447.395142 11.676003,1444.848633 
	C79.571396,1377.038574 147.440018,1309.201660 215.274200,1241.330444 
	C265.678528,1190.898438 315.996460,1140.380127 366.422638,1089.970215 
	C381.028870,1075.368652 388.191986,1058.423218 384.026581,1037.588745 
	C378.369324,1009.292419 351.621948,992.066467 325.086182,995.272522 
	C310.363464,997.051331 299.082184,1004.504272 288.924408,1014.670959 
	C196.609772,1107.066650 104.232529,1199.399658 11.827127,1291.704468 
	C8.804902,1294.723511 5.286928,1297.246094 2.000014,1300.000000 
	C2.000000,933.291565 2.000000,566.583069 2.916266,198.717010 
	C7.161047,197.489334 10.489559,197.358047 13.818075,197.357925 
	C288.052734,197.348557 562.287354,197.341995 836.522034,197.380081 
	C846.167419,197.381424 855.815491,197.759949 865.457458,198.098160 
	C874.071350,198.400284 882.678284,199.200699 891.288757,199.207855 
	C899.575623,199.214737 907.866333,198.097519 916.149597,198.166351 
	C931.424988,198.293259 946.698120,199.340317 961.968811,199.271149 
	C1005.906494,199.072174 1049.841919,198.443405 1093.779419,198.149170 
	C1101.176880,198.099640 1107.118774,195.120377 1113.111450,191.227158 
	C1134.550781,177.298691 1156.195557,163.687073 1177.726318,149.898788 
	C1220.623779,122.427277 1265.516602,98.609970 1311.655273,77.129616 
	C1329.118652,68.999313 1346.614990,60.735935 1364.691406,54.172104 
	C1396.195435,42.732555 1428.128296,32.465397 1459.954468,21.927759 
	C1468.435669,19.119667 1477.062378,16.439596 1485.831909,14.876818 
	C1506.060059,11.272023 1525.972778,5.759799 1546.730713,5.159311 
	C1555.177246,4.914974 1563.578247,3.100227 1572.000000,2.000001 
	C1583.376099,2.000000 1594.752075,2.000000 1607.064087,1.999994 
M568.568298,894.413513 
	C585.953308,910.454529 603.665894,926.157104 620.657043,942.604919 
	C659.660645,980.361450 700.918457,1015.874329 735.274475,1058.280151 
	C749.532471,1075.878906 765.304688,1092.262573 779.338257,1110.028320 
	C795.852844,1130.934814 811.270020,1152.710693 827.058411,1174.186523 
	C829.927185,1178.088867 833.108276,1181.098511 838.135742,1181.542480 
	C885.072083,1138.418945 931.866455,1095.425781 979.352051,1051.797607 
	C980.357056,1055.583252 981.256775,1058.055542 981.653992,1060.605957 
	C987.397644,1097.485352 990.383728,1134.622681 991.717285,1171.898193 
	C992.526978,1194.528809 993.315674,1217.166260 993.606934,1239.807007 
	C993.760559,1251.753784 992.796570,1263.713745 992.397217,1275.669556 
	C992.185852,1281.996094 991.810608,1288.339722 992.088257,1294.650269 
	C992.222778,1297.707642 993.690918,1300.706421 995.075562,1305.552368 
	C1000.402527,1301.218506 1005.117493,1298.517334 1008.324463,1294.585938 
	C1026.630737,1272.145264 1047.651855,1252.000732 1063.877197,1227.780640 
	C1079.822998,1203.978027 1096.210571,1180.458740 1112.909668,1157.177612 
	C1125.961182,1138.981812 1137.226685,1119.868042 1146.998901,1099.723389 
	C1165.803467,1060.959473 1182.131226,1021.392639 1189.274658,978.600220 
	C1192.285522,960.563782 1196.927734,942.551025 1197.527100,924.418335 
	C1198.447632,896.574402 1200.870361,868.446777 1194.305786,840.798096 
	C1193.924438,839.191956 1193.546021,837.392883 1193.896973,835.849854 
	C1194.434814,833.486816 1195.077881,830.810120 1196.591675,829.057068 
	C1222.499146,799.054138 1248.828369,769.411316 1274.475098,739.188721 
	C1294.519287,715.568481 1314.431885,691.778564 1333.214600,667.157532 
	C1378.471191,607.833984 1424.421021,549.029053 1463.847900,485.436432 
	C1487.556519,447.196228 1511.054199,408.895630 1531.360840,368.743805 
	C1543.080078,345.571533 1554.397095,322.166412 1564.971436,298.454132 
	C1572.683472,281.160400 1579.622192,263.437897 1585.585327,245.468384 
	C1593.863037,220.523880 1600.872559,195.159409 1608.481445,169.991776 
	C1619.978149,131.965317 1623.820923,93.176361 1620.151978,53.637627 
	C1618.733154,38.345760 1617.217041,36.981220 1601.777710,36.507515 
	C1601.111694,36.487080 1600.444580,36.497860 1599.777954,36.499329 
	C1572.425049,36.559639 1545.103516,37.824024 1518.242920,43.081856 
	C1498.423584,46.961407 1478.892578,52.352287 1459.303589,57.346668 
	C1452.882568,58.983753 1446.540405,61.142056 1440.406616,63.658054 
	C1408.385010,76.793022 1376.643066,90.633362 1344.417358,103.240868 
	C1309.601318,116.861809 1276.214722,133.174393 1244.214600,152.437622 
	C1227.671509,162.396088 1210.628784,171.578033 1194.498047,182.156998 
	C1161.071167,204.079163 1127.988525,226.533356 1094.986694,249.094070 
	C1073.822266,263.562500 1052.192749,277.541626 1032.267090,293.596069 
	C966.105835,346.903534 898.819275,398.888428 836.166382,456.419983 
	C829.200134,462.816895 821.670776,465.084961 812.416931,463.808868 
	C800.880432,462.217987 789.222534,460.055634 777.669861,460.333618 
	C753.075012,460.925415 728.283997,461.301971 703.991882,464.731476 
	C664.351379,470.327881 625.919128,481.098785 589.740356,498.946564 
	C574.221680,506.602264 558.491394,513.847778 542.697693,520.923340 
	C509.630585,535.737427 479.875946,556.270386 451.266998,577.810730 
	C419.381958,601.817810 390.143555,629.345886 359.886536,655.495789 
	C357.893768,657.218079 355.758392,660.348450 355.930145,662.657104 
	C356.236816,666.779236 360.421753,665.443420 363.209656,665.670166 
	C365.529755,665.858826 367.873444,665.745239 370.206085,665.794067 
	C413.846741,666.707520 457.484833,668.163269 501.128662,668.361450 
	C532.593872,668.504333 563.521729,673.039856 594.567749,676.956482 
	C597.714294,677.353455 600.837097,677.938232 605.724854,678.714355 
	C602.837524,683.147949 601.099670,686.636169 598.609985,689.462097 
	C593.989319,694.706726 588.837708,699.478882 584.067688,704.597290 
	C550.443726,740.676880 516.872070,776.805176 483.247406,812.884155 
	C479.771729,816.613525 476.893250,820.511719 476.960480,825.486572 
	C507.350220,848.352844 537.392578,870.957764 568.568298,894.413513 
z"/>
<path fill="#FFFEFE" opacity="1.000000" stroke="none" 
	d="
M1571.062744,2.000001 
	C1563.578247,3.100227 1555.177246,4.914974 1546.730713,5.159311 
	C1525.972778,5.759799 1506.060059,11.272023 1485.831909,14.876818 
	C1477.062378,16.439596 1468.435669,19.119667 1459.954468,21.927759 
	C1428.128296,32.465397 1396.195435,42.732555 1364.691406,54.172104 
	C1346.614990,60.735935 1329.118652,68.999313 1311.655273,77.129616 
	C1265.516602,98.609970 1220.623779,122.427277 1177.726318,149.898788 
	C1156.195557,163.687073 1134.550781,177.298691 1113.111450,191.227158 
	C1107.118774,195.120377 1101.176880,198.099640 1093.779419,198.149170 
	C1049.841919,198.443405 1005.906494,199.072174 961.968811,199.271149 
	C946.698120,199.340317 931.424988,198.293259 916.149597,198.166351 
	C907.866333,198.097519 899.575623,199.214737 891.288757,199.207855 
	C882.678284,199.200699 874.071350,198.400284 865.457458,198.098160 
	C855.815491,197.759949 846.167419,197.381424 836.522034,197.380081 
	C562.287354,197.341995 288.052734,197.348557 13.818075,197.357925 
	C10.489559,197.358047 7.161047,197.489334 2.916266,197.779694 
	C2.000000,132.699036 2.000000,67.398087 2.000000,2.000000 
	C524.708435,2.000000 1047.416870,2.000000 1571.062744,2.000001 
z"/>
<path fill="#5B5C5C" opacity="1.000000" stroke="none" 
	d="
M5742.000000,601.062744 
	C5740.808105,608.440857 5739.762207,614.912659 5738.400879,621.317505 
	C5727.212402,673.944275 5697.959473,713.691528 5652.388184,741.789124 
	C5622.713867,760.085205 5590.182129,770.475098 5555.787598,773.703857 
	C5531.022949,776.028625 5505.983887,775.522888 5481.062500,776.041992 
	C5467.777344,776.318726 5454.481934,776.091125 5439.744629,776.091125 
	C5439.584473,821.033020 5439.770020,865.465942 5439.636230,910.614563 
	C5382.148926,910.614563 5325.390137,910.614563 5268.153320,910.614563 
	C5268.153320,841.713623 5268.153320,773.205811 5268.153320,703.570312 
	C5304.470703,703.570312 5340.541992,703.570312 5378.924316,703.570312 
	C5373.497559,696.753357 5369.590332,691.647095 5365.478027,686.711670 
	C5334.409668,649.422424 5303.324219,612.146790 5272.164062,574.934387 
	C5269.291016,571.503357 5267.552734,568.166565 5267.564941,563.397461 
	C5267.731934,498.419250 5267.677246,433.440460 5267.693848,368.461792 
	C5267.694336,366.519409 5267.877441,364.577087 5268.009277,361.969208 
	C5271.286621,361.741577 5274.158691,361.369110 5277.031250,361.367798 
	C5356.671875,361.330811 5436.313477,361.039917 5515.952148,361.452545 
	C5554.061523,361.649994 5591.302734,367.358307 5626.744141,382.551147 
	C5668.968262,400.651581 5701.520020,429.357483 5722.491211,470.236664 
	C5732.818848,490.368958 5739.950195,511.868103 5741.394043,535.455933 
	C5742.000000,557.375122 5742.000000,578.750244 5742.000000,601.062744 
M5567.843750,547.794861 
	C5565.640625,542.607971 5564.021973,537.066772 5561.129395,532.298340 
	C5551.000977,515.604065 5535.132812,507.300201 5516.358398,506.348907 
	C5491.771973,505.103088 5467.089844,505.737885 5442.449219,505.606476 
	C5441.880859,505.603424 5441.309082,506.108673 5440.406738,506.533173 
	C5440.406738,548.445801 5440.406738,590.508972 5440.406738,632.596619 
	C5442.057617,632.929016 5443.014160,633.301819 5443.964355,633.286499 
	C5467.908691,632.902344 5491.936035,633.566284 5515.773438,631.750366 
	C5539.149414,629.969543 5557.602539,619.004822 5566.087891,595.572144 
	C5571.556152,580.471924 5571.705566,564.992920 5567.843750,547.794861 
z"/>
<path fill="#EF801B" opacity="1.000000" stroke="none" 
	d="
M1950.033691,1653.934692 
	C1918.635742,1650.377075 1887.546997,1645.075806 1857.256470,1635.959961 
	C1829.815796,1627.701538 1802.969116,1617.863892 1778.529907,1602.466431 
	C1776.584595,1601.240845 1774.671753,1599.963989 1771.813599,1598.106323 
	C1788.370239,1561.889893 1804.854492,1525.831665 1821.333984,1489.783936 
	C1834.506348,1496.376831 1846.496338,1502.707764 1858.760620,1508.453369 
	C1893.041504,1524.513062 1929.007812,1534.851074 1966.690430,1538.710815 
	C1988.911255,1540.986938 2011.205078,1541.075928 2033.385498,1537.925537 
	C2045.667114,1536.181152 2057.349854,1532.448364 2067.872314,1525.658813 
	C2089.136230,1511.937866 2088.196289,1485.205322 2067.943848,1472.039185 
	C2056.116943,1464.350220 2043.129639,1459.222656 2029.497681,1455.962891 
	C1998.154297,1448.468262 1966.652588,1441.626221 1935.360596,1433.927979 
	C1907.561157,1427.088867 1880.416992,1418.288086 1854.942017,1404.801758 
	C1829.945679,1391.568848 1809.419189,1373.735474 1795.564453,1348.846436 
	C1788.884277,1336.845825 1784.835327,1323.866699 1783.023682,1310.234497 
	C1776.373535,1260.197998 1788.136475,1215.489136 1823.989136,1179.160156 
	C1845.985718,1156.871094 1873.244019,1142.049561 1902.966431,1131.994019 
	C1934.756470,1121.239014 1967.508789,1116.445801 2000.977417,1115.993530 
	C2028.284668,1115.624634 2055.536377,1116.052368 2082.650635,1119.970337 
	C2126.107666,1126.249878 2167.839600,1137.971191 2206.827393,1158.562622 
	C2207.958496,1159.159912 2208.873535,1160.166870 2210.514893,1161.485474 
	C2195.067627,1197.760620 2179.654053,1233.956909 2164.237793,1270.159424 
	C2150.368652,1264.144287 2137.691650,1258.431763 2124.850830,1253.116333 
	C2081.341064,1235.105713 2036.114380,1227.691040 1989.159912,1232.110596 
	C1975.840698,1233.364258 1963.044067,1237.054565 1951.265259,1243.737305 
	C1936.659912,1252.023315 1929.412354,1265.874512 1931.840576,1282.110474 
	C1933.391113,1292.477783 1939.886108,1299.776489 1949.054810,1303.949463 
	C1960.513794,1309.164917 1972.143799,1314.533936 1984.261230,1317.662109 
	C2008.390259,1323.891235 2032.936768,1328.485718 2057.248779,1334.027954 
	C2093.273926,1342.240356 2128.983154,1351.326904 2161.864014,1369.111816 
	C2187.801025,1383.140991 2208.403076,1402.233643 2221.062256,1429.114014 
	C2231.402588,1451.070801 2233.797363,1474.573242 2231.988037,1498.380005 
	C2228.290283,1547.040894 2204.566895,1584.292236 2165.059570,1611.950317 
	C2132.142822,1634.994629 2094.970703,1646.631714 2055.534668,1651.933716 
	C2050.931396,1652.552612 2046.307251,1653.012817 2040.081543,1653.780273 
	C2034.980103,1654.675903 2031.490112,1655.338013 2028.000000,1656.000000 
	C2007.291504,1656.000000 1986.583130,1656.000000 1964.413574,1655.405273 
	C1958.646240,1654.518433 1954.339966,1654.226562 1950.033691,1653.934692 
z"/>
<path fill="#FDFDFD" opacity="1.000000" stroke="none" 
	d="
M1.999972,1578.937256 
	C5.344406,1575.424438 9.023884,1573.184326 11.985362,1570.225464 
	C179.171890,1403.191650 346.298370,1236.097656 513.433044,1069.012085 
	C515.790100,1066.655640 518.103027,1064.248169 520.561523,1062.001221 
	C541.929138,1042.471436 574.261230,1043.035645 594.718201,1063.261841 
	C615.083679,1083.397705 615.989502,1115.926270 596.718140,1137.463135 
	C593.832275,1140.688354 590.672974,1143.670776 587.608948,1146.734375 
	C421.664886,1312.653564 255.713257,1478.565430 89.799759,1644.515259 
	C86.542290,1647.773438 83.728035,1651.474731 81.353470,1655.484619 
	C55.481892,1656.000000 28.963781,1656.000000 2.000000,1656.000000 
	C2.000000,1630.626587 2.000000,1605.250610 1.999972,1578.937256 
z"/>
<path fill="#EE7F1B" opacity="1.000000" stroke="none" 
	d="
M2.000014,1300.937256 
	C5.286928,1297.246094 8.804902,1294.723511 11.827127,1291.704468 
	C104.232529,1199.399658 196.609772,1107.066650 288.924408,1014.670959 
	C299.082184,1004.504272 310.363464,997.051331 325.086182,995.272522 
	C351.621948,992.066467 378.369324,1009.292419 384.026581,1037.588745 
	C388.191986,1058.423218 381.028870,1075.368652 366.422638,1089.970215 
	C315.996460,1140.380127 265.678528,1190.898438 215.274200,1241.330444 
	C147.440018,1309.201660 79.571396,1377.038574 11.676003,1444.848633 
	C9.126433,1447.395142 6.142792,1449.506836 2.680740,1451.910645 
	C2.000000,1401.958252 2.000000,1351.916382 2.000014,1300.937256 
z"/>
<path fill="#21A73F" opacity="1.000000" stroke="none" 
	d="
M208.937286,1656.000000 
	C210.127014,1653.474854 212.080292,1650.776001 214.405991,1648.449585 
	C332.605316,1530.212891 450.858551,1412.030029 569.017578,1293.753174 
	C577.518738,1285.243408 587.137695,1279.625000 599.044312,1277.247437 
	C627.873901,1271.490601 658.837708,1292.396362 661.953430,1324.714722 
	C663.707764,1342.910889 656.823425,1357.905273 644.253967,1370.525269 
	C611.821228,1403.088623 579.279724,1435.543701 546.779724,1468.040161 
	C487.196564,1527.616943 427.608917,1587.189331 368.038300,1646.778564 
	C365.453064,1649.364624 363.016785,1652.099487 360.255554,1655.382568 
	C309.958221,1656.000000 259.916412,1656.000000 208.937286,1656.000000 
z"/>
<path fill="#C1C1C1" opacity="1.000000" stroke="none" 
	d="
M502.888306,1656.000000 
	C506.737305,1652.278687 511.931732,1654.011108 517.520996,1655.369629 
	C513.258911,1656.000000 508.517761,1656.000000 502.888306,1656.000000 
z"/>
<path fill="#F1CEAE" opacity="1.000000" stroke="none" 
	d="
M1950.039795,1654.451172 
	C1954.339966,1654.226562 1958.646240,1654.518433 1963.476318,1655.405273 
	C1959.916626,1656.000000 1955.833374,1656.000000 1950.875000,1656.000000 
	C1950.015259,1655.655884 1950.030640,1655.311890 1950.039795,1654.451172 
z"/>
<path fill="#F5CDAB" opacity="1.000000" stroke="none" 
	d="
M2028.856934,1656.000000 
	C2031.490112,1655.338013 2034.980103,1654.675903 2039.281006,1654.081055 
	C2040.091919,1654.148315 2040.060303,1655.074951 2040.030151,1655.537476 
	C2036.571289,1656.000000 2033.142578,1656.000000 2028.856934,1656.000000 
z"/>
<path fill="#5C5C5C" opacity="1.000000" stroke="none" 
	d="
M3514.188477,361.341064 
	C3593.464844,361.334869 3671.767822,361.062500 3750.067871,361.438080 
	C3787.845215,361.619324 3824.886963,366.896179 3860.056885,381.788116 
	C3903.966064,400.380402 3937.786621,429.992767 3958.950195,473.081482 
	C3971.242432,498.108948 3977.674316,524.766113 3978.266602,552.685059 
	C3978.553223,566.204346 3979.225830,579.828674 3977.996582,593.247253 
	C3972.464600,653.618347 3946.269287,702.187317 3894.683350,735.779541 
	C3891.637695,737.762756 3888.666992,739.861206 3885.677490,741.929321 
	C3885.420166,742.107239 3885.284180,742.460632 3884.843994,743.082825 
	C3919.239502,798.035950 3953.725830,853.128540 3988.162842,908.251831 
	C3988.407471,908.643311 3987.978271,909.455811 3987.719727,910.847473 
	C3984.717773,911.007751 3981.510498,911.326355 3978.302979,911.328186 
	C3924.324707,911.358887 3870.345947,911.249451 3816.368652,911.473694 
	C3809.370605,911.502808 3805.128662,909.661072 3801.226074,903.263611 
	C3776.144531,862.145203 3750.431152,821.412598 3725.106201,780.441345 
	C3721.997314,775.411377 3718.553223,772.955811 3712.345947,773.205200 
	C3700.093750,773.697327 3687.807617,773.350342 3674.629395,773.350342 
	C3674.629395,819.424316 3674.629395,864.609924 3674.629395,909.529419 
	C3666.794434,911.720520 3516.033203,912.261719 3502.912109,910.306641 
	C3502.912109,727.702393 3502.912109,545.006287 3502.912109,361.341278 
	C3506.697998,361.341278 3509.956055,361.341278 3514.188477,361.341064 
M3726.745117,633.358032 
	C3735.025879,632.909607 3743.381836,633.015808 3751.572266,631.902710 
	C3771.537598,629.189270 3788.773193,621.517029 3798.317627,602.352356 
	C3805.470459,587.990356 3807.185791,572.650818 3804.900879,556.824524 
	C3803.152588,544.715088 3798.926025,533.849731 3790.439209,524.641235 
	C3779.669434,512.955688 3766.102051,506.889954 3750.774170,506.294891 
	C3726.186523,505.340393 3701.544189,505.799164 3676.924561,505.710785 
	C3676.374023,505.708832 3675.821289,506.308411 3675.270752,506.629333 
	C3673.348877,519.414246 3673.928467,625.890869 3676.150635,633.357605 
	C3692.233154,633.357605 3708.517822,633.357605 3726.745117,633.358032 
z"/>
<path fill="#EF801B" opacity="1.000000" stroke="none" 
	d="
M4786.250000,1141.774902 
	C4809.595703,1149.609497 4830.551758,1160.459839 4849.184570,1175.244385 
	C4884.208984,1203.036011 4905.723633,1239.158691 4912.117676,1283.506836 
	C4917.102539,1318.077271 4916.025879,1352.427734 4903.521973,1385.664795 
	C4888.175781,1426.458130 4860.174316,1455.873535 4822.072266,1476.196655 
	C4818.878418,1477.900513 4815.664551,1479.567627 4811.383789,1481.817017 
	C4849.446777,1535.931641 4887.211426,1589.622681 4925.526855,1644.096558 
	C4922.591797,1644.535645 4920.422852,1645.141113 4918.252930,1645.143433 
	C4869.255371,1645.197144 4820.257812,1645.131470 4771.260254,1645.264526 
	C4766.170410,1645.278320 4762.804199,1643.997925 4759.696777,1639.501587 
	C4737.185547,1606.935425 4714.334961,1574.604248 4691.587402,1542.201294 
	C4684.514160,1532.125122 4677.331543,1522.123291 4670.410156,1511.943848 
	C4668.381348,1508.959595 4666.294922,1507.112061 4662.437500,1507.137817 
	C4638.108887,1507.299927 4613.778809,1507.297119 4589.449219,1507.389282 
	C4588.835449,1507.391602 4588.223633,1507.858154 4586.632324,1508.507568 
	C4586.632324,1553.291382 4586.632324,1598.488037 4586.632324,1643.416504 
	C4578.260254,1645.635742 4444.895508,1645.884155 4434.854492,1643.843262 
	C4434.854492,1471.788452 4434.854492,1299.619873 4434.854492,1126.628784 
	C4437.711914,1126.417847 4440.571777,1126.023560 4443.431152,1126.022461 
	C4526.760254,1125.989258 4610.091309,1125.675293 4693.417480,1126.159668 
	C4724.789551,1126.341919 4755.581543,1131.774902 4786.250000,1141.774902 
M4586.322266,1249.489380 
	C4586.322266,1296.992432 4586.322266,1344.495483 4586.322266,1392.824341 
	C4591.338379,1392.824341 4594.959961,1392.824341 4598.581055,1392.824341 
	C4623.227051,1392.824829 4647.879395,1393.136475 4672.516602,1392.680298 
	C4683.091797,1392.484497 4693.775879,1391.418579 4704.162598,1389.446289 
	C4717.342285,1386.943604 4729.418945,1381.510010 4739.618164,1372.308960 
	C4754.881348,1358.538940 4761.687988,1341.066528 4762.114258,1320.991943 
	C4762.790039,1289.168579 4749.944336,1262.303589 4717.062500,1249.830688 
	C4701.201660,1243.814331 4684.613281,1242.721924 4668.099121,1242.203003 
	C4643.477539,1241.429077 4618.813477,1242.001099 4594.167480,1242.003662 
	C4592.835449,1242.003784 4591.503418,1242.039429 4590.171387,1242.048706 
	C4586.254883,1242.076050 4586.313965,1244.852295 4586.322266,1249.489380 
z"/>
<path fill="#5C5C5C" opacity="1.000000" stroke="none" 
	d="
M2890.632324,680.757507 
	C2933.786865,574.168945 2976.563965,468.256012 3019.503662,361.940918 
	C3075.990234,361.940918 3132.157471,361.940918 3188.916016,361.940918 
	C3262.656250,544.501587 3336.373535,727.006042 3410.117676,909.576416 
	C3402.694580,911.699463 3247.427979,912.383545 3232.370605,910.412537 
	C3221.396973,879.605713 3210.273682,848.378479 3198.973389,816.654785 
	C3135.284912,816.654785 3071.389404,816.654785 3006.571533,816.654785 
	C2995.424561,847.914368 2984.199219,879.394043 2972.947510,910.947388 
	C2914.859131,910.947388 2857.285156,910.947388 2797.973633,910.947388 
	C2828.524170,833.634216 2860.005615,757.777222 2890.632324,680.757507 
M3137.874756,644.904053 
	C3126.425293,612.386841 3114.976074,579.869629 3102.812500,545.323975 
	C3086.467529,591.410583 3070.797363,635.594910 3054.792725,680.722229 
	C3087.481934,680.722229 3118.497314,680.722229 3150.760498,680.722229 
	C3146.447266,668.624023 3142.476074,657.485291 3137.874756,644.904053 
z"/>
<path fill="#5B5B5B" opacity="1.000000" stroke="none" 
	d="
M5062.000000,361.343384 
	C5082.961914,361.343140 5102.924316,361.343140 5123.548340,361.343140 
	C5123.837891,364.394470 5124.288086,366.938660 5124.290039,369.483124 
	C5124.329102,433.129120 5124.235352,496.775452 5124.463379,560.420715 
	C5124.484863,566.326843 5122.226562,570.395447 5118.704102,574.594116 
	C5084.731934,615.088562 5050.855469,655.663269 5016.980957,696.239685 
	C5015.554199,697.949097 5014.419922,699.902893 5012.302246,702.969360 
	C5049.342773,702.969360 5085.097656,702.969360 5121.656250,702.969360 
	C5121.656250,708.028564 5122.197754,712.274902 5121.570312,716.340820 
	C5116.791016,747.315125 5109.377930,777.518494 5094.825684,805.590576 
	C5070.247559,853.003540 5033.218262,886.603271 4983.428223,905.963867 
	C4955.299316,916.901794 4925.981445,921.821106 4895.900391,923.477661 
	C4864.489746,925.207458 4833.430664,923.058838 4802.882324,915.948059 
	C4758.742188,905.673401 4720.665039,884.726318 4690.096191,850.543030 
	C4661.090820,818.107666 4644.716309,779.897827 4636.295898,737.804993 
	C4631.661621,714.633850 4629.608887,691.211121 4629.634277,667.556091 
	C4629.740723,569.587952 4629.679199,471.619629 4629.679199,373.651367 
	C4629.679199,370.035675 4629.678711,366.420013 4629.678711,362.076782 
	C4687.085938,362.076782 4743.815430,362.076782 4801.681641,362.076782 
	C4801.681641,366.254486 4801.681641,370.159119 4801.681641,374.063751 
	C4801.681641,471.698792 4801.601074,569.333984 4801.742676,666.968811 
	C4801.774902,689.014160 4804.265625,710.855347 4813.231445,731.261719 
	C4824.763672,757.506348 4845.861328,771.322205 4873.931641,773.085632 
	C4900.584473,774.760071 4923.116211,765.255066 4938.048828,742.145142 
	C4949.348633,724.657776 4953.486816,704.633850 4954.152344,684.186035 
	C4955.201172,651.941040 4955.525391,619.663513 4955.615723,587.398193 
	C4955.815430,516.088501 4955.679199,444.777893 4955.679199,373.467651 
	C4955.679199,369.865601 4955.678711,366.263550 4955.678711,361.343597 
	C4991.308594,361.343597 5026.154297,361.343597 5062.000000,361.343384 
z"/>
<path fill="#5C5C5C" opacity="1.000000" stroke="none" 
	d="
M2197.614746,390.458282 
	C2201.595215,392.904724 2204.969727,394.924103 2208.700195,397.156372 
	C2191.406982,442.302887 2174.325195,486.897888 2157.074951,531.933228 
	C2147.842773,527.522705 2138.953613,523.246826 2130.039795,519.023010 
	C2101.632812,505.562225 2071.951416,496.137970 2040.695312,492.552612 
	C2022.182617,490.429047 2003.436890,489.798309 1985.065186,493.832886 
	C1977.720337,495.445862 1970.280884,498.191040 1963.829224,502.014801 
	C1944.557739,513.436829 1945.220337,535.929626 1964.800903,546.698242 
	C1979.244263,554.641724 1995.131958,558.382019 2011.025391,562.021484 
	C2038.554077,568.325500 2066.253662,573.968079 2093.576416,581.062805 
	C2121.391602,588.285522 2147.595947,599.562256 2171.300293,616.255005 
	C2203.734131,639.095032 2222.819580,669.963806 2228.284180,709.252258 
	C2231.748535,734.161011 2231.152344,758.887939 2224.522217,783.260620 
	C2211.629150,830.656555 2182.917969,865.664795 2140.699219,890.127502 
	C2106.654541,909.853943 2069.684326,919.004578 2030.746460,922.294556 
	C2008.794434,924.149292 1986.900513,924.599304 1965.004517,923.250427 
	C1925.782593,920.834229 1887.250488,914.305969 1849.672729,902.440125 
	C1825.809326,894.904846 1802.815430,885.479248 1781.127197,872.965698 
	C1778.020630,871.173279 1775.109741,869.041565 1771.914307,866.939209 
	C1790.357422,821.772461 1808.540894,777.241638 1827.053101,731.905701 
	C1829.586426,733.084045 1831.927246,733.966125 1834.066406,735.198364 
	C1877.837280,760.411194 1924.596802,776.845581 1975.052734,780.994263 
	C1991.790894,782.370605 2008.842773,780.811096 2025.682739,779.621704 
	C2032.119995,779.167114 2038.562866,776.468628 2044.651123,773.943726 
	C2053.441162,770.298523 2059.591553,763.965820 2060.249023,753.884216 
	C2060.957520,743.028076 2055.496826,735.298035 2046.456177,730.268188 
	C2034.216309,723.458618 2021.140381,718.766479 2007.452148,715.461304 
	C1973.561890,707.278381 1939.612427,699.246582 1906.026001,689.931335 
	C1883.252075,683.614990 1861.850586,673.554199 1842.072388,660.318665 
	C1809.050049,638.220154 1788.878174,607.564819 1782.657593,568.468384 
	C1777.253784,534.505859 1779.307129,500.937683 1792.425659,468.564667 
	C1804.469360,438.844513 1823.517578,414.652710 1849.228271,395.660889 
	C1879.512817,373.290222 1913.621826,359.812531 1950.629517,354.196350 
	C2021.478027,343.444763 2091.105469,348.753326 2158.847412,372.832886 
	C2171.950195,377.490295 2184.307373,384.244293 2197.614746,390.458282 
z"/>
<path fill="#EF801C" opacity="1.000000" stroke="none" 
	d="
M3984.000000,1125.994019 
	C4062.224854,1125.994019 4139.449707,1125.994019 4217.454102,1125.994019 
	C4216.850098,1163.784546 4216.262207,1200.566040 4215.656250,1238.516479 
	C4207.785645,1239.052612 4200.304199,1239.996704 4192.821289,1240.005127 
	C4115.169922,1240.092407 4037.518799,1240.028687 3959.867676,1240.007080 
	C3956.921875,1240.006348 3953.976074,1240.007080 3950.391602,1240.007080 
	C3950.128662,1243.147461 3949.741455,1245.681030 3949.732910,1248.215942 
	C3949.682861,1263.212769 3949.865234,1278.211792 3949.664551,1293.206055 
	C3949.571777,1300.146729 3948.700439,1307.073853 3948.355469,1314.015625 
	C3948.161621,1317.916382 3948.320557,1321.834839 3948.320557,1326.967773 
	C4027.939209,1326.967773 4106.397461,1326.967773 4186.126465,1326.967773 
	C4185.465332,1363.736084 4184.827148,1399.221069 4184.180176,1435.194946 
	C4181.892578,1435.499268 4180.004395,1435.955933 4178.111816,1435.972412 
	C4128.178711,1436.405396 4078.245361,1436.852173 4028.310791,1437.162842 
	C4004.316650,1437.312134 3980.320557,1437.173218 3956.325439,1437.217773 
	C3954.052979,1437.222046 3951.781250,1437.605835 3948.621338,1437.894409 
	C3948.621338,1469.025879 3948.621338,1499.859375 3948.621338,1530.811890 
	C3994.787354,1530.811890 4041.256836,1530.811890 4087.726318,1530.811890 
	C4133.972656,1530.811890 4180.219238,1530.811890 4227.503906,1530.811890 
	C4226.943359,1569.337280 4226.399414,1606.718384 4225.847656,1644.640259 
	C4083.831055,1644.640259 3942.344727,1644.640259 3800.413574,1644.640259 
	C3800.413574,1471.799805 3800.413574,1299.401489 3800.413574,1125.994019 
	C3861.882080,1125.994019 3922.440918,1125.994019 3984.000000,1125.994019 
z"/>
<path fill="#EF801B" opacity="1.000000" stroke="none" 
	d="
M3195.884277,1152.107422 
	C3239.826416,1255.315186 3283.581299,1357.780762 3328.258301,1462.406372 
	C3377.814697,1348.944092 3426.394775,1237.717163 3475.013184,1126.402710 
	C3524.939209,1126.402710 3574.182617,1126.402710 3623.450195,1126.402710 
	C3622.457275,1135.789185 3402.626709,1633.565063 3396.268799,1644.807617 
	C3347.524170,1644.807617 3298.563721,1644.807617 3248.070557,1644.807617 
	C3172.747314,1472.871582 3097.129395,1300.262451 3021.065674,1126.635498 
	C3076.151123,1126.635498 3129.934814,1126.635498 3184.758789,1126.635498 
	C3188.242188,1134.511475 3191.969482,1142.938477 3195.884277,1152.107422 
z"/>
<path fill="#EF801C" opacity="1.000000" stroke="none" 
	d="
M5309.116211,1377.152100 
	C5287.802246,1428.838989 5266.771484,1479.811279 5245.797363,1530.807007 
	C5231.145996,1566.430542 5216.520020,1602.065186 5202.025879,1637.753296 
	C5200.090332,1642.518311 5197.809570,1645.322266 5191.991699,1645.297119 
	C5145.009277,1645.093994 5098.025879,1645.183594 5051.042480,1645.149292 
	C5049.456543,1645.148193 5047.870605,1644.782227 5046.786621,1644.648315 
	C5046.137207,1643.838623 5045.846680,1643.607300 5045.743164,1643.310791 
	C5045.644043,1643.024658 5045.698730,1642.664673 5045.753418,1642.348877 
	C5045.922852,1641.366211 5045.939941,1640.305420 5046.340820,1639.421753 
	C5123.756836,1468.538818 5201.200684,1297.668579 5278.807617,1126.435425 
	C5328.368164,1126.435425 5377.921875,1126.435425 5428.260742,1126.435425 
	C5506.421387,1298.537354 5584.673828,1470.841431 5662.929688,1643.153809 
	C5656.258301,1645.746094 5531.407715,1646.853394 5505.696777,1644.497803 
	C5455.101074,1521.594849 5404.314453,1398.228516 5352.706543,1272.866089 
	C5343.839355,1290.778442 5337.750977,1308.047119 5330.649902,1324.846802 
	C5323.408691,1341.977173 5316.485352,1359.241577 5309.116211,1377.152100 
z"/>
<path fill="#EF801C" opacity="1.000000" stroke="none" 
	d="
M2640.000000,1125.994873 
	C2670.980957,1125.994873 2700.961914,1125.994873 2731.897705,1125.994873 
	C2810.166748,1298.348877 2888.483643,1470.807739 2967.340576,1644.456055 
	C2963.173096,1644.786377 2960.649902,1645.159180 2958.125977,1645.161133 
	C2911.476807,1645.196167 2864.827393,1645.074097 2818.179443,1645.320435 
	C2811.902100,1645.353638 2808.870117,1643.386230 2806.491211,1637.465698 
	C2792.005859,1601.419067 2777.106201,1565.538574 2762.275146,1529.631470 
	C2742.386230,1481.478516 2722.366455,1433.379639 2702.531738,1385.204468 
	C2687.377686,1348.397583 2672.424072,1311.508423 2656.658936,1272.886475 
	C2654.135986,1277.927002 2652.040283,1281.522217 2650.472168,1285.334595 
	C2621.434570,1355.935913 2592.467041,1426.566284 2563.468994,1497.183960 
	C2544.168457,1544.185913 2524.776611,1591.150757 2505.626465,1638.213989 
	C2503.583252,1643.235596 2501.047852,1645.338745 2495.389404,1645.311646 
	C2448.741211,1645.088501 2402.091553,1645.197998 2355.442383,1645.143799 
	C2353.235352,1645.141235 2351.028564,1644.544800 2348.192139,1644.133545 
	C2426.530762,1471.088745 2504.549805,1298.750366 2582.757324,1125.994873 
	C2601.736084,1125.994873 2620.367920,1125.994873 2640.000000,1125.994873 
z"/>
<path fill="#5B5C5C" opacity="1.000000" stroke="none" 
	d="
M4462.000000,361.342224 
	C4485.560547,361.342010 4508.121582,361.342010 4531.171875,361.342010 
	C4531.171875,410.012115 4531.171875,457.500610 4531.171875,505.802460 
	C4482.250977,505.802460 4433.733398,505.802460 4383.772461,505.802460 
	C4383.585449,540.077820 4383.710449,573.567688 4383.687988,607.054626 
	C4383.665039,640.717346 4383.683105,674.380066 4383.683105,708.042786 
	C4383.683105,741.705505 4383.683105,775.368225 4383.683105,809.030945 
	C4383.683105,842.643005 4383.682617,876.255127 4383.682617,910.605103 
	C4326.163574,910.605103 4269.395508,910.605103 4211.860352,910.605103 
	C4211.860352,776.017273 4211.860352,641.813171 4211.860352,506.202332 
	C4186.626953,505.989471 4162.121094,506.124664 4137.619629,506.100800 
	C4112.977539,506.076813 4088.335205,506.095520 4062.982422,506.095520 
	C4062.982422,457.837097 4062.982422,410.081085 4062.982422,361.342407 
	C4195.870117,361.342407 4328.435059,361.342407 4462.000000,361.342224 
z"/>
<path fill="#5C5C5C" opacity="1.000000" stroke="none" 
	d="
M2300.317627,388.021545 
	C2300.317627,378.788208 2300.317627,370.551117 2300.317627,361.838806 
	C2457.002686,361.838806 2612.527344,361.838806 2768.009766,361.838806 
	C2770.082520,368.832977 2770.617920,492.744110 2768.507324,506.126221 
	C2719.555908,506.126221 2670.427002,506.126221 2620.521973,506.126221 
	C2620.521973,641.344666 2620.521973,775.529358 2620.521973,909.477295 
	C2612.864746,911.746704 2461.346191,912.261658 2448.462646,910.100281 
	C2448.462646,775.891113 2448.462646,641.485046 2448.462646,506.317932 
	C2398.802002,506.317932 2350.262451,506.317932 2300.317627,506.317932 
	C2300.317627,466.718170 2300.317627,427.868011 2300.317627,388.021545 
z"/>
<path fill="#FEFEFE" opacity="1.000000" stroke="none" 
	d="
M568.001587,893.988098 
	C537.392578,870.957764 507.350220,848.352844 476.960480,825.486572 
	C476.893250,820.511719 479.771729,816.613525 483.247406,812.884155 
	C516.872070,776.805176 550.443726,740.676880 584.067688,704.597290 
	C588.837708,699.478882 593.989319,694.706726 598.609985,689.462097 
	C601.099670,686.636169 602.837524,683.147949 605.724854,678.714355 
	C600.837097,677.938232 597.714294,677.353455 594.567749,676.956482 
	C563.521729,673.039856 532.593872,668.504333 501.128662,668.361450 
	C457.484833,668.163269 413.846741,666.707520 370.206085,665.794067 
	C367.873444,665.745239 365.529755,665.858826 363.209656,665.670166 
	C360.421753,665.443420 356.236816,666.779236 355.930145,662.657104 
	C355.758392,660.348450 357.893768,657.218079 359.886536,655.495789 
	C390.143555,629.345886 419.381958,601.817810 451.266998,577.810730 
	C479.875946,556.270386 509.630585,535.737427 542.697693,520.923340 
	C558.491394,513.847778 574.221680,506.602264 589.740356,498.946564 
	C625.919128,481.098785 664.351379,470.327881 703.991882,464.731476 
	C728.283997,461.301971 753.075012,460.925415 777.669861,460.333618 
	C789.222534,460.055634 800.880432,462.217987 812.416931,463.808868 
	C821.670776,465.084961 829.200134,462.816895 836.166382,456.419983 
	C898.819275,398.888428 966.105835,346.903534 1032.267090,293.596069 
	C1052.192749,277.541626 1073.822266,263.562500 1094.986694,249.094070 
	C1127.988525,226.533356 1161.071167,204.079163 1194.498047,182.156998 
	C1210.628784,171.578033 1227.671509,162.396088 1244.214600,152.437622 
	C1276.214722,133.174393 1309.601318,116.861809 1344.417358,103.240868 
	C1376.643066,90.633362 1408.385010,76.793022 1440.406616,63.658054 
	C1446.540405,61.142056 1452.882568,58.983753 1459.303589,57.346668 
	C1478.892578,52.352287 1498.423584,46.961407 1518.242920,43.081856 
	C1545.103516,37.824024 1572.425049,36.559639 1599.777954,36.499329 
	C1600.444580,36.497860 1601.111694,36.487080 1601.777710,36.507515 
	C1617.217041,36.981220 1618.733154,38.345760 1620.151978,53.637627 
	C1623.820923,93.176361 1619.978149,131.965317 1608.481445,169.991776 
	C1600.872559,195.159409 1593.863037,220.523880 1585.585327,245.468384 
	C1579.622192,263.437897 1572.683472,281.160400 1564.971436,298.454132 
	C1554.397095,322.166412 1543.080078,345.571533 1531.360840,368.743805 
	C1511.054199,408.895630 1487.556519,447.196228 1463.847900,485.436432 
	C1424.421021,549.029053 1378.471191,607.833984 1333.214600,667.157532 
	C1314.431885,691.778564 1294.519287,715.568481 1274.475098,739.188721 
	C1248.828369,769.411316 1222.499146,799.054138 1196.591675,829.057068 
	C1195.077881,830.810120 1194.434814,833.486816 1193.896973,835.849854 
	C1193.546021,837.392883 1193.924438,839.191956 1194.305786,840.798096 
	C1200.870361,868.446777 1198.447632,896.574402 1197.527100,924.418335 
	C1196.927734,942.551025 1192.285522,960.563782 1189.274658,978.600220 
	C1182.131226,1021.392639 1165.803467,1060.959473 1146.998901,1099.723389 
	C1137.226685,1119.868042 1125.961182,1138.981812 1112.909668,1157.177612 
	C1096.210571,1180.458740 1079.822998,1203.978027 1063.877197,1227.780640 
	C1047.651855,1252.000732 1026.630737,1272.145264 1008.324463,1294.585938 
	C1005.117493,1298.517334 1000.402527,1301.218506 995.075562,1305.552368 
	C993.690918,1300.706421 992.222778,1297.707642 992.088257,1294.650269 
	C991.810608,1288.339722 992.185852,1281.996094 992.397217,1275.669556 
	C992.796570,1263.713745 993.760559,1251.753784 993.606934,1239.807007 
	C993.315674,1217.166260 992.526978,1194.528809 991.717285,1171.898193 
	C990.383728,1134.622681 987.397644,1097.485352 981.653992,1060.605957 
	C981.256775,1058.055542 980.357056,1055.583252 979.352051,1051.797607 
	C931.866455,1095.425781 885.072083,1138.418945 838.135742,1181.542480 
	C833.108276,1181.098511 829.927185,1178.088867 827.058411,1174.186523 
	C811.270020,1152.710693 795.852844,1130.934814 779.338257,1110.028320 
	C765.304688,1092.262573 749.532471,1075.878906 735.274475,1058.280151 
	C700.918457,1015.874329 659.660645,980.361450 620.657043,942.604919 
	C603.665894,926.157104 585.953308,910.454529 568.001587,893.988098 
M1091.783813,476.506989 
	C1096.888306,532.278198 1146.475586,572.202759 1202.698608,565.808716 
	C1256.437866,559.697205 1295.559692,509.063385 1288.434204,454.844543 
	C1280.165283,391.925568 1216.774048,352.940674 1157.107056,374.104736 
	C1118.224487,387.896545 1088.075562,426.901001 1091.783813,476.506989 
z"/>
<path fill="#FEFEFE" opacity="1.000000" stroke="none" 
	d="
M5568.048828,548.601746 
	C5571.705566,564.992920 5571.556152,580.471924 5566.087891,595.572144 
	C5557.602539,619.004822 5539.149414,629.969543 5515.773438,631.750366 
	C5491.936035,633.566284 5467.908691,632.902344 5443.964355,633.286499 
	C5443.014160,633.301819 5442.057617,632.929016 5440.406738,632.596619 
	C5440.406738,590.508972 5440.406738,548.445801 5440.406738,506.533173 
	C5441.309082,506.108673 5441.880859,505.603424 5442.449219,505.606476 
	C5467.089844,505.737885 5491.771973,505.103088 5516.358398,506.348907 
	C5535.132812,507.300201 5551.000977,515.604065 5561.129395,532.298340 
	C5564.021973,537.066772 5565.640625,542.607971 5568.048828,548.601746 
z"/>
<path fill="#FDFDFD" opacity="1.000000" stroke="none" 
	d="
M3725.773682,633.357788 
	C3708.517822,633.357605 3692.233154,633.357605 3676.150635,633.357605 
	C3673.928467,625.890869 3673.348877,519.414246 3675.270020,506.628357 
	C3675.821289,506.308411 3676.374023,505.708832 3676.924561,505.710785 
	C3701.544189,505.799164 3726.186523,505.340393 3750.774170,506.294891 
	C3766.102051,506.889954 3779.669434,512.955688 3790.439209,524.641235 
	C3798.926025,533.849731 3803.152588,544.715088 3804.900879,556.824524 
	C3807.185791,572.650818 3805.470459,587.990356 3798.317627,602.352356 
	C3788.773193,621.517029 3771.537598,629.189270 3751.572266,631.902710 
	C3743.381836,633.015808 3735.025879,632.909607 3725.773682,633.357788 
z"/>
<path fill="#FFFEFE" opacity="1.000000" stroke="none" 
	d="
M4586.325195,1248.544189 
	C4586.313965,1244.852295 4586.254883,1242.076050 4590.171387,1242.048706 
	C4591.503418,1242.039429 4592.835449,1242.003784 4594.167480,1242.003662 
	C4618.813477,1242.001099 4643.477539,1241.429077 4668.099121,1242.203003 
	C4684.613281,1242.721924 4701.201660,1243.814331 4717.062500,1249.830688 
	C4749.944336,1262.303589 4762.790039,1289.168579 4762.114258,1320.991943 
	C4761.687988,1341.066528 4754.881348,1358.538940 4739.618164,1372.308960 
	C4729.418945,1381.510010 4717.342285,1386.943604 4704.162598,1389.446289 
	C4693.775879,1391.418579 4683.091797,1392.484497 4672.516602,1392.680298 
	C4647.879395,1393.136475 4623.227051,1392.824829 4598.581055,1392.824341 
	C4594.959961,1392.824341 4591.338379,1392.824341 4586.322266,1392.824341 
	C4586.322266,1344.495483 4586.322266,1296.992432 4586.325195,1248.544189 
z"/>
<path fill="#FCFBFB" opacity="1.000000" stroke="none" 
	d="
M3138.189697,645.625366 
	C3142.476074,657.485291 3146.447266,668.624023 3150.760498,680.722229 
	C3118.497314,680.722229 3087.481934,680.722229 3054.792725,680.722229 
	C3070.797363,635.594910 3086.467529,591.410583 3102.812500,545.323975 
	C3114.976074,579.869629 3126.425293,612.386841 3138.189697,645.625366 
z"/>
<path fill="#5C5C5C" opacity="1.000000" stroke="none" 
	d="
M1091.730469,475.567444 
	C1088.075562,426.901001 1118.224487,387.896545 1157.107056,374.104736 
	C1216.774048,352.940674 1280.165283,391.925568 1288.434204,454.844543 
	C1295.559692,509.063385 1256.437866,559.697205 1202.698608,565.808716 
	C1146.475586,572.202759 1096.888306,532.278198 1091.730469,475.567444 
z"/>
</svg>