<?xml version="1.0" encoding="utf-8"?>
<!-- Generator: Adobe Illustrator 25.4.1, SVG Export Plug-In . SVG Version: 6.00 Build 0)  -->
<svg version="1.1" id="Layer_1" xmlns="http://www.w3.org/2000/svg" xmlns:xlink="http://www.w3.org/1999/xlink" x="0px" y="0px"
	 viewBox="0 0 5753 1653" style="enable-background:new 0 0 5753 1653;" xml:space="preserve">
<style type="text/css">
	.st0{fill:#58595B;}
	.st1{fill:#FFFFFF;}
	.st2{fill-rule:evenodd;clip-rule:evenodd;fill:#58595B;}
	.st3{fill-rule:evenodd;clip-rule:evenodd;fill:#FFFFFF;}
	.st4{fill-rule:evenodd;clip-rule:evenodd;fill:#F58220;}
	.st5{fill-rule:evenodd;clip-rule:evenodd;fill:#0DB14B;}
	.st6{fill:#F58220;}
</style>
<g>
	<g>
		<g>
			<path class="st0" d="M1017.9,1571.5l-87.1-0.1c-47-0.1-79.3-0.1-88.3-0.1c-6.3,0-11.6-0.3-15.8-0.6c-2.8-0.2-5.2-0.3-7-0.3
				c-0.9,0-1.3,0-1.5,0.1c-2.5,0.8-5,1.1-7.6,1.1H380.9c-14.4,0-26-11.6-26-26V303.8l0-3.5c0-3.7,0-7.2,0-10.7c0-0.7-0.1-1.3-0.1-2
				c-0.3-5.7-1-17.5,8.2-27.1c5.6-5.9,13.4-9.2,21.9-9.2h705.6l10.3,0c10.1,0,21.9,0.1,32.6,1.3c3.1,0.3,6.8,0.5,11.5,0.5
				c4,0,8.3-0.1,12.4-0.2c4.2-0.1,8.6-0.2,12.8-0.2c4.6,0,13.9,0.1,25.7,0.2c21.8,0.2,51.6,0.5,78.5,0.5c37.5,0,50.5-0.6,55-0.9
				c0.7-0.5,1.5-1.1,2.2-1.6c1.2-0.9,2.6-1.9,4.1-3c0.1-0.1,0.3-0.2,0.4-0.3l14.4-9.4c0.2-0.1,0.3-0.2,0.5-0.3
				c3.6-2.2,7.2-4.7,11.1-7.3c7.8-5.3,16-10.8,25.2-15.4c0.3-0.1,0.5-0.2,0.7-0.3c0.7-0.5,1.6-1.1,2.8-1.9c0.3-0.2,0.5-0.3,0.8-0.5
				l3.8-2.2c21.3-13.4,64.4-38.3,90.4-49.7c0.3-0.1,0.5-0.2,0.7-0.3c0.1-0.1,0.3-0.2,0.4-0.3c0.7-0.4,1.5-0.9,2.8-1.6
				c3-1.7,5-2.5,6.8-3.2c0.5-0.2,0.7-0.3,1.1-0.5c0.2-0.1,0.5-0.3,0.5-0.3c1.7-1,3.2-1.8,6-3l9.1-4.5c0.4-0.2,0.8-0.4,1.2-0.6
				c4.6-2,9.2-4.1,14.2-6.3c12.3-5.5,25-11.2,38.3-15.6l84.5-28.2c1.1-0.4,2.2-0.7,3.3-0.9l32.3-6.2c0.3-0.1,0.7-0.1,1-0.2
				c4.1-0.6,6.9-1.2,9.9-1.8c6.6-1.4,12.8-2.7,25.9-3c4.2-0.1,8.8-0.6,13.6-1.1c6.7-0.7,14.3-1.6,22.8-1.6c6.5,0,34.9,1.6,48,6.6
				c1.9,0.7,3.6,1.3,4.9,1.8c5.8,2.1,11.8,4.2,17.1,9.9c6.9,7.3,8,15.6,8.6,20.6c0.4,2.9,0.8,6.5,2.3,12.7
				c4.1,16.4,4.5,56.3,0.7,73.5c-0.4,1.9-0.7,3.2-1,4.2c-0.1,0.3-0.1,0.5-0.2,0.8v0c0,0-0.1,0.5-0.3,2.3c-0.1,1-0.3,3.4-0.4,5.5
				c-0.6,8.6-1.1,14.6-2.2,19.4l-4.3,19.8c-0.7,3.9-1.6,7.9-4,12.1c-0.3,1.1-0.5,2.3-0.8,3.9c-0.7,3.8-1.6,8.9-3.9,15.4
				c0,0.2,0,0.4-0.1,0.5c-0.2,1.7-0.6,4.4-1.7,8c-1.3,4.4-3,9-4.6,13.5c-1.4,3.8-3.4,9.1-3.9,11.5c-0.2,1.2-0.6,2.3-1,3.4l-9.4,26.6
				c-2.5,8.9-6.9,18.3-10.8,26.6c-1.6,3.4-3.1,6.6-4.2,9.3c-0.1,0.3-0.3,0.7-0.4,1l-31,65.6c-0.8,1.7-1.2,2.5-1.5,3
				c-0.3,0.6-0.6,1.1-1,1.7l-1.6,2.6c-0.1,0.2-0.2,0.3-0.2,0.5c-0.1,0.2-0.2,0.4-0.3,0.7l-6.2,12.3c-0.1,0.3-0.3,0.5-0.4,0.8
				c-1.3,2.4-2.7,4.9-4,7.3c-8.6,15.6-17.4,31.8-27.5,47.3c-0.2,0.3-0.4,0.5-0.5,0.8l-0.8,1.2c-0.2,0.4-0.4,0.8-0.6,1.1
				c-0.3,0.5-0.5,0.9-0.8,1.4l-20,32.3c-0.2,0.3-0.4,0.6-0.5,0.9c-0.2,0.4-0.4,0.7-0.7,1.1l-16.2,24.4c0,1.2,0,2.8,0,4.3
				c0,0.8,0,1.7,0,2.6c0.9,167.1,0.6,336.9,0.3,501.2c-0.1,81.8-0.3,166.5-0.3,249.7c0,5.7,0.1,16.6,0.2,30.3
				c1,115.7,0.5,156.5-2.2,167.9c-2.3,9.8-10.1,17.5-20,19.5c-2.8,0.6-4.4,0.7-15.4,0.8c-0.1,0-0.2,0-0.3,0H1017.9z"/>
			<path class="st1" d="M1760.3,107.5c8.5,0,31.5,2.2,38.9,4.9c18.9,7.1,10.4,1.1,16.9,26.9c3.1,12.4,3.4,48.6,0.5,61.6
				c-1.1,5.2-1.3,4.4-1.9,10c-0.5,4.8-1,17.5-2.1,21.8l-4.5,20.7c-1.2,7.1-1.2,2.5-3.1,8.8c-1.9,6.2-1.8,11-4.6,19.2
				c-1.4,4.1-0.9,5.7-2.1,9.8c-2.3,8-7.4,19.3-9,26.8l-9.7,27.4c-2.8,10.3-9.9,23.7-14.1,33.6l-31.1,65.8c-0.2,0.4-0.7,1.4-0.8,1.8
				l-2,3.3c-1.3,2.3-0.4,0.6-1.3,2.6l-6.2,12.3c-9.8,17.9-19.5,36-30.5,53l-1.6,2.3c-1.6,2.5-0.3,0.6-1.4,2.6l-20.3,32.8
				c-0.2,0.3-0.3,0.6-0.5,0.8l-16.9,25.5c-4.1,5.9-3.6,11-3.6,20.3c1.4,250.2,0,500.5,0,750.7c0,28.5,2.2,177.1-1.3,192.3
				c-0.4,0.1-4,0.2-10.3,0.2h-309.7h-309.7c-92.5-0.1-161.6-0.2-175.4-0.2c-9.7,0-16.8-1-22.8-1c-3.3,0-6.3,0.3-9.1,1.2H690h-2.2
				H565.4h-7.5H446.3h-0.6h-64.7v-57.4v-9.4v-109.5l9.5-9.5c0.9-0.9,0.9-0.9,2-2c0.2-0.2,0.5-0.5,0.6-0.7l15.9-16
				c3.1-3.3,4.6-4.9,8-8l51.7-51.7c0.4-0.4,1.3-1.4,2-2c0.2-0.2,0.5-0.5,0.7-0.6c0.2-0.2,0.5-0.5,0.7-0.6c0.2-0.2,0.5-0.5,0.7-0.6
				c1.7-1.7,2.3-2.3,4-4l15.2-15.3c0.2-0.2,0.5-0.5,0.7-0.7l6-6c1.7-1.6,1.8-1.8,3.3-3.3l51.8-51.7c1.7-1.5,2.4-2.1,4.1-3.9
				l10.5-10.7c1-1,0.9-0.9,2-2c0.2-0.2,0.5-0.5,0.6-0.7l9.9-10c1-1.1,1-0.9,2-2c1-1,0.9-0.9,2-2l15.2-15.3c0.2-0.2,0.5-0.5,0.7-0.7
				l13.9-14c0.2-0.2,0.5-0.5,0.7-0.6c0.3-0.3,1.1-1,1.4-1.3l4-4c0.2-0.2,0.5-0.5,0.7-0.7l13.9-14c0.2-0.2,0.5-0.5,0.7-0.7l24.5-24.5
				c0.2-0.2,0.5-0.5,0.7-0.7l13.9-13.9c0.2-0.2,0.5-0.5,0.7-0.7l4.1-4.7l-298.7,298.7v-124.4v-7.7V764.9v-81.6V303.8
				c0-4.9,0-9.8,0-14.6c-0.1-5.9-1.6-11.9,4-11.9h705.6c3.4,0,6.9,0,10.3,0c10.5,0,20.6,0.1,29.7,1.1c4.6,0.5,9.4,0.7,14.4,0.7
				c8.6,0,17.4-0.5,25.2-0.5c12.7,0,62.4,0.7,104.3,0.7c30.9,0,57.5-0.4,61.9-1.6c5.6-1.6,9.3-5.1,14.1-8.4l14.4-9.4
				c11.3-7.1,22.3-15.6,34.2-21.5c3.9-2,2.8-1.6,5.8-3.5l4.2-2.4c21-13.3,62.9-37.4,87.2-48c3-1.3,3.1-1.6,6.1-3.2
				c2.9-1.6,3.5-1.5,6.4-2.9c3.7-1.7,2.3-1.5,6.2-3.1l9.8-4.8c16.4-7,33.4-15.5,50.5-21.1l84.6-28.2l32.3-6.2
				c14.1-2.1,16.2-4.1,32.6-4.6C1736.1,109.9,1747.3,107.5,1760.3,107.5 M1760.3,55.5c-9.9,0-18.7,1-25.7,1.7
				c-4.5,0.5-8.3,0.9-11.4,1c-14.3,0.4-22,1.8-30.5,3.5c-2.7,0.6-5.1,1.1-8.5,1.6c-0.7,0.1-1.3,0.2-2,0.3l-32.3,6.2
				c-2.3,0.4-4.5,1-6.7,1.7l-84.6,28.2c-14.5,4.8-28.4,11.1-40.7,16.6c-4.8,2.2-9.4,4.2-13.8,6.1c-0.8,0.4-1.6,0.7-2.4,1.1l-8.6,4.2
				c-2.6,1.1-4.7,2.2-6.9,3.4c-2.5,1-5.4,2.3-9.2,4.4c-1,0.6-1.9,1-2.5,1.4c-27.4,12.1-70.1,36.7-92.6,50.9l-3.4,2
				c-0.5,0.3-1,0.6-1.5,0.9c-0.8,0.5-1.6,1-2.2,1.4c-10.3,5.3-19.2,11.3-27.1,16.6c-3.6,2.5-7.1,4.8-10.2,6.8
				c-0.4,0.2-0.7,0.4-1,0.7l-14.4,9.4c-0.3,0.2-0.6,0.4-0.9,0.6c-0.2,0.1-0.4,0.3-0.6,0.4c-7.3,0.2-20.9,0.5-46,0.5
				c-26.8,0-56.5-0.3-78.3-0.5c-12.3-0.1-21.2-0.2-26-0.2c-4.6,0-9.1,0.1-13.5,0.3c-4.1,0.1-8,0.2-11.7,0.2c-3.7,0-6.6-0.1-8.6-0.3
				c-12.1-1.4-24.7-1.5-35.5-1.5c-1.7,0-3.5,0-5.2,0c-1.7,0-3.4,0-5.1,0H384.9c-15.7,0-30.2,6.2-40.8,17.3
				c-16.8,17.8-15.6,39.4-15.2,46.5c0,0.3,0,0.7,0.1,1c0.1,3.2,0,6.6,0,10.2c0,1.2,0,2.4,0,3.5v379.4v81.6v471.5v7.7v124.4
				c0,0.1,0,0.2,0,0.3c0,0.1,0,0.2,0,0.3v109.5v9.4v57.4c0,28.7,23.3,52,52,52h64.7h0.6h111.5h7.5h122.3h2.2h120.6
				c3.6,0,7.3-0.4,10.8-1.1c1.1,0.1,2.4,0.1,3.6,0.2c4.4,0.3,10.4,0.7,17.5,0.7c9.1,0,43.6,0.1,91.3,0.1l84,0.1c0,0,0,0,0.1,0h309.7
				h309.7c0.2,0,0.4,0,0.6,0c10.7-0.1,14.8-0.2,20.4-1.3c19.8-4.1,35.4-19.4,40-39.1c2.9-12.3,4.1-33.5,2.9-174.1
				c-0.1-13.6-0.2-24.4-0.2-30c0-83.2,0.2-167.8,0.3-249.6c0.3-163.9,0.6-333.5-0.3-500.3l11.8-17.8c0.5-0.7,0.9-1.4,1.3-2.1
				c0.2-0.4,0.4-0.7,0.6-1l19.8-31.9c0.5-0.8,1-1.7,1.5-2.5c0.3-0.5,0.7-1,1-1.4c10.6-16.3,19.7-32.9,28.5-49c1.3-2.4,2.7-4.9,4-7.3
				c0.3-0.5,0.6-1.1,0.9-1.6l6.2-12.3c0.1-0.1,0.1-0.2,0.2-0.4l0.8-1.3c0.7-1.1,1.3-2.2,1.9-3.4c0.6-1.2,1.2-2.4,2-4.2l30.9-65.4
				c0.3-0.6,0.6-1.3,0.9-1.9c1-2.3,2.4-5.3,3.9-8.5c4.2-8.9,8.8-19,11.9-29.5l9.2-25.8c0.7-2.1,1.3-4.2,1.8-6.4
				c0.5-1.6,1.9-5.5,2.9-8.1c1.8-4.7,3.7-10,5.3-15.4c1.2-4.1,1.8-7.4,2.1-9.7c2.3-7.2,3.4-12.8,4.1-16.7c0,0,0,0,0,0
				c2.5-5.5,3.8-10.8,4.7-15.6l4.2-19.1c1.6-6.7,2.2-13.8,2.8-23.5c0.1-1.6,0.3-3.8,0.3-4.5c0-0.1,0-0.1,0-0.2c0.2-1,0.6-2.3,1-4.1
				c4.7-21.3,4.2-65.2-0.9-85.5c-1.2-4.6-1.4-7-1.8-9.5c-0.8-6.5-2.7-21.7-15.5-35.3c-9.7-10.2-20.3-14-27.3-16.5
				c-1.4-0.5-2.8-1-4.5-1.6c-5.1-1.9-13.3-4.4-31.4-6.5C1776.4,56.2,1766.7,55.5,1760.3,55.5L1760.3,55.5z"/>
		</g>
		<g>
			<path class="st0" d="M2821.5,1562.4c-10.5,0-20-6.4-24-16.1l-110-267.3l-110,267.3c-4,9.7-13.5,16.1-24,16.1h-133.4
				c-8.8,0-17.1-4.5-21.8-11.9s-5.5-16.8-1.8-24.8l204-450.8c4.2-9.3,13.5-15.3,23.7-15.3h128.7c10.2,0,19.5,6,23.7,15.3
				l204.7,450.8c3.7,8,3,17.4-1.8,24.8c-4.8,7.4-13,11.9-21.9,11.9H2821.5z"/>
			<path class="st1" d="M2752.9,1085.7l204.7,450.8h-136l-134-325.7l-134,325.7h-133.4l204-450.8H2752.9 M2752.9,1033.7h-128.7
				c-20.4,0-39,12-47.4,30.6l-204,450.8c-7.3,16.1-5.9,34.8,3.7,49.6c9.6,14.8,26,23.8,43.7,23.8h133.4c21.1,0,40.1-12.7,48.1-32.2
				l85.9-208.9l85.9,208.9c8,19.5,27,32.2,48.1,32.2h136c17.7,0,34.1-9,43.7-23.8c9.6-14.9,10.9-33.6,3.6-49.7l-204.7-450.8
				C2791.8,1045.6,2773.3,1033.7,2752.9,1033.7L2752.9,1033.7z"/>
		</g>
		<g>
			<path class="st0" d="M2113.9,1571.5c-39.9,0-78.9-4.9-115.9-14.7c-37.6-9.9-69-23.1-93.2-39.2c-10.7-7.1-14.6-20.8-9.3-32.5
				l42.9-94c3.1-6.8,9-11.9,16.1-14.1c2.5-0.7,5-1.1,7.5-1.1c4.8,0,9.6,1.3,13.7,3.9c18.7,11.6,40.8,21.4,65.6,29.1
				c24.4,7.6,49.1,11.4,73.2,11.4c19.3,0,30.4-2.1,36.3-3.8c9.5-2.8,12.2-5.5,12.5-5.8c0.4-0.4,0.5-0.6,0.5-0.6c0,0,0-0.2,0-0.6
				c0-0.3,0-0.5,0-0.6c-0.2-0.3-0.9-0.9-2.2-1.7c-7.4-4.6-17.5-8.5-30.2-11.7c-14.9-3.7-31.8-7.6-50.1-11.4
				c-19.5-4-39.3-9.2-58.8-15.5c-20.7-6.6-39.9-15.5-57-26.2c-18.7-11.7-34.2-27.3-45.9-46.4c-12.2-19.7-18.4-44.4-18.4-73.2
				c0-32.3,9.2-62,27.4-88.2c17.9-25.8,44.6-46.6,79.3-61.8c33.5-14.7,75.3-22.2,124-22.2c32.2,0,64.2,3.6,95.2,10.6
				c31.6,7.2,60.3,17.9,85.2,32c11.5,6.5,16.4,20.6,11.2,32.8l-40.3,94.7c-2.8,6.7-8.4,11.9-15.2,14.3c-2.8,1-5.8,1.5-8.7,1.5
				c-4.2,0-8.3-1-12.1-3c-20.2-10.6-40.4-18.7-60-24c-19.3-5.2-38.1-7.8-56-7.8c-18.9,0-29.7,2.3-35.4,4.2c-9,3-11.5,5.8-11.7,6.1
				c-1.1,1.4-1.5,2.5-1.5,4.3c0,0,0,0,0,0c0.3,0.3,0.8,0.7,1.8,1.3c7.1,4.3,17.1,8,30,11c15.4,3.6,32.5,7.3,50.9,11.1
				c19.4,4,39.1,9.1,58.6,15.1c20.8,6.4,40,15.2,57.3,26c18.8,11.8,34.2,27.5,45.7,46.6c11.9,19.7,17.9,44.1,17.9,72.4
				c0,31.4-9.2,60.7-27.4,87.2c-17.9,26-44.4,47-78.9,62.2C2204.9,1564,2163.1,1571.5,2113.9,1571.5z"/>
			<path class="st1" d="M2131.7,1076.7c30.4,0,60.2,3.3,89.5,10c29.3,6.7,55.4,16.4,78.2,29.3l-40.3,94.7
				c-22-11.6-43.8-20.3-65.4-26.1c-21.6-5.8-42.5-8.7-62.7-8.7c-18,0-32.6,1.8-43.6,5.5c-11,3.7-18.9,8.5-23.8,14.5
				c-4.8,6-7.3,12.9-7.3,20.6c0,9.9,4.7,17.7,14.2,23.5c9.5,5.8,22,10.5,37.6,14.2c15.6,3.7,32.8,7.4,51.5,11.3
				c18.7,3.9,37.4,8.7,56.1,14.5c18.7,5.8,35.8,13.5,51.2,23.2c15.4,9.7,27.8,22.3,37.3,38c9.5,15.7,14.2,35.3,14.2,58.9
				c0,26.2-7.6,50.3-22.8,72.4c-15.2,22.1-37.8,39.8-68,53.1c-30.1,13.3-68.1,20-113.9,20c-37.9,0-74.3-4.6-109.3-13.8
				c-35-9.2-63.5-21.1-85.5-35.7l42.9-94c20.7,12.9,44.6,23.5,71.6,31.9c27.1,8.4,54,12.6,80.9,12.6c18,0,32.6-1.6,43.6-4.8
				c11-3.2,19-7.5,24.1-12.9c5.1-5.4,7.6-11.7,7.6-19c0-10.3-4.8-18.5-14.5-24.5c-9.7-6-22.2-10.9-37.6-14.8
				c-15.4-3.9-32.5-7.7-51.2-11.6c-18.7-3.9-37.4-8.8-56.1-14.8c-18.7-6-35.8-13.8-51.2-23.5c-15.4-9.7-27.9-22.3-37.6-38
				c-9.7-15.7-14.5-35.5-14.5-59.6c0-27,7.6-51.5,22.8-73.4c15.2-21.9,38-39.5,68.3-52.8C2048.5,1083.3,2086.4,1076.7,2131.7,1076.7
				 M2131.7,1024.7c-52.3,0-97.6,8.2-134.4,24.3c-39.2,17.2-69.5,41-90.2,70.8c-21.3,30.7-32,65.3-32,103.1c0,33.7,7.5,63,22.3,86.9
				c11,17.9,24.9,33.2,41.2,45.7c-10.5,5.3-18.9,14-23.8,24.8l-42.9,94c-10.6,23.3-2.7,50.8,18.6,64.9c26.7,17.7,60.6,32,101,42.7
				c39.2,10.3,80.4,15.6,122.5,15.6c52.8,0,98.2-8.2,134.9-24.4c39-17.2,69.2-41.2,89.9-71.3c21.2-30.8,31.9-65.1,31.9-101.9
				c0-33.1-7.3-62-21.7-85.8c-13.7-22.6-31.9-41.2-54.2-55.2c-2.5-1.6-5-3.1-7.5-4.5c8.7-5.6,15.7-13.7,19.8-23.5l40.3-94.7
				c10.4-24.4,0.8-52.7-22.3-65.7c-27.2-15.3-58.2-27-92.2-34.7C2199.8,1028.4,2165.8,1024.7,2131.7,1024.7L2131.7,1024.7z"/>
		</g>
		<g>
			<path class="st0" d="M3202.8,1562.4c-10.3,0-19.7-6.1-23.8-15.6l-197.4-450.8c-3.5-8-2.7-17.3,2.1-24.7
				c4.8-7.3,13-11.8,21.8-11.8h141.3c10.4,0,19.8,6.2,23.9,15.8l101.6,238.4l104.1-238.6c4.1-9.5,13.5-15.6,23.8-15.6h129.4
				c8.8,0,17,4.4,21.8,11.8s5.6,16.6,2,24.7l-198.1,450.8c-4.1,9.4-13.5,15.5-23.8,15.5H3202.8z"/>
			<path class="st1" d="M3529.6,1085.7L3529.6,1085.7 M3529.6,1085.7l-198.1,450.8h-128.7l-197.4-450.8h141.3l125.3,293.8
				l128.3-293.8H3529.6 M3529.6,1033.7L3529.6,1033.7h-129.4c-20.7,0-39.4,12.2-47.7,31.2l-80,183.4l-78-183
				c-8.2-19.2-27-31.6-47.8-31.6h-141.3c-17.6,0-33.9,8.9-43.5,23.5c-9.6,14.7-11.1,33.2-4.1,49.3l197.4,450.8
				c8.3,18.9,27,31.1,47.6,31.1h128.7c20.6,0,39.3-12.2,47.6-31.1l197.6-449.7c3.1-6.7,4.9-14.2,4.9-22
				C3581.6,1057,3558.4,1033.7,3529.6,1033.7C3529.7,1033.7,3529.6,1033.7,3529.6,1033.7C3529.6,1033.7,3529.6,1033.7,3529.6,1033.7
				L3529.6,1033.7z M3529.6,1137.7L3529.6,1137.7L3529.6,1137.7L3529.6,1137.7z"/>
		</g>
		<g>
			<path class="st0" d="M4520.6,1562.4c-8.5,0-16.4-4.1-21.3-11.1l-76-108.7h-31.8v93.8c0,14.4-11.6,26-26,26h-130.7
				c-14.4,0-26-11.6-26-26v-450.8c0-14.4,11.6-26,26-26H4446c45.7,0,85.9,7.4,119.6,22.1c35.1,15.3,62.8,37.8,82.2,67.1
				c19.5,29.3,29.5,64.2,29.5,103.6c0,39.1-9.9,73.5-29.6,102.5c-12.8,18.9-29.3,35.1-49.2,48.2l83.3,118.4
				c5.6,7.9,6.3,18.3,1.8,26.9c-4.5,8.6-13.4,14-23.1,14H4520.6z M4438.1,1292.1c20.5,0,35.7-3.8,44.1-11.1
				c4.8-4.1,11.1-11.6,11.1-28.6c0-17.6-6.3-25.1-11.1-29.3c-8.4-7.2-23.6-11.1-44.1-11.1h-46.6v80H4438.1z"/>
			<path class="st1" d="M4446,1085.7c42.3,0,78.7,6.7,109.3,20c30.6,13.3,54.3,32.5,71,57.6c16.7,25.1,25.1,54.8,25.1,89.2
				c0,33.9-8.4,63.2-25.1,87.9c-15.7,23.2-37.6,41.2-65.5,54.1l99.9,141.9h-140l-83.8-119.8h-71.4v119.8h-130.7v-450.8H4446
				 M4365.5,1318.1h72.6c27.3,0,47.6-5.8,61.1-17.4c13.4-11.6,20.1-27.7,20.1-48.3c0-21-6.7-37.4-20.1-48.9
				c-13.4-11.6-33.8-17.4-61.1-17.4h-72.6V1318.1 M4446,1033.7h-211.3c-28.7,0-52,23.3-52,52v450.8c0,28.7,23.3,52,52,52h130.7
				c28.7,0,52-23.3,52-52v-56.7l60.5,86.5c9.7,13.9,25.6,22.2,42.6,22.2h140c19.4,0,37.2-10.8,46.2-28c8.9-17.2,7.5-38-3.6-53.9
				l-68.8-97.8c13.4-11.5,25.1-24.6,35-39.2c22.6-33.3,34-72.7,34-117.1c0-44.6-11.4-84.3-33.8-118c-22.3-33.5-53.8-59.2-93.5-76.5
				C4539,1041.8,4495.3,1033.7,4446,1033.7L4446,1033.7z M4417.5,1238.1h20.6c17.7,0,25.6,3.4,27.1,4.8c1.7,1.5,2.1,6,2.1,9.6
				c0,7.1-1.5,8.4-2.1,8.9c-1.5,1.3-9.4,4.7-27.1,4.7h-20.6V1238.1L4417.5,1238.1z"/>
		</g>
		<g>
			<path class="st0" d="M5166.2,1562.4c-10.5,0-20-6.4-24-16.1l-110-267.3l-110,267.3c-4,9.7-13.5,16.1-24,16.1h-133.4
				c-8.8,0-17.1-4.5-21.8-11.9s-5.5-16.8-1.8-24.8l204-450.8c4.2-9.3,13.5-15.3,23.7-15.3h128.7c10.2,0,19.5,6,23.7,15.3
				l204.7,450.8c3.7,8,3,17.4-1.8,24.8c-4.8,7.4-13,11.9-21.9,11.9H5166.2z"/>
			<path class="st1" d="M5097.6,1085.7l204.7,450.8h-136l-134-325.7l-134,325.7h-133.4l204-450.8H5097.6 M5097.6,1033.7h-128.7
				c-20.4,0-39,12-47.4,30.6l-204,450.8c-7.3,16.1-5.9,34.8,3.7,49.6c9.6,14.8,26,23.8,43.7,23.8h133.4c21.1,0,40.1-12.7,48.1-32.2
				l85.9-208.9l85.9,208.9c8,19.5,27,32.2,48.1,32.2h136c17.7,0,34.1-9,43.7-23.8c9.6-14.9,10.9-33.6,3.6-49.7l-204.7-450.8
				C5136.5,1045.6,5118,1033.7,5097.6,1033.7L5097.6,1033.7z"/>
		</g>
		<g>
			<path class="st0" d="M3682.3,1562.4c-6.9,0-13.5-2.7-18.4-7.6c-4.9-4.9-7.6-11.5-7.6-18.4l0.7-450.8c0-14.3,11.7-26,26-26h361.8
				c7,0,13.6,2.8,18.5,7.7c4.9,5,7.6,11.7,7.5,18.6l-1.3,97.9c-0.2,14.2-11.7,25.6-25.9,25.6l-205.9,0.6l-0.1,24.6
				c0,0,179.6-0.5,179.6-0.5c6.9,0,13.5,2.8,18.4,7.7c4.9,4.9,7.6,11.6,7.6,18.5l-0.7,94.7c-0.1,14.3-11.7,25.8-25.9,25.8
				l-179.8,0.5l-0.2,31.1c0,0,216.8-0.6,216.8-0.6c6.9,0,13.5,2.8,18.4,7.7c4.9,4.9,7.6,11.6,7.6,18.5l-0.7,98.5
				c-0.1,14.3-11.7,25.8-26,25.8H3682.3z"/>
			<path class="st1" d="M4044.7,1085.7l-1.3,97.9l-231.7,0.6l-0.4,76.6l205.7-0.6l-0.7,94.7l-205.6,0.6l-0.4,83.1l243-0.6l-0.7,98.5
				h-370.4l0.7-450.8H4044.7 M4017,1260.2L4017,1260.2 M4044.7,1033.7h-361.8c-28.7,0-52,23.2-52,51.9l-0.7,450.8
				c0,13.8,5.4,27.1,15.2,36.8c9.8,9.8,23,15.3,36.8,15.3h370.4c28.6,0,51.8-23.1,52-51.7l0.7-98.5c0.1-13.9-5.4-27.2-15.2-37
				c-8.7-8.7-20.1-14-32.3-15.1c6.5-8.6,10.4-19.3,10.4-30.9l0.7-94.1c0-0.3,0-0.6,0-0.9c0-10.2-2.9-19.7-8-27.7
				c19.8-7.1,34.1-26,34.4-48.2l1.3-97.9c0.2-13.9-5.2-27.3-15-37.2C4072,1039.2,4058.6,1033.7,4044.7,1033.7L4044.7,1033.7z
				 M4044.7,1137.7L4044.7,1137.7L4044.7,1137.7L4044.7,1137.7z"/>
		</g>
		<g>
			<path class="st0" d="M3189.3,924c-11,0-20.8-6.9-24.5-17.3l-23.4-65.9h-131l-23.4,65.9c-3.7,10.4-13.5,17.3-24.5,17.3h-151.2
				c-8.6,0-16.7-4.3-21.6-11.5c-4.8-7.2-5.8-16.3-2.6-24.3l192.8-477.5c4-9.8,13.5-16.3,24.1-16.3h146.2c10.6,0,20.1,6.4,24.1,16.3
				l192.8,477.5c3.2,8,2.3,17.1-2.6,24.3c-4.8,7.2-12.9,11.5-21.6,11.5H3189.3z M3081.7,672.8l-5.9-16.6l-5.9,16.6H3081.7z"/>
			<path class="st1" d="M3150.2,420.5L3343,898h-153.7l-29.5-83.2H2992l-29.5,83.2h-151.2l192.8-477.5H3150.2 M3033.2,698.8h85.4
				l-42.7-120.3L3033.2,698.8 M3150.2,368.5h-146.2c-21.2,0-40.3,12.9-48.2,32.5l-192.8,477.5c-6.5,16-4.6,34.2,5.1,48.6
				c9.7,14.3,25.8,22.9,43.1,22.9h151.2c22,0,41.6-13.9,49-34.6l17.3-48.6h94.3l17.3,48.6c7.4,20.7,27,34.6,49,34.6H3343
				c17.3,0,33.4-8.6,43.1-22.9c9.7-14.3,11.6-32.5,5.1-48.6l-192.8-477.5C3190.5,381.4,3171.4,368.5,3150.2,368.5L3150.2,368.5z"/>
		</g>
		<g>
			<path class="st0" d="M2111.3,934.9c-39,0-77.3-4.9-113.7-14.5c-37-9.8-68.2-22.8-92.6-38.8c-10.4-6.8-14.6-20.1-9.8-31.6
				l47.9-117.3c2.9-7.1,8.8-12.6,16.1-14.9c2.6-0.8,5.3-1.3,8-1.3c4.8,0,9.6,1.4,13.8,4c19,11.9,40.6,21.6,64.1,28.9
				c23.2,7.2,46,10.8,67.6,10.8c11.3,0,18.7-0.7,23.4-1.5c-5.6-2.3-12.4-4.3-20.3-6.2c-14.6-3.4-30.5-7.1-47.3-10.8
				c-18.2-4.1-36.8-9.6-55.2-16.3c-19.6-7.2-37.8-16.8-54.2-28.6c-17.8-12.8-32.2-29.8-42.8-50.4c-10.7-20.7-16.1-46.2-16.1-75.7
				c0-34.4,9.1-66.3,27-94.7c17.9-28.4,44.6-51.3,79.5-67.9c33.8-16.2,75.9-24.4,124.9-24.4c31.7,0,63.4,3.7,94.2,10.9
				c31.5,7.4,60.4,19,85.7,34.5c10.7,6.5,15.2,19.8,10.7,31.5l-44.7,116.6c-2.7,7-8.2,12.5-15.3,15.1c-2.9,1.1-6,1.6-9,1.6
				c-4.3,0-8.5-1.1-12.4-3.1c-20.1-10.9-39.7-19.1-58.2-24.5c-17.9-5.2-35.5-7.8-52.3-7.8c-14.3,0-22,1.5-26,2.8
				c-0.2,0.1-0.4,0.1-0.6,0.2c6.1,2.6,13.8,4.9,23.1,7c14.5,3.2,30.5,6.6,47.6,10.2c18.6,3.9,37.3,9.3,55.7,16.1
				c19.3,7.2,37.4,16.8,53.8,28.5c17.7,12.8,32.1,29.6,42.8,49.9c10.8,20.5,16.2,45.7,16.2,74.8c0,33.9-9.1,65.6-27,94
				c-17.9,28.4-44.4,51.3-78.9,68.2C2203,926.6,2160.8,934.9,2111.3,934.9z"/>
			<path class="st1" d="M2131.4,409.6c29.8,0,59.2,3.4,88.2,10.2c29,6.8,55,17.3,78.1,31.4L2253,567.9c-21.8-11.8-43-20.7-63.3-26.6
				c-20.4-5.9-40.2-8.9-59.5-8.9c-14.3,0-25.6,1.4-34,4.1c-8.4,2.7-14.4,6.4-18,10.9c-3.6,4.5-5.4,9.5-5.4,15
				c0,8.2,4.4,14.7,13.2,19.4c8.8,4.8,20.5,8.8,35,11.9c14.5,3.2,30.4,6.6,47.9,10.2c17.4,3.6,34.8,8.6,52,15
				c17.2,6.4,33.1,14.8,47.6,25.2c14.5,10.5,26.1,24.1,35,40.9c8.8,16.8,13.2,37.7,13.2,62.8c0,29.1-7.7,55.8-23,80.1
				c-15.3,24.3-38.1,43.9-68.4,58.7c-30.2,14.8-68.2,22.2-114,22.2c-37,0-72.7-4.5-107.1-13.6c-34.4-9.1-62.8-20.9-85-35.5
				l47.9-117.3c21,13.2,44.4,23.8,70.2,31.7c25.8,8,50.9,11.9,75.3,11.9c14.3,0,25.5-1,33.7-3.1c8.2-2,14.2-5,18-8.9
				c3.8-3.9,5.7-8.5,5.7-14c0-8.6-4.4-15.5-13.2-20.5c-8.8-5-20.5-9.2-35-12.6c-14.5-3.4-30.4-7-47.6-10.9c-17.2-3.9-34.5-9-52-15.3
				c-17.4-6.4-33.4-14.8-47.9-25.2c-14.5-10.5-26.1-24.2-35-41.3c-8.8-17.1-13.2-38.3-13.2-63.8c0-29.6,7.7-56.5,23-80.8
				c15.3-24.3,38.2-43.8,68.7-58.3C2048.2,416.9,2086.1,409.6,2131.4,409.6 M2131.4,357.6c-53,0-98.8,9.1-136.1,26.9
				c-39.3,18.8-69.7,44.9-90.2,77.5c-20.6,32.6-31,69.2-31,108.5c0,33.7,6.4,63.2,19,87.7c9.6,18.6,21.9,34.7,36.5,48
				c-4.6,4.7-8.2,10.3-10.8,16.5L1871,840.2c-9.4,23.1-1.2,49.5,19.7,63.2c26.8,17.5,60.5,31.7,100.2,42.2
				c38.6,10.2,79.1,15.4,120.4,15.4c53.6,0,99.6-9.2,136.9-27.4c38.9-19,69-45.1,89.5-77.7c20.6-32.6,31-68.9,31-107.9
				c0-33.4-6.5-62.6-19.2-86.9c-12.6-24-29.6-43.8-50.6-59c-1.4-1-2.8-2-4.3-3c2.9-3.8,5.2-8,7-12.6l44.7-116.6
				c9-23.4,0-49.9-21.5-63c-27.7-16.9-59.1-29.6-93.3-37.6C2198.8,361.5,2165.1,357.6,2131.4,357.6L2131.4,357.6z"/>
		</g>
		<g>
			<path class="st0" d="M2507.6,924c-14.4,0-26-11.6-26-26V571.4h-103.1c-14.4,0-26-11.6-26-26V420.5c0-14.4,11.6-26,26-26h407
				c14.4,0,26,11.6,26,26v124.8c0,14.4-11.6,26-26,26h-103.2V898c0,14.4-11.6,26-26,26H2507.6z"/>
			<path class="st1" d="M2785.4,420.5v124.8h-129.2V898h-148.7V545.4h-129.1V420.5H2785.4 M2785.4,368.5h-407c-28.7,0-52,23.3-52,52
				v124.8c0,28.7,23.3,52,52,52h77.1V898c0,28.7,23.3,52,52,52h148.7c28.7,0,52-23.3,52-52V597.4h77.2c28.7,0,52-23.3,52-52V420.5
				C2837.4,391.8,2814.1,368.5,2785.4,368.5L2785.4,368.5z"/>
		</g>
		<g>
			<path class="st0" d="M4618.8,934.9c-74.7,0-134.2-22.7-176.9-67.4c-42.4-44.4-63.9-106.4-63.9-184.4V420.5c0-14.4,11.6-26,26-26
				h148.7c14.4,0,26,11.6,26,26v257.8c0,39.5,7.9,55.3,12.6,61.2c7.2,9.1,16.1,13.1,28.8,13.1c13,0,22-4,29-12.9
				c4.6-5.9,12.4-21.7,12.4-61.4V420.5c0-14.4,11.6-26,26-26h146.2c14.4,0,26,11.6,26,26v178.1c0,6.1-2.1,12-6,16.7l-64,76.8h42.4
				c7.3,0,14.3,3.1,19.3,8.5c4.9,5.4,7.3,12.7,6.6,20c-5.9,60.5-26.8,109.9-62.1,146.9C4753.1,912.2,4693.5,934.9,4618.8,934.9z"/>
			<path class="st1" d="M4833.7,420.5v178.1l-99.6,119.4h97.9c-5.3,54.8-23.7,98.6-55.1,131.5c-37.8,39.6-90.5,59.3-158.1,59.3
				c-67.6,0-120.3-19.8-158.1-59.3c-37.8-39.6-56.7-95-56.7-166.4V420.5h148.7v257.8c0,36.4,6.1,62.2,18.3,77.4
				c12.2,15.2,28.6,22.9,49.1,22.9c21,0,37.5-7.6,49.5-22.9c12-15.2,18-41,18-77.4V420.5H4833.7 M4833.7,368.5h-146.2
				c-28.7,0-52,23.3-52,52v257.8c0,35.6-6.8,45.2-6.9,45.3c-1.3,1.7-2.3,3-8.6,3c-5.9,0-6.9-1.3-8.5-3.3c-0.1-0.1-6.9-9.6-6.9-44.9
				V420.5c0-28.7-23.3-52-52-52H4404c-28.7,0-52,23.3-52,52v262.6c0,84.9,23.9,153,71.1,202.4c47.8,50,113.7,75.4,195.7,75.4
				c82.1,0,147.9-25.4,195.7-75.4c39.5-41.3,62.8-95.9,69.2-162.3c1.4-14.6-3.4-29.1-13.2-40c-7.1-7.9-16.4-13.3-26.6-15.7
				l29.6-35.5c7.8-9.3,12.1-21.1,12.1-33.3V420.5C4885.7,391.8,4862.4,368.5,4833.7,368.5L4833.7,368.5z"/>
		</g>
		<g>
			<path class="st0" d="M4959.1,924c-14.4,0-26-11.6-26-26V718.1c0-14.4,11.6-26,26-26h42.4l-62.3-74.8c-3.9-4.7-6-10.6-6-16.7
				V420.5c0-14.4,11.6-26,26-26h212.3c44.9,0,84.7,8.2,118.1,24.4c34.5,16.7,61.6,41.1,80.5,72.3c18.8,31,28.3,67.8,28.3,109.3
				c0,41.5-9.5,78.2-28.4,109c-18.9,31-45.9,55.3-80.3,72.2c-33.5,16.5-73.3,24.8-118.3,24.8h-37.6V898c0,14.4-11.6,26-26,26H4959.1
				z M5161.9,630.5c9.1,0,21.2-1.3,27.2-7.3c1.8-1.8,7.3-7.4,7.3-22.7c0-15.2-5.5-20.8-7.3-22.7c-5.9-6-18-7.3-27.2-7.3h-28.2v59.9
				H5161.9z"/>
			<path class="st1" d="M5171.4,420.5c41.2,0,76.8,7.3,106.8,21.8c30,14.6,53.2,35.4,69.6,62.4c16.4,27.1,24.6,59,24.6,95.8
				c0,36.8-8.2,68.7-24.6,95.5c-16.4,26.8-39.6,47.6-69.6,62.4c-30,14.8-65.6,22.2-106.8,22.2h-63.6V898h-148.7V718.1h97.9
				l-97.9-117.4V420.5H5171.4 M5107.8,656.5h54.2c20.6,0,35.8-5,45.7-15c9.9-10,14.8-23.6,14.8-40.9c0-17.3-4.9-30.9-14.8-40.9
				c-9.9-10-25.1-15-45.7-15h-54.2V656.5 M5171.4,368.5h-212.3c-28.7,0-52,23.3-52,52v180.2c0,12.2,4.3,24,12.1,33.3l27.9,33.5
				c-22.9,5.4-40,26-40,50.6V898c0,28.7,23.3,52,52,52h148.7c28.7,0,52-23.3,52-52v-65.3h11.6c49,0,92.7-9.3,129.7-27.5
				c38.9-19.1,69.5-46.7,91-82c21.4-35,32.2-76.2,32.2-122.6c0-46.3-10.8-87.6-32.1-122.8c-21.6-35.7-52.3-63.3-91.4-82.3
				C5263.8,377.6,5220.3,368.5,5171.4,368.5L5171.4,368.5z M5159.8,596.7h2.2c3.9,0,6.6,0.3,8.3,0.6c0.1,0.8,0.2,1.9,0.2,3.3
				c0,1.4-0.1,2.5-0.2,3.3c-1.7,0.3-4.4,0.6-8.3,0.6h-2.2V596.7L5159.8,596.7z"/>
		</g>
		<g>
			<path class="st0" d="M4040.5,924c-14.4,0-26-11.6-26-26V571.4h-103.2c-14.4,0-26-11.6-26-26V420.5c0-14.4,11.6-26,26-26h407
				c14.4,0,26,11.6,26,26v124.8c0,14.4-11.6,26-26,26h-103.2V898c0,14.4-11.6,26-26,26H4040.5z"/>
			<path class="st1" d="M4318.3,420.5v124.8h-129.2V898h-148.7V545.4h-129.2V420.5H4318.3 M4318.3,368.5h-407c-28.7,0-52,23.3-52,52
				v124.8c0,28.7,23.3,52,52,52h77.2V898c0,28.7,23.3,52,52,52h148.7c28.7,0,52-23.3,52-52V597.4h77.2c28.7,0,52-23.3,52-52V420.5
				C4370.3,391.8,4347,368.5,4318.3,368.5L4318.3,368.5z"/>
		</g>
		<g>
			<path class="st0" d="M3688.3,924c-9,0-17.3-4.6-22.1-12.3L3599,803.9h-0.1v94c0,14.4-11.6,26-26,26h-148.7c-14.4,0-26-11.6-26-26
				V420.5c0-14.4,11.6-26,26-26h212.3c44.9,0,84.7,8.2,118.1,24.4c34.5,16.7,61.6,41.1,80.5,72.3c18.8,31,28.3,67.8,28.3,109.3
				c0,41.5-9.6,78.1-28.4,108.8c-11.9,19.3-27,35.9-45,49.5l78.9,125.2c5,8,5.3,18.1,0.8,26.4c-4.6,8.3-13.3,13.4-22.8,13.4H3688.3z
				 M3627.2,630.5c9.1,0,21.2-1.3,27.2-7.3c1.8-1.8,7.3-7.4,7.3-22.7c0-15.3-5.5-20.8-7.3-22.7c-5.9-6-18-7.3-27.2-7.3H3599v59.9
				H3627.2z"/>
			<path class="st1" d="M3636.6,420.5c41.2,0,76.8,7.3,106.8,21.8c30,14.6,53.2,35.4,69.6,62.4c16.4,27.1,24.6,59,24.6,95.8
				c0,36.8-8.2,68.5-24.6,95.2c-14.3,23.2-33.8,41.7-58.5,55.4L3847,898h-158.8l-74.8-120H3573v120h-148.7V420.5H3636.6 M3573,656.5
				h54.2c20.6,0,35.8-5,45.7-15c9.9-10,14.8-23.6,14.8-40.9c0-17.3-4.9-30.9-14.8-40.9c-9.9-10-25.1-15-45.7-15H3573V656.5
				 M3636.6,368.5h-212.3c-28.7,0-52,23.3-52,52V898c0,28.7,23.3,52,52,52H3573c28.7,0,52-23.3,52-52v-3.2l19.2,30.7
				c9.5,15.2,26.2,24.5,44.1,24.5H3847c18.9,0,36.4-10.3,45.5-26.9c9.1-16.6,8.6-36.8-1.5-52.8l-66.9-106.2
				c12.7-12.2,23.8-25.9,33.2-41.1c21.4-34.8,32.3-76,32.3-122.4c0-46.3-10.8-87.6-32.1-122.8c-21.6-35.7-52.3-63.3-91.4-82.3
				C3729,377.6,3685.5,368.5,3636.6,368.5L3636.6,368.5z M3625,596.7h2.2c3.9,0,6.6,0.3,8.3,0.6c0.1,0.8,0.2,1.9,0.2,3.3
				c0,1.4-0.1,2.5-0.2,3.3c-1.7,0.3-4.4,0.6-8.3,0.6h-2.2V596.7L3625,596.7z"/>
		</g>
	</g>
	<g>
		<path class="st2" d="M1647.5,1545.2c3.5-15.2,1.3-163.8,1.3-192.3c0-250.2,1.4-500.5,0-750.7c0-9.3-0.5-14.4,3.6-20.3l16.9-25.5
			c0.2-0.3,0.3-0.6,0.5-0.8l20.3-32.8c1.1-2-0.2,0,1.4-2.6l1.6-2.3c11.1-17,20.7-35.1,30.5-53l6.2-12.3c1-2.1,0-0.4,1.3-2.6l2-3.3
			c0.2-0.4,0.7-1.4,0.8-1.8l31.1-65.8c4.2-10,11.3-23.3,14.1-33.6l9.7-27.4c1.6-7.5,6.7-18.8,9-26.8c1.2-4.2,0.7-5.7,2.1-9.8
			c2.9-8.2,2.8-13,4.6-19.2c1.9-6.3,1.9-1.7,3.1-8.8l4.5-20.7c1.1-4.3,1.6-17,2.1-21.8c0.6-5.6,0.8-4.9,1.9-10
			c2.9-13,2.6-49.2-0.5-61.6c-6.5-25.8,2-19.8-16.9-26.9c-7.3-2.8-30.4-4.9-38.9-4.9c-13,0-24.1,2.4-35.8,2.7
			c-16.3,0.4-18.5,2.4-32.6,4.6l-32.3,6.2l-84.6,28.2c-17.1,5.7-34.1,14.1-50.5,21.1l-9.8,4.8c-3.9,1.6-2.5,1.4-6.2,3.1
			c-2.8,1.3-3.4,1.3-6.4,2.9c-2.9,1.6-3,1.9-6.1,3.2c-24.3,10.6-66.2,34.7-87.2,48l-4.2,2.4c-3,1.9-1.8,1.5-5.8,3.5
			c-11.9,5.9-22.8,14.5-34.2,21.5l-14.4,9.4c-4.8,3.3-8.5,6.8-14.1,8.4c-10.4,2.9-144.1,0.9-166.2,0.9c-12.4,0-27.2,1.2-39.6-0.2
			c-12-1.4-26-1.1-40-1.1H384.9c-5.6,0-4.1,6-4,11.9c0.1,4.9,0,9.8,0,14.6v379.4v81.6v479.3h4c1.9-7.3,20.2-22.3,27-28.7l1.4-1.3
			c0.2-0.2,0.5-0.5,0.7-0.7l8.4-8.8c1.5-1.7,2.4-2.4,4-4l40.7-40.2c0.2-0.2,0.5-0.5,0.7-0.7c17.2-17.2,33.6-35.5,51.6-51.9l8.7-8.5
			c30.1-31.7,61.7-62.1,92.7-93c3.2-3.2,5.4-5.4,8.6-8.6l9.7-8.9c0.2-0.2,0.6-0.4,0.8-0.5l9.7-4.9c18.7-5.4,38.4,1.1,48.8,15
			c9.8,13.3,11.7,29.1,5.2,44.2l-27.9,31.8c-0.2,0.2-0.5,0.5-0.7,0.7l-13.9,13.9c-0.2,0.2-0.5,0.5-0.7,0.7l-24.5,24.5
			c-0.2,0.2-0.5,0.5-0.7,0.7l-13.9,14c-0.2,0.2-0.5,0.5-0.7,0.7l-4,4c-0.3,0.3-1.1,1-1.4,1.3c-0.2,0.2-0.5,0.5-0.7,0.6l-13.9,14
			c-0.2,0.2-0.5,0.5-0.7,0.7l-15.2,15.3c-1.1,1.1-1,1-2,2c-1.1,1.1-1,0.9-2,2l-9.9,10c-0.2,0.2-0.5,0.5-0.6,0.7c-1.1,1.1-0.9,1-2,2
			l-10.5,10.7c-1.6,1.8-2.4,2.3-4.1,3.9l-51.8,51.7c-1.4,1.5-1.6,1.7-3.3,3.3l-6,6c-0.2,0.2-0.5,0.5-0.7,0.7l-15.2,15.3
			c-1.6,1.7-2.3,2.3-4,4c-0.2,0.2-0.5,0.5-0.7,0.6c-0.2,0.2-0.5,0.5-0.7,0.6c-0.2,0.2-0.5,0.5-0.7,0.6c-0.6,0.6-1.5,1.6-2,2
			l-51.7,51.7c-3.3,3.1-4.9,4.6-8,8l-15.9,16c-0.2,0.2-0.5,0.5-0.6,0.7c-1.1,1.1-1.1,1.1-2,2l-9.5,9.5v118.9
			c10.1-10.3,18.4-18.8,22.2-22.7l21.6-22.2c13-14.8,28.4-27.2,41.8-41.7l4.9-5.7c20.8-24.3,47.1-45.6,68.7-69.2l37.2-37.1
			c0.6-0.5,1.4-1.2,2.1-1.9l72.6-73.3c2-2.1,3-2.9,4.7-4.6l6.5-6.7c1-0.9,1.2-1,2.1-1.9c1.8-1.7,2.2-2.3,3.9-4.1
			c19.3-21,39.9-40.5,60.1-60.6l64.7-65.3c1.4-1.3,0.8-0.7,2.1-1.9l10.4-10.8c0.2-0.2,0.4-0.5,0.6-0.7l1.3-1.4
			c0.2-0.2,0.5-0.5,0.6-0.7l8.6-8.6c0.2-0.2,0.5-0.5,0.7-0.7c16.6-16.6,30.7-28.9,56.7-17.9c11.7,5,19.6,14.8,24.2,26.2
			c1.2,2.9,1.5,3.9,1.5,7.8c0,19-0.8,24.2-13.4,38.3l-75.5,75.7c-0.2,0.2-0.5,0.5-0.7,0.6c-0.2,0.2-0.5,0.5-0.7,0.7l-7.6,8.3
			c-1,1.2-1.4,1.6-2.5,2.8c-30.2,31.3-100.6,97.4-119.7,120.4l-24.7,24.4c-0.2,0.2-0.5,0.5-0.6,0.7c-0.9,0.9-1.9,2.1-2.5,2.8
			c-2,2.2-3.2,3.1-5.4,5.2c-0.2,0.2-0.5,0.5-0.7,0.6c-0.2,0.2-0.5,0.5-0.7,0.6c-0.2,0.2-0.5,0.5-0.7,0.6c-0.2,0.2-0.5,0.5-0.7,0.6
			l-157.5,159.5c-0.2,0.2-0.5,0.5-0.7,0.6l-40.9,40.5h119.7L707,1403.1c10.7-12.7,25.7-25.6,37.9-37.7c13-13,24.7-25.1,37.6-38
			l19.2-19.2c16.8-16.6,62.3-64.9,76-75.2c12.2-9.2,31.8-14.1,46.7-5.7l2.5,1.5c8,4.8,15.5,12.1,18.7,21.1
			c5.2,14.7,5.8,23.9-2.4,37.8c-2,3.3-3.4,5.7-6,8.6l-13.2,13.3c-0.2,0.2-0.5,0.5-0.6,0.7l-47.8,47.7c-0.2,0.2-0.5,0.5-0.7,0.7
			l-14.6,14.6c-0.2,0.2-0.5,0.5-0.7,0.6l-66.5,66.1c-2.7,2.8-4.6,4.5-7.3,7.3l-98.1,98.1h122.8c8-2.6,16.9-0.2,32-0.2
			c13.7,0,82.9,0.1,175.4,0.2h309.7h309.7C1643.5,1545.4,1647.1,1545.3,1647.5,1545.2 M686,680.5c1.9-2.8,4.3-4.2,6.8-6.5
			c0.2-0.2,0.5-0.5,0.7-0.6l76.4-65.5c0.2-0.2,0.5-0.4,0.8-0.6c1.3-0.9,2.5-1.8,3.9-2.8l56.2-36.6c1.9-1,1.2-0.5,2.6-1.4l78.7-36.7
			c3.6-1.4,6.1-1.4,9.3-2.6c12.3-4.8,35.8-11.9,48.7-13.6c8.4-1.1,13.9-3.1,21.2-4l46.4-4c11.4-1.3,24.4,1.9,35.6,2.5
			c19.5,0.9,20.1,5.3,33-6.7l44.4-39.1c0.2-0.2,0.5-0.5,0.7-0.6l4.3-3.7c1.4-1.2,2.2-1.8,3.6-3l121.7-98.5c0.2-0.2,0.6-0.4,0.8-0.5
			l2.5-1.5c1.7-1.1,2.1-1.6,3.7-2.9l9-6.9c0.2-0.2,0.5-0.4,0.8-0.6l124.4-83.8c2.8-1.7,4-2.6,7.4-4.6l51.5-29.4
			c2.9-1.7,1.2-1.1,4-2.7c3.3-1.9,1.9-0.9,4.7-1.9l12.1-6.5c2.3-1.4,1.4-1.2,4.1-2.5l127.5-52.9c8.6-3.7,20.5-5.8,29.3-7.8
			c6.4-1.5,3.7-1.6,8.7-3.2c4-1.3,6.8-0.7,11.6-1.7c3.2-0.6,4.7-2.1,8.9-3.1l43.2-5.8c58,0,48.2-5.4,52.5,23.1
			c1.9,12.4-0.9,20-0.8,31.2c0.1,16.2-3.3,29.6-5.8,45.9l-27.1,89.6c-5.4,11.5-8.5,24.2-14.5,35.9l-32.7,68.1
			c-2.2,4.4-3,5.9-5.3,10.6l-2.5,4.1c-0.1,0.3-0.4,0.6-0.5,0.8l-24.9,44.1c-1.9,3.5-1,2-3,5l-42.6,66.2c-0.9,1.5-0.6,1.1-1.4,2.5
			c-1.2,1.9-0.3,0.4-1.6,2.4l-19.5,28.2c-0.2,0.2-0.4,0.5-0.6,0.8L1524.2,703c-2.5,3.3-5.1,6.2-7.8,9.4c-0.2,0.2-0.4,0.5-0.6,0.7
			l-33.3,39.7c-5.7,6.3,4.2-5.3-1.2,1.4l-2.2,3.1c-2.3,3.3-4.9,6.4-7.8,9.5c-0.2,0.2-0.5,0.5-0.7,0.7l-17.3,19.9
			c-0.3,0.3-1,1.1-1.3,1.4l-31.8,35.9c-3.4,3.6-0.7,2-4.8,3.1c0,12.9,4,20,4,31.8V906c0,12-3.3,18.8-3.9,29.2
			c-0.6,9.7-3.3,17.7-4.8,27c-2.4,15.3-11.1,46.3-18.6,61c-3.6,7.2-5.2,15.4-9.1,22.8l-21.2,42.4l-69.6,100.2
			c-0.2,0.2-0.5,0.5-0.6,0.7l-24.3,27.4c-5.6,6.7-16.1,21.3-24.3,23.5c-3-5.6-2.7-4.8-2.7-13.2c0-5.5,0.1-8.9,0.8-13.9
			c2.9-19.1-0.8-36.8-0.8-56.5c0-13.8,0.3-30.8-1.1-44c-0.5-4.8,0.1-9.6-0.2-14.4c-0.7-14-5.8-63.3-9.3-78.2l-19.4,17.8
			c-0.2,0.2-0.5,0.5-0.7,0.7c-1.2,1.1-2.1,1.8-3.5,3.1l-84.9,78.3c-5.5,5.3-10.5,7.7-14.9,14.2c-8.5-4.1-5.8-1.9-11.4-9.8l-33-44
			c-3.4-4.2-5-7.5-8.3-11.6l-65.2-75.4l-100.4-95.9c-15.8-14.8-33.7-27.4-50.9-40.6l-33.7-24.6c-3.9-3-6.6-5.9-11.4-7.2
			c0.2-9.3,7.2-13.2,12.3-18.2l22-24.4c2.6-2.8,4.7-4.6,7-7.5l5.6-6.3c0.2-0.2,0.5-0.5,0.7-0.7l53.7-57.7c4.7-4.8,9.9-7.6,10.1-15.1
			c-7.5-0.2-18.1-2-26.4-2.8l-25.5-3.7c-14.6-1.6-28.1-1.1-42.3-1.5c-6.4-0.2-6.1-1.1-11.9-1.4l-110.1-1.3
			C686.7,682,687,682.3,686,680.5z"/>
		<path class="st3" d="M686,680.5c1,1.8,0.7,1.5,1.3,4l110.1,1.3c5.8,0.3,5.5,1.2,11.9,1.4c14.1,0.4,27.7-0.1,42.3,1.5l25.5,3.7
			c8.3,0.8,19,2.6,26.4,2.8c-0.2,7.5-5.4,10.4-10.1,15.1l-53.7,57.7c-0.2,0.2-0.5,0.5-0.7,0.7l-5.6,6.3c-2.4,2.9-4.5,4.8-7,7.5
			l-22,24.4c-5.1,5-12.1,9-12.3,18.2c4.8,1.3,7.5,4.3,11.4,7.2l33.7,24.6c17.2,13.2,35.1,25.7,50.9,40.6l100.4,95.9l65.2,75.4
			c3.3,4.1,4.9,7.3,8.3,11.6l33,44c5.6,8,2.9,5.8,11.4,9.8c4.4-6.6,9.5-8.9,14.9-14.2l84.9-78.3c1.4-1.3,2.3-2,3.5-3.1
			c0.2-0.2,0.5-0.5,0.7-0.7l19.4-17.8c3.5,14.9,8.6,64.2,9.3,78.2c0.2,4.8-0.3,9.6,0.2,14.4c1.5,13.1,1.2,30.1,1.1,44
			c0,19.7,3.7,37.4,0.8,56.5c-0.8,5-0.8,8.4-0.8,13.9c0,8.4-0.2,7.6,2.7,13.2c8.2-2.2,18.6-16.7,24.3-23.5l24.3-27.4
			c0.2-0.2,0.5-0.5,0.6-0.7l69.6-100.2l21.2-42.4c3.9-7.4,5.4-15.6,9.1-22.8c7.4-14.7,16.2-45.7,18.6-61c1.5-9.4,4.2-17.3,4.8-27
			c0.6-10.4,3.9-17.3,3.9-29.2v-46.4c0-11.8-4-19-4-31.8c4.1-1.1,1.4,0.5,4.8-3.1l31.8-35.9c0.3-0.3,1-1.1,1.3-1.4l17.3-19.9
			c0.2-0.2,0.5-0.5,0.7-0.7c2.9-3.1,5.4-6.2,7.8-9.5l2.2-3.1c5.4-6.7-4.4,4.9,1.2-1.4l33.3-39.7c0.2-0.2,0.4-0.5,0.6-0.7
			c2.7-3.2,5.3-6.1,7.8-9.4l80.5-106.5c0.2-0.2,0.4-0.5,0.6-0.8l19.5-28.2c1.3-2,0.4-0.5,1.6-2.4c0.9-1.4,0.6-1,1.4-2.5l42.6-66.2
			c2-3,1-1.5,3-5l24.9-44.1c0.1-0.3,0.4-0.6,0.5-0.8l2.5-4.1c2.3-4.6,3.1-6.2,5.3-10.6l32.7-68.1c6-11.7,9.1-24.4,14.5-35.9
			l27.1-89.6c2.5-16.3,5.9-29.7,5.8-45.9c-0.1-11.2,2.7-18.8,0.8-31.2c-4.3-28.5,5.5-23.1-52.5-23.1l-43.2,5.8
			c-4.2,0.9-5.6,2.4-8.9,3.1c-4.8,1-7.6,0.4-11.6,1.7c-5,1.6-2.3,1.8-8.7,3.2c-8.9,2.1-20.7,4.2-29.3,7.8l-127.5,52.9
			c-2.7,1.3-1.8,1.1-4.1,2.5l-12.1,6.5c-2.8,1.1-1.4,0-4.7,1.9c-2.7,1.6-1,1-4,2.7l-51.5,29.4c-3.3,2-4.6,2.8-7.4,4.6L1297.8,344
			c-0.2,0.2-0.5,0.4-0.8,0.6l-9,6.9c-1.6,1.3-2.1,1.8-3.7,2.9l-2.5,1.5c-0.2,0.2-0.6,0.4-0.8,0.5l-121.7,98.5
			c-1.4,1.3-2.2,1.8-3.6,3l-4.3,3.7c-0.2,0.2-0.5,0.5-0.7,0.6l-44.4,39.1c-12.9,12.1-13.6,7.7-33,6.7c-11.3-0.5-24.3-3.8-35.6-2.5
			l-46.4,4c-7.4,0.9-12.8,2.9-21.2,4c-12.9,1.7-36.4,8.9-48.7,13.6c-3.2,1.3-5.7,1.2-9.3,2.6l-78.7,36.7c-1.5,0.8-0.7,0.4-2.6,1.4
			l-56.2,36.6c-1.3,0.9-2.6,1.8-3.9,2.8c-0.2,0.2-0.5,0.4-0.8,0.6l-76.4,65.5c-0.2,0.2-0.5,0.5-0.7,0.6
			C690.2,676.3,687.8,677.7,686,680.5 M1341.2,512.1c0-5.8,1.2-11.5,2.6-15.9c4.2-13,4.5-16.8,12.9-28.2l1.8-2.2
			c5.6-6.5,10.9-11,18.2-15l1.7-0.9c15.1-8.9,32.5-10.3,50.2-7.9l12.9,4.4c5.6,1.7,2.5,0.7,6.3,3c0.3,0.2,1.3,0.8,1.6,1
			c13,7.9,21.9,15.6,28.6,31c2.3,5.2,3.6,5.8,4.8,12.5c2.1,11.7,2.5,33.1-1.3,43.1c-1.1,2.9-1.1,1.9-2.7,5.3c-3,6.4-2.7,5.9-6.2,11
			l-3.8,5.5c-4,5.3-7.5,7.9-13.3,11.9c-11.9,8.2-6.4,4.3-17.4,9.1c-10.1,4.5-16.5,3.9-27.9,3.9c-27.1,0-54.2-19.3-63.1-43
			C1344.6,534,1341.2,519.3,1341.2,512.1z"/>
		<path class="st2" d="M1412.8,426.1c47.6,0,86.2,38.6,86.2,86.2c0,47.6-38.6,86.2-86.2,86.2c-47.6,0-86.2-38.6-86.2-86.2
			C1326.6,464.7,1365.2,426.1,1412.8,426.1"/>
		<path class="st4" d="M380.9,1236.4l251.9-251.9c18.2-18.2,47.9-18.2,66.1,0c18.2,18.2,18.2,47.9,0,66.1l-318,318V1236.4z"/>
		<path class="st3" d="M380.9,1478.7l448-448c18.2-18.2,47.9-18.2,66.1,0c18.2,18.2,18.2,47.9,0,66.1l-448.7,448.7h-65.4V1478.7z"/>
		<path class="st5" d="M557.8,1545.5l315.9-315.9c18.2-18.2,47.9-18.2,66.1,0c18.2,18.2,18.2,47.9,0,66.1L690,1545.5H557.8z"/>
		<g>
			<polygon class="st6" points="2624.1,1085.7 2420.1,1536.4 2553.5,1536.4 2687.5,1210.7 2821.5,1536.4 2957.6,1536.4 
				2752.9,1085.7 			"/>
			<path class="st6" d="M2267.1,1303c-15.4-9.7-32.5-17.4-51.2-23.2c-18.7-5.8-37.4-10.6-56.1-14.5c-18.7-3.9-35.9-7.6-51.5-11.3
				c-15.6-3.6-28.2-8.4-37.6-14.2c-9.5-5.8-14.2-13.6-14.2-23.5c0-7.7,2.4-14.6,7.3-20.6c4.8-6,12.8-10.8,23.8-14.5
				c11-3.7,25.5-5.5,43.6-5.5c20.3,0,41.2,2.9,62.7,8.7c21.6,5.8,43.4,14.5,65.4,26.1l40.3-94.7c-22.9-12.9-49-22.6-78.2-29.3
				c-29.3-6.7-59.1-10-89.5-10c-45.3,0-83.2,6.7-113.6,20c-30.4,13.3-53.1,30.9-68.3,52.8c-15.2,21.9-22.8,46.4-22.8,73.4
				c0,24,4.8,43.9,14.5,59.6c9.7,15.7,22.2,28.3,37.6,38c15.4,9.7,32.5,17.5,51.2,23.5c18.7,6,37.4,11,56.1,14.8
				c18.7,3.9,35.8,7.7,51.2,11.6c15.4,3.9,27.9,8.8,37.6,14.8c9.7,6,14.5,14.2,14.5,24.5c0,7.3-2.5,13.6-7.6,19
				c-5.1,5.4-13.1,9.7-24.1,12.9c-11,3.2-25.5,4.8-43.6,4.8c-26.9,0-53.8-4.2-80.9-12.6c-27.1-8.4-50.9-19-71.6-31.9l-42.9,94
				c22,14.6,50.5,26.5,85.5,35.7c35,9.2,71.4,13.8,109.3,13.8c45.8,0,83.7-6.7,113.9-20c30.2-13.3,52.8-31,68-53.1
				c15.2-22.1,22.8-46.3,22.8-72.4c0-23.6-4.7-43.3-14.2-58.9C2294.9,1325.3,2282.5,1312.7,2267.1,1303z"/>
			<polygon class="st6" points="3272,1379.5 3146.7,1085.7 3005.4,1085.7 3202.8,1536.4 3331.5,1536.4 3529.6,1085.7 3400.2,1085.7 
							"/>
			<path class="st6" d="M4626.3,1340.4c16.7-24.7,25.1-54,25.1-87.9c0-34.3-8.4-64.1-25.1-89.2c-16.7-25.1-40.4-44.3-71-57.6
				c-30.6-13.3-67-20-109.3-20h-211.3v450.8h130.7v-119.8h71.4l83.8,119.8h140l-99.9-141.9
				C4588.7,1381.5,4610.6,1363.5,4626.3,1340.4z M4499.2,1203.5c13.4,11.6,20.1,27.9,20.1,48.9c0,20.6-6.7,36.7-20.1,48.3
				c-13.4,11.6-33.8,17.4-61.1,17.4h-72.6v-132h72.6C4465.4,1186.1,4485.8,1191.9,4499.2,1203.5z"/>
			<polygon class="st6" points="5302.2,1536.4 5097.6,1085.7 4968.8,1085.7 4764.8,1536.4 4898.2,1536.4 5032.2,1210.7 
				5166.2,1536.4 			"/>
			<polygon class="st6" points="3810.8,1355.5 4016.3,1354.9 4017,1260.2 3811.3,1260.8 3811.7,1184.2 4043.4,1183.6 4044.7,1085.7 
				3682.9,1085.7 3682.3,1536.4 4052.6,1536.4 4053.3,1437.9 3810.3,1438.6 			"/>
		</g>
		<g>
			<path class="st0" d="M3004.1,420.5L2811.3,898h151.2l29.5-83.2h167.7l29.5,83.2H3343l-192.8-477.5H3004.1z M3033.2,698.8
				l42.7-120.3l42.7,120.3H3033.2z"/>
			<path class="st0" d="M2268.5,644.3c-14.5-10.5-30.3-18.9-47.6-25.2c-17.2-6.4-34.5-11.4-52-15c-17.4-3.6-33.4-7.1-47.9-10.2
				c-14.5-3.2-26.1-7.2-35-11.9c-8.8-4.8-13.2-11.3-13.2-19.4c0-5.5,1.8-10.5,5.4-15c3.6-4.5,9.6-8.2,18-10.9
				c8.4-2.7,19.7-4.1,34-4.1c19.3,0,39.2,3,59.5,8.9c20.4,5.9,41.5,14.8,63.3,26.6l44.7-116.6c-23.1-14.1-49.1-24.6-78.1-31.4
				c-29-6.8-58.4-10.2-88.2-10.2c-45.4,0-83.3,7.3-113.7,21.8c-30.5,14.6-53.3,34-68.7,58.3c-15.3,24.3-23,51.3-23,80.8
				c0,25.5,4.4,46.7,13.2,63.8c8.8,17.1,20.5,30.8,35,41.3c14.5,10.5,30.4,18.9,47.9,25.2c17.4,6.4,34.8,11.5,52,15.3
				c17.2,3.9,33.1,7.5,47.6,10.9c14.5,3.4,26.1,7.6,35,12.6c8.8,5,13.2,11.8,13.2,20.5c0,5.5-1.9,10.1-5.7,14
				c-3.8,3.9-9.8,6.8-18,8.9c-8.2,2-19.4,3.1-33.7,3.1c-24.4,0-49.5-4-75.3-11.9c-25.8-8-49.2-18.5-70.2-31.7l-47.9,117.3
				c22.3,14.5,50.6,26.4,85,35.5c34.4,9.1,70.1,13.6,107.1,13.6c45.8,0,83.8-7.4,114-22.2c30.2-14.8,53-34.3,68.4-58.7
				c15.3-24.3,23-51,23-80.1c0-25-4.4-45.9-13.2-62.8C2294.6,668.4,2282.9,654.7,2268.5,644.3z"/>
			<polygon class="st0" points="2378.4,545.4 2507.6,545.4 2507.6,898 2656.3,898 2656.3,545.4 2785.4,545.4 2785.4,420.5 
				2378.4,420.5 			"/>
			<path class="st0" d="M4687.5,678.4c0,36.4-6,62.2-18,77.4c-12,15.2-28.5,22.9-49.5,22.9c-20.6,0-37-7.6-49.1-22.9
				c-12.2-15.2-18.3-41-18.3-77.4V420.5H4404v262.6c0,71.4,18.9,126.9,56.7,166.4c37.8,39.6,90.5,59.3,158.1,59.3
				c67.6,0,120.3-19.8,158.1-59.3c31.4-32.8,49.7-76.7,55.1-131.5h-97.9l99.6-119.4V420.5h-146.2V678.4z"/>
			<path class="st0" d="M5347.8,504.8c-16.4-27.1-39.6-47.9-69.6-62.4c-30-14.5-65.6-21.8-106.8-21.8h-212.3v180.2l97.9,117.4h-97.9
				V898h148.7V780.7h63.6c41.2,0,76.8-7.4,106.8-22.2c30-14.8,53.2-35.6,69.6-62.4c16.4-26.8,24.6-58.7,24.6-95.5
				C5372.4,563.8,5364.2,531.8,5347.8,504.8z M5207.6,641.5c-9.9,10-25.1,15-45.7,15h-54.2V544.7h54.2c20.6,0,35.8,5,45.7,15
				c9.9,10,14.8,23.6,14.8,40.9C5222.4,617.9,5217.5,631.5,5207.6,641.5z"/>
			<polygon class="st0" points="3911.3,545.4 4040.5,545.4 4040.5,898 4189.2,898 4189.2,545.4 4318.3,545.4 4318.3,420.5 
				3911.3,420.5 			"/>
			<path class="st0" d="M3813,695.8c16.4-26.6,24.6-58.3,24.6-95.2c0-36.8-8.2-68.8-24.6-95.8c-16.4-27.1-39.6-47.9-69.6-62.4
				c-30-14.5-65.6-21.8-106.8-21.8h-212.3V898H3573v-120h40.5l74.8,120H3847l-92.6-146.9C3779.2,737.4,3798.7,719,3813,695.8z
				 M3672.8,559.7c9.9,10,14.8,23.6,14.8,40.9c0,17.3-4.9,30.9-14.8,40.9c-9.9,10-25.1,15-45.7,15H3573V544.7h54.2
				C3647.7,544.7,3663,549.7,3672.8,559.7z"/>
		</g>
	</g>
</g>
</svg>
