<?xml version="1.0" encoding="utf-8"?>
<!-- Generator: Adobe Illustrator 25.4.1, SVG Export Plug-In . SVG Version: 6.00 Build 0)  -->
<svg version="1.1" id="Layer_1" xmlns="http://www.w3.org/2000/svg" xmlns:xlink="http://www.w3.org/1999/xlink" x="0px" y="0px"
	 viewBox="0 0 5753 1653" style="enable-background:new 0 0 5753 1653;" xml:space="preserve">
<style type="text/css">
	.st0{fill:#58595B;}
	.st1{fill-rule:evenodd;clip-rule:evenodd;fill:#58595B;}
	.st2{fill-rule:evenodd;clip-rule:evenodd;fill:#FFFFFF;}
	.st3{fill-rule:evenodd;clip-rule:evenodd;fill:#F58220;}
	.st4{fill-rule:evenodd;clip-rule:evenodd;fill:#0DB14B;}
	.st5{fill:#F58220;}
</style>
<g>
	<g>
		<g>
			<path class="st0" d="M1799.1,112.4c-7.3-2.8-30.4-4.9-38.9-4.9c-13,0-24.1,2.4-35.8,2.7c-16.3,0.4-18.5,2.4-32.6,4.6l-32.3,6.2
				l-84.6,28.2c-17.1,5.7-34.1,14.1-50.5,21.1l-9.8,4.8c-3.9,1.6-2.5,1.4-6.2,3.1c-2.8,1.3-3.4,1.3-6.4,2.9c-2.9,1.6-3,1.9-6.1,3.2
				c-24.3,10.6-66.2,34.7-87.2,48l-4.2,2.4c-3,1.9-1.8,1.5-5.8,3.5c-11.9,5.9-22.8,14.5-34.2,21.5l-14.4,9.4
				c-4.8,3.3-8.5,6.8-14.1,8.4c-10.4,2.9-144.1,0.9-166.2,0.9c-12.4,0-27.2,1.2-39.6-0.2c-12-1.4-26-1.1-40-1.1H384.9
				c-5.6,0-4.1,6-4,11.9c0.1,4.9,0,9.8,0,14.6v379.4v81.6v471.5v7.7v124.4l298.7-298.7l-4.1,4.7c-0.2,0.2-0.5,0.5-0.7,0.7
				l-13.9,13.9c-0.2,0.2-0.5,0.5-0.7,0.7l-24.5,24.5c-0.2,0.2-0.5,0.5-0.7,0.7l-13.9,14c-0.2,0.2-0.5,0.5-0.7,0.7l-4,4
				c-0.3,0.3-1.1,1-1.4,1.3c-0.2,0.2-0.5,0.5-0.7,0.6l-13.9,14c-0.2,0.2-0.5,0.5-0.7,0.7l-15.2,15.3c-1.1,1.1-1,1-2,2
				c-1.1,1.1-1,0.9-2,2l-9.9,10c-0.2,0.2-0.5,0.5-0.6,0.7c-1.1,1.1-0.9,1-2,2l-10.5,10.7c-1.6,1.8-2.4,2.3-4.1,3.9l-51.8,51.7
				c-1.4,1.5-1.6,1.7-3.3,3.3l-6,6c-0.2,0.2-0.5,0.5-0.7,0.7l-15.2,15.3c-1.6,1.7-2.3,2.3-4,4c-0.2,0.2-0.5,0.5-0.7,0.6
				c-0.2,0.2-0.5,0.5-0.7,0.6c-0.2,0.2-0.5,0.5-0.7,0.6c-0.6,0.6-1.5,1.6-2,2l-51.7,51.7c-3.3,3.1-4.9,4.6-8,8l-15.9,16
				c-0.2,0.2-0.5,0.5-0.6,0.7c-1.1,1.1-1.1,1.1-2,2l-9.5,9.5v109.5v9.4v57.4h64.7h0.6h111.5h7.5h122.3h2.2h120.6
				c8-2.6,16.9-0.2,32-0.2c13.7,0,82.9,0.1,175.4,0.2h309.7h309.7c6.3-0.1,9.9-0.2,10.3-0.2c3.5-15.2,1.3-163.8,1.3-192.3
				c0-250.2,1.4-500.5,0-750.7c0-9.3-0.5-14.4,3.6-20.3l16.9-25.5c0.2-0.3,0.3-0.6,0.5-0.8l20.3-32.8c1.1-2-0.2,0,1.4-2.6l1.6-2.3
				c11.1-17,20.7-35.1,30.5-53l6.2-12.3c1-2.1,0-0.4,1.3-2.6l2-3.3c0.2-0.4,0.7-1.4,0.8-1.8l31.1-65.8c4.2-10,11.3-23.3,14.1-33.6
				l9.7-27.4c1.6-7.5,6.7-18.8,9-26.8c1.2-4.2,0.7-5.7,2.1-9.8c2.9-8.2,2.8-13,4.6-19.2c1.9-6.3,1.9-1.7,3.1-8.8l4.5-20.7
				c1.1-4.3,1.6-17,2.1-21.8c0.6-5.6,0.8-4.9,1.9-10c2.9-13,2.6-49.2-0.5-61.6C1809.5,113.6,1818,119.5,1799.1,112.4z"/>
		</g>
		<g>
			<polygon class="st0" points="2624.1,1085.7 2420.1,1536.4 2553.5,1536.4 2687.5,1210.7 2821.5,1536.4 2957.6,1536.4 
				2752.9,1085.7 			"/>
		</g>
		<g>
			<path class="st0" d="M2267.1,1303c-15.4-9.7-32.5-17.4-51.2-23.2c-18.7-5.8-37.4-10.6-56.1-14.5c-18.7-3.9-35.9-7.6-51.5-11.3
				c-15.6-3.6-28.2-8.4-37.6-14.2c-9.5-5.8-14.2-13.6-14.2-23.5c0-7.7,2.4-14.6,7.3-20.6c4.8-6,12.8-10.8,23.8-14.5
				s25.5-5.5,43.6-5.5c20.3,0,41.2,2.9,62.7,8.7c21.6,5.8,43.4,14.5,65.4,26.1l40.3-94.7c-22.9-12.9-49-22.6-78.2-29.3
				c-29.3-6.7-59.1-10-89.5-10c-45.3,0-83.2,6.7-113.6,20c-30.4,13.3-53.1,30.9-68.3,52.8c-15.2,21.9-22.8,46.4-22.8,73.4
				c0,24,4.8,43.9,14.5,59.6c9.7,15.7,22.2,28.3,37.6,38c15.4,9.7,32.5,17.5,51.2,23.5c18.7,6,37.4,11,56.1,14.8
				c18.7,3.9,35.8,7.7,51.2,11.6c15.4,3.9,27.9,8.8,37.6,14.8c9.7,6,14.5,14.2,14.5,24.5c0,7.3-2.5,13.6-7.6,19
				c-5.1,5.4-13.1,9.7-24.1,12.9c-11,3.2-25.5,4.8-43.6,4.8c-26.9,0-53.8-4.2-80.9-12.6c-27.1-8.4-50.9-19-71.6-31.9l-42.9,94
				c22,14.6,50.5,26.5,85.5,35.7c35,9.2,71.4,13.8,109.3,13.8c45.8,0,83.7-6.7,113.9-20c30.2-13.3,52.8-31,68-53.1
				c15.2-22.1,22.8-46.3,22.8-72.4c0-23.6-4.7-43.3-14.2-58.9C2294.9,1325.3,2282.5,1312.7,2267.1,1303z"/>
		</g>
		<g>
			<polygon class="st0" points="3272,1379.5 3146.7,1085.7 3005.4,1085.7 3202.8,1536.4 3331.5,1536.4 3529.6,1085.7 3400.2,1085.7 
							"/>
		</g>
		<g>
			<path class="st0" d="M4626.3,1340.4c16.7-24.7,25.1-54,25.1-87.9c0-34.3-8.4-64.1-25.1-89.2c-16.7-25.1-40.4-44.3-71-57.6
				c-30.6-13.3-67-20-109.3-20h-211.3v450.8h130.7v-119.8h71.4l83.8,119.8h140l-99.9-141.9
				C4588.7,1381.5,4610.6,1363.5,4626.3,1340.4z M4499.2,1300.8c-13.4,11.6-33.8,17.4-61.1,17.4h-72.6v-132h72.6
				c27.3,0,47.6,5.8,61.1,17.4c13.4,11.6,20.1,27.9,20.1,48.9C4519.3,1273.1,4512.6,1289.2,4499.2,1300.8z"/>
		</g>
		<g>
			<polygon class="st0" points="4968.8,1085.7 4764.8,1536.4 4898.2,1536.4 5032.2,1210.7 5166.2,1536.4 5302.2,1536.4 
				5097.6,1085.7 			"/>
		</g>
		<g>
			<polygon class="st0" points="3810.8,1355.5 4016.3,1354.9 4017,1260.2 3811.3,1260.8 3811.7,1184.2 4043.4,1183.6 4044.7,1085.7 
				3682.9,1085.7 3682.3,1536.4 4052.6,1536.4 4053.3,1437.9 3810.3,1438.6 			"/>
		</g>
		<g>
			<path class="st0" d="M3189.3,898H3343l-192.8-477.5h-146.2L2811.3,898h151.2l29.5-83.2h167.7L3189.3,898z M3033.2,698.8
				l42.7-120.3l42.7,120.3H3033.2z"/>
		</g>
		<g>
			<path class="st0" d="M2146.2,783.1c-8.2,2-19.4,3.1-33.7,3.1c-24.4,0-49.5-4-75.3-11.9c-25.8-8-49.2-18.5-70.2-31.7l-47.9,117.3
				c22.3,14.5,50.6,26.4,85,35.5c34.4,9.1,70.1,13.6,107.1,13.6c45.8,0,83.8-7.4,114-22.2c30.2-14.8,53-34.3,68.4-58.7
				c15.3-24.3,23-51,23-80.1c0-25-4.4-45.9-13.2-62.8c-8.8-16.8-20.5-30.5-35-40.9c-14.5-10.5-30.3-18.9-47.6-25.2
				c-17.2-6.4-34.5-11.4-52-15c-17.4-3.6-33.4-7.1-47.9-10.2c-14.5-3.2-26.1-7.2-35-11.9c-8.8-4.8-13.2-11.3-13.2-19.4
				c0-5.5,1.8-10.5,5.4-15c3.6-4.5,9.6-8.2,18-10.9c8.4-2.7,19.7-4.1,34-4.1c19.3,0,39.2,3,59.5,8.9c20.4,5.9,41.5,14.8,63.3,26.6
				l44.7-116.6c-23.1-14.1-49.1-24.6-78.1-31.4c-29-6.8-58.4-10.2-88.2-10.2c-45.4,0-83.3,7.3-113.7,21.8
				c-30.5,14.6-53.3,34-68.7,58.3c-15.3,24.3-23,51.3-23,80.8c0,25.5,4.4,46.7,13.2,63.8c8.8,17.1,20.5,30.8,35,41.3
				c14.5,10.5,30.4,18.9,47.9,25.2c17.4,6.4,34.8,11.5,52,15.3c17.2,3.9,33.1,7.5,47.6,10.9c14.5,3.4,26.1,7.6,35,12.6
				c8.8,5,13.2,11.8,13.2,20.5c0,5.5-1.9,10.1-5.7,14C2160.4,778.1,2154.4,781,2146.2,783.1z"/>
		</g>
		<g>
			<polygon class="st0" points="2507.6,898 2656.3,898 2656.3,545.4 2785.4,545.4 2785.4,420.5 2378.4,420.5 2378.4,545.4 
				2507.6,545.4 			"/>
		</g>
		<g>
			<path class="st0" d="M4618.8,908.9c67.6,0,120.3-19.8,158.1-59.3c31.4-32.8,49.7-76.7,55.1-131.5h-97.9l99.6-119.4V420.5h-146.2
				v257.8c0,36.4-6,62.2-18,77.4c-12,15.2-28.5,22.9-49.5,22.9c-20.6,0-37-7.6-49.1-22.9c-12.2-15.2-18.3-41-18.3-77.4V420.5H4404
				v262.6c0,71.4,18.9,126.9,56.7,166.4C4498.5,889.1,4551.2,908.9,4618.8,908.9z"/>
		</g>
		<g>
			<path class="st0" d="M5347.8,504.8c-16.4-27.1-39.6-47.9-69.6-62.4c-30-14.5-65.6-21.8-106.8-21.8h-212.3v180.2l97.9,117.4h-97.9
				V898h148.7V780.7h63.6c41.2,0,76.8-7.4,106.8-22.2c30-14.8,53.2-35.6,69.6-62.4c16.4-26.8,24.6-58.7,24.6-95.5
				C5372.4,563.8,5364.2,531.8,5347.8,504.8z M5207.6,641.5c-9.9,10-25.1,15-45.7,15h-54.2V544.7h54.2c20.6,0,35.8,5,45.7,15
				c9.9,10,14.8,23.6,14.8,40.9C5222.4,617.9,5217.5,631.5,5207.6,641.5z"/>
		</g>
		<g>
			<polygon class="st0" points="4318.3,420.5 3911.3,420.5 3911.3,545.4 4040.5,545.4 4040.5,898 4189.2,898 4189.2,545.4 
				4318.3,545.4 			"/>
		</g>
		<g>
			<path class="st0" d="M3847,898l-92.6-146.9c24.7-13.7,44.2-32.2,58.5-55.4c16.4-26.6,24.6-58.3,24.6-95.2
				c0-36.8-8.2-68.8-24.6-95.8c-16.4-27.1-39.6-47.9-69.6-62.4c-30-14.5-65.6-21.8-106.8-21.8h-212.3V898H3573v-120h40.5l74.8,120
				H3847z M3672.8,641.5c-9.9,10-25.1,15-45.7,15H3573V544.7h54.2c20.6,0,35.8,5,45.7,15c9.9,10,14.8,23.6,14.8,40.9
				C3687.6,617.9,3682.7,631.5,3672.8,641.5z"/>
		</g>
	</g>
	<g>
		<path class="st1" d="M1647.5,1545.2c3.5-15.2,1.3-163.8,1.3-192.3c0-250.2,1.4-500.5,0-750.7c0-9.3-0.5-14.4,3.6-20.3l16.9-25.5
			c0.2-0.3,0.3-0.6,0.5-0.8l20.3-32.8c1.1-2-0.2,0,1.4-2.6l1.6-2.3c11.1-17,20.7-35.1,30.5-53l6.2-12.3c1-2.1,0-0.4,1.3-2.6l2-3.3
			c0.2-0.4,0.7-1.4,0.8-1.8l31.1-65.8c4.2-10,11.3-23.3,14.1-33.6l9.7-27.4c1.6-7.5,6.7-18.8,9-26.8c1.2-4.2,0.7-5.7,2.1-9.8
			c2.9-8.2,2.8-13,4.6-19.2c1.9-6.3,1.9-1.7,3.1-8.8l4.5-20.7c1.1-4.3,1.6-17,2.1-21.8c0.6-5.6,0.8-4.9,1.9-10
			c2.9-13,2.6-49.2-0.5-61.6c-6.5-25.8,2-19.8-16.9-26.9c-7.3-2.8-30.4-4.9-38.9-4.9c-13,0-24.1,2.4-35.8,2.7
			c-16.3,0.4-18.5,2.4-32.6,4.6l-32.3,6.2l-84.6,28.2c-17.1,5.7-34.1,14.1-50.5,21.1l-9.8,4.8c-3.9,1.6-2.5,1.4-6.2,3.1
			c-2.8,1.3-3.4,1.3-6.4,2.9c-2.9,1.6-3,1.9-6.1,3.2c-24.3,10.6-66.2,34.7-87.2,48l-4.2,2.4c-3,1.9-1.8,1.5-5.8,3.5
			c-11.9,5.9-22.8,14.5-34.2,21.5l-14.4,9.4c-4.8,3.3-8.5,6.8-14.1,8.4c-10.4,2.9-144.1,0.9-166.2,0.9c-12.4,0-27.2,1.2-39.6-0.2
			c-12-1.4-26-1.1-40-1.1H384.9c-5.6,0-4.1,6-4,11.9c0.1,4.9,0,9.8,0,14.6v379.4v81.6v479.3h4c1.9-7.3,20.2-22.3,27-28.7l1.4-1.3
			c0.2-0.2,0.5-0.5,0.7-0.7l8.4-8.8c1.5-1.7,2.4-2.4,4-4l40.7-40.2c0.2-0.2,0.5-0.5,0.7-0.7c17.2-17.2,33.6-35.5,51.6-51.9l8.7-8.5
			c30.1-31.7,61.7-62.1,92.7-93c3.2-3.2,5.4-5.4,8.6-8.6l9.7-8.9c0.2-0.2,0.6-0.4,0.8-0.5l9.7-4.9c18.7-5.4,38.4,1.1,48.8,15
			c9.8,13.3,11.7,29.1,5.2,44.2l-27.9,31.8c-0.2,0.2-0.5,0.5-0.7,0.7l-13.9,13.9c-0.2,0.2-0.5,0.5-0.7,0.7l-24.5,24.5
			c-0.2,0.2-0.5,0.5-0.7,0.7l-13.9,14c-0.2,0.2-0.5,0.5-0.7,0.7l-4,4c-0.3,0.3-1.1,1-1.4,1.3c-0.2,0.2-0.5,0.5-0.7,0.6l-13.9,14
			c-0.2,0.2-0.5,0.5-0.7,0.7l-15.2,15.3c-1.1,1.1-1,1-2,2c-1.1,1.1-1,0.9-2,2l-9.9,10c-0.2,0.2-0.5,0.5-0.6,0.7c-1.1,1.1-0.9,1-2,2
			l-10.5,10.7c-1.6,1.8-2.4,2.3-4.1,3.9l-51.8,51.7c-1.4,1.5-1.6,1.7-3.3,3.3l-6,6c-0.2,0.2-0.5,0.5-0.7,0.7l-15.2,15.3
			c-1.6,1.7-2.3,2.3-4,4c-0.2,0.2-0.5,0.5-0.7,0.6c-0.2,0.2-0.5,0.5-0.7,0.6c-0.2,0.2-0.5,0.5-0.7,0.6c-0.6,0.6-1.5,1.6-2,2
			l-51.7,51.7c-3.3,3.1-4.9,4.6-8,8l-15.9,16c-0.2,0.2-0.5,0.5-0.6,0.7c-1.1,1.1-1.1,1.1-2,2l-9.5,9.5v118.9
			c10.1-10.3,18.4-18.8,22.2-22.7l21.6-22.2c13-14.8,28.4-27.2,41.8-41.7l4.9-5.7c20.8-24.3,47.1-45.6,68.7-69.2l37.2-37.1
			c0.6-0.5,1.4-1.2,2.1-1.9l72.6-73.3c2-2.1,3-2.9,4.7-4.6l6.5-6.7c1-0.9,1.2-1,2.1-1.9c1.8-1.7,2.2-2.3,3.9-4.1
			c19.3-21,39.9-40.5,60.1-60.6l64.7-65.3c1.4-1.3,0.8-0.7,2.1-1.9l10.4-10.8c0.2-0.2,0.4-0.5,0.6-0.7l1.3-1.4
			c0.2-0.2,0.5-0.5,0.6-0.7l8.6-8.6c0.2-0.2,0.5-0.5,0.7-0.7c16.6-16.6,30.7-28.9,56.7-17.9c11.7,5,19.6,14.8,24.2,26.2
			c1.2,2.9,1.5,3.9,1.5,7.8c0,19-0.8,24.2-13.4,38.3l-75.5,75.7c-0.2,0.2-0.5,0.5-0.7,0.6c-0.2,0.2-0.5,0.5-0.7,0.7l-7.6,8.3
			c-1,1.2-1.4,1.6-2.5,2.8c-30.2,31.3-100.6,97.4-119.7,120.4l-24.7,24.4c-0.2,0.2-0.5,0.5-0.6,0.7c-0.9,0.9-1.9,2.1-2.5,2.8
			c-2,2.2-3.2,3.1-5.4,5.2c-0.2,0.2-0.5,0.5-0.7,0.6c-0.2,0.2-0.5,0.5-0.7,0.6c-0.2,0.2-0.5,0.5-0.7,0.6c-0.2,0.2-0.5,0.5-0.7,0.6
			l-157.5,159.5c-0.2,0.2-0.5,0.5-0.7,0.6l-40.9,40.5h119.7L707,1403.1c10.7-12.7,25.7-25.6,37.9-37.7c13-13,24.7-25.1,37.6-38
			l19.2-19.2c16.8-16.6,62.3-64.9,76-75.2c12.2-9.2,31.8-14.1,46.7-5.7l2.5,1.5c8,4.8,15.5,12.1,18.7,21.1
			c5.2,14.7,5.8,23.9-2.4,37.8c-2,3.3-3.4,5.7-6,8.6l-13.2,13.3c-0.2,0.2-0.5,0.5-0.6,0.7l-47.8,47.7c-0.2,0.2-0.5,0.5-0.7,0.7
			l-14.6,14.6c-0.2,0.2-0.5,0.5-0.7,0.6l-66.5,66.1c-2.7,2.8-4.6,4.5-7.3,7.3l-98.1,98.1h122.8c8-2.6,16.9-0.2,32-0.2
			c13.7,0,82.9,0.1,175.4,0.2h309.7h309.7C1643.5,1545.4,1647.1,1545.3,1647.5,1545.2 M686,680.5c1.9-2.8,4.3-4.2,6.8-6.5
			c0.2-0.2,0.5-0.5,0.7-0.6l76.4-65.5c0.2-0.2,0.5-0.4,0.8-0.6c1.3-0.9,2.5-1.8,3.9-2.8l56.2-36.6c1.9-1,1.2-0.5,2.6-1.4l78.7-36.7
			c3.6-1.4,6.1-1.4,9.3-2.6c12.3-4.8,35.8-11.9,48.7-13.6c8.4-1.1,13.9-3.1,21.2-4l46.4-4c11.4-1.3,24.4,1.9,35.6,2.5
			c19.5,0.9,20.1,5.3,33-6.7l44.4-39.1c0.2-0.2,0.5-0.5,0.7-0.6l4.3-3.7c1.4-1.2,2.2-1.8,3.6-3l121.7-98.5c0.2-0.2,0.6-0.4,0.8-0.5
			l2.5-1.5c1.7-1.1,2.1-1.6,3.7-2.9l9-6.9c0.2-0.2,0.5-0.4,0.8-0.6l124.4-83.8c2.8-1.7,4-2.6,7.4-4.6l51.5-29.4
			c2.9-1.7,1.2-1.1,4-2.7c3.3-1.9,1.9-0.9,4.7-1.9l12.1-6.5c2.3-1.4,1.4-1.2,4.1-2.5l127.5-52.9c8.6-3.7,20.5-5.8,29.3-7.8
			c6.4-1.5,3.7-1.6,8.7-3.2c4-1.3,6.8-0.7,11.6-1.7c3.2-0.6,4.7-2.1,8.9-3.1l43.2-5.8c58,0,48.2-5.4,52.5,23.1
			c1.9,12.4-0.9,20-0.8,31.2c0.1,16.2-3.3,29.6-5.8,45.9l-27.1,89.6c-5.4,11.5-8.5,24.2-14.5,35.9l-32.7,68.1
			c-2.2,4.4-3,5.9-5.3,10.6l-2.5,4.1c-0.1,0.3-0.4,0.6-0.5,0.8l-24.9,44.1c-1.9,3.5-1,2-3,5l-42.6,66.2c-0.9,1.5-0.6,1.1-1.4,2.5
			c-1.2,1.9-0.3,0.4-1.6,2.4l-19.5,28.2c-0.2,0.2-0.4,0.5-0.6,0.8L1524.2,703c-2.5,3.3-5.1,6.2-7.8,9.4c-0.2,0.2-0.4,0.5-0.6,0.7
			l-33.3,39.7c-5.7,6.3,4.2-5.3-1.2,1.4l-2.2,3.1c-2.3,3.3-4.9,6.4-7.8,9.5c-0.2,0.2-0.5,0.5-0.7,0.7l-17.3,19.9
			c-0.3,0.3-1,1.1-1.3,1.4l-31.8,35.9c-3.4,3.6-0.7,2-4.8,3.1c0,12.9,4,20,4,31.8V906c0,12-3.3,18.8-3.9,29.2
			c-0.6,9.7-3.3,17.7-4.8,27c-2.4,15.3-11.1,46.3-18.6,61c-3.6,7.2-5.2,15.4-9.1,22.8l-21.2,42.4l-69.6,100.2
			c-0.2,0.2-0.5,0.5-0.6,0.7l-24.3,27.4c-5.6,6.7-16.1,21.3-24.3,23.5c-3-5.6-2.7-4.8-2.7-13.2c0-5.5,0.1-8.9,0.8-13.9
			c2.9-19.1-0.8-36.8-0.8-56.5c0-13.8,0.3-30.8-1.1-44c-0.5-4.8,0.1-9.6-0.2-14.4c-0.7-14-5.8-63.3-9.3-78.2l-19.4,17.8
			c-0.2,0.2-0.5,0.5-0.7,0.7c-1.2,1.1-2.1,1.8-3.5,3.1l-84.9,78.3c-5.5,5.3-10.5,7.7-14.9,14.2c-8.5-4.1-5.8-1.9-11.4-9.8l-33-44
			c-3.4-4.2-5-7.5-8.3-11.6l-65.2-75.4l-100.4-95.9c-15.8-14.8-33.7-27.4-50.9-40.6l-33.7-24.6c-3.9-3-6.6-5.9-11.4-7.2
			c0.2-9.3,7.2-13.2,12.3-18.2l22-24.4c2.6-2.8,4.7-4.6,7-7.5l5.6-6.3c0.2-0.2,0.5-0.5,0.7-0.7l53.7-57.7c4.7-4.8,9.9-7.6,10.1-15.1
			c-7.5-0.2-18.1-2-26.4-2.8l-25.5-3.7c-14.6-1.6-28.1-1.1-42.3-1.5c-6.4-0.2-6.1-1.1-11.9-1.4l-110.1-1.3
			C686.7,682,687,682.3,686,680.5z"/>
		<path class="st2" d="M686,680.5c1,1.8,0.7,1.5,1.3,4l110.1,1.3c5.8,0.3,5.5,1.2,11.9,1.4c14.1,0.4,27.7-0.1,42.3,1.5l25.5,3.7
			c8.3,0.8,19,2.6,26.4,2.8c-0.2,7.5-5.4,10.4-10.1,15.1l-53.7,57.7c-0.2,0.2-0.5,0.5-0.7,0.7l-5.6,6.3c-2.4,2.9-4.5,4.8-7,7.5
			l-22,24.4c-5.1,5-12.1,9-12.3,18.2c4.8,1.3,7.5,4.3,11.4,7.2l33.7,24.6c17.2,13.2,35.1,25.7,50.9,40.6l100.4,95.9l65.2,75.4
			c3.3,4.1,4.9,7.3,8.3,11.6l33,44c5.6,8,2.9,5.8,11.4,9.8c4.4-6.6,9.5-8.9,14.9-14.2l84.9-78.3c1.4-1.3,2.3-2,3.5-3.1
			c0.2-0.2,0.5-0.5,0.7-0.7l19.4-17.8c3.5,14.9,8.6,64.2,9.3,78.2c0.2,4.8-0.3,9.6,0.2,14.4c1.5,13.1,1.2,30.1,1.1,44
			c0,19.7,3.7,37.4,0.8,56.5c-0.8,5-0.8,8.4-0.8,13.9c0,8.4-0.2,7.6,2.7,13.2c8.2-2.2,18.6-16.7,24.3-23.5l24.3-27.4
			c0.2-0.2,0.5-0.5,0.6-0.7l69.6-100.2l21.2-42.4c3.9-7.4,5.4-15.6,9.1-22.8c7.4-14.7,16.2-45.7,18.6-61c1.5-9.4,4.2-17.3,4.8-27
			c0.6-10.4,3.9-17.3,3.9-29.2v-46.4c0-11.8-4-19-4-31.8c4.1-1.1,1.4,0.5,4.8-3.1l31.8-35.9c0.3-0.3,1-1.1,1.3-1.4l17.3-19.9
			c0.2-0.2,0.5-0.5,0.7-0.7c2.9-3.1,5.4-6.2,7.8-9.5l2.2-3.1c5.4-6.7-4.4,4.9,1.2-1.4l33.3-39.7c0.2-0.2,0.4-0.5,0.6-0.7
			c2.7-3.2,5.3-6.1,7.8-9.4l80.5-106.5c0.2-0.2,0.4-0.5,0.6-0.8l19.5-28.2c1.3-2,0.4-0.5,1.6-2.4c0.9-1.4,0.6-1,1.4-2.5l42.6-66.2
			c2-3,1-1.5,3-5l24.9-44.1c0.1-0.3,0.4-0.6,0.5-0.8l2.5-4.1c2.3-4.6,3.1-6.2,5.3-10.6l32.7-68.1c6-11.7,9.1-24.4,14.5-35.9
			l27.1-89.6c2.5-16.3,5.9-29.7,5.8-45.9c-0.1-11.2,2.7-18.8,0.8-31.2c-4.3-28.5,5.5-23.1-52.5-23.1l-43.2,5.8
			c-4.2,0.9-5.6,2.4-8.9,3.1c-4.8,1-7.6,0.4-11.6,1.7c-5,1.6-2.3,1.8-8.7,3.2c-8.9,2.1-20.7,4.2-29.3,7.8l-127.5,52.9
			c-2.7,1.3-1.8,1.1-4.1,2.5l-12.1,6.5c-2.8,1.1-1.4,0-4.7,1.9c-2.7,1.6-1,1-4,2.7l-51.5,29.4c-3.3,2-4.6,2.8-7.4,4.6L1297.8,344
			c-0.2,0.2-0.5,0.4-0.8,0.6l-9,6.9c-1.6,1.3-2.1,1.8-3.7,2.9l-2.5,1.5c-0.2,0.2-0.6,0.4-0.8,0.5l-121.7,98.5
			c-1.4,1.3-2.2,1.8-3.6,3l-4.3,3.7c-0.2,0.2-0.5,0.5-0.7,0.6l-44.4,39.1c-12.9,12.1-13.6,7.7-33,6.7c-11.3-0.5-24.3-3.8-35.6-2.5
			l-46.4,4c-7.4,0.9-12.8,2.9-21.2,4c-12.9,1.7-36.4,8.9-48.7,13.6c-3.2,1.3-5.7,1.2-9.3,2.6l-78.7,36.7c-1.5,0.8-0.7,0.4-2.6,1.4
			l-56.2,36.6c-1.3,0.9-2.6,1.8-3.9,2.8c-0.2,0.2-0.5,0.4-0.8,0.6l-76.4,65.5c-0.2,0.2-0.5,0.5-0.7,0.6
			C690.2,676.3,687.8,677.7,686,680.5 M1341.2,512.1c0-5.8,1.2-11.5,2.6-15.9c4.2-13,4.5-16.8,12.9-28.2l1.8-2.2
			c5.6-6.5,10.9-11,18.2-15l1.7-0.9c15.1-8.9,32.5-10.3,50.2-7.9l12.9,4.4c5.6,1.7,2.5,0.7,6.3,3c0.3,0.2,1.3,0.8,1.6,1
			c13,7.9,21.9,15.6,28.6,31c2.3,5.2,3.6,5.8,4.8,12.5c2.1,11.7,2.5,33.1-1.3,43.1c-1.1,2.9-1.1,1.9-2.7,5.3c-3,6.4-2.7,5.9-6.2,11
			l-3.8,5.5c-4,5.3-7.5,7.9-13.3,11.9c-11.9,8.2-6.4,4.3-17.4,9.1c-10.1,4.5-16.5,3.9-27.9,3.9c-27.1,0-54.2-19.3-63.1-43
			C1344.6,534,1341.2,519.3,1341.2,512.1z"/>
		<path class="st1" d="M1412.8,426.1c47.6,0,86.2,38.6,86.2,86.2c0,47.6-38.6,86.2-86.2,86.2c-47.6,0-86.2-38.6-86.2-86.2
			C1326.6,464.7,1365.2,426.1,1412.8,426.1"/>
		<path class="st3" d="M380.9,1236.4l251.9-251.9c18.2-18.2,47.9-18.2,66.1,0c18.2,18.2,18.2,47.9,0,66.1l-318,318V1236.4z"/>
		<path class="st2" d="M380.9,1478.7l448-448c18.2-18.2,47.9-18.2,66.1,0c18.2,18.2,18.2,47.9,0,66.1l-448.7,448.7h-65.4V1478.7z"/>
		<path class="st4" d="M557.8,1545.5l315.9-315.9c18.2-18.2,47.9-18.2,66.1,0c18.2,18.2,18.2,47.9,0,66.1L690,1545.5H557.8z"/>
		<g>
			<polygon class="st5" points="2624.1,1085.7 2420.1,1536.4 2553.5,1536.4 2687.5,1210.7 2821.5,1536.4 2957.6,1536.4 
				2752.9,1085.7 			"/>
			<path class="st5" d="M2267.1,1303c-15.4-9.7-32.5-17.4-51.2-23.2c-18.7-5.8-37.4-10.6-56.1-14.5c-18.7-3.9-35.9-7.6-51.5-11.3
				c-15.6-3.6-28.2-8.4-37.6-14.2c-9.5-5.8-14.2-13.6-14.2-23.5c0-7.7,2.4-14.6,7.3-20.6c4.8-6,12.8-10.8,23.8-14.5
				c11-3.7,25.5-5.5,43.6-5.5c20.3,0,41.2,2.9,62.7,8.7c21.6,5.8,43.4,14.5,65.4,26.1l40.3-94.7c-22.9-12.9-49-22.6-78.2-29.3
				c-29.3-6.7-59.1-10-89.5-10c-45.3,0-83.2,6.7-113.6,20c-30.4,13.3-53.1,30.9-68.3,52.8c-15.2,21.9-22.8,46.4-22.8,73.4
				c0,24,4.8,43.9,14.5,59.6c9.7,15.7,22.2,28.3,37.6,38c15.4,9.7,32.5,17.5,51.2,23.5c18.7,6,37.4,11,56.1,14.8
				c18.7,3.9,35.8,7.7,51.2,11.6c15.4,3.9,27.9,8.8,37.6,14.8c9.7,6,14.5,14.2,14.5,24.5c0,7.3-2.5,13.6-7.6,19
				c-5.1,5.4-13.1,9.7-24.1,12.9c-11,3.2-25.5,4.8-43.6,4.8c-26.9,0-53.8-4.2-80.9-12.6c-27.1-8.4-50.9-19-71.6-31.9l-42.9,94
				c22,14.6,50.5,26.5,85.5,35.7c35,9.2,71.4,13.8,109.3,13.8c45.8,0,83.7-6.7,113.9-20c30.2-13.3,52.8-31,68-53.1
				c15.2-22.1,22.8-46.3,22.8-72.4c0-23.6-4.7-43.3-14.2-58.9C2294.9,1325.3,2282.5,1312.7,2267.1,1303z"/>
			<polygon class="st5" points="3272,1379.5 3146.7,1085.7 3005.4,1085.7 3202.8,1536.4 3331.5,1536.4 3529.6,1085.7 3400.2,1085.7 
							"/>
			<path class="st5" d="M4626.3,1340.4c16.7-24.7,25.1-54,25.1-87.9c0-34.3-8.4-64.1-25.1-89.2c-16.7-25.1-40.4-44.3-71-57.6
				c-30.6-13.3-67-20-109.3-20h-211.3v450.8h130.7v-119.8h71.4l83.8,119.8h140l-99.9-141.9
				C4588.7,1381.5,4610.6,1363.5,4626.3,1340.4z M4499.2,1203.5c13.4,11.6,20.1,27.9,20.1,48.9c0,20.6-6.7,36.7-20.1,48.3
				c-13.4,11.6-33.8,17.4-61.1,17.4h-72.6v-132h72.6C4465.4,1186.1,4485.8,1191.9,4499.2,1203.5z"/>
			<polygon class="st5" points="5302.2,1536.4 5097.6,1085.7 4968.8,1085.7 4764.8,1536.4 4898.2,1536.4 5032.2,1210.7 
				5166.2,1536.4 			"/>
			<polygon class="st5" points="3810.8,1355.5 4016.3,1354.9 4017,1260.2 3811.3,1260.8 3811.7,1184.2 4043.4,1183.6 4044.7,1085.7 
				3682.9,1085.7 3682.3,1536.4 4052.6,1536.4 4053.3,1437.9 3810.3,1438.6 			"/>
		</g>
		<g>
			<path class="st0" d="M3004.1,420.5L2811.3,898h151.2l29.5-83.2h167.7l29.5,83.2H3343l-192.8-477.5H3004.1z M3033.2,698.8
				l42.7-120.3l42.7,120.3H3033.2z"/>
			<path class="st0" d="M2268.5,644.3c-14.5-10.5-30.3-18.9-47.6-25.2c-17.2-6.4-34.5-11.4-52-15c-17.4-3.6-33.4-7.1-47.9-10.2
				c-14.5-3.2-26.1-7.2-35-11.9c-8.8-4.8-13.2-11.3-13.2-19.4c0-5.5,1.8-10.5,5.4-15c3.6-4.5,9.6-8.2,18-10.9
				c8.4-2.7,19.7-4.1,34-4.1c19.3,0,39.2,3,59.5,8.9c20.4,5.9,41.5,14.8,63.3,26.6l44.7-116.6c-23.1-14.1-49.1-24.6-78.1-31.4
				c-29-6.8-58.4-10.2-88.2-10.2c-45.4,0-83.3,7.3-113.7,21.8c-30.5,14.6-53.3,34-68.7,58.3c-15.3,24.3-23,51.3-23,80.8
				c0,25.5,4.4,46.7,13.2,63.8c8.8,17.1,20.5,30.8,35,41.3c14.5,10.5,30.4,18.9,47.9,25.2c17.4,6.4,34.8,11.5,52,15.3
				c17.2,3.9,33.1,7.5,47.6,10.9c14.5,3.4,26.1,7.6,35,12.6c8.8,5,13.2,11.8,13.2,20.5c0,5.5-1.9,10.1-5.7,14
				c-3.8,3.9-9.8,6.8-18,8.9c-8.2,2-19.4,3.1-33.7,3.1c-24.4,0-49.5-4-75.3-11.9c-25.8-8-49.2-18.5-70.2-31.7l-47.9,117.3
				c22.3,14.5,50.6,26.4,85,35.5c34.4,9.1,70.1,13.6,107.1,13.6c45.8,0,83.8-7.4,114-22.2c30.2-14.8,53-34.3,68.4-58.7
				c15.3-24.3,23-51,23-80.1c0-25-4.4-45.9-13.2-62.8C2294.6,668.4,2282.9,654.7,2268.5,644.3z"/>
			<polygon class="st0" points="2378.4,545.4 2507.6,545.4 2507.6,898 2656.3,898 2656.3,545.4 2785.4,545.4 2785.4,420.5 
				2378.4,420.5 			"/>
			<path class="st0" d="M4687.5,678.4c0,36.4-6,62.2-18,77.4c-12,15.2-28.5,22.9-49.5,22.9c-20.6,0-37-7.6-49.1-22.9
				c-12.2-15.2-18.3-41-18.3-77.4V420.5H4404v262.6c0,71.4,18.9,126.9,56.7,166.4c37.8,39.6,90.5,59.3,158.1,59.3
				c67.6,0,120.3-19.8,158.1-59.3c31.4-32.8,49.7-76.7,55.1-131.5h-97.9l99.6-119.4V420.5h-146.2V678.4z"/>
			<path class="st0" d="M5347.8,504.8c-16.4-27.1-39.6-47.9-69.6-62.4c-30-14.5-65.6-21.8-106.8-21.8h-212.3v180.2l97.9,117.4h-97.9
				V898h148.7V780.7h63.6c41.2,0,76.8-7.4,106.8-22.2c30-14.8,53.2-35.6,69.6-62.4c16.4-26.8,24.6-58.7,24.6-95.5
				C5372.4,563.8,5364.2,531.8,5347.8,504.8z M5207.6,641.5c-9.9,10-25.1,15-45.7,15h-54.2V544.7h54.2c20.6,0,35.8,5,45.7,15
				c9.9,10,14.8,23.6,14.8,40.9C5222.4,617.9,5217.5,631.5,5207.6,641.5z"/>
			<polygon class="st0" points="3911.3,545.4 4040.5,545.4 4040.5,898 4189.2,898 4189.2,545.4 4318.3,545.4 4318.3,420.5 
				3911.3,420.5 			"/>
			<path class="st0" d="M3813,695.8c16.4-26.6,24.6-58.3,24.6-95.2c0-36.8-8.2-68.8-24.6-95.8c-16.4-27.1-39.6-47.9-69.6-62.4
				c-30-14.5-65.6-21.8-106.8-21.8h-212.3V898H3573v-120h40.5l74.8,120H3847l-92.6-146.9C3779.2,737.4,3798.7,719,3813,695.8z
				 M3672.8,559.7c9.9,10,14.8,23.6,14.8,40.9c0,17.3-4.9,30.9-14.8,40.9c-9.9,10-25.1,15-45.7,15H3573V544.7h54.2
				C3647.7,544.7,3663,549.7,3672.8,559.7z"/>
		</g>
	</g>
</g>
</svg>
