<?xml version="1.0" encoding="utf-8"?>
<!-- Generator: Adobe Illustrator 25.4.1, SVG Export Plug-In . SVG Version: 6.00 Build 0)  -->
<svg version="1.1" id="Illustration" xmlns="http://www.w3.org/2000/svg" xmlns:xlink="http://www.w3.org/1999/xlink" x="0px"
	 y="0px" viewBox="0 0 225 150" style="enable-background:new 0 0 225 150;" xml:space="preserve">
<style type="text/css">
	.st0{fill:#F4F7FA;}
	.st1{fill:#AECFFF;}
	.st2{fill:#D8DEE8;}
	.st3{opacity:0.6;fill:url(#SVGID_1_);enable-background:new    ;}
	.st4{opacity:0.6;fill:url(#SVGID_00000037666634712209730320000008997528487707035297_);enable-background:new    ;}
	.st5{opacity:0.6;fill:url(#SVGID_00000162348666508067820240000003553778580928209829_);enable-background:new    ;}
	.st6{opacity:0.6;}
	.st7{fill:#FFFFFF;}
	.st8{fill:#EF7F1A;}
	.st9{opacity:0.6;clip-path:url(#SVGID_00000080919103465740979160000015274305538079806130_);}
	.st10{opacity:0.6;fill:#EF7F1A;enable-background:new    ;}
	.st11{opacity:0.3;fill:#EF7F1A;enable-background:new    ;}
	.st12{fill:#020202;}
	.st13{fill:url(#SVGID_00000021093827046587598100000004767862371175973018_);}
	.st14{fill:url(#SVGID_00000088854158138003862150000016235505455284543926_);}
	.st15{opacity:0.3;fill:url(#SVGID_00000108308227071033239990000003539904958684567170_);enable-background:new    ;}
	.st16{fill:url(#SVGID_00000152952414508288755060000013381861979950057633_);}
	.st17{opacity:0.15;fill:url(#SVGID_00000023271951523159704630000012042327656848169380_);enable-background:new    ;}
	.st18{opacity:0.64;}
	.st19{opacity:0.3;fill:url(#SVGID_00000037689346511754247060000006973304542850896514_);enable-background:new    ;}
	.st20{fill:url(#SVGID_00000150082392094019737830000011474945046829945745_);}
	.st21{fill:url(#SVGID_00000106865993469756573660000002972895768924501380_);}
	.st22{fill:url(#SVGID_00000143597066250492177650000017548978734820870583_);}
	.st23{fill:url(#SVGID_00000085214702552532739040000001662592973532008857_);}
	.st24{fill:#F7F8FA;}
	.st25{fill:url(#SVGID_00000124867339220439290560000013284882667459874691_);}
	.st26{fill:url(#SVGID_00000163789776369620230580000007325282989317915050_);}
	.st27{fill:url(#SVGID_00000152249504142814588650000003833844376608242833_);}
	.st28{fill:url(#SVGID_00000087401927983330466900000005744982473067860115_);}
	.st29{fill:url(#SVGID_00000168799901740532198850000015031565413872037306_);}
	.st30{fill:url(#SVGID_00000152231276064671878920000009079749809246909629_);}
</style>
<g>
	<path class="st0" d="M150.5,10.9c4.9,7-0.8,18.5,6.4,23.7c7.1,5.2,15.8-3.3,22.5,1.1c9.9,6.6,8.1,36.7-6.4,55.4
		c-4.4,5.6-8,7.8-9.6,14.2c-3.5,13.7,8.7,21.8,6.4,28.5c-5.2,15.2-85.6,28-117.8-17.7C37,94.8,34.7,63.9,48.2,40.5
		C72.5-1.8,139.5-4.9,150.5,10.9z"/>
	<g>
		<polygon class="st1" points="162.3,131 65.4,137.3 52.6,9.7 150.4,12.9 		"/>
		<polygon class="st2" points="136.2,26.5 62.7,25 62.2,19.9 135.7,21.7 		"/>
		<polygon class="st2" points="106.7,33.9 63.5,33.3 63,28.2 106.2,29 		"/>
		<polygon class="st2" points="107.5,42 64.4,41.6 63.9,36.5 107,37.1 		"/>
		<g>
			<g>
				<path class="st2" d="M73,128.5c-0.1,0-0.3-0.1-0.3-0.2l-5.9-59.4c0-0.1,0-0.1,0.1-0.2c0-0.1,0.1-0.1,0.2-0.1l81.4-1
					c0.1,0,0.3,0.1,0.3,0.2l5.6,55.7c0,0.1,0,0.1-0.1,0.2s-0.1,0.1-0.2,0.1L73,128.5C73,128.5,73,128.5,73,128.5z M67.4,69l5.9,58.9
					l80.5-4.7L148.3,68L67.4,69z"/>
				<path class="st2" d="M69.4,92.3c-0.1,0-0.3-0.1-0.3-0.2l-0.9-8.9c0-0.1,0-0.1,0.1-0.2c0-0.1,0.1-0.1,0.2-0.1l81.4-1.9
					c0.1,0,0.3,0.1,0.3,0.2l0.8,8.3c0,0.1,0,0.1-0.1,0.2c0,0.1-0.1,0.1-0.2,0.1L69.4,92.3C69.4,92.3,69.4,92.3,69.4,92.3z
					 M68.8,83.4l0.8,8.3l80.8-2.5l-0.8-7.8L68.8,83.4z"/>
				<path class="st2" d="M71.1,109.3c-0.1,0-0.3-0.1-0.3-0.2l-0.9-8.9c0-0.1,0-0.1,0.1-0.2c0-0.1,0.1-0.1,0.2-0.1l81.2-3
					c0.1,0,0.3,0.1,0.3,0.2l0.8,8.3c0,0.1,0,0.1-0.1,0.2c0,0.1-0.1,0.1-0.2,0.1L71.1,109.3C71.1,109.3,71.1,109.3,71.1,109.3z
					 M70.5,100.4l0.8,8.3l80.7-3.5l-0.8-7.8L70.5,100.4z"/>
				<path class="st2" d="M93.9,127.3c-0.1,0-0.3-0.1-0.3-0.2l-4.4-44.3c0-0.1,0.1-0.3,0.2-0.3c0.1,0,0.3,0.1,0.3,0.2l4.4,44.3
					C94.2,127.1,94.1,127.2,93.9,127.3C93.9,127.3,93.9,127.3,93.9,127.3z"/>
				<path class="st2" d="M107.6,126.5c-0.1,0-0.3-0.1-0.3-0.2l-4.4-43.8c0-0.1,0.1-0.3,0.2-0.3c0.1,0,0.3,0.1,0.3,0.2l4.4,43.8
					C107.8,126.3,107.7,126.4,107.6,126.5C107.6,126.5,107.6,126.5,107.6,126.5z"/>
			</g>
			<path class="st2" d="M66.5,63.5c-0.1,0-0.3-0.1-0.3-0.2l-1.6-15.5c0-0.1,0-0.2,0.1-0.2c0.1-0.1,0.1-0.1,0.2-0.1l81.6,0.3
				c0.1,0,0.3,0.1,0.3,0.2l1.5,14.6c0,0.1,0,0.1-0.1,0.2c-0.1,0.1-0.1,0.1-0.2,0.1L66.5,63.5C66.5,63.5,66.5,63.5,66.5,63.5z
				 M65.3,47.9l1.5,15l80.9-0.7l-1.4-14L65.3,47.9z"/>
			<path class="st2" d="M118.1,63c-0.1,0-0.3-0.1-0.3-0.2l-1.5-14.9c0-0.1,0.1-0.3,0.2-0.3c0.1,0,0.3,0.1,0.3,0.2l1.5,14.9
				C118.3,62.9,118.2,63,118.1,63C118.1,63,118.1,63,118.1,63z"/>
			<path class="st2" d="M65.7,55.7c-0.1,0-0.3-0.1-0.3-0.3c0-0.1,0.1-0.3,0.3-0.3l81.5-0.2h0c0.1,0,0.3,0.1,0.3,0.3
				c0,0.1-0.1,0.3-0.3,0.3L65.7,55.7C65.7,55.7,65.7,55.7,65.7,55.7z"/>
		</g>
		<g>
			
				<linearGradient id="SVGID_1_" gradientUnits="userSpaceOnUse" x1="307.5026" y1="-376.041" x2="348.458" y2="-376.041" gradientTransform="matrix(0.9338 0.4394 0.3705 -0.857 -44.6313 -426.6875)">
				<stop  offset="0" style="stop-color:#444B8C"/>
				<stop  offset="0.9964" style="stop-color:#3E4177"/>
			</linearGradient>
			<path class="st3" d="M115,57.1c-10.7-5-16.1-17-11.7-26.7c4.3-9.6,16.4-13.1,26.9-7.9c10.3,5.1,15.3,16.8,11.3,26.2
				C137.4,58.2,125.6,62,115,57.1z M129.4,24.3c-9.4-4.6-20.2-1.5-24.1,7.1c-3.9,8.7,0.9,19.5,10.5,23.9c9.5,4.4,20.1,0.9,23.7-7.6
				C143.2,39.3,138.7,28.8,129.4,24.3z"/>
			
				<linearGradient id="SVGID_00000034057907263948863480000016952818733081239725_" gradientUnits="userSpaceOnUse" x1="312.8042" y1="-375.9745" x2="343.4223" y2="-375.9745" gradientTransform="matrix(0.9338 0.4394 0.3705 -0.857 -44.6313 -426.6875)">
				<stop  offset="0" style="stop-color:#444B8C"/>
				<stop  offset="0.9964" style="stop-color:#3E4177"/>
			</linearGradient>
			<path style="opacity:0.6;fill:url(#SVGID_00000034057907263948863480000016952818733081239725_);enable-background:new    ;" d="
				M117,52.7C109,49,105,40,108.2,32.8c3.2-7.2,12.2-9.8,20-6c7.7,3.8,11.5,12.6,8.5,19.6C133.7,53.5,124.8,56.4,117,52.7z
				 M127.5,28.6c-6.8-3.3-14.5-1-17.3,5.2c-2.8,6.2,0.6,13.9,7.5,17.2c6.8,3.2,14.4,0.7,17.1-5.4C137.5,39.4,134.2,31.9,127.5,28.6z
				"/>
			
				<linearGradient id="SVGID_00000117647471732746475760000009140073839005880987_" gradientUnits="userSpaceOnUse" x1="318.9783" y1="-375.5486" x2="337.4474" y2="-375.5486" gradientTransform="matrix(0.9338 0.4394 0.3705 -0.857 -44.6313 -426.6875)">
				<stop  offset="0" style="stop-color:#444B8C"/>
				<stop  offset="0.9964" style="stop-color:#3E4177"/>
			</linearGradient>
			<path style="opacity:0.6;fill:url(#SVGID_00000117647471732746475760000009140073839005880987_);enable-background:new    ;" d="
				M130.4,45.7c0,0.1-0.1,0.1-0.2,0.2c-0.1,0-0.2,0-0.2,0l-16.6-7.9c-0.2-0.1-0.2-0.3-0.2-0.4l1.9-4.4c0-0.1,0.1-0.1,0.2-0.2
				c0.1,0,0.2,0,0.2,0l16.6,8c0.2,0.1,0.2,0.3,0.2,0.4L130.4,45.7z"/>
		</g>
		<g class="st6">
			<path class="st7" d="M101.1,27.4c-2.2-6.5-5.7-11.9-9.9-16.5L52.6,9.7l12.8,127.7l57.5-3.8c-20.6-23.4-25.1-42.5-25.1-56
				C97.6,57.6,107,45.3,101.1,27.4z"/>
		</g>
	</g>
	<g>
		<ellipse class="st8" cx="147.3" cy="69.6" rx="29.5" ry="5.4"/>
		<polygon class="st8" points="176.8,84.4 117.8,84.4 117.8,69.3 117.8,69.3 176.8,69.3 		"/>
		<g>
			<g>
				<path id="SVGID_00000081610863181819707420000015198309196458368672_" class="st8" d="M176.7,69.3c-0.9-2.8-13.7-5.1-29.4-5.1
					s-28.6,2.2-29.4,5.1h0l0,0v15.1h59L176.7,69.3L176.7,69.3z"/>
			</g>
			<g>
				<defs>
					<path id="SVGID_00000089575420020282286180000017272858842079649701_" d="M176.7,69.3c-0.9-2.8-13.7-5.1-29.4-5.1
						s-28.6,2.2-29.4,5.1h0l0,0v15.1h59L176.7,69.3L176.7,69.3z"/>
				</defs>
				<clipPath id="SVGID_00000080907118793479048390000018408585570276505990_">
					<use xlink:href="#SVGID_00000089575420020282286180000017272858842079649701_"  style="overflow:visible;"/>
				</clipPath>
				<g style="opacity:0.6;clip-path:url(#SVGID_00000080907118793479048390000018408585570276505990_);">
					<rect x="120.2" y="62.1" class="st8" width="2.6" height="23"/>
					<rect x="125.9" y="62.1" class="st8" width="2.6" height="23"/>
					<rect x="131.7" y="62.1" class="st8" width="2.6" height="23"/>
					<rect x="137.4" y="62.1" class="st8" width="2.6" height="23"/>
					<rect x="143.1" y="62.1" class="st8" width="2.6" height="23"/>
					<rect x="148.8" y="62.1" class="st8" width="2.6" height="23"/>
					<rect x="154.6" y="62.1" class="st8" width="2.6" height="23"/>
					<rect x="160.3" y="62.1" class="st8" width="2.6" height="23"/>
					<rect x="166" y="62.1" class="st8" width="2.6" height="23"/>
					<rect x="171.7" y="62.1" class="st8" width="2.6" height="23"/>
				</g>
			</g>
		</g>
		<ellipse class="st8" cx="147.3" cy="84.4" rx="29.5" ry="5.4"/>
		<path class="st10" d="M147.3,81c-14.8,0-26.8,1.5-26.8,3.4l4.9,54.6c0,1.6,9.8,2.9,21.9,2.9s21.9-1.3,21.9-2.9l4.9-54.6
			C174.1,82.5,162.1,81,147.3,81z"/>
		<path class="st8" d="M124,106.3l2.8,31c0.1,0.7,0.5,1.2,1.2,1.4c2.7,0.7,9.2,1.6,19.3,1.6c10.1,0,16.6-0.9,19.3-1.6
			c0.7-0.2,1.1-0.7,1.2-1.4l2.8-31H124z"/>
		<ellipse class="st8" cx="147.3" cy="106.3" rx="23.3" ry="1.8"/>
		<path class="st11" d="M157.4,119.3c-6.7-14.6-21.2-16.4-25.8-30.2c-0.7-2.2-1.2-4.6-1.2-7.3c-6.1,0.6-10,1.6-10,2.6l4.9,54.6
			c0,1.6,9.8,2.9,21.9,2.9c4.6,0,8.9-0.2,12.4-0.5C160.9,133.9,160.6,126.3,157.4,119.3z"/>
	</g>
	<g>
		<g>
			<g>
				<path class="st12" d="M101.9,141.3c0,0,4,1.8,4,2.1c0.1,0.3-2.6-0.1-3.6-0.1c-1.1,0-1.9-0.3-1.9-0.7c0.1-0.5,0.5-1.6,0.5-1.6
					L101.9,141.3z"/>
				
					<linearGradient id="SVGID_00000119811665622742916260000001329184096614796172_" gradientUnits="userSpaceOnUse" x1="9085.0645" y1="7.9755" x2="9084.8857" y2="20.9691" gradientTransform="matrix(-1 0 0 -1 9186.3896 150)">
					<stop  offset="0" style="stop-color:#FFC444"/>
					<stop  offset="0.9964" style="stop-color:#F36F56"/>
				</linearGradient>
				<path style="fill:url(#SVGID_00000119811665622742916260000001329184096614796172_);" d="M102.1,139.8l-0.2,1.8
					c0,0-0.6,0.2-1.1,0l-0.2-2L102.1,139.8z"/>
				<path class="st12" d="M83.4,139.9l-0.5,0.7c-0.1,0.2-0.2,0.5-0.1,0.7c0.2,0.6,0.5,1.8,0.6,2.1c0.2,0.4,2.8,0.7,2.8,0.7
					s0.2-0.3-0.3-0.7c-0.5-0.4-0.9-0.5-1.1-1c-0.2-0.6-0.3-2.2-0.3-2.2L83.4,139.9z"/>
				
					<linearGradient id="SVGID_00000007392479699937712620000004245608555352871587_" gradientUnits="userSpaceOnUse" x1="9102.1367" y1="8.2109" x2="9101.957" y2="21.2049" gradientTransform="matrix(-1 0 0 -1 9186.3896 150)">
					<stop  offset="0" style="stop-color:#FFC444"/>
					<stop  offset="0.9964" style="stop-color:#F36F56"/>
				</linearGradient>
				<path style="fill:url(#SVGID_00000007392479699937712620000004245608555352871587_);" d="M85.3,138c-0.2,0.1-1,2.6-1,2.6
					s-0.3,0.3-0.8-0.2c-0.5-0.5-0.2-0.2-0.2-0.2l0.1-2.5L85.3,138z"/>
				<path class="st12" d="M104.3,103.9c0.2,5.3,0.2,11.1-0.1,17.3c-0.3,7-1,13.4-1.9,19.2c-0.3,0-0.7,0-1,0c-0.2,0-0.5,0-0.7,0
					c-0.5-1.2-1-2.8-1.5-4.7c-0.5-2-0.8-3.8-1-5.5c-0.8-6,0.1-6.6-0.5-11c-0.5-4-1.3-4.1-2.2-9.7c-1-6.1-0.3-7,0.1-7.3
					C97,100.7,100.6,101.7,104.3,103.9z"/>
				
					<linearGradient id="SVGID_00000013172336151714678200000017115585014100535977_" gradientUnits="userSpaceOnUse" x1="9081.9639" y1="29.0241" x2="9091.5703" y2="29.0241" gradientTransform="matrix(-1 0 0 -1 9186.3896 150)">
					<stop  offset="0" style="stop-color:#444B8C"/>
					<stop  offset="0.9964" style="stop-color:#3E4177"/>
				</linearGradient>
				
					<path style="opacity:0.3;fill:url(#SVGID_00000013172336151714678200000017115585014100535977_);enable-background:new    ;" d="
					M95.4,102.1c1.5-1.3,4.8-0.5,8.3,1.5c-4.1,4.4-4.5,7.2-4,9.1c0.6,2.1,2.2,2.7,2.2,5c0,2.8-2.5,3.5-2.5,6.5c0,2,1.1,1.9,1.4,4.4
					c0.3,2.9-1.1,3.9-0.7,6c0.2,0.9,0.8,2.1,2.4,3.3c-0.1,0.9-0.2,1.7-0.4,2.6c-0.3,0-0.7,0-1,0c-0.2,0-0.5,0-0.7,0
					c-0.5-1.2-1-2.8-1.5-4.7c-0.5-2-0.8-3.8-1-5.5c-0.8-6,0.1-6.6-0.5-11c-0.5-4-1.3-4.1-2.2-9.7C94.3,103.4,95.1,102.4,95.4,102.1z
					"/>
				<path class="st12" d="M101.8,103.9c-3.5,5.1-7.3,11.5-10.6,19.1c-2.6,5.8-4.4,11.2-5.8,16c-0.2,0.1-0.6,0.3-1.2,0.2
					c-0.8-0.1-1.2-0.6-1.3-0.7c-0.6-3.5-0.5-6.4-0.3-8.5c0.1-1.4,0.3-3.6,1.2-6.4c1-3.1,1.6-3.3,2.9-6.6c1.3-3.4,1-4.3,2.2-8.6
					c0.5-1.8,1.4-4.4,2.8-7.5C95,101.9,98.4,102.9,101.8,103.9z"/>
			</g>
			
				<linearGradient id="SVGID_00000009589908636536528600000016438887143412636081_" gradientUnits="userSpaceOnUse" x1="-7798.4614" y1="-1799.689" x2="-7782.9106" y2="-1799.689" gradientTransform="matrix(0.9651 0.2619 0.2619 -0.9651 8091.5947 396.0795)">
				<stop  offset="0" style="stop-color:#AA80F9"/>
				<stop  offset="0.9964" style="stop-color:#6165D7"/>
			</linearGradient>
			<path style="fill:url(#SVGID_00000009589908636536528600000016438887143412636081_);" d="M97.4,77.8c1.5,0,3.7,0.1,6.3,0.6
				c3.7,0.8,5.5,1.2,6.5,2.4c2.4,2.8-1.1,6.8-3,18.4c-0.8,5-0.5,4.7-2.1,6.1c-3.3,2.9-10,1.3-12.2-2.5c-1.2-2-1.3-2.2-0.9-4
				C93.9,91.6,95.6,84.8,97.4,77.8z"/>
			<path class="st7" d="M117.7,99.4c0.4-0.7-1.2-1.3-1.9-3.6c-1.1-3.2,1.2-4.6,0.4-8.2c-0.6-2.9-2.6-4.8-3.2-5.4
				c-1.6-1.5-3.3-2.1-4.3-2.4c-1.5,2-3.5,5-5.2,9c-1.5,3.6-1.9,6.2-3.1,11.4c-0.7,3.3-1.8,8.1-3.5,13.9c0.9,0.6,1.7,0.9,2.2,1
				c1.9,0.6,2.8,0,4.7,0.8c0.8,0.3,1,0.5,1.3,0.4c1-0.3,0.9-2.5,1.1-4.8c0.3-3.5,0.8-2.6,1.6-8.2c0.7-4.6,0.7-7.4,1.4-7.4
				c0.4,0,0.5,0.7,1.3,1.6C112.8,100,117.1,100.4,117.7,99.4z"/>
			
				<linearGradient id="SVGID_00000026154345754647556360000008616219349329564050_" gradientUnits="userSpaceOnUse" x1="-7798.8091" y1="-1775.0724" x2="-7781.6177" y2="-1813.9626" gradientTransform="matrix(0.9651 0.2619 0.2619 -0.9651 8091.5947 396.0795)">
				<stop  offset="0" style="stop-color:#AA80F9"/>
				<stop  offset="0.9964" style="stop-color:#6165D7"/>
			</linearGradient>
			
				<path style="opacity:0.15;fill:url(#SVGID_00000026154345754647556360000008616219349329564050_);enable-background:new    ;" d="
				M105.2,103.2c0.9-3.4,2.9-3.4,3.5-6.3c0.6-3-1.2-3.7-0.5-6.2c0.9-3.1,4-3.3,4.6-6.1c0.2-1,0.1-1.9-0.2-2.7
				c-1.5-1.3-3.1-1.9-4-2.2c-1.5,2-3.5,5-5.2,9c-1.5,3.6-1.9,6.2-3.1,11.4c-0.7,3.3-1.8,8.1-3.5,13.9c0.9,0.6,1.7,0.9,2.2,1
				c1.9,0.6,2.8,0,4.7,0.8c0.8,0.3,1,0.5,1.3,0.4c0.8-0.3,0.9-2,1-3.9c-0.4-0.9-0.8-1.8-1.1-3.4
				C104.9,107.8,104.5,105.6,105.2,103.2z"/>
			<path class="st7" d="M101.5,88.9c0,1.8-0.4,3.1-0.8,4.3c-2.1,6.7-3.2,10.1-3.5,11c-1.8,4.5-2.1,4.1-2.5,6.1c-0.2,1-0.3,2-1,2.5
				c-0.9,0.6-1.7-0.1-4.2-0.4c-2.2-0.3-2.4,0.1-4.8-0.2c-1-0.1-3.7-0.5-3.7-1.4c0-0.4,0.7-0.9,1.3-1.1c1-0.3,1.6,0.3,2,0
				c0.5-0.4-0.3-1.2,0-2.4c0.3-1.2,1.2-1.3,2.1-2.6c0.8-1.2,1-2.3,1.1-3.2c0.6-3.6,2.9-6,4.5-10.6c2.4-7.1,0.3-10.6,3-12.3
				c1.5-1,3.3-1.2,4.5-0.8c0.5,2.9,1,5.2,1.4,6.7C101.3,86.3,101.6,87.4,101.5,88.9z"/>
			<g>
				<path class="st7" d="M106.8,88.3c0-0.6-0.4-1.4,0-2c0.2-0.4,0.6-0.6,0.9-0.6c1.8,0.1,3.3-1.2,3.6-2.9c0.1-0.7,0-1.4-0.3-2
					c-1-0.6-1.8-0.9-2.4-1c-1.5,2-3.5,5-5.2,9c-0.7,1.7-1.2,3.2-1.6,4.8c0.5-0.9,1.1-1.4,1.7-1.8C104.6,91,106.8,89.9,106.8,88.3z"
					/>
			</g>
			<g class="st18">
				
					<linearGradient id="SVGID_00000018939924358957098130000009206029136486715554_" gradientUnits="userSpaceOnUse" x1="-7801.5264" y1="-1804.516" x2="-7791.1729" y2="-1804.516" gradientTransform="matrix(0.9651 0.2619 0.2619 -0.9651 8091.5947 396.0795)">
					<stop  offset="0" style="stop-color:#AA80F9"/>
					<stop  offset="0.9964" style="stop-color:#6165D7"/>
				</linearGradient>
				
					<path style="opacity:0.3;fill:url(#SVGID_00000018939924358957098130000009206029136486715554_);enable-background:new    ;" d="
					M101.5,88.9c0-1.5-0.3-2.6-0.7-4.3c-0.4-1.6-0.9-3.9-1.4-6.7c-0.3-0.1-1.1,0.2-1.4,0.2c-2.6,2.1-2.6,3.1-2.4,4
					c0.2,0.9,1,1.3,0.9,2.3c-0.2,1.4-2.4,1.4-3.4,3.1c-0.9,1.5-1.6,4.1-1.1,5.9c0.9,3.1,1.5,3.4,1.1,4.8c-0.5,1.5,0,0.8-1.2,2.4
					c-1.8,2.5,0.9,5.5-0.8,7.7c-1.3,1.7-3.5,0.7-5.5,2.9c-0.3,0.3-0.6,0.7-0.8,1.1c2.2,0.3,2.4-0.1,4.6,0.2c2.4,0.3,3.3,1,4.2,0.4
					c0.7-0.5,0.8-1.4,1-2.5c0.4-1.9,0.7-1.5,2.5-6.1c0.4-0.9,1.4-4.3,3.5-11C101.1,92,101.5,90.7,101.5,88.9z"/>
			</g>
			<path class="st7" d="M97.7,83.6c0.7,1.1,1.3,1.6,1.2,2.4c-0.1,0.9-0.9,1-1,1.9c-0.1,1.1,1.1,1.5,1.4,3c0.2,1-0.3,1.3-0.4,2.5
				c0,0.8,0.1,1.9,0.8,3.3c0.3-1.1,0.7-2.3,1.1-3.6c0.4-1.2,0.8-2.5,0.8-4.3c0-1.5-0.3-2.6-0.7-4.3c-0.4-1.6-0.9-3.9-1.4-6.7
				c-0.7-0.2-1.8,0.1-2.8,0.2c-0.5,0.5-0.5,0.4-0.5,0.6C95.6,80.5,97.2,82.9,97.7,83.6z"/>
			<g>
				
					<linearGradient id="SVGID_00000039824720822829189390000005710733366400841382_" gradientUnits="userSpaceOnUse" x1="-6516.3203" y1="-4858.1543" x2="-6515.9038" y2="-4847.0679" gradientTransform="matrix(0.7805 0.625 0.625 -0.7805 8223.3877 363.3798)">
					<stop  offset="0" style="stop-color:#FFC444"/>
					<stop  offset="0.9964" style="stop-color:#F36F56"/>
				</linearGradient>
				<path style="fill:url(#SVGID_00000039824720822829189390000005710733366400841382_);" d="M105,74.6c-0.3,1.1-0.6,1.9-0.9,2.4
					c-0.3,0.6-0.5,0.8-0.6,0.9c-0.2,0.2-0.6,0.3-2.2,0.2c-0.9,0-1-0.1-1,0c-0.2,0.4,1.7,2.4,4.1,2.7c1.5,0.2,3-0.3,3.1-0.7
					c0-0.5-1.5-0.6-1.7-1.5c-0.1-0.6,0.4-1.3,1-1.8C106.6,75.9,105.2,75.4,105,74.6z"/>
				<g>
					
						<linearGradient id="SVGID_00000091713383198445805320000010643661520513377969_" gradientUnits="userSpaceOnUse" x1="9852.4844" y1="1241.4249" x2="9849.6621" y2="1248.5922" gradientTransform="matrix(-0.991 0.1338 -0.1338 -0.991 10033.9697 -7.1731)">
						<stop  offset="0" style="stop-color:#311944"/>
						<stop  offset="1" style="stop-color:#6B3976"/>
					</linearGradient>
					<path style="fill:url(#SVGID_00000091713383198445805320000010643661520513377969_);" d="M107.5,75.1c0.3-0.5,0.2-1.3-0.3-1.8
						c-0.4-0.4-1-0.4-1.3-0.4c-1,0-2.1,0.6-2.4,1.5c-0.2,0.5,0.5,1.5,0.6,1.7c0.1,0.2,0.3,0.3,0.5,0.4c0.2,0.2,0.6,0.5,1.3,1.1
						c0-0.2,0.1-0.4,0.1-0.7c0-0.1,0.1-0.5,0.3-0.8C106.8,75.5,107.2,75.6,107.5,75.1z"/>
					
						<linearGradient id="SVGID_00000160908716151611976200000004880248033602413203_" gradientUnits="userSpaceOnUse" x1="-9139.0977" y1="1832.9709" x2="-9139.2275" y2="1822.5159" gradientTransform="matrix(0.981 -0.1942 -0.1942 -0.981 9427.2324 98.7136)">
						<stop  offset="0" style="stop-color:#FFC444"/>
						<stop  offset="0.9964" style="stop-color:#F36F56"/>
					</linearGradient>
					<path style="fill:url(#SVGID_00000160908716151611976200000004880248033602413203_);" d="M105,77.2c0,0,0.8,0.9,2,0.7
						c1.1-0.2,0.9-2.7,0.2-3.2c-0.3-0.1-0.7-0.2-1.1,0c-0.2,0.1-0.3,0.2-0.6,0.3c-0.3,0.1-0.4,0.1-0.5,0.2c-0.1,0.1-0.2,0.4,0.1,1.1
						c-0.2-0.2-0.5-0.2-0.7-0.1c0,0-0.1,0.1-0.1,0.2C104.1,76.8,104.4,77.1,105,77.2z"/>
				</g>
			</g>
		</g>
		
			<linearGradient id="SVGID_00000056393049650611928190000000424289761453384629_" gradientUnits="userSpaceOnUse" x1="-8641.0664" y1="2078.7124" x2="-8637.3457" y2="2073.9951" gradientTransform="matrix(0.9638 -0.2666 -0.2666 -0.9638 8997.6846 -203.785)">
			<stop  offset="0" style="stop-color:#FFC444"/>
			<stop  offset="0.9964" style="stop-color:#F36F56"/>
		</linearGradient>
		<path style="fill:url(#SVGID_00000056393049650611928190000000424289761453384629_);" d="M118.4,97c0-0.1-0.1-0.2-0.2-0.1
			c-0.4,0.1-1.2,0.3-1.6,0.7c-0.5,0.5-1.1,1.4-0.3,1.6l0.7,0.1c0,0,0.1,0,0.1,0c0.2-0.1,1-0.6,1.1-0.6
			C118.3,98.5,118.4,97.4,118.4,97z"/>
		<g>
			<path class="st2" d="M87.9,108.5l69-35.5c0.9-0.5,2.1-0.1,2.5,0.8l0.4,0.7c0.5,0.9,0.1,2.1-0.8,2.5l-69,35.5
				c-0.9,0.5-2.1,0.1-2.5-0.8l-0.4-0.7C86.6,110.1,87,109,87.9,108.5z"/>
			<path class="st24" d="M87.9,108.1l69-35.5c0.9-0.5,2.1-0.1,2.5,0.8l0.4,0.7c0.5,0.9,0.1,2.1-0.8,2.5l-69,35.5
				c-0.9,0.5-2.1,0.1-2.5-0.8l-0.4-0.7C86.6,109.7,87,108.6,87.9,108.1z"/>
			<rect x="152" y="74.8" transform="matrix(0.8889 -0.458 0.458 0.8889 -17.8709 79.1901)" class="st8" width="4.7" height="3.3"/>
			
				<linearGradient id="SVGID_00000086669384477017828450000012179129805784289214_" gradientUnits="userSpaceOnUse" x1="-146.3629" y1="128.883" x2="-141.6457" y2="128.883" gradientTransform="matrix(-0.8889 0.458 -0.458 -0.8889 80.0852 259.6864)">
				<stop  offset="0" style="stop-color:#FF9085"/>
				<stop  offset="1" style="stop-color:#FB6FBB"/>
			</linearGradient>
			<polygon style="fill:url(#SVGID_00000086669384477017828450000012179129805784289214_);" points="147.7,81.7 151.9,79.5 
				150.4,76.6 146.2,78.8 			"/>
			
				<linearGradient id="SVGID_00000109714883030007963040000011444726615634347171_" gradientUnits="userSpaceOnUse" x1="-140.4116" y1="128.8832" x2="-135.6946" y2="128.8832" gradientTransform="matrix(-0.8889 0.458 -0.458 -0.8889 80.0852 259.6864)">
				<stop  offset="0" style="stop-color:#AA80F9"/>
				<stop  offset="0.9964" style="stop-color:#6165D7"/>
			</linearGradient>
			<polygon style="fill:url(#SVGID_00000109714883030007963040000011444726615634347171_);" points="142.4,84.4 146.6,82.3 
				145.1,79.4 140.9,81.5 			"/>
			
				<linearGradient id="SVGID_00000067233665289601419160000001500386546254294956_" gradientUnits="userSpaceOnUse" x1="-134.1036" y1="119.8746" x2="-135.0753" y2="115.5019" gradientTransform="matrix(-0.8889 0.458 -0.458 -0.8889 80.0852 259.6864)">
				<stop  offset="0" style="stop-color:#FF9085"/>
				<stop  offset="1" style="stop-color:#FB6FBB"/>
			</linearGradient>
			<polygon style="fill:url(#SVGID_00000067233665289601419160000001500386546254294956_);" points="137.1,87.2 141.3,85 
				139.8,82.1 135.6,84.2 			"/>
			
				<linearGradient id="SVGID_00000006689830473301241640000015260614037079389338_" gradientUnits="userSpaceOnUse" x1="-126.7816" y1="126.5864" x2="-130.8303" y2="111.8489" gradientTransform="matrix(-0.8889 0.458 -0.458 -0.8889 80.0852 259.6864)">
				<stop  offset="0" style="stop-color:#FFC444"/>
				<stop  offset="0.9964" style="stop-color:#F36F56"/>
			</linearGradient>
			<polygon style="fill:url(#SVGID_00000006689830473301241640000015260614037079389338_);" points="131.8,89.9 136,87.7 
				134.5,84.8 130.3,87 			"/>
			
				<linearGradient id="SVGID_00000092416105773699119640000010580459823416768390_" gradientUnits="userSpaceOnUse" x1="-120.3951" y1="128.1858" x2="-127.6828" y2="102.2738" gradientTransform="matrix(-0.8889 0.458 -0.458 -0.8889 80.0852 259.6864)">
				<stop  offset="0" style="stop-color:#AA80F9"/>
				<stop  offset="0.9964" style="stop-color:#6165D7"/>
			</linearGradient>
			<polygon style="fill:url(#SVGID_00000092416105773699119640000010580459823416768390_);" points="126.6,92.6 130.7,90.4 
				129.2,87.5 125.1,89.7 			"/>
			
				<rect x="120.3" y="91.2" transform="matrix(0.8889 -0.458 0.458 0.8889 -28.8869 66.4678)" class="st2" width="4.7" height="3.3"/>
			
				<rect x="120.3" y="91.2" transform="matrix(0.8889 -0.458 0.458 0.8889 -28.8869 66.4678)" class="st8" width="4.7" height="3.3"/>
		</g>
		
			<linearGradient id="SVGID_00000075859197494003430540000012725914529810534306_" gradientUnits="userSpaceOnUse" x1="-8483.2256" y1="45.6651" x2="-8479.0469" y2="45.6651" gradientTransform="matrix(1 0 0 -1 8580.4541 150)">
			<stop  offset="0" style="stop-color:#FFC444"/>
			<stop  offset="0.9964" style="stop-color:#F36F56"/>
		</linearGradient>
		<path style="fill:url(#SVGID_00000075859197494003430540000012725914529810534306_);" d="M97.2,104.1c-0.1,0,0.5-1.2,1-1.1
			c0.5,0.1,2.8,1.5,3,2c0.2,0.6,0.2,0.6,0.2,0.6s-1,0.1-1.6-0.1C99.2,105.3,98.1,104.3,97.2,104.1z"/>
		<path class="st7" d="M95.2,82c-0.1-1.3,1.4-3.9,0.2-3.5c-4.6,1.8-11.8,6.6-10.3,16.2c1.7,11,12.7,9.6,12.7,9.6l0.5-1.4
			c0,0-9.2-9.4-2.2-17.4L95.2,82z"/>
	</g>
</g>
</svg>
