<?xml version="1.0" encoding="utf-8"?>
<!-- Generator: Adobe Illustrator 25.4.1, SVG Export Plug-In . SVG Version: 6.00 Build 0)  -->
<svg version="1.1" id="Layer_1" xmlns="http://www.w3.org/2000/svg" xmlns:xlink="http://www.w3.org/1999/xlink" x="0px" y="0px"
	 viewBox="0 0 225 150" style="enable-background:new 0 0 225 150;" xml:space="preserve">
<style type="text/css">
	.st0{display:none;}
	.st1{display:inline;}
	.st2{fill:#407BFF;}
	.st3{opacity:0.9;fill:#FFFFFF;enable-background:new    ;}
	.st4{fill:#EBEBEB;}
	.st5{fill:#F5F5F5;}
	.st6{fill:#FAFAFA;}
	.st7{fill:#F0F0F0;}
	.st8{fill:#E6E6E6;}
	.st9{fill:#E0E0E0;}
	.st10{fill:#0B1317;}
	.st11{opacity:0.4;fill:#FFFFFF;enable-background:new    ;}
	.st12{opacity:0.2;enable-background:new    ;}
	.st13{fill:#052669;}
	.st14{opacity:0.7;fill:#FFFFFF;enable-background:new    ;}
	.st15{opacity:0.4;}
	.st16{opacity:0.2;}
	.st17{fill:#FFFFFF;}
	.st18{opacity:0.1;fill:#FFFFFF;enable-background:new    ;}
	.st19{fill:#EF7F1A;}
	.st20{opacity:0.2;fill:#FFFFFF;enable-background:new    ;}
	.st21{fill:#34241C;}
	.st22{fill:#E4887B;}
	.st23{opacity:0.1;enable-background:new    ;}
	.st24{fill:#263238;}
	.st25{opacity:0.6;fill:#FFFFFF;enable-background:new    ;}
	.st26{fill:#FF8A7B;}
	.st27{fill:#FF5552;}
	.st28{fill:none;stroke:#FFFFFF;stroke-width:0.75;stroke-miterlimit:10;}
	.st29{fill:none;stroke:#FFFFFF;stroke-width:0.75;stroke-linecap:round;stroke-linejoin:round;stroke-miterlimit:10;}
</style>
<g id="Background_Simple" class="st0">
	<g class="st1">
		<path class="st2" d="M111.1-84.2C45.2-54.6,105-1.8,67,26.9S-74.4,22.5-35,97.1c46.3,87.7,249,75.5,292.7-32.1
			S176.9-113.9,111.1-84.2z"/>
		<path class="st3" d="M111.1-84.2C45.2-54.6,105-1.8,67,26.9S-74.4,22.5-35,97.1c46.3,87.7,249,75.5,292.7-32.1
			S176.9-113.9,111.1-84.2z"/>
	</g>
</g>
<g>
	<g id="Background_Complete">
		<g>
			<rect x="15.5" y="129.8" class="st4" width="194.1" height="0.1"/>
			<rect x="177.2" y="136" class="st4" width="12.9" height="0.1"/>
			<rect x="140.7" y="137.1" class="st4" width="3.4" height="0.1"/>
			<rect x="169.4" y="132.4" class="st4" width="7.4" height="0.1"/>
			<rect x="35.8" y="133.1" class="st4" width="16.8" height="0.1"/>
			<rect x="56" y="133.1" class="st4" width="2.5" height="0.1"/>
			<rect x="66.5" y="134.7" class="st4" width="36.4" height="0.1"/>
			<path class="st4" d="M107.5,112.5H32.5c-1.2,0-2.2-1-2.2-2.2V4.9c0-1.2,1-2.2,2.2-2.2h75c1.2,0,2.2,1,2.2,2.2v105.4
				C109.7,111.5,108.7,112.5,107.5,112.5z M32.5,2.8c-1.2,0-2.1,1-2.1,2.1v105.4c0,1.2,1,2.1,2.1,2.1h75c1.2,0,2.1-1,2.1-2.1V4.9
				c0-1.2-1-2.1-2.1-2.1H32.5z"/>
			<path class="st4" d="M191.4,112.5h-75c-1.2,0-2.2-1-2.2-2.2V4.9c0-1.2,1-2.2,2.2-2.2h75c1.2,0,2.2,1,2.2,2.2v105.4
				C193.6,111.5,192.6,112.5,191.4,112.5z M116.5,2.8c-1.2,0-2.1,1-2.1,2.1v105.4c0,1.2,1,2.1,2.1,2.1h75c1.2,0,2.1-1,2.1-2.1V4.9
				c0-1.2-1-2.1-2.1-2.1H116.5z"/>
		</g>
		<g>
			<g>
				<rect x="41.4" y="22.6" class="st5" width="99.4" height="82.1"/>
				<rect x="43" y="24.3" class="st6" width="97.8" height="78.6"/>
				<g>
					<polygon class="st7" points="43.7,80.6 43.7,52.8 46.6,52.8 46.6,49.1 53.1,46.1 53.1,42.3 54.2,42.3 54.2,52.8 55.2,52.8 
						55.2,80.6 56.7,80.6 56.7,66.2 59.9,66.2 59.9,58.6 61,58.6 61,80.6 63.5,80.6 63.5,72.3 65.3,72.3 65.3,70.1 69.3,70.1 
						69.3,62.6 71.5,62.6 71.5,57.5 74,57.5 74,49.9 75.1,49.9 75.1,57.5 77.6,57.5 77.6,62.6 79.8,62.6 79.8,70.1 83.7,70.1 
						83.7,72.3 85.5,72.3 85.5,80.6 87.7,80.6 87.7,70.1 91.7,70.1 91.7,47 92.8,47 92.8,44.5 101.4,44.5 101.4,47 103.2,47 
						103.2,63.6 110.4,63.6 110.4,65.4 113,65.4 113,66.5 110.4,66.5 110.4,73 118,73 118,51.4 119.5,51.4 119.5,47 123.1,47 
						123.1,30.4 124.2,30.4 124.2,47 126.7,47 126.7,51.4 140.7,51.4 140.7,103 43,103 43,80.6 					"/>
					<g>
						<rect x="132.2" y="52.5" class="st5" width="1" height="1"/>
						<rect x="132.2" y="54.2" class="st5" width="1" height="1"/>
						<rect x="132.2" y="61.1" class="st5" width="1" height="1"/>
						<rect x="132.2" y="62.8" class="st5" width="1" height="1"/>
						<rect x="132.2" y="64.5" class="st5" width="1" height="1"/>
						<rect x="132.2" y="69.6" class="st5" width="1" height="1"/>
						<rect x="132.2" y="71.4" class="st5" width="1" height="1"/>
						<rect x="130.6" y="59.4" class="st5" width="1" height="1"/>
						<rect x="130.6" y="61.1" class="st5" width="1" height="1"/>
						<rect x="130.6" y="62.8" class="st5" width="1" height="1"/>
						<rect x="130.6" y="64.5" class="st5" width="1" height="1"/>
						<rect x="130.6" y="66.2" class="st5" width="1" height="1"/>
						<rect x="130.6" y="69.6" class="st5" width="1" height="1"/>
						<rect x="130.6" y="71.4" class="st5" width="1" height="1"/>
						<rect x="129" y="52.5" class="st5" width="1" height="1"/>
						<rect x="129" y="54.2" class="st5" width="1" height="1"/>
						<rect x="129" y="55.9" class="st5" width="1" height="1"/>
						<rect x="129" y="57.6" class="st5" width="1" height="1"/>
						<rect x="129" y="59.4" class="st5" width="1" height="1"/>
						<rect x="129" y="61.1" class="st5" width="1" height="1"/>
						<rect x="129" y="62.8" class="st5" width="1" height="1"/>
						<rect x="129" y="64.5" class="st5" width="1" height="1"/>
						<rect x="129" y="66.2" class="st5" width="1" height="1"/>
						<rect x="129" y="67.9" class="st5" width="1" height="1"/>
						<rect x="129" y="71.4" class="st5" width="1" height="1"/>
						<rect x="127.3" y="52.5" class="st5" width="1" height="1"/>
						<rect x="127.3" y="54.2" class="st5" width="1" height="1"/>
						<rect x="127.3" y="55.9" class="st5" width="1" height="1"/>
						<rect x="127.3" y="57.6" class="st5" width="1" height="1"/>
						<rect x="127.3" y="59.4" class="st5" width="1" height="1"/>
						<rect x="127.3" y="61.1" class="st5" width="1" height="1"/>
						<rect x="127.3" y="62.8" class="st5" width="1" height="1"/>
						<rect x="127.3" y="78.2" class="st5" width="1" height="1"/>
						<rect x="125.7" y="52.5" class="st5" width="1" height="1"/>
						<rect x="125.7" y="54.2" class="st5" width="1" height="1"/>
						<rect x="125.7" y="55.9" class="st5" width="1" height="1"/>
						<rect x="125.7" y="57.6" class="st5" width="1" height="1"/>
						<rect x="125.7" y="59.4" class="st5" width="1" height="1"/>
						<rect x="125.7" y="61.1" class="st5" width="1" height="1"/>
						<rect x="125.7" y="62.8" class="st5" width="1" height="1"/>
						<rect x="125.7" y="64.5" class="st5" width="1" height="1"/>
						<rect x="125.7" y="74.8" class="st5" width="1" height="1"/>
						<rect x="125.7" y="76.5" class="st5" width="1" height="1"/>
						<rect x="125.7" y="78.2" class="st5" width="1" height="1"/>
						<rect x="125.7" y="79.9" class="st5" width="1" height="1"/>
						<rect x="125.7" y="86.8" class="st5" width="1" height="1"/>
						<rect x="124.1" y="52.5" class="st5" width="1" height="1"/>
						<rect x="124.1" y="54.2" class="st5" width="1" height="1"/>
						<rect x="124.1" y="55.9" class="st5" width="1" height="1"/>
						<rect x="124.1" y="57.6" class="st5" width="1" height="1"/>
						<rect x="124.1" y="59.4" class="st5" width="1" height="1"/>
						<rect x="124.1" y="61.1" class="st5" width="1" height="1"/>
						<rect x="124.1" y="62.8" class="st5" width="1" height="1"/>
						<rect x="124.1" y="64.5" class="st5" width="1" height="1"/>
						<rect x="124.1" y="66.2" class="st5" width="1" height="1"/>
						<rect x="124.1" y="67.9" class="st5" width="1" height="1"/>
						<rect x="124.1" y="73.1" class="st5" width="1" height="1"/>
						<rect x="124.1" y="74.8" class="st5" width="1" height="1"/>
						<rect x="124.1" y="76.5" class="st5" width="1" height="1"/>
						<rect x="124.1" y="78.2" class="st5" width="1" height="1"/>
						<rect x="124.1" y="79.9" class="st5" width="1" height="1"/>
						<rect x="124.1" y="86.8" class="st5" width="1" height="1"/>
						<rect x="122.5" y="52.5" class="st5" width="1" height="1"/>
						<rect x="122.5" y="54.2" class="st5" width="1" height="1"/>
						<rect x="122.5" y="55.9" class="st5" width="1" height="1"/>
						<rect x="122.5" y="57.6" class="st5" width="1" height="1"/>
						<rect x="122.5" y="59.4" class="st5" width="1" height="1"/>
						<rect x="122.5" y="61.1" class="st5" width="1" height="1"/>
						<rect x="122.5" y="62.8" class="st5" width="1" height="1"/>
						<rect x="122.5" y="64.5" class="st5" width="1" height="1"/>
						<rect x="122.5" y="66.2" class="st5" width="1" height="1"/>
						<rect x="122.5" y="67.9" class="st5" width="1" height="1"/>
						<rect x="122.5" y="69.6" class="st5" width="1" height="1"/>
						<rect x="122.5" y="71.4" class="st5" width="1" height="1"/>
						<rect x="122.5" y="73.1" class="st5" width="1" height="1"/>
						<rect x="122.5" y="74.8" class="st5" width="1" height="1"/>
						<rect x="122.5" y="76.5" class="st5" width="1" height="1"/>
						<rect x="122.5" y="78.2" class="st5" width="1" height="1"/>
						<rect x="122.5" y="79.9" class="st5" width="1" height="1"/>
						<rect x="122.5" y="81.6" class="st5" width="1" height="1"/>
						<rect x="120.8" y="52.5" class="st5" width="1" height="1"/>
						<rect x="120.8" y="54.2" class="st5" width="1" height="1"/>
						<rect x="120.8" y="55.9" class="st5" width="1" height="1"/>
						<rect x="120.8" y="57.6" class="st5" width="1" height="1"/>
						<rect x="120.8" y="59.4" class="st5" width="1" height="1"/>
						<rect x="120.8" y="61.1" class="st5" width="1" height="1"/>
						<rect x="120.8" y="62.8" class="st5" width="1" height="1"/>
						<rect x="120.8" y="64.5" class="st5" width="1" height="1"/>
						<rect x="120.8" y="66.2" class="st5" width="1" height="1"/>
						<rect x="120.8" y="67.9" class="st5" width="1" height="1"/>
						<rect x="120.8" y="73.1" class="st5" width="1" height="1"/>
						<rect x="120.8" y="74.8" class="st5" width="1" height="1"/>
						<rect x="120.8" y="76.5" class="st5" width="1" height="1"/>
						<rect x="120.8" y="78.2" class="st5" width="1" height="1"/>
						<rect x="119.2" y="52.5" class="st5" width="1" height="1"/>
						<rect x="119.2" y="54.2" class="st5" width="1" height="1"/>
						<rect x="119.2" y="55.9" class="st5" width="1" height="1"/>
						<rect x="119.2" y="57.6" class="st5" width="1" height="1"/>
						<rect x="119.2" y="59.4" class="st5" width="1" height="1"/>
						<rect x="119.2" y="61.1" class="st5" width="1" height="1"/>
						<rect x="119.2" y="62.8" class="st5" width="1" height="1"/>
						<rect x="119.2" y="64.5" class="st5" width="1" height="1"/>
						<rect x="119.2" y="66.2" class="st5" width="1" height="1"/>
						<rect x="119.2" y="67.9" class="st5" width="1" height="1"/>
						<rect x="119.2" y="73.1" class="st5" width="1" height="1"/>
						<rect x="119.2" y="74.8" class="st5" width="1" height="1"/>
						<rect x="119.2" y="76.5" class="st5" width="1" height="1"/>
						<rect x="100.9" y="48" class="st5" width="1" height="1"/>
						<rect x="100.9" y="49.8" class="st5" width="1" height="1"/>
						<rect x="100.9" y="51.5" class="st5" width="1" height="1"/>
						<rect x="100.9" y="53.2" class="st5" width="1" height="1"/>
						<rect x="100.9" y="54.9" class="st5" width="1" height="1"/>
						<rect x="100.9" y="56.6" class="st5" width="1" height="1"/>
						<rect x="100.9" y="58.3" class="st5" width="1" height="1"/>
						<rect x="100.9" y="60.1" class="st5" width="1" height="1"/>
						<rect x="100.9" y="65.2" class="st5" width="1" height="1"/>
						<rect x="100.9" y="66.9" class="st5" width="1" height="1"/>
						<rect x="99.3" y="48" class="st5" width="1" height="1"/>
						<rect x="99.3" y="49.8" class="st5" width="1" height="1"/>
						<rect x="99.3" y="51.5" class="st5" width="1" height="1"/>
						<rect x="99.3" y="53.2" class="st5" width="1" height="1"/>
						<rect x="99.3" y="54.9" class="st5" width="1" height="1"/>
						<rect x="99.3" y="56.6" class="st5" width="1" height="1"/>
						<rect x="99.3" y="58.3" class="st5" width="1" height="1"/>
						<rect x="99.3" y="60.1" class="st5" width="1" height="1"/>
						<rect x="99.3" y="66.9" class="st5" width="1" height="1"/>
						<rect x="97.7" y="48" class="st5" width="1" height="1"/>
						<rect x="97.7" y="49.8" class="st5" width="1" height="1"/>
						<rect x="97.7" y="51.5" class="st5" width="1" height="1"/>
						<rect x="97.7" y="53.2" class="st5" width="1" height="1"/>
						<rect x="97.7" y="54.9" class="st5" width="1" height="1"/>
						<rect x="97.7" y="56.6" class="st5" width="1" height="1"/>
						<rect x="97.7" y="58.3" class="st5" width="1" height="1"/>
						<rect x="97.7" y="60.1" class="st5" width="1" height="1"/>
						<rect x="96.1" y="48" class="st5" width="1" height="1"/>
						<rect x="96.1" y="49.8" class="st5" width="1" height="1"/>
						<rect x="96.1" y="51.5" class="st5" width="1" height="1"/>
						<rect x="96.1" y="53.2" class="st5" width="1" height="1"/>
						<rect x="96.1" y="54.9" class="st5" width="1" height="1"/>
						<rect x="96.1" y="56.6" class="st5" width="1" height="1"/>
						<rect x="96.1" y="60.1" class="st5" width="1" height="1"/>
						<rect x="96.1" y="61.8" class="st5" width="1" height="1"/>
						<rect x="96.1" y="66.9" class="st5" width="1" height="1"/>
						<rect x="96.1" y="68.6" class="st5" width="1" height="1"/>
						<rect x="96.1" y="70.3" class="st5" width="1" height="1"/>
						<rect x="96.1" y="72" class="st5" width="1" height="1"/>
						<rect x="96.1" y="73.8" class="st5" width="1" height="1"/>
						<rect x="96.1" y="75.5" class="st5" width="1" height="1"/>
						<rect x="96.1" y="77.2" class="st5" width="1" height="1"/>
						<rect x="94.4" y="48" class="st5" width="1" height="1"/>
						<rect x="94.4" y="49.8" class="st5" width="1" height="1"/>
						<rect x="94.4" y="51.5" class="st5" width="1" height="1"/>
						<rect x="94.4" y="53.2" class="st5" width="1" height="1"/>
						<rect x="94.4" y="54.9" class="st5" width="1" height="1"/>
						<rect x="94.4" y="56.6" class="st5" width="1" height="1"/>
						<rect x="94.4" y="61.8" class="st5" width="1" height="1"/>
						<rect x="94.4" y="63.5" class="st5" width="1" height="1"/>
						<rect x="94.4" y="65.2" class="st5" width="1" height="1"/>
						<rect x="94.4" y="66.9" class="st5" width="1" height="1"/>
						<rect x="94.4" y="68.6" class="st5" width="1" height="1"/>
						<rect x="94.4" y="70.3" class="st5" width="1" height="1"/>
						<rect x="94.4" y="72" class="st5" width="1" height="1"/>
						<rect x="94.4" y="73.8" class="st5" width="1" height="1"/>
						<rect x="94.4" y="75.5" class="st5" width="1" height="1"/>
						<rect x="94.4" y="77.2" class="st5" width="1" height="1"/>
						<rect x="94.4" y="78.9" class="st5" width="1" height="1"/>
						<rect x="94.4" y="82.3" class="st5" width="1" height="1"/>
						<rect x="92.8" y="48" class="st5" width="1" height="1"/>
						<rect x="92.8" y="49.8" class="st5" width="1" height="1"/>
						<rect x="92.8" y="51.5" class="st5" width="1" height="1"/>
						<rect x="92.8" y="53.2" class="st5" width="1" height="1"/>
						<rect x="92.8" y="54.9" class="st5" width="1" height="1"/>
						<rect x="92.8" y="56.6" class="st5" width="1" height="1"/>
						<rect x="92.8" y="61.8" class="st5" width="1" height="1"/>
						<rect x="92.8" y="63.5" class="st5" width="1" height="1"/>
						<rect x="92.8" y="65.2" class="st5" width="1" height="1"/>
						<rect x="92.8" y="66.9" class="st5" width="1" height="1"/>
						<rect x="92.8" y="72" class="st5" width="1" height="1"/>
						<rect x="92.8" y="73.8" class="st5" width="1" height="1"/>
						<rect x="92.8" y="75.5" class="st5" width="1" height="1"/>
						<rect x="92.8" y="77.2" class="st5" width="1" height="1"/>
						<rect x="92.8" y="78.9" class="st5" width="1" height="1"/>
						<rect x="92.8" y="82.3" class="st5" width="1" height="1"/>
						<rect x="92.8" y="84" class="st5" width="1" height="1"/>
						<rect x="78.1" y="64" class="st5" width="1" height="1"/>
						<rect x="78.1" y="65.7" class="st5" width="1" height="1"/>
						<rect x="78.1" y="67.4" class="st5" width="1" height="1"/>
						<rect x="78.1" y="69.1" class="st5" width="1" height="1"/>
						<rect x="78.1" y="70.8" class="st5" width="1" height="1"/>
						<rect x="78.1" y="72.6" class="st5" width="1" height="1"/>
						<rect x="78.1" y="74.3" class="st5" width="1" height="1"/>
						<rect x="78.1" y="79.4" class="st5" width="1" height="1"/>
						<rect x="78.1" y="81.1" class="st5" width="1" height="1"/>
						<rect x="78.1" y="82.8" class="st5" width="1" height="1"/>
						<rect x="76.5" y="64" class="st5" width="1" height="1"/>
						<rect x="76.5" y="65.7" class="st5" width="1" height="1"/>
						<rect x="76.5" y="67.4" class="st5" width="1" height="1"/>
						<rect x="76.5" y="69.1" class="st5" width="1" height="1"/>
						<rect x="76.5" y="70.8" class="st5" width="1" height="1"/>
						<rect x="76.5" y="72.6" class="st5" width="1" height="1"/>
						<rect x="76.5" y="74.3" class="st5" width="1" height="1"/>
						<rect x="74.8" y="64" class="st5" width="1" height="1"/>
						<rect x="74.8" y="65.7" class="st5" width="1" height="1"/>
						<rect x="74.8" y="67.4" class="st5" width="1" height="1"/>
						<rect x="74.8" y="69.1" class="st5" width="1" height="1"/>
						<rect x="74.8" y="70.8" class="st5" width="1" height="1"/>
						<rect x="74.8" y="72.6" class="st5" width="1" height="1"/>
						<rect x="74.8" y="74.3" class="st5" width="1" height="1"/>
						<rect x="73.2" y="64" class="st5" width="1" height="1"/>
						<rect x="73.2" y="65.7" class="st5" width="1" height="1"/>
						<rect x="73.2" y="67.4" class="st5" width="1" height="1"/>
						<rect x="73.2" y="69.1" class="st5" width="1" height="1"/>
						<rect x="73.2" y="70.8" class="st5" width="1" height="1"/>
						<rect x="73.2" y="72.6" class="st5" width="1" height="1"/>
						<rect x="73.2" y="74.3" class="st5" width="1" height="1"/>
						<rect x="73.2" y="76" class="st5" width="1" height="1"/>
						<rect x="73.2" y="77.7" class="st5" width="1" height="1"/>
						<rect x="73.2" y="79.4" class="st5" width="1" height="1"/>
						<rect x="73.2" y="81.1" class="st5" width="1" height="1"/>
						<rect x="71.6" y="64" class="st5" width="1" height="1"/>
						<rect x="71.6" y="65.7" class="st5" width="1" height="1"/>
						<rect x="71.6" y="67.4" class="st5" width="1" height="1"/>
						<rect x="71.6" y="69.1" class="st5" width="1" height="1"/>
						<rect x="71.6" y="70.8" class="st5" width="1" height="1"/>
						<rect x="71.6" y="72.6" class="st5" width="1" height="1"/>
						<rect x="71.6" y="74.3" class="st5" width="1" height="1"/>
						<rect x="71.6" y="76" class="st5" width="1" height="1"/>
						<rect x="71.6" y="77.7" class="st5" width="1" height="1"/>
						<rect x="71.6" y="79.4" class="st5" width="1" height="1"/>
						<rect x="71.6" y="81.1" class="st5" width="1" height="1"/>
						<rect x="71.6" y="82.8" class="st5" width="1" height="1"/>
						<rect x="71.6" y="88" class="st5" width="1" height="1"/>
						<rect x="71.6" y="89.7" class="st5" width="1" height="1"/>
						<rect x="70" y="64" class="st5" width="1" height="1"/>
						<rect x="70" y="65.7" class="st5" width="1" height="1"/>
						<rect x="70" y="67.4" class="st5" width="1" height="1"/>
						<rect x="70" y="72.6" class="st5" width="1" height="1"/>
						<rect x="70" y="74.3" class="st5" width="1" height="1"/>
						<rect x="70" y="76" class="st5" width="1" height="1"/>
						<rect x="70" y="77.7" class="st5" width="1" height="1"/>
						<rect x="70" y="79.4" class="st5" width="1" height="1"/>
						<rect x="70" y="81.1" class="st5" width="1" height="1"/>
						<rect x="70" y="82.8" class="st5" width="1" height="1"/>
						<rect x="70" y="88" class="st5" width="1" height="1"/>
						<rect x="70" y="89.7" class="st5" width="1" height="1"/>
						<rect x="70" y="91.4" class="st5" width="1" height="1"/>
						<rect x="52.9" y="53.7" class="st5" width="1" height="1"/>
						<rect x="52.9" y="55.4" class="st5" width="1" height="1"/>
						<rect x="52.9" y="57.1" class="st5" width="1" height="1"/>
						<rect x="52.9" y="58.8" class="st5" width="1" height="1"/>
						<rect x="52.9" y="60.6" class="st5" width="1" height="1"/>
						<rect x="52.9" y="62.3" class="st5" width="1" height="1"/>
						<rect x="52.9" y="64" class="st5" width="1" height="1"/>
						<rect x="52.9" y="65.7" class="st5" width="1" height="1"/>
						<rect x="52.9" y="67.4" class="st5" width="1" height="1"/>
						<rect x="52.9" y="69.1" class="st5" width="1" height="1"/>
						<rect x="52.9" y="70.8" class="st5" width="1" height="1"/>
						<rect x="52.9" y="72.6" class="st5" width="1" height="1"/>
						<rect x="52.9" y="74.3" class="st5" width="1" height="1"/>
						<rect x="52.9" y="76" class="st5" width="1" height="1"/>
						<rect x="52.9" y="77.7" class="st5" width="1" height="1"/>
						<rect x="52.9" y="79.4" class="st5" width="1" height="1"/>
						<rect x="52.9" y="81.1" class="st5" width="1" height="1"/>
						<rect x="52.9" y="82.8" class="st5" width="1" height="1"/>
						<rect x="52.9" y="84.6" class="st5" width="1" height="1"/>
						<rect x="52.9" y="86.3" class="st5" width="1" height="1"/>
						<rect x="52.9" y="88" class="st5" width="1" height="1"/>
						<rect x="52.9" y="89.7" class="st5" width="1" height="1"/>
						<rect x="52.9" y="91.4" class="st5" width="1" height="1"/>
						<rect x="51.3" y="53.7" class="st5" width="1" height="1"/>
						<rect x="51.3" y="55.4" class="st5" width="1" height="1"/>
						<rect x="51.3" y="57.1" class="st5" width="1" height="1"/>
						<rect x="51.3" y="58.8" class="st5" width="1" height="1"/>
						<rect x="51.3" y="60.6" class="st5" width="1" height="1"/>
						<rect x="51.3" y="62.3" class="st5" width="1" height="1"/>
						<rect x="51.3" y="64" class="st5" width="1" height="1"/>
						<rect x="51.3" y="65.7" class="st5" width="1" height="1"/>
						<rect x="51.3" y="67.4" class="st5" width="1" height="1"/>
						<rect x="51.3" y="69.1" class="st5" width="1" height="1"/>
						<rect x="51.3" y="70.8" class="st5" width="1" height="1"/>
						<rect x="51.3" y="72.6" class="st5" width="1" height="1"/>
						<rect x="51.3" y="74.3" class="st5" width="1" height="1"/>
						<rect x="51.3" y="76" class="st5" width="1" height="1"/>
						<rect x="51.3" y="77.7" class="st5" width="1" height="1"/>
						<rect x="51.3" y="79.4" class="st5" width="1" height="1"/>
						<rect x="51.3" y="81.1" class="st5" width="1" height="1"/>
						<rect x="51.3" y="82.8" class="st5" width="1" height="1"/>
						<rect x="51.3" y="84.6" class="st5" width="1" height="1"/>
						<rect x="49.7" y="53.7" class="st5" width="1" height="1"/>
						<rect x="49.7" y="55.4" class="st5" width="1" height="1"/>
						<rect x="49.7" y="57.1" class="st5" width="1" height="1"/>
						<rect x="49.7" y="58.8" class="st5" width="1" height="1"/>
						<rect x="49.7" y="60.6" class="st5" width="1" height="1"/>
						<rect x="49.7" y="62.3" class="st5" width="1" height="1"/>
						<rect x="49.7" y="64" class="st5" width="1" height="1"/>
						<rect x="49.7" y="65.7" class="st5" width="1" height="1"/>
						<rect x="49.7" y="67.4" class="st5" width="1" height="1"/>
						<rect x="49.7" y="69.1" class="st5" width="1" height="1"/>
						<rect x="49.7" y="70.8" class="st5" width="1" height="1"/>
						<rect x="49.7" y="72.6" class="st5" width="1" height="1"/>
						<rect x="49.7" y="74.3" class="st5" width="1" height="1"/>
						<rect x="49.7" y="76" class="st5" width="1" height="1"/>
						<rect x="49.7" y="77.7" class="st5" width="1" height="1"/>
						<rect x="49.7" y="79.4" class="st5" width="1" height="1"/>
						<rect x="49.7" y="81.1" class="st5" width="1" height="1"/>
						<rect x="49.7" y="82.8" class="st5" width="1" height="1"/>
						<rect x="49.7" y="84.6" class="st5" width="1" height="1"/>
						<rect x="48.1" y="53.7" class="st5" width="1" height="1"/>
						<rect x="48.1" y="55.4" class="st5" width="1" height="1"/>
						<rect x="48.1" y="57.1" class="st5" width="1" height="1"/>
						<rect x="48.1" y="58.8" class="st5" width="1" height="1"/>
						<rect x="48.1" y="60.6" class="st5" width="1" height="1"/>
						<rect x="48.1" y="62.3" class="st5" width="1" height="1"/>
						<rect x="48.1" y="64" class="st5" width="1" height="1"/>
						<rect x="48.1" y="65.7" class="st5" width="1" height="1"/>
						<rect x="48.1" y="67.4" class="st5" width="1" height="1"/>
						<rect x="48.1" y="69.1" class="st5" width="1" height="1"/>
						<rect x="48.1" y="70.8" class="st5" width="1" height="1"/>
						<rect x="48.1" y="72.6" class="st5" width="1" height="1"/>
						<rect x="48.1" y="74.3" class="st5" width="1" height="1"/>
						<rect x="48.1" y="76" class="st5" width="1" height="1"/>
						<rect x="48.1" y="77.7" class="st5" width="1" height="1"/>
						<rect x="46.4" y="53.7" class="st5" width="1" height="1"/>
						<rect x="46.4" y="55.4" class="st5" width="1" height="1"/>
						<rect x="46.4" y="57.1" class="st5" width="1" height="1"/>
						<rect x="46.4" y="58.8" class="st5" width="1" height="1"/>
						<rect x="46.4" y="60.6" class="st5" width="1" height="1"/>
						<rect x="46.4" y="62.3" class="st5" width="1" height="1"/>
						<rect x="46.4" y="64" class="st5" width="1" height="1"/>
						<rect x="46.4" y="65.7" class="st5" width="1" height="1"/>
						<rect x="46.4" y="67.4" class="st5" width="1" height="1"/>
						<rect x="46.4" y="69.1" class="st5" width="1" height="1"/>
						<rect x="46.4" y="70.8" class="st5" width="1" height="1"/>
						<rect x="46.4" y="72.6" class="st5" width="1" height="1"/>
						<rect x="46.4" y="74.3" class="st5" width="1" height="1"/>
						<rect x="44.8" y="53.7" class="st5" width="1" height="1"/>
						<rect x="44.8" y="55.4" class="st5" width="1" height="1"/>
						<rect x="44.8" y="57.1" class="st5" width="1" height="1"/>
						<rect x="44.8" y="58.8" class="st5" width="1" height="1"/>
						<rect x="44.8" y="60.6" class="st5" width="1" height="1"/>
						<rect x="44.8" y="62.3" class="st5" width="1" height="1"/>
						<rect x="44.8" y="64" class="st5" width="1" height="1"/>
						<rect x="44.8" y="65.7" class="st5" width="1" height="1"/>
						<rect x="44.8" y="67.4" class="st5" width="1" height="1"/>
						<rect x="44.8" y="69.1" class="st5" width="1" height="1"/>
						<rect x="44.8" y="70.8" class="st5" width="1" height="1"/>
						<rect x="44.8" y="72.6" class="st5" width="1" height="1"/>
						<rect x="139.6" y="53.2" class="st5" width="1" height="1"/>
						<rect x="139.6" y="54.9" class="st5" width="1" height="1"/>
						<rect x="139.6" y="56.6" class="st5" width="1" height="1"/>
						<rect x="139.6" y="58.3" class="st5" width="1" height="1"/>
						<rect x="139.6" y="60.1" class="st5" width="1" height="1"/>
						<rect x="139.6" y="61.8" class="st5" width="1" height="1"/>
						<rect x="139.6" y="63.5" class="st5" width="1" height="1"/>
						<rect x="139.6" y="65.2" class="st5" width="1" height="1"/>
						<rect x="139.6" y="66.9" class="st5" width="1" height="1"/>
						<rect x="139.6" y="68.6" class="st5" width="1" height="1"/>
						<rect x="139.6" y="70.3" class="st5" width="1" height="1"/>
						<rect x="139.6" y="72" class="st5" width="1" height="1"/>
						<rect x="139.6" y="73.8" class="st5" width="1" height="1"/>
						<rect x="139.6" y="75.5" class="st5" width="1" height="1"/>
						<rect x="139.6" y="77.2" class="st5" width="1" height="1"/>
						<rect x="139.6" y="78.9" class="st5" width="1" height="1"/>
						<rect x="139.6" y="80.6" class="st5" width="1" height="1"/>
						<rect x="139.6" y="84" class="st5" width="1" height="1"/>
						<rect x="139.6" y="85.8" class="st5" width="1" height="1"/>
						<rect x="139.6" y="87.5" class="st5" width="1" height="1"/>
						<rect x="139.6" y="89.2" class="st5" width="1" height="1"/>
						<rect x="139.6" y="90.9" class="st5" width="1" height="1"/>
						<rect x="138" y="53.2" class="st5" width="1" height="1"/>
						<rect x="138" y="54.9" class="st5" width="1" height="1"/>
						<rect x="138" y="56.6" class="st5" width="1" height="1"/>
						<rect x="138" y="58.3" class="st5" width="1" height="1"/>
						<rect x="138" y="60.1" class="st5" width="1" height="1"/>
						<rect x="138" y="61.8" class="st5" width="1" height="1"/>
						<rect x="138" y="63.5" class="st5" width="1" height="1"/>
						<rect x="138" y="65.2" class="st5" width="1" height="1"/>
						<rect x="138" y="66.9" class="st5" width="1" height="1"/>
						<rect x="138" y="68.6" class="st5" width="1" height="1"/>
						<rect x="138" y="70.3" class="st5" width="1" height="1"/>
						<rect x="138" y="72" class="st5" width="1" height="1"/>
						<rect x="138" y="73.8" class="st5" width="1" height="1"/>
						<rect x="138" y="75.5" class="st5" width="1" height="1"/>
						<rect x="138" y="77.2" class="st5" width="1" height="1"/>
						<rect x="138" y="78.9" class="st5" width="1" height="1"/>
						<rect x="138" y="89.2" class="st5" width="1" height="1"/>
						<rect x="138" y="90.9" class="st5" width="1" height="1"/>
						<rect x="136.4" y="53.2" class="st5" width="1" height="1"/>
						<rect x="136.4" y="54.9" class="st5" width="1" height="1"/>
						<rect x="136.4" y="56.6" class="st5" width="1" height="1"/>
						<rect x="136.4" y="58.3" class="st5" width="1" height="1"/>
						<rect x="136.4" y="60.1" class="st5" width="1" height="1"/>
						<rect x="136.4" y="61.8" class="st5" width="1" height="1"/>
						<rect x="136.4" y="63.5" class="st5" width="1" height="1"/>
						<rect x="136.4" y="65.2" class="st5" width="1" height="1"/>
						<rect x="136.4" y="66.9" class="st5" width="1" height="1"/>
						<rect x="136.4" y="68.6" class="st5" width="1" height="1"/>
						<rect x="136.4" y="70.3" class="st5" width="1" height="1"/>
						<rect x="136.4" y="72" class="st5" width="1" height="1"/>
						<rect x="136.4" y="73.8" class="st5" width="1" height="1"/>
						<rect x="136.4" y="75.5" class="st5" width="1" height="1"/>
						<rect x="136.4" y="77.2" class="st5" width="1" height="1"/>
						<rect x="136.4" y="78.9" class="st5" width="1" height="1"/>
						<rect x="136.4" y="82.3" class="st5" width="1" height="1"/>
						<rect x="136.4" y="84" class="st5" width="1" height="1"/>
						<rect x="136.4" y="85.8" class="st5" width="1" height="1"/>
						<rect x="136.4" y="87.5" class="st5" width="1" height="1"/>
						<rect x="136.4" y="90.9" class="st5" width="1" height="1"/>
						<rect x="108" y="65.2" class="st5" width="1" height="1"/>
						<rect x="108" y="66.9" class="st5" width="1" height="1"/>
						<rect x="108" y="68.6" class="st5" width="1" height="1"/>
						<rect x="108" y="70.3" class="st5" width="1" height="1"/>
						<rect x="108" y="72" class="st5" width="1" height="1"/>
						<rect x="108" y="73.8" class="st5" width="1" height="1"/>
						<rect x="108" y="75.5" class="st5" width="1" height="1"/>
						<rect x="108" y="77.2" class="st5" width="1" height="1"/>
						<rect x="108" y="78.9" class="st5" width="1" height="1"/>
						<rect x="108" y="80.6" class="st5" width="1" height="1"/>
						<rect x="108" y="82.3" class="st5" width="1" height="1"/>
						<rect x="108" y="84" class="st5" width="1" height="1"/>
						<rect x="108" y="85.8" class="st5" width="1" height="1"/>
						<rect x="108" y="89.2" class="st5" width="1" height="1"/>
						<rect x="108" y="90.9" class="st5" width="1" height="1"/>
						<rect x="108" y="92.6" class="st5" width="1" height="1"/>
						<rect x="108" y="94.3" class="st5" width="1" height="1"/>
						<rect x="108" y="97.8" class="st5" width="1" height="1"/>
						<rect x="108" y="99.5" class="st5" width="1" height="1"/>
						<rect x="108" y="101.2" class="st5" width="1" height="1"/>
						<rect x="106.4" y="65.2" class="st5" width="1" height="1"/>
						<rect x="106.4" y="66.9" class="st5" width="1" height="1"/>
						<rect x="106.4" y="68.6" class="st5" width="1" height="1"/>
						<rect x="106.4" y="70.3" class="st5" width="1" height="1"/>
						<rect x="106.4" y="72" class="st5" width="1" height="1"/>
						<rect x="106.4" y="73.8" class="st5" width="1" height="1"/>
						<rect x="106.4" y="75.5" class="st5" width="1" height="1"/>
						<rect x="106.4" y="77.2" class="st5" width="1" height="1"/>
						<rect x="106.4" y="78.9" class="st5" width="1" height="1"/>
						<rect x="106.4" y="80.6" class="st5" width="1" height="1"/>
						<rect x="106.4" y="82.3" class="st5" width="1" height="1"/>
						<rect x="106.4" y="84" class="st5" width="1" height="1"/>
						<rect x="106.4" y="85.8" class="st5" width="1" height="1"/>
						<rect x="106.4" y="90.9" class="st5" width="1" height="1"/>
						<rect x="106.4" y="92.6" class="st5" width="1" height="1"/>
						<rect x="106.4" y="96" class="st5" width="1" height="1"/>
						<rect x="106.4" y="97.8" class="st5" width="1" height="1"/>
						<rect x="106.4" y="99.5" class="st5" width="1" height="1"/>
						<rect x="106.4" y="101.2" class="st5" width="1" height="1"/>
						<rect x="104.8" y="65.2" class="st5" width="1" height="1"/>
						<rect x="104.8" y="66.9" class="st5" width="1" height="1"/>
						<rect x="104.8" y="68.6" class="st5" width="1" height="1"/>
						<rect x="104.8" y="70.3" class="st5" width="1" height="1"/>
						<rect x="104.8" y="72" class="st5" width="1" height="1"/>
						<rect x="104.8" y="73.8" class="st5" width="1" height="1"/>
						<rect x="104.8" y="75.5" class="st5" width="1" height="1"/>
						<rect x="104.8" y="77.2" class="st5" width="1" height="1"/>
						<rect x="104.8" y="78.9" class="st5" width="1" height="1"/>
						<rect x="104.8" y="80.6" class="st5" width="1" height="1"/>
						<rect x="104.8" y="82.3" class="st5" width="1" height="1"/>
						<rect x="104.8" y="84" class="st5" width="1" height="1"/>
						<rect x="104.8" y="85.8" class="st5" width="1" height="1"/>
						<rect x="104.8" y="87.5" class="st5" width="1" height="1"/>
						<rect x="104.8" y="90.9" class="st5" width="1" height="1"/>
						<rect x="104.8" y="94.3" class="st5" width="1" height="1"/>
						<rect x="104.8" y="96" class="st5" width="1" height="1"/>
						<rect x="104.8" y="97.8" class="st5" width="1" height="1"/>
						<rect x="104.8" y="99.5" class="st5" width="1" height="1"/>
						<rect x="104.8" y="101.2" class="st5" width="1" height="1"/>
						<rect x="114.7" y="75" class="st5" width="1" height="1"/>
						<rect x="114.7" y="76.7" class="st5" width="1" height="1"/>
						<rect x="114.7" y="78.4" class="st5" width="1" height="1"/>
						<rect x="114.7" y="80.1" class="st5" width="1" height="1"/>
						<rect x="114.7" y="81.8" class="st5" width="1" height="1"/>
						<rect x="114.7" y="83.5" class="st5" width="1" height="1"/>
						<rect x="114.7" y="88.7" class="st5" width="1" height="1"/>
						<rect x="114.7" y="90.4" class="st5" width="1" height="1"/>
						<rect x="114.7" y="92.1" class="st5" width="1" height="1"/>
						<rect x="114.7" y="93.8" class="st5" width="1" height="1"/>
						<rect x="114.7" y="95.5" class="st5" width="1" height="1"/>
						<rect x="114.7" y="97.2" class="st5" width="1" height="1"/>
						<rect x="114.7" y="99" class="st5" width="1" height="1"/>
						<rect x="113" y="75" class="st5" width="1" height="1"/>
						<rect x="113" y="76.7" class="st5" width="1" height="1"/>
						<rect x="113" y="78.4" class="st5" width="1" height="1"/>
						<rect x="113" y="80.1" class="st5" width="1" height="1"/>
						<rect x="113" y="81.8" class="st5" width="1" height="1"/>
						<rect x="113" y="83.5" class="st5" width="1" height="1"/>
						<rect x="113" y="88.7" class="st5" width="1" height="1"/>
						<rect x="113" y="90.4" class="st5" width="1" height="1"/>
						<rect x="113" y="92.1" class="st5" width="1" height="1"/>
						<rect x="113" y="93.8" class="st5" width="1" height="1"/>
						<rect x="113" y="95.5" class="st5" width="1" height="1"/>
						<rect x="113" y="97.2" class="st5" width="1" height="1"/>
						<rect x="113" y="100.7" class="st5" width="1" height="1"/>
						<rect x="59.1" y="67.4" class="st5" width="1" height="1"/>
						<rect x="59.1" y="69.1" class="st5" width="1" height="1"/>
						<rect x="59.1" y="70.8" class="st5" width="1" height="1"/>
						<rect x="59.1" y="72.6" class="st5" width="1" height="1"/>
						<rect x="59.1" y="74.3" class="st5" width="1" height="1"/>
						<rect x="59.1" y="76" class="st5" width="1" height="1"/>
						<rect x="59.1" y="77.7" class="st5" width="1" height="1"/>
						<rect x="59.1" y="79.4" class="st5" width="1" height="1"/>
						<rect x="59.1" y="81.1" class="st5" width="1" height="1"/>
						<rect x="59.1" y="82.8" class="st5" width="1" height="1"/>
						<rect x="59.1" y="84.6" class="st5" width="1" height="1"/>
						<rect x="59.1" y="88" class="st5" width="1" height="1"/>
						<rect x="59.1" y="89.7" class="st5" width="1" height="1"/>
						<rect x="59.1" y="91.4" class="st5" width="1" height="1"/>
						<rect x="59.1" y="93.1" class="st5" width="1" height="1"/>
						<rect x="59.1" y="94.8" class="st5" width="1" height="1"/>
						<rect x="59.1" y="96.6" class="st5" width="1" height="1"/>
						<rect x="59.1" y="98.3" class="st5" width="1" height="1"/>
						<rect x="59.1" y="100" class="st5" width="1" height="1"/>
						<rect x="57.5" y="67.4" class="st5" width="1" height="1"/>
						<rect x="57.5" y="69.1" class="st5" width="1" height="1"/>
						<rect x="57.5" y="70.8" class="st5" width="1" height="1"/>
						<rect x="57.5" y="72.6" class="st5" width="1" height="1"/>
						<rect x="57.5" y="74.3" class="st5" width="1" height="1"/>
						<rect x="57.5" y="76" class="st5" width="1" height="1"/>
						<rect x="57.5" y="77.7" class="st5" width="1" height="1"/>
						<rect x="57.5" y="79.4" class="st5" width="1" height="1"/>
						<rect x="57.5" y="81.1" class="st5" width="1" height="1"/>
						<rect x="57.5" y="82.8" class="st5" width="1" height="1"/>
						<rect x="57.5" y="84.6" class="st5" width="1" height="1"/>
						<rect x="57.5" y="86.3" class="st5" width="1" height="1"/>
						<rect x="57.5" y="88" class="st5" width="1" height="1"/>
						<rect x="57.5" y="89.7" class="st5" width="1" height="1"/>
						<rect x="57.5" y="91.4" class="st5" width="1" height="1"/>
						<rect x="57.5" y="93.1" class="st5" width="1" height="1"/>
						<rect x="57.5" y="94.8" class="st5" width="1" height="1"/>
						<rect x="57.5" y="96.6" class="st5" width="1" height="1"/>
						<rect x="57.5" y="98.3" class="st5" width="1" height="1"/>
						<rect x="57.5" y="100" class="st5" width="1" height="1"/>
						<rect x="67.1" y="74.1" class="st5" width="1" height="1"/>
						<rect x="67.1" y="75.8" class="st5" width="1" height="1"/>
						<rect x="67.1" y="77.5" class="st5" width="1" height="1"/>
						<rect x="67.1" y="79.2" class="st5" width="1" height="1"/>
						<rect x="67.1" y="80.9" class="st5" width="1" height="1"/>
						<rect x="67.1" y="82.7" class="st5" width="1" height="1"/>
						<rect x="67.1" y="84.4" class="st5" width="1" height="1"/>
						<rect x="67.1" y="86.1" class="st5" width="1" height="1"/>
						<rect x="67.1" y="87.8" class="st5" width="1" height="1"/>
						<rect x="67.1" y="89.5" class="st5" width="1" height="1"/>
						<rect x="65.5" y="74.1" class="st5" width="1" height="1"/>
						<rect x="65.5" y="75.8" class="st5" width="1" height="1"/>
						<rect x="65.5" y="77.5" class="st5" width="1" height="1"/>
						<rect x="65.5" y="79.2" class="st5" width="1" height="1"/>
						<rect x="65.5" y="80.9" class="st5" width="1" height="1"/>
						<rect x="65.5" y="82.7" class="st5" width="1" height="1"/>
						<rect x="65.5" y="84.4" class="st5" width="1" height="1"/>
						<rect x="65.5" y="86.1" class="st5" width="1" height="1"/>
						<rect x="65.5" y="87.8" class="st5" width="1" height="1"/>
					</g>
				</g>
				<g>
					<rect x="74.4" y="22.8" class="st5" width="1.7" height="81.9"/>
					<rect x="106.7" y="22.8" class="st5" width="1.7" height="81.9"/>
					<rect x="139" y="22.8" class="st5" width="1.7" height="81.9"/>
				</g>
			</g>
			<g>
				<g>
					<path class="st7" d="M117.4,96.6h4.9v-0.3c0-0.6-0.7-1.1-1.6-1.1l-1.9,0.1c-0.8,0-1.4,0.5-1.4,1.1V96.6z"/>
					<g>
						<path class="st8" d="M127.1,96.7h6.5l1-9c0-0.3-0.3-0.6-0.6-0.6h-4.3c-0.3,0-0.6,0.3-0.6,0.6L127.1,96.7z"/>
						<path class="st8" d="M117.3,73.8h1.6l1.8,17h-1.6c-0.3,0-0.5-0.2-0.5-0.5l-1.7-16.1C116.8,74,117,73.8,117.3,73.8z"/>
						<path class="st4" d="M119.7,90.9h24.2c0.3,0,0.5-0.2,0.4-0.5l-1.7-16.1c0-0.3-0.3-0.5-0.5-0.5h-24.2c-0.3,0-0.5,0.2-0.4,0.5
							l1.7,16.1C119.2,90.6,119.5,90.9,119.7,90.9z"/>
						<path class="st6" d="M120.2,89.3H143c0.2,0,0.4-0.2,0.4-0.4l-1.5-14c0-0.2-0.2-0.4-0.5-0.4h-22.8c-0.2,0-0.4,0.2-0.4,0.4
							l1.5,14C119.8,89.1,120,89.3,120.2,89.3z"/>
						<path class="st8" d="M126.9,96h8c0.2,0,0.3,0.2,0.3,0.3v0c0,0.2-0.2,0.3-0.3,0.3h-8c-0.2,0-0.3-0.2-0.3-0.3v0
							C126.5,96.2,126.7,96,126.9,96z"/>
					</g>
					<rect x="107.3" y="96.5" class="st8" width="19.7" height="3"/>
					<g>
						<path class="st8" d="M162.1,129.7h0.5c0.1,0,0.1-0.1,0.1-0.1l0.8-30.1h-2.3l0.8,30.1C162,129.6,162.1,129.7,162.1,129.7z"/>
					</g>
					<g>
						<polygon class="st7" points="179.7,129.7 180.8,129.7 177.6,99.5 175.3,99.5 						"/>
					</g>
					<polygon class="st8" points="106.5,129.7 106.5,129.7 110.9,99.5 108.6,99.5 105.4,129.7 					"/>
					<rect x="121.4" y="96.5" class="st5" width="57.5" height="3"/>
					<polygon class="st7" points="123.2,129.7 124.5,129.7 124.5,129.7 124.9,99.5 122.7,99.5 					"/>
					<g>
						<g>
							<path class="st5" d="M141.5,96h0.6c0.1,0,0.1-0.1,0.1-0.1v-0.6c0-0.1-0.1-0.1-0.1-0.1h-0.4c-0.1,0-0.1,0-0.1,0.1l-0.2,0.6
								C141.4,95.9,141.5,96,141.5,96z"/>
							<path class="st5" d="M140.7,96h0.6c0.1,0,0.1-0.1,0.1-0.1v-0.6c0-0.1-0.1-0.1-0.1-0.1h-0.4c-0.1,0-0.1,0-0.1,0.1l-0.2,0.6
								C140.6,95.9,140.6,96,140.7,96z"/>
							<path class="st5" d="M139.9,96h0.6c0.1,0,0.1-0.1,0.1-0.1v-0.6c0-0.1-0.1-0.1-0.1-0.1H140c-0.1,0-0.1,0-0.1,0.1l-0.2,0.6
								C139.7,95.9,139.8,96,139.9,96z"/>
							<path class="st5" d="M139,96h0.6c0.1,0,0.1-0.1,0.1-0.1v-0.6c0-0.1-0.1-0.1-0.1-0.1h-0.4c-0.1,0-0.1,0-0.1,0.1l-0.2,0.6
								C138.9,95.9,139,96,139,96z"/>
							<path class="st5" d="M138.2,96h0.6c0.1,0,0.1-0.1,0.1-0.1v-0.6c0-0.1-0.1-0.1-0.1-0.1h-0.4c-0.1,0-0.1,0-0.1,0.1l-0.2,0.6
								C138.1,95.9,138.1,96,138.2,96z"/>
							<path class="st5" d="M137.4,96h0.6c0.1,0,0.1-0.1,0.1-0.1v-0.6c0-0.1-0.1-0.1-0.1-0.1h-0.4c-0.1,0-0.1,0-0.1,0.1l-0.2,0.6
								C137.2,95.9,137.3,96,137.4,96z"/>
							<path class="st5" d="M136.5,96h0.6c0.1,0,0.1-0.1,0.1-0.1v-0.6c0-0.1-0.1-0.1-0.1-0.1h-0.4c-0.1,0-0.1,0-0.1,0.1l-0.2,0.6
								C136.4,95.9,136.5,96,136.5,96z"/>
							<path class="st5" d="M135.7,96h0.6c0.1,0,0.1-0.1,0.1-0.1v-0.6c0-0.1-0.1-0.1-0.1-0.1h-0.4c-0.1,0-0.1,0-0.1,0.1l-0.2,0.6
								C135.6,95.9,135.6,96,135.7,96z"/>
							<path class="st5" d="M134.9,96h0.6c0.1,0,0.1-0.1,0.1-0.1v-0.6c0-0.1-0.1-0.1-0.1-0.1H135c-0.1,0-0.1,0-0.1,0.1l-0.2,0.6
								C134.7,95.9,134.8,96,134.9,96z"/>
							<path class="st5" d="M134,96h0.6c0.1,0,0.1-0.1,0.1-0.1v-0.6c0-0.1-0.1-0.1-0.1-0.1h-0.4c-0.1,0-0.1,0-0.1,0.1l-0.2,0.6
								C133.9,95.9,134,96,134,96z"/>
							<path class="st5" d="M133.2,96h0.6c0.1,0,0.1-0.1,0.1-0.1v-0.6c0-0.1-0.1-0.1-0.1-0.1h-0.4c-0.1,0-0.1,0-0.1,0.1l-0.2,0.6
								C133.1,95.9,133.1,96,133.2,96z"/>
							<path class="st5" d="M132.4,96h0.6c0.1,0,0.1-0.1,0.1-0.1v-0.6c0-0.1-0.1-0.1-0.1-0.1h-0.4c-0.1,0-0.1,0-0.1,0.1l-0.2,0.6
								C132.2,95.9,132.3,96,132.4,96z"/>
							<path class="st5" d="M131.5,96h0.6c0.1,0,0.1-0.1,0.1-0.1v-0.6c0-0.1-0.1-0.1-0.1-0.1h-0.4c-0.1,0-0.1,0-0.1,0.1l-0.2,0.6
								C131.4,95.9,131.5,96,131.5,96z"/>
							<path class="st5" d="M130.7,96h0.6c0.1,0,0.1-0.1,0.1-0.1v-0.6c0-0.1-0.1-0.1-0.1-0.1h-0.4c-0.1,0-0.1,0-0.1,0.1l-0.2,0.6
								C130.6,95.9,130.6,96,130.7,96z"/>
							<path class="st5" d="M129.9,96h0.6c0.1,0,0.1-0.1,0.1-0.1v-0.6c0-0.1-0.1-0.1-0.1-0.1H130c-0.1,0-0.1,0-0.1,0.1l-0.2,0.6
								C129.7,95.9,129.8,96,129.9,96z"/>
						</g>
						<rect x="129.3" y="95.5" class="st4" width="13.5" height="1"/>
					</g>
				</g>
			</g>
			<g>
				<path class="st9" d="M153.1,102.2h20.8c1,0,1.8,0.8,1.8,1.8v1.4h-24.5V104C151.3,103,152.1,102.2,153.1,102.2z"/>
				<path class="st9" d="M174.9,123.5l-7.8-0.8v-11H164v11l-7.9,0.8c-0.8,0.1-1.4,0.7-1.4,1.5v1.2h10.5h0.6h10.5V125
					C176.3,124.2,175.7,123.6,174.9,123.5z"/>
				<path class="st9" d="M157.6,127.6c0,1.1-0.9,2-2,2c-1.1,0-2-0.9-2-2s0.9-2,2-2C156.7,125.6,157.6,126.5,157.6,127.6z"/>
				<path class="st9" d="M173.5,127.6c0,1.1,0.9,2,2,2c1.1,0,2-0.9,2-2s-0.9-2-2-2C174.4,125.6,173.5,126.5,173.5,127.6z"/>
				<path class="st8" d="M166.1,114.1h-1.2c-0.8,0-1.5-0.7-1.5-1.5v-8.3h4.2v8.3C167.6,113.4,167,114.1,166.1,114.1z"/>
				<path class="st4" d="M161.4,102.4c1.1-4.1,3.5-14.7,4-28.7c0.1-2.2,1.9-3.9,4-3.9h7.2c2.2,0,4,1.8,4,4c0,6.6-0.4,20.1-4.1,31
					l-13.8-0.5C161.9,104.3,161.2,103.4,161.4,102.4z"/>
				<g>
					<path class="st8" d="M163.4,104.1c0,0,3.7-13.2,4.3-29.9c0.1-2,1.7-3.6,3.7-3.6h6.7c2,0,3.7,1.7,3.7,3.7
						c0,6.1-0.4,19.7-3.8,29.8L163.4,104.1L163.4,104.1z"/>
					<path class="st8" d="M166.2,94.5c0,0-7.9-1.6-15.6-0.8c-7.7,0.8,3.6,10.8,3.6,10.8h1.6c0,0-6-6.3-5.6-7.9
						c0.3-1.6,15.4,0.5,15.4,0.5L166.2,94.5z"/>
					<path class="st9" d="M178,104.1h-13c0,0,3.7-13.2,4.3-29.9c0.1-2,1.7-3.6,3.7-3.6h5c2.1,0,3.7,1.7,3.7,3.7
						C181.8,80.4,181.4,94,178,104.1z"/>
				</g>
				<g>
					<path class="st9" d="M151.1,103.8h26.4c0.4,0,0.7,0.3,0.7,0.7v0.1c0,0.4-0.3,0.7-0.7,0.7h-26.4c-0.4,0-0.7-0.3-0.7-0.7v-0.1
						C150.4,104.1,150.7,103.8,151.1,103.8z"/>
				</g>
			</g>
		</g>
	</g>
	<g id="Shadow_1_">
		<ellipse id="_x3C_Path_x3E__359_" class="st5" cx="112.5" cy="142.9" rx="75.3" ry="4.4"/>
	</g>
	<g id="List">
		<g>
			<path class="st10" d="M119.4,131.2H63.9c-1.6,0-2.8-1.3-2.8-2.8v-83c0-1.6,1.3-2.8,2.8-2.8h55.5c1.6,0,2.8,1.3,2.8,2.8v83
				C122.2,129.9,120.9,131.2,119.4,131.2z"/>
			<path class="st11" d="M119.4,131.2H63.9c-1.6,0-2.8-1.3-2.8-2.8v-83c0-1.6,1.3-2.8,2.8-2.8h55.5c1.6,0,2.8,1.3,2.8,2.8v83
				C122.2,129.9,120.9,131.2,119.4,131.2z"/>
			<rect x="66.3" y="49.1" class="st12" width="53" height="78.7"/>
			<path class="st10" d="M93.3,41.4c0-0.9-0.7-1.6-1.6-1.6c-0.9,0-1.6,0.7-1.6,1.6H78.4c-0.5,0-0.8,0.4-0.8,0.8v8.5h28.2v-8.5
				c0-0.5-0.4-0.8-0.8-0.8H93.3z M91.6,40.6c0.5,0,0.9,0.4,0.9,0.9s-0.4,0.9-0.9,0.9s-0.9-0.4-0.9-0.9S91.2,40.6,91.6,40.6z"/>
			<g>
				<g>
					<rect x="65.2" y="47.9" class="st13" width="53" height="78.7"/>
					<rect x="65.2" y="47.9" class="st14" width="53" height="78.7"/>
				</g>
				<g>
					<g class="st15">
						<rect x="73.5" y="56.6" width="36.2" height="1.9"/>
					</g>
					<g class="st15">
						<rect x="77.4" y="63.5" width="32.4" height="0.8"/>
					</g>
					<g class="st15">
						<rect x="73.5" y="66.5" width="36.2" height="0.8"/>
					</g>
					<g class="st15">
						<rect x="73.5" y="69.5" width="36.2" height="0.8"/>
					</g>
					<g class="st15">
						<rect x="73.5" y="72.5" width="36.2" height="0.8"/>
					</g>
					<g class="st15">
						<rect x="73.5" y="75.5" width="36.2" height="0.8"/>
					</g>
					<g class="st15">
						<rect x="73.5" y="78.5" width="36.2" height="0.8"/>
					</g>
					<g class="st15">
						<rect x="73.5" y="81.6" width="16.8" height="0.8"/>
					</g>
					<g class="st15">
						<path d="M79.9,93.8h-6.3v-6.3h6.3V93.8L79.9,93.8z M74.3,93h4.8v-4.8h-4.8V93z"/>
					</g>
					<g class="st15">
						<g>
							<rect x="81.9" y="89.1" width="27.8" height="0.8"/>
						</g>
						<g>
							<rect x="81.9" y="91.4" width="19" height="0.8"/>
						</g>
					</g>
					<g class="st15">
						<path d="M79.9,105.4h-6.3v-6.3h6.3V105.4L79.9,105.4z M74.3,104.7h4.8v-4.8h-4.8V104.7z"/>
					</g>
					<g class="st15">
						<g>
							<rect x="81.9" y="100.7" width="27.8" height="0.8"/>
						</g>
						<g>
							<rect x="81.9" y="103.1" width="19" height="0.8"/>
						</g>
					</g>
					<g class="st15">
						<path d="M79.9,117.1h-6.3v-6.3h6.3V117.1L79.9,117.1z M74.3,116.3h4.8v-4.8h-4.8V116.3z"/>
					</g>
					<g class="st15">
						<g>
							<rect x="81.9" y="112.4" width="27.8" height="0.8"/>
						</g>
						<g>
							<rect x="81.9" y="114.7" width="19" height="0.8"/>
						</g>
					</g>
					<g>
						<polygon class="st13" points="76,92.4 74.9,90.9 75.5,90.4 76.1,91.2 77.9,89.2 78.5,89.7 						"/>
					</g>
					<g>
						<polygon class="st13" points="76,104.1 74.9,102.5 75.5,102 76.1,102.8 77.9,100.8 78.5,101.4 						"/>
					</g>
					<g>
						<polygon class="st13" points="76,115.7 74.9,114.2 75.5,113.7 76.1,114.5 77.9,112.5 78.5,113 						"/>
					</g>
				</g>
			</g>
			<g class="st16">
				<path d="M101.5,53H82.6c-0.7,0-1.2-0.6-1.2-1.3l0.5-5.1c0.1-0.7,0.7-1.3,1.4-1.3h18.8c0.7,0,1.2,0.6,1.2,1.3l-0.5,5.1
					C102.8,52.5,102.2,53,101.5,53z M83.3,46.2c-0.3,0-0.5,0.2-0.6,0.5l-0.5,5.1c0,0.3,0.2,0.5,0.5,0.5h18.8c0.3,0,0.5-0.2,0.6-0.5
					l0.5-5.1c0-0.3-0.2-0.5-0.5-0.5H83.3z"/>
			</g>
			<g>
				<path class="st17" d="M101.1,52.7H82.2c-0.7,0-1.3-0.6-1.3-1.3v-5.1c0-0.7,0.6-1.3,1.3-1.3h18.8c0.7,0,1.3,0.6,1.3,1.3v5.1
					C102.4,52.1,101.8,52.7,101.1,52.7z M82.2,45.8c-0.3,0-0.5,0.2-0.5,0.5v5.1c0,0.3,0.2,0.5,0.5,0.5h18.8c0.3,0,0.5-0.2,0.5-0.5
					v-5.1c0-0.3-0.2-0.5-0.5-0.5H82.2z"/>
			</g>
			<g>
				<path class="st10" d="M99.1,47H84.2c-0.3,0-0.6-0.3-0.6-0.6v-2c0-0.3,0.3-0.6,0.6-0.6h14.8c0.3,0,0.6,0.3,0.6,0.6v2
					C99.6,46.7,99.4,47,99.1,47z"/>
				<path class="st18" d="M99.1,47H84.2c-0.3,0-0.6-0.3-0.6-0.6v-2c0-0.3,0.3-0.6,0.6-0.6h14.8c0.3,0,0.6,0.3,0.6,0.6v2
					C99.6,46.7,99.4,47,99.1,47z"/>
			</g>
		</g>
	</g>
	<g id="Plant">
		<g>
			<path class="st13" d="M55.7,134.7c0,0,1.8-4-0.3-8c-2.1-4-2.7-4.9-1.4-5.7c1.3-0.8,2,3.2,2,3.2s1.1-2.7,0.2-5.6
				c-0.9-2.9-1.5-7.5-0.2-8c1.3-0.5,0.2,5.8,1.4,8c0,0,0.9-2.4,1.1-4.7c0.2-2.3-0.1-6,0.9-6.9c1-0.9,1.7-0.3,0.7,4.8s-1,9.2-1,9.2
				s2.2-6.7,3.7-6.9c1.5-0.2,1.5,2,0.2,3.8c-1.3,1.9-3.7,5.2-4.1,7c0,0,2.4-5,4.6-3.5c2.2,1.5-1.9,4.6-3.7,5.7c-1.8,1.1-3.1,8-3.1,8
				L55.7,134.7z"/>
			<path class="st12" d="M55.7,134.7c0,0,1.8-4-0.3-8c-2.1-4-2.7-4.9-1.4-5.7c1.3-0.8,2,3.2,2,3.2s1.1-2.7,0.2-5.6
				c-0.9-2.9-1.5-7.5-0.2-8c1.3-0.5,0.2,5.8,1.4,8c0,0,0.9-2.4,1.1-4.7c0.2-2.3-0.1-6,0.9-6.9c1-0.9,1.7-0.3,0.7,4.8s-1,9.2-1,9.2
				s2.2-6.7,3.7-6.9c1.5-0.2,1.5,2,0.2,3.8c-1.3,1.9-3.7,5.2-4.1,7c0,0,2.4-5,4.6-3.5c2.2,1.5-1.9,4.6-3.7,5.7c-1.8,1.1-3.1,8-3.1,8
				L55.7,134.7z"/>
			<path class="st13" d="M57.2,136.4c0,0-1.8-4,0.4-8s2.8-4.9,1.4-5.7c-1.3-0.8-2,3.1-2,3.1s-1.1-2.8-0.1-5.6c1-2.9,1.6-7.5,0.3-8
				c-1.3-0.5-0.3,5.8-1.4,8c0,0-0.9-2.4-1-4.7c-0.1-2.3,0.2-6-0.8-6.9c-1-1-1.6-0.3-0.7,4.8c0.9,5.1,0.9,9.2,0.9,9.2
				s-2.1-6.7-3.6-6.9c-1.5-0.2-1.5,1.9-0.3,3.8c1.2,1.9,3.6,5.3,4,7c0,0-2.3-5.1-4.5-3.5c-2.2,1.5,1.8,4.6,3.6,5.7c1.8,1.1,3,8,3,8
				L57.2,136.4z"/>
			<g>
				<polygon class="st10" points="48.9,133.5 63.7,133.5 62.5,144.1 50.1,144.1 				"/>
			</g>
		</g>
	</g>
	<g id="Boxes">
		<g>
			<g>
				<g>
					<rect x="115" y="128.2" class="st19" width="22.8" height="15.9"/>
					<rect x="115" y="128.2" class="st20" width="22.8" height="15.9"/>
					<polygon class="st12" points="120.7,128.2 115,128.2 115,144.1 137.7,144.1 120.7,143.6 					"/>
					<rect x="117" y="128.2" class="st14" width="1.4" height="0.9"/>
					<rect x="117" y="143.2" class="st14" width="1.4" height="0.9"/>
				</g>
				<g>
					<g>
						<g>
							<polygon class="st21" points="135.6,132.8 135.6,132.8 134.8,134.6 134.6,135.3 134,134.4 133,134.7 134,132.2 134.7,132.4 
								135.5,132.8 							"/>
							<g class="st16">
								<path class="st17" d="M134.6,135l-0.4-0.8l-0.9,0.3l0.9-2.2l1.3,0.5L134.6,135z M134.1,134.2l0.4,0.8l0.8-2.1l-1.2-0.5
									l-0.8,2.1L134.1,134.2z"/>
							</g>
						</g>
						<path class="st12" d="M135.6,132.8l-0.7,1.8c-0.4-1-0.5-2-0.5-2l0.3-0.2L135.6,132.8L135.6,132.8z"/>
						<g>
							<polygon class="st21" points="135.4,135.3 135.9,134.4 136.9,134.7 135.9,132.2 134.4,132.8 							"/>
							<g class="st16">
								<path class="st17" d="M134.5,132.8l1.3-0.5l0.9,2.2l-0.9-0.3l-0.4,0.8L134.5,132.8z M136.6,134.4l-0.8-2.1l-1.2,0.5l0.8,2.1
									l0.4-0.8L136.6,134.4z"/>
							</g>
						</g>
					</g>
					<g>
						<polygon class="st19" points="135,129.2 135.2,129.1 135.3,129.2 135.5,129.1 135.6,129.3 135.8,129.3 135.9,129.5 
							136.1,129.4 136.2,129.7 136.4,129.7 136.4,129.9 136.6,130 136.6,130.2 136.8,130.3 136.7,130.5 136.9,130.6 136.8,130.8 
							137,131 136.8,131.1 136.9,131.3 136.8,131.5 136.9,131.7 136.7,131.8 136.7,132 136.5,132.1 136.5,132.3 136.3,132.3 
							136.3,132.6 136.1,132.5 136,132.8 135.8,132.7 135.7,132.9 135.5,132.8 135.3,133 135.1,132.9 135,133 134.8,132.9 
							134.6,133 134.5,132.8 134.3,132.9 134.2,132.7 133.9,132.8 133.9,132.5 133.7,132.6 133.6,132.3 133.4,132.3 133.4,132.1 
							133.2,132 133.3,131.8 133.1,131.7 133.2,131.5 133,131.3 133.1,131.1 133,131 133.1,130.8 133,130.6 133.2,130.5 
							133.1,130.3 133.3,130.2 133.3,130 133.5,129.9 133.5,129.7 133.8,129.7 133.8,129.4 134,129.5 134.1,129.3 134.3,129.3 
							134.4,129.1 134.6,129.2 134.8,129.1 						"/>
						<path class="st12" d="M136.7,131.1c0,0.9-0.8,1.7-1.7,1.7s-1.7-0.8-1.7-1.7c0-0.9,0.8-1.7,1.7-1.7S136.7,130.1,136.7,131.1z"
							/>
						<g>
							<path class="st19" d="M134.2,131.1l0.4,0c0,0,0.1-0.3,0-0.9c0,0,0.1,0,0.2,0c0.1,0,0.1,0.7,0.1,0.7s0.7-0.1,0.8-0.1
								c0,0,0,0.1,0,0.2c0,0,0,0.1-0.1,0.1l0,0l0,0.7c0,0.1,0,0.1-0.1,0.1l-0.7,0.1c-0.1,0-0.1,0-0.2,0l-0.1,0l-0.4,0.1L134.2,131.1
								z"/>
							<path class="st14" d="M134.2,131.1l0.4,0c0,0,0.1-0.3,0-0.9c0,0,0.1,0,0.2,0c0.1,0,0.1,0.7,0.1,0.7s0.7-0.1,0.8-0.1
								c0,0,0,0.1,0,0.2c0,0,0,0.1-0.1,0.1l0,0l0,0.7c0,0.1,0,0.1-0.1,0.1l-0.7,0.1c-0.1,0-0.1,0-0.2,0l-0.1,0l-0.4,0.1L134.2,131.1
								z"/>
						</g>
					</g>
				</g>
			</g>
			<polygon class="st12" points="120.7,128.2 114.8,134.6 114.8,128.2 			"/>
			<g>
				<g>
					<rect x="106.9" y="112.3" class="st19" width="22.8" height="15.9"/>
					<rect x="106.9" y="112.3" class="st20" width="22.8" height="15.9"/>
					<polygon class="st12" points="112.7,112.3 106.9,112.3 106.9,128.2 129.7,128.2 112.7,127.7 					"/>
					<rect x="108.9" y="112.3" class="st14" width="1.4" height="0.9"/>
					<rect x="108.9" y="127.3" class="st14" width="1.4" height="0.9"/>
				</g>
				<g>
					<g>
						<g>
							<polygon class="st21" points="127.5,116.9 127.5,116.9 126.8,118.7 126.5,119.4 126,118.5 125,118.8 126,116.3 126.6,116.5 
								127.5,116.9 							"/>
							<g class="st16">
								<path class="st17" d="M126.5,119.1l-0.4-0.8l-0.9,0.3l0.9-2.2l1.3,0.5L126.5,119.1z M126.1,118.3l0.4,0.8l0.8-2.1l-1.2-0.5
									l-0.8,2.1L126.1,118.3z"/>
							</g>
						</g>
						<path class="st12" d="M127.5,116.9l-0.7,1.8c-0.4-1-0.5-2-0.5-2l0.3-0.2L127.5,116.9L127.5,116.9z"/>
						<g>
							<polygon class="st21" points="127.4,119.4 127.9,118.5 128.9,118.8 127.9,116.3 126.4,116.9 							"/>
							<g class="st16">
								<path class="st17" d="M126.5,116.9l1.3-0.5l0.9,2.2l-0.9-0.3l-0.4,0.8L126.5,116.9z M128.6,118.5l-0.8-2.1l-1.2,0.5l0.8,2.1
									l0.4-0.8L128.6,118.5z"/>
							</g>
						</g>
					</g>
					<g>
						<polygon class="st19" points="126.9,113.3 127.1,113.2 127.3,113.3 127.5,113.2 127.6,113.4 127.8,113.4 127.9,113.6 
							128.1,113.5 128.2,113.8 128.4,113.8 128.4,114 128.6,114.1 128.6,114.3 128.8,114.4 128.7,114.6 128.9,114.7 128.8,114.9 
							128.9,115.1 128.8,115.2 128.9,115.4 128.7,115.6 128.8,115.8 128.6,115.9 128.7,116.1 128.5,116.2 128.5,116.4 128.3,116.4 
							128.3,116.7 128,116.6 128,116.9 127.7,116.8 127.6,117 127.4,116.9 127.3,117.1 127.1,117 126.9,117.2 126.8,117 
							126.6,117.1 126.4,116.9 126.2,117 126.1,116.8 125.9,116.9 125.9,116.6 125.6,116.7 125.6,116.4 125.4,116.4 125.4,116.2 
							125.2,116.1 125.2,115.9 125,115.8 125.1,115.6 125,115.4 125.1,115.2 124.9,115.1 125.1,114.9 125,114.7 125.2,114.6 
							125.1,114.4 125.3,114.3 125.3,114.1 125.5,114 125.5,113.8 125.7,113.8 125.8,113.5 126,113.6 126.1,113.4 126.3,113.4 
							126.4,113.2 126.6,113.3 126.8,113.2 						"/>
						<path class="st12" d="M128.7,115.2c0,0.9-0.8,1.7-1.7,1.7c-0.9,0-1.7-0.8-1.7-1.7c0-0.9,0.8-1.7,1.7-1.7
							C127.9,113.4,128.7,114.2,128.7,115.2z"/>
						<g>
							<path class="st19" d="M126.1,115.2l0.4,0c0,0,0.1-0.3,0-0.9c0,0,0.1,0,0.2,0c0.1,0,0.1,0.7,0.1,0.7s0.7-0.1,0.8-0.1
								c0,0,0,0.1,0,0.2c0,0,0,0.1-0.1,0.1l0,0l0,0.7c0,0.1,0,0.1-0.1,0.1l-0.7,0.1c-0.1,0-0.1,0-0.2,0l-0.1,0l-0.4,0.1L126.1,115.2
								z"/>
							<path class="st14" d="M126.1,115.2l0.4,0c0,0,0.1-0.3,0-0.9c0,0,0.1,0,0.2,0c0.1,0,0.1,0.7,0.1,0.7s0.7-0.1,0.8-0.1
								c0,0,0,0.1,0,0.2c0,0,0,0.1-0.1,0.1l0,0l0,0.7c0,0.1,0,0.1-0.1,0.1l-0.7,0.1c-0.1,0-0.1,0-0.2,0l-0.1,0l-0.4,0.1L126.1,115.2
								z"/>
						</g>
					</g>
				</g>
			</g>
			<g>
				<g>
					<rect x="93.8" y="128.2" class="st19" width="22.8" height="15.9"/>
					<rect x="93.8" y="128.2" class="st20" width="22.8" height="15.9"/>
					<polygon class="st12" points="99.5,128.2 93.8,128.2 93.8,144.1 116.6,144.1 99.5,143.6 					"/>
					<rect x="95.8" y="128.2" class="st14" width="1.4" height="0.9"/>
					<rect x="95.8" y="143.2" class="st14" width="1.4" height="0.9"/>
				</g>
				<g>
					<g>
						<g>
							<polygon class="st21" points="114.4,132.8 114.4,132.8 113.7,134.6 113.4,135.3 112.9,134.4 111.9,134.7 112.9,132.2 
								113.5,132.4 114.3,132.8 							"/>
							<g class="st16">
								<path class="st17" d="M113.4,135l-0.4-0.8l-0.9,0.3l0.9-2.2l1.3,0.5L113.4,135z M113,134.2l0.4,0.8l0.8-2.1l-1.2-0.5
									l-0.8,2.1L113,134.2z"/>
							</g>
						</g>
						<path class="st12" d="M114.4,132.8l-0.7,1.8c-0.4-1-0.5-2-0.5-2l0.3-0.2L114.4,132.8L114.4,132.8z"/>
						<g>
							<polygon class="st21" points="114.2,135.3 114.7,134.4 115.7,134.7 114.7,132.2 113.2,132.8 							"/>
							<g class="st16">
								<path class="st17" d="M113.3,132.8l1.3-0.5l0.9,2.2l-0.9-0.3l-0.4,0.8L113.3,132.8z M115.4,134.4l-0.8-2.1l-1.2,0.5l0.8,2.1
									l0.4-0.8L115.4,134.4z"/>
							</g>
						</g>
					</g>
					<g>
						<polygon class="st19" points="113.8,129.2 114,129.1 114.1,129.2 114.3,129.1 114.4,129.3 114.7,129.3 114.7,129.5 115,129.4 
							115,129.7 115.2,129.7 115.2,129.9 115.5,130 115.4,130.2 115.6,130.3 115.6,130.5 115.7,130.6 115.6,130.8 115.8,131 
							115.6,131.1 115.8,131.3 115.6,131.5 115.7,131.7 115.5,131.8 115.6,132 115.3,132.1 115.4,132.3 115.1,132.3 115.1,132.6 
							114.9,132.5 114.8,132.8 114.6,132.7 114.5,132.9 114.3,132.8 114.1,133 114,132.9 113.8,133 113.6,132.9 113.4,133 
							113.3,132.8 113.1,132.9 113,132.7 112.8,132.8 112.7,132.5 112.5,132.6 112.5,132.3 112.2,132.3 112.3,132.1 112,132 
							112.1,131.8 111.9,131.7 112,131.5 111.8,131.3 111.9,131.1 111.8,131 112,130.8 111.8,130.6 112,130.5 112,130.3 
							112.2,130.2 112.1,130 112.3,129.9 112.4,129.7 112.6,129.7 112.6,129.4 112.8,129.5 112.9,129.3 113.1,129.3 113.3,129.1 
							113.5,129.2 113.6,129.1 						"/>
						<path class="st12" d="M115.5,131.1c0,0.9-0.8,1.7-1.7,1.7s-1.7-0.8-1.7-1.7c0-0.9,0.8-1.7,1.7-1.7S115.5,130.1,115.5,131.1z"
							/>
						<g>
							<path class="st19" d="M113,131.1l0.4,0c0,0,0.1-0.3,0-0.9c0,0,0.1,0,0.2,0c0.1,0,0.1,0.7,0.1,0.7s0.7-0.1,0.8-0.1
								c0,0,0,0.1,0,0.2c0,0,0,0.1-0.1,0.1l0,0l0,0.7c0,0.1,0,0.1-0.1,0.1l-0.7,0.1c-0.1,0-0.1,0-0.2,0l-0.1,0l-0.4,0.1L113,131.1z"
								/>
							<path class="st14" d="M113,131.1l0.4,0c0,0,0.1-0.3,0-0.9c0,0,0.1,0,0.2,0c0.1,0,0.1,0.7,0.1,0.7s0.7-0.1,0.8-0.1
								c0,0,0,0.1,0,0.2c0,0,0,0.1-0.1,0.1l0,0l0,0.7c0,0.1,0,0.1-0.1,0.1l-0.7,0.1c-0.1,0-0.1,0-0.2,0l-0.1,0l-0.4,0.1L113,131.1z"
								/>
						</g>
					</g>
				</g>
			</g>
		</g>
	</g>
	<g id="Badge">
		<g>
			<g>
				<g>
					<polygon class="st21" points="122.8,59.6 122.8,59.7 118.6,70.3 117,74.3 114.1,68.9 108.3,70.8 114.1,56.1 117.7,57.6 
						122.6,59.5 					"/>
					<g class="st16">
						<path class="st17" d="M117.1,72.3l-2.5-4.6l-5,1.6l5-12.7l7.5,3L117.1,72.3z M114.6,67.5l2.4,4.3l4.8-12.1l-7.1-2.8L109.9,69
							L114.6,67.5z"/>
					</g>
				</g>
				<path class="st12" d="M122.8,59.7l-4.2,10.6c-2.5-5.8-2.7-11.6-2.7-11.6l1.9-1l4.9,1.9L122.8,59.7z"/>
				<g>
					<polygon class="st21" points="121.8,74.3 124.8,68.9 130.6,70.8 124.8,56.1 116,59.6 					"/>
					<g class="st16">
						<path class="st17" d="M116.8,59.6l7.5-3l5,12.7l-5-1.6l-2.5,4.6L116.8,59.6z M129,69l-4.8-12.1l-7.1,2.8l4.8,12.1l2.4-4.3
							L129,69z"/>
					</g>
				</g>
			</g>
			<g>
				<polygon class="st19" points="119.4,38.8 120.5,38 121.3,39 122.5,38.4 123.2,39.5 124.4,39.1 124.9,40.4 126.2,40.2 
					126.5,41.5 127.8,41.6 127.8,42.9 129.1,43.2 128.9,44.5 130.1,45 129.6,46.2 130.7,47 130,48.1 131,49 130.1,50 130.9,51.1 
					129.9,51.9 130.4,53.1 129.3,53.7 129.6,55 128.4,55.4 128.5,56.7 127.2,56.9 127,58.2 125.7,58.2 125.4,59.5 124.1,59.2 
					123.5,60.4 122.3,59.9 121.5,60.9 120.4,60.2 119.4,61.1 118.5,60.2 117.4,60.9 116.6,59.9 115.4,60.4 114.8,59.2 113.5,59.5 
					113.1,58.2 111.8,58.2 111.7,56.9 110.4,56.7 110.5,55.4 109.3,55 109.6,53.7 108.4,53.1 109,51.9 108,51.1 108.8,50 107.9,49 
					108.8,48.1 108.2,47 109.3,46.2 108.8,45 110,44.5 109.8,43.2 111.1,42.9 111.1,41.6 112.4,41.5 112.6,40.2 113.9,40.4 
					114.4,39.1 115.7,39.5 116.4,38.4 117.5,39 118.4,38 				"/>
				<ellipse class="st12" cx="119.4" cy="49.6" rx="9.9" ry="9.9"/>
				<g>
					<path class="st19" d="M114.8,49.9l2.3-0.2c0,0,0.4-1.7,0.2-5.3c0,0,0.8-0.1,1.2-0.1s0.8,4.1,0.8,4.1s4.2-0.6,4.4-0.4
						c0.2,0.1,0.2,0.7,0.3,1.2c0,0.3-0.1,0.5-0.4,0.6l-0.1,0l0.1,4c0,0.3-0.2,0.6-0.5,0.6l-3.9,0.3c-0.4,0-0.8-0.1-1.1-0.3l-0.5-0.3
						l-2.4,0.3L114.8,49.9z"/>
					<path class="st14" d="M114.8,49.9l2.3-0.2c0,0,0.4-1.7,0.2-5.3c0,0,0.8-0.1,1.2-0.1s0.8,4.1,0.8,4.1s4.2-0.6,4.4-0.4
						c0.2,0.1,0.2,0.7,0.3,1.2c0,0.3-0.1,0.5-0.4,0.6l-0.1,0l0.1,4c0,0.3-0.2,0.6-0.5,0.6l-3.9,0.3c-0.4,0-0.8-0.1-1.1-0.3l-0.5-0.3
						l-2.4,0.3L114.8,49.9z"/>
				</g>
			</g>
		</g>
	</g>
	<g id="Character">
		<g>
			<g>
				<path class="st22" d="M138.7,60.4l-3.3-1.8l2-2.6c0,0,2.5,0.9,2.6,3.1L138.7,60.4z"/>
				<polygon class="st22" points="133.9,56.4 135.8,54.8 137.4,56 135.4,58.7 				"/>
			</g>
			<path class="st13" d="M153.5,55.3c-0.6,0.1-1.2,0.4-1.8,0.7c-0.6,0.3-1,0.7-1.4,1.1c-0.7,0.7-1.3,1.4-1.9,2.1
				c-1.1,1.3-2.1,2.7-3.1,4c-0.2-0.1-0.4-0.2-0.5-0.4c-0.3-0.2-0.6-0.5-1-0.7c-1.3-1-2.6-2.1-3.9-3.2l-1.6,1.4c1,1.5,2,2.9,3.2,4.2
				c0.6,0.7,1.2,1.3,2.1,1.9c0.2,0.2,0.5,0.3,0.8,0.5c0.2,0.1,0.3,0.2,0.6,0.2c0.2,0.1,0.5,0.1,1,0.1c0.1,0,0.2,0,0.4-0.1
				c0.1,0,0.3-0.1,0.4-0.1c0.3-0.1,0.5-0.3,0.7-0.5l0.3-0.3l0.4-0.5c1.2-1.3,2.3-2.6,3.4-3.8c0.5-0.6,1.1-1.2,1.6-1.7
				c0.2-0.2,0.5-0.4,0.6-0.5c0.2-0.1,0.3-0.2,0.6-0.2L153.5,55.3z"/>
			<path class="st14" d="M154.5,59.5c-0.2,0.1-0.4,0.1-0.6,0.2s-0.4,0.3-0.6,0.5c-0.2,0.2-0.4,0.4-0.6,0.7c-0.3,0.3-0.6,0.7-0.9,1
				c-0.7,0.8-1.4,1.6-2.1,2.4c-0.4,0.5-0.8,1-1.3,1.4l-0.4,0.5l-0.3,0.3c-0.2,0.2-0.5,0.4-0.7,0.5c-0.1,0.1-0.3,0.1-0.4,0.1
				c-0.1,0-0.2,0.1-0.4,0.1c-0.4,0-0.7,0-1-0.1c-0.2-0.1-0.4-0.1-0.6-0.2c-0.3-0.2-0.6-0.3-0.8-0.5c-0.9-0.6-1.5-1.3-2.1-1.9
				c-1.2-1.3-2.3-2.7-3.2-4.2L140,59c1.3,1.1,2.6,2.2,3.9,3.2c0.3,0.2,0.6,0.5,1,0.7c0.2,0.1,0.4,0.3,0.5,0.4c1-1.3,2-2.7,3.1-4
				c0.6-0.7,1.1-1.4,1.9-2.1c0.4-0.4,0.8-0.7,1.4-1.1c0.6-0.3,1.2-0.6,1.8-0.7L154.5,59.5z"/>
			<path class="st23" d="M152.7,60.9c-0.3,0.3-0.6,0.7-0.9,1c-0.7,0.8-1.4,1.6-2.1,2.4c0.3-3.2,2.6-4.5,2.6-4.5
				C152.4,60.1,152.6,60.5,152.7,60.9z"/>
			<path class="st13" d="M169,56.2C169,56.2,169,56.2,169,56.2c-0.8,2.3-1.3,5-1.7,7.7c-0.3,2.1-0.4,4.3-0.5,6.2
				c-0.1,2-0.1,3.8-0.1,5.2c0,1.8,0.1,3,0.1,3h-15.6c-2.2-15.9,2.3-23,2.3-23s1.6-0.3,3.6-0.4c0.3,0,0.5,0,0.8,0
				c1.7,0,4.4,0.2,6.3,0.4c0.4,0,0.8,0.1,1.2,0.2C167.2,55.8,169,56.2,169,56.2z"/>
			<path class="st14" d="M169,56.2C169,56.2,169,56.2,169,56.2c-0.4,1-0.7,2.1-0.9,3.3c-0.3,1.2-0.5,2.4-0.7,3.6
				c0,0.3-0.1,0.6-0.1,0.8c-0.2,1.4-0.3,2.8-0.4,4.1c-0.1,0.7-0.1,1.4-0.1,2.1c-0.1,1.2-0.1,2.4-0.1,3.4c0,0.6,0,1.2,0,1.8
				c0,1.8,0.1,3,0.1,3h-15.6c-2.2-15.9,2.3-23,2.3-23s1.6-0.3,3.6-0.4c0.3,0,0.5,0,0.8,0c1.7,0,4.4,0.2,6.3,0.4
				c0.4,0,0.8,0.1,1.2,0.2C167.2,55.8,169,56.2,169,56.2z"/>
			<path class="st13" d="M141.9,79.2"/>
			<path d="M139.4,143.1c0,0,5.2-1.5,5.6-3.6c0-0.2,0.2-0.3,0.4-0.3l3.8,0.6c0.2,0,0.3,0.2,0.4,0.3l1.2,3.7l-1.1,0l-0.4-0.5
				l-0.5,0.6c-5.8,0.2-8.3,0.2-9.5-0.1C139.2,143.3,139.4,143.1,139.4,143.1z"/>
			<path d="M160.4,143.1c0,0,5.2-1.5,5.6-3.6c0-0.2,0.2-0.3,0.4-0.3l3.8,0.6c0.2,0,0.3,0.2,0.4,0.3l1.2,3.7l-1.1,0l-0.4-0.5
				l-0.5,0.6c-5.8,0.2-8.3,0.2-9.5-0.1C160.2,143.3,160.4,143.1,160.4,143.1z"/>
			<g>
				<path class="st24" d="M161.7,79C161.7,79,161.7,79,161.7,79c0,0.1-1,3-2.2,7.2c-0.1,0.2-0.1,0.5-0.2,0.7c-0.6,2-1.2,4.3-1.9,6.6
					c-0.8,2.9-1.6,5.9-2.3,8.7c-1,4.2-1.9,8.1-2.2,10.9c-1.1,9.2-3.2,27.4-3.2,27.4l-4.9-1.3c0,0-0.9-19.7,0-29.1
					c0.6-6,3.3-18.2,5-25.8c0.9-3.9,1.5-6.6,1.5-6.6l5.6,0.6L161.7,79z"/>
			</g>
			<path class="st12" d="M155,102.3c1.3-5.2,2.9-10.9,4.2-15.4l-1-2.4C155.6,87.6,154.7,97.1,155,102.3z"/>
			<g>
				<path class="st24" d="M170.8,140.3l-5.4,0.5c0,0-6.3-18.3-7.1-27.8c-0.3-4.2-0.7-12.2-0.9-19.5c-0.2-5.3-0.3-10.3-0.4-12.9
					c0-1.3-0.1-2.1-0.1-2.1l4.8,0.5l5.2,0.2c0,0,0.2,1.2,0.2,6.2c-0.1,7.8-0.4,21.5-0.2,28.8C167,123.7,170.8,140.3,170.8,140.3z"/>
			</g>
			<g>
				<path class="st22" d="M162.7,48.6l-3.8,3.3c0.4,1.6-0.2,3.1-1,3.4l0.6,1.6l4.7-1.8C162,53.9,162.3,50.7,162.7,48.6z"/>
				<path class="st12" d="M161.1,50l-2.3,2c0.1,0.4,0.2,0.8,0.2,1.1c0.9-0.1,2-1.1,2.1-2C161.2,50.6,161.2,50.2,161.1,50z"/>
				<path class="st13" d="M162.8,54.1c0,0-2.9,0.9-3.4,1.2c-0.4,0.2-0.9,1.4-0.9,1.4s0.3-1.2,0.2-1.9c-0.2-0.7-0.5-0.7-0.5-0.7
					l-0.8,1.5c0,0-0.2,1.3,1.1,1.5c1.2,0.2,4.9-2,4.9-2L162.8,54.1z"/>
				<path class="st25" d="M162.8,54.1c0,0-2.9,0.9-3.4,1.2c-0.4,0.2-0.9,1.4-0.9,1.4s0.3-1.2,0.2-1.9c-0.2-0.7-0.5-0.7-0.5-0.7
					l-0.8,1.5c0,0-0.2,1.3,1.1,1.5c1.2,0.2,4.9-2,4.9-2L162.8,54.1z"/>
			</g>
			<g>
				<path class="st24" d="M155.8,43c-0.7,0.8,0.1,1.9,0.1,2.7c0,0.8-0.2,1.8,0.9,0.7C157.7,45.3,156.8,41.9,155.8,43z"/>
				<path class="st26" d="M162.9,46.5c-0.3,2.7,0,3.1-1.4,4.4c-2.2,1.9-5.5,2.1-5.8-0.7c-0.3-2.5-0.2-6.9,2.5-7.8
					C160.8,41.6,163.3,43.8,162.9,46.5z"/>
				<path class="st24" d="M162.5,48.3c-1.2,0.7-1.6-1-1.5-1.1c0.4-0.6,0.3-1.1-0.1-2.2c-0.4-1.1,1.8-2.4,3.4-1.9
					c1.5,0.4,0,1.6,0.2,2.5C164.8,47.4,163.5,47.7,162.5,48.3z"/>
				<path class="st17" d="M156.5,49.4c0,0,0.8-0.2,2.9-0.3c-0.2,0.6-0.7,1.1-1.8,1.2C156.5,50.3,156.5,49.4,156.5,49.4z"/>
				<path class="st26" d="M164,48.4c-0.3,0.6-0.8,1.1-1.3,1.2c-0.7,0.3-1.1-0.5-0.9-1.3c0.2-0.7,0.8-1.7,1.6-1.6
					C164.1,46.8,164.4,47.6,164,48.4z"/>
				<path class="st24" d="M159.7,46.5c0,0.2-0.1,0.2-0.3,0.2c-0.1,0-0.3-0.1-0.3-0.3c0-0.2,0.2-0.4,0.3-0.4
					C159.6,46.1,159.7,46.3,159.7,46.5z"/>
				<path class="st24" d="M156.9,46.5c0,0.2-0.1,0.2-0.3,0.2c-0.1,0-0.3-0.1-0.3-0.3c0-0.2,0.2-0.4,0.3-0.4
					C156.8,46.1,156.9,46.3,156.9,46.5z"/>
				<path class="st27" d="M157.3,46.5c0,0-0.4,1-0.9,1.5c0.3,0.3,0.8,0.2,0.8,0.2L157.3,46.5z"/>
				<path class="st24" d="M160.2,45.5C160.2,45.5,160.2,45.5,160.2,45.5c0.1-0.1,0.1-0.2,0.1-0.2c-0.5-0.6-1.1-0.5-1.1-0.5
					c-0.1,0-0.1,0.1-0.1,0.1c0,0.1,0.1,0.1,0.1,0.1l0,0c0,0,0.5,0,0.9,0.4C160.1,45.5,160.1,45.5,160.2,45.5z"/>
				<path class="st24" d="M155.5,46c0,0,0.1,0,0.1,0c0.4-0.4,0.9-0.3,0.9-0.3c0.1,0,0.1,0,0.2-0.1c0-0.1,0-0.1-0.1-0.2
					c0,0-0.6-0.1-1.2,0.4C155.4,45.8,155.4,45.9,155.5,46C155.5,46,155.5,46,155.5,46z"/>
				<path class="st24" d="M158.7,43.5c0,0-2,0.9-2.9-0.9s1.5-2.8,1.5-2.8s-0.3,0.6,0,1.2c0,0,0.4-1.3,2.1-0.9
					c1.7,0.4,4.4,0.9,4.9,1.8c0.5,0.8,0.1,1.5,0.1,1.5l-2.8,0.7C161.7,44.1,160.6,42.4,158.7,43.5z"/>
			</g>
			<path class="st24" d="M150.9,77l-0.1,3l16.3,2.6c0-2.6-0.4-5.9-0.4-5.9L150.9,77z"/>
			<g>
				<g>
					<polygon class="st24" points="166.6,78.2 166.9,78.2 166.8,77.1 166.5,77.1 					"/>
					<polygon class="st24" points="154.2,78.4 160.9,78.3 160.8,77.2 154.2,77.4 					"/>
					<polygon class="st24" points="153.6,77.4 150.8,77.4 150.8,78.5 153.7,78.4 					"/>
					<polygon class="st24" points="166,77.1 161.4,77.2 161.4,78.3 166.1,78.2 					"/>
				</g>
				<g class="st16">
					<polygon class="st17" points="166.6,78.2 166.9,78.2 166.8,77.1 166.5,77.1 					"/>
					<polygon class="st17" points="154.2,78.4 160.9,78.3 160.8,77.2 154.2,77.4 					"/>
					<polygon class="st17" points="153.6,77.4 150.8,77.4 150.8,78.5 153.7,78.4 					"/>
					<polygon class="st17" points="166,77.1 161.4,77.2 161.4,78.3 166.1,78.2 					"/>
				</g>
				<g>
					<path class="st28" d="M156.2,77.5l0,0.7c0,0.1,0.1,0.2,0.2,0.2l1.7,0c0.1,0,0.2-0.1,0.2-0.2l-0.1-0.7c0-0.1-0.1-0.2-0.2-0.2
						l-1.7,0C156.3,77.3,156.2,77.4,156.2,77.5z"/>
					<line class="st29" x1="157.6" y1="77.8" x2="158.1" y2="77.8"/>
				</g>
			</g>
			<path class="st23" d="M168,59.5c-0.3,1.2-0.5,2.4-0.7,3.6c-0.5-1.5-0.3-3.3-0.3-3.3C167.4,59.6,167.7,59.5,168,59.5z"/>
			<path class="st23" d="M166.9,68c-0.1,0.7-0.1,1.4-0.1,2.1c-0.1,1.2-0.1,2.4-0.1,3.4c-1.6-0.7-4.6-2-5-3.1
				c-0.5-1.5,0.3-2.1,0.3-2.1S165.1,68.4,166.9,68z"/>
			<g>
				<path class="st22" d="M159.7,67.8l-0.8,0.2c-0.4,0.1-0.7,0.5-0.6,1l0.1,1.1c0,0.4,0.3,0.7,0.7,0.8l0.5,0.1c0,0,1.7,1.1,3.2-0.5
					l0-1.8l-2.6-0.9C160.1,67.7,159.9,67.7,159.7,67.8z"/>
				<path class="st22" d="M162,68.7c0,0-0.8-1.4-0.8-2.3c0-0.9-0.8,0.1-0.4,0.8c0.4,0.6-0.3,1.1-0.3,1.1L162,68.7z"/>
			</g>
			<g>
				<path class="st13" d="M173.6,68.3l0-0.2l0-0.1l0-0.2l-0.1-0.3c-0.3-1.7-0.7-3.5-1.1-5.2c-0.2-0.9-0.5-1.8-0.8-2.7
					c-0.2-0.5-0.4-0.9-0.7-1.5c-0.2-0.3-0.4-0.6-0.7-0.9c-0.2-0.2-0.4-0.4-0.7-0.5c-0.3-0.2-0.6-0.3-1-0.4c0,0-0.9,0.4-1.2,1.8
					c-0.3,1.2-0.2,2.1-0.1,2.2c0.1,0.2,0.3,0.5,0.4,0.9c0.3,0.7,0.5,1.5,0.8,2.3c0.5,1.6,0.9,3.2,1.4,4.9c-0.2,0.1-0.4,0.1-0.6,0.2
					c-0.4,0.1-0.8,0.1-1.2,0.2c-1.6,0.2-3.4,0.2-5,0.2l-0.3,2.1c1.8,0.5,3.5,0.8,5.4,1c0.5,0,1,0,1.5,0c0.5,0,1-0.1,1.6-0.2
					c0.3-0.1,0.6-0.2,1-0.4c0.4-0.2,0.8-0.5,1.2-1c0.2-0.3,0.3-0.6,0.4-0.9C173.6,68.9,173.6,68.5,173.6,68.3z"/>
				<path class="st14" d="M173.6,68.3l0-0.2l0-0.1l0-0.2l-0.1-0.3c-0.3-1.7-0.7-3.5-1.1-5.2c-0.2-0.9-0.5-1.8-0.8-2.7
					c-0.2-0.5-0.4-0.9-0.7-1.5c-0.2-0.3-0.4-0.6-0.7-0.9c-0.2-0.2-0.4-0.4-0.7-0.5c-0.3-0.2-0.6-0.3-1-0.4c0,0-0.9,0.4-1.2,1.8
					c-0.3,1.2-0.2,2.1-0.1,2.2c0.1,0.2,0.3,0.5,0.4,0.9c0.3,0.7,0.5,1.5,0.8,2.3c0.5,1.6,0.9,3.2,1.4,4.9c-0.2,0.1-0.4,0.1-0.6,0.2
					c-0.4,0.1-0.8,0.1-1.2,0.2c-1.6,0.2-3.4,0.2-5,0.2l-0.3,2.1c1.8,0.5,3.5,0.8,5.4,1c0.5,0,1,0,1.5,0c0.5,0,1-0.1,1.6-0.2
					c0.3-0.1,0.6-0.2,1-0.4c0.4-0.2,0.8-0.5,1.2-1c0.2-0.3,0.3-0.6,0.4-0.9C173.6,68.9,173.6,68.5,173.6,68.3z"/>
			</g>
		</g>
	</g>
</g>
</svg>
