<?xml version="1.0" encoding="utf-8"?>
<!-- Generator: Adobe Illustrator 25.4.1, SVG Export Plug-In . SVG Version: 6.00 Build 0)  -->
<svg version="1.1" id="Layer_1" xmlns="http://www.w3.org/2000/svg" xmlns:xlink="http://www.w3.org/1999/xlink" x="0px" y="0px"
	 viewBox="0 0 225 150" style="enable-background:new 0 0 225 150;" xml:space="preserve">
<style type="text/css">
	.st0{display:none;}
	.st1{display:inline;}
	.st2{fill:#F5F5F5;}
	.st3{fill:#E0E0E0;}
	.st4{fill:#FFFFFF;}
	.st5{fill:none;stroke:#FBFBFB;stroke-width:0.25;stroke-miterlimit:10;}
	.st6{fill:#263238;}
	.st7{fill:#455A64;}
	.st8{fill:#FF6245;}
	.st9{fill:#C95D05;}
	.st10{fill:#EF7F1A;}
	.st11{fill:#FFBE9D;}
	.st12{fill:#EB996E;}
	.st13{fill:#FF725E;}
	.st14{opacity:0.6;}
	.st15{opacity:0.3;}
</style>
<g id="Background_Simple" class="st0">
	<g class="st1">
		<path class="st2" d="M451-103.2l-1.7-2.8c-14.4-23.7-40.5-38.1-67.9-36.3c-3.5,0.2-7,0.7-10.5,1.4c-25,5.3-46.7,24.2-55.7,48.4
			c-5.3,14.2-6.8,30.6-16.8,41.9C285.2-35.9,263-35.4,243.5-36c-19.5-0.6-41.8-0.1-54.8,14.7C180.6-12.1,178,1,178.6,13.4
			c1.7,32.8,24.6,62,53.6,76.6s63.2,15.9,95,9.5c44.5-9,86.8-33.6,112.3-71.7C464.9-10.2,471.3-62.1,451-103.2z"/>
	</g>
	<g class="st1">
		<circle class="st2" cx="-170.8" cy="-75.3" r="51.8"/>
	</g>
</g>
<g>
	<g id="Background_Complete">
		<g>
			<g>
				<g>
					<g>
						<g>
							<g>
								<g>
									<g>
										<polygon class="st2" points="2.4,122.2 2.4,135.7 22,135.7 43.7,135.7 43.7,122.2 										"/>
									</g>
								</g>
							</g>
						</g>
					</g>
				</g>
				<g>
					<g>
						<g>
							<g>
								<g>
									<g>
										<polygon class="st3" points="0.6,118.5 0.6,122.2 45.1,122.2 45.1,118.5 22,118.5 										"/>
									</g>
								</g>
							</g>
						</g>
					</g>
				</g>
				<g>
					<g>
						<g>
							<g>
								<g>
									<g>
										<polygon class="st3" points="22.9,135.7 43.7,135.7 43.7,122.2 45.1,122.2 45.1,118.5 22,118.5 22,121.9 										"/>
									</g>
								</g>
							</g>
						</g>
					</g>
				</g>
				<g>
					<g>
						<g>
							<g>
								<g>
									<g>
										<rect x="8.1" y="124.4" class="st3" width="8.4" height="2"/>
									</g>
								</g>
							</g>
						</g>
					</g>
				</g>
				<g>
					<g>
						<g>
							<g>
								<g>
									<g>
										<rect x="7.1" y="128.9" class="st4" width="10.7" height="4.3"/>
									</g>
								</g>
							</g>
						</g>
					</g>
				</g>
			</g>
		</g>
		<g>
			<g>
				<g>
					<g>
						<g>
							<g>
								<g>
									<g>
										<polygon class="st2" points="8.7,105.1 8.7,118.5 28.4,118.5 50,118.5 50,105.1 										"/>
									</g>
								</g>
							</g>
						</g>
					</g>
				</g>
				<g>
					<g>
						<g>
							<g>
								<g>
									<g>
										<polygon class="st3" points="7,101.3 7,105.1 51.4,105.1 51.4,101.3 28.4,101.3 										"/>
									</g>
								</g>
							</g>
						</g>
					</g>
				</g>
				<g>
					<g>
						<g>
							<g>
								<g>
									<g>
										<polygon class="st3" points="29.2,118.5 50,118.5 50,105.1 51.4,105.1 51.4,101.3 28.4,101.3 28.4,104.7 										"/>
									</g>
								</g>
							</g>
						</g>
					</g>
				</g>
				<g>
					<g>
						<g>
							<g>
								<g>
									<g>
										<rect x="14.5" y="107.2" class="st3" width="8.4" height="2"/>
									</g>
								</g>
							</g>
						</g>
					</g>
				</g>
				<g>
					<g>
						<g>
							<g>
								<g>
									<g>
										<rect x="13.4" y="111.8" class="st4" width="10.7" height="4.3"/>
									</g>
								</g>
							</g>
						</g>
					</g>
				</g>
			</g>
		</g>
		<g>
			<g>
				<g>
					<rect x="3.5" y="2.8" class="st3" width="30.6" height="44.3"/>
				</g>
			</g>
			<g>
				<g>
					<rect x="2" y="2.8" class="st2" width="30.6" height="44.3"/>
				</g>
			</g>
			<g>
				<g>
					<g>
						<rect x="5.8" y="7.6" class="st4" width="23" height="34.7"/>
					</g>
				</g>
				<g>
					<g>
						<g>
							<path class="st3" d="M28.8,42.3c0,0,0-0.1,0-0.2c0-0.1,0-0.3,0-0.5c0-0.4,0-1.1,0-1.9c0-1.7,0-4.1,0-7.1c0-6.1,0-14.8,0-25
								l0.1,0.1c-7,0-14.8,0-23,0h0l0.1-0.1c0,13.1,0,25.2,0,34.7l-0.1-0.1c7,0,12.7,0,16.7,0c2,0,3.6,0,4.6,0c0.5,0,0.9,0,1.2,0
								C28.6,42.3,28.8,42.3,28.8,42.3s-0.1,0-0.4,0c-0.3,0-0.7,0-1.2,0c-1.1,0-2.6,0-4.6,0c-4,0-9.7,0-16.8,0H5.7v-0.1
								c0-9.5,0-21.6,0-34.7V7.5h0.1h0c8.2,0,15.9,0,23,0h0.1v0.1c0,10.2,0,18.9,0,25c0,3.1,0,5.5,0,7.1c0,0.8,0,1.5,0,1.9
								c0,0.2,0,0.4,0,0.5C28.8,42.3,28.8,42.3,28.8,42.3z"/>
						</g>
					</g>
				</g>
			</g>
			<g>
				<g>
					<g>
						<path class="st5" d="M27.7,7.9"/>
					</g>
				</g>
			</g>
			<g>
				<g>
					<g>
						<path class="st3" d="M32.7,2.8c0,0-0.2,0.3-0.5,0.8c-0.4,0.5-0.9,1.1-1.4,1.8c-0.6,0.7-1.1,1.3-1.5,1.8
							c-0.4,0.4-0.7,0.7-0.7,0.7c0,0,0.2-0.3,0.6-0.8C29.5,6.6,30,6,30.6,5.3C31.1,4.6,31.6,4,32,3.5C32.4,3.1,32.6,2.8,32.7,2.8z"
							/>
					</g>
				</g>
			</g>
			<g>
				<g>
					<g>
						<path class="st4" d="M28.9,42.2c1.1,1.8,2.5,3.5,4,5"/>
					</g>
				</g>
				<g>
					<g>
						<g>
							<path class="st3" d="M32.9,47.2c0,0-0.3-0.2-0.7-0.6c-0.4-0.4-1-1-1.5-1.7s-1-1.4-1.3-1.8c-0.3-0.5-0.5-0.8-0.5-0.8
								c0,0,0.2,0.3,0.6,0.8c0.3,0.5,0.8,1.1,1.4,1.8c0.6,0.7,1.1,1.3,1.5,1.7C32.7,46.9,32.9,47.2,32.9,47.2z"/>
						</g>
					</g>
				</g>
			</g>
			<g>
				<g>
					<g>
						<path class="st4" d="M2,47.1c1.3-1.6,2.7-3.3,4-4.9"/>
					</g>
				</g>
				<g>
					<g>
						<g>
							<path class="st3" d="M6,42.1c0,0-0.8,1.2-1.9,2.5S2,47.1,2,47.1c0,0,0.8-1.2,1.9-2.5S6,42.1,6,42.1z"/>
						</g>
					</g>
				</g>
			</g>
			<g>
				<g>
					<g>
						<path class="st3" d="M2,2.8c0,0,0.9,1,1.9,2.3c1,1.3,1.8,2.4,1.8,2.4s-0.9-1-1.9-2.3C2.8,3.9,2,2.9,2,2.8z"/>
					</g>
				</g>
			</g>
			<g>
				<g>
					<rect x="13.9" y="14.7" class="st3" width="7.7" height="21.8"/>
				</g>
			</g>
		</g>
		<g>
			<g>
				<g>
					<g>
						<g>
							<path class="st2" d="M199,131c-0.7-0.6-2.3-2.6-1.1-4.9c0.5-0.8,1.4-1.3,2.3-1.6c0.9-0.4,1.8-0.7,2.5-1.3
								c1.4-1.2,1.7-3.1,2.7-4.6c1-1.8,3-3.1,5-3c2.4,0.1,4.3,2,5.2,4.2c0.9,2.2,0.9,4.6,0.9,7c0,1.3,0,2.8-1,3.7
								c-0.9,0.8-2.2,0.8-3.4,0.8c-4.3-0.1-8.6-0.3-12.9-0.4"/>
						</g>
					</g>
				</g>
			</g>
			<g>
				<g>
					<g>
						<g>
							<g>
								<path class="st3" d="M223.6,95.6h-33.8l6.1,36.3c0.3,1.6,1.4,2.8,2.9,3.2c0,0,0.1,0,0.1,0c0.1,0,0.2,0.1,0.3,0.1
									c0.2,0,0.5,0.1,0.7,0.1c0,0,0,0,0,0l0.2,0l0,0h15.1c0.3,0,0.6,0,0.8-0.1c1.8-0.3,3.2-1.7,3.4-3.5l2.9-25l0.1-1h0l1.2-9.9
									L223.6,95.6z M217.2,118.8h-3.5l0.4-10.5h4L217.2,118.8z M218.5,108.2h3.3l-1.2,10.5h-3L218.5,108.2z M208.5,130.5l-0.2-9.2
									h5l-0.3,9.2H208.5z M203.1,121.3h4.9l0.2,9.2h-4.4L203.1,121.3z M203.5,130.5h-4.1c-0.4-2.5-0.9-5.7-1.4-9.2h4.8
									L203.5,130.5z M202.9,118.8l-0.8-10.5h5.6l0.2,10.5H202.9z M208.3,118.8l-0.2-10.5h5.7l-0.4,10.5H208.3z M208,105.7
									l-0.2-9.8h6.4l-0.3,9.8H208z M207.6,105.7h-5.7l-0.8-9.8h6.2L207.6,105.7z M201.6,105.7h-6c-0.2-1.3-0.4-2.6-0.6-3.8
									c-0.6-3.9-0.9-5.4-1-6h6.9L201.6,105.7z M201.8,108.2l0.8,10.5h-5c-0.2-1.1-0.3-2.2-0.5-3.2c-0.4-2.5-0.8-5-1.2-7.3H201.8z
									 M197.3,118.8H194l-1.8-10.5h3.4C196.1,111.5,196.7,115.1,197.3,118.8z M197.7,121.3c0.5,3.2,1,6.3,1.4,9.2H196l-1.5-9.2
									H197.7z M213.4,130.5l0.3-9.2h3.3l-0.8,9.2H213.4z M214.2,105.7l0.3-9.8h4.7l-0.8,9.8H214.2z M193.6,95.9
									c0.1,0.7,0.8,4.5,1.6,9.8h-3.4l-1.6-9.8H193.6z M219.2,130.5h-2.6l0.8-9.2h2.9L219.2,130.5z M222.1,105.7h-3.4l0.8-9.8h3.7
									L222.1,105.7z"/>
							</g>
						</g>
					</g>
				</g>
			</g>
		</g>
		<g>
			<g>
				<g>
					<polygon class="st3" points="224.4,5.2 224.4,34.9 181.6,34.9 180.1,5.4 					"/>
				</g>
			</g>
			<g>
				<g>
					<rect x="180.1" y="5.4" class="st4" width="42.7" height="29.5"/>
				</g>
				<g>
					<path class="st3" d="M223,35.1h-43.1V5.2H223L223,35.1L223,35.1z M180.3,34.7h42.3V5.6h-42.3L180.3,34.7L180.3,34.7z"/>
				</g>
			</g>
			<g>
				<g>
					<g>
						<rect x="184.7" y="9.1" class="st4" width="33.5" height="22.2"/>
					</g>
				</g>
				<g>
					<g>
						<g>
							<path class="st3" d="M218.2,9.1c0,0-0.1,0-0.2,0c-0.1,0-0.3,0-0.5,0c-0.4,0-1,0-1.8,0c-1.6,0-3.9,0-6.9,0
								c-5.9,0-14.3,0-24.1,0l0.1-0.1c0,6.8,0,14.3,0,22.1v0l-0.1-0.1c12.6,0,24.3,0,33.5,0l-0.1,0.1c0-6.7,0-12.3,0-16.1
								c0-1.9,0-3.4,0-4.5c0-0.5,0-0.9,0-1.2C218.2,9.2,218.2,9.1,218.2,9.1s0,0.1,0,0.4c0,0.3,0,0.7,0,1.2c0,1,0,2.5,0,4.4
								c0,3.9,0,9.4,0,16.2v0.1h-0.1c-9.2,0-20.8,0-33.5,0h-0.1v-0.1v0c0-7.9,0-15.4,0-22.1V9h0.1c9.9,0,18.2,0,24.2,0
								c2.9,0,5.3,0,6.9,0c0.8,0,1.4,0,1.8,0c0.2,0,0.4,0,0.5,0C218.1,9.1,218.2,9.1,218.2,9.1z"/>
						</g>
					</g>
				</g>
			</g>
			<g>
				<g>
					<g>
						<path class="st3" d="M180.1,5.3c0,0,0.3,0.2,0.7,0.5s1,0.8,1.7,1.3s1.2,1,1.6,1.4c0.4,0.4,0.6,0.6,0.6,0.6
							c0,0-1.1-0.8-2.4-1.8C181.1,6.2,180.1,5.4,180.1,5.3z"/>
					</g>
				</g>
			</g>
			<g>
				<g>
					<g>
						<path class="st3" d="M222.8,5.4c0,0-1,0.9-2.2,1.9c-1.3,1-2.3,1.8-2.4,1.7s1-0.9,2.2-1.9C221.7,6.1,222.8,5.4,222.8,5.4z"/>
					</g>
				</g>
			</g>
			<g>
				<g>
					<g>
						<path class="st4" d="M222.8,34.9c-1.6-1.3-3.2-2.6-4.8-3.9"/>
					</g>
				</g>
				<g>
					<g>
						<g>
							<path class="st3" d="M218,31c0,0,1.1,0.8,2.4,1.8c1.3,1.1,2.4,2,2.3,2c0,0-1.1-0.8-2.4-1.8C219,32,218,31.1,218,31z"/>
						</g>
					</g>
				</g>
			</g>
			<g>
				<g>
					<g>
						<path class="st3" d="M180.1,34.9c0,0,1-0.9,2.2-1.9c1.3-1,2.3-1.8,2.4-1.7c0,0-1,0.9-2.2,1.9S180.1,34.9,180.1,34.9z"/>
					</g>
				</g>
			</g>
			<g>
				<g>
					<rect x="191.5" y="16" class="st3" width="21.1" height="7.4"/>
				</g>
			</g>
		</g>
	</g>
	<g id="Floor">
		<g>
			<g>
				<path class="st6" d="M223.6,135.7c0,0-49.3,0.1-110,0.1c-60.8,0-110.1,0-110.1-0.1c0,0,49.3-0.1,110.1-0.1
					C174.3,135.6,223.6,135.6,223.6,135.7z"/>
			</g>
		</g>
	</g>
	<g id="Device">
		<g>
			<g>
				<g>
					<g>
						<g>
							<g>
								<g>
									<g>
										<g>
											<path class="st7" d="M194.8,134.5h-162c-2.6,0-4.8-2.1-4.8-4.8V23.6c0-1.4,1.1-2.5,2.5-2.5h166.8c1.2,0,2.2,1,2.2,2.2
												v106.4C199.6,132.3,197.4,134.5,194.8,134.5z"/>
										</g>
									</g>
								</g>
							</g>
						</g>
					</g>
				</g>
				<g>
					<g>
						<g>
							<g>
								<g>
									<g>
										<g>
											<path class="st7" d="M202.2,136H25.4c-2.5,0-4.5-2-4.5-4.5v-5.4h185.8v5.4C206.7,134,204.7,136,202.2,136z"/>
										</g>
									</g>
								</g>
							</g>
						</g>
					</g>
				</g>
				<g>
					<g>
						<g>
							<g>
								<g>
									<g>
										<g>
											<rect x="32.6" y="25.6" class="st2" width="161.8" height="95.8"/>
										</g>
									</g>
								</g>
							</g>
						</g>
					</g>
				</g>
				<g>
					<g>
						<g>
							<g>
								<g>
									<g>
										<g>
											<polygon class="st6" points="96.9,126.1 99.2,129.8 131.6,129.8 133.8,126.1 											"/>
										</g>
									</g>
								</g>
							</g>
						</g>
					</g>
				</g>
			</g>
			<g>
				<g>
					<g>
						<g>
							<g>
								<g>
									<g>
										<rect x="28.1" y="126.1" class="st6" width="171.5" height="0.5"/>
									</g>
								</g>
							</g>
						</g>
					</g>
				</g>
			</g>
		</g>
	</g>
	<g id="Certification">
		<g>
			<g>
				<path class="st3" d="M78.5,21.1H60.6v-6.3c0-4.4,3.6-8.2,8-8.2l9.8,0.2L78.5,21.1L78.5,21.1z"/>
			</g>
			<g>
				<g>
					<path class="st4" d="M68.3,6.6c0,0,10.1-0.9,10.1,12.3s0,102.9,0,102.9H158V15.2c0-4.8-3.9-8.7-8.8-8.7L68.3,6.6z"/>
				</g>
				<g>
					<g>
						<path class="st6" d="M68.3,6.6c0.5,0,22.5-0.1,58.9-0.2c4.5,0,9.3,0,14.3,0c2.5,0,5,0,7.6,0c1.3,0,2.6,0.2,3.8,0.8
							c1.2,0.5,2.3,1.4,3.2,2.4c0.9,1,1.5,2.3,1.8,3.6c0.1,0.3,0.1,0.7,0.2,1c0,0.3,0,0.7,0.1,1c0,0.7,0,1.4,0,2.1
							c0,2.8,0,5.6,0,8.4c0,5.7,0,11.6,0,17.6c0,24,0,50.5,0,78.2c0,0.1,0,0.3,0,0.4v0.1H158c-28.3,0-55.3,0-79.6,0h-0.1v-0.1
							c0-35.6,0-65.9,0-87.2c0-5.3,0-10.1,0-14.3c0-1,0-2-0.1-3c0-1-0.2-1.9-0.4-2.7c-0.2-0.9-0.5-1.7-0.8-2.4
							c-0.3-0.7-0.7-1.4-1.1-2c-0.9-1.2-1.9-2-2.9-2.5c-1-0.5-1.9-0.8-2.6-0.9c-0.7-0.1-1.3-0.2-1.7-0.2C68.5,6.6,68.3,6.6,68.3,6.6
							s0.2,0,0.6,0c0.4,0,1,0,1.7,0.2c0.7,0.1,1.6,0.4,2.6,0.9c1,0.5,2,1.3,2.9,2.5c0.4,0.6,0.8,1.2,1.2,2c0.3,0.7,0.6,1.5,0.8,2.4
							c0.2,0.9,0.3,1.8,0.4,2.8c0.1,1,0.1,2,0.1,3c0,4.2,0,8.9,0,14.3c0,21.3,0,51.6,0,87.2l-0.1-0.1c24.3,0,51.3,0,79.6,0l-0.1,0.1
							c0-0.1,0-0.3,0-0.4c0-27.7,0-54.2,0-78.2c0-6,0-11.9,0-17.6c0-2.8,0-5.7,0-8.4c0-1.4,0.1-2.8-0.2-4.1
							c-0.3-1.3-0.9-2.5-1.8-3.5c-0.9-1-1.9-1.8-3.1-2.3c-1.2-0.5-2.5-0.8-3.8-0.7c-2.6,0-5.1,0-7.6,0c-5,0-9.7,0-14.3,0
							C90.8,6.6,68.8,6.6,68.3,6.6z"/>
					</g>
				</g>
			</g>
			<g>
				<g>
					<path class="st6" d="M112.5,37.8c0,0-4.8,0.1-10.8,0.1c-6,0-10.8,0-10.8-0.1s4.8-0.1,10.8-0.1
						C107.6,37.7,112.5,37.8,112.5,37.8z"/>
				</g>
			</g>
			<g>
				<g>
					<path class="st6" d="M117.3,40.4c0,0-5.9,0.1-13.2,0.1s-13.2,0-13.2-0.1s5.9-0.1,13.2-0.1S117.3,40.4,117.3,40.4z"/>
				</g>
			</g>
			<g>
				<g>
					<path class="st6" d="M119.1,50.6c0,0-6.1,0.1-13.7,0.1s-13.7,0-13.7-0.1s6.1-0.1,13.7-0.1C113,50.5,119.1,50.5,119.1,50.6z"/>
				</g>
			</g>
			<g>
				<g>
					<path class="st6" d="M136.9,60.5c0,0-10.2,0.1-22.8,0.1c-12.6,0-22.8,0-22.8-0.1s10.2-0.1,22.8-0.1
						C126.7,60.4,136.9,60.5,136.9,60.5z"/>
				</g>
			</g>
			<g>
				<g>
					<path class="st6" d="M136.9,63.5c0,0-10.2,0.1-22.8,0.1c-12.6,0-22.8,0-22.8-0.1s10.2-0.1,22.8-0.1
						C126.7,63.4,136.9,63.4,136.9,63.5z"/>
				</g>
			</g>
			<g>
				<g>
					<path class="st6" d="M136.9,66.4c0,0-10.2,0.1-22.8,0.1c-12.6,0-22.8,0-22.8-0.1s10.2-0.1,22.8-0.1
						C126.7,66.3,136.9,66.4,136.9,66.4z"/>
				</g>
			</g>
			<g>
				<g>
					<path class="st6" d="M136.9,69.4c0,0-10.2,0.1-22.8,0.1c-12.6,0-22.8,0-22.8-0.1s10.2-0.1,22.8-0.1
						C126.7,69.3,136.9,69.3,136.9,69.4z"/>
				</g>
			</g>
			<g>
				<g>
					<path class="st6" d="M136.9,72.3c0,0-10.2,0.1-22.8,0.1c-12.6,0-22.8,0-22.8-0.1s10.2-0.1,22.8-0.1
						C126.7,72.3,136.9,72.3,136.9,72.3z"/>
				</g>
			</g>
			<g>
				<g>
					<path class="st6" d="M108.6,75.3c0,0-3.9,0.1-8.7,0.1c-4.8,0-8.7,0-8.7-0.1s3.9-0.1,8.7-0.1C104.7,75.2,108.6,75.2,108.6,75.3z
						"/>
				</g>
			</g>
			<g>
				<g>
					<path class="st8" d="M145.1,60.1L137,79c-0.2,0.4,0.2,0.8,0.6,0.6l6.3-2.8c0.3-0.1,0.6,0,0.6,0.3l2.1,6.3
						c0.1,0.4,0.7,0.4,0.9,0l7.6-20.4L145.1,60.1z"/>
				</g>
				<g>
					<path class="st8" d="M155.7,63.2l3.9,20.2c0.1,0.4,0.6,0.5,0.9,0.2l3.6-5.8c0.1-0.2,0.5-0.3,0.7-0.1l5.3,4.1
						c0.4,0.3,0.9-0.1,0.8-0.5l-5.1-21.1L155.7,63.2z"/>
				</g>
				<g>
					<path class="st9" d="M145.1,60.1L137,79c-0.2,0.4,0.2,0.8,0.6,0.6l6.3-2.8c0.3-0.1,0.6,0,0.6,0.3l2.1,6.3
						c0.1,0.4,0.7,0.4,0.9,0l7.6-20.4L145.1,60.1z"/>
				</g>
				<g>
					<path class="st9" d="M155.7,63.2l3.9,20.2c0.1,0.4,0.6,0.5,0.9,0.2l3.6-5.8c0.1-0.2,0.5-0.3,0.7-0.1l5.3,4.1
						c0.4,0.3,0.9-0.1,0.8-0.5l-5.1-21.1L155.7,63.2z"/>
				</g>
				<g>
					<polygon class="st10" points="156.1,27 158.7,25 160.8,27.6 163.9,26.3 165.3,29.4 168.6,28.9 169.2,32.2 172.5,32.6 
						172.2,35.9 175.3,37.1 174.3,40.2 177,42.2 175.2,44.9 177.3,47.5 174.9,49.7 176.3,52.7 173.4,54.3 174,57.5 170.8,58.4 
						170.6,61.7 167.3,61.6 166.3,64.8 163.1,64 161.4,66.8 158.5,65.2 156.1,67.4 153.7,65.2 150.8,66.8 149,64 145.8,64.8 
						144.8,61.6 141.5,61.7 141.3,58.4 138.1,57.5 138.7,54.3 135.8,52.7 137.3,49.7 134.8,47.5 137,44.9 135.2,42.2 137.9,40.2 
						136.8,37.1 139.9,35.9 139.7,32.6 143,32.2 143.6,28.9 146.8,29.4 148.2,26.3 151.3,27.6 153.4,25 					"/>
				</g>
				<g>
					<ellipse transform="matrix(0.8112 -0.5847 0.5847 0.8112 2.4293 99.9821)" class="st4" cx="156.1" cy="46.2" rx="15" ry="15"/>
				</g>
				<g>
					<path class="st10" d="M159.3,42.7l4,0.6c0.7,0.1,0.9,0.9,0.4,1.4l-2.9,2.8c-0.2,0.2-0.3,0.5-0.2,0.7l0.7,4
						c0.1,0.7-0.6,1.2-1.2,0.8l-3.6-1.9c-0.2-0.1-0.5-0.1-0.8,0l-3.6,1.9c-0.6,0.3-1.3-0.2-1.2-0.9l0.7-4c0-0.3,0-0.5-0.2-0.7
						l-2.9-2.8c-0.5-0.5-0.2-1.3,0.4-1.4l4-0.6c0.3,0,0.5-0.2,0.6-0.4l1.8-3.6c0.3-0.6,1.2-0.6,1.4,0l1.8,3.6
						C158.9,42.5,159.1,42.6,159.3,42.7z"/>
				</g>
			</g>
			<g>
				<path class="st6" d="M98.4,22.5c0-1.1,0.8-1.8,2-1.8c0.7,0,1.2,0.2,1.5,0.7l-0.6,0.6c-0.2-0.3-0.5-0.4-0.8-0.4c-0.6,0-1,0.4-1,1
					c0,0.6,0.4,1,1,1c0.3,0,0.6-0.1,0.8-0.4l0.6,0.6c-0.3,0.4-0.9,0.7-1.5,0.7C99.3,24.4,98.4,23.6,98.4,22.5z"/>
				<path class="st6" d="M105.2,23.5v0.8h-2.9v-3.6h2.8v0.8h-1.8v0.6h1.6v0.8h-1.6v0.6L105.2,23.5L105.2,23.5z"/>
				<path class="st6" d="M107.3,23.4h-0.5v0.9h-1v-3.6h1.6c1,0,1.6,0.5,1.6,1.3c0,0.5-0.3,0.9-0.7,1.1l0.8,1.1H108L107.3,23.4z
					 M107.4,21.5h-0.6v1h0.6c0.4,0,0.6-0.2,0.6-0.5C108,21.7,107.8,21.5,107.4,21.5z"/>
				<path class="st6" d="M110.3,21.6h-1.1v-0.8h3.2v0.8h-1.1v2.8h-1V21.6z"/>
				<path class="st6" d="M112.7,20.8h1v3.6h-1V20.8z"/>
				<path class="st6" d="M115.5,21.5v0.8h1.6v0.8h-1.6v1.2h-1v-3.6h2.8v0.8C117.2,21.5,115.5,21.5,115.5,21.5z"/>
				<path class="st6" d="M117.7,20.8h1v3.6h-1V20.8z"/>
				<path class="st6" d="M119.3,22.5c0-1.1,0.8-1.8,2-1.8c0.7,0,1.2,0.2,1.5,0.7l-0.6,0.6c-0.2-0.3-0.5-0.4-0.8-0.4
					c-0.6,0-1,0.4-1,1c0,0.6,0.4,1,1,1c0.3,0,0.6-0.1,0.8-0.4l0.6,0.6c-0.3,0.4-0.9,0.7-1.5,0.7C120.1,24.4,119.3,23.6,119.3,22.5z"
					/>
				<path class="st6" d="M125.5,23.6H124l-0.3,0.7h-1l1.6-3.6h1l1.6,3.6h-1L125.5,23.6z M125.2,22.9l-0.5-1.1l-0.5,1.1H125.2z"/>
				<path class="st6" d="M127.7,21.6h-1.1v-0.8h3.2v0.8h-1.1v2.8h-1V21.6z"/>
				<path class="st6" d="M130.2,20.8h1v3.6h-1V20.8z"/>
				<path class="st6" d="M131.7,22.5c0-1.1,0.8-1.8,2-1.8s2,0.8,2,1.8c0,1.1-0.8,1.8-2,1.8S131.7,23.6,131.7,22.5z M134.6,22.5
					c0-0.6-0.4-1-1-1c-0.5,0-1,0.4-1,1c0,0.6,0.4,1,1,1C134.2,23.5,134.6,23.1,134.6,22.5z"/>
				<path class="st6" d="M139.6,20.8v3.6h-0.8l-1.6-1.9v1.9h-1v-3.6h0.8l1.6,1.9v-1.9H139.6z"/>
			</g>
			<g>
				<g>
					<path class="st6" d="M143.6,87.8c0,0-4.5,0.1-10.1,0.1c-5.6,0-10.1,0-10.1-0.1c0,0,4.5-0.1,10.1-0.1
						C139.1,87.7,143.6,87.7,143.6,87.8z"/>
				</g>
			</g>
			<g>
				<g>
					<path class="st6" d="M143.6,90.6c0,0-4.5,0.1-10.1,0.1c-5.6,0-10.1,0-10.1-0.1c0,0,4.5-0.1,10.1-0.1
						C139.1,90.6,143.6,90.6,143.6,90.6z"/>
				</g>
			</g>
			<g>
				<g>
					<g>
						<path class="st10" d="M142.3,103.1c0,0,0,0,0-0.1c0-0.1,0-0.2,0-0.4c0-0.1,0-0.2,0-0.3c0-0.1,0-0.2-0.1-0.4
							c0-0.3-0.1-0.6-0.2-0.9c-0.2-0.7-0.5-1.5-1-2.3c-0.5-0.8-1.2-1.7-2.2-2.5c-1-0.7-2.2-1.4-3.7-1.6c-1.4-0.2-3-0.2-4.6,0.4
							c-0.4,0.1-0.8,0.3-1.1,0.5c-0.4,0.2-0.7,0.4-1.1,0.7c-0.4,0.2-0.7,0.5-1,0.8c-0.3,0.3-0.6,0.6-0.9,1c-0.5,0.7-1,1.5-1.2,2.4
							c-0.3,0.9-0.4,1.8-0.4,2.7c0,0.9,0.2,1.9,0.4,2.7c0.3,0.9,0.7,1.7,1.2,2.4c0.3,0.4,0.6,0.7,0.9,1c0.3,0.3,0.6,0.6,1,0.8
							c0.3,0.3,0.7,0.5,1.1,0.7c0.4,0.2,0.7,0.4,1.1,0.5c1.5,0.6,3.1,0.6,4.6,0.4c1.4-0.3,2.7-0.9,3.7-1.6c1-0.7,1.7-1.6,2.2-2.5
							c0.5-0.8,0.8-1.6,1-2.3c0.1-0.3,0.1-0.6,0.2-0.9c0-0.1,0-0.3,0.1-0.4c0-0.1,0-0.2,0-0.3c0-0.2,0-0.3,0-0.4
							C142.3,103.1,142.3,103.1,142.3,103.1c0,0,0,0,0,0.1c0,0.1,0,0.2,0,0.4c0,0.1,0,0.2,0,0.3c0,0.1,0,0.2,0,0.4
							c0,0.3-0.1,0.6-0.2,0.9c-0.1,0.7-0.5,1.5-1,2.4c-0.5,0.9-1.2,1.8-2.2,2.5c-1,0.8-2.3,1.4-3.7,1.7c-1.4,0.3-3.1,0.2-4.7-0.4
							c-0.4-0.1-0.8-0.3-1.2-0.5c-0.4-0.2-0.7-0.4-1.1-0.7c-0.4-0.2-0.7-0.6-1-0.9c-0.3-0.3-0.6-0.7-0.9-1c-0.5-0.7-1-1.5-1.3-2.4
							c-0.3-0.9-0.4-1.8-0.5-2.8c0-1,0.2-1.9,0.5-2.8c0.3-0.9,0.7-1.7,1.3-2.4c0.3-0.4,0.6-0.7,0.9-1c0.3-0.3,0.6-0.6,1-0.9
							c0.3-0.3,0.7-0.5,1.1-0.7c0.4-0.2,0.8-0.4,1.2-0.5c1.6-0.6,3.2-0.6,4.7-0.4c1.5,0.3,2.7,0.9,3.7,1.7c1,0.8,1.7,1.7,2.2,2.5
							c0.5,0.9,0.8,1.7,1,2.4c0.1,0.3,0.1,0.6,0.2,0.9c0,0.1,0,0.3,0,0.4c0,0.1,0,0.2,0,0.3c0,0.2,0,0.3,0,0.4
							C142.3,103,142.3,103.1,142.3,103.1z"/>
					</g>
				</g>
				<g>
					<ellipse class="st10" cx="133.5" cy="103.1" rx="5.6" ry="5.6"/>
				</g>
			</g>
			<g>
				<g>
					<path class="st6" d="M146,98.2c0,0-0.1,0-0.2,0.1c-0.2,0.1-0.4,0.2-0.7,0.4c-0.6,0.3-1.5,0.8-2.7,1.4c-1.2,0.6-2.6,1.4-4.3,2.2
						c-0.4,0.2-0.9,0.4-1.4,0.4c-0.5,0.1-1.1-0.1-1.5-0.4c-0.2-0.2-0.4-0.4-0.4-0.7c-0.1-0.3,0-0.6,0.2-0.8c0.2-0.2,0.5-0.4,0.8-0.4
						c0.3,0,0.7,0.1,0.8,0.4l0,0v0c0,0.9-0.3,1.8-0.9,2.6c-0.6,0.7-1.6,1.3-2.6,1.3c-1,0.1-2.1-0.3-2.9-1.1
						c-0.4-0.4-0.7-0.8-0.8-1.4c0-0.3,0-0.6,0.1-0.9c0.1-0.3,0.4-0.5,0.6-0.6c0.3-0.1,0.6-0.1,0.9,0.1c0.2,0.2,0.4,0.5,0.5,0.7
						c0.1,0.3,0.1,0.6,0.1,0.9c0,0.1,0,0.3,0,0.4c0,0.1,0,0.3-0.1,0.4c-0.2,1.2-0.9,2.3-1.8,3c-0.9,0.8-2.2,1.2-3.5,1
						c-1.2-0.2-2.4-0.9-3.2-1.9c-0.4-0.6-0.8-1.3-0.9-2c-0.1-0.7-0.1-1.5,0.2-2.1c0.1-0.3,0.4-0.6,0.7-0.8c0.3-0.2,0.7-0.3,1.1-0.2
						c0.4,0.1,0.7,0.4,0.8,0.7c0.2,0.3,0.3,0.7,0.3,1c0.3,1.3,0.2,2.7-0.2,4c-0.4,1.2-1.3,2.3-2.4,3c-1.1,0.7-2.4,0.9-3.6,0.8
						c-0.6-0.1-1.2-0.3-1.7-0.5c-0.5-0.3-1-0.7-1.3-1.1c-0.7-0.9-1.1-2-1.1-3c0-0.5,0.1-1,0.3-1.5c0.2-0.5,0.5-0.9,1-1
						c0.2-0.1,0.5-0.1,0.7,0c0.2,0.1,0.4,0.2,0.6,0.4c0.3,0.3,0.5,0.7,0.7,1.1c0.1,0.4,0.2,0.8,0.2,1.2c0,0.2,0,0.4,0,0.6
						c0,0.2,0,0.4,0,0.6c-0.1,1.5-0.6,2.7-1.1,3.7c-0.5,0.9-1,1.6-1.4,2c-0.2,0.2-0.3,0.4-0.4,0.4c-0.1,0.1-0.2,0.1-0.2,0.1
						s0-0.1,0.1-0.2c0.1-0.1,0.3-0.2,0.4-0.5c0.4-0.4,0.9-1.1,1.4-2c0.5-0.9,0.9-2.2,1.1-3.7c0-0.2,0-0.4,0-0.6c0-0.2,0-0.4,0-0.6
						c0-0.4-0.1-0.8-0.2-1.2c-0.1-0.4-0.4-0.8-0.7-1.1c-0.2-0.1-0.3-0.3-0.6-0.3c-0.2-0.1-0.4,0-0.7,0c-0.4,0.1-0.7,0.5-0.9,1
						c-0.2,0.4-0.3,0.9-0.3,1.4c0,1,0.4,2.1,1.1,2.9c0.3,0.4,0.8,0.8,1.3,1.1s1,0.4,1.6,0.5c1.2,0.1,2.4-0.1,3.5-0.8
						c1.1-0.6,1.9-1.7,2.3-2.9c0.5-1.2,0.5-2.6,0.2-3.9c-0.1-0.3-0.2-0.7-0.3-0.9c-0.2-0.3-0.4-0.5-0.7-0.6c-0.3-0.1-0.7,0-0.9,0.2
						c-0.3,0.2-0.5,0.4-0.6,0.8c-0.3,0.6-0.3,1.4-0.2,2c0.1,0.7,0.5,1.3,0.9,1.9c0.8,1,1.9,1.7,3.1,1.9c1.2,0.2,2.4-0.2,3.3-1
						c0.9-0.7,1.6-1.8,1.8-2.9c0-0.1,0-0.3,0.1-0.4c0-0.1,0-0.3,0-0.4c0-0.3,0-0.6-0.1-0.8c-0.1-0.3-0.2-0.5-0.4-0.7
						c-0.2-0.2-0.5-0.2-0.7-0.1c-0.2,0.1-0.4,0.3-0.6,0.5c-0.1,0.2-0.1,0.5-0.1,0.8c0.1,0.5,0.4,1,0.8,1.3c0.8,0.7,1.8,1.1,2.8,1
						c1,0,1.9-0.5,2.5-1.3c0.6-0.7,0.9-1.6,0.9-2.5l0,0c-0.1-0.3-0.4-0.4-0.6-0.4c-0.3,0-0.5,0.1-0.7,0.3c-0.2,0.2-0.2,0.5-0.2,0.7
						c0.1,0.3,0.2,0.5,0.4,0.6c0.4,0.3,0.9,0.5,1.4,0.4c0.5,0,0.9-0.2,1.4-0.4c1.7-0.8,3.1-1.6,4.3-2.2c1.2-0.6,2.1-1.1,2.7-1.4
						c0.3-0.2,0.5-0.3,0.7-0.4C146,98.2,146,98.2,146,98.2z"/>
				</g>
			</g>
			<g>
				<g>
					<path class="st3" d="M116.7,17.3c0,0-6.9,0.1-15.5,0.1c-8.6,0-15.5,0-15.5-0.1s6.9-0.1,15.5-0.1
						C109.7,17.3,116.7,17.3,116.7,17.3z"/>
				</g>
			</g>
			<g>
				<g>
					<path class="st3" d="M121.8,17.3c0,0-0.5,0.1-1.1,0.1c-0.6,0-1.1,0-1.1-0.1s0.5-0.1,1.1-0.1C121.4,17.3,121.8,17.3,121.8,17.3z
						"/>
				</g>
			</g>
			<g>
				<g>
					<path class="st3" d="M152.7,17.3c0,0-6.3,0.1-14.1,0.1s-14.1,0-14.1-0.1s6.3-0.1,14.1-0.1C146.3,17.3,152.7,17.3,152.7,17.3z"
						/>
				</g>
			</g>
			<g>
				<g>
					<path class="st3" d="M116.7,26c0,0-6.9,0.1-15.5,0.1c-8.6,0-15.5,0-15.5-0.1s6.9-0.1,15.5-0.1C109.7,25.9,116.7,25.9,116.7,26z
						"/>
				</g>
			</g>
			<g>
				<g>
					<path class="st3" d="M121.8,26c0,0-0.5,0.1-1.1,0.1c-0.6,0-1.1,0-1.1-0.1s0.5-0.1,1.1-0.1C121.4,25.9,121.8,25.9,121.8,26z"/>
				</g>
			</g>
			<g>
				<g>
					<path class="st3" d="M152.7,26c0,0-6.3,0.1-14.1,0.1s-14.1,0-14.1-0.1s6.3-0.1,14.1-0.1C146.3,25.9,152.7,25.9,152.7,26z"/>
				</g>
			</g>
		</g>
	</g>
	<g id="Plant_1_">
		<g>
			<g>
				<g>
					<path class="st6" d="M214.3,58.1c0,0-3.9,16-21.4,12.3C192.9,70.5,198,54.3,214.3,58.1z"/>
				</g>
				<g>
					<path class="st6" d="M205.9,82.4c0,0-8,12-21.3,3.7C184.6,86.1,193.6,74.3,205.9,82.4z"/>
				</g>
				<g>
					<path class="st6" d="M193.1,100.6c0,0-11.7,10-22.9-2.4C170.2,98.3,182.9,88.8,193.1,100.6z"/>
				</g>
				<g>
					<path class="st6" d="M180.7,61.9c0,0,13,6.2,6.7,20.6C187.4,82.5,174.4,75.2,180.7,61.9z"/>
				</g>
				<g>
					<path class="st6" d="M177.9,79.2c0,0,6.5,8.7-3.2,16.3C174.7,95.4,168.6,86,177.9,79.2z"/>
				</g>
				<g>
					<path class="st6" d="M207.9,39.4c0,0,1.5,13-12.5,15.1C195.4,54.5,194.7,41,207.9,39.4z"/>
				</g>
				<g>
					<path class="st6" d="M187.8,26.3c0,0,11.3,4.7,6.4,18C194.2,44.3,182.9,38.6,187.8,26.3z"/>
				</g>
				<g>
					<path class="st6" d="M181,45.2c0,0,15,1.7,13.7,18C194.7,63.3,179.3,60.5,181,45.2z"/>
				</g>
				<g>
					<g>
						<path class="st6" d="M159.6,102.3c0,0,0.1,0,0.2-0.1c0.1,0,0.3-0.1,0.6-0.2c0.5-0.1,1.2-0.3,2.2-0.6c1.9-0.6,4.5-1.5,7.6-3.2
							c3.1-1.6,6.5-4,9.8-7.2c1.7-1.6,3.3-3.4,4.8-5.3c0.4-0.5,0.7-1,1.1-1.5c0.2-0.3,0.4-0.5,0.6-0.8c0.2-0.3,0.4-0.5,0.5-0.8
							c0.4-0.5,0.7-1.1,1.1-1.6c0.3-0.6,0.6-1.1,1-1.7c0.2-0.3,0.3-0.6,0.5-0.9c0.1-0.3,0.3-0.6,0.4-0.9c0.3-0.6,0.6-1.2,0.9-1.7
							c0.3-0.6,0.5-1.2,0.7-1.8c0.1-0.3,0.3-0.6,0.4-0.9c0.1-0.3,0.2-0.6,0.3-0.9c0.2-0.6,0.4-1.2,0.6-1.7c0.2-0.6,0.3-1.2,0.5-1.7
							c0.1-0.3,0.2-0.6,0.3-0.9c0.1-0.3,0.1-0.6,0.2-0.9c0.1-0.6,0.3-1.1,0.4-1.7c1-4.5,1.2-8.6,1.1-12.1c-0.1-3.5-0.6-6.2-0.9-8.2
							c-0.2-0.9-0.4-1.7-0.5-2.2c-0.1-0.2-0.1-0.4-0.1-0.6c0-0.1,0-0.2,0-0.2s0,0.1,0.1,0.2c0,0.1,0.1,0.3,0.1,0.6
							c0.1,0.5,0.3,1.2,0.5,2.2c0.3,1.9,0.9,4.7,1,8.2c0.1,3.5-0.1,7.6-1.1,12.1c-0.1,0.6-0.3,1.1-0.4,1.7c-0.1,0.3-0.1,0.6-0.2,0.9
							c-0.1,0.3-0.2,0.6-0.3,0.9c-0.2,0.6-0.3,1.2-0.5,1.8c-0.2,0.6-0.4,1.2-0.6,1.8c-0.1,0.3-0.2,0.6-0.3,0.9
							c-0.1,0.3-0.2,0.6-0.4,0.9c-0.2,0.6-0.5,1.2-0.8,1.8c-0.3,0.6-0.6,1.2-0.9,1.8c-0.1,0.3-0.3,0.6-0.4,0.9
							c-0.2,0.3-0.3,0.6-0.5,0.9c-0.3,0.6-0.7,1.1-1,1.7c-0.4,0.5-0.7,1.1-1.1,1.6c-0.2,0.3-0.3,0.5-0.5,0.8
							c-0.2,0.3-0.4,0.5-0.6,0.8c-0.4,0.5-0.8,1-1.1,1.5c-1.6,2-3.2,3.7-4.9,5.3c-3.3,3.2-6.8,5.5-9.8,7.2c-3.1,1.6-5.7,2.6-7.6,3.1
							c-0.9,0.3-1.7,0.5-2.2,0.6c-0.2,0.1-0.4,0.1-0.6,0.1C159.7,102.2,159.6,102.3,159.6,102.3z"/>
					</g>
				</g>
			</g>
			<g>
				<g>
					<path class="st7" d="M176.5,86.2c0,0,0,0.1,0,0.4c0,0.2-0.1,0.6-0.1,1c-0.1,0.8-0.3,2-0.5,3.2c-0.2,1.3-0.5,2.4-0.7,3.2
						c-0.1,0.4-0.2,0.7-0.3,1c-0.1,0.2-0.1,0.3-0.1,0.3c0,0,0-0.1,0.1-0.4c0.1-0.3,0.1-0.6,0.2-1c0.2-0.8,0.4-2,0.7-3.2
						c0.2-1.3,0.4-2.4,0.6-3.2c0.1-0.4,0.1-0.7,0.2-1C176.4,86.4,176.4,86.2,176.5,86.2z"/>
				</g>
			</g>
			<g>
				<g>
					<path class="st7" d="M179.6,99.2c0,0-0.1,0-0.4,0c-0.3,0-0.6-0.1-1-0.1c-0.8-0.1-2-0.3-3.3-0.4c-1.3-0.2-2.5-0.3-3.3-0.3
						c-0.4,0-0.7-0.1-1-0.1c-0.2,0-0.4,0-0.4-0.1s0.1,0,0.4,0c0.2,0,0.6,0,1,0c0.8,0,2,0.1,3.3,0.3c1.3,0.2,2.5,0.3,3.3,0.5
						c0.4,0.1,0.8,0.1,1,0.2C179.5,99.2,179.7,99.2,179.6,99.2z"/>
				</g>
			</g>
			<g>
				<g>
					<path class="st7" d="M195.4,83.3c0,0-0.2,0-0.4,0.1c-0.3,0.1-0.7,0.1-1.2,0.2c-1,0.2-2.4,0.5-3.9,0.9s-2.9,0.7-3.9,1
						c-0.5,0.1-0.9,0.2-1.2,0.3c-0.3,0.1-0.4,0.1-0.4,0.1s0.1-0.1,0.4-0.2c0.3-0.1,0.7-0.2,1.1-0.4c1-0.3,2.3-0.7,3.9-1.1
						s2.9-0.6,3.9-0.8c0.5-0.1,0.9-0.1,1.2-0.2C195.3,83.3,195.4,83.3,195.4,83.3z"/>
				</g>
			</g>
			<g>
				<g>
					<path class="st7" d="M184,71.1c0,0,0.1,0.1,0.3,0.4c0.2,0.3,0.4,0.6,0.6,1.1c0.5,1,1.1,2.4,1.6,4c0.5,1.6,0.7,3.1,0.8,4.2
						c0,0.6,0.1,1,0.1,1.3c0,0.3,0,0.5,0,0.5c0,0,0-0.2-0.1-0.5c0-0.3-0.1-0.8-0.1-1.3c-0.1-1.1-0.4-2.6-0.8-4.2c-0.5-1.6-1-3-1.5-4
						c-0.2-0.5-0.4-0.9-0.6-1.2C184,71.2,184,71.1,184,71.1z"/>
				</g>
			</g>
			<g>
				<g>
					<path class="st7" d="M201.4,63.6c0,0-0.1,0.1-0.3,0.2c-0.3,0.2-0.6,0.4-1,0.6c-0.8,0.5-1.9,1.3-3.1,2.2
						c-1.1,0.9-2.1,1.8-2.8,2.5c-0.3,0.3-0.6,0.6-0.8,0.8c-0.2,0.2-0.3,0.3-0.3,0.3s0.1-0.1,0.3-0.3c0.2-0.2,0.4-0.5,0.8-0.8
						c0.7-0.7,1.6-1.6,2.8-2.6c1.2-0.9,2.3-1.7,3.1-2.2c0.4-0.3,0.8-0.5,1-0.6C201.2,63.7,201.4,63.6,201.4,63.6z"/>
				</g>
			</g>
			<g>
				<g>
					<path class="st7" d="M185,51.8c0,0,0,0,0.1,0.1c0.1,0.1,0.2,0.2,0.3,0.3c0.3,0.3,0.7,0.6,1.2,1.1c1,1,2.3,2.3,3.7,3.9
						c1.4,1.6,2.5,3.1,3.3,4.2c0.4,0.6,0.7,1,0.9,1.3c0.1,0.1,0.2,0.3,0.2,0.4c0.1,0.1,0.1,0.1,0.1,0.1c0,0,0,0-0.1-0.1
						c-0.1-0.1-0.2-0.2-0.3-0.4c-0.2-0.3-0.6-0.8-1-1.3c-0.8-1.1-2-2.6-3.3-4.2c-1.4-1.6-2.7-3-3.6-4c-0.5-0.5-0.9-0.9-1.1-1.2
						c-0.1-0.1-0.2-0.2-0.3-0.3C185,51.8,185,51.8,185,51.8z"/>
				</g>
			</g>
			<g>
				<g>
					<path class="st7" d="M203.1,43.6c0,0-0.1,0.2-0.3,0.4c-0.2,0.3-0.5,0.6-0.9,1.1c-0.8,0.9-1.8,2.2-2.8,3.7s-1.9,2.9-2.6,3.9
						c-0.3,0.5-0.5,0.9-0.7,1.2c-0.2,0.3-0.3,0.4-0.3,0.4c0,0,0.1-0.2,0.2-0.5c0.2-0.3,0.4-0.7,0.7-1.2c0.6-1,1.5-2.4,2.5-3.9
						c1.1-1.5,2.1-2.8,2.9-3.6c0.4-0.4,0.7-0.8,1-1C202.9,43.8,203.1,43.6,203.1,43.6z"/>
				</g>
			</g>
			<g>
				<g>
					<path class="st7" d="M189.5,31.3c0,0,0.1,0.2,0.2,0.5c0.1,0.3,0.3,0.8,0.6,1.3c0.5,1.1,1.1,2.7,1.8,4.4
						c0.6,1.7,1.2,3.3,1.6,4.5c0.2,0.6,0.3,1.1,0.4,1.4c0.1,0.3,0.1,0.5,0.1,0.5c0,0-0.1-0.2-0.2-0.5c-0.1-0.4-0.3-0.8-0.5-1.4
						c-0.4-1.2-1-2.7-1.6-4.5c-0.6-1.7-1.3-3.3-1.7-4.4c-0.2-0.5-0.4-1-0.5-1.3C189.5,31.5,189.5,31.3,189.5,31.3z"/>
				</g>
			</g>
		</g>
		<g>
			<g>
				<g>
					<path class="st6" d="M18.1,54.6c0,0,3.7,15.1,20.2,11.7C38.3,66.2,33.5,50.9,18.1,54.6z"/>
				</g>
				<g>
					<path class="st6" d="M26,77.5c0,0,7.6,11.3,20.1,3.5C46.2,81,37.6,69.8,26,77.5z"/>
				</g>
				<g>
					<path class="st6" d="M38.1,94.7c0,0,11.1,9.4,21.7-2.3C59.8,92.5,47.8,83.5,38.1,94.7z"/>
				</g>
				<g>
					<path class="st6" d="M49.9,58.1c0,0-12.3,5.9-6.3,19.4C43.5,77.6,55.8,70.7,49.9,58.1z"/>
				</g>
				<g>
					<path class="st6" d="M52.5,74.5c0,0-6.1,8.3,3,15.4C55.5,89.8,61.3,80.9,52.5,74.5z"/>
				</g>
				<g>
					<path class="st6" d="M24.1,36.9c0,0-1.4,12.3,11.8,14.2C36,51.1,36.6,38.4,24.1,36.9z"/>
				</g>
				<g>
					<path class="st6" d="M43.1,24.5c0,0-10.7,4.5-6.1,17C37.1,41.5,47.8,36.2,43.1,24.5z"/>
				</g>
				<g>
					<path class="st6" d="M49.6,42.4c0,0-14.2,1.6-12.9,17.1C36.6,59.4,51.1,56.9,49.6,42.4z"/>
				</g>
				<g>
					<g>
						<path class="st6" d="M72.9,97.3c0,0-0.1,0-0.2,0c-0.1,0-0.3-0.1-0.6-0.1c-0.5-0.1-1.2-0.3-2.1-0.5c-1.8-0.5-4.5-1.4-7.6-2.8
							c-1.6-0.7-3.2-1.6-4.9-2.7c-1.7-1.1-3.5-2.3-5.2-3.8c-1.7-1.5-3.5-3.1-5.1-5c-0.4-0.5-0.8-1-1.2-1.4c-0.4-0.5-0.8-1-1.1-1.5
							c-0.2-0.3-0.4-0.5-0.6-0.8c-0.2-0.3-0.4-0.5-0.5-0.8c-0.3-0.5-0.7-1.1-1.1-1.6c-0.6-1.1-1.3-2.2-1.8-3.4
							c-0.6-1.1-1.1-2.3-1.5-3.4c-0.9-2.3-1.6-4.6-2.1-6.8c-1-4.4-1.4-8.5-1.3-12c0.1-3.4,0.5-6.2,0.9-8.1c0.2-0.9,0.4-1.7,0.5-2.1
							c0.1-0.2,0.1-0.4,0.1-0.6c0-0.1,0.1-0.2,0.1-0.2s0,0.1,0,0.2c0,0.1-0.1,0.3-0.1,0.6c-0.1,0.5-0.3,1.2-0.5,2.2
							c-0.3,1.9-0.8,4.6-0.9,8.1c-0.1,3.4,0.3,7.5,1.3,11.9c0.5,2.2,1.2,4.5,2.1,6.8c0.5,1.1,0.9,2.3,1.5,3.4
							c0.5,1.2,1.2,2.3,1.8,3.4c0.3,0.6,0.7,1.1,1.1,1.6c0.2,0.3,0.4,0.5,0.5,0.8c0.2,0.3,0.4,0.5,0.6,0.8c0.4,0.5,0.7,1,1.1,1.5
							c0.4,0.5,0.8,1,1.2,1.4c1.6,1.9,3.3,3.5,5.1,5c1.7,1.5,3.5,2.7,5.2,3.8c1.7,1.1,3.3,2,4.9,2.7c3.1,1.5,5.7,2.4,7.6,2.9
							c0.9,0.3,1.6,0.4,2.1,0.6c0.2,0.1,0.4,0.1,0.6,0.1C72.8,97.3,72.9,97.3,72.9,97.3z"/>
					</g>
				</g>
			</g>
			<g>
				<g>
					<path class="st7" d="M53.8,81.1c0,0,0,0.1,0.1,0.3c0,0.3,0.1,0.6,0.2,0.9c0.1,0.8,0.3,1.9,0.5,3.1c0.2,1.2,0.5,2.3,0.7,3
						c0.1,0.4,0.2,0.7,0.2,0.9c0,0.2,0.1,0.3,0.1,0.3c0,0-0.1-0.1-0.1-0.3c-0.1-0.2-0.2-0.5-0.3-0.9c-0.2-0.8-0.5-1.8-0.7-3
						c-0.2-1.2-0.4-2.3-0.5-3.1c0-0.4-0.1-0.7-0.1-0.9C53.8,81.2,53.8,81.1,53.8,81.1z"/>
				</g>
			</g>
			<g>
				<g>
					<path class="st7" d="M50.8,93.4c0,0,0.1,0,0.3-0.1c0.2-0.1,0.5-0.1,0.9-0.2c0.8-0.1,1.9-0.3,3.1-0.5c1.2-0.1,2.3-0.2,3.1-0.3
						c0.4,0,0.7,0,1,0c0.2,0,0.4,0,0.4,0c0,0-0.1,0-0.3,0.1c-0.3,0-0.6,0.1-0.9,0.1c-0.8,0.1-1.9,0.2-3.1,0.3
						c-1.2,0.1-2.3,0.3-3.1,0.4c-0.4,0.1-0.7,0.1-0.9,0.1C51,93.4,50.8,93.4,50.8,93.4z"/>
				</g>
			</g>
			<g>
				<g>
					<path class="st7" d="M35.9,78.4c0,0,0.2,0,0.4,0c0.3,0,0.7,0.1,1.1,0.2c1,0.2,2.3,0.4,3.7,0.8c1.4,0.3,2.7,0.7,3.6,1
						c0.5,0.1,0.8,0.3,1.1,0.4c0.3,0.1,0.4,0.2,0.4,0.2s-0.2,0-0.4-0.1c-0.3-0.1-0.7-0.2-1.1-0.3c-0.9-0.3-2.2-0.6-3.6-1
						c-1.4-0.3-2.7-0.6-3.7-0.8c-0.4-0.1-0.8-0.2-1.1-0.2C36.1,78.4,35.9,78.4,35.9,78.4z"/>
				</g>
			</g>
			<g>
				<g>
					<path class="st7" d="M46.7,66.8c0,0-0.1,0.2-0.2,0.4c-0.1,0.3-0.3,0.6-0.6,1.1c-0.5,0.9-1,2.3-1.4,3.8c-0.4,1.5-0.7,2.9-0.8,4
						c-0.1,0.5-0.1,0.9-0.1,1.2s0,0.4,0,0.4c0,0,0-0.2,0-0.5c0-0.3,0-0.7,0.1-1.2c0.1-1,0.3-2.5,0.7-4c0.4-1.5,1-2.9,1.5-3.8
						c0.2-0.5,0.4-0.8,0.6-1.1C46.6,66.9,46.7,66.8,46.7,66.8z"/>
				</g>
			</g>
			<g>
				<g>
					<path class="st7" d="M30.3,59.7c0,0,0.1,0.1,0.4,0.2c0.2,0.1,0.5,0.3,0.9,0.6c0.8,0.5,1.8,1.2,2.9,2.1c1.1,0.9,2,1.8,2.6,2.4
						c0.3,0.3,0.6,0.6,0.7,0.8c0.2,0.2,0.3,0.3,0.2,0.3c0,0-0.1-0.1-0.3-0.3c-0.2-0.2-0.5-0.5-0.8-0.8c-0.7-0.6-1.6-1.5-2.7-2.4
						c-1.1-0.9-2.1-1.6-2.9-2.1c-0.4-0.2-0.7-0.4-0.9-0.6C30.4,59.8,30.3,59.8,30.3,59.7z"/>
				</g>
			</g>
			<g>
				<g>
					<path class="st7" d="M45.8,48.5c0,0-0.1,0.2-0.4,0.4c-0.3,0.3-0.6,0.6-1.1,1.1c-0.9,0.9-2.1,2.2-3.4,3.7
						c-1.3,1.5-2.4,2.9-3.2,4c-0.4,0.5-0.7,0.9-0.9,1.2c-0.2,0.3-0.3,0.5-0.3,0.4s0.1-0.2,0.3-0.5c0.2-0.3,0.5-0.7,0.9-1.3
						c0.8-1.1,1.8-2.5,3.1-4c1.3-1.5,2.5-2.8,3.5-3.7c0.5-0.5,0.8-0.8,1.1-1.1C45.6,48.7,45.8,48.5,45.8,48.5z"/>
				</g>
			</g>
			<g>
				<g>
					<path class="st7" d="M28.7,40.9c0,0,0.1,0.1,0.4,0.3c0.2,0.2,0.5,0.6,0.9,1c0.7,0.8,1.7,2,2.7,3.4c1,1.4,1.8,2.7,2.4,3.7
						c0.3,0.5,0.5,0.9,0.6,1.2c0.1,0.3,0.2,0.4,0.2,0.4c0,0-0.1-0.1-0.3-0.4c-0.2-0.3-0.4-0.7-0.7-1.1c-0.6-1-1.4-2.3-2.4-3.7
						c-1-1.4-2-2.6-2.7-3.5c-0.3-0.4-0.6-0.8-0.9-1C28.8,41,28.7,40.9,28.7,40.9z"/>
				</g>
			</g>
			<g>
				<g>
					<path class="st7" d="M41.5,29.2c0,0,0,0.2-0.2,0.5c-0.1,0.3-0.3,0.8-0.5,1.3c-0.4,1.1-1,2.6-1.6,4.2c-0.6,1.6-1.1,3.2-1.5,4.2
						c-0.2,0.5-0.3,1-0.4,1.3c-0.1,0.3-0.2,0.5-0.2,0.5c0,0,0-0.2,0.1-0.5c0.1-0.3,0.2-0.8,0.4-1.3c0.3-1.1,0.9-2.6,1.5-4.3
						c0.6-1.6,1.2-3.1,1.7-4.2c0.2-0.5,0.4-1,0.5-1.3C41.4,29.4,41.5,29.2,41.5,29.2z"/>
				</g>
			</g>
		</g>
	</g>
	<g id="Character">
		<g>
			<g>
				<g>
					<g>
						<g>
							<g>
								<path class="st6" d="M72.9,44.7c2.4,0.3,2.7,2.8,3.6,4.8c0.9,2.1,2.6,3.9,3.9,5.7c0.7,1,1.6,1.8,1.9,3
									c0.3,1.2-0.3,2.5-0.5,3.7c-0.3,1.2-0.1,2.7,1.1,3.3c-0.3,0.3-0.7,0.5-1.1,0.5c0,0.6-0.5,1.1-1.1,1.2c-0.6,0.2-1.2,0.1-1.8,0
									c0.2,0.4-0.2,0.8-0.6,1c-0.4,0.1-0.9,0.1-1.3,0c-0.4-0.1-0.9-0.2-1.3-0.1c-1,0.2-1.6,1.3-2.5,1.4c-1.4,0.2-2.3-1.5-3.7-1.2
									c-0.6,0.1-1,0.7-1.6,1.1c-0.5,0.4-1.4,0.3-1.6-0.3c-0.7,0.9-1.8,1.8-3,2c0.2-0.4,0.1-0.9-0.2-1.2c-0.6,0.5-1.4,0.9-2.2,1
									c0.5-0.5,0.8-1.1,0.7-1.8c-0.5,0.4-1.3,0.6-2,0.4c1.2-0.7,1.3-2.3,0.9-3.5c-0.4-1.2-1.2-2.3-1.4-3.5
									c-0.2-1.4,1.4-3.1,1.1-4.5c-0.5-2.1-0.4-3.3-0.4-5.3c0.1-1.3,0.6-2.4,1.2-3.6c0.7-1.5,1.7-2.6,3.2-3.4
									c1.3-0.7,3.1-1.4,4.6-1.4c2.6-0.1,3.6-0.1,5.7,1.2"/>
							</g>
						</g>
					</g>
				</g>
			</g>
			<g>
				<g>
					<g>
						<g>
							<g>
								<g>
									<g>
										<g>
											<g>
												<g>
													<g>
														<g>
															<g>
																<g>
																	<path class="st6" d="M64.9,61.6c-0.8-1.7-1.6-3.4-2.1-5.1c-0.5-1.8-0.7-3.7-0.3-5.5c0.1-0.3,0.7-2.1,0.9-2.2
																		c0.2,0-0.1,1.7,0,1.9c1.2,1.5,1.7,3.5,1.8,5.4C65.3,57.9,65.2,59.7,64.9,61.6"/>
																</g>
															</g>
														</g>
													</g>
												</g>
											</g>
										</g>
									</g>
								</g>
								<g>
									<g>
										<g>
											<g>
												<g>
													<g>
														<g>
															<g>
																<g>
																	<g>
																		<path class="st11" d="M76.2,77.3c-2.9,0.3-9.7-2.7-10.1-5.5l-2.3-17.2C63,50,65,45.7,69.6,45.1l0.4,0
																			c4.3-0.3,8.2,2.7,8.9,7c0.6,4,1.3,8.4,1.5,10.5c0.3,4.5-4.1,5.5-4.1,5.5c0,0,0.1,1,0.3,2.3
																			C76.9,73.3,76.5,76.5,76.2,77.3L76.2,77.3z"/>
																	</g>
																</g>
															</g>
														</g>
													</g>
												</g>
											</g>
										</g>
									</g>
								</g>
								<g>
									<g>
										<g>
											<g>
												<g>
													<g>
														<g>
															<g>
																<g>
																	<g>
																		<g>
																			<path class="st12" d="M76.3,68.1c0,0-2.8,0.4-5.9-1.2c0,0,1.7,3.2,6.1,2.5L76.3,68.1z"/>
																		</g>
																	</g>
																</g>
															</g>
														</g>
													</g>
												</g>
											</g>
										</g>
									</g>
								</g>
								<g>
									<g>
										<g>
											<g>
												<g>
													<g>
														<g>
															<g>
																<g>
																	<g>
																		<g>
																			<g>
																				<g>
																					<g>
																						<g>
																							<g>
																								<g>
																									<path class="st6" d="M77.3,55.9c0,0.3-0.2,0.6-0.6,0.7c-0.3,0-0.7-0.2-0.7-0.5c0-0.3,0.2-0.6,0.6-0.7
																										C76.9,55.3,77.2,55.6,77.3,55.9z"/>
																								</g>
																							</g>
																						</g>
																					</g>
																				</g>
																			</g>
																		</g>
																	</g>
																</g>
															</g>
														</g>
													</g>
												</g>
											</g>
										</g>
									</g>
								</g>
								<g>
									<g>
										<g>
											<g>
												<g>
													<g>
														<g>
															<g>
																<g>
																	<g>
																		<g>
																			<g>
																				<g>
																					<g>
																						<g>
																							<g>
																								<g>
																									<g>
																										<path class="st6" d="M78.1,54.1c-0.1,0.1-0.6-0.2-1.3-0.2c-0.7,0-1.2,0.4-1.2,0.4c0,0,0-0.2,0.2-0.4
																											c0.2-0.2,0.6-0.4,1-0.4c0.4,0,0.8,0.1,1,0.2C78.1,53.9,78.2,54,78.1,54.1z"/>
																									</g>
																								</g>
																							</g>
																						</g>
																					</g>
																				</g>
																			</g>
																		</g>
																	</g>
																</g>
															</g>
														</g>
													</g>
												</g>
											</g>
										</g>
									</g>
								</g>
								<g>
									<g>
										<g>
											<g>
												<g>
													<g>
														<g>
															<g>
																<g>
																	<g>
																		<g>
																			<g>
																				<g>
																					<g>
																						<g>
																							<g>
																								<g>
																									<path class="st6" d="M70.8,56.4c0,0.3-0.2,0.6-0.6,0.7c-0.3,0-0.7-0.2-0.7-0.5c0-0.3,0.2-0.6,0.6-0.7
																										C70.5,55.8,70.8,56.1,70.8,56.4z"/>
																								</g>
																							</g>
																						</g>
																					</g>
																				</g>
																			</g>
																		</g>
																	</g>
																</g>
															</g>
														</g>
													</g>
												</g>
											</g>
										</g>
									</g>
								</g>
								<g>
									<g>
										<g>
											<g>
												<g>
													<g>
														<g>
															<g>
																<g>
																	<g>
																		<g>
																			<g>
																				<g>
																					<g>
																						<g>
																							<g>
																								<g>
																									<g>
																										<path class="st6" d="M71.4,54.8c-0.1,0.1-0.6-0.2-1.3-0.2c-0.7,0-1.2,0.4-1.2,0.4c0,0,0-0.2,0.2-0.4
																											c0.2-0.2,0.6-0.4,1-0.4c0.4,0,0.8,0.1,1,0.2C71.4,54.6,71.5,54.7,71.4,54.8z"/>
																									</g>
																								</g>
																							</g>
																						</g>
																					</g>
																				</g>
																			</g>
																		</g>
																	</g>
																</g>
															</g>
														</g>
													</g>
												</g>
											</g>
										</g>
									</g>
								</g>
								<g>
									<g>
										<g>
											<g>
												<g>
													<g>
														<g>
															<g>
																<g>
																	<g>
																		<g>
																			<g>
																				<g>
																					<g>
																						<g>
																							<g>
																								<g>
																									<path class="st6" d="M74.3,59.8c0,0,0.4-0.1,1.1-0.3c0.2,0,0.3-0.1,0.4-0.2c0-0.1-0.1-0.3-0.2-0.5
																										c-0.2-0.4-0.4-0.8-0.6-1.3c-0.9-1.8-1.5-3.4-1.4-3.4c0.1,0,0.8,1.4,1.7,3.3c0.2,0.5,0.4,0.9,0.6,1.3
																										c0.1,0.2,0.2,0.4,0.1,0.7c0,0.1-0.2,0.2-0.3,0.3c-0.1,0-0.2,0.1-0.3,0.1C74.8,59.8,74.3,59.9,74.3,59.8z"
																										/>
																								</g>
																							</g>
																						</g>
																					</g>
																				</g>
																			</g>
																		</g>
																	</g>
																</g>
															</g>
														</g>
													</g>
												</g>
											</g>
										</g>
									</g>
								</g>
								<g>
									<g>
										<g>
											<g>
												<g>
													<g>
														<g>
															<g>
																<g>
																	<g>
																		<g>
																			<g>
																				<g>
																					<path class="st6" d="M71.2,52.2c-0.1,0.2-0.8,0.1-1.6,0.1c-0.8,0-1.5,0.2-1.6,0.1c0-0.1,0.1-0.3,0.4-0.4
																						c0.3-0.2,0.7-0.3,1.2-0.3c0.5,0,0.9,0.1,1.2,0.2C71.1,52,71.2,52.1,71.2,52.2z"/>
																				</g>
																			</g>
																		</g>
																	</g>
																</g>
															</g>
														</g>
													</g>
												</g>
											</g>
										</g>
									</g>
								</g>
								<g>
									<g>
										<g>
											<g>
												<g>
													<g>
														<g>
															<g>
																<g>
																	<g>
																		<g>
																			<g>
																				<g>
																					<path class="st6" d="M77.9,52.5c-0.1,0.2-0.7,0.1-1.4,0.1c-0.7,0-1.2,0.2-1.4,0.1c-0.1-0.1,0-0.2,0.2-0.4
																						c0.2-0.2,0.6-0.3,1.1-0.4s0.9,0.1,1.1,0.2C77.8,52.2,77.9,52.4,77.9,52.5z"/>
																				</g>
																			</g>
																		</g>
																	</g>
																</g>
															</g>
														</g>
													</g>
												</g>
											</g>
										</g>
									</g>
								</g>
								<g>
									<g>
										<g>
											<g>
												<g>
													<g>
														<g>
															<g>
																<g>
																	<path class="st11" d="M64.4,57.9c-0.1,0-3.1-0.7-2.8,2.4c0.3,3,3.3,2.1,3.3,2C64.9,62.1,64.4,57.9,64.4,57.9z"/>
																</g>
															</g>
														</g>
													</g>
												</g>
											</g>
										</g>
									</g>
								</g>
								<g>
									<g>
										<g>
											<g>
												<g>
													<g>
														<g>
															<g>
																<g>
																	<g>
																		<path class="st12" d="M63.8,61.2c0,0,0,0-0.1,0.1c-0.1,0-0.2,0.1-0.4,0.1c-0.3-0.1-0.7-0.6-0.7-1.1
																			c0-0.3,0-0.5,0.1-0.8c0.1-0.2,0.2-0.4,0.4-0.5c0.2-0.1,0.3,0,0.3,0.1c0,0.1,0,0.1,0.1,0.1c0,0,0.1-0.1,0-0.2
																			c0-0.1-0.1-0.1-0.1-0.2c-0.1-0.1-0.2-0.1-0.3,0c-0.2,0-0.4,0.3-0.5,0.5c-0.1,0.3-0.1,0.6-0.1,0.9
																			c0.1,0.6,0.5,1.1,0.9,1.2c0.2,0,0.4-0.1,0.5-0.1C63.8,61.2,63.9,61.2,63.8,61.2z"/>
																	</g>
																</g>
															</g>
														</g>
													</g>
												</g>
											</g>
										</g>
									</g>
								</g>
								<g>
									<g>
										<g>
											<g>
												<g>
													<g>
														<g>
															<g>
																<g>
																	<path class="st6" d="M76.4,47.2c0.5-0.3-1.2-1.7-2.5-2.1c-1.9-0.6-4.8-0.8-6.4-0.1c-2,0.8-3.5,2-4.3,4
																		s-0.9,4.2-0.6,6.3c0.1,0.6,0.2,1.3,0.7,1.8c0.5,0.6,1.4,0.9,1.4,1.9c0,0.3,0.2,0.7,0.4,0.9
																		c0.6,0.5,1.2-0.1,1.5-0.7c0.5-1.3,0.4-2.7,0.3-4.1c-0.1-1-0.2-2-0.5-2.9c-0.2-0.5-0.5-0.9-0.7-1.4s-0.2-1.1,0-1.5
																		c0-0.1,0.1-0.2,0.2-0.3c0.8-0.9,1.9-1.2,3.1-1c1.8,0.4,4.8,0.9,5.5,0.3c1-1,1.2-1.5,1.2-1.5L76.4,47.2z"/>
																</g>
															</g>
														</g>
													</g>
												</g>
											</g>
										</g>
									</g>
								</g>
							</g>
						</g>
						<g>
							<g>
								<g>
									<g>
										<g>
											<g>
												<g>
													<g>
														<g>
															<path class="st6" d="M72.5,60.4c0,0,0,0.2,0,0.4c0.1,0.3,0.3,0.6,0.7,0.8c0.3,0.2,0.7,0.3,0.9,0.4
																c0.3,0.1,0.4,0.1,0.4,0c0,0-0.1-0.1-0.4-0.2c-0.2-0.1-0.5-0.2-0.8-0.5C72.8,61,72.6,60.4,72.5,60.4z"/>
														</g>
													</g>
												</g>
											</g>
										</g>
									</g>
								</g>
							</g>
						</g>
					</g>
					<g>
						<g>
							<g>
								<g>
									<g>
										<g>
											<path class="st13" d="M64.5,58.3c0,0.1,0,0.1,0.1,0.2C64.5,58.4,64.5,58.4,64.5,58.3z"/>
										</g>
									</g>
								</g>
							</g>
						</g>
						<g>
							<g>
								<g>
									<g>
										<g>
											<path class="st7" d="M63.4,57.8c0,0,0.5-0.7,1,0.5c-0.6-1.5-4.8-12.2,6.7-13.7c0,0-4.2-0.7-6.7,1.3
												C64.5,45.9,59.4,49,63.4,57.8z"/>
										</g>
									</g>
								</g>
							</g>
						</g>
					</g>
				</g>
				<g>
					<g>
						<g>
							<path class="st6" d="M85.5,112.1l-26.8,0.4c0,0-7.5-3.1-9.6-3.2c-2.1-0.1-6.1,0.2-8,3.2c-2,3.1-2.2,8.7,3.8,12.7
								c5.9,3.9,32.7,7.6,36.4,7.2l6.8-9.1c0,0,0.1-7.5,0-7.8c-0.1-0.4-1.2-3.5-1.2-3.5L85.5,112.1z"/>
						</g>
					</g>
					<g>
						<g>
							<g>
								<g>
									<g>
										<g>
											<g>
												<g>
													<g>
														<g>
															<g>
																<g>
																	<g>
																		<g>
																			<g>
																				<path class="st13" d="M69.4,124.7l-13.9,5.2l6.3,17.3c1.6-0.7,1.7-10.9,1.7-10.9l9-2.9L69.4,124.7z"/>
																			</g>
																		</g>
																	</g>
																</g>
															</g>
														</g>
													</g>
												</g>
											</g>
										</g>
									</g>
								</g>
							</g>
							<g class="st14">
								<g>
									<g>
										<g>
											<g>
												<g>
													<g>
														<g>
															<g>
																<g>
																	<g>
																		<g>
																			<g>
																				<g>
																					<path class="st4" d="M62.3,130.7c-0.2-0.3-0.7-0.4-1-0.2c-0.3,0.2-0.4,0.7-0.2,1c0.2,0.3,0.8,0.4,1,0.2
																						C62.5,131.4,62.6,130.9,62.3,130.7"/>
																				</g>
																			</g>
																		</g>
																	</g>
																</g>
															</g>
														</g>
													</g>
												</g>
											</g>
										</g>
									</g>
								</g>
							</g>
							<g>
								<g>
									<g>
										<g>
											<g>
												<g>
													<g>
														<g>
															<g>
																<g>
																	<g>
																		<g>
																			<g>
																				<path class="st10" d="M55.6,129.9l1.4-0.5l5.6,16.8c0,0-0.1,0.9-0.6,1L55.6,129.9z"/>
																			</g>
																		</g>
																	</g>
																</g>
															</g>
														</g>
													</g>
												</g>
											</g>
										</g>
									</g>
								</g>
							</g>
							<g>
								<g>
									<g>
										<g>
											<g>
												<g>
													<g>
														<g>
															<g>
																<g>
																	<g>
																		<g>
																			<g>
																				<g>
																					<path class="st6" d="M63.7,136.5c-0.1,0-0.3-0.4-0.7-0.7c-0.4-0.3-0.9-0.4-0.9-0.5c0-0.1,0.5-0.1,1,0.2
																						C63.7,136,63.8,136.5,63.7,136.5z"/>
																				</g>
																			</g>
																		</g>
																	</g>
																</g>
															</g>
														</g>
													</g>
												</g>
											</g>
										</g>
									</g>
								</g>
							</g>
							<g>
								<g>
									<g>
										<g>
											<g>
												<g>
													<g>
														<g>
															<g>
																<g>
																	<g>
																		<g>
																			<g>
																				<g>
																					<path class="st6" d="M63.6,138.6c-0.1,0-0.4-0.3-0.8-0.4c-0.5-0.2-0.9-0.1-0.9-0.2c0-0.1,0.4-0.3,1-0.1
																						C63.5,138.1,63.7,138.6,63.6,138.6z"/>
																				</g>
																			</g>
																		</g>
																	</g>
																</g>
															</g>
														</g>
													</g>
												</g>
											</g>
										</g>
									</g>
								</g>
							</g>
							<g>
								<g>
									<g>
										<g>
											<g>
												<g>
													<g>
														<g>
															<g>
																<g>
																	<g>
																		<g>
																			<g>
																				<g>
																					<path class="st6" d="M61.9,140.5c0-0.1,0.3-0.3,0.9-0.3c0.5,0,0.9,0.4,0.8,0.4c-0.1,0.1-0.4-0.1-0.8-0.1
																						C62.3,140.4,61.9,140.5,61.9,140.5z"/>
																				</g>
																			</g>
																		</g>
																	</g>
																</g>
															</g>
														</g>
													</g>
												</g>
											</g>
										</g>
									</g>
								</g>
							</g>
							<g>
								<g>
									<g>
										<g>
											<g>
												<g>
													<g>
														<g>
															<g>
																<g>
																	<g>
																		<g>
																			<g>
																				<g>
																					<path class="st6" d="M65.7,135.6c-0.1,0-0.1-0.4-0.3-0.9c-0.2-0.5-0.5-0.8-0.4-0.9c0-0.1,0.5,0.2,0.7,0.7
																						C65.9,135.2,65.8,135.7,65.7,135.6z"/>
																				</g>
																			</g>
																		</g>
																	</g>
																</g>
															</g>
														</g>
													</g>
												</g>
											</g>
										</g>
									</g>
								</g>
							</g>
							<g>
								<g>
									<g>
										<g>
											<g>
												<g>
													<g>
														<g>
															<g>
																<g>
																	<g>
																		<g>
																			<g>
																				<g>
																					<path class="st6" d="M67.6,134.5c0,0-0.2-0.3-0.3-0.9c-0.1-0.3-0.1-0.6-0.1-1c0-0.2,0-0.4,0.1-0.6
																						c0-0.1,0-0.2,0.1-0.3c0.1-0.1,0.3-0.3,0.4-0.2c0.2,0,0.3,0.2,0.3,0.3c0.1,0.1,0.1,0.2,0.1,0.3
																						c0,0.2,0,0.4,0,0.6c0,0.4-0.1,0.7-0.2,1C67.8,134.2,67.6,134.5,67.6,134.5c-0.1,0,0.1-0.3,0.2-0.9
																						c0.1-0.3,0.1-0.6,0.2-0.9c0-0.2,0-0.4,0-0.6c0-0.2-0.1-0.4-0.2-0.4c0,0,0,0-0.1,0.1c0,0.1-0.1,0.2-0.1,0.2
																						c0,0.2-0.1,0.4-0.1,0.6c0,0.4,0,0.7,0,1C67.6,134.1,67.7,134.5,67.6,134.5z"/>
																				</g>
																			</g>
																		</g>
																	</g>
																</g>
															</g>
														</g>
													</g>
												</g>
											</g>
										</g>
									</g>
								</g>
							</g>
							<g>
								<g>
									<g>
										<g>
											<g>
												<g>
													<g>
														<g>
															<g>
																<g>
																	<g>
																		<g>
																			<g>
																				<g>
																					<path class="st6" d="M67.5,134.4c0,0,0.2-0.3,0.8-0.5c0.3-0.1,0.6-0.2,1-0.2c0.2,0,0.4,0,0.6,0
																						c0.2,0,0.5,0.1,0.6,0.4c0.1,0.2,0,0.4-0.1,0.4c-0.1,0.1-0.2,0.1-0.3,0.2c-0.2,0.1-0.4,0.2-0.6,0.2
																						c-0.4,0.1-0.8,0-1,0c-0.6-0.2-0.8-0.5-0.8-0.5c0,0,0.3,0.2,0.8,0.3c0.3,0,0.6,0.1,0.9,0c0.2,0,0.3-0.1,0.5-0.2
																						c0.2-0.1,0.3-0.2,0.3-0.3c0-0.1-0.2-0.2-0.4-0.2c-0.2,0-0.4,0-0.5,0c-0.4,0-0.7,0.1-0.9,0.1
																						C67.8,134.3,67.5,134.5,67.5,134.4z"/>
																				</g>
																			</g>
																		</g>
																	</g>
																</g>
															</g>
														</g>
													</g>
												</g>
											</g>
										</g>
									</g>
								</g>
							</g>
						</g>
					</g>
					<g>
						<g>
							<g>
								<g>
									<g>
										<g>
											<g>
												<g>
													<g>
														<g>
															<g>
																<g>
																	<g>
																		<g>
																			<g>
																				<path class="st10" d="M80.9,122.6l13.4,6.2l-7.7,16.8c-1.6-0.8-0.8-11-0.8-11l-8.8-3.6L80.9,122.6z"/>
																			</g>
																		</g>
																	</g>
																</g>
															</g>
														</g>
													</g>
												</g>
											</g>
										</g>
									</g>
								</g>
							</g>
							<g class="st14">
								<g>
									<g>
										<g>
											<g>
												<g>
													<g>
														<g>
															<g>
																<g>
																	<g>
																		<g>
																			<g>
																				<g>
																					<path class="st4" d="M87.5,129.1c0.2-0.3,0.7-0.3,1-0.1s0.4,0.7,0.1,1c-0.2,0.3-0.8,0.4-1.1,0.1
																						C87.3,129.8,87.3,129.2,87.5,129.1"/>
																				</g>
																			</g>
																		</g>
																	</g>
																</g>
															</g>
														</g>
													</g>
												</g>
											</g>
										</g>
									</g>
								</g>
							</g>
							<g>
								<g>
									<g>
										<g>
											<g>
												<g>
													<g>
														<g>
															<g>
																<g>
																	<g>
																		<g>
																			<g>
																				<path class="st6" d="M94.3,128.8l-1.4-0.6l-6.9,16.3c0,0,0,0.9,0.5,1.1L94.3,128.8z"/>
																			</g>
																		</g>
																	</g>
																</g>
															</g>
														</g>
													</g>
												</g>
											</g>
										</g>
									</g>
								</g>
							</g>
							<g>
								<g>
									<g>
										<g>
											<g>
												<g>
													<g>
														<g>
															<g>
																<g>
																	<g>
																		<g>
																			<g>
																				<g>
																					<path class="st6" d="M85.7,134.8c0.1,0,0.3-0.4,0.8-0.6c0.4-0.3,0.9-0.3,0.9-0.4c0-0.1-0.5-0.2-1.1,0.2
																						C85.7,134.3,85.6,134.8,85.7,134.8z"/>
																				</g>
																			</g>
																		</g>
																	</g>
																</g>
															</g>
														</g>
													</g>
												</g>
											</g>
										</g>
									</g>
								</g>
							</g>
							<g>
								<g>
									<g>
										<g>
											<g>
												<g>
													<g>
														<g>
															<g>
																<g>
																	<g>
																		<g>
																			<g>
																				<g>
																					<path class="st6" d="M85.6,136.9c0.1,0.1,0.4-0.2,0.8-0.4c0.5-0.1,0.9,0,0.9-0.1c0-0.1-0.4-0.3-1-0.2
																						C85.8,136.4,85.5,136.9,85.6,136.9z"/>
																				</g>
																			</g>
																		</g>
																	</g>
																</g>
															</g>
														</g>
													</g>
												</g>
											</g>
										</g>
									</g>
								</g>
							</g>
							<g>
								<g>
									<g>
										<g>
											<g>
												<g>
													<g>
														<g>
															<g>
																<g>
																	<g>
																		<g>
																			<g>
																				<g>
																					<path class="st6" d="M87.2,138.9c0.1-0.1-0.3-0.4-0.8-0.4c-0.5,0-0.9,0.3-0.8,0.4c0,0.1,0.4-0.1,0.8-0.1
																						C86.8,138.8,87.2,138.9,87.2,138.9z"/>
																				</g>
																			</g>
																		</g>
																	</g>
																</g>
															</g>
														</g>
													</g>
												</g>
											</g>
										</g>
									</g>
								</g>
							</g>
							<g>
								<g>
									<g>
										<g>
											<g>
												<g>
													<g>
														<g>
															<g>
																<g>
																	<g>
																		<g>
																			<g>
																				<g>
																					<path class="st6" d="M83.7,133.8c0.1,0,0.2-0.4,0.4-0.9c0.2-0.5,0.6-0.7,0.5-0.8c0-0.1-0.5,0.1-0.8,0.7
																						C83.6,133.3,83.7,133.8,83.7,133.8z"/>
																				</g>
																			</g>
																		</g>
																	</g>
																</g>
															</g>
														</g>
													</g>
												</g>
											</g>
										</g>
									</g>
								</g>
							</g>
							<g>
								<g>
									<g>
										<g>
											<g>
												<g>
													<g>
														<g>
															<g>
																<g>
																	<g>
																		<g>
																			<g>
																				<g>
																					<path class="st6" d="M81.9,132.5c0,0,0.2-0.3,0.4-0.8c0.1-0.3,0.1-0.6,0.1-1c0-0.2,0-0.4,0-0.6
																						c0-0.1,0-0.2-0.1-0.3c0-0.1-0.2-0.3-0.4-0.2c-0.2,0-0.3,0.2-0.4,0.3c-0.1,0.1-0.1,0.2-0.1,0.3
																						c0,0.2-0.1,0.4-0.1,0.6c0,0.4,0.1,0.7,0.2,1C81.7,132.2,82,132.5,81.9,132.5c0.1,0-0.1-0.3-0.2-0.9
																						c-0.1-0.3-0.1-0.6-0.1-0.9c0-0.2,0-0.4,0.1-0.6c0-0.2,0.1-0.4,0.2-0.4c0,0,0,0,0.1,0.1c0,0.1,0,0.2,0.1,0.3
																						c0,0.2,0,0.4,0,0.6c0,0.4,0,0.7-0.1,1C82,132.1,81.9,132.4,81.9,132.5z"/>
																				</g>
																			</g>
																		</g>
																	</g>
																</g>
															</g>
														</g>
													</g>
												</g>
											</g>
										</g>
									</g>
								</g>
							</g>
							<g>
								<g>
									<g>
										<g>
											<g>
												<g>
													<g>
														<g>
															<g>
																<g>
																	<g>
																		<g>
																			<g>
																				<g>
																					<path class="st6" d="M82.1,132.4c0,0-0.2-0.3-0.7-0.6c-0.3-0.1-0.6-0.3-1-0.3c-0.2,0-0.4,0-0.6,0
																						c-0.2,0-0.5,0-0.7,0.3c-0.1,0.2,0,0.4,0.1,0.5c0.1,0.1,0.2,0.2,0.3,0.2c0.2,0.1,0.4,0.2,0.6,0.3
																						c0.4,0.1,0.7,0.1,1,0c0.6-0.1,0.8-0.4,0.8-0.4c0,0-0.3,0.2-0.8,0.2c-0.3,0-0.6,0-0.9-0.1
																						c-0.2-0.1-0.3-0.1-0.5-0.2c-0.2-0.1-0.3-0.2-0.2-0.3c0-0.1,0.2-0.2,0.4-0.2c0.2,0,0.4,0,0.6,0
																						c0.4,0,0.7,0.1,0.9,0.2C81.8,132.2,82.1,132.4,82.1,132.4z"/>
																				</g>
																			</g>
																		</g>
																	</g>
																</g>
															</g>
														</g>
													</g>
												</g>
											</g>
										</g>
									</g>
								</g>
							</g>
						</g>
					</g>
					<g>
						<g>
							<path class="st6" d="M86.8,112c0,0,11.6-4.3,15.8-3.8c2.4,0.3,6.1,2.1,6.4,5.2c0.3,3.1-0.5,7.1-4.6,9.1
								c-4.1,2-20.6,9.4-24.5,10.5c-3.9,1.1-13.6,3.8-13.6,3.8l-3.7-10.5c0,0,20.2-7,21.2-7.8c1.1-0.8,3.8-1.8,3.8-1.8L86.8,112z"/>
						</g>
					</g>
					<g>
						<g>
							<g>
								<path class="st7" d="M46.6,113.4C46.6,113.4,46.6,113.4,46.6,113.4c0.1,0,0.2-0.1,0.3-0.1c0.2-0.1,0.5-0.2,0.9-0.2
									c0.4-0.1,0.9-0.2,1.5-0.3c0.6-0.1,1.2-0.1,1.9,0c0.7,0.1,1.5,0.2,2.3,0.4c0.4,0.1,0.8,0.3,1.2,0.5c0.4,0.2,0.8,0.4,1.3,0.6
									c1.7,0.8,3.7,1.7,5.7,2.5c4.1,1.7,8.1,2.4,10.9,3.1c1.4,0.3,2.6,0.6,3.4,0.8c0.4,0.1,0.7,0.2,0.9,0.2c0.1,0,0.2,0,0.2,0.1
									c0.1,0,0.1,0,0.1,0c0,0,0,0-0.1,0c-0.1,0-0.1,0-0.2-0.1c-0.2-0.1-0.5-0.1-0.9-0.2c-0.8-0.2-1.9-0.5-3.3-0.8
									c-2.8-0.7-6.8-1.5-10.9-3.1c-2.1-0.8-4-1.7-5.7-2.5c-0.4-0.2-0.9-0.4-1.3-0.6c-0.4-0.2-0.8-0.4-1.2-0.5
									c-0.8-0.2-1.6-0.4-2.3-0.4c-0.7-0.1-1.4,0-2,0c-0.6,0.1-1.1,0.2-1.5,0.3c-0.4,0.1-0.7,0.2-0.9,0.3
									C46.8,113.3,46.7,113.4,46.6,113.4C46.6,113.4,46.6,113.4,46.6,113.4z"/>
							</g>
						</g>
					</g>
					<g>
						<g>
							<g>
								<path class="st7" d="M47.2,111.9c0,0,0.4,0,0.9-0.1c0.6-0.1,1.4-0.1,2.2-0.1c0.9,0,1.6,0.2,2.2,0.3c0.6,0.1,0.9,0.2,0.9,0.2
									c0,0-0.1,0-0.2-0.1c-0.2-0.1-0.4-0.1-0.7-0.2c-0.6-0.1-1.3-0.3-2.2-0.3c-0.9,0-1.7,0-2.2,0.1c-0.3,0-0.5,0.1-0.7,0.1
									C47.3,111.9,47.2,111.9,47.2,111.9z"/>
							</g>
						</g>
					</g>
					<g>
						<g>
							<g>
								<path class="st7" d="M91.7,115c0,0,0.3-0.2,0.9-0.6c0.6-0.3,1.4-0.8,2.3-1.1c0.9-0.3,1.8-0.5,2.5-0.6
									c0.6-0.1,1.1-0.1,1.1-0.1c0,0-0.1,0-0.3,0c-0.2,0-0.4,0-0.8,0c-0.7,0.1-1.6,0.2-2.5,0.6c-0.9,0.3-1.8,0.8-2.3,1.1
									c-0.3,0.2-0.5,0.3-0.6,0.5C91.8,115,91.7,115,91.7,115z"/>
							</g>
						</g>
					</g>
					<g>
						<g>
							<g>
								<path class="st7" d="M85.9,130.8C85.9,130.8,85.9,130.8,85.9,130.8c-0.2,0.1-0.2,0.1-0.4,0.1c-0.2,0.1-0.6,0.3-1,0.4
									c-0.9,0.4-2.2,0.8-3.9,1.4c-3.4,1.1-8.3,2.5-14.2,4l0.1,0c-1.1-3-2.3-6.4-3.6-9.9l0,0.1c1.4-0.6,2.9-1.2,4.4-1.8
									c9.8-4,18.5-7.6,24.5-10.1l0,0l0,0c1-1.1,1.9-2,2.8-2.7c0.9-0.8,1.7-1.3,2.3-1.8c0.7-0.4,1.2-0.7,1.6-0.9
									c0.2-0.1,0.3-0.2,0.4-0.2c0.1,0,0.1-0.1,0.1-0.1s-0.1,0-0.1,0.1c-0.1,0-0.2,0.1-0.4,0.2c-0.4,0.2-0.9,0.4-1.6,0.9
									c-0.7,0.4-1.5,1-2.3,1.7c-0.9,0.7-1.8,1.7-2.8,2.7l0,0c-6,2.4-14.8,6-24.5,10.1c-1.5,0.6-3,1.2-4.4,1.8l-0.1,0l0,0.1
									c1.3,3.5,2.5,6.9,3.6,9.9l0,0l0,0c5.9-1.5,10.8-2.9,14.2-4.1c1.7-0.6,3-1.1,3.9-1.4c0.5-0.2,0.8-0.3,1-0.4
									c0.1-0.1,0.2-0.1,0.3-0.1C85.9,130.8,85.9,130.8,85.9,130.8z"/>
							</g>
						</g>
					</g>
				</g>
				<g>
					<g>
						<g>
							<path class="st10" d="M57.3,75.1c0,0-3.3,1.9-4,4.2c-0.4,1.4-3.5,18.9-4,22.3c-0.5,3.5,0.5,6,2,7.2c1.5,1.1,5.9,2.7,5.9,2.7
								l6.3,2l1.8-4.6l-6-8.6l0.6-5.8L57.3,75.1z"/>
						</g>
					</g>
					<g>
						<g>
							<path class="st10" d="M63.8,72.1l2.1-1.5c0,0,2.7,2.8,5.8,2.4c3.1-0.3,5-2.7,5-2.7l9.3,1.9l0,0c0.6,0.1,1.8,0.5,2.8,2.1
								c1.2,1.7,6.9,9.4,6.9,9.4h4c1.1,0,2.1,0.6,2.6,1.6c0.7,1.3,1.5,3.1,1.4,3.8c-0.1,1.2,0.1,4.6-1.5,5.6
								c-0.5,0.3-2.4,1.3-3.8,1.3c-2.1-0.1-4.6-1.2-6-2.2c-1.2-0.8-4-3.8-5.1-4.9v0l-0.7,24.3l-24.3-0.7l-5-37.3
								C57.3,75.1,63.6,72.1,63.8,72.1z"/>
						</g>
					</g>
					<g>
						<g>
							<g>
								<path class="st6" d="M87.4,78.6c0,0-0.1,3-0.1,6.7c0,3.7-0.1,6.7,0,6.7c0,0,0.1-3,0.1-6.7C87.4,81.6,87.4,78.6,87.4,78.6z"
									/>
							</g>
						</g>
					</g>
					<g>
						<g>
							<g>
								<path class="st6" d="M54.3,98.3c0,0,0.2,0,0.6,0.1s0.9,0.2,1.5,0.5c0.6,0.3,1.3,0.7,2,1.2c0.7,0.5,1.4,1.2,2.1,2
									c0.7,0.8,1.3,1.5,1.9,2.2c0.6,0.7,1.2,1.2,1.7,1.7c0.5,0.5,0.9,0.8,1.2,1c0.2,0.1,0.3,0.2,0.4,0.2c0.1,0.1,0.1,0.1,0.1,0.1
									c0,0,0,0-0.1-0.1c-0.1-0.1-0.2-0.1-0.4-0.3c-0.3-0.2-0.7-0.6-1.2-1c-0.5-0.5-1-1-1.6-1.7c-0.6-0.7-1.2-1.4-1.9-2.2
									c-0.7-0.8-1.4-1.4-2.1-2c-0.7-0.5-1.4-0.9-2-1.2c-0.6-0.3-1.2-0.4-1.5-0.4c-0.2,0-0.3,0-0.4,0
									C54.4,98.2,54.3,98.2,54.3,98.3z"/>
							</g>
						</g>
					</g>
					<g>
						<g>
							<g>
								<path class="st6" d="M53.8,96.6c0,0,0.4,0.1,0.9,0.2s1.4,0.5,2.2,0.9c0.8,0.5,1.4,1,1.8,1.5c0.4,0.4,0.6,0.7,0.7,0.7
									c0,0,0-0.1-0.1-0.2c-0.1-0.1-0.2-0.3-0.5-0.6c-0.4-0.5-1-1-1.8-1.5c-0.8-0.5-1.6-0.8-2.2-0.9c-0.3-0.1-0.5-0.1-0.7-0.1
									C53.9,96.6,53.8,96.6,53.8,96.6z"/>
							</g>
						</g>
					</g>
					<g class="st15">
						<g>
							<g>
								<path d="M99,92.3c-1.3,0.4-2.8-1.5-4-2.7c-0.6-0.6-1.2-1.2-1.5-2.1c-0.2-0.7-0.1-1.4,0.2-2.1c0.3-0.7,0.5-1.1,0.9-1.7
									c-0.1,1-0.4,2.5,0,3.8c0.3,1,0.9,1.9,1.6,2.7C97,91.2,97.9,92,99,92.3"/>
							</g>
						</g>
					</g>
					<g>
						<g>
							<g>
								<path class="st6" d="M93.5,91.3c0,0-0.1-0.4-0.2-1.1c-0.1-0.3-0.1-0.8-0.1-1.2c0-0.5,0-1,0.1-1.5c0.1-0.5,0.2-1,0.4-1.5
									c0.2-0.4,0.3-0.8,0.5-1.1c0.3-0.6,0.6-1,0.6-1c0,0-0.1,0.1-0.2,0.2c-0.1,0.1-0.1,0.2-0.2,0.3s-0.2,0.3-0.2,0.4
									c-0.2,0.3-0.4,0.7-0.5,1.1c-0.2,0.4-0.3,1-0.4,1.5c-0.1,0.5-0.1,1.1-0.1,1.5c0,0.5,0.1,0.9,0.1,1.2c0,0.2,0.1,0.3,0.1,0.5
									c0,0.1,0.1,0.3,0.1,0.3C93.5,91.2,93.5,91.3,93.5,91.3z"/>
							</g>
						</g>
					</g>
					<g>
						<g>
							<g>
								<path class="st6" d="M75.7,71.2c0,0,0.3,0.2,0.6,0.5c0.3,0.3,0.5,0.5,0.5,0.5c0,0-0.1-0.3-0.4-0.6
									C76,71.3,75.7,71.2,75.7,71.2z"/>
							</g>
						</g>
					</g>
					<g>
						<g>
							<g>
								<path class="st6" d="M73.1,72.7c0,0,0.2,0.3,0.4,0.7c0.2,0.4,0.3,0.7,0.3,0.7c0,0,0-0.4-0.2-0.8
									C73.4,72.9,73.1,72.6,73.1,72.7z"/>
							</g>
						</g>
					</g>
					<g>
						<g>
							<g>
								<path class="st6" d="M68.8,74.2c0,0,0.1-0.3,0.3-0.7c0.1-0.4,0.3-0.7,0.2-0.7S69.1,73,69,73.4
									C68.8,73.8,68.8,74.2,68.8,74.2z"/>
							</g>
						</g>
					</g>
					<g>
						<g>
							<g>
								<path class="st6" d="M66,72.9c0,0,0.1-0.4,0.4-0.9c0.3-0.5,0.6-0.7,0.6-0.8c0,0-0.4,0.2-0.7,0.7C66,72.4,66,72.9,66,72.9z"
									/>
							</g>
						</g>
					</g>
					<g>
						<g>
							<g>
								<path class="st6" d="M58,80.8c0,0,0.4,3.3,0.9,7.4c0.5,4.1,1,7.4,1,7.4c0,0-0.4-3.3-0.9-7.4C58.5,84.1,58,80.8,58,80.8z"/>
							</g>
						</g>
					</g>
				</g>
				<g>
					<g>
						<g>
							<path class="st6" d="M94.4,86.1c0,0,0,0.1,0,0.3c0,0.1,0,0.2,0,0.4c0,0.1,0,0.2,0,0.2c0,0.1,0,0.2,0.1,0.3
								c0.1,0.4,0.3,0.8,0.5,1.3c0.2,0.5,0.5,1,0.9,1.5c0.4,0.5,0.8,0.9,1.2,1.2c0.4,0.3,0.8,0.6,1.2,0.7c0.1,0,0.2,0.1,0.3,0.1
								c0.1,0,0.2,0,0.2,0.1c0.1,0,0.1,0,0.2,0.1c0.1,0,0.1,0,0.2,0c0.2,0,0.3,0,0.3,0c0,0-0.5,0-1.2-0.4c-0.4-0.2-0.8-0.4-1.2-0.7
								c-0.4-0.3-0.8-0.7-1.2-1.2c-0.4-0.5-0.7-1-0.9-1.4c-0.2-0.5-0.4-0.9-0.5-1.3C94.5,86.6,94.5,86.1,94.4,86.1z"/>
						</g>
					</g>
				</g>
				<g>
					<g>
						<g class="st15">
							<g>
								<g>
									<path d="M58.8,114c-1-0.5-1.3-1.8-1.4-3c-0.3-3.3-0.6-6.7-0.9-10c-0.1-1.6-0.2-3.4,0.9-4.5c1-1,2.6-1.1,4.1-1.1
										c8.9,0,16.8,0.3,25.7,0.3l-0.5,15.6L58.8,114z"/>
								</g>
							</g>
						</g>
						<g>
							<g>
								<g>
									<path class="st3" d="M90.9,98.1L90,116.2c0,0.7-0.6,1.2-1.3,1.2l-28.8,0c-0.7,0-1.3-0.5-1.3-1.2l-1.1-17.7
										c0-0.7,0.5-1.7,1.2-1.7l30.9,0C90.4,96.7,91,97.3,90.9,98.1z"/>
								</g>
							</g>
							<g>
								<g>
									<g>
										<path class="st6" d="M90.9,98.1C90.9,98.1,90.9,98.1,90.9,98.1c0-0.1,0-0.2,0-0.3c0-0.2-0.1-0.4-0.3-0.7
											c-0.1-0.1-0.3-0.2-0.5-0.3c-0.2-0.1-0.4-0.1-0.7-0.1c-0.5,0-1.1,0-1.7,0c-2.6,0-6.4,0-11.1,0c-4.7,0-10.3,0-16.5,0
											c-0.4,0-0.8,0-1.2,0c-0.2,0-0.4,0-0.6,0.2c-0.2,0.1-0.3,0.3-0.4,0.4c-0.2,0.3-0.4,0.7-0.4,1.2c0,0.4,0,0.8,0.1,1.2
											c0.1,1.6,0.2,3.3,0.3,5c0.2,3.4,0.4,6.9,0.6,10.5l0,0.7c0,0.2,0,0.4,0.1,0.7c0.1,0.5,0.4,0.9,0.9,1
											c0.2,0.1,0.5,0.1,0.7,0.1h0.7c0.4,0,0.9,0,1.3,0c1.7,0,3.5,0,5.2,0c3.4,0,6.7,0,9.8,0c3.1,0,6.1,0,8.8,0c0.7,0,1.4,0,2,0
											c0.2,0,0.3,0,0.5,0c0.2,0,0.3,0,0.5,0c0.3,0,0.6-0.2,0.9-0.5c0.2-0.3,0.3-0.6,0.3-0.9c0-0.3,0-0.6,0-0.9
											c0-0.6,0.1-1.2,0.1-1.8c0.2-4.7,0.4-8.5,0.6-11.1c0.1-1.3,0.1-2.3,0.1-3c0-0.3,0-0.6,0-0.8C90.9,98.2,90.9,98.1,90.9,98.1
											s0,0.1,0,0.3c0,0.2,0,0.4,0,0.8c0,0.7-0.1,1.7-0.2,3c-0.1,2.6-0.3,6.4-0.6,11.1c0,0.6-0.1,1.2-0.1,1.8c0,0.3,0,0.6,0,0.9
											c0,0.3-0.1,0.6-0.3,0.9c-0.2,0.2-0.5,0.4-0.8,0.4c-0.2,0-0.3,0-0.5,0s-0.3,0-0.5,0c-0.7,0-1.3,0-2,0c-2.8,0-5.7,0-8.8,0
											c-3.1,0-6.4,0-9.8,0c-1.7,0-3.4,0-5.2,0c-0.4,0-0.9,0-1.3,0h-0.7c-0.2,0-0.4,0-0.6-0.1c-0.4-0.1-0.7-0.5-0.8-0.9
											c0-0.2,0-0.4-0.1-0.7l0-0.7c-0.2-3.6-0.4-7.1-0.6-10.5c-0.1-1.7-0.2-3.3-0.3-5c0-0.4,0-0.8-0.1-1.2c0-0.4,0.1-0.8,0.3-1.1
											c0.2-0.3,0.6-0.6,0.9-0.5c0.4,0,0.8,0,1.2,0c6.2,0,11.8,0,16.5,0c4.7,0,8.5,0,11.1,0c0.7,0,1.2,0,1.7,0
											c0.3,0,0.5,0,0.7,0.1c0.2,0.1,0.4,0.2,0.5,0.3c0.2,0.2,0.3,0.5,0.3,0.7C90.9,98,90.9,98.1,90.9,98.1z"/>
									</g>
								</g>
							</g>
						</g>
					</g>
					<g>
						<g>
							<g>
								<path class="st4" d="M72.3,106.9c0,0.9,0.8,1.7,1.7,1.7c0.9,0,1.7-0.8,1.7-1.7c0-0.9-0.8-1.7-1.7-1.7
									C73.1,105.2,72.3,106,72.3,106.9z"/>
							</g>
						</g>
						<g>
							<g>
								<g>
									<path class="st6" d="M72.3,106.9c0,0,0-0.2,0.1-0.4c0.1-0.3,0.2-0.6,0.6-0.9c0.2-0.1,0.4-0.3,0.7-0.3c0.3,0,0.6,0,0.9,0.1
										c0.3,0.1,0.6,0.3,0.8,0.6c0.2,0.3,0.3,0.6,0.3,1c0,0.4-0.1,0.7-0.3,1c-0.2,0.3-0.5,0.5-0.8,0.6c-0.3,0.1-0.6,0.1-0.9,0.1
										c-0.3,0-0.5-0.2-0.7-0.3c-0.4-0.3-0.6-0.7-0.6-0.9C72.3,107.1,72.3,106.9,72.3,106.9c0,0,0,0,0,0.1c0,0.1,0,0.2,0,0.3
										c0.1,0.3,0.2,0.7,0.6,1c0.2,0.2,0.4,0.3,0.7,0.3c0.3,0.1,0.6,0,0.9-0.1c0.3-0.1,0.6-0.3,0.8-0.6c0.2-0.3,0.3-0.7,0.3-1
										c0-0.4-0.1-0.8-0.3-1c-0.2-0.3-0.5-0.5-0.8-0.6c-0.3-0.1-0.6-0.1-0.9-0.1c-0.3,0.1-0.5,0.2-0.7,0.3c-0.4,0.3-0.6,0.7-0.6,1
										C72.3,106.6,72.3,106.7,72.3,106.9C72.3,106.9,72.3,106.9,72.3,106.9z"/>
								</g>
							</g>
						</g>
					</g>
					<g>
						<g>
							<g>
								<path class="st6" d="M90,100.1c0,0-0.2,3-0.3,6.8c-0.1,3.7-0.2,6.8-0.2,6.8c0,0,0.2-3,0.3-6.8C89.9,103.1,90,100.1,90,100.1
									z"/>
							</g>
						</g>
					</g>
				</g>
				<g>
					<g>
						<g>
							<path class="st11" d="M98.6,76.5c0.2-0.1-0.6-3-0.6-3s2-3.2,2-4.2c0.1-1-0.8-3.1-0.8-3.1l-5.6-1.4c0,0-1.8,3.3-2.2,4.5
								c-0.4,1.2,0.6,5.2,0.6,5.2l0.9,2.1C93.1,76.5,95.9,78.8,98.6,76.5z"/>
						</g>
					</g>
					<g>
						<g>
							<g>
								<path class="st11" d="M100,70c0,0,0.2-0.4,0.6-1.2c0.4-0.8,0.8-1.7,0-2.1c-0.5-0.3-0.8-0.1-0.8-0.1s0.1-0.7-0.3-1
									c-0.4-0.3-0.8-0.1-0.8-0.1s0.1-1-0.5-1.4c-0.8-0.5-1.6,0-1.6,0s0.5-4.4,0.5-4.6c0.2-0.8-0.2-1.6-1-1.4
									c-0.3,0.1-0.5,0.4-0.8,1.8c-0.4,1.4-0.9,3.8-0.9,3.8s-1,1.7-1.4,2.6c-0.5,0.9-1.4,3-1.5,3.6c-0.2,1.4,0.6,3.4,0.6,3.4
									l5.9,0.3C98,73.6,99.8,70.4,100,70z"/>
							</g>
						</g>
						<g>
							<g>
								<g>
									<path class="st12" d="M99.7,66.6c0,0-0.2,0.2-0.5,0.6c-0.1,0.2-0.3,0.5-0.5,0.7c-0.1,0.1-0.2,0.3-0.3,0.4
										c-0.1,0.2-0.1,0.4-0.1,0.6c0,0.2,0.2,0.4,0.4,0.4c0.2,0.1,0.4,0,0.5-0.1c0.2-0.1,0.3-0.2,0.4-0.2c0.1-0.1,0.2-0.2,0.3-0.2
										c0.2-0.2,0.3-0.3,0.4-0.4c0.1-0.1,0.2-0.1,0.1-0.2c0,0-0.2,0.2-0.6,0.5c-0.2,0.1-0.4,0.3-0.7,0.5c-0.1,0.1-0.3,0.1-0.4,0.1
										c-0.1,0-0.3-0.2-0.3-0.4c0-0.2,0-0.3,0.1-0.5c0.1-0.2,0.2-0.3,0.2-0.4c0.2-0.3,0.3-0.5,0.4-0.7
										C99.5,66.9,99.7,66.7,99.7,66.6z"/>
								</g>
							</g>
						</g>
						<g>
							<g>
								<g>
									<path class="st12" d="M94.8,67.2c0,0,0.1-0.4-0.1-0.9c-0.1-0.5-0.3-0.9-0.4-0.9c0,0,0.1,0.4,0.2,0.9
										C94.7,66.8,94.7,67.2,94.8,67.2z"/>
								</g>
							</g>
						</g>
						<g>
							<g>
								<g>
									<path class="st11" d="M92.4,68.4c0.5-0.5,1.2-0.9,2-1c0.7-0.2,1.5-0.2,2.3-0.1c0.6,0.1,1.3,0.2,1.6,0.8
										c0.3,0.6-0.1,1.3-0.6,1.6c-0.5,0.3-1.2,0.3-1.8,0.3c-0.6-0.1-1.3-0.2-1.9-0.1"/>
								</g>
							</g>
							<g>
								<g>
									<g>
										<path class="st12" d="M94,69.9c0,0,0.2,0,0.5,0c0.3,0,0.7,0.1,1.3,0.1c0.3,0,0.6,0.1,0.9,0c0.3,0,0.7-0.1,1-0.3
											c0.3-0.2,0.6-0.5,0.7-0.9c0.1-0.2,0.1-0.4,0-0.6c0-0.2-0.2-0.4-0.3-0.6c-0.3-0.3-0.8-0.4-1.1-0.4c-0.4,0-0.8-0.1-1.1-0.1
											c-0.7,0-1.4,0.1-1.9,0.3c-0.5,0.2-0.9,0.4-1.1,0.6c-0.1,0.1-0.2,0.2-0.3,0.2c-0.1,0.1-0.1,0.1-0.1,0.1
											c0,0,0.1-0.1,0.4-0.3c0.2-0.2,0.6-0.4,1.1-0.6c0.5-0.2,1.2-0.3,1.9-0.3c0.4,0,0.7,0,1.1,0.1c0.4,0.1,0.8,0.2,1.1,0.4
											c0.1,0.1,0.2,0.3,0.3,0.5c0,0.2,0,0.4,0,0.6c-0.1,0.4-0.4,0.6-0.7,0.8c-0.3,0.2-0.6,0.2-1,0.2c-0.3,0-0.6,0-0.9,0
											c-0.5-0.1-1-0.1-1.3-0.1c-0.2,0-0.3,0-0.4,0C94,69.9,94,69.9,94,69.9z"/>
									</g>
								</g>
							</g>
						</g>
						<g>
							<g>
								<g>
									<path class="st11" d="M99.6,66.7c-0.6,1-1.2,2-1.7,3c-0.2,0.3-0.3,0.6-0.6,0.8c-0.2,0.1-0.8-0.1-1-0.2l1.7-3.9"/>
								</g>
							</g>
							<g>
								<g>
									<g>
										<path class="st12" d="M98,66.4c0,0-0.1,0.1-0.2,0.3c-0.1,0.2-0.2,0.5-0.4,0.8c-0.3,0.7-0.8,1.7-1.2,2.8l0,0.1l0.1,0
											c0.2,0.1,0.4,0.2,0.6,0.2c0.1,0,0.2,0,0.3,0c0,0,0.1,0,0.1,0c0,0,0.1,0,0.1-0.1c0.1-0.1,0.3-0.2,0.3-0.4
											c0.2-0.3,0.3-0.6,0.4-0.8c0.3-0.5,0.5-1,0.7-1.4c0.2-0.4,0.4-0.7,0.5-0.9c0.1-0.2,0.2-0.3,0.2-0.3c0,0-0.1,0.1-0.2,0.3
											c-0.1,0.2-0.3,0.5-0.6,0.9c-0.2,0.4-0.5,0.8-0.8,1.4c-0.1,0.3-0.3,0.5-0.4,0.8c-0.1,0.1-0.2,0.2-0.3,0.3
											c-0.1,0.1-0.3,0.1-0.4,0c-0.2-0.1-0.4-0.1-0.6-0.2l0,0.1c0.5-1.1,0.9-2.1,1.2-2.8c0.1-0.3,0.3-0.6,0.3-0.8
											C98,66.5,98,66.4,98,66.4z"/>
									</g>
								</g>
							</g>
						</g>
						<g>
							<g>
								<g>
									<path class="st11" d="M98.5,65.2c-0.6,1.4-1.1,2.8-1.7,4.2c-0.1,0.3-0.2,0.6-0.4,0.8c-0.2,0.2-0.5,0.4-0.8,0.4
										c-0.4-0.1-0.7-0.5-0.7-1c0-0.4,0.2-0.9,0.3-1.3c0.5-1.3,0.9-2.6,1.2-3.9"/>
								</g>
							</g>
							<g>
								<g>
									<g>
										<path class="st12" d="M96.3,64.5c0,0,0,0,0,0.1c0,0.1-0.1,0.2-0.1,0.4c-0.1,0.3-0.2,0.8-0.4,1.3c-0.2,0.6-0.4,1.2-0.7,2
											c-0.1,0.4-0.3,0.7-0.3,1.2c0,0.2,0,0.5,0.1,0.7c0.1,0.2,0.3,0.4,0.5,0.5c0.2,0.1,0.5,0.1,0.7-0.1c0.2-0.1,0.4-0.3,0.5-0.5
											c0.2-0.4,0.4-0.8,0.5-1.1c0.3-0.7,0.5-1.4,0.8-1.9c0.2-0.5,0.4-1,0.5-1.3c0.1-0.1,0.1-0.3,0.1-0.4c0-0.1,0-0.1,0-0.1
											c0,0,0,0-0.1,0.1c0,0.1-0.1,0.2-0.2,0.3c-0.1,0.3-0.3,0.8-0.5,1.3c-0.2,0.6-0.5,1.2-0.8,1.9c-0.2,0.4-0.3,0.8-0.5,1.1
											c-0.1,0.2-0.3,0.3-0.4,0.4c-0.2,0.1-0.4,0.1-0.6,0C95.2,70.4,95,70.2,95,70c-0.1-0.2-0.1-0.4-0.1-0.6
											c0-0.4,0.2-0.8,0.3-1.2c0.3-0.7,0.5-1.4,0.7-2c0.2-0.6,0.3-1,0.3-1.4c0-0.2,0.1-0.3,0.1-0.4
											C96.3,64.5,96.3,64.5,96.3,64.5z"/>
									</g>
								</g>
							</g>
						</g>
					</g>
					<g>
						<path class="st11" d="M102.3,86.7c-0.2-0.6-3.9-11.7-3.9-11.7l-6.3-0.8l2.6,9.6c0,0-0.4,2.4,0,3.9c0.4,1.4,3.6,5.4,5.2,4.4
							C101.5,91.2,102.4,87.3,102.3,86.7z"/>
					</g>
					<g>
						<g>
							<g>
								<path class="st12" d="M94.6,73.2c0,0,0.1,0,0.4,0c0.2-0.1,0.5-0.2,0.8-0.4c0.3-0.2,0.4-0.5,0.5-0.7c0.1-0.2,0.1-0.3,0.1-0.4
									c0,0-0.2,0.5-0.7,1C95.2,73.1,94.6,73.2,94.6,73.2z"/>
							</g>
						</g>
					</g>
				</g>
			</g>
		</g>
	</g>
</g>
</svg>
