<?xml version="1.0" encoding="utf-8"?>
<!-- Generator: Adobe Illustrator 25.4.1, SVG Export Plug-In . SVG Version: 6.00 Build 0)  -->
<svg version="1.1" id="Layer_1" xmlns="http://www.w3.org/2000/svg" xmlns:xlink="http://www.w3.org/1999/xlink" x="0px" y="0px"
	 viewBox="0 0 225 150" style="enable-background:new 0 0 225 150;" xml:space="preserve">
<style type="text/css">
	.st0{fill:#EF7F1A;}
	.st1{opacity:0.7;fill:#FFFFFF;enable-background:new    ;}
	.st2{fill:#FFFFFF;}
	.st3{clip-path:url(#SVGID_00000135654613717706437680000013114509082870999936_);fill:#EF7F1A;}
	.st4{clip-path:url(#SVGID_00000118373352827367977840000009265447615492446653_);fill:#EF7F1A;}
	.st5{clip-path:url(#SVGID_00000114037818042691392510000009513143072833699732_);}
	.st6{clip-path:url(#SVGID_00000115486631222467490890000015926280951666536854_);fill:#EF7F1A;}
	
		.st7{opacity:0.75;clip-path:url(#SVGID_00000118389707928943133790000012187133749279207048_);fill:#FFFFFF;enable-background:new    ;}
	
		.st8{opacity:0.75;clip-path:url(#SVGID_00000122685429230535271790000012166889591241142679_);fill:#FFFFFF;enable-background:new    ;}
	.st9{opacity:0.75;clip-path:url(#SVGID_00000140011753350486473920000000405512214438756539_);}
	
		.st10{opacity:0.75;clip-path:url(#SVGID_00000125567096656457125520000013416941247099854246_);fill:#FFFFFF;enable-background:new    ;}
	.st11{opacity:0.5;fill:#FFFFFF;enable-background:new    ;}
	.st12{fill:#23281D;}
	.st13{fill:#BCBCBC;}
	.st14{clip-path:url(#SVGID_00000065035361707688713710000009931711836225972670_);fill:#C9C9C9;}
	.st15{fill:none;stroke:#23281D;stroke-linecap:round;stroke-linejoin:round;stroke-miterlimit:10;}
	.st16{clip-path:url(#SVGID_00000062155050990789746010000000537503441228855431_);fill:#C9C9C9;}
	.st17{fill:#23281D;stroke:#23281D;stroke-linecap:round;stroke-linejoin:round;stroke-miterlimit:10;}
	.st18{clip-path:url(#SVGID_00000131339316629082284300000015959213075137688462_);}
	.st19{opacity:0.17;fill:#FFFFFF;enable-background:new    ;}
	.st20{fill:#FFFFFF;stroke:#23281D;stroke-linecap:round;stroke-linejoin:round;stroke-miterlimit:10;}
	.st21{clip-path:url(#SVGID_00000040546214069332997870000002258062714779886738_);fill:#C9C9C9;}
	.st22{clip-path:url(#SVGID_00000095318080258678722540000006960917798073935278_);fill:#A8A8A8;}
	.st23{clip-path:url(#SVGID_00000029761011680560466210000005381525282896238217_);fill:#C9C9C9;}
	
		.st24{opacity:0.17;clip-path:url(#SVGID_00000073717735254516997760000011439587547479535543_);fill:#FFFFFF;enable-background:new    ;}
	.st25{fill:none;stroke:#FFFFFF;stroke-linecap:round;stroke-linejoin:round;stroke-miterlimit:10;}
	
		.st26{opacity:0.17;clip-path:url(#SVGID_00000098917470508493577990000003478254993120824240_);fill:#FFFFFF;enable-background:new    ;}
	.st27{clip-path:url(#SVGID_00000150800012438968087660000018357211192745227701_);fill:#A8A8A8;}
	.st28{fill:none;stroke:#23281D;stroke-width:2;stroke-miterlimit:10;}
</style>
<g>
	<g id="Background_Simple">
		<g>
			<path class="st0" d="M66.5,26.3c0,0-18.3,17.4-14.8,41.4c3.5,24.1,24.9,42.7,41.8,58.2s40.8,17.6,58.1,5.8
				c17.3-11.8,7.9-26.8,17.7-48.2c9.8-21.4,16.1-25.9,10.9-48c-5.2-22.1-36.6-36.1-67.8-30.2C81.1,11.2,66.5,26.3,66.5,26.3z"/>
			<path class="st1" d="M66.5,26.3c0,0-18.3,17.4-14.8,41.4c3.5,24.1,24.9,42.7,41.8,58.2s40.8,17.6,58.1,5.8
				c17.3-11.8,7.9-26.8,17.7-48.2c9.8-21.4,16.1-25.9,10.9-48c-5.2-22.1-36.6-36.1-67.8-30.2C81.1,11.2,66.5,26.3,66.5,26.3z"/>
		</g>
	</g>
	<g id="Window">
		<g>
			<g>
				<polygon class="st2" points="145.4,22.6 118,22.6 118.3,18.6 145.7,18.6 				"/>
				<polygon class="st2" points="145.4,28.2 118,28.2 118.3,24.2 145.7,24.2 				"/>
				<polygon class="st2" points="145.4,33.8 118,33.8 118.3,29.8 145.7,29.8 				"/>
				<polygon class="st2" points="145.4,39.4 118,39.4 118.3,35.4 145.7,35.4 				"/>
				<polygon class="st2" points="145.4,45 118,45 118.3,41 145.7,41 				"/>
				<polygon class="st2" points="145.4,50.6 118,50.6 118.3,46.6 145.7,46.6 				"/>
				<polygon class="st2" points="145.4,56.2 118,56.2 118.3,52.2 145.7,52.2 				"/>
				<polygon class="st2" points="145.4,61.8 118,61.8 118.3,57.8 145.7,57.8 				"/>
				<polygon class="st2" points="145.4,67.4 118,67.4 118.3,63.4 145.7,63.4 				"/>
				<polygon class="st2" points="145.4,73 118,73 118.3,69 145.7,69 				"/>
				<polygon class="st2" points="145.4,78.6 118,78.6 118.3,74.6 145.7,74.6 				"/>
			</g>
			<g>
				<polygon class="st2" points="174.4,22.6 147,22.6 147.3,18.6 174.7,18.6 				"/>
				<polygon class="st2" points="174.4,28.2 147,28.2 147.3,24.2 174.7,24.2 				"/>
				<polygon class="st2" points="174.4,33.8 147,33.8 147.3,29.8 174.7,29.8 				"/>
				<polygon class="st2" points="174.4,39.4 147,39.4 147.3,35.4 174.7,35.4 				"/>
				<polygon class="st2" points="174.4,45 147,45 147.3,41 174.7,41 				"/>
				<polygon class="st2" points="174.4,50.6 147,50.6 147.3,46.6 174.7,46.6 				"/>
				<polygon class="st2" points="174.4,56.2 147,56.2 147.3,52.2 174.7,52.2 				"/>
				<polygon class="st2" points="174.4,61.8 147,61.8 147.3,57.8 174.7,57.8 				"/>
				<polygon class="st2" points="174.4,67.4 147,67.4 147.3,63.4 174.7,63.4 				"/>
				<polygon class="st2" points="174.4,73 147,73 147.3,69 174.7,69 				"/>
				<polygon class="st2" points="174.4,78.6 147,78.6 147.3,74.6 174.7,74.6 				"/>
			</g>
		</g>
	</g>
	<g id="Picture">
		<g>
			<rect x="57.5" y="18.4" class="st0" width="56.6" height="48.6"/>
			<g>
				<g>
					<g>
						<rect id="XMLID_14_" x="60.4" y="20.8" class="st2" width="51" height="43.7"/>
					</g>
					<g>
						<defs>
							<rect id="SVGID_1_" x="60.4" y="20.8" width="51" height="43.7"/>
						</defs>
						<clipPath id="SVGID_00000108294247121592492850000011156311724316878269_">
							<use xlink:href="#SVGID_1_"  style="overflow:visible;"/>
						</clipPath>
						<path style="clip-path:url(#SVGID_00000108294247121592492850000011156311724316878269_);fill:#EF7F1A;" d="M111.3,34.1
							c-9.2,6.5-22.3,10.8-37.5,17.6c-5.5,2.5-9.9,5.2-13.4,8v4.8h51L111.3,34.1L111.3,34.1z"/>
					</g>
					<g>
						<defs>
							<rect id="SVGID_00000129895687738153267180000002363129637507503534_" x="60.4" y="20.8" width="51" height="43.7"/>
						</defs>
						<clipPath id="SVGID_00000146475775596875963080000007623182722788031161_">
							<use xlink:href="#SVGID_00000129895687738153267180000002363129637507503534_"  style="overflow:visible;"/>
						</clipPath>
						<path style="clip-path:url(#SVGID_00000146475775596875963080000007623182722788031161_);fill:#EF7F1A;" d="M111.3,20.8H90.9
							c-2.3,1.9-5,4.1-8.1,6.5c-11.6,8.5-6.6,17.1,7.4,10.9c7.2-3.2,15.2-10.6,21.2-17V20.8z"/>
					</g>
					<g>
						<defs>
							<rect id="SVGID_00000072971016341370560740000016931952325289120909_" x="60.4" y="20.8" width="51" height="43.7"/>
						</defs>
						<clipPath id="SVGID_00000110431680230483844520000003710521384301070508_">
							<use xlink:href="#SVGID_00000072971016341370560740000016931952325289120909_"  style="overflow:visible;"/>
						</clipPath>
						<g style="clip-path:url(#SVGID_00000110431680230483844520000003710521384301070508_);">
							<path class="st0" d="M69.1,25.7c0-3.6-4.4-0.8-8.8,2.8v9C64.6,33.4,69.1,28.9,69.1,25.7z"/>
						</g>
					</g>
					<g>
						<defs>
							<rect id="SVGID_00000000934463309378322560000014807713799708399267_" x="60.4" y="20.8" width="51" height="43.7"/>
						</defs>
						<clipPath id="SVGID_00000064333577242731101450000005275484433867808162_">
							<use xlink:href="#SVGID_00000000934463309378322560000014807713799708399267_"  style="overflow:visible;"/>
						</clipPath>
						<path style="clip-path:url(#SVGID_00000064333577242731101450000005275484433867808162_);fill:#EF7F1A;" d="M73.4,39.9
							c0,2.3-1.8,4.1-4.1,4.1s-4.1-1.8-4.1-4.1c0-2.3,1.8-4.1,4.1-4.1C71.6,35.8,73.4,37.6,73.4,39.9z"/>
					</g>
					<g>
						<defs>
							<rect id="SVGID_00000018938000459614540180000002305663182486017707_" x="60.4" y="20.8" width="51" height="43.7"/>
						</defs>
						<clipPath id="SVGID_00000083071915946968784140000009107937734805642912_">
							<use xlink:href="#SVGID_00000018938000459614540180000002305663182486017707_"  style="overflow:visible;"/>
						</clipPath>
						
							<path style="opacity:0.75;clip-path:url(#SVGID_00000083071915946968784140000009107937734805642912_);fill:#FFFFFF;enable-background:new    ;" d="
							M111.3,34.1c-9.2,6.5-22.3,10.8-37.5,17.6c-5.5,2.5-9.9,5.2-13.4,8v4.8h51L111.3,34.1L111.3,34.1z"/>
					</g>
					<g>
						<defs>
							<rect id="SVGID_00000026871435198908378490000010061132434674883724_" x="60.4" y="20.8" width="51" height="43.7"/>
						</defs>
						<clipPath id="SVGID_00000003103731270275886640000002516575175502127276_">
							<use xlink:href="#SVGID_00000026871435198908378490000010061132434674883724_"  style="overflow:visible;"/>
						</clipPath>
						
							<path style="opacity:0.75;clip-path:url(#SVGID_00000003103731270275886640000002516575175502127276_);fill:#FFFFFF;enable-background:new    ;" d="
							M111.3,20.8H90.9c-2.3,1.9-5,4.1-8.1,6.5c-11.6,8.5-6.6,17.1,7.4,10.9c7.2-3.2,15.2-10.6,21.2-17V20.8z"/>
					</g>
					<g>
						<defs>
							<rect id="SVGID_00000178177722877182981360000016571576189553341353_" x="60.4" y="20.8" width="51" height="43.7"/>
						</defs>
						<clipPath id="SVGID_00000070835615607683490400000000482773816924593302_">
							<use xlink:href="#SVGID_00000178177722877182981360000016571576189553341353_"  style="overflow:visible;"/>
						</clipPath>
						<g style="opacity:0.75;clip-path:url(#SVGID_00000070835615607683490400000000482773816924593302_);">
							<path class="st2" d="M69.1,25.7c0-3.6-4.4-0.8-8.8,2.8v9C64.6,33.4,69.1,28.9,69.1,25.7z"/>
						</g>
					</g>
					<g>
						<defs>
							<rect id="SVGID_00000147916767575790036340000003435184335333170363_" x="60.4" y="20.8" width="51" height="43.7"/>
						</defs>
						<clipPath id="SVGID_00000071545336148717464650000009721583706548988068_">
							<use xlink:href="#SVGID_00000147916767575790036340000003435184335333170363_"  style="overflow:visible;"/>
						</clipPath>
						
							<path style="opacity:0.75;clip-path:url(#SVGID_00000071545336148717464650000009721583706548988068_);fill:#FFFFFF;enable-background:new    ;" d="
							M73.4,39.9c0,2.3-1.8,4.1-4.1,4.1s-4.1-1.8-4.1-4.1c0-2.3,1.8-4.1,4.1-4.1C71.6,35.8,73.4,37.6,73.4,39.9z"/>
					</g>
				</g>
				<path class="st2" d="M102.5,52.9c0,3-2.4,5.4-5.4,5.4c-3,0-5.4-2.4-5.4-5.4c0-3,2.4-5.4,5.4-5.4
					C100.1,47.5,102.5,49.9,102.5,52.9z"/>
			</g>
		</g>
	</g>
	<g id="Plants">
		<g>
			<path class="st0" d="M179.1,118.5c-1.5,1.7-1.8,3.5-1.9,4l-3.9,2.2v-10.3l0.1,0.1l6.2-4.5c0.8,0.1,3.8,0.5,6.5-1
				c3.2-1.7,5.5-7.5,5.5-7.5s-7.5-0.9-10.1,2.3c-2.1,2.6-2.1,5.1-2.1,5.9l-6,4.4v-7.6c0.7-0.3,3.6-1.8,4.6-5.5
				c1.1-4.3-4.7-12.7-4.7-12.7s-6.1,8.6-4.9,13c1,3.7,3.8,4.9,4.6,5.2V123l-4.3-3.6c0.1-0.9,0.2-3.6-2.2-6.3c-2.9-3.3-10.7-3-10.7-3
				s3.3,6.6,6.1,8.8c2.4,1.9,5.8,1.1,6.6,0.9l4.6,3.8v5h-6.8l2.8,17.3h8.3l2.8-17.3h-6.6v-3.3l4.3-2.4c1,0.3,3.9,0.9,6.7-0.5
				c3.4-1.7,6.2-5.4,6.2-5.4S182.3,114.9,179.1,118.5z"/>
			<path class="st11" d="M179.1,118.5c-1.5,1.7-1.8,3.5-1.9,4l-3.9,2.2v-10.3l0.1,0.1l6.2-4.5c0.8,0.1,3.8,0.5,6.5-1
				c3.2-1.7,5.5-7.5,5.5-7.5s-7.5-0.9-10.1,2.3c-2.1,2.6-2.1,5.1-2.1,5.9l-6,4.4v-7.6c0.7-0.3,3.6-1.8,4.6-5.5
				c1.1-4.3-4.7-12.7-4.7-12.7s-6.1,8.6-4.9,13c1,3.7,3.8,4.9,4.6,5.2V123l-4.3-3.6c0.1-0.9,0.2-3.6-2.2-6.3c-2.9-3.3-10.7-3-10.7-3
				s3.3,6.6,6.1,8.8c2.4,1.9,5.8,1.1,6.6,0.9l4.6,3.8v5h-6.8l2.8,17.3h8.3l2.8-17.3h-6.6v-3.3l4.3-2.4c1,0.3,3.9,0.9,6.7-0.5
				c3.4-1.7,6.2-5.4,6.2-5.4S182.3,114.9,179.1,118.5z"/>
		</g>
	</g>
	<g id="Desk">
		<g>
			<g>
				<g>
					<g>
						<path class="st12" d="M171.5,66.3l-11.2,0.1c0,0-0.7-0.1-0.9,0.5c0,0-1.9,4.9-2,6.6c-0.1,1.8,0.4,1.5-0.4,3.8
							c-0.7,2.3-2.9,7.8-4.1,12.2c-1.6,6-2,12.3-2.1,18.4c0,1-0.6,9.5,0.9,9.5c1.3,0,13,1.6,13.2-0.7c0.6-9-1.1-17.9,2.1-26.6
							c1.2-3.4,2.6-7,3.6-10.6c1-3.6,1.2-7.3,1.9-10.9C172.9,66,171.5,66.3,171.5,66.3z"/>
						<path class="st0" d="M172.6,67.4c-0.1-1.3-1.1-1.1-1.1-1.1l-11.2,0.1c0,0-0.7-0.1-0.9,0.5c0,0-1.9,4.9-2,6.6
							c0,0.7,0,1.1,0,1.4l0.2,0.4c0,0,0.4,3.2,4.8,3.4c4.4,0.2,6.9-1.8,7.8-3.8c0.9-1.9,1.3-5.1,2-6.9
							C172.4,67.8,172.5,67.6,172.6,67.4z"/>
					</g>
					<path class="st0" d="M170,71c-0.7,2.7-0.3,3.4-1,8.1c-0.7,4.6-3.4,9.9-4.5,14.7c-1,4.8-0.6,21.7-0.4,22.5
						c0.1,0.3,0.1,0.7,0.1,1.2c0.5-0.2,0.8-0.4,0.8-0.8c0.6-9-1.1-17.9,2.1-26.6c1.2-3.4,2.6-7,3.6-10.6c1-3.6,1.2-7.3,1.9-10.9
						c0.3-1.5-0.2-2-0.6-2.2l0,0C171.9,66.4,170.7,68.3,170,71z"/>
				</g>
				<path class="st12" d="M148.4,139.2L148.4,139.2l-0.1-10.5h1.5v-6.6h-5.5v6.6h1.5v10.6l-13.3,4.2v1c0,0.7,0.5,1.2,1.2,1.2
					c0.7,0,1.2-0.5,1.2-1.2v-0.1l11.1-1.3v1.6c0,0.6,0.5,1,1,1c0.6,0,1-0.5,1-1v-1.6l11.5,1.3v0.1c0,0.7,0.5,1.2,1.2,1.2
					c0.7,0,1.2-0.5,1.2-1.2v-1L148.4,139.2z"/>
				<path class="st12" d="M164.2,123.3h-32.9c-0.8,0-1.5-0.7-1.5-1.5v-4.6c0-0.8,0.7-1.5,1.5-1.5h32.9c0.8,0,1.5,0.7,1.5,1.5v4.6
					C165.7,122.6,165,123.3,164.2,123.3z"/>
			</g>
			<g>
				<g>
					<g>
						<path class="st12" d="M34.6,66.3l11.2,0.1c0,0,0.7-0.1,0.9,0.5c0,0,1.9,4.9,2,6.6s-0.4,1.5,0.4,3.8c0.7,2.3,2.9,7.8,4.1,12.2
							c1.6,6,2,12.3,2.1,18.4c0,1,0.6,9.5-0.9,9.5c-1.3,0-13,1.6-13.2-0.7c-0.6-9,1.1-17.9-2.1-26.6c-1.2-3.4-2.6-7-3.6-10.6
							c-1-3.6-1.2-7.3-1.9-10.9C33.1,66,34.6,66.3,34.6,66.3z"/>
						<path class="st0" d="M33.5,67.4c0.1-1.3,1.1-1.1,1.1-1.1l11.2,0.1c0,0,0.7-0.1,0.9,0.5c0,0,1.9,4.9,2,6.6c0,0.7,0,1.1,0,1.4
							l-0.2,0.4c0,0-0.4,3.2-4.8,3.4c-4.4,0.2-6.9-1.8-7.8-3.8c-0.9-1.9-1.3-5.1-2-6.9C33.7,67.8,33.6,67.6,33.5,67.4z"/>
					</g>
					<path class="st0" d="M36.1,71c0.7,2.7,0.3,3.4,1,8.1c0.7,4.6,3.4,9.9,4.5,14.7c1,4.8,0.6,21.7,0.4,22.5
						c-0.1,0.3-0.1,0.7-0.1,1.2c-0.5-0.2-0.8-0.4-0.8-0.8c-0.6-9,1.1-17.9-2.1-26.6c-1.2-3.4-2.6-7-3.6-10.6
						c-1-3.6-1.2-7.3-1.9-10.9c-0.3-1.5,0.2-2,0.6-2.2l0,0C34.1,66.4,35.3,68.3,36.1,71z"/>
				</g>
				<path class="st12" d="M57.6,139.2L57.6,139.2l0.1-10.5h-1.5v-6.6h5.5v6.6h-1.5v10.6l13.3,4.2v1c0,0.7-0.5,1.2-1.2,1.2
					c-0.7,0-1.2-0.5-1.2-1.2v-0.1L60,143.1v1.6c0,0.6-0.5,1-1,1c-0.6,0-1-0.5-1-1v-1.6l-11.5,1.3v0.1c0,0.7-0.5,1.2-1.2,1.2
					c-0.7,0-1.2-0.5-1.2-1.2v-1L57.6,139.2z"/>
				<path class="st12" d="M41.8,123.3h32.9c0.8,0,1.5-0.7,1.5-1.5v-4.6c0-0.8-0.7-1.5-1.5-1.5H41.8c-0.8,0-1.5,0.7-1.5,1.5v4.6
					C40.3,122.6,41,123.3,41.8,123.3z"/>
			</g>
			<g>
				<g>
					<g>
						<g>
							<rect x="67.4" y="94.2" class="st13" width="90.2" height="51.8"/>
						</g>
						<rect x="67.5" y="95.4" class="st12" width="90.1" height="1.4"/>
						<rect x="65.4" y="93.4" class="st13" width="92.8" height="2.3"/>
					</g>
				</g>
			</g>
		</g>
	</g>
	<g id="Characters">
		<g>
			<g>
				<g>
					<path id="XMLID_7_" class="st2" d="M91.4,88.8c0,0,1.1,4.7,1,6.1c-0.1,1.3-2.6,4.9-2.6,4.1c-0.1-0.8,0.4-2,0.4-2
						s-0.9,1.2-1.2,1.1c-0.3-0.1,0.3-1.7,0.3-1.7s-0.9,0.9-1.2,0.8s0.7-1.6,0.7-1.6s-1.1,1.2-1.2,0.8c-0.1-0.4,1-1.9,1-1.9
						s-1.1-2.3-1.1-3.2s0.6-1.8,0.6-1.8L91.4,88.8z"/>
				</g>
				<g>
					<defs>
						<path id="SVGID_00000091735744997051553570000012663158527035534778_" d="M91.4,88.8c0,0,1.1,4.7,1,6.1
							c-0.1,1.3-2.6,4.9-2.6,4.1c-0.1-0.8,0.4-2,0.4-2s-0.9,1.2-1.2,1.1c-0.3-0.1,0.3-1.7,0.3-1.7s-0.9,0.9-1.2,0.8s0.7-1.6,0.7-1.6
							s-1.1,1.2-1.2,0.8c-0.1-0.4,1-1.9,1-1.9s-1.1-2.3-1.1-3.2s0.6-1.8,0.6-1.8L91.4,88.8z"/>
					</defs>
					<clipPath id="SVGID_00000023279250487532893580000016941744287316647604_">
						<use xlink:href="#SVGID_00000091735744997051553570000012663158527035534778_"  style="overflow:visible;"/>
					</clipPath>
					<path style="clip-path:url(#SVGID_00000023279250487532893580000016941744287316647604_);fill:#C9C9C9;" d="M91.4,88.8
						c0,0,1.1,4.7,1,6.1c-0.1,1.3-2.6,4.9-2.6,4.1c-0.1-0.8,0.4-2,0.4-2s-0.9,1.2-1.2,1.1c-0.3-0.1,0.3-1.7,0.3-1.7
						s-0.9,0.9-1.2,0.8s0.7-1.6,0.7-1.6s-1.1,1.2-1.2,0.8c-0.1-0.4,1-1.9,1-1.9s-1.1-2.3-1.1-3.2s0.6-1.8,0.6-1.8L91.4,88.8z"/>
				</g>
				<g>
					<path id="XMLID_00000114789855936554526660000008402217947703809208_" class="st15" d="M91.4,88.8c0,0,1.1,4.7,1,6.1
						c-0.1,1.3-2.6,4.9-2.6,4.1c-0.1-0.8,0.4-2,0.4-2s-0.9,1.2-1.2,1.1c-0.3-0.1,0.3-1.7,0.3-1.7s-0.9,0.9-1.2,0.8s0.7-1.6,0.7-1.6
						s-1.1,1.2-1.2,0.8c-0.1-0.4,1-1.9,1-1.9s-1.1-2.3-1.1-3.2s0.6-1.8,0.6-1.8L91.4,88.8z"/>
				</g>
			</g>
			<g>
				<g>
					<path id="XMLID_6_" class="st2" d="M91.2,88.8c0,0,0.8,3.3,0.7,4.2c-0.1,0.9-1,3.7-1.7,3.2c-0.7-0.5,0.4-2.4,0.4-2.4
						s-1.9-1.4-2.4-2.6c-0.4-1.3-0.2-1.8-0.2-1.8L91.2,88.8z"/>
				</g>
				<g>
					<defs>
						<path id="SVGID_00000004516582489563674150000017892198834197567157_" d="M91.2,88.8c0,0,0.8,3.3,0.7,4.2
							c-0.1,0.9-1,3.7-1.7,3.2c-0.7-0.5,0.4-2.4,0.4-2.4s-1.9-1.4-2.4-2.6c-0.4-1.3-0.2-1.8-0.2-1.8L91.2,88.8z"/>
					</defs>
					<clipPath id="SVGID_00000059988650207267521010000012939749397837238959_">
						<use xlink:href="#SVGID_00000004516582489563674150000017892198834197567157_"  style="overflow:visible;"/>
					</clipPath>
					<path style="clip-path:url(#SVGID_00000059988650207267521010000012939749397837238959_);fill:#C9C9C9;" d="M91.2,88.8
						c0,0,0.8,3.3,0.7,4.2c-0.1,0.9-1,3.7-1.7,3.2c-0.7-0.5,0.4-2.4,0.4-2.4s-1.9-1.4-2.4-2.6c-0.4-1.3-0.2-1.8-0.2-1.8L91.2,88.8z"
						/>
				</g>
				<g>
					<path id="XMLID_00000152233563816218856030000002637574645560793012_" class="st15" d="M91.2,88.8c0,0,0.8,3.3,0.7,4.2
						c-0.1,0.9-1,3.7-1.7,3.2c-0.7-0.5,0.4-2.4,0.4-2.4s-1.9-1.4-2.4-2.6c-0.4-1.3-0.2-1.8-0.2-1.8L91.2,88.8z"/>
				</g>
			</g>
			<polygon class="st17" points="88.9,73.3 91.6,89.2 87.8,90 84.1,77.8 			"/>
			<path class="st17" d="M87.8,81.1c0,0,0.2,18.9,0.6,24c0.4,5.1-1,11.9-2.2,13.8c-1.2,1.9-6.5,14-6.3,14.8c0.2,0.7,1.3,2.9,1.3,3.5
				c0,0.6,0,2.5,0,2.5s6,4,6.5,4c0.5,0,1.1,1-0.1,1.7c-1.2,0.7-14.8,0.7-15.4,0.2c-0.6-0.5-0.8-1.3-0.8-1.3s-1.9,0.7-1.8-1.1
				c0.1-1.8,2.3-9.6,2.3-9.6s-1.3-8.5-0.8-13.9c0.5-5.4,2.2-12,2.2-13.3c0-1.3-1.7-10.2-1.9-11.6c-0.2-1.5-3.7-5.6-2.2-8.8
				c1.6-3.3,2.8-8.5,3.3-8.8c0.5-0.4,7-0.6,9.7,0C84.8,77.7,87.7,77.7,87.8,81.1z"/>
			<g>
				<g>
					<path id="XMLID_2_" class="st12" d="M75.8,43c0,0-2.1,1.9-2.4,2.5c-0.4,0.6-4.7,6.8-4.8,11.3c-0.1,4.4,3.2,17.8,3.2,17.8
						l-4.9,12.6l1.4,0.6l1.4-1.6v2.3c0,0,1.6,1.5,5.9,2.9c4.3,1.4,9.8-0.2,9.8-0.2l1.6-10.4v10.3l1.9-1.3l0.1-17.1
						c0,0,1.6-9.2,1.6-11.8s-4.3-10.6-6.3-13c-1.9-2.3-5.1-4.3-6.1-5C77.4,42.2,75.8,43,75.8,43z"/>
				</g>
				<g>
					<defs>
						<path id="SVGID_00000003800962169898879260000017602785031812556726_" d="M75.8,43c0,0-2.1,1.9-2.4,2.5
							c-0.4,0.6-4.7,6.8-4.8,11.3c-0.1,4.4,3.2,17.8,3.2,17.8l-4.9,12.6l1.4,0.6l1.4-1.6v2.3c0,0,1.6,1.5,5.9,2.9
							c4.3,1.4,9.8-0.2,9.8-0.2l1.6-10.4v10.3l1.9-1.3l0.1-17.1c0,0,1.6-9.2,1.6-11.8s-4.3-10.6-6.3-13c-1.9-2.3-5.1-4.3-6.1-5
							C77.4,42.2,75.8,43,75.8,43z"/>
					</defs>
					<clipPath id="SVGID_00000009591777321072109800000007052854921084889771_">
						<use xlink:href="#SVGID_00000003800962169898879260000017602785031812556726_"  style="overflow:visible;"/>
					</clipPath>
					<g style="clip-path:url(#SVGID_00000009591777321072109800000007052854921084889771_);">
						<path class="st19" d="M75.8,43c0,0-2.1,1.9-2.4,2.5c-0.4,0.6-4.7,6.8-4.8,11.3c-0.1,4.4,3.2,17.8,3.2,17.8l-4.9,12.6l1.4,0.6
							l1.4-1.6v2.3c0,0,1.6,1.5,5.9,2.9c4.3,1.4,9.8-0.2,9.8-0.2l1.6-10.4v10.3l1.9-1.3l0.1-17.1c0,0,1.6-9.2,1.6-11.8
							s-4.3-10.6-6.3-13c-1.9-2.3-5.1-4.3-6.1-5C77.4,42.2,75.8,43,75.8,43z"/>
						<path class="st15" d="M69.7,58.2c0,0,2.6,1.8,4.3,2.5"/>
						<path class="st15" d="M70.5,60.1c0,0,2.9,0.8,4.4,0.8"/>
						<polyline class="st15" points="74.7,77.4 82.9,78.4 82.3,80.1 74.8,79.2 						"/>
					</g>
				</g>
				<g>
					<path id="XMLID_00000095339838807373522830000000896198298046619034_" class="st15" d="M75.8,43c0,0-2.1,1.9-2.4,2.5
						c-0.4,0.6-4.7,6.8-4.8,11.3c-0.1,4.4,3.2,17.8,3.2,17.8l-4.9,12.6l1.4,0.6l1.4-1.6v2.3c0,0,1.6,1.5,5.9,2.9
						c4.3,1.4,9.8-0.2,9.8-0.2l1.6-10.4v10.3l1.9-1.3l0.1-17.1c0,0,1.6-9.2,1.6-11.8s-4.3-10.6-6.3-13c-1.9-2.3-5.1-4.3-6.1-5
						C77.4,42.2,75.8,43,75.8,43z"/>
				</g>
			</g>
			<path class="st20" d="M75.4,43.5l7.9,8.5l4.6,8.8c0,0-1-6.6-1.9-8.3c-0.9-1.8-4.7-6.3-5.1-7.3C80.5,44.2,75.4,43.5,75.4,43.5z"/>
			<path class="st17" d="M85.7,56.7l2.2,4.2c0,0-0.7-4.5-1.4-7l-0.5-1.3c-0.3-0.7-1.2-1.9-2.1-3l-1.2-0.2l0.5,2.8l1.6,1.3L85.7,56.7
				z"/>
			<path class="st20" d="M83.6,46.7l0.4,0.5l1.3,1.5l0.8,3.9l-3.3-3.3C82.8,49.2,83.2,47.2,83.6,46.7z"/>
			<g>
				<g>
					<g>
						<path id="XMLID_4_" class="st2" d="M87.4,30.8c0,0,1.7,1.3,1.9,2.6c0.2,1.3-0.4,2.7-0.4,3.2c0.1,0.5,1.4,1.6,1.3,2.2
							c-0.1,0.6-1.1,0.8-1.1,0.8s-1.2,4.2-1.4,4.9s-1.7,0.5-2.8,0.4l-1.9,5.7l-6.3-7.5l1-3c0,0-2.7-3.3-2.9-6.8
							c-0.2-3.5,2.6-5.9,6.6-6.4c4-0.5,7.3,1.4,7.8,2.2C89.4,29.9,87.4,30.8,87.4,30.8z"/>
					</g>
					<g>
						<defs>
							<path id="SVGID_00000137845566925711468490000009602835611435752117_" d="M87.4,30.8c0,0,1.7,1.3,1.9,2.6
								c0.2,1.3-0.4,2.7-0.4,3.2c0.1,0.5,1.4,1.6,1.3,2.2c-0.1,0.6-1.1,0.8-1.1,0.8s-1.2,4.2-1.4,4.9s-1.7,0.5-2.8,0.4l-1.9,5.7
								l-6.3-7.5l1-3c0,0-2.7-3.3-2.9-6.8c-0.2-3.5,2.6-5.9,6.6-6.4c4-0.5,7.3,1.4,7.8,2.2C89.4,29.9,87.4,30.8,87.4,30.8z"/>
						</defs>
						<clipPath id="SVGID_00000052062026584348405910000001991416077986859966_">
							<use xlink:href="#SVGID_00000137845566925711468490000009602835611435752117_"  style="overflow:visible;"/>
						</clipPath>
						<path style="clip-path:url(#SVGID_00000052062026584348405910000001991416077986859966_);fill:#C9C9C9;" d="M87.4,30.8
							c0,0,1.7,1.3,1.9,2.6c0.2,1.3-0.4,2.7-0.4,3.2c0.1,0.5,1.4,1.6,1.3,2.2c-0.1,0.6-1.1,0.8-1.1,0.8s-1.2,4.2-1.4,4.9
							s-1.7,0.5-2.8,0.4l-1.9,5.7l-6.3-7.5l1-3c0,0-2.7-3.3-2.9-6.8c-0.2-3.5,2.6-5.9,6.6-6.4c4-0.5,7.3,1.4,7.8,2.2
							C89.4,29.9,87.4,30.8,87.4,30.8z"/>
					</g>
					<g>
						<defs>
							<path id="SVGID_00000173856137416251479280000008639598089626035101_" d="M87.4,30.8c0,0,1.7,1.3,1.9,2.6
								c0.2,1.3-0.4,2.7-0.4,3.2c0.1,0.5,1.4,1.6,1.3,2.2c-0.1,0.6-1.1,0.8-1.1,0.8s-1.2,4.2-1.4,4.9s-1.7,0.5-2.8,0.4l-1.9,5.7
								l-6.3-7.5l1-3c0,0-2.7-3.3-2.9-6.8c-0.2-3.5,2.6-5.9,6.6-6.4c4-0.5,7.3,1.4,7.8,2.2C89.4,29.9,87.4,30.8,87.4,30.8z"/>
						</defs>
						<clipPath id="SVGID_00000138548630337531540320000007275471564498176941_">
							<use xlink:href="#SVGID_00000173856137416251479280000008639598089626035101_"  style="overflow:visible;"/>
						</clipPath>
						<path style="clip-path:url(#SVGID_00000138548630337531540320000007275471564498176941_);fill:#A8A8A8;" d="M80,47.1
							c1.1-0.2,2.9-0.6,4.5-1l0.4-1.2c0.9,0.1,2,0.3,2.5-0.1c-1.2-0.5-4.2-1.4-4.8-2.5c-0.8-1.4,1.9-5.5,1.9-7.5
							c0-2-2.5-4.3-2.5-4.3c-1.2-1.2-3.5-1.5-5.4-1.5c-1.2,1.1-1.9,2.6-1.8,4.4c0.2,3.5,2.9,6.8,2.9,6.8l-1,3L80,47.1z"/>
					</g>
					<g>
						<path id="XMLID_00000062182396597636895040000008478259501611813257_" class="st15" d="M87.4,30.8c0,0,1.7,1.3,1.9,2.6
							c0.2,1.3-0.4,2.7-0.4,3.2c0.1,0.5,1.4,1.6,1.3,2.2c-0.1,0.6-1.1,0.8-1.1,0.8s-1.2,4.2-1.4,4.9s-1.7,0.5-2.8,0.4l-1.9,5.7
							l-6.3-7.5l1-3c0,0-2.7-3.3-2.9-6.8c-0.2-3.5,2.6-5.9,6.6-6.4c4-0.5,7.3,1.4,7.8,2.2C89.4,29.9,87.4,30.8,87.4,30.8z"/>
					</g>
				</g>
				<path class="st17" d="M87.4,30.8c0,0,2.1-0.9,1.6-1.6c-0.4-0.8-3.8-2.7-7.8-2.2c-4,0.5-6.8,2.9-6.6,6.4c0.2,3.5,2.9,6.8,2.9,6.8
					l-0.2,0.5c1.5,0.7,3-0.5,3-0.5s-0.9,0.5-1.7-0.3c-0.9-0.8-0.9-3.3,0.1-3.5c1.1-0.2,1.8,0.2,1.8,1c0,0.8,0.2,0.3,0.8,0.2
					s0.1-1.8,0.4-2.1c0.4-0.3,0.9-0.5,1.5-1.4c0.6-0.9-1.2-1.6-1.4-2.3C81.7,31,87.4,30.8,87.4,30.8z"/>
				<polyline class="st15" points="87.9,36.3 86.5,36.8 87.7,36.8 				"/>
				<path class="st15" d="M88.4,35c0,0-0.6-0.8-1.2-0.4s-0.7,0.6-0.7,0.6"/>
				<path class="st15" d="M87,40.7c0,0,0.5,0.4,1.3,0.3"/>
			</g>
			<polygon class="st20" points="76.3,41.7 84.3,49.6 83.6,52.9 75.1,43.8 			"/>
			<path class="st20" d="M107,71.7c0,0-2.8-1.7-3.3-1.5c-0.5,0.2-4.9,3.3-4.6,4.1s2.7,1.7,4,2.3s4.2-0.6,4.2-0.6L107,71.7z"/>
			<g>
				<g>
					<path id="XMLID_5_" class="st2" d="M98.8,71.1c0,0,2.4-1.4,2.8-1.4s2.6,2,2.6,2l-0.9,1.4c0,0,2.9,1.4,2.6,2s-1.4,1.4-2.7,1.5
						s-4.6-2-4.6-2L98.8,71.1z"/>
				</g>
				<g>
					<defs>
						<path id="SVGID_00000052083336889691554700000017100607380013120941_" d="M98.8,71.1c0,0,2.4-1.4,2.8-1.4s2.6,2,2.6,2
							l-0.9,1.4c0,0,2.9,1.4,2.6,2s-1.4,1.4-2.7,1.5s-4.6-2-4.6-2L98.8,71.1z"/>
					</defs>
					<clipPath id="SVGID_00000089567322521094153680000018429922515500479398_">
						<use xlink:href="#SVGID_00000052083336889691554700000017100607380013120941_"  style="overflow:visible;"/>
					</clipPath>
					<path style="clip-path:url(#SVGID_00000089567322521094153680000018429922515500479398_);fill:#C9C9C9;" d="M98.8,71.1
						c0,0,2.4-1.4,2.8-1.4s2.6,2,2.6,2l-0.9,1.4c0,0,2.9,1.4,2.6,2s-1.4,1.4-2.7,1.5s-4.6-2-4.6-2L98.8,71.1z"/>
				</g>
				<g>
					<path id="XMLID_00000112618352540716642820000002740556446253756800_" class="st15" d="M98.8,71.1c0,0,2.4-1.4,2.8-1.4
						s2.6,2,2.6,2l-0.9,1.4c0,0,2.9,1.4,2.6,2s-1.4,1.4-2.7,1.5s-4.6-2-4.6-2L98.8,71.1z"/>
				</g>
			</g>
			<polygon class="st20" points="97.1,70.5 99.2,70.9 98.5,74.5 96.7,73.9 			"/>
			<g>
				<g>
					<path id="XMLID_3_" class="st12" d="M72.4,49.3c0,0-2,3.9-2.3,5.9c-0.2,2,8.1,17.7,8.7,18.2c0.6,0.5,18.4,1.1,18.4,1.1l0.8-3.9
						l-15.2-4.3l-5.2-15.9"/>
				</g>
				<g>
					<defs>
						<path id="SVGID_00000114034622318889980680000000615710843860520850_" d="M72.4,49.3c0,0-2,3.9-2.3,5.9
							c-0.2,2,8.1,17.7,8.7,18.2c0.6,0.5,18.4,1.1,18.4,1.1l0.8-3.9l-15.2-4.3l-5.2-15.9"/>
					</defs>
					<clipPath id="SVGID_00000141427849874390762590000010991243496406732462_">
						<use xlink:href="#SVGID_00000114034622318889980680000000615710843860520850_"  style="overflow:visible;"/>
					</clipPath>
					
						<path style="opacity:0.17;clip-path:url(#SVGID_00000141427849874390762590000010991243496406732462_);fill:#FFFFFF;enable-background:new    ;" d="
						M72.4,49.3c0,0-2,3.9-2.3,5.9c-0.2,2,8.1,17.7,8.7,18.2c0.6,0.5,18.4,1.1,18.4,1.1l0.8-3.9l-15.2-4.3l-5.2-15.9"/>
				</g>
				<g>
					<path id="XMLID_00000172421835720837769950000001588080051997478066_" class="st15" d="M72.4,49.3c0,0-2,3.9-2.3,5.9
						c-0.2,2,8.1,17.7,8.7,18.2c0.6,0.5,18.4,1.1,18.4,1.1l0.8-3.9l-15.2-4.3l-5.2-15.9"/>
				</g>
			</g>
			<path class="st20" d="M104.3,70.6c0,0-1.1-0.9-1.4,0.2c-0.4,1.1-2.7,3.6-1.7,3.7c1.1,0.1,3-2.1,3-2.1"/>
			<path class="st20" d="M99.6,74.8c0,0-0.3,1.3,0.4,1.8c0.5,0.4,0.7-0.7,0.6-1.4C100.5,74.4,99.8,74.2,99.6,74.8z"/>
			<path class="st20" d="M100.7,75.1c0,0-0.3,1.3,0.4,1.8c0.5,0.4,0.7-0.7,0.6-1.4C101.5,74.7,100.9,74.5,100.7,75.1z"/>
			<path class="st20" d="M101.7,75.6c0,0-0.3,1.3,0.4,1.8c0.5,0.4,0.7-0.7,0.6-1.4C102.6,75.2,101.9,75,101.7,75.6z"/>
			<path class="st20" d="M102.8,76.2c0,0-0.3,0.9,0.3,1.2c0.4,0.3,0.7-0.5,0.6-1C103.6,75.9,103,75.8,102.8,76.2z"/>
			<polygon class="st15" points="107,71.7 107.2,76.6 108.9,76.1 108.5,71.6 			"/>
			<polygon class="st17" points="108.1,71.3 108.9,77 121.5,75.7 121.8,68.1 			"/>
			<path class="st25" d="M85.9,94.2c0,0-2.3,15.4-2.3,20.6c0,5.2-3.5,13.9-3.6,18.8"/>
			<g>
				<path class="st20" d="M72.3,145.5c0.6,0.5,14.2,0.5,15.4-0.2c1.2-0.7,0.6-1.7,0.1-1.7c-0.5,0-6.5-4-6.5-4s-3.3,2.5-5.1,3.1
					c-1.8,0.6-4.7,0.7-4.7,0.7v0.7C71.5,144.2,71.7,145.1,72.3,145.5z"/>
				<path class="st20" d="M87.7,145.3c0.6-0.4,0.8-0.8,0.7-1.2c-1.4,0.3-3.1,0.5-5.4,0.6c-3.7,0.1-9.4-0.1-11.4-0.2
					c0.1,0.3,0.4,0.7,0.7,1.1C72.9,146,86.5,146,87.7,145.3z"/>
			</g>
			<path class="st17" d="M71.1,144.3l0.4-0.8l0.5-9.9c0,0-2.2,7.7-2.3,9.6C69.6,144.4,70.6,144.4,71.1,144.3z"/>
			<path class="st17" d="M123.4,91.2c0,0-1.2,18,0,25.3c1.2,7.3,4.2,19.8,4.7,21.4c0.5,1.6,0.4,2.9,0.4,2.9l6.8,1
				c0,0-2.1-23.8-2.1-26.6c0-2.8,2.3-23.6,2.3-23.6L123.4,91.2z"/>
			<path class="st17" d="M128.4,140.8c0,0-7.4,3.1-8.2,3.7c-0.8,0.6,1.8,1.5,5.1,1.5c3.3,0,6.5-0.4,6.5-0.4l1.3-0.7l0.1,0.8h3.5
				c0,0,0.6-2.9,0.4-3.6c-0.2-0.7-0.6-1.5-0.6-1.5L128.4,140.8z"/>
			<g>
				<path class="st17" d="M122.3,89.8c0,0,0.6,17.3,2.1,23.5c1.5,6.2,4,21.2,4,22.7s-0.4,2.7-0.4,2.7l-0.5,1.6
					c0.1,0.6,0.4,1.1,0.4,1.1s3.1,0.7,5.2,0.7s3.8-0.6,3.8-0.6s0.1-3.8,0.2-5.6c0.1-1.8-0.5-13.4-0.5-16.2s-0.7-4.4-0.7-7.7
					c0-3.4-0.6-12.5-0.5-13.9c0.1-1.5,1.8-3,2.2-4.8c0.4-1.8,0.7-3.7,0.7-3.7L122.3,89.8z"/>
				<path class="st25" d="M123.7,108c0,0,3.4,23.5,4.2,24.9c0.8,1.5,0.4,3.1,0.4,3.1"/>
			</g>
			<path class="st17" d="M119.4,76.1c0,0-0.5,4.6-0.5,8.2c0,2,0,4.5,0,6.4c0,1.6,1.1,2.9,2.6,3.3c0.8,0.2,1.7,0.3,2.4,0.3l-2.8-17.6
				C121.1,76.6,119.8,74.5,119.4,76.1z"/>
			<path class="st17" d="M132.8,44.6c0,0,1.3,0.7,1.9,1.4c0.6,0.7,1.3,2,1.3,2s5.1,5.9,5.3,6.5c0.1,0.6-2.9,19.7-2.9,19.7l3.4,18
				c0,0-5.6,3.1-9.8,3.3c-3,0.1-7.5-0.8-9.9-1.4c-1-0.2-1.7-1.1-1.8-2.1c-0.2-2.5-0.7-7.6-0.9-12.4c-0.3-5.6,0.5-16.6,1.1-20.4
				c0.6-3.9,2.5-9.1,3.9-11.3C125.9,45.7,129.9,43.4,132.8,44.6z"/>
			<g>
				<g>
					<path id="XMLID_1_" class="st12" d="M135.9,48c0,0-0.7-1.3-1.3-2c-0.6-0.7-1.9-1.4-1.9-1.4c-2.4-1-5.6,0.4-7.4,2.2
						c-0.2,0.5-2.2,4.9-3.1,8.5c-1,3.8-0.8,8.6-0.8,8.6s3.2-4.1,7.6-9c2.9-3.2,5.6-5.5,7.1-6.7C136,48.1,135.9,48,135.9,48z"/>
				</g>
				<g>
					<defs>
						<path id="SVGID_00000084494060713773208560000013976584909896778390_" d="M135.9,48c0,0-0.7-1.3-1.3-2
							c-0.6-0.7-1.9-1.4-1.9-1.4c-2.4-1-5.6,0.4-7.4,2.2c-0.2,0.5-2.2,4.9-3.1,8.5c-1,3.8-0.8,8.6-0.8,8.6s3.2-4.1,7.6-9
							c2.9-3.2,5.6-5.5,7.1-6.7C136,48.1,135.9,48,135.9,48z"/>
					</defs>
					<clipPath id="SVGID_00000163069268529075058830000016730248395587265681_">
						<use xlink:href="#SVGID_00000084494060713773208560000013976584909896778390_"  style="overflow:visible;"/>
					</clipPath>
					
						<path style="opacity:0.17;clip-path:url(#SVGID_00000163069268529075058830000016730248395587265681_);fill:#FFFFFF;enable-background:new    ;" d="
						M135.9,48c0,0-0.7-1.3-1.3-2c-0.6-0.7-1.9-1.4-1.9-1.4c-2.4-1-5.6,0.4-7.4,2.2c-0.2,0.5-2.2,4.9-3.1,8.5
						c-1,3.8-0.8,8.6-0.8,8.6s3.2-4.1,7.6-9c2.9-3.2,5.6-5.5,7.1-6.7C136,48.1,135.9,48,135.9,48z"/>
				</g>
				<g>
					<path id="XMLID_00000047033233103866196400000016790376789201455753_" class="st15" d="M135.9,48c0,0-0.7-1.3-1.3-2
						c-0.6-0.7-1.9-1.4-1.9-1.4c-2.4-1-5.6,0.4-7.4,2.2c-0.2,0.5-2.2,4.9-3.1,8.5c-1,3.8-0.8,8.6-0.8,8.6s3.2-4.1,7.6-9
						c2.9-3.2,5.6-5.5,7.1-6.7C136,48.1,135.9,48,135.9,48z"/>
				</g>
			</g>
			<path class="st20" d="M125,49.6c0,0-1.6,5.1-2.1,6.6c-0.5,1.4-0.5,3.7-0.5,3.7s6.1-9.2,7.6-10.7c1.5-1.5,3.4-3.9,3.4-3.9
				l-1.3-0.4L125,49.6z"/>
			<path class="st20" d="M125.5,47.7c0,0-0.7,2.1-0.7,2.3c0,0.1-0.2,2.2-0.2,2.2l2.6-3.5L125.5,47.7z"/>
			<polygon class="st20" points="132,43.4 125,49.2 126,52.4 133.3,45 			"/>
			<g>
				<path class="st20" d="M131.1,89.1c0,0-1,2.5-1.3,3.3c-0.3,0.8-0.1,4-0.1,4.4c0,0.3,0.6,0.4,0.6,0.4s0.2,2.6,0.4,2.6
					c0.2,0.1,0.7,0.1,0.7,0.1s0.4,1.3,0.9,1.2c0.5-0.1,0.6-0.7,0.6-0.7s0.6,0.1,0.9-0.4c0.3-0.5,0.5-1,0.5-1s0.9-0.4,1-0.8
					c0.1-0.3,0.3-1.5,0.3-1.5s0.3-0.1,0.3-0.9c0-0.8-0.6-5.6-0.6-5.6L131.1,89.1z"/>
				<line class="st15" x1="130.3" y1="97.2" x2="130.4" y2="95"/>
				<line class="st15" x1="131.5" y1="100" x2="131.7" y2="96.6"/>
				<line class="st15" x1="133" y1="100.5" x2="133.2" y2="96.8"/>
				<line class="st15" x1="134.4" y1="99.1" x2="134.6" y2="96.5"/>
			</g>
			<g>
				<path class="st17" d="M138.5,52.9l2.7,1.6l-0.9,18.8l-4.8,17.8l-4.6-1.2l1.5-14l-0.7-14.2c0,0,1-3.3,3.4-5.1"/>
				<path class="st25" d="M132.9,56.1c0,0-1.2,3.1-1.3,5.7"/>
				<path class="st25" d="M133.9,57.6c0,0-2.1,3.5-2.1,5c0,1.6,0.6,14.6,0.6,14.6l-1.4,11.3"/>
			</g>
			<g>
				<g>
					<g>
						<path id="XMLID_8_" class="st2" d="M120.8,31.9c0,0-1.5,4.1-1.3,4.7c0.1,0.6,0.3,1.5,0.3,1.5s-2.3,2.8-2,3.1s1.5,0.7,1.5,0.7
							s1,4.4,1.5,4.8c0.4,0.4,2.9-0.5,2.9-0.5l2.7,3.4l5.6-5.4l-0.7-2.8c0,0,2.9-5.2,2.9-7.6c0-2.4-5.1-5.7-8.7-5.7
							c-3.6,0-6.9,1.4-6.3,2.3C120,31.5,120.8,31.9,120.8,31.9z"/>
					</g>
					<g>
						<defs>
							<path id="SVGID_00000165192066234852796100000005629115177435662254_" d="M120.8,31.9c0,0-1.5,4.1-1.3,4.7
								c0.1,0.6,0.3,1.5,0.3,1.5s-2.3,2.8-2,3.1s1.5,0.7,1.5,0.7s1,4.4,1.5,4.8c0.4,0.4,2.9-0.5,2.9-0.5l2.7,3.4l5.6-5.4l-0.7-2.8
								c0,0,2.9-5.2,2.9-7.6c0-2.4-5.1-5.7-8.7-5.7c-3.6,0-6.9,1.4-6.3,2.3C120,31.5,120.8,31.9,120.8,31.9z"/>
						</defs>
						<clipPath id="SVGID_00000026121696307153677830000013988012103505033115_">
							<use xlink:href="#SVGID_00000165192066234852796100000005629115177435662254_"  style="overflow:visible;"/>
						</clipPath>
						<path style="clip-path:url(#SVGID_00000026121696307153677830000013988012103505033115_);fill:#A8A8A8;" d="M132.4,31
							c-0.7,0.1-1.3,0.3-2,0.6l-5.3,2.2c0,0-2.5,2.2-2.3,3.8c0.3,1.7,2.5,3.9,2,5.6c-0.5,1.7-3.7,3.4-3.7,3.4l1,0
							c0.8-0.2,1.5-0.5,1.5-0.5l0.4,0.5l5.2,0.2l2.7-2.6l-0.7-2.8c0,0,2.9-5.2,2.9-7.6C134.2,33,133.5,32,132.4,31z"/>
					</g>
					<g>
						<path id="XMLID_00000140004682725891571760000000867190340257098171_" class="st15" d="M120.8,31.9c0,0-1.5,4.1-1.3,4.7
							c0.1,0.6,0.3,1.5,0.3,1.5s-2.3,2.8-2,3.1s1.5,0.7,1.5,0.7s1,4.4,1.5,4.8c0.4,0.4,2.9-0.5,2.9-0.5l2.7,3.4l5.6-5.4l-0.7-2.8
							c0,0,2.9-5.2,2.9-7.6c0-2.4-5.1-5.7-8.7-5.7c-3.6,0-6.9,1.4-6.3,2.3C120,31.5,120.8,31.9,120.8,31.9z"/>
					</g>
				</g>
				<path class="st17" d="M131.3,41.5c0,0,2.9-5.2,2.9-7.6c0-2.4-5.1-5.7-8.7-5.7c-3.6,0-6.9,1.4-6.3,2.3c0.7,1,1.5,1.4,1.5,1.4
					s2.2,1,2.2,1.3c0,0.3-1.3,1.7-0.9,2.4c0.5,0.6,2.6,1.4,2.6,1.4s-0.4,1.2,0.2,1.4c0.5,0.1,0.8-0.4,1.2-0.8
					c0.4-0.4,1.6-0.9,1.8,0.7c0.2,1.5-0.6,3-0.8,3.1c-0.2,0.1,2.3,1.8,3.4,1.3c0.3-0.1,0.6-0.3,1-0.5L131.3,41.5z"/>
				<ellipse class="st15" cx="120.4" cy="38" rx="0.3" ry="1.2"/>
				<line class="st15" x1="120.8" y1="37.5" x2="126.1" y2="37.6"/>
				<path class="st15" d="M119.9,36.1c0,0,0.5-0.8,1,0.2"/>
				<path class="st15" d="M119.8,42.7c0,0,0.8-0.3,1.5-0.9"/>
			</g>
		</g>
	</g>
	<g id="Ground_1_">
		<line class="st28" x1="36.6" y1="146" x2="186" y2="146"/>
	</g>
</g>
</svg>
