<?xml version="1.0" encoding="utf-8"?>
<!-- Generator: Adobe Illustrator 25.4.1, SVG Export Plug-In . SVG Version: 6.00 Build 0)  -->
<svg version="1.1" id="Layer_1" xmlns="http://www.w3.org/2000/svg" xmlns:xlink="http://www.w3.org/1999/xlink" x="0px" y="0px"
	 viewBox="0 0 225 150" style="enable-background:new 0 0 225 150;" xml:space="preserve">
<style type="text/css">
	.st0{display:none;}
	.st1{display:inline;}
	.st2{fill:#F5F5F5;}
	.st3{fill:#E6E6E6;}
	.st4{fill:#E0E0E0;}
	.st5{fill:#FAFAFA;}
	.st6{fill:#F0F0F0;}
	.st7{fill:#FFFFFF;}
	.st8{fill:#E58A7B;}
	.st9{fill:#4178FF;}
	.st10{opacity:0.2;enable-background:new    ;}
	.st11{fill:#E8ECF1;}
	.st12{fill:#263238;}
	.st13{fill:#CF6F64;}
	.st14{fill:#DF5753;}
	.st15{opacity:0.56;fill:#FAFAFA;enable-background:new    ;}
	.st16{opacity:7.000000e-02;fill:#4178FF;enable-background:new    ;}
	.st17{opacity:0.47;fill:#4178FF;enable-background:new    ;}
	.st18{opacity:0.1;fill:#FFFFFF;enable-background:new    ;}
	.st19{opacity:0.6;enable-background:new    ;}
	.st20{opacity:0.4;enable-background:new    ;}
	.st21{opacity:0.4;fill:#FFFFFF;enable-background:new    ;}
	.st22{opacity:0.3;fill:#FFFFFF;enable-background:new    ;}
</style>
<g id="Background_simple" class="st0">
	<g class="st1">
		<path class="st2" d="M-3,62.7c58.5,60.4,135.5,102.2,206.8,34.6c36.8-34.8,85.3-128.9,37.4-172c-66.1-59.3-104,37.8-153.4,50.9
			c-33.9,9-62.3-43-102.8-8.2C-47.1-4.5-27.4,37.6-3,62.7z"/>
	</g>
</g>
<g>
	<g id="Background_complete">
		<g>
			<g>
				<rect x="16.4" y="129.2" class="st3" width="192.1" height="0.1"/>
				<rect x="51.7" y="135.1" class="st3" width="12.7" height="0.1"/>
				<rect x="40.3" y="135.1" class="st3" width="7.4" height="0.1"/>
				<rect x="90" y="136.5" class="st3" width="7.4" height="0.1"/>
				<rect x="119.2" y="138.6" class="st3" width="16.6" height="0.1"/>
				<rect x="113.3" y="138.6" class="st3" width="2.4" height="0.1"/>
				<rect x="154.6" y="136.5" class="st3" width="36" height="0.1"/>
				<g>
					<path class="st3" d="M107.5,112.1H33.3c-1.2,0-2.2-1-2.2-2.2V5.6c0-1.2,1-2.2,2.2-2.2h74.2c1.2,0,2.2,1,2.2,2.2v104.3
						C109.7,111.1,108.7,112.1,107.5,112.1z M33.3,3.5c-1.2,0-2.1,0.9-2.1,2.1v104.3c0,1.2,0.9,2.1,2.1,2.1h74.2
						c1.2,0,2.1-0.9,2.1-2.1V5.6c0-1.2-0.9-2.1-2.1-2.1H33.3z"/>
					<path class="st3" d="M190.6,112.1h-74.2c-1.2,0-2.2-1-2.2-2.2V5.6c0-1.2,1-2.2,2.2-2.2h74.2c1.2,0,2.2,1,2.2,2.2v104.3
						C192.8,111.1,191.8,112.1,190.6,112.1z M116.4,3.5c-1.2,0-2.1,0.9-2.1,2.1v104.3c0,1.2,0.9,2.1,2.1,2.1h74.2
						c1.2,0,2.1-0.9,2.1-2.1V5.6c0-1.2-0.9-2.1-2.1-2.1H116.4z"/>
				</g>
			</g>
			<g>
				<rect x="110.7" y="96.4" class="st4" width="8.5" height="33.5"/>
				<polygon class="st5" points="117.6,129.9 119.2,129.9 119.2,125.4 115.9,125.4 				"/>
				<rect x="73.7" y="96.4" class="st4" width="8.5" height="33.5"/>
				<rect x="80.8" y="96.4" class="st5" width="38.4" height="30.7"/>
				<path class="st4" d="M117.8,97.9v8.1H82.1v-8.1H117.8 M117.9,97.8H82v8.4h35.9V97.8L117.9,97.8z"/>
				<polygon class="st5" points="82.4,129.9 80.8,129.9 80.8,125.4 84,125.4 				"/>
				<path class="st3" d="M99.1,102c0,0.5,0.4,0.8,0.8,0.8s0.8-0.4,0.8-0.8c0-0.5-0.4-0.8-0.8-0.8C99.5,101.1,99.1,101.5,99.1,102z"
					/>
				<path class="st4" d="M117.8,107.7v8.1H82.1v-8.1H117.8 M117.9,107.6H82v8.4h35.9V107.6L117.9,107.6z"/>
				<path class="st3" d="M99.1,111.8c0,0.5,0.4,0.8,0.8,0.8s0.8-0.4,0.8-0.8c0-0.5-0.4-0.8-0.8-0.8
					C99.5,110.9,99.1,111.3,99.1,111.8z"/>
				<path class="st4" d="M117.8,117.5v8.1H82.1v-8.1H117.8 M117.9,117.3H82v8.4h35.9V117.3L117.9,117.3z"/>
				<path class="st3" d="M99.1,121.6c0,0.5,0.4,0.8,0.8,0.8s0.8-0.4,0.8-0.8c0-0.5-0.4-0.8-0.8-0.8
					C99.5,120.7,99.1,121.1,99.1,121.6z"/>
			</g>
			<g>
				<rect x="68.5" y="76.9" class="st4" width="8.5" height="53"/>
				<polygon class="st5" points="75.4,129.9 77,129.9 77,125.4 73.7,125.4 				"/>
				<rect x="37" y="76.9" class="st4" width="8.5" height="53"/>
				<rect x="44" y="76.9" class="st5" width="33" height="50.2"/>
				<path class="st4" d="M75.6,78.4v11.4H45.4V78.4L75.6,78.4 M75.8,78.2H45.3v11.7h30.5V78.2L75.8,78.2z"/>
				<path class="st4" d="M75.6,91.1v30.1H61.2V91.1H75.6 M75.8,90.9H61v30.5h14.7V90.9L75.8,90.9z"/>
				<path class="st4" d="M59.8,91.1v30.1H45.4V91.1H59.8 M60,90.9H45.3v30.5H60L60,90.9L60,90.9z"/>
				<polygon class="st5" points="45.6,129.9 44,129.9 44,125.4 47.3,125.4 				"/>
				<path class="st3" d="M59.7,84c0,0.5,0.4,0.8,0.8,0.8s0.8-0.4,0.8-0.8c0-0.5-0.4-0.8-0.8-0.8S59.7,83.6,59.7,84z"/>
				<path class="st3" d="M62.7,105.5c0,0.5,0.4,0.8,0.8,0.8c0.5,0,0.8-0.4,0.8-0.8c0-0.5-0.4-0.8-0.8-0.8
					C63.1,104.6,62.7,105,62.7,105.5z"/>
				<path class="st3" d="M56.6,105.5c0,0.5,0.4,0.8,0.8,0.8c0.5,0,0.8-0.4,0.8-0.8c0-0.5-0.4-0.8-0.8-0.8
					C57,104.6,56.6,105,56.6,105.5z"/>
			</g>
			<path class="st4" d="M55.7,62.2h-3.6c0,0,0.6,3.3,0.6,5.2c0,1.9-2.7,9.5,1.2,9.5c3.9,0,1.2-7.6,1.2-9.5
				C55,65.5,55.7,62.2,55.7,62.2z"/>
			<path class="st2" d="M42.1,70v2.3c0,2.6,2.1,4.7,4.7,4.7h2.3c2.6,0,4.7-2.1,4.7-4.7V70H42.1z"/>
			<path class="st4" d="M91.6,91.5c0,2.7,3,4.9,6.7,4.9h3.3c3.7,0,6.7-2.2,6.7-4.9H91.6z"/>
			<g>
				<path class="st4" d="M179.6,87.6c-2,1.6-4.8,4.7-7.3,8.9c-1.7,2.8-2.7,5.8-3.2,9.7c0-4.4,0-9.2,0-13.6c0.5-1.2,1.7-3.8,2.5-5.9
					c2.8-7,3.8-8.7,6.4-14.8c3.4-8.1,6.8-17.6,5.8-16.9c-2,1.6-9.7,15.9-10.5,18c-2.9,7.1-3.7,12.3-4.1,17.2c0-4.2,0-8.1,0-11.1
					c0-9.7,0.2-12.9,0.3-13.8c0.3-0.5,0.7-1.1,0.9-1.4c1.8-2.6,2.5-4.8,4.2-8.7c2.4-5.5,4.5-15.3,3.9-14.8
					c-2.5,2.1-4.5,6.5-7.1,12.1c-2.6,5.6-1.9,8.9-2.4,13.7c-0.1,0.9-0.2,4.5-0.3,9.4c-0.7-5.3-2-8.7-4.3-11.9
					c-2.9-3.9-5.6-6.5-7.7-7.9c-2-1.4,3.5,8.2,6.2,12.3c2.4,3.7,4.5,7,5.8,10.2c-0.1,6.7-0.1,15.2-0.1,23.1
					c-0.6-3.6-1.6-7.5-2.9-10.5c-1.6-3.6-4-9.1-6-11c-0.5-0.4,2,10.3,3.6,13.1c1.6,2.9,2.8,5.5,3.8,7.2c0.2,0.4,1,1.8,1.5,2.7
					c0,9.6,0.1,18.1,0.1,21h0.4c0-0.7,0-5.6,0-12.1c1-3.5,3.3-7.5,5.2-11.2C176.3,96.7,181.6,86,179.6,87.6z"/>
				<g>
					<polygon class="st6" points="174.9,129.9 162.9,129.9 162,118.1 175.8,118.1 					"/>
					<polygon class="st2" points="176.7,119.5 161.1,119.5 160.6,115.5 177.2,115.5 					"/>
				</g>
			</g>
			<g>
				<rect x="42.6" y="11.3" class="st4" width="21.5" height="23.7"/>
				<rect x="44.3" y="11.3" class="st2" width="22.3" height="23.7"/>
				<rect x="46.1" y="13.2" class="st7" width="18.5" height="19.9"/>
				<rect x="50.6" y="18" class="st2" width="9.5" height="10.3"/>
			</g>
			<g>
				<g>
					<rect x="154" y="14.1" class="st4" width="20" height="22"/>
					<rect x="155.5" y="14.1" class="st2" width="20.7" height="22"/>
					<rect x="157.2" y="15.8" class="st7" width="17.2" height="18.5"/>
				</g>
				<circle class="st2" cx="165.8" cy="25" r="5.4"/>
			</g>
			<g>
				<g>
					<rect x="70.6" y="25.4" class="st4" width="16" height="17.5"/>
					<rect x="71.8" y="25.4" class="st2" width="16.5" height="17.5"/>
					<rect x="73.2" y="26.8" class="st7" width="13.7" height="14.8"/>
					<polygon class="st2" points="80,30.4 76.3,36.9 83.8,36.9 					"/>
				</g>
			</g>
		</g>
	</g>
	<g id="Shadow">
		<ellipse class="st2" cx="112.5" cy="142.2" rx="74.5" ry="4.4"/>
	</g>
	<g id="Character_2">
		<g>
			<path class="st8" d="M150.6,45.1l-3.8-1.5c0,0-5,9.2-6.5,9.6c-2,0.6-6,2.4-8.4,2.7c-0.3,0.4-0.9,1.6-0.8,2
				c3.2,1.1,10.3-0.4,11.9-1.5C146.4,53.9,150.6,45.1,150.6,45.1z"/>
			<g>
				<path class="st9" d="M151.8,43c0.7,2.6-3.1,7.9-3.1,7.9l-5.1-2.8c0,0,0.9-2.2,2.1-4.4C147.6,40.1,151,40,151.8,43z"/>
				<path class="st10" d="M151.8,43c0.7,2.6-3.1,7.9-3.1,7.9l-5.1-2.8c0,0,0.9-2.2,2.1-4.4C147.6,40.1,151,40,151.8,43z"/>
			</g>
			<path class="st10" d="M145.6,49.2l2,1.1l0.3-6.1C146.8,45.1,146,47.8,145.6,49.2z"/>
			<g>
				<path class="st9" d="M148.5,41c0,0-3.9,8.7-1.6,25c4.7,0,13.2,0,15.5,0c0.2-2.4-0.6-14,2.4-25.2c0,0-2.6-0.5-5.1-0.7
					c-2-0.1-4.8-0.2-6.6,0C150.7,40.4,148.5,41,148.5,41z"/>
				<path class="st10" d="M148.5,41c0,0-3.9,8.7-1.6,25c4.7,0,13.2,0,15.5,0c0.2-2.4-0.6-14,2.4-25.2c0,0-2.6-0.5-5.1-0.7
					c-2-0.1-4.8-0.2-6.6,0C150.7,40.4,148.5,41,148.5,41z"/>
			</g>
			<path class="st11" d="M144.9,142.6c0,0.4,5.8,0.7,13.1,0.7c7.3,0,13.2-0.3,13.2-0.7c0-0.4-5.8-0.7-13.1-0.7
				C150.8,141.8,144.9,142.2,144.9,142.6z"/>
			
				<rect x="153.9" y="132.5" transform="matrix(0.9331 -0.3595 0.3595 0.9331 -38.4379 64.9487)" class="st8" width="3" height="6.6"/>
			<polygon class="st8" points="167.5,139.6 164.6,139.6 163.5,132.9 166.4,132.9 			"/>
			<path class="st12" d="M164.4,139.3h3.3c0.1,0,0.2,0.1,0.2,0.2l0.4,2.6c0,0.3-0.2,0.5-0.5,0.5c-1.1,0-1.7-0.1-3.1-0.1
				c-0.9,0-2.7,0.1-3.9,0.1c-1.2,0-1.3-1.2-0.8-1.3c2.3-0.5,3.1-1.2,3.9-1.8C164,139.4,164.2,139.3,164.4,139.3z"/>
			<path class="st12" d="M154.8,138.3l3.1-0.9c0.1,0,0.2,0,0.3,0.1l1.1,2.3c0.1,0.2,0,0.5-0.3,0.6c-1.1,0.3-1.9,0.5-3.3,0.9
				c-1,0.3-1.9,0.7-2.9,1c-0.7,0.2-2.2,0.2-3,0.2c-1.2,0-1.5-1.3-0.9-1.3c1.3-0.1,1.5-0.1,2.2-0.4c1.2-0.6,2.1-1.1,3.1-2.1
				C154.3,138.5,154.5,138.4,154.8,138.3z"/>
			<path class="st8" d="M132.4,55.9l-3.2-1.3l-1.3,3.5c0,0,1.8,0.3,3.9,0L132.4,55.9z"/>
			<polygon class="st8" points="126.9,54.4 126.8,56.8 127.9,58.1 129.2,54.5 			"/>
			<g>
				
					<rect x="153.4" y="132.6" transform="matrix(0.9329 -0.3601 0.3601 0.9329 -37.9834 64.7689)" class="st13" width="3" height="3.4"/>
				<polygon class="st13" points="166.4,132.9 163.5,132.9 164.1,136.4 167,136.4 				"/>
			</g>
			<path class="st10" d="M146.4,61.6c0.1,0.7,0.1,1.4,0.2,2.1l11.5-3.7c1.8-0.5,3.4-1.7,4.4-3.2c0-1,0.1-2.1,0.2-3.2
				c0-0.5,0.1-1.1,0.1-1.7c0.1-0.6,0.1-1.2,0.2-1.8L146.4,61.6z"/>
			<path class="st7" d="M150.1,49l-0.4,0c0.2-1.9,1.7-3.4,3.2-3.4l0,0.4C151.6,45.9,150.3,47.3,150.1,49z"/>
			<path class="st7" d="M152.2,52.6C152.1,52.6,152.1,52.6,152.2,52.6l-0.1-0.4c1.3,0,2.6-1.3,2.8-3l0.4,0
				C155.1,51.1,153.7,52.6,152.2,52.6z"/>
			<path class="st8" d="M159.4,32.8c-0.5,2.1-1.2,6,0.2,7.4c0,0-1,2.1-4.9,2.1c-3.6,0-1.7-2.1-1.7-2.1c2.4-0.6,2.4-2.3,2.1-4
				L159.4,32.8z"/>
			<path class="st13" d="M157.6,34.2l-2.5,2c0.1,0.4,0.1,0.8,0.1,1.2c0.7,0.7,2.2-1.1,2.4-2.1C157.7,34.9,157.7,34.4,157.6,34.2z"/>
			<path class="st13" d="M150.8,32.8c0.4,0.7,1,1.1,1.6,1.2c0.9,0.2,1.4-0.6,1.1-1.5c-0.2-0.8-1-1.8-1.9-1.6
				C150.7,31.1,150.4,32,150.8,32.8z"/>
			<path class="st12" d="M152.3,26c-1.4,0.7-1.9,6.4-0.1,7.2C154,34.1,155,24.8,152.3,26z"/>
			<path class="st8" d="M159.8,29.6c-0.3,2.9-0.4,4.6-1.9,6c-2.3,2.2-5.8,0.9-6.3-2c-0.5-2.6,0.2-6.8,3-8
				C157.4,24.6,160.1,26.8,159.8,29.6z"/>
			<path class="st12" d="M155.1,27.5c2.1-0.5,3.7-0.9,3.1,0.9c-0.7,2.4-1.6,4.7-0.4,4.8c0.7,0.1,4-1.3,3.5-2.7
				c-0.4-1.2,1.1-1.5,1.4-2.1c1-2.2-1.9-1.9-1.3-3.3c0.5-1.3-2.3-3.5-3.8-2.4c-2.5,1.7-6.8,1.7-4.5-1.1c1.6-2-1.3-1.6-1.3-1.6
				s1.7,1-1.2,2.6C147.4,24.1,150.3,28.7,155.1,27.5z"/>
			<path class="st8" d="M160.9,32.8c-0.4,0.7-1.1,1.1-1.8,1.2c-0.9,0.2-1.3-0.6-1-1.5c0.3-0.8,1.2-1.8,2.1-1.6
				C161.2,31.1,161.4,32,160.9,32.8z"/>
			<path class="st9" d="M146.9,66c0,0-2.6,23.2-2.8,32.1c-0.2,9.2,8.8,37.8,8.8,37.8l4.6-1.9c0,0-5.4-26.2-4.6-35.2
				C153.7,89,157,66,157,66L146.9,66L146.9,66z"/>
			<path class="st10" d="M153.3,72.4c-2.1,4.3-0.7,12.8,0.4,17.8c0.4-3.6,0.9-7.4,1.4-11C155.1,73.8,154.7,69.5,153.3,72.4z"/>
			<path class="st9" d="M157.3,132.5c0,0,0.5,1.5,0.5,1.5l-5.3,2.2l-0.8-1.6L157.3,132.5z"/>
			<path class="st9" d="M152.3,66c0,0,2,22.1,3.3,30.4c1.4,9.1,7.1,39.3,7.1,39.3h5.3c0,0-3.2-29.5-3.8-38.5
				c-0.6-9.7-1.9-31.2-1.9-31.2L152.3,66L152.3,66z"/>
			<path class="st9" d="M168.1,134.3c0,0,0.2,1.5,0.2,1.5h-5.8l-0.4-1.7L168.1,134.3z"/>
			<path class="st10" d="M166.1,132.6C166.1,132.6,166.1,132.6,166.1,132.6c-0.1-0.3-2.9-26.9-3.5-35c-0.6-8.8-1.8-28.2-1.8-28.4
				c0,0,0,0,0-0.1h0c0,0,0,0,0,0c0,0.2,1.2,19.6,1.8,28.4C163.3,105.7,166.1,132.3,166.1,132.6C166.2,132.6,166.1,132.6,166.1,132.6
				C166.1,132.6,166.1,132.6,166.1,132.6z"/>
			<path class="st12" d="M155.4,30.4c0,0.2-0.1,0.4-0.3,0.4c-0.2,0-0.3-0.2-0.2-0.4c0-0.2,0.1-0.4,0.3-0.4
				C155.3,30,155.4,30.2,155.4,30.4z"/>
			<path class="st12" d="M152.8,30.4c0,0.2-0.1,0.4-0.3,0.4c-0.1,0-0.3-0.2-0.2-0.4c0-0.2,0.1-0.4,0.3-0.4
				C152.7,30,152.8,30.2,152.8,30.4z"/>
			<path class="st14" d="M153.6,30.6c0,0-0.6,1.3-1.2,2c0.4,0.4,1.1,0.2,1.1,0.2L153.6,30.6z"/>
			<path class="st12" d="M153.7,33.7C153.6,33.7,153.6,33.7,153.7,33.7c-0.1-0.1,0-0.1,0-0.1c1,0,1.5-0.7,1.5-0.7c0,0,0.1,0,0.1,0
				c0,0,0,0.1,0,0.1C155.3,33,154.8,33.7,153.7,33.7z"/>
			<path class="st12" d="M155.9,29.7c0,0-0.1,0-0.1,0c-0.5-0.3-1-0.1-1-0.1c-0.1,0-0.1,0-0.2-0.1c0-0.1,0-0.1,0.1-0.2
				c0,0,0.6-0.3,1.2,0.1C156,29.5,156,29.6,155.9,29.7C155.9,29.7,155.9,29.7,155.9,29.7z"/>
			<path class="st12" d="M151.7,29C151.7,29,151.7,28.9,151.7,29c-0.1-0.1-0.1-0.2-0.1-0.2c0.5-0.6,1.2-0.5,1.2-0.5
				c0.1,0,0.1,0.1,0.1,0.2c0,0.1-0.1,0.1-0.2,0.1l0,0c0,0-0.5-0.1-0.9,0.4C151.8,29,151.8,29,151.7,29z"/>
			<path class="st8" d="M166.2,44.7l-4-1.1c0,0-3.9,9.6-5.3,10.3c-1.9,0.9-6.7,3.8-8.7,5.3c-0.1,0.5,0,1.8,0.2,2.1
				c3.4-0.6,10.1-3.2,11.5-4.5C163.1,53.8,166.2,44.7,166.2,44.7z"/>
			<path class="st9" d="M163.4,139.8c-0.2,0-0.4,0-0.5-0.1c-0.1-0.1-0.1-0.2-0.1-0.4c0-0.1,0.1-0.2,0.1-0.2c0.3-0.2,1.2,0.4,1.3,0.5
				c0,0,0,0,0,0.1c0,0,0,0-0.1,0.1C164,139.8,163.7,139.8,163.4,139.8z M163,139.2C163,139.2,162.9,139.2,163,139.2
				c-0.1,0-0.1,0-0.1,0.1c0,0.1,0,0.2,0.1,0.2c0.1,0.1,0.5,0.1,1,0.1C163.7,139.4,163.2,139.2,163,139.2z"/>
			<path class="st9" d="M164.2,139.7C164.1,139.7,164.1,139.7,164.2,139.7c-0.3-0.2-0.9-0.8-0.8-1.1c0-0.1,0.1-0.2,0.2-0.2
				c0.1,0,0.2,0,0.3,0.1C164.2,138.8,164.2,139.6,164.2,139.7C164.2,139.7,164.2,139.7,164.2,139.7
				C164.2,139.7,164.2,139.7,164.2,139.7z M163.6,138.5C163.6,138.5,163.6,138.5,163.6,138.5c-0.1,0-0.1,0.1-0.1,0.1
				c0,0.2,0.3,0.7,0.6,0.9c0-0.2-0.1-0.7-0.3-0.9C163.7,138.6,163.7,138.5,163.6,138.5z"/>
			<path class="st9" d="M153.2,139.3c-0.3,0.1-0.6,0.1-0.7,0c-0.1-0.1-0.2-0.2-0.2-0.3c0-0.1,0-0.1,0.1-0.2c0.3-0.3,1.6,0,1.7,0.1
				c0,0,0,0,0,0.1c0,0,0,0.1,0,0.1C153.8,139.1,153.5,139.3,153.2,139.3z M152.6,138.9c-0.1,0-0.1,0-0.1,0.1c0,0,0,0,0,0.1
				c0,0.1,0,0.2,0.1,0.2c0.2,0.1,0.7,0,1.3-0.2C153.4,138.9,152.8,138.8,152.6,138.9z"/>
			<path class="st9" d="M154.1,139C154.1,139,154,139,154.1,139c-0.4-0.1-1.2-0.5-1.2-0.8c0-0.1,0-0.2,0.2-0.2c0.1,0,0.3,0,0.4,0
				C153.9,138.2,154.1,138.9,154.1,139C154.1,139,154.1,139,154.1,139C154.1,139,154.1,139,154.1,139z M153.2,138
				C153.1,138,153.1,138.1,153.2,138c-0.2,0.1-0.2,0.1-0.2,0.1c0,0.2,0.6,0.6,0.9,0.7c-0.1-0.2-0.3-0.6-0.5-0.8
				C153.3,138,153.2,138,153.2,138z"/>
			<path class="st8" d="M148.5,58.9l-4,1.8l-0.5,1.1l1.5,1c0,0,2.8-0.3,3.6-2.1L148.5,58.9z"/>
			<path class="st12" d="M148.7,61.3c-0.2-1.5-0.7-2.2-0.7-2.2l0.6-0.5c0,0,0.6,0.8,0.9,2.5L148.7,61.3z"/>
			<path class="st12" d="M149.4,59.4c0.1,0.3-0.1,0.7-0.5,0.9c-0.4,0.2-0.8,0-0.9-0.3c-0.1-0.3,0.1-0.7,0.5-0.9
				C148.8,59,149.3,59.1,149.4,59.4z"/>
			<polygon class="st8" points="141.8,62.2 142.4,62.8 146,61.2 144.5,60.7 			"/>
			<path class="st10" d="M157.3,132.5c0,0,0.5,1.5,0.5,1.5l-5.3,2.2l-0.8-1.6L157.3,132.5z"/>
			<path class="st10" d="M168.1,134.3c0,0,0.2,1.5,0.2,1.5h-5.8l-0.4-1.7L168.1,134.3z"/>
			<g>
				<path class="st9" d="M167.2,43.6c1.1,3.4-3.1,8.1-3.1,8.1l-5.7-2.3c0,0,0.8-2.5,2.3-5.8C162.5,39.7,166.2,40.1,167.2,43.6z"/>
				<path class="st10" d="M167.2,43.6c1.1,3.4-3.1,8.1-3.1,8.1l-5.7-2.3c0,0,0.8-2.5,2.3-5.8C162.5,39.7,166.2,40.1,167.2,43.6z"/>
			</g>
		</g>
	</g>
	<g id="Screen">
		<g>
			<rect x="108.1" y="9.4" class="st9" width="2.5" height="0.4"/>
			
				<rect x="139.1" y="28.2" transform="matrix(4.499942e-02 -0.999 0.999 4.499942e-02 107.6154 169.3251)" class="st9" width="6.6" height="0.4"/>
			<polygon class="st9" points="141.6,11.2 96.2,11.2 92,105.6 137.3,105.6 			"/>
			<polygon class="st15" points="140.2,12.5 94.9,12.5 90.6,106.9 136,106.9 			"/>
			<polygon class="st16" points="138.9,13.8 93.5,13.8 89.3,108.2 134.6,108.2 			"/>
			<polygon class="st7" points="133.7,55 95,55 94.7,62.2 133.4,62.2 			"/>
			<polygon class="st9" points="116.3,49.7 95.2,49.7 95.1,52.9 116.1,52.9 			"/>
			<polygon class="st7" points="132.8,74.5 94.1,74.5 93.8,81.7 132.5,81.7 			"/>
			<polygon class="st17" points="125.7,91.4 99.7,91.4 99.3,100.1 125.3,100.1 			"/>
			<path class="st7" d="M124,101.4H98c0,0,0,0,0,0c0,0,0,0,0,0l0.4-8.7c0,0,0,0,0,0h26c0,0,0,0,0,0c0,0,0,0,0,0L124,101.4
				C124,101.4,124,101.4,124,101.4z M98,101.4h25.9l0.4-8.6H98.4L98,101.4z"/>
			<polygon class="st9" points="111.7,69.2 94.3,69.2 94.2,72.4 111.6,72.4 			"/>
			<path class="st7" d="M125.2,31.6c-0.1,2.2-0.9,4.2-2.1,5.8c-1.9,2.5-4.9,4.1-8.1,4.1s-6.1-1.6-7.8-4.1c-1.1-1.6-1.7-3.6-1.6-5.8
				c0.2-5.4,4.8-9.8,10.3-9.8C121.3,21.8,125.5,26.2,125.2,31.6z"/>
			<path class="st9" d="M126.1,23.8c0,0.6-0.2,1.1-0.6,1.5c-0.5,0.7-1.3,1.1-2.2,1.1c-0.9,0-1.6-0.4-2.1-1.1c-0.3-0.4-0.5-1-0.4-1.5
				c0.1-1.4,1.3-2.6,2.7-2.6C125.1,21.2,126.2,22.4,126.1,23.8z"/>
			<path class="st12" d="M99.2,58.6c0,0.6-0.6,1.2-1.2,1.2c-0.6,0-1.1-0.5-1.1-1.2s0.6-1.2,1.2-1.2C98.7,57.4,99.2,57.9,99.2,58.6z"
				/>
			<path class="st12" d="M104.3,58.6c0,0.6-0.6,1.2-1.2,1.2c-0.6,0-1.1-0.5-1.1-1.2c0-0.6,0.6-1.2,1.2-1.2
				C103.9,57.4,104.4,57.9,104.3,58.6z"/>
			<path class="st12" d="M109.5,58.6c0,0.6-0.6,1.2-1.2,1.2c-0.6,0-1.1-0.5-1.1-1.2c0-0.6,0.6-1.2,1.2-1.2S109.5,57.9,109.5,58.6z"
				/>
			<path class="st12" d="M98.3,78.1c0,0.6-0.6,1.2-1.2,1.2c-0.6,0-1.1-0.5-1.1-1.2c0-0.6,0.6-1.2,1.2-1.2
				C97.8,76.9,98.3,77.4,98.3,78.1z"/>
			<path class="st12" d="M103.5,78.1c0,0.6-0.6,1.2-1.2,1.2c-0.6,0-1.1-0.5-1.1-1.2c0-0.6,0.6-1.2,1.2-1.2
				C103,76.9,103.5,77.4,103.5,78.1z"/>
			<path class="st12" d="M108.6,78.1c0,0.6-0.6,1.2-1.2,1.2c-0.6,0-1.1-0.5-1.1-1.2c0-0.6,0.6-1.2,1.2-1.2
				C108.2,76.9,108.7,77.4,108.6,78.1z"/>
			<path class="st12" d="M113.8,78.1c0,0.6-0.6,1.2-1.2,1.2c-0.6,0-1.1-0.5-1.1-1.2c0-0.6,0.6-1.2,1.2-1.2
				C113.4,76.9,113.9,77.4,113.8,78.1z"/>
			<path class="st12" d="M119,78.1c0,0.6-0.6,1.2-1.2,1.2c-0.6,0-1.1-0.5-1.1-1.2c0-0.6,0.6-1.2,1.2-1.2
				C118.5,76.9,119,77.4,119,78.1z"/>
			<g>
				<ellipse transform="matrix(0.715 -0.6991 0.6991 0.715 13.1138 88.8391)" class="st9" cx="115.5" cy="28.3" rx="4.1" ry="3.9"/>
				<path class="st9" d="M123.1,37.4c-1.9,2.5-4.9,4.1-8.1,4.1c-3.3,0-6.1-1.6-7.8-4.1c1.9-1.9,4.8-3.1,8.1-3.1
					C118.5,34.3,121.4,35.5,123.1,37.4z"/>
				
					<ellipse transform="matrix(0.715 -0.6991 0.6991 0.715 13.1138 88.8391)" class="st18" cx="115.5" cy="28.3" rx="4.1" ry="3.9"/>
				<path class="st18" d="M123.1,37.4c-1.9,2.5-4.9,4.1-8.1,4.1c-3.3,0-6.1-1.6-7.8-4.1c1.9-1.9,4.8-3.1,8.1-3.1
					C118.5,34.3,121.4,35.5,123.1,37.4z"/>
			</g>
		</g>
	</g>
	<g id="Character_1">
		<g>
			<g>
				<path class="st8" d="M66.5,63.9c-0.4,0.8-0.7,1.7-1.1,2.5c-0.3,0.9-0.7,1.7-1,2.6c-0.6,1.8-1.1,3.5-1.4,5.3L63,74.9
					c0,0.1,0,0.2,0,0.3c0.1,0.2,0.2,0.6,0.4,0.9c0.4,0.6,1,1.3,1.7,1.9c0.7,0.6,1.4,1.2,2.1,1.8c0.7,0.6,1.5,1.1,2.3,1.6l-0.7,1.3
					c-1.8-0.8-3.5-1.8-5.2-3c-0.8-0.6-1.6-1.3-2.3-2.2c-0.3-0.5-0.7-1-0.9-1.6c-0.1-0.3-0.2-0.7-0.2-1.1c0-0.1,0-0.2,0-0.3l0-0.2
					l0-0.4c0.2-2,0.7-4,1.3-5.9c0.3-0.9,0.6-1.9,1-2.8c0.4-0.9,0.7-1.8,1.2-2.8L66.5,63.9z"/>
				<path class="st8" d="M69,81.2l2.7-1.4l-0.7,3c0,0-1.9,0.5-2.7-0.4L69,81.2z"/>
				<polygon class="st8" points="74.2,80.3 73.5,82.8 71.1,82.8 71.8,79.8 				"/>
				<path class="st14" d="M78.1,49.5c0,0,0.2,0.9,0.6,1.5c-0.3,0.3-0.6,0.2-0.6,0.2V49.5z"/>
				<ellipse class="st12" cx="78" cy="49.1" rx="0.3" ry="0.4"/>
				<path class="st12" d="M77.9,48.7l0.6-0.2C78.5,48.5,78.2,49,77.9,48.7z"/>
				<path class="st8" d="M70.6,52.4c0.3,1.8,0.7,5.1-0.5,6.3c0,0,0.5,1.8,3.8,1.8c3.7,0,1.7-1.8,1.7-1.8c-2-0.5-1.9-2-1.6-3.3
					L70.6,52.4z"/>
				<path class="st8" d="M69.6,48.3c0.2,3,0.2,4.3,1.7,5.8c2.3,2.3,5.9,1.4,6.6-1.6c0.6-2.7,0.2-7.1-2.7-8.3
					C72.3,43,69.4,45.3,69.6,48.3z"/>
				<path class="st12" d="M69.9,44.9c-1.5,0.5-3.5,0.1-2.7,4.8c0.8,4.9-0.4,6.5-0.4,6.5s5.7,1.2,11.5-0.1c0,0-1.8-3.1-1.3-5.4
					c0.6-2.9,0.1-4,0.1-4S72,44.1,69.9,44.9z"/>
				<path class="st8" d="M76.2,49.8c0,0.6,0.2,1.2,0.5,1.6c0.4,0.6,0.9,0.4,1-0.3c0.1-0.6,0-1.6-0.5-2
					C76.7,48.8,76.2,49.2,76.2,49.8z"/>
				<path class="st12" d="M68.6,45.4c-0.4-1.2,1.6-3.1,6-2.3c4.3,0.8,4.5,4.4,4.5,4.4l-0.9-1l0,1.1l-4.5,0.9L68.6,45.4z"/>
				<g>
					<path class="st9" d="M69,58.8L69,58.8c-0.1-0.4,0.2-0.7,0.6-0.8c1.4-0.2,4.4-0.7,6-0.5c1.1,0.2,1.5,0.8,1.5,1.4
						c0,0.4-0.3,0.7-0.7,0.7l-6.7-0.3C69.3,59.4,69,59.1,69,58.8z"/>
					<path class="st19" d="M69,58.8L69,58.8c-0.1-0.4,0.2-0.7,0.6-0.8c1.4-0.2,4.4-0.7,6-0.5c1.1,0.2,1.5,0.8,1.5,1.4
						c0,0.4-0.3,0.7-0.7,0.7l-6.7-0.3C69.3,59.4,69,59.1,69,58.8z"/>
				</g>
				<polygon class="st8" points="72.8,126 75.3,127.7 79.5,122.1 77,120.3 				"/>
				<polygon class="st8" points="67,125.8 69.7,127.3 73.3,121.4 70.7,119.9 				"/>
				<g>
					<polygon class="st13" points="79.4,122.1 77.3,125 74.8,123.2 77,120.3 					"/>
					<polygon class="st13" points="70.7,119.9 73.3,121.4 71.4,124.5 68.8,123 					"/>
				</g>
				<g>
					<path class="st9" d="M74.9,77.6c0,0,9.7,12.2,7.9,23.9c-1.5,9.4-10,22.2-10,22.2l-4-2c0,0,4.3-8.5,7.2-17.5
						c1.2-3.8,0.7-7.9-1.5-11.2c-4.9-7.2-12.8-2.9-7.5-15.4H74.9z"/>
					<path class="st19" d="M74.9,77.6c0,0,9.7,12.2,7.9,23.9c-1.5,9.4-10,22.2-10,22.2l-4-2c0,0,4.3-8.5,7.2-17.5
						c1.2-3.8,0.7-7.9-1.5-11.2c-4.9-7.2-12.8-2.9-7.5-15.4H74.9z"/>
				</g>
				<path class="st20" d="M79.7,85.4L78.3,84c0,0.1,2.7,16.9,3.5,21.7c0.5-1.4,0.8-2.9,1-4.2C83.7,95.7,81.8,89.9,79.7,85.4z"/>
				<g>
					<path class="st9" d="M79.2,77.6c0,0,11.7,15.3,12,24.5c0.3,7.7-12.7,22.6-12.7,22.6l-3.8-2.4c0,0,7.6-10.6,9.5-19.2
						c-0.7-8.6-16.3-25.4-16.3-25.4L79.2,77.6L79.2,77.6z"/>
					<path class="st19" d="M79.2,77.6c0,0,11.7,15.3,12,24.5c0.3,7.7-12.7,22.6-12.7,22.6l-3.8-2.4c0,0,7.6-10.6,9.5-19.2
						c-0.7-8.6-16.3-25.4-16.3-25.4L79.2,77.6L79.2,77.6z"/>
				</g>
				<path class="st9" d="M64.8,59.3c-1.2,0.3-2.4,4.8-2.4,4.8l4.9,3.2c0,0,1.6-3.6,1.1-5.1C67.7,60.6,66.4,58.9,64.8,59.3z"/>
				<path class="st10" d="M65.8,62.2l-0.3,3.9l1.8,1.2c0,0,0.8-1.9,1.1-3.5L65.8,62.2z"/>
				<path class="st9" d="M80.7,59.4c0,0,1.4,0.5-1.4,18.2c-4.9,0-9.9,0-12.2,0c0.2-5,0.2-8.1-2.2-18.3c0,0,2.6-0.6,5.2-0.7
					c2.1-0.1,3.7-0.2,5.6,0C78,58.8,80.7,59.4,80.7,59.4z"/>
				<path class="st8" d="M81.9,62.2c0.3,0.8,0.6,1.6,0.9,2.4c0.3,0.8,0.6,1.6,0.9,2.4l0.9,2.4l0.2,0.6l0.1,0.3l0.1,0.1c0,0,0,0,0,0
					c0,0,0-0.1-0.3-0.2c-0.1-0.1-0.3-0.1-0.5-0.1c-0.2,0-0.3,0-0.4,0.1c-0.2,0.1-0.2,0.1-0.2,0.1c0,0,0,0,0.1-0.1
					c0.2-0.2,0.4-0.5,0.5-0.9c0.2-0.4,0.4-0.7,0.5-1.1c0.3-0.8,0.6-1.6,1-2.4c0.3-0.8,0.6-1.6,0.9-2.4l0.9-2.5l1.5,0.4
					c-0.3,1.8-0.7,3.5-1.1,5.2c-0.2,0.9-0.5,1.7-0.8,2.6c-0.1,0.4-0.3,0.9-0.5,1.3c-0.2,0.4-0.4,0.9-0.7,1.4
					c-0.1,0.1-0.2,0.3-0.3,0.4c-0.1,0.1-0.3,0.3-0.7,0.5c-0.2,0.1-0.4,0.1-0.7,0.1c-0.3,0-0.6-0.1-0.8-0.2c-0.4-0.3-0.6-0.5-0.7-0.7
					c-0.1-0.1-0.1-0.2-0.1-0.3l-0.1-0.1l-0.1-0.3L82,70.6c-0.4-0.8-0.8-1.6-1.1-2.4c-0.3-0.8-0.7-1.6-1-2.5
					c-0.3-0.8-0.6-1.6-0.9-2.5L81.9,62.2z"/>
				<path class="st9" d="M80.7,59.4c1.5,0.3,3.1,4.7,3.1,4.7l-4.4,3.7c0,0-2.8-4.7-2.3-6.3C77.8,59.9,78.8,58.9,80.7,59.4z"/>
				<path class="st8" d="M88.3,59.6l1.5-1.3l1.1,1.7l-0.8,1.4c0,0-1.3,1.1-2.4,0.6l0,0C87.4,61.1,87.6,60.2,88.3,59.6z"/>
				<polygon class="st8" points="92.6,58.3 92.5,58.7 90.1,59.2 89.8,58.3 				"/>
				<polygon class="st9" points="78.8,124.9 74.4,122 75.2,120.7 80.2,123.7 				"/>
				<path class="st12" d="M71.4,127.1c-0.3,0-0.8-0.2-1.1-0.4c0,0,0,0,0-0.1c0,0,0-0.1,0-0.1c0.1,0,1.2-0.4,1.5-0.1
					c0,0,0.1,0.1,0.1,0.2c0,0.2-0.1,0.3-0.2,0.3C71.6,127.1,71.5,127.1,71.4,127.1z M70.5,126.7c0.5,0.2,0.9,0.3,1,0.2
					c0.1,0,0.1-0.1,0.1-0.2c0-0.1,0-0.1,0-0.1C71.5,126.5,70.9,126.6,70.5,126.7z"/>
				<path class="st12" d="M70.3,126.8C70.3,126.8,70.3,126.8,70.3,126.8C70.3,126.7,70.3,126.7,70.3,126.8c-0.1-0.1,0.2-1,0.6-1.2
					c0.1,0,0.2-0.1,0.3,0c0.2,0.1,0.2,0.2,0.2,0.3C71.4,126.2,70.7,126.7,70.3,126.8C70.3,126.8,70.3,126.8,70.3,126.8z M71.1,125.7
					c0,0-0.1,0-0.1,0c-0.2,0.1-0.4,0.6-0.5,0.8c0.3-0.1,0.8-0.5,0.8-0.7C71.3,125.8,71.2,125.8,71.1,125.7
					C71.1,125.7,71.1,125.7,71.1,125.7z"/>
				<path class="st12" d="M76.9,128.8c-0.4,0-1-0.6-1.4-0.9c0,0,0-0.1,0-0.1c0,0,0,0,0.1,0c0.2,0,1.5,0.2,1.7,0.6c0,0.1,0,0.1,0,0.2
					C77.2,128.7,77.1,128.8,76.9,128.8C76.9,128.8,76.9,128.8,76.9,128.8z M75.8,128c0.5,0.5,0.9,0.7,1.2,0.7c0.1,0,0.1-0.1,0.2-0.1
					c0,0,0-0.1,0-0.1C77,128.2,76.3,128,75.8,128z"/>
				<path class="st12" d="M75.8,127.9c-0.1,0-0.2,0-0.3,0c0,0,0,0-0.1,0c0,0,0,0,0-0.1c0,0,0.5-0.7,1-0.7c0.2,0,0.3,0,0.4,0.1
					c0.1,0.1,0.1,0.2,0.1,0.3C76.9,127.8,76.2,127.9,75.8,127.9z M75.7,127.8c0.4,0,1.1-0.1,1.2-0.3c0,0,0-0.1-0.1-0.1
					c-0.1-0.1-0.2-0.1-0.3-0.1C76.2,127.3,75.9,127.6,75.7,127.8z"/>
				<path class="st9" d="M70.4,126.4l-3.3-0.9c-0.1,0-0.2,0-0.3,0.1l-1.1,2.5c-0.1,0.3,0,0.6,0.3,0.6c1.1,0.3,1.7,0.4,3.1,0.8
					c0.9,0.2,2.1,0.7,3.4,1c1.2,0.3,1.6-0.8,1.1-1.1c-2.1-1.1-2.3-1.9-2.9-2.8C70.8,126.5,70.6,126.4,70.4,126.4z"/>
				<path class="st9" d="M75.6,127.4l-2.8-1.9c-0.1-0.1-0.2-0.1-0.3,0l-1.8,2c-0.2,0.2-0.1,0.6,0.1,0.7c1,0.7,1.5,0.9,2.7,1.8
					c0.8,0.5,2.3,1.7,3.3,2.4c1,0.7,1.8-0.3,1.4-0.7c-1.7-1.8-2-2.9-2.3-3.9C75.8,127.7,75.7,127.6,75.6,127.4z"/>
				<polygon class="st9" points="73.3,123.9 68.3,121.4 68.8,120 74.2,122.6 				"/>
				<g>
					<path class="st9" d="M66.8,76.9L66.4,78c0,0.1,0.1,0.2,0.2,0.2h12.7c0.1,0,0.2-0.1,0.2-0.1l0.1-1.1c0-0.1-0.1-0.1-0.2-0.1H67
						C66.9,76.8,66.8,76.8,66.8,76.9z"/>
					<path class="st21" d="M66.8,76.9L66.4,78c0,0.1,0.1,0.2,0.2,0.2h12.7c0.1,0,0.2-0.1,0.2-0.1l0.1-1.1c0-0.1-0.1-0.1-0.2-0.1H67
						C66.9,76.8,66.8,76.8,66.8,76.9z"/>
				</g>
				<g>
					<path class="st9" d="M68.8,78.3h-0.3c-0.1,0-0.1,0-0.1-0.1l0.2-1.4c0,0,0.1-0.1,0.1-0.1H69c0.1,0,0.1,0,0.1,0.1l-0.2,1.4
						C68.9,78.2,68.9,78.3,68.8,78.3z"/>
					<path class="st9" d="M76.6,78.3h-0.3c-0.1,0-0.1,0-0.1-0.1l0.2-1.4c0,0,0.1-0.1,0.1-0.1h0.3c0.1,0,0.1,0,0.1,0.1l-0.2,1.4
						C76.8,78.2,76.7,78.3,76.6,78.3z"/>
				</g>
			</g>
			<g>
				<g>
					<ellipse class="st2" cx="68.5" cy="142.6" rx="10.3" ry="0.7"/>
					<path class="st4" d="M74.8,141.5c-1.8-0.5-3.8-1.2-5.1-1.9c0,0-0.1,0-0.1-0.1v-8.2h3.7c0.6,0,1.1-0.5,1.1-1.1
						c0-0.6-0.5-1.1-1.1-1.1h-3.7V91.5h-2.2v37.6h-3.7c-0.6,0-1.1,0.5-1.1,1.1c0,0.6,0.5,1.1,1.1,1.1h3.7v8.2c0,0-0.1,0-0.1,0.1
						c-1.2,0.7-3.2,1.4-5.1,1.9c-0.6,0.2-0.5,1.1,0.1,1.1h6.1h6.1C75.3,142.6,75.4,141.7,74.8,141.5z"/>
				</g>
				<g>
					<path class="st9" d="M75.4,95.7H61.7c-1.1,0-2-0.9-2-2v-4.1c0-1.1,0.9-2,2-2h13.7c1.1,0,2,0.9,2,2v4.1
						C77.3,94.9,76.5,95.7,75.4,95.7z"/>
					<g>
						<path class="st9" d="M61.6,95.7v0.7c0,0.6,0.6,1,1.4,1h11.1c0.8,0,1.4-0.5,1.4-1v-0.7H61.6z"/>
						<path class="st22" d="M61.6,95.7v0.7c0,0.6,0.6,1,1.4,1h11.1c0.8,0,1.4-0.5,1.4-1v-0.7H61.6z"/>
					</g>
				</g>
			</g>
		</g>
	</g>
</g>
</svg>
