<?xml version="1.0" encoding="utf-8"?>
<!-- Generator: Adobe Illustrator 25.4.1, SVG Export Plug-In . SVG Version: 6.00 Build 0)  -->
<svg version="1.1" id="Illustration" xmlns="http://www.w3.org/2000/svg" xmlns:xlink="http://www.w3.org/1999/xlink" x="0px"
	 y="0px" viewBox="0 0 225 150" style="enable-background:new 0 0 225 150;" xml:space="preserve">
<style type="text/css">
	.st0{fill:url(#SVGID_1_);}
	.st1{fill:#91B3FA;}
	.st2{fill:#FFFFFF;}
	.st3{fill:#BDD0FB;}
	.st4{fill:#6C99E0;}
	.st5{fill:#7D97F4;}
	.st6{opacity:0.21;}
	.st7{opacity:0.68;}
	.st8{fill:#052669;}
	.st9{fill:url(#SVGID_00000070812714308462610160000011071058936080286364_);}
	.st10{fill:url(#SVGID_00000169524711300730117270000002158591521873501871_);}
	.st11{fill:url(#SVGID_00000091731182294935545960000006905667778716629438_);}
	.st12{opacity:0.6;fill:#FFFFFF;enable-background:new    ;}
	.st13{opacity:0.6;}
	.st14{fill:url(#SVGID_00000156560236001245304860000000390626721083268233_);}
	.st15{fill:url(#SVGID_00000076590473624267224960000001605449079414355374_);}
	.st16{fill:url(#SVGID_00000035525291318862636060000008337941307923740545_);}
	.st17{fill:url(#SVGID_00000147197553617790174140000001938117680202403256_);}
	.st18{fill:url(#SVGID_00000003071856374667261250000001612947896032273038_);}
	.st19{fill:url(#SVGID_00000093894593422623593260000018366864134679768501_);}
	.st20{fill:url(#SVGID_00000132082630574203887650000004581710654883870902_);}
	.st21{fill:url(#SVGID_00000157280537111645410290000002753066623779251095_);}
	.st22{fill:url(#SVGID_00000118391339969803251040000013702398490646662589_);}
	.st23{fill:url(#SVGID_00000142169435124324156270000008462642203473016974_);}
	.st24{fill:url(#SVGID_00000061444401239531972050000006058852659480224691_);}
	.st25{fill:url(#SVGID_00000099646064400280528380000001090424786489841586_);}
	.st26{fill:url(#SVGID_00000081624773475007867690000012599256735300975019_);}
	.st27{fill:url(#SVGID_00000034786754358463191510000006177022231037121210_);}
	.st28{fill:url(#SVGID_00000023961681807802949080000014042643535763634322_);}
	.st29{fill:url(#SVGID_00000072281561877257996450000000131650305146641309_);}
	.st30{opacity:0.64;}
	.st31{fill:url(#SVGID_00000156565816633947740090000005821924782514717348_);}
	.st32{fill:url(#SVGID_00000117674796607751585110000017141765334299251618_);}
	.st33{fill:url(#SVGID_00000164472756665139790710000000046899680882972586_);}
	.st34{fill:url(#SVGID_00000011709534563850998340000008664602002177672361_);}
	.st35{fill:url(#SVGID_00000093179133225143016130000004651676632050665100_);}
	.st36{fill:url(#SVGID_00000137854665744751666520000010460807983933291155_);}
	.st37{fill:url(#SVGID_00000029759962913948494070000005537222464797951652_);}
	.st38{fill:url(#SVGID_00000123440021689248346810000014451023418605386930_);}
	.st39{fill:url(#SVGID_00000047745587943986891860000001725972102035963804_);}
	.st40{fill:url(#SVGID_00000126282589517427694530000015688682804268984965_);}
	.st41{fill:url(#SVGID_00000002383672763395500020000013903230687087964606_);}
	.st42{fill:url(#SVGID_00000181776716984599058670000005994892841989091714_);}
</style>
<g>
	
		<linearGradient id="SVGID_1_" gradientUnits="userSpaceOnUse" x1="191.759" y1="-13.4366" x2="87.9719" y2="98.5877" gradientTransform="matrix(1 0 0 -1 0 150)">
		<stop  offset="0" style="stop-color:#DAE3FE"/>
		<stop  offset="1" style="stop-color:#E9EFFD"/>
	</linearGradient>
	<path class="st0" d="M177.3,99.6c-14.3,33.3-51.9,47.7-81.4,45.2c-8.1-0.7-24.3-2-36.9-14c-24.3-23-20.6-71,2.7-99.3
		c3-3.6,23.7-28,56-27.7C141.4,4.1,158,17.4,160,19.1c2.6,2.1,8.2,7.1,13.2,15C185.2,52.8,186.2,78.8,177.3,99.6z"/>
	<g>
		<path class="st1" d="M43.5,7.9c-0.1-0.6,0.7-1,1.3-0.6c5.5,4.5,18.8,17.9,15.5,41.3C56.1,77.9,63.2,88.7,72,95.2
			c0,0-12.1-3.1-19.7-13.9C33.6,54.6,46.2,19.1,43.5,7.9z"/>
		<path class="st2" d="M47.7,17.1c0.7,3.3,1.3,6.5,1.8,9.8c0.5,3.3,0.9,6.6,1.1,9.9c0.2,3.3,0.4,6.6,0.4,9.9c0,3.3-0.1,6.6-0.3,9.9
			c-0.1,3.3-0.3,6.7,0,10c0.2,3.4,0.9,6.8,2.4,9.9c0.4,0.8,0.7,1.6,1.1,2.3c0.4,0.8,0.8,1.5,1.3,2.3c0.9,1.5,2,2.9,3.1,4.3
			c2.3,2.7,5.1,5.2,8.2,7.2c0.3,0.2,0.8,0.2,1-0.1c0.2-0.3,0.2-0.7-0.1-0.9l0,0c-0.7-0.5-1.5-1-2.2-1.6c-0.4-0.3-0.7-0.6-1-0.8
			c-0.3-0.3-0.7-0.6-1-0.9c-1.3-1.2-2.5-2.4-3.6-3.7c-2.2-2.6-4-5.6-5.4-8.6c-0.7-1.5-1.2-3.1-1.6-4.7c-0.4-1.6-0.6-3.2-0.8-4.8
			c-0.3-3.3-0.1-6.6,0-9.9c0.1-3.3,0.2-6.7,0.1-10c0-1.7-0.1-3.3-0.2-5c0-0.8-0.1-1.7-0.2-2.5c-0.1-0.8-0.2-1.7-0.2-2.5
			c-0.4-3.3-0.8-6.6-1.4-9.9c-0.6-3.3-1.3-6.6-2.2-9.8c0-0.1-0.1-0.2-0.2-0.1C47.8,16.9,47.7,17,47.7,17.1z"/>
	</g>
	<g>
		<g>
			<path class="st3" d="M56.5,76.5c-0.7,0.7-1.9,0.5-2.3-0.4c-2.2-5-7.3-19.5,1.1-36.3c7.1-14.2,9.6-22.6,10.4-26.4
				c0.2-0.8,1.3-0.9,1.6-0.2C71.1,21.6,81,50.5,56.5,76.5z"/>
			<path class="st2" d="M55.3,75.9C55.2,75.9,55.2,76,55.3,75.9c-0.3,0-0.5-0.2-0.5-0.4c0-0.2,0.5-24.3,9.4-44.5
				c0.1-0.2,0.3-0.3,0.5-0.2c0.2,0.1,0.3,0.3,0.2,0.5c-8.9,20-9.4,44-9.4,44.2C55.6,75.8,55.4,75.9,55.3,75.9z"/>
		</g>
	</g>
	<g>
		
			<ellipse transform="matrix(4.390158e-02 -0.999 0.999 4.390158e-02 28.895 190.8753)" class="st4" cx="114.2" cy="80.3" rx="60" ry="64.7"/>
		<path class="st5" d="M65.3,40.6c-1.4,2.3-2.5,4.8-2.3,7.5c0.2,3.1,1.8,6,1.9,9.1c0.1,5.3-3.9,9.7-5.2,14.8
			c-1.4,5.7,3.9,12.3,6.1,15.4s1.2-2.6,2.5-4.9c1.3-2.3,4.1,9.5,8.4,12.1c2.3,1.4,5.1,2.3,6.8,4.4c2.5,3.1,1.8,7.5,1.4,11.5
			c-0.4,3.9,0.2,8.8,3.7,10.5c2.1,1,4.8,0.7,6.6,2.1c3.3,2.4,1.7,7.7,3,11.5c1.4,4.2,4.3,4.3,8.6,5.2c4.4,0.9-0.6-8.7,1.5-12.1
			c1.1-1.8,2.7-3.2,3.6-5.1c1.2-2.6,0.8-6.1,3.1-7.9c1.7-1.3,4.1-0.9,6.3-1c2.2,0,4.8-1,5-3.1c0.2-1.9-1.7-3.4-3.5-3.9
			c-1.9-0.4-3.8-0.2-5.7-0.8c-5.2-1.6-7.7-8.9-13.1-9.3c-4.7-0.3-8.6,4.9-13.2,4c-2.6-0.5-4.3-2.8-6.2-4.6c-2.4-2.3-5.5-4-7.4-6.7
			c-1.9-2.7-2.3-7.1,0.5-9c2-1.4,4.9-0.8,7,0.6c2,1.5,3.4,3.6,4.9,5.6c0.5,0.6,1,1.3,1.7,1.5c2,0.6,3.4-2.2,2.9-4.2
			c-0.5-2-1.9-3.8-2-5.8c-0.1-3.6,3.8-5.9,7.2-7.1c3.4-1.2,7.5-2.6,8.5-6.1c0.4-1.2,0.3-2.6,0.8-3.8c1.8-3.9,11.3-5.8,9.1-8
			c-2.3-2.2-9.5-2.7-10.9-7.2c-0.5-1.6-1-3.7-2.7-3.9c-2.7-0.3-4.3,3.1-6.6,3.7c-1.1,0.3-1.2,2.1-1.2,4.4c0,1.7-1.3,3-2.9,3.1
			c-1.7,0-3-1.3-3.1-2.9c0-0.6,0.1-1.2,0.3-1.9c0.4-1.1,1.3-2,2.1-2.8c3.5-3.4,14.1-7.1,11.9-8.5c-2.2-1.4-12.8-5.4-14.4-3.2
			c-1.6,2.2,1,0.3,1.7,2.9c0.6,2.6-7.9,2.2-11.8,3.4c-0.6,0.2-1.4,0.4-2,0.1c-0.7-0.3-1-1.1-1.3-1.8c-2-3.5-8.5-1.2-8.5-1.2
			S66.6,38.6,65.3,40.6z"/>
		<path class="st5" d="M95,24.6c-1,1.8,1.9,1.7,2.2,3.7c2.6,0.3,3.6-3.7,6.1-4.2c1.4-0.3,2.8,0.8,3.6,2s1.1,2.7,1.8,4
			c1.5,2.9,4.5,4.9,7.7,5.2c0.7,0.1,1.5,0,2-0.5c1.5-1.4-0.7-3.9-0.1-5.9c0.7-2.2,3.9-1.9,6.1-2.7c0.6-0.2,5.3-1.5,5.3-2.1
			c0.1-1.1-2-1.9-4.4-2.5c-4.1-1.1-11.3-1-14.8-0.7C105.8,21.4,98,21,95,24.6L95,24.6z"/>
		<g>
			<path class="st5" d="M173,101c1.1-6.6,1-13.5-0.3-20.1c-0.3-1.8-1.1-3.9-2.9-4.1c-2.1-0.3-4.6,2.1-5.9,0.4
				c-0.6-0.7-0.3-1.8,0-2.6c0.8-2.3,2.2-4.3,3.9-6.1c1.1-1.1,2.3-2,3.1-3.3c1.7-2.7,0.5-6.6-1.9-8.7c-2.5-2.1-5.6,1.6-8.2,0.2
				c-2.6-1.5-2.7-5-3.1-8c-0.4-2.2-2-8-3.7-5.2c-1.8,2.9,2.4,14.3,7,19.7c0.6,0.7,1.2,1.4,1.1,2.3c-0.1,2.1-3.1,2-5.1,2.4
				c-2.5,0.5-6.3-0.8-4.2,3.5c1.1,2.3,6.4,5.4,5,7c-1.4,1.5-5.8,6-7.9,9.6c-2.1,3.6-3.1,8.1-1.5,11.9c1.6,3.8,6.2,6.5,10.1,4.9
				c1.8-0.8,3.7-2.3,5.4-1.3c1.5,0.9,1.3,3.1,1.2,4.9s0.9,4.1,2.7,3.7c0.6-0.1,1-0.6,1.4-1C171.4,108.4,172.4,104.6,173,101z"/>
		</g>
		<g class="st6">
			<ellipse class="st3" cx="111.5" cy="77" rx="50.8" ry="48"/>
		</g>
		<g class="st7">
			<path class="st2" d="M132.2,81.4c0,10.6-0.7,21.2-2.6,31.6c-0.5,2.6-1,5.2-1.7,7.8c-0.7,2.6-1.4,5.1-2.3,7.6
				c-0.5,1.2-1,2.5-1.5,3.7c-0.6,1.2-1.2,2.4-1.9,3.5c-0.7,1.1-1.6,2.2-2.6,3c-0.5,0.4-1.1,0.8-1.7,1.1c-0.6,0.3-1.3,0.5-2,0.5
				c-0.7,0-1.4-0.1-2-0.4c-0.6-0.3-1.2-0.6-1.7-1c-1.1-0.8-1.9-1.9-2.7-3c-0.7-1.1-1.4-2.3-2-3.5c-0.6-1.2-1.1-2.4-1.6-3.7
				c-0.9-2.5-1.7-5-2.4-7.6c-0.7-2.6-1.2-5.2-1.7-7.8c-0.9-5.2-1.6-10.5-2-15.7c-0.4-5.3-0.6-10.6-0.7-15.9c0-2.6,0.1-5.3,0.1-7.9
				c0.1-2.6,0.2-5.3,0.4-7.9c0.4-5.3,1-10.5,1.8-15.8c0.4-2.6,0.9-5.2,1.5-7.8c0.6-2.6,1.3-5.1,2.2-7.6c0.4-1.2,0.9-2.5,1.5-3.7
				c0.6-1.2,1.2-2.4,1.9-3.5c0.7-1.1,1.6-2.2,2.6-3c0.5-0.4,1.1-0.8,1.7-1c0.6-0.3,1.3-0.4,2-0.4c0.7,0,1.3,0.2,2,0.5
				c0.6,0.3,1.2,0.6,1.7,1.1c1,0.8,1.9,1.9,2.7,3c0.8,1.1,1.4,2.2,2,3.4c0.6,1.2,1.1,2.4,1.6,3.6c1,2.5,1.8,5,2.5,7.5
				c0.7,2.6,1.3,5.1,1.8,7.7C131.4,60.2,132.2,70.8,132.2,81.4z M131.6,81.4c0-5.3-0.2-10.5-0.6-15.8c-0.4-5.3-1.1-10.5-2.1-15.7
				c-0.5-2.6-1.1-5.2-1.7-7.7c-0.7-2.5-1.5-5.1-2.4-7.5c-0.5-1.2-1-2.4-1.6-3.6c-0.6-1.2-1.2-2.3-2-3.4c-0.7-1.1-1.6-2.1-2.6-2.9
				c-0.5-0.4-1-0.8-1.6-1c-0.6-0.3-1.2-0.4-1.9-0.5c-0.6,0-1.3,0.1-1.9,0.4c-0.6,0.2-1.2,0.6-1.7,1c-1,0.8-1.8,1.9-2.5,3
				c-0.7,1.1-1.3,2.3-1.8,3.5c-0.5,1.2-1,2.4-1.4,3.7c-0.9,2.5-1.5,5-2.1,7.6c-0.6,2.6-1.1,5.2-1.5,7.8c-0.8,5.2-1.3,10.5-1.7,15.7
				c-0.3,5.3-0.5,10.5-0.5,15.8c0,5.3,0.2,10.5,0.6,15.8c0.4,5.3,1,10.5,1.9,15.7c0.5,2.6,1,5.2,1.6,7.7c0.6,2.6,1.4,5.1,2.3,7.6
				c0.5,1.2,1,2.5,1.5,3.6c0.6,1.2,1.2,2.3,1.9,3.4c0.7,1.1,1.6,2.1,2.6,2.9c0.5,0.4,1.1,0.8,1.6,1c0.6,0.2,1.2,0.4,1.9,0.4
				c0.6,0,1.3-0.2,1.8-0.4c0.6-0.3,1.1-0.6,1.6-1.1c1-0.8,1.8-1.9,2.5-3c1.4-2.2,2.5-4.6,3.4-7.1c0.9-2.5,1.6-5,2.3-7.6
				c0.6-2.6,1.2-5.1,1.6-7.7c0.9-5.2,1.5-10.4,1.9-15.7C131.4,91.9,131.6,86.6,131.6,81.4z"/>
			<path class="st2" d="M158.9,81.4c0,6.8-0.9,13.6-2.7,20.2c-1.8,6.5-4.6,12.9-8.4,18.5c-1.9,2.8-4,5.5-6.4,7.9
				c-2.4,2.4-5.1,4.6-7.9,6.4c-2.9,1.8-6,3.3-9.3,4.2c-3.3,1-6.7,1.5-10.1,1.5c-3.4,0-6.8-0.5-10.1-1.5c-3.3-1-6.4-2.4-9.3-4.2
				c-2.9-1.8-5.5-4-7.9-6.4c-2.4-2.4-4.6-5.1-6.5-7.9c-3.8-5.7-6.6-12-8.4-18.5c-1.8-6.6-2.7-13.4-2.7-20.2c0-3.4,0.2-6.8,0.7-10.2
				c0.5-3.4,1.1-6.7,2-10c1.9-6.5,4.7-12.9,8.5-18.5c1.9-2.8,4-5.5,6.5-7.9c2.4-2.4,5.1-4.6,7.9-6.4c2.9-1.8,6-3.2,9.3-4.2
				c3.3-1,6.7-1.5,10.1-1.5c3.4,0,6.8,0.5,10.1,1.5c3.3,1,6.4,2.4,9.3,4.2c2.9,1.8,5.5,4,7.9,6.4c2.4,2.4,4.5,5.1,6.4,7.9
				c3.8,5.7,6.6,12,8.4,18.5C158,67.7,158.9,74.6,158.9,81.4z M158.2,81.4c0-6.7-0.9-13.5-2.6-20c-1.8-6.5-4.5-12.8-8.2-18.4
				c-1.9-2.8-4-5.5-6.3-7.9c-2.4-2.4-5-4.6-7.8-6.4c-2.9-1.8-5.9-3.2-9.2-4.2c-3.2-1-6.6-1.5-10-1.5c-3.4,0-6.7,0.5-10,1.5
				c-3.2,1-6.3,2.4-9.2,4.2c-2.8,1.8-5.5,4-7.8,6.4c-2.4,2.4-4.5,5.1-6.3,7.9c-3.7,5.6-6.4,11.9-8.2,18.4c-0.9,3.3-1.5,6.6-2,9.9
				C70.2,74.6,70,78,70,81.4c0,3.4,0.2,6.7,0.7,10.1c0.4,3.3,1.1,6.7,2,9.9c1.8,6.5,4.5,12.8,8.2,18.4c1.9,2.8,4,5.5,6.3,7.9
				c2.4,2.4,5,4.6,7.8,6.4c2.8,1.8,5.9,3.2,9.2,4.2c3.2,1,6.6,1.5,10,1.5c3.4,0,6.7-0.5,10-1.5c3.2-1,6.3-2.4,9.2-4.2
				c2.8-1.8,5.5-4,7.8-6.4c2.4-2.4,4.5-5.1,6.3-7.9c3.7-5.6,6.4-11.9,8.2-18.4C157.3,94.9,158.2,88.1,158.2,81.4z"/>
			<path class="st2" d="M61.6,58.1L75.1,58L88.6,58l27,0l27,0l13.5,0.1l13.5,0.1c0,0,0,0,0,0s0,0,0,0l-13.5,0.1l-13.5,0.1l-27,0
				l-27,0l-13.5-0.1L61.6,58.1C61.6,58.2,61.6,58.2,61.6,58.1C61.6,58.1,61.6,58.1,61.6,58.1z"/>
			<path class="st2" d="M77.3,35.5l9.6-0.1l9.6-0.1c3.2,0,6.4,0,9.6,0l9.6,0l19.2,0l9.6,0.1c3.2,0,6.4,0.1,9.6,0.1c0,0,0,0,0,0
				c0,0,0,0,0,0c-3.2,0-6.4,0.1-9.6,0.1l-9.6,0.1l-19.2,0l-9.6,0c-3.2,0-6.4,0-9.6,0l-9.6-0.1L77.3,35.5
				C77.3,35.6,77.2,35.6,77.3,35.5C77.2,35.5,77.3,35.5,77.3,35.5z"/>
			<path class="st2" d="M56.9,80.7l14.7-0.1l14.7-0.1l29.3,0l29.3,0l14.7,0.1l14.7,0.1c0,0,0,0,0,0c0,0,0,0,0,0l-14.7,0.1L144.9,81
				l-29.3,0l-29.3,0l-14.7-0.1L56.9,80.7C56.9,80.8,56.9,80.8,56.9,80.7C56.9,80.7,56.9,80.7,56.9,80.7z"/>
			<path class="st2" d="M61.6,103.3l13.5-0.1l13.5-0.1l27,0l27,0l13.5,0.1l13.5,0.1c0,0,0,0,0,0c0,0,0,0,0,0l-13.5,0.1l-13.5,0.1
				l-27,0l-27,0l-13.5-0.1L61.6,103.3C61.6,103.4,61.6,103.4,61.6,103.3C61.6,103.3,61.6,103.3,61.6,103.3z"/>
			<path class="st2" d="M155.9,126.1H79.2c-0.1,0-0.2-0.1-0.2-0.2s0.1-0.2,0.2-0.2h76.6c0.1,0,0.2,0.1,0.2,0.2
				S156,126.1,155.9,126.1z"/>
		</g>
	</g>
	<g>
		<path class="st8" d="M68.1,60c0-3.6,2.9-6.5,6.5-6.5h55.7c3.1,0,5.6,2.4,5.8,5.5l4.1,80.7c0.1,2.4-1.8,4.4-4.2,4.5l-63.8,1.2
			c-2.3,0-4.1-1.8-4.1-4L68.1,60L68.1,60z"/>
		
			<linearGradient id="SVGID_00000111909010990103512140000017345133573178969216_" gradientUnits="userSpaceOnUse" x1="55.8777" y1="23.9538" x2="113.9334" y2="-12.9287" gradientTransform="matrix(1 0 0 -1 0 150)">
			<stop  offset="0" style="stop-color:#A737D5"/>
			<stop  offset="1" style="stop-color:#EF497A"/>
		</linearGradient>
		<path style="fill:url(#SVGID_00000111909010990103512140000017345133573178969216_);" d="M81.6,143.9
			C81.6,143.9,81.6,143.9,81.6,143.9l-7.1-0.1c-2.4,0-4.3-2-4.3-4.4v-10.8c0-0.1,0.1-0.2,0.2-0.2c0.1,0,0.2,0.1,0.2,0.2v10.8
			c0,2.2,1.8,4.1,4,4.1l7.1,0.1c0.1,0,0.2,0.1,0.2,0.2C81.7,143.8,81.7,143.9,81.6,143.9z"/>
		
			<linearGradient id="SVGID_00000048498411667762715720000001524270131301590164_" gradientUnits="userSpaceOnUse" x1="60.751" y1="31.6248" x2="118.8067" y2="-5.2577" gradientTransform="matrix(1 0 0 -1 0 150)">
			<stop  offset="0" style="stop-color:#A737D5"/>
			<stop  offset="1" style="stop-color:#EF497A"/>
		</linearGradient>
		<path style="fill:url(#SVGID_00000048498411667762715720000001524270131301590164_);" d="M70.3,125.4c-0.1,0-0.2-0.1-0.2-0.2v-1.7
			c0-0.1,0.1-0.2,0.2-0.2s0.2,0.1,0.2,0.2v1.7C70.4,125.4,70.3,125.4,70.3,125.4z"/>
		<g>
			
				<linearGradient id="SVGID_00000089532832215487830990000008903794350715353242_" gradientUnits="userSpaceOnUse" x1="171.0166" y1="149.7266" x2="47.2557" y2="-29.4079" gradientTransform="matrix(1 0 0 -1 0 150)">
				<stop  offset="0" style="stop-color:#FF9035"/>
				<stop  offset="1" style="stop-color:#FE8509"/>
			</linearGradient>
			<path style="fill:url(#SVGID_00000089532832215487830990000008903794350715353242_);" d="M72.7,54.7c0-1.2,1-2.1,2.2-1.9
				c7.6,1,33.8,4.2,55.4,2.6c1-0.1,1.8,0.7,1.9,1.7l4.3,81.1c0.1,1.1-0.8,2.1-1.9,2.1c-9.1,0.5-46.5,2.6-59.9,1.2
				c-0.8-0.1-1.4-0.8-1.4-1.6L72.7,54.7z"/>
			<path class="st12" d="M73.6,56.7c0-1.1,1-2,2.1-1.8c7.3,1,32.5,4.1,53.3,2.5c0.9-0.1,1.8,0.6,1.8,1.6l4.1,78.1
				c0.1,1.1-0.8,2-1.8,2c-8.8,0.5-44.8,2.5-57.7,1.2c-0.8-0.1-1.4-0.7-1.4-1.5L73.6,56.7z"/>
			<g>
				<path class="st2" d="M86.9,108.6C86.9,108.6,86.9,108.6,86.9,108.6l-4,0c-0.6,0-1-0.4-1.1-0.9l-0.3-3.3c0-0.2,0-0.4,0.2-0.5
					c0.1-0.2,0.4-0.3,0.6-0.3l0,0c0.3,0,0.8-0.1,1.3-0.1c1.1-0.1,2.4-0.2,3.1-0.2c0.5,0,1,0.3,1.1,0.8c0.2,0.8,0.2,2.2,0.1,3.8
					C87.9,108.2,87.4,108.6,86.9,108.6z M82.3,103.8c-0.2,0-0.3,0.1-0.4,0.2c-0.1,0.1-0.1,0.2-0.1,0.3l0.3,3.3
					c0,0.4,0.4,0.6,0.8,0.6l4,0c0,0,0,0,0,0c0.4,0,0.7-0.3,0.7-0.6c0-1.5,0.1-2.9-0.1-3.7c-0.1-0.3-0.4-0.6-0.8-0.6
					c-0.7,0-2,0.1-3.1,0.2C83.1,103.7,82.6,103.8,82.3,103.8L82.3,103.8z"/>
				<path class="st12" d="M82.7,104.1c0.8-0.1,2.6-0.2,3.5-0.3c0.4,0,0.7,0.2,0.8,0.5c0.2,0.6,0.1,1.8,0.1,3c0,0.3-0.3,0.6-0.7,0.6
					l-3.2,0c-0.4,0-0.7-0.3-0.8-0.6l-0.3-2.7C82.2,104.4,82.4,104.1,82.7,104.1z"/>
				<g class="st13">
					<path class="st2" d="M90.4,106.4c0.1,0.4,0.5,0.7,1,0.7l36.7-0.3c0.4,0,0.7-0.3,0.7-0.8c0-0.4-0.3-0.7-0.7-0.7l-36.7-0.2
						C90.7,105.1,90.2,105.8,90.4,106.4z"/>
				</g>
				
					<linearGradient id="SVGID_00000016070589935453976020000013168384673732428175_" gradientUnits="userSpaceOnUse" x1="94.5204" y1="61.818" x2="74.2393" y2="27.203" gradientTransform="matrix(1 0 0 -1 0 150)">
					<stop  offset="0" style="stop-color:#EF7F1A"/>
					<stop  offset="1" style="stop-color:#E96F08"/>
				</linearGradient>
				<path style="fill:url(#SVGID_00000016070589935453976020000013168384673732428175_);" d="M82.9,104.7L82.9,104.7
					c0.3-0.2,0.7-0.1,0.8,0.2l0.8,1.4c0.1,0.1,0.3,0.1,0.3,0l1.9-4.3c0.1-0.2,0.4-0.1,0.4,0.1c0,1.3-0.4,3.8-2.5,5.9
					c0,0-1.2-0.5-2.1-2.5C82.5,105.2,82.6,104.8,82.9,104.7z"/>
				<path class="st2" d="M86.9,117.1C86.9,117.1,86.9,117.1,86.9,117.1l-4,0c-0.6,0-1-0.4-1.1-0.9l-0.3-3.3c0-0.2,0-0.4,0.2-0.5
					c0.1-0.2,0.4-0.3,0.6-0.3l0,0c0.3,0,0.8-0.1,1.3-0.1c1.1-0.1,2.4-0.2,3.1-0.2c0,0,0,0,0,0c0.5,0,1,0.3,1.1,0.8
					c0.2,0.8,0.2,2.2,0.1,3.8C87.9,116.7,87.4,117.1,86.9,117.1z M82.3,112.3c-0.2,0-0.3,0.1-0.4,0.2c-0.1,0.1-0.1,0.2-0.1,0.3
					l0.3,3.3c0,0.4,0.4,0.6,0.8,0.6l4,0c0,0,0,0,0,0c0.4,0,0.7-0.3,0.7-0.6c0-1.5,0.1-2.9-0.1-3.7c-0.1-0.3-0.4-0.6-0.8-0.6
					c-0.7,0-2,0.1-3.1,0.2C83.1,112.2,82.6,112.3,82.3,112.3L82.3,112.3z"/>
				<path class="st12" d="M82.7,112.6c0.8-0.1,2.6-0.2,3.5-0.3c0.4,0,0.7,0.2,0.8,0.5c0.2,0.6,0.1,1.8,0.1,3c0,0.3-0.3,0.6-0.7,0.6
					l-3.2,0c-0.4,0-0.7-0.3-0.8-0.6l-0.3-2.7C82.2,112.9,82.4,112.7,82.7,112.6z"/>
				<g class="st13">
					<path class="st2" d="M90.4,114.9c0.1,0.4,0.5,0.7,1,0.7l36.7-0.3c0.4,0,0.7-0.3,0.7-0.8c0-0.4-0.3-0.7-0.7-0.7l-36.7-0.2
						C90.7,113.7,90.2,114.3,90.4,114.9z"/>
				</g>
				
					<linearGradient id="SVGID_00000024691702457071228380000008496085886577450372_" gradientUnits="userSpaceOnUse" x1="98.2333" y1="59.6426" x2="77.9522" y2="25.0275" gradientTransform="matrix(1 0 0 -1 0 150)">
					<stop  offset="0" style="stop-color:#EF7F1A"/>
					<stop  offset="1" style="stop-color:#E96F08"/>
				</linearGradient>
				<path style="fill:url(#SVGID_00000024691702457071228380000008496085886577450372_);" d="M82.9,113.2L82.9,113.2
					c0.3-0.2,0.7-0.1,0.8,0.2l0.8,1.4c0.1,0.1,0.3,0.1,0.3,0l1.9-4.3c0.1-0.2,0.4-0.1,0.4,0.1c0,1.3-0.4,3.8-2.5,5.9
					c0,0-1.2-0.5-2.1-2.5C82.5,113.7,82.6,113.3,82.9,113.2z"/>
				<path class="st2" d="M86.9,125.6C86.9,125.6,86.9,125.6,86.9,125.6l-4,0c-0.6,0-1-0.4-1.1-0.9l-0.3-3.3c0-0.2,0-0.4,0.2-0.5
					c0.1-0.2,0.4-0.3,0.6-0.3l0,0c0.3,0,0.8-0.1,1.3-0.1c1.1-0.1,2.4-0.2,3.1-0.2c0,0,0,0,0,0c0.5,0,1,0.3,1.1,0.8
					c0.2,0.8,0.2,2.2,0.1,3.8C87.9,125.2,87.4,125.6,86.9,125.6z M82.3,120.8c-0.2,0-0.3,0.1-0.4,0.2c-0.1,0.1-0.1,0.2-0.1,0.3
					l0.3,3.3c0,0.4,0.4,0.6,0.8,0.6l4,0c0,0,0,0,0,0c0.4,0,0.7-0.3,0.7-0.6c0-1.5,0.1-2.9-0.1-3.7c-0.1-0.3-0.4-0.6-0.8-0.6
					c-0.7,0-2,0.1-3.1,0.2C83.1,120.7,82.6,120.8,82.3,120.8L82.3,120.8z"/>
				<path class="st12" d="M82.7,121.2c0.8-0.1,2.6-0.2,3.5-0.3c0.4,0,0.7,0.2,0.8,0.5c0.2,0.6,0.1,1.8,0.1,3c0,0.3-0.3,0.6-0.7,0.6
					l-3.2,0c-0.4,0-0.7-0.3-0.8-0.6l-0.3-2.7C82.2,121.4,82.4,121.2,82.7,121.2z"/>
				<g class="st13">
					<path class="st2" d="M90.4,123.4c0.1,0.4,0.5,0.7,1,0.7l36.7-0.3c0.4,0,0.7-0.3,0.7-0.8c0-0.4-0.3-0.7-0.7-0.7l-36.7-0.2
						C90.7,122.2,90.2,122.8,90.4,123.4z"/>
				</g>
				
					<linearGradient id="SVGID_00000003082415901527780940000008024674984237173125_" gradientUnits="userSpaceOnUse" x1="101.3552" y1="51.1095" x2="74.6696" y2="13.9021" gradientTransform="matrix(1 0 0 -1 0 150)">
					<stop  offset="0" style="stop-color:#EF7F1A"/>
					<stop  offset="1" style="stop-color:#E96F08"/>
				</linearGradient>
				<path style="fill:url(#SVGID_00000003082415901527780940000008024674984237173125_);" d="M82.9,121.7L82.9,121.7
					c0.3-0.2,0.7-0.1,0.8,0.2l0.8,1.4c0.1,0.1,0.3,0.1,0.3,0l1.9-4.3c0.1-0.2,0.4-0.1,0.4,0.1c0,1.3-0.4,3.8-2.5,5.9
					c0,0-1.2-0.5-2.1-2.5C82.5,122.2,82.6,121.8,82.9,121.7z"/>
				<path class="st2" d="M86.9,134.1C86.9,134.1,86.9,134.1,86.9,134.1l-4,0c-0.6,0-1-0.4-1.1-0.9l-0.3-3.3c0-0.2,0-0.4,0.2-0.5
					c0.1-0.2,0.4-0.3,0.6-0.3l0,0c0.3,0,0.8-0.1,1.3-0.1c1.1-0.1,2.4-0.2,3.1-0.2c0,0,0,0,0,0c0.5,0,1,0.3,1.1,0.8
					c0.2,0.8,0.2,2.2,0.1,3.8C87.9,133.7,87.4,134.1,86.9,134.1z M82.3,129.3c-0.2,0-0.3,0.1-0.4,0.2c-0.1,0.1-0.1,0.2-0.1,0.3
					l0.3,3.3c0,0.4,0.4,0.6,0.8,0.6l4,0c0,0,0,0,0,0c0.4,0,0.7-0.3,0.7-0.6c0-1.5,0.1-2.9-0.1-3.7c-0.1-0.3-0.4-0.6-0.8-0.6
					c-0.7,0-2,0.1-3.1,0.2C83.1,129.3,82.6,129.3,82.3,129.3L82.3,129.3z"/>
				<path class="st12" d="M82.7,129.7c0.8-0.1,2.6-0.2,3.5-0.3c0.4,0,0.7,0.2,0.8,0.5c0.2,0.6,0.1,1.8,0.1,3c0,0.3-0.3,0.6-0.7,0.6
					l-3.2,0c-0.4,0-0.7-0.3-0.8-0.6l-0.3-2.7C82.2,129.9,82.4,129.7,82.7,129.7z"/>
				<g class="st13">
					<path class="st2" d="M90.4,131.9L90.4,131.9c0.1,0.4,0.5,0.7,1,0.7l36.7-0.3c0.4,0,0.7-0.3,0.7-0.8c0-0.4-0.3-0.7-0.7-0.7
						l-36.7-0.2C90.7,130.7,90.2,131.3,90.4,131.9z"/>
				</g>
				
					<linearGradient id="SVGID_00000121252841976446797710000006994286589425281154_" gradientUnits="userSpaceOnUse" x1="105.6591" y1="55.2918" x2="85.3781" y2="20.6767" gradientTransform="matrix(1 0 0 -1 0 150)">
					<stop  offset="0" style="stop-color:#EF7F1A"/>
					<stop  offset="1" style="stop-color:#E96F08"/>
				</linearGradient>
				<path style="fill:url(#SVGID_00000121252841976446797710000006994286589425281154_);" d="M82.9,130.2L82.9,130.2
					c0.3-0.2,0.7-0.1,0.8,0.2l0.8,1.4c0.1,0.1,0.3,0.1,0.3,0l1.9-4.3c0.1-0.2,0.4-0.1,0.4,0.1c0,1.3-0.4,3.8-2.5,5.9
					c0,0-1.2-0.5-2.1-2.5C82.5,130.7,82.6,130.4,82.9,130.2z"/>
			</g>
			<g>
				
					<linearGradient id="SVGID_00000068642001138644091040000013185342006723008440_" gradientUnits="userSpaceOnUse" x1="-5575.5527" y1="220.3155" x2="-5586.4146" y2="110.3377" gradientTransform="matrix(-0.9999 1.250000e-02 -1.250000e-02 -0.9999 -5460.9658 208.9152)">
					<stop  offset="0" style="stop-color:#EF7F1A"/>
					<stop  offset="1" style="stop-color:#E96F08"/>
				</linearGradient>
				<polygon style="fill:url(#SVGID_00000068642001138644091040000013185342006723008440_);" points="127.7,77 129.4,77 129.3,69.3 
					127.6,69.4 				"/>
				
					<linearGradient id="SVGID_00000004516365175366791360000001708503877785082801_" gradientUnits="userSpaceOnUse" x1="-5572.6187" y1="220.0251" x2="-5583.48" y2="110.0482" gradientTransform="matrix(-0.9999 1.250000e-02 -1.250000e-02 -0.9999 -5460.9658 208.9152)">
					<stop  offset="0" style="stop-color:#EF7F1A"/>
					<stop  offset="1" style="stop-color:#E96F08"/>
				</linearGradient>
				<polygon style="fill:url(#SVGID_00000004516365175366791360000001708503877785082801_);" points="124.8,77.1 126.5,77.1 
					126.5,72 124.8,72 				"/>
				
					<linearGradient id="SVGID_00000072257315139907098880000013421870556956948123_" gradientUnits="userSpaceOnUse" x1="-5570.1309" y1="219.7806" x2="-5580.9927" y2="109.8026" gradientTransform="matrix(-0.9999 1.250000e-02 -1.250000e-02 -0.9999 -5460.9658 208.9152)">
					<stop  offset="0" style="stop-color:#EF7F1A"/>
					<stop  offset="1" style="stop-color:#E96F08"/>
				</linearGradient>
				<polygon style="fill:url(#SVGID_00000072257315139907098880000013421870556956948123_);" points="122,77.1 123.7,77.1 
					123.5,65.5 121.8,65.6 				"/>
				
					<linearGradient id="SVGID_00000117652236005303277260000012047147374543295617_" gradientUnits="userSpaceOnUse" x1="-5566.896" y1="219.4577" x2="-5577.7578" y2="109.4818" gradientTransform="matrix(-0.9999 1.250000e-02 -1.250000e-02 -0.9999 -5460.9658 208.9152)">
					<stop  offset="0" style="stop-color:#EF7F1A"/>
					<stop  offset="1" style="stop-color:#E96F08"/>
				</linearGradient>
				<polygon style="fill:url(#SVGID_00000117652236005303277260000012047147374543295617_);" points="119.2,77.1 120.9,77.1 
					120.8,74.3 119.1,74.4 				"/>
				
					<linearGradient id="SVGID_00000006692347824598341650000006505319876390749098_" gradientUnits="userSpaceOnUse" x1="-5564.4434" y1="219.2186" x2="-5575.3052" y2="109.241" gradientTransform="matrix(-0.9999 1.250000e-02 -1.250000e-02 -0.9999 -5460.9658 208.9152)">
					<stop  offset="0" style="stop-color:#EF7F1A"/>
					<stop  offset="1" style="stop-color:#E96F08"/>
				</linearGradient>
				<polygon style="fill:url(#SVGID_00000006692347824598341650000006505319876390749098_);" points="116.3,77.2 118,77.2 
					117.9,67.1 116.2,67.2 				"/>
				
					<linearGradient id="SVGID_00000165224651844681229610000008470025923232988086_" gradientUnits="userSpaceOnUse" x1="-5561.5527" y1="218.9321" x2="-5572.4146" y2="108.9547" gradientTransform="matrix(-0.9999 1.250000e-02 -1.250000e-02 -0.9999 -5460.9658 208.9152)">
					<stop  offset="0" style="stop-color:#EF7F1A"/>
					<stop  offset="1" style="stop-color:#E96F08"/>
				</linearGradient>
				<polygon style="fill:url(#SVGID_00000165224651844681229610000008470025923232988086_);" points="113.5,77.2 115.2,77.2 
					115.1,68.9 113.4,68.9 				"/>
				
					<linearGradient id="SVGID_00000098179052974830213660000008854599847972886670_" gradientUnits="userSpaceOnUse" x1="-5558.6548" y1="218.6458" x2="-5569.5166" y2="108.6684" gradientTransform="matrix(-0.9999 1.250000e-02 -1.250000e-02 -0.9999 -5460.9658 208.9152)">
					<stop  offset="0" style="stop-color:#EF7F1A"/>
					<stop  offset="1" style="stop-color:#E96F08"/>
				</linearGradient>
				<polygon style="fill:url(#SVGID_00000098179052974830213660000008854599847972886670_);" points="110.7,77.3 112.4,77.2 
					112.3,70.8 110.6,70.9 				"/>
				
					<linearGradient id="SVGID_00000101103870281168024200000004846848054504649912_" gradientUnits="userSpaceOnUse" x1="-5556.2153" y1="218.4062" x2="-5567.0771" y2="108.4281" gradientTransform="matrix(-0.9999 1.250000e-02 -1.250000e-02 -0.9999 -5460.9658 208.9152)">
					<stop  offset="0" style="stop-color:#EF7F1A"/>
					<stop  offset="1" style="stop-color:#E96F08"/>
				</linearGradient>
				<polygon style="fill:url(#SVGID_00000101103870281168024200000004846848054504649912_);" points="107.8,77.3 109.5,77.3 
					109.4,63.4 107.7,63.4 				"/>
				
					<linearGradient id="SVGID_00000042698437834626136160000015367073782371071910_" gradientUnits="userSpaceOnUse" x1="-5553.3374" y1="218.1218" x2="-5564.1997" y2="108.1438" gradientTransform="matrix(-0.9999 1.250000e-02 -1.250000e-02 -0.9999 -5460.9658 208.9152)">
					<stop  offset="0" style="stop-color:#EF7F1A"/>
					<stop  offset="1" style="stop-color:#E96F08"/>
				</linearGradient>
				<polygon style="fill:url(#SVGID_00000042698437834626136160000015367073782371071910_);" points="105,77.3 106.7,77.3 
					106.5,64.9 104.8,64.9 				"/>
				
					<linearGradient id="SVGID_00000174604495724830908710000000347900612362050200_" gradientUnits="userSpaceOnUse" x1="-5550.4229" y1="217.8327" x2="-5561.2852" y2="107.8544" gradientTransform="matrix(-0.9999 1.250000e-02 -1.250000e-02 -0.9999 -5460.9658 208.9152)">
					<stop  offset="0" style="stop-color:#EF7F1A"/>
					<stop  offset="1" style="stop-color:#E96F08"/>
				</linearGradient>
				<polygon style="fill:url(#SVGID_00000174604495724830908710000000347900612362050200_);" points="102.2,77.4 103.9,77.3 
					103.7,67.1 102,67.2 				"/>
				
					<linearGradient id="SVGID_00000128460910809103028170000001373950236336878976_" gradientUnits="userSpaceOnUse" x1="-5547.2417" y1="217.5156" x2="-5558.1035" y2="107.5399" gradientTransform="matrix(-0.9999 1.250000e-02 -1.250000e-02 -0.9999 -5460.9658 208.9152)">
					<stop  offset="0" style="stop-color:#EF7F1A"/>
					<stop  offset="1" style="stop-color:#E96F08"/>
				</linearGradient>
				<polygon style="fill:url(#SVGID_00000128460910809103028170000001373950236336878976_);" points="99.3,77.4 101,77.4 101,74.9 
					99.3,74.9 				"/>
				
					<linearGradient id="SVGID_00000117663298718782796630000018088793451403120273_" gradientUnits="userSpaceOnUse" x1="-5544.6748" y1="217.2647" x2="-5555.5366" y2="107.2873" gradientTransform="matrix(-0.9999 1.250000e-02 -1.250000e-02 -0.9999 -5460.9658 208.9152)">
					<stop  offset="0" style="stop-color:#EF7F1A"/>
					<stop  offset="1" style="stop-color:#E96F08"/>
				</linearGradient>
				<polygon style="fill:url(#SVGID_00000117663298718782796630000018088793451403120273_);" points="96.5,77.4 98.2,77.4 98.1,70 
					96.4,70 				"/>
			</g>
			<g>
				<g class="st30">
					<path class="st2" d="M91.4,66.1H80c-0.7,0-1.3-0.6-1.3-1.3s0.6-1.3,1.3-1.3h11.4c0.7,0,1.3,0.6,1.3,1.3
						C92.7,65.5,92.1,66.1,91.4,66.1z"/>
					<path class="st2" d="M91.4,71.3H80c-0.7,0-1.3-0.6-1.3-1.3c0-0.7,0.6-1.3,1.3-1.3h11.4c0.7,0,1.3,0.6,1.3,1.3
						C92.7,70.7,92.1,71.3,91.4,71.3z"/>
					<path class="st2" d="M91.4,76.5H80c-0.7,0-1.3-0.6-1.3-1.3c0-0.7,0.6-1.3,1.3-1.3h11.4c0.7,0,1.3,0.6,1.3,1.3
						C92.7,75.9,92.1,76.5,91.4,76.5z"/>
					<path class="st2" d="M99.6,82.1h25.5c1.6,0,2.9,0.9,2.9,2.1v12.2c0,1.1-1.3,2.1-2.9,2.1H99.6c-1.6,0-2.9-0.9-2.9-2.1V84.2
						C96.7,83,98,82.1,99.6,82.1z"/>
					<path class="st2" d="M80,81.6h11.4c0.7,0,1.3,1,1.3,2.2v13c0,1.2-0.6,2.2-1.3,2.2H80c-0.7,0-1.3-1-1.3-2.2v-13
						C78.7,82.6,79.3,81.6,80,81.6z"/>
				</g>
			</g>
		</g>
		<path class="st8" d="M106,42.4c-2-1.4-3.8-1.4-5-1c-1.1,0.3-1.9,1.4-1.7,2.6l0.5,5.8l6.3,0.6C106.1,50.3,109.9,45.1,106,42.4z
			 M103.2,47.1c-0.9,0-1.6-0.7-1.6-1.6c0-0.9,0.7-1.6,1.6-1.6s1.6,0.7,1.6,1.6C104.8,46.4,104.1,47.1,103.2,47.1z"/>
		<path class="st2" d="M100.4,47.3c-0.1,0-0.1-0.1-0.2-0.1l-0.1-0.9c0-0.1,0.1-0.2,0.1-0.2c0.1,0,0.2,0.1,0.2,0.1l0.1,0.9
			C100.6,47.3,100.5,47.3,100.4,47.3C100.4,47.3,100.4,47.3,100.4,47.3z M100.3,45.5c-0.1,0-0.1-0.1-0.2-0.1l-0.1-0.7
			c-0.1-1.1,0.6-2.1,1.7-2.5c0.8-0.2,1.5-0.3,2.3-0.1c0.1,0,0.1,0.1,0.1,0.2c0,0.1-0.1,0.1-0.2,0.1c-0.7-0.1-1.5-0.1-2.2,0.1
			c-0.9,0.3-1.5,1.2-1.4,2.1l0.1,0.7C100.4,45.4,100.4,45.5,100.3,45.5C100.3,45.5,100.3,45.5,100.3,45.5z"/>
		<path class="st8" d="M91.2,53.5v-2.9c0-1,0.8-1.8,1.8-1.8l20.1,0.7c0.9,0,1.6,0.7,1.7,1.6l0.2,2.8L91.2,53.5z"/>
		<path class="st2" d="M98.7,49.9h-0.9c-0.1,0-0.2-0.1-0.2-0.2c0-0.1,0.1-0.2,0.2-0.2h0.9c0.1,0,0.2,0.1,0.2,0.2
			C98.8,49.9,98.7,49.9,98.7,49.9z"/>
		<path class="st2" d="M92.2,52.6c-0.1,0-0.2-0.1-0.2-0.2v-1.2c0-0.9,0.7-1.7,1.7-1.7h3.2c0.1,0,0.2,0.1,0.2,0.2
			c0,0.1-0.1,0.2-0.2,0.2h-3.2c-0.7,0-1.3,0.6-1.3,1.3v1.2C92.4,52.5,92.3,52.6,92.2,52.6z"/>
		
			<linearGradient id="SVGID_00000072987962958422552180000008295719415633042853_" gradientUnits="userSpaceOnUse" x1="102.7604" y1="125.622" x2="102.7604" y2="103.4215" gradientTransform="matrix(1 0 0 -1 0 150)">
			<stop  offset="0" style="stop-color:#EF7F1A"/>
			<stop  offset="1" style="stop-color:#E96F08"/>
		</linearGradient>
		<path style="fill:url(#SVGID_00000072987962958422552180000008295719415633042853_);" d="M83,54.3c0-1,0.9-1.8,1.9-1.8l35.1,0
			c1.3,0,2.3,0.9,2.6,2.2l0,0.2c0.2,1.4-0.8,2.6-2.2,2.6h-36c-0.8,0-1.5-0.7-1.4-1.5L83,54.3z"/>
	</g>
	<g>
		<g>
			
				<linearGradient id="SVGID_00000170957968577342204890000016075823535516335038_" gradientUnits="userSpaceOnUse" x1="7847.7275" y1="74.6915" x2="7855.8931" y2="56.1138" gradientTransform="matrix(1 0 0 -1 -7701.9111 150)">
				<stop  offset="0" style="stop-color:#FEBBBA"/>
				<stop  offset="1" style="stop-color:#FF928E"/>
			</linearGradient>
			<path style="fill:url(#SVGID_00000170957968577342204890000016075823535516335038_);" d="M144.4,68c-0.5-0.7-1.3-1.5-1.9-2.2
				c-0.3,0-0.7,0.3-0.7,0.3c-0.3,0.5-0.6,0.9-0.7,1.4c-0.1,0.4,0,0.9,0.2,1.3c0.2,0.4,0.5,0.9,0.8,1.3c0.5,0.7,1.3,0.8,1.3,0.8
				c-0.1,0.2,0.7,0.5,1.1-0.3C144.4,70.1,144.7,68.4,144.4,68z"/>
		</g>
		<path d="M165.4,141.4c0,0,0.3,1.6,0.4,3.2c0.1,0.6-0.4,1.2-1.1,1.2c-2.1,0.1-6.7,0.3-8.3,0.2c-0.2,0-0.4-0.3-0.3-0.5
			c0.1-0.2,0.2-0.3,0.4-0.4l7.5-3.4L165.4,141.4z"/>
		
			<linearGradient id="SVGID_00000058551008071141139650000002755945034045433226_" gradientUnits="userSpaceOnUse" x1="-601.9484" y1="8.6117" x2="-599.5093" y2="8.6117" gradientTransform="matrix(-1 0 0 -1 -436.3218 150)">
			<stop  offset="0" style="stop-color:#FEBBBA"/>
			<stop  offset="1" style="stop-color:#FF928E"/>
		</linearGradient>
		<path style="fill:url(#SVGID_00000058551008071141139650000002755945034045433226_);" d="M165.6,140.4l-0.2,1.9
			c0,0-1.3,0.6-2.2-0.1l0.5-2.1L165.6,140.4z"/>
		<path d="M165.5,104.2c0.1,0.5,0.5,25.1-2.1,36.1c0,0.2,0,0.4,0.2,0.4c0.4,0.2,1.2,0.4,2.1,0.4c0.3,0,0.6-0.2,0.6-0.5
			c0.8-2.6,4.4-15.4,4.8-27.6c0.5-13.7,0-0.5,0-0.5l-0.3-8.5L165.5,104.2z"/>
		<path d="M174,142.2c0,0,0.5,0.8,0.9,3c0.1,0.4-0.2,0.8-0.6,0.8c-0.7,0.1-1.8,0.2-2.6,0.2c-0.4,0-0.7-0.3-0.7-0.7
			c0.1-0.8,0.4-2.1,1.3-3.1L174,142.2z"/>
		
			<linearGradient id="SVGID_00000034049207696274171220000006376128864974391696_" gradientUnits="userSpaceOnUse" x1="-610.7397" y1="8.7368" x2="-608.6334" y2="8.7368" gradientTransform="matrix(-1 0 0 -1 -436.3218 150)">
			<stop  offset="0" style="stop-color:#FEBBBA"/>
			<stop  offset="1" style="stop-color:#FF928E"/>
		</linearGradient>
		<path style="fill:url(#SVGID_00000034049207696274171220000006376128864974391696_);" d="M174.4,139.8l-0.5,2.9
			c0,0-0.5,0.4-1.6,0.1l0.3-3.1L174.4,139.8z"/>
		<path d="M175.9,105c2.2,13-0.5,32.1-1.3,35.8c-0.1,0.2-0.2,0.4-0.5,0.4c-0.4,0.1-1,0.1-1.7-0.1c-0.2-0.1-0.4-0.3-0.4-0.5
			c-0.1-3,0.1-21.6-1.9-28.9c-0.1-0.4-0.3-0.7-0.6-0.9l-3.9-2.8l-0.3-4.5L175.9,105z"/>
		<path d="M162.2,80.4c6.4-0.1,13.6,1.7,13.6,1.7c1.9,11.2,0.3,24.1,0.3,24.1c-5,1.3-10.6-0.8-10.6-0.8c-0.8-4.7-4.7-17.9-4.7-17.9
			c-3.1-0.4-2.5-3-4.6-4.2c1.6-1.9-0.9-1-0.5-2.4C157.9,81.7,160.2,80.4,162.2,80.4z"/>
		<path class="st2" d="M143.1,70.9c0.6-0.8,1.4-0.4,1.4-0.4c0.9,4,5.9,7.3,11,8.8c-0.3,1.4-1.1,3.8-2.7,5.7
			C144.4,80.3,143.1,70.9,143.1,70.9z"/>
		<path class="st3" d="M173.2,88.3l2.5-6.2c0,0,6,4.1,7,9.3c-1.1,0.1-3.2,0.4-5.2,1.4C177,90.3,173.2,88.3,173.2,88.3z"/>
		
			<linearGradient id="SVGID_00000064344267860661644950000007974117705508186287_" gradientUnits="userSpaceOnUse" x1="-607.0706" y1="71.4608" x2="-600.8348" y2="71.4608" gradientTransform="matrix(-1 0 0 -1 -436.3218 150)">
			<stop  offset="0" style="stop-color:#FEBBBA"/>
			<stop  offset="1" style="stop-color:#FF928E"/>
		</linearGradient>
		<path style="fill:url(#SVGID_00000064344267860661644950000007974117705508186287_);" d="M168.7,75.2l2.1,5.9c0,0.1,0,0.2-0.1,0.3
			c-0.6,0.3-2.6,1.2-5-0.3c-0.3-0.2-0.4-0.4-0.5-0.7l-0.7-5.1H168.7z"/>
		<path class="st3" d="M172.6,81.4l-2.4-2.1l-3.7,8.9l2.7,35.5l8.3,0.2c0.1,0,0.1,0,0.2-0.1c0,0,0.1-0.1,0.1-0.2l-1.2-34.2
			c0,0,0-7.4-0.8-7.6C174.9,81.9,172.6,81.4,172.6,81.4z"/>
		<path class="st2" d="M166.5,87.8l-1.4-8.5l-1.2,1.1l-2.6,0l-0.5,7.2l3.6,36.7c0,0.1,0,0.1,0.1,0.1c0,0,0.1,0.1,0.2,0l4.5-0.7
			L166.5,87.8z"/>
		<path class="st2" d="M161.6,80.4c0,0-4.1-0.3-6.5-1.2c-2.8,5-3.5,5.1-3.5,5.1s3.4,3,9.1,3.3C166.5,87.8,161.6,80.4,161.6,80.4z"/>
		
			<linearGradient id="SVGID_00000166666686205224880020000000853055717062798509_" gradientUnits="userSpaceOnUse" x1="-601.738" y1="59.9317" x2="-590.0991" y2="68.3078" gradientTransform="matrix(-1 0 0 -1 -436.3218 150)">
			<stop  offset="0" style="stop-color:#9CFFFB"/>
			<stop  offset="1" style="stop-color:#9BFFFA"/>
		</linearGradient>
		<polygon style="fill:url(#SVGID_00000166666686205224880020000000853055717062798509_);" points="165,88.2 165,89.1 161.7,88.9 
			161.7,87.9 		"/>
		<path class="st5" d="M166.7,90.4C166.7,90.4,166.7,90.4,166.7,90.4l2.9-1.5c0,0,0.1-0.1,0.1-0.1l0.4-2.6l1-0.2c0,0,0.1,0,0.1-0.1
			l1.1-3.5c0-0.1,0-0.1-0.1-0.2c-0.1,0-0.1,0-0.2,0.1l-1.1,3.5l-1,0.2c-0.1,0-0.1,0.1-0.1,0.1l-0.4,2.6l-2.8,1.5
			c-0.1,0-0.1,0.1-0.1,0.2C166.6,90.4,166.6,90.4,166.7,90.4z"/>
		<path class="st3" d="M166,89.5C166,89.5,166,89.5,166,89.5c0.1,0,0.1-0.1,0.1-0.1l-1.5-2.6l0.2-1.5c0,0,0-0.1,0-0.1l-1.2-0.6
			l0.3-4.2c0-0.1,0-0.1-0.1-0.1c-0.1,0-0.1,0-0.1,0.1l-0.3,4.2c0,0,0,0.1,0.1,0.1l1.2,0.6l-0.2,1.4c0,0,0,0,0,0.1L166,89.5
			C165.9,89.5,166,89.5,166,89.5z"/>
		<g>
			<path class="st3" d="M168,94c0,0,6.8,3.8,9,0.6c0.5-0.7,0.6-1.4,0.5-2c2-1,4.1-1.3,5.2-1.4c0.3,1.6,0.1,3.2-0.8,4.9
				c-4,7.3-14.9-0.4-14.9-0.4L168,94z"/>
			<g>
				<path class="st8" d="M168.7,98.4L165.1,86c0-0.1-0.2-0.3-0.3-0.3c-0.7-0.1-2.6-0.3-4.8-0.5c-2.3-0.2-5-0.4-6.8-0.3
					c-0.7,0-1.1,0.7-0.8,1.3c1.4,2.8,4.9,9.7,6.9,12.6c0.3,0.4,0.7,0.6,1.1,0.6l7.6-0.1C168.5,99.3,168.8,98.9,168.7,98.4z"/>
				
					<linearGradient id="SVGID_00000085931406563365702280000013243021375957788071_" gradientUnits="userSpaceOnUse" x1="-604.5724" y1="56.4367" x2="-599.6586" y2="56.4367" gradientTransform="matrix(-1 0 0 -1 -436.3218 150)">
					<stop  offset="0" style="stop-color:#FEBBBA"/>
					<stop  offset="1" style="stop-color:#FF928E"/>
				</linearGradient>
				<path style="fill:url(#SVGID_00000085931406563365702280000013243021375957788071_);" d="M167.9,95.7c0,0,0.5-2.1,0.3-2.9
					s-0.6-1.7-1.9-1.5c-1.3,0.2-2.9,0.8-2.9,0.8s0.1,1,1.1,0.7l-0.6,0.5c0,0,0.1,0.8,0.9,0.4l-0.6,0.6c0,0,0.4,0.6,1,0.2
					C165.8,94.1,166.1,96,167.9,95.7z"/>
			</g>
		</g>
		<path class="st5" d="M174.3,96c0.6,0,1.2-0.1,1.7-0.3c0.1,0,0.1-0.1,0.1-0.2c0-0.1-0.1-0.1-0.2-0.1c-1.8,1-6.2-0.7-6.3-0.7
			c0,0-0.9-0.3-1.2-0.9c0-0.1-0.1-0.1-0.2-0.1c-0.1,0-0.1,0.1-0.1,0.2c0.3,0.7,1.3,1,1.3,1C169.7,95,172.3,96,174.3,96z"/>
		<path class="st5" d="M176.8,99.4c0.1,0,0.1-0.1,0.1-0.1c0-0.1-0.1-0.1-0.1-0.1c-5.1-0.2-8-2.5-8.1-2.5c-0.1,0-0.1,0-0.2,0
			s0,0.1,0,0.2C168.6,96.8,171.6,99.2,176.8,99.4C176.8,99.4,176.8,99.4,176.8,99.4z"/>
		<g>
			
				<linearGradient id="SVGID_00000147181456914433278460000007990454304422598844_" gradientUnits="userSpaceOnUse" x1="-476.5039" y1="2548.0891" x2="-485.1549" y2="2536.6445" gradientTransform="matrix(-0.8116 -0.5843 0.5843 -0.8116 -1710.3765 1859.1869)">
				<stop  offset="0" style="stop-color:#FEBBBA"/>
				<stop  offset="1" style="stop-color:#FF928E"/>
			</linearGradient>
			<path style="fill:url(#SVGID_00000147181456914433278460000007990454304422598844_);" d="M163.9,68.5c-0.1,0.1-2.1,7.3-2.1,7.3
				l4.2,1.1l3-6.6C168.9,70.4,165,67,163.9,68.5z"/>
			<path d="M167.2,70.9c0.1,0.2,0.1,0.4,0.1,0.5L166,75c0,0.1,0,0.1-0.1,0.1c-0.2,0.3-0.8,1-1.6,0.3c-0.6-0.6-1.3-1.2-1.8-1.3
				c-0.3-0.1-0.7,0.1-0.8,0.4c-0.2,0.7-0.6,2.1-0.7,3.3c0,0.3,0.2,0.6,0.5,0.7c0.8,0.2,2.5,0.4,3.9,0.4c0.2,0,0.4-0.1,0.5-0.4
				c0.4-0.9,1.6-3.5,2.1-4.1c0.4-0.6,1.4-0.6,1.9-0.6c0.2,0,0.3,0,0.5-0.2c0.4-0.3,1-1.2,0.1-2.1c-0.2-0.2-0.2-0.6,0-0.9
				c0.4-0.4,0.8-1.1,0.1-2c-0.7-0.9-1.6-0.8-2.2-0.6c-0.3,0.1-0.6,0-0.7-0.2c-0.1-0.1-0.2-0.2-0.4-0.2c-0.3,0-0.6-0.3-0.6-0.6
				c0-0.6-0.2-1.3-1.2-1.6c-1.8-0.6-3,1.2-3.1,2.5c-0.1,1.3,1.9,1.8,3.1,1.8C166.3,69.6,166.9,70.4,167.2,70.9z"/>
			
				<linearGradient id="SVGID_00000153701527213050452910000007145000217454875811_" gradientUnits="userSpaceOnUse" x1="-489.1743" y1="2539.0259" x2="-482.2355" y2="2546.1448" gradientTransform="matrix(-0.8116 -0.5843 0.5843 -0.8116 -1710.3765 1859.1869)">
				<stop  offset="0" style="stop-color:#FEBBBA"/>
				<stop  offset="1" style="stop-color:#FF928E"/>
			</linearGradient>
			<path style="fill:url(#SVGID_00000153701527213050452910000007145000217454875811_);" d="M167.5,75.7c0,0,0.3-2.3,1.3-2.4
				c1-0.1,1.9,0.7,0.9,2C168.5,76.9,167.5,75.7,167.5,75.7z"/>
		</g>
		
			<linearGradient id="SVGID_00000146465711572396585400000004846154707147932289_" gradientUnits="userSpaceOnUse" x1="162.9855" y1="71.8474" x2="168.5515" y2="71.8474" gradientTransform="matrix(1 0 0 -1 0 150)">
			<stop  offset="0" style="stop-color:#2B3582"/>
			<stop  offset="1" style="stop-color:#150E42"/>
		</linearGradient>
		<path style="fill:url(#SVGID_00000146465711572396585400000004846154707147932289_);" d="M164.4,81.8c-0.5,0-0.9-0.2-1.2-0.6
			c-0.8-1.2,0.3-3.8,0.4-3.9c0-0.1,0.1-0.1,0.2-0.1c0.1,0,0.1,0.1,0.1,0.2c0,0-1.1,2.6-0.4,3.6c0.2,0.3,0.5,0.4,0.9,0.4
			c3.2,0,3.8-6.8,3.8-6.8c0-0.1,0.1-0.2,0.2-0.2c0.1,0,0.2,0.1,0.2,0.2c0,0-0.2,1.8-0.7,3.5C167.1,80.6,165.9,81.8,164.4,81.8z"/>
		
			<linearGradient id="SVGID_00000139290144264704267900000000233086545692391852_" gradientUnits="userSpaceOnUse" x1="142.9783" y1="71.6481" x2="164.0109" y2="71.6481" gradientTransform="matrix(1 0 0 -1 0 150)">
			<stop  offset="0" style="stop-color:#2B3582"/>
			<stop  offset="1" style="stop-color:#150E42"/>
		</linearGradient>
		<path style="fill:url(#SVGID_00000139290144264704267900000000233086545692391852_);" d="M157.1,86.5c-0.5,0-1,0-1.5-0.1
			c-4.3-0.5-7.8-3.4-10.2-8.5c-1.8-3.8-2.4-7.5-2.4-7.5c0-0.1,0.1-0.2,0.1-0.2c0.1,0,0.2,0.1,0.2,0.1c0,0,0.6,3.7,2.3,7.4
			c1.6,3.4,4.7,7.6,10,8.3c3,0.3,5.3-0.3,6.7-1.9c1.1-1.2,1.3-2.5,1.3-2.5c0-0.1,0.1-0.2,0.2-0.1c0.1,0,0.2,0.1,0.1,0.2
			C164,81.7,163.2,86.5,157.1,86.5z"/>
		<path class="st8" d="M143.7,67.5c0,2.3-1.3,4.2-2.9,4.2c-1.6,0-2.9-1.9-2.9-4.2s1.3-4.2,2.9-4.2C142.4,63.4,143.7,65.2,143.7,67.5
			z"/>
		
			<linearGradient id="SVGID_00000054234437987439380900000008813800479367963806_" gradientUnits="userSpaceOnUse" x1="2026.1112" y1="240.149" x2="2029.5814" y2="245.4845" gradientTransform="matrix(-0.9769 0.2135 -0.2135 -0.9769 2174.217 -128.2683)">
			<stop  offset="0" style="stop-color:#FEBBBA"/>
			<stop  offset="1" style="stop-color:#FF928E"/>
		</linearGradient>
		<path style="fill:url(#SVGID_00000054234437987439380900000008813800479367963806_);" d="M142.3,67.8l1.3,0.7l0.5,0.8l-0.7,1.3
			c0,0-0.7-1.8-1.1-2.1C142,68.2,142.1,68,142.3,67.8z"/>
	</g>
</g>
</svg>
