<?xml version="1.0" encoding="utf-8"?>
<!-- Generator: Adobe Illustrator 25.4.1, SVG Export Plug-In . SVG Version: 6.00 Build 0)  -->
<svg version="1.1" id="_x2018_ëîé_x5F_1" xmlns="http://www.w3.org/2000/svg" xmlns:xlink="http://www.w3.org/1999/xlink"
	 x="0px" y="0px" viewBox="0 0 225 150" style="enable-background:new 0 0 225 150;" xml:space="preserve">
<style type="text/css">
	.st0{opacity:0.5;fill:#F8FCFF;enable-background:new    ;}
	.st1{fill:#DCEBFF;}
	.st2{fill:#FFCE83;}
	.st3{fill:#ADC9FE;}
	.st4{fill:#F7C174;}
	.st5{fill:#83B378;}
	.st6{fill:#6F9E63;}
	.st7{fill:#365FA4;}
	.st8{fill:#FFF3E9;}
	.st9{fill:#ED9E4A;}
	.st10{fill:#F9DDBF;}
	.st11{fill:#EFCDAF;}
	.st12{fill:#E58538;}
	.st13{fill:#2B498B;}
	.st14{fill:#AEC4FF;}
	.st15{fill:#F8FCFF;}
	.st16{fill:#EDBC77;}
	.st17{fill:#CCA283;}
	.st18{fill:#FFE7D7;}
	.st19{opacity:0.6;fill:#F8FCFF;enable-background:new    ;}
	.st20{fill:#7FA6F4;}
	.st21{fill:#F99646;}
	.st22{fill:#FFFFFF;}
	.st23{fill:#FFB17D;}
	.st24{fill:#2C3B64;}
	.st25{fill:#E2AE64;}
	.st26{fill:#001C49;}
	.st27{fill:#052669;}
	.st28{fill:#ED975F;}
	.st29{fill:#EF7F1A;}
	.st30{fill:#FFF2E9;}
	.st31{fill:#A4CBFF;}
	.st32{fill:#71A6FF;}
	.st33{fill:#2E3552;}
</style>
<g>
	<path class="st0" d="M56.2,72.1c0,0,1.3-3.5,4.3-3.1c0,0,4.4-5.9,9-0.8c0,0,4.9-1.3,8.6,1.1c2.4,1.6,3.3,3.2,3.3,3.2L56.2,72.1z"/>
	<path class="st0" d="M38,59.8c0,0,1.5-4.3,5.2-3.8c0,0,5.3-7.1,10.9-0.9c0,0,6-1.5,10.4,1.3c3,1.9,3.9,3.9,3.9,3.9L38,59.8z"/>
	<path class="st0" d="M89,56.1c0,0,2-3.7,6.9-3.3c0,0,7-6.2,14.5-0.8c0,0,8-1.3,13.9,1.2c3.9,1.7,5.2,3.4,5.2,3.4L89,56.1z"/>
	<path class="st1" d="M211.2,123.8c-0.1,0.6-0.3,1.2-0.5,1.9c-0.2,0.6-0.4,1.3-0.6,2c-0.1,0.3-0.2,0.7-0.3,1c-0.4,1-0.8,2.1-1.3,3.2
		c-0.2,0.4-0.3,0.7-0.5,1.1c0,0.1-0.1,0.2-0.2,0.3c0,0.1-0.1,0.1-0.1,0.2h-21.5l-6.3,0h-56.3l-8,0h0l-8.4,0H63.9l-18.1,0H13.1
		c0,0,0,0,0-0.1c0,0,0,0,0-0.1c0-0.1-0.1-0.2-0.1-0.3l0,0c0,0,0,0,0,0c0,0,0,0,0,0c-0.1-0.1-0.1-0.3-0.2-0.5c0-0.1-0.1-0.2-0.1-0.3
		c0,0,0,0,0,0c0,0,0,0,0,0c-0.2-0.6-0.6-1.5-0.9-2.5c0-0.1-0.1-0.2-0.1-0.3c-0.3-0.8-0.6-1.6-0.9-2.6c-0.7-2.3-1.6-5.1-2.4-8.3
		c-0.3-1.2-0.7-2.5-1-3.9c-0.2-0.8-0.4-1.6-0.5-2.4c-0.1-0.2-0.1-0.5-0.1-0.7c-0.3-1.5-0.6-3.1-0.9-4.7c-0.4-2.1-0.7-4.3-0.9-6.5
		c-0.1-1.1-0.2-2.2-0.3-3.3c0,0,0-0.1,0-0.1c0,0,0-0.1,0-0.1c-0.1-1.6-0.2-3.1-0.2-4.7c0-1.3,0-2.5,0-3.8c0-0.8,0.1-1.7,0.1-2.5
		c0.1-1.8,0.4-3.6,0.7-5.4c0.2-1.2,0.5-2.4,0.7-3.5c0.7-2.8,1.7-5.5,2.9-8.1c0.5-0.9,0.9-1.8,1.4-2.6c1.2-1.9,2.4-3.7,3.6-5.4h0
		c0.6-0.9,1.3-1.8,1.9-2.6c2.4-3.1,4.8-5.7,7.2-8c29.7-27.8,63.8-1,84.8-19.6c20.6-18.2,59.2-18.5,76.4-1.7c0.3,0.3,0.7,0.7,1,1
		c2.8,3,4.9,6.4,6.3,10.4c1,3,1.5,6.4,1.5,10c0,0.4,0,0.8,0,1.2c-0.1,1.7-0.3,3.4-0.6,5.1c-0.2,1.2-0.5,2.4-0.8,3.6
		c-0.8,2.9-1.9,6-3.4,9.2c-0.1,0.3-0.3,0.6-0.4,0.9c-4.7,9.9-0.8,15.8,5.1,21.2c3.7,3.3,8.1,6.5,11.8,10.2c0.5,0.5,1,1,1.4,1.5
		c0.2,0.2,0.4,0.4,0.5,0.6c0.5,0.6,1,1.2,1.4,1.8c0.2,0.3,0.5,0.7,0.7,1c0.6,1,1.2,2,1.7,3.1c0.3,0.8,0.6,1.6,0.9,2.4
		c0.3,1,0.5,2.1,0.7,3.3C212.1,117.8,211.9,120.7,211.2,123.8z"/>
	<path class="st2" d="M155.6,133.5H90.3l-27.2,0H13.9c0,0,0,0-0.1-0.1c0-0.1-0.1-0.2-0.2-0.3l0,0c0,0,0,0,0,0c0,0,0,0,0,0
		c-0.1-0.1-0.2-0.3-0.3-0.5c-0.1-0.1-0.1-0.2-0.2-0.3c0,0,0,0,0,0c0,0,0,0,0,0c-0.4-0.6-0.8-1.5-1.4-2.5c0-0.1-0.1-0.2-0.1-0.3
		c-0.3-0.8-0.6-1.6-0.9-2.6c-0.7-2.3-1.6-5.1-2.4-8.3c-0.3-1.2-0.7-2.5-1-3.9c-0.2-0.8-0.4-1.6-0.5-2.4c-0.1-0.2-0.1-0.5-0.1-0.7
		c-0.3-1.5-0.6-3.1-0.9-4.7c-0.5-3.2-1-6.5-1.2-9.8c21.1,1.1,61.9,4,92.5,10.8c43.2,9.7,53.9,11.2,72.2,12.9
		C179.5,121.6,167.8,128,155.6,133.5z"/>
	<g>
		<polygon class="st3" points="118.5,91.3 117,121.2 118.5,121.2 119.2,91.3 		"/>
		<polygon class="st3" points="118.7,88.6 119,90.4 126,82.1 		"/>
		<polygon class="st3" points="121.2,90.8 119.3,90.6 125.3,99.6 		"/>
		<polygon class="st3" points="117.3,92.3 118.4,90.7 107.6,91.2 		"/>
		<ellipse class="st3" cx="118.8" cy="90.6" rx="0.8" ry="0.8"/>
	</g>
	<path class="st4" d="M114,117c0,0-55.9-15.3-73.6-16.9s-0.7,2.1-0.7,2.1s47.9,12.6,59.1,17.8C109.9,125.2,114,117,114,117z"/>
	<path class="st4" d="M96.9,129.3c0,0-48.4-23.2-64.2-27.6c-15.8-4.4-1,1.7-1,1.7s41.5,19.4,50.8,25.9
		C91.9,135.9,96.9,129.3,96.9,129.3z"/>
	<g>
		<polygon class="st3" points="79.3,96.9 78,121.4 79.3,121.4 79.9,96.9 		"/>
		<polygon class="st3" points="79.4,94.7 79.7,96.2 85.4,89.4 		"/>
		<polygon class="st3" points="81.5,96.5 79.9,96.4 84.8,103.7 		"/>
		<polygon class="st3" points="78.3,97.7 79.2,96.4 70.4,96.8 		"/>
		<path class="st3" d="M78.9,96.4c0-0.4,0.3-0.7,0.7-0.7c0.4,0,0.7,0.3,0.7,0.7c0,0.4-0.3,0.7-0.7,0.7
			C79.2,97.1,78.9,96.7,78.9,96.4z"/>
	</g>
	<g>
		<path class="st5" d="M211.8,115.3c-0.1,1.5-0.3,3.1-0.6,4.7c0,0,0,0.1,0,0.1c-0.1,0.8-0.3,1.7-0.5,2.5c-0.2,0.9-0.4,1.8-0.6,2.8
			c-0.1,0.5-0.2,0.9-0.3,1.4c-0.4,1.4-0.8,2.9-1.3,4.5c-0.2,0.5-0.3,1-0.5,1.5c0,0.2-0.1,0.3-0.2,0.5H13c0-0.1-0.1-0.2-0.1-0.4
			l0-0.1c0,0,0,0,0,0c0,0,0,0,0-0.1c-0.1-0.2-0.1-0.4-0.2-0.7c0-0.1-0.1-0.3-0.1-0.4c0,0,0,0,0-0.1c0,0,0,0,0,0
			c-0.2-0.9-0.6-2.1-0.9-3.5c-0.3-1.2-0.6-2.5-1-4c-0.7-3.2-1.6-7.1-2.4-11.6c-0.3-1.7-0.7-3.6-1-5.5c-0.2-1.1-0.4-2.2-0.5-3.4
			c17.9,6.8,63.8,22,96.5,13.5c5.9-1.5,12.4-2.9,19.2-4.1c1.5-0.3,3.1-0.5,4.6-0.8c17.7-3,37-5,53.2-6.4h0c0.2,0,0.4,0,0.6,0
			c0.2,0,0.4,0,0.5,0c0.2,0,0.4,0,0.7-0.1c0.5,0,0.9-0.1,1.4-0.1c0.1,0,0.1,0,0.2,0c0.3,0,0.7-0.1,1-0.1c1.3-0.1,2.5-0.2,3.7-0.3
			c0.3,0,0.5,0,0.8-0.1c0.3,0,0.6,0,0.9-0.1c0.4,0,0.8-0.1,1.2-0.1c0.2,0,0.5,0,0.7-0.1c0.4,0,0.9-0.1,1.3-0.1c0.2,0,0.4,0,0.6,0
			c0.3,0,0.6,0,0.9-0.1c0,0,0,0,0.1,0c0.5,0,0.9-0.1,1.4-0.1c0.1,0,0.3,0,0.4,0c0,0,0,0,0,0c0,0,0,0,0,0c3.7-0.3,6.9-0.5,9.7-0.7
			c0.5,0.6,1,1.2,1.4,1.8c0.2,0.3,0.5,0.7,0.7,1c0.6,1,1.2,2,1.7,3.1c0.3,0.8,0.6,1.6,0.9,2.4C211.4,113.1,211.6,114.1,211.8,115.3z
			"/>
		<path class="st6" d="M127.1,112.1c-4.6,2.6-14.6,9.3-20.7,21.1c0,0.1-0.1,0.2-0.1,0.2l-4.7-0.2l-1.5-0.1
			c0.1-0.4,6.6-10.3,22.4-20.2C124,112.7,125.6,112.4,127.1,112.1z"/>
		<path class="st6" d="M109.9,133.2c0.1-0.4,7.7-11.9,26.4-22.3l1.5,1.1c0,0-14.4,6.3-22.1,21.5L109.9,133.2z"/>
		<path class="st6" d="M123.4,133.2c0.1-0.4,7.7-11.9,26.4-22.3l1.5,1.1c0,0-14.4,6.3-22.1,21.5L123.4,133.2z"/>
		<path class="st6" d="M196.8,104.4c0,0-26.2,2.7-42.5,19.5l-10.3-3c0.3-0.4,11.5-9.1,36.4-15.2h0
			C186.3,105.2,191.9,104.8,196.8,104.4L196.8,104.4z"/>
		<path class="st6" d="M210.3,109.6c-11.8,2.8-30.6,9.3-44.6,23.6h-9l-6.6-1.9c0.4-0.6,18.4-15.7,58.6-24.8
			C209.2,107.5,209.8,108.5,210.3,109.6z"/>
	</g>
	<g>
		<g>
			<path class="st6" d="M116.4,133l0.1,0c-0.1-0.2-0.2-5.1,1.3-7.9l-0.1-0.1C116.2,127.8,116.3,132.8,116.4,133z"/>
		</g>
		<g>
			<g>
				<path class="st2" d="M118.1,122.5c0,0,0.5,1,0.2,1.4C118,124.4,117.8,123.1,118.1,122.5z"/>
				<path class="st2" d="M118.4,126.7c0,0-0.5-1-0.2-1.4C118.5,124.8,118.7,126.1,118.4,126.7z"/>
			</g>
			<g>
				<path class="st2" d="M117.1,122.8c0,0,0.9,0.7,0.8,1.2C117.9,124.5,117.1,123.5,117.1,122.8z"/>
				<path class="st2" d="M119.3,126.4c0,0-0.9-0.7-0.8-1.2C118.6,124.6,119.4,125.7,119.3,126.4z"/>
			</g>
			<g>
				<path class="st2" d="M116.4,123.5c0,0,1.1,0.2,1.3,0.7C117.9,124.7,116.7,124.1,116.4,123.5z"/>
				<path class="st2" d="M120,125.7c0,0-1.1-0.2-1.3-0.7C118.6,124.5,119.7,125.1,120,125.7z"/>
			</g>
			<g>
				<path class="st2" d="M116.2,125.2c0,0,0.9-0.7,1.4-0.5C118.1,124.9,116.9,125.4,116.2,125.2z"/>
				<path class="st2" d="M120.4,124.4c0,0-1,0.5-1.4,0.3C118.5,124.4,119.7,124.1,120.4,124.4z"/>
			</g>
			<g>
				<path class="st2" d="M116.7,126c0,0,0.5-1,1.1-1S117.4,125.9,116.7,126z"/>
				<path class="st2" d="M120,123.3c0,0-0.5,1-1.1,1C118.4,124.3,119.3,123.4,120,123.3z"/>
			</g>
			<g>
				<path class="st2" d="M117.4,126.6c0,0,0.1-1.1,0.5-1.4C118.4,125,118,126.2,117.4,126.6z"/>
				<path class="st2" d="M119.2,122.7c0,0-0.1,1.1-0.5,1.4C118.2,124.3,118.6,123.1,119.2,122.7z"/>
			</g>
			<path class="st2" d="M116.2,124.5c0,0,1-0.4,1.5-0.1S116.7,124.9,116.2,124.5z"/>
			<path class="st7" d="M119,124.6c0-0.4-0.3-0.8-0.8-0.8s-0.8,0.3-0.8,0.8s0.3,0.8,0.8,0.8S119,125,119,124.6z"/>
		</g>
		<path class="st6" d="M116.6,128.5c0,0,0.7-0.7,1.6-0.7c0.9,0,1.2,0,1.2,0s-0.6,0.6-1.2,0.7C117.5,128.6,116.6,128.5,116.6,128.5z"
			/>
		<path class="st6" d="M116.8,127.9c-0.1-0.1-0.2-0.9-0.9-1.1s-1.2-0.2-1.2-0.2s0.6,1.1,1.1,1.2
			C116.2,127.9,116.8,127.9,116.8,127.9z"/>
		<g>
			<path class="st6" d="M112.8,133l0.2,0c-0.1-0.3-0.2-6,1.6-9.3l-0.1-0.1C112.5,126.9,112.7,132.7,112.8,133z"/>
		</g>
		<g>
			<g>
				<path class="st2" d="M114.8,120.6c0,0,0.6,1.2,0.2,1.7C114.7,122.8,114.4,121.3,114.8,120.6z"/>
				<path class="st2" d="M115.1,125.6c0,0-0.6-1.2-0.2-1.7C115.2,123.3,115.5,124.8,115.1,125.6z"/>
			</g>
			<g>
				<path class="st2" d="M113.7,121c0,0,1,0.8,1,1.4C114.6,123,113.6,121.8,113.7,121z"/>
				<path class="st2" d="M116.2,125.2c0,0-1-0.8-1-1.4C115.3,123.2,116.3,124.4,116.2,125.2z"/>
			</g>
			<g>
				<path class="st2" d="M112.8,121.8c0,0,1.3,0.2,1.5,0.8C114.6,123.2,113.2,122.6,112.8,121.8z"/>
				<path class="st2" d="M117.1,124.4c0,0-1.3-0.2-1.5-0.8C115.3,123,116.7,123.7,117.1,124.4z"/>
			</g>
			<g>
				<path class="st2" d="M112.6,123.9c0,0,1-0.8,1.6-0.6C114.8,123.5,113.4,124.1,112.6,123.9z"/>
				<path class="st2" d="M117.4,122.9c0,0-1.2,0.6-1.7,0.3S116.7,122.5,117.4,122.9z"/>
			</g>
			<g>
				<path class="st2" d="M113.1,124.8c0,0,0.6-1.1,1.3-1.2C115,123.6,114,124.7,113.1,124.8z"/>
				<path class="st2" d="M117,121.6c0,0-0.6,1.1-1.3,1.2C115.1,122.8,116.2,121.7,117,121.6z"/>
			</g>
			<g>
				<path class="st2" d="M114,125.4c0,0,0.1-1.3,0.6-1.6C115.2,123.6,114.7,125,114,125.4z"/>
				<path class="st2" d="M116.1,120.9c0,0-0.1,1.3-0.6,1.6S115.4,121.4,116.1,120.9z"/>
			</g>
			<path class="st2" d="M112.5,123c0,0,1.2-0.5,1.7-0.1C114.7,123.3,113.2,123.5,112.5,123z"/>
			<path class="st7" d="M115.9,123.1c0-0.5-0.4-0.9-0.9-0.9c-0.5,0-0.9,0.4-0.9,0.9c0,0.5,0.4,0.9,0.9,0.9
				C115.5,124,115.9,123.6,115.9,123.1z"/>
		</g>
		<path class="st6" d="M112.8,130c0,0,0.8-0.8,1.9-0.9c1.1-0.1,1.4,0,1.4,0s-0.7,0.7-1.5,0.9C113.8,130.2,112.8,130,112.8,130z"/>
		<path class="st6" d="M113,129.2c-0.1-0.1-0.2-1.1-1.1-1.3c-0.8-0.2-1.4-0.3-1.4-0.3s0.7,1.3,1.3,1.5
			C112.2,129.3,113,129.2,113,129.2z"/>
		<g>
			<path class="st6" d="M117.1,133L117.1,133c0.1-0.2,0-3.6,1-5.6l-0.1,0C117,129.3,117.1,132.8,117.1,133z"/>
		</g>
		<g>
			<g>
				<path class="st2" d="M118.3,125.5c0,0,0.3,0.7,0.1,1C118.3,126.9,118.1,126,118.3,125.5z"/>
				<path class="st2" d="M118.5,128.5c0,0-0.3-0.7-0.1-1C118.6,127.2,118.8,128.1,118.5,128.5z"/>
			</g>
			<g>
				<path class="st2" d="M117.7,125.8c0,0,0.6,0.5,0.6,0.8C118.2,127,117.6,126.3,117.7,125.8z"/>
				<path class="st2" d="M119.2,128.3c0,0-0.6-0.5-0.6-0.8C118.7,127.1,119.2,127.8,119.2,128.3z"/>
			</g>
			<g>
				<path class="st2" d="M117.2,126.3c0,0,0.8,0.1,0.9,0.5C118.2,127.1,117.4,126.7,117.2,126.3z"/>
				<path class="st2" d="M119.7,127.8c0,0-0.8-0.1-0.9-0.5C118.7,127,119.5,127.4,119.7,127.8z"/>
			</g>
			<g>
				<path class="st2" d="M117,127.5c0,0,0.6-0.5,1-0.3C118.3,127.3,117.5,127.7,117,127.5z"/>
				<path class="st2" d="M119.9,126.9c0,0-0.7,0.4-1,0.2C118.6,126.9,119.5,126.7,119.9,126.9z"/>
			</g>
			<g>
				<path class="st2" d="M117.4,128c0,0,0.4-0.7,0.8-0.7C118.5,127.3,117.8,128,117.4,128z"/>
				<path class="st2" d="M119.7,126.2c0,0-0.4,0.7-0.8,0.7C118.5,126.9,119.2,126.2,119.7,126.2z"/>
			</g>
			<g>
				<path class="st2" d="M117.9,128.4c0,0,0.1-0.8,0.4-1C118.6,127.3,118.3,128.2,117.9,128.4z"/>
				<path class="st2" d="M119.1,125.7c0,0-0.1,0.8-0.4,1C118.4,126.9,118.7,126,119.1,125.7z"/>
			</g>
			<path class="st2" d="M117,127c0,0,0.7-0.3,1,0C118.3,127.2,117.4,127.3,117,127z"/>
			<path class="st7" d="M119,127.1c0-0.3-0.2-0.5-0.5-0.5c-0.3,0-0.5,0.2-0.5,0.5s0.2,0.5,0.5,0.5C118.7,127.6,119,127.4,119,127.1z
				"/>
		</g>
		<path class="st6" d="M117.2,131.2c0,0,0.5-0.5,1.1-0.5c0.7,0,0.9,0,0.9,0s-0.4,0.4-0.9,0.5S117.2,131.2,117.2,131.2z"/>
		<path class="st6" d="M117.3,130.7c-0.1-0.1-0.1-0.7-0.7-0.8c-0.5-0.1-0.9-0.2-0.9-0.2s0.4,0.8,0.8,0.9S117.3,130.7,117.3,130.7z"
			/>
		<g>
			<path class="st6" d="M122.4,133l0.2,0c-0.1-0.3-0.2-6,1.6-9.3l-0.1-0.1C122.2,126.9,122.3,132.7,122.4,133z"/>
		</g>
		<g>
			<g>
				<path class="st2" d="M124.4,120.6c0,0,0.6,1.2,0.2,1.7C124.3,122.8,124,121.3,124.4,120.6z"/>
				<path class="st2" d="M124.8,125.6c0,0-0.6-1.2-0.2-1.7C124.9,123.3,125.2,124.8,124.8,125.6z"/>
			</g>
			<g>
				<path class="st2" d="M123.3,121c0,0,1,0.8,1,1.4C124.2,123,123.3,121.8,123.3,121z"/>
				<path class="st2" d="M125.9,125.2c0,0-1-0.8-1-1.4C125,123.2,125.9,124.4,125.9,125.2z"/>
			</g>
			<g>
				<path class="st2" d="M122.5,121.8c0,0,1.3,0.2,1.5,0.8C124.2,123.2,122.8,122.6,122.5,121.8z"/>
				<path class="st2" d="M126.7,124.4c0,0-1.3-0.2-1.5-0.8C125,123,126.4,123.7,126.7,124.4z"/>
			</g>
			<g>
				<path class="st2" d="M122.2,123.9c0,0,1-0.8,1.6-0.6C124.4,123.5,123,124.1,122.2,123.9z"/>
				<path class="st2" d="M127.1,122.9c0,0-1.2,0.6-1.7,0.3C124.8,122.9,126.3,122.5,127.1,122.9z"/>
			</g>
			<g>
				<path class="st2" d="M122.8,124.8c0,0,0.6-1.1,1.3-1.2C124.7,123.6,123.6,124.7,122.8,124.8z"/>
				<path class="st2" d="M126.6,121.6c0,0-0.6,1.1-1.3,1.2C124.7,122.8,125.8,121.7,126.6,121.6z"/>
			</g>
			<g>
				<path class="st2" d="M123.6,125.4c0,0,0.1-1.3,0.6-1.6C124.8,123.6,124.3,125,123.6,125.4z"/>
				<path class="st2" d="M125.7,120.9c0,0-0.1,1.3-0.6,1.6C124.5,122.8,125,121.4,125.7,120.9z"/>
			</g>
			<path class="st2" d="M122.1,123c0,0,1.2-0.5,1.7-0.1C124.4,123.3,122.8,123.5,122.1,123z"/>
			<circle class="st7" cx="124.6" cy="123.1" r="0.9"/>
		</g>
		<path class="st6" d="M122.7,127.7c0,0,0.8-0.8,1.9-0.9c1.1-0.1,1.4,0,1.4,0s-0.7,0.7-1.5,0.9C123.7,127.9,122.7,127.7,122.7,127.7
			z"/>
		<path class="st6" d="M122.9,127c-0.1-0.1-0.2-1.1-1.1-1.3s-1.4-0.3-1.4-0.3s0.7,1.3,1.3,1.5C122.1,127,122.9,127,122.9,127z"/>
		<g>
			<path class="st6" d="M119.5,133l0.2,0c-0.1-0.3-0.2-6.4,1.6-10l-0.1-0.1C119.2,126.4,119.4,132.7,119.5,133z"/>
		</g>
		<g>
			<g>
				<path class="st2" d="M121.5,119.6c0,0,0.6,1.3,0.2,1.8C121.4,122,121.1,120.4,121.5,119.6z"/>
				<path class="st2" d="M121.8,125c0,0-0.6-1.3-0.2-1.8C122,122.6,122.3,124.2,121.8,125z"/>
			</g>
			<g>
				<path class="st2" d="M120.4,120c0,0,1,0.9,1,1.5C121.3,122.2,120.4,120.9,120.4,120z"/>
				<path class="st2" d="M123,124.6c0,0-1-0.9-1-1.5C122.1,122.4,123,123.7,123,124.6z"/>
			</g>
			<g>
				<path class="st2" d="M119.6,120.9c0,0,1.3,0.2,1.5,0.9S119.9,121.7,119.6,120.9z"/>
				<path class="st2" d="M123.8,123.7c0,0-1.3-0.2-1.5-0.9C122.1,122.2,123.4,122.9,123.8,123.7z"/>
			</g>
			<g>
				<path class="st2" d="M119.3,123.1c0,0,1-0.9,1.6-0.6S120.1,123.4,119.3,123.1z"/>
				<path class="st2" d="M124.2,122.1c0,0-1.2,0.7-1.7,0.3C121.9,122,123.4,121.7,124.2,122.1z"/>
			</g>
			<g>
				<path class="st2" d="M119.9,124.1c0,0,0.6-1.2,1.3-1.3C121.7,122.8,120.7,124,119.9,124.1z"/>
				<path class="st2" d="M123.7,120.7c0,0-0.6,1.2-1.3,1.3C121.8,122,122.9,120.8,123.7,120.7z"/>
			</g>
			<g>
				<path class="st2" d="M120.7,124.8c0,0,0.1-1.4,0.6-1.7C121.9,122.8,121.4,124.4,120.7,124.8z"/>
				<path class="st2" d="M122.8,120c0,0-0.1,1.4-0.6,1.7C121.6,122,122.1,120.4,122.8,120z"/>
			</g>
			<path class="st2" d="M119.2,122.2c0,0,1.2-0.5,1.7-0.1C121.4,122.5,119.9,122.7,119.2,122.2z"/>
			<path class="st7" d="M122.6,122.3c0-0.5-0.4-1-0.9-1s-0.9,0.4-0.9,1c0,0.5,0.4,1,0.9,1C122.2,123.3,122.6,122.8,122.6,122.3z"/>
		</g>
		<path class="st6" d="M119.5,129.8c0,0,0.8-0.9,1.9-0.9c1.1-0.1,1.4,0,1.4,0s-0.7,0.8-1.5,0.9C120.6,129.9,119.5,129.8,119.5,129.8
			z"/>
		<path class="st6" d="M119.7,128.9c-0.1-0.1-0.2-1.2-1.1-1.5s-1.4-0.3-1.4-0.3s0.7,1.4,1.3,1.6C119,129,119.7,128.9,119.7,128.9z"
			/>
		<g>
			<path class="st6" d="M123.3,133l0.1,0c0-0.2-0.2-4.2,1.1-6.5l-0.1-0.1C123.1,128.7,123.2,132.8,123.3,133z"/>
		</g>
		<g>
			<g>
				<path class="st2" d="M124.7,124.2c0,0,0.4,0.8,0.2,1.2C124.6,125.8,124.4,124.8,124.7,124.2z"/>
				<path class="st2" d="M124.9,127.7c0,0-0.4-0.8-0.2-1.2C125,126.2,125.2,127.2,124.9,127.7z"/>
			</g>
			<g>
				<path class="st2" d="M123.9,124.5c0,0,0.7,0.6,0.7,1C124.6,125.9,123.9,125.1,123.9,124.5z"/>
				<path class="st2" d="M125.7,127.5c0,0-0.7-0.6-0.7-1C125.1,126,125.8,126.9,125.7,127.5z"/>
			</g>
			<g>
				<path class="st2" d="M123.3,125.1c0,0,0.9,0.2,1.1,0.6C124.6,126.1,123.6,125.6,123.3,125.1z"/>
				<path class="st2" d="M126.3,126.9c0,0-0.9-0.2-1.1-0.6C125.1,125.9,126.1,126.4,126.3,126.9z"/>
			</g>
			<g>
				<path class="st2" d="M123.1,126.5c0,0,0.7-0.6,1.1-0.4C124.7,126.3,123.7,126.7,123.1,126.5z"/>
				<path class="st2" d="M126.6,125.8c0,0-0.8,0.4-1.2,0.2C125,125.8,126.1,125.6,126.6,125.8z"/>
			</g>
			<g>
				<path class="st2" d="M123.5,127.2c0,0,0.5-0.8,0.9-0.8C124.9,126.3,124.1,127.1,123.5,127.2z"/>
				<path class="st2" d="M126.3,125c0,0-0.5,0.8-0.9,0.8C124.9,125.8,125.7,125,126.3,125z"/>
			</g>
			<g>
				<path class="st2" d="M124.1,127.6c0,0,0.1-0.9,0.5-1.1C125,126.3,124.6,127.3,124.1,127.6z"/>
				<path class="st2" d="M125.6,124.5c0,0-0.1,0.9-0.5,1.1C124.8,125.8,125.1,124.8,125.6,124.5z"/>
			</g>
			<path class="st2" d="M123.1,126c0,0,0.9-0.3,1.2-0.1S123.6,126.3,123.1,126z"/>
			<path class="st7" d="M125.5,126c0-0.4-0.3-0.6-0.6-0.6s-0.6,0.3-0.6,0.6c0,0.4,0.3,0.6,0.6,0.6S125.5,126.4,125.5,126z"/>
		</g>
		<path class="st6" d="M123.3,130.9c0,0,0.6-0.6,1.3-0.6c0.8,0,1,0,1,0s-0.5,0.5-1,0.6C124,131,123.3,130.9,123.3,130.9z"/>
		<path class="st6" d="M123.4,130.3c-0.1-0.1-0.2-0.8-0.8-0.9c-0.6-0.2-1-0.2-1-0.2s0.5,0.9,0.9,1
			C122.9,130.3,123.4,130.3,123.4,130.3z"/>
		<g>
			<path class="st6" d="M127.4,133L127.4,133c0-0.2,0-3.1,0.9-4.7l-0.1,0C127.2,129.9,127.3,132.8,127.4,133z"/>
		</g>
		<g>
			<g>
				<path class="st2" d="M128.4,126.7c0,0,0.3,0.6,0.1,0.9C128.3,127.8,128.2,127,128.4,126.7z"/>
				<path class="st2" d="M128.6,129.2c0,0-0.3-0.6-0.1-0.9C128.6,128.1,128.8,128.8,128.6,129.2z"/>
			</g>
			<g>
				<path class="st2" d="M127.8,126.9c0,0,0.5,0.4,0.5,0.7C128.3,127.9,127.8,127.3,127.8,126.9z"/>
				<path class="st2" d="M129.1,129c0,0-0.5-0.4-0.5-0.7C128.7,128,129.1,128.6,129.1,129z"/>
			</g>
			<g>
				<path class="st2" d="M127.4,127.3c0,0,0.7,0.1,0.8,0.4S127.6,127.7,127.4,127.3z"/>
				<path class="st2" d="M129.6,128.6c0,0-0.7-0.1-0.8-0.4S129.4,128.2,129.6,128.6z"/>
			</g>
			<g>
				<path class="st2" d="M127.3,128.3c0,0,0.5-0.4,0.8-0.3C128.4,128.2,127.7,128.5,127.3,128.3z"/>
				<path class="st2" d="M129.7,127.8c0,0-0.6,0.3-0.9,0.2S129.4,127.6,129.7,127.8z"/>
			</g>
			<g>
				<path class="st2" d="M127.6,128.8c0,0,0.3-0.6,0.6-0.6C128.5,128.2,128,128.8,127.6,128.8z"/>
				<path class="st2" d="M129.5,127.2c0,0-0.3,0.6-0.6,0.6C128.5,127.8,129.1,127.2,129.5,127.2z"/>
			</g>
			<g>
				<path class="st2" d="M128,129.1c0,0,0-0.7,0.3-0.8C128.6,128.2,128.3,128.9,128,129.1z"/>
				<path class="st2" d="M129.1,126.8c0,0,0,0.7-0.3,0.8C128.4,127.8,128.7,127.1,129.1,126.8z"/>
			</g>
			<path class="st2" d="M127.2,127.9c0,0,0.6-0.2,0.9,0C128.4,128.1,127.6,128.1,127.2,127.9z"/>
			<circle class="st7" cx="128.5" cy="128" r="0.5"/>
		</g>
		<path class="st6" d="M127.5,130.3c0,0,0.4-0.4,1-0.4c0.6,0,0.7,0,0.7,0s-0.3,0.4-0.7,0.4C128,130.4,127.5,130.3,127.5,130.3z"/>
		<path class="st6" d="M127.6,129.9c-0.1-0.1-0.1-0.6-0.6-0.7c-0.4-0.1-0.7-0.1-0.7-0.1s0.4,0.6,0.6,0.7
			C127.2,129.9,127.6,129.9,127.6,129.9z"/>
		<g>
			<path class="st6" d="M125.2,133L125.2,133c0.1-0.2,0-3.6,1-5.6l-0.1,0C125.1,129.4,125.2,132.8,125.2,133z"/>
		</g>
		<g>
			<g>
				<path class="st2" d="M126.4,125.6c0,0,0.3,0.7,0.1,1C126.3,126.9,126.2,126,126.4,125.6z"/>
				<path class="st2" d="M126.6,128.5c0,0-0.3-0.7-0.1-1C126.7,127.2,126.9,128.1,126.6,128.5z"/>
			</g>
			<g>
				<path class="st2" d="M125.7,125.8c0,0,0.6,0.5,0.6,0.8C126.3,127,125.7,126.3,125.7,125.8z"/>
				<path class="st2" d="M127.3,128.3c0,0-0.6-0.5-0.6-0.8C126.7,127.1,127.3,127.8,127.3,128.3z"/>
			</g>
			<g>
				<path class="st2" d="M125.2,126.3c0,0,0.8,0.1,0.9,0.5C126.3,127.1,125.5,126.7,125.2,126.3z"/>
				<path class="st2" d="M127.8,127.8c0,0-0.8-0.1-0.9-0.5C126.7,127,127.6,127.4,127.8,127.8z"/>
			</g>
			<g>
				<path class="st2" d="M125.1,127.5c0,0,0.6-0.5,1-0.3C126.4,127.3,125.6,127.7,125.1,127.5z"/>
				<path class="st2" d="M128,126.9c0,0-0.7,0.4-1,0.2C126.7,126.9,127.5,126.7,128,126.9z"/>
			</g>
			<g>
				<path class="st2" d="M125.4,128.1c0,0,0.4-0.7,0.8-0.7C126.6,127.4,125.9,128,125.4,128.1z"/>
				<path class="st2" d="M127.7,126.2c0,0-0.4,0.7-0.8,0.7C126.6,126.9,127.2,126.2,127.7,126.2z"/>
			</g>
			<g>
				<path class="st2" d="M125.9,128.5c0,0,0.1-0.8,0.4-1C126.6,127.3,126.3,128.2,125.9,128.5z"/>
				<path class="st2" d="M127.2,125.8c0,0-0.1,0.8-0.4,1C126.5,126.9,126.8,126,127.2,125.8z"/>
			</g>
			<path class="st2" d="M125,127c0,0,0.7-0.3,1,0C126.4,127.2,125.5,127.3,125,127z"/>
			<path class="st7" d="M127,127.1c0-0.3-0.2-0.5-0.5-0.5s-0.5,0.2-0.5,0.5c0,0.3,0.2,0.5,0.5,0.5S127,127.4,127,127.1z"/>
		</g>
		<path class="st6" d="M125.2,131.2c0,0,0.5-0.5,1.1-0.5c0.7,0,0.9,0,0.9,0s-0.4,0.4-0.9,0.5C125.8,131.3,125.2,131.2,125.2,131.2z"
			/>
		<path class="st6" d="M125.3,130.7c-0.1-0.1-0.1-0.7-0.6-0.8c-0.5-0.1-0.9-0.2-0.9-0.2s0.4,0.8,0.8,0.9
			C124.9,130.7,125.3,130.7,125.3,130.7z"/>
		<g>
			<path class="st6" d="M127.8,133L127.8,133c0-0.1,0-2.2,0.6-3.3l-0.1,0C127.7,130.8,127.8,132.9,127.8,133z"/>
		</g>
		<g>
			<g>
				<path class="st2" d="M128.5,128.5c0,0,0.2,0.4,0.1,0.6C128.5,129.3,128.4,128.8,128.5,128.5z"/>
				<path class="st2" d="M128.7,130.3c0,0-0.2-0.4-0.1-0.6C128.7,129.5,128.8,130,128.7,130.3z"/>
			</g>
			<g>
				<path class="st2" d="M128.1,128.7c0,0,0.4,0.3,0.4,0.5C128.5,129.4,128.1,129,128.1,128.7z"/>
				<path class="st2" d="M129.1,130.2c0,0-0.4-0.3-0.4-0.5C128.7,129.4,129.1,129.9,129.1,130.2z"/>
			</g>
			<g>
				<path class="st2" d="M127.8,129c0,0,0.5,0.1,0.5,0.3C128.5,129.5,128,129.2,127.8,129z"/>
				<path class="st2" d="M129.4,129.9c0,0-0.5-0.1-0.5-0.3C128.7,129.4,129.2,129.6,129.4,129.9z"/>
			</g>
			<g>
				<path class="st2" d="M127.7,129.7c0,0,0.4-0.3,0.6-0.2C128.5,129.6,128,129.8,127.7,129.7z"/>
				<path class="st2" d="M129.5,129.3c0,0-0.4,0.2-0.6,0.1C128.7,129.3,129.2,129.2,129.5,129.3z"/>
			</g>
			<g>
				<path class="st2" d="M127.9,130c0,0,0.2-0.4,0.5-0.4C128.6,129.6,128.2,130,127.9,130z"/>
				<path class="st2" d="M129.3,128.9c0,0-0.2,0.4-0.5,0.4C128.6,129.3,129,128.9,129.3,128.9z"/>
			</g>
			<g>
				<path class="st2" d="M128.2,130.3c0,0,0-0.5,0.2-0.6C128.7,129.6,128.5,130.1,128.2,130.3z"/>
				<path class="st2" d="M129,128.6c0,0,0,0.5-0.2,0.6C128.6,129.3,128.7,128.8,129,128.6z"/>
			</g>
			<path class="st2" d="M127.7,129.4c0,0,0.4-0.2,0.6,0C128.5,129.5,128,129.6,127.7,129.4z"/>
			<path class="st7" d="M128.9,129.4c0-0.2-0.1-0.3-0.3-0.3c-0.2,0-0.3,0.1-0.3,0.3c0,0.2,0.1,0.3,0.3,0.3
				C128.8,129.8,128.9,129.6,128.9,129.4z"/>
		</g>
		<path class="st6" d="M127.8,131.9c0,0,0.3-0.3,0.7-0.3c0.4,0,0.5,0,0.5,0s-0.2,0.3-0.5,0.3C128.2,132,127.8,131.9,127.8,131.9z"/>
		<path class="st6" d="M127.9,131.6c0,0-0.1-0.4-0.4-0.5c-0.3-0.1-0.5-0.1-0.5-0.1s0.3,0.5,0.5,0.5
			C127.6,131.6,127.9,131.6,127.9,131.6z"/>
		<g>
			<path class="st6" d="M131,133L131,133c0.1-0.2,0-3.6,1-5.6l-0.1,0C130.8,129.4,130.9,132.8,131,133z"/>
		</g>
		<g>
			<g>
				<path class="st2" d="M132.2,125.6c0,0,0.3,0.7,0.1,1C132.1,126.9,131.9,126,132.2,125.6z"/>
				<path class="st2" d="M132.4,128.5c0,0-0.3-0.7-0.1-1C132.5,127.2,132.6,128.1,132.4,128.5z"/>
			</g>
			<g>
				<path class="st2" d="M131.5,125.8c0,0,0.6,0.5,0.6,0.8C132,127,131.5,126.3,131.5,125.8z"/>
				<path class="st2" d="M133.1,128.3c0,0-0.6-0.5-0.6-0.8C132.5,127.1,133.1,127.8,133.1,128.3z"/>
			</g>
			<g>
				<path class="st2" d="M131,126.3c0,0,0.8,0.1,0.9,0.5C132,127.1,131.2,126.7,131,126.3z"/>
				<path class="st2" d="M133.5,127.8c0,0-0.8-0.1-0.9-0.5C132.5,127,133.3,127.4,133.5,127.8z"/>
			</g>
			<g>
				<path class="st2" d="M130.8,127.5c0,0,0.6-0.5,1-0.3C132.2,127.3,131.3,127.7,130.8,127.5z"/>
				<path class="st2" d="M133.8,126.9c0,0-0.7,0.4-1,0.2C132.4,126.9,133.3,126.7,133.8,126.9z"/>
			</g>
			<g>
				<path class="st2" d="M131.2,128.1c0,0,0.4-0.7,0.8-0.7C132.3,127.4,131.7,128,131.2,128.1z"/>
				<path class="st2" d="M133.5,126.2c0,0-0.4,0.7-0.8,0.7C132.4,126.9,133,126.2,133.5,126.2z"/>
			</g>
			<g>
				<path class="st2" d="M131.7,128.5c0,0,0.1-0.8,0.4-1C132.4,127.3,132.1,128.2,131.7,128.5z"/>
				<path class="st2" d="M133,125.8c0,0-0.1,0.8-0.4,1C132.2,126.9,132.5,126,133,125.8z"/>
			</g>
			<path class="st2" d="M130.8,127c0,0,0.7-0.3,1,0C132.1,127.2,131.2,127.3,130.8,127z"/>
			<path class="st7" d="M132.8,127.1c0-0.3-0.2-0.5-0.5-0.5s-0.5,0.2-0.5,0.5c0,0.3,0.2,0.5,0.5,0.5
				C132.6,127.6,132.8,127.4,132.8,127.1z"/>
		</g>
		<path class="st6" d="M131.1,129.8c0,0,0.5-0.5,1.1-0.5c0.7,0,0.9,0,0.9,0s-0.4,0.4-0.9,0.5C131.8,129.9,131.1,129.8,131.1,129.8z"
			/>
		<path class="st6" d="M131.2,129.4c-0.1-0.1-0.1-0.7-0.6-0.8c-0.5-0.1-0.9-0.2-0.9-0.2s0.4,0.8,0.8,0.9
			C130.8,129.4,131.2,129.4,131.2,129.4z"/>
		<g>
			<path class="st6" d="M129.2,133L129.2,133c0.1-0.2,0-3.9,1-6l-0.1,0C129.1,129.1,129.2,132.8,129.2,133z"/>
		</g>
		<g>
			<g>
				<path class="st2" d="M130.4,125c0,0,0.3,0.8,0.1,1.1C130.3,126.4,130.2,125.4,130.4,125z"/>
				<path class="st2" d="M130.6,128.2c0,0-0.3-0.8-0.1-1.1C130.7,126.7,130.9,127.7,130.6,128.2z"/>
			</g>
			<g>
				<path class="st2" d="M129.8,125.2c0,0,0.6,0.5,0.6,0.9C130.3,126.5,129.7,125.7,129.8,125.2z"/>
				<path class="st2" d="M131.3,127.9c0,0-0.6-0.5-0.6-0.9C130.8,126.6,131.3,127.4,131.3,127.9z"/>
			</g>
			<g>
				<path class="st2" d="M129.3,125.7c0,0,0.8,0.1,0.9,0.5C130.3,126.6,129.5,126.2,129.3,125.7z"/>
				<path class="st2" d="M131.8,127.4c0,0-0.8-0.1-0.9-0.5C130.8,126.5,131.6,126.9,131.8,127.4z"/>
			</g>
			<g>
				<path class="st2" d="M129.1,127.1c0,0,0.6-0.5,1-0.4C130.4,126.8,129.6,127.2,129.1,127.1z"/>
				<path class="st2" d="M132,126.4c0,0-0.7,0.4-1,0.2C130.7,126.4,131.6,126.2,132,126.4z"/>
			</g>
			<g>
				<path class="st2" d="M129.4,127.7c0,0,0.4-0.7,0.8-0.8C130.6,126.9,129.9,127.6,129.4,127.7z"/>
				<path class="st2" d="M131.7,125.6c0,0-0.4,0.7-0.8,0.8C130.6,126.4,131.3,125.7,131.7,125.6z"/>
			</g>
			<g>
				<path class="st2" d="M129.9,128.1c0,0,0.1-0.8,0.4-1C130.7,126.9,130.4,127.8,129.9,128.1z"/>
				<path class="st2" d="M131.2,125.2c0,0-0.1,0.8-0.4,1C130.5,126.4,130.8,125.5,131.2,125.2z"/>
			</g>
			<path class="st2" d="M129.1,126.5c0,0,0.7-0.3,1-0.1C130.4,126.7,129.5,126.8,129.1,126.5z"/>
			<path class="st7" d="M131.1,126.6c0-0.3-0.2-0.6-0.5-0.6c-0.3,0-0.5,0.3-0.5,0.6s0.2,0.6,0.5,0.6S131.1,126.9,131.1,126.6z"/>
		</g>
		<path class="st6" d="M129.2,131.1c0,0,0.5-0.5,1.1-0.6c0.7,0,0.9,0,0.9,0s-0.4,0.5-0.9,0.6C129.9,131.2,129.2,131.1,129.2,131.1z"
			/>
		<path class="st6" d="M129.3,130.6c-0.1-0.1-0.1-0.7-0.6-0.9s-0.9-0.2-0.9-0.2s0.4,0.8,0.8,0.9
			C128.9,130.6,129.3,130.6,129.3,130.6z"/>
		<g>
			<path class="st6" d="M131.5,133L131.5,133c0-0.1,0-2.5,0.7-3.9l-0.1,0C131.4,130.4,131.5,132.9,131.5,133z"/>
		</g>
		<g>
			<g>
				<path class="st2" d="M132.3,127.7c0,0,0.2,0.5,0.1,0.7C132.3,128.7,132.2,128,132.3,127.7z"/>
				<path class="st2" d="M132.5,129.8c0,0-0.2-0.5-0.1-0.7C132.5,128.9,132.7,129.5,132.5,129.8z"/>
			</g>
			<g>
				<path class="st2" d="M131.9,127.9c0,0,0.4,0.3,0.4,0.6C132.3,128.8,131.9,128.2,131.9,127.9z"/>
				<path class="st2" d="M133,129.7c0,0-0.4-0.3-0.4-0.6C132.6,128.8,133,129.3,133,129.7z"/>
			</g>
			<g>
				<path class="st2" d="M131.5,128.3c0,0,0.5,0.1,0.6,0.3C132.3,128.8,131.7,128.6,131.5,128.3z"/>
				<path class="st2" d="M133.3,129.4c0,0-0.5-0.1-0.6-0.3C132.6,128.8,133.2,129,133.3,129.4z"/>
			</g>
			<g>
				<path class="st2" d="M131.4,129.1c0,0,0.4-0.3,0.7-0.2C132.3,129,131.7,129.2,131.4,129.1z"/>
				<path class="st2" d="M133.5,128.7c0,0-0.5,0.3-0.7,0.1C132.5,128.7,133.1,128.5,133.5,128.7z"/>
			</g>
			<g>
				<path class="st2" d="M131.6,129.5c0,0,0.3-0.5,0.5-0.5C132.4,129,132,129.5,131.6,129.5z"/>
				<path class="st2" d="M133.3,128.2c0,0-0.3,0.5-0.5,0.5C132.5,128.7,132.9,128.2,133.3,128.2z"/>
			</g>
			<g>
				<path class="st2" d="M132,129.8c0,0,0-0.5,0.3-0.7S132.3,129.6,132,129.8z"/>
				<path class="st2" d="M132.9,127.9c0,0,0,0.5-0.3,0.7C132.4,128.7,132.6,128.1,132.9,127.9z"/>
			</g>
			<path class="st2" d="M131.4,128.8c0,0,0.5-0.2,0.7,0C132.3,128.9,131.7,129,131.4,128.8z"/>
			<path class="st7" d="M132.8,128.8c0-0.2-0.2-0.4-0.4-0.4s-0.4,0.2-0.4,0.4s0.2,0.4,0.4,0.4S132.8,129,132.8,128.8z"/>
		</g>
		<path class="st6" d="M131.5,131.7c0,0,0.3-0.3,0.8-0.4c0.5,0,0.6,0,0.6,0s-0.3,0.3-0.6,0.4C131.9,131.8,131.5,131.7,131.5,131.7z"
			/>
		<path class="st6" d="M131.6,131.4c-0.1-0.1-0.1-0.5-0.5-0.6c-0.4-0.1-0.6-0.1-0.6-0.1s0.3,0.5,0.5,0.6
			C131.3,131.4,131.6,131.4,131.6,131.4z"/>
	</g>
	<g>
		<g>
			<path class="st8" d="M21.1,96.8v36.6h-8.1c0,0,0,0,0,0c0,0,0,0,0,0c0-0.1-0.1-0.2-0.1-0.3l0,0c0,0,0,0,0,0c0,0,0,0,0,0
				c-0.1-0.1-0.1-0.3-0.2-0.5c0-0.1-0.1-0.2-0.1-0.3c0,0,0,0,0,0c0,0,0,0,0,0c-0.2-0.6-0.6-1.5-0.9-2.5c0-0.1-0.1-0.2-0.1-0.3
				c-0.3-0.8-0.6-1.6-0.9-2.6c-0.1-0.4-0.3-0.9-0.4-1.4c-0.6-2-1.3-4.3-2-6.9c-0.3-1.2-0.7-2.5-1-3.9c-0.2-0.8-0.4-1.6-0.5-2.4
				c-0.1-0.2-0.1-0.5-0.1-0.7c-0.3-1.5-0.6-3.1-0.9-4.7c-0.4-2.1-0.7-4.3-0.9-6.5c-0.1-1.1-0.2-2.2-0.3-3.3c0,0,0-0.1,0-0.1
				L21.1,96.8L21.1,96.8z"/>
			<polygon class="st9" points="14.5,81.5 23,99.2 49,99.2 35.5,81.6 			"/>
			<polygon class="st10" points="48,99.2 47.2,98.2 34.5,81.6 13.5,81.5 21.1,97.3 21.1,133.4 47.2,133.4 47.2,99.2 			"/>
			<path class="st11" d="M34.2,90.4h0.5c1.9,0,3.4,1.5,3.4,3.4v8.5H31v-8.6C31,91.8,32.4,90.4,34.2,90.4z"/>
			<path class="st9" d="M35.6,81.5L35.6,81.5L35,82.3L22.8,98.6l-1.2,1.5H4.8c-0.1-1.1-0.2-2.2-0.3-3.3c0,0,0-0.1,0-0.1
				c0,0,0-0.1,0-0.1c-0.1-1.6-0.2-3.1-0.2-4.7l8.1-10.4h3.4l11.9,0L35.6,81.5z"/>
		</g>
		<g>
			<polygon class="st9" points="37.3,104.1 43.4,116.6 61.9,116.6 52.2,104.1 			"/>
			<g>
				<polygon class="st10" points="61.3,116.6 51.7,104.1 36.7,104.1 42.8,116.6 42.9,116.6 42.9,133.3 61.3,133.4 				"/>
				<rect x="27.2" y="116.6" class="st8" width="15.6" height="16.7"/>
				<polygon class="st9" points="25.5,117.4 42.3,117.4 52.2,104.1 47.2,104.1 35.7,104.1 				"/>
				<path class="st11" d="M48.4,119.4v14h7.8v-13.8c0-1.2-0.5-2.2-1.3-2.9c-0.7-0.6-1.6-1-2.7-1c-1,0-1.9,0.4-2.6,1
					C48.8,117.3,48.4,118.3,48.4,119.4z"/>
				<path class="st11" d="M53.1,111.1c0-0.5-0.4-0.9-0.9-0.9c-0.5,0-0.9,0.4-0.9,0.9c0,0.5,0.4,0.9,0.9,0.9
					C52.7,112,53.1,111.6,53.1,111.1z"/>
				<polygon class="st12" points="25.5,117.4 28.7,117.4 47.2,104.1 35.7,104.1 				"/>
			</g>
		</g>
	</g>
	<g>
		<polygon class="st13" points="22.6,93.9 7.2,93.9 15.3,84 30.7,84 		"/>
		<g>
			<polygon class="st14" points="28.6,86.6 13.2,86.6 13.3,86.5 28.7,86.5 			"/>
			<polygon class="st14" points="18.9,84 10.8,93.9 10.7,93.9 18.8,84 			"/>
			<polygon class="st14" points="23,84 14.9,93.9 14.8,93.9 22.9,84 			"/>
			<polygon class="st14" points="26.9,84 18.8,93.9 18.7,93.9 26.8,84 			"/>
			<polygon class="st14" points="26.6,89 11.2,89 11.3,88.9 26.7,88.9 			"/>
			<polygon class="st14" points="24.5,91.6 9.1,91.6 9.2,91.5 24.6,91.5 			"/>
			<g>
				<polygon class="st14" points="16.4,87 16.3,86.5 17.2,86 17.3,86.5 				"/>
				<polygon class="st14" points="20.4,87 20.3,86.5 21.2,86 21.3,86.5 				"/>
				<polygon class="st14" points="24.4,87 24.3,86.5 25.2,86 25.3,86.5 				"/>
			</g>
			<g>
				<polygon class="st14" points="14.4,89.4 14.3,88.9 15.2,88.4 15.3,88.9 				"/>
				<polygon class="st14" points="18.5,89.4 18.4,88.9 19.2,88.4 19.3,88.9 				"/>
				<polygon class="st14" points="22.4,89.4 22.3,88.9 23.2,88.4 23.3,88.9 				"/>
			</g>
			<g>
				<polygon class="st14" points="12.3,92 12.2,91.5 13.1,91 13.2,91.5 				"/>
				<polygon class="st14" points="16.3,92 16.3,91.5 17.1,91 17.2,91.5 				"/>
				<polygon class="st14" points="20.3,92 20.2,91.5 21.1,91 21.2,91.5 				"/>
			</g>
		</g>
	</g>
	<path class="st15" d="M192.9,50.1c0,0.4,0,0.8,0,1.2c-0.1,1.7-0.3,3.4-0.6,5.1l-24-0.3c0,0,2.2-5.1,7.4-4.6c0,0,7.5-8.6,15.6-1.1
		C191.3,50.4,191.9,50.3,192.9,50.1z"/>
	<path class="st15" d="M114.8,33.9c0,0,1.1-2.7,3.8-2.4c0,0,3.9-4.5,8.1-0.6c0,0,4.4-1,7.7,0.8c2.2,1.2,2.9,2.5,2.9,2.5L114.8,33.9z
		"/>
	<path class="st15" d="M24.3,73.2c0,0,1.2-2.9,4.1-2.6c0,0,4.2-4.8,8.6-0.6c0,0,4.7-1,8.2,0.9c2.3,1.3,3.1,2.6,3.1,2.6L24.3,73.2z"
		/>
	<path class="st15" d="M18,64.4c0,0,0.9-2.2,3.1-2c0,0,3.2-3.7,6.6-0.5c0,0,3.6-0.8,6.3,0.7c1.8,1,2.4,2,2.4,2L18,64.4z"/>
	<path class="st6" d="M211.8,120.3c-0.1,1.1-0.3,2.3-0.6,3.6c0,0,0,0.1,0,0.1c-6.3,2.3-12.9,5.4-18.7,9.4h-15.8
		C179,131.8,190.1,125.7,211.8,120.3z"/>
	<g>
		<g>
			<path class="st16" d="M176.8,116.9c0,0,12.1-1.1,15.4,0c3.3,1.1,4.9,6,4.5,9.6c-0.5,3.6-1.6,6.7-3.7,6.6s-17.1,0-17.1,0
				L176.8,116.9z"/>
			<path class="st16" d="M179.3,116.7c0,0,2.6-0.5,4.3-0.7c0,0-1.4,0.3-1.5,0.4c0,0,3.7-0.6,5.1-0.4c1.4,0.1,3.2,0.4,3.2,0.4
				l2.1-0.1c0,0-1.7,0.2-1.6,0.2c0.1,0,1.7,0.2,2.2,0.5c0,0,1.6,0.5,1.9,0.8c0,0-1.3-0.6-1.8-0.6c0,0,2.9,2,2.9,3.9
				s-12.3-2.9-12.3-2.9L179.3,116.7z"/>
		</g>
		<g>
			<path class="st2" d="M178.5,116.8c0,0-4.8-0.4-7.9,3.5c-3.1,3.9-0.6,12.8,3.4,12.9c4,0,8.9-0.6,10-5.8
				C185.1,122.2,182.9,116.9,178.5,116.8z"/>
			<path class="st2" d="M168.7,124.5c0,0,1.7-2,1.9-2.5l0.3,0.5L168.7,124.5z"/>
			<path class="st2" d="M169.9,121.6c0,0,0.2-1.4,0.8-1.9c0,0-0.6,1-0.4,1.7C170.5,122.2,169.9,121.6,169.9,121.6z"/>
			<path class="st2" d="M170.8,131.7c0,0.1-0.9-2.6-0.6-3.1l0.2,0C170.3,128.5,170.5,130.9,170.8,131.7z"/>
			<path class="st2" d="M170,128.2c0,0-0.7-0.2-1.1,0c0,0,0.7-0.2,1.1,0.2C170.4,128.8,170,128.2,170,128.2z"/>
		</g>
		<g>
			<path class="st16" d="M176.6,133.1c-1.1,0-2.4-0.2-3.6-0.9c-1.2-0.8-2-2-2.4-3.6c-0.6-2.8-0.3-5.1,0.9-6.8c1.1-1.6,3-2.7,5.4-3
				c1.6-0.3,3.1,0.3,4.1,1.5c1.5,1.8,2,4.9,1.1,7.5c-0.6,1.8-2.3,2.9-4.5,3c-0.1,0-0.1,0-0.2,0c-2.2,0-4.2-1.1-4.9-2.8
				c-0.7-1.7-0.7-3.3,0.1-4.7c0.8-1.3,2.2-2.2,4.1-2.4c1.7-0.2,2.6,0.6,3.1,1.3c0.9,1.4,0.9,3.6,0.3,4.6c-0.6,1-2.2,1.8-3.6,1.8
				c-1,0-1.8-0.5-2.2-1.3c-0.5-1.1-0.5-2.1,0.1-3c0.5-0.7,1.2-1.1,1.9-1.1c0.8,0,1.1,0.7,1.2,1.2c0,0.5-0.1,1-0.5,1.1
				c-0.7,0.2-1-0.2-1-0.2c0,0-0.4-0.7,0.1-0.7c0.6-0.1,0.4,0.3,0.4,0.3c0,0-0.1,0.6,0.4,0.5c0.2-0.1,0.4-0.4,0.4-0.9
				c0-0.5-0.3-1-1-1.1c-0.6,0-1.3,0.3-1.7,1c-0.5,0.8-0.5,1.8-0.1,2.8c0.5,1,1.3,1.2,2,1.2c1.3,0,2.9-0.7,3.4-1.7
				c0.5-0.9,0.6-3-0.3-4.4c-0.6-0.9-1.6-1.4-2.9-1.2c-1.8,0.2-3.2,1.1-4,2.3c-0.7,1.3-0.8,2.8-0.1,4.5c0.7,1.6,2.7,2.7,4.9,2.7
				c2.1-0.1,3.7-1.1,4.3-2.9c0.9-2.5,0.4-5.5-1-7.3c-0.7-0.8-1.9-1.8-3.9-1.5c-2.4,0.4-4.2,1.4-5.3,3c-1.2,1.7-1.4,3.9-0.8,6.6
				c0.3,1.6,1.1,2.8,2.3,3.5c2.4,1.5,6.1,0.6,6.2,0.6l-0.4,0.2C178.9,132.8,177.9,133.1,176.6,133.1z"/>
		</g>
	</g>
	<g>
		<g>
			<path class="st16" d="M195.5,111.3c0,0,16.3-1.4,20.7,0c4.4,1.4,6.6,8.1,6,12.9c-0.6,4.8-2.1,8.9-4.9,8.8c-2.8-0.1-22.9,0-22.9,0
				L195.5,111.3z"/>
			<path class="st16" d="M198.8,111c0,0,3.4-0.6,5.8-0.9c0,0-1.8,0.4-2.1,0.6c0,0,5-0.8,6.8-0.6c1.8,0.2,4.3,0.5,4.3,0.5l2.8-0.2
				c0,0-2.3,0.3-2.2,0.3c0.1,0,2.3,0.3,2.9,0.7c0,0,2.1,0.7,2.6,1.1c0,0-1.7-0.9-2.4-0.8c0,0,3.9,2.7,3.9,5.2
				c0,2.5-16.6-3.8-16.6-3.8L198.8,111z"/>
		</g>
		<g>
			<path class="st2" d="M197.8,111.2c0,0-6.5-0.5-10.6,4.7c-4.1,5.2-0.8,17.3,4.6,17.3s12-0.8,13.4-7.8
				C206.7,118.4,203.7,111.3,197.8,111.2z"/>
			<path class="st2" d="M184.6,121.6c0,0,2.3-2.7,2.6-3.4l0.4,0.7L184.6,121.6z"/>
			<path class="st2" d="M186.3,117.6c0,0,0.3-1.9,1.1-2.6c0,0-0.8,1.3-0.6,2.3C187,118.4,186.3,117.6,186.3,117.6z"/>
			<path class="st2" d="M187.4,131.1c0,0.1-1.2-3.5-0.8-4.2l0.2,0C186.8,126.9,187,130.1,187.4,131.1z"/>
			<path class="st2" d="M186.4,126.4c0,0-1-0.3-1.5,0c0,0,0.9-0.2,1.4,0.3C186.8,127.3,186.4,126.4,186.4,126.4z"/>
		</g>
		<g>
			<path class="st16" d="M195.3,133c-1.5,0-3.3-0.3-4.8-1.2c-1.7-1-2.7-2.6-3.2-4.8c-0.8-3.8-0.4-6.8,1.2-9.2c1.5-2.2,4-3.6,7.3-4.1
				c2.2-0.3,4.1,0.4,5.5,2.1c2,2.4,2.6,6.6,1.4,10c-0.8,2.4-3.1,4-6.1,4c-0.1,0-0.2,0-0.3,0c-3,0-5.6-1.5-6.6-3.7
				c-0.9-2.3-0.9-4.5,0.1-6.3c1-1.8,3-3,5.5-3.3c2.3-0.3,3.5,0.8,4.2,1.7c1.2,1.8,1.2,4.8,0.4,6.2c-0.8,1.4-3,2.4-4.9,2.4
				c-1.4,0-2.4-0.7-2.9-1.8c-0.7-1.4-0.6-2.9,0.1-4c0.6-0.9,1.6-1.5,2.5-1.4c1,0.1,1.5,0.9,1.6,1.7c0.1,0.6-0.2,1.4-0.7,1.5
				c-1,0.2-1.3-0.3-1.3-0.3c0,0-0.5-0.9,0.1-1c0.8-0.1,0.6,0.4,0.6,0.4c0,0-0.2,0.8,0.6,0.6c0.3-0.1,0.5-0.6,0.5-1.2
				c-0.1-0.7-0.4-1.4-1.3-1.4c-0.8,0-1.7,0.5-2.3,1.3c-0.7,1-0.7,2.4-0.1,3.7c0.6,1.3,1.8,1.6,2.7,1.6c1.8,0.1,3.9-0.9,4.6-2.2
				c0.7-1.2,0.9-4-0.4-5.9c-0.8-1.3-2.2-1.8-3.9-1.6c-2.4,0.3-4.3,1.4-5.3,3.1c-1,1.7-1,3.8-0.1,6c0.9,2.2,3.6,3.7,6.6,3.6
				c2.8-0.1,5-1.5,5.8-3.9c1.2-3.4,0.6-7.4-1.4-9.8c-0.9-1.1-2.6-2.4-5.3-2c-3.2,0.5-5.7,1.9-7.1,4c-1.6,2.3-1.9,5.3-1.1,8.9
				c0.5,2.1,1.5,3.7,3.1,4.7c3.2,2,8.3,0.8,8.3,0.8l-0.6,0.3C198.3,132.7,197,133,195.3,133z"/>
		</g>
	</g>
	<g>
		<path class="st17" d="M77.8,117.6c0,0-2.8,10.8-2.5,11.6c0.2,0.9,1.7,3.7,1.7,3.7h-1.3c0,0-0.5-0.3-0.5-0.9s-1.9-3.3-1.9-3.3
			s0.7-4.1,0-5.8C70,116,75.4,116,77.8,117.6z"/>
		<path class="st17" d="M92.2,121.3c0,0-0.8,5.8-0.8,6.1c0,0.4-0.4,0.8-0.4,1.4s0.2,2.5,0.8,3c0.6,0.5,0.7,1.1,0.7,1.1h-1.7
			c0,0-0.3-0.6-0.2-1c0-0.4-0.5-0.8-0.5-1.6s0-2.4-0.2-2.9s-0.2-4.2-0.9-5C88.2,121.6,92.2,121.3,92.2,121.3z"/>
		<path class="st11" d="M73.8,119.4c0,0.3,0,0.5,0,0.8c0,6.3,6.2,4.4,6.5,4.2c0.2-0.2,0.7-0.1,0.7-0.1c3.1,1.2,7.4,0.1,8.3-0.3
			c0.9-0.4,3.3,0.5,4.4,0.5c0.5,0,0.8-0.5,1.1-1.1c0.4-0.8,0.6-1.9,0.7-2.3c0-0.2,0.3-1,0.7-2c0.2-0.4,0.3-0.8,0.5-1.2
			c0-0.1,0.1-0.2,0.1-0.2c-0.1-0.1-0.2-0.2-0.3-0.3c-0.5-0.6-0.8-1.4-1.2-2.2c-0.4-0.8-0.8-1.6-1.4-2.3c-0.9-0.3-2,0.2-2.4,0.2
			c-0.5,0-1-0.1-1.5-0.2c-0.2,0-0.4-0.1-0.5-0.1c-0.9-0.1-6.5,0.6-10.4,0.7c-0.8,0-1.5,0-2.2,0c0,0-0.1,0-0.1,0
			c-1.6-0.1-2.5,0-3,0.2c-0.5,0.2-0.5,0.3-0.5,0.3C71.6,115.4,73.8,119.4,73.8,119.4z"/>
		<path class="st11" d="M94.2,121.3c0,0-0.8,5.8-0.8,6.1c0,0.4-0.4,0.8-0.4,1.4s0.2,2.5,0.8,3c0.6,0.5,0.7,1.1,0.7,1.1h-1.7
			c0,0-0.3-0.6-0.2-1c0-0.4-0.5-0.8-0.5-1.6s0-2.4-0.2-2.9c-0.2-0.5-0.2-4.2-0.9-5C90.2,121.6,94.2,121.3,94.2,121.3z"/>
		<path class="st11" d="M79.6,120c0,0-2.3,8.4-2,9.2c0.2,0.9,1.7,3.7,1.7,3.7h-1.3c0,0-0.5-0.3-0.5-0.9s-1.9-3.3-1.9-3.3
			s-0.2-4.7-1.3-6.1C73.1,121.2,77.1,118.4,79.6,120z"/>
		<g>
			<path class="st11" d="M102.5,122.1c0.1,0.1,0.2,0.2,0.2,0.2c0,0,0.2,0,0.4,0c0.2,0,0.4,0,0.5-0.1c0.1-0.1,0.2-0.2,0.3-0.3
				c0,0-0.1-0.2-0.5-0.2c-0.3,0-0.6-0.2-0.8-0.3h0c-0.1,0-0.2,0-0.2,0.1C102.1,121.6,102.4,121.9,102.5,122.1z"/>
			<path class="st11" d="M102.9,122.9c0,0,0.2,0,0.3,0c0.3,0,0.7-0.1,0.9-0.5c0,0-0.1-0.2-0.5-0.2c0,0,0,0,0,0
				c-0.3,0-0.5-0.2-0.7-0.3c-0.1,0-0.2,0-0.3,0c0,0-0.1,0.1-0.1,0.1C102.5,122.4,102.9,122.9,102.9,122.9z"/>
			<path class="st11" d="M93.8,114.5c0.1,2.9,0.6,8.4,1,8.8c0.8,0,1.5,0.1,2,0.2c1.7,0.3,2.1,1,2.3,1.3c0.3,0.6,1.7,1.9,1.9,2
				c0.2,0,0.4,0.4,0.7,0.9c0.2,0.5,0.7,0.6,1.2,0.6c0.4,0,0.8-0.5,0.8-0.6c0-0.1-0.2-0.5-0.2-1c0-0.5-0.3-2,0-2.5
				c0.2-0.3,0.1-0.8,0-1.2c-0.1-0.2-0.1-0.4-0.1-0.4c0-0.1,0-0.1-0.1-0.2c-0.1-0.1-0.1-0.3-0.2-0.4c-0.1-0.2-0.2-0.4-0.3-0.6
				c-0.5-0.9-1.2-2-2.2-3.2c-1-1.2-2.2-2.5-3.6-3.6c-0.9-0.7-1.9-1.3-2.9-1.8C93.8,112.8,93.7,113.5,93.8,114.5z"/>
		</g>
		<path class="st13" d="M92.5,119.9c-0.1-0.1,0-2.7-1.8-3.2c-1.8-0.5-2.8,0.3-5.1-0.6c-2.3-0.9-4.7-1.7-4.9-0.7
			c-0.2,1,0.2,3.8,0,5.1c-0.2,1.3,4.1,1.7,5.9,0.9C88.3,120.6,93.1,121.5,92.5,119.9z"/>
		<path class="st13" d="M73.1,113.8c0,0-1.2,1-1.4,2.8c-0.2,1.8,0.4,9.7,0.4,9.7l0.5,0l0.5-8.7L73.1,113.8z"/>
		<path class="st13" d="M72.7,127.3c0,0-1-1.1-0.4-1.3c0.6-0.2,0.4,0.5,0.4,0.8S72.7,127.3,72.7,127.3z"/>
		<path class="st18" d="M73.7,113.5c1.1,0.6,2.4,1.1,3.1,1.1c1.6,0,5.6-0.9,7.2-1c1.6-0.1,8.1,1.4,9.7,0.9c0,0,0.1,0,0.1,0
			c0.3,0,0.9,0.2,1.5,0.6c0.4,0.2,0.8,0.5,1.2,0.8c2.7,2,6.1,5.5,6.1,5.5c-0.5-0.9-1.2-2-2.2-3.2c-1-1.2-2.2-2.5-3.6-3.6
			c-0.9-0.7-1.9-1.3-2.9-1.8c-0.9-0.3-2,0.2-2.4,0.2c-0.5,0-1-0.1-1.5-0.2c-0.2,0-0.4-0.1-0.5-0.1c-0.9-0.1-6.5,0.6-10.4,0.7
			c-0.8,0-1.5,0-2.2,0c0,0-0.1,0-0.1,0C75,113.2,74.1,113.3,73.7,113.5z"/>
		<path class="st13" d="M78.9,113.4c0.7,0.6,2.1,0.8,4,0.5c2.3-0.4,2.9,0.6,4.9,0.7c1.7,0.1,2-1.4,2.1-1.7c-0.2,0-0.4-0.1-0.5-0.1
			C88.4,112.5,82.9,113.2,78.9,113.4z"/>
		<path class="st13" d="M96.5,117.2c0,0.2,0.1,0.4,0.2,0.6c0.1,0.2,0.2,0.4,0.3,0.6c1,1.7,0.1,3.6-0.2,5.2c1.7,0.3,2.1,1,2.3,1.3
			c0.3,0.6,1.7,1.9,1.9,2c0.2,0,0.4,0.4,0.7,0.9c0.2,0.5,0.7,0.6,1.2,0.6c0.4,0,0.8-0.5,0.8-0.6c0-0.1-0.2-0.5-0.2-1
			c0-0.5-0.3-2,0-2.5c0.2-0.3,0.1-0.8,0-1.2c0.3,0,0.7-0.1,0.9-0.5c0,0-0.1-0.2-0.5-0.3h0c0.1-0.1,0.2-0.2,0.3-0.3
			c0,0-0.1-0.2-0.5-0.2c-0.3,0-0.6-0.2-0.8-0.3c-0.5-0.9-1.2-2-2.2-3.2c-1-1.2-2.2-2.5-3.6-3.6c-0.1,0.4-0.3,0.8-0.3,1.3
			C96.4,116.3,96.4,116.8,96.5,117.2z"/>
		<path class="st13" d="M73.8,119.4c0,0.3,0,0.5,0,0.8c2,1.5,5.6,0.7,5.8-1.1c0.3-2.1-2.5-2.4-2.3-4.1c0.1-0.7-0.2-1.3-0.7-1.7
			c-3.5-0.2-3.5,0.5-3.5,0.5C71.6,115.4,73.8,119.4,73.8,119.4z"/>
	</g>
	<g>
		<path class="st19" d="M127.2,94.2H55.8c-2.5,0-4.6-2-4.6-4.6V45.2c0-2.5,2-4.6,4.6-4.6h71.3c2.5,0,4.6,2,4.6,4.6v44.4
			C131.7,92.1,129.7,94.2,127.2,94.2z"/>
		<g>
			<path class="st20" d="M80.7,58.1c0,6.4-5.2,11.6-11.6,11.6s-11.6-5.2-11.6-11.6s5.2-11.6,11.6-11.6c0.7,0,1.4,0.1,2.1,0.2
				c-1.4,5.3-3.4,12.2-3.5,12.7c0.2-0.4,7.3-3.5,12.1-5.7C80.4,55,80.7,56.5,80.7,58.1z"/>
			<path class="st21" d="M80.5,52.4c-4.2,1.9-11.3,5-11.5,5.4c0.1-0.4,2.1-7.5,3.4-12.2C76,46.6,79,49.1,80.5,52.4z"/>
		</g>
		<g>
			<path class="st14" d="M108.6,44.1c0-0.5,0.4-1,1-1c0.5,0,1,0.4,1,1c0,0.5-0.4,1-1,1C109.1,45.1,108.6,44.7,108.6,44.1z"/>
			<path class="st14" d="M113.6,44.1c0-0.5,0.4-1,1-1s1,0.4,1,1c0,0.5-0.4,1-1,1C114.1,45.1,113.6,44.7,113.6,44.1z"/>
			<ellipse class="st21" cx="119.7" cy="44.1" rx="1" ry="1"/>
		</g>
		<g>
			<g>
				<path class="st14" d="M78.8,90.2H56.4V83h22.4V90.2z M56.6,89.9h21.9v-6.6H56.6V89.9z"/>
			</g>
			<g>
				<rect x="58" y="85" class="st14" width="8.7" height="0.6"/>
				<rect x="67.6" y="85" class="st14" width="6.1" height="0.6"/>
				<rect x="58" y="86.6" class="st14" width="4.8" height="0.6"/>
				<rect x="63.6" y="86.6" class="st14" width="6.1" height="0.6"/>
				<rect x="70.4" y="86.6" class="st14" width="6.1" height="0.6"/>
			</g>
		</g>
		<g>
			<g>
				<path class="st14" d="M106.9,86.6H95.8V83h11.1V86.6z M95.9,86.4h10.8v-3.3H95.9V86.4z"/>
			</g>
			<g>
				<rect x="96.6" y="84" class="st14" width="4.3" height="0.3"/>
				<rect x="101.4" y="84" class="st14" width="3" height="0.3"/>
				<rect x="96.6" y="84.8" class="st14" width="2.4" height="0.3"/>
				<rect x="99.4" y="84.8" class="st14" width="3" height="0.3"/>
				<rect x="102.7" y="84.8" class="st14" width="3" height="0.3"/>
			</g>
		</g>
		<g>
			<g>
				<path class="st14" d="M120.1,86.6H109V83h11.1V86.6z M109.2,86.4H120v-3.3h-10.8V86.4z"/>
			</g>
			<g>
				<rect x="109.8" y="84" class="st14" width="4.3" height="0.3"/>
				<rect x="114.6" y="84" class="st14" width="3" height="0.3"/>
				<rect x="109.8" y="84.8" class="st14" width="2.4" height="0.3"/>
				<rect x="112.6" y="84.8" class="st14" width="3" height="0.3"/>
				<rect x="116" y="84.8" class="st14" width="3" height="0.3"/>
			</g>
		</g>
		<g>
			<g>
				<path class="st14" d="M106.9,70.9H95.8v-3.5h11.1V70.9z M95.9,70.7h10.8v-3.3H95.9V70.7z"/>
			</g>
			<g>
				<rect x="96.6" y="68.3" class="st14" width="4.3" height="0.3"/>
				<rect x="101.4" y="68.3" class="st14" width="3" height="0.3"/>
				<rect x="96.6" y="69.1" class="st14" width="2.4" height="0.3"/>
				<rect x="99.4" y="69.1" class="st14" width="3" height="0.3"/>
				<rect x="102.7" y="69.1" class="st14" width="3" height="0.3"/>
			</g>
		</g>
		<g>
			<g>
				<path class="st14" d="M120.1,70.9H109v-3.5h11.1V70.9z M109.2,70.7H120v-3.3h-10.8V70.7z"/>
			</g>
			<g>
				<rect x="109.8" y="68.3" class="st14" width="4.3" height="0.3"/>
				<rect x="114.6" y="68.3" class="st14" width="3" height="0.3"/>
				<rect x="109.8" y="69.1" class="st14" width="2.4" height="0.3"/>
				<rect x="112.6" y="69.1" class="st14" width="3" height="0.3"/>
				<rect x="116" y="69.1" class="st14" width="3" height="0.3"/>
			</g>
		</g>
		<g>
			<g>
				<path class="st14" d="M106.9,57.2H95.8v-3.5h11.1V57.2z M95.9,57.1h10.8v-3.3H95.9V57.1z"/>
			</g>
			<g>
				<rect x="96.6" y="54.6" class="st14" width="4.3" height="0.3"/>
				<rect x="101.4" y="54.6" class="st14" width="3" height="0.3"/>
				<rect x="96.6" y="55.4" class="st14" width="2.4" height="0.3"/>
				<rect x="99.4" y="55.4" class="st14" width="3" height="0.3"/>
				<rect x="102.7" y="55.4" class="st14" width="3" height="0.3"/>
			</g>
		</g>
		<g>
			<g>
				<path class="st14" d="M120.1,57.2H109v-3.5h11.1V57.2z M109.2,57.1H120v-3.3h-10.8V57.1z"/>
			</g>
			<g>
				<rect x="109.8" y="54.6" class="st14" width="4.3" height="0.3"/>
				<rect x="114.6" y="54.6" class="st14" width="3" height="0.3"/>
				<rect x="109.8" y="55.4" class="st14" width="2.4" height="0.3"/>
				<rect x="112.6" y="55.4" class="st14" width="3" height="0.3"/>
				<rect x="116" y="55.4" class="st14" width="3" height="0.3"/>
			</g>
		</g>
		<g>
			<g>
				<path class="st21" d="M88.5,51.5c0-0.7,0.6-1.3,1.3-1.3s1.3,0.6,1.3,1.3s-0.6,1.3-1.3,1.3S88.5,52.2,88.5,51.5z"/>
				<g>
					<path class="st21" d="M89.8,49.6h-0.1c-0.1,0-0.2-0.1-0.2-0.2v-2.3c0-0.1,0.1-0.2,0.2-0.2h0.1c0.1,0,0.2,0.1,0.2,0.2v2.3
						C90,49.5,90,49.6,89.8,49.6z"/>
					<path class="st21" d="M89.8,56.1h-0.1c-0.1,0-0.2-0.1-0.2-0.2v-2.3c0-0.1,0.1-0.2,0.2-0.2h0.1c0.1,0,0.2,0.1,0.2,0.2v2.3
						C90,56,90,56.1,89.8,56.1z"/>
					<g>
						<path class="st21" d="M91.3,52.7L91.3,52.7c0.1-0.2,0.3-0.2,0.4-0.1l1.9,1.4c0.1,0.1,0.1,0.2,0,0.3l-0.1,0.1
							c-0.1,0.1-0.2,0.1-0.3,0l-1.9-1.4C91.2,52.9,91.2,52.8,91.3,52.7z"/>
						<path class="st21" d="M86,48.8L86,48.8c0.1-0.2,0.3-0.2,0.4-0.1l1.9,1.4c0.1,0.1,0.1,0.2,0,0.3l-0.1,0.1
							c-0.1,0.1-0.2,0.1-0.3,0l-1.9-1.4C86,49,86,48.9,86,48.8z"/>
					</g>
					<g>
						<path class="st21" d="M88.3,52.7L88.3,52.7c0.2,0.2,0.1,0.3,0.1,0.4l-1.7,1.6c-0.1,0.1-0.2,0.1-0.3,0l-0.1-0.1
							c-0.1-0.1-0.1-0.2,0-0.3l1.7-1.6C88.1,52.6,88.2,52.6,88.3,52.7z"/>
						<path class="st21" d="M93.2,48.4L93.2,48.4c0.2,0.2,0.1,0.3,0.1,0.4l-1.7,1.6c-0.1,0.1-0.2,0.1-0.3,0l-0.1-0.1
							c-0.1-0.1-0.1-0.2,0-0.3l1.7-1.6C93,48.3,93.1,48.3,93.2,48.4z"/>
					</g>
					<g>
						<path class="st21" d="M87.9,51.4l0,0.1c0,0.1-0.1,0.2-0.2,0.2l-2.3,0c-0.1,0-0.2-0.1-0.2-0.2l0-0.1c0-0.1,0.1-0.2,0.2-0.2
							l2.3,0C87.8,51.2,87.9,51.3,87.9,51.4z"/>
						<path class="st21" d="M94.3,51.5l0,0.1c0,0.1-0.1,0.2-0.2,0.2l-2.3,0c-0.1,0-0.2-0.1-0.2-0.2l0-0.1c0-0.1,0.1-0.2,0.2-0.2
							l2.3,0C94.3,51.3,94.4,51.3,94.3,51.5z"/>
					</g>
				</g>
			</g>
			<g>
				<g>
					<path class="st14" d="M120.8,52.3h-25v-2h25V52.3z M96,52h24.5v-1.6H96L96,52L96,52z"/>
				</g>
				<rect x="95.9" y="50.4" class="st14" width="19.4" height="1.8"/>
			</g>
		</g>
		<g>
			<path class="st14" d="M88,65.5c0-1.6,2.5-4.7,2.5-4.7s2.5,3.1,2.5,4.7c0,1.6-1.1,3-2.5,3S88,67.2,88,65.5z"/>
			<g>
				<g>
					<path class="st21" d="M120.8,65.7h-25v-2h25V65.7z M96,65.4h24.5v-1.6H96L96,65.4L96,65.4z"/>
				</g>
				<rect x="95.9" y="63.7" class="st21" width="11.9" height="1.8"/>
			</g>
		</g>
		<g>
			<path class="st14" d="M91.6,81.7v-6.6h-1.4v6.6c-0.5,0.3-0.8,0.7-0.8,1.3c0,0.8,0.7,1.5,1.5,1.5c0.8,0,1.5-0.7,1.5-1.5
				C92.4,82.4,92.1,81.9,91.6,81.7z"/>
			<g>
				<g>
					<path class="st14" d="M120.8,80.8h-25v-2h25V80.8z M96,80.6h24.5V79H96L96,80.6L96,80.6z"/>
				</g>
				<rect x="95.9" y="78.9" class="st14" width="16.3" height="1.8"/>
			</g>
			<path class="st21" d="M90,83c0-0.5,0.4-1,1-1s1,0.4,1,1c0,0.5-0.4,1-1,1S90,83.5,90,83z"/>
			<rect x="90.6" y="79.5" class="st21" width="0.6" height="3"/>
		</g>
		<g>
			<rect x="56.5" y="77.6" class="st14" width="2.3" height="3.2"/>
			<rect x="60.5" y="75.5" class="st14" width="2.3" height="5.4"/>
			<rect x="64.5" y="73.7" class="st21" width="2.3" height="7.2"/>
			<rect x="68.5" y="75.1" class="st14" width="2.3" height="5.7"/>
			<rect x="72.5" y="72.1" class="st14" width="2.3" height="8.8"/>
			<rect x="76.5" y="70.5" class="st21" width="2.3" height="10.4"/>
		</g>
		<rect x="63.6" y="63.2" class="st22" width="4.9" height="0.5"/>
		<rect x="63.6" y="64.2" class="st22" width="7.6" height="0.5"/>
		<rect x="72.3" y="49.5" class="st22" width="4.9" height="0.5"/>
		<rect x="72.3" y="50.5" class="st22" width="3.1" height="0.5"/>
	</g>
	<g>
		<path class="st23" d="M168.8,59.6c0,0,9.4,10.6,12.6,17.2c0,0-3.9,8.5-16.6,15.5c0,0-0.6-0.1-1.4-0.7c-1.3-1,0.1-1.7,0.4-1.9
			c3.2-2.1,8.9-11.1,9-11.9c0.2-0.8-7.1-7.8-9.3-10.4C161.4,64.8,165.4,58.3,168.8,59.6z"/>
		<path class="st23" d="M144.4,59.3c0,0-12.2,11.7-15.1,11.3c-2.8-0.3-13.9-3-13.9-3l-0.9,2.1c0,0,11.1,6.5,16.4,6.4
			c5.3-0.1,12.3-5.2,12.3-5.2L144.4,59.3z"/>
		<path class="st24" d="M153.3,44c0,0,0.1,1.3-0.7,1.6c-0.8,0.3,0.8,3.1,0.7,5c-0.1,1.9-1,2.7-1,2.7s0.4-1.1,0.2-1.7c0,0,0,1.4-1,2
			c-1,0.7-0.7,1.3-0.7,1.3s-2.2-0.7-2.3-2.3c0,0-0.1,0.8,0,1.1c0,0-1.9-1.4-2-3.1c-0.1-1.7,1.5-3.1,2.2-3.1c0.7,0,2.4-1.5,2.3-2
			C151,44.8,153.3,44,153.3,44z"/>
		<ellipse transform="matrix(0.55 -0.8352 0.8352 0.55 36.3906 148.7908)" class="st25" cx="156.3" cy="40.6" rx="4.3" ry="11"/>
		<path class="st26" d="M158.4,104.8c-1.4,7.4-3.2,17.5-4.6,25.5c-0.2,0.9-0.3,1.8-0.5,2.7c0,0.2-0.1,0.4-0.1,0.6h-13.9
			c0-0.2,0-0.4-0.1-0.6c-0.6-6.7-0.5-12.7-0.1-17.6c0.1-1.9,0.3-3.7,0.6-5.3c0.9-9.5,1.2-13.5,1.3-14.8l0-0.3c0,0,0,0,0,0l0,0
			c0,0,0-0.1,0-0.1l0-0.1c0,0,0,0,0,0l4.7,1.4l2.3,0.7l0.5,1.7l1.1,3.5l7.9,2.6L158.4,104.8z"/>
		<path class="st27" d="M167.5,106.7c-0.2,3.9-0.6,17.5-1.1,26.3c0,0.2,0,0.4,0,0.6H152c0-0.2-0.1-0.4-0.1-0.6
			c-1.5-6.9-2.8-14.6-3.7-20.9c-0.2,0-1.8-11.2-5.9-16.2c0,0,0-0.1,0-0.1c0.2-0.3,2.8,0.2,2.8,0.2c0.2,0.1,0.5,0.1,0.7,0.1
			c2,0.3,4.9-0.2,7.7-0.8c0,0,0,0,0,0c0.8-0.2,1.5-0.4,2.3-0.6c2.1-0.6,4.1-1.2,5.5-1.7c0.3-0.1,0.7-0.2,0.9-0.3
			c0.2-0.1,0.4-0.1,0.6-0.2c0,0,0,0,0,0c0.4-0.1,0.6-0.2,0.6-0.2s0.1,0.1,0.3,0.3c0.6,0.6,1.9,2.2,2.8,5
			C167.2,99.8,167.8,102.8,167.5,106.7z"/>
		<path class="st24" d="M150,34.8l9.1,13.8c0,0,1-2,2.2-1.3c1.8,1.1,5.7-2.8,4.9-8.3c-0.1-0.4-0.1-0.7-0.2-1
			c-1.8-2.6-3.8-5.5-5.3-7.6C156.5,27.9,150,34.8,150,34.8z"/>
		<path class="st23" d="M146,62.7c1.3,1.2,2.9,2.2,5.1,3c8,3,12.2-3.5,14-8.2c-1-0.8-2.1-1.1-2.7-1.2c-0.5-0.1-1-0.2-1.4-0.3
			c-0.2,0-0.4-0.2-0.6-0.4c-0.8-1.2-1.5-4.1-1.3-8.2l-0.4,0.1l-6.8,0.9c0,0,0,2.1-0.1,4.1c-0.1,0.9-0.1,1.7-0.2,2.3
			c-0.1,0.6-0.6,1-1.2,1.1l0,0c0,0,0,0,0,0C150.2,56,147.9,58.8,146,62.7z"/>
		<path class="st28" d="M151.9,48.3c0,0,0,2.1-0.1,4.1c3.8,0.1,5.9-3.2,6.9-5L151.9,48.3z"/>
		<path class="st23" d="M150.5,50.1c0,0,8.8,0.7,9.2-4.8s1.7-9.1-3.9-9.8c-5.6-0.7-6.9,1.3-7.4,3.2
			C147.9,40.5,148.3,49.8,150.5,50.1z"/>
		<path class="st24" d="M148.9,35.6c1.5-1.6,2.5-1.1,3-0.6c5-2.4,7.9,1.8,7.9,1.8c0.3,4,3.1,6.4,3.1,6.4s-1.7,0.9-5.3-0.3
			c-1.1-0.4-2.1-1.2-2.9-2.3c1.3,2.6,3.3,4.6,3.3,4.6c-4.3-2.3-5.7-8.6-5.8-9.3c-0.6,0.5-1.7,1.4-2.1,2.5c-0.5,1.4-0.9,4.3-1.8,4.1
			C148.2,42.5,146.7,38,148.9,35.6z"/>
		<path class="st16" d="M166.3,41.8c0,0,4.1-8.2-1.6-11.4c-5.8-3.2-10-2-13.1,2L166.3,41.8z"/>
		<path class="st21" d="M166.5,72.3c0.3,0.3,0.5,0.5,0.5,0.5c6.7-0.8,7-7.7,7-7.7s-5.2-6.9-10.1-8.4c-1.2-0.4-3-0.6-3-0.6
			c-1.5,1.3-3.3,3.1-5,4.6c-1.9,1.7-5.2,2.3-6.4-0.8c-0.5-1.2,0.7-3.8,0.8-4c0,0,0,0,0,0c-0.1,0-0.2,0-0.4,0c-0.6,0-1.1,0.1-1.6,0.2
			c-2.4,0.2-5.7,1.8-12.4,10.3c0,0,3.6,4.5,7.3,4.7c-0.1,7.1,0.6,18.5,0.6,18.5c-1.6,3.1,22.2,10.4,23.2,7.4c1.5-2.3,0-6.8-1.3-10.3
			c-0.3-0.8-0.4-1.7-0.7-2.4c-0.2-0.4-0.3-0.8-0.4-1.3c-0.3-1.1-0.3-2.3-0.1-3.4C165.1,76.9,165.8,74.4,166.5,72.3z"/>
		<path class="st2" d="M166.7,40.7c-0.2-0.2-0.4-0.4-0.5-0.5l0,0c-1.8-1.7-4-3.5-6.6-5.1c-2.1-1.3-4.2-2.4-6.1-3.2h0
			c-0.4-0.2-0.8-0.3-1.1-0.4c-4.5-1.6-8.1-1.8-9.2,0c-1.2,1.8,0.8,5.3,4.6,8.8l0,0c0,0,0-0.1,0-0.1c0,0,0-0.1,0-0.1c0,0,0-0.1,0-0.1
			c0,0,0-0.1,0-0.1c0,0,0-0.1,0-0.1c0-0.1,0-0.1,0-0.2c0,0,0,0,0,0c0,0,0-0.1,0-0.1v0c0,0,0-0.1,0-0.1c0-0.1,0-0.2,0-0.3
			c0,0,0-0.1,0-0.1c0,0,0,0,0-0.1c0,0,0-0.1,0-0.1c0-0.1,0-0.1,0-0.2c0-0.1,0-0.1,0-0.2c0,0,0,0,0,0c0,0,0,0,0-0.1c0,0,0,0,0,0
			c0,0,0-0.1,0-0.1c0-0.1,0-0.1,0-0.2c0,0,0,0,0,0c0-0.1,0-0.2,0-0.2c0,0,0-0.1,0-0.1c0,0,0,0,0,0c-0.4-0.9-0.5-1.6-0.1-2.1
			c0.4-0.6,1.3-0.9,2.5-0.8c0,0,0,0,0,0c0,0,0.1,0,0.1,0h0c0.4,0,0.9,0.1,1.4,0.2h0c0.1,0,0.2,0.1,0.4,0.1c0.5,0.1,0.9,0.3,1.4,0.4
			h0c1.5,0.5,3.1,1.3,4.7,2.3c0.7,0.4,1.3,0.9,1.9,1.3h0c0.1,0,0.1,0.1,0.2,0.1c2.8,2.1,4.6,4.3,4.8,5.9c0.1,0.4,0,0.8-0.2,1.1
			c0,0,0,0,0,0.1c0,0,0,0,0,0c-0.1,0.2-0.3,0.3-0.5,0.4c0,0,0,0,0,0c0,0-0.1,0-0.1,0c0,0,0,0,0,0c-0.2,0.1-0.4,0.2-0.7,0.2
			c0,0,0,0,0,0s0,0,0,0c0,0-0.1,0-0.1,0.1c0,0,0,0-0.1,0c0,0,0,0-0.1,0c0,0,0,0,0,0c0,0-0.1,0-0.1,0.1c-0.1,0-0.1,0.1-0.2,0.1
			c0,0-0.1,0-0.1,0c0,0-0.1,0-0.1,0c0,0-0.1,0-0.1,0.1c0,0,0,0,0,0c0,0,0,0,0,0c0,0,0,0,0,0c0,0,0,0,0,0c0,0,0,0,0,0c0,0,0,0-0.1,0
			c0,0-0.1,0-0.1,0c0,0-0.1,0-0.1,0c0,0,0,0,0,0c0,0,0,0-0.1,0c0,0,0,0,0,0c0,0,0,0-0.1,0c0,0-0.1,0-0.1,0c0,0,0,0,0,0
			c0,0,0,0-0.1,0c0,0,0,0-0.1,0c0,0,0,0,0,0h0c0,0,0,0,0,0h0c0,0,0,0,0,0c-0.1,0-0.1,0-0.2,0c-0.1,0-0.1,0-0.2,0c0,0-0.1,0-0.1,0
			c0,0,0,0-0.1,0c0,0,0,0,0,0c0,0,0,0,0,0c0,0,0,0,0,0c0,0,0,0-0.1,0c0,0-0.1-0.1-0.1-0.1c0,0,0,0,0,0c0,0,0,0,0,0c0,0,0,0-0.1,0
			c-0.1,0-0.2,0-0.3,0c0,0,0,0,0,0h0c0,0,0,0,0,0h0c0,0,0,0,0,0c0,0,0,0,0,0c0,0,0,0-0.1,0c0,0,0,0,0,0c0,0,0,0,0,0c0,0,0,0,0,0
			c0,0,0,0,0,0c0,0,0,0,0,0c0,0,0,0,0,0c0,0,0,0,0,0c0,0,0,0,0,0c0,0,0,0,0,0c0,0,0,0,0,0c0,0,0,0,0,0l0,0c0,0,0,0,0,0s0,0,0,0
			c0,0,0,0,0,0c0,0,0,0,0,0c0,0,0,0-0.1,0.1c0,0,0,0,0,0c0,0,0,0,0,0c0,0,0,0-0.1,0.1c0,0,0,0-0.1,0.1c0,0,0,0,0,0c0,0,0,0,0,0
			c0,0,0,0,0,0h0c0.4,0.2,0.9,0.3,1.3,0.5c1.3,0.5,2.6,0.8,3.7,1c2.6,0.5,4.6,0.2,5.4-1.1C171.1,46.6,169.7,43.8,166.7,40.7z"/>
		<path class="st29" d="M161.4,87.2c3.4,1.1,1.8-0.8,4.5-0.6c-0.3-0.8-0.6-1.6-0.9-2.3c-0.2-0.4-0.3-0.8-0.4-1.3
			c-0.3-1.1-0.3-2.3-0.1-3.4c0.6-3,1.3-5.2,2-7.4c-0.8-2-4,1.3-4,1.3s-3,3.1-2.2,8.5C161.1,87,158.5,86.2,161.4,87.2z"/>
		<path class="st27" d="M163.9,56.6c0,0-5.5,3.5-6.9,11l-1.7-0.5c0,0,0.7-5.4,7.1-10.8c0,0,0.5,0.1,0.6,0.1
			C163.3,56.4,163.9,56.6,163.9,56.6z"/>
		<path class="st27" d="M144.4,67.8l1.7,0.1c-0.4-6.5,2.9-10.9,3.8-12c-0.6,0-1.1,0.1-1.6,0.2C144.8,61.5,144.4,67.8,144.4,67.8z"/>
		<path class="st27" d="M156.8,71.7c0.1-0.5,1.2-4.9,1.2-4.9s0.2-1.4-2.2-1.5c-2.5-0.1-11.2-0.6-11.2-0.6s-1.2,0.7-1.2,2.2
			c0,1.5-1.2,9.9-1.2,9.9L141,95.2l26.6,11.4c0,0,1.8-9.4-0.2-15.9c-1.2-3.8-2.7-7.8-2.7-7.8S155.1,78.7,156.8,71.7z"/>
		<g>
			<g>
				<path class="st29" d="M157,66.9c0.1-0.4-0.1-0.8-0.5-0.9s-0.8,0.1-0.9,0.5c-0.1,0.4,0.1,0.8,0.5,0.9
					C156.5,67.5,156.9,67.3,157,66.9z"/>
				<path class="st21" d="M156.9,66.9c0.1-0.4-0.1-0.8-0.5-0.9c-0.4-0.1-0.8,0.1-0.9,0.5c-0.1,0.4,0.1,0.8,0.5,0.9
					C156.4,67.5,156.8,67.3,156.9,66.9z"/>
			</g>
			<path class="st13" d="M156.7,66.7c0-0.1,0-0.1-0.1-0.1s-0.1,0-0.1,0.1c0,0.1,0,0.1,0.1,0.1C156.6,66.8,156.7,66.7,156.7,66.7z"/>
			<path class="st13" d="M156,66.7c0-0.1,0-0.1-0.1-0.1c-0.1,0-0.1,0-0.1,0.1s0,0.1,0.1,0.1C155.9,66.8,156,66.7,156,66.7z"/>
		</g>
		<g>
			<g>
				<path class="st29" d="M146.2,66c0.1-0.4-0.1-0.8-0.5-0.9c-0.4-0.1-0.8,0.1-0.9,0.5c-0.1,0.4,0.1,0.8,0.5,0.9
					C145.7,66.6,146.1,66.4,146.2,66z"/>
				<path class="st21" d="M146.1,66c0.1-0.4-0.1-0.8-0.5-0.9c-0.4-0.1-0.8,0.1-0.9,0.5c-0.1,0.4,0.1,0.8,0.5,0.9
					C145.6,66.6,146,66.4,146.1,66z"/>
			</g>
			<path class="st13" d="M145.9,65.7c0-0.1,0-0.1-0.1-0.1c-0.1,0-0.1,0-0.1,0.1c0,0.1,0,0.1,0.1,0.1
				C145.8,65.9,145.9,65.8,145.9,65.7z"/>
			<path class="st13" d="M145.2,65.7c0-0.1,0-0.1-0.1-0.1c-0.1,0-0.1,0-0.1,0.1s0,0.1,0.1,0.1C145.1,65.9,145.2,65.8,145.2,65.7z"/>
		</g>
		<path class="st24" d="M165.1,45c0,0,0.1,1.3-0.7,1.6c-0.8,0.3,0.8,3.1,0.7,5c-0.1,1.9-1,2.7-1,2.7s0.4-1.1,0.2-1.7c0,0,0,1.4-1,2
			c-1,0.7-0.7,1.3-0.7,1.3s-2.2-0.7-2.3-2.3c0,0-0.1,0.8,0,1.1c0,0-1.9-1.4-2-3.1c-0.1-1.7,1.5-3.1,2.2-3.1s2.4-1.5,2.3-2
			C162.8,45.8,165.1,45,165.1,45z"/>
		<path class="st30" d="M153.3,47.1c0,0-1.3,0.8-2.3,0.7c-0.9-0.1-1.4-1.2-1.4-1.2S151.4,46.3,153.3,47.1z"/>
		<g>
			<g>
				<path class="st31" d="M161.6,94.7h-17.8c-0.7,0-1.6-0.6-1.9-1.3l-4.5-11c-0.3-0.7,0.1-1.3,0.8-1.3h17.8c0.7,0,1.6,0.6,1.9,1.3
					l4.5,11C162.7,94.1,162.4,94.7,161.6,94.7z"/>
			</g>
			<g>
				<path class="st32" d="M160.6,94.7h-17.8c-0.7,0-1.6-0.6-1.9-1.3l-4.5-11c-0.3-0.7,0.1-1.3,0.8-1.3H155c0.7,0,1.6,0.6,1.9,1.3
					l4.5,11C161.7,94.1,161.3,94.7,160.6,94.7z"/>
				<g>
					<path class="st13" d="M138.2,81.8L138.2,81.8c0.3,0,0.7,0.3,0.9,0.6l0,0c0.1,0.3,0,0.6-0.4,0.6l0,0c-0.3,0-0.7-0.3-0.9-0.6l0,0
						C137.7,82.1,137.9,81.8,138.2,81.8z"/>
					<path class="st13" d="M140.2,82.1L140.2,82.1c0.2,0,0.4,0.2,0.5,0.4l0,0c0.1,0.2,0,0.4-0.2,0.4l0,0c-0.2,0-0.4-0.2-0.5-0.4l0,0
						C139.9,82.3,140,82.1,140.2,82.1z"/>
				</g>
			</g>
			<path class="st31" d="M147.1,87.5c-0.3-0.7,0.1-1.3,0.8-1.3c0.7,0,1.6,0.6,1.9,1.3c0.3,0.7-0.1,1.3-0.8,1.3
				C148.3,88.8,147.4,88.2,147.1,87.5z"/>
		</g>
		<g>
			<path class="st23" d="M163.7,89.8c0,0-2.4-1.4-3-2c-0.4-0.4-0.4,0.1-0.4,0.3c0,0.3,0.1,0.9,0.8,1.5
				C162.1,90.3,163.7,89.8,163.7,89.8z"/>
			<path class="st23" d="M163.7,89.8c0,0-4.4-1.3-5.4-1.2c-1,0.1-3.3,0.8-3.5,1c-0.2,0.2,0.6,0.4,1.2,0.2c0.8-0.2,2,0,2,0
				s-2.5,0.5-3.1,0.8c-0.1,0-0.1,0.1,0,0.2c0.1,0.1,0.5,0.2,1.1,0.1c0.8-0.1,2.2-0.1,2.2-0.1l-2.8,0.6c0,0-0.1,0-0.1,0.1
				c0,0.1,0.2,0.3,0.9,0.3c0.5,0,2.2-0.2,2.2-0.2l-1.5,0.8c0,0,0.4,0.3,1.1,0c0.5-0.2,2.1-0.6,2.5-0.5c0.4,0.1,2.2,0.7,3.1,0.6
				c0.8-0.1,1.2-0.3,1.2-0.3L163.7,89.8z"/>
		</g>
		<g>
			<path class="st23" d="M115.4,67.7c0,0-2.2-2.4-3-2.6c-0.8-0.3-3.7-0.8-3.7-0.8s0,0.7,1.3,1.2c1.3,0.5,1.6,2.7,2.3,3.4
				c0.8,0.6,2.8,1.2,2.8,1.2L115.4,67.7z"/>
			<path class="st23" d="M114.5,69.8c0,0-2.2-0.1-2.9-0.5c-0.7-0.4-1.8-1-1.6-1.4c0.2-0.3,2.6-0.1,2.6-0.1L114.5,69.8z"/>
			<path class="st23" d="M112.2,65.4c-0.1-0.1-3-2-3-2s-0.2,0.9,0.2,1.1C109.8,64.7,112.2,65.4,112.2,65.4z"/>
		</g>
		<path class="st23" d="M176,84c-2.6,2.6-6.2,5.6-11.2,8.3c0,0-0.6-0.1-1.4-0.7c-1.3-1,0.1-1.7,0.4-1.9c1.5-0.9,3.4-3.3,5.1-5.7H176
			z"/>
	</g>
	<path class="st5" d="M34.6,133.3H13c0,0,0,0,0,0c0-0.1-0.1-0.2-0.1-0.3l0,0c0,0,0,0,0,0c0,0,0,0,0,0c-0.1-0.1-0.1-0.3-0.2-0.5
		c0-0.1-0.1-0.2-0.1-0.3c0,0,0,0,0,0c0,0,0,0,0,0c-0.2-0.6-0.6-1.5-0.9-2.5c0-0.1-0.1-0.2-0.1-0.3c-0.3-0.8-0.6-1.6-0.9-2.6
		c-0.1-0.4-0.3-0.9-0.4-1.4c2.1-0.6,4.9-1,7.4-0.2c1.6,0.5,2.7,1.3,3.5,2.1c1.7,1.5,2.4,3.1,4.4,2.5c0.5-0.1,1.1-0.2,1.7-0.3
		C30.4,129.3,34.8,130.6,34.6,133.3z"/>
	<path class="st33" d="M224.3,133.2L224.3,133.2c0,0.2-0.1,0.3-0.3,0.3H0.9c-0.1,0-0.3-0.1-0.3-0.3v-0.1c0-0.1,0.1-0.3,0.3-0.3
		h223.1C224.2,133,224.3,133.1,224.3,133.2z"/>
</g>
</svg>
