<?xml version="1.0" encoding="utf-8"?>
<!-- Generator: Adobe Illustrator 25.4.1, SVG Export Plug-In . SVG Version: 6.00 Build 0)  -->
<svg version="1.1" id="Layer_1" xmlns="http://www.w3.org/2000/svg" xmlns:xlink="http://www.w3.org/1999/xlink" x="0px" y="0px"
	 viewBox="0 0 225 150" style="enable-background:new 0 0 225 150;" xml:space="preserve">
<style type="text/css">
	.st0{fill:#FAFAFA;}
	.st1{fill:#E0E0E0;}
	.st2{fill:#263238;}
	.st3{opacity:0.1;enable-background:new    ;}
	.st4{fill:#37474F;}
	.st5{fill:#455A64;}
	.st6{fill:#EF7F1A;}
	.st7{opacity:0.2;}
	.st8{opacity:0.3;}
	.st9{fill:#FFFFFF;}
	.st10{fill:#FFA8A7;}
	.st11{fill:#F28F8F;}
	.st12{fill:#F0F0F0;}
	.st13{fill:#EBEBEB;}
	.st14{opacity:0.3;enable-background:new    ;}
	.st15{fill:#B16668;}
	.st16{opacity:0.5;}
	.st17{opacity:0.1;}
	.st18{opacity:0.85;}
	.st19{opacity:0.6;}
	.st20{opacity:3.000000e-02;}
	.st21{opacity:0.4;}
	.st22{opacity:0.5;fill:#FFFFFF;enable-background:new    ;}
	.st23{opacity:0.5;fill:#EF7F1A;enable-background:new    ;}
	.st24{opacity:0.15;enable-background:new    ;}
	.st25{opacity:0.6;fill:#FFFFFF;enable-background:new    ;}
	.st26{opacity:0.9;fill:#FFFFFF;enable-background:new    ;}
	.st27{fill:none;stroke:#FFFFFF;stroke-width:0.589;stroke-linecap:round;stroke-linejoin:round;}
	.st28{fill:none;stroke:#FFFFFF;stroke-width:0.589;stroke-linecap:round;stroke-linejoin:round;stroke-dasharray:1.1236,2.2472;}
	.st29{fill:none;stroke:#FFFFFF;stroke-width:0.589;stroke-linecap:round;stroke-linejoin:round;stroke-dasharray:1.2309,2.4617;}
	.st30{fill:none;stroke:#FFFFFF;stroke-width:0.589;stroke-linecap:round;stroke-linejoin:round;stroke-dasharray:1.1026,2.2052;}
	.st31{fill:none;stroke:#FFFFFF;stroke-width:0.589;stroke-linecap:round;stroke-linejoin:round;stroke-dasharray:1.1812,2.3623;}
	.st32{opacity:0.2;enable-background:new    ;}
	.st33{opacity:0.4;fill:#FFFFFF;enable-background:new    ;}
	.st34{opacity:0.8;fill:#FFFFFF;enable-background:new    ;}
	.st35{opacity:0.7;fill:#FFFFFF;enable-background:new    ;}
	.st36{opacity:0.1;fill:#FFFFFF;enable-background:new    ;}
	.st37{opacity:0.85;fill:#FFFFFF;enable-background:new    ;}
	.st38{opacity:0.2;fill:#FFFFFF;enable-background:new    ;}
</style>
<g>
	<g id="Floor">
		<path id="Floor_00000048472611002434275530000014874776674649961896_" class="st0" d="M58.3,71.5c-29.9,17.3-29.9,45.3,0,62.5
			c29.9,17.3,78.4,17.3,108.3,0c29.9-17.3,29.9-45.3,0-62.5S88.2,54.2,58.3,71.5z"/>
	</g>
	<g id="Shadows">
		<path id="Shadow_00000156586992946865189630000007549575388702412169_" class="st1" d="M154.2,104.7c-0.8,0-1.5-0.6-1.7-1.4
			l-0.3-1.7c-0.7-0.1-1.5-0.3-2.1-0.5l-3.1,1.5c-0.2,0.1-0.5,0.2-0.8,0.2c-0.3,0-0.6,0-1-0.3l-3.2-1.8c-0.4-0.3-0.7-0.7-0.8-1.2
			c0-0.5,0.2-1,0.6-1.3l1.8-1.3c-0.1-0.2-0.2-0.3-0.3-0.5l-3.9-0.2c-0.9-0.1-1.5-0.8-1.5-1.6v-2.4c0-0.9,0.7-1.6,1.5-1.6l3.9-0.2
			c0.1-0.2,0.2-0.3,0.3-0.5l-1.8-1.3c-0.4-0.3-0.7-0.8-0.6-1.3c0-0.5,0.3-0.9,0.8-1.2l3.2-1.8c0.4-0.2,0.7-0.3,1-0.3
			c0.3,0,0.6,0.1,0.8,0.2l3.1,1.5c0.7-0.2,1.4-0.4,2.1-0.5l0.3-1.7c0.1-0.8,0.9-1.4,1.7-1.4h4.7c0.8,0,1.5,0.6,1.7,1.4l0.3,1.7
			c0.7,0.1,1.5,0.3,2.1,0.5l3.1-1.5c0.2-0.1,0.5-0.2,0.8-0.2c0.3,0,0.6,0,1,0.3l3.2,1.8c0.4,0.3,0.7,0.7,0.8,1.2
			c0,0.5-0.2,1-0.6,1.3l-1.8,1.3c0.1,0.2,0.2,0.3,0.3,0.5l3.9,0.2c0.9,0.1,1.5,0.8,1.5,1.6v2.4c0,0.9-0.7,1.6-1.5,1.6l-3.9,0.2
			c-0.1,0.2-0.2,0.3-0.3,0.5l1.8,1.3c0.4,0.3,0.7,0.8,0.6,1.3c0,0.5-0.3,0.9-0.8,1.2l-3.2,1.8c-0.4,0.2-0.7,0.3-1,0.3l0,0
			c-0.3,0-0.6-0.1-0.8-0.2l-3.1-1.5c-0.7,0.2-1.4,0.4-2.1,0.5l-0.3,1.7c-0.2,0.8-0.9,1.4-1.7,1.4L154.2,104.7L154.2,104.7z
			 M156.5,90.2c-1.8,0-3.5,0.4-4.7,1.1c-1,0.6-1.6,1.3-1.6,2c0,0.7,0.6,1.4,1.6,2c1.2,0.7,3,1.1,4.7,1.1c1.8,0,3.5-0.4,4.7-1.1
			c1-0.6,1.6-1.3,1.6-2c0-0.7-0.6-1.4-1.6-2C160,90.6,158.3,90.2,156.5,90.2z"/>
		<path id="Shadow_00000164482176791618657930000015577198330936190107_" class="st1" d="M104.5,113.8c-1.5,1.2-3.1,2.4-4.9,2.8
			c-1.8,0.4-3.9,0-5-1.7c-1.8-2.6-0.8-7.2,0.7-9.5c0.5-0.8,1.1-1.5,1.7-2.2c5-5.4,12.4-6.3,19-4.9c2.6,0.6,4.5,1.3,6.8,2.5
			c2.2,1.2,4.4,2.9,5.6,5.1c0.5,1,0.6,2.4-0.2,3.4c-0.5,0.6-1.5,1.3-3.2,1.6c-2.2,0.5-4.5,0.1-7.7-0.3c-2.3-0.3-4.6-0.5-6.9,0
			C108.3,111.2,106.4,112.3,104.5,113.8z"/>
		<path id="Shadow_00000103973472105328231020000008098921042156192185_" class="st1" d="M105.8,134.3c-1.4,0-2.6-1-2.9-2.4l-0.8-4
			c-1.7-0.3-3.4-0.7-5-1.2c0,0,0,0-0.1,0c-0.1,0-0.1,0-0.2,0l-6.7,3.1c-0.4,0.2-0.9,0.3-1.5,0.3l0,0c-0.6,0-1.3-0.2-1.8-0.5
			l-6.7-3.9c-0.8-0.4-1.2-1.2-1.3-2c0-0.8,0.4-1.6,1.1-2.1l4.2-3c-0.4-0.6-0.9-1.2-1.2-1.8l-8.6-0.5c-1.5-0.1-2.6-1.3-2.6-2.8v-5
			c0-1.5,1.2-2.7,2.6-2.8l8.6-0.5c0.3-0.6,0.7-1.2,1.2-1.8l-4.2-3c-0.7-0.5-1.1-1.3-1.1-2.1c0-0.8,0.5-1.6,1.3-2l6.7-3.9
			c0.5-0.3,1.1-0.5,1.8-0.5c0.5,0,1,0.1,1.5,0.3l6.7,3.1c0,0,0.1,0,0.2,0c0,0,0.1,0,0.1,0c1.6-0.5,3.3-0.9,5-1.2l0.8-4
			c0.3-1.4,1.5-2.4,2.9-2.4h9.8c1.4,0,2.6,1,2.9,2.4l0.8,4c1.7,0.3,3.4,0.7,5,1.2c0,0,0,0,0.1,0c0.1,0,0.1,0,0.2,0l6.7-3.1
			c0.4-0.2,0.9-0.3,1.5-0.3c0.6,0,1.3,0.2,1.8,0.5l6.7,3.8c0.8,0.4,1.2,1.2,1.3,2c0,0.8-0.4,1.6-1.1,2.1l-4.2,3
			c0.4,0.6,0.9,1.2,1.2,1.8l8.6,0.5c1.5,0.1,2.6,1.3,2.6,2.8v5c0,1.5-1.2,2.7-2.6,2.8l-8.6,0.5c-0.3,0.6-0.7,1.2-1.2,1.8l4.2,3
			c0.7,0.5,1.1,1.3,1.1,2.1c0,0.8-0.5,1.6-1.3,2l-6.7,3.9c-0.5,0.3-1.1,0.5-1.8,0.5c-0.5,0-1-0.1-1.5-0.3l-6.7-3.1c0,0-0.1,0-0.2,0
			c0,0-0.1,0-0.1,0c-1.6,0.5-3.3,0.9-5,1.2l-0.8,4c-0.3,1.4-1.5,2.4-2.9,2.4L105.8,134.3L105.8,134.3z M95.6,103.5
			c-3.6,2.1-5.7,4.8-5.7,7.6s2,5.5,5.7,7.6c4,2.3,9.3,3.6,15,3.6c5.7,0,11-1.3,15-3.6c3.6-2.1,5.7-4.8,5.7-7.6s-2-5.5-5.7-7.6
			c-4-2.3-9.3-3.6-15-3.6C105,100,99.6,101.2,95.6,103.5z"/>
		<path id="Shadow_00000109726210585083256230000014153140662098541993_" class="st1" d="M61.8,104.7c-0.8,0-1.5-0.6-1.7-1.4
			l-0.3-1.7c-0.7-0.1-1.5-0.3-2.1-0.5l-3.1,1.5c-0.2,0.1-0.5,0.2-0.8,0.2c-0.3,0-0.6,0-1-0.3l-3.2-1.8c-0.4-0.3-0.7-0.7-0.8-1.2
			c0-0.5,0.2-1,0.6-1.3l1.8-1.3c-0.1-0.2-0.2-0.3-0.3-0.5l-3.9-0.2c-0.9-0.1-1.5-0.8-1.5-1.6v-2.4c0-0.9,0.7-1.6,1.5-1.6l3.9-0.2
			c0.1-0.2,0.2-0.3,0.3-0.5l-1.8-1.3c-0.4-0.3-0.7-0.8-0.6-1.3c0-0.5,0.3-0.9,0.8-1.2l3.2-1.8c0.4-0.2,0.7-0.3,1-0.3
			c0.3,0,0.6,0.1,0.8,0.2l3.1,1.5c0.7-0.2,1.4-0.4,2.1-0.5l0.3-1.7c0.1-0.8,0.9-1.4,1.7-1.4h4.7c0.8,0,1.5,0.6,1.7,1.4l0.3,1.7
			c0.7,0.1,1.5,0.3,2.1,0.5l3.1-1.5c0.2-0.1,0.5-0.2,0.8-0.2c0.3,0,0.6,0,1,0.3l3.2,1.8c0.4,0.3,0.7,0.7,0.8,1.2
			c0,0.5-0.2,1-0.6,1.3L77,89.8c0.1,0.2,0.2,0.3,0.3,0.5l3.9,0.2c0.9,0.1,1.5,0.8,1.5,1.6v2.4c0,0.9-0.7,1.6-1.5,1.6l-3.9,0.2
			c-0.1,0.2-0.2,0.3-0.3,0.5l1.8,1.3c0.4,0.3,0.7,0.8,0.6,1.3c0,0.5-0.3,0.9-0.8,1.2l-3.2,1.8c-0.4,0.2-0.7,0.3-1,0.3l0,0
			c-0.3,0-0.6-0.1-0.8-0.2l-3.1-1.5c-0.7,0.2-1.4,0.4-2.1,0.5l-0.3,1.7c-0.2,0.8-0.9,1.4-1.7,1.4L61.8,104.7L61.8,104.7z M64.1,90.2
			c-1.8,0-3.5,0.4-4.7,1.1c-1,0.6-1.6,1.3-1.6,2c0,0.7,0.6,1.4,1.6,2c1.2,0.7,3,1.1,4.7,1.1c1.8,0,3.5-0.4,4.7-1.1
			c1-0.6,1.6-1.3,1.6-2c0-0.7-0.6-1.4-1.6-2C67.6,90.6,65.9,90.2,64.1,90.2z"/>
	</g>
	<g id="Gears">
		<g id="Gear_00000123403423397891348100000005894846988999312783_">
			<g>
				<path class="st2" d="M170.5,83.3l-3.2-1.8c-0.2-0.1-0.5-0.1-0.7,0l-3.2,1.5c-0.2,0.1-0.5,0.1-0.7,0c-0.8-0.2-1.6-0.4-2.5-0.6
					c-0.2,0-0.4-0.2-0.5-0.4l-0.4-2.1c0-0.2-0.3-0.4-0.5-0.4h-4.7c-0.2,0-0.4,0.2-0.5,0.4l-0.4,2.1c0,0.2-0.2,0.4-0.5,0.4
					c-0.9,0.1-1.7,0.3-2.5,0.6c-0.2,0.1-0.5,0-0.7,0l-3.2-1.5c-0.2-0.1-0.5-0.1-0.7,0l-3.2,1.8c-0.1,0.1-0.1,0.1-0.1,0.2l0,0l0,2.7
					l0,0c0,0.1,0,0.2,0.1,0.2l1.5,1c-0.1,0.1-0.2,0.1-0.4,0.1l-4.2,0.3c-0.2,0-0.4,0.2-0.4,0.4v1.8v0l0,3.3c0,0.2,0.2,0.4,0.4,0.4
					l4.2,0.3c0.1,0,0.3,0.1,0.4,0.2l-1.4,1c-0.1,0.1-0.1,0.1-0.1,0.2l0,0l0,2.7l0,0c0,0.1,0.1,0.2,0.1,0.2l3.2,1.8
					c0.2,0.1,0.5,0.1,0.7,0l3.2-1.5c0.2-0.1,0.5-0.1,0.7,0c0.8,0.2,1.6,0.4,2.5,0.6c0.2,0,0.4,0.2,0.5,0.4l0.4,2.1
					c0,0.2,0.3,0.4,0.5,0.4h4.7c0.2,0,0.4-0.2,0.5-0.4l0.4-2.1c0-0.2,0.2-0.4,0.5-0.4c0.9-0.1,1.7-0.3,2.5-0.6c0.2-0.1,0.5,0,0.7,0
					l3.2,1.5c0.2,0.1,0.5,0.1,0.7,0l3.2-1.8c0.1-0.1,0.1-0.1,0.1-0.2l0,0l0-2.7l0,0c0-0.1,0-0.1-0.1-0.2l-1.5-1
					c0.1-0.1,0.2-0.1,0.4-0.1l4.2-0.3c0.2,0,0.4-0.2,0.4-0.4l0-2.7c0,0,0,0,0,0v-2.4c0-0.2-0.2-0.4-0.4-0.4l-4.2-0.3
					c-0.1,0-0.3-0.1-0.4-0.2l1.4-1c0.1-0.1,0.1-0.1,0.1-0.2l0,0l0-2.7l0,0C170.6,83.5,170.6,83.4,170.5,83.3z M149.1,90.5
					c0.2-0.8,0.9-1.5,2.1-2.2c3-1.7,7.7-1.7,10.7,0c1.1,0.6,1.8,1.3,2.1,2c-0.3,0.9-1,1.7-2.1,2.4c-3,1.7-7.7,1.7-10.7,0
					C150.1,92,149.4,91.3,149.1,90.5z"/>
			</g>
			<path class="st3" d="M144.2,91.8c-0.1-0.2-0.4-0.4-0.6-0.4l-4.2-0.3c-0.2,0-0.4-0.2-0.4-0.4v-0.6l0,3.3c0,0.2,0.2,0.4,0.4,0.4
				l4.2,0.3c0.1,0,0.3,0.1,0.4,0.2l1.1-0.8c0.2-0.1,0.2-0.4,0-0.5C144.7,92.7,144.4,92.2,144.2,91.8z M142.4,86.3L142.4,86.3
				c0,0.1,0,0.2,0.1,0.2l1.5,1c0.1-0.1,0.2-0.1,0.2-0.2c0.2-0.4,0.5-0.8,0.9-1.2c0.1-0.2,0.1-0.4,0-0.5l-2.5-1.8
				c-0.1-0.1-0.1-0.1-0.1-0.2L142.4,86.3z"/>
			<g>
				<path class="st4" d="M174,90.8c0,0.2-0.2,0.4-0.4,0.4l-4.2,0.3c-0.1,0-0.1,0-0.2,0.1l0,2.7c0.1,0,0.1-0.1,0.2-0.1l4.2-0.3
					c0.2,0,0.4-0.2,0.4-0.4L174,90.8z M170.6,83.6L170.6,83.6C170.6,83.6,170.6,83.6,170.6,83.6c0,0.1,0,0.1-0.1,0.2
					c0,0,0,0-0.1,0.1l-2.5,1.8c0,0,0,0-0.1,0.1c0,0-0.1,0.1-0.1,0.2c0,0,0,0.1,0,0.1c0,0,0,0,0,0.1c0,0.1,0,0.1,0.1,0.1
					c0,0,0,0,0,0.1c0.3,0.4,0.6,0.8,0.8,1.2c0,0.1,0.1,0.2,0.2,0.2l1.4-1c0.1-0.1,0.1-0.1,0.1-0.2l0,0L170.6,83.6z M170.6,95.6
					c0,0.1-0.1,0.1-0.1,0.2l-3.2,1.8c-0.1,0.1-0.3,0.1-0.5,0.1l0,2.7c0.2,0,0.4,0,0.5-0.1l3.2-1.8c0.1-0.1,0.1-0.1,0.1-0.2
					L170.6,95.6z M149.9,96.1c-0.1,0-0.2,0-0.3,0.1l-3.2,1.5c-0.1,0-0.2,0.1-0.3,0.1l0,2.7c0.1,0,0.2,0,0.3-0.1l3.2-1.5
					c0.1,0,0.2-0.1,0.3-0.1L149.9,96.1z M159.2,99.5c-0.1,0.1-0.2,0.2-0.4,0.2l-4.7,0c-0.1,0-0.2,0-0.3-0.1l0,2.7
					c0.1,0.1,0.2,0.1,0.3,0.1h4.6c0.2,0,0.3-0.1,0.4-0.2L159.2,99.5z"/>
			</g>
			<g>
				<path id="XMLID_00000177480112911367828420000004850206660383446409_" class="st5" d="M166.6,81.5l-3.2,1.5
					c-0.2,0.1-0.5,0.1-0.7,0c-0.8-0.2-1.6-0.4-2.5-0.6c-0.2,0-0.4-0.2-0.5-0.4l-0.4-2.1c0-0.2-0.3-0.4-0.5-0.4h-4.7
					c-0.2,0-0.4,0.2-0.5,0.4l-0.4,2.1c0,0.2-0.2,0.4-0.5,0.4c-0.9,0.1-1.7,0.3-2.5,0.6c-0.2,0.1-0.5,0-0.7,0l-3.2-1.5
					c-0.2-0.1-0.5-0.1-0.7,0l-3.2,1.8c-0.2,0.1-0.2,0.3,0,0.4l2.5,1.8c0.2,0.1,0.2,0.4,0,0.5c-0.4,0.4-0.7,0.8-0.9,1.2
					c-0.1,0.2-0.4,0.4-0.6,0.4l-4.2,0.3c-0.2,0-0.4,0.2-0.4,0.4v2.4c0,0.2,0.2,0.4,0.4,0.4l4.2,0.3c0.2,0,0.5,0.2,0.6,0.4
					c0.2,0.4,0.5,0.8,0.9,1.2c0.1,0.2,0.1,0.4,0,0.5l-2.5,1.8c-0.2,0.1-0.2,0.3,0,0.4l3.2,1.8c0.2,0.1,0.5,0.1,0.7,0l3.2-1.5
					c0.2-0.1,0.5-0.1,0.7,0c0.8,0.2,1.6,0.4,2.5,0.6c0.2,0,0.4,0.2,0.5,0.4l0.4,2.1c0,0.2,0.3,0.4,0.5,0.4h4.7
					c0.2,0,0.4-0.2,0.5-0.4l0.4-2.1c0-0.2,0.2-0.4,0.5-0.4c0.9-0.1,1.7-0.3,2.5-0.6c0.2-0.1,0.5,0,0.7,0l3.2,1.5
					c0.2,0.1,0.5,0.1,0.7,0l3.2-1.8c0.2-0.1,0.2-0.3,0-0.4l-2.5-1.8c-0.2-0.1-0.2-0.4,0-0.5c0.4-0.4,0.7-0.8,0.9-1.2
					c0.1-0.2,0.4-0.4,0.6-0.4l4.2-0.3c0.2,0,0.4-0.2,0.4-0.4v-2.4c0-0.2-0.2-0.4-0.4-0.4l-4.2-0.3c-0.2,0-0.5-0.2-0.6-0.4
					c-0.2-0.4-0.5-0.8-0.9-1.2c-0.1-0.2-0.1-0.4,0-0.5l2.5-1.8c0.2-0.1,0.2-0.3,0-0.4l-3.2-1.8C167.1,81.4,166.8,81.4,166.6,81.5z
					 M161.8,86.5c3,1.7,3,4.5,0,6.2c-3,1.7-7.7,1.7-10.7,0c-3-1.7-3-4.5,0-6.2C154.1,84.8,158.9,84.8,161.8,86.5z"/>
			</g>
		</g>
		<g id="Gear_00000087376028351967574990000016344367432230486697_">
			<g>
				<path class="st2" d="M78,83.3l-3.2-1.8c-0.2-0.1-0.5-0.1-0.7,0L71,83c-0.2,0.1-0.5,0.1-0.7,0c-0.8-0.2-1.6-0.4-2.5-0.6
					c-0.2,0-0.4-0.2-0.5-0.4l-0.4-2.1c0-0.2-0.3-0.4-0.5-0.4h-4.7c-0.2,0-0.4,0.2-0.5,0.4L60.9,82c0,0.2-0.2,0.4-0.5,0.4
					c-0.9,0.1-1.7,0.3-2.5,0.6c-0.2,0.1-0.5,0-0.7,0L54,81.5c-0.2-0.1-0.5-0.1-0.7,0l-3.2,1.8C50,83.4,50,83.5,50,83.6l0,0l0,2.7
					l0,0c0,0.1,0,0.2,0.1,0.2l1.5,1c-0.1,0.1-0.2,0.1-0.4,0.1L47,88c-0.2,0-0.4,0.2-0.4,0.4v1.8v0l0,3.3c0,0.2,0.2,0.4,0.4,0.4
					l4.2,0.3c0.1,0,0.3,0.1,0.4,0.2l-1.4,1C50,95.4,50,95.5,50,95.6l0,0l0,2.7l0,0c0,0.1,0.1,0.2,0.1,0.2l3.2,1.8
					c0.2,0.1,0.5,0.1,0.7,0l3.2-1.5c0.2-0.1,0.5-0.1,0.7,0c0.8,0.2,1.6,0.4,2.5,0.6c0.2,0,0.4,0.2,0.5,0.4l0.4,2.1
					c0,0.2,0.3,0.4,0.5,0.4h4.7c0.2,0,0.4-0.2,0.5-0.4l0.4-2.1c0-0.2,0.2-0.4,0.5-0.4c0.9-0.1,1.7-0.3,2.5-0.6c0.2-0.1,0.5,0,0.7,0
					l3.2,1.5c0.2,0.1,0.5,0.1,0.7,0l3.2-1.8c0.1-0.1,0.1-0.1,0.1-0.2l0,0l0-2.7l0,0c0-0.1,0-0.1-0.1-0.2l-1.5-1
					c0.1-0.1,0.2-0.1,0.4-0.1l4.2-0.3c0.2,0,0.4-0.2,0.4-0.4l0-2.7c0,0,0,0,0,0v-2.4c0-0.2-0.2-0.4-0.4-0.4L77,87.7
					c-0.1,0-0.3-0.1-0.4-0.2l1.4-1c0.1-0.1,0.1-0.1,0.1-0.2l0,0l0-2.7l0,0C78.2,83.5,78.1,83.4,78,83.3z M56.7,90.5
					c0.2-0.8,0.9-1.5,2.1-2.2c3-1.7,7.7-1.7,10.7,0c1.1,0.6,1.8,1.3,2.1,2c-0.3,0.9-1,1.7-2.1,2.4c-3,1.7-7.7,1.7-10.7,0
					C57.7,92,57,91.3,56.7,90.5z"/>
			</g>
			<path class="st3" d="M51.8,91.8c-0.1-0.2-0.4-0.4-0.6-0.4L47,91.2c-0.2,0-0.4-0.2-0.4-0.4v-0.6l0,3.3c0,0.2,0.2,0.4,0.4,0.4
				l4.2,0.3c0.1,0,0.3,0.1,0.4,0.2l1.1-0.8c0.2-0.1,0.2-0.4,0-0.5C52.3,92.7,52,92.2,51.8,91.8z M50,86.3L50,86.3
				c0,0.1,0,0.2,0.1,0.2l1.5,1c0.1-0.1,0.2-0.1,0.2-0.2c0.2-0.4,0.5-0.8,0.9-1.2c0.1-0.2,0.1-0.4,0-0.5l-2.5-1.8
				C50,83.7,50,83.7,50,83.6L50,86.3z"/>
			<g>
				<path class="st4" d="M81.6,90.8c0,0.2-0.2,0.4-0.4,0.4L77,91.4c-0.1,0-0.1,0-0.2,0.1l0,2.7c0.1,0,0.1-0.1,0.2-0.1l4.2-0.3
					c0.2,0,0.4-0.2,0.4-0.4L81.6,90.8z M78.2,83.6L78.2,83.6C78.2,83.6,78.2,83.6,78.2,83.6c0,0.1,0,0.1-0.1,0.2c0,0,0,0-0.1,0.1
					l-2.5,1.8c0,0,0,0-0.1,0.1c0,0-0.1,0.1-0.1,0.2c0,0,0,0.1,0,0.1c0,0,0,0,0,0.1c0,0.1,0,0.1,0.1,0.1c0,0,0,0,0,0.1
					c0.3,0.4,0.6,0.8,0.8,1.2c0,0.1,0.1,0.2,0.2,0.2l1.4-1c0.1-0.1,0.1-0.1,0.1-0.2l0,0L78.2,83.6z M78.2,95.6
					c0,0.1-0.1,0.1-0.1,0.2l-3.2,1.8c-0.1,0.1-0.3,0.1-0.5,0.1l0,2.7c0.2,0,0.4,0,0.5-0.1l3.2-1.8c0.1-0.1,0.1-0.1,0.1-0.2
					L78.2,95.6z M57.5,96.1c-0.1,0-0.2,0-0.3,0.1L54,97.7c-0.1,0-0.2,0.1-0.3,0.1l0,2.7c0.1,0,0.2,0,0.3-0.1l3.2-1.5
					c0.1,0,0.2-0.1,0.3-0.1L57.5,96.1z M66.8,99.5c-0.1,0.1-0.2,0.2-0.4,0.2l-4.7,0c-0.1,0-0.2,0-0.3-0.1l0,2.7
					c0.1,0.1,0.2,0.1,0.3,0.1h4.6c0.2,0,0.3-0.1,0.4-0.2L66.8,99.5z"/>
			</g>
			<g>
				<path id="XMLID_00000138539796322363668520000012607118557589596569_" class="st5" d="M74.2,81.5L71,83c-0.2,0.1-0.5,0.1-0.7,0
					c-0.8-0.2-1.6-0.4-2.5-0.6c-0.2,0-0.4-0.2-0.5-0.4l-0.4-2.1c0-0.2-0.3-0.4-0.5-0.4h-4.7c-0.2,0-0.4,0.2-0.5,0.4L60.9,82
					c0,0.2-0.2,0.4-0.5,0.4c-0.9,0.1-1.7,0.3-2.5,0.6c-0.2,0.1-0.5,0-0.7,0L54,81.5c-0.2-0.1-0.5-0.1-0.7,0l-3.2,1.8
					c-0.2,0.1-0.2,0.3,0,0.4l2.5,1.8c0.2,0.1,0.2,0.4,0,0.5c-0.4,0.4-0.7,0.8-0.9,1.2c-0.1,0.2-0.4,0.4-0.6,0.4L47,88
					c-0.2,0-0.4,0.2-0.4,0.4v2.4c0,0.2,0.2,0.4,0.4,0.4l4.2,0.3c0.2,0,0.5,0.2,0.6,0.4c0.2,0.4,0.5,0.8,0.9,1.2
					c0.1,0.2,0.1,0.4,0,0.5l-2.5,1.8c-0.2,0.1-0.2,0.3,0,0.4l3.2,1.8c0.2,0.1,0.5,0.1,0.7,0l3.2-1.5c0.2-0.1,0.5-0.1,0.7,0
					c0.8,0.2,1.6,0.4,2.5,0.6c0.2,0,0.4,0.2,0.5,0.4l0.4,2.1c0,0.2,0.3,0.4,0.5,0.4h4.7c0.2,0,0.4-0.2,0.5-0.4l0.4-2.1
					c0-0.2,0.2-0.4,0.5-0.4c0.9-0.1,1.7-0.3,2.5-0.6c0.2-0.1,0.5,0,0.7,0l3.2,1.5c0.2,0.1,0.5,0.1,0.7,0l3.2-1.8
					c0.2-0.1,0.2-0.3,0-0.4l-2.5-1.8c-0.2-0.1-0.2-0.4,0-0.5c0.4-0.4,0.7-0.8,0.9-1.2c0.1-0.2,0.4-0.4,0.6-0.4l4.2-0.3
					c0.2,0,0.4-0.2,0.4-0.4v-2.4c0-0.2-0.2-0.4-0.4-0.4L77,87.7c-0.2,0-0.5-0.2-0.6-0.4c-0.2-0.4-0.5-0.8-0.9-1.2
					c-0.1-0.2-0.1-0.4,0-0.5l2.5-1.8c0.2-0.1,0.2-0.3,0-0.4l-3.2-1.8C74.7,81.4,74.4,81.4,74.2,81.5z M69.4,86.5c3,1.7,3,4.5,0,6.2
					c-3,1.7-7.7,1.7-10.7,0c-3-1.7-3-4.5,0-6.2C61.7,84.8,66.5,84.8,69.4,86.5z"/>
			</g>
		</g>
		<g id="Gear_00000026880211178656585560000003077532080656647298_">
			<g>
				<path class="st6" d="M80.9,92.2L80.9,92.2l0,5.8h0c0,0.2,0.1,0.3,0.3,0.4l3.1,2.2c-0.2,0.2-0.5,0.3-0.8,0.3l-8.9,0.6
					c-0.5,0-0.8,0.4-0.8,0.9v5c0,0,0,0,0,0l0,5.8c0,0.5,0.4,0.9,0.8,0.9l8.9,0.6c0.3,0,0.5,0.1,0.8,0.3l-3.1,2.2
					c-0.2,0.1-0.3,0.3-0.3,0.4h0l0,5.8l0,0c0,0.2,0.1,0.3,0.3,0.4l6.7,3.9c0.4,0.2,1.1,0.3,1.5,0.1l6.8-3.1c0.4-0.2,1.1-0.2,1.5-0.1
					c1.7,0.5,3.5,0.9,5.3,1.3c0.5,0.1,0.9,0.5,1,1l0.8,4.5c0.1,0.5,0.5,0.8,1,0.8h9.8c0.5,0,0.9-0.4,1-0.8l0.8-4.5
					c0.1-0.5,0.5-0.9,1-1c1.8-0.3,3.6-0.7,5.3-1.3c0.4-0.1,1.1-0.1,1.5,0.1l6.8,3.1c0.4,0.2,1.1,0.2,1.5-0.1l6.7-3.9
					c0.2-0.1,0.3-0.3,0.3-0.5h0l0-5.8h0c0-0.2-0.1-0.3-0.3-0.4l-3.1-2.2c0.2-0.2,0.5-0.3,0.8-0.3l8.9-0.6c0.5,0,0.8-0.4,0.8-0.9l0-7
					c0,0,0,0,0,0v-3.8c0-0.5-0.4-0.9-0.8-0.9l-8.9-0.6c-0.3,0-0.5-0.1-0.8-0.3l3.1-2.2c0.2-0.1,0.3-0.3,0.3-0.4h0l0-5.8h0
					c0-0.2-0.1-0.3-0.3-0.5l-6.7-3.9c-0.4-0.2-1.1-0.3-1.5-0.1l-6.8,3.1c-0.4,0.2-1.1,0.2-1.5,0.1c-1.7-0.5-3.5-0.9-5.3-1.3
					c-0.5-0.1-0.9-0.5-1-1l-0.8-4.5c-0.1-0.5-0.5-0.8-1-0.8h-9.8c-0.5,0-0.9,0.4-1,0.8l-0.8,4.5c-0.1,0.5-0.5,0.9-1,1
					c-1.8,0.3-3.6,0.7-5.3,1.3c-0.4,0.1-1.1,0.1-1.5-0.1l-6.8-3.1c-0.4-0.2-1.1-0.2-1.5,0.1l-6.7,3.9C81,91.8,80.9,92,80.9,92.2z
					 M126.7,114.1c-8.8,5.1-23.2,5.1-32,0c-3.5-2-5.6-4.5-6.3-7.1c1-2.1,3.1-4.2,6.3-6c8.8-5.1,23.2-5.1,32,0c3.5,2,5.5,4.2,6.2,6.5
					C132,109.9,129.9,112.2,126.7,114.1z"/>
			</g>
			<g class="st7">
				<path d="M73.7,113.1c0,0.5,0.4,0.9,0.8,0.9l8.9,0.6c0.1,0,0.3,0.1,0.4,0.1l0-5.8c-0.1-0.1-0.3-0.1-0.4-0.1l-8.9-0.6
					c-0.4,0-0.8-0.4-0.8-0.8L73.7,113.1z M80.9,98L80.9,98c0,0.2,0.1,0.3,0.3,0.4l3.1,2.2c0.2-0.1,0.3-0.3,0.4-0.5
					c0.5-0.9,1.1-1.7,1.8-2.5c0,0,0.1-0.1,0.1-0.1c0.1-0.1,0.1-0.2,0.2-0.3c0,0,0-0.1,0-0.1c0-0.1,0-0.1,0-0.2
					c0-0.1-0.1-0.2-0.2-0.3c0,0-0.1-0.1-0.1-0.1l-5.3-3.8c-0.1,0-0.1-0.1-0.1-0.1c-0.1-0.1-0.1-0.1-0.1-0.2c0-0.1,0-0.1,0-0.2l0,0
					L80.9,98z M80.9,123.4c0,0.2,0.1,0.3,0.3,0.4l6.7,3.9c0.3,0.2,0.7,0.2,1,0.2l0-5.8c-0.4,0-0.8,0-1-0.2l-6.7-3.9
					c-0.2-0.1-0.3-0.3-0.3-0.4L80.9,123.4z M124.6,124.4c0.2,0,0.5,0.1,0.7,0.2l6.8,3.1c0.2,0.1,0.4,0.1,0.6,0.1l0-5.8
					c-0.2,0-0.4,0-0.6-0.1l-6.8-3.1c-0.2-0.1-0.4-0.1-0.7-0.2L124.6,124.4z M104.9,131.5c0.2,0.3,0.5,0.5,0.9,0.5h9.8
					c0.2,0,0.4-0.1,0.6-0.2l0-5.8c-0.2,0.1-0.4,0.2-0.6,0.2l-9.8,0c-0.3,0-0.6-0.2-0.8-0.4L104.9,131.5z"/>
			</g>
			<g>
				<path id="XMLID_00000052785154362531459540000001874375052816255374_" class="st6" d="M87.9,87.8l-6.7,3.9
					c-0.4,0.2-0.4,0.6,0,0.9l5.3,3.8c0.4,0.3,0.4,0.7,0.1,1.1c-0.8,0.8-1.4,1.7-1.9,2.6c-0.2,0.4-0.7,0.8-1.2,0.8l-8.9,0.6
					c-0.5,0-0.8,0.4-0.8,0.9v5c0,0.5,0.4,0.9,0.8,0.9l8.9,0.6c0.5,0,1,0.4,1.2,0.8c0.5,0.9,1.1,1.8,1.9,2.6c0.3,0.3,0.3,0.8-0.1,1.1
					l-5.3,3.8c-0.4,0.3-0.4,0.7,0,0.9l6.7,3.9c0.4,0.2,1.1,0.3,1.5,0.1l6.8-3.1c0.4-0.2,1.1-0.2,1.5-0.1c1.7,0.5,3.5,0.9,5.3,1.3
					c0.5,0.1,0.9,0.5,1,1l0.8,4.5c0.1,0.5,0.5,0.8,1,0.8h9.8c0.5,0,0.9-0.4,1-0.8l0.8-4.5c0.1-0.5,0.5-0.9,1-1
					c1.8-0.3,3.6-0.7,5.3-1.3c0.4-0.1,1.1-0.1,1.5,0.1l6.8,3.1c0.4,0.2,1.1,0.2,1.5-0.1l6.7-3.9c0.4-0.2,0.4-0.6,0-0.9l-5.3-3.8
					c-0.4-0.3-0.4-0.7-0.1-1.1c0.8-0.8,1.4-1.7,1.9-2.6c0.2-0.4,0.7-0.8,1.2-0.8l8.9-0.6c0.5,0,0.8-0.4,0.8-0.9v-5
					c0-0.5-0.4-0.9-0.8-0.9l-8.9-0.6c-0.5,0-1-0.4-1.2-0.8c-0.5-0.9-1.1-1.8-1.9-2.6c-0.3-0.3-0.3-0.8,0.1-1.1l5.3-3.8
					c0.4-0.3,0.4-0.7,0-0.9l-6.7-3.9c-0.4-0.2-1.1-0.3-1.5-0.1l-6.8,3.1c-0.4,0.2-1.1,0.2-1.5,0.1c-1.7-0.5-3.5-0.9-5.3-1.3
					c-0.5-0.1-0.9-0.5-1-1l-0.8-4.5c-0.1-0.5-0.5-0.8-1-0.8h-9.8c-0.5,0-0.9,0.4-1,0.8l-0.8,4.5c-0.1,0.5-0.5,0.9-1,1
					c-1.8,0.3-3.6,0.7-5.3,1.3c-0.4,0.1-1.1,0.1-1.5-0.1l-6.8-3.1C88.9,87.6,88.3,87.6,87.9,87.8z M126.7,95.6
					c8.8,5.1,8.8,13.4,0,18.5c-8.8,5.1-23.2,5.1-32,0s-8.8-13.4,0-18.5C103.5,90.5,117.8,90.5,126.7,95.6z"/>
			</g>
			<g class="st8">
				<path id="XMLID_00000169550909348658233570000009056907293934783930_" class="st9" d="M87.9,87.8l-6.7,3.9
					c-0.4,0.2-0.4,0.6,0,0.9l5.3,3.8c0.4,0.3,0.4,0.7,0.1,1.1c-0.8,0.8-1.4,1.7-1.9,2.6c-0.2,0.4-0.7,0.8-1.2,0.8l-8.9,0.6
					c-0.5,0-0.8,0.4-0.8,0.9v5c0,0.5,0.4,0.9,0.8,0.9l8.9,0.6c0.5,0,1,0.4,1.2,0.8c0.5,0.9,1.1,1.8,1.9,2.6c0.3,0.3,0.3,0.8-0.1,1.1
					l-5.3,3.8c-0.4,0.3-0.4,0.7,0,0.9l6.7,3.9c0.4,0.2,1.1,0.3,1.5,0.1l6.8-3.1c0.4-0.2,1.1-0.2,1.5-0.1c1.7,0.5,3.5,0.9,5.3,1.3
					c0.5,0.1,0.9,0.5,1,1l0.8,4.5c0.1,0.5,0.5,0.8,1,0.8h9.8c0.5,0,0.9-0.4,1-0.8l0.8-4.5c0.1-0.5,0.5-0.9,1-1
					c1.8-0.3,3.6-0.7,5.3-1.3c0.4-0.1,1.1-0.1,1.5,0.1l6.8,3.1c0.4,0.2,1.1,0.2,1.5-0.1l6.7-3.9c0.4-0.2,0.4-0.6,0-0.9l-5.3-3.8
					c-0.4-0.3-0.4-0.7-0.1-1.1c0.8-0.8,1.4-1.7,1.9-2.6c0.2-0.4,0.7-0.8,1.2-0.8l8.9-0.6c0.5,0,0.8-0.4,0.8-0.9v-5
					c0-0.5-0.4-0.9-0.8-0.9l-8.9-0.6c-0.5,0-1-0.4-1.2-0.8c-0.5-0.9-1.1-1.8-1.9-2.6c-0.3-0.3-0.3-0.8,0.1-1.1l5.3-3.8
					c0.4-0.3,0.4-0.7,0-0.9l-6.7-3.9c-0.4-0.2-1.1-0.3-1.5-0.1l-6.8,3.1c-0.4,0.2-1.1,0.2-1.5,0.1c-1.7-0.5-3.5-0.9-5.3-1.3
					c-0.5-0.1-0.9-0.5-1-1l-0.8-4.5c-0.1-0.5-0.5-0.8-1-0.8h-9.8c-0.5,0-0.9,0.4-1,0.8l-0.8,4.5c-0.1,0.5-0.5,0.9-1,1
					c-1.8,0.3-3.6,0.7-5.3,1.3c-0.4,0.1-1.1,0.1-1.5-0.1l-6.8-3.1C88.9,87.6,88.3,87.6,87.9,87.8z M126.7,95.6
					c8.8,5.1,8.8,13.4,0,18.5c-8.8,5.1-23.2,5.1-32,0s-8.8-13.4,0-18.5C103.5,90.5,117.8,90.5,126.7,95.6z"/>
			</g>
		</g>
	</g>
	<g id="Character">
		<g id="Character_00000080910069993554688160000015403134843905292724_">
			<g id="Bottom_00000054956587851001720860000003676970090990815648_">
				<g>
					<path class="st10" d="M98.2,101.3c0.4-4.1-0.2-4.9,0.3-11.4l0,0c0.1-1.7,0.2-3.4,0.3-5c0.5-5.3,1.3-7.1,1.4-8.1
						c0,0,0.3-8.2,0.9-19.8c0.3-5.4,1.9-7.1,3.2-9.9l15,0.3c1.5,7.2,1.7,22.8,1.5,30.1c-0.1,3.7-1.7,20.1-1.8,20.5
						c-0.1,1.6,0,2.3,0.6,3c1.3,1.5,3.2,2.9,4.9,4.2c-0.3,0.6-2.6,0.9-3.6,0.4c-1.6-0.8-3.1-2-3.7-2.5c-1.4-1.1-3.1-1.9-3.1-3.5
						c0-0.2-0.1-0.2,0-0.3c0-0.9-1.9-11-2-14.1c-0.1-2.7,0.3-7.2,0.3-7.2L111,66.7c0,0-1.2,6.7-2.4,11.2c-1,3.7-2.5,10-3.6,14.6l0,0
						c-1.1,5.3-2,6.8-2.3,9.4c-0.1,0.6-1.1,6.8-1.4,8.2c-0.3,1.4-3.4,1.4-3.6-1.1C97.5,107.4,98.1,102.1,98.2,101.3z"/>
					<path id="XMLID_00000139272448598022659970000015179267659408721323_" class="st11" d="M111,66.7l1.4-8.2c0,0,4.9-0.5,6.7-2.1
						c0,0-2.3,3.1-5.6,3.6l-1.5,6.8l0.5,11.3L111,66.7z"/>
				</g>
				<g>
					<path class="st2" d="M127.1,107.2c0.1,0,0.2,0.9-0.3,1.3c-0.5,0.5-2.1,1.2-4.2,0.9c-2.1-0.3-3.2-0.9-4-1.7
						c-0.8-0.7-2-1.7-2.9-1.9c-0.9-0.2-1.8-0.6-2.1-0.9c-0.3-0.3-0.2-1.5-0.2-1.5L127.1,107.2z"/>
					<path id="XMLID_00000115499869416042582180000005610612558873628600_" class="st4" d="M114.1,98.9c0,0-0.2,0-0.2,0.3
						c-0.1,0.3-0.1,1.3-0.3,1.8c-0.2,0.8-0.3,2.3-0.2,2.9c0.1,0.6,1.5,1.1,2.4,1.4c0.9,0.4,2,1.1,2.9,1.9c1,0.8,3,1.6,4.4,1.7
						c2.1,0.1,3.4-0.5,3.8-1.2c0.5-0.9,0.4-1.8-1.9-2.9c-0.4-0.2-2-1.2-2.6-1.5c-0.6-0.4-1.1-0.8-1.6-1.2c-0.3-0.2-0.5-0.5-0.7-0.7
						c-0.2-0.2-0.5-0.5-0.6-0.8c0-0.1,0-0.1-0.1-0.2c-0.1-0.2-0.1-0.4-0.2-0.6c0-0.2-0.1-0.5-0.2-0.6c-0.2-0.1-0.6-0.1-0.9-0.1
						c-0.3,0-1,0.2-1.3,0.2c-0.5,0.1-0.7,0.3-0.9,0.6c-0.2,0.3-0.2,0.6-0.2,0.9c0,0.1,0,0.3,0,0.4c0,0.1,0,0.2-0.1,0.1
						c-0.1,0-0.2-0.2-0.2-0.3c-0.1-0.2-0.1-0.3-0.2-0.5c-0.1-0.2-0.2-0.4-0.3-0.5c-0.1-0.1-0.2-0.3-0.4-0.4
						c-0.1-0.1-0.3-0.2-0.4-0.3C114.2,99.3,114.1,99,114.1,98.9z"/>
					<path class="st9" d="M125.4,105c-3,0.2-4.3,2.3-4.4,3.5c0.7,0.3,1.5,0.5,2.1,0.5c2.1,0.1,3.5-0.5,3.9-1.2
						C127.5,106.9,127.5,105.8,125.4,105z"/>
					<g>
						<g>
							<path class="st12" d="M120.6,105.3C120.6,105.3,120.5,105.3,120.6,105.3c-0.2-0.1-0.2-0.2-0.1-0.2c0.4-0.5,1.9-1.5,3-1.3
								c0.1,0,0.1,0.1,0.1,0.2c0,0.1-0.1,0.1-0.2,0.1c-1-0.1-2.4,0.8-2.8,1.2C120.7,105.3,120.6,105.3,120.6,105.3z"/>
						</g>
						<g>
							<path class="st12" d="M119.3,104.5C119.3,104.5,119.2,104.5,119.3,104.5c-0.2-0.1-0.2-0.2-0.1-0.2c0.4-0.5,1.9-1.5,3-1.3
								c0.1,0,0.1,0.1,0.1,0.2c0,0.1-0.1,0.1-0.2,0.1c-1-0.1-2.4,0.8-2.8,1.2C119.4,104.5,119.3,104.5,119.3,104.5z"/>
						</g>
						<g>
							<path class="st12" d="M118.1,103.7C118.1,103.7,118.1,103.6,118.1,103.7c-0.2-0.1-0.2-0.2-0.1-0.2c0.4-0.5,1.9-1.5,3-1.3
								c0.1,0,0.1,0.1,0.1,0.2c0,0.1-0.1,0.1-0.2,0.1c-1-0.1-2.4,0.8-2.8,1.2C118.2,103.6,118.2,103.7,118.1,103.7z"/>
						</g>
						<g>
							<path class="st12" d="M117,102.8C116.9,102.8,116.9,102.8,117,102.8c-0.2-0.1-0.2-0.2-0.1-0.2c0.6-0.7,2.2-1.5,3.3-1.4
								c0.1,0,0.1,0.1,0.1,0.2c0,0.1-0.1,0.1-0.2,0.1c-1-0.1-2.5,0.6-3,1.2C117,102.8,117,102.8,117,102.8z"/>
						</g>
					</g>
				</g>
				<g>
					<path class="st2" d="M102.3,111c-0.1,1.5-0.4,2.5-0.9,3.3s-1.6,1.1-2.6,0.8c-1-0.3-2.3-1-2.6-2.3c-0.3-1.3-0.4-2.2-0.2-3.6
						L102.3,111z"/>
					<path id="XMLID_00000132779565209716549860000009087330431894839433_" class="st4" d="M98.3,100.1c-0.4,0-0.6,2.1-0.9,4.1
						c-0.3,2.1-1,3-1.2,4.8c-0.3,2,0,2.9,0.7,4.2c0.7,1.2,3.2,2.5,4.4,0.8c1-1.4,1.1-3,1.1-5c-0.1-2.1,0.1-3.5,0.2-5.1
						c0.1-1.5,0.7-3.2,0.3-3.4c-0.1,0.3-0.1,0.6-0.2,0.8c0,0.3-0.2,0.6-0.3,0.9c0,0.1-0.1,0.2-0.2,0c0-0.1,0-0.3,0-0.4
						c0.1-0.6-0.2-0.6-0.4-0.7c-0.3-0.1-1.6-0.3-1.9-0.3c-0.3,0-1.4-0.1-1.6,0.1c-0.1,0.1-0.1,0.3-0.2,0.6c0,0.3-0.1,0.5-0.1,0.4
						c0-0.2,0-0.7,0-0.8c0-0.1,0-0.4,0-0.5C98.3,100.4,98.3,100.2,98.3,100.1z"/>
					<path class="st9" d="M96.1,110.1c-0.1,1.3,0.2,2.1,0.7,3.1c0.7,1.2,3.4,2.5,4.6,0.8c0.6-0.9,0.8-1.9,0.9-2.9
						C101.6,109.7,97.2,109,96.1,110.1z"/>
					<g>
						<g>
							<path class="st12" d="M101.5,108.8C101.4,108.8,101.4,108.8,101.5,108.8c-0.1,0-2-0.9-3.9-0.5c-0.1,0-0.2,0-0.2-0.1
								c0-0.1,0-0.2,0.1-0.2c2-0.4,4,0.4,4,0.5c0.1,0,0.1,0.1,0.1,0.2C101.6,108.8,101.5,108.8,101.5,108.8z"/>
						</g>
						<g>
							<path class="st12" d="M97.7,106.8c-0.1,0-0.1,0-0.1-0.1c0-0.1,0-0.2,0.1-0.2c1.9-0.6,3.9,0.4,4,0.4c0.1,0,0.1,0.1,0.1,0.2
								c0,0.1-0.1,0.1-0.2,0.1C101.5,107.2,99.5,106.3,97.7,106.8C97.8,106.8,97.7,106.8,97.7,106.8z"/>
						</g>
						<g>
							<path class="st12" d="M97.8,105.4c-0.1,0-0.1,0-0.1-0.1c0-0.1,0-0.2,0.1-0.2c2.1-0.7,4,0.4,4.1,0.4c0.1,0,0.1,0.1,0,0.2
								c0,0.1-0.1,0.1-0.2,0C101.7,105.8,99.8,104.8,97.8,105.4C97.9,105.4,97.8,105.4,97.8,105.4z"/>
						</g>
						<g>
							<path class="st13" d="M97.9,104c-0.1,0-0.1,0-0.1-0.1c0-0.1,0-0.2,0.1-0.2c1.9-0.7,4,0.4,4.1,0.5c0.1,0,0.1,0.1,0.1,0.2
								c0,0.1-0.1,0.1-0.2,0.1C101.9,104.5,99.8,103.4,97.9,104C98,104,98,104,97.9,104z"/>
						</g>
					</g>
				</g>
				<path class="st4" d="M103.3,47.1c-1.8,3.2-2.9,5.8-3.2,15.5c-0.4,9.6-0.5,12.6-0.6,13.7c-0.1,1.2-1.2,2.9-1.5,8.3
					C97.7,91.2,98,96.5,98,96.5s0.6,1,2.8,1.2c2,0.2,3.3-0.5,3.3-0.5s2.9-10.1,3.7-13.5c0.8-3.4,3.2-14.7,3.2-14.7l1.1,9.2
					c0,0-0.7,3.1-0.2,8.2c0.5,5,1.3,9,1.3,9s1.6,0.7,3.3,0.7c1.7,0,3-0.7,3-0.7s1.7-13.8,1.8-19.5c0.1-5.7,0-20.2-1.1-28.6
					L103.3,47.1z"/>
				<path class="st2" d="M113,58.1l-2,10.9l1.1,9.2l-0.4-9.3l1.8-8.9c1.4-0.3,4.5-1.9,5.4-4.2C116.8,57.9,113,58.1,113,58.1z
					 M106.7,51.5c0.3-0.9,0.5-1.8,0.8-2.7c-0.5,0.8-0.9,1.7-1.3,2.6s-0.6,1.8-0.9,2.7c-0.2,0.9-0.4,1.9-0.6,2.8
					c-0.1,0.9-0.3,1.9-0.3,2.9c0.2-0.9,0.5-1.9,0.7-2.8c0.2-0.9,0.5-1.8,0.7-2.8C106.2,53.4,106.5,52.5,106.7,51.5z M105.3,50.8
					c0.3-0.6,0.6-1.1,0.9-1.7c-0.5,0.4-0.9,0.9-1.3,1.4c-0.4,0.5-0.8,1.1-1.1,1.6c-0.3,0.6-0.6,1.2-0.8,1.8
					c-0.2,0.6-0.4,1.2-0.5,1.9l0.9-1.7c0.3-0.6,0.6-1.1,0.9-1.7C104.7,51.9,105,51.4,105.3,50.8z M103.4,87.3
					c-0.6,3-1.2,5.9-1.7,8.9c0.8-2.9,1.5-5.8,2.1-8.8c0.7-2.9,1.3-5.9,2-8.8c0.6-3,1-5.9,1.4-8.9c0.4-3,0.6-6,0.9-9
					c-0.5,3-0.9,6-1.4,8.9c-0.4,3-0.9,5.9-1.5,8.9C104.6,81.4,104,84.4,103.4,87.3z M119.3,72.7c0,1.3,0.1,2.6,0,3.9
					c-0.1,1.3-0.2,2.6-0.3,3.9l-0.3,3.9c-0.2,2.6-0.3,5.2-0.5,7.9c0.4-2.6,0.7-5.2,0.9-7.8c0.3-2.6,0.5-5.2,0.7-7.9
					c0-2.7-0.1-5.3-0.3-7.9c-0.2-2.6-0.4-5.2-0.8-7.8l0.3,7.9C119.2,70.1,119.3,71.4,119.3,72.7z"/>
			</g>
			<g id="Top_00000117667756960131487810000008393773544286119831_">
				<g id="Top_00000000213713848656834350000008550039244941743039_">
					<g id="Arm_00000128473494486695634080000008463530207528086173_">
						<path class="st10" d="M128.9,42.3c-2.3,2.1-3.8,1.5-5.4,0.1c-2.6-2.3-6.1-6.4-6.1-6.4s-1.7-5.9-0.3-8.6c3,0.3,3.7,1.4,6.3,5
							c1.6,2.2,3.3,4.6,3.3,4.6s3.9-2.4,4.6-3.2c0.7-0.8,1.2-1.3,1.6-2c0.4-0.6,1.2-1.3,1.5-1.7c0.8-0.8,1.6-1.4,2.4-2.2
							c0.1-0.1,0.1-0.1,0.2-0.1c0.3-0.1,0.4,0.3,0.4,0.5c0,0.3-0.1,0.5-0.3,0.8c-0.2,0.3-0.4,0.6-0.6,0.9c-0.1,0.1-0.3,0.3-0.2,0.4
							c0.1,0.1,0.3-0.1,0.4-0.2c0.3-0.2,0.6-0.4,0.8-0.7c0.7-0.6,1.4-1.2,2-1.7c0.1-0.1,0.2-0.2,0.3-0.2c0.4-0.2,0.7,0.3,0.5,0.8
							c-0.1,0.1-0.2,0.3-0.2,0.4c-0.3,0.4-0.6,0.7-0.9,1c-0.1,0.1-0.3,0.3-0.4,0.4c0,0-0.2,0.2-0.1,0.2c0,0,0.1,0,0.1,0
							c0.5-0.4,0.9-0.8,1.4-1.2c0.2-0.2,0.5-0.4,0.7-0.6c0.2-0.1,0.4-0.4,0.7-0.4c0.1,0,0.1,0.1,0.2,0.1c0.2,0.2,0.2,0.4,0.2,0.6
							c0,0.1-0.1,0.3-0.2,0.4c0,0.1-0.2,0.2-0.3,0.3c0.4-0.1,0.6,0.3,0.5,0.6c-0.2,0.5-0.5,0.8-1,1.2c-0.5,0.4-0.8,0.7-1.5,1.3
							c-0.2,0.1-0.2,0.3,0,0.2c0.2-0.1,0.3-0.2,0.5-0.3c0.2-0.1,0.2-0.2,0.5-0.3c0.3-0.2,0.7-0.6,0.9-0.6c0.2,0,0.3,0.2,0.3,0.4
							c0,0.1-0.1,0.2-0.1,0.3c-0.4,0.6-1,1.1-1.6,1.5c-0.5,0.3-1,0.7-1.5,1c-0.9,0.6-1.9,1.1-2.8,1.4
							C133.8,36.8,131.2,40.2,128.9,42.3z"/>
						<path class="st11" d="M136.6,31.6c0.7,0.7-0.1,1.9-0.6,2.5c-0.1,0.1-0.5,0.4-0.3,0c0.1-0.1,0.1-0.2,0.2-0.4
							c0.1-0.2,0.2-0.5,0.3-0.7c0.1-0.4,0.2-0.8,0.1-1.3c0-0.1,0-0.3,0.1-0.3C136.4,31.5,136.5,31.5,136.6,31.6
							C136.6,31.6,136.6,31.6,136.6,31.6z"/>
						<g>
							<path class="st11" d="M141.5,29.6c-0.9,0.7-1.8,1.5-2.6,2.4C139.9,31.3,140.8,30.5,141.5,29.6L141.5,29.6z"/>
						</g>
						<path class="st5" d="M117.2,27.2c2.6,0.3,3.6,0.9,6.5,4.9c1.4,1.9,3.2,4.5,3.2,4.5l3.5-2.2c0,0,0,1.1,1,2.4
							c0.8,1.2,1.7,1.5,1.7,1.5s-0.9,1.2-4.4,4.4c-2,1.8-3.9,0.8-4.9,0c-1.9-1.5-6.3-6.6-6.3-6.6C116.7,34.9,115.6,29.2,117.2,27.2z
							"/>
						<path class="st4" d="M126.9,36.7c-1.2,0.7-1.9,2-2.1,3c-0.4-2.2,1.8-3.5,1.8-3.5L126.9,36.7z"/>
					</g>
					<g id="Chest_00000067229194257919588070000003563029827811299975_">
						<path id="Chest_00000137828772667748072180000005495519080611498167_" class="st12" d="M107.8,27c-1.1,0.2-4.3,1.6-5.6,2.3
							c0,0-1.8,3.2-1.1,10.6c0.1,1.2,0.4,4.4,0.6,6.8c0.2,3.3,0.1,4.2,0,6c0,0,3.1,2.7,11.2,2.1c6.3-0.5,8.2-3.1,8.2-3.1
							s0-8.5-0.2-13.2c-0.2-6.1-2.1-9.7-3.4-10.7l-4.2-0.7L107.8,27z"/>
						<g>
							<path class="st4" d="M106.7,27l0,0.5c0,0,1.9,3.6,2,10.8s0,18.7,0,18.7s-4.9-0.1-8.2-2.7c0,0,0.6-6.2,0.5-9.1
								c-0.1-2.9,0.2-4.2-0.6-8.2c-0.8-4.1,1.6-8.3,1.6-8.3C103.3,28.2,104.2,27.9,106.7,27z"/>
							<path class="st4" d="M113.3,26.7l3.9,0.5c0,0,2.7,2.1,3.6,7.7s1.3,19.3,1.3,19.3c-0.6,0.3-2,0.9-2.7,1c0,0-0.3-6.7-0.6-12.9
								c-0.4-7.5-1-12-5.4-15.1L113.3,26.7z"/>
							<path class="st14" d="M107.9,36l0.1-0.2c-0.7-0.3-1.5-0.6-2.2-0.8c-0.1-2.2-0.2-4.5-0.4-6.7c0,2.2,0,4.5,0.1,6.8l0,0.1l0.1,0
								c0.7,0.3,1.3,0.5,2,0.7c-0.1,0.3-0.8,1.6-0.8,1.6c-0.3,0.6-0.6,1.2-0.9,1.9l0.1,0.1c0.8,0.7,1.5,1.4,2.3,2
								c-0.7-0.7-1.4-1.4-2.1-2.1C106.6,38.4,107.4,37,107.9,36z M120.6,37.1c-0.5-0.8-1-1.7-1.6-2.5l0.8-1.2l0-0.1
								c-0.7-2.2-2.1-4.1-3.7-5.8c1,1.4,2,2.8,2.7,4.3c0.2,0.5,0.4,1,0.6,1.5l-0.8,1.2l-0.1,0.1l0.1,0.1c0.5,0.8,1.1,1.6,1.7,2.5
								c-0.4,0.9-0.7,1.9-1,2.9c0.4-0.9,0.9-1.9,1.3-2.8L120.6,37.1L120.6,37.1z"/>
						</g>
					</g>
					<g>
						<g id="Head_00000100380709018811363540000006463651845303053465_">
							<g>
								<g id="XMLID_00000072278203506323208480000011794069310772338861_">
									<g id="XMLID_00000173156590615423581290000006954348610550120078_">
										<path class="st2" d="M105,14.6c0,0-1.2,0.1-1.6,1c-0.5,0.9-0.7,2.5,0.1,4.3c0.9,1.9,2.4,3.7,2.8,4.3c0.4,0.5,1,0.6,1,0.6
											l-0.3-2.4l-0.3-1.7c0,0,1.2-1.4,1.2-2.6c0-1.6-0.7-2.4-0.7-2.4L105,14.6z"/>
										<path class="st2" d="M113.6,16.6c-0.7-0.2-1.5-0.3-2.2-0.3c-0.7,0-1.4,0-2,0.1c-0.7,0-1.5,0-2.2,0.1c0,0-2.4-0.2-2.5-1.8
											c-0.1-0.8,0.3-1.4,0.3-1.5c0.3-0.4,0.7-1,1.1-1.3c0.9-0.8,1.8-1.2,3.1-1.4c0.9-0.2,1.8-0.1,2.7,0c0.6,0.1,1.2,0.1,1.8,0
											c0.4-0.1,0.9-0.4,0.9-0.8c0.5,0.5,0.7,1.3,0.4,2c0.6-0.1,1.2,0.3,1.4,0.9c0.2,0.6,0,1.1-0.3,1.7c0-0.1,0.3,0.4,0.3,0.4
											c0.2,0.3,0.2,0.6,0.2,0.9c0,0.4-0.4,0.8-0.8,1C115,16.8,114.3,16.9,113.6,16.6z"/>
										<path class="st10" d="M104.7,23.3c1.3,0.5,1.8-0.6,1.8-0.6l0.2,4.8c2.2,3.5,8.7,2.4,6.6-0.3l-0.1-1.4c0,0,0.4,0,1.1-0.2
											c1.7-0.5,2.1-1.6,2.2-2.8c0.2-1.9-0.1-4.6-1.1-7.5c-0.2-0.6-0.5-1.2-1.1-1.4c-1.4-0.5-2.5,0.5-4.3,1.5
											c-0.7,0.4-2.6,0.7-3.1,0.5c0.7,0.7,0.9,2.9,0.1,3.9c-0.1,0.3-0.3,0.5-0.4,0.7c-0.4,0.4-0.8-0.5-1.2-0.8
											c-0.4-0.3-1.7-0.5-2.1,0.7C102.9,21.6,103.5,22.9,104.7,23.3z"/>
										<path class="st11" d="M113.3,25.8c-1.5,0.1-2.7,0.1-3.8-0.3c-0.9-0.4-2.1-1.5-2.5-2.6c0.2,1.8,1,2.6,2.3,3.2
											c1.4,0.6,3,0.5,4,0.5L113.3,25.8z"/>
									</g>
									<g id="XMLID_00000178889814336680255300000011127172933215130544_">
										<path id="XMLID_00000117640364884842186470000018054386658318709938_" class="st2" d="M110.4,16.9l-1,0.8
											c-0.2-0.3-0.2-0.7,0.1-1C109.8,16.6,110.2,16.6,110.4,16.9z"/>
										<path id="XMLID_00000041263044539891485380000006194998639123765652_" class="st2" d="M115.2,16.8l-1.3-0.5
											c0.1-0.4,0.5-0.5,0.8-0.4C115.1,16.1,115.3,16.5,115.2,16.8z"/>
										<path class="st2" d="M110,18.7c0,0.3,0.3,0.5,0.6,0.5c0.3,0,0.5-0.3,0.5-0.6c0-0.3-0.3-0.5-0.6-0.5
											C110.2,18.1,110,18.4,110,18.7z"/>
										<path class="st2" d="M114.1,18.1c0,0.3,0.3,0.5,0.6,0.5c0.3,0,0.5-0.3,0.5-0.6c0-0.3-0.3-0.5-0.6-0.5
											C114.2,17.6,114,17.8,114.1,18.1z"/>
										<path id="XMLID_00000008871119160295074220000011295027548142171547_" class="st11" d="M112.2,17.6L113,21l1.8-0.9
											C114,19,113.2,18.2,112.2,17.6z"/>
										<path id="XMLID_00000030469138430483910260000001224786954044737961_" class="st15" d="M111.2,21.5l2.3,0.4
											c-0.1,0.6-0.8,1.1-1.4,1C111.5,22.8,111.1,22.2,111.2,21.5z"/>
										<path class="st11" d="M112.6,22.9c-0.2-0.6-0.8-1-1.5-1c0,0.5,0.4,1,0.9,1.1C112.3,22.9,112.4,22.9,112.6,22.9z"/>
									</g>
								</g>
							</g>
						</g>
					</g>
				</g>
				<g id="Arm_00000181065570816867122480000006942508388752505520_">
					<g>
						<path class="st10" d="M102,28.9c-2.6,0.8-3.4,1.6-4.4,3.4c-1.3,2.6-3.7,7.9-4.6,10.9c-0.5,1.6-0.4,3.1,1.4,4.7
							c1.4,1.2,4.7,3.6,7.4,5.4c0.5,0.3,2.2,1.6,2.7,1.9c3.1,1.6,6.7,1.1,6.7,1.1l-3.4-2l-0.6-1.1l-7.9-9c0,0,2.7-5.9,3.5-7.7
							C103.7,34.6,104.1,30,102,28.9z"/>
					</g>
					<g>
						<g id="XMLID_00000166666254254589922180000007253767517689957308_">
							<g id="XMLID_00000011712270438728157160000017410956774568435640_">
								<path id="XMLID_00000154407617951765353440000017459294378994924683_" class="st6" d="M104.9,51.6l0,0.3
									c0,0.3,0.2,0.6,0.4,0.8l8.5,5c0.1,0.1,0.3,0.1,0.4,0.1c0.2,0,0.3,0,0.4-0.1l15.8-8.9c0.3-0.2,0.5-0.5,0.5-0.8l0-0.2
									l-16.7,9.4L104.9,51.6z"/>
							</g>
							<g id="XMLID_00000116957263022647076220000009654055597144246403_" class="st16">
								<path id="XMLID_00000160174318762237178230000012134403281828138140_" class="st9" d="M104.9,51.6l0,0.3
									c0,0.3,0.2,0.6,0.4,0.8l8.5,5c0.1,0.1,0.3,0.1,0.4,0.1c0.2,0,0.3,0,0.4-0.1l15.8-8.9c0.3-0.2,0.5-0.5,0.5-0.8l0-0.2
									l-16.7,9.4L104.9,51.6z"/>
							</g>
							<g id="XMLID_00000054985463133265070810000002957643287761172615_" class="st17">
								<path id="XMLID_00000009558099457486531550000016350125967727509171_" d="M104.9,51.6l0,0.3c0,0.3,0.2,0.6,0.4,0.8l8.5,5
									c0.1,0.1,0.3,0.1,0.4,0.1c0.2,0,0.3,0,0.4-0.1l15.8-8.9c0.3-0.2,0.5-0.5,0.5-0.8l0-0.2l-16.7,9.4L104.9,51.6z"/>
							</g>
							<g id="XMLID_00000119112924719712017060000009246556103685932722_">
								<path id="XMLID_00000046314441355489264450000009737940950122882215_" class="st6" d="M130.9,47.8l-9.2-5.5
									c-0.2-0.1-0.4-0.1-0.5,0l-16.2,9.1c-0.1,0-0.1,0.2,0,0.2l9.3,5.5L130.9,47.8z"/>
							</g>
							<g id="XMLID_00000119809258583024312700000002639743109661602452_" class="st18">
								<path id="XMLID_00000036218352518640669650000014188904417570173588_" class="st9" d="M130.9,47.8l-9.2-5.5
									c-0.2-0.1-0.4-0.1-0.5,0l-16.2,9.1c-0.1,0-0.1,0.2,0,0.2l9.3,5.5L130.9,47.8z"/>
							</g>
							<g id="XMLID_00000024718559545458589690000010507284528212051883_">
								<polygon id="XMLID_00000021841180303795956770000013050444849271140277_" class="st6" points="114.3,56.3 109.3,53.4 
									123.9,45.2 128.9,48.1 								"/>
							</g>
							<g id="XMLID_00000072974886103990730390000002323647823939419290_" class="st19">
								<polygon id="XMLID_00000007428869590540278550000017551650443265340346_" class="st9" points="114.3,56.3 109.3,53.4 
									123.9,45.2 128.9,48.1 								"/>
							</g>
							<g id="XMLID_00000171712374670219513000000013038338366133831597_">
								<polygon id="XMLID_00000152965810710667015590000014111871349774667653_" class="st6" points="111.8,48.3 111.9,48.4 
									114.3,49.8 118.7,47.4 118.8,47.3 116.3,45.8 								"/>
							</g>
							<g id="XMLID_00000113349915252928176990000009923034239653398448_">
								<polygon id="XMLID_00000096037969434589002900000002102982237506736286_" class="st6" points="111.9,48.4 114.3,49.8 
									118.7,47.4 116.3,45.9 								"/>
							</g>
							<g id="XMLID_00000078037519545065532410000010722536281121576094_" class="st19">
								<polygon id="XMLID_00000089538073750011948640000011647247286884537994_" class="st9" points="111.9,48.4 114.3,49.8 
									118.7,47.4 116.3,45.9 								"/>
							</g>
							<g id="XMLID_00000013898394492804452470000014194979159559282081_">
								<path id="XMLID_00000055695180487649131120000003150812138454515347_" class="st6" d="M114.2,57.2l0,0.6
									c0.2,0,0.3,0,0.4-0.1l15.8-8.9c0.3-0.2,0.5-0.5,0.5-0.8l0-0.2L114.2,57.2z"/>
							</g>
							<g id="XMLID_00000115481929203833061030000008257942010582046138_" class="st20">
								<path id="XMLID_00000044137665929777103080000018234446220866381983_" class="st9" d="M114.2,57.2l0,0.6
									c0.2,0,0.3,0,0.4-0.1l15.8-8.9c0.3-0.2,0.5-0.5,0.5-0.8l0-0.2L114.2,57.2z"/>
							</g>
							<g id="XMLID_00000076601591427631488930000018024259040706953149_" class="st7">
								<path id="XMLID_00000068674998740535001300000009475152756651635350_" d="M114.2,57.2l0,0.6c0.2,0,0.3,0,0.4-0.1l15.8-8.9
									c0.3-0.2,0.5-0.5,0.5-0.8l0-0.2L114.2,57.2z"/>
							</g>
							<g id="XMLID_00000060728749089099531080000004629017252420181376_">
								<path id="XMLID_00000101099652155212518370000014835843845801932691_" class="st6" d="M114.5,57.3c0.3,0.1,0.6,0.1,0.9-0.1
									l15.7-8.8c0.3-0.2,0.5-0.4,0.5-0.7l1.8-10.2c0-0.1,0-0.1,0-0.2c0-0.3-0.1-0.6-0.3-0.8l-16.3,9.2c-0.2,0.1-0.3,0.3-0.4,0.5
									L114.5,57.3z"/>
							</g>
							<g id="XMLID_00000008118655887051561870000002465065863004633473_" class="st21">
								<path id="XMLID_00000123418372806899112560000007572318528543928972_" class="st9" d="M114.5,57.3c0.3,0.1,0.6,0.1,0.9-0.1
									l15.7-8.8c0.3-0.2,0.5-0.4,0.5-0.7l1.8-10.2c0-0.1,0-0.1,0-0.2c0-0.3-0.1-0.6-0.3-0.8l-16.3,9.2c-0.2,0.1-0.3,0.3-0.4,0.5
									L114.5,57.3z"/>
							</g>
							<g id="XMLID_00000177456470847689915450000004880655486834287790_">
								<path id="XMLID_00000081637546306399161700000000233997708709469348_" class="st6" d="M114.2,57.2l0.1,0.1
									c0,0,0.1,0.1,0.1,0.1l2-11c0-0.2,0.2-0.4,0.4-0.5l16.3-9.2c-0.1-0.1-0.1-0.1-0.2-0.2l-16.4,9.2c-0.2,0.1-0.3,0.3-0.4,0.5
									L114.2,57.2z"/>
							</g>
							<g id="XMLID_00000093136773124734100020000018008611532625134999_" class="st19">
								<path id="XMLID_00000133492975192913259930000005385656703681862588_" class="st9" d="M114.2,57.2l0.1,0.1
									c0,0,0.1,0.1,0.1,0.1l2-11c0-0.2,0.2-0.4,0.4-0.5l16.3-9.2c-0.1-0.1-0.1-0.1-0.2-0.2l-16.4,9.2c-0.2,0.1-0.3,0.3-0.4,0.5
									L114.2,57.2z"/>
							</g>
							<path class="st6" d="M116.6,46l-0.2-0.1c-0.1,0.1-0.1,0.2-0.1,0.3l-2,11l0.1,0.1c0,0,0.1,0.1,0.1,0.1l2-11
								C116.5,46.2,116.5,46.1,116.6,46z"/>
							<path class="st22" d="M116.6,46l-0.2-0.1c-0.1,0.1-0.1,0.2-0.1,0.3l-2,11l0.1,0.1c0,0,0.1,0.1,0.1,0.1l2-11
								C116.5,46.2,116.5,46.1,116.6,46z"/>
							<path class="st23" d="M116.6,46l-0.2-0.1c-0.1,0.1-0.1,0.2-0.1,0.3l-2,11l0.1,0.1c0,0,0.1,0.1,0.1,0.1l2-11
								C116.5,46.2,116.5,46.1,116.6,46z"/>
							<g id="XMLID_00000182504261287831620910000017274781599198701200_">
								<path id="XMLID_00000088121559542421951320000007720054445226833332_" class="st6" d="M123.4,48c0.1-0.7,0.8-1.6,1.6-2
									c0.8-0.4,1.3-0.2,1.2,0.5c-0.1,0.7-0.8,1.6-1.6,2C123.8,48.9,123.3,48.7,123.4,48z"/>
							</g>
						</g>
					</g>
					<path class="st10" d="M104.5,49.8c0.9,1.1,2.1,0.7,3.3,0.8c1.2,0.1,2.3,0.4,3.2,0.5c0.9,0.1,1.2,0.5,0.7,1
						c-0.7,0.7-2.5,0.3-3.1,0.6c-0.5,0.2-0.8,1.1-0.2,1.7c0.6,0.6-3.2-0.6-3.7-1.3C104.2,52.4,103.8,50,104.5,49.8z"/>
					<path class="st5" d="M95,37.5c0.6-1.4,2.3-4.9,3.2-6.3c0.9-1.4,2.2-2,3.9-2.6c2.5,1,2,5.1,1.7,6.4s-4.1,9.1-4.1,9.1l3.9,4.6
						c0,0-1.1,0.2-2.3,1.3c-1.1,1.1-1.3,2.2-1.3,2.2s-4.5-3.2-5.9-4.4c-1.4-1.2-2.1-2.1-1.5-4.3C93.5,41.3,94.4,38.9,95,37.5z"/>
					<path class="st4" d="M99.8,44.2c-0.8-0.8-2.3-0.5-3-0.3c2-0.1,3.5,0.9,3.5,0.9L99.8,44.2z"/>
				</g>
			</g>
		</g>
	</g>
	<g id="Arrow_2">
		<path id="Arrow" class="st1" d="M177.2,110.8l-4.8-3.2c-0.3-0.2-0.7-0.1-0.8,0.2c-0.2,0.3-0.1,0.7,0.2,0.8l3.1,2.1
			c-9.3,0.1-15,2.2-25.2,14.5c-9.5,11.5-21.9,16.8-39.1,16.8s-29.7-5.3-39.1-16.8c-10.3-12.5-16-14.5-25.5-14.5
			c-0.3,0-0.6,0.3-0.6,0.6c0,0.3,0.3,0.6,0.6,0.6c9.1,0,14.6,2,24.6,14.1c9.7,11.8,22.5,17.3,40.1,17.3s30.3-5.5,40.1-17.3
			c9.9-12,15.3-14,24.2-14.1l-3.1,2.1c-0.3,0.2-0.4,0.6-0.2,0.8c0.1,0.2,0.3,0.3,0.5,0.3c0.1,0,0.2,0,0.3-0.1l4.8-3.2
			c0.2-0.1,0.3-0.3,0.3-0.5C177.5,111.1,177.4,110.9,177.2,110.8z"/>
	</g>
	<g id="Windows">
		<g id="Flowchart_Window">
			<g class="st7">
				<path d="M46,19.2L73.8,3.1c0.3-0.2,0.5,0,0.5,0.3v47.5c0,0.3-0.2,0.7-0.5,0.8L46,67.8c-0.3,0.2-0.5,0-0.5-0.3V20
					C45.5,19.7,45.7,19.3,46,19.2z"/>
			</g>
			<g id="Window_2_">
				<g id="Window_00000070817575466413125300000001006803398159798438_">
					<path class="st0" d="M48.2,67.3c0.1,0,0.1,0,0.2-0.1l26-15c0.4-0.2,0.8-0.9,0.8-1.3V5.7c0-0.3-0.1-0.5-0.3-0.5
						c-0.1,0-0.2,0-0.3,0.1l-26,15c-0.4,0.2-0.8,0.9-0.8,1.3v44.9c0,0.2,0.1,0.3,0.1,0.5C48,67.2,48.1,67.3,48.2,67.3z"/>
					<path id="XMLID_313_" class="st13" d="M46.9,66.8c0.1,0,0.7,0.4,1,0.6c-0.2-0.1-0.3-0.4-0.3-0.7V24.5l-1.1-0.6v42.2
						C46.5,66.4,46.7,66.7,46.9,66.8z"/>
				</g>
				<path id="Outline_1_" class="st1" d="M74.9,5.4c0.2,0,0.2,0.2,0.2,0.3v45.2c0,0.4-0.3,1-0.7,1.2l-26,15c-0.1,0-0.1,0-0.1,0
					c-0.2,0-0.3-0.2-0.3-0.5V21.7c0-0.4,0.3-1,0.7-1.2l26-15C74.8,5.4,74.8,5.4,74.9,5.4 M74.9,5.1c-0.1,0-0.2,0-0.4,0.1l-26,15
					c-0.5,0.3-0.8,0.9-0.8,1.5v44.9c0,0.4,0.2,0.8,0.6,0.8c0.1,0,0.2,0,0.3-0.1l26-15c0.5-0.3,0.8-0.9,0.8-1.5V5.7
					C75.4,5.3,75.2,5.1,74.9,5.1L74.9,5.1z"/>
				<g id="Up_Bar_2_">
					<g>
						<path class="st6" d="M75.4,5.7v2.8l-27.7,16l-1.1-0.6v-2.8c0-0.3,0.1-0.6,0.3-0.8c0.2-0.3,0.4-0.5,0.6-0.6l26-15
							c0.2-0.1,0.5-0.1,0.6,0c0.2,0.1,0.9,0.5,1,0.6c0,0,0,0,0.1,0c0,0,0,0,0.1,0.1c0,0,0,0.1,0.1,0.1c0,0,0,0.1,0,0.1
							c0,0,0,0.1,0,0.1c0,0,0,0,0,0C75.3,5.6,75.4,5.7,75.4,5.7z"/>
						<path class="st24" d="M75.4,5.7v2.8l-27.7,16l-1.1-0.6v-2.8c0-0.3,0.1-0.6,0.3-0.8c0.2-0.3,0.4-0.5,0.6-0.6l26-15
							c0.2-0.1,0.5-0.1,0.6,0c0.2,0.1,0.9,0.5,1,0.6c0,0,0,0,0.1,0c0,0,0,0,0.1,0.1c0,0,0,0.1,0.1,0.1c0,0,0,0.1,0,0.1
							c0,0,0,0.1,0,0.1c0,0,0,0,0,0C75.3,5.6,75.4,5.7,75.4,5.7z"/>
						<path class="st6" d="M75.4,5.7v2.8l-27.7,16v-2.8c0-0.2,0-0.3,0.1-0.5c0,0,0-0.1,0-0.1c0-0.1,0.1-0.2,0.1-0.2
							c0.2-0.3,0.4-0.5,0.6-0.6l26-15c0.3-0.2,0.5-0.1,0.6,0c0,0,0,0,0.1,0.1c0,0,0,0.1,0.1,0.1c0,0,0,0.1,0,0.1c0,0,0,0.1,0,0.1
							c0,0,0,0,0,0C75.3,5.6,75.4,5.7,75.4,5.7z"/>
						<g id="XMLID_737_">
							<path id="XMLID_740_" class="st0" d="M69.7,9.1c-0.3,0.2-0.5,0.7-0.5,1.1c0,0.4,0.2,0.7,0.5,0.5c0.3-0.2,0.5-0.7,0.5-1.1
								C70.2,9.1,70,8.9,69.7,9.1z"/>
							<path id="XMLID_739_" class="st0" d="M71.6,8c-0.3,0.2-0.5,0.7-0.5,1.1c0,0.4,0.2,0.7,0.5,0.5c0.3-0.2,0.5-0.7,0.5-1.1
								C72.1,8,71.9,7.8,71.6,8z"/>
							<path id="XMLID_738_" class="st0" d="M73.5,6.9C73.2,7.1,73,7.6,73,8c0,0.4,0.2,0.7,0.5,0.5C73.8,8.3,74,7.8,74,7.4
								S73.8,6.7,73.5,6.9z"/>
						</g>
						<g id="XMLID_312_">
							<path class="st6" d="M74.5,5.2l-26,15c-0.2,0.1-0.4,0.4-0.6,0.6l-1.1-0.6c0.2-0.3,0.4-0.5,0.6-0.6l26-15
								c0.2-0.1,0.5-0.1,0.6-0.1c0.2,0.1,0.9,0.5,1,0.6C74.9,5.1,74.7,5.1,74.5,5.2z"/>
						</g>
						<g id="XMLID_727_" class="st16">
							<path class="st9" d="M74.5,5.2l-26,15c-0.2,0.1-0.4,0.4-0.6,0.6l-1.1-0.6c0.2-0.3,0.4-0.5,0.6-0.6l26-15
								c0.2-0.1,0.5-0.1,0.6-0.1c0.2,0.1,0.9,0.5,1,0.6C74.9,5.1,74.7,5.1,74.5,5.2z"/>
						</g>
					</g>
				</g>
			</g>
			<g id="Flowchart">
				<g>
					<g>
						<g>
							<path class="st5" d="M53.7,31.5C53.7,31.5,53.6,31.5,53.7,31.5l-0.1-3.4c0,0,0-0.1,0.1-0.1s0.1,0,0.1,0.1L53.7,31.5
								C53.8,31.5,53.8,31.5,53.7,31.5z"/>
						</g>
						<g>
							<polygon class="st5" points="53.5,31.1 53.7,31.4 54,31.1 54,31.4 53.7,31.6 53.5,31.4 							"/>
						</g>
					</g>
					<g>
						<g>
							<path class="st5" d="M56.6,31.9C56.5,31.9,56.5,31.9,56.6,31.9c-0.1-0.1-0.1-0.1,0-0.1l2.2-1.3c0,0,0.1,0,0.1,0
								c0,0,0,0.1,0,0.1L56.6,31.9C56.6,31.9,56.6,31.9,56.6,31.9z"/>
						</g>
						<g>
							<polygon class="st5" points="58.6,30.9 58.7,30.6 58.4,30.5 58.6,30.3 58.9,30.4 58.8,30.8 							"/>
						</g>
					</g>
					<g>
						<g>
							<path class="st5" d="M56.1,49.4C56.1,49.4,56.1,49.4,56.1,49.4c-0.1-0.1-0.1-0.1,0-0.1l2.2-1.3c0,0,0.1,0,0.1,0s0,0.1,0,0.1
								L56.1,49.4C56.2,49.4,56.2,49.4,56.1,49.4z"/>
						</g>
						<g>
							<polygon class="st5" points="58.2,48.5 58.3,48.1 57.9,48 58.1,47.9 58.5,48 58.4,48.4 							"/>
						</g>
					</g>
					<g>
						<g>
							<path class="st5" d="M64.1,44.8C64.1,44.8,64.1,44.8,64.1,44.8c-0.1-0.1-0.1-0.1,0-0.1l2.2-1.3c0,0,0.1,0,0.1,0
								c0,0,0,0.1,0,0.1L64.1,44.8C64.2,44.8,64.2,44.8,64.1,44.8z"/>
						</g>
						<g>
							<polygon class="st5" points="66.2,43.9 66.3,43.5 65.9,43.4 66.1,43.3 66.5,43.4 66.4,43.8 							"/>
						</g>
					</g>
					<g>
						<g>
							<path class="st5" d="M64.7,27.2C64.6,27.2,64.6,27.2,64.7,27.2c-0.1-0.1-0.1-0.1,0-0.1l2.2-1.3c0,0,0.1,0,0.1,0
								c0,0,0,0.1,0,0.1L64.7,27.2C64.7,27.2,64.7,27.2,64.7,27.2z"/>
						</g>
						<g>
							<polygon class="st5" points="66.7,26.2 66.8,25.9 66.5,25.8 66.6,25.7 67,25.8 66.9,26.1 							"/>
						</g>
					</g>
					<g>
						<g>
							<path class="st5" d="M64.5,36C64.5,36,64.5,36,64.5,36c-0.1-0.1-0.1-0.1,0-0.1l2.2-1.3c0,0,0.1,0,0.1,0c0,0,0,0.1,0,0.1
								L64.5,36C64.5,36,64.5,36,64.5,36z"/>
						</g>
						<g>
							<polygon class="st5" points="64.6,35.6 64.5,35.9 64.9,36 64.7,36.1 64.4,36.1 64.5,35.7 							"/>
						</g>
					</g>
					<g>
						<g>
							<path class="st5" d="M64.4,52.5C64.3,52.5,64.3,52.5,64.4,52.5c-0.1-0.1-0.1-0.1,0-0.1l2.1-1.2c0,0,0.1,0,0.1,0
								c0,0,0,0.1,0,0.1L64.4,52.5C64.4,52.5,64.4,52.5,64.4,52.5z"/>
						</g>
						<g>
							<polygon class="st5" points="64.5,52 64.4,52.4 64.8,52.5 64.6,52.6 64.2,52.5 64.3,52.1 							"/>
						</g>
					</g>
					<g>
						<g>
							<path class="st5" d="M56.6,40.6C56.6,40.6,56.5,40.6,56.6,40.6c-0.1-0.1-0.1-0.1,0-0.1l2.2-1.3c0,0,0.1,0,0.1,0s0,0.1,0,0.1
								L56.6,40.6C56.6,40.6,56.6,40.6,56.6,40.6z"/>
						</g>
						<g>
							<polygon class="st5" points="56.7,40.1 56.6,40.5 57,40.6 56.8,40.7 56.4,40.6 56.5,40.3 							"/>
						</g>
					</g>
					<g>
						<g>
							<path class="st5" d="M69.1,30.2C69.1,30.2,69,30.2,69.1,30.2L69,27.6c0,0,0-0.1,0.1-0.1c0,0,0.1,0,0.1,0.1L69.1,30.2
								C69.2,30.2,69.2,30.2,69.1,30.2z"/>
						</g>
						<g>
							<polygon class="st5" points="68.9,29.8 69.1,30.1 69.4,29.8 69.4,30 69.1,30.3 68.9,30 							"/>
						</g>
					</g>
					<g>
						<g>
							<path class="st5" d="M53.7,46.5C53.7,46.5,53.7,46.5,53.7,46.5C53.7,46.5,53.6,46.4,53.7,46.5l-0.1-2c0,0,0-0.1,0.1-0.1
								s0.1,0,0.1,0.1v1.7L69,37.5v-1.2c0,0,0-0.1,0.1-0.1s0.1,0,0.1,0.1v1.2c0,0,0,0.1,0,0.1L53.7,46.5
								C53.7,46.5,53.7,46.5,53.7,46.5z"/>
						</g>
						<g>
							<polygon class="st5" points="54,44.8 53.7,44.6 53.5,44.8 53.5,44.6 53.7,44.3 54,44.6 							"/>
						</g>
					</g>
					<g>
						<g>
							<path class="st5" d="M53.7,55.2C53.7,55.2,53.7,55.2,53.7,55.2C53.7,55.2,53.6,55.1,53.7,55.2l-0.1-1.3c0,0,0-0.1,0.1-0.1
								s0.1,0,0.1,0.1V55L69,46.2v-1.8c0,0,0-0.1,0.1-0.1s0.1,0,0.1,0.1v1.9c0,0,0,0.1,0,0.1L53.7,55.2
								C53.7,55.2,53.7,55.2,53.7,55.2z"/>
						</g>
						<g>
							<polygon class="st5" points="69.4,44.6 69.1,44.4 68.9,44.6 68.9,44.4 69.1,44.1 69.4,44.4 							"/>
						</g>
					</g>
					<g>
						<g>
							<path class="st5" d="M50.2,52.9C50.2,52.9,50.2,52.9,50.2,52.9C50.1,52.9,50.1,52.8,50.2,52.9l-0.1-8.7c0,0,0-0.1,0-0.1
								l0.8-0.5c0,0,0.1,0,0.1,0s0,0.1,0,0.1l-0.8,0.5v8.4l0.9-0.5c0,0,0.1,0,0.1,0s0,0.1,0,0.1L50.2,52.9
								C50.2,52.9,50.2,52.9,50.2,52.9z"/>
						</g>
						<g>
							<polygon class="st5" points="51,52.6 51.1,52.3 50.8,52.2 51,52 51.3,52.1 51.2,52.5 							"/>
						</g>
					</g>
					<g>
						<g>
							<path class="st5" d="M72.1,48C72.1,48,72.1,48,72.1,48c-0.1-0.1-0.1-0.1,0-0.1l0.8-0.5v-7.6l-0.7,0.4c0,0-0.1,0-0.1,0
								c0,0,0-0.1,0-0.1l0.8-0.5c0,0,0.1,0,0.1,0c0,0,0,0,0,0.1v7.8c0,0,0,0.1,0,0.1L72.1,48C72.1,48,72.1,48,72.1,48z"/>
						</g>
						<g>
							<polygon class="st5" points="72.2,47.5 72.1,47.9 72.5,48 72.3,48.1 72,48 72,47.6 							"/>
						</g>
					</g>
				</g>
				<path class="st6" d="M56.1,24.6c0,0.9-1.1,2.2-2.4,3c-1.3,0.8-2.4,0.7-2.4-0.2s1.1-2.2,2.4-3C55,23.6,56.1,23.8,56.1,24.6z"/>
				<path class="st6" d="M63.9,52.7c0,0.9-1.1,2.2-2.4,3c-1.3,0.8-2.4,0.7-2.4-0.2s1.1-2.2,2.4-3C62.8,51.7,63.9,51.8,63.9,52.7z"/>
				<g>
					<path class="st6" d="M55.9,33.6l-4.3,2.5c-0.1,0.1-0.2,0-0.2-0.2v-2.2c0-0.2,0.1-0.4,0.2-0.4l4.3-2.5c0.1-0.1,0.2,0,0.2,0.2
						v2.2C56.1,33.3,56,33.5,55.9,33.6z"/>
					<path class="st25" d="M55.9,33.6l-4.3,2.5c-0.1,0.1-0.2,0-0.2-0.2v-2.2c0-0.2,0.1-0.4,0.2-0.4l4.3-2.5c0.1-0.1,0.2,0,0.2,0.2
						v2.2C56.1,33.3,56,33.5,55.9,33.6z"/>
				</g>
				<g>
					<path class="st6" d="M63.7,29.1l-4.3,2.5c-0.1,0.1-0.2,0-0.2-0.2v-2.2c0-0.2,0.1-0.4,0.2-0.4l4.3-2.5c0.1-0.1,0.2,0,0.2,0.2
						v2.2C63.9,28.8,63.8,29,63.7,29.1z"/>
					<path class="st25" d="M63.7,29.1l-4.3,2.5c-0.1,0.1-0.2,0-0.2-0.2v-2.2c0-0.2,0.1-0.4,0.2-0.4l4.3-2.5c0.1-0.1,0.2,0,0.2,0.2
						v2.2C63.9,28.8,63.8,29,63.7,29.1z"/>
				</g>
				<g>
					<path class="st6" d="M63.7,37.9l-4.3,2.5c-0.1,0.1-0.2,0-0.2-0.2V38c0-0.2,0.1-0.4,0.2-0.4l4.3-2.5c0.1-0.1,0.2,0,0.2,0.2v2.2
						C63.9,37.6,63.8,37.8,63.7,37.9z"/>
					<path class="st25" d="M63.7,37.9l-4.3,2.5c-0.1,0.1-0.2,0-0.2-0.2V38c0-0.2,0.1-0.4,0.2-0.4l4.3-2.5c0.1-0.1,0.2,0,0.2,0.2v2.2
						C63.9,37.6,63.8,37.8,63.7,37.9z"/>
				</g>
				<g>
					<path class="st6" d="M63.7,46.4l-4.3,2.5c-0.1,0.1-0.2,0-0.2-0.2v-2.2c0-0.2,0.1-0.4,0.2-0.4l4.3-2.5c0.1-0.1,0.2,0,0.2,0.2V46
						C63.9,46.2,63.8,46.4,63.7,46.4z"/>
					<path class="st25" d="M63.7,46.4l-4.3,2.5c-0.1,0.1-0.2,0-0.2-0.2v-2.2c0-0.2,0.1-0.4,0.2-0.4l4.3-2.5c0.1-0.1,0.2,0,0.2,0.2
						V46C63.9,46.2,63.8,46.4,63.7,46.4z"/>
				</g>
				<g>
					<path class="st6" d="M71.3,42.1L67,44.6c-0.1,0.1-0.2,0-0.2-0.2v-2.2c0-0.2,0.1-0.4,0.2-0.4l4.3-2.5c0.1-0.1,0.2,0,0.2,0.2v2.2
						C71.5,41.8,71.4,42,71.3,42.1z"/>
					<path class="st25" d="M71.3,42.1L67,44.6c-0.1,0.1-0.2,0-0.2-0.2v-2.2c0-0.2,0.1-0.4,0.2-0.4l4.3-2.5c0.1-0.1,0.2,0,0.2,0.2
						v2.2C71.5,41.8,71.4,42,71.3,42.1z"/>
				</g>
				<g>
					<path class="st6" d="M71.3,49.8L67,52.3c-0.1,0.1-0.2,0-0.2-0.2v-2.2c0-0.2,0.1-0.4,0.2-0.4l4.3-2.5c0.1-0.1,0.2,0,0.2,0.2v2.2
						C71.5,49.6,71.4,49.7,71.3,49.8z"/>
					<path class="st25" d="M71.3,49.8L67,52.3c-0.1,0.1-0.2,0-0.2-0.2v-2.2c0-0.2,0.1-0.4,0.2-0.4l4.3-2.5c0.1-0.1,0.2,0,0.2,0.2
						v2.2C71.5,49.6,71.4,49.7,71.3,49.8z"/>
				</g>
				<g>
					<path class="st6" d="M55.9,42.4l-4.3,2.5c-0.1,0.1-0.2,0-0.2-0.2v-2.2c0-0.2,0.1-0.4,0.2-0.4l4.3-2.5c0.1-0.1,0.2,0,0.2,0.2
						v2.2C56.1,42.1,56,42.3,55.9,42.4z"/>
					<path class="st25" d="M55.9,42.4l-4.3,2.5c-0.1,0.1-0.2,0-0.2-0.2v-2.2c0-0.2,0.1-0.4,0.2-0.4l4.3-2.5c0.1-0.1,0.2,0,0.2,0.2
						v2.2C56.1,42.1,56,42.3,55.9,42.4z"/>
				</g>
				<g>
					<path class="st5" d="M68.9,26.9l-1.8-2.6c-0.1-0.2,0-0.7,0.2-0.8l3.7-2.1c0.2-0.1,0.4,0.2,0.2,0.6l-1.8,4.7
						C69.2,26.9,69,27,68.9,26.9z"/>
				</g>
				<g>
					<path class="st6" d="M71,32.6l-1.7,2.9c-0.1,0.2-0.2,0.2-0.3,0.2l-1.7-1c-0.1-0.1-0.1-0.4,0-0.7l1.7-2.9
						c0.1-0.2,0.2-0.2,0.3-0.2l1.7,1C71.1,32,71.1,32.3,71,32.6z"/>
				</g>
				<g class="st8">
					<path class="st9" d="M71,32.6l-1.7,2.9c-0.1,0.2-0.2,0.2-0.3,0.2l-1.7-1c-0.1-0.1-0.1-0.4,0-0.7l1.7-2.9
						c0.1-0.2,0.2-0.2,0.3-0.2l1.7,1C71.1,32,71.1,32.3,71,32.6z"/>
				</g>
				<g>
					<path class="st6" d="M55.6,50L53.9,53c-0.1,0.2-0.2,0.2-0.3,0.2l-1.7-1c-0.1-0.1-0.1-0.4,0-0.7l1.7-2.9
						c0.1-0.2,0.2-0.2,0.3-0.2l1.7,1C55.7,49.4,55.7,49.8,55.6,50z"/>
				</g>
				<g class="st8">
					<path class="st9" d="M55.6,50L53.9,53c-0.1,0.2-0.2,0.2-0.3,0.2l-1.7-1c-0.1-0.1-0.1-0.4,0-0.7l1.7-2.9
						c0.1-0.2,0.2-0.2,0.3-0.2l1.7,1C55.7,49.4,55.7,49.8,55.6,50z"/>
				</g>
				<g>
					<g>
						<path class="st5" d="M59,32.9C58.9,32.9,58.9,32.9,59,32.9c-0.1-0.1-0.1-0.1,0-0.1l5.1-3c0,0,0.1,0,0.1,0c0,0,0,0.1,0,0.1
							L59,32.9C59,32.9,59,32.9,59,32.9z"/>
					</g>
					<g>
						<path class="st1" d="M59,33.7C58.9,33.7,58.9,33.6,59,33.7c-0.1-0.1-0.1-0.1,0-0.1l5.1-3c0,0,0.1,0,0.1,0c0,0,0,0.1,0,0.1
							L59,33.7C59,33.6,59,33.7,59,33.7z"/>
					</g>
					<g>
						<path class="st1" d="M59,34.4C58.9,34.4,58.9,34.4,59,34.4c-0.1-0.1-0.1-0.1,0-0.1l5.1-3c0,0,0.1,0,0.1,0c0,0,0,0.1,0,0.1
							L59,34.4C59,34.4,59,34.4,59,34.4z"/>
					</g>
					<g>
						<path class="st1" d="M59,35.1C58.9,35.1,58.9,35.1,59,35.1c-0.1-0.1-0.1-0.1,0-0.1l5.1-3c0,0,0.1,0,0.1,0c0,0,0,0.1,0,0.1
							L59,35.1C59,35.1,59,35.1,59,35.1z"/>
					</g>
				</g>
				<g>
					<g>
						<path class="st5" d="M66.4,20.2C66.3,20.2,66.3,20.2,66.4,20.2c-0.1-0.1-0.1-0.1,0-0.1l5.1-3c0,0,0.1,0,0.1,0c0,0,0,0.1,0,0.1
							L66.4,20.2C66.4,20.2,66.4,20.2,66.4,20.2z"/>
					</g>
					<g>
						<path class="st1" d="M66.4,21C66.3,21,66.3,21,66.4,21c-0.1-0.1-0.1-0.1,0-0.1l5.1-3c0,0,0.1,0,0.1,0c0,0,0,0.1,0,0.1L66.4,21
							C66.4,21,66.4,21,66.4,21z"/>
					</g>
					<g>
						<path class="st1" d="M66.4,21.7C66.3,21.7,66.3,21.7,66.4,21.7c-0.1-0.1-0.1-0.1,0-0.1l5.1-3c0,0,0.1,0,0.1,0c0,0,0,0.1,0,0.1
							L66.4,21.7C66.4,21.7,66.4,21.7,66.4,21.7z"/>
					</g>
					<g>
						<path class="st1" d="M66.4,22.5C66.3,22.5,66.3,22.4,66.4,22.5c-0.1-0.1-0.1-0.1,0-0.1l5.1-3c0,0,0.1,0,0.1,0c0,0,0,0.1,0,0.1
							L66.4,22.5C66.4,22.5,66.4,22.5,66.4,22.5z"/>
					</g>
				</g>
			</g>
		</g>
		<g id="Chart_Window">
			<g class="st7">
				<path d="M174.8,20.5L147,4.5c-0.3-0.2-0.5,0-0.5,0.3v28.6c0,0.3,0.2,0.7,0.5,0.8l27.8,16.1c0.3,0.2,0.5,0,0.5-0.3V21.4
					C175.3,21,175.1,20.7,174.8,20.5z"/>
			</g>
			<g id="Window_00000072970316148799616750000012894762491200557706_">
				<g id="Window_00000080914863752581720970000011956579419456184978_">
					<path class="st0" d="M172.6,49.7c-0.1,0-0.1,0-0.2-0.1l-26-15c-0.4-0.2-0.8-0.9-0.8-1.3V7.1c0-0.3,0.1-0.5,0.3-0.5
						c0.1,0,0.2,0,0.3,0.1l26,15c0.4,0.2,0.8,0.9,0.8,1.3v26c0,0.2-0.1,0.3-0.1,0.5C172.8,49.6,172.8,49.7,172.6,49.7z"/>
					<path id="XMLID_00000170254336357483720030000002536556523271891105_" class="st13" d="M173.9,49.2c-0.1,0-0.7,0.4-1,0.6
						c0.2-0.1,0.3-0.4,0.3-0.7V25.8l1.1-0.6v23.3C174.3,48.8,174.1,49.1,173.9,49.2z"/>
				</g>
				<path id="Outline_00000011753147469020753320000017024090959493294726_" class="st1" d="M145.9,6.7c0,0,0.1,0,0.2,0.1l26,15
					c0.4,0.2,0.7,0.8,0.7,1.2v26c0,0.3-0.1,0.5-0.3,0.5c0,0-0.1,0-0.1,0l-26-15c-0.4-0.2-0.7-0.8-0.7-1.2V7.1
					C145.7,6.9,145.8,6.7,145.9,6.7 M145.9,6.5c-0.3,0-0.5,0.2-0.5,0.6v26.2c0,0.5,0.4,1.2,0.8,1.5l26,15c0.1,0.1,0.2,0.1,0.3,0.1
					c0.3,0,0.6-0.4,0.6-0.8v-26c0-0.5-0.4-1.2-0.8-1.5l-26-15C146.2,6.5,146,6.5,145.9,6.5L145.9,6.5z"/>
				<g id="Up_Bar_00000109709121189584297750000011377735497961370762_">
					<g>
						<path class="st6" d="M145.4,7v2.8l27.7,16l1.1-0.6v-2.8c0-0.3-0.1-0.6-0.3-0.8c-0.2-0.3-0.4-0.5-0.6-0.6l-26-15
							c-0.2-0.1-0.5-0.1-0.6-0.1c-0.2,0.1-0.9,0.5-1,0.6c0,0,0,0-0.1,0c0,0,0,0-0.1,0.1c0,0,0,0.1-0.1,0.1c0,0,0,0.1,0,0.1
							c0,0,0,0.1,0,0.1c0,0,0,0,0,0C145.5,7,145.4,7,145.4,7z"/>
						<path class="st24" d="M145.4,7v2.8l27.7,16l1.1-0.6v-2.8c0-0.3-0.1-0.6-0.3-0.8c-0.2-0.3-0.4-0.5-0.6-0.6l-26-15
							c-0.2-0.1-0.5-0.1-0.6-0.1c-0.2,0.1-0.9,0.5-1,0.6c0,0,0,0-0.1,0c0,0,0,0-0.1,0.1c0,0,0,0.1-0.1,0.1c0,0,0,0.1,0,0.1
							c0,0,0,0.1,0,0.1c0,0,0,0,0,0C145.5,7,145.4,7,145.4,7z"/>
						<path class="st6" d="M145.4,7v2.8l27.7,16v-2.8c0-0.2,0-0.3-0.1-0.5c0,0,0-0.1,0-0.1c0-0.1-0.1-0.2-0.1-0.2
							c-0.2-0.3-0.4-0.5-0.6-0.6l-26-15c-0.3-0.2-0.5-0.1-0.6,0c0,0,0,0-0.1,0.1c0,0,0,0.1-0.1,0.1c0,0,0,0.1,0,0.1c0,0,0,0.1,0,0.1
							c0,0,0,0,0,0C145.5,7,145.4,7,145.4,7z"/>
						<g id="XMLID_00000146461892139568764480000014668739897387586187_">
							<path id="XMLID_00000139261275085701080150000012707108773211060659_" class="st0" d="M151.1,10.4c0.3,0.2,0.5,0.7,0.5,1.1
								c0,0.4-0.2,0.7-0.5,0.5c-0.3-0.2-0.5-0.7-0.5-1.1S150.8,10.3,151.1,10.4z"/>
							<path id="XMLID_00000006705502451458051040000015723672130542968236_" class="st0" d="M149.2,9.3c0.3,0.2,0.5,0.7,0.5,1.1
								c0,0.4-0.2,0.7-0.5,0.5c-0.3-0.2-0.5-0.7-0.5-1.1C148.7,9.4,148.9,9.2,149.2,9.3z"/>
							<path id="XMLID_00000017497254832503773370000013165855654182155921_" class="st0" d="M147.3,8.2c0.3,0.2,0.5,0.7,0.5,1.1
								c0,0.4-0.2,0.7-0.5,0.5c-0.3-0.2-0.5-0.7-0.5-1.1C146.8,8.3,147,8.1,147.3,8.2z"/>
						</g>
						<g id="XMLID_00000129922617177580276840000010937646176136768942_">
							<path class="st6" d="M146.3,6.6l26,15c0.2,0.1,0.4,0.4,0.6,0.6l1.1-0.6c-0.2-0.3-0.4-0.5-0.6-0.6l-26-15
								c-0.2-0.1-0.5-0.1-0.6-0.1c-0.2,0.1-0.9,0.5-1,0.6C145.9,6.4,146.1,6.4,146.3,6.6z"/>
						</g>
						<g id="XMLID_00000031193202037432730320000001810893478097406395_" class="st16">
							<path class="st9" d="M146.3,6.6l26,15c0.2,0.1,0.4,0.4,0.6,0.6l1.1-0.6c-0.2-0.3-0.4-0.5-0.6-0.6l-26-15
								c-0.2-0.1-0.5-0.1-0.6-0.1c-0.2,0.1-0.9,0.5-1,0.6C145.9,6.4,146.1,6.4,146.3,6.6z"/>
						</g>
					</g>
				</g>
			</g>
			<g id="Chart_1_">
				<g id="XMLID_526_">
					<path id="XMLID_529_" class="st6" d="M170.8,27.1L147.9,14c-0.3-0.2-0.6,0-0.6,0.3v16.9c0,0.4,0.3,0.8,0.6,1l22.9,13.1
						c0.3,0.2,0.6,0,0.6-0.3V28.2C171.4,27.8,171.1,27.3,170.8,27.1z"/>
					<path id="XMLID_267_" class="st26" d="M170.8,27.1L147.9,14c-0.3-0.2-0.6,0-0.6,0.3v16.9c0,0.4,0.3,0.8,0.6,1l22.9,13.1
						c0.3,0.2,0.6,0,0.6-0.3V28.2C171.4,27.8,171.1,27.3,170.8,27.1z"/>
					<g id="XMLID_527_" class="st8">
						<path class="st6" d="M147.7,14.1c0,0,0.1,0,0.2,0.1l22.9,13.1c0.3,0.2,0.5,0.5,0.5,0.8v16.9c0,0.1,0,0.2-0.1,0.2
							c0,0-0.1,0-0.2-0.1L148,32.1c-0.3-0.2-0.5-0.5-0.5-0.8V14.4C147.5,14.3,147.6,14.1,147.7,14.1 M147.7,13.9
							c-0.2,0-0.3,0.2-0.3,0.4v16.9c0,0.4,0.3,0.8,0.6,1l22.9,13.1c0.1,0.1,0.2,0.1,0.3,0.1c0.2,0,0.3-0.2,0.3-0.4V28.2
							c0-0.4-0.3-0.8-0.6-1L147.9,14C147.8,14,147.8,13.9,147.7,13.9L147.7,13.9z"/>
					</g>
				</g>
				<g id="XMLID_3358_" class="st8">
					<path id="XMLID_3357_" class="st6" d="M168.6,41.9c0,0,0-1.6-0.3-4c-0.2-1.4-0.5-3.9-1.9-4.7c-1.4-0.8-1.9,0.6-2.1,1.4
						c-0.3,0.9-1.6,0.3-1.8-1.2c-0.2-1.5-0.3-6.4-1.9-7.3c-1.6-0.9-2.2,1.3-2.3,2c-0.4,1.2-1.4,0.9-1.8,0.1c-0.3-0.8-1.3-1-1.7,0.1
						c-0.4,1.2-0.6,2.5-1.7,1.8c-1-0.6-0.6-1.7-1.5-2.2c-0.8-0.4-1.2,1.5-1.2,3.5L168.6,41.9z"/>
					<path id="XMLID_3356_" class="st6" d="M168.5,32.2c0,0.2-0.2,0.3-0.4,0.1l-2.3-1.3c-0.2-0.1-0.4-0.4-0.4-0.6
						c0-0.2,0.2-0.3,0.4-0.1l2.3,1.3C168.3,31.7,168.5,32,168.5,32.2z"/>
					<path id="XMLID_3359_" class="st6" d="M162,25.4c0,0.2-0.2,0.3-0.4,0.1l-2.3-1.3c-0.2-0.1-0.4-0.4-0.4-0.6
						c0-0.2,0.2-0.3,0.4-0.1l2.3,1.3C161.8,24.9,162,25.2,162,25.4z"/>
					<path id="XMLID_00000121973591318830343230000016205576455292288699_" class="st6" d="M157.5,26.3c0,0.2-0.2,0.3-0.4,0.1
						l-2.3-1.3c-0.2-0.1-0.4-0.4-0.4-0.6s0.2-0.3,0.4-0.1l2.3,1.3C157.3,25.8,157.5,26.1,157.5,26.3z"/>
					<path id="XMLID_3371_" class="st6" d="M153.3,27.3c0,0.2-0.2,0.3-0.4,0.1l-2.3-1.3c-0.2-0.1-0.4-0.4-0.4-0.6
						c0-0.2,0.2-0.3,0.4-0.1l2.3,1.3C153.1,26.8,153.3,27.1,153.3,27.3z"/>
				</g>
				<g>
					<g>
						<line class="st27" x1="166.5" y1="33.2" x2="166.5" y2="33.4"/>
						<line class="st28" x1="166.5" y1="34.1" x2="166.5" y2="40.1"/>
						<line class="st27" x1="166.5" y1="40.5" x2="166.5" y2="40.7"/>
					</g>
				</g>
				<g>
					<g>
						<line class="st27" x1="155.7" y1="27.5" x2="155.7" y2="27.7"/>
						<line class="st29" x1="155.7" y1="28.5" x2="155.7" y2="33.9"/>
						<line class="st27" x1="155.7" y1="34.3" x2="155.7" y2="34.4"/>
					</g>
				</g>
				<g>
					<g>
						<line class="st27" x1="151.5" y1="27.8" x2="151.5" y2="28"/>
						<line class="st30" x1="151.5" y1="28.7" x2="151.5" y2="31.5"/>
						<line class="st27" x1="151.5" y1="31.8" x2="151.5" y2="32"/>
					</g>
				</g>
				<g>
					<g>
						<line class="st27" x1="160.2" y1="25.9" x2="160.2" y2="26.1"/>
						<line class="st31" x1="160.2" y1="26.8" x2="160.2" y2="36.5"/>
						<line class="st27" x1="160.2" y1="36.9" x2="160.2" y2="37"/>
					</g>
				</g>
			</g>
		</g>
		<g id="Donut_Chart_Window">
			<g class="st7">
				<path d="M66.6,54.2l17.2-9.9c0.2-0.1,0.3,0,0.3,0.2v16.9c0,0.2-0.1,0.4-0.3,0.5l-17.2,9.9c-0.2,0.1-0.3,0-0.3-0.2V54.8
					C66.3,54.6,66.4,54.3,66.6,54.2z"/>
			</g>
			<g>
				<path id="XMLID_00000011735441191018566250000018291234499821354113_" class="st6" d="M83.4,45.7l-15.9,9.2
					c-0.2,0.1-0.3,0.4-0.3,0.6v16.3c0,0.2,0.2,0.5,0.3,0.6l0.6,0.4c0.2,0.1,0.5,0.1,0.7,0l15.9-9.2c0.2-0.1,0.3-0.4,0.3-0.6V46.6
					c0-0.2-0.2-0.5-0.3-0.6L84,45.7C83.9,45.6,83.6,45.6,83.4,45.7z"/>
				<path id="XMLID_00000009571545373461929980000003095646342358492597_" class="st32" d="M68.7,72.7c-0.2,0.1-0.5,0.1-0.7,0
					l-0.6-0.4c-0.2-0.1-0.3-0.4-0.3-0.6V55.5c0-0.1,0-0.2,0.1-0.3l1.3,0.7c-0.1,0.1-0.1,0.2-0.1,0.3v16.3
					C68.4,72.7,68.5,72.8,68.7,72.7z"/>
				<g id="XMLID_00000101079130278195280840000016100559331476274101_" class="st7">
					<path class="st9" d="M85,46.6c0-0.2-0.2-0.2-0.3-0.1l-15.9,9.2c-0.1,0.1-0.2,0.1-0.2,0.2l-1.3-0.7c0.1-0.1,0.1-0.2,0.2-0.2
						l15.9-9.2c0.2-0.1,0.5-0.1,0.7,0l0.6,0.4C84.8,46.1,85,46.4,85,46.6z"/>
				</g>
				<g>
					<path class="st9" d="M84.7,46.4l-15.9,9.2c-0.2,0.1-0.3,0.4-0.3,0.6v12.7v3.7c0,0.2,0.1,0.3,0.3,0.2l15.9-9.2
						c0.2-0.1,0.3-0.4,0.3-0.6V46.6C85,46.4,84.9,46.3,84.7,46.4z"/>
					<path class="st6" d="M84.7,46.7v16.2c0,0.1-0.1,0.3-0.2,0.3l-15.9,9.2v-3.6V56.2c0-0.1,0.1-0.3,0.2-0.3L84.7,46.7 M84.8,46.4
						c0,0-0.1,0-0.1,0l-15.9,9.2c-0.2,0.1-0.3,0.4-0.3,0.6v12.7v3.7c0,0.2,0.1,0.2,0.2,0.2c0,0,0.1,0,0.1,0l15.9-9.2
						c0.2-0.1,0.3-0.4,0.3-0.6V46.6C85,46.5,84.9,46.4,84.8,46.4L84.8,46.4z"/>
				</g>
			</g>
			<g>
				<g>
					<g>
						<g>
							<g>
								<path class="st6" d="M73.8,56.8v2.3c-1,0.6-1.8,2.1-1.8,3.4l-1.7,1C70.3,60.9,71.9,57.9,73.8,56.8z"/>
							</g>
						</g>
						<g>
							<g>
								<path class="st6" d="M72.5,63.9l-1.2,2.3c-0.6-0.5-1-1.4-1-2.7l1.7-1C72,63.2,72.2,63.6,72.5,63.9z"/>
							</g>
						</g>
						<g>
							<g>
								<path class="st6" d="M77.4,59.4c0,2.6-1.6,5.6-3.5,6.7c-1,0.6-1.8,0.6-2.5,0l1.2-2.3c0.3,0.3,0.8,0.3,1.3,0
									c1-0.6,1.8-2.1,1.8-3.4c0-1.3-0.8-1.9-1.8-1.4v-2.3C75.8,55.7,77.4,56.9,77.4,59.4z"/>
							</g>
						</g>
						<g class="st21">
							<g>
								<path class="st9" d="M77.4,59.4c0,2.6-1.6,5.6-3.5,6.7c-1,0.6-1.8,0.6-2.5,0l1.2-2.3c0.3,0.3,0.8,0.3,1.3,0
									c1-0.6,1.8-2.1,1.8-3.4c0-1.3-0.8-1.9-1.8-1.4v-2.3C75.8,55.7,77.4,56.9,77.4,59.4z"/>
							</g>
						</g>
						<path class="st6" d="M74.8,63c-0.3,0.4-0.6,0.7-0.9,0.9c-0.5,0.3-1,0.3-1.3,0c-0.3-0.3-0.5-0.7-0.5-1.4l-1.7,1
							c0,1.2,0.3,2.2,1,2.7c0.7,0.6,1.5,0.6,2.5,0c0.7-0.4,1.3-1,1.9-1.8L74.8,63z"/>
						<path class="st14" d="M74.8,63c-0.3,0.4-0.6,0.7-0.9,0.9c-0.5,0.3-1,0.3-1.3,0c-0.3-0.3-0.5-0.7-0.5-1.4l-1.7,1
							c0,1.2,0.3,2.2,1,2.7c0.7,0.6,1.5,0.6,2.5,0c0.7-0.4,1.3-1,1.9-1.8L74.8,63z"/>
					</g>
					<g>
						<g>
							<path class="st6" d="M79.5,55.4l-1,0.6c0,0,0,0,0,0v1.2c0,0,0,0,0,0l1-0.6c0,0,0,0,0,0L79.5,55.4
								C79.5,55.4,79.5,55.4,79.5,55.4z"/>
							<path class="st33" d="M79.5,55.4l-1,0.6c0,0,0,0,0,0v1.2c0,0,0,0,0,0l1-0.6c0,0,0,0,0,0L79.5,55.4
								C79.5,55.4,79.5,55.4,79.5,55.4z"/>
							<g>
								<path class="st5" d="M80.3,55.3C80.3,55.3,80.2,55.3,80.3,55.3c-0.1-0.1-0.1-0.1,0-0.1l2.9-1.6c0,0,0.1,0,0.1,0s0,0.1,0,0.1
									L80.3,55.3C80.3,55.3,80.3,55.3,80.3,55.3z"/>
							</g>
							<g>
								<path class="st5" d="M80.3,56C80.3,56,80.2,56,80.3,56c-0.1-0.1-0.1-0.1,0-0.1l2.9-1.6c0,0,0.1,0,0.1,0s0,0.1,0,0.1L80.3,56
									C80.3,56,80.3,56,80.3,56z"/>
							</g>
						</g>
						<g>
							<path class="st6" d="M79.5,57.8l-1,0.6c0,0,0,0,0,0v1.2c0,0,0,0,0,0l1-0.6c0,0,0,0,0,0L79.5,57.8
								C79.5,57.8,79.5,57.8,79.5,57.8z"/>
							<g>
								<path class="st5" d="M80.3,57.8C80.3,57.8,80.2,57.8,80.3,57.8c-0.1-0.1-0.1-0.1,0-0.1l2.9-1.6c0,0,0.1,0,0.1,0s0,0.1,0,0.1
									L80.3,57.8C80.3,57.8,80.3,57.8,80.3,57.8z"/>
							</g>
							<g>
								<path class="st5" d="M80.3,58.4C80.3,58.4,80.2,58.4,80.3,58.4c-0.1-0.1-0.1-0.1,0-0.1l2.9-1.6c0,0,0.1,0,0.1,0s0,0.1,0,0.1
									L80.3,58.4C80.3,58.4,80.3,58.4,80.3,58.4z"/>
							</g>
						</g>
						<g>
							<path class="st6" d="M79.5,60.2l-1,0.6c0,0,0,0,0,0V62c0,0,0,0,0,0l1-0.6c0,0,0,0,0,0L79.5,60.2
								C79.5,60.2,79.5,60.2,79.5,60.2z"/>
							<path class="st14" d="M79.5,60.2l-1,0.6c0,0,0,0,0,0V62c0,0,0,0,0,0l1-0.6c0,0,0,0,0,0L79.5,60.2
								C79.5,60.2,79.5,60.2,79.5,60.2z"/>
							<g>
								<path class="st5" d="M80.3,60.2C80.3,60.2,80.2,60.2,80.3,60.2c-0.1-0.1-0.1-0.1,0-0.1l2.9-1.6c0,0,0.1,0,0.1,0
									c0,0,0,0.1,0,0.1L80.3,60.2C80.3,60.2,80.3,60.2,80.3,60.2z"/>
							</g>
							<g>
								<path class="st5" d="M80.3,60.8C80.3,60.8,80.2,60.8,80.3,60.8c-0.1-0.1-0.1-0.1,0-0.1l2.9-1.6c0,0,0.1,0,0.1,0s0,0.1,0,0.1
									L80.3,60.8C80.3,60.8,80.3,60.8,80.3,60.8z"/>
							</g>
						</g>
					</g>
				</g>
			</g>
		</g>
		<g id="Customer_Window">
			<g class="st7">
				<path d="M157,54.2l-17.2-9.9c-0.2-0.1-0.3,0-0.3,0.2v16.9c0,0.2,0.1,0.4,0.3,0.5l17.2,9.9c0.2,0.1,0.3,0,0.3-0.2V54.8
					C157.3,54.6,157.2,54.3,157,54.2z"/>
			</g>
			<g>
				<path id="XMLID_00000176751840011744686270000004970103497237301911_" class="st6" d="M140.2,45.7l15.9,9.2
					c0.2,0.1,0.3,0.4,0.3,0.6v16.3c0,0.2-0.2,0.5-0.3,0.6l-0.6,0.4c-0.2,0.1-0.5,0.1-0.7,0l-15.9-9.2c-0.2-0.1-0.3-0.4-0.3-0.6V46.6
					c0-0.2,0.2-0.5,0.3-0.6l0.6-0.4C139.7,45.6,140,45.6,140.2,45.7z"/>
				<path id="XMLID_00000018208956936769879740000008060566918424856456_" class="st32" d="M154.9,72.7c0.2,0.1,0.5,0.1,0.7,0
					l0.6-0.4c0.2-0.1,0.3-0.4,0.3-0.6V55.5c0-0.1,0-0.2-0.1-0.3l-1.3,0.7c0.1,0.1,0.1,0.2,0.1,0.3v16.3
					C155.2,72.7,155.1,72.8,154.9,72.7z"/>
				<g id="XMLID_00000091724570579858037870000000535664148276055211_" class="st7">
					<path class="st9" d="M138.6,46.6c0-0.2,0.2-0.2,0.3-0.1l15.9,9.2c0.1,0.1,0.2,0.1,0.2,0.2l1.3-0.7c-0.1-0.1-0.1-0.2-0.2-0.2
						l-15.9-9.2c-0.2-0.1-0.5-0.1-0.7,0l-0.6,0.4C138.8,46.1,138.6,46.4,138.6,46.6z"/>
				</g>
				<g>
					<path class="st9" d="M138.9,46.4l15.9,9.2c0.2,0.1,0.3,0.4,0.3,0.6v12.7v3.7c0,0.2-0.1,0.3-0.3,0.2l-15.9-9.2
						c-0.2-0.1-0.3-0.4-0.3-0.6V46.6C138.6,46.4,138.7,46.3,138.9,46.4z"/>
					<path class="st6" d="M138.9,46.7l15.9,9.2c0.1,0.1,0.2,0.2,0.2,0.3v12.7v3.6l-15.9-9.2c-0.1-0.1-0.2-0.2-0.2-0.3V46.7
						 M138.8,46.4c-0.1,0-0.2,0.1-0.2,0.2v16.3c0,0.2,0.1,0.5,0.3,0.6l15.9,9.2c0.1,0,0.1,0,0.1,0c0.1,0,0.2-0.1,0.2-0.2v-3.7V56.2
						c0-0.2-0.1-0.5-0.3-0.6l-15.9-9.2C138.9,46.4,138.8,46.4,138.8,46.4L138.8,46.4z"/>
				</g>
			</g>
			<path class="st6" d="M144.3,53.8c0-1-0.6-2.1-1.3-2.5c-0.4-0.2-0.7-0.2-0.9,0s-0.4,0.5-0.4,1c0,1,0.6,2.1,1.3,2.5
				c0.4,0.2,0.7,0.2,0.9,0C144.2,54.6,144.3,54.3,144.3,53.8z M140.6,56.6l4.9,2.8l-0.1-0.9c-0.1-1.1-0.7-2.3-1.4-2.7l-1.9-1.1
				c-0.4-0.2-0.7-0.2-0.9,0s-0.4,0.6-0.5,1.1L140.6,56.6z"/>
			<path class="st5" d="M143,62.2c0-1-0.6-2.1-1.3-2.5c-0.4-0.2-0.7-0.2-0.9,0c-0.2,0.2-0.4,0.5-0.4,1c0,1,0.6,2.1,1.3,2.5
				c0.4,0.2,0.7,0.2,0.9,0C142.9,63,143,62.6,143,62.2z"/>
			<path class="st6" d="M147.8,64.8c0-1-0.6-2.1-1.3-2.5c-0.4-0.2-0.7-0.2-0.9,0c-0.2,0.2-0.4,0.5-0.4,1c0,1,0.6,2.1,1.3,2.5
				c0.4,0.2,0.7,0.2,0.9,0C147.7,65.7,147.8,65.3,147.8,64.8z"/>
			<path class="st6" d="M152.7,67.5c0-1-0.6-2.1-1.3-2.5c-0.4-0.2-0.7-0.2-0.9,0c-0.2,0.2-0.4,0.5-0.4,1c0,1,0.6,2.1,1.3,2.5
				c0.4,0.2,0.7,0.2,0.9,0C152.5,68.4,152.7,68,152.7,67.5z"/>
			<path class="st22" d="M152.7,67.5c0-1-0.6-2.1-1.3-2.5c-0.4-0.2-0.7-0.2-0.9,0c-0.2,0.2-0.4,0.5-0.4,1c0,1,0.6,2.1,1.3,2.5
				c0.4,0.2,0.7,0.2,0.9,0C152.5,68.4,152.7,68,152.7,67.5z"/>
			<g>
				<path class="st5" d="M152.9,58.3c0.1,0,0.1,0,0.1-0.1c0-0.1,0-0.2-0.1-0.2l-5.6-3.2c-0.1,0-0.2,0-0.2,0.1c0,0.1,0,0.2,0.1,0.2
					L152.9,58.3C152.9,58.3,152.9,58.3,152.9,58.3z"/>
			</g>
			<g>
				<path class="st5" d="M152.9,59.6c0.1,0,0.1,0,0.1-0.1c0-0.1,0-0.2-0.1-0.2l-5.6-3.2c-0.1,0-0.2,0-0.2,0.1c0,0.1,0,0.2,0.1,0.2
					L152.9,59.6C152.9,59.6,152.9,59.6,152.9,59.6z"/>
			</g>
			<g>
				<path class="st1" d="M152.9,62c0.1,0,0.1,0,0.1-0.1c0-0.1,0-0.2-0.1-0.2l-5.6-3.2c-0.1,0-0.2,0-0.2,0.1c0,0.1,0,0.2,0.1,0.2
					L152.9,62C152.9,62,152.9,62,152.9,62z"/>
			</g>
			<g>
				<path class="st1" d="M152.9,63.3c0.1,0,0.1,0,0.1-0.1c0-0.1,0-0.2-0.1-0.2l-5.6-3.2c-0.1,0-0.2,0-0.2,0.1c0,0.1,0,0.2,0.1,0.2
					L152.9,63.3C152.9,63.2,152.9,63.3,152.9,63.3z"/>
			</g>
		</g>
	</g>
	<g id="Arrows_1">
		<g id="Arrows">
			<g id="Arrow_7_">
				<polygon class="st6" points="79.9,41 81.1,41.7 83.1,40.5 83.1,15.7 84.5,14.9 82.2,13.1 80.9,12.4 78.5,16.9 79.8,17.6 
					79.9,17.6 				"/>
				<polygon class="st34" points="79.9,41 81.1,41.7 83.1,40.5 83.1,15.7 84.5,14.9 82.2,13.1 80.9,12.4 78.5,16.9 79.8,17.6 
					79.9,17.6 				"/>
				<polygon id="Down_Arrow_4_" class="st6" points="81.1,41.7 83.1,40.5 83.1,15.7 84.5,14.9 82.2,13.1 79.8,17.6 81.1,16.9 				
					"/>
				<polygon id="Down_Arrow_3_" class="st35" points="81.1,41.7 83.1,40.5 83.1,15.7 84.5,14.9 82.2,13.1 79.8,17.6 81.1,16.9 				
					"/>
				<polygon class="st6" points="79.9,41 81.1,41.7 81.1,16.9 79.9,17.6 				"/>
				<polygon class="st22" points="79.9,41 81.1,41.7 81.1,16.9 79.9,17.6 				"/>
			</g>
			<g id="Arrow_6_">
				<polygon class="st6" points="85.7,38 86.6,38.5 88.1,37.6 88.1,17.5 89.1,16.9 87.4,15.5 86.5,15 84.6,18.4 85.6,18.9 
					85.7,18.9 				"/>
				<polygon class="st36" points="85.6,18.9 87.4,15.5 86.5,15 84.6,18.4 				"/>
				<polygon id="Down_Arrow" class="st6" points="86.6,38.5 88.1,37.6 88.1,17.5 89.1,16.9 87.4,15.5 85.6,18.9 86.6,18.3 				"/>
				<polygon id="Down_Arrow_5_" class="st3" points="86.6,38.5 88.1,37.6 88.1,17.5 89.1,16.9 87.4,15.5 85.6,18.9 86.6,18.3 				
					"/>
				<polygon class="st14" points="85.7,38 86.6,38.5 86.6,18.3 85.7,18.9 				"/>
			</g>
		</g>
	</g>
	<g id="Icons">
		<g id="Icon_00000011029914296738414130000001289538218503579028_">
			<g id="XMLID_00000088117227578031007660000005677267984949029305_">
				<path id="XMLID_00000013884947735442790780000012777746117709676166_" class="st24" d="M157,45.7c0-0.4,0.3-0.6,0.7-0.4l5.6,3.2
					c0.4,0.2,0.7,0.7,0.7,1.2v8.5c0,0.4-0.3,0.6-0.7,0.4l-5.6-3.2c-0.4-0.2-0.7-0.7-0.7-1.2V45.7z"/>
				<path id="XMLID_00000056417146823249864760000011523372224992517518_" class="st4" d="M162,49.3l-5.6-3.2c-0.4-0.2-1-0.2-1.3,0
					l-0.5,0.3c-0.4,0.2-0.7,0.7-0.7,1.2V56c0,0.4,0.3,1,0.7,1.2l5.6,3.2c0.4,0.2,1,0.2,1.3,0l0.5-0.3c0.4-0.2,0.7-0.7,0.7-1.2v-8.5
					C162.7,50,162.4,49.5,162,49.3z"/>
				<path id="XMLID_00000017478663748876367180000011678543593304469402_" class="st5" d="M153.8,47.5c0-0.4,0.3-0.6,0.7-0.4
					l5.6,3.2c0.4,0.2,0.7,0.7,0.7,1.2V60c0,0.4-0.3,0.6-0.7,0.4l-5.6-3.2c-0.4-0.2-0.7-0.7-0.7-1.2V47.5z"/>
				<path id="XMLID_00000085931999499587605870000005129787615575388345_" class="st2" d="M162.7,59c0,0.4-0.3,1-0.7,1.2l-0.5,0.3
					c-0.3,0.2-0.9,0.2-1.2,0.1c0.3,0.1,0.6-0.1,0.6-0.4v-8.5c0-0.2-0.1-0.5-0.2-0.7l1.9-1.1c0.1,0.2,0.2,0.4,0.2,0.7L162.7,59z"/>
			</g>
			<path class="st6" d="M158,56l-1.1-0.6c0,0-0.1,0-0.1,0.1s0,0.1,0.1,0.2l1.1,0.6c0,0,0.1,0,0.1-0.1C158,56.1,158,56.1,158,56z
				 M157,53.1L157,53.1c0,0.1,0.1,0.3,0.1,0.4c0.1,0.6,0.1,1.2,0.1,1.7v0.2l0.4,0.2v-0.1c0-0.5,0-1.1,0.1-1.5c0-0.1,0.1-0.2,0.1-0.3
				l0,0l0,0c-0.1-0.1-0.2-0.2-0.3-0.4c0-0.1-0.1-0.2-0.1-0.2l0,0c0,0-0.1,0.1-0.1,0.1C157.2,53.1,157.1,53.1,157,53.1z M158,56.5
				l-1.1-0.6c0,0-0.1,0-0.1,0.1c0,0.5,0.3,1.1,0.6,1.3c0.3,0.2,0.6-0.1,0.6-0.6C158,56.6,158,56.5,158,56.5z M157.5,50
				c-0.5-0.3-0.9-0.3-1.2,0c-0.3,0.3-0.5,0.9-0.5,1.6c0,0.9,0.3,1.9,0.8,2.7c0.1,0.2,0.2,0.5,0.2,0.7c0,0.1,0,0.1,0.1,0.2l0.2,0.1
				v-0.1c0-0.5,0-1-0.1-1.6c0-0.2-0.1-0.3-0.1-0.4l0,0c0,0-0.1,0-0.1,0c-0.1-0.1-0.2-0.1-0.2-0.2c-0.1-0.1-0.1-0.2-0.1-0.3
				c0-0.1,0.1-0.1,0.1-0.1c0,0,0.1,0,0.1,0c0.1,0.1,0.2,0.3,0.3,0.5l0,0l0,0c0.1,0,0.2,0,0.2-0.1c0,0,0.1-0.1,0.1-0.1l0,0
				c-0.1-0.3-0.2-0.6-0.1-0.8c0-0.1,0.1-0.1,0.1-0.1c0,0,0.1,0,0.1,0c0.1,0.1,0.2,0.2,0.2,0.3c0,0.2,0,0.5-0.1,0.6l0,0
				c0,0.1,0.1,0.2,0.1,0.3c0.1,0.1,0.2,0.3,0.3,0.4c0.1-0.1,0.2-0.2,0.2-0.2c0,0,0.1,0,0.1,0c0.1,0.1,0.2,0.2,0.2,0.3
				c0,0.1,0,0.2-0.1,0.2c0,0,0,0-0.1,0c-0.1,0-0.1,0-0.2-0.1c0,0-0.1-0.1-0.1-0.1c0,0.1-0.1,0.2-0.1,0.3c-0.1,0.5-0.1,1-0.1,1.5
				c0,0,0,0.1,0,0.2l0.2,0.1c0,0,0,0,0.1,0s0,0,0-0.1c0-0.2,0.1-0.4,0.2-0.5c0.5-0.2,0.8-0.9,0.8-1.8
				C159.1,52.1,158.4,50.6,157.5,50z M156.6,52.5C156.6,52.5,156.6,52.5,156.6,52.5c-0.1,0-0.1,0.1-0.1,0.1c0,0.1,0.1,0.1,0.1,0.2
				c0,0,0.1,0,0.1,0.1c0,0,0.1,0,0.1,0c0,0,0-0.1,0-0.1c0,0,0-0.1,0-0.1C156.7,52.6,156.7,52.6,156.6,52.5z M157.5,52.6
				c0.1-0.1,0.1-0.3,0.1-0.4c0-0.1,0-0.1-0.1-0.2c0,0,0,0,0,0c0,0-0.1,0-0.1,0.1C157.3,52.2,157.3,52.4,157.5,52.6
				C157.4,52.6,157.4,52.6,157.5,52.6C157.4,52.6,157.4,52.6,157.5,52.6C157.4,52.6,157.4,52.6,157.5,52.6
				C157.4,52.6,157.5,52.6,157.5,52.6z M158.1,53.7c0.1,0,0.1,0.1,0.1,0.1c0,0,0,0,0.1,0c0,0,0,0,0-0.1c0-0.1,0-0.1-0.1-0.1
				c0,0,0,0-0.1,0c-0.1,0-0.1,0.1-0.2,0.1c0,0,0,0,0,0c0,0,0,0,0,0C158,53.6,158,53.6,158.1,53.7C158.1,53.7,158.1,53.7,158.1,53.7z
				"/>
			<path class="st37" d="M158,56l-1.1-0.6c0,0-0.1,0-0.1,0.1s0,0.1,0.1,0.2l1.1,0.6c0,0,0.1,0,0.1-0.1C158,56.1,158,56.1,158,56z
				 M157,53.1L157,53.1c0,0.1,0.1,0.3,0.1,0.4c0.1,0.6,0.1,1.2,0.1,1.7v0.2l0.4,0.2v-0.1c0-0.5,0-1.1,0.1-1.5c0-0.1,0.1-0.2,0.1-0.3
				l0,0l0,0c-0.1-0.1-0.2-0.2-0.3-0.4c0-0.1-0.1-0.2-0.1-0.2l0,0c0,0-0.1,0.1-0.1,0.1C157.2,53.1,157.1,53.1,157,53.1z M158,56.5
				l-1.1-0.6c0,0-0.1,0-0.1,0.1c0,0.5,0.3,1.1,0.6,1.3c0.3,0.2,0.6-0.1,0.6-0.6C158,56.6,158,56.5,158,56.5z M157.5,50
				c-0.5-0.3-0.9-0.3-1.2,0c-0.3,0.3-0.5,0.9-0.5,1.6c0,0.9,0.3,1.9,0.8,2.7c0.1,0.2,0.2,0.5,0.2,0.7c0,0.1,0,0.1,0.1,0.2l0.2,0.1
				v-0.1c0-0.5,0-1-0.1-1.6c0-0.2-0.1-0.3-0.1-0.4l0,0c0,0-0.1,0-0.1,0c-0.1-0.1-0.2-0.1-0.2-0.2c-0.1-0.1-0.1-0.2-0.1-0.3
				c0-0.1,0.1-0.1,0.1-0.1c0,0,0.1,0,0.1,0c0.1,0.1,0.2,0.3,0.3,0.5l0,0l0,0c0.1,0,0.2,0,0.2-0.1c0,0,0.1-0.1,0.1-0.1l0,0
				c-0.1-0.3-0.2-0.6-0.1-0.8c0-0.1,0.1-0.1,0.1-0.1c0,0,0.1,0,0.1,0c0.1,0.1,0.2,0.2,0.2,0.3c0,0.2,0,0.5-0.1,0.6l0,0
				c0,0.1,0.1,0.2,0.1,0.3c0.1,0.1,0.2,0.3,0.3,0.4c0.1-0.1,0.2-0.2,0.2-0.2c0,0,0.1,0,0.1,0c0.1,0.1,0.2,0.2,0.2,0.3
				c0,0.1,0,0.2-0.1,0.2c0,0,0,0-0.1,0c-0.1,0-0.1,0-0.2-0.1c0,0-0.1-0.1-0.1-0.1c0,0.1-0.1,0.2-0.1,0.3c-0.1,0.5-0.1,1-0.1,1.5
				c0,0,0,0.1,0,0.2l0.2,0.1c0,0,0,0,0.1,0s0,0,0-0.1c0-0.2,0.1-0.4,0.2-0.5c0.5-0.2,0.8-0.9,0.8-1.8
				C159.1,52.1,158.4,50.6,157.5,50z M156.6,52.5C156.6,52.5,156.6,52.5,156.6,52.5c-0.1,0-0.1,0.1-0.1,0.1c0,0.1,0.1,0.1,0.1,0.2
				c0,0,0.1,0,0.1,0.1c0,0,0.1,0,0.1,0c0,0,0-0.1,0-0.1c0,0,0-0.1,0-0.1C156.7,52.6,156.7,52.6,156.6,52.5z M157.5,52.6
				c0.1-0.1,0.1-0.3,0.1-0.4c0-0.1,0-0.1-0.1-0.2c0,0,0,0,0,0c0,0-0.1,0-0.1,0.1C157.3,52.2,157.3,52.4,157.5,52.6
				C157.4,52.6,157.4,52.6,157.5,52.6C157.4,52.6,157.4,52.6,157.5,52.6C157.4,52.6,157.4,52.6,157.5,52.6
				C157.4,52.6,157.5,52.6,157.5,52.6z M158.1,53.7c0.1,0,0.1,0.1,0.1,0.1c0,0,0,0,0.1,0c0,0,0,0,0-0.1c0-0.1,0-0.1-0.1-0.1
				c0,0,0,0-0.1,0c-0.1,0-0.1,0.1-0.2,0.1c0,0,0,0,0,0c0,0,0,0,0,0C158,53.6,158,53.6,158.1,53.7C158.1,53.7,158.1,53.7,158.1,53.7z
				"/>
		</g>
		<g id="Icon">
			<g id="XMLID_00000158745544485370731080000012045006684748898946_">
				<path id="XMLID_00000150080455253303128300000016116539580590487206_" class="st24" d="M166.7,51.3c0-0.4,0.3-0.6,0.7-0.4
					l5.6,3.2c0.4,0.2,0.7,0.7,0.7,1.2v8.5c0,0.4-0.3,0.6-0.7,0.4l-5.6-3.2c-0.4-0.2-0.7-0.7-0.7-1.2V51.3z"/>
				<path id="XMLID_00000172436824108832611180000012318876058135174562_" class="st6" d="M171.7,54.9l-5.6-3.2
					c-0.4-0.2-1-0.2-1.3,0l-0.5,0.3c-0.4,0.2-0.7,0.7-0.7,1.2v8.5c0,0.4,0.3,1,0.7,1.2l5.6,3.2c0.4,0.2,1,0.2,1.3,0l0.5-0.3
					c0.4-0.2,0.7-0.7,0.7-1.2V56C172.4,55.6,172.1,55.1,171.7,54.9z"/>
				<path id="XMLID_00000096021483933702383830000008403928252761779386_" class="st35" d="M171.7,54.9l-5.6-3.2
					c-0.4-0.2-1-0.2-1.3,0l-0.5,0.3c-0.4,0.2-0.7,0.7-0.7,1.2v8.5c0,0.4,0.3,1,0.7,1.2l5.6,3.2c0.4,0.2,1,0.2,1.3,0l0.5-0.3
					c0.4-0.2,0.7-0.7,0.7-1.2V56C172.4,55.6,172.1,55.1,171.7,54.9z"/>
				<path id="XMLID_00000150819644729550023710000004196685170175116693_" class="st6" d="M163.6,53.1c0-0.4,0.3-0.6,0.7-0.4
					l5.6,3.2c0.4,0.2,0.7,0.7,0.7,1.2v8.5c0,0.4-0.3,0.6-0.7,0.4l-5.6-3.2c-0.4-0.2-0.7-0.7-0.7-1.2V53.1z"/>
				<path id="XMLID_00000008869790506539338620000010565834310306546592_" class="st33" d="M163.6,53.1c0-0.4,0.3-0.6,0.7-0.4
					l5.6,3.2c0.4,0.2,0.7,0.7,0.7,1.2v8.5c0,0.4-0.3,0.6-0.7,0.4l-5.6-3.2c-0.4-0.2-0.7-0.7-0.7-1.2V53.1z"/>
				<path id="XMLID_00000142164955230095360950000004036810360706469052_" class="st6" d="M172.4,64.6c0,0.4-0.3,1-0.7,1.2l-0.5,0.3
					c-0.3,0.2-0.9,0.2-1.2,0.1c0.3,0.1,0.6-0.1,0.6-0.4v-8.5c0-0.2-0.1-0.5-0.2-0.7l1.9-1.1c0.1,0.2,0.2,0.4,0.2,0.7L172.4,64.6z"/>
				<path id="XMLID_00000088095603558703314010000013332407473935325327_" class="st38" d="M172.4,64.6c0,0.4-0.3,1-0.7,1.2
					l-0.5,0.3c-0.3,0.2-0.9,0.2-1.2,0.1c0.3,0.1,0.6-0.1,0.6-0.4v-8.5c0-0.2-0.1-0.5-0.2-0.7l1.9-1.1c0.1,0.2,0.2,0.4,0.2,0.7
					L172.4,64.6z"/>
			</g>
			<path class="st9" d="M164.5,57.9c0,0.2,0,0.4,0,0.6c0,0,0,0.1,0.1,0.1l0.5,0.3c0.1,0.1,0.2,0.2,0.2,0.4c0,0,0,0,0,0c0,0,0,0,0,0
				c0,0.2,0,0.3,0,0.4l-0.3,0.3c0,0,0,0.1,0,0.1c0.2,0.4,0.4,0.8,0.6,1.2c0,0,0.1,0.1,0.1,0l0.4-0.2c0.1,0,0.2,0,0.3,0.1
				c0,0,0,0,0,0c0.1,0.1,0.2,0.3,0.2,0.4l0.1,0.7c0,0,0,0.1,0.1,0.1c0.1,0.1,0.3,0.2,0.4,0.3c0.2,0.1,0.3,0.2,0.4,0.2c0,0,0,0,0.1,0
				l0.1-0.6c0-0.1,0.1-0.2,0.2-0.2c0,0,0,0,0,0c0.1,0,0.2,0.1,0.3,0.2l0.4,0.6c0,0,0.1,0.1,0.1,0c0.2-0.1,0.4-0.2,0.6-0.5
				c0,0,0-0.1,0-0.1l-0.3-0.7c-0.1-0.1-0.1-0.3,0-0.4c0,0,0,0,0,0c0-0.1,0.1-0.2,0.2-0.1l0.5,0.2c0,0,0.1,0,0.1,0c0-0.2,0-0.4,0-0.6
				c0-0.2,0-0.4,0-0.6c0,0,0-0.1-0.1-0.1l-0.5-0.3c-0.1-0.1-0.2-0.2-0.2-0.4c0,0,0,0,0,0c0-0.2,0-0.3,0-0.4l0.3-0.3c0,0,0-0.1,0-0.1
				c-0.2-0.4-0.4-0.8-0.6-1.2c0,0-0.1-0.1-0.1,0l-0.4,0.2c-0.1,0-0.2,0-0.3-0.1c0,0,0,0,0,0c-0.1-0.1-0.2-0.3-0.2-0.4l-0.1-0.7
				c0,0,0-0.1-0.1-0.1c-0.3-0.2-0.6-0.4-0.9-0.5c0,0,0,0-0.1,0l-0.1,0.6c0,0.1-0.1,0.2-0.2,0.2c0,0,0,0,0,0c-0.1,0-0.2-0.1-0.3-0.2
				l-0.4-0.6c0,0-0.1-0.1-0.1,0c-0.2,0.1-0.4,0.2-0.6,0.5c0,0,0,0.1,0,0.1l0.3,0.7c0.1,0.1,0.1,0.3,0,0.4c0,0,0,0,0,0
				c0,0.1-0.1,0.2-0.2,0.1l-0.5-0.2c0,0-0.1,0-0.1,0C164.5,57.5,164.5,57.7,164.5,57.9z M165.7,58.6c0-1,0.6-1.4,1.3-1
				c0.7,0.4,1.3,1.5,1.3,2.5s-0.6,1.4-1.3,1C166.3,60.7,165.7,59.6,165.7,58.6z"/>
		</g>
	</g>
	<g id="Speech_Bubble">
		<g id="Speech_Bubble_00000093147617770490158840000012283201206142170262_">
			<g id="Speech_Bubble_00000093886887531083942330000012600915579477453708_">
				<path class="st9" d="M125.2,9.8c-1.6,0.9-2.7,2.4-3.2,4l-0.2,0.8c-0.3,1.6,0,3.2,0.8,4.7c1.9,3.3,6.2,4.5,9.5,2.6
					c1.5-0.9,2.5-2.2,3.1-3.7l0.2-0.8c0.4-1.7,0.2-3.5-0.7-5.1C132.8,9,128.5,7.9,125.2,9.8z"/>
				<path class="st5" d="M124.9,9.3c-3.2,1.9-4.6,5.8-3.3,9.2l-1.5,1.8c-0.3,0.3,0,0.8,0.4,0.7l2.3-0.4c2.3,2.8,6.4,3.6,9.6,1.8
					c3.6-2.1,4.9-6.7,2.8-10.3C133.1,8.5,128.5,7.2,124.9,9.3z M134.7,12.4c0.9,1.6,1.1,3.4,0.7,5.1l-0.2,0.8
					c-0.5,1.5-1.6,2.8-3.1,3.7c-3.3,1.9-7.6,0.8-9.5-2.6c-0.9-1.5-1.1-3.2-0.8-4.7l0.2-0.8c0.5-1.6,1.6-3.1,3.2-4
					C128.5,7.9,132.8,9.1,134.7,12.4z"/>
			</g>
			<g id="Check_00000033371206789487655280000005689094087967976636_">
				<path class="st6" d="M127.6,19.9c-0.3,0-0.6-0.1-0.8-0.3l-2.5-2.6c-0.4-0.4-0.4-1.1,0.1-1.5c0.4-0.4,1.1-0.4,1.5,0.1l1.6,1.7
					l3.8-4.8c0.4-0.5,1.1-0.6,1.5-0.2c0.5,0.4,0.6,1.1,0.2,1.5l-4.6,5.8C128.3,19.7,128,19.8,127.6,19.9
					C127.6,19.9,127.6,19.9,127.6,19.9z"/>
			</g>
		</g>
	</g>
</g>
</svg>
