<?xml version="1.0" encoding="utf-8"?>
<!-- Generator: Adobe Illustrator 25.4.1, SVG Export Plug-In . SVG Version: 6.00 Build 0)  -->
<svg version="1.1" id="Layer_1" xmlns="http://www.w3.org/2000/svg" xmlns:xlink="http://www.w3.org/1999/xlink" x="0px" y="0px"
	 viewBox="0 0 225 150" style="enable-background:new 0 0 225 150;" xml:space="preserve">
<style type="text/css">
	.st0{display:none;}
	.st1{display:inline;}
	.st2{fill:#407BFF;}
	.st3{opacity:0.9;}
	.st4{fill:#FFFFFF;stroke:#FFFFFF;stroke-miterlimit:10;}
	.st5{fill:#F5F5F5;}
	.st6{fill:#E6E6E6;}
	.st7{fill:#E0E0E0;}
	.st8{fill:#EBEBEB;}
	.st9{opacity:0.8;fill:#E0E0E0;enable-background:new    ;}
	.st10{fill:#FFFFFF;}
	.st11{fill:#F0F0F0;}
	.st12{opacity:0.8;}
	.st13{opacity:0.1;fill:#FFFFFF;enable-background:new    ;}
	.st14{fill:#263238;}
	.st15{fill:#052669;}
	.st16{opacity:0.6;fill:#FFFFFF;enable-background:new    ;}
	.st17{fill:none;stroke:#052669;stroke-linecap:round;stroke-linejoin:round;stroke-miterlimit:10;}
	.st18{fill:none;stroke:#263238;stroke-linecap:round;stroke-linejoin:round;stroke-miterlimit:10;}
	.st19{opacity:0.3;}
	.st20{opacity:0.6;}
	.st21{fill:none;stroke:#FFFFFF;stroke-linecap:round;stroke-linejoin:round;stroke-miterlimit:10;}
	.st22{fill:none;stroke:#052669;stroke-miterlimit:10;}
	.st23{fill:#EF7F1A;}
	.st24{opacity:0.5;fill:#FFFFFF;enable-background:new    ;}
	.st25{opacity:0.8;fill:#FFFFFF;enable-background:new    ;}
	.st26{fill:#FFB573;}
	.st27{fill:#131B1E;}
	.st28{fill:#ED893E;}
	.st29{opacity:0.2;enable-background:new    ;}
	.st30{opacity:0.4;fill:#FFFFFF;enable-background:new    ;}
	.st31{opacity:0.1;}
</style>
<g id="Background_Simple_1_" class="st0">
	<g class="st1">
		<g>
			<path class="st2" d="M146.9-91.2c-16.6,14.9-25.2,34.7-34.6,53.5C103-18.9,91.5,0.4,71.3,12C57,20.2,34.9,16.4,19.5,23
				C-5.3,33.7-15.2,42.8-21.2,65.6c-7.1,27.1,47.2,96.1,99.4,112.2c32,9.9,76.8,4.9,101.6-14.6c24.9-19.5,20.8-57.7,25-85.9
				c3-20.3,1.4-41.4,9.8-60.7c7.4-17.1,22.1-31.5,28.7-48.8c8.8-23,1-53.6-21.8-69.7C199.1-117.6,165-107.5,146.9-91.2z"/>
		</g>
		<g class="st3">
			<path class="st4" d="M146.9-91.2c-16.6,14.9-25.2,34.7-34.6,53.5C103-18.9,91.5,0.4,71.3,12C57,20.2,34.9,16.4,19.5,23
				C-5.3,33.7-15.2,42.8-21.2,65.6c-7.1,27.1,47.2,96.1,99.4,112.2c32,9.9,76.8,4.9,101.6-14.6c24.9-19.5,20.8-57.7,25-85.9
				c3-20.3,1.4-41.4,9.8-60.7c7.4-17.1,22.1-31.5,28.7-48.8c8.8-23,1-53.6-21.8-69.7C199.1-117.6,165-107.5,146.9-91.2z"/>
		</g>
	</g>
</g>
<g id="Shadows_1_">
</g>
<g>
	<g id="Background_Complete">
		<g>
			<g id="Shadow--inject-214">
				<ellipse id="path--inject-214" class="st5" cx="112.5" cy="144.2" rx="74.3" ry="4.3"/>
			</g>
			<g>
				<path class="st6" d="M108.1,109.8h-74c-1.2,0-2.2-1-2.2-2.2V3.7c0-1.2,1-2.2,2.2-2.2h74c1.2,0,2.2,1,2.2,2.2l0,0v103.9
					C110.2,108.8,109.3,109.8,108.1,109.8z M34.1,1.6C33,1.6,32,2.5,32,3.7v104c0,1.2,0.9,2.1,2.1,2.1h74c1.2,0,2.1-0.9,2.1-2.1V3.7
					c0-1.2-0.9-2.1-2.1-2.1H34.1z"/>
				<path class="st6" d="M190.9,109.8h-74c-1.2,0-2.2-1-2.2-2.2V3.7c0-1.2,1-2.2,2.2-2.2h74c1.2,0,2.2,1,2.2,2.2v104
					C193.1,108.8,192.1,109.8,190.9,109.8z M116.9,1.6c-1.2,0-2.1,0.9-2.1,2.1v104c0,1.2,0.9,2.1,2.1,2.1h74c1.2,0,2.1-0.9,2.1-2.1
					V3.7c0-1.2-0.9-2.1-2.1-2.1H116.9z"/>
			</g>
			<g>
				<rect x="33.9" y="129.2" class="st7" width="15.8" height="0.1"/>
				<rect x="66" y="128.4" class="st7" width="15.8" height="0.1"/>
				<rect x="98.6" y="128.4" class="st7" width="3.8" height="0.1"/>
				<rect x="46.4" y="131.7" class="st7" width="17.7" height="0.1"/>
				<rect x="117.1" y="129.2" class="st7" width="8.3" height="0.1"/>
				<rect x="128.8" y="129.2" class="st7" width="10.7" height="0.1"/>
				<rect x="167.2" y="130.8" class="st7" width="23.9" height="0.1"/>
			</g>
			<rect x="16.8" y="125.5" class="st8" width="191.5" height="0.1"/>
		</g>
		<g>
			<g>
				<g>
					<g>
						<path class="st9" d="M145,9.4l-1,13.1c0,0.5-0.2,0.9-0.5,1.2c-0.3,0.4-0.8,0.6-1.4,0.6h-10.5c-0.4,0-0.7-0.1-1-0.3
							c-0.4-0.3-0.7-0.9-0.6-1.5l1-13.1c0.1-1,0.9-1.8,1.9-1.8h10.5C144.3,7.6,145.1,8.4,145,9.4z"/>
					</g>
					<g>
						
							<ellipse transform="matrix(0.2048 -0.9788 0.9788 0.2048 94.3197 146.8559)" class="st10" cx="137.5" cy="15.4" rx="3.5" ry="2.9"/>
						<path class="st10" d="M141.8,23.5h-9.6c-0.6,0-1-0.3-1-0.7c0-0.6,3.1-3.2,6.1-3c0,0,0,0,0,0l0,0c0,0,0,0,0,0
							c1.8,0,3.5,0.8,5,1.9C143.6,22.8,142.2,23.5,141.8,23.5z"/>
					</g>
				</g>
				<g>
					<g>
						<path class="st7" d="M90.7,23.9c-2,0-3.9-1.6-4-3.7c-0.2-2.1,1.4-3.7,3.4-3.8c2,0,3.9,1.6,4,3.7
							C94.3,22.2,92.7,23.9,90.7,23.9z M90.2,18.4c-1,0-1.7,0.8-1.6,1.8c0.1,1,0.9,1.7,1.9,1.7c1,0,1.7-0.8,1.6-1.8
							C92,19.2,91.2,18.4,90.2,18.4z"/>
					</g>
					<g>
						<g>
							<polygon class="st7" points="90.9,18.1 89.5,18.1 88.7,9.1 90.1,9 							"/>
						</g>
						<g>
							<g>
								<polygon class="st7" points="91.5,9.4 88.8,9.5 88.7,8.1 91.3,8 								"/>
							</g>
							<g>
								<polygon class="st7" points="91.6,11.3 89.1,11.3 89,9.9 91.5,9.9 								"/>
							</g>
							<g>
								<polygon class="st7" points="91.8,13.8 89.6,13.9 89.5,12.4 91.7,12.4 								"/>
							</g>
						</g>
					</g>
				</g>
				<g>
					<g>
						<path class="st11" d="M47.1,101.1c0,0.1,0,0.2,0,0.3c0.1,0.7,0.5,1.4,1,1.9c0.6,0.6,1.4,0.9,2.3,0.9h32.4c1.6,0,2.9-1.2,3-2.8
							c0-0.1,0-0.2,0-0.3c-0.1-0.9-0.5-1.7-1.1-2.2c-0.6-0.6-1.4-0.9-2.3-0.9H50.1C48.3,97.9,47,99.3,47.1,101.1z"/>
					</g>
					<g>
						<path class="st7" d="M85.8,101.4c0,0.1,0,0.2,0,0.3c-0.1-0.8-0.5-1.6-1.1-2.1c-0.6-0.6-1.4-0.9-2.3-0.9L48,98.7
							c0.5-0.5,1.3-0.8,2.1-0.8h32.4c0.9,0,1.7,0.4,2.3,0.9c0.6,0.6,1,1.4,1.1,2.2C85.8,101.2,85.8,101.3,85.8,101.4z"/>
					</g>
					<g>
						<g>
							<path class="st10" d="M80.3,99.4l0.1,1.5l1.5-0.5l0.3,0.8l-1.5,0.5l1,1.3l-0.7,0.5l-1-1.3l-0.8,1.3l-0.7-0.5l0.8-1.3
								l-1.5-0.5l0.2-0.8l1.5,0.5l-0.1-1.5L80.3,99.4L80.3,99.4z"/>
							<path class="st10" d="M71.5,99.4l0.1,1.5l1.5-0.5l0.3,0.8l-1.5,0.5l1,1.3l-0.7,0.5l-1-1.3l-0.8,1.3l-0.7-0.5l0.8-1.3
								l-1.5-0.5l0.2-0.8l1.5,0.5l-0.1-1.5L71.5,99.4L71.5,99.4z"/>
							<path class="st10" d="M62.6,99.4l0.1,1.5l1.5-0.5l0.3,0.8l-1.5,0.5l1,1.3l-0.7,0.5l-1-1.3l-0.8,1.3l-0.7-0.5l0.8-1.3
								l-1.5-0.5l0.2-0.8l1.5,0.5l-0.1-1.5L62.6,99.4L62.6,99.4z"/>
							<path class="st10" d="M53.8,99.4l0.1,1.5l1.5-0.5l0.3,0.8l-1.5,0.5l1,1.3l-0.7,0.5l-1-1.4l-0.8,1.3L52,103l0.8-1.3l-1.5-0.5
								l0.2-0.8l1.5,0.5L53,99.4L53.8,99.4L53.8,99.4z"/>
						</g>
					</g>
					<g>
						<g>
							<polygon class="st7" points="75.2,96.8 73.7,96.8 73.7,96.4 75.3,96.4 							"/>
						</g>
						<g>
							<polygon class="st7" points="81.7,96.8 76.8,96.8 76.8,96.4 81.7,96.4 							"/>
						</g>
					</g>
				</g>
			</g>
			<g class="st12">
				<path class="st7" d="M119.9,94.9l6.1,9.4l20.1-20.1c0.2-0.2-0.1-0.5-0.3-0.3l-19.2,15l-3.6-5.8L119.9,94.9z"/>
			</g>
		</g>
	</g>
	<g id="Device_2">
		<g>
			<polygon class="st13" points="116.3,28 101.8,82.1 106.7,82.1 121,28 			"/>
			<polygon class="st13" points="123.8,28 109.3,82.1 119,82.1 133.3,28 			"/>
		</g>
		<g>
			<g>
				<g>
					<g>
						<g>
							<g>
								<path class="st14" d="M175.8,76.8l3-43.4c0.1-1.4-1-2.6-2.4-2.6l-75.7,0.1c-1.4,0-2.7,1.2-2.8,2.6l-3,43.4
									c-0.1,1.4,1,2.6,2.4,2.6l75.7-0.1C174.5,79.4,175.7,78.2,175.8,76.8z"/>
							</g>
						</g>
					</g>
				</g>
				<g>
					<g>
						<path class="st15" d="M174.8,75.8l3-43.4c0.1-1.4-1-2.6-2.4-2.6l-75.7,0.1c-1.4,0-2.7,1.2-2.8,2.6l-3,43.4
							c-0.1,1.4,1,2.6,2.4,2.6l75.7-0.1C173.5,78.4,174.7,77.3,174.8,75.8z"/>
						<path class="st16" d="M172.8,76.5c-0.1,0.1-0.3,0.2-0.6,0.2l-75.7,0.1c-0.5,0-0.9-0.4-0.9-0.9l3-43.4c0-0.3,0.2-0.4,0.3-0.6
							c0.1-0.1,0.3-0.2,0.6-0.2l75.7-0.1c0.5,0,0.9,0.4,0.9,0.9l-3,43.4C173.1,76.2,172.9,76.4,172.8,76.5z"/>
						<g>
							<path class="st10" d="M147.6,52.6h-26.6c-0.5,0-0.9,0.4-0.9,0.9l-0.4,3.9c0,0.5,0.3,0.9,0.8,0.9h26.6c0.5,0,0.9-0.4,0.9-0.9
								l0.4-3.9C148.5,53,148.1,52.6,147.6,52.6z"/>
							<g>
								<path class="st10" d="M124.2,68.5h-4.1c-0.5,0-0.9,0.4-0.9,0.9l-0.4,3.9c0,0.5,0.3,0.9,0.8,0.9h4.1c0.5,0,0.9-0.4,0.9-0.9
									l0.4-3.9C125,68.9,124.7,68.5,124.2,68.5z"/>
								<path class="st10" d="M131.4,68.5h-4.1c-0.5,0-0.9,0.4-0.9,0.9l-0.4,3.9c0,0.5,0.3,0.9,0.8,0.9h4.1c0.5,0,0.9-0.4,0.9-0.9
									l0.4-3.9C132.2,68.9,131.9,68.5,131.4,68.5z"/>
								<path class="st10" d="M138.5,68.5h-4.1c-0.5,0-0.9,0.4-0.9,0.9l-0.4,3.9c0,0.5,0.3,0.9,0.8,0.9h4.1c0.5,0,0.9-0.4,0.9-0.9
									l0.4-3.9C139.4,68.9,139,68.5,138.5,68.5z"/>
								<path class="st10" d="M145.7,68.5h-4.1c-0.5,0-0.9,0.4-0.9,0.9l-0.4,3.9c0,0.5,0.3,0.9,0.8,0.9h4.1c0.5,0,0.9-0.4,0.9-0.9
									l0.4-3.9C146.5,68.9,146.2,68.5,145.7,68.5z"/>
							</g>
							<path class="st17" d="M124.4,65.9H141c0.8,0,1.5-0.7,1.6-1.5l0.2-1.9c0.1-0.8-0.5-1.5-1.3-1.5h-16.6c-0.8,0-1.5,0.7-1.6,1.5
								l-0.2,1.9C123,65.2,123.6,65.9,124.4,65.9z"/>
							<path class="st10" d="M148.6,44.5H122c-0.5,0-0.9,0.4-0.9,0.9l-0.4,3.9c0,0.5,0.3,0.9,0.8,0.9H148c0.5,0,0.9-0.4,0.9-0.9
								l0.4-3.9C149.4,44.9,149.1,44.5,148.6,44.5z"/>
							<path class="st14" d="M124.3,55.4c0.1-0.5-0.3-0.9-0.9-0.9c-0.5,0-1,0.4-1,0.9c-0.1,0.5,0.3,0.9,0.9,0.9
								S124.2,55.9,124.3,55.4z"/>
							<path class="st14" d="M127.2,55.4c0.1-0.5-0.3-0.9-0.9-0.9c-0.5,0-1,0.4-1,0.9c-0.1,0.5,0.3,0.9,0.9,0.9
								C126.7,56.4,127.2,55.9,127.2,55.4z"/>
							<path class="st14" d="M130.1,55.4c0.1-0.5-0.3-0.9-0.9-0.9c-0.5,0-1,0.4-1,0.9c-0.1,0.5,0.3,0.9,0.9,0.9
								C129.6,56.4,130.1,55.9,130.1,55.4z"/>
							<path class="st14" d="M133.1,55.4c0.1-0.5-0.3-0.9-0.9-0.9c-0.5,0-1,0.4-1,0.9c-0.1,0.5,0.3,0.9,0.9,0.9
								C132.5,56.4,133,55.9,133.1,55.4z"/>
							<path class="st14" d="M136,55.4c0.1-0.5-0.3-0.9-0.9-0.9c-0.5,0-1,0.4-1,0.9c-0.1,0.5,0.3,0.9,0.9,0.9
								C135.5,56.4,136,55.9,136,55.4z"/>
							<path class="st14" d="M125.3,47.3c0.1-0.5-0.3-0.9-0.9-0.9c-0.5,0-1,0.4-1,0.9c-0.1,0.5,0.3,0.9,0.9,0.9
								C124.7,48.3,125.2,47.8,125.3,47.3z"/>
							<path class="st14" d="M128.2,47.3c0.1-0.5-0.3-0.9-0.9-0.9c-0.5,0-1,0.4-1,0.9c-0.1,0.5,0.3,0.9,0.9,0.9
								C127.7,48.3,128.1,47.8,128.2,47.3z"/>
							<path class="st14" d="M131.1,47.3c0.1-0.5-0.3-0.9-0.9-0.9c-0.5,0-1,0.4-1,0.9c-0.1,0.5,0.3,0.9,0.9,0.9
								C130.6,48.3,131,47.8,131.1,47.3z"/>
							<path class="st14" d="M134,47.3c0.1-0.5-0.3-0.9-0.9-0.9c-0.5,0-1,0.4-1,0.9c-0.1,0.5,0.3,0.9,0.9,0.9
								C133.5,48.3,134,47.8,134,47.3z"/>
							<path class="st14" d="M136.9,47.3c0.1-0.5-0.3-0.9-0.9-0.9c-0.5,0-1,0.4-1,0.9c-0.1,0.5,0.3,0.9,0.9,0.9
								C136.4,48.3,136.9,47.8,136.9,47.3z"/>
							<path class="st14" d="M139.9,47.3c0.1-0.5-0.3-0.9-0.9-0.9c-0.5,0-1,0.4-1,0.9c-0.1,0.5,0.3,0.9,0.9,0.9
								C139.3,48.3,139.8,47.8,139.9,47.3z"/>
						</g>
						<g>
							<g>
								<g>
									<path class="st15" d="M137.4,36l-0.2,2c0,0.2-0.2,0.3-0.4,0.3c-0.2,0-0.3-0.1-0.3-0.3l0.2-2c0.1-0.6-0.4-1.1-1-1.1H135
										c-0.6,0-1.2,0.5-1.3,1.1l-0.2,1.8h-0.6l0.2-1.8c0.1-1,1-1.8,2-1.8h0.7C136.8,34.2,137.5,35,137.4,36z"/>
								</g>
								<g>
									<g>
										<path class="st15" d="M137.4,37.8l-0.4,3.8c0,0.2-0.2,0.4-0.5,0.4h-3.8c-0.2,0-0.4-0.2-0.4-0.4l0.4-3.8
											c0-0.2,0.1-0.3,0.2-0.4c0.1,0,0.2-0.1,0.2-0.1h3.8c0.1,0,0.2,0,0.2,0.1C137.3,37.5,137.4,37.7,137.4,37.8z"/>
									</g>
								</g>
							</g>
						</g>
					</g>
				</g>
			</g>
			<g>
				<line class="st18" x1="167.4" y1="29.6" x2="158" y2="29.6"/>
				<line class="st18" x1="172.5" y1="29.6" x2="169.2" y2="29.6"/>
			</g>
			<g class="st19">
				<path class="st10" d="M106.8,31.6h10.7l-10.9,45.1H98c0,0,0,0,0,0c-1.1,0-1.8-1-1.6-2.1L106.8,31.6z"/>
				<polygon class="st10" points="122.3,31.6 126.8,31.6 115.9,76.8 111.4,76.8 				"/>
			</g>
		</g>
	</g>
	<g id="Device_1">
		<g>
			<g>
				<g>
					<g>
						<g>
							<path class="st15" d="M49.9,17.6h2.2c-2.2,0-3.8,1.8-3.7,4l4.6,66c0.2,2.2,2,4,4.2,4h-2.2c-2.2,0-4.1-1.8-4.2-4l-4.6-66
								C46.1,19.3,47.8,17.6,49.9,17.6z"/>
							<path class="st14" d="M49.9,17.6h2.2c-2.2,0-3.8,1.8-3.7,4l4.6,66c0.2,2.2,2,4,4.2,4h-2.2c-2.2,0-4.4-1.8-4.5-4l-4.6-66
								C45.8,19.3,47.8,17.6,49.9,17.6z"/>
						</g>
						<path class="st15" d="M55.8,91.5h26.6c2.2,0,3.8-1.8,3.7-4l-4.6-66c-0.2-2.2-2-4-4.2-4H50.6c-2.2,0-3.8,1.8-3.7,4l4.6,66
							C51.7,89.7,53.6,91.5,55.8,91.5z"/>
						<g class="st20">
							<path class="st10" d="M77.1,18.8c1.5,0,2.8,1.2,2.9,2.8l4.6,66c0,0.7-0.2,1.4-0.6,1.9c-0.5,0.5-1.1,0.8-1.8,0.8H55.6
								c-1.5,0-2.8-1.2-2.9-2.8l-4.6-66c0-0.7,0.2-1.4,0.6-1.9c0.5-0.5,1.1-0.8,1.8-0.8L77.1,18.8L77.1,18.8z"/>
						</g>
						<g class="st19">
							<path class="st10" d="M69.6,90.2H59l8.8-71.4h8.5c0.8,0,1.5,0.3,2,0.8L69.6,90.2z"/>
							<polygon class="st10" points="57.1,90.2 54.7,90.2 63.5,18.8 65.9,18.8 							"/>
						</g>
						<g>
							<line class="st21" x1="56.3" y1="50" x2="75.5" y2="50"/>
							<line class="st21" x1="58.8" y1="52.9" x2="73.9" y2="52.9"/>
						</g>
						<g>
							<g>
								<path class="st15" d="M56.8,36.9l0,0.8h-0.5l0-0.8l-0.9-1.4H56l0.6,0.9l0.5-0.9h0.5L56.8,36.9z"/>
								<path class="st15" d="M57.6,36.5c0-0.6,0.5-1.1,1.1-1.1c0.7,0,1.2,0.5,1.2,1.1c0,0.6-0.5,1.1-1.1,1.1
									C58.2,37.7,57.7,37.2,57.6,36.5z M59.5,36.5c0-0.4-0.3-0.7-0.7-0.7s-0.7,0.3-0.6,0.7s0.3,0.7,0.7,0.7
									C59.2,37.2,59.5,37,59.5,36.5z"/>
								<path class="st15" d="M60.3,36.7l0-1.2h0.5l0,1.2c0,0.4,0.2,0.6,0.5,0.6s0.5-0.2,0.5-0.6l0-1.2h0.5l0,1.2c0,0.6-0.3,1-0.9,1
									C60.7,37.7,60.4,37.3,60.3,36.7z"/>
								<path class="st15" d="M64.2,37.6L63.7,37h0h-0.4l0,0.6h-0.5l-0.1-2.1h0.9c0.6,0,0.9,0.3,1,0.8c0,0.3-0.1,0.6-0.4,0.7
									l0.5,0.7L64.2,37.6L64.2,37.6z M63.6,35.9h-0.4l0,0.7h0.4c0.3,0,0.4-0.1,0.4-0.4C64.1,36,63.9,35.9,63.6,35.9z"/>
								<path class="st15" d="M65.7,36.5c0-0.6,0.5-1.1,1.1-1.1c0.4,0,0.7,0.1,0.9,0.4l-0.3,0.3c-0.1-0.2-0.3-0.2-0.5-0.2
									c-0.4,0-0.7,0.3-0.7,0.7c0,0.4,0.3,0.7,0.7,0.7c0.2,0,0.4-0.1,0.5-0.3l0.3,0.3c-0.2,0.2-0.5,0.4-0.9,0.4
									C66.3,37.7,65.8,37.2,65.7,36.5z"/>
								<path class="st15" d="M67.9,36.5c0-0.6,0.5-1.1,1.1-1.1c0.7,0,1.2,0.5,1.2,1.1s-0.5,1.1-1.1,1.1
									C68.5,37.7,67.9,37.2,67.9,36.5z M69.8,36.5c0-0.4-0.3-0.7-0.7-0.7s-0.7,0.3-0.6,0.7s0.3,0.7,0.7,0.7
									C69.5,37.2,69.8,37,69.8,36.5z"/>
								<path class="st15" d="M70.6,35.5h1c0.7,0,1.2,0.4,1.2,1.1c0,0.6-0.4,1.1-1.1,1.1h-1L70.6,35.5z M71.6,37.2
									c0.4,0,0.7-0.3,0.7-0.7c0-0.4-0.3-0.7-0.7-0.7h-0.5l0,1.3L71.6,37.2L71.6,37.2z"/>
								<path class="st15" d="M74.8,37.2l0,0.4h-1.7l-0.1-2.1h1.6l0,0.4h-1.1l0,0.5h1l0,0.4h-1l0,0.5L74.8,37.2L74.8,37.2z"/>
							</g>
							<g>
								<path class="st14" d="M60.6,45.6l0,0.9h-4l0-0.7l2.1-2.1c0.5-0.5,0.6-0.8,0.6-1.1c0-0.5-0.4-0.8-1-0.8c-0.5,0-1,0.2-1.3,0.6
									l-0.7-0.5c0.4-0.6,1.2-0.9,2.1-0.9c1.2,0,2,0.6,2,1.6c0,0.5-0.1,1-0.9,1.7L58,45.6L60.6,45.6L60.6,45.6z"/>
								<path class="st14" d="M65,44.8c0,0.9-0.7,1.7-2.1,1.7c-0.8,0-1.6-0.2-2.1-0.6l0.4-0.8c0.4,0.3,1,0.5,1.6,0.5
									c0.7,0,1.1-0.3,1.1-0.8c0-0.5-0.4-0.8-1.2-0.8h-0.5l0-0.7l1.2-1.5H61l0-0.9h3.7l0,0.7l-1.3,1.6C64.5,43.3,65,44,65,44.8z"/>
								<path class="st14" d="M70.1,44.9c0,1-0.9,1.6-2.2,1.6s-2.2-0.6-2.3-1.6c0-0.6,0.3-1,0.9-1.3c-0.4-0.2-0.7-0.6-0.7-1.1
									c0-0.9,0.8-1.5,2-1.5c1.2,0,2.1,0.6,2.1,1.5c0,0.5-0.2,0.9-0.7,1.1C69.8,43.8,70.1,44.3,70.1,44.9z M69.1,44.8
									c0-0.5-0.5-0.9-1.2-0.9s-1.2,0.3-1.2,0.9c0,0.6,0.5,0.9,1.2,0.9C68.6,45.7,69.1,45.4,69.1,44.8z M66.8,42.4
									c0,0.5,0.4,0.8,1,0.8c0.6,0,1-0.3,1-0.8c0-0.5-0.4-0.8-1.1-0.8C67.2,41.7,66.8,42,66.8,42.4z"/>
								<path class="st14" d="M75.2,44.9c0,1-0.9,1.6-2.2,1.6c-1.4,0-2.2-0.6-2.3-1.6c0-0.6,0.3-1,0.9-1.3c-0.4-0.2-0.7-0.6-0.7-1.1
									c0-0.9,0.8-1.5,2-1.5c1.2,0,2.1,0.6,2.1,1.5c0,0.5-0.2,0.9-0.7,1.1C74.9,43.8,75.2,44.3,75.2,44.9z M74.2,44.8
									c0-0.5-0.5-0.9-1.2-0.9c-0.8,0-1.2,0.3-1.2,0.9c0,0.6,0.5,0.9,1.2,0.9C73.7,45.7,74.2,45.4,74.2,44.8z M71.9,42.4
									c0,0.5,0.4,0.8,1,0.8c0.6,0,1-0.3,1-0.8c0-0.5-0.4-0.8-1.1-0.8C72.3,41.7,71.9,42,71.9,42.4z"/>
							</g>
						</g>
					</g>
				</g>
				<g>
					<line class="st17" x1="46.1" y1="27.1" x2="46.8" y2="36.4"/>
					<line class="st17" x1="45.8" y1="22.9" x2="46" y2="25.3"/>
				</g>
			</g>
			<g>
				<line class="st17" x1="64" y1="13.7" x2="64" y2="8.1"/>
				<line class="st17" x1="59.5" y1="14.9" x2="56.7" y2="10"/>
				<line class="st17" x1="71.3" y1="10" x2="68.5" y2="14.9"/>
			</g>
		</g>
	</g>
	<g id="Plant">
		<g>
			<g>
				<path class="st22" d="M137,113.7c-1.9,7.8-2.7,15.8-2.3,23.8"/>
				<g>
					<g>
						<path class="st23" d="M135.2,113.4c0,0.7,0.7,3.2,1.4,3.2s1.2-2.6,1.2-3.3c0-0.7-0.6-1.3-1.3-1.3
							C135.7,112.1,135.2,112.7,135.2,113.4z"/>
						<path class="st23" d="M138,121.4c0-0.7-0.7-3.2-1.4-3.2c-0.7,0-1.2,2.6-1.2,3.3c0,0.7,0.6,1.3,1.3,1.3
							C137.4,122.7,138,122.1,138,121.4z"/>
						<path class="st23" d="M132.6,118.8c0.7,0,3.2-0.7,3.2-1.4c0-0.7-2.6-1.2-3.3-1.2c-0.7,0-1.3,0.6-1.3,1.3
							C131.2,118.3,131.8,118.8,132.6,118.8z"/>
						<path class="st23" d="M140.6,116c-0.7,0-3.2,0.7-3.2,1.4c0,0.7,2.6,1.2,3.3,1.2c0.7,0,1.3-0.6,1.3-1.3
							C141.9,116.6,141.3,116,140.6,116z"/>
						<path class="st23" d="M132.7,115.6c0.5,0.5,2.8,1.8,3.3,1.3c0.5-0.5-0.9-2.7-1.5-3.2c-0.5-0.5-1.3-0.5-1.8,0
							C132.2,114.2,132.2,115.1,132.7,115.6z"/>
						<path class="st23" d="M140.4,119.3c-0.5-0.5-2.8-1.8-3.3-1.3c-0.5,0.5,0.9,2.7,1.5,3.2c0.5,0.5,1.3,0.5,1.8,0
							C140.9,120.6,140.9,119.8,140.4,119.3z"/>
						<path class="st23" d="M134.7,121.2c0.5-0.5,1.8-2.8,1.3-3.3c-0.5-0.5-2.7,0.9-3.2,1.5c-0.5,0.5-0.5,1.3,0,1.8
							C133.4,121.8,134.2,121.8,134.7,121.2z"/>
						<path class="st23" d="M138.4,113.6c-0.5,0.5-1.8,2.8-1.3,3.3c0.5,0.5,2.7-0.9,3.2-1.5c0.5-0.5,0.5-1.3,0-1.8
							C139.7,113,138.9,113.1,138.4,113.6z"/>
						<path class="st10" d="M135,117.4c0,0.8,0.7,1.5,1.6,1.5c0.8,0,1.5-0.7,1.5-1.6c0-0.8-0.7-1.5-1.6-1.5
							C135.7,115.9,135,116.6,135,117.4z"/>
					</g>
				</g>
				<path class="st15" d="M134.8,128.8c0,0,0.3-3.9,2.4-4.5c2.1-0.6,2.9-1.5,2.9-1.5S139.9,128.9,134.8,128.8z"/>
				<path class="st24" d="M134.8,128.8c0,0,0.3-3.9,2.4-4.5c2.1-0.6,2.9-1.5,2.9-1.5S139.9,128.9,134.8,128.8z"/>
				<path class="st15" d="M134.5,131.8c0,0-0.3-3.9-2.4-4.5c-2.1-0.6-2.9-1.5-2.9-1.5S129.4,131.9,134.5,131.8z"/>
				<path class="st24" d="M134.5,131.8c0,0-0.3-3.9-2.4-4.5c-2.1-0.6-2.9-1.5-2.9-1.5S129.4,131.9,134.5,131.8z"/>
				<g>
					<path class="st15" d="M142.6,140c0,3.1-3.6,5.5-8.1,5.5c-4.5,0-8.1-2.5-8.1-5.5c0-1.5,0.9-2.9,2.4-3.9c0.9-0.6,1.9-1,3.1-1.3
						h5.1c1.2,0.3,2.3,0.7,3.2,1.3C141.7,137.1,142.6,138.5,142.6,140z"/>
					<path class="st25" d="M137.1,134.8c1.2,0.3,2.3,0.7,3.2,1.3c1.5,1,2.4,2.4,2.4,3.9c0,3.1-3.6,5.5-8.1,5.5
						c-4.5,0-8.1-2.5-8.1-5.5c0-1.5,0.9-2.9,2.4-3.9c0.9-0.6,1.9-1,3.1-1.3H137.1z"/>
					<path class="st22" d="M134.5,135.2c0,0.9,0,1.8,0,2.7"/>
				</g>
				<polygon class="st15" points="140.6,134.7 140.2,136 140.2,136 128.9,136 128.8,136 128.4,134.7 				"/>
			</g>
			<path class="st14" d="M141.7,141.1c-0.8,1.1-1.9,2-3.1,2.7c-1.9,1-10.1,1.3-11.1-3.4c0-0.1,0-0.1,0-0.2c-0.2-1.2,0.9-2.3,2.1-2.2
				c0.8,0.1,1.6,0,2.3-0.1c2.9-0.4,6-0.3,8.8,0.5C141.8,138.7,142.4,140.1,141.7,141.1z"/>
		</g>
	</g>
	<g id="Character_1_">
		<g>
			<g>
				<g>
					<path class="st15" d="M82.8,139.6c0.1,0,0.2-0.2,0.3-0.3c0-0.1,0-0.2-0.1-0.3c-0.3-0.3-1.5-0.1-1.6-0.1c0,0-0.1,0-0.1,0.1
						c0,0,0,0.1,0,0.1c0.2,0.1,0.5,0.3,0.8,0.4C82.4,139.6,82.6,139.6,82.8,139.6z M82.9,139.1c0,0,0,0.1,0,0.1
						c0,0.1-0.1,0.2-0.2,0.2c-0.2,0.1-0.6-0.1-1.1-0.4C82.1,138.9,82.8,138.9,82.9,139.1z"/>
					<path class="st15" d="M81.4,139c0.4,0,1.2-0.5,1.3-0.9c0-0.1,0-0.2-0.2-0.3c-0.1-0.1-0.2-0.1-0.4,0c-0.5,0.2-0.8,1-0.9,1.1
						C81.3,139,81.3,139,81.4,139C81.4,139,81.4,139,81.4,139C81.4,139,81.4,139,81.4,139z M82.5,138c0.1,0,0.1,0.1,0.1,0.1
						c0,0.2-0.6,0.6-1,0.7c0.1-0.3,0.4-0.8,0.7-0.9C82.3,138,82.4,138,82.5,138C82.5,138,82.5,138,82.5,138z"/>
					<polygon class="st26" points="77.8,137.5 80.9,138.8 83.6,131.6 80.5,130.3 					"/>
					<path class="st14" d="M81.3,138.5l-3.5-1.4c-0.1,0-0.3,0-0.3,0.1l-1.5,2.6c-0.2,0.3,0,0.6,0.3,0.7c1.2,0.5,1.8,0.6,3.4,1.3
						c0.9,0.4,2.3,1,3.6,1.6c1.3,0.5,1.9-0.7,1.4-1.1c-2.2-1.5-2.3-2.4-2.9-3.4C81.7,138.7,81.5,138.6,81.3,138.5z"/>
					<polygon class="st27" points="83.6,135.1 78.2,132.9 78.7,130.9 84.5,133 					"/>
				</g>
				<g>
					<path class="st26" d="M89,51.7c-1.1,3.2-4.4,10.7-6.9,7.6c-0.4-0.6-0.8-1.2-1.1-1.8c-1.1-2.6-1.3-6.9-1.5-7.8l-0.9-2.9
						c0,0,0-0.1,0-0.2l0-1.7c0-0.7,0.5-1.1,1.3-1c0,0,1.2-0.1,1.2,0.6l0.2,2.5h0c0.1,0.9-0.2,2.1,0,2.9c0.8,3,1.8,3.1,2.5,6.2
						c0.9-2.2,2.6-6.1,2.6-6.1C87.6,50.1,89.4,50.7,89,51.7z"/>
					<path class="st23" d="M85.1,60.4c-0.7,1.2-2.4,1.2-3.2,0.1c-0.5-0.7-0.9-1.4-1.1-2c-1-3.3-1.6-5.3-1.7-8.7
						c0.7-0.7,1.8-1,2.8-0.7l1.6,5.5c0,0,3.3-8.3,4.7-8.5c1.6-0.3,2.2,1.1,2.9,2.8C91.5,50.2,87.3,57.1,85.1,60.4z"/>
					<g>
						<g>
							<path class="st26" d="M98.5,37.9c-0.4,1.9-1.2,6.1,0.1,7.4c0,0-0.5,1.9-4.1,1.9c-3.9,0-1.9-1.9-1.9-1.9
								c2.1-0.5,2.1-2.1,1.7-3.6L98.5,37.9z"/>
							<path class="st14" d="M92.5,33.4C92.5,33.4,92.6,33.4,92.5,33.4c0.1-0.1,0.2-0.1,0.1-0.2c-0.4-0.8-1.1-0.8-1.1-0.8
								c-0.1,0-0.2,0-0.2,0.1c0,0.1,0,0.2,0.1,0.2l0,0c0,0,0.6,0.1,0.9,0.7C92.4,33.3,92.5,33.4,92.5,33.4z"/>
							<path class="st28" d="M91.4,35c0,0-0.6,1.1-1.1,1.5c0.3,0.4,0.9,0.3,0.9,0.3L91.4,35z"/>
							<path class="st14" d="M91.7,34.5c0.1,0.3,0,0.5-0.2,0.5c-0.2,0-0.3-0.1-0.4-0.4c-0.1-0.3,0-0.5,0.2-0.5
								C91.4,34,91.6,34.2,91.7,34.5z"/>
							<path class="st14" d="M91.3,34.1l-0.7,0C90.7,34,91.1,34.4,91.3,34.1z"/>
							<path class="st26" d="M78,43.7L78,43.7C78,43.7,78,43.7,78,43.7L78,43.7z"/>
							<path class="st29" d="M88.9,50.1c0.7-0.6,1.1-0.4,1.4,0.1c0.3,1.4-1.5,4.4-2.3,5.6L88.9,50.1z"/>
							<path class="st23" d="M104.6,52c-0.1,1.6-0.2,3.6-0.5,6.1c-0.3,2.6-0.6,5.8-1.1,9.7c-5.2,0-10.7-0.1-13.2-0.1
								c0.2-5.2,0.3-10.4-2-20.7c-0.1-0.5,0.2-1.1,0.8-1.2c1-0.2,2.8-0.5,4.6-0.5c2.2-0.1,4-0.2,6,0c2.6,0.2,5.5,0.8,5.5,0.8
								S104.8,47,104.6,52z"/>
							<path class="st29" d="M104.6,52c-0.1,1.6-0.2,3.6-0.5,6.1c-1.4-1.6-2.7-7.2-2.3-9.1c1,0.7,2,1.8,2.7,2.8
								C104.5,51.7,104.6,51.8,104.6,52z"/>
							<g>
								<g>
									<path class="st26" d="M118.1,59l2.7-1.5l0.5,2.7c0,0-2.3,0.9-3.5,0.3L118.1,59z"/>
									<path class="st26" d="M122.5,57.8l0.2,0.9c0.1,0.3-0.1,0.6-0.3,0.7l-1.2,0.8l-0.5-2.7l0.9-0.2
										C122.1,57.1,122.5,57.4,122.5,57.8z"/>
								</g>
								<g>
									<path class="st26" d="M102,49.2c0.9,1.7,4,8.3,5.4,9.8l0.3,0.3l0.1,0.1c0,0,0.1,0.1,0.2,0.2c0.3,0.2,0.5,0.4,0.8,0.6
										c0.6,0.3,1.1,0.5,1.7,0.7c1.1,0.3,2.1,0.3,3.1,0.3c2-0.1,3.9-0.4,5.8-1l-0.3-1.6c-0.9,0.1-1.8,0.1-2.7,0.1
										c-0.9,0-1.8,0-2.7-0.1c-0.9-0.1-1.7-0.2-2.4-0.5c-0.4-0.1-0.7-0.3-0.9-0.4c-0.1-0.1-0.2-0.2-0.3-0.3c0,0-0.1-0.1-0.1-0.1
										l-0.1-0.1l-0.2-0.2c-1.1-1.3-3.8-7.7-4.7-9.3L102,49.2z"/>
								</g>
							</g>
							<path class="st23" d="M118,61.7c-2.2,1.2-4.8,1.4-7.2,0.7c-2.2-0.7-4.2-2.3-5.4-4.4c-1.4-2-5.1-7.8-4.6-9.3
								c0.5-1.8,1.7-2.9,3.7-2.4c1.4,0.3,4,7,5.2,9.6c0.5,0.7,1.4,1.9,2.5,2.3c1.9,0.6,3.3,0.4,5.2,0.1c0.4,0.2,0.3,0.5,0.5,0.9
								C118.4,60,118.4,60.9,118,61.7z"/>
							<path class="st26" d="M100.4,34.8c-0.6,3.1-0.8,4.5-2.6,5.9c-2.7,2.2-6.5,0.7-6.8-2.5c-0.3-2.9,0.7-7.6,4-8.5
								C98.2,28.9,101,31.7,100.4,34.8z"/>
							<g>
								<path class="st14" d="M111.6,52.2c-0.6,0.7-0.8,1.1-1.6,1.5c-0.8,0.4-2.7,0-3.2-0.7c0.2,0.6,1.3,1.5,1.9,1.6
									c-1.3,0.7-3.1,0.4-4-0.7c0.1,0.7,0.7,1.3,1.4,1.5c-7.3,0.2-4.2-3.3-8.8-8.2c-5.1-5.4-4-9.9-4-9.9c0-0.8-0.2-2.1-1-3.1
									c-0.7-0.9-0.5-2.2-0.3-2.9c0.3-1,1.4-1.4,2.4-1.5c0.2-1,2.3-0.8,2.6-0.7c0.2,0.1,0.3,0.1,0.5,0c0.5-0.3,1.8-0.7,3.2,0.4
									c0.9,0.7,1.8,1.9,1.8,4.6c0,2.7-1.3,6,3.2,10.1C108.2,46.7,106.9,52,111.6,52.2z"/>
							</g>
							<path class="st26" d="M92.5,35c-0.4,0.5-0.5,1.2-0.4,1.7c0.1,0.8,0.9,0.9,1.5,0.3c0.5-0.5,1.1-1.4,0.6-2.1
								C93.8,34.4,93,34.4,92.5,35z"/>
							<g>
								<path class="st14" d="M99.7,67.8c0,0-1.6,22-3.3,36.5c-0.5,4.3-1.9,8.6-3.9,12.4L83.8,133l-4.4-1.7c0,0,3-15.5,9-23.9
									c0,0-4.5-25.3,1.4-39.6L99.7,67.8z"/>
							</g>
							<path class="st29" d="M93.6,73.1c0,0,1.3,10,2,15.9C93,85.4,90.9,80.4,93.6,73.1z"/>
							<g>
								<path class="st15" d="M110.8,141.6c0.1-0.1,0.1-0.3,0.1-0.4c0-0.1-0.1-0.2-0.2-0.2c-0.4-0.1-1.4,0.6-1.5,0.7
									c0,0,0,0.1,0,0.1c0,0,0,0.1,0.1,0.1c0.2,0,0.6,0.1,0.9,0C110.5,141.8,110.7,141.8,110.8,141.6z M110.7,141.1
									C110.7,141.1,110.7,141.2,110.7,141.1c0.1,0.2,0.1,0.3,0,0.4c-0.2,0.2-0.6,0.2-1.2,0.2C109.9,141.4,110.5,141.1,110.7,141.1
									z"/>
								<path class="st15" d="M109.4,141.8c0.3-0.2,0.8-1,0.7-1.3c0-0.1-0.1-0.2-0.3-0.2c-0.1,0-0.2,0-0.3,0.1
									c-0.3,0.4-0.2,1.3-0.2,1.3C109.2,141.8,109.3,141.8,109.4,141.8C109.3,141.8,109.3,141.8,109.4,141.8
									C109.3,141.8,109.4,141.8,109.4,141.8z M109.8,140.4c0.1,0,0.1,0,0.1,0.1c0.1,0.2-0.3,0.8-0.6,1.1c0-0.3,0-0.9,0.2-1.1
									C109.7,140.5,109.7,140.4,109.8,140.4C109.8,140.4,109.8,140.4,109.8,140.4z"/>
								<polygon class="st26" points="105.4,142.1 108.8,141.8 107.8,134.2 104.4,134.5 								"/>
								<path class="st14" d="M109,141.4l-3.8,0.4c-0.1,0-0.2,0.1-0.2,0.3l-0.1,3c0,0.3,0.3,0.6,0.6,0.5c1.3-0.1,1.9-0.3,3.6-0.4
									c1-0.1,2.5-0.1,3.9-0.3c1.4-0.1,1.3-1.5,0.7-1.6c-2.7-0.3-3.2-1-4.1-1.7C109.4,141.4,109.2,141.4,109,141.4z"/>
								<path class="st14" d="M103,67.8c0,0,4.3,26.2,5.1,41.8l0.2,27.8l-3.5,0.7c0,0-5-17.8-5.6-28c-1.5-27.2-10.4-27.3-5.1-42.3
									L103,67.8z"/>
								<polygon class="st27" points="109.4,137.5 103.6,138.3 103.1,136.1 109.2,135.3 								"/>
							</g>
							<path class="st26" d="M78,43.8L78,43.8L78,43.8C78,43.8,78,43.8,78,43.8z"/>
						</g>
					</g>
				</g>
				<g>
					<g>
						<g>
							<g>
								<path class="st15" d="M78.4,39.6h0.2c-0.2,0-0.4,0.2-0.4,0.4l0.3,6.7c0,0.2,0.2,0.4,0.4,0.4h-0.2c-0.2,0-0.4-0.2-0.4-0.4
									L78,40C78,39.8,78.2,39.6,78.4,39.6z"/>
								<path class="st13" d="M78.4,39.6h0.2c-0.2,0-0.4,0.2-0.4,0.4l0.3,6.7c0,0.2,0.2,0.4,0.4,0.4h-0.2c-0.2,0-0.4-0.2-0.4-0.4
									L78,40C78,39.8,78.2,39.6,78.4,39.6z"/>
							</g>
							<path class="st15" d="M78.9,47.1h2.7c0.2,0,0.4-0.2,0.4-0.4L81.6,40c0-0.2-0.2-0.4-0.4-0.4h-2.7c-0.2,0-0.4,0.2-0.4,0.4
								l0.3,6.7C78.4,46.9,78.6,47.1,78.9,47.1z"/>
							<path class="st30" d="M78.9,47.1h2.7c0.2,0,0.4-0.2,0.4-0.4L81.6,40c0-0.2-0.2-0.4-0.4-0.4h-2.7c-0.2,0-0.4,0.2-0.4,0.4
								l0.3,6.7C78.4,46.9,78.6,47.1,78.9,47.1z"/>
							<g>
								<path class="st14" d="M81.8,46.5c0,0.1,0,0.1-0.1,0.2c0,0-0.1,0.1-0.2,0.1h-2.6c-0.1,0-0.3-0.1-0.3-0.3l-0.3-6.5
									c0-0.1,0-0.1,0.1-0.2c0,0,0.1-0.1,0.2-0.1h2.6c0.1,0,0.3,0.1,0.3,0.3l0,0.5L81.8,46.5z"/>
							</g>
							<g class="st31">
								<path class="st10" d="M81.4,40.5l-0.9,6.3h-1l1-7h0.6c0.1,0,0.3,0.1,0.3,0.3L81.4,40.5z"/>
								<polygon class="st10" points="79.2,46.8 78.9,46.8 79.9,39.8 80.1,39.8 								"/>
							</g>
						</g>
					</g>
				</g>
			</g>
			<path class="st23" d="M89,68.5c-1.9,3.8-3,8.1-3.1,12.4c6.5,5.1,12.6-0.9,20,0.1c-0.3-3.4-1.4-9.6-2.8-12.7
				C98.2,68.6,93.6,68.1,89,68.5z"/>
			<g>
				<path class="st10" d="M89.6,67.1c0,0-0.5,1.3-0.4,1.3h13.7c0.1,0,0.2-0.1,0.2-0.1l0.1-1.2c0-0.1-0.1-0.1-0.2-0.1H89.8
					C89.7,67,89.7,67.1,89.6,67.1z"/>
			</g>
			<path class="st15" d="M91.6,68.6h-0.4c-0.1,0-0.1,0-0.1-0.1l0.2-1.5c0,0,0.1-0.1,0.1-0.1h0.4c0.1,0,0.1,0,0.1,0.1l-0.2,1.5
				C91.7,68.6,91.6,68.6,91.6,68.6z"/>
			<path class="st15" d="M100.1,68.6h-0.4c-0.1,0-0.1,0-0.1-0.1l0.2-1.5c0,0,0.1-0.1,0.1-0.1h0.4c0.1,0,0.1,0,0.1,0.1l-0.2,1.5
				C100.3,68.6,100.2,68.6,100.1,68.6z"/>
		</g>
	</g>
</g>
</svg>
