<?xml version="1.0" encoding="utf-8"?>
<!-- Generator: Adobe Illustrator 25.4.1, SVG Export Plug-In . SVG Version: 6.00 Build 0)  -->
<svg version="1.1" id="Layer_1" xmlns="http://www.w3.org/2000/svg" xmlns:xlink="http://www.w3.org/1999/xlink" x="0px" y="0px"
	 viewBox="0 0 225 150" style="enable-background:new 0 0 225 150;" xml:space="preserve">
<style type="text/css">
	.st0{fill:#FDF0E2;}
	.st1{fill:#F7F0FD;}
	.st2{fill:#FFD386;}
	.st3{fill:#0C2D41;}
	.st4{fill:#EDBE72;}
	.st5{fill:#BDBEC0;}
	.st6{fill:#533238;}
	.st7{fill:#684048;}
	.st8{fill:#FFAF66;}
	.st9{fill:#553568;}
	.st10{fill:#442B56;}
	.st11{fill:#E89B5B;}
	.st12{fill:#FFFFFF;}
	.st13{fill:#113F56;}
	.st14{fill:#5E3C77;}
	.st15{fill:#4C3363;}
	.st16{fill:#EF7F1A;}
	.st17{fill:#F9A86B;}
	.st18{fill:#E99C5B;}
	.st19{fill:#744E96;}
	.st20{fill:#D32F5A;}
	.st21{fill:#EF4572;}
	.st22{fill:#09212D;}
	.st23{fill:#7C71CD;}
	.st24{fill:#6962BC;}
	.st25{fill:#F7527E;}
	.st26{fill:#24283F;}
	.st27{fill:#373E5B;}
	.st28{fill:#56AECE;}
	.st29{fill:#4198AF;}
	.st30{fill:#AEAEAF;}
	.st31{fill:#80878E;}
	.st32{fill:#64676C;}
	.st33{fill:#92D8FE;}
	.st34{fill:#FFF252;}
	.st35{fill:#73CDE5;}
	.st36{fill:#FF9750;}
</style>
<g id="OBJECTS">
	<g>
		<path class="st0" d="M205.6,85.7c-0.5-6.5-6.9-6.4-6.8-12.8c0.1-5.8,13-10.3,11.7-15.9c-2.2-9.8-17.9-5-19.5-9.6
			c-1.2-3.5,1.2-5.1,4.1-7.4c13.1-10.4-13.3-19-29.3-13.3c-6,2.1-12.1,1.2-18-1.1c-2.6-1-4.7-2.8-7.1-4.2
			c-5.6-3.3-12.6-4.1-18.8-2.3c-3.9,1.2-7.5,3.3-11.5,4.3c-5.5,1.4-11.6,0.4-16.4-2.6l-8.7,0.2c-6.2-1.1-12.8-0.5-18.7,1.6
			c-2.2,0.8-4.5,1.9-5.6,3.9c-1,1.8-0.8,4-1.7,5.8c-1.3,2.4-4.1,3.5-6.8,4.4c-4.6,1.6-9.1,3.1-13.6,4.7c-5.3,1.8-10.9,3.8-14.3,8.1
			s-3.4,11.6,1.5,14.2c1.9,1,4.2,1.2,6.1,2.1c1.9,1,3.5,3.3,2.4,5.1c-0.5,0.8-1.4,1.2-2.2,1.7c-4.4,2.4-8.6,5.4-12.1,8.9
			c-2.7,2.6-5.1,5.7-5.9,9.3s0.3,7.8,3.5,9.9c2.6,1.7,5.9,1.6,9.1,1.6c7.3,0.1,14.5,1.1,21.5,3c4.3,1.2,8.9,3,11.3,6.6
			c1.5,2.2,2.1,5,3.9,7.1c2.4,2.8,6.6,3.7,10.4,3.4c3.8-0.3,7.4-1.5,11.2-2.1c9.4-1.4,18.7,1.4,28.1,3.1c17.4,3.2,35.4,2.8,52.6-1.3
			c2.1-0.5,4.8-1.8,4.3-3.9c-0.4-2-3.2-2.4-4.4-4c-2.1-2.5,0.6-6.1,3.3-8c4.3-3.1,9.1-5.4,14.2-7.1c6.7-2.1,9.1-2.4,15.5-5.3
			C202.4,92.1,205.9,89.3,205.6,85.7z"/>
		<g>
			<ellipse class="st1" cx="104.8" cy="138.7" rx="88.1" ry="9.1"/>
			<g>
				<path class="st2" d="M150.8,93c0,2.1-0.4,14.3-6.5,17.1c-6.4,3-33.4,5-37-0.4c-0.5-0.8-1-1.6-1.1-2.5c-0.1-0.5-0.1-1,0.1-1.5
					c0.1-0.2,0.1-0.4,0.2-0.6c0.4-0.7,1-1.3,1.6-1.8c3-2.5,6.2-4.4,9.5-6.5c2.4-1.4,4.9-3.4,5.3-6.3c0.8-5.7-3.7-12.6-1-18.3
					c0.5-1.1,1.4-1.8,2.3-2.5c5.4-3.9,19.2-1.8,20.2-1.4C152.2,71.4,150.9,84.8,150.8,93z"/>
				<g>
					<rect x="129.8" y="107.7" class="st3" width="2.6" height="25.8"/>
					<path class="st3" d="M135.2,133l-4.1-1.8l-4.1,1.8c-1.2,0.5-2.4,1-3.7,1.2c-2.8,0.6-4.6,1.5-4.6,2.4c0,1.7,5.6,3.2,12.4,3.2
						c6.9,0,12.4-1.4,12.4-3.2c0-1-1.7-1.8-4.4-2.4C137.7,133.9,136.4,133.5,135.2,133z"/>
				</g>
				<path class="st4" d="M150.8,93c0,2.1-0.4,14.3-6.5,17.1c-6.4,3-33.4,5-37-0.4c-0.5-0.8-1-1.6-1.1-2.5c-0.1-0.5-0.1-1,0.1-1.5
					c0.6,0.1,1.3,0.3,2,0.5c9.8,4,31.6,0.8,35.3-3.2c3.6-4,5-19.2,0.9-26.2s0-8.6,0-8.6C152.2,71.4,150.9,84.8,150.8,93z"/>
			</g>
			<g>
				<rect x="65.1" y="107.7" class="st3" width="2.6" height="25.8"/>
				<path class="st2" d="M46.7,93c0,2.1,0.4,14.3,6.5,17.1c6.4,3,33.4,5,37-0.4c0.5-0.8,1-1.6,1.1-2.5c0.1-0.5,0.1-1-0.1-1.5
					c-0.1-0.2-0.1-0.4-0.2-0.6c-0.4-0.7-1-1.3-1.6-1.8c-3-2.5-6.2-4.4-9.5-6.5c-2.4-1.4-4.9-3.4-5.3-6.3c-0.8-5.7,3.7-12.6,1-18.3
					c-0.5-1.1-1.4-1.8-2.3-2.5c-5.4-3.9-19.2-1.8-20.2-1.4C45.3,71.4,46.6,84.8,46.7,93z"/>
				<path class="st4" d="M46.7,93c0,2.1,0.4,14.3,6.5,17.1c6.4,3,33.4,5,37-0.4c0.5-0.8,1-1.6,1.1-2.5c0.1-0.5,0.1-1-0.1-1.5
					c-0.6,0.1-1.3,0.3-2,0.5c-9.8,4-31.6,0.8-35.3-3.2c-3.6-4-5-19.2-0.9-26.2s0-8.6,0-8.6C45.3,71.4,46.6,84.8,46.7,93z"/>
				<path class="st3" d="M62.3,133l4.1-1.8l4.1,1.8c1.2,0.5,2.4,1,3.8,1.2c2.8,0.6,4.6,1.5,4.6,2.4c0,1.7-5.6,3.2-12.4,3.2
					s-12.4-1.4-12.4-3.2c0-1,1.7-1.8,4.4-2.4C59.8,133.9,61.1,133.5,62.3,133z"/>
			</g>
			<g>
				<g>
					<path class="st5" d="M80.7,138.7c3.7,0.5,15.1,0.3,15.8-0.5c1.4-1.7-1.5-3.2-8.6-4.9c-0.2,0-1.2-1.5-1.3-2.3
						c-1.3-0.1-3.6,1.7-4.8,1.7C81.6,133.4,80.3,138.6,80.7,138.7z"/>
					<path class="st5" d="M65.8,140.2c0,3,7.4,2.8,10,1.2c0.9-0.5,1-1.4,0.1-2.5c-1.2-1.6-2.2-2.7-3.5-4.1c-0.8-0.9-1.7-1.9-1.4-3.1
						c0,0.2-3.2-0.1-3.6,0c-1.7,0.4-0.8-0.2-1.1,1.2C65.8,134.9,65.8,140,65.8,140.2z"/>
					<path class="st6" d="M94.6,104.4c1.3,6.8-5.6,16.4-7.2,28.3c-1.8,1-4.2,0.8-5.7-0.1c-0.3-10.8,1.5-20,3.3-23.9
						c0.2-0.3-5.5-2.7-7.8-3.7c-1.8-0.8-3.7-1.7-5.1-3.1c-2.4-2.5-2.9-6.3-2.6-9.8c0-0.3,0.1-0.7,0.3-0.9c0.2-0.2,0.6-0.3,1-0.3
						c3.8-0.3,7.4-0.2,11.4,2.9C84.1,95.2,94.2,102.6,94.6,104.4z"/>
					<path class="st7" d="M65.9,107.1c1.7,1,3.6,1.9,3.6,3c0,2.7-1.4,7.8-2,10.4c-1,4-1.4,8-1.4,12.1c0.4,1.6,4.5,2.1,5.4,0.1
						c2.8-6.1,5.6-12.8,8.6-18.8c1.2-2.3,2-4,1.6-5.8c-0.5-2.2-8.7-9.4-9-10.8c-0.3-1.5-0.2-3-0.1-4.4c-4.7-0.4-9.3-0.8-14-1.2
						c-1.1-0.1-2.4,0.8-2.7,1.7c-0.4,1.4-0.1,5.6,1.4,7.9C60.1,106.1,63.2,105.4,65.9,107.1z"/>
				</g>
				<g>
					<path class="st8" d="M93.3,49.1c0.3-0.2,0.6-0.3,0.8-0.5c0.3-0.3,0.4-0.7,0.7-0.9c0.5-0.2,1.7-0.4,1.1,0.7
						c-0.3,0.5-1.8,1.5-1.5,1.4c0.8-0.3,1.7-0.2,2.5-0.6c0.4-0.2,0.5-1.7,0.5-2.3c0-0.6,0.2-1.3,0.8-1.1c0.4,0.1,0.7,4.8,0.5,5
						c-0.8,0.8-2.2,1.6-2.7,2.1c-0.4,0.4,0.2,1.3-0.5,1.8c-0.7,0.4-2.8,2-3.4,0C91.7,53.4,92.1,49.9,93.3,49.1z"/>
					<path class="st9" d="M88.4,69.5c3.4-3.6,2.2-10.7,3.1-16.1c0.9-0.6,3.5-0.4,4.8,0c0,5.7,1.2,15.2-1.1,19.5
						c-0.6,1.2-1.3,2.3-2.4,3.1c-1.6,1.1-3.8,1.1-5.6,0.4c-1.8-0.6-3.5-1.8-5.2-2.7c-1.7-1-3.6-1.8-5.1-3c-2.8-2.2-4.3-9.1,1-9.3
						C81.7,61.4,86.4,66.8,88.4,69.5z"/>
				</g>
				<g>
					<path class="st9" d="M54.2,65.6c-0.8,2-0.2,3.6-0.3,5.8c-0.1,3.4-0.3,6.9,0.5,10.2c0.4,1.7,1.1,3.3,1.4,5
						c0.3,1.7,0.3,3.5,0,5.2c-0.1,0.5-0.2,1.1,0,1.7c0.3,1,1.5,1.3,2.5,1.6c3.6,0.8,7.4,1.5,11.1,1.3c4.3-0.2,8.5-1.5,12.7-2.2
						c0.7-0.5-3.9-3.7-2.5-11c0.7-3.8,1.5-7.6,1.6-11.5c0.1-2.9-0.5-5.8-1-8.6c-0.1-0.6-0.2-1.2-0.6-1.7c-0.5-0.6-1.5-0.8-2.3-0.9
						c-4.4-0.6-8.7-2.2-13.6-1.4c-2.6,0.4-5.6,1.2-6.6,1.9C55.6,61.8,55.1,63.5,54.2,65.6z"/>
					<g>
						<g>
							<path class="st10" d="M63,61c0.4,1.3,1,2.4,1.8,3.5c0.7,1,1.4,1.9,2.6,2.2c0.2,0,0.3-0.2,0.1-0.3c-2.1-0.8-3.5-3.5-4.3-5.5
								C63.2,60.8,62.9,60.8,63,61L63,61z"/>
						</g>
						<g>
							<path class="st10" d="M63.3,73.5c0.8,1.3,2.1,2.6,3.5,3.1c0.1,0,0.1-0.1,0.1-0.1c-1.3-1-2.4-1.7-3.4-3.1
								C63.4,73.3,63.2,73.4,63.3,73.5L63.3,73.5z"/>
						</g>
						<g>
							<path class="st10" d="M63.3,76.5c0.8,0.7,1.8,1.4,2.8,1.8c0.1,0,0.2-0.1,0.1-0.2c-0.9-0.6-1.9-1.1-2.7-1.8
								C63.3,76.2,63.2,76.4,63.3,76.5L63.3,76.5z"/>
						</g>
						<g>
							<path class="st10" d="M62.5,89.8c2.1,0.7,4.3,1.3,6.5,1.7c1.7,0.3,3.5,0.6,5.2,0.3c0.1,0,0.1-0.3,0-0.3
								c-3.8,0.5-8-0.7-11.6-1.9C62.4,89.6,62.4,89.7,62.5,89.8L62.5,89.8z"/>
						</g>
					</g>
				</g>
				<g>
					<path class="st11" d="M63.7,59c0.1,0.5,1.2,2.8,1.5,3.3c2.1,3.3,4.6,3.8,6.5,3.8c3.2,0,5.4-5.8,5.3-6.1c0-0.4-1.6-0.2-1.8-0.6
						c-0.7-1.2,0.1-5.1-0.2-5.1c-2.5,0.3-8.2-4.7-8.6-1.6c-0.3,1.9-0.3,3.9-1.3,5.3C64.6,58.9,63.7,59,63.7,59z"/>
					<path class="st8" d="M67.9,55.2c1,1.1,3.7,3.5,6,2.6c0.8-0.3,1.6-1,2.2-1.6c2.1-2.4,2.1-6,2.1-10.9c0-2.3-1.8-2.6-3.9-3.4
						c-2.5-1-6.5-1-7.6,1.5C65.2,46.3,65.8,52.7,67.9,55.2z"/>
					<path class="st12" d="M72,53.5c0,0,0,3.2,0.8,3.1c0.7-0.1,1.5-1.9,1.5-2.6C74.3,54,72.8,54.1,72,53.5z"/>
					<path class="st3" d="M67,48.6c0.4-2.9,0.5-5.9,1.6-5.4c2.9,1.4,6.8,2.4,9.6,2c0.9-1.4,1.5-3.1,0.4-4.9
						c-1.3-2.2-10.2-3.6-11.6-0.1c-3-0.2-3.4,2.5-3.5,3.6c-0.2,2.8,0.5,4.1,0.8,6.5c0.8,0.1,1.6,0.4,2.3,0.7
						C66.7,50.6,67.1,49.7,67,48.6z"/>
					<path class="st8" d="M67.4,49.6c-0.3-1.2-1.3-2.5-2.4-1.9c-1.3,0.7-0.7,2.9,0,4c0.3,0.5,0.9,1,1.5,1
						C67.9,52.6,67.4,49.6,67.4,49.6z"/>
					<circle class="st3" cx="71.5" cy="49.1" r="0.5"/>
					<g>
						<path class="st11" d="M73.9,48.5c-0.2,0.8-0.2,1.6,0.1,2.4c0.1,0.3,0.4,0.7,0.3,1.1c-0.2,0.6-1,0.5-1.4,0.5
							c-0.1,0-0.1,0.1-0.1,0.2c0.2,1,1.7,0.1,2-0.3c0.3-0.4,0.1-0.5-0.1-1c-0.4-0.9-0.5-1.8-0.4-2.8C74.3,48.4,73.9,48.3,73.9,48.5
							L73.9,48.5z"/>
					</g>
					<g>
						<path class="st3" d="M70.5,47.3c0.6-0.3,1.4-0.4,2,0c0.5,0.4,1.2-0.3,0.7-0.7c-0.9-0.7-2.2-0.5-3.1,0.2
							C69.8,47,70.2,47.5,70.5,47.3L70.5,47.3z"/>
					</g>
					<circle class="st3" cx="76.3" cy="49.1" r="0.5"/>
					<g>
						<path class="st3" d="M77.8,47.2c-0.4-1.1-1.6-1.1-2.5-0.7c-0.6,0.3-0.1,1.2,0.5,0.9c0.4-0.2,1.1-0.4,1.4,0.1
							C77.4,47.7,77.9,47.6,77.8,47.2L77.8,47.2z"/>
					</g>
					<g>
						<path class="st11" d="M66.4,48.9c-0.3-0.2-0.7-0.3-1-0.1c-0.3,0.2-0.2,0.5-0.2,0.8c0,0.6,0.2,1.7,1,1.7c0.1,0,0.2-0.2,0.1-0.3
							c-0.5-0.2-0.7-0.5-0.7-1c0-0.1,0-0.3,0-0.5c0-0.3,0.1-0.4,0.5-0.5c0.1,0,0.2,0.1,0.3,0.1C66.4,49.3,66.5,49,66.4,48.9
							L66.4,48.9z"/>
					</g>
					<g>
						<path class="st13" d="M69.9,41.7c1.9,1.3,4.5,2.3,6.9,2c0.1,0,0.1-0.2,0-0.2c-2.5-0.3-4.5-0.6-6.7-1.9
							C69.9,41.5,69.8,41.7,69.9,41.7L69.9,41.7z"/>
					</g>
					<g>
						<path class="st13" d="M70.2,40.6c1.4,0.1,2.7,0.4,4,0.8c1.1,0.4,2.1,1,3.3,1.4c0.1,0,0.1-0.1,0.1-0.1
							c-1.9-1.7-4.9-2.2-7.3-2.3C70.1,40.4,70.1,40.5,70.2,40.6L70.2,40.6z"/>
					</g>
					<g>
						<path class="st13" d="M65,45.7c0-0.7-0.1-1.5,0.2-2.1c0.3-0.8,0.7-1,1.4-1.5c0.1,0,0-0.2,0-0.2c-0.6,0-1.2,0.6-1.5,1.1
							c-0.4,0.8-0.4,1.8-0.3,2.6C64.7,45.8,65,45.8,65,45.7L65,45.7z"/>
					</g>
					<g>
						<path class="st13" d="M66,45.6c0-0.5,0.1-1.1,0.4-1.6c0.2-0.5,0.6-0.7,0.9-1.1c0.1-0.1,0-0.3-0.2-0.2c-1,0.5-1.4,1.9-1.3,2.9
							C65.9,45.7,66,45.7,66,45.6L66,45.6z"/>
					</g>
					<g>
						<path class="st13" d="M70.2,39.2c2.6-0.2,4.6,0.7,6.9,1.8c0.1,0.1,0.3-0.1,0.1-0.2c-1.8-1.6-4.7-1.9-7-1.7
							C70.2,39.1,70.2,39.2,70.2,39.2L70.2,39.2z"/>
					</g>
				</g>
				<g>
					<g>
						<path class="st8" d="M74.6,81.4c0.3,0,3.6,2.7,3.6,3.3c-0.1,0.8-2.8-0.6-3.2-0.7c-0.3,0-2,0.5-2.3,0.7c-1.2,0.5-2-0.1-3.3-0.4
							c-1.8-0.5-2.7-1.7-2-3.4C69.9,81.6,71.5,81.5,74.6,81.4z"/>
						<path class="st14" d="M52.8,67.5c-1.7,4.3-2.5,9.3-2.5,13.9c0,2.4,1.1,3.3,1.6,3.3c6.5,0.4,12.7,0.6,19.2,0
							c0.3-1.8-0.2-2,0-3.8c-4.4-0.1-10.6-2.7-13.9-2.2c0.6-1.6,4.4-7.6,5.4-11.2c0.5-1.8,0.6-4.2-0.8-5.5c-1.7-1.5-3.1-1.7-4.7-1.2
							C53.8,61.9,53.6,65.7,52.8,67.5z"/>
					</g>
					<g>
						<g>
							<path class="st9" d="M53.4,80.9c0.5-0.5,1.1-0.9,1.8-1.2c0.5-0.2,1.2-0.2,1.7-0.5c0.1,0,0.1-0.2,0-0.2
								c-1.3-0.3-2.9,0.8-3.7,1.7C53,80.9,53.2,81.1,53.4,80.9L53.4,80.9z"/>
						</g>
						<g>
							<path class="st9" d="M53.1,79.4c0.4-0.2,0.9-0.3,1.4-0.3c0.4,0,0.8,0,1.3-0.1c0.1,0,0.1-0.1,0-0.2c-0.8-0.4-2,0-2.8,0.4
								C52.9,79.2,53,79.4,53.1,79.4L53.1,79.4z"/>
						</g>
						<g>
							<path class="st9" d="M69.1,81.9c0.2,0,0.5,0,0.7,0.1c0.2,0.1,0.4,0.2,0.6,0.2c0.1,0,0.2-0.2,0.1-0.3c-0.3-0.4-1-0.4-1.5-0.4
								C68.9,81.5,68.9,81.9,69.1,81.9L69.1,81.9z"/>
						</g>
						<g>
							<path class="st9" d="M69.1,82.9c0.3,0,0.6,0,1,0.1c0.1,0,0.2,0,0.2-0.1c0,0,0.1-0.1,0.1-0.1c0-0.1-0.1-0.2-0.2-0.2
								c-0.4-0.1-0.7-0.1-1.2,0C68.9,82.6,68.9,82.9,69.1,82.9L69.1,82.9z"/>
						</g>
						<g>
							<path class="st9" d="M69.1,84c0.2,0,0.4,0,0.7,0c0.2,0,0.4,0,0.5-0.1c0.1,0,0.1-0.2,0-0.2c-0.2-0.1-0.3-0.1-0.5-0.1
								c-0.2,0-0.4,0-0.7,0C68.9,83.6,68.9,84,69.1,84L69.1,84z"/>
						</g>
					</g>
				</g>
			</g>
			<g>
				<g>
					<path class="st3" d="M170.6,130.1c-0.7,1.1-3.7,2.6-4.7,2.9c-4.9,1.4-4.8,2.5-3.7,3.4c0.6,0.5,3.3,0.4,8.4,0.3
						c0.6,0,5.4-0.4,5.4-0.7c-0.2-2.5-1.5-6.2-1.9-9.3c0-0.2-0.1-0.4-0.3-0.5c-0.1-0.1-0.3-0.1-0.4-0.1c-1.1,0-2.3,0.1-3.4,0.1
						C170.7,126.2,170.8,129.7,170.6,130.1z"/>
					<path class="st3" d="M155.1,130.1c-0.8,0.4-4.5,1.8-5.4,2.1c-1.6,0.5-4.1,1.5-3.6,3c1.2,1.1,3.7,0.6,5.4,0.6
						c2.1,0,10.4-0.2,10.4-0.3c0-3.5-1.1-5.9-1.7-8.9c-1.4-0.1-2.6-0.2-4-0.1C155.7,128,157,129,155.1,130.1z"/>
					<g>
						<path class="st14" d="M155.6,129c0.1,0.9,5.2,1.2,5.2-0.3c0.5-11.9,1.4-42.7,2.8-48c0.4-0.3,0.6-0.2,0.9,0.2
							c0.3,0.4,2.5,32.8,5.4,48.9c0.1,0.7,3.8,0,5.1-0.3c-0.1-23.4,1.5-44,0.7-62.1c-1.9-2.2-10.4-2.5-14.8-2.1
							c-2.9,0.3-7.3,0.3-9,3.2c0,2.8,0.3,7.7,0.3,8.7c0,3.4,0.3,6.5,0.5,9.8C153.1,95.5,155.2,122.5,155.6,129z"/>
						<g>
							<g>
								<path class="st15" d="M157.7,77c1.2,1.4,3,2.9,4.9,3c0.1,0,0.2-0.2,0.1-0.2c-0.8-0.4-1.7-0.6-2.5-1.1
									c-0.8-0.5-1.6-1.2-2.3-1.9C157.8,76.6,157.6,76.8,157.7,77L157.7,77z"/>
							</g>
							<g>
								<path class="st15" d="M162.2,76c0.2,0.8,0.3,1.6,0.7,2.3c0.1,0.1,0.3,0.1,0.3-0.1c-0.1-0.8-0.4-1.6-0.7-2.3
									C162.4,75.7,162.2,75.8,162.2,76L162.2,76z"/>
							</g>
							<g>
								<path class="st15" d="M169.2,74.7c0.3,0.7,0.8,1.3,1.5,1.7c0.5,0.3,1.5,0.6,2.1,0.3c0.1,0,0.1-0.2,0-0.2
									c-0.6-0.2-1.2,0-1.8-0.3c-0.6-0.3-1.2-0.8-1.4-1.5C169.5,74.4,169.2,74.5,169.2,74.7L169.2,74.7z"/>
							</g>
							<g>
								<path class="st15" d="M170.9,78c0.3,0.1,0.7,0.1,1,0.2c0.3,0.1,0.5,0.2,0.8,0.1c0.1,0,0.1-0.1,0.1-0.2
									c-0.2-0.2-0.5-0.2-0.8-0.2c-0.3-0.1-0.7-0.1-1-0.2C170.8,77.7,170.7,78,170.9,78L170.9,78z"/>
							</g>
						</g>
					</g>
				</g>
				<g>
					<path class="st16" d="M150.7,32.9c0,10.7,0.9,25.5,0.4,36.3c-0.1,2.8,2.4,4.1,3,4.3c4.2,1.5,8.3,2.4,12,0
						c3.5-2.3,4-3.1,6.8-5.7c1.7-1.6,3.7,0.1,3.7-0.1c-0.6-11.2-2-25-2.6-36.2c0-0.6-5.4-1.2-6-1.3c-2.2-0.2-4.4-0.1-6.6,0.2
						C157.2,31.2,153.6,31.6,150.7,32.9z"/>
					<g>
						<path class="st8" d="M185.7,51.5c0.5,3.3-4.1,13.8-7.9,17.8c-0.8,0.9-1.4,2.2-1.9,3.3c-0.3,0.6-0.5,1.3-1.1,1.6
							c-0.6,0.3-1.4-0.1-1.8-0.6c-1-1.1-1.2-2.7-0.8-4.1c0.6-2.6,2.5-2,3.2-3.3c1.8-3.2,4-12.7,3.5-13.3c-1.6-1.8-4.4-8-6.8-11.4
							c-0.6-0.9,5.4-4.3,6.3-3.4C180.5,40.6,185.1,47.4,185.7,51.5z"/>
						<path class="st16" d="M183.1,44.5c-1.6,0.6-7.2,3.5-8.1,2.6c-1.6-1.7-1.7-3.7-2.9-5.7s-2.1-4.2-2.1-6.5c0-2,1-4,3.2-3.8
							c1.7,0.2,3.1,2,4.1,3.2C178,35.2,183.5,44.3,183.1,44.5z"/>
					</g>
				</g>
				<g>
					<path class="st11" d="M166,31.1c0.7,3.2-6,4-8.8,3.2c-0.3-0.1-0.6-0.2-0.7-0.5c-0.2-0.4,0.1-0.8,0.3-1.2c1-1.9,0.3-4.2-0.3-6.3
						c-0.2-0.6,5.8-3.6,6.4-2.2C163.8,27,164.9,29.3,166,31.1z"/>
					<path class="st17" d="M152.6,26.6c0.8,1.5,1.8,2.9,3.3,3.8c1.4,0.9,3.4,1.1,4.8,0.1c1.4-1,1.8-2.8,2-4.4c0.2-1.8,0.4-3.6,0-5.4
						c-0.3-1.8-1.2-3.5-2.6-4.6c-1.5-1.2-3.6-1.5-5.4-1C148.5,17,150.2,22.3,152.6,26.6z"/>
					<path class="st14" d="M148.1,18.3c0.2,0.4-0.2,0.9-0.4,1.3c-0.3,1,0.7,2,1.7,1.7c0.8-0.3,1.4-1.5,2.3-1.4
						c0.6,0.1,1,0.7,1.6,0.8c1.4,0.2,2-2.5,3.5-2.2c0.5,0.1,0.8,0.5,1.3,0.5c0.9,0.1,1.4-0.2,2,0.4c0.5,0.4,0.7,3,1,3.6
						c0.5,1.3,1.4-0.2,1.7,0c1.6,1.3,2.3-1.4,2-2c-0.3-0.6-1-1.4-0.6-2.3c0.1-0.3,0.4-0.8,0.2-1.1c-1.4-2.4,1.4-3.4-1.4-4.2
						c-1.1-1.1-1.2-1.7-2.5-0.9c-0.2,0.1-0.4,0.3-0.6,0.3c-0.4,0-0.8-0.3-1.1-0.6c-0.8-0.8-2-1.4-3-0.8c-0.4,0.3-0.4,1.2-2,0.9
						c-2.4-0.4-1.4,1.1-3,1.2c-1,0-1.5-0.3-2.3,0.3c-0.6,0.4-1.5,1.5-1.6,2.2C146.4,17.5,147.6,17.1,148.1,18.3z"/>
					<path class="st8" d="M162.9,20c-1.9,0-1.3,2.7-1.3,2.7c0.7,3.5,2.4,1.3,2.3,0.2C163.9,22.2,164,20,162.9,20z"/>
					<path class="st14" d="M154.4,24.2c0,0.3-0.2,0.5-0.5,0.5s-0.5-0.2-0.5-0.5s0.2-0.5,0.5-0.5C154.2,23.8,154.4,24,154.4,24.2z"/>
					<path class="st14" d="M158.8,23c0,0.3-0.2,0.5-0.5,0.5s-0.5-0.2-0.5-0.5s0.2-0.5,0.5-0.5C158.6,22.5,158.8,22.8,158.8,23z"/>
					<g>
						<path class="st18" d="M155.6,23.9c0.3,0.5,0.4,1,0.4,1.6c0,0.4-0.1,0.9-0.1,1.3c0,0.6,0.8,0.7,1.4,0.6
							c0.3-0.1,0.2-0.4-0.1-0.5c-0.2,0-0.5,0-0.6-0.1c-0.2-0.1-0.1-0.2-0.1-0.5c0-0.3,0-0.7,0-1c0-0.6-0.2-1.1-0.5-1.6
							C155.7,23.5,155.5,23.7,155.6,23.9L155.6,23.9z"/>
					</g>
					<path class="st12" d="M159.3,27.4c-1.4,0.9-3,1-3,1c0.4,1.2,2.1,1.9,3.1,1.3C160,29.2,159.3,27.4,159.3,27.4z"/>
					<g>
						<path class="st14" d="M152.1,22.9c0.2-0.2,0.4-0.4,0.7-0.5c0.2-0.1,0.5-0.1,0.7-0.4c0-0.1,0-0.2,0-0.3c-0.3-0.3-0.7-0.1-1,0.1
							c-0.3,0.2-0.5,0.4-0.7,0.7C151.6,22.8,151.9,23.1,152.1,22.9L152.1,22.9z"/>
					</g>
					<g>
						<path class="st14" d="M156.9,21c0.4-0.1,0.8-0.2,1.3-0.2c0.3,0,0.6,0.1,0.9-0.2c0.1-0.1,0.1-0.2,0-0.3c-0.2-0.3-0.6-0.3-1-0.3
							c-0.5,0.1-0.9,0.1-1.3,0.3C156.4,20.6,156.5,21.1,156.9,21L156.9,21z"/>
					</g>
					<g>
						<path class="st18" d="M162.3,22.3c0-0.1,0-0.3,0.1-0.4c0.4-0.3,0.7-0.4,0.7,0c0.1,0.2,0,0.4,0.1,0.6c0,0.4,0.1,1.1-0.3,1.3
							c-0.2,0.1,0,0.4,0.2,0.3c0.4-0.2,0.5-0.6,0.5-1c0-0.4,0.1-1.1-0.1-1.6c-0.2-0.3-0.5-0.5-0.8-0.3c-0.5,0.2-0.6,0.7-0.6,1.2
							C162,22.5,162.3,22.5,162.3,22.3L162.3,22.3z"/>
					</g>
					<g>
						<path class="st19" d="M149.2,15.8c-0.7,0.1-0.8,1.1-0.2,1.3c0.3,0.1,0.6,0.1,0.7,0.4c0.1,0.2,0.2,0.5,0.3,0.6
							c0.2,0.2,0.6,0.3,0.7,0c0,0,0-0.1,0-0.1c-0.1,0-0.2,0-0.3-0.1c-0.2-0.1-0.2-0.3-0.3-0.5c-0.1-0.2-0.1-0.3-0.3-0.5
							c-0.2-0.1-0.3-0.2-0.5-0.2c-0.2-0.1-0.4-0.1-0.3-0.3c0-0.2,0.1-0.3,0.3-0.3C149.4,16.1,149.4,15.8,149.2,15.8L149.2,15.8z"/>
					</g>
					<g>
						<path class="st19" d="M151.7,15.6c-0.3,0.8,0.1,1.7,1.1,1.8c0.1,0,0.2,0,0.3,0c0.5,0,0.6,0,0.9,0.3c0.1,0.1,0.2,0.2,0.4,0.3
							c0.5,0.2,1-0.1,1.3-0.4c0.1-0.1,0-0.3-0.2-0.2c-0.1,0.1-0.2,0.1-0.3,0.2c-1.6,0.5-0.6-0.1-1-0.3c-0.2-0.1-0.2-0.2-0.4-0.2
							c-0.2,0-0.3,0-0.5,0c-0.6,0.1-1.4-0.3-1.1-1.2C152.1,15.5,151.8,15.3,151.7,15.6L151.7,15.6z"/>
					</g>
					<g>
						<path class="st19" d="M155.3,14.7C155.3,14.7,155.4,14.7,155.3,14.7c0.1-0.1,0.1-0.2,0-0.2c-0.1,0-0.1,0-0.2,0
							c-0.1,0-0.1,0.1-0.1,0.2c0,0.3,0.2,0.6,0.4,0.7c0.2,0.1,0.4,0.1,0.6,0.1c0.2,0,0.5,0,0.6,0c0.3,0.2,0.4,0.5,0.4,0.8
							c0,0.4,0.1,0.8,0.5,1c0.3,0.1,0.6,0.1,0.8-0.2c0.1-0.1-0.1-0.3-0.2-0.2c-0.7,0.4-0.7-0.8-0.7-1.1c-0.1-0.2-0.1-0.4-0.3-0.5
							c-0.2-0.1-0.3-0.2-0.5-0.2c-0.2,0-0.3,0-0.5,0c-0.1,0-0.1,0-0.2,0C155.7,15,155.5,14.9,155.3,14.7c-0.1-0.1-0.1-0.1-0.1-0.2
							c0,0,0,0,0,0C155.1,14.6,155.2,14.7,155.3,14.7L155.3,14.7z"/>
					</g>
					<g>
						<path class="st19" d="M159.3,14.7c-0.1,0.5,0,1.1,0.5,1.4c0.3,0.2,1.2,0.5,1.4,0c0,0,0-0.1,0-0.1c-0.1-0.1-0.2,0-0.4,0
							c-0.2,0-0.4,0-0.6-0.1c-0.4-0.2-0.6-0.7-0.5-1.2C159.6,14.6,159.3,14.6,159.3,14.7L159.3,14.7z"/>
					</g>
					<g>
						<path class="st19" d="M160.4,17.8c0.2,0.3,0.4,0.5,0.6,0.7c0.2,0.1,0.6,0.3,0.8,0.2c0,0,0-0.1,0-0.1c-0.1-0.2-0.4-0.2-0.6-0.3
							c-0.2-0.1-0.4-0.3-0.6-0.5C160.6,17.5,160.3,17.7,160.4,17.8L160.4,17.8z"/>
					</g>
					<g>
						<path class="st19" d="M161.5,14.4c0.4-0.1,0.8,0.1,1,0.5c0.2,0.4,0,0.7-0.1,1.1c0,0.1,0.1,0.3,0.2,0.2
							c0.5-0.3,0.4-1.1,0.2-1.5c-0.3-0.4-0.8-0.6-1.4-0.5C161.2,14.2,161.3,14.4,161.5,14.4L161.5,14.4z"/>
					</g>
				</g>
				<g>
					<path class="st8" d="M146.8,54.2c0.4,1.6,1.8,2.8,3.2,3.7c1.4,1,5.3,0,7-4.7c2-5.6,2.6-9.9,2.3-16.7c0-0.7,0.9-1.4,0.9-2.3
						c-0.1-2.3-0.6-2.2-0.4-2.3c1-0.6,1.3-0.3,1.3-1.4c-0.8-1.1-4.1-1-5.6,1.4c-0.3,0.6-0.5,1.2-0.5,1.9c0,0.6,0.5,1.8,0.6,2.4
						c0.4,3.4-0.3,5.4-1.4,8.1c-1.2,2.9-1.6,3.8-2.2,6.4c0.1-1.5,0-4-0.2-5.6c-1.3,0.1-6-1.3-6.1,0.2
						C145.5,47.4,146.5,53,146.8,54.2z"/>
					<path class="st16" d="M146.3,37.8c-1.2,3.5-1.3,7.3-1.1,10.9c2.5-0.1,4.3-0.1,6.8-0.2c0.1-1.4,0.7-7.8,0.4-10.4
						c-0.2-1.7,0.1-6.1-1.7-5.2C148.5,34,147.1,35.6,146.3,37.8z"/>
				</g>
				<g>
					<g>
						<path class="st20" d="M160.5,35.8c1.6,0.3,3.6-0.1,4.9-1c0.7-0.5,2.2-1.6,2.1-2.6c0-0.2-0.3-0.2-0.3,0
							c-0.9,2.6-4.2,3.6-6.7,3.3C160.4,35.5,160.3,35.8,160.5,35.8L160.5,35.8z"/>
					</g>
					<g>
						<path class="st20" d="M174.1,44c-0.8-2.7-2.1-5.7-1.5-8.6c0-0.2-0.2-0.2-0.3-0.1c-1,2.6,0.6,6.2,1.5,8.7
							C173.9,44.2,174.1,44.1,174.1,44L174.1,44z"/>
					</g>
					<g>
						<path class="st20" d="M170.6,37.4c0.6,2.4,1.7,5.3,3.2,7.2c0.1,0.1,0.3,0,0.2-0.1c-0.4-1.1-1-2-1.5-3.1
							c-0.6-1.3-1.1-2.7-1.7-4.1C170.8,37.1,170.5,37.2,170.6,37.4L170.6,37.4z"/>
					</g>
					<g>
						<path class="st20" d="M152.6,45.9c0.3-2.4,0.5-5.1,0-7.4c0-0.1-0.2-0.1-0.2,0c-0.1,2.5,0.2,4.9,0,7.4
							C152.3,46,152.6,46,152.6,45.9L152.6,45.9z"/>
					</g>
					<g>
						<path class="st20" d="M153.1,44.5c0.1-0.7,0.2-1.4,0.3-2.1c0.1-0.6,0.3-1.3,0.2-1.9c0-0.1-0.2-0.2-0.2,0
							c-0.2,0.6-0.2,1.3-0.3,1.9c-0.1,0.7-0.2,1.4-0.2,2.1C152.9,44.6,153.1,44.7,153.1,44.5L153.1,44.5z"/>
					</g>
					<g>
						<path class="st20" d="M156.1,70.3c2.5,0.8,5.4,1.4,8,0.3c1.4-0.5,2.3-1.6,3.4-2.5c1.7-1.3,3.4-1.6,5.4-2.2
							c0.2-0.1,0.2-0.3-0.1-0.4c-2.5-0.2-4.9,1.4-6.7,3c-3,2.6-6.3,2.3-9.9,1.4C156,69.9,155.9,70.2,156.1,70.3L156.1,70.3z"/>
					</g>
					<g>
						<path class="st20" d="M158.7,63.8c3.1,2.1,7.9,0.9,9.3-2.8c0.1-0.2-0.2-0.2-0.3-0.1c-1.1,1.5-2,2.8-3.8,3.4
							c-1.7,0.6-3.5,0.3-5-0.7C158.7,63.4,158.5,63.7,158.7,63.8L158.7,63.8z"/>
					</g>
					<g>
						<path class="st20" d="M161.2,57.3c2.5-0.8,3.8-4.2,4.2-6.6c0-0.2-0.3-0.3-0.4-0.1c-0.9,2.2-1.4,5.5-3.9,6.4
							C160.9,57.1,161,57.4,161.2,57.3L161.2,57.3z"/>
					</g>
				</g>
				<g>
					<g>
						<path class="st15" d="M157.7,77c1.2,1.4,3,2.9,4.9,3c0.1,0,0.2-0.2,0.1-0.2c-0.8-0.4-1.7-0.6-2.5-1.1
							c-0.8-0.5-1.6-1.2-2.3-1.9C157.8,76.6,157.6,76.8,157.7,77L157.7,77z"/>
					</g>
					<g>
						<path class="st15" d="M162.2,76c0.2,0.8,0.3,1.6,0.7,2.3c0.1,0.1,0.3,0.1,0.3-0.1c-0.1-0.8-0.4-1.6-0.7-2.3
							C162.4,75.7,162.2,75.8,162.2,76L162.2,76z"/>
					</g>
					<g>
						<path class="st15" d="M169.2,74.7c0.3,0.7,0.8,1.3,1.5,1.7c0.5,0.3,1.5,0.6,2.1,0.3c0.1,0,0.1-0.2,0-0.2
							c-0.6-0.2-1.2,0-1.8-0.3c-0.6-0.3-1.2-0.8-1.4-1.5C169.5,74.4,169.2,74.5,169.2,74.7L169.2,74.7z"/>
					</g>
					<g>
						<path class="st15" d="M170.9,78c0.3,0.1,0.7,0.1,1,0.2c0.3,0.1,0.5,0.2,0.8,0.1c0.1,0,0.1-0.1,0.1-0.2
							c-0.2-0.2-0.5-0.2-0.8-0.2c-0.3-0.1-0.7-0.1-1-0.2C170.8,77.7,170.7,78,170.9,78L170.9,78z"/>
					</g>
				</g>
			</g>
			<g>
				<path class="st16" d="M131.4,54.5c-0.3,1-0.6,2,1.1,3.1c0.7,0.4,1.5,0.8,1.9,1.7c0.5,1.2-0.6,2.4-1.4,3.4
					c-1,1.5-1.3,3.6-0.7,5.3c0.2,0.5,0.4,0.9,0.5,1.4c0.1,0.5,0,1-0.1,1.5c-0.5,2.2-2.2,4.1-4.2,4.8c-2,0.7-4.3,0.1-5.8-1.4
					c-2,0-4-1.2-5.2-3c-1.2-1.8,0.8-7.6-1.1-6.4c-2.7,1.7,0.4-2.6,0.4-4.4c0-1.8-2-2.9-1.9-4.7c0-0.8,0.9-1.8,0.9-2.7
					c0-1.3-0.8-2.7-0.8-3.9c-0.1-3.4,2.1-5.5,3.2-6.2c2.5-1.6,7.5-2.9,9.6,0.8c0,0,1.1-0.3,2.6,1.2C132,46.5,132.9,49.3,131.4,54.5z
					"/>
				<g>
					<path class="st11" d="M105.3,133.7c-0.5,1.4-1.7,2.3-3,3.1c-0.5,0.3-1,0.5-1.3,1s-0.5,1-0.3,1.5c3.2-0.7,6.4-1.4,9.5-2
						c0.2,0,0.4-0.1,0.5-0.2c0.1-0.2,0-0.3,0-0.5c-1.1-2.6-0.8-5.7-1.9-8.3c-0.1-0.1-1.4,0.2-1.5,0.1c-0.1-0.1-1.8-0.1-1.9-0.1
						C105.3,128.1,105.9,132.1,105.3,133.7z"/>
					<path class="st16" d="M110.1,134.8c-3.3,1.9-4.5-0.4-4.8-1.2c-0.8-0.5-4.4,2.4-7.2,3.3c-1,0.3-1.6,2.5-0.4,2.8
						c3.2,0.1,8.8,0.2,13.6-0.3C111.8,139.2,111,134.3,110.1,134.8z"/>
					<path class="st11" d="M113.1,134.4c-0.5,1.4-1.7,2.3-3,3.1c-0.5,0.3-1,0.5-1.3,1s-0.5,1-0.3,1.5c3.2-0.7,6.4-1.4,9.5-2
						c0.2,0,0.4-0.1,0.5-0.2c0.1-0.2,0-0.3,0-0.5c-1.1-2.6-0.8-5.7-1.9-8.3c-0.1-0.1-1.4,0.2-1.5,0.1c-0.1-0.1-1.8-0.1-1.9-0.1
						C113.1,128.8,113.6,132.8,113.1,134.4z"/>
					<path class="st21" d="M117.9,135.5c-3.3,1.9-4.5-0.4-4.8-1.2c-0.8-0.5-4.4,2.4-7.2,3.3c-1,0.3-1.6,2.5-0.4,2.8
						c3.2,0.1,8.8,0.2,13.6-0.3C119.5,139.9,118.8,135,117.9,135.5z"/>
					<path class="st22" d="M102,105.3c-0.3,5.7,1.8,18.1,2.9,25.2c1.3,0.2,3.7,0.4,5,0.2c-0.6-4.7-0.4-10.4-0.4-14.9
						c0-1.9-0.6-5.6,0.4-7.3c0.8-1.4,2.6-2.2,5.6-3.4c3-1.3,6.1-1.7,9.2-2.5c6.5-1.7,6-7.9,4.7-9.7c-3.7,0.7-11.8,1.1-15.5,1.2
						C106,99.8,102.1,103.1,102,105.3z"/>
					<path class="st3" d="M110.4,106.5c-0.3,1.2,1.7,17.5,2.3,24.3c1,0.3,3.4,0.1,4.5-0.1c0.4-6.8,1.3-9.8,1.3-14.4
						c0-3.2-1-7.2,0.3-7.8c4.3-1.9,14.2-3.5,17.5-6.8c1.9-1.9,2.4-4.2,1.3-7.5c-0.4-1-2.8-1.3-3.7-1.7c-0.8-0.3-1.8-0.1-2.7,0.1
						c-2.9,0.7-4.7,0.1-7.3,1.6C119.7,96.6,111.9,100.3,110.4,106.5z"/>
				</g>
				<path class="st11" d="M114.4,78.7c-2,0.8-7.7,2.2-9.8,2c-2.2-0.2-3.1-0.2-4,0.4c-0.4,0.3-1,2.8-0.3,2.5c0.2-0.1,0.9-1.5,1-1.3
					c0.1,1.9,0.9,3,0.7,0.4c0-0.5,1.1-0.3,1.5-0.3c0.4,0-0.5,1.4-0.2,1.4c1.2,0,1.1-1,1.6-1c2.4-0.1,4.2,0,5.6,0
					c3.3,0,6.4-0.4,6.8-1.3c1.9-3.8-0.3-9.3-0.5-13.6c-0.1-3.5-3.7-4.3-3.5-0.2C113.6,73.6,114.5,74.8,114.4,78.7z"/>
				<path class="st23" d="M136.7,66.1c-0.1,2.1-0.5,3.5-1.2,5.5c-1,2.8-2.2,4.9-2.3,7.5c-0.4,9.5,3.4,10.5,4.5,15.1
					c-7.9,2.8-15.5,1.9-23.6-0.1c0.4-1.9,1.1-3.8,1.8-5.6c0.3-0.8,2-2.8,2.1-3.7c0.1-2.9,0-4.9-0.5-6.7c-0.6-2.3-5.2-2.6-1.9-8
					c0.3-0.4,0.3-0.7,0.3-1.8c0,0-1.3-0.1-2.5-0.4c0,0-0.4-3.4,1.5-4.3c1.4-0.7,3.1-1.4,5.5-1.7c3.4-0.4,3.3-0.4,6.7,0
					c0.6,0.1,4.4,0.4,6,0.9C135.8,63.4,136.7,64.7,136.7,66.1z"/>
				<g>
					<path class="st8" d="M130.9,68.8c-0.7,2.3-2.7,10.2-3.2,10.2c-6.2,0.1-9.5,1.7-13.4,1.5c-1.1,0-3.1-0.6-4.1-0.3
						s-1.6,2.1-1.4,3.2c0.5,0.9,1-1.6,1.2-1.7c0.1-0.1-0.1,1.8,0,1.9c0.5,0.7,0.5-0.7,0.7-2c0-0.3,0.5,2.6,0.7,2.3
						c0.2-0.3,0.1-1.8,0.3-1.8c1-0.1,0.4,1.1,3.1,0.9c5.3-0.3,10.3,2.4,15,1c1.5-0.4,2.4-2.5,2.6-3c0.7-1.6,3.5-8.2,4.2-9.8
						s0.8-4.7-0.3-5.9C133.7,62.4,131.7,65.8,130.9,68.8z"/>
					<path class="st23" d="M136.5,71.3c0.9-1.8,1.6-4.3,0.8-5.6c-0.7-1.3-1.2-2.5-4.4-3c-2.8-0.5-2.6,5.6-2.6,6.9
						C134.6,67.8,135.7,71,136.5,71.3z"/>
				</g>
				<g>
					<g>
						<path class="st24" d="M116.3,67.8c0.3-1,0.5-2.3,0.1-3.3c0-0.1-0.2-0.1-0.2,0c0,0.5,0.1,1,0.1,1.5c0,0.6-0.1,1.1-0.2,1.7
							C116.1,67.9,116.3,68,116.3,67.8L116.3,67.8z"/>
					</g>
					<g>
						<path class="st24" d="M116,67.2c-0.1-0.5-0.1-1-0.3-1.5c0-0.1-0.2-0.1-0.2,0c-0.1,0.5,0.1,1,0.2,1.5
							C115.8,67.4,116,67.4,116,67.2L116,67.2z"/>
					</g>
					<g>
						<path class="st24" d="M130.2,68.7c0.4-0.4,0.3-1,0.3-1.5c0-0.9,0.3-1.7,0.4-2.5c0-0.1-0.1-0.1-0.2,0c-0.3,0.5-0.4,1.1-0.5,1.7
							c-0.1,0.7,0.1,1.6-0.2,2.2C130,68.6,130.1,68.7,130.2,68.7L130.2,68.7z"/>
					</g>
					<g>
						<path class="st24" d="M129.3,66.2c0,0.5,0,1,0.1,1.4c0,0.4,0.1,0.8,0.3,1.1c0.1,0.1,0.2,0.1,0.3-0.1c0-0.4-0.1-0.7-0.2-1.1
							c-0.1-0.4-0.1-0.9-0.1-1.4C129.6,66.1,129.3,66.1,129.3,66.2L129.3,66.2z"/>
					</g>
					<g>
						<path class="st24" d="M117.9,64.7c0,1.8,1.2,3.3,3,3.7c1.9,0.5,5,0,5.9-1.9c0.1-0.1-0.1-0.3-0.2-0.1c-2.4,2.4-8.2,2.8-8.5-1.7
							C118.2,64.5,117.9,64.5,117.9,64.7L117.9,64.7z"/>
					</g>
					<g>
						<path class="st24" d="M120,72.8c-0.6,3.3,4.8,5.2,6.7,2.8c0.1-0.1,0-0.3-0.2-0.2c-1,0.6-1.9,1.1-3.1,0.9
							c-1.5-0.2-3.5-1.5-3.2-3.3C120.4,72.7,120,72.6,120,72.8L120,72.8z"/>
					</g>
					<g>
						<path class="st24" d="M117.3,76.6c0.7,0.4,2,0.5,2.4-0.3c0.1-0.1-0.1-0.2-0.2-0.2c-0.3,0.2-0.6,0.4-0.9,0.4
							c-0.4,0.1-0.8,0-1.2-0.2C117.3,76.2,117.2,76.5,117.3,76.6L117.3,76.6z"/>
					</g>
					<g>
						<path class="st24" d="M118.3,91c3.6,1.4,8,1.8,11.7,0.4c0.2-0.1,0.1-0.3-0.1-0.3c-4,0.8-7.6,1-11.6-0.3
							C118.2,90.8,118.1,91,118.3,91L118.3,91z"/>
					</g>
					<g>
						<path class="st24" d="M120.8,90.1c1.4,0.5,3.1,1,4.6,0.7c0.1,0,0.1-0.2,0-0.2c-1.5-0.2-3-0.2-4.6-0.6
							C120.7,89.9,120.7,90,120.8,90.1L120.8,90.1z"/>
					</g>
				</g>
				<g>
					<path class="st11" d="M123.9,66.9c-1.3,0.4-2.7,0.4-3.8-0.3c-1.1-0.7-1.7-2.3-1-3.4c0.3-0.5,0.9-0.8,1.2-1.4
						c0.2-0.4,0.2-0.8,0.3-1.3c0.1-2-1.1-5.5,0.5-6.4c1.6-0.9,4.8-0.4,5.1,1.2c0.3,1.4-0.3,5.2,0.8,6.5
						C128.7,63.7,127.1,65.9,123.9,66.9z"/>
					<path class="st8" d="M121.9,59.4c2.3,0,4.7-2.5,5.3-4.3c0.3-0.8,0.5-1.6,0.7-2.4c0.4-2.2,0.1-4.6-1.2-6.4
						c-2.8-3.9-9.6-3-10.1,2.1C116.4,51.7,117.8,59.3,121.9,59.4z"/>
					<path class="st16" d="M116.9,51.6c1.5,0,2.8-0.9,3.8-1.9c1.1-1,2.1-2.1,3.4-2.7c0.2-0.1,0.4-0.2,0.6-0.1s0.4,0.2,0.5,0.3
						c0.9,1,1.4,2.2,1.8,3.5c0.2,0.7,0,1.7,0.6,2.2c0.1,0.1,0.2,0.1,0.3,0.1c0.1,0,0.3-0.1,0.4-0.2c1-1.1,1.4-2.6,1.7-4
						c0.2-0.9,0.4-1.9,0.2-2.8s-0.9-1.8-1.9-1.8c-0.6-0.1-1.4,0.3-2-0.1c-0.3-0.2-0.5-0.5-0.7-0.7c-1.6-1.7-6.1-0.6-7.9,1
						C115.9,46,116.6,51.6,116.9,51.6z"/>
					<path class="st8" d="M129.5,53.1c0-0.7-0.1-1.6-0.9-1.9c-0.7-0.3-1.5,0.2-1.8,0.7c-0.3,0.6-0.1,2.9,0.4,3.1
						C128.9,55.7,129.5,53.4,129.5,53.1z"/>
					<circle class="st3" cx="123.1" cy="52.1" r="0.5"/>
					<path class="st3" d="M119.2,52.1c0,0.3-0.2,0.5-0.5,0.5s-0.5-0.2-0.5-0.5c0-0.3,0.2-0.5,0.5-0.5S119.2,51.8,119.2,52.1z"/>
					<g>
						<path class="st11" d="M120.3,52c-0.2,0.3-0.2,0.7-0.2,1.1s-0.1,0.5-0.3,0.8c-0.1,0.1-0.1,0.2-0.2,0.3c-0.1,0.4,0.5,1,0.8,1.3
							c0.3,0.3,0.6-0.2,0.3-0.4c-0.1,0-0.1,0-0.2-0.1c-0.1,0-0.2,0.1-0.2,0.3c0,0.1,0,0.1,0,0.1c0.1-0.1,0.3-0.2,0.4-0.3
							c-0.1-0.1-0.2-0.2-0.3-0.3c-0.1-0.1-0.3-0.3-0.3-0.5c0-0.1,0.1-0.2,0.2-0.2c0.3-0.5,0.1-1.3,0.2-1.9
							C120.7,51.9,120.4,51.8,120.3,52L120.3,52z"/>
					</g>
					<g>
						<path class="st16" d="M122.3,49.8c0.5-0.1,1.1,0,1.6,0c0-0.1,0-0.2,0-0.3l0,0c-0.2,0-0.2,0.3,0,0.3l0,0c0.2,0,0.3-0.3,0.1-0.3
							c-0.5-0.1-1.2-0.1-1.7,0C122,49.6,122.1,49.9,122.3,49.8L122.3,49.8z"/>
					</g>
					<g>
						<path class="st11" d="M119.8,56.5c0.5,0.3,1,0.4,1.5,0.3c0.5-0.1,1.1-0.3,1.2-0.8c0-0.2-0.1-0.3-0.3-0.3
							c-0.3,0.1-0.6,0.4-1,0.5c-0.4,0.1-0.8,0.1-1.3-0.1C119.7,56,119.5,56.3,119.8,56.5L119.8,56.5z"/>
					</g>
					<g>
						<path class="st12" d="M127.8,54.9c0.4,0,0.4-0.7,0-0.7C127.3,54.2,127.3,54.9,127.8,54.9L127.8,54.9z"/>
					</g>
					<g>
						<path class="st11" d="M127.7,52.2c0.4-0.5,0.9,0.3,1,0.7c0.1,0.4,0.1,0.8-0.2,1.1c-0.1,0.1,0,0.3,0.2,0.2
							c0.6-0.4,0.5-1.3,0.2-1.9c-0.2-0.6-1-0.9-1.4-0.3C127.3,52.1,127.5,52.3,127.7,52.2L127.7,52.2z"/>
					</g>
					<g>
						<path class="st25" d="M116,50.4c1.2-0.2,2.3-0.7,3.2-1.6c0.5-0.5,0.9-1.1,1.5-1.6c0.8-0.6,1.7-0.7,2.7-1c0.2,0,0.1-0.3,0-0.3
							c-1.1,0.1-2.2,0.4-3.1,1.2c-0.6,0.5-1,1.2-1.6,1.7c-0.8,0.7-1.7,1.1-2.8,1.3C115.7,50.1,115.8,50.4,116,50.4L116,50.4z"/>
					</g>
					<g>
						<path class="st25" d="M116.2,47.2c1-0.4,1.8-1.1,2.7-1.7c1.6-1.1,3.2-1.2,5-0.9c0.3,0,0.3-0.3,0-0.4c-1.3-0.2-2.8-0.2-4,0.3
							c-1.4,0.6-2.4,1.9-3.8,2.5C116,47.1,116.1,47.2,116.2,47.2L116.2,47.2z"/>
					</g>
					<g>
						<path class="st25" d="M119.6,43.3c1.7-0.3,3.4-0.5,5.1,0c0.2,0.1,0.3-0.2,0.1-0.3c-1.7-0.7-3.5-0.3-5.2,0.1
							C119.5,43.2,119.5,43.3,119.6,43.3L119.6,43.3z"/>
					</g>
					<g>
						<path class="st25" d="M126,46.9c0.5,0.2,1,0.6,1.4,1.1c0.3,0.4,0.3,0.9,0.5,1.3c0,0.1,0.2,0.1,0.2,0c0.1-0.5-0.2-1.2-0.5-1.6
							c-0.4-0.5-0.9-0.8-1.4-1.1C125.9,46.6,125.9,46.8,126,46.9L126,46.9z"/>
					</g>
					<g>
						<path class="st25" d="M126.9,45.8c0.7,0.3,1.4,0.8,1.8,1.5c0.4,0.6,0.5,1.3,0.8,1.9c0,0.1,0.2,0,0.2,0c0.2-1.5-1.5-3-2.7-3.5
							C126.9,45.5,126.8,45.7,126.9,45.8L126.9,45.8z"/>
					</g>
					<g>
						<path class="st25" d="M127.6,45c1.1,0.2,2,0.9,2.6,1.8c0.5,0.8,0.8,1.7,1.3,2.5c0.1,0.1,0.2,0,0.2-0.1c-0.3-2-2-4.2-4.1-4.4
							C127.5,44.7,127.5,44.9,127.6,45L127.6,45z"/>
					</g>
					<g>
						<path class="st25" d="M129.4,55.5c-0.2,0.7-0.3,1.6,0.2,2.3c0.3,0.3,0.7,0.4,1,0.7c0.8,0.6,1,1.3,1.1,2.2c0,0.1,0.1,0.1,0.1,0
							c0.2-0.7,0-1.4-0.4-2c-0.2-0.3-0.5-0.5-0.9-0.7c-0.5-0.4-0.9-0.6-1-1.4c0-0.4,0-0.7,0.1-1.1C129.7,55.4,129.5,55.3,129.4,55.5
							L129.4,55.5z"/>
					</g>
					<g>
						<path class="st25" d="M127.8,57.1c-0.3,0.5-0.3,1.1,0,1.6c0.3,0.5,0.8,1.3,1.4,1.6c0.1,0,0.1,0,0.1-0.1
							c-0.1-0.4-0.5-0.7-0.7-1c-0.4-0.5-0.8-1.3-0.5-1.9C128.2,57.1,127.9,56.9,127.8,57.1L127.8,57.1z"/>
					</g>
					<g>
						<path class="st25" d="M116.4,55.7c-0.2,0.7-0.1,1.3,0.3,1.9c0.6,1.1,2,2.4,0.7,3.5c-0.1,0.1,0,0.3,0.2,0.2
							c0.5-0.4,0.7-1,0.6-1.7c-0.3-1.4-1.9-2.2-1.5-3.9C116.6,55.6,116.4,55.6,116.4,55.7L116.4,55.7z"/>
					</g>
					<g>
						<path class="st25" d="M119.1,61.1c0.1-0.2,0.2-0.4,0.2-0.6c0-0.2,0.1-0.4-0.1-0.5c0,0-0.1,0-0.1,0c-0.1,0.1-0.1,0.2-0.1,0.4
							c0,0.2-0.1,0.4-0.2,0.6C118.7,61.1,119,61.3,119.1,61.1L119.1,61.1z"/>
					</g>
				</g>
			</g>
			<g>
				<rect x="34.6" y="84.7" class="st26" width="132.4" height="3.8"/>
				<rect x="153.6" y="84.7" class="st27" width="13.5" height="3.8"/>
				<rect x="36.3" y="88.5" class="st28" width="2.9" height="52.5"/>
				<rect x="43" y="88.5" class="st29" width="2.9" height="48.7"/>
				<rect x="155.6" y="88.5" class="st28" width="2.9" height="52.5"/>
				<rect x="162.3" y="88.5" class="st29" width="2.9" height="48.7"/>
			</g>
			<g>
				<path class="st30" d="M108.5,55.3H69.7c-0.7,0-1.3,0.6-1.3,1.3v21.1c0,0.7,0.6,1.3,1.3,1.3h38.9c0.7,0,1.3-0.6,1.3-1.3V56.6
					C109.9,55.8,109.3,55.3,108.5,55.3z"/>
				<path class="st5" d="M108.5,55.3H77c-0.7,0-1.3,0.6-1.3,1.3v11.1c0,3.8,3.1,6.9,6.9,6.9h26c0.7,0,1.3-0.6,1.3-1.3V56.6
					C109.9,55.8,109.3,55.3,108.5,55.3z"/>
				<g>
					<path class="st31" d="M89.1,70.5c-1.2,0-2.1,1-2.1,2.1v12.1h4.2V72.6C91.2,71.5,90.3,70.5,89.1,70.5z"/>
					<rect x="88.5" y="83.4" class="st5" width="24.1" height="1.3"/>
					<rect x="81.3" y="83.4" class="st32" width="15.7" height="1.3"/>
				</g>
			</g>
			<g>
				<path class="st33" d="M119.1,21.8c0-9.2-7.4-16.6-16.6-16.6c-9.2,0-16.6,7.4-16.6,16.6c0,9.2,7.4,16.6,16.6,16.6
					c1.4,0,2.8-0.2,4.1-0.5c1.4,2.6,4.1,4.2,7.5,3c0,0-2.8-1.9-3.1-4.9C115.8,33.2,119.1,27.9,119.1,21.8z"/>
				<g>
					<g>
						<path class="st16" d="M106.5,22.8c0,1-0.4,1.9-1,2.5c-0.6,0.6-1.5,1.1-2.5,1.1c-2,0-3.5-1.6-3.5-3.5s1.6-3.5,3.5-3.5l0.4,0
							l0,0c0.7,0.1,1.5,0.4,2,0.9C106.1,20.8,106.5,21.7,106.5,22.8z"/>
						<path class="st34" d="M105.4,20.1l-2.3,2.6v-3.5l0.4,0l0,0C104.1,19.4,104.8,19.7,105.4,20.1z"/>
						<path class="st23" d="M106.5,22.8c0,1-0.4,1.9-1,2.5l-2.5-2.5l2.3-2.6C106.1,20.8,106.5,21.7,106.5,22.8z"/>
					</g>
					<g>
						<path class="st16" d="M97.6,22.8c0,1-0.4,1.9-1,2.5c-0.5,0.5-1.1,0.8-1.8,1c-0.2,0.1-0.5,0.1-0.7,0.1c-2,0-3.5-1.6-3.5-3.5
							s1.6-3.5,3.5-3.5l0.4,0l0,0c0.7,0.1,1.5,0.4,2,0.9C97.1,20.8,97.6,21.7,97.6,22.8z"/>
						<path class="st23" d="M97.6,22.8c0,1-0.4,1.9-1,2.5L94,22.8l2.3-2.6C97.1,20.8,97.6,21.7,97.6,22.8z"/>
						<path class="st34" d="M96.4,20.1L94,22.8h-3.5c0-2,1.6-3.5,3.5-3.5l0.4,0l0,0C95.2,19.4,95.8,19.7,96.4,20.1z"/>
						<path class="st14" d="M96.5,25.3c-0.5,0.5-1.1,0.8-1.8,1c-0.3-1.3-0.7-3.5-0.7-3.5L96.5,25.3z"/>
					</g>
					<g>
						<path class="st23" d="M111.9,19.3c1,0,1.9,0.4,2.5,1.1c0.5,0.5,0.8,1.1,1,1.8c0,0.2,0.1,0.5,0.1,0.7c0,2-1.6,3.5-3.5,3.5
							c-1.9,0-3.5-1.6-3.5-3.5v-0.4l0,0c0.1-0.7,0.4-1.5,0.9-2C110,19.7,110.9,19.3,111.9,19.3z"/>
						<path class="st16" d="M111.9,19.3c1,0,1.9,0.4,2.5,1.1l-2.5,2.5l-2.6-2.3C110,19.7,110.9,19.3,111.9,19.3z"/>
						<path class="st14" d="M109.3,20.4l2.6,2.3v3.5c-2,0-3.5-1.6-3.5-3.5v-0.4l0,0C108.5,21.7,108.8,21,109.3,20.4z"/>
						<path class="st34" d="M114.5,20.3c0.5,0.5,0.8,1.1,1,1.8c-1.3,0.3-3.5,0.7-3.5,0.7L114.5,20.3z"/>
					</g>
					<g>
						<path class="st12" d="M111,32.7c-4.6,0-9.2,0-13.9,0.1c0-1.8-0.1-3.6-0.3-5.4c0-0.1-0.3-0.2-0.2,0c0,1.8,0.1,3.6,0.2,5.4
							c-1,0-2,0-2.9,0.1c-0.1,0-0.1,0.2,0,0.2c1,0,2,0,3,0c0,0.6,0.1,1.2,0.1,1.7c0,0.1,0.2,0.1,0.2,0c0-0.6,0-1.2,0-1.7
							c4.6,0,9.2,0,13.9,0C111.3,33.1,111.3,32.7,111,32.7z"/>
						<path class="st12" d="M97.6,31.4c0.5-0.5,1.1-1.3,1.8-1.4c1.5-0.4,1.3,0.9,2.2,1.4c1,0.5,1.4-0.7,2-1.4c0.6-0.7,1.3-1,2.1-0.2
							c0.2,0.2,0.2,0.4,0.4,0.5c0.2,0.1,0.4,0.1,0.7,0.1c1.1-0.1,2.4-1,3.4-1.7c0,0.1-0.1,0.1-0.1,0.2c-0.2,0.3-0.4,0.6-0.5,0.9
							c0,0.2,0.2,0.3,0.3,0.2c0.2-0.3,0.3-0.6,0.5-0.9c0.2-0.3,0.4-0.6,0.6-1c0.1-0.1,0-0.3-0.2-0.3c-0.7,0.1-1.5,0.2-2.2,0.2
							c-0.2,0-0.2,0.4,0,0.4c0.5,0,1-0.1,1.5-0.1c-0.8,0.5-1.7,1.1-2.5,1.4c-1.1,0.5-1.2,0.1-1.8-0.6c-0.7-0.8-1.6-0.4-2.2,0.3
							c-0.9,1.1-1.2,2.1-2.5,0.6c-0.3-0.3-0.4-0.6-0.8-0.6c-1-0.2-2.2,1.1-2.8,1.8C97.4,31.3,97.5,31.5,97.6,31.4z"/>
					</g>
					<g>
						<path class="st12" d="M98.1,13.9c-0.9,0-1.9-0.1-2.8,0c-0.2,0-0.2,0.2-0.1,0.3c0,0.3-0.1,0.5-0.1,0.8v0c0,0.7,0,1.5,0,2.2
							c0,0.1,0.1,0.1,0.1,0.1c1,0.1,2,0,2.9,0.1c0.1,0,0.1-0.1,0.1-0.1c0-1.1,0-2.1-0.1-3.2C98.3,14,98.2,13.9,98.1,13.9z
							 M95.3,14.2c0,0,0.1,0,0.1,0c0.5,0.5,1.1,1.1,1.5,1.7c-0.2,0-0.4,0-0.7,0c-0.1-0.2-0.3-0.3-0.4-0.4c-0.2-0.2-0.4-0.3-0.6-0.5
							C95.3,14.8,95.3,14.5,95.3,14.2z M95.8,15.7c0.1,0.1,0.2,0.2,0.3,0.3c-0.2,0-0.5,0-0.7,0.1c0-0.3,0-0.5,0-0.8
							C95.5,15.4,95.6,15.5,95.8,15.7z M95.4,16.2c0.9,0.1,1.8,0,2.6,0c0,0.3,0,0.6,0,0.9c-0.9,0-1.8,0-2.6-0.1
							C95.4,16.8,95.4,16.5,95.4,16.2z M97.4,14.3c0.1,0.2,0.2,0.4,0.3,0.5c0.1,0.1,0.1,0.2,0.2,0.3c0,0.3,0,0.6,0,0.9h0
							c-0.2-0.2-0.4-0.6-0.6-0.8c-0.2-0.3-0.5-0.6-0.7-0.9C97,14.3,97.2,14.3,97.4,14.3z M97.9,14.6c-0.1-0.1-0.2-0.2-0.3-0.4
							c0.1,0,0.2,0,0.3,0c0,0.2,0,0.3,0,0.5C97.9,14.7,97.9,14.7,97.9,14.6z M96.6,14.3c0.4,0.5,0.8,1.1,1.2,1.7c-0.2,0-0.3,0-0.5,0
							c-0.5-0.6-1.1-1.2-1.7-1.7C95.9,14.3,96.3,14.3,96.6,14.3z"/>
						<path class="st12" d="M102.3,10.1c-1,0-1.9,0-2.8,0c-0.2,0-0.2,0.2-0.1,0.3c-0.2,2.4-0.2,4.8-0.1,7.2c0,0.1,0.1,0.1,0.1,0.1
							c1,0.1,1.9,0.1,2.9,0.1c0.1,0,0.1-0.1,0.1-0.1c0-2.5,0.1-5-0.1-7.4C102.5,10.1,102.4,10.1,102.3,10.1z M99.6,14.5
							c0.1,0.2,0.2,0.3,0.3,0.5c0.1,0.1,0.2,0.3,0.3,0.4c-0.2,0-0.4,0-0.5,0.1c0,0,0-0.1,0-0.1C99.6,15,99.6,14.7,99.6,14.5z
							 M100.4,15.3c-0.1-0.2-0.2-0.4-0.3-0.6c-0.1-0.2-0.3-0.5-0.5-0.6c0-0.3,0-0.7,0-1c0.2,0.4,0.4,0.7,0.6,1.1
							c0.2,0.4,0.4,0.8,0.7,1.1C100.8,15.3,100.6,15.3,100.4,15.3z M101.2,15.3c-0.2-0.4-0.5-0.8-0.8-1.3c-0.3-0.4-0.6-0.9-0.9-1.3
							c0-0.3,0-0.7,0-1.1c0.7,1.2,1.5,2.4,2.2,3.7C101.6,15.3,101.4,15.3,101.2,15.3z M102.1,15.3c-0.7-1.4-1.6-2.6-2.5-3.9
							c0-0.3,0-0.7,0-1.1c0.1,0,0.2,0,0.3,0c0.5,0.8,1,1.6,1.5,2.4c0.2,0.4,0.5,1.3,0.9,1.6c0,0.3,0,0.6,0.1,1
							C102.2,15.3,102.2,15.3,102.1,15.3z M102.2,11.1c0,0.3,0,0.6,0,1c-0.1-0.2-0.3-0.5-0.4-0.7c-0.2-0.3-0.5-0.7-0.7-1
							c0.2,0,0.4,0,0.5,0C102.4,10.3,102.2,10.4,102.2,11.1z M100.8,10.4c0.2,0.4,0.5,0.8,0.7,1.2c0.2,0.3,0.4,0.8,0.7,1.1
							c0,0.4,0,0.8,0,1.3l0,0c-0.2-0.4-0.5-0.8-0.7-1.2c-0.5-0.7-1-1.5-1.5-2.2C100.3,10.4,100.6,10.4,100.8,10.4z M102.3,16.8
							c-0.1,0.6-0.3,0.6-0.8,0.7c-0.2,0-1.2,0.1-1.4-0.1c-0.5-0.3-0.4-1.2-0.4-1.8c0.9,0.1,1.8,0,2.7,0
							C102.3,16,102.3,16.4,102.3,16.8z"/>
						<path class="st12" d="M106.5,11.1c-1,0-1.9,0-2.8,0c-0.2,0-0.2,0.2-0.1,0.3c-0.2,2-0.2,4.1-0.1,6.2c0,0.1,0.1,0.1,0.1,0.1
							c1,0.1,1.9,0.1,2.9,0.1c0.1,0,0.1-0.1,0.1-0.1c0-2.1,0.1-4.3-0.1-6.4C106.7,11.1,106.6,11.1,106.5,11.1z M106.3,13
							c-0.1-0.3-0.4-0.5-0.6-0.7c-0.2-0.3-0.5-0.6-0.8-0.9c0.2,0,0.4,0,0.6,0v0c0.3,0.4,0.5,0.8,0.9,1.2c0,0.1,0,0.3,0,0.4
							C106.4,13,106.4,13,106.3,13z M106.4,11.3c0.2,0.1,0,0.1,0,0.4c0,0.2,0,0.3,0,0.5c-0.2-0.3-0.5-0.6-0.7-0.9
							C105.9,11.3,106.3,11.3,106.4,11.3z M104.7,11.3c0.3,0.3,0.6,0.6,0.8,1c0.2,0.2,0.3,0.5,0.5,0.7c-0.2,0-0.5,0-0.7,0
							c-0.2-0.3-0.4-0.6-0.6-0.9c-0.2-0.3-0.4-0.5-0.6-0.7C104.4,11.4,104.5,11.4,104.7,11.3z M103.8,12.2c0.1,0.2,0.3,0.4,0.4,0.6
							c0,0.1,0.1,0.1,0.2,0.2c-0.2,0-0.4,0-0.6,0.1C103.8,12.8,103.8,12.5,103.8,12.2z M104.6,13c-0.1-0.1-0.3-0.3-0.4-0.4
							c-0.2-0.2-0.3-0.4-0.5-0.6l0,0c0-0.2,0-0.3,0-0.5c0.1,0,0.1,0,0.2,0c0.3,0.3,0.5,0.7,0.8,1.1c0.1,0.2,0.2,0.4,0.4,0.6
							C104.9,13,104.8,13,104.6,13z M106,17.5c-0.3,0.1-0.7,0-1,0c-0.4,0-0.8-0.1-1.2-0.4c0-0.1,0-0.3,0-0.4c-0.2-0.8,0-1.9,0-2.8
							c0-0.2,0-0.4,0-0.6c0.9,0.1,1.8,0,2.7,0c0,0.7,0,1.5,0,2.2C106.5,16.2,106.7,17.3,106,17.5z"/>
						<path class="st12" d="M110.9,11.9c0-0.1-0.1-0.1-0.1-0.1c-1,0-1.9,0-2.8,0c-0.2,0-0.2,0.2-0.1,0.3c-0.2,1.8-0.1,3.7-0.1,5.5
							c0,0.1,0.1,0.1,0.2,0.2c1,0.1,1.9,0.1,2.9,0.1c0.1,0,0.1-0.1,0.1-0.1C111,15.7,111,13.8,110.9,11.9z M108,14.7
							c0,0,0-0.1,0-0.1c0.1,0.1,0.2,0.3,0.4,0.4c0.1,0.1,0.2,0.2,0.3,0.4c-0.2,0-0.5,0-0.7,0.1C108,15.1,108,14.9,108,14.7z
							 M109,15.3c-0.1-0.2-0.3-0.3-0.5-0.5c-0.2-0.2-0.3-0.4-0.5-0.5c0-0.3,0-0.6,0-1c0.3,0.4,0.6,0.8,0.9,1.2
							c0.2,0.2,0.3,0.5,0.5,0.8C109.3,15.3,109.2,15.3,109,15.3z M109.7,15.3c-0.2-0.3-0.5-0.7-0.7-1c-0.3-0.4-0.7-0.8-1-1.2
							c0-0.4,0-0.7,0-1.1c0.8,1.1,1.5,2.3,2.3,3.3C110.1,15.3,109.9,15.3,109.7,15.3z M109.7,12L109.7,12c0.2,0.3,0.3,0.5,0.5,0.8
							c0.1,0.2,0.3,0.4,0.4,0.6c0,0.2,0,0.3,0,0.4c0,0.1,0,0.3,0,0.4c-0.2-0.4-0.5-0.7-0.8-1c-0.3-0.4-0.6-0.8-0.9-1.2
							C109.3,12,109.5,12,109.7,12z M110.4,12c0.1,0,0.1,0,0.2,0.1c0,0,0,0,0,0.1c0.1,0.2,0.1,0.4,0.1,0.7c-0.1-0.1-0.2-0.2-0.3-0.3
							c-0.1-0.2-0.3-0.4-0.4-0.6C110.1,12,110.3,12,110.4,12z M108.9,12c0.3,0.4,0.6,0.9,1,1.3c0.3,0.4,0.5,0.8,0.8,1.2
							c0,0.3,0,0.5,0,0.8c0,0,0,0-0.1,0c-0.7-1.1-1.6-2.2-2.5-3.3C108.4,12,108.6,12,108.9,12z M110.5,17.4
							c-0.3,0.3-1.8,0.2-2.2-0.1c-0.5-0.4-0.3-0.7-0.3-1.3c0-0.1,0-0.2,0-0.4c0.9,0.1,1.8,0,2.6,0C110.7,16.1,110.8,17.1,110.5,17.4
							z"/>
					</g>
					<path class="st12" d="M97.5,11c-0.1-0.2-0.3-0.4-0.6-0.5c0,0-0.1,0-0.1,0c-0.1-0.4-0.1-0.8-0.2-1.2c0.2,0,0.4,0.1,0.5,0.2
						c0.1,0.1,0.2,0,0.1-0.1C97.1,9.1,96.8,9,96.6,9c0-0.2-0.1-0.4-0.1-0.7c0-0.1-0.1-0.1-0.1,0c0,0.2,0,0.4,0,0.6
						c-0.1,0-0.2,0-0.4,0c0,0,0,0,0,0c0-0.3-0.1-0.6-0.1-0.8c0-0.1-0.2-0.1-0.2,0c0,0.3,0.1,0.6,0.1,0.8c-0.4,0.1-0.8,0.3-0.8,0.7
						c0,0.6,0.5,0.8,1,0.9c0,0.3,0,0.7,0.1,1c-0.2-0.1-0.4-0.2-0.6-0.3c-0.1-0.1-0.3,0.1-0.2,0.2c0.2,0.3,0.5,0.4,0.8,0.5
						c0,0.2,0,0.4,0,0.7c0,0.1,0.2,0.1,0.2,0c0-0.2,0-0.4,0-0.7c0.1,0,0.3,0,0.4,0c0,0.2,0.1,0.5,0.1,0.7c0,0.1,0.2,0.1,0.2,0
						c0-0.2,0-0.5-0.1-0.7C97.4,11.9,97.7,11.4,97.5,11z M96.2,9.2c0,0,0.1,0,0.2,0c0,0.4,0.1,0.8,0.1,1.2c-0.1,0-0.2,0-0.3,0
						c0-0.4-0.1-0.7-0.1-1.1C96.1,9.2,96.1,9.2,96.2,9.2z M95.6,10.3c-0.5-0.2-0.5-0.7,0-0.9c0.1,0,0.1-0.1,0.2-0.1
						c0,0.3,0.1,0.7,0.1,1.1C95.8,10.3,95.7,10.3,95.6,10.3z M96.2,11.7c0-0.3,0-0.7-0.1-1.1c0.1,0,0.2,0,0.3,0c0,0.3,0.1,0.7,0.1,1
						C96.5,11.7,96.4,11.7,96.2,11.7z M96.9,11.6c0-0.3-0.1-0.6-0.1-0.8c0,0,0.1,0,0.1,0C97.3,11,97.3,11.5,96.9,11.6z"/>
					<path class="st12" d="M113.9,16.5c-0.1,0.1-0.2,0.3-0.3,0.4l0,0c0-1.4,0-2.8-0.1-4.2c0.1,0.1,0.2,0.3,0.3,0.4
						c0.1,0.1,0.4,0.1,0.3-0.1c-0.1-0.2-0.2-0.4-0.3-0.5c-0.1-0.1-0.1-0.2-0.2-0.2c-0.1-0.2-0.3-0.1-0.3,0.1c0,0.1-0.1,0.1-0.1,0.1
						c-0.1,0.2-0.3,0.4-0.4,0.6c0,0.1,0.1,0.2,0.1,0.1c0.1-0.1,0.2-0.3,0.3-0.4c0,0,0,0,0.1-0.1c0.1,1.5,0.1,2.9,0.1,4.4
						c-0.1-0.1-0.3-0.3-0.4-0.4c-0.1-0.1-0.3,0.1-0.2,0.2s0.3,0.3,0.4,0.5c0.1,0.1,0.2,0.2,0.3,0.2c0.2,0,0.3-0.2,0.4-0.3
						c0.2-0.2,0.3-0.4,0.4-0.7C114.1,16.5,114,16.4,113.9,16.5z"/>
					<path class="st12" d="M107.5,8.5c-0.2-0.3-0.5-0.5-0.8-0.7c-0.2-0.1-0.3,0.2-0.2,0.3c0.1,0.1,0.3,0.2,0.4,0.3
						c-2.4-0.1-4.8,0-7.2,0c0,0,0.1-0.1,0.1-0.1c0.1-0.1,0.2-0.2,0.3-0.3s0-0.3-0.2-0.2c-0.2,0.1-0.4,0.3-0.5,0.4
						c-0.1,0.1-0.2,0.2-0.1,0.4c0.1,0.1,0.3,0.3,0.4,0.4c0.2,0.1,0.3,0.3,0.5,0.2c0.1,0,0.1-0.1,0.1-0.2c-0.1-0.2-0.3-0.2-0.4-0.3
						c0,0-0.1-0.1-0.2-0.1c2.4,0.1,4.8,0.2,7.3,0.2c0,0-0.1,0.1-0.1,0.1c-0.1,0.2-0.3,0.3-0.3,0.5c0,0,0.1,0.1,0.1,0.1
						c0.2,0,0.3-0.2,0.4-0.4c0.1-0.1,0.2-0.2,0.3-0.4C107.6,8.7,107.6,8.6,107.5,8.5z"/>
					<g>
						<path class="st12" d="M90.9,14.4c0,0.3,0,0.5,0.1,0.8c0,0.1,0.2,0.1,0.2,0c0.1-0.2,0.1-0.5,0.1-0.8c0.2,0,0.5,0,0.7-0.1
							c0.1,0,0.1-0.2,0-0.2c-0.2-0.1-0.5-0.1-0.7-0.1c0-0.2,0-0.5,0-0.7c0-0.2-0.3-0.2-0.3,0c0,0.2,0,0.5,0,0.7c-0.2,0-0.5,0-0.7,0
							c-0.2,0-0.2,0.3,0,0.3C90.4,14.4,90.6,14.4,90.9,14.4z"/>
						<path class="st12" d="M92,16.6c-0.6,0-1.2,0.1-1.7,0.1c-0.2,0-0.2,0.3,0,0.3c0.6,0,1.2,0,1.7,0C92.3,17,92.3,16.6,92,16.6z"/>
					</g>
					<g>
						<path class="st12" d="M92.6,29.4c0.2-0.2,0.4-0.5,0.4-0.7c0-0.1-0.1-0.1-0.1-0.1c-0.2,0.1-0.4,0.4-0.5,0.7
							c-0.3-0.1-0.5-0.3-0.8-0.4c-0.2-0.1-0.3,0.2-0.2,0.3c0.2,0.1,0.5,0.3,0.7,0.4c-0.2,0.2-0.3,0.4-0.5,0.6
							c-0.1,0.1,0,0.2,0.2,0.1c0.2-0.2,0.4-0.4,0.6-0.6l0,0c0.3,0.2,0.5,0.4,0.8,0.4c0.1,0,0.1-0.1,0.1-0.1
							C93.2,29.7,92.9,29.6,92.6,29.4z"/>
						<path class="st12" d="M95.3,28.6c-0.2,0.3-0.3,0.6-0.5,0.9c-0.1-0.1-0.2-0.2-0.2-0.3c-0.1-0.2-0.3-0.4-0.4-0.5
							c-0.1-0.1-0.3,0.1-0.2,0.2c0.2,0.2,0.3,0.4,0.4,0.6c0.1,0.1,0.2,0.3,0.3,0.4c-0.1,0.1-0.1,0.2-0.2,0.4
							c-0.2,0.5-0.5,1.1-0.5,1.6c0,0.1,0.2,0.2,0.2,0.1c0.3-0.4,0.3-1,0.5-1.4c0.2-0.6,0.5-1.2,0.8-1.7
							C95.6,28.6,95.4,28.5,95.3,28.6z"/>
					</g>
				</g>
			</g>
			<g>
				<path class="st33" d="M60.9,29c0-9.2-7.4-16.6-16.6-16.6S27.7,19.8,27.7,29s7.4,16.6,16.6,16.6c1.4,0,2.8-0.2,4.1-0.5
					c1.4,2.6,4.1,4.2,7.5,3c0,0-2.8-1.9-3.1-4.9C57.6,40.4,60.9,35.1,60.9,29z"/>
				<g>
					<g>
						<path class="st23" d="M49.8,23.1l2.8-2.2c0.1-0.1,0.2,0.1,0.2,0.2l-2.2,2.8L49.8,23.1z"/>
						<path class="st12" d="M48,29.7l-5.1,4.4l-3.4-3.4l4.4-5.1c0.8-0.8,1-0.8,2-1.3c0.9-0.5,1.9-0.9,2.9-1.2l1-0.3
							c0.5-0.1,1,0.3,0.9,0.9l-0.3,1c-0.2,1-0.6,2-1.2,2.9C48.8,28.7,48.8,28.9,48,29.7z"/>
						<path class="st16" d="M49.3,27.7c0,0-1.1-1.5-1.5-1.9S46,24.3,46,24.3c0.9-0.5,1.9-0.9,2.9-1.2l1-0.3c0.5-0.1,1,0.3,0.9,0.9
							l-0.3,1C50.2,25.9,49.8,26.8,49.3,27.7z"/>
						<path class="st16" d="M39.5,30.8l2.4-2.8c0,0-3.9-1.9-6.2,0.9c-0.8,1-0.6,1.6-0.2,1.6C36.2,30.5,37.9,29.4,39.5,30.8z"/>
						<path class="st16" d="M42.9,34.2l2.8-2.4c0,0,1.9,3.9-0.9,6.2c-1,0.8-1.6,0.6-1.6,0.2C43.2,37.5,44.3,35.8,42.9,34.2z"/>
						<path class="st16" d="M46.6,29.9c-0.8,0.8-2,0.8-2.8,0s-0.8-2,0-2.8s2-0.8,2.8,0S47.3,29.1,46.6,29.9z"/>
						<circle class="st35" cx="45.2" cy="28.5" r="1.4"/>
						<polygon class="st23" points="41.1,35.3 38.4,32.6 39.5,30.8 42.9,34.2 						"/>
						<path class="st16" d="M39.1,35.5l-0.9-0.9c-0.2-0.2-0.2-0.5,0-0.7l0.7-0.7l1.6,1.6l-0.7,0.7C39.6,35.7,39.3,35.7,39.1,35.5z"
							/>
						<g>
							<path class="st12" d="M45.5,27.8c0.1,0.1,0.1,0.3,0.1,0.5s-0.1,0.3-0.1,0.4c0,0.1,0.1,0.1,0.2,0.1c0.2-0.1,0.3-0.4,0.3-0.6
								c0-0.2-0.1-0.5-0.3-0.6C45.6,27.5,45.4,27.7,45.5,27.8L45.5,27.8z"/>
						</g>
						<g>
							<path class="st12" d="M45.2,29.2c-0.1,0-0.1,0-0.2,0c-0.3,0-0.2,0.5,0.1,0.3c0.1,0,0.1-0.1,0.1-0.1
								C45.3,29.3,45.2,29.2,45.2,29.2L45.2,29.2z"/>
						</g>
						<path class="st36" d="M38,34.3c0,0-1.7,0.5-1.8,1.8c-0.1,1.3-1.3,2.1-1.5,2.1s1,0.1,1.8-0.4c0,0-0.2,0.3-0.8,0.9
							c0.9,0.1,3.5-1.1,3.7-3L38,34.3z"/>
						<path class="st34" d="M38.3,34.7c0,0-1.2,0.4-1.1,1.1S36.7,37,36.7,37s1.8,0.2,2.3-1.6L38.3,34.7z"/>
					</g>
					<g>
						<g>
							<path class="st12" d="M48.7,35.7c3-3,6-5.9,8.9-9c0.1-0.1,0-0.2-0.1-0.1c-3.1,2.9-6,5.9-9,8.9C48.3,35.6,48.5,35.9,48.7,35.7
								L48.7,35.7z"/>
						</g>
						<g>
							<path class="st12" d="M31.5,29.4c3.3-3.3,6.8-6.5,10-10c0.1-0.1,0-0.2-0.1-0.1c-3.4,3.2-6.7,6.6-10,10
								C31.3,29.4,31.4,29.5,31.5,29.4L31.5,29.4z"/>
						</g>
						<g>
							<path class="st12" d="M40.7,25.2c2.4-2.4,5-4.8,7.3-7.3c0.1-0.1-0.1-0.3-0.2-0.2c-2.5,2.3-4.9,4.8-7.3,7.3
								C40.4,25.1,40.6,25.3,40.7,25.2L40.7,25.2z"/>
						</g>
						<g>
							<path class="st12" d="M42.2,43.3c1.2-0.9,2.2-2.1,3.2-3.2c0.1-0.1-0.1-0.3-0.2-0.2c-1.1,1-2.3,2-3.2,3.2
								C42,43.2,42.1,43.3,42.2,43.3L42.2,43.3z"/>
						</g>
						<g>
							<path class="st12" d="M33.6,22.7c1.8-1.4,3.3-3.2,4.9-4.8c0.1-0.1-0.1-0.3-0.2-0.2c-1.6,1.6-3.4,3.1-4.8,4.9
								C33.4,22.6,33.5,22.8,33.6,22.7L33.6,22.7z"/>
						</g>
						<g>
							<path class="st12" d="M49.3,40.4c2.3-2.8,4.9-5.2,7.4-7.7c0.1-0.1,0-0.2-0.1-0.1c-2.6,2.5-5,5.1-7.7,7.4
								C48.5,40.2,49,40.8,49.3,40.4L49.3,40.4z"/>
						</g>
						<g>
							<path class="st12" d="M48.4,21c1.1-1.1,2.2-2.2,3.3-3.4c0.1-0.1,0-0.2-0.1-0.1c-1.1,1.1-2.2,2.2-3.4,3.3
								C48.2,21,48.3,21.1,48.4,21L48.4,21z"/>
						</g>
						<g>
							<path class="st12" d="M42.3,17.8c0.8-0.8,1.6-1.5,2.3-2.3c0.1-0.1-0.1-0.3-0.2-0.2c-0.8,0.7-1.6,1.5-2.3,2.3
								C42,17.7,42.2,17.9,42.3,17.8L42.3,17.8z"/>
						</g>
						<g>
							<path class="st12" d="M32.1,35.4c0.8-0.8,1.7-1.7,2.5-2.5c0.1-0.1-0.1-0.4-0.2-0.2c-0.8,0.8-1.7,1.7-2.5,2.5
								C31.8,35.3,32,35.5,32.1,35.4L32.1,35.4z"/>
						</g>
						<g>
							<path class="st12" d="M38.5,41.9c0.9-1,1.8-2,2.7-3c0.1-0.1,0-0.2-0.1-0.1c-1,0.9-2,1.8-3,2.7C37.7,41.7,38.2,42.2,38.5,41.9
								L38.5,41.9z"/>
						</g>
						<g>
							<path class="st12" d="M52.6,27.2c1.2-1.5,2.6-2.8,3.8-4.1c0.1-0.1,0-0.2-0.1-0.1c-1.4,1.3-2.6,2.7-4.1,3.8
								C51.9,27,52.4,27.5,52.6,27.2L52.6,27.2z"/>
						</g>
					</g>
				</g>
			</g>
			<g>
				<path class="st33" d="M177.5,18.8c0-9.2,7.4-16.6,16.6-16.6c9.2,0,16.6,7.4,16.6,16.6s-7.4,16.6-16.6,16.6
					c-1.4,0-2.8-0.2-4.1-0.5c-1.4,2.6-4.1,4.2-7.5,3c0,0,2.8-1.9,3.1-4.9C180.8,30.2,177.5,24.9,177.5,18.8z"/>
				<g>
					<path class="st23" d="M189.5,13.3c0-0.8-0.3-1.6-0.7-2.2l0,0l-0.2-0.2c-0.7-0.8-1.8-1.4-2.9-1.4l0,0l0,0l0,0
						c-0.1,0-0.3,0-0.4,0c-1,0.1-1.9,0.6-2.5,1.3l0,0l-0.2,0.2l0,0c-0.5,0.6-0.7,1.4-0.7,2.2c0,0.8,0.3,1.6,0.7,2.2l0,0l0.2,0.2
						c0.7,0.9,1.8,1.4,2.9,1.4l0,0l0,0l0,0c0.2,0,0.3,0,0.5,0c0.8-0.1,1.6-0.5,2.1-1c0.1-0.1,0.2-0.2,0.3-0.3l0.2-0.2l0,0
						C189.3,14.9,189.5,14.1,189.5,13.3z M188,15.7c0,0-0.1,0.1-0.1,0.1c-0.1,0-0.1,0.1-0.2,0.1c0,0-0.1,0.1-0.1,0.1
						c-0.1,0-0.1,0.1-0.2,0.1c0,0-0.1,0.1-0.1,0.1c-0.1,0-0.1,0.1-0.2,0.1c0,0-0.1,0-0.1,0.1c-0.1,0-0.1,0-0.2,0.1
						c0.2-0.3,0.4-0.6,0.5-1C187.6,15.5,187.8,15.6,188,15.7L188,15.7z M184.2,16.3c-0.1,0-0.1-0.1-0.2-0.1c0,0-0.1,0-0.1-0.1
						c-0.1,0-0.1-0.1-0.2-0.1c0,0-0.1-0.1-0.1-0.1c-0.1,0-0.1-0.1-0.2-0.1c0,0-0.1-0.1-0.1-0.1c0,0,0,0,0,0c0.2-0.1,0.4-0.2,0.7-0.3
						c0.1,0.4,0.3,0.7,0.5,1c-0.1,0-0.1,0-0.2-0.1C184.3,16.3,184.3,16.3,184.2,16.3z M183.4,10.9c0,0,0.1-0.1,0.1-0.1
						c0.1,0,0.1-0.1,0.2-0.1c0,0,0.1-0.1,0.1-0.1c0.1,0,0.1-0.1,0.2-0.1c0,0,0.1,0,0.1-0.1c0.1,0,0.1-0.1,0.2-0.1c0,0,0.1,0,0.1-0.1
						c0.1,0,0.1,0,0.2-0.1c-0.2,0.3-0.4,0.6-0.5,1C183.8,11.1,183.6,11,183.4,10.9L183.4,10.9z M187.2,10.3c0.1,0,0.1,0.1,0.2,0.1
						c0,0,0.1,0,0.1,0.1c0.1,0,0.1,0.1,0.2,0.1c0,0,0.1,0.1,0.1,0.1c0.1,0,0.1,0.1,0.2,0.1c0,0,0.1,0.1,0.1,0.1c0,0,0,0,0,0
						c-0.2,0.1-0.4,0.2-0.6,0.2c-0.1-0.4-0.3-0.7-0.5-1c0.1,0,0.1,0,0.2,0.1C187.1,10.3,187.1,10.3,187.2,10.3z M187.7,13.1
						c0-0.5-0.1-1-0.2-1.4c0.3-0.1,0.6-0.2,0.8-0.3c0.4,0.5,0.6,1.1,0.7,1.8C189,13.1,187.7,13.1,187.7,13.1z M186,10.1
						c0.3,0.1,0.7,0.6,1,1.3c-0.3,0.1-0.6,0.1-1,0.1V10.1z M185.5,11.4c-0.3,0-0.6-0.1-1-0.1c0.2-0.7,0.6-1.1,1-1.3V11.4z
						 M185.5,11.9v1.2h-1.3c0-0.5,0.1-0.9,0.2-1.3C184.7,11.9,185.1,11.9,185.5,11.9z M185.5,13.6v1.1c-0.4,0-0.7,0.1-1.1,0.1
						c-0.1-0.4-0.1-0.8-0.2-1.3C184.2,13.6,185.5,13.6,185.5,13.6z M185.5,15.2v1.4c-0.4-0.1-0.7-0.6-1-1.3
						C184.8,15.2,185.2,15.2,185.5,15.2z M186,15.2c0.3,0,0.6,0.1,1,0.1c-0.2,0.7-0.6,1.2-1,1.3V15.2z M186,14.7v-1.1h1.3
						c0,0.4-0.1,0.9-0.2,1.3C186.7,14.7,186.3,14.7,186,14.7z M186,13.1v-1.2c0.4,0,0.7-0.1,1.1-0.1c0.1,0.4,0.2,0.8,0.2,1.3H186
						L186,13.1z M183.9,11.7c-0.1,0.4-0.2,0.9-0.2,1.4h-1.3c0-0.6,0.3-1.3,0.7-1.8C183.3,11.4,183.6,11.6,183.9,11.7z M183.7,13.6
						c0,0.5,0.1,1,0.2,1.4c-0.3,0.1-0.6,0.2-0.8,0.4c-0.4-0.5-0.6-1.1-0.6-1.7C182.4,13.6,183.7,13.6,183.7,13.6z M187.5,14.9
						c0.1-0.4,0.2-0.9,0.2-1.4h1.3c0,0.6-0.3,1.2-0.6,1.7C188.1,15.1,187.8,15,187.5,14.9z"/>
					<g>
						<g>
							<path class="st34" d="M189.6,24.1h-0.4c0-0.1-0.1-0.3-0.2-0.4l0.3-0.3c0.1-0.1,0.1-0.2,0-0.3l-1-1c-0.1-0.1-0.2-0.1-0.3,0
								l-0.3,0.3c-0.1-0.1-0.2-0.1-0.4-0.2v-0.4c0-0.1-0.1-0.2-0.2-0.2h-1.4c-0.1,0-0.2,0.1-0.2,0.2v0.4c-0.1,0-0.3,0.1-0.4,0.2
								l-0.3-0.3c-0.1-0.1-0.2-0.1-0.3,0l-1,1c-0.1,0.1-0.1,0.2,0,0.3l0.3,0.3c-0.1,0.1-0.1,0.2-0.2,0.4h-0.4
								c-0.1,0-0.2,0.1-0.2,0.2v1.4c0,0.1,0.1,0.2,0.2,0.2h0.4c0,0.1,0.1,0.3,0.2,0.4l-0.3,0.3c-0.1,0.1-0.1,0.2,0,0.3l1,1
								c0.1,0.1,0.2,0.1,0.3,0l0.3-0.3c0.1,0.1,0.2,0.1,0.4,0.2v0.4c0,0.1,0.1,0.2,0.2,0.2h1.4c0.1,0,0.2-0.1,0.2-0.2v-0.4
								c0.1,0,0.3-0.1,0.4-0.2l0.3,0.3c0.1,0.1,0.2,0.1,0.3,0l1-1c0.1-0.1,0.1-0.2,0-0.3l-0.3-0.3c0.1-0.1,0.1-0.2,0.2-0.4h0.4
								c0.1,0,0.2-0.1,0.2-0.2v-1.4C189.9,24.2,189.8,24.1,189.6,24.1z M187.6,25c0,0.6-0.5,1.1-1.1,1.1c-0.6,0-1.1-0.5-1.1-1.1
								c0-0.6,0.5-1.1,1.1-1.1C187.1,23.9,187.6,24.4,187.6,25z"/>
						</g>
						<g>
							<path class="st16" d="M194,27.8c-0.1,0-0.2-0.2-0.1-0.3c0.1-0.1,0.1-0.3,0-0.4l-0.3-0.3c-0.1-0.1-0.3-0.1-0.4,0
								c-0.1,0.1-0.3,0-0.3-0.1l0,0c0-0.2-0.1-0.3-0.3-0.3H192c-0.2,0-0.3,0.1-0.3,0.3l0,0c0,0.1-0.2,0.2-0.3,0.1
								c-0.1-0.1-0.3-0.1-0.4,0l-0.3,0.3c-0.1,0.1-0.1,0.3,0,0.4l0,0c0.1,0.1,0,0.3-0.1,0.3c-0.2,0-0.3,0.1-0.3,0.3v0.5
								c0,0.2,0.1,0.3,0.3,0.3c0.1,0,0.2,0.2,0.1,0.3l0,0c-0.1,0.1-0.1,0.3,0,0.4l0.3,0.3c0.1,0.1,0.3,0.1,0.4,0
								c0.1-0.1,0.3,0,0.3,0.1l0,0c0,0.2,0.1,0.3,0.3,0.3h0.5c0.2,0,0.3-0.1,0.3-0.3l0,0c0-0.1,0.2-0.2,0.3-0.1
								c0.1,0.1,0.3,0.1,0.4,0l0.3-0.3c0.1-0.1,0.1-0.3,0-0.4l0,0c-0.1-0.1,0-0.3,0.1-0.3c0.2,0,0.3-0.1,0.3-0.3v-0.5
								C194.3,27.9,194.1,27.8,194,27.8z M192.2,29.5c-0.6,0-1.2-0.5-1.2-1.2s0.5-1.2,1.2-1.2c0.6,0,1.2,0.5,1.2,1.2
								S192.9,29.5,192.2,29.5z"/>
						</g>
					</g>
					<g>
						<path class="st34" d="M198.5,27.4v-1.5c-0.6-0.1-1-0.3-1.2-0.6c-0.2-0.2-0.4-0.6-0.4-1c0-0.4,0.1-0.7,0.4-1
							c0.3-0.2,0.7-0.4,1.2-0.4v-0.4c0-0.2,0.1-0.3,0.3-0.3l0,0c0.2,0,0.3,0.1,0.3,0.3V23c0.4,0,0.8,0.2,1.1,0.4
							c0.1,0.1,0.2,0.1,0.2,0.2c0.2,0.3,0,0.6-0.4,0.7l0,0c-0.2,0-0.4-0.1-0.5-0.2c-0.1-0.1-0.2-0.2-0.4-0.3v1.4
							c0.7,0.1,1.2,0.3,1.4,0.6c0.2,0.2,0.4,0.5,0.4,0.9c0,0.4-0.2,0.8-0.5,1.1c-0.3,0.3-0.7,0.5-1.3,0.5v0.3c0,0.2-0.1,0.3-0.3,0.3
							l0,0c-0.2,0-0.3-0.1-0.3-0.3v-0.3c-0.5,0-0.9-0.2-1.2-0.4c-0.2-0.1-0.3-0.3-0.4-0.5c-0.1-0.3,0.1-0.6,0.5-0.6l0,0
							c0.2,0,0.5,0.1,0.6,0.3c0,0.1,0.1,0.1,0.1,0.2C198.2,27.2,198.3,27.3,198.5,27.4z M198.5,23.7c-0.2,0-0.3,0.1-0.4,0.2
							c-0.1,0.1-0.1,0.2-0.1,0.4s0,0.2,0.1,0.3c0.1,0.1,0.2,0.2,0.4,0.3V23.7z M199.1,27.4c0.2,0,0.4-0.1,0.5-0.2
							c0.1-0.1,0.2-0.3,0.2-0.4s-0.1-0.3-0.2-0.4c-0.1-0.1-0.3-0.2-0.5-0.3V27.4L199.1,27.4z"/>
					</g>
					<path class="st12" d="M194.4,7.4c-1.6,0.5-2.6,1.7-3.6,2.9c-0.2-0.6-0.5-1.1-0.8-1.6c-0.1-0.2-0.5,0-0.3,0.2
						c0.3,0.6,0.6,1.3,0.8,2c0,0.2,0.3,0.3,0.4,0.1c0.4-0.4,0.7-1,1.2-1.4c0.7-0.7,1.6-1.3,2.5-1.8C194.7,7.7,194.6,7.3,194.4,7.4z"
						/>
					<path class="st12" d="M206.9,20.5c-1.6,0.1-3.1,1.4-4,2.7c-0.2-0.4-0.4-0.8-0.7-1.2c-0.2-0.2-0.4,0.1-0.3,0.3
						c0.3,0.4,0.6,0.9,0.7,1.4c0.1,0.2,0.3,0.2,0.4,0.1c1-1.6,2.3-2.3,3.9-3.1C207.1,20.7,207,20.5,206.9,20.5z"/>
					<path class="st12" d="M205.3,8.7c-1.6,0.1-3.1,1.4-4,2.7c-0.2-0.4-0.4-0.8-0.7-1.2c-0.2-0.2-0.4,0.1-0.3,0.3
						c0.3,0.4,0.6,0.9,0.7,1.4c0.1,0.2,0.3,0.2,0.4,0.1c1-1.6,2.3-2.3,3.9-3.1C205.5,8.9,205.4,8.7,205.3,8.7z"/>
					<path class="st12" d="M195.7,19.3c-1.6,0-3.1,1.3-4.2,2.4c-0.1-0.3-0.2-0.7-0.3-1.1c-0.1-0.3-0.5-0.2-0.4,0.1
						c0.1,0.5,0.3,1,0.4,1.4c0.1,0.2,0.3,0.2,0.4,0.1c0.6-0.6,1.3-1.2,2-1.7c0.7-0.4,1.5-0.6,2.1-1.1
						C195.9,19.5,195.8,19.3,195.7,19.3z"/>
					<g>
						
							<rect x="198.5" y="13.1" transform="matrix(0.7071 -0.7071 0.7071 0.7071 48.0985 144.9572)" class="st14" width="1.1" height="2.7"/>
						<path class="st16" d="M199.4,15.8l1.8,1.8c0.3,0.3,0.7,0.3,1,0s0.3-0.7,0-1l-1.8-1.8L199.4,15.8z"/>
						<g>
							<path class="st14" d="M199.1,10.4c1.2,1.2,1.2,3,0,4.1c-1.2,1.2-3,1.2-4.1,0s-1.2-3,0-4.1S198,9.3,199.1,10.4z"/>
							<circle class="st35" cx="197" cy="12.5" r="2.2"/>
							<g>
								<g>
									<path class="st12" d="M196.1,11.8c0.3-0.2,0.6-0.4,1-0.4c0.2,0,0.3,0,0.5,0.1c0.1,0.1,0.2,0.1,0.4,0.1
										c0.1,0,0.1-0.1,0.1-0.1c-0.1-0.4-0.7-0.4-1-0.4c-0.4,0-0.8,0.2-1.1,0.6C195.9,11.8,196,11.9,196.1,11.8L196.1,11.8z"/>
								</g>
								<g>
									<path class="st12" d="M198.3,12.4c0.1,0.1,0.1,0.2,0.1,0.3c0,0.1,0.1,0.2,0.2,0.1c0.2-0.2,0.1-0.5-0.1-0.6
										C198.4,12,198.2,12.2,198.3,12.4L198.3,12.4z"/>
								</g>
							</g>
						</g>
					</g>
					<g>
						<path class="st12" d="M181.1,18.7C181.1,18.7,181,18.7,181.1,18.7c-0.6,0.2-1,0.8-0.6,1.3c0.3,0.5,1,0.8,1.5,0.5
							c0.5-0.3,0.6-1,0.3-1.5C182.1,18.7,181.4,18.3,181.1,18.7z M181.7,20.2c-0.3,0.2-0.8-0.1-1-0.4c-0.2-0.4,0.1-0.7,0.4-0.9
							c0,0,0,0,0,0c0.3-0.1,0.6,0,0.8,0.3C182.1,19.6,182.1,20.1,181.7,20.2z"/>
						<path class="st12" d="M184.8,20.5c-0.1-0.2-0.3-0.3-0.5-0.5c-0.2-0.2-0.4-0.3-0.6-0.5c0,0,0,0,0,0c0.1,0,0.1-0.1,0.2-0.1
							c0.2-0.2,0.4-0.3,0.6-0.5c0.1-0.1,0-0.1-0.1-0.1c-0.2,0.1-0.4,0.3-0.6,0.5c-0.2,0.1-0.3,0.3-0.5,0.4c0,0,0,0,0-0.1
							c0-0.4,0-0.7-0.1-1.1c0-0.2-0.3-0.1-0.3,0c0,0.4,0,0.8,0.1,1.2c0,0.3,0,0.7,0.1,1.1c0,0.1,0.2,0.1,0.2,0c0.1-0.3,0-0.6,0-0.9
							c0.1-0.1,0.2-0.1,0.3-0.2c0,0,0,0,0,0c0.2,0.2,0.4,0.4,0.5,0.5c0.2,0.2,0.3,0.4,0.5,0.5C184.7,20.7,184.8,20.6,184.8,20.5z"/>
					</g>
					<g>
						<path class="st12" d="M204.1,13.7c-0.1,0.2-0.2,0.5-0.3,0.7c-0.1-0.1-0.2-0.1-0.2-0.2c-0.2-0.1-0.4-0.2-0.7-0.3
							c-0.2-0.1-0.2,0.2-0.1,0.2c0.2,0.1,0.4,0.2,0.6,0.4c0.1,0.1,0.2,0.2,0.2,0.2c0,0,0,0,0,0.1c-0.1,0.4-0.3,0.8-0.3,1.2
							c0,0.1,0.2,0.2,0.3,0.1c0.2-0.3,0.3-0.7,0.4-1.1c0.1-0.4,0.3-0.8,0.4-1.2C204.4,13.7,204.2,13.6,204.1,13.7z"/>
						<path class="st12" d="M206.2,16c-0.2-0.1-0.4-0.1-0.6-0.1c-0.1,0-0.6,0.1-0.7,0c0,0,0-0.5,0-0.6c0.1,0,0.3,0,0.4,0
							c0.2,0,0.3,0.1,0.5,0c0,0,0.1-0.1,0-0.1c-0.1-0.1-0.3-0.1-0.5-0.1c-0.1,0-0.3,0-0.4,0c0-0.2,0-0.4,0.1-0.6
							c0.3,0,0.6,0.1,0.8,0.1c0.1,0,0.1-0.2,0-0.2c-0.3,0-0.5,0-0.8,0c0-0.1-0.2-0.2-0.3,0c-0.1,0.3-0.1,0.5-0.1,0.8c0,0,0,0,0,0.1
							c0,0,0,0.1,0,0.1c0,0.2-0.1,0.6,0,0.8c0.1,0.2,0.4,0.1,0.6,0.1c0.3,0,0.7,0.1,1-0.1C206.3,16.1,206.3,16,206.2,16z"/>
						<path class="st12" d="M208.4,15.6c-0.1-0.3-0.5-0.6-0.8-0.7c-0.1-0.1-0.3-0.1-0.4-0.2c-0.1-0.1-0.1-0.1,0-0.3
							c0.1-0.2,0.4-0.3,0.6-0.3s0.3-0.3,0.1-0.3c-0.5-0.1-1.6,0.5-1.1,1.1c0.2,0.2,0.5,0.2,0.8,0.3c0.3,0.1,0.7,0.4,0.4,0.7
							c-0.2,0.2-0.5,0.2-0.8,0.3c-0.1,0-0.2,0.2,0,0.3C207.5,16.8,208.6,16.2,208.4,15.6z"/>
					</g>
				</g>
			</g>
		</g>
	</g>
</g>
</svg>
