<?xml version="1.0" encoding="utf-8"?>
<!-- Generator: Adobe Illustrator 25.4.1, SVG Export Plug-In . SVG Version: 6.00 Build 0)  -->
<svg version="1.1" id="Illustration" xmlns="http://www.w3.org/2000/svg" xmlns:xlink="http://www.w3.org/1999/xlink" x="0px"
	 y="0px" viewBox="0 0 225 150" style="enable-background:new 0 0 225 150;" xml:space="preserve">
<style type="text/css">
	.st0{opacity:0.12;fill:#052669;enable-background:new    ;}
	.st1{fill:url(#SVGID_1_);}
	.st2{opacity:0.43;fill:#FFFFFF;enable-background:new    ;}
	.st3{fill:url(#SVGID_00000183210854386634202960000004255840511789300877_);}
	.st4{fill:url(#SVGID_00000109009062961317625620000002215634528908654742_);}
	.st5{fill:url(#SVGID_00000114788636900313253790000012106628926140066195_);}
	.st6{opacity:0.5;fill:#FFFFFF;enable-background:new    ;}
	.st7{opacity:0.8;fill:#FFFFFF;enable-background:new    ;}
	.st8{fill:url(#SVGID_00000012454052659805454040000007250882438710397370_);}
	.st9{fill:url(#SVGID_00000011713568257460806860000012726272833861589124_);}
	.st10{fill:url(#SVGID_00000097484110668558865720000018055204618786077110_);}
	.st11{fill:url(#SVGID_00000011737685643319681910000001562998988508891527_);}
	.st12{fill:url(#SVGID_00000034084940089208519680000006976587110633479308_);}
	.st13{fill:url(#SVGID_00000139979797605704973070000013806542299987619261_);}
	.st14{fill:#2B2B2B;}
	.st15{fill:url(#SVGID_00000105419947578409428850000013658059655951638411_);}
	.st16{fill:url(#SVGID_00000070107621540156649990000009644496823299668621_);}
	.st17{fill:url(#SVGID_00000168821524509330791730000002460621894123184008_);}
	.st18{fill:url(#SVGID_00000013184236502864303660000017772425901794740615_);}
	.st19{fill:url(#SVGID_00000080923434932545509260000007848213619958455970_);}
	.st20{fill:url(#SVGID_00000035527601717020723060000007088404985877049265_);}
	.st21{fill:#161616;}
	.st22{fill:url(#SVGID_00000067228986561156722290000017551187309054972087_);}
	.st23{fill:url(#SVGID_00000047770676719825741890000009479000953194852232_);}
	.st24{fill:url(#SVGID_00000147190617726658335440000015093209626653205931_);}
	.st25{fill:url(#SVGID_00000147189534975988163300000012702881346212556981_);}
	.st26{fill:url(#SVGID_00000076564084996861403790000007394625777015381424_);}
	.st27{fill:url(#SVGID_00000178182736408364071610000014941347946543611816_);}
	.st28{fill:#EAC4F9;}
	.st29{fill:url(#SVGID_00000124858443167891186470000000884501350250430603_);}
	.st30{fill:#FFFFFF;}
	.st31{fill:url(#SVGID_00000093173439899655179570000017016864142576334761_);}
</style>
<g>
	<path class="st0" d="M165.7,125.5c-2.9,3-5.6,5-7.8,6.6c-25.4,18.2-55.5,12.9-61.9,11.6c-9.4-1.9-27.7-5.6-40.9-21.1
		c-20-23.5-16.8-60.4-1.4-84.8C56.7,33.3,71.6,8.5,102,4.6C120.4,2.2,141.9,7,157.4,20C190,47.3,187.7,102.5,165.7,125.5z"/>
	<g>
		<g>
			
				<linearGradient id="SVGID_1_" gradientUnits="userSpaceOnUse" x1="242.5393" y1="-15.7078" x2="164.9189" y2="-113.7918" gradientTransform="matrix(0.9692 -0.2464 -0.2464 -0.9692 -62.809 106.1018)">
				<stop  offset="0" style="stop-color:#EF7F1A"/>
				<stop  offset="1" style="stop-color:#EF7F1A"/>
			</linearGradient>
			<path class="st1" d="M183.8,55c0-0.8-1.1-1.1-1.5-0.4c-3.8,7.2-14.2,25.9-26.1,34.5c-19.4,14-35.7,39.8-28.6,56.4
				C127.5,145.6,184.4,146.9,183.8,55z"/>
			<path class="st2" d="M180,65.7c-0.1,0.2-0.2,0.4-0.2,0.7l-0.2,0.6l-0.5,1.3c-0.3,0.8-0.7,1.7-1,2.5c-0.7,1.7-1.4,3.3-2.1,5
				c-1.5,3.3-3,6.6-4.6,9.8c-1.6,3.2-3.3,6.4-5,9.6c-1.8,3.2-3.6,6.3-5.5,9.3c-3.8,6.1-7.9,12.1-12.5,17.7c-2.3,2.8-4.7,5.5-7.2,8.1
				c-2.5,2.6-5.2,5-8,7.3c-0.1,0-0.2,0-0.2,0c0-0.1,0-0.1,0-0.2l0,0c2.7-2.4,5.3-4.9,7.8-7.5c2.5-2.6,4.8-5.4,7-8.2
				c2.2-2.8,4.4-5.7,6.4-8.7c2.1-2.9,4-6,5.9-9c3.8-6.1,7.3-12.4,10.6-18.8c1.6-3.2,3.2-6.4,4.7-9.7c0.8-1.6,1.5-3.3,2.2-4.9
				l1.1-2.5l0.5-1.2l0.3-0.6c0.1-0.2,0.2-0.4,0.2-0.6l0,0c0-0.1,0.1-0.1,0.2-0.1C180,65.5,180,65.6,180,65.7z"/>
		</g>
		<g>
			
				<linearGradient id="SVGID_00000179645472743625225050000008052315874687415428_" gradientUnits="userSpaceOnUse" x1="-293.4712" y1="372.2169" x2="-367.7374" y2="278.3713" gradientTransform="matrix(0.8587 -0.5125 -0.5125 -0.8587 598.4317 196.627)">
				<stop  offset="0" style="stop-color:#052669"/>
				<stop  offset="1" style="stop-color:#052669"/>
			</linearGradient>
			<path style="fill:url(#SVGID_00000179645472743625225050000008052315874687415428_);" d="M160.9,19.3c-0.2-0.8-1.4-0.7-1.5,0.1
				c-1.5,7.7-6,27.6-14.5,38.7c-13.9,18.1-21.9,46.2-10.8,59.6C134,117.7,186.5,103.4,160.9,19.3z"/>
			<path class="st2" d="M160.3,30.1c0,0.2,0,0.5,0,0.7l0,0.6l-0.1,1.3c-0.1,0.9-0.2,1.7-0.2,2.6c-0.2,1.7-0.4,3.4-0.6,5.1
				c-0.4,3.4-1,6.8-1.6,10.2c-0.6,3.4-1.3,6.8-2,10.2c-0.7,3.4-1.5,6.7-2.5,10.1c-1.8,6.7-4,13.2-6.6,19.6c-1.3,3.2-2.8,6.3-4.4,9.4
				c-1.6,3-3.4,6-5.4,8.9c0,0.1-0.1,0.1-0.2,0c-0.1,0-0.1-0.1,0-0.2l0,0c1.8-2.9,3.5-5.9,5.1-9c1.5-3.1,2.9-6.2,4.2-9.4
				c1.3-3.2,2.4-6.4,3.5-9.7c1.1-3.3,2-6.6,3-9.9c1.8-6.6,3.3-13.4,4.6-20.1c0.6-3.4,1.2-6.8,1.7-10.2c0.3-1.7,0.5-3.4,0.7-5.1
				l0.3-2.6l0.1-1.3l0.1-0.6c0-0.2,0-0.4,0-0.6l0,0c0-0.1,0.1-0.1,0.1-0.1C160.3,30,160.3,30.1,160.3,30.1z"/>
		</g>
	</g>
	<g>
		
			<linearGradient id="SVGID_00000126287461619464513770000015991434499248535202_" gradientUnits="userSpaceOnUse" x1="65.5073" y1="66.6143" x2="149.4162" y2="66.6143" gradientTransform="matrix(1 0 0 -1 0 150)">
			<stop  offset="0" style="stop-color:#2B3582"/>
			<stop  offset="1" style="stop-color:#052669"/>
		</linearGradient>
		<path style="fill:url(#SVGID_00000126287461619464513770000015991434499248535202_);" d="M67,27.1c-0.5,20-2.1,88.8-1.3,113.2
			c0.1,2.6,2.2,4.7,4.7,4.7c12.8,0.4,49.6,1.5,70.5,0.6c4.4-0.2,7.8-3.7,7.9-8.1c0.4-21,1.4-79.9-0.9-106.9c-0.3-3.2-2.8-5.8-6-6.1
			C128,23.2,91,19.8,72.9,21C69.7,21.2,67.1,23.9,67,27.1z"/>
		
			<linearGradient id="SVGID_00000124159802966862581830000015640616071757284272_" gradientUnits="userSpaceOnUse" x1="69.9032" y1="70.4911" x2="145.0212" y2="70.4911" gradientTransform="matrix(1 0 0 -1 0 150)">
			<stop  offset="0" style="stop-color:#EF7F1A"/>
			<stop  offset="1" style="stop-color:#EF7F1A"/>
		</linearGradient>
		<path style="fill:url(#SVGID_00000124159802966862581830000015640616071757284272_);" d="M72.2,33.3c-0.7,16.4-2.9,70.7-2.2,90.9
			c0.1,2.9,2.4,5.3,5.4,5.5c12.1,0.7,43.1,2.3,60.8,0.8c3.2-0.3,5.7-2.8,5.9-6c0.9-16.7,3.5-67.3,2.8-87.2c-0.1-3.2-2.6-5.8-5.7-6
			c-13.1-1.2-46.7-4-61.7-3.1C74.6,28.2,72.4,30.5,72.2,33.3z"/>
		<path class="st6" d="M98.6,24.5L98.6,24.5c0,0.6,0.5,1.1,1.1,1.1c3,0.2,11.5,0.6,15.3,0.8c0.7,0,1.3-0.6,1.2-1.4l0-0.1
			c-0.1-0.5-0.5-0.9-1-0.9c-2.6-0.2-10.3-0.9-15.5-0.7C99.1,23.3,98.6,23.8,98.6,24.5z"/>
	</g>
	<path class="st7" d="M132.5,92.3l-51.4-1c-1.7,0-2.9,1.9-2.8,4.3c0.1,2.4,1.9,3.1,3.5,3.1l50.3,0.4c1,0,1.9-1.5,2.1-3.4
		C134.3,93.9,133.5,92.3,132.5,92.3z"/>
	<path class="st7" d="M132.6,108l-51.4-1c-1.7,0-2.9,1.9-2.8,4.3c0.1,2.4,1.9,3.1,3.5,3.1l50.3,0.4c1,0,1.9-1.5,2.1-3.4
		C134.4,109.6,133.7,108.1,132.6,108z"/>
	
		<linearGradient id="SVGID_00000147191674797504767030000006176784909970687912_" gradientUnits="userSpaceOnUse" x1="97.0927" y1="132.8611" x2="96.6225" y2="87.26" gradientTransform="matrix(1 0 0 -1 0 150)">
		<stop  offset="0" style="stop-color:#052669"/>
		<stop  offset="1" style="stop-color:#052669"/>
	</linearGradient>
	<path style="fill:url(#SVGID_00000147191674797504767030000006176784909970687912_);" d="M110.5,94.4l-27.9-0.3
		c-0.9,0-1.6,0.5-1.5,1.2c0.1,0.6,1,0.8,1.9,0.8l27.3,0.1c0.6,0,1.1-0.4,1.1-0.9C111.5,94.9,111.1,94.4,110.5,94.4z"/>
	<g>
		<path d="M64.5,77.3c0,0-1.5,0.7-1.8,1.6c-0.2,0.7-1.9,0.8-2.1,2.1c-0.1,0.7-0.6,1.2-1.3,1.3c-1.7,0.3-4.3,1.1-4.8,4.1
			c-0.3,2.3,0.8,3.1,2,3.4c0.9,0.2,1.5,1.1,1.3,2c-0.2,0.9,0.1,1.9,1.6,2.6c3.3,1.8,6.7-4.2,6.7-4.2L66.9,80L64.5,77.3z"/>
		
			<linearGradient id="SVGID_00000065069983502951320000000016061091136249303182_" gradientUnits="userSpaceOnUse" x1="69.7869" y1="59.5253" x2="86.9182" y2="81.7751" gradientTransform="matrix(1 0 0 -1 0 150)">
			<stop  offset="0" style="stop-color:#F9B776"/>
			<stop  offset="1" style="stop-color:#EF7F1A"/>
		</linearGradient>
		<path style="fill:url(#SVGID_00000065069983502951320000000016061091136249303182_);" d="M82.7,74.9c0,0-6.7,10.5-14.6,12.6
			c0,0,1.5,4.4,2.7,4.9c0,0,9.8-8.1,12.3-16L82.7,74.9z"/>
		
			<linearGradient id="SVGID_00000013914415458930775160000013334506688074373544_" gradientUnits="userSpaceOnUse" x1="-2071.2114" y1="6.7399" x2="-2067.4114" y2="6.7399" gradientTransform="matrix(-1 0 0 -1 -2020.4333 150)">
			<stop  offset="0" style="stop-color:#052669"/>
			<stop  offset="1" style="stop-color:#052669"/>
		</linearGradient>
		<path style="fill:url(#SVGID_00000013914415458930775160000013334506688074373544_);" d="M50.8,142.3l-0.2,1.8
			c0,0.3-0.3,0.6-0.6,0.6c-0.6,0.1-1.5,0.1-2.4,0c-0.4,0-0.6-0.4-0.5-0.8c0.2-0.7,0.6-1.7,1.2-2.3h2C50.5,141.7,50.8,142,50.8,142.3
			z"/>
		
			<linearGradient id="SVGID_00000085949782065919780290000008949871506401413778_" gradientUnits="userSpaceOnUse" x1="-2087.2693" y1="-8.2458" x2="-2081.8008" y2="55.6688" gradientTransform="matrix(-1 0 0 -1 -2020.4333 150)">
			<stop  offset="0" style="stop-color:#F9B776"/>
			<stop  offset="1" style="stop-color:#EF7F1A"/>
		</linearGradient>
		<path style="fill:url(#SVGID_00000085949782065919780290000008949871506401413778_);" d="M66.2,121.5l0.3,2c0,0-1.1,11.3-1.3,15.8
			c0,0.7,0.2,1.4,0.5,2l1.9,3.1l-4.9-2.9l-0.1-0.6l0.8-1.1l-1.1-12.6c-0.1-0.7,0.1-1.5,0.4-2.1l1-1.9L66.2,121.5z"/>
		
			<linearGradient id="SVGID_00000049188634142213599330000000583534240142858374_" gradientUnits="userSpaceOnUse" x1="-2088.8665" y1="7.4337" x2="-2082.717" y2="7.4337" gradientTransform="matrix(-1 0 0 -1 -2020.4333 150)">
			<stop  offset="0" style="stop-color:#052669"/>
			<stop  offset="1" style="stop-color:#052669"/>
		</linearGradient>
		<path style="fill:url(#SVGID_00000049188634142213599330000000583534240142858374_);" d="M68,144.9h-1.6c-0.3,0-0.6-0.1-0.8-0.4
			c-0.5-0.6-1.5-1.9-2-1.9c-0.7,0-0.6,2.3-0.6,2.3h-0.4l-0.5-2.9c-0.1-0.7,0.2-1.4,0.9-1.8l0,0c0,0,0.1,1.1,1,1.6
			c0.8,0.5,3.3,2.2,3.3,2.2s0.3,0,0.6,0C68.6,144.2,68.5,144.9,68,144.9z"/>
		
			<linearGradient id="SVGID_00000089572583017407409650000007329736253160740799_" gradientUnits="userSpaceOnUse" x1="-2076.2683" y1="-9.1968" x2="-2070.7981" y2="54.7345" gradientTransform="matrix(-1 0 0 -1 -2020.4333 150)">
			<stop  offset="0" style="stop-color:#F9B776"/>
			<stop  offset="1" style="stop-color:#EF7F1A"/>
		</linearGradient>
		<path style="fill:url(#SVGID_00000089572583017407409650000007329736253160740799_);" d="M59.5,122.5c0,0-6.5,12.4-7.6,15.2
			c-1,2.8-1.4,5.2-1.4,5.4c0,0.3-0.5,0.7-1.7,0.7c-0.6,0-0.9-0.2-1.1-0.5c-0.1-0.2-0.1-0.5,0-0.7c0.4-0.8,1.6-3.2,2-4.3
			c0.5-1.3,1.7-7.3,2.3-9.4c0.6-2.1,1.3-4.3,4.1-6.4C56.1,122.5,58,120.6,59.5,122.5z"/>
		<path d="M63.6,102.2C65.3,95,61,91,61,91c2.7-2.6,7.6-3.8,7.6-3.8s4.7,3.4,4.1,6.1c-0.3,1.6-3.3,9.4-3.3,9.4S66.7,104,63.6,102.2z
			"/>
		<path class="st14" d="M59.9,105.7c0.7-2.1,3.7-3.5,3.7-3.5c3.1,1.9,5.8,0.6,5.8,0.6s0.6,2.3,0.2,4.5c-0.4,2.2-3.1,16.2-3.1,16.2
			c-4.2,0.8-10.6-0.9-10.6-0.9C58.6,117.9,59.2,107.8,59.9,105.7z"/>
		
			<linearGradient id="SVGID_00000076563351953637597340000005921055056140789690_" gradientUnits="userSpaceOnUse" x1="67.3347" y1="75.3036" x2="65.5589" y2="57.9634" gradientTransform="matrix(1 0 0 -1 0 150)">
			<stop  offset="0" style="stop-color:#F9B776"/>
			<stop  offset="1" style="stop-color:#EF7F1A"/>
		</linearGradient>
		<path style="fill:url(#SVGID_00000076563351953637597340000005921055056140789690_);" d="M65.5,82.5l-1.4,6.1
			c-0.1,0.5,0.4,0.5,0.9,0.3c0.9-0.2,2.1-0.5,2.4-1.2c0-0.1,0.1-0.2,0.1-0.2l0.6-4.3c0-0.3-0.1-0.7-0.4-0.8L66.6,82
			C66.2,81.8,65.7,82.1,65.5,82.5z"/>
		<g>
			
				<linearGradient id="SVGID_00000003086822089529324690000011439167930469393028_" gradientUnits="userSpaceOnUse" x1="-1959.7416" y1="255.4111" x2="-1950.7782" y2="271.3627" gradientTransform="matrix(-0.9809 -0.1943 0.1943 -0.9809 -1902.6725 -44.0504)">
				<stop  offset="0" style="stop-color:#F9B776"/>
				<stop  offset="1" style="stop-color:#EF7F1A"/>
			</linearGradient>
			<path style="fill:url(#SVGID_00000003086822089529324690000011439167930469393028_);" d="M68.2,76.9c0,0,1.5,1,2.1,3.5
				c0.6,2.5-0.4,3.4-1.4,3.4c-1-0.1-2.6-0.4-3.9-2.2C63.6,79.8,66.3,75.7,68.2,76.9z"/>
			<path d="M66.3,80.6c0,0-0.5-3.6,2.5-3l0.6,0.6c0,0,1.5-1.6-0.2-2.9c-1.6-1.2-3.9-0.9-5.1,1.3c-1.2,2.3-1.7,3.9-0.7,5.3
				c1,1.4,1.8,0.2,1.8,0.2s-0.5-1.2-0.1-1.7c0.4-0.5,0.9,0.3,0.9,0.3L66.3,80.6z"/>
			
				<linearGradient id="SVGID_00000054978903268880117880000003754627359694358955_" gradientUnits="userSpaceOnUse" x1="-1957.8336" y1="254.3389" x2="-1948.8704" y2="270.2904" gradientTransform="matrix(-0.9809 -0.1943 0.1943 -0.9809 -1902.6725 -44.0504)">
				<stop  offset="0" style="stop-color:#F9B776"/>
				<stop  offset="1" style="stop-color:#EF7F1A"/>
			</linearGradient>
			<path style="fill:url(#SVGID_00000054978903268880117880000003754627359694358955_);" d="M65.9,80.9c0,0-0.3-1.9-1.2-1.3
				c-0.9,0.5,0.3,1.7,0.9,2.1L65.9,80.9z"/>
		</g>
		<g>
			
				<linearGradient id="SVGID_00000038390708968225108270000008407015694362225810_" gradientUnits="userSpaceOnUse" x1="70.8567" y1="58.7015" x2="87.9881" y2="80.9514" gradientTransform="matrix(1 0 0 -1 0 150)">
				<stop  offset="0" style="stop-color:#F9B776"/>
				<stop  offset="1" style="stop-color:#EF7F1A"/>
			</linearGradient>
			<path style="fill:url(#SVGID_00000038390708968225108270000008407015694362225810_);" d="M82.6,77.1c0,0.2-0.8,0.4-1-0.6
				c0.1-0.4,0.2-2.2,0.5-2.4c1.6-1.5,4.6-3.1,4.6-3.1c0.3,0.5-0.1,0.8-0.1,0.8l-1.5,1c0.2,0.5,0.4,1,0.4,1.5c0,0.4-0.1,0.9-0.4,1.2
				c-0.3,0.3-0.7,0.8-1,1.1C83.4,77.2,82.6,77.1,82.6,77.1z"/>
			
				<linearGradient id="SVGID_00000178203633157678073320000011224388234164202925_" gradientUnits="userSpaceOnUse" x1="83.8452" y1="77.3502" x2="85.4121" y2="87.9006" gradientTransform="matrix(1 0 0 -1 0 150)">
				<stop  offset="0" style="stop-color:#F9B776"/>
				<stop  offset="1" style="stop-color:#EF7F1A"/>
			</linearGradient>
			<path style="fill:url(#SVGID_00000178203633157678073320000011224388234164202925_);" d="M83.4,76.3l-0.2-0.1
				c0-0.1,0.7-1.8,1.1-2.1c0.1-0.1,0.2-0.3,0.2-0.3c0-0.1,0-0.1-0.1-0.2l-1.2,0.6l-0.5,0.8l-0.2-0.1l0.6-0.9l1.4-0.7l0.1,0.1
				c0.1,0.1,0.2,0.2,0.2,0.4c0,0.2-0.1,0.3-0.3,0.5C84.2,74.5,83.6,75.8,83.4,76.3z"/>
		</g>
		
			<linearGradient id="SVGID_00000158018095113116126510000013562816609641831093_" gradientUnits="userSpaceOnUse" x1="45.8822" y1="48.9472" x2="64.1261" y2="48.9472" gradientTransform="matrix(1 0 0 -1 0 150)">
			<stop  offset="0" style="stop-color:#F9B776"/>
			<stop  offset="1" style="stop-color:#EF7F1A"/>
		</linearGradient>
		<path style="fill:url(#SVGID_00000158018095113116126510000013562816609641831093_);" d="M61,91c0,0-7.6,15.6-10.3,16.9
			c0,0-2.8,0.3-4.5,0.8c-0.4,0.1-0.4,0.7,0,0.9c1.2,0.3,3.2,0.6,5-0.4c0,0-1,1.5-0.4,2c0,0,1.3-1.5,1.8-2c0.4-0.4,8.2-8.9,11.4-14
			c0.3-0.4,0.1-1.6-0.1-2.1C63.5,92.1,62.5,90.4,61,91z"/>
	</g>
	<g>
		<circle class="st7" cx="107.5" cy="59.2" r="22.7"/>
		<g>
			<path class="st21" d="M114.8,51c0,3.9-3.1,8.1-7,8.1s-7-4.2-7-8.1c0-3.9,3.1-6.6,7-6.6S114.8,47.1,114.8,51z"/>
			<path class="st21" d="M99.1,74h17.1c1.8,0,3.4-1.2,4-2.9l0.9-2.9c0.7-2.1-0.4-4.4-2.5-5.2c-7-2.6-14.2-2.2-21.6,0.2
				c-2.1,0.7-3.2,2.9-2.6,5l0.7,2.6C95.6,72.8,97.2,74,99.1,74z"/>
		</g>
	</g>
	
		<linearGradient id="SVGID_00000088822905700966930170000013501512365087738023_" gradientUnits="userSpaceOnUse" x1="10.5397" y1="166.1282" x2="5.6043" y2="118.6546" gradientTransform="matrix(0.9995 3.210000e-02 3.210000e-02 -0.9995 77.3743 210.9584)">
		<stop  offset="0" style="stop-color:#052669"/>
		<stop  offset="1" style="stop-color:#052669"/>
	</linearGradient>
	<path style="fill:url(#SVGID_00000088822905700966930170000013501512365087738023_);" d="M86.1,110.7c0,1-0.9,1.8-1.9,1.8
		c-1,0-1.8-0.8-1.8-1.9c0-1,0.9-1.8,1.9-1.8C85.4,108.9,86.2,109.7,86.1,110.7z"/>
	
		<linearGradient id="SVGID_00000173151169192767661010000000228095629262792333_" gradientUnits="userSpaceOnUse" x1="17.2955" y1="165.4262" x2="12.3601" y2="117.9524" gradientTransform="matrix(0.9995 3.210000e-02 3.210000e-02 -0.9995 77.3743 210.9584)">
		<stop  offset="0" style="stop-color:#052669"/>
		<stop  offset="1" style="stop-color:#052669"/>
	</linearGradient>
	<path style="fill:url(#SVGID_00000173151169192767661010000000228095629262792333_);" d="M93,110.8c0,1-0.9,1.8-1.9,1.8
		c-1,0-1.8-0.8-1.8-1.8c0-1,0.9-1.8,1.9-1.8C92.2,109,93,109.8,93,110.8z"/>
	
		<linearGradient id="SVGID_00000077312745350955547070000014870833634509029031_" gradientUnits="userSpaceOnUse" x1="24.5128" y1="164.6759" x2="19.5774" y2="117.2023" gradientTransform="matrix(0.9995 3.210000e-02 3.210000e-02 -0.9995 77.3743 210.9584)">
		<stop  offset="0" style="stop-color:#052669"/>
		<stop  offset="1" style="stop-color:#052669"/>
	</linearGradient>
	<path style="fill:url(#SVGID_00000077312745350955547070000014870833634509029031_);" d="M100.3,110.9c0,1-0.9,1.8-1.9,1.8
		c-1,0-1.8-0.8-1.8-1.9c0-1,0.9-1.8,1.9-1.8C99.5,109.1,100.3,109.9,100.3,110.9z"/>
	
		<linearGradient id="SVGID_00000178893682814841170440000011003442728251289006_" gradientUnits="userSpaceOnUse" x1="38.8218" y1="163.1882" x2="33.8864" y2="115.7144" gradientTransform="matrix(0.9995 3.210000e-02 3.210000e-02 -0.9995 77.3743 210.9584)">
		<stop  offset="0" style="stop-color:#052669"/>
		<stop  offset="1" style="stop-color:#052669"/>
	</linearGradient>
	<path style="fill:url(#SVGID_00000178893682814841170440000011003442728251289006_);" d="M114.8,111.1c0,1-0.9,1.8-1.9,1.8
		c-1,0-1.8-0.8-1.8-1.8s0.9-1.8,1.9-1.8C114,109.3,114.8,110.1,114.8,111.1z"/>
	
		<linearGradient id="SVGID_00000139291358340036210250000016809407264059387314_" gradientUnits="userSpaceOnUse" x1="46.0391" y1="162.438" x2="41.1037" y2="114.9644" gradientTransform="matrix(0.9995 3.210000e-02 3.210000e-02 -0.9995 77.3743 210.9584)">
		<stop  offset="0" style="stop-color:#052669"/>
		<stop  offset="1" style="stop-color:#052669"/>
	</linearGradient>
	<path style="fill:url(#SVGID_00000139291358340036210250000016809407264059387314_);" d="M122.1,111.2c0,1-0.9,1.8-1.9,1.8
		c-1,0-1.8-0.8-1.8-1.9c0-1,0.9-1.8,1.9-1.8C121.3,109.4,122.1,110.2,122.1,111.2z"/>
	
		<linearGradient id="SVGID_00000006679933080927478500000009262522203330257339_" gradientUnits="userSpaceOnUse" x1="31.2686" y1="163.9736" x2="26.3332" y2="116.4998" gradientTransform="matrix(0.9995 3.210000e-02 3.210000e-02 -0.9995 77.3743 210.9584)">
		<stop  offset="0" style="stop-color:#052669"/>
		<stop  offset="1" style="stop-color:#052669"/>
	</linearGradient>
	<path style="fill:url(#SVGID_00000006679933080927478500000009262522203330257339_);" d="M107.1,111c0,1-0.9,1.8-1.9,1.8
		c-1,0-1.8-0.8-1.8-1.8c0-1,0.9-1.8,1.9-1.8C106.4,109.2,107.1,110,107.1,111z"/>
	<g>
		<g>
			<g>
				<path class="st28" d="M43.3,60.2c-0.1,0-0.1,0-0.2-0.1c-0.1-0.2-0.2-0.4-0.3-0.6c0-0.1,0-0.2,0.1-0.2c0.2-0.1,0.3,0.1,0.5,0.7
					C43.5,60.1,43.4,60.2,43.3,60.2C43.3,60.2,43.3,60.2,43.3,60.2z"/>
				<path class="st28" d="M42,57.4c-0.1-0.4-0.3-0.9-0.4-1.3c0-0.1,0-0.2,0.1-0.2c0.3-0.1,0.2,0.1,0.6,1.4c0,0.1,0,0.2-0.1,0.2
					C42.1,57.6,42,57.5,42,57.4z M41.3,53.9c0-0.5-0.1-0.9-0.1-1.4c0-0.2,0.4-0.2,0.4,0c0,0.4,0,0.9,0.1,1.3c0,0.1-0.1,0.2-0.2,0.2
					C41.4,54.1,41.3,54,41.3,53.9z M41.3,50.4c0.1-0.4,0.1-0.9,0.2-1.3c0-0.2,0.4-0.2,0.4,0.1c-0.1,0.4-0.2,0.9-0.2,1.3
					C41.7,50.6,41.3,50.6,41.3,50.4z M42.2,47.1c-0.1,0-0.1-0.1-0.1-0.2c0.1-0.4,0.3-0.9,0.5-1.3c0.1-0.2,0.4-0.1,0.3,0.1
					c-0.2,0.4-0.3,0.8-0.5,1.3C42.4,47.1,42.3,47.1,42.2,47.1z M43.7,43.9c-0.1,0-0.1-0.2-0.1-0.2c0.2-0.4,0.5-0.8,0.7-1.2
					c0.1-0.2,0.4,0,0.3,0.2c-0.3,0.4-0.5,0.7-0.7,1.1C43.9,43.9,43.7,43.9,43.7,43.9z M45.9,41c0,0-0.1,0-0.1,0
					c-0.1-0.1-0.1-0.2,0-0.2c0.3-0.3,0.6-0.7,1-1c0.1-0.1,0.2-0.1,0.3,0c0.1,0.1,0.1,0.2,0,0.2c-0.3,0.3-0.6,0.6-0.9,1
					C46,41,45.9,41,45.9,41z M48.5,38.6c-0.1,0-0.1,0-0.2-0.1c-0.1-0.1,0-0.2,0-0.2c0.4-0.3,0.8-0.5,1.1-0.8c0.1-0.1,0.2,0,0.2,0.1
					c0.1,0.1,0,0.2-0.1,0.2c-0.4,0.2-0.8,0.5-1.1,0.8C48.6,38.6,48.6,38.6,48.5,38.6z M51.5,36.7c0-0.1,0-0.2,0.1-0.2
					c0.4-0.2,0.9-0.4,1.3-0.5c0.2-0.1,0.3,0.2,0.1,0.3c-0.4,0.2-0.8,0.3-1.3,0.5C51.6,36.8,51.5,36.8,51.5,36.7z M63.5,35.8
					c-1.3-0.3-1.5-0.2-1.5-0.5c0-0.1,0.1-0.2,0.2-0.1c0.5,0.1,0.9,0.2,1.4,0.3C63.8,35.5,63.8,35.8,63.5,35.8z M54.9,35.5
					c0-0.1,0-0.2,0.1-0.2c0.4-0.1,0.9-0.2,1.4-0.3c0.2,0,0.3,0.3,0.1,0.3c-0.4,0.1-0.9,0.2-1.3,0.3C55,35.7,54.9,35.6,54.9,35.5z
					 M60,35.2c-1.3-0.1-1.5,0.1-1.5-0.2c0-0.2,0.2-0.2,0.2-0.2c0.5,0,0.9,0,1.4,0c0.1,0,0.2,0.1,0.2,0.2
					C60.2,35.1,60.1,35.2,60,35.2z"/>
				<path class="st28" d="M66.3,36.7c-0.6-0.2-0.8-0.3-0.8-0.5c0-0.1,0.1-0.1,0.2-0.1c0.6,0.2,0.9,0.3,0.8,0.5
					C66.5,36.7,66.4,36.8,66.3,36.7z"/>
			</g>
			<g>
				<path class="st28" d="M75.7,46.7c-0.1,0-0.1,0-0.2-0.1c-0.1-0.2-0.2-0.4-0.3-0.6c0-0.1,0-0.2,0.1-0.2c0.1,0,0.2,0,0.2,0.1
					c0.1,0.2,0.2,0.4,0.3,0.7C75.9,46.5,75.9,46.6,75.7,46.7C75.7,46.7,75.7,46.7,75.7,46.7z"/>
				<path class="st28" d="M59.2,69.7c-0.5,0-1,0-1.5,0c-0.1,0-0.2-0.1-0.2-0.2c0-0.3,0.2-0.1,1.7-0.1c0.1,0,0.2,0.1,0.2,0.2
					C59.4,69.7,59.2,69.7,59.2,69.7z M61.4,69.4c0-0.3,0.2-0.1,1.6-0.5c0.1,0,0.2,0,0.2,0.1c0,0.1,0,0.2-0.1,0.2
					c-0.5,0.1-1,0.2-1.5,0.3C61.5,69.5,61.5,69.5,61.4,69.4z M55.3,69.3c-0.5-0.1-1-0.2-1.5-0.4c-0.1,0-0.1-0.1-0.1-0.2
					c0.1-0.3,0.2-0.1,1.6,0.2c0.1,0,0.2,0.1,0.1,0.2C55.5,69.3,55.4,69.4,55.3,69.3z M65.4,68.6c-0.1,0-0.1,0-0.2-0.1
					c0-0.1,0-0.2,0.1-0.2c0.5-0.2,0.9-0.4,1.3-0.6c0.1,0,0.2,0,0.2,0.1c0,0.1,0,0.2-0.1,0.2C66.4,68.2,65.9,68.4,65.4,68.6
					C65.4,68.6,65.4,68.6,65.4,68.6z M68.8,66.8c-0.1,0-0.1,0-0.2-0.1c-0.1-0.1,0-0.2,0-0.2c0.4-0.3,0.8-0.5,1.2-0.8
					c0.1-0.1,0.2,0,0.3,0c0.1,0.1,0,0.2,0,0.2C69.7,66.2,69.3,66.5,68.8,66.8C68.9,66.8,68.9,66.8,68.8,66.8z M71.8,64.4
					c0,0-0.1,0-0.1,0c-0.1-0.1-0.1-0.2,0-0.2c0.3-0.3,0.7-0.7,1-1.1c0.1-0.1,0.2-0.1,0.3,0c0.1,0.1,0.1,0.2,0,0.2
					c-0.3,0.4-0.6,0.7-1,1.1C71.9,64.3,71.9,64.4,71.8,64.4z M74.2,61.3C74.1,61.3,74.1,61.3,74.2,61.3C74,61.3,74,61.2,74,61.1
					c0.3-0.4,0.5-0.8,0.7-1.3c0-0.1,0.2-0.1,0.2-0.1c0.1,0,0.1,0.1,0.1,0.2c-0.2,0.4-0.5,0.9-0.7,1.3C74.3,61.3,74.2,61.3,74.2,61.3
					z M75.7,57.9c-0.3-0.1-0.1-0.2,0.3-1.6c0.1-0.2,0.4-0.1,0.3,0.1c-0.1,0.5-0.3,0.9-0.4,1.4C75.9,57.9,75.8,57.9,75.7,57.9z
					 M76.6,54.2c-0.3,0-0.1-0.2-0.1-1.6c0-0.2,0.4-0.2,0.4,0c0,0.5,0,1-0.1,1.5C76.8,54.1,76.7,54.2,76.6,54.2z M76.6,50.4
					c-0.1,0-0.2-0.1-0.2-0.2c-0.1-0.5-0.1-1-0.2-1.4c0-0.1,0-0.2,0.1-0.2c0.1,0,0.2,0,0.2,0.1c0.1,0.5,0.2,1,0.2,1.4
					C76.8,50.3,76.7,50.4,76.6,50.4C76.6,50.4,76.6,50.4,76.6,50.4z"/>
				<path class="st28" d="M51.6,68.1c-0.6-0.3-0.8-0.3-0.7-0.5c0.1-0.2,0.3,0,0.9,0.2c0.1,0,0.1,0.1,0.1,0.2
					C51.8,68.1,51.7,68.2,51.6,68.1z"/>
			</g>
			<g>
				
					<linearGradient id="SVGID_00000003065347233218186900000012512134330132710058_" gradientUnits="userSpaceOnUse" x1="48.1317" y1="129.1173" x2="69.2868" y2="68.4726" gradientTransform="matrix(1 0 0 -1 0 150)">
					<stop  offset="0" style="stop-color:#EF7F1A"/>
					<stop  offset="1" style="stop-color:#EF7F1A"/>
				</linearGradient>
				<path style="fill:url(#SVGID_00000003065347233218186900000012512134330132710058_);" d="M51.6,63.3l2.2-1.3
					c1.1,0.5,2.2,0.9,3.5,1.1c1,2.2,1,2.5,1.2,2.4l3.1-0.2c0.1,0,0.2-0.1,0.2-0.2l0.6-2.4c1.2-0.4,2.3-0.9,3.2-1.6l2.4,0.9
					c0.1,0,0.2,0,0.2-0.1l2-2.3c0.1-0.1,0.1-0.2,0-0.2l-1.3-2.2c0.6-1,0.9-2.2,1.1-3.4l2.4-1c0.1,0,0.1-0.1,0.1-0.2l-0.2-3
					c0-0.1-0.1-0.2-0.2-0.2l-2.5-0.6c-0.4-1.2-0.9-2.2-1.7-3.2c0.9-2.3,1.1-2.4,0.9-2.6c-2.3-1.9-2.4-2.1-2.6-2l-2.2,1.3
					c-1.1-0.5-2.2-0.9-3.5-1.1c-1-2.2-1-2.5-1.2-2.4c-3.1,0.3-3.2,0.1-3.3,0.4l-0.6,2.4c-1.2,0.4-2.3,0.9-3.2,1.6
					c-2.3-0.8-2.5-1.1-2.6-0.9c-1.9,2.3-2.2,2.3-2,2.5l1.3,2.2c-0.6,1-0.9,2.2-1.1,3.4c-2.2,1-2.5,0.9-2.5,1.2
					c0.3,3,0.1,3.1,0.4,3.2l2.5,0.6c0.4,1.2,0.9,2.2,1.7,3.2c-0.9,2.3-1.1,2.4-0.9,2.6C51.4,63.2,51.4,63.4,51.6,63.3z"/>
				<path class="st30" d="M56.2,53.1c-0.5-1.5,0.3-3.2,1.9-3.7c1.6-0.5,3.3,0.3,3.8,1.8c0.5,1.5-0.3,3.2-1.9,3.7l0,0
					C58.4,55.5,56.7,54.6,56.2,53.1z M59.9,54.7L59.9,54.7L59.9,54.7z M58.2,49.9c-1.3,0.4-2,1.8-1.6,3.1c0.4,1.3,1.8,1.9,3.1,1.5
					c1.3-0.4,2-1.8,1.6-3.1C60.9,50.1,59.5,49.4,58.2,49.9z"/>
				<path class="st30" d="M59.4,59.6L59.4,59.6c-0.4,0-0.9,0-1.3-0.1c-0.1,0-0.2-0.1-0.2-0.3c0,0,0,0,0,0c0-0.1,0.2-0.2,0.3-0.2
					c0.5,0.1,1,0.1,1.5,0l0,0c3.9-0.3,6.8-3.5,6.6-7.3c0-0.1,0-0.2,0-0.3c-0.3-3.9-3.8-6.8-7.7-6.4c-3.9,0.3-6.9,3.7-6.6,7.6
					c0.2,2.3,1.3,3.4,1.4,3.7c0,0.3-0.3,0.4-0.5,0.2c-0.8-1.2-1.4-2.6-1.4-4.1c-0.3-6.6,7.6-10.3,12.7-6.1c1.6,1.3,2.5,3.1,2.7,5.1
					c0,0.1,0,0.2,0,0.3c0.1,1.9-0.6,3.7-1.8,5.2c-1.3,1.5-3.2,2.5-5.3,2.6C59.6,59.6,59.5,59.6,59.4,59.6z"/>
			</g>
		</g>
		<g>
			
				<linearGradient id="SVGID_00000180332363457452914810000002174835327296255119_" gradientUnits="userSpaceOnUse" x1="307.9905" y1="-111.629" x2="313.5002" y2="-138.1759" gradientTransform="matrix(0.9932 -0.1161 -0.1161 -0.9932 -256.9836 -85.6216)">
				<stop  offset="0" style="stop-color:#052669"/>
				<stop  offset="1" style="stop-color:#052669"/>
			</linearGradient>
			<path style="fill:url(#SVGID_00000180332363457452914810000002174835327296255119_);" d="M74.2,39.5c0.6,0.3,1.3,0.4,2,0.5
				l0.7,1.3c0.1,0.1,0.2,0,1.8-0.2c0.2,0,0.1-0.1,0.3-1.5c0.6-0.3,1.2-0.6,1.7-1.1l1.4,0.4c0.2,0,0.1-0.1,1.1-1.4c0,0,0-0.1,0-0.1
				l-0.8-1.2c0.3-0.6,0.4-1.3,0.5-2c1.2-0.7,1.3-0.6,1.3-0.8c-0.3-1.7-0.2-1.8-0.4-1.8l-1.4-0.2c-0.3-0.6-0.6-1.2-1.1-1.7l0.4-1.4
				c0-0.2-0.1-0.1-1.4-1.1c-0.1-0.1-0.1,0-1.3,0.8c-0.6-0.3-1.3-0.4-2-0.5l-0.7-1.3c-0.1-0.1-0.2,0-1.8,0.2c-0.2,0-0.1,0.1-0.3,1.5
				c-0.6,0.3-1.2,0.6-1.7,1.1l-1.4-0.4c0,0-0.1,0-0.1,0L70,30c0,0,0,0.1,0,0.1l0.8,1.2c-0.3,0.6-0.4,1.3-0.5,2
				C69.1,34,69,33.9,69,34.1c0.3,1.7,0.2,1.8,0.4,1.8l1.4,0.2c0.3,0.6,0.6,1.2,1.1,1.7c-0.4,1.3-0.5,1.4-0.4,1.5l1.4,1
				C73,40.4,73,40.3,74.2,39.5z"/>
			<g>
				<path class="st30" d="M74.9,34.4c-0.4-0.9,0-2,0.9-2.4c0.9-0.4,2,0,2.4,0.9c0.4,0.9,0,2-0.9,2.4l0,0
					C76.4,35.8,75.3,35.4,74.9,34.4z M77.2,35.1L77.2,35.1L77.2,35.1z M75.4,34.2c0.3,0.6,1,0.9,1.7,0.7l0,0c1-0.4,1-1.9,0-2.3
					C76,32.2,75,33.2,75.4,34.2z"/>
				<g>
					<path class="st28" d="M69.8,40.2c-0.2-0.2-0.3-0.4-0.5-0.5c-0.1-0.1-0.1-0.2,0-0.3c0.2-0.2,0.3,0.1,0.7,0.6
						c0.1,0.1,0.1,0.2,0,0.3C70,40.3,69.8,40.3,69.8,40.2z"/>
					<path class="st28" d="M68,37.6c-0.2-0.4-0.4-0.9-0.5-1.4c-0.1-0.2,0.3-0.3,0.3-0.1c0.4,1.3,0.7,1.4,0.4,1.6
						C68.2,37.8,68.1,37.7,68,37.6z M67.4,34.1c-0.1,0-0.2-0.1-0.2-0.2c0-0.5,0-1,0.1-1.5c0-0.2,0.4-0.2,0.4,0
						c-0.1,0.5-0.1,0.9-0.1,1.4C67.5,34.1,67.3,34.1,67.4,34.1z M68.1,30.4C68,30.4,68,30.4,68.1,30.4c-0.2-0.1-0.2-0.2-0.2-0.2
						c0.2-0.5,0.4-0.9,0.7-1.3c0.1-0.1,0.2-0.1,0.2-0.1c0.1,0.1,0.1,0.2,0.1,0.2c-0.2,0.4-0.5,0.8-0.6,1.3
						C68.2,30.3,68.1,30.4,68.1,30.4z M70.2,27.3c0,0-0.1,0-0.1-0.1C70,27.2,70,27,70.1,27c0.4-0.3,0.7-0.7,1.1-0.9
						c0.1-0.1,0.2,0,0.2,0c0.1,0.1,0,0.2,0,0.2c-0.4,0.3-0.8,0.6-1.1,0.9C70.3,27.3,70.2,27.3,70.2,27.3z M73.2,25.2
						c0-0.1,0-0.2,0.1-0.2c0.5-0.2,0.9-0.3,1.4-0.4c0.2,0,0.3,0.3,0.1,0.3c-0.5,0.1-0.9,0.2-1.4,0.4C73.3,25.3,73.2,25.3,73.2,25.2z
						"/>
					<path class="st28" d="M77.8,24.8c-0.6-0.1-0.9,0-0.9-0.3c0-0.1,0.1-0.2,0.2-0.2c0.2,0,0.5,0,0.7,0.1c0.1,0,0.2,0.1,0.2,0.2
						C78,24.7,77.9,24.8,77.8,24.8z"/>
				</g>
				<g>
					<path class="st28" d="M84.1,28.6c-0.4-0.5-0.6-0.7-0.4-0.8c0.1-0.1,0.2,0,0.3,0c0.2,0.2,0.3,0.4,0.4,0.6c0.1,0.1,0,0.2,0,0.2
						C84.2,28.7,84.1,28.7,84.1,28.6z"/>
					<path class="st28" d="M77.8,42.9c0-0.3,0.3-0.1,1.5-0.5c0.2-0.1,0.3,0.3,0.1,0.3C78.9,42.8,78.5,43,78,43
						C77.9,43,77.8,43,77.8,42.9z M81.3,41.7c-0.1-0.1,0-0.2,0.1-0.2c1.1-0.7,1.2-1,1.4-0.8c0.1,0.1,0.1,0.2,0,0.3
						c-0.4,0.3-0.8,0.6-1.2,0.9C81.4,41.8,81.3,41.8,81.3,41.7z M84,39.2c-0.2-0.2,0.1-0.3,0.7-1.4c0.1-0.2,0.4-0.1,0.3,0.2
						c-0.2,0.4-0.5,0.8-0.7,1.2C84.2,39.2,84.1,39.2,84,39.2z M85.6,35.8c-0.3-0.1,0-0.3,0-1.6c0-0.2,0.4-0.2,0.4,0
						c0,0.5-0.1,1-0.2,1.4C85.8,35.8,85.7,35.8,85.6,35.8z M85.5,32c-0.3-1.3-0.5-1.5-0.3-1.6c0.1,0,0.2,0,0.2,0.1
						c0.2,0.5,0.3,0.9,0.4,1.4c0,0.1,0,0.2-0.1,0.2C85.6,32.1,85.5,32.1,85.5,32z"/>
					<path class="st28" d="M75.6,43.1c-0.2,0-0.5-0.1-0.7-0.1c-0.1,0-0.2-0.1-0.1-0.2c0-0.2,0.3-0.1,0.9,0c0.1,0,0.2,0.1,0.2,0.2
						C75.8,43,75.7,43.1,75.6,43.1z"/>
				</g>
				<path class="st30" d="M76.4,38.1c-0.2,0-0.3-0.1-0.3-0.3c0-0.1,0.1-0.3,0.3-0.3c0.3,0,0.6,0,0.8,0c0.1,0,1.5-0.2,2.5-1.6
					c2-2.8-0.4-6.7-3.8-6.1c-2,0.3-3.3,2-3.3,4c0.1,1.9,1.3,2.4,0.9,2.7c-0.1,0.1-0.3,0.1-0.4,0c-0.5-0.6-0.9-1.3-1-2.1
					c-0.4-2.4,1.3-4.7,3.7-5.1c2.6-0.4,5,1.5,5.1,4.2c0.1,2.2-1.4,4.2-3.7,4.5l0,0C77,38.1,76.7,38.1,76.4,38.1z"/>
			</g>
		</g>
	</g>
</g>
</svg>
