<?xml version="1.0" encoding="utf-8"?>
<!-- Generator: Adobe Illustrator 25.4.1, SVG Export Plug-In . SVG Version: 6.00 Build 0)  -->
<svg version="1.1" id="Layer_1" xmlns="http://www.w3.org/2000/svg" xmlns:xlink="http://www.w3.org/1999/xlink" x="0px" y="0px"
	 viewBox="0 0 225 150" style="enable-background:new 0 0 225 150;" xml:space="preserve">
<style type="text/css">
	.st0{display:none;}
	.st1{display:inline;}
	.st2{fill:#407BFF;}
	.st3{opacity:0.9;fill:#FFFFFF;enable-background:new    ;}
	.st4{fill:#E6E6E6;}
	.st5{fill:#F0F0F0;}
	.st6{fill:#FFFFFF;}
	.st7{fill:#EBEBEB;}
	.st8{fill:#E0E0E0;}
	.st9{fill:#F5F5F5;}
	.st10{fill:#EF7F1A;}
	.st11{fill:#263238;}
	.st12{opacity:0.2;enable-background:new    ;}
	.st13{fill:none;stroke:#EF7F1A;stroke-width:0.5;stroke-linecap:round;stroke-linejoin:round;stroke-miterlimit:10;}
	.st14{fill:#EEC1BB;}
	
		.st15{opacity:0.2;fill:none;stroke:#000000;stroke-width:0.5;stroke-linecap:round;stroke-linejoin:round;stroke-miterlimit:10;enable-background:new    ;}
	.st16{fill:#D4827D;}
	.st17{fill:none;stroke:#263238;stroke-width:0.5;stroke-linecap:round;stroke-linejoin:round;stroke-miterlimit:10;}
	.st18{opacity:0.3;}
	.st19{opacity:0.3;enable-background:new    ;}
	.st20{fill:#DC5753;}
	.st21{opacity:0.5;fill:#FFFFFF;enable-background:new    ;}
	.st22{opacity:0.8;fill:#FFFFFF;enable-background:new    ;}
	.st23{opacity:0.4;enable-background:new    ;}
	.st24{opacity:0.4;}
	.st25{fill:#E9B376;}
	.st26{opacity:0.7;fill:#FFFFFF;enable-background:new    ;}
	.st27{opacity:0.3;fill:#FFFFFF;enable-background:new    ;}
	.st28{fill:#D58745;}
	.st29{fill:none;stroke:#263238;stroke-width:0.75;stroke-linecap:round;stroke-linejoin:round;stroke-miterlimit:10;}
	.st30{fill:#B97964;}
	.st31{fill:#A24E3F;}
	.st32{opacity:0.5;}
</style>
<g id="Background_simple" class="st0">
	<g class="st1">
		<path class="st2" d="M13.1-113c-32.3,3-63.4,9.3-91.1,19.2c-32.6,11.7-65.8,29.8-56,53.6C-115.9,3.7-28.8,4.5-46.2,34
			c-19.7,33.4-6.5,72.6,81.8,83.5c167.8,20.7,370.5-100.4,313.6-167C313.8-91,184.7-128.8,13.1-113z"/>
		<path class="st3" d="M13.1-113c-32.3,3-63.4,9.3-91.1,19.2c-32.6,11.7-65.8,29.8-56,53.6C-115.9,3.7-28.8,4.5-46.2,34
			c-19.7,33.4-6.5,72.6,81.8,83.5c167.8,20.7,370.5-100.4,313.6-167C313.8-91,184.7-128.8,13.1-113z"/>
	</g>
</g>
<g>
	<g id="Background_complete">
		<g>
			<rect x="177" y="10.7" class="st4" width="19" height="35.8"/>
			<rect x="172.8" y="10.7" class="st5" width="22.3" height="35.8"/>
			<rect x="176.1" y="13.9" class="st6" width="15.5" height="29.4"/>
			<rect x="181.1" y="22.6" class="st7" width="6" height="11.4"/>
		</g>
		<g>
			<rect x="28.4" y="10.7" class="st4" width="19" height="35.8"/>
			<rect x="24.2" y="10.7" class="st5" width="22.3" height="35.8"/>
			<rect x="27.6" y="13.9" class="st6" width="15.5" height="29.4"/>
			<rect x="32.5" y="22.6" class="st7" width="6" height="11.4"/>
		</g>
		<g>
			<g>
				<g>
					<g>
						<g>
							<g>
								<path class="st8" d="M212.4,96.7H152c-1.1,0-2-0.9-2-2V6.7c0-1.1,0.9-2,2-2h60.5c1.1,0,2,0.9,2,2v88.1
									C214.4,95.9,213.6,96.7,212.4,96.7z M152,4.8c-1,0-1.9,0.8-1.9,1.9v88.1c0,1,0.8,1.9,1.9,1.9h60.5c1,0,1.9-0.8,1.9-1.9V6.7
									c0-1-0.8-1.9-1.9-1.9C212.5,4.8,152,4.8,152,4.8z"/>
							</g>
						</g>
						<g>
							<g>
								<path class="st8" d="M142.7,96.7H82.3c-1.1,0-2-0.9-2-2V6.7c0-1.1,0.9-2,2-2h60.5c1.1,0,2,0.9,2,2v88.1
									C144.7,95.9,143.8,96.7,142.7,96.7z M82.3,4.8c-1,0-1.9,0.8-1.9,1.9v88.1c0,1,0.8,1.9,1.9,1.9h60.5c1,0,1.9-0.8,1.9-1.9V6.7
									c0-1-0.8-1.9-1.9-1.9C142.7,4.8,82.3,4.8,82.3,4.8z"/>
							</g>
						</g>
					</g>
					<g>
						<g>
							<g>
								<path class="st8" d="M73,96.7H12.6c-1.1,0-2-0.9-2-2V6.7c0-1.1,0.9-2,2-2H73c1.1,0,2,0.9,2,2v88.1
									C75,95.9,74.1,96.7,73,96.7z M12.6,4.8c-1,0-1.9,0.8-1.9,1.9v88.1c0,1,0.8,1.9,1.9,1.9H73c1,0,1.9-0.8,1.9-1.9V6.7
									c0-1-0.8-1.9-1.9-1.9C73,4.8,12.6,4.8,12.6,4.8z"/>
							</g>
						</g>
					</g>
				</g>
				<g>
					<g>
						<rect x="-13" y="117.2" class="st8" width="251" height="0"/>
					</g>
				</g>
			</g>
			<g>
				<rect x="205.7" y="127" class="st7" width="18.6" height="0.1"/>
				<rect x="152.7" y="128.6" class="st7" width="4.9" height="0.1"/>
				<rect x="0.6" y="122.7" class="st7" width="24.3" height="0.1"/>
				<rect x="30" y="122.7" class="st7" width="3.6" height="0.1"/>
				<rect x="45.1" y="125.1" class="st7" width="52.7" height="0.1"/>
			</g>
		</g>
		<path class="st7" d="M66.8,26.1c-0.8,1.3-1.4,2.7-1.7,4.1l-2.3,0.2v4.5l2.3,0.2c0.3,1.4,0.9,2.8,1.7,4.1L65.4,41l3.1,3.1l1.8-1.5
			c1.3,0.8,2.7,1.4,4.1,1.7l0.2,2.3H79l0.2-2.3c1.4-0.3,2.8-0.9,4.1-1.7l1.8,1.5l3.1-3.1l-1.5-1.8c0.8-1.3,1.4-2.7,1.7-4.1l2.3-0.2
			v-4.5l-2.3-0.2c-0.3-1.4-0.9-2.8-1.7-4.1l1.5-1.8l-3.1-3.1l-1.8,1.5c-1.3-0.8-2.7-1.4-4.1-1.7L79,18.6h-4.5l-0.2,2.3
			c-1.4,0.3-2.8,0.9-4.1,1.7l-1.8-1.5l-3.1,3.1L66.8,26.1z M81.1,28.4c2.3,2.4,2.3,6.2,0,8.5c-2.3,2.3-6.2,2.4-8.5,0
			c-2.4-2.4-2.4-6.2,0-8.5S78.8,26.1,81.1,28.4z"/>
		<path class="st7" d="M75.5,79.9c-0.4,0.6-0.7,1.3-0.8,2.1l-1.1,0.1v2.2l1.1,0.1c0.2,0.7,0.4,1.4,0.8,2.1l-0.7,0.9l1.6,1.6l0.9-0.7
			c0.6,0.4,1.3,0.7,2.1,0.8l0.1,1.1h2.2l0.1-1.1c0.7-0.2,1.4-0.4,2.1-0.8l0.9,0.7l1.6-1.6l-0.7-0.9c0.4-0.6,0.7-1.3,0.8-2.1l1.1-0.1
			v-2.2L86.4,82c-0.2-0.7-0.4-1.4-0.8-2.1l0.7-0.9l-1.6-1.6l-0.9,0.7c-0.6-0.4-1.3-0.7-2.1-0.8l-0.1-1.1h-2.2l-0.1,1.1
			c-0.7,0.2-1.4,0.4-2.1,0.8l-0.9-0.7L74.8,79L75.5,79.9z M82.7,81.1c1.2,1.2,1.2,3.1,0,4.3c-1.2,1.2-3.1,1.2-4.3,0
			c-1.2-1.2-1.2-3.1,0-4.3C79.6,79.9,81.5,79.9,82.7,81.1z"/>
		<path class="st7" d="M11.9,56.7c-0.7,1-1.1,2.1-1.3,3.2l-1.8,0.2v3.5l1.8,0.2c0.2,1.1,0.7,2.2,1.3,3.2l-1.2,1.4l2.5,2.5l1.4-1.2
			c1,0.7,2.1,1.1,3.2,1.3l0.2,1.8h3.5l0.2-1.8c1.1-0.2,2.2-0.7,3.2-1.3l1.4,1.2l2.5-2.5L27.7,67c0.7-1,1.1-2.1,1.3-3.2l1.8-0.2v-3.5
			L29,59.9c-0.2-1.1-0.7-2.2-1.3-3.2l1.2-1.4l-2.5-2.5L25,54c-1-0.7-2.1-1.1-3.2-1.3l-0.2-1.8h-3.5l-0.2,1.8
			c-1.1,0.2-2.2,0.7-3.2,1.3l-1.4-1.2l-2.5,2.5L11.9,56.7z M23.2,58.5c1.9,1.9,1.9,4.9,0,6.8s-4.9,1.9-6.8,0c-1.9-1.9-1.9-4.9,0-6.8
			C18.3,56.6,21.4,56.6,23.2,58.5z"/>
		<path class="st7" d="M203.5,49.5c-0.3,0.5-0.5,1-0.6,1.5l-0.8,0.1v1.6l0.8,0.1c0.1,0.5,0.3,1,0.6,1.5l-0.5,0.7l1.2,1.2l0.7-0.5
			c0.5,0.3,1,0.5,1.5,0.6l0.1,0.9h1.6l0.1-0.8c0.5-0.1,1.1-0.3,1.5-0.6l0.7,0.5l1.2-1.2l-0.5-0.7c0.3-0.5,0.5-1,0.6-1.5l0.8-0.1
			v-1.6l-0.8-0.1c-0.1-0.5-0.3-1-0.6-1.5l0.5-0.7l-1.2-1.2l-0.7,0.5c-0.5-0.3-1-0.5-1.5-0.6l-0.1-0.9h-1.6l-0.1,0.9
			c-0.5,0.1-1.1,0.3-1.5,0.6l-0.7-0.5l-1.2,1.2L203.5,49.5z M208.8,50.3c0.9,0.9,0.9,2.3,0,3.1c-0.9,0.9-2.3,0.9-3.1,0
			c-0.9-0.9-0.9-2.3,0-3.1C206.5,49.5,207.9,49.5,208.8,50.3z"/>
		<path class="st9" d="M140.6,28.8c-0.3,0.5-0.5,1-0.6,1.5l-0.8,0.1v1.6l0.8,0.1c0.1,0.5,0.3,1,0.6,1.5l-0.5,0.7l1.2,1.2l0.7-0.5
			c0.5,0.3,1,0.5,1.5,0.6l0.1,0.9h1.6l0.1-0.8c0.5-0.1,1-0.3,1.5-0.6l0.7,0.5l1.2-1.2l-0.5-0.7c0.3-0.5,0.5-1,0.6-1.5l0.8-0.1v-1.6
			l-0.9-0.1c-0.1-0.5-0.3-1.1-0.6-1.5l0.5-0.7l-1.2-1.2l-0.7,0.5c-0.5-0.3-1-0.5-1.5-0.6l-0.1-0.9h-1.6l-0.1,0.9
			c-0.5,0.1-1,0.3-1.5,0.6l-0.7-0.5l-1.2,1.2L140.6,28.8z M145.9,29.7c0.9,0.9,0.9,2.3,0,3.1c-0.9,0.9-2.3,0.9-3.1,0
			c-0.9-0.9-0.9-2.3,0-3.1C143.6,28.8,145,28.8,145.9,29.7z"/>
		<path class="st9" d="M30.2,76.2c-0.3,0.5-0.5,1-0.6,1.5l-0.9,0.1v1.6l0.9,0.1c0.1,0.5,0.3,1,0.6,1.5l-0.5,0.7l1.2,1.2l0.7-0.5
			c0.5,0.3,1,0.5,1.5,0.6l0.1,0.8h1.6l0.1-0.8c0.5-0.1,1-0.3,1.5-0.6l0.7,0.5l1.2-1.2L37.7,81c0.3-0.5,0.5-1,0.6-1.5l0.8-0.1v-1.6
			l-0.8-0.1c-0.1-0.5-0.3-1-0.6-1.5l0.5-0.7L37,74.3l-0.7,0.5c-0.5-0.3-1-0.5-1.5-0.6l-0.1-0.9h-1.6l-0.1,0.8
			c-0.5,0.1-1,0.3-1.5,0.6l-0.7-0.5l-1.2,1.2L30.2,76.2z M35.5,77c0.9,0.9,0.9,2.3,0,3.1c-0.9,0.9-2.3,0.9-3.1,0
			c-0.9-0.9-0.9-2.3,0-3.1C33.2,76.2,34.6,76.2,35.5,77z"/>
		<path class="st7" d="M179.4,56.1c-0.5,0.8-0.9,1.7-1.1,2.6l-1.5,0.1v2.8l1.5,0.1c0.2,0.9,0.5,1.8,1.1,2.6l-0.9,1.1l2,2l1.1-0.9
			c0.8,0.5,1.7,0.9,2.6,1.1l0.1,1.5h2.8l0.1-1.5c0.9-0.2,1.8-0.5,2.6-1.1l1.1,0.9l2-2l-0.9-1.1c0.5-0.8,0.9-1.7,1.1-2.6l1.5-0.1
			v-2.8l-1.5-0.1c-0.2-0.9-0.5-1.8-1.1-2.6l0.9-1.1l-2-2l-1.1,0.9c-0.8-0.5-1.7-0.9-2.6-1.1l-0.1-1.5h-2.8l-0.1,1.5
			c-0.9,0.2-1.8,0.5-2.6,1.1l-1.1-0.9l-2,2L179.4,56.1z M188.5,57.6c1.5,1.5,1.5,3.9,0,5.4c-1.5,1.5-3.9,1.5-5.4,0
			c-1.5-1.5-1.5-3.9,0-5.4C184.6,56.1,187,56.1,188.5,57.6z"/>
		<path class="st7" d="M123.1,72c-0.5,0.8-0.9,1.7-1.1,2.6l-1.5,0.1v2.8l1.5,0.1c0.2,0.9,0.5,1.8,1.1,2.6l-0.9,1.1l2,2l1.1-0.9
			c0.8,0.5,1.7,0.9,2.6,1.1l0.1,1.5h2.8l0.1-1.5c0.9-0.2,1.8-0.5,2.6-1.1l1.1,0.9l2-2l-0.9-1.1c0.5-0.8,0.9-1.7,1.1-2.6l1.5-0.1
			v-2.8l-1.5-0.1c-0.2-0.9-0.5-1.8-1.1-2.6l0.9-1.1l-2-2l-1.1,0.9c-0.8-0.5-1.7-0.9-2.6-1.1l-0.1-1.5h-2.8l-0.1,1.5
			c-0.9,0.2-1.8,0.5-2.6,1.1l-1.1-0.9l-2,2L123.1,72z M132.2,73.5c1.5,1.5,1.5,3.9,0,5.5c-1.5,1.5-3.9,1.5-5.5,0
			c-1.5-1.5-1.5-3.9,0-5.5S130.7,72,132.2,73.5z"/>
		<path class="st7" d="M131.5,98.9c-0.9,1.4-1.5,2.9-1.8,4.4l-2.5,0.2v4.8l2.5,0.2c0.3,1.5,0.9,3,1.8,4.4l-1.6,1.9l3.4,3.4l1.9-1.6
			c1.4,0.9,2.9,1.5,4.4,1.8l0.2,2.5h4.8l0.2-2.5c1.5-0.3,3-0.9,4.4-1.8l1.9,1.6l3.4-3.4L153,113c0.9-1.4,1.5-2.9,1.8-4.4l2.5-0.2
			v-4.8l-2.5-0.2c-0.3-1.5-0.9-3-1.8-4.4l1.6-1.9l-3.3-3.4l-1.9,1.6c-1.4-0.9-2.9-1.5-4.4-1.8l-0.2-2.5h-4.8l-0.2,2.5
			c-1.5,0.3-3,0.9-4.4,1.8l-1.9-1.6l-3.4,3.4L131.5,98.9z M146.8,101.4c2.5,2.5,2.5,6.7,0,9.2c-2.5,2.5-6.7,2.5-9.2,0
			c-2.5-2.5-2.5-6.7,0-9.2C140.2,98.9,144.3,98.9,146.8,101.4z"/>
	</g>
	<g id="Shadow">
		<g>
			<g>
				<path class="st9" d="M221.4,138.9c0,1.1-47.3,2-105.6,2s-105.6-0.9-105.6-2c0-1.1,47.3-2,105.6-2S221.4,137.8,221.4,138.9z"/>
			</g>
		</g>
	</g>
	<g id="Plant">
		<g>
			<g>
				<g>
					<path class="st10" d="M26.2,80.6c-6.1,7.1-7.9,17.7-4.5,26.4c3.8-3.4,6.5-8.6,6.7-13.1C28.5,89.4,27.4,85,26.2,80.6z"/>
				</g>
				<g>
					<path class="st10" d="M25.1,107.9c-2.1,3.2-3.1,7-2.8,10.8c3.3-1.1,6.2-4.9,8-7.9c1.7-3,2.7-6.4,3.6-9.8
						C30.4,102.3,27.2,104.7,25.1,107.9z"/>
				</g>
				<g>
					<g>
						<path class="st11" d="M24.4,93.1c-2.4,8.8-3.7,17.9-3.7,27.1c0,2.6,0.1,5.2,0.3,7.8c0,0.2,0.3,0.2,0.3,0
							c-0.7-9.1-0.2-18.3,1.6-27.3c0.5-2.5,1.1-5,1.8-7.5C24.7,93,24.4,92.9,24.4,93.1L24.4,93.1z"/>
					</g>
				</g>
				<g>
					<g>
						<path class="st11" d="M21.1,121.7c2.5-6,5.8-11.5,9.6-16.8c0.1-0.1-0.1-0.3-0.2-0.1c-3,4.1-5.7,8.4-7.9,12.9
							c-0.6,1.3-1.2,2.6-1.7,3.9C20.7,121.8,21,121.8,21.1,121.7L21.1,121.7z"/>
					</g>
				</g>
				<g>
					<path class="st10" d="M17.5,112.8c1.7,2.6,2.5,5.9,2.3,9c-2.7-1-5.2-4-6.6-6.6s-2.3-5.4-3-8.2
						C13.2,108.1,15.8,110.2,17.5,112.8z"/>
				</g>
				<g>
					<g>
						<path class="st11" d="M21,123.9c-2-4.9-4.8-9.4-7.9-13.7c-0.1-0.1-0.3,0-0.2,0.1c3.1,4.2,5.8,8.8,7.9,13.7
							C20.8,124.1,21.1,124.1,21,123.9L21,123.9z"/>
					</g>
				</g>
				<g>
					<g>
						<path class="st11" d="M21.1,125.6c3.9-4,7.8-7.9,11.7-11.9c0.1-0.1-0.1-0.3-0.2-0.2c-3.9,4-7.8,7.9-11.7,11.9
							C20.8,125.5,21,125.7,21.1,125.6L21.1,125.6z"/>
					</g>
				</g>
				<g>
					<path class="st10" d="M33,111.8c-3.4,3.2-6.4,6.8-9.1,10.6h0.6c2.6-0.1,5.1-1.4,6.7-3.4C32.7,117,33.4,114.4,33,111.8z"/>
				</g>
				<g>
					<g>
						<g>
							<path class="st11" d="M17,104.1c1.4,2.4,2.8,4.8,4.1,7.2c0.1,0.1,0.3,0,0.2-0.1c-1.3-2.5-2.6-4.9-4.1-7.2
								C17.1,103.8,16.9,104,17,104.1L17,104.1z"/>
						</g>
					</g>
					<g>
						<path class="st10" d="M13.5,92.1c-0.6,2.5-1.1,5.7-1.1,8.3c0,2.6,0.8,5.1,2.2,6.8c1.5,1.7,4.4,2.5,5.6,1.5L13.5,92.1z"/>
					</g>
				</g>
			</g>
			<rect x="13.5" y="126.7" class="st11" width="14.7" height="2.7"/>
			<polygon class="st11" points="25.8,139.2 16.6,139.2 15,128.8 27.1,128.8 			"/>
			<polygon class="st12" points="15.1,129.5 27,129.5 26.8,130.7 15.3,130.7 			"/>
		</g>
	</g>
	<g id="Speech_Bubble_2">
		<g>
			<g>
				<g>
					<path class="st10" d="M199.6,67.8c3.7-2.1,8.5-0.8,10.6,2.9c2.1,3.7,0.8,8.5-2.9,10.6c-2.9,1.6-6.4,1.2-8.8-0.7l-2.3,0.4
						l0.5-2.4c0,0,0-0.1-0.1-0.1C194.5,74.6,195.9,69.9,199.6,67.8z"/>
				</g>
				<path class="st13" d="M200.9,66.1c-2.5,0.5-4.7,2.3-5.6,4.6"/>
				<path class="st13" d="M195,71.8c-0.2,0.3-0.3,0.7-0.3,1.1"/>
			</g>
			<g>
				<polygon class="st6" points="202.5,77.5 199.2,74.5 200.3,73.3 202.4,75.3 206.1,71.8 207.2,72.9 				"/>
			</g>
		</g>
	</g>
	<g id="Speech_Bubble_1">
		<g>
			<g>
				<g>
					<g>
						<path class="st10" d="M119.7,18.3c3.9-2.3,8.9-0.9,11.2,2.9s0.9,8.9-3,11.2c-3,1.7-6.7,1.3-9.2-0.7l-2.4,0.4l0.6-2.5
							c0,0,0-0.1-0.1-0.1C114.5,25.6,115.8,20.6,119.7,18.3z"/>
					</g>
					<path class="st13" d="M130.9,19.4c-1.6-2.1-4.3-3.4-7-3.2"/>
					<path class="st13" d="M122.7,16.3c-0.4,0-0.8,0.1-1.2,0.2"/>
				</g>
			</g>
			<g>
				<rect x="119.7" y="24.2" class="st6" width="7.6" height="1.9"/>
				<polygon class="st6" points="126.7,27.1 126.7,23.3 128.6,25.2 				"/>
			</g>
		</g>
	</g>
	<g id="Character_3">
		<g>
			<g>
				<path class="st14" d="M169.8,66.9c0,0-0.2,3.5-1.9,9.6c-1.1,3.8-2.4,7.5-3.9,11.2c-0.8,2-1.8,4.2-2.9,6.5c-0.5,1-1,2.1-1.6,3.2
					c-0.7,18.6-11.1,37.5-11.1,37.5c-0.6,0.3-2.6,0-2.6-0.6c1.5-2.4,4.6-26.3,6.6-37.6c0.1-1.5,0.3-3.2,0.5-4.9
					c0.6-4.6,1.4-9.5,2.3-13.9c1.3-6.9,2.5-12.2,2.5-12.2l3.4,0.3L169.8,66.9z"/>
				<path class="st11" d="M148.1,138.9h-0.6l-0.2-0.7l-2,0.9h-5c0,0-0.8-0.8,1.6-1.4c0.1,0,0.2-0.1,0.3-0.1c1.3-0.6,3.1-2.6,3.1-2.6
					h2.7c0.1,0.1,0.2,0.3,0.2,0.4C148.7,135.8,149.2,137.2,148.1,138.9z"/>
				<path class="st14" d="M148.4,135.2L148.4,135.2c-0.4-0.4-2,1.4-3.2,2c-1.1,0.5-2.3,0.8-2.8,0.2c1.3-0.6,3.5-3.4,3.5-3.4l1.9,0.2
					C147.8,134.2,148.3,135,148.4,135.2z"/>
			</g>
			<g>
				<path class="st14" d="M173.8,92.6L173.8,92.6c-0.3,2-0.6,4.1-1.1,6.4c3.7,12.4-3.9,36.7-3.9,36.7c-1.3,0.3-2.4,0.1-3-0.3
					c1.4-7.3,0.4-26.3-0.7-37.7c-0.1-1-0.2-2.2-0.4-3.4c-0.2-2-0.5-4.3-0.8-6.7c-0.5-3.9-1-8-1.5-11.7c-0.6-4.4-1.1-8.1-1.4-10
					c-0.1-0.8-0.2-1.3-0.2-1.3l10.8,1.2c0,0,2.7,3.1,3.2,12.6C174.8,83.2,174.5,87.9,173.8,92.6z"/>
				<path class="st11" d="M169.1,138.9h-0.6l-0.2-0.7l-2,0.9h-5c0,0-0.8-0.8,1.6-1.4c0.1,0,0.2-0.1,0.3-0.1c1.3-0.6,3.1-2.6,3.1-2.6
					h2.7c0.1,0.1,0.2,0.3,0.2,0.4C169.7,135.8,170.2,137.2,169.1,138.9z"/>
				<path class="st14" d="M169.4,135.2L169.4,135.2c-0.4-0.4-2,1.4-3.2,2c-1.1,0.5-2.3,0.8-2.8,0.2c1.3-0.6,3.3-3.2,3.3-3.2h2.2
					C168.7,134.2,169.2,135,169.4,135.2z"/>
			</g>
			<g>
				<g>
					<path class="st11" d="M176.7,39.8c-0.6-0.5-1.4-0.3-2.2-0.4c-1.2-0.1-2.1-1-2.6-1.9c-0.5-0.9-0.6-2-0.8-3c-0.2-1-0.4-2.1-1-3
						c-0.6-0.9-2.2-2-3.3-1.3l-1.5,2.3c0.9,2.7,1.6,5.4,2.2,8.2c0.2,1.2,0.5,2.5,1.4,3.5c0.9,0.9,2.3,1.4,3.6,1.5c0.7,0,1.4,0,2-0.3
						c0.6-0.3,1.2-0.7,1.3-1.4c0.1-0.6-0.2-1.3-0.8-1.5c0.6-0.3,1.3-0.5,1.7-1C177.1,41.1,177.1,40.3,176.7,39.8z"/>
				</g>
				<g>
					<path class="st11" d="M155.4,28.4c-1.7,1.6-1.9,3.6-1.6,4.9c0.6,1.8,1.4,2.9,2.2,4.6l2.9-11.5
						C157.8,26.9,157.3,26.8,155.4,28.4z"/>
					<path class="st11" d="M160.5,26.4c3.3,0.1,6.6,2.8,6.9,5.5s-2.4,6.2-2.9,6.4l-1.6,0.6c0,0,1.7-4,1-5.1
						c-0.7-1.1-1.2-1.1-1.2-1.1L160.5,26.4z"/>
					<path class="st11" d="M157.7,27c1.7-1.2,3.7-0.5,5,0c1.4,0.8,2.3,2.1,2.6,3.6c0.3,1.4,0.6,3.2-0.2,4.1c-0.4,0.5-1,0.9-1.7,0.9
						l-8.3-5.3C155.7,29.1,156.6,27.9,157.7,27z"/>
					<g>
						<path class="st14" d="M161.1,46.6c0.7,0.5,1.1,0.2,1.8-0.2c4.1-2.4,2.4-4.2,2.4-4.2c-1-0.8-1.2-2-1.3-3.8c0-0.1,0-0.1,0-0.2
							c0-0.2-0.2-0.5-0.3-0.6c-0.5-0.5-1.2-0.5-1.7,0l0,0l-1.8,0.9l0,0c0,0,0,0.1,0,0.1c0.2,1,0.3,1.7,0.4,2.3c0,0.1,0,0.1,0,0.2
							l0,0c0,0.1,0,0.1,0,0.2c0.1,0.8-1.1,2.3-1.6,2.6C158.7,44.2,158.9,45,161.1,46.6z"/>
						<path class="st12" d="M160.1,38.4L160.1,38.4c0,0,0,0.1,0,0.1c0.2,1,0.3,1.7,0.4,2.3c0,0.1,0,0.1,0,0.2l0,0c0,0.1,0,0.2,0,0.2
							l0,0c1.4-0.7,2.6-1.8,3.3-3.1l0,0c0-0.2-0.2-0.4-0.3-0.6c-0.5-0.5-1.2-0.5-1.7,0L160.1,38.4z"/>
						<path class="st14" d="M164.3,31.3c0.5,3.3,0.8,4.8-0.4,6.9c-1.9,3.1-6,3.1-7.5,0c-1.3-2.8-2-7.8,0.9-9.9
							C160,26.2,163.7,28,164.3,31.3z"/>
						<path class="st14" d="M166.3,33.9c-0.2,0.8-0.7,1.4-1.3,1.7c-0.8,0.5-1.6-0.8-1.6-1.8c0.1-0.9,0.8-1.6,1.7-1.7
							C166,32.1,166.5,33,166.3,33.9z"/>
						<path class="st15" d="M164.4,34.2c-0.1-0.3,0-0.7,0.2-0.9c0.2-0.3,0.5-0.5,0.8-0.5"/>
						<g>
							<g>
								<path class="st11" d="M160.2,33.5c0.1,0.4,0,0.7-0.2,0.7c-0.2,0.1-0.5-0.2-0.5-0.5c-0.1-0.4,0-0.7,0.2-0.7
									C159.8,33,160.1,33.2,160.2,33.5z"/>
								<path class="st11" d="M156.9,34.4c0.1,0.3,0,0.7-0.3,0.7c-0.2,0.1-0.5-0.2-0.5-0.5c-0.1-0.3,0-0.7,0.3-0.7
									C156.6,33.8,156.8,34.1,156.9,34.4z"/>
								<path class="st11" d="M160.6,32.1c0,0-0.1,0-0.1,0c-0.6-0.3-1.2,0-1.2,0c-0.1,0-0.2,0-0.2-0.1c0-0.1,0-0.2,0.1-0.2
									c0,0,0.7-0.4,1.5,0C160.6,31.9,160.7,32,160.6,32.1C160.6,32.1,160.6,32.1,160.6,32.1z"/>
								<path class="st11" d="M155.4,33.1c0,0-0.1,0-0.1,0c0-0.1,0-0.2,0-0.2c0.6-0.6,1.3-0.5,1.3-0.4c0.1,0,0.1,0.1,0.1,0.2
									s-0.1,0.1-0.2,0.1c0,0-0.5-0.1-1,0.4C155.5,33,155.4,33.1,155.4,33.1z"/>
								<path class="st16" d="M157.8,34c0,0-0.2,1.4-0.6,2.3c-0.1,0.2,0,0.3,0.2,0.4c0.4,0,0.9-0.2,0.9-0.2L157.8,34z"/>
							</g>
							<path class="st11" d="M159.8,33l-0.8,0C159,33,159.5,33.5,159.8,33z"/>
							<path class="st11" d="M156.5,33.9l-0.8,0C155.7,33.9,156.2,34.4,156.5,33.9z"/>
						</g>
					</g>
					<path class="st11" d="M163.3,32.3c0,0-2.3-1.8-2.7-3.7c0,0-7.1-0.3-5.4,5.5c0,0-2.4-4.8,3-6.7c5.4-1.8,7.9,5.2,5.8,8.2
						C164,35.7,164.7,33.5,163.3,32.3z"/>
					<path class="st11" d="M155.8,28.7c-0.6,0.8-0.9,1.8-0.9,2.9c0.1,0.7,1.2,1.1,1.2,1.1l0.9-1.8l0.3,1.4c1.9-0.6,2.9-1.8,3.3-3.5
						L159,27C159.1,27,156.3,28,155.8,28.7z"/>
				</g>
				<path class="st17" d="M159.7,37c0.2,0,0.5,0,0.6-0.2c0.2-0.2,0.2-0.4,0.2-0.6"/>
				<path class="st12" d="M166.3,36c0,0,2.5-3.1,0.5-5.8c0,0,1.4,1,1.2,2.7C167.8,34.3,167.2,35.4,166.3,36z"/>
			</g>
			<path class="st12" d="M173.8,92.6L173.8,92.6c-2.9,1-6,1.6-9.1,1.7c-0.2-2-0.5-4.3-0.8-6.7c-0.8,2-1.8,4.2-2.9,6.5
				c-2.9-0.3-5.7-1.1-8.2-2.4c0.6-4.6,1.4-9.5,2.3-13.9c1.1-0.7,2.4-1.2,3.6-1.5c1.2-0.3,2.5-0.4,3.7-0.5c1.8,0,3.6,0.2,5.5,0.5
				c2.3,0.4,4.6,1.1,6.8,2C174.8,83.2,174.5,87.9,173.8,92.6z"/>
			<path class="st11" d="M157.3,64.7h14.3l0.4,1.8c0,0,5.3,7.3,2.6,25.4c0,0-11.5,1.3-22.3-1c0,0,2.4-18.6,5-24.7L157.3,64.7z"/>
			<g>
				<path class="st10" d="M170.9,59.1l1,7.6l-15.7-0.6c0-1.6,1.4-6,1.2-7.2c-0.5-1.5-2.9-3.7-3.5-5.4c-0.7-2.4,0.7-9.2,1.2-9.4
					c0.6-0.3,1.2-0.2,1.7-0.4c1.7-0.4,5.5-1.7,7.1-1.9c0.3,0,0.7-0.1,1-0.1c0,0,6.4-0.3,6.7,2.3C171.7,44,170.1,50.9,170.9,59.1z"/>
				<polygon class="st12" points="170.8,57.5 170.6,55.4 168.2,48.9 170.1,56.5 164.2,58.6 				"/>
				<path class="st12" d="M163.9,64.3c0.2,0,2.1-2,2.1-2l5.3,0.2l-0.3-1.9c0.2-0.1-6.2,0.2-6.2,0.2l-0.9,2V64.3z"/>
				<path class="st10" d="M169.2,42.2c0.3,0,1.4-0.6,3.4,2c2,2.6,4.2,12.4,4.4,13.9c0.2,1.8-1.1,2.7-2.3,2.9
					c-3.6,0.6-10.3,0.7-10.3,0.7v-3.1l6.7-1.5c0,0-3.8-9.1-3.2-11.5C168.5,43.2,169.2,42.2,169.2,42.2z"/>
			</g>
			<path class="st14" d="M166.2,41.6c-0.5,2.6-2.4,4.7-5.1,5.4c-0.9,0.2-1.9-0.3-2.6-0.9c-0.7-0.6-1.2-1.5-1.4-2.4
				C160.3,42.4,163.2,41.4,166.2,41.6z"/>
			<path class="st12" d="M171.1,57c0,0,1.1-0.1,1.5,0.5c0,0-0.3-1.1-1.7-0.9L171.1,57z"/>
		</g>
		<g>
			<g>
				<path class="st10" d="M162.2,76.9V42.4h-34.4v13.8c0.6,0.2,2.7,0.4,3.3,0.2c1.1-0.4,0.4-1.6,1.4-2.1c1.5-0.7,3.5,0.3,4.3,1.8
					c0.6,1.2,0.7,1.8,0.7,2.8c0.1,1-0.1,1.6-0.7,2.8c-0.8,1.5-2.7,2.5-4.3,1.8c-1-0.5-0.2-1.7-1.3-2.1c-0.6-0.2-2.8-0.1-3.4,0.1
					v15.5h15.4c0,0.3,0,0.7-0.1,1c-0.4,1.1-1.6,1.7-2,2.8c-0.7,1.5,0.3,3.5,1.8,4.3c1.2,0.6,1.8,0.7,2.8,0.7c1,0.1,1.6-0.1,2.8-0.7
					c1.5-0.8,2.5-2.7,1.8-4.3c-0.5-1-1.6-1.7-2-2.8c-0.1-0.3-0.2-0.7-0.1-1H162.2L162.2,76.9z"/>
			</g>
			<g>
				<g>
					<path class="st10" d="M163.9,76.9V42.4h-34.4v13.8c0.6,0.2,1.3,0.3,1.9,0.1c1.1-0.4,1.7-1.6,2.8-2c1.5-0.7,3.5,0.3,4.3,1.8
						c0.6,1.2,0.7,1.8,0.7,2.8c0.1,1-0.1,1.6-0.7,2.8c-0.8,1.5-2.7,2.5-4.3,1.8c-1-0.5-1.7-1.6-2.8-2c-0.6-0.2-1.3-0.2-1.9,0.1v15.5
						h15.4c0,0.3,0,0.7-0.1,1c-0.4,1.1-1.6,1.7-2,2.8c-0.7,1.5,0.3,3.5,1.8,4.3c1.2,0.6,1.8,0.7,2.8,0.7c1,0.1,1.6-0.1,2.8-0.7
						c1.5-0.8,2.5-2.7,1.8-4.3c-0.5-1-1.6-1.7-2-2.8c-0.1-0.3-0.2-0.7-0.1-1H163.9L163.9,76.9z"/>
				</g>
				<g class="st18">
					<path class="st6" d="M163.9,76.9V42.4h-34.4v13.8c0.6,0.2,1.3,0.3,1.9,0.1c1.1-0.4,1.7-1.6,2.8-2c1.5-0.7,3.5,0.3,4.3,1.8
						c0.6,1.2,0.7,1.8,0.7,2.8c0.1,1-0.1,1.6-0.7,2.8c-0.8,1.5-2.7,2.5-4.3,1.8c-1-0.5-1.7-1.6-2.8-2c-0.6-0.2-1.3-0.2-1.9,0.1v15.5
						h15.4c0,0.3,0,0.7-0.1,1c-0.4,1.1-1.6,1.7-2,2.8c-0.7,1.5,0.3,3.5,1.8,4.3c1.2,0.6,1.8,0.7,2.8,0.7c1,0.1,1.6-0.1,2.8-0.7
						c1.5-0.8,2.5-2.7,1.8-4.3c-0.5-1-1.6-1.7-2-2.8c-0.1-0.3-0.2-0.7-0.1-1H163.9L163.9,76.9z"/>
				</g>
				<g>
					<g>
						<g>
							<path class="st14" d="M163.9,59.2c0,0-2.3,0.6-2.6,1.1c-0.3,0.5,0.6,0.5,0.6,0.5s-0.9,0.1-0.9,0.5c0,0.5,0.9,0.4,0.9,0.4
								s-0.8,0.1-0.7,0.5c0,0.4,1,0.4,1,0.4s-0.5,0.2-0.4,0.4c0.2,0.2,2.3,0.3,2.9-0.1c0.6-0.4,0.6-3.2,0.5-3.8
								c-0.1-0.6-0.6-0.9-1.3-1.8L163.9,59.2L163.9,59.2z"/>
						</g>
						<g>
							<path class="st12" d="M162,60.9L162,60.9l1.6-0.3c0,0,0,0,0,0c0,0,0,0,0,0L162,60.9C162,60.8,162,60.8,162,60.9
								C162,60.8,162,60.9,162,60.9z"/>
						</g>
						<g>
							<path class="st12" d="M162,61.8L162,61.8l1.6-0.1c0,0,0,0,0,0c0,0,0,0,0,0L162,61.8C161.9,61.7,161.9,61.8,162,61.8
								C161.9,61.8,162,61.8,162,61.8z"/>
						</g>
						<g>
							<path class="st12" d="M162.3,62.7l1.2-0.1c0,0,0,0,0,0c0,0,0,0,0,0L162.3,62.7C162.2,62.6,162.2,62.6,162.3,62.7
								C162.2,62.6,162.2,62.7,162.3,62.7z"/>
						</g>
					</g>
				</g>
			</g>
			<g>
				<g>
					<g>
						<path class="st14" d="M137.5,58.3c0,0,2.5,0.7,2.7,1.2c0.3,0.5-0.6,0.5-0.6,0.5s0.9,0.1,0.9,0.5c0,0.5-0.9,0.4-0.9,0.4
							s0.8,0.1,0.7,0.5c0,0.4-1,0.4-1,0.4s0.5,0.2,0.4,0.4c-0.2,0.2-2.3,0.3-2.9-0.1c-0.6-0.4-0.6-3.2-0.5-3.8
							c0.1-0.6,0.2-0.5,0.9-1.4l0.1,0.5c0,0.1,0.1,0.3,0.1,0.4L137.5,58.3z"/>
					</g>
					<g>
						<path class="st12" d="M139.6,60.1L139.6,60.1l-1.6-0.3c0,0,0,0,0,0c0,0,0,0,0,0L139.6,60.1C139.7,60,139.7,60,139.6,60.1
							C139.7,60,139.7,60.1,139.6,60.1z"/>
					</g>
					<g>
						<path class="st12" d="M139.6,61L139.6,61l-1.6-0.1c0,0,0,0,0,0c0,0,0,0,0,0L139.6,61C139.7,60.9,139.7,61,139.6,61
							C139.7,61,139.7,61,139.6,61z"/>
					</g>
					<g>
						<path class="st12" d="M139.4,61.9l-1.2-0.1c0,0,0,0,0,0c0,0,0,0,0,0L139.4,61.9C139.4,61.8,139.4,61.8,139.4,61.9
							C139.4,61.8,139.4,61.9,139.4,61.9z"/>
					</g>
				</g>
			</g>
		</g>
	</g>
	<g id="Character_2">
		<g>
			<g>
				<polygon class="st14" points="86.8,135 90.2,135.4 92.7,126.7 87.5,126.1 				"/>
				<g>
					<path class="st11" d="M90.7,133.8h-1.2c-0.3,0-0.5,0.1-0.7,0.4c-0.7,1-1.2,0.6-2-0.3c-0.5-0.1-0.6,0.5-0.7,0.7l-0.9,3.3
						c-0.1,0.3,0.1,0.6,0.4,0.6c0,0,0.1,0,0.2,0c1.5,0,2.2,0,4,0h5.7c1.5,0,1.8-1.5,1.2-1.7c-2.8-0.6-4.9-1.5-5.8-2.3
						C90.7,134.4,90.9,134.3,90.7,133.8z"/>
					<path class="st10" d="M93.4,134.8c0.1-0.1,0.2-0.2,0.2-0.4c0-0.1,0-0.2-0.1-0.2c-0.4-0.3-1.9,0.4-2.1,0.5c0,0,0,0,0,0
						c0,0,0,0.1,0,0.1c0.4,0.1,0.8,0.1,1.1,0.1C92.8,135,93.1,134.9,93.4,134.8z M93.4,134.3c0,0,0,0.1,0,0.1c0,0.1-0.1,0.2-0.2,0.3
						c-0.3,0.3-1.2,0.1-1.6,0.1C92.3,134.5,93.2,134.1,93.4,134.3z"/>
					<path class="st10" d="M91.4,134.8c0.5-0.2,1.4-0.9,1.4-1.3c0-0.1-0.1-0.2-0.3-0.2c-0.8-0.1-1.2,1.4-1.2,1.5
						C91.3,134.8,91.3,134.8,91.4,134.8L91.4,134.8L91.4,134.8z M92.5,133.4c0.2,0,0.2,0.1,0.2,0.1c0,0.2-0.7,0.9-1.1,1.1
						C91.6,134.3,91.9,133.4,92.5,133.4L92.5,133.4z"/>
					<path class="st13" d="M91.6,134.8c-0.4,0.1-0.8,0.3-1,0.7"/>
					<path class="st13" d="M92.3,135.4c-0.4,0.1-0.8,0.3-1,0.7"/>
					<path class="st13" d="M93.3,135.8c-0.4,0.1-0.8,0.3-1,0.7"/>
				</g>
				<polygon class="st19" points="91.4,131.3 91.1,132.3 87.1,131.7 87.1,130.9 				"/>
			</g>
			<g>
				<polygon class="st14" points="106.7,135 110.1,135.4 112.6,126.7 107.4,126.1 				"/>
				<g>
					<path class="st11" d="M110.6,133.8h-1.2c-0.3,0-0.5,0.1-0.7,0.4c-0.7,1-1.2,0.6-2-0.3c-0.5-0.1-0.6,0.5-0.7,0.7l-0.9,3.3
						c-0.1,0.3,0.1,0.6,0.4,0.6c0,0,0.1,0,0.2,0c1.5,0,2.2,0,4,0h5.7c1.5,0,1.8-1.5,1.2-1.7c-2.8-0.6-4.9-1.5-5.8-2.3
						C110.6,134.4,110.8,134.3,110.6,133.8z"/>
					<path class="st10" d="M113.2,134.8c0.1-0.1,0.2-0.2,0.2-0.4c0-0.1,0-0.2-0.1-0.2c-0.4-0.3-1.9,0.4-2.1,0.5c0,0,0,0,0,0
						c0,0,0,0.1,0,0.1c0.4,0.1,0.8,0.1,1.1,0.1C112.7,135,113,134.9,113.2,134.8z M113.3,134.3c0,0,0,0.1,0,0.1
						c0,0.1-0.1,0.2-0.2,0.3c-0.3,0.3-1.2,0.1-1.6,0.1C112.1,134.5,113,134.1,113.3,134.3z"/>
					<path class="st10" d="M111.3,134.8c0.5-0.2,1.4-0.9,1.4-1.3c0-0.1-0.1-0.2-0.3-0.2c-0.8-0.1-1.2,1.4-1.2,1.5
						C111.2,134.8,111.2,134.8,111.3,134.8L111.3,134.8L111.3,134.8z M112.4,133.4c0.2,0,0.2,0.1,0.2,0.1c0,0.2-0.7,0.9-1.1,1.1
						C111.5,134.3,111.8,133.4,112.4,133.4L112.4,133.4z"/>
					<path class="st13" d="M111.5,134.8c-0.4,0.1-0.8,0.3-1,0.7"/>
					<path class="st13" d="M112.2,135.4c-0.4,0.1-0.8,0.3-1,0.7"/>
					<path class="st13" d="M113.1,135.8c-0.4,0.1-0.8,0.3-1,0.7"/>
				</g>
				<polygon class="st19" points="111.3,131.3 111,132.3 107,131.7 107,130.9 				"/>
			</g>
			<g>
				<g>
					<g>
						<g>
							<g>
								<path class="st10" d="M114,69.8c0,0,2.8,12.5,4.2,23.4c0.4,3.3,0.5,7.8-0.2,11l-5.5,27.1l-6.9-0.7c1.1-11.7,2.6-26.1,3-32.3
									c-1.5-7.2-4.7-15.9-7.9-24.6L114,69.8z"/>
							</g>
						</g>
					</g>
					<g>
						<g>
							<g>
								<path class="st11" d="M114,69.8c0,0,2.8,12.5,4.2,23.4c0.4,3.3,0.5,7.8-0.2,11l-5.5,27.1l-6.9-0.7c1.1-11.7,2.6-26.1,3-32.3
									c-1.5-7.2-4.7-15.9-7.9-24.6L114,69.8z"/>
							</g>
						</g>
					</g>
					<path class="st10" d="M91.4,100.6c0.2-0.7,0.4-2,0.7-3.8h0c0.2-2.4,0.6-13.5,1.4-20.6c0.6-4.5,1.7-7.6,2.9-9.1
						c0.1-0.1,0.1-0.1,0.2-0.2c0.2-0.2,0.3-0.4,0.3-0.4c0.2,0.1,0.4,0.1,0.7,0.2c0.1,0,0.2,0,0.2,0.1c8.2,1.7,15.4-0.4,15.4-0.4
						c0.8,1.9,1.3,5.9,1.9,10c-0.9,0.9-4.6,2.2-9,3l-1.2,5.6c-0.6,3.4-1.5,6.9-2.2,9.9l-0.7,3.3c0,0.2-0.1,0.4-0.1,0.6
						c-0.4,1.9-9.3,32.9-9.3,32.9l-5.8-0.3C86.7,131.2,89.3,109.8,91.4,100.6z"/>
					<path class="st11" d="M91.4,100.6c0.2-0.7,0.4-2,0.7-3.8h0c0.2-2.4,0.6-13.5,1.4-20.6c0.6-4.5,1.7-7.6,2.9-9.1
						c0.1-0.1,0.1-0.1,0.2-0.2c0.2-0.2,0.3-0.4,0.3-0.4c0.2,0.1,0.4,0.1,0.7,0.2c0.1,0,0.2,0,0.2,0.1c8.2,1.7,15.4-0.4,15.4-0.4
						c0.8,1.9,1.3,5.9,1.9,10c-0.9,0.9-4.6,2.2-9,3l-1.2,5.6c-0.6,3.4-1.5,6.9-2.2,9.9l-0.7,3.3c0,0.2-0.1,0.4-0.1,0.6
						c-0.4,1.9-9.3,32.9-9.3,32.9l-5.8-0.3C86.7,131.2,89.3,109.8,91.4,100.6z"/>
				</g>
				<path class="st12" d="M104.8,85.3c0,0.1,2.7-9.6,2.7-9.6s2.3,8.7-1.2,14.2L104.8,85.3z"/>
			</g>
			<g>
				<path class="st14" d="M99,41.2c0,0,1.4,1,3.1,2.6c0.4,0.3,0.8,0.6,1.2,0.8c1.1,0.6,2.2,1,2.5,0.4c0.1-0.1,0.1-0.3,0.1-0.4
					c0.2-0.9,0.1-2.2-0.6-2.8c-0.8-0.7-1.3-1.2-1.1-2.2c0.1-0.5,0.3-1,0.5-1.6l-0.7-0.8l-3.5-3.5C100.7,36.1,100.9,39.9,99,41.2z"/>
				<path class="st12" d="M104.3,39.8c-1-0.6-2-1.6-1.9-2.7c0.1-0.5,0.2-0.9,0.3-1.2l1.9,2.6C104.4,38.9,104.4,39.2,104.3,39.8z"/>
				<path class="st14" d="M99.6,30c0.3,3.6,0.4,5.1,2.2,7c2.8,2.8,7.1,1.9,7.8-1.7c0.7-3.2,0-8.5-3.5-10
					C102.7,23.8,99.3,26.4,99.6,30z"/>
				<path class="st11" d="M104.1,31.1c0,0.3,0.2,0.6,0.5,0.6c0.2,0,0.4-0.3,0.4-0.6c0-0.3-0.2-0.6-0.5-0.6
					C104.2,30.5,104.1,30.8,104.1,31.1z"/>
				<path class="st11" d="M107.8,31c0,0.3,0.2,0.6,0.5,0.6c0.2,0,0.4-0.3,0.4-0.6c0-0.3-0.2-0.6-0.5-0.6
					C107.9,30.4,107.8,30.7,107.8,31z"/>
				<path class="st11" d="M103.5,29.8c0,0,0.1,0,0.1,0c0.5-0.5,1.2-0.3,1.2-0.3c0.1,0,0.2,0,0.2-0.1s0-0.2-0.1-0.2
					c0,0-0.8-0.2-1.5,0.4c-0.1,0.1-0.1,0.2,0,0.3C103.4,29.8,103.5,29.8,103.5,29.8z"/>
				<path class="st11" d="M109,29.6c0,0,0.1,0,0.1,0c0.1-0.1,0.1-0.2,0-0.2c-0.5-0.8-1.3-0.9-1.4-0.9c-0.1,0-0.2,0.1-0.2,0.2
					c0,0.1,0.1,0.2,0.2,0.2c0,0,0.6,0.1,1.1,0.7C108.9,29.6,108.9,29.6,109,29.6z"/>
				<path class="st11" d="M101.2,32.2c0,0,1.1-1.7,0.6-4.9c-0.1-0.5,0.3-1.1,0.8-1.2c1.5-0.3,3.6-2.2,6.2,1.6c0,0-1.2-4.7-8.3-2.8
					c-6.3,1.7-2,7-1.3,7.5C99.8,33.1,101.2,32.2,101.2,32.2z"/>
				<path class="st14" d="M98.5,32.9c0.4,0.7,1.1,1.2,1.7,1.4c0.9,0.2,1.4-1.3,1.1-2.2c-0.3-0.9-1.2-1.4-2.1-1.2
					C98.3,30.9,98,32.1,98.5,32.9z"/>
				<g>
					<path class="st11" d="M106.9,34.6c-0.3,0.4-0.6,1.3-0.6,1.3c-0.1,0-0.2,0-0.3-0.1c-1.1-0.3-1.6-0.8-1.7-1.2
						c-0.1-0.3-0.1-0.5,0-0.7c0-0.2,0.1-0.4,0.1-0.4c0.5,0.5,1.6,0.8,2.1,1C106.7,34.5,106.9,34.6,106.9,34.6z"/>
					<path class="st6" d="M106.5,34.5l-0.2,0.4c-1.1-0.3-1.8-0.6-2-1c0-0.2,0.1-0.4,0.1-0.4C104.9,34,105.9,34.3,106.5,34.5z"/>
					<path class="st20" d="M106,35.8c-1.1-0.3-1.6-0.8-1.7-1.2c0.4,0.1,0.8,0.3,1.2,0.5C105.8,35.3,105.9,35.6,106,35.8z"/>
				</g>
				<path class="st16" d="M106.8,30.9c0,0,0.6,1.3,1.2,2.2c0.1,0.1,0,0.4-0.1,0.4c-0.4,0.2-1,0-1,0L106.8,30.9z"/>
				<path class="st11" d="M104.4,30.5l0.8-0.2C105.2,30.3,104.8,30.9,104.4,30.5z"/>
				<path class="st11" d="M108.1,30.5l0.8-0.2C108.9,30.3,108.5,30.9,108.1,30.5z"/>
				<g>
					<path class="st11" d="M109.4,29.3c0,0,2.2-2.6,0.7-4.7c-0.5-0.8-1.5-0.9-2.4-1.3c-2-0.9-3.7-1.1-6.3,1.5
						c-2.7,2.6-3.2,3.5-0.2,6.8c0,0-0.3-0.4,0.8-1.4c1.1-1,2.3-1.8,1.7-2.8c0,0,0.9,0.4,1,1.2l1.6-0.4c0,0-0.1-0.6-0.5-1.2
						c0,0,0.8,0.5,1.1,1.2l1.4,0.3c0,0-0.2-1.3-0.6-1.7C107.7,26.6,109,28,109.4,29.3z"/>
				</g>
			</g>
			<path class="st15" d="M100.7,32.8c0-0.3-0.2-0.7-0.4-0.9c-0.2-0.2-0.6-0.4-0.9-0.4"/>
			<g>
				<g>
					<path class="st11" d="M117.7,62.5c-0.2-0.2-0.4-0.3-0.6-0.5s-0.3-0.4-0.2-0.4c0,0,0,0,0-0.1l-0.1-0.1l-0.2-0.4
						c-0.1-0.3-0.2-0.6-0.3-0.9c-0.2-0.6-0.4-1.3-0.6-2c-0.4-1.3-0.8-2.7-1.1-4l-0.7-2.8c-0.1-0.5-0.3-1.1-0.5-1.9l0,0l0,0
						c-0.6-2.1-1.5-4.9-2.7-6c-1.9-1.5-3.1,0.3-3.9,2.2c-0.8,1.8,1.1,6.7,1.1,6.7l2.3-0.2c0.3,1,0.6,2.1,0.9,3.1
						c0.4,1.4,0.8,2.7,1.3,4.1c0.2,0.7,0.5,1.4,0.7,2c0.2,0.4,0.3,0.7,0.5,1.1c0.1,0.2,0.2,0.4,0.3,0.6l0.2,0.3
						c0.1,0.1,0.2,0.3,0.2,0.4c0.3,0.4,0.7,0.8,1.2,1c0.4,0.2,0.7,0.4,1.1,0.5c0.7,0.2,1.4,0.3,2.2,0.3l0.4-2
						C118.7,63.3,118.2,62.9,117.7,62.5z"/>
					<path class="st21" d="M117.7,62.5c-0.2-0.2-0.4-0.3-0.6-0.5s-0.3-0.4-0.2-0.4c0,0,0,0,0-0.1l-0.1-0.1l-0.2-0.4
						c-0.1-0.3-0.2-0.6-0.3-0.9c-0.2-0.6-0.4-1.3-0.6-2c-0.4-1.3-0.8-2.7-1.1-4l-0.7-2.8c-0.1-0.5-0.3-1.1-0.5-1.9l0,0l0,0
						c-0.6-2.1-1.5-4.9-2.7-6c-1.9-1.5-3.1,0.3-3.9,2.2c-0.8,1.8,1.1,6.7,1.1,6.7l2.3-0.2c0.3,1,0.6,2.1,0.9,3.1
						c0.4,1.4,0.8,2.7,1.3,4.1c0.2,0.7,0.5,1.4,0.7,2c0.2,0.4,0.3,0.7,0.5,1.1c0.1,0.2,0.2,0.4,0.3,0.6l0.2,0.3
						c0.1,0.1,0.2,0.3,0.2,0.4c0.3,0.4,0.7,0.8,1.2,1c0.4,0.2,0.7,0.4,1.1,0.5c0.7,0.2,1.4,0.3,2.2,0.3l0.4-2
						C118.7,63.3,118.2,62.9,117.7,62.5z"/>
					<g class="st18">
						<path d="M111.1,46.6c0.4,0.7,0.5,1,0.8,1.8c0.3,0.7,0.5,4.9-0.9,6.1v-2.8C111.1,49.9,111.1,48.4,111.1,46.6z"/>
					</g>
					<path class="st11" d="M94.2,51.8L92,44.5c1.3-2,8-3.6,8-3.6l3.4,1.2l1-1c0,0,1.7,0.4,3.1,0.8c1.9,0.6,3,1.1,3.4,2.2
						c0,0,0.8,2.4,0.3,7.3c-0.1,1.3,0,8.4,0.4,10.7l2.3,7.2c-8,6.3-19.3,0.4-19.3,0.4c0.4-1.1,1.6-4.5,1.7-5.6
						c-0.1-1.4,0-3.5-0.5-5.9C95.8,57.8,94.4,52.3,94.2,51.8z"/>
					<path class="st21" d="M94.2,51.8L92,44.5c1.3-2,8-3.6,8-3.6l3.4,1.2l1-1c0,0,1.7,0.4,3.1,0.8c1.9,0.6,3,1.1,3.4,2.2
						c0,0,0.8,2.4,0.3,7.3c-0.1,1.3,0,8.4,0.4,10.7l2.3,7.2c-8,6.3-19.3,0.4-19.3,0.4c0.4-1.1,1.6-4.5,1.7-5.6
						c-0.1-1.4,0-3.5-0.5-5.9C95.8,57.8,94.4,52.3,94.2,51.8z"/>
				</g>
				<path class="st10" d="M118.6,59.7c0.3-3,2.6-5.5,5.6-5.9l-0.6,1l1.2-0.7l-5.4,6.8L118.6,59.7z"/>
				<path class="st22" d="M118.6,59.7c0.3-3,2.6-5.5,5.6-5.9l-0.6,1l1.2-0.7l-5.4,6.8L118.6,59.7z"/>
				<path class="st10" d="M110.2,54.1L112,54l8.9,3l-8.1,12.4l-8-2c-0.5-0.1-0.7-0.6-0.6-1c0-0.1,0-0.1,0.1-0.2l3.2-5.8
					c0.1-0.1,0.1-0.3,0-0.4l-0.4-0.8c-0.1-0.2-0.1-0.4,0-0.5l2.2-4C109.4,54.3,109.8,54.1,110.2,54.1z"/>
				<polygon class="st10" points="120.9,57 126,53.8 117.7,66.1 112.8,69.4 				"/>
				<polygon class="st12" points="120.9,57 126,53.8 117.7,66.1 112.8,69.4 				"/>
				<g>
					<g>
						<path class="st14" d="M119.9,62.8c0,0-2-0.5-2.4-0.2c-0.4,0.3,0.2,0.7,0.2,0.7s-0.7-0.3-0.9,0c-0.2,0.4,0.4,0.7,0.4,0.7
							s-0.6-0.2-0.7,0.1s0.5,0.7,0.5,0.7s-0.4-0.1-0.5,0.2s1.4,1.2,2,1.1c0.6-0.1,2-2.3,2.2-2.8c0.2-0.5,0.2-1-0.2-1.3L119.9,62.8
							L119.9,62.8z"/>
					</g>
					<g>
						<path class="st12" d="M117.7,63.3L117.7,63.3l1.2,0.5c0,0,0,0,0,0c0,0,0,0,0,0L117.7,63.3C117.7,63.2,117.7,63.2,117.7,63.3
							C117.6,63.3,117.6,63.3,117.7,63.3z"/>
					</g>
					<g>
						<path class="st12" d="M117.2,64.1L117.2,64.1l1.1,0.6c0,0,0,0,0,0s0,0,0-0.1l-1.1-0.6C117.2,64,117.2,64,117.2,64.1
							C117.2,64,117.2,64.1,117.2,64.1z"/>
					</g>
					<g>
						<path class="st12" d="M117,64.9l0.8,0.4c0,0,0,0,0,0c0,0,0,0,0-0.1l-0.8-0.4C117,64.8,117,64.8,117,64.9
							C117,64.9,117,64.9,117,64.9z"/>
					</g>
				</g>
				<polygon class="st11" points="105.7,41.5 104.2,40 103.5,42.2 100.2,39.5 98.5,41.4 102.7,44.2 103.5,42.4 105.7,44.1 				"/>
				<path class="st19" d="M105.7,41.5c0.1,0.2,0,2.6,0,2.6l-2.2-1.7l-0.8,1.8l-4-2.7l4.1,3.5l0.7-2.1l2.5,2.1L105.7,41.5z"/>
				<path class="st19" d="M107.8,52.8l-11.4,11v-2.2c0,0,10.3-9.4,10.4-9.4C107,52.2,107.8,52.8,107.8,52.8z"/>
				<polygon class="st19" points="97.1,53.7 95.9,48.5 95.6,54.5 				"/>
			</g>
			<path class="st10" d="M99.2,34.2c0,0.4,0.3,0.7,0.7,0.7s0.7-0.3,0.7-0.7c0-0.4-0.3-0.7-0.7-0.7S99.2,33.8,99.2,34.2z"/>
			<g>
				<g>
					<path class="st11" d="M92,44.5c0,0-1.5,1.5-2.1,6.6c-0.4,3.7-1.3,11.6,1.5,12.6s15.3-10.9,15.3-10.9l-2-3.5l-9.2,5.1
						c0,0,0.9-8.4-0.7-9.2S92,44.5,92,44.5z"/>
					<path class="st21" d="M92,44.5c0,0-1.5,1.5-2.1,6.6c-0.4,3.7-1.3,11.6,1.5,12.6s15.3-10.9,15.3-10.9l-2-3.5l-9.2,5.1
						c0,0,0.9-8.4-0.7-9.2S92,44.5,92,44.5z"/>
				</g>
				<g>
					<path class="st14" d="M105.6,49.1c0,0,1.2-2.4,1.8-2.5c0.6-0.1,1,0.1,1,0.1s3.9-2.3,4.1-1.7c0.1,0.3-0.7,1-2.6,2.1
						c0,0,1.1,0.4,0.6,1c0,0,0.8,0.4,0.4,1.1c0,0,0.4,0.7-0.1,1.1s-2.6,1.6-3.8,1.8c-1.2,0.2-2-2.2-2-2.2L105.6,49.1z"/>
				</g>
			</g>
		</g>
	</g>
	<g id="Puzzle">
		<g>
			<path class="st10" d="M118.7,118c1,0.5,1.7,1.6,2.8,2c0.6,0.2,1.3,0.2,1.9-0.1v-15.5h-14.8c0-0.3,0-0.7,0.1-1
				c0.4-1.1,1.6-1.7,2-2.8c0.7-1.5-0.3-3.5-1.8-4.3c-1.2-0.6-1.8-0.7-2.8-0.7c-1-0.1-1.6,0.1-2.8,0.7c-1.5,0.8-2.5,2.7-1.8,4.3
				c0.5,1,1.6,1.7,2,2.8c0.1,0.3,0.2,0.7,0.1,1H88.9v34.5h34.5v-13.8c-0.6-0.2-1.3-0.3-1.9-0.1c-1.1,0.4-1.7,1.5-2.8,2
				c-1.4,0.7-3.5-0.3-4.3-1.8c-0.6-1.2-0.7-1.8-0.7-2.8c-0.1-1,0.1-1.6,0.7-2.8C115.2,118.3,117.2,117.2,118.7,118z"/>
			<path class="st23" d="M118.7,118c1,0.5,1.7,1.6,2.8,2c0.6,0.2,1.3,0.2,1.9-0.1v-15.5h-14.8c0-0.3,0-0.7,0.1-1
				c0.4-1.1,1.6-1.7,2-2.8c0.7-1.5-0.3-3.5-1.8-4.3c-1.2-0.6-1.8-0.7-2.8-0.7c-1-0.1-1.6,0.1-2.8,0.7c-1.5,0.8-2.5,2.7-1.8,4.3
				c0.5,1,1.6,1.7,2,2.8c0.1,0.3,0.2,0.7,0.1,1H88.9v34.5h34.5v-13.8c-0.6-0.2-1.3-0.3-1.9-0.1c-1.1,0.4-1.7,1.5-2.8,2
				c-1.4,0.7-3.5-0.3-4.3-1.8c-0.6-1.2-0.7-1.8-0.7-2.8c-0.1-1,0.1-1.6,0.7-2.8C115.2,118.3,117.2,117.2,118.7,118z"/>
			<path class="st10" d="M120.4,118c1,0.5,1.7,1.6,2.8,2c0.6,0.2,1.3,0.2,1.9-0.1v-15.5h-14.8c0-0.3,0-0.7,0.1-1
				c0.4-1.1,1.6-1.7,2-2.8c0.7-1.5-0.3-3.5-1.8-4.3c-1.2-0.6-1.8-0.7-2.8-0.7c-1-0.1-1.6,0.1-2.8,0.7c-1.5,0.8-2.5,2.7-1.8,4.3
				c0.5,1,1.6,1.7,2,2.8c0.1,0.3,0.2,0.7,0.1,1H90.6v34.5h34.5v-13.8c-0.6-0.2-1.3-0.3-1.9-0.1c-1.1,0.4-1.7,1.5-2.8,2
				c-1.4,0.7-3.5-0.3-4.3-1.8c-0.6-1.2-0.7-1.8-0.7-2.8c-0.1-1,0.1-1.6,0.7-2.8C117,118.3,118.9,117.2,120.4,118z"/>
		</g>
		<path class="st23" d="M119.4,127.4c0,0,1.2,2.1,3.2,2c2-0.2,2.5-1.1,2.5-1.1l0-2.9l-4.6,1.7C120.2,127.4,119.8,127.4,119.4,127.4z
			"/>
	</g>
	<g id="Character_4">
		<g>
			<g>
				<g>
					<path class="st10" d="M161.8,109.2l11.8-4.5l6.8-6.6c0.2-0.2,2.2-3.6,2.2-3.6l3.3,7.2c0,0-8.3,8.3-11.3,9.3
						c-2.4,0.8-11.1,2.9-11.1,2.9L161.8,109.2z"/>
				</g>
				<path class="st23" d="M169,112.4c0,0,1.4-5.6,4.6-6.7c3.2-1.2,7.3,0.7,7.2,0.7c-0.1,0.1-3.5,3.3-3.7,3.3c-0.1,0-4.5,1.6-6.7,2.3
					L169,112.4z"/>
			</g>
			<g>
				<g>
					<g>
						<path class="st11" d="M147.7,104.7c0,0.3,0,0.7,0.1,1c0.4,1.1,1.6,1.7,2,2.8c0.7,1.5-0.3,3.5-1.8,4.3
							c-1.2,0.6-1.8,0.7-2.8,0.7c-1,0.1-1.6-0.1-2.8-0.7c-1.5-0.8-2.5-2.7-1.8-4.3c0.5-1,1.6-1.7,2-2.8c0.1-0.3,0.2-0.7,0.1-1h-15.4
							v15.5c-0.6,0.2-1.3,0.3-1.9,0.1c-1.1-0.4-1.7-1.6-2.8-2c-1.5-0.7-3.5,0.3-4.3,1.8c-0.6,1.2-0.7,1.8-0.7,2.8
							c-0.1,1,0.1,1.6,0.7,2.8c0.8,1.5,2.7,2.5,4.3,1.8c1-0.5,1.7-1.6,2.8-2c0.6-0.2,1.3-0.2,1.9,0.1v13.8l34.4,0.2v-34.5
							L147.7,104.7z"/>
					</g>
					<g class="st24">
						<path d="M147.7,104.7c0,0.3,0,0.7,0.1,1c0.4,1.1,1.6,1.7,2,2.8c0.7,1.5-0.3,3.5-1.8,4.3c-1.2,0.6-1.8,0.7-2.8,0.7
							c-1,0.1-1.6-0.1-2.8-0.7c-1.5-0.8-2.5-2.7-1.8-4.3c0.5-1,1.6-1.7,2-2.8c0.1-0.3,0.2-0.7,0.1-1h-15.4v15.5
							c-0.6,0.2-1.3,0.3-1.9,0.1c-1.1-0.4-1.7-1.6-2.8-2c-1.5-0.7-3.5,0.3-4.3,1.8c-0.6,1.2-0.7,1.8-0.7,2.8c-0.1,1,0.1,1.6,0.7,2.8
							c0.8,1.5,2.7,2.5,4.3,1.8c1-0.5,1.7-1.6,2.8-2c0.6-0.2,1.3-0.2,1.9,0.1v13.8l34.4,0.2v-34.5L147.7,104.7z"/>
					</g>
				</g>
				<g>
					<path class="st11" d="M149.2,104.7c0,0.3,0,0.7,0.1,1c0.4,1.1,1.6,1.7,2,2.8c0.7,1.5-0.3,3.5-1.8,4.3c-1.2,0.6-1.8,0.7-2.8,0.7
						c-1,0.1-1.6-0.1-2.8-0.7c-1.5-0.8-2.5-2.7-1.8-4.3c0.5-1,1.6-1.7,2-2.8c0.1-0.3,0.2-0.7,0.1-1H129v15.5
						c-0.6,0.2-1.3,0.3-1.9,0.1c-1.1-0.4-1.7-1.6-2.8-2c-1.5-0.7-3.5,0.3-4.3,1.8c-0.6,1.2-0.7,1.8-0.7,2.8c-0.1,1,0.1,1.6,0.7,2.8
						c0.8,1.5,2.7,2.5,4.3,1.8c1-0.5,1.7-1.6,2.8-2c0.6-0.2,1.3-0.2,1.9,0.1v13.8l34.4,0.2v-34.5L149.2,104.7z"/>
				</g>
			</g>
			<g>
				<g>
					<path class="st25" d="M173.4,127.9l5.4-0.3c-0.9,4.8-1.7,7.9-1.4,10.3l-2.2,1.5l-2-2C173.2,137.3,172.8,133.4,173.4,127.9z"/>
					<g>
						<g>
							<g>
								<g>
									<path class="st10" d="M172.9,134l2,0c0.9,1.6,1.6,1.3,2.6,0.1c0.6-0.1,0.7,0.6,0.8,0.8l1,3.9c0.1,0.3-0.1,0.7-0.4,0.7
										c-0.1,0-0.1,0-0.2,0c-1.7,0-2.5,0-4.7-0.1l-6.6-0.1c-1.8,0-2.1-1.8-1.4-2c3.3-0.7,5.7-1.6,6.8-2.6
										C172.9,134.6,172.7,134.5,172.9,134z"/>
									<path class="st17" d="M171.9,135.1c0.5,0.1,0.9,0.4,1.2,0.8"/>
									<path class="st17" d="M171,135.7c0.5,0.1,0.9,0.4,1.2,0.8"/>
									<path class="st17" d="M169.9,136.3c0.5,0.1,0.9,0.4,1.2,0.8"/>
								</g>
							</g>
						</g>
						<path class="st26" d="M178.8,139.5c-0.1,0-0.1,0-0.2,0c-1.7,0-2.5,0-4.7-0.1l-6.6-0.1c-1,0-1.5-0.5-1.7-1.1
							c0.3,0,13.4,0.3,13.6,0.2l0.1,0.3C179.3,139.2,179.1,139.5,178.8,139.5z"/>
					</g>
				</g>
				<path class="st11" d="M194.1,113.6c0,0-14.8-7.6-17.6-7.8c-2.9-0.2-5.6,1.3-6.2,7.3c-0.5,6,0.5,21.2,0.5,21.2l8,0.1l1-17.7
					c0,0,12.3,9,12.7,8.9s5.2-0.3,5.2-0.3L194.1,113.6z"/>
				<path class="st27" d="M194.1,113.6c0,0-14.8-7.6-17.6-7.8c-2.9-0.2-5.6,1.3-6.2,7.3c-0.5,6,0.5,21.2,0.5,21.2l8,0.1l1-17.7
					c0,0,12.3,9,12.7,8.9s5.2-0.3,5.2-0.3L194.1,113.6z"/>
				<path class="st23" d="M179.3,125c0,0-6.5,2.3-6.6,7.6c-0.1,5.4,5.7,4.3,5.7,4.3L179.3,125z"/>
			</g>
			<g>
				<g>
					<path class="st25" d="M199.7,138.9l-1.5-5.3c5.1-0.5,8.5,0.7,10.9-0.4l2.1,1.8l-1.4,2.6C209.9,137.6,206.1,138.9,199.7,138.9z"
						/>
					<g>
						<g>
							<g>
								<g>
									<path class="st10" d="M206.6,139l-0.6-2c1.4-1.5,0.8-2-0.7-2.7c-0.2-0.6,0.4-0.9,0.6-1l3.7-2.2c0.3-0.2,0.7-0.1,0.9,0.2
										c0,0.1,0.1,0.1,0.1,0.2c0.5,1.8,0.7,2.6,1.4,4.8l1.9,6.8c0.5,1.8-1.2,2.7-1.6,2c-1.7-3.2-3.4-5.3-4.7-6.1
										C207.3,138.8,207.2,139,206.6,139z"/>
									<path class="st17" d="M208,139.7c-0.1-0.5,0.1-1.1,0.4-1.5"/>
									<path class="st17" d="M208.9,140.4c-0.1-0.5,0.1-1.1,0.4-1.5"/>
									<path class="st17" d="M209.8,141.4c-0.1-0.5,0.1-1.1,0.4-1.5"/>
								</g>
							</g>
						</g>
						<path class="st26" d="M210.4,131.3c0,0.1,0.1,0.1,0.1,0.2c0.5,1.8,0.7,2.6,1.4,4.8l1.9,6.8c0.3,1-0.1,1.7-0.6,2
							c-0.1-0.3-3.8-13.7-3.9-13.9l0.3-0.2C209.9,130.9,210.3,131,210.4,131.3z"/>
					</g>
				</g>
				<path class="st11" d="M210.3,116.5l0.6,3.2c0,0,1.6,6.4-0.7,9.6c-2.2,3-5.5,3.6-5.5,3.6l0.7,6.2l-0.7,0.4c0,0-4.2,0-12.9-0.4
					c-8.3-0.4-15.4-0.8-16.8-3.3s-1.8-3.8,0.6-6.9c2.2-2.8,18.6-6.8,19.2-7l-0.2-1.4l-0.3-1L210.3,116.5z"/>
				<path class="st27" d="M210.3,116.5l0.6,3.2c0,0,1.6,6.4-0.7,9.6c-2.2,3-5.5,3.6-5.5,3.6l0.7,6.2l-0.7,0.4c0,0-4.2,0-12.9-0.4
					c-8.3-0.4-15.4-0.8-16.8-3.3s-1.8-3.8,0.6-6.9c2.2-2.8,18.6-6.8,19.2-7l-0.2-1.4l-0.3-1L210.3,116.5z"/>
				<path class="st23" d="M204.8,132.9c-0.5,0.1-18.4-0.4-18.4-0.4s5.3,0.9,9.2,1.2C199.5,134,204.8,132.9,204.8,132.9z"/>
				<path class="st23" d="M194.8,121.9l10.3-1.8C205.2,120.1,197.7,119.9,194.8,121.9z"/>
			</g>
			<g>
				<g>
					<g>
						<g>
							<g>
								<path class="st25" d="M168.6,114.5c0,0-0.9-1.3-2.1-1.6c-1.3-0.3-2.2-0.8-3.2-0.9s-0.1,0.8,0.5,1.3c0.6,0.4,1.2,0.9,0.8,1.3
									c-0.4,0.4-4.9,1.5-5.4,2.1c-0.5,0.6,0.3,0.6,0.3,0.6s-1.1,0.3-1.1,0.8c0,0.1,0.2,0.4,0.7,0.3c1.2-0.1,3.6-0.6,3.6-0.6
									c-0.1,0-3.1,0.8-3.5,0.9c-0.6,0.2-0.7,0.6-0.6,0.9c0.2,0.5,3.9-0.3,4.1-0.3c0,0-2.1,0.4-2.3,1c-0.2,0.6,1.2,0.4,2.3,0.1
									c1.1-0.3,3.3-0.7,4.3-1.2c1.3-0.6,2.1-1.2,2.1-2.6C169.1,115.5,168.6,114.5,168.6,114.5z"/>
							</g>
						</g>
					</g>
				</g>
				<polygon class="st25" points="167.1,114.5 170.5,113.2 171.6,116.8 167.7,118.1 				"/>
			</g>
			<g>
				<g>
					<g>
						<g>
							<g>
								<path class="st25" d="M191.1,89.8c0,0-0.9-2-0.7-6l-0.2,0c0-0.6,0.1-1.1,0.1-1.5l0,0l-4.3,4.4c0.4,1.2,0.5,3.6,0.5,4.6
									c0,0-0.2,1.9,2.1,1.4C190.3,92.3,191.1,89.8,191.1,89.8z"/>
								<path class="st12" d="M186.2,88.3l2.8-1.4c0,1-0.6,2.3-2.6,2.8C186.4,89.8,186.3,88.7,186.2,88.3z"/>
							</g>
							<g>
								<path class="st25" d="M189.7,79.7c0.4,3.3,0.7,5.2-0.6,7.2c-2,3-6.3,2.3-7.7-0.8c-1.3-2.8-1.8-7.8,1.2-9.7
									C185.6,74.4,189.3,76.4,189.7,79.7z"/>
								<path class="st11" d="M188.5,75c-1.5-1.8-4.4-0.2-5.5,0.9c-0.2,0.2,2.8,1,2.6,1l0.9,0.8c0.1-0.1,0.4,1.1,0.6,2.1
									c0.2,0.9,0.6,1.7,1.3,2.4c0.5,0.6,1.2,1.3,2,1.8c1-0.8,0.7-2.8,0.9-4C191.4,78.1,191.4,74.6,188.5,75z"/>
								<path class="st25" d="M191.6,82.2c-0.1,0.9-0.6,1.7-1.2,2.1c-0.9,0.7-1.5-0.3-1.6-1.4c-0.1-0.9,0-2.1,1-2.4
									C190.9,80.2,191.7,81.1,191.6,82.2z"/>
								<path class="st11" d="M185.2,81.5c0.1,0.3-0.1,0.6-0.3,0.7c-0.2,0-0.4-0.2-0.5-0.5c-0.1-0.3,0.1-0.6,0.3-0.7
									C184.9,81,185.1,81.2,185.2,81.5z"/>
								<path class="st11" d="M181.9,82.2c0.1,0.3-0.1,0.6-0.3,0.7c-0.2,0-0.4-0.2-0.5-0.5s0.1-0.6,0.3-0.7S181.8,81.9,181.9,82.2z"
									/>
								<path class="st28" d="M182.9,81.8c0,0-0.7,1.9-1,2.6c0.6,0.3,1.3,0,1.3,0L182.9,81.8z"/>
								<path class="st11" d="M185.7,79.8c0,0-0.1,0-0.2,0c-0.6-0.3-1.2,0-1.2,0c-0.1,0-0.2,0-0.2-0.1c0-0.1,0-0.2,0.1-0.2
									c0,0,0.7-0.4,1.5,0C185.7,79.6,185.8,79.7,185.7,79.8C185.8,79.8,185.7,79.8,185.7,79.8z"/>
								<path class="st29" d="M184.6,85.3c0.5-0.1,0.9-0.5,1.3-0.9"/>
							</g>
							<path class="st15" d="M190.6,81.4c-0.2-0.2-0.5-0.2-0.7-0.1c-0.2,0.1-0.4,0.3-0.5,0.5c-0.1,0.3-0.2,0.6-0.2,0.8"/>
						</g>
						<path class="st11" d="M180.2,81.1c0,0-0.1,0-0.1,0c-0.1,0-0.1-0.2,0-0.2c0.5-0.7,1.2-0.7,1.3-0.7c0.1,0,0.2,0.1,0.2,0.2
							s-0.1,0.2-0.2,0.2c0,0-0.6,0-1,0.6C180.3,81.1,180.2,81.1,180.2,81.1z"/>
					</g>
				</g>
				<path class="st11" d="M188.5,75c0,0-2-2.5-5.6-1.7c-2.8,0.7-4.3,2.8-4.4,4.8c0,0.9,0.2,1.5,0.4,1.9c0.2,0.3,0.7,0.3,0.8-0.1
					c0-0.1,0.1-0.2,0.1-0.3c0,0,0,0,0,0.1c0.2,0.3,0.8,0.2,0.8-0.2c0-0.1,0-0.3,0-0.4l0,0c0.2,0.3,0.7,0.2,0.7-0.1
					c0.3-1.5,2.2-2.7,3.9-2l1.2,0.7C187.9,76.9,188.5,75,188.5,75z"/>
			</g>
			<polygon class="st23" points="193.8,119.6 193.6,120.9 187.8,122.6 189.2,123.4 194.8,121.9 195.1,119.3 			"/>
			<g>
				<g>
					<path class="st10" d="M198.1,90.2c-2.6-1.7-7.1-0.9-7.1-0.9l-8.4,5.1l5.7,13.4c0,0,2.4,5.7,3.7,9.5c0.3,0.9,0.9,2.3,1.9,2.1
						l15.9-2.9c0.8-0.1,1.3-0.9,1.1-1.7C209.3,109.4,200.4,91.7,198.1,90.2z"/>
					<path class="st23" d="M199.6,97.7c0,0-2.5,4.8-7,9c-1.8,1.7-3,4.1-3,4.1l-1.1-2.8L199.6,97.7z"/>
				</g>
				<g>
					<path class="st10" d="M191.7,94l-10.8,13.5l-12.7,5.8l1.3,5.3c0,0,10.3-2.8,14.5-5.4c4.1-2.6,11-9.8,11-9.8s6-4.8,5.7-8.6
						C200.2,90.9,194.6,90,191.7,94z"/>
				</g>
				<path class="st10" d="M185.8,92.5c0,0,0.4-2.1,0.6-2c0.2,0.1,2.1,1.2,2.1,1.2l2.2-3.2l1.3,0.9l-3,6.2L185.8,92.5z"/>
				<polygon class="st23" points="184.9,101.1 182.4,97.7 184.4,103.1 185.4,102 192.3,93.3 				"/>
				<path class="st23" d="M185.8,92.5c0.1,0,1.9,1.2,1.8,1.3c-0.1,0,0.7-1.4,0.7-1.4l1.9,0.7l1.6-3.8l-1.5,4.3l-1.8-0.9l-0.9,1.6
					L185.8,92.5z"/>
			</g>
		</g>
	</g>
	<g id="Character_1">
		<g>
			<g>
				<g>
					<g>
						<path class="st11" d="M62.5,66.8c0-0.3,0-0.7-0.1-1c-0.4-1.1-1.6-1.7-2-2.8c-0.7-1.5,0.3-3.5,1.8-4.3c1.2-0.6,1.8-0.7,2.8-0.7
							c1-0.1,1.6,0.1,2.8,0.7c1.5,0.8,2.5,2.7,1.8,4.3c-0.5,1-1.6,1.7-2,2.8c-0.1,0.3-0.2,0.7-0.1,1h15.4V51.3
							c0.6-0.2,1.3-0.3,1.9-0.1c1.1,0.4,1.7,1.6,2.8,2c1.5,0.7,3.5-0.3,4.3-1.8c0.6-1.2,0.7-1.8,0.7-2.8c0.1-1-0.1-1.6-0.7-2.8
							c-0.8-1.5-2.7-2.5-4.3-1.8c-1,0.5-1.7,1.6-2.8,2c-0.6,0.2-1.3,0.2-1.9-0.1V32.3l-34.4-0.2v34.5L62.5,66.8z"/>
					</g>
					<g class="st24">
						<path d="M62.5,66.8c0-0.3,0-0.7-0.1-1c-0.4-1.1-1.6-1.7-2-2.8c-0.7-1.5,0.3-3.5,1.8-4.3c1.2-0.6,1.8-0.7,2.8-0.7
							c1-0.1,1.6,0.1,2.8,0.7c1.5,0.8,2.5,2.7,1.8,4.3c-0.5,1-1.6,1.7-2,2.8c-0.1,0.3-0.2,0.7-0.1,1h15.4V51.3
							c0.6-0.2,1.3-0.3,1.9-0.1c1.1,0.4,1.7,1.6,2.8,2c1.5,0.7,3.5-0.3,4.3-1.8c0.6-1.2,0.7-1.8,0.7-2.8c0.1-1-0.1-1.6-0.7-2.8
							c-0.8-1.5-2.7-2.5-4.3-1.8c-1,0.5-1.7,1.6-2.8,2c-0.6,0.2-1.3,0.2-1.9-0.1V32.3l-34.4-0.2v34.5L62.5,66.8z"/>
					</g>
				</g>
				<g>
					<path class="st11" d="M63.6,66.8c0-0.3,0-0.7-0.1-1c-0.4-1.1-1.6-1.7-2-2.8c-0.7-1.5,0.3-3.5,1.8-4.3c1.2-0.6,1.8-0.7,2.8-0.7
						c1-0.1,1.6,0.1,2.8,0.7c1.5,0.8,2.5,2.7,1.8,4.3c-0.5,1-1.6,1.7-2,2.8c-0.1,0.3-0.2,0.7-0.1,1h15.4V51.3
						c0.6-0.2,1.3-0.3,1.9-0.1c1.1,0.4,1.7,1.6,2.8,2C90,54,92,53,92.8,51.5c0.6-1.2,0.7-1.8,0.7-2.8c0.1-1-0.1-1.6-0.7-2.8
						c-0.8-1.5-2.7-2.5-4.3-1.8c-1,0.5-1.7,1.6-2.8,2c-0.6,0.2-1.3,0.2-1.9-0.1V32.3l-34.4-0.2v34.5L63.6,66.8z"/>
				</g>
			</g>
			<g>
				<path class="st30" d="M40.8,48.4c0,0-2.5,8.9-0.9,10.4c1.6,1.5,7.2,0.5,6.9,0.4c-0.3-0.1,1.4-10.8,1.5-10.4
					C48.5,49.2,40.8,48.4,40.8,48.4z"/>
				<g>
					<g>
						<g>
							<g>
								<g>
									<path class="st30" d="M43.9,128.6v7.7l3.6,0.3l1.3-7.2C47.1,128.2,45.4,127.9,43.9,128.6z"/>
								</g>
							</g>
						</g>
					</g>
					<g>
						<g>
							<g>
								<g>
									<g>
										<path class="st11" d="M43.8,135.5c-0.4,1-0.4,5.2-0.4,5.2h7.6c0.5-1.5-0.2-2.5-1.1-2.7c-0.4-0.1-0.8-0.5-1.1-0.8
											c0,0-0.5-2.4-0.7-2.5c0,0-0.2-0.2-0.4,0c-0.2,0.2-0.3,1-0.3,1C46.1,134.2,45,134.4,43.8,135.5z"/>
									</g>
								</g>
							</g>
						</g>
					</g>
					<g>
						<g>
							<g>
								<g>
									<path class="st6" d="M43.7,136.8c0.9-0.3,1.8-0.2,2.5,0.4c0.1,0.1,0.3-0.1,0.1-0.2c-0.8-0.6-1.8-0.7-2.7-0.4
										C43.5,136.5,43.6,136.8,43.7,136.8L43.7,136.8z"/>
								</g>
							</g>
						</g>
					</g>
					<g>
						<g>
							<g>
								<path class="st6" d="M51,140.1L51,140.1h-7.5c-0.1,0-0.1-0.1-0.1-0.1c0-0.1,0.1-0.1,0.1-0.1l0,0H51c0.1,0,0.1,0.1,0.1,0.1
									C51.1,140.1,51.1,140.1,51,140.1z"/>
							</g>
						</g>
					</g>
				</g>
				<g>
					<g>
						<g>
							<g>
								<g>
									<path class="st30" d="M59.3,127.6v8.7l3.4,0.3l1.7-8.2C63.1,127.3,61.5,126.8,59.3,127.6z"/>
								</g>
							</g>
						</g>
					</g>
					<g>
						<g>
							<g>
								<g>
									<g>
										<path class="st11" d="M59.2,135.5c-0.4,1-0.4,5.2-0.4,5.2h8.7c0.5-1.5-0.5-2.4-1.4-2.5c-0.4-0.1-1.7-0.6-2-1
											c0,0-0.5-2.4-0.7-2.5c0,0-0.2-0.2-0.4,0c-0.2,0.2-0.3,1-0.3,1C61.5,134.2,60.3,134.4,59.2,135.5z"/>
									</g>
								</g>
							</g>
						</g>
					</g>
					<g>
						<g>
							<g>
								<g>
									<path class="st6" d="M59.1,136.8c0.9-0.3,1.8-0.2,2.5,0.4c0.1,0.1,0.3-0.1,0.1-0.2c-0.8-0.6-1.8-0.7-2.7-0.4
										C58.8,136.6,58.9,136.8,59.1,136.8L59.1,136.8z"/>
								</g>
							</g>
						</g>
					</g>
					<g>
						<g>
							<g>
								<path class="st6" d="M67.5,140.1L67.5,140.1h-8.6c-0.1,0-0.1-0.1-0.1-0.1c0-0.1,0.1-0.1,0.1-0.1l0,0h8.6
									c0.1,0,0.1,0.1,0.1,0.1C67.6,140.1,67.6,140.1,67.5,140.1z"/>
							</g>
						</g>
					</g>
				</g>
				<g>
					<g>
						<g>
							<g>
								<g>
									<path class="st11" d="M42.4,132.4l7.6,0.4c1.7-5.6,3.4-25.4,3.6-31.4c0.2-7.1,2.8-25,0.5-28.8c-2.3-3.7-12.5-0.8-12.5-0.8
										s1.3,21.8,0.8,28.7C41.9,106.7,41.3,124.4,42.4,132.4z"/>
								</g>
							</g>
						</g>
					</g>
					<g>
						<polygon class="st10" points="50.8,130.8 50.3,133.4 42.1,133.1 41.8,130.7 						"/>
					</g>
					<g>
						<g>
							<g>
								<g>
									<path class="st11" d="M57.6,132.4l7.6,0.4c0.9-6.2,4.6-28.5,4.3-32.8c-0.4-5.2-4.8-27.9-6.4-29.6s-13.6,2.8-13.6,2.8
										s4.9,19.5,8.8,27.9C59.1,102.9,57,125,57.6,132.4z"/>
								</g>
							</g>
						</g>
					</g>
					<g>
						<polygon class="st10" points="66.1,131 65.7,133.4 57.3,132.8 57.1,130.4 						"/>
					</g>
					<polygon class="st19" points="54.3,90.4 52.1,82.9 48.2,81.7 51.3,84 53.7,97.6 					"/>
				</g>
				<g>
					<g>
						<path class="st11" d="M58.6,24.6c0,0.3,0.1,0.6,0.3,0.6c0.2,0,0.4-0.2,0.4-0.6c0-0.3-0.1-0.6-0.3-0.6
							C58.8,24,58.6,24.3,58.6,24.6z"/>
						<path class="st31" d="M58.7,24.6c0.1,1,0.4,2,0.8,3c-0.5,0.2-1.1,0.1-1.5-0.1L58.7,24.6z"/>
						<path class="st11" d="M58,23.6c0,0-0.1,0-0.1,0c-0.1-0.1-0.1-0.2,0-0.3l0,0c0.4-0.5,1-0.7,1.5-0.7c0.1,0,0.2,0.1,0.2,0.2l0,0
							l0,0c0,0.1-0.1,0.2-0.2,0.2l0,0c-0.5,0-0.9,0.2-1.2,0.6C58.1,23.6,58.1,23.6,58,23.6z"/>
					</g>
					<g>
						<path class="st30" d="M58.7,28.9c0,0.2-0.1,0.3-0.2,0.5c-0.3,0.9-1,1.8-1.8,2.3c-0.2,0.1-0.4,0.3-0.7,0.4
							c-1.8,0.9-4,0.6-5.4-0.8c-1.8-1.8-1.8-3.9-2-7.4c-0.1-0.8,0.1-1.5,0.4-2.2c1-2.5,3.9-3.6,6.4-2.6l0,0
							C59,20.5,59.5,25.7,58.7,28.9z"/>
						<path class="st12" d="M56.8,31.7c-0.2,0.1-0.4,0.3-0.7,0.4c-1.2,0.6-2.6,0.7-3.9,0.2c0.2-0.4,0.4-0.8,0.6-1.2
							C54.2,30.9,55.5,31.1,56.8,31.7z"/>
						<path class="st30" d="M49.6,36.3c1.8,1.6,6.1,1,6.1,1s2.7-0.7,2.1-1.5c-1.6-0.3-2.4-1-2.7-1.9c-0.2-0.6-0.2-1.2-0.2-1.8
							c0-0.3,0.1-0.7,0.1-1l-5.4-3.9C50.4,29.7,51.3,34.4,49.6,36.3z"/>
						<path class="st11" d="M56.8,25.7l0.8,0.3l-0.4-1.5c0,0,1.1-1.7,0-3.2c0,0,3.1-0.9,1.4-2.5c-0.7-0.6-1.5,0-3.6-0.9
							c-1.2-0.5-4.8-0.5-5,0.9c0,0-2.6,0-2.9,4.4c-0.2,2.6,0.9,5.2,2.8,7c0,0,3.2,0.7,4.8-0.5C56.1,28.3,56.8,25.7,56.8,25.7z"/>
						<path class="st30" d="M54.7,25.9c0.1,0.7,0.6,1.2,1.2,1.6c0.7,0.3,1.2-0.7,1.1-1.8c-0.1-0.9-0.6-2.3-1.4-2.1
							C54.9,23.8,54.5,25,54.7,25.9z"/>
					</g>
				</g>
				<g>
					<path class="st10" d="M44.1,35.5c0,0-1.2,0.4-1.9,0.6c-1.3,0.5-2.1,1.9-2.6,3.3c-1.1,3.4-3,11.6-3,11.6l6.7,1.4l3.5-7.7
						L44.1,35.5z"/>
					<path class="st21" d="M44.1,35.5c0,0-1.8,0.3-2.7,1.1c-0.7,0.6-1.3,1.4-1.7,2.8c-1.1,3.4-3,11.6-3,11.6l6.7,1.4l3.5-7.7
						L44.1,35.5z"/>
					<g>
						<path class="st10" d="M60.3,35.9c-2-0.2-8-1.6-16.2-0.4l-1.9,30.1c0,0-0.2,4.6-1,8.6c8.3,3.5,18.1,2.5,23.6-0.5
							c-0.1,0.1-0.2-3.1-0.5-8C63.8,57.2,63,44,61.9,36.3C61.9,36.2,60.5,35.9,60.3,35.9z"/>
					</g>
					<g class="st32">
						<path class="st6" d="M60.3,35.9c-2-0.2-8-1.6-16.2-0.4l-1.9,30.1c0,0-0.2,4.6-1,8.6c8.3,3.5,18.1,2.5,23.6-0.5
							c-0.1,0.1-0.2-3.1-0.5-8C63.8,57.2,63,44,61.9,36.3C61.9,36.2,60.5,35.9,60.3,35.9z"/>
					</g>
					<g>
						<path class="st10" d="M49.5,35.1c0.2-0.7,0.6-1.2,1-1.5L55,34l2.1,1.4L49.5,35.1z"/>
						<path class="st21" d="M49.5,35.1c0.2-0.7,0.6-1.2,1-1.5L55,34l2.1,1.4L49.5,35.1z"/>
					</g>
					<path class="st12" d="M60.1,45.2c0.7,3.4,1.8,10,3.7,12.4l-0.5-6.7L60.1,45.2z"/>
					<polygon class="st12" points="42.9,52.3 43.1,43.6 41.3,51.9 					"/>
				</g>
				<g>
					<path class="st30" d="M63.5,47.9c-0.3,0.1,4.7,11.1,6.7,11.2S81.6,55,81.6,55l-2.1-2.5l-7.1,0.4l-3.6-7.7L63.5,47.9z"/>
					<g>
						<path class="st10" d="M61.1,36.2c-2.5,1.7-3.8,5.5,3,17.3l7.4-4.5c-1.5-2.7-3.1-4.8-4.8-8.7C63.1,35.1,61.1,36.2,61.1,36.2z"
							/>
						<path class="st21" d="M61.1,36.2c-2.5,1.7-3.8,5.5,3,17.3l7.4-4.5c-1.5-2.7-3.1-4.8-4.8-8.7C63.1,35.1,61.1,36.2,61.1,36.2z"
							/>
					</g>
					<path class="st30" d="M84.9,52.4c0-0.6-0.2-1.3-0.5-1.4s-2.2,0-2.2,0l0,0c0-0.5,1-1.1,0.7-1.4c-0.4-0.5-2.8,1.5-3,1.9
						c-0.3,0.8-0.4,1-0.4,1l1.3,2.9c0,0,2.3,1.5,2.9,1c0.6-0.5,0.5-1.1,0.5-1.1s0.5-0.8,0.5-1.3C84.5,53.5,84.9,53.1,84.9,52.4z"/>
				</g>
			</g>
		</g>
	</g>
</g>
</svg>
