<?xml version="1.0" encoding="utf-8"?>
<!-- Generator: Adobe Illustrator 25.4.1, SVG Export Plug-In . SVG Version: 6.00 Build 0)  -->
<svg version="1.1" id="Layer_1" xmlns="http://www.w3.org/2000/svg" xmlns:xlink="http://www.w3.org/1999/xlink" x="0px" y="0px"
	 viewBox="0 0 225 150" style="enable-background:new 0 0 225 150;" xml:space="preserve">
<style type="text/css">
	.st0{opacity:0.1;}
	.st1{fill:#005586;}
	.st2{opacity:0.15;}
	.st3{fill:none;stroke:#008DA3;stroke-width:0.7285;stroke-linecap:round;stroke-miterlimit:10;}
	.st4{fill:#052669;}
	.st5{fill:#09347A;}
	.st6{fill:#11448E;}
	.st7{fill:#3171AF;}
	.st8{fill:#205AA0;}
	.st9{fill:#EF7F1A;}
	.st10{fill:#E8C0A8;}
	.st11{fill:#2D2A25;}
	.st12{fill:#EFEDED;}
	.st13{fill:#EAE7E4;}
	.st14{fill:#00283E;}
	.st15{fill:#333232;}
	.st16{fill:#1D1D1B;}
	.st17{fill:#454444;}
	.st18{fill:#6B686C;}
	.st19{fill:#CF9F82;}
	.st20{fill:#F2842A;}
	.st21{fill:#D0904B;}
	.st22{fill:#003C48;}
	.st23{fill:url(#SVGID_1_);}
	.st24{fill:none;stroke:#4B2B19;stroke-width:0.801;stroke-miterlimit:10;}
	.st25{fill:#A56052;}
	.st26{fill:#CDCAC8;}
	.st27{fill:none;stroke:#00425C;stroke-width:0.75;stroke-linecap:round;stroke-miterlimit:10;stroke-dasharray:7.064,7.064;}
	.st28{fill:#00425C;}
	.st29{fill:none;stroke:#004D6E;stroke-miterlimit:10;}
	.st30{fill:#004D6E;}
	.st31{fill:none;stroke:#052669;stroke-miterlimit:10;}
	.st32{fill:none;stroke:#052669;stroke-miterlimit:9.9998;}
</style>
<g id="OBJECTS">
	<g>
		<g class="st0">
			<g>
				<path class="st1" d="M95.3,122.8c-15.2,2.4-25-5.9-47.4-9.5c-8.4-1.4-17-3.2-23.8-7.7c-6-4-12.8-15.3-9-24.4
					c6-14.3,38.9-25.8,48.9-35.3s17.5-26.7,34-27s25.6,11.7,33.9,16.5c6.8,3.9,15.9,3.3,23.8,1.4c7.9-1.9,23.6-7,35.3-0.6
					c10.3,5.6,8.1,18.1,4.2,23.6c-7.8,10.8-16.4,15-16.5,21.2c-0.2,8.7,5.8,10.7,11.2,20.5c3.6,6.5,0.8,16.4-5.8,21.5
					c-6.6,5.1-19.1,5.6-28,2.1c-6.6-2.6-21.4-9.3-28.7-9.4C120,115.5,110.5,120.4,95.3,122.8z"/>
			</g>
			<g>
				<ellipse class="st1" cx="127.6" cy="29.1" rx="10" ry="8.8"/>
				<path class="st1" d="M149.3,30c0,1.1-1,2.1-2.4,2.1s-2.4-0.9-2.4-2.1c0-1.1,1-2.1,2.4-2.1S149.3,28.8,149.3,30z"/>
				<ellipse class="st1" cx="199.2" cy="55.1" rx="2.7" ry="2.4"/>
				<ellipse class="st1" cx="201.6" cy="51.3" rx="0.6" ry="0.5"/>
				<ellipse class="st1" cx="191" cy="106.2" rx="3.6" ry="3.1"/>
				<path class="st1" d="M196.2,99.8c0,0.5-0.5,0.9-1.1,0.9s-1.1-0.4-1.1-0.9s0.5-0.9,1.1-0.9C195.7,98.9,196.2,99.3,196.2,99.8z"/>
				<path class="st1" d="M204.4,107.1c0,0.8-0.7,1.4-1.6,1.4s-1.6-0.6-1.6-1.4c0-0.8,0.7-1.4,1.6-1.4
					C203.6,105.7,204.4,106.3,204.4,107.1z"/>
				<ellipse class="st1" cx="61.4" cy="46.4" rx="3.7" ry="3.3"/>
				<ellipse class="st1" cx="61.2" cy="39" rx="1.1" ry="0.9"/>
				<path class="st1" d="M71.1,35.8c0,0.5-0.4,0.9-1,0.9c-0.5,0-1-0.4-1-0.9s0.4-0.9,1-0.9C70.6,34.9,71.1,35.3,71.1,35.8z"/>
				<ellipse class="st1" cx="17.5" cy="75.6" rx="4.6" ry="4"/>
				<path class="st1" d="M9.2,83.3c0,0.4-0.4,0.8-0.9,0.8c-0.5,0-0.9-0.4-0.9-0.8c0-0.5,0.4-0.8,0.9-0.8C8.8,82.5,9.2,82.9,9.2,83.3
					z"/>
				<ellipse class="st1" cx="16.4" cy="99.7" rx="2" ry="1.8"/>
			</g>
		</g>
		<g class="st2">
			<line class="st3" x1="26.7" y1="118" x2="196.8" y2="118"/>
			<line class="st3" x1="26.7" y1="100.9" x2="196.8" y2="100.9"/>
			<line class="st3" x1="26.7" y1="83.9" x2="196.8" y2="83.9"/>
			<line class="st3" x1="26.7" y1="66.9" x2="196.8" y2="66.9"/>
			<line class="st3" x1="26.7" y1="49.9" x2="196.8" y2="49.9"/>
		</g>
		<g>
			<rect x="34.5" y="57.8" class="st4" width="15.4" height="72.3"/>
			<rect x="53.3" y="78" class="st5" width="15.4" height="52"/>
			<rect x="71.3" y="101.4" class="st6" width="15.4" height="28.6"/>
			<rect x="90.1" y="121.3" class="st7" width="15.4" height="8.7"/>
			<rect x="109" y="110.1" class="st8" width="15.4" height="20"/>
			<rect x="127.8" y="96.7" class="st6" width="15.4" height="33.4"/>
			<rect x="146.9" y="78.9" class="st5" width="15.4" height="51.1"/>
			<rect x="166" y="64.6" class="st4" width="15.4" height="65.5"/>
		</g>
		<g>
			<g>
				<path class="st9" d="M125.7,54.4c1,0,8.8-3.6,14.2-6.4c-0.9-2.2-2.8-3.5-2.8-3.5s-15.7,5.5-16.8,6.2
					C119.4,51.5,125.7,54.4,125.7,54.4z"/>
				<path class="st10" d="M154.8,37.7c0.9-0.4,0.5,0.3,0.1,0.7c-0.4,0.4-2,1.3-2,1.3s0.4,0.2,1.2,0.7c0.3,0.2,0.7,2.3-3.8,2.1
					c-2-0.1-1.7-1.8-1.7-1.8S153.9,38.1,154.8,37.7z"/>
				<path class="st9" d="M135.8,47c0.7,1.7,2.7,1.9,4.3,0.9c1.7-1,10.6-5.4,10.6-5.4c-0.1-0.7-0.7-1.8-1.4-2.3c0,0-9.4,3.2-11.4,3.9
					C135.9,45,135.2,45.8,135.8,47z"/>
			</g>
			<g>
				<g>
					<path class="st11" d="M137,94c0,0-2.6-1.1-3-1.9c0,0-1.4,0-1.8,1.2c0,0-1.9,0.3-3-0.7l-0.2,3.2h11.7
						C140.3,95.2,140.1,94.4,137,94z"/>
					<path class="st12" d="M128.9,95.9l-0.1,0.7h11.9c0-0.3,0.1-0.4-0.1-0.7H128.9z"/>
				</g>
			</g>
			<g>
				<g>
					<path class="st11" d="M116.1,108.8l-0.6-2c0,0-0.5-1.4-2.2-1.4c-1.7,0-2.2,1.4-2.2,1.4l-0.4,2.6l1,0L116.1,108.8z"/>
				</g>
				<g>
					<path class="st13" d="M117.4,109.4c0,0.1,0,0.4-0.2,0.7h-5.6c0,0,0-0.3,0-0.7H117.4z"/>
					<path class="st11" d="M111.6,109.3c0-0.4,1-1.7,2.8-1.7c2.2,0,2.7,1.1,2.9,1.6c0,0,0,0.1,0,0.1L111.6,109.3
						C111.6,109.4,111.6,109.4,111.6,109.3z"/>
				</g>
			</g>
			<path class="st14" d="M127.8,72l0.2,6.4l-6.1,1.3l-5.9,26.8c0,0-2.2,0.9-5.4-0.2l3.3-34.3H127.8L127.8,72z"/>
			<path class="st14" d="M119.5,78.5c0,0,13.8,2.8,15.8,3.2c2.8,0.6,6.5-3.1,3.7-4.2c-6.1-2.2-11.1-3.7-11.1-3.7l-7.4,2
				C120.5,75.8,119.8,76.9,119.5,78.5z"/>
			<g>
				<path class="st15" d="M118.7,93.1h-17c-0.4,0-0.7-0.3-0.7-0.6v-8.5h18.5v8.5C119.5,92.8,119.1,93.1,118.7,93.1z"/>
				<path class="st16" d="M118.6,86.1h-16.8c-0.5,0-0.8-0.3-0.8-0.7v-3.7c0-0.4,0.4-0.7,0.8-0.7h16.8c0.5,0,0.8,0.3,0.8,0.7v3.7
					C119.5,85.7,119.1,86.1,118.6,86.1z"/>
				<path class="st17" d="M118.6,85.8h-16.8c-0.5,0-0.8-0.3-0.8-0.7v-3.7c0-0.4,0.4-0.7,0.8-0.7h16.8c0.5,0,0.8,0.3,0.8,0.7V85
					C119.5,85.4,119.1,85.8,118.6,85.8z"/>
				<path class="st17" d="M110.2,84c-1.8,0-3.3-1.3-3.3-2.9c0-1.6,1.5-2.9,3.3-2.9c1.8,0,3.3,1.3,3.3,2.9
					C113.6,82.7,112,84,110.2,84z M110.2,79.1c-1.2,0-2.2,0.9-2.2,2c0,1.1,1,2,2.2,2c1.2,0,2.2-0.9,2.2-2
					C112.5,80,111.5,79.1,110.2,79.1z"/>
				<path class="st18" d="M111.2,86.9h-2.1c-0.1,0-0.2-0.1-0.2-0.1v-1.2c0-0.1,0.1-0.1,0.2-0.1h2.1c0.1,0,0.2,0.1,0.2,0.1v1.2
					C111.4,86.8,111.3,86.9,111.2,86.9z"/>
				<path class="st17" d="M119.1,88c0,0,0,3.5,0,3.9s-0.3,0.9-1.2,0.9c-0.9,0-5.2,0-5.2,0s4.6-0.2,5-0.3s1-0.3,1-0.8
					C118.8,91.3,119.1,88,119.1,88z"/>
			</g>
			<g>
				<path class="st10" d="M121.3,49l0.1,2.3l-3.9,0.1l-0.1-2.9C119,49.1,120.6,49.1,121.3,49z"/>
				<path class="st19" d="M117.4,48.4l-0.1-2.3l3.9-0.1l0.1,3C120.6,49.1,119,49.1,117.4,48.4z"/>
			</g>
			<path class="st10" d="M119.7,51.8c-2.3,0-2.9-1.2-2.9-1.6c1.6-0.3,3.2-0.4,5.2-0.2C122.1,50.4,122,51.8,119.7,51.8z"/>
			<path class="st20" d="M116.4,50.1c0.1,0,1.4-0.1,1.5-0.1c0.1,0.4,1.5,1.4,2.4,1.4c1.5,0,1.5-0.9,1.4-1.4c0.2,0,0.4-0.1,0.5,0
				c0.7,0.3,2.7,2.1,3.9,6c0.9,3.1,2,10.5,2,17.7c0,0-5.3,2-15,0.4c0,0,0-17.6,0.2-19.5C113.5,52.6,114.5,50.7,116.4,50.1z"/>
			<path class="st4" d="M119.7,52.5l0.9,0.5l2.3,16.4l1.4,2.1c0,0,1.2-1.9,1.2-2.5c-0.1-0.5-3.5-15.2-4-16.2
				c0.2-0.4,0.4-0.8,0.4-0.8s-1-1.2-1.3-1.2C120.3,50.9,119.7,52.5,119.7,52.5z"/>
			<g>
				<path class="st10" d="M111,75.8L111,75.8c0,0,0.7,0.3,0.9,0.7c0.3,0.4,0.5,0.9,0.6,1.3c0.3,0.8,0.3,1.6,0.4,1.8
					c0.1,0.1-0.2,0.4-0.5,0.3c-0.3-0.1-0.4-0.9-0.5-1.1c-0.1-0.3-0.1-0.6-0.2-0.5c-0.1,0.1-0.1,0.6-0.2,1c0,0.1,0,0.2,0,0.3
					c-0.1,0.4-0.2,0.3-0.4,0.3c-0.2,0-0.3-0.1-0.3-0.3c0-0.1,0-0.1,0-0.2c0,0.1,0,0.2-0.1,0.3c-0.1,0.2-0.7,0.3-0.8-0.1
					c0-0.2,0-0.3,0-0.3c0,0.1,0,0.2-0.1,0.4c0,0.2-0.7,0.4-0.7,0c0-0.3,0-0.5,0-0.6c0,0.1,0,0.4-0.1,0.5c0,0.2,0,0.3-0.2,0.3
					s-0.4,0-0.4-0.1c-0.1-0.7,0-1.8,0-2.1c0-0.3,0.4-1.1,0.5-1.3c0-0.1,0-0.1,0-0.3c0-0.2,0.1-0.3,0.4-0.4l0.9-0.2
					C110.6,75.5,110.9,75.6,111,75.8z"/>
				<path class="st9" d="M111.9,76.5c0.1-0.4,1.8-11.2,2-12.2c0.2-1,2.1-6.8,2.9-9.3c0.6-1.8,0.1-3.9-1.7-4.2c-2-0.3-3.6,1.3-4,3.5
					c-0.3,1.3-2.1,8.9-2.1,9.8c-0.1,0.9-0.1,11.3-0.2,12.3C108.8,76.7,111.9,76.8,111.9,76.5z"/>
			</g>
			<path class="st9" d="M117.5,49.5c-0.4,0.1-0.7,0.5-0.7,0.5s0.8,2.2,2.7,3.4c0.7-0.9,1.3-2.5,1.3-2.5S118.5,50.4,117.5,49.5z"/>
			<path class="st9" d="M120.6,50.9l1.5,1.7c0,0,0.7-1.5,0.1-2.7c-0.2-0.1-1-0.5-1-0.5S121.2,50.6,120.6,50.9z"/>
			<g>
				<path class="st10" d="M116.9,47.8c0,0,9,1.2,10.2-1c0.2-0.3-0.1-2.6-0.3-4.2c-0.4-2.4-1.3-5.3-2.8-6.9
					c-2.4-2.7-8.5-5.5-11.3-3.3C109.8,34.7,104.1,41.5,116.9,47.8z"/>
				<path class="st10" d="M123.8,38.7L123.8,38.7l0-0.4c1.3,0.6,2.7,0.8,4.1,1.1c-1.2,2.5-4.1,1.7-4.6-0.6
					C123.5,38.7,123.7,38.7,123.8,38.7C124,38.8,123.9,38.7,123.8,38.7z"/>
				<path class="st21" d="M120.1,32.8l0.5,0.1C120.5,32.9,120.3,32.8,120.1,32.8z"/>
				<path class="st22" d="M116.4,42.8c0.4,1.6,1.4,4.7,0.4,5.7c-2.2-0.7-5-1.9-6.9-3.3c-1.8-1.3-3-4.7-2.7-7.7
					c0.4-3,2.3-4.2,3.7-4.8c1.2-0.5,3.6-1.3,5.2-1.2c0.8,0,1.6,0.2,2.4,0.4c0.4,0.1,1.1,0.7,1.7,1l-0.2-0.1c-0.6,1-3.8,0.6-4,1.7
					c-0.2,1.4,2.3,4.3,2.3,5.7C118.3,41.3,116.5,41.3,116.4,42.8z"/>
				<path class="st10" d="M115.6,42.3c0.8,0.9,2.5,1.4,3.2,1c0.6-0.5,0.5-1.6-0.3-2.4c-0.8-0.9-2.2-1.8-3.1-1.1
					C114.8,40.3,114.8,41.4,115.6,42.3z"/>
				<path class="st22" d="M112.5,32.2c-0.8,0.2-0.7,0.5,0.1,1c0.5,0.4,2.7,1.9,3.3,1.6l0.3,0.2c1-0.1,2.3-0.5,3.3-0.8
					c0.5-0.2,1.7-0.5,2.1-0.8c1.2-0.8,1.7-4.4,0.3-4.8c-1.4-0.4-1.8,1.1-1.8,1.1s0.9-1.7-0.8-1.9c-1.7-0.1-1.7,2-1.7,2
					s0.1-0.4-0.3-0.4c-0.4,0-0.1,0.5-0.5,0.9C115.1,31.5,113.7,31.8,112.5,32.2z"/>
				<g>
					
						<linearGradient id="SVGID_1_" gradientUnits="userSpaceOnUse" x1="-14268.918" y1="-2755.8132" x2="-14268.6045" y2="-2753.8196" gradientTransform="matrix(0.9421 -0.3353 0.3353 0.9421 14489.3369 -2150.9294)">
						<stop  offset="0" style="stop-color:#C9926A"/>
						<stop  offset="1" style="stop-color:#C9926A;stop-opacity:0"/>
					</linearGradient>
					<path class="st23" d="M123.5,36.5c0.3,0.4,1.3,1.9-0.1,2.6c-1.4,0.7-1.9-1.4-1.9-1.4S122.9,36.8,123.5,36.5z"/>
					<path class="st22" d="M123.2,36.5c-1.5,0.6-2.3,1.6-0.9,1.1C123.6,37,124,36.2,123.2,36.5z"/>
					<path class="st24" d="M123,39.1c0.1-0.9,1.1-0.9,1.3-0.3"/>
				</g>
				<g>
					<path class="st25" d="M122.4,43.4c-0.1,0.3,0.1,0.6,0.3,0.7c0.2,0.2,0.5,0.3,0.8,0.4c0.3,0.1,0.6,0.1,0.9,0.1
						c0.2,0,0.3,0,0.5,0c0.2,0,0.3-0.1,0.5-0.1c-0.1,0.1-0.3,0.1-0.5,0.1c-0.2,0-0.3,0.1-0.5,0.1c-0.3,0.1-0.7,0-1,0
						c-0.3-0.1-0.6-0.2-0.8-0.5c-0.1-0.1-0.2-0.3-0.2-0.4C122.3,43.6,122.3,43.5,122.4,43.4z"/>
				</g>
			</g>
			<polygon class="st26" points="110.6,109.4 110.6,110.1 111.6,110.1 111.6,109.4 			"/>
			<path class="st14" d="M132.9,80.9c0,0-2.4,6.9-4,12.4c2.2,1.1,5.8,0.6,6.4-0.3c2.1-6.4,4.8-13.8,4.7-14.2
				C139.6,77.8,132.9,80.9,132.9,80.9z"/>
		</g>
		<g>
			<g>
				<path class="st27" d="M31.3,51.6c5.6,0,14.9-2.2,32.6,14.5c16.5,15.6,24.5,32.3,33,34.5"/>
				<g>
					<polygon class="st28" points="96.3,101.5 98.7,100.7 96.8,99.3 					"/>
				</g>
			</g>
		</g>
		<g>
			<g>
				<line class="st27" x1="142.7" y1="80.2" x2="176" y2="52.1"/>
				<g>
					<polygon class="st28" points="176.6,53.1 177.3,51 174.8,51.5 					"/>
				</g>
			</g>
		</g>
		<g>
			<polyline class="st29" points="26.7,38.9 26.7,130 199.4,130 			"/>
			<path class="st30" d="M201.3,130.1c0,0.6-0.5,1-1.1,1s-1.1-0.4-1.1-1c0-0.6,0.5-1,1.1-1S201.3,129.5,201.3,130.1z"/>
			<ellipse class="st30" cx="26.8" cy="38.9" rx="1.1" ry="1"/>
		</g>
		<g>
			<polygon class="st4" points="192.9,73.3 187.3,73.3 188.9,74.7 185.3,77.8 187.7,79.9 191.2,76.8 192.9,78.2 			"/>
			<polygon class="st5" points="152.4,60.3 146.5,60.3 148.2,61.8 144.5,65.1 147,67.2 150.7,64 152.4,65.5 			"/>
			<polygon class="st5" points="176,39.9 172,39.9 173.2,40.9 165.2,47.9 166.9,49.4 174.8,42.4 176,43.4 			"/>
			<polygon class="st4" points="188.9,39.2 186.3,39.2 187,39.9 181.9,44.4 183,45.4 188.1,40.8 188.9,41.5 			"/>
			<polygon class="st6" points="163.4,56.7 162,56.7 162.4,57.1 160.2,58.9 160.8,59.4 162.9,57.6 163.4,57.9 			"/>
			<polygon class="st4" points="194.4,62.2 193.1,62.2 193.5,62.6 191.3,64.5 191.9,65 194,63.1 194.4,63.4 			"/>
		</g>
		<g>
			<path class="st31" d="M141.9,34.6c0,0.6-0.6,1.1-1.3,1.1s-1.3-0.5-1.3-1.1c0-0.6,0.6-1.1,1.3-1.1C141.3,33.5,141.9,34,141.9,34.6
				z"/>
			<ellipse class="st31" cx="164.2" cy="26.1" rx="3.1" ry="2.7"/>
			<path class="st31" d="M191.1,31.3c0,0.6-0.6,1.1-1.3,1.1s-1.3-0.5-1.3-1.1c0-0.6,0.6-1.1,1.3-1.1
				C190.5,30.1,191.1,30.6,191.1,31.3z"/>
			<ellipse class="st31" cx="207.5" cy="55.3" rx="1.1" ry="1"/>
			<ellipse class="st31" cx="189.4" cy="91.5" rx="0.7" ry="0.6"/>
			<path class="st31" d="M212.8,86.3c0,0-0.1,0-0.2,0s-0.2,0-0.2,0s0.1,0,0.2,0S212.8,86.3,212.8,86.3z"/>
			<ellipse class="st31" cx="136.2" cy="60.3" rx="1.1" ry="1"/>
			<path class="st31" d="M99.7,55.2c0,0.5-0.5,1-1.1,1s-1.1-0.4-1.1-1s0.5-1,1.1-1S99.7,54.6,99.7,55.2z"/>
			<path class="st31" d="M97.1,39.3c0,0.4-0.4,0.8-0.9,0.8s-0.9-0.4-0.9-0.8s0.4-0.8,0.9-0.8S97.1,38.9,97.1,39.3z"/>
			<ellipse class="st31" cx="87.4" cy="77.7" rx="2.3" ry="2"/>
			<path class="st31" d="M77.8,95.3c0,0.2-0.2,0.4-0.5,0.4s-0.5-0.2-0.5-0.4c0-0.2,0.2-0.4,0.5-0.4S77.8,95.1,77.8,95.3z"/>
			<path class="st31" d="M50.9,44.3c0,0.3-0.2,0.5-0.5,0.5c-0.3,0-0.5-0.2-0.5-0.5c0-0.3,0.2-0.5,0.5-0.5
				C50.6,43.9,50.9,44.1,50.9,44.3z"/>
			<path class="st31" d="M68.2,40.1c0,0.2-0.2,0.4-0.5,0.4s-0.5-0.2-0.5-0.4s0.2-0.4,0.5-0.4S68.2,39.8,68.2,40.1z"/>
			<path class="st31" d="M69.3,24.7c0,0.7-0.6,1.2-1.4,1.2c-0.8,0-1.4-0.5-1.4-1.2c0-0.7,0.6-1.2,1.4-1.2
				C68.7,23.5,69.3,24,69.3,24.7z"/>
			<path class="st31" d="M15.9,65.4c0,0.3-0.3,0.6-0.6,0.6s-0.6-0.3-0.6-0.6c0-0.3,0.3-0.6,0.6-0.6C15.5,64.8,15.9,65.1,15.9,65.4z"
				/>
			<path class="st31" d="M11.8,90.9c0,0.5-0.5,1-1.1,1s-1.1-0.4-1.1-1s0.5-1,1.1-1S11.8,90.3,11.8,90.9z"/>
			<ellipse class="st31" cx="2.9" cy="77" rx="1.9" ry="1.7"/>
			<ellipse class="st31" cx="10.3" cy="120.4" rx="0.4" ry="0.3"/>
			<path class="st31" d="M22.7,116.9c0,0.6-0.6,1.1-1.3,1.1c-0.7,0-1.3-0.5-1.3-1.1c0-0.6,0.6-1.1,1.3-1.1S22.7,116.2,22.7,116.9z"
				/>
			<ellipse class="st32" cx="210.1" cy="79.2" rx="2.6" ry="2.3"/>
			<path class="st31" d="M224.1,68.9c0,0.3-0.2,0.5-0.6,0.5c-0.3,0-0.6-0.2-0.6-0.5s0.2-0.5,0.6-0.5
				C223.9,68.4,224.1,68.6,224.1,68.9z"/>
			<path class="st31" d="M223.9,35.9c0,0.7-0.7,1.3-1.5,1.3s-1.5-0.6-1.5-1.3s0.7-1.3,1.5-1.3C223.3,34.6,223.9,35.2,223.9,35.9z"/>
			<path class="st31" d="M214.9,112.3c0,0.8-0.7,1.4-1.6,1.4s-1.6-0.6-1.6-1.4c0-0.8,0.7-1.4,1.6-1.4S214.9,111.5,214.9,112.3z"/>
		</g>
	</g>
</g>
</svg>
