<?xml version="1.0" encoding="utf-8"?>
<!-- Generator: Adobe Illustrator 25.4.1, SVG Export Plug-In . SVG Version: 6.00 Build 0)  -->
<svg version="1.1" id="Layer_1" xmlns="http://www.w3.org/2000/svg" xmlns:xlink="http://www.w3.org/1999/xlink" x="0px" y="0px"
	 viewBox="0 0 225 150" style="enable-background:new 0 0 225 150;" xml:space="preserve">
<style type="text/css">
	.st0{fill:#F1F2F2;}
	.st1{fill:#3B455A;}
	.st2{fill:#C67A6D;}
	.st3{fill:#CCD2D9;}
	.st4{fill:#7FC5A3;}
	.st5{fill:#BABCBE;}
	.st6{fill:#686E72;}
	.st7{fill:#777F87;}
	.st8{fill:#E1CFB5;}
	.st9{fill:#8EC3CB;}
	.st10{fill:#EFBFA5;}
	.st11{fill:#EF7F1A;}
	.st12{fill:#FFFFFF;}
	.st13{fill:#052669;}
	.st14{opacity:0.1;fill:#272525;enable-background:new    ;}
	.st15{opacity:0.2;fill:#FFFFFF;enable-background:new    ;}
	.st16{fill:#474EBB;}
	.st17{fill:#CAC8D6;}
	.st18{opacity:0.1;}
	.st19{fill:#F7F7F7;}
</style>
<g id="shadow">
	<g>
		<path class="st0" d="M107.1,67.2c-5.4,0-10.8,0.1-16.2,0.6c-2,0.2-4,0.6-6.1,0.8c-4.1,0.3-8.1,1-12.1,1.2
			c-3.3,0.2-6.6,0.4-9.9,0.7c-3.1,0.3-6.5,0.2-9.5-0.2c-2.3-0.3-4.5-0.5-6.7-1.1c-2.5-0.6-5.2-1-7.8-1c-3.7,0-7.3,0-10.8,1.1
			c-1.2,0.4-2.8,1-3.7,1.8c-2.2,1.8-2.4,6.3-0.3,8.1c3.6,3.1,11.4,4.3,16.4,4.4c5.6,0.1,11-0.3,16.5-0.5c5.2-0.2,10.3-0.5,15.5-0.4
			c10.6,0,21.2,0,31.8-0.6c9.9-0.6,19.9-0.4,29.8-0.4c10.2,0,20.3,0.1,30.5,1.2c4.4,0.5,8.9,0.7,13.4,1c4,0.3,7.8,0,11.8-0.3
			c3.3-0.2,6.6-0.9,9.6-2.1c2.4-0.9,6.7-3.9,7.4-6.1c2.1-6.3-29-6.2-33.7-6.2c-5.3,0-10.7,0.2-16,0c-2.2-0.1-4.4-0.4-6.6-0.8
			c-2.2-0.4-4.4-0.3-6.6-0.5c-9.2-0.7-18.4-0.6-27.7-0.6C113.1,67.2,110.1,67.2,107.1,67.2z"/>
	</g>
</g>
<g id="object">
	<g>
		<g>
			<path class="st1" d="M43.1,67.3c0,0.2-0.1,0.3,0,0.5c0.1,0.1,0.2,0.2,0.4,0.2c3.2,1,6.5,0.1,9.7-0.7c0.5-0.1,1.1-0.3,1.6-0.4
				c0.3-0.1,0.5-0.2,0.7-0.3c0.3-0.2,0.4-0.6,0.4-1c0.1-0.9-0.3-1.8-0.6-2.6c-0.9-2.1-1.9-4.1-3.1-6.1c-0.1-0.3-0.3-0.5-0.5-0.7
				c-0.4-0.4-1.1-0.5-1.6-0.4c-0.6,0.1-1.1,0.4-1.6,0.7c-1.7,1-2.9,2.1-3.2,4.1C44.9,62.9,43.7,65,43.1,67.3z"/>
			<path class="st2" d="M55.2,56c-1.3-4.8-7.4-3.4-8.8,0.7c-0.8,2.5,0.7,5.8,3,7c-0.1,0.6,0.1,2.3,0.1,2.3c0.8,0,1.7,0,2.5,0
				c0-0.6,0-1.3,0-1.9c0.3-0.1,0.6-0.1,0.9-0.3c1.4-0.6,2.3-2,2.6-3.5C55.8,59,55.6,57.5,55.2,56z"/>
			<g>
				<g id="XMLID_361_">
					<g id="XMLID_363_">
						<polygon class="st1" points="49.5,144.1 49.3,145.7 46.1,147.1 44.7,145.4 46.4,143.9 49.6,142.6 						"/>
					</g>
					<g id="XMLID_362_">
						<polygon class="st3" points="52.2,112.1 49.7,143.6 46.6,144.1 44,117.2 41.8,108.7 						"/>
					</g>
				</g>
				<g id="XMLID_358_">
					<g id="XMLID_360_">
						<polygon class="st3" points="58.7,103.7 61.1,140.9 58.7,141.8 52.7,113.5 49.5,105.3 						"/>
					</g>
					<g id="XMLID_359_">
						<polygon class="st1" points="58.9,143.1 62.3,144.1 63.5,142.2 61.7,140.9 58.6,141.5 						"/>
					</g>
				</g>
				<g id="XMLID_357_">
					<path class="st4" d="M55.4,64.9c-0.7-0.1-1.3,0-2,0.1c-2,0.3-3.9,0.7-5.8,1.4c-0.6,0.2-1.2,0.4-1.8,0.8
						c-2.7,1.6-2.5,4.1-2.9,6.9c-0.3,1.9-0.8,3.9-1,5.9c-0.4,5.1-2,10.3-4.2,15c-0.9,2-2.1,3.9-2.7,6c-1.1,3.4-1.1,7.5-0.8,11.1
						c3.1,0.9,6.1,2.4,9.3,2.9c2.7,0.3,5.3-0.1,8-0.4c3.2-0.3,6.3-0.2,9.5-0.4c3.2-0.2,6.3-0.8,9.1-2.3c-0.3,0.2-4.3-10.5-4.6-11.5
						c-0.5-1.6-0.7-3.3-1-4.9c-1.3-8.2-3-16.3-5.6-24.1c-0.7-2-0.8-5.7-3.4-6.2C55.6,64.9,55.5,64.9,55.4,64.9z"/>
				</g>
				<g id="XMLID_354_">
					<g id="XMLID_356_">
						<path class="st1" d="M50.7,54.8c1.5,0.3,3.3,1.5,3.6,3c0.2,0.7-0.1,1.4,0.1,2.2c0.4,1.5-1.5,3.8,0.4,4.9
							c1,0.5,2.2,0.4,3.2,0.2c0.1,0,0.3,0,0.4-0.1c0.2-0.1,0.2-0.4,0.1-0.6c-0.1-0.2-0.2-0.4-0.3-0.6c-1.3-1.9-1-4.6-1.5-6.8
							c-0.5-2.2-1.7-4.3-3.8-5.2c-1.1,0.7-1.9,1.8-2.1,3.1L50.7,54.8z"/>
					</g>
					<g id="XMLID_355_">
						<path class="st1" d="M45.4,66.7c0.7-0.4,1.4-0.9,1.8-1.7c0.6-1.3,0.4-3.3,0.5-4.6c0.1-1.5,0.2-3.1,1.2-4.1
							c0.7-0.7,1.5-0.9,2.4-1c0.6-0.1,0.7,0.2,1.2-0.2c0.4-0.3,0.7-1.1,0.7-1.5c0.1-0.8-0.3-1.5-0.8-2.1c-0.9-0.8-1.8-1.2-3-1.1
							c-4.1,0.3-7,2.9-7.8,7c-0.4,2,0.2,4-0.2,5.9c-0.3,1.2-0.9,2-1.1,3.2c-0.5,3.2-1.9,7.3-1.5,10.6c0,0.1,0,0.2,0.1,0.3
							c0.2,0.1,0.5-0.1,0.6-0.3c0.8-1.2,1.7-2.3,2.5-3.5c0.3-0.5,0.7-0.9,0.9-1.4c0.5-1.3,0-2.9,0.9-4.1
							C44.1,67.5,44.8,67.1,45.4,66.7z"/>
					</g>
				</g>
				<g id="XMLID_352_">
					<g id="XMLID_353_">
						<polygon class="st4" points="41.2,68.1 32.6,83.8 42.2,90.8 44.4,88.6 39,83.7 47.2,77.4 46.2,67 						"/>
					</g>
				</g>
			</g>
			<g>
				<path class="st5" d="M53,64c1.7,0,3.1-1.4,3.1-3.1h0.6c0,2.1-1.7,3.8-3.8,3.8V64z"/>
				<path class="st6" d="M51.3,63.8h1.2c0.3,0,0.6,0.3,0.6,0.6v0.1c0,0.3-0.3,0.6-0.6,0.6h-1.2c-0.3,0-0.6-0.3-0.6-0.6v-0.1
					C50.7,64,51,63.8,51.3,63.8z"/>
				<g>
					<path class="st5" d="M56.1,58.6V56c0-2.8-2.3-5-5-5s-5,2.3-5,5v2.6h-1.1V56c0-3.4,2.7-6.1,6.1-6.1c3.4,0,6.1,2.7,6.1,6.1v2.6
						H56.1z"/>
				</g>
				<g>
					<path class="st5" d="M43.4,58.1c-0.2,0.3-0.2,0.5-0.2,0.7v0.5v0.5c0,0.2,0,0.4,0.2,0.7l0.3,0.4v-1.6v-1.6L43.4,58.1z"/>
					<path class="st6" d="M45.4,61.6h-0.6c-0.6,0-1.1-0.5-1.1-1.1v-2.5c0-0.6,0.5-1.1,1.1-1.1h0.6c0.6,0,1.1,0.5,1.1,1.1v2.5
						C46.5,61.2,46,61.6,45.4,61.6z"/>
				</g>
				<g>
					<path class="st7" d="M58.7,58.1c0.2,0.3,0.2,0.5,0.2,0.7v0.5v0.5c0,0.2,0,0.4-0.2,0.7l-0.3,0.4v-1.6v-1.6L58.7,58.1z"/>
					<path class="st6" d="M56.7,61.6h0.6c0.6,0,1.1-0.5,1.1-1.1v-2.5c0-0.6-0.5-1.1-1.1-1.1h-0.6c-0.6,0-1.1,0.5-1.1,1.1v2.5
						C55.7,61.2,56.2,61.6,56.7,61.6z"/>
				</g>
			</g>
		</g>
		<g>
			<polygon class="st8" points="117.5,75 114.4,73.7 113.9,74.3 113.9,75.3 112.3,75.3 112.4,77.2 113.9,77.7 116.9,77.3 			"/>
			<g id="XMLID_148_">
				<g id="XMLID_335_">
					<g id="XMLID_349_">
						<g id="XMLID_351_">
							<path class="st1" d="M143.6,138.6c0.3-0.3,0.7-0.5,1.1-0.5c0.4,0.1,0.7,0.3,0.9,0.7c0.1,0.2,0.1,0.5,0.2,0.8
								c0.1,1.4,0.1,4.6-1.7,5.1c-0.8,0.2-1.4-0.3-1.6-1C142.1,142.6,142.5,139.7,143.6,138.6z"/>
						</g>
						<g id="XMLID_350_">
							<path class="st2" d="M142.9,117.9l0.1,8.3c-0.1,3.7,0.5,7.4,0.4,11.1c0,0.9-0.2,1.8,0,2.6c0.2,0.8,0.9,1,1.6,0.6
								c0.9-0.6,0.8-1.9,0.9-2.8c0.4-2.6,0.9-5.2,1.4-7.9c0.2-1.3-0.2-3.1-0.1-4.4l1.3-7L142.9,117.9z"/>
						</g>
					</g>
					<g id="XMLID_348_">
						<polygon class="st9" points="152.4,104.5 148.8,120.6 148,135.8 142.3,135.7 140.7,93.1 151.9,93.3 						"/>
					</g>
					<g id="XMLID_343_">
						<g id="XMLID_345_">
							<g id="XMLID_347_">
								<path class="st1" d="M135.3,138.3c0.3-0.3,0.7-0.5,1.1-0.4c0.4,0.1,0.7,0.4,0.9,0.7c0.1,0.2,0.1,0.5,0.1,0.8
									c0.1,1.4-0.1,4.6-1.9,5c-0.8,0.2-1.4-0.4-1.6-1.1C133.7,142.2,134.2,139.4,135.3,138.3z"/>
							</g>
							<g id="XMLID_346_">
								<path class="st2" d="M138.4,119.1l-0.5,8.3c0,2.3-0.3,4.6-0.6,6.9c-0.2,2.1,0.1,4.4-1,6.3c-0.3,0.6-1.1,1-1.6,0.3
									c-0.4-0.6-0.2-1.5-0.2-2.2c-0.3-2.6-0.7-5.3-1-7.9c-0.2-1.3,0.4-3.1,0.3-4.4l-1-7L138.4,119.1z"/>
							</g>
						</g>
						<g id="XMLID_344_">
							<polygon class="st9" points="131.1,103.5 130.6,119.1 133.1,135 138.9,135.2 138.7,118 141.8,103.8 142.8,94.5 133.5,93.4 
															"/>
						</g>
					</g>
					<g id="XMLID_342_">
						<polygon class="st3" points="138.4,61.4 148.4,61.1 154.2,71.9 152.2,82 151.8,94.1 137.5,94.3 132.8,93.6 134.1,80.6 
							133.4,63.4 						"/>
					</g>
					<g id="XMLID_341_">
						<polygon class="st3" points="138.1,67.9 132.8,78.3 127.2,79.4 116,77.7 117.3,74.2 127.7,74.2 133.5,63.4 						"/>
					</g>
					<g id="XMLID_336_">
						<g id="XMLID_340_">
							<path class="st2" d="M139,53c1.5-4.4,7.3-2.7,8.5,1.2c0.8,2.5-1.2,5.9-3.8,6.6c0,0.1,0,0.2,0,0.3c0,0.4-0.1,0.8-0.1,1.2
								c0,0.2-2.3-0.3-2.6-0.3c-0.1,0-0.2,0-0.2-0.1c-0.1-0.1,0.1-0.6,0.1-0.7c0-0.2,0-0.4,0.1-0.6c-1.3-0.6-2.1-2-2.4-3.4
								C138.3,55.7,138.6,54.3,139,53z"/>
						</g>
						<g id="XMLID_337_">
							<g id="XMLID_339_">
								<path class="st1" d="M142.8,49c0.3,0.3,0.4,0.8,0.5,1.2c0.1,0.3,0.1,0.5,0,0.8c-0.2,1-1.2,0.9-2,1.3c-0.9,0.4-1.8,1.1-2.3,2
									c-0.8,1.3-0.5,3-0.1,4.5c0.1,0.5,0.4,1.3,0,1.7c-0.4,0.5-1.3,0.4-1.8,0.2c-0.4-0.2-0.8-0.6-1.3-0.7
									c-0.5-0.1-1.2,0.1-1.4-0.3c-0.1-0.1-0.1-0.3-0.2-0.4c-0.3-0.4-1,0.1-1.4-0.2c-0.2-0.2-0.2-0.5-0.2-0.8
									c0.1-0.3,0.2-0.6,0.2-0.9c0-0.3-0.2-0.5-0.4-0.7c-0.2-0.5-0.1-1.1,0.2-1.5c0.6-0.7,1.9-0.6,2.5-1.3c0.4-0.4,0.5-0.9,0.6-1.4
									c0.1-0.5,0.3-1,0.7-1.3c0.5-0.4,1.1-0.3,1.6-0.8c0.3-0.3,0.4-0.7,0.8-0.9c0.4-0.3,1.2-0.6,1.7-0.7
									C141.4,48.2,142.2,48.4,142.8,49z"/>
							</g>
							<g id="XMLID_338_">
								<path class="st1" d="M146.5,56c0,1.4-0.7,3,0,4.3c0.7,1.3,2.3,1.5,3.8,1.6c0.2,0,3.2,0.3,3.3,0.2c0.2-1,0.5-2,1-2.9
									c0.5-0.9,1.4-1.6,2.4-1.7c-0.3-0.1-0.4-0.4-0.4-0.7c0-0.3,0.2-0.6,0.3-0.9c0.2-0.7,0-1.5-0.5-2c-1.1-1-3-0.6-3.9-1.7
									c-0.6-0.7-0.5-1.7-0.8-2.6c-0.6-1.7-2.4-2-3.8-2.8c-1.4-0.8-2.8-1.2-4.5-1c-2.1,0.3-3.6,2.4-2.8,4.4c1,2.5,5.1,2.3,5.9,4.9
									C146.5,55.4,146.5,55.7,146.5,56z"/>
							</g>
						</g>
					</g>
				</g>
				<g id="XMLID_334_">
					<polygon class="st9" points="145.5,61.3 142.4,65.7 140.9,65.6 138.5,61.1 					"/>
				</g>
			</g>
		</g>
		<g>
			<polygon class="st10" points="75.8,54.8 73.9,51.3 75.8,47.7 77.8,48.7 77.6,51.7 78.6,52.7 78.2,55.3 			"/>
			<g>
				<g>
					<g>
						<polygon class="st1" points="105.5,88.2 105.8,110.9 103.4,140.2 100.1,140.2 96.1,113.2 91.6,86.2 						"/>
						<polygon class="st1" points="100.1,141.6 103.7,143.3 105.4,141.6 103.7,139.8 100.1,139.8 						"/>
					</g>
					<g>
						<polygon class="st1" points="83,88.2 82.9,101.4 85.1,140.2 88.4,140.2 93.9,114.4 96.9,86.2 						"/>
						<polygon class="st1" points="88.4,141.6 84.8,143.3 83.1,141.6 84.8,139.8 88.4,139.8 						"/>
					</g>
				</g>
				<path class="st11" d="M79.5,96.1c-0.1,2.1,0,4.9,0.9,5c0.2,0,0.3-0.1,0.5-0.1c1.5-0.7,2.6-1.8,4.1-2.5c1.6-0.8,3.4-1.1,5.1-1.4
					c2.6-0.4,5.3-0.7,7.9-0.7c2.3,0,4.6,1,6.7,1.6c0.8,0.2,1.5,0.8,2.2,1.3c1,0.7,1.5,1,1.3-0.4c-0.2-2.3-0.5-4.6-0.7-6.9
					c-0.6-4.6-1.3-9.2-2.7-13.7c-0.5-1.7-1.1-3.4-1.7-5.1c-0.7-2-1.4-4.1-2.1-6.1c-0.9-2.5-2.3-4.3-4.9-5.2c-2.2-0.8-5-1-7.2,0.1
					c-2.4,1.2-3.6,5.3-4.7,7.4c-1,1.9-2.3,7.1-2.7,9.2c-0.5,2.5-0.9,4.9-1.2,7.4c-0.4,2.7-0.6,5.4-0.7,8.1
					C79.6,94.3,79.6,95.1,79.5,96.1z"/>
				<path class="st12" d="M91.4,62.2l4.4,0c0,0,4.8,16.7,4.9,19.6c0.2,2.8,1.4,14.3,1.4,14.3s-4.9,0.1-10.6,0.8
					c-5.6,1.2-6,0.5-6,0.5s3-12,3.1-15.5c0.1-3.5,0.6-15.2,0.6-15.2L91.4,62.2z"/>
				<g>
					<path class="st10" d="M92.6,62.2c0.1,0,0.1,0.1,0.2,0.1c0.1,0,0.3,0,0.4,0c0.6-0.1,1.2-0.1,1.8-0.2c-0.2-1.8,0.9-2.2,1.9-3.4
						c1-1.2,0.7-2.8,0.7-4.2c0-0.4,0-0.8-0.2-1.2c-0.3-0.6-1-1-1.7-1.2c-1.7-0.5-3.7-0.4-5.2,0.6c-0.4,0.3-0.8,0.6-1,1
						c-0.3,0.7-0.2,1.4-0.2,2.2c0.1,1.1,0.5,2.2,1.1,3.2c0.6,0.9,1.7,1.3,1.8,2.4C92.3,61.7,92.4,62,92.6,62.2z"/>
					<g>
						<path class="st1" d="M89.3,54.6c0.1,0.5,0.3,0.9,0.2,1.4c-0.7-0.2-1.2-1-1.4-1.7c-0.1-0.3-0.2-0.7-0.2-1.1
							c0-0.4,0.2-0.7,0.5-0.9c0.4-0.3,1.1-0.2,1.2,0.3C89.7,53.1,89.2,53.9,89.3,54.6z"/>
						<path class="st1" d="M85.5,50.6c0-0.5,0.2-1,0.7-1.4c0.4-0.3,0.9-0.5,1.2-1c0.2-0.3,0.2-0.8,0.4-1.1c0.4-0.6,1.1-0.8,1.8-1
							c1.7-0.5,2.6-1.2,4.3-0.5c1.3,0.5,2.9,0.6,4.1,1.3c0.5,0.3,0.9,0.8,1.2,1.3c1.2,1.8,1.5,4.4,0.7,6.4c-0.2,0.4-0.4,0.8-0.6,1.2
							c-0.5,0.8-1,1.7-1.8,2.1c-0.1-0.4-0.3-0.6-0.4-0.9c-0.1-0.3,0-0.5,0-0.8c0.1-1,0.4-2.6-0.6-3.1c-1.3-0.6-3.7-0.1-4.9,0.5
							c-1.1,0.5-2.9,1.1-4.1,0.6C86.4,53.7,85.5,51.8,85.5,50.6z"/>
					</g>
				</g>
			</g>
			<polygon class="st11" points="89,61.9 81.2,68.5 79.3,55 75.2,54.2 74.4,72.5 78.9,76.7 87,72.7 			"/>
		</g>
		<g>
			<g>
				<g id="XMLID_146_">
					<circle id="XMLID_147_" class="st13" cx="120.8" cy="94.7" r="28.1"/>
				</g>
				<g>
					<path class="st12" d="M127.4,75.9c-0.8-0.7-2-1.1-3.5-1.1c-1.2,0-2.3,0.3-3.3,0.8s-1.8,1.2-2.4,2.1c-0.6,0.9-0.8,1.8-0.8,2.8
						c0,1.2,0.4,2.1,1.3,2.9c0.8,0.7,2,1.1,3.5,1.1c1.2,0,2.3-0.2,3.3-0.8c1-0.5,1.8-1.2,2.3-2.1c0.6-0.9,0.8-1.8,0.8-2.8
						C128.7,77.6,128.2,76.7,127.4,75.9z"/>
					<path class="st12" d="M126.7,109.2c0,0-4.5,1.8-4.1-0.5l3.1-17.4c0.4-2.2-1.3-4.1-3.5-4.1h-4.9h-0.5h-3.2l-0.3,1.1
						c0,0,3.2,0.2,2.7,2.9c-1.1,6.3-3.1,17.8-3.1,17.8c-0.3,1.5,0.3,3.1,1.4,4.2c1.7,1.6,4.1,1.5,6.2,0.8c0.7-0.2,6.8-3,6.8-3
						L126.7,109.2z"/>
				</g>
				<path class="st14" d="M137,71.7c3.3,4.6,5.2,10.2,5.2,16.2c0,15.5-12.6,28.1-28.1,28.1c-6,0-11.6-1.9-16.2-5.2
					c5.1,7.2,13.5,11.9,22.9,11.9c15.5,0,28.1-12.6,28.1-28.1C148.9,85.2,144.2,76.8,137,71.7z"/>
			</g>
			<path class="st15" d="M127.1,70.7c0.1,0,0.3,0,0.4,0c-2.4-0.9-5.1-1.4-7.8-1.4c-7.7,0-14.6,3.8-18.7,9.7c-0.1,0-0.3,0.2-0.3,0.4
				v0c-2.5,3.7-4,8.1-4,12.9c0,0.1,0,0.2,0,0.3C100.9,79.8,112.9,70.7,127.1,70.7z"/>
		</g>
		<g>
			<path class="st11" d="M24.1,45.7c-0.6,4.9-0.1,12.7,5.2,23.3C34.6,79.5,40.5,84.6,44.9,87c3.1,1.8,7,1.8,10.3,0.1l1.9-0.9
				c1.5-0.8,2.2-2.5,1.4-3.9L54,73.5c-0.7-1.4-2.5-1.9-4-1.2l-2.6,1.3c-0.9,0.4-1.9,0.4-2.7,0c-4-2.3-7.2-8.8-7.2-8.8
				s-3.3-6.4-2.7-11c0.1-0.9,0.7-1.7,1.6-2.1l2.6-1.3c1.5-0.8,2.2-2.5,1.4-3.9L36,37.6c-0.7-1.4-2.5-1.9-4-1.2l-1.9,0.9
				C26.8,39,24.5,42.1,24.1,45.7z"/>
			<path class="st14" d="M27.4,64.8c0.6,1.3,1.2,2.7,1.9,4.2C34.6,79.5,40.5,84.6,44.9,87c3.1,1.8,7,1.8,10.3,0.1l1.9-0.9
				c0.5-0.2,0.9-0.6,1.1-1C41.5,88.1,27.6,65.2,27.4,64.8z"/>
		</g>
		<g id="XMLID_144_">
			<g id="XMLID_145_">
				<path class="st2" d="M43.8,91.5c0.5,0.6,2.4,1.6,3.3,1.4c2-0.5-0.4-1.9-1.1-2.5c0.3-0.2,0.6-0.3,0.8-0.6
					c0.2-0.2-2.4-1.5-2.8-1.4c-1,0.1-1.1,0.7-1.6,1.4C42.9,90.4,43.3,90.9,43.8,91.5z"/>
			</g>
		</g>
		<g>
			<path class="st5" d="M95.4,59.4c1.8,0,3.3-1.5,3.3-3.3h0.7c0,2.2-1.8,3.9-3.9,3.9V59.4z"/>
			<path class="st6" d="M93.7,59.2h1.2c0.3,0,0.6,0.3,0.6,0.6v0.1c0,0.3-0.3,0.6-0.6,0.6h-1.2c-0.3,0-0.6-0.3-0.6-0.6v-0.1
				C93,59.4,93.3,59.2,93.7,59.2z"/>
			<g>
				<path class="st5" d="M98.6,53.7V51c0-2.9-2.4-5.3-5.3-5.3c-2.9,0-5.3,2.4-5.3,5.3v2.7h-1.2V51c0-3.6,2.9-6.5,6.5-6.5
					s6.5,2.9,6.5,6.5v2.7H98.6z"/>
			</g>
			<g>
				<path class="st5" d="M85.3,53.2c-0.2,0.3-0.2,0.5-0.2,0.8v0.5V55c0,0.3,0,0.5,0.2,0.8l0.3,0.4v-1.6v-1.6L85.3,53.2z"/>
				<path class="st6" d="M87.4,56.9h-0.6c-0.6,0-1.1-0.5-1.1-1.1v-2.6c0-0.6,0.5-1.1,1.1-1.1h0.6c0.6,0,1.1,0.5,1.1,1.1v2.6
					C88.6,56.4,88,56.9,87.4,56.9z"/>
			</g>
			<g>
				<path class="st5" d="M101.5,53.2c0.2,0.3,0.2,0.5,0.2,0.8v0.5V55c0,0.3,0,0.5-0.2,0.8l-0.3,0.4v-1.6v-1.6L101.5,53.2z"/>
				<path class="st6" d="M99.4,56.9h0.6c0.6,0,1.1-0.5,1.1-1.1v-2.6c0-0.6-0.5-1.1-1.1-1.1h-0.6c-0.6,0-1.1,0.5-1.1,1.1v2.6
					C98.2,56.4,98.7,56.9,99.4,56.9z"/>
			</g>
		</g>
		<g>
			<path class="st5" d="M144.7,60.6c1.7,0,3.1-1.4,3.1-3.1h0.6c0,2.1-1.7,3.8-3.8,3.8V60.6z"/>
			<path class="st6" d="M143.1,60.4h1.2c0.3,0,0.6,0.3,0.6,0.6v0.1c0,0.3-0.3,0.6-0.6,0.6h-1.2c-0.3,0-0.6-0.3-0.6-0.6V61
				C142.5,60.7,142.7,60.4,143.1,60.4z"/>
			<g>
				<path class="st5" d="M147.8,55.2v-2.6c0-2.8-2.3-5-5-5c-2.8,0-5,2.3-5,5v2.6h-1.1v-2.6c0-3.4,2.8-6.1,6.1-6.1s6.1,2.8,6.1,6.1
					v2.6H147.8z"/>
			</g>
			<g>
				<path class="st5" d="M135.1,54.8c-0.2,0.3-0.2,0.5-0.2,0.7V56v0.5c0,0.2,0,0.4,0.2,0.7l0.3,0.4V56v-1.6L135.1,54.8z"/>
				<path class="st6" d="M137.1,58.3h-0.6c-0.6,0-1.1-0.5-1.1-1.1v-2.5c0-0.6,0.5-1.1,1.1-1.1h0.6c0.6,0,1.1,0.5,1.1,1.1v2.5
					C138.2,57.8,137.7,58.3,137.1,58.3z"/>
			</g>
			<g>
				<path class="st5" d="M150.5,54.8c0.2,0.3,0.2,0.5,0.2,0.7V56v0.5c0,0.2,0,0.4-0.2,0.7l-0.3,0.4V56v-1.6L150.5,54.8z"/>
				<path class="st6" d="M148.5,58.3h0.6c0.6,0,1.1-0.5,1.1-1.1v-2.5c0-0.6-0.5-1.1-1.1-1.1h-0.6c-0.6,0-1.1,0.5-1.1,1.1v2.5
					C147.4,57.8,147.9,58.3,148.5,58.3z"/>
			</g>
		</g>
		<polygon class="st10" points="107.6,43.1 106.7,39.4 103.5,38 102.9,40.2 104.6,42.3 104.8,44.2 		"/>
		<polygon class="st11" points="96.9,62.1 106.9,58.1 103.7,42.3 107.3,41.9 113.4,58.4 112.1,63.4 100.8,71 		"/>
		<path class="st4" d="M130.7,4.2L76.4,4.4c-2.8,0-5.1,2.3-5.1,5.1l0.1,26.9c0,2.8,2.3,5.1,5.1,5.1l37.6-0.2l8.9,12l1.6-12.1l6.2,0
			c2.8,0,5.1-2.3,5.1-5.1l-0.1-26.9C135.8,6.4,133.5,4.1,130.7,4.2z"/>
		<g>
			<g id="XMLID_143_">
				<polygon class="st2" points="149,86.4 149.9,87.8 148,90.4 145.9,90.2 144.8,88.5 146.1,87.6 146,87.2 146.2,86.6 				"/>
			</g>
			<g id="XMLID_142_">
				<polygon class="st3" points="148.8,61.9 159.9,74.6 160.4,80.2 149.5,88.8 147.5,86 154.6,78.4 147.7,71.7 				"/>
			</g>
		</g>
		<g>
			<g>
				<path class="st1" d="M181.3,144.5l2.8-2.6c0.8-0.4,1.7-0.7,2.4-0.7c0.5,0,0.9,0.2,1.2,0.6c0.2,0.4,0.3,0.9,0.1,1.3
					c-0.1,0.1-0.1,0.3-0.2,0.4l0,0l0,0c-0.1,0.1-0.2,0.2-0.3,0.3c-0.1,0.1-0.1,0.1-0.2,0.2c-0.6,0.6-1.6,1.7-2,1.9
					c-0.6,0.3-1.8,1.3-3.3,0.2c0,0,0,0,0,0C181.3,145.7,181.2,145.1,181.3,144.5z"/>
				<path class="st10" d="M183.5,121.8l0.2,3.3l1.1,16l-1.1,1.9c0,0-0.2,1.5,1.5,1.4c0.5,0,2.3-2.3,2.3-2.3l-0.3-1.1l1.3-12l0-3.5
					l0.6-3.9L183.5,121.8z"/>
			</g>
			<g>
				<path class="st1" d="M201.4,140.5c0.5-0.2,1-0.1,1.4,0.2c0.4,0.3,0.6,0.8,0.6,1.2c0,0.3-0.2,0.6-0.3,0.9
					c-0.7,1.5-2.6,4.8-4.8,4.2c-0.9-0.3-1.3-1.2-1.1-2C197.5,143.7,199.7,141,201.4,140.5z"/>
			</g>
			<path class="st10" d="M190.4,119.9l0.4,4.7l9.3,16.7c0,0-1.3,2.3-0.5,2.5c0.8,0.2,3.3-0.5,3.3-3.1c-1-3.2-4.8-14-4.8-14l-1.8-2.8
				l0-5.2L190.4,119.9z"/>
			<path class="st3" d="M200.8,104.1c0.1-1.4-0.4-5-0.8-6.3c-1.7-4.7-2-7.1-2-10.9c0-3.9-0.7-15.9-0.7-15.9l-3.5-3.7l-7.1,0.2
				l-4,1.3c0,0-0.8,15.4-1.1,20.4c-0.2,3.5-0.4,6.6-0.7,10.7c0,0-0.9,9.4,0.5,19.4c0,0,0.3,3.3,0.5,3.6c0,0.1,0,0.2,0,0.2h0.1h15.9
				v-5.7c0.5-1.8,1-3.7,1.5-5.5C199.9,109.3,200.7,106.7,200.8,104.1z"/>
			<path class="st13" d="M197.5,68.2l1.4,1.6c0,0-0.7,14.5-0.8,17c-0.1,2.5,3.1,12.3,3.1,12.3l-13.1,1.7c0,0-1.9-10.5-2.5-15.7
				s7.4-17.9,7.4-17.9L197.5,68.2z"/>
			<path class="st16" d="M184.3,68l-2.7,1.3c0,0,0.4,15.7-0.3,19.7c-0.4,2.4-2.1,10.3-2.1,10.3l4.2,1.5c0,0,2.6-9.8,3.1-15
				c0.5-5.2,0-18.2,0-18.2L184.3,68z"/>
			<g>
				<g>
					<path class="st1" d="M184.8,62.2c-0.3,1.3,0.5,2.7,1.2,3.8c0.3,0.5,0.7,1.1,0.4,1.6c-0.4,0.6-1.4,0.5-1.9,0
						c-0.3-0.3-0.5-0.7-0.6-1.2c-0.6-1.9-1.5-4.5-1.3-6.4c0.1-1.6,2.1-4.3,4-3.3c0.4,0.2,0.6,0.5,0.8,0.9c0.1,0.2,0.2,0.4,0.3,0.6
						c0.1,0.9-0.8,1.1-1.4,1.6C185.6,60.5,185.1,61.4,184.8,62.2z"/>
					<path class="st10" d="M188.1,67.1c-1.3-0.2-2.4-1.1-3-2.2c-0.6-1.1-0.7-2.4-0.7-3.6c0.1-4.1,5.6-4.4,7.7-1.4
						C194,62.4,192,67.5,188.1,67.1z"/>
					<path class="st1" d="M191.9,61.8c0,0.5,0.3,1,0.4,1.5c0.1,0.9-0.1,2.2,0.3,3c1-0.1,2.1-0.7,2.8-1.4c0.7-0.7,0.6-1.7,0.8-2.7
						c0.2-0.9,0.3-1.8,0.3-2.8c-0.3-5.1-5.4-7.9-9.9-5.6c-1.7,0.9-2.4,3.1-1.2,4.5c1.3,1.6,4.1,0.9,5.7,2
						C191.4,60.8,191.7,61.3,191.9,61.8z"/>
				</g>
				<path class="st10" d="M188,66.6c0.1,0.3,0.1,0.6,0.2,0.9c0,0.1,0,0.5,0.1,0.6c0.1,0.1,0.2,0,0.2,0c0.2,0,2.4-0.3,2.3-0.4
					c-0.1-0.4-0.1-0.7-0.2-1.1c-0.1-0.3-0.1-0.8-0.3-1c-0.4,0.2-0.7,0.4-1.2,0.5C188.8,66.4,188.4,66.5,188,66.6
					C188,66.6,188,66.6,188,66.6z"/>
			</g>
			<polygon class="st10" points="179.5,48.5 180.8,44.6 184.3,43.5 184.7,45.8 182.7,47.9 182.3,49.9 			"/>
			<polygon class="st13" points="186.5,71.5 179.2,64.7 183.6,48 179.9,47.3 172.1,64 173,69.3 184.2,78.3 			"/>
			<g>
				<path class="st5" d="M187.3,66.9c-1.8,0-3.2-1.4-3.2-3.2h-0.6c0,2.1,1.7,3.8,3.8,3.8V66.9z"/>
				<path class="st6" d="M189,66.6h-1.2c-0.3,0-0.6,0.3-0.6,0.6v0.1c0,0.3,0.3,0.6,0.6,0.6h1.2c0.3,0,0.6-0.3,0.6-0.6v-0.1
					C189.6,66.9,189.3,66.6,189,66.6z"/>
				<g>
					<path class="st5" d="M184.1,61.3v-2.6c0-2.8,2.3-5.2,5.2-5.2s5.2,2.3,5.2,5.2v2.6h1.1v-2.7c0-3.5-2.8-6.3-6.3-6.3
						s-6.3,2.8-6.3,6.3v2.7H184.1z"/>
				</g>
				<g>
					<path class="st17" d="M197.1,60.8c0.2,0.3,0.2,0.5,0.2,0.7v0.5v0.5c0,0.2,0,0.4-0.2,0.7l-0.3,0.4v-1.6v-1.6L197.1,60.8z"/>
					<path class="st6" d="M195.1,64.4h0.6c0.6,0,1.1-0.5,1.1-1.1v-2.5c0-0.6-0.5-1.1-1.1-1.1h-0.6c-0.6,0-1.1,0.5-1.1,1.1v2.5
						C193.9,63.9,194.4,64.4,195.1,64.4z"/>
				</g>
				<g>
					<path class="st17" d="M181.4,60.8c-0.2,0.3-0.2,0.5-0.2,0.7v0.5v0.5c0,0.2,0,0.4,0.2,0.7l0.3,0.4v-1.6v-1.6L181.4,60.8z"/>
					<path class="st6" d="M183.4,64.4h-0.6c-0.6,0-1.1-0.5-1.1-1.1v-2.5c0-0.6,0.5-1.1,1.1-1.1h0.6c0.6,0,1.1,0.5,1.1,1.1v2.5
						C184.5,63.9,184,64.4,183.4,64.4z"/>
				</g>
			</g>
			<g>
				<g>
					<g>
						<path class="st11" d="M169.1,56.4c-1.6-0.4-3.1-0.2-4.5,0.7c-1.4,0.9-2.3,2.1-2.7,3.7c-0.4,1.6-0.2,3.1,0.7,4.5
							c0.9,1.4,2.1,2.3,3.7,2.7c0.6,0.2,1.3,0.2,1.9,0.2c0.9-0.1,1.8-0.4,2.7-0.9c1.4-0.9,2.3-2.1,2.7-3.7c0.4-1.6,0.2-3.1-0.7-4.5
							C172,57.7,170.8,56.8,169.1,56.4z"/>
					</g>
					<g class="st18">
						<g>
							<path d="M172.9,59.1c-0.9-1.4-2.1-2.3-3.7-2.7c-0.5-0.1-1-0.2-1.5-0.2c1,0.5,1.9,1.2,2.5,2.3c0.9,1.4,1.1,2.9,0.7,4.5
								c-0.4,1.6-1.3,2.9-2.7,3.7c-0.8,0.5-1.7,0.8-2.7,0.9c-0.1,0-0.2,0-0.3,0c0.4,0.2,0.8,0.3,1.2,0.4c0.6,0.2,1.3,0.2,1.9,0.2
								c0.9-0.1,1.8-0.4,2.7-0.9c1.4-0.9,2.3-2.1,2.7-3.7C174,62,173.7,60.5,172.9,59.1z"/>
						</g>
					</g>
					<g>
						<path class="st11" d="M199.7,15.2c-2.8-4.1-7.1-7-13-8.4c-5.8-1.4-11-0.9-15.4,1.5c-3.8,2.1-6.5,5.4-8,9.8
							c-0.2,0.7-0.2,1.6,0.2,2.2c0.4,0.7,1,1.2,1.8,1.4l3.5,0.8c1.4,0.3,2.8-0.4,3.3-1.8c0.9-2.4,2.2-4.1,4.1-5.1
							c2.3-1.3,5.2-1.5,8.5-0.7c3.3,0.8,5.8,2.4,7.2,4.6c1.4,2.2,1.7,5,0.9,8.3c-1.1,4.5-3.1,7.2-6,8.1c-3.1,0.9-7.5,0.7-13.1-0.8
							l-1.5-0.4c-1.5-0.4-3,0.6-3.4,2.1l-3.2,13.1c-0.2,0.7-0.1,1.5,0.3,2.1c0.4,0.6,1,1.1,1.7,1.3l3.5,0.8c0.3,0.1,0.6,0.1,0.8,0.1
							c1.2-0.1,2.2-0.9,2.5-2.1l2-8.5c0-0.1,0.1-0.2,0.2-0.2c6.6,1.4,12,1.2,16-0.7c4.3-2,7.2-6.1,8.7-12.2
							C203.2,24.5,202.5,19.3,199.7,15.2z"/>
					</g>
					<g class="st18">
						<g>
							<path d="M199.7,15.2c-2.8-4.1-7.1-7-13-8.4c-3.6-0.9-7-1-10.1-0.4c1.6,0.1,3.4,0.3,5.1,0.7c5.8,1.4,10.2,4.2,13,8.4
								c2.8,4.2,3.4,9.4,2,15.5c-1.5,6.1-4.4,10.2-8.7,12.2c-1.2,0.6-2.6,1-4.1,1.3c3.5,0.1,6.5-0.4,9-1.6c4.3-2,7.2-6.1,8.7-12.2
								C203.2,24.5,202.5,19.3,199.7,15.2z"/>
						</g>
					</g>
				</g>
			</g>
			<g>
				<g>
					<g>
						<path class="st1" d="M191,115.7l-23.2-0.8c-0.2,0-0.3-0.2-0.3-0.4l1.3-39.5c0-0.2,0.2-0.3,0.4-0.3l23.2,0.8
							c0.2,0,0.3,0.2,0.3,0.4l-1.3,39.5C191.3,115.6,191.1,115.7,191,115.7z"/>
					</g>
					
						<rect x="163.8" y="83.4" transform="matrix(3.239919e-02 -0.9995 0.9995 3.239919e-02 80.714 270.5165)" class="st19" width="32.5" height="20.3"/>
					<path class="st19" d="M181.9,113.8l-4.9-0.2c-0.1,0-0.2-0.1-0.2-0.2l0-1.3c0-0.1,0.1-0.2,0.2-0.2l4.9,0.2
						c0.1,0,0.2,0.1,0.2,0.2l0,1.3C182.1,113.7,182,113.8,181.9,113.8z"/>
				</g>
			</g>
			<g>
				<polygon class="st10" points="196,93.4 194.4,97.1 190.8,97.9 190.6,95.5 192.7,93.6 193.3,91.7 				"/>
				<polygon class="st13" points="194.4,70.6 199.3,81.4 193.3,91.7 195.8,94 204.2,83.4 205.5,79.8 198.8,69.8 				"/>
			</g>
		</g>
		<g>
			<polygon class="st2" points="64.2,61.2 63.8,59.7 64.2,59.3 65,60 65.9,58 67.5,57.1 68.4,58 67,60.1 66.1,61.4 65.3,64.2 
				64,63.8 			"/>
			<path class="st4" d="M62.2,69.4c0.5-2.5,0.9-5.1,1.2-7.6c1.1-0.1,2.2,0.1,3.1,0.5c0.3,4.5,0.1,9-0.6,13.5c0,0.2-0.1,0.4-0.2,0.5
				c-0.1,0.1-0.3,0.1-0.5,0.1c-1.6,0-3.1-0.5-4.6-1c-2.3-0.8-4.5-1.7-6.7-2.7c0.2-1.4,0.3-2.8,0.2-4.2c-0.2-1.9,0.2-4.5,2.6-3.1
				C57.3,65.9,62.3,68.9,62.2,69.4z"/>
		</g>
	</g>
</g>
</svg>
