<?xml version="1.0" encoding="utf-8"?>
<!-- Generator: Adobe Illustrator 25.4.1, SVG Export Plug-In . SVG Version: 6.00 Build 0)  -->
<svg version="1.1" id="Слой_1" xmlns="http://www.w3.org/2000/svg" xmlns:xlink="http://www.w3.org/1999/xlink" x="0px" y="0px"
	 viewBox="0 0 225 150" style="enable-background:new 0 0 225 150;" xml:space="preserve">
<style type="text/css">
	.st0{fill:#EBF3FA;}
	.st1{fill:#DFEBFD;}
	.st2{fill:#CDE0FB;}
	.st3{fill:#FFB27D;}
	.st4{fill:#233862;}
	.st5{fill:#E8945B;}
	.st6{fill:#163560;}
	.st7{fill:#1C468A;}
	.st8{fill:#F99746;}
	.st9{fill:#F1A34F;}
	.st10{fill:#D86713;}
	.st11{fill:#D9935C;}
	.st12{fill:#466AA5;}
	.st13{fill:#FFFFFF;}
	.st14{fill:#9EC3F6;}
	.st15{fill:#EF7F1A;}
	.st16{fill:#F4A269;}
	.st17{fill:#C65447;}
	.st18{fill:#1E1E1E;}
	.st19{fill:#B5453C;}
	.st20{fill:#2B478B;}
	.st21{fill:#9E332E;}
	.st22{fill:#EA9963;}
	.st23{fill:#ED7D2B;}
	.st24{fill:#4A75CB;}
	.st25{fill:#2D2D2D;}
	.st26{fill:#ED975D;}
	.st27{fill:#2E3552;}
	.st28{fill:#EBF3FF;}
</style>
<g>
	<path class="st0" d="M218.4,121l-40.5-0.1l-18.5,0l-4,0l-14.4,0l-17.6,0l-15.3,0h-0.9l-4,0l-35.3-0.1l-17.7,0l-1.7,0l-9.7,0
		l-25.3-0.1c0,0-31.4-59.4,11-81.4C79.2,10.8,118.1,51.6,139.1,50C169.9,47.7,230.1,30.5,218.4,121z"/>
	<g>
		<path class="st1" d="M153.8,73c0,0,10.4-15.9,14.9-13.8C173.1,61.3,153.8,73,153.8,73z"/>
		<path class="st1" d="M153.4,75.7c0,0,22.3-17,29.6-12.5s-5.6,6.8-10.5,7.2C167.7,70.9,153.4,75.7,153.4,75.7z"/>
		<path class="st1" d="M151.7,73.2c0,0,0-0.7-0.1-1.6c-0.1-1.9-0.3-4.9-0.6-6.4c-0.4-2.3,1-4.4,3.6-2.5c2.6,1.9-2.3,9.7-2.3,9.7
			L151.7,73.2z"/>
	</g>
	<path class="st2" d="M76.4,120.5l-10.2,0c-0.3-0.1-0.6,0-1,0l-5.6,0c-2-1.5-2.3-6-2.3-6c1.7,1.2,5.3,1.3,5.7,0.7
		c0.3-0.6-4.6-2.2-5.3-2.6c-0.7-0.4-1.5-2.4,0.3-5.2c1.8-2.8,6.7-0.1,6.7-0.1s1.8,6.5,2.7,7c1,0.5-0.4-5.9-0.4-5.9
		c2,0.5,6.3,4.6,6.3,4.6s-2.4,6.2-1.3,6.4c1.1,0.2,1.8-5.6,1.8-5.6c1.7,1.2,2.8,4,2.8,4C77,118.9,76.9,119.8,76.4,120.5z"/>
	<path class="st1" d="M28.1,50.5c2.6-4.4,10.1-0.8,10.1-0.8s3.2,9.7,4.7,10.4c1.5,0.6-1.1-8.9-1.1-8.9c3.1,0.5,9.9,6.4,9.9,6.4
		s-3.1,9.5-1.5,9.8c1.6,0.2,2.3-8.6,2.3-8.6c2.7,1.7,4.6,5.9,4.6,5.9c1.9,6.6-6.6,8.7-6.6,8.7s-1,3.3,0,7.7l0,0c0,0,0.3,0.8,0.4,2.2
		L50.3,83c0-0.2,0-0.5-0.1-0.7c0,0,0,0,0,0v0c0-0.1-0.1-0.3-0.1-0.6l0,0l0,0c-0.1-0.5-0.2-1-0.2-1.2l0,0c-0.3-1.7-0.9-4-1.5-4.6
		c0,0,0.1-0.1,0.3-0.3c-0.1,0.1-0.2,0.2-0.3,0.3c-2.2,2.6-9.2,1.2-12.8-0.6c-3.6-1.8-1.7-2.5,0.9-3.7c2.5-1.2,6.8,0.4,8.2,0.1
		c1.5-0.3-0.2-1.5-2.8-2c-2.6-0.5-4.6,1.7-8.8,1c-4.2-0.7-5.3-9.4-5.3-9.4c2.6,1.7,8.2,1.5,8.6,0.5s-7.2-2.9-8.3-3.5
		C27,57.8,25.5,54.9,28.1,50.5z"/>
	<path class="st1" d="M86.8,72.7c3-4.1,10.1,0.3,10.1,0.3s2.2,10,3.6,10.7c1.4,0.8-0.2-8.9-0.2-8.9c3.1,0.8,9.2,7.3,9.2,7.3
		s-4,9.1-2.4,9.5c1.6,0.4,3.1-8.3,3.1-8.3c2.5,1.9,3.9,6.3,3.9,6.3c1.3,6.7-7.4,8-7.4,8s-1.3,3.2-0.7,7.6l0,0c0,0,0.2,0.9,0.2,2.2
		l-0.8-0.3c0-0.2,0-0.5,0-0.7c0,0,0,0,0,0v0c0-0.1,0-0.3,0-0.6l0,0l0,0c-0.1-0.6-0.1-1-0.1-1.2l0,0c-0.2-1.7-0.5-4-1-4.7
		c0,0,0.1-0.1,0.3-0.3c-0.1,0.1-0.2,0.2-0.3,0.3c-2.4,2.3-9.2,0.3-12.7-1.9c-3.4-2.2-1.4-2.6,1.2-3.5c2.6-0.9,6.6,1.1,8.1,0.9
		c1.5-0.2-0.1-1.5-2.6-2.3c-2.5-0.8-4.7,1.3-8.8,0.1c-4.1-1.1-4.3-9.8-4.3-9.8c2.4,1.9,7.9,2.3,8.5,1.4c0.6-0.9-6.8-3.6-7.8-4.3
		C85,79.8,83.9,76.8,86.8,72.7z"/>
	<g>
		<path class="st1" d="M106.6,115.4c0,0-1.1,3.8-0.9,5.2l-4.1,0c-0.1-0.8,0.1-1.7,0.8-2.6C102.5,118,104.5,115.8,106.6,115.4z"/>
		<path class="st1" d="M122.1,120.7l-15.4,0c0.6-1.6,0.8-5.8,0.8-5.8s5.5-2,7.6-1.7c0,0-3.8,5.2-2.7,5.2s5.3-5.3,5.3-5.3
			s5.5-0.5,6.1,2.8C124.1,118.8,122.9,120.3,122.1,120.7z"/>
	</g>
	<path class="st1" d="M154.5,120.8l-14.6,0c0.9-0.4,2.2-0.8,3.5-1.2C146.7,118.4,151.2,119.9,154.5,120.8z"/>
	<path class="st1" d="M161.9,120.8l-13.2,0c0.3-0.6-1.4-1.8-3.9-2.5c-3.1-1-5.8,1.5-10.9,0c-5.1-1.5-5.2-12.1-5.2-12.1
		c3,2.4,9.7,2.9,10.4,1.8c0.7-1.1-8.3-4.5-9.6-5.4c-1.3-0.9-2.6-4.6,1.1-9.6c3.7-5,12.4,0.5,12.4,0.5s2.5,12.3,4.3,13.2
		c1.8,1-0.1-10.9-0.1-10.9c3.7,1.1,11.2,9.1,11.2,9.1s-5.1,11.2-3.1,11.7c2,0.5,4-10.1,4-10.1c3.1,2.4,4.7,7.8,4.7,7.8
		C164.7,117.3,163.6,119.4,161.9,120.8z"/>
	<g>
		<g>
			<g>
				<g>
					<path class="st3" d="M37.1,86.7c0,0-0.4-0.9-0.3-0.9c0.1-0.1,0.4-0.1,0.4,0.1C37.2,86,37.1,86.7,37.1,86.7z"/>
					<path class="st4" d="M31,76.3c0,0-2.4-2.8-3.6-1c0,0-0.9,0.4-1.3,2c-0.3,1.6,0.7,2.9,1.3,2.6c0.4-0.2,0.6,0.4,0.6,0.4L31,76.3z
						"/>
					<path class="st3" d="M34,91.4c1.9-0.7,3.7-3.9,3.7-3.9l-0.6-0.4c-0.5,0.7-2.7,2.1-2.7,2.1c-0.1-0.6-0.1-1.2-0.2-1.7
						c-0.6-3.4-2-4.4-2.4-4.6c-0.1,0-0.1,0-0.1,0s0,0,0,0.1c0,0.1,0,0.3,0,0.6C31.8,85.7,32.4,92,34,91.4z"/>
					<path class="st4" d="M27.7,75c0,0-0.3-1.3-2.2-0.9c0,0,0.9-0.1,1.1,0.2c0,0-0.7-0.3-1.2-0.1C25,74.6,25,75.5,25,75.8
						s0.6,1.1,0.9,1.1c0.3,0,0.7-0.3,0.7-0.3L27.7,75z"/>
					<path class="st3" d="M24.9,94.9c0.9-2.1,1.4-2.7,1.4-3.3c0-0.5-0.2-1.1-0.7-2.5c-0.1-0.3-0.2-0.7-0.2-1
						c-0.4-2.6,1.1-5.5,2.1-5.7c0.3-0.1,0.7-1,0.7-2.6l0.1,0l2,0.4c0,0,0,0.6,0,1.2c0,0.5,0,1,0.1,1c0.1,0,0.2,0,0.2,0
						s1.7,2.3,1.8,4.5c0.1,2.2-1.3,3.1,0,7.4C33.7,98.9,24.4,96.1,24.9,94.9z"/>
					<path class="st5" d="M30.2,80.3c0,0,0,0.6,0,1.2c-1.1,0-1.7-1.1-2-1.6L30.2,80.3z"/>
					<path class="st4" d="M28,79.7c0,0-0.6-0.9-0.7-1.7c-0.1-0.6,0.2-2.7,2.3-2.4c0,0,0.6,0.1,1.2,0.5c0.5,0.3,1.1,1,0.4,2.8
						l-0.2,0.6L28,79.7z"/>
					<path class="st3" d="M30.6,80.9c0,0-2.6,0-2.7-1.6c0-1.7-0.3-2.8,1.4-2.9c1.7-0.1,2,0.5,2.2,1.1C31.6,78,31.3,80.8,30.6,80.9z"
						/>
					<path class="st4" d="M30.5,76.4c0,0-0.7,1.9-1.8,2.2c-1.1,0.3-1.6,0-1.6,0s0.9-0.7,1-1.9C28.1,76.7,29.9,75.4,30.5,76.4z"/>
					<path class="st4" d="M30.3,76.5c0,0,0.5,0.4,0.7,0.9c0.1,0.4,0.2,1.3,0.4,1.3c0,0,0.5-1.3-0.1-2.1
						C30.7,75.8,30.3,76.5,30.3,76.5z"/>
					<path class="st6" d="M27.2,114.9c0.7,2.7,1.7,4.7,1.7,4.7l0.9-0.1c0,0-0.4-2-0.4-4.8c0-1.9,0.3-4.2,1-6.4
						c2.6-7.5,2.2-12.9,2.2-12.9l-4.9,0.6l-0.2,0c0,2.3-0.1,5.3-0.1,7.7c0,2.2-0.1,3.8-0.1,3.8C26.3,109.6,26.6,112.5,27.2,114.9z"
						/>
					<path class="st3" d="M21.4,97.1l0.8,0.2c0,0,2.6-4.4,2.9-5.5c0.1-0.4,0.3-1.1,0.5-1.9c0.5-1.7,1.1-3.8,1.1-3.8l0.2-0.8l0.7-2.9
						c0,0-1.3,0.1-2,0.4c-0.2,0.1-0.4,0.2-0.5,0.4c-0.5,1.2-1.1,4.3-1.5,6.4c-0.2,1.2-0.4,2.2-0.5,2.4
						C22.8,92.6,22.1,95.6,21.4,97.1z"/>
					<path class="st7" d="M24.4,114.5c0.3,3,1.5,5,1.5,5l0.4,0.3c0,0,0.4-2.1,0.7-4.7c0.3-2.4,0.6-5,1-5.7
						c1.6-3.1,2.1-14.7,2.1-14.7l-5-0.2c-0.5,0.8-0.7,2.2-0.8,3.8c-0.1,4,0.8,9.1,0.9,9.9l0,0c0,0.1,0,0.1,0,0.2
						C24.4,110.3,24.2,112.5,24.4,114.5z"/>
					<path class="st4" d="M30.4,76.6c0,0-0.5,2-1.9,2.7c0,0,1.4-1.2,1.5-2.6C30.1,75.3,30.4,76.6,30.4,76.6z"/>
					<path class="st8" d="M24.3,96.4c0,0.2,0,0.3,0,0.4c0.1,0.3,0.5,0.5,1.4,0.4c0.5-0.1,0.8-1,0.9-1.7c0.3,1.1,0.8,1.7,1.4,1.9
						c0.9,0.2,5.2,0.7,5.4-1.3c0.3-2.3-0.6-6.2-0.7-8.4c0.1-0.8,0.2-1.4,0.2-2c0-1.5-0.5-2.4-0.8-2.7c-0.1-0.1-0.2-0.1-0.6-0.2
						c-0.2,0-0.5-0.1-0.9-0.1c0,0-0.2,0-0.2,0c0.1,0.1,1.1,1.6,1,2c-0.1,0.4-3.5,0-3.8-0.2c-0.2-0.2-0.6-1.9-0.6-1.9
						s-1.2,0.1-1.8,0.6c0,0,0,0,0,0c-0.1,0.1-0.1,0.1-0.2,0.2c-0.6,1.2-1.3,4.3-1.7,6.5c1.1,0.6,2,0.4,2.3,0.3
						C25.2,92.6,24.3,95.3,24.3,96.4z"/>
					<path class="st3" d="M37.1,87.1c0-0.1-0.1-1.3,0.1-1.5S37.9,85,38,85c0.1,0,0.7,0.7,0.5,1.3c-0.2,0.5-0.8,1.3-0.8,1.3
						L37.1,87.1z"/>
					<g>
						<path class="st9" d="M36.1,85.7l1.2,0.4c0,0,0.1,0,0.1-0.1l0.7-2.3c0,0,0-0.1-0.1-0.1l-1.2-0.4c0,0-0.1,0-0.1,0.1L36.1,85.7
							C36.1,85.6,36.1,85.6,36.1,85.7z"/>
						<path class="st10" d="M36.4,85.8l1.1,0.3c0.1,0,0.2,0,0.2-0.1l0.7-2.2c0-0.1,0-0.2-0.1-0.2l-1.1-0.3c-0.1,0-0.2,0-0.2,0.1
							l-0.7,2.2C36.3,85.7,36.4,85.7,36.4,85.8z"/>
					</g>
					<path class="st3" d="M24.4,114.5c0.3,3,1.5,5,1.5,5l0.4,0.4c0,0,0.4-2.2,0.7-4.7C26.7,115.1,25.4,115.2,24.4,114.5z"/>
					<path class="st11" d="M27.2,114.9c0.7,2.7,1.7,4.7,1.7,4.7l0.9-0.1c0,0-0.4-2-0.4-4.8C29.1,114.9,28.5,115.1,27.2,114.9z"/>
					<g>
						<path class="st4" d="M28.4,120.4H29c0.2,0,0.3-0.1,0.5-0.1c0.3,0,0.4,0.1,0.5,0.1c0,0,0,0,0,0h2.4c0.1-0.1,0-0.3-0.1-0.4
							c0-0.1-0.1-0.2-0.2-0.2c-0.2-0.1-0.8-0.1-1.2-0.5c-0.3-0.2-1.2-0.8-1.2-0.8h0c0,0-0.1,0-0.6,0.4c-0.2,0.2-0.6-0.3-0.6-0.3
							s-0.1,0.1-0.1,0.2c0,0.1-0.1,0.2-0.1,0.4c0,0.2-0.1,0.6-0.2,0.9c-0.1,0.2-0.1,0.3-0.1,0.3S27.9,120.3,28.4,120.4z"/>
						<path class="st12" d="M28.3,118.6c0.1,0.1,0.4,0.3,0.6,0.3c0.3,0,0.7-0.6,0.7-0.6h0c0,0-0.1,0-0.6,0.4
							c-0.2,0.2-0.6-0.3-0.6-0.3S28.3,118.5,28.3,118.6z"/>
						<path class="st12" d="M28.4,120.4H29c0.2,0,0.3-0.1,0.5-0.1c0.3,0,0.4,0.1,0.5,0.1c0,0,0,0,0,0h2.4c0.1-0.1,0-0.3-0.1-0.4
							c-0.1-0.1-0.1,0.3-0.1,0.3c0,0.1-1.9,0-2-0.1c-0.1-0.1-0.4-0.2-0.9-0.1c-0.4,0.1-1-0.2-1.1-0.2c-0.1,0.2-0.1,0.3-0.1,0.3
							S27.9,120.3,28.4,120.4z"/>
					</g>
					<g>
						<path class="st4" d="M25.4,120.4H26c0.2,0,0.3-0.1,0.5-0.1c0.3,0,0.4,0.1,0.5,0.1c0,0,0,0,0,0h2.4c0.1-0.1,0-0.3-0.1-0.4
							c0-0.1-0.1-0.2-0.2-0.2c-0.3-0.1-0.8-0.1-1.2-0.5c-0.3-0.2-1.2-0.8-1.2-0.8h0c0,0-0.1,0-0.6,0.4c-0.2,0.2-0.6-0.3-0.6-0.3
							s-0.1,0.1-0.1,0.2c0,0.1-0.1,0.2-0.1,0.4c0,0.2-0.1,0.6-0.2,0.9c-0.1,0.2-0.1,0.3-0.1,0.3S24.9,120.3,25.4,120.4z"/>
						<path class="st12" d="M25.3,118.6c0.1,0.1,0.4,0.3,0.6,0.3c0.3,0,0.7-0.6,0.7-0.6h0c0,0-0.1,0-0.6,0.4
							c-0.2,0.2-0.6-0.3-0.6-0.3S25.3,118.5,25.3,118.6z"/>
						<path class="st12" d="M25.4,120.4H26c0.2,0,0.3-0.1,0.5-0.1c0.3,0,0.4,0.1,0.5,0.1c0,0,0,0,0,0h2.4c0.1-0.1,0-0.3-0.1-0.4
							c-0.1-0.1-0.1,0.3-0.1,0.3c0,0.1-1.9,0-2-0.1c-0.1-0.1-0.4-0.2-0.9-0.1c-0.4,0.1-1-0.2-1.1-0.2c-0.1,0.2-0.1,0.3-0.1,0.3
							S24.9,120.3,25.4,120.4z"/>
					</g>
					<path class="st8" d="M31.8,82.8c0,0,1.7,0.8,2.2,4.2c0,0-0.5,0.7-1.3,1c-0.1,0-0.2,0.1-0.3,0.1C31.5,88.1,31.8,82.8,31.8,82.8z
						"/>
					<path class="st3" d="M38.1,85.1c0,0-0.5-0.8-0.6-0.7c-0.2,0.1,0.5,1.1,0.5,1.1s-0.5-0.7-0.5-0.7c-0.2,0.1,0.1,0.6,0.4,1
						c0,0-0.5-0.4-0.5-0.4c-0.1,0.3,0.5,0.9,0.5,0.9l0.3-0.7L38.1,85.1L38.1,85.1z"/>
					<path class="st3" d="M38.5,85.8c0-0.1-0.2-2-0.2-1.8c-0.1,0.2-0.2,1.2-0.2,1.2L38.5,85.8z"/>
				</g>
			</g>
			<path class="st13" d="M30.1,79.9c0,0,0,0.2,0.5,0.2c0,0,0.4,0,0.4-0.2C31,79.8,30.6,79.6,30.1,79.9z"/>
		</g>
		<path class="st3" d="M21.4,97.1c0,0-1,0.6-1.1,0.9c-0.2,0.3-0.5,1.3-0.5,1.3s0.2,0,0.5-0.4c0.2-0.4,1.1-0.4,1.3-0.6
			c0.3-0.2,0.6-0.9,0.6-0.9L21.4,97.1z"/>
		<path class="st3" d="M22.1,97.6c0,0-0.2,0.8-0.4,1s-0.5,0.6-0.6,0.5c-0.1-0.1,0.1-0.9,0.1-0.9L22.1,97.6z"/>
		<path class="st3" d="M20.5,98.1c0,0-0.9,0.9-0.9,0.9s0.3,0.1,0.4,0C20.1,98.9,20.5,98.1,20.5,98.1z"/>
	</g>
	<g>
		<polygon class="st14" points="90,53.9 97.8,55.1 92.6,51.5 92.4,52.6 90.4,52.9 		"/>
		<polygon class="st13" points="97.8,55.1 91.3,51.7 84.9,51.3 		"/>
		<polygon class="st13" points="92.6,51.5 97.8,55.1 93.8,49.5 		"/>
	</g>
	<g>
		<polygon class="st14" points="204.6,76.4 198.2,77.3 202.4,74.4 202.6,75.3 204.2,75.6 		"/>
		<polygon class="st13" points="198.2,77.3 203.5,74.5 208.7,74.3 		"/>
		<polygon class="st13" points="202.4,74.4 198.2,77.3 201.4,72.7 		"/>
	</g>
	<path class="st15" d="M44,69.3h39v10.2H55.3v10.9h24.4v10.2H55.3v19.8H44V69.3z"/>
	<path class="st15" d="M99.9,70.3H110l21.3,50.2h-11.5l-4.6-11.2h-21l-4.6,11.2H78.6L99.9,70.3z M111.5,99.6l-6.6-16.2l-6.6,16.2
		H111.5z"/>
	<path class="st15" d="M172,116c-4.2,2.7-9.2,4.3-14.8,4.3c-15.4,0-26.4-11.5-26.4-25.8c0-14.2,11.2-25.8,26.5-25.8
		s26.4,11.5,26.4,25.8c0,5.2-1.6,10.2-4.4,14.3l5.1,4.3l-7,7.8L172,116z M163.9,108.9c0,0,5-2.6,7-7.3c0.9-2.1,1.4-4.3,1.4-7
		c0-8.5-6.3-15.6-15.1-15.6s-14.9,7-14.9,15.6c0,8.5,6.3,15.6,15.1,15.6C159.8,110.2,162,109.7,163.9,108.9z"/>
	<g>
		<path class="st16" d="M157.8,93.8c0,0-0.8,1.2-1.3,3.9c-0.4,2.3-0.8,3.1-1.4,3.6c-0.6,0.5-4,1.9-4,1.9l0.3,0.6
			c0,0,4.9-0.7,5.5-1.5c0.6-0.8,2.7-5.7,2.5-6.8C159.2,94.3,157.8,93.8,157.8,93.8z"/>
		<g>
			<path class="st3" d="M144.1,119.9c-0.1,0.5-0.7,0.5-1.5,0.4c-0.8-0.1-0.6,0.1-1.7,0.1c-1.1,0-1.4-0.4-1.5-0.5
				c0-0.1,0.5-0.2,1-0.4c0.1,0,0.1,0,0.2,0c0.6-0.1,1.1-0.6,1.6-1c0.5-0.4,1.2-1.8,1.2-1.8l1.5,0c0,0-0.7,1.2-0.9,1.8
				c-0.2,0.3-0.1,0.7-0.1,1C144.1,119.6,144.1,119.8,144.1,119.9z"/>
			<path class="st17" d="M142.6,120.3c-0.8-0.1-0.6,0.1-1.7,0.1c-1.1,0-1.4-0.4-1.5-0.5c0-0.1,0.5-0.2,1-0.4l0,0
				c0,0,0.7,0.4,1.6,0.3c0.7-0.1,1.5-0.3,2-0.4c0,0.2,0.1,0.3,0,0.5C144,120.4,143.4,120.4,142.6,120.3z"/>
		</g>
		<path class="st18" d="M160.1,103.9c0,0-9.7,0-11.5,1.2s-5.9,12.9-5.9,12.9s0.3,0.4,0.7,0.5c0.6,0.1,1-0.2,1-0.2s5.5-5.5,5.8-7
			c0.3-1.5,0.2-2.8,0.9-2.9c0.7,0,9,1,10.3-1.2c1.3-2.2,0.2-4.4,0.2-4.4L160.1,103.9z"/>
		<g>
			<path class="st3" d="M149.3,119.7c0,0.5-0.7,0.5-1.5,0.5s-0.6,0.1-1.6,0.2c-1.1,0.1-1.5-0.3-1.5-0.4c-0.1-0.1,0.5-0.3,1-0.4
				c0.1,0,0.1,0,0.2-0.1c0.6-0.2,1-0.7,1.5-1.1c0.5-0.4,1.1-1.9,1.1-1.9l1.5-0.1c0,0-0.6,1.3-0.8,1.9c-0.1,0.3,0,0.7,0,1
				C149.2,119.4,149.3,119.5,149.3,119.7z"/>
			<path class="st17" d="M147.8,120.2c-0.8-0.1-0.6,0.1-1.6,0.2c-1.1,0.1-1.5-0.3-1.5-0.4c-0.1-0.1,0.5-0.3,1-0.4l0,0
				c0,0,0.7,0.3,1.6,0.2c0.7-0.1,1.4-0.5,1.9-0.5c0,0.2,0.1,0.3,0.1,0.5C149.2,120.2,148.6,120.2,147.8,120.2z"/>
		</g>
		<path class="st18" d="M162,104.5c0,0-8.5,0.4-10.3,1.6c-1.8,1.2-4.2,11.4-4.2,11.4s0.4,0.5,0.8,0.6c0.5,0.2,1.1,0,1.1,0
			s3.4-4.1,3.7-5.7s0.6-2.3,1.3-2.3c0.7-0.1,7.2,1.2,10.2-1.6C166.4,106.8,162,104.5,162,104.5z"/>
		<path class="st19" d="M159.1,93.1c-0.2-0.3-0.4-0.8-0.5-1.8c0,0.1,0.3,1.3,0.8,1.9c2,1.1,5.1,5.3,5.1,6.1c0,0,1.9-2.5,1.9-2.6
			c0,0,2.2-3.2-0.8-4.7c-1.5-0.8-1.5-1.9-1.6-2.9c0-1-0.7-5.1-3.5-3.9c0,0-0.5-0.2-0.7-0.1c0,0,0.2,0,0.3,0.1
			c-0.3,0-0.8,0.1-1.2,0.3C158,86.4,157.4,91.8,159.1,93.1z"/>
		<path class="st3" d="M162.4,92.4c0,0-0.8-0.1-1.6,0c-0.5,0.1-1.1,0.2-1.4,0.3c-0.8,0.3-0.7,1.7,0.9,1.4
			C161.9,93.9,162.5,92.8,162.4,92.4z"/>
		<path class="st3" d="M159.5,93.4c0,0-0.2,1.1,0.8,1.1c0.7,0,2.1-0.9,2-1.4c-0.1-0.3-0.6-1-0.7-2.6l-0.1,0l-2.1,0.6
			c0,0,0.1,0.7,0.1,1.3C159.6,92.8,159.6,93.3,159.5,93.4z"/>
		<path class="st16" d="M159.4,91c0,0,0.1,0.7,0.1,1.3c1.2-0.1,1.7-1.2,1.9-1.8L159.4,91z"/>
		<path class="st19" d="M161.7,90.2c0,0,0.6-1,0.6-1.9c0.1-0.6-0.4-2.8-2.6-2.3c0,0-0.6,0.1-1.2,0.6c-0.5,0.4-1.1,1.1-0.2,3l0.2,0.6
			L161.7,90.2z"/>
		<path class="st3" d="M159.1,91.6c0,0,2.8-0.1,2.7-1.9c-0.1-1.7,0.2-2.9-1.6-2.9c-1.8,0-2.1,0.7-2.2,1.3
			C157.8,88.7,158.3,91.6,159.1,91.6z"/>
		<path class="st19" d="M158.9,86.9c0,0,0.9,2,2.1,2.2c1.2,0.2,1.7-0.1,1.7-0.1s-0.9-0.7-1.2-1.9C161.4,87.1,159.4,85.8,158.9,86.9z
			"/>
		<path class="st19" d="M159.1,87c0,0-0.5,0.5-0.7,0.9s-0.1,1.4-0.4,1.4c0,0-0.7-1.4-0.1-2.2C158.6,86.3,159.1,87,159.1,87z"/>
		<path class="st20" d="M156.3,104.1c0.2,0.3,0.9,0.4,1.7,0.5c0.6,0.1,1.2,0.2,1.7,0.5c1,0.6,4.3,2.6,5.3,2.5c0.4,0,0.3-0.8,0.1-1.7
			c-0.4-1.5-1.1-3.6-1.1-4.5c0-0.5-0.2-1.7-0.4-3c0-0.1,0-0.2-0.1-0.3c-0.4-2.6-1-5.7-1-5.7s-0.7,1.5-2,1.5s-1-1.1-1-1.1
			s-1.2,0.1-1.5,0.4s-1,1.6-1.1,2c0,0,0,0.5,1.1,0.7c0,0-0.3,1.2-0.3,2.1c0,0.6,0.4,2.5,0.5,3.7c0,0.4,0.1,0.8,0,0.9
			c-0.1,0.2-0.4,0.4-0.7,0.6C156.8,103.4,156,103.8,156.3,104.1z"/>
		<path class="st4" d="M157.4,103c-0.7,1.2,2,1.6,2.4,1.9c1,0.6,4.1,2.7,5.1,2.6c0.4,0,0.3-0.8,0.1-1.7c-0.4-1.5-1.1-3.6-1.1-4.5
			c0-0.5-0.2-1.7-0.4-3l-1.2-1.1c0,0-1.2,3.2-2.4,3.7c-0.6,0.3-1.3,0.5-1.7,0.6c0,0.4,0.1,0.8,0,0.9
			C158,102.6,157.7,102.8,157.4,103z"/>
		<path class="st3" d="M162.7,93.4c0,0,1-0.6,2,0.5c1,1.1-0.7,9.3-2.1,9.7c-1.6,0.5-6.1-0.1-6.1-0.1l0.1-0.7c0,0,4.9-0.9,5.1-1.2
			C161.8,101.4,162.2,93.5,162.7,93.4z"/>
		<path class="st20" d="M162.4,92.4c0,0,2,0.2,2.6,0.9c0.6,0.7,0.8,2.5,0.8,2.5s-1.8,1.4-4,0.9L162.4,92.4z"/>
		<path class="st3" d="M156.9,102.8c0,0-1.6-0.3-1.8-0.2c-0.2,0.1-1.2,1-1.1,1.1c0.1,0.2,0.5,0.3,1,0.2c0.5-0.2,1.5-0.2,1.6-0.5
			C156.9,103.2,156.9,102.8,156.9,102.8z"/>
		<g>
			<rect x="155.7" y="104.5" class="st21" width="2.7" height="0.3"/>
			<path class="st21" d="M156.2,104.8c0-0.1-2.5-3.9-2.5-3.9h-5.4l2.7,3.9L156.2,104.8z"/>
			<path class="st19" d="M156,104.9c0-0.1-2.5-4-2.5-4h-5.2l2.6,4H156z"/>
			<path class="st21" d="M151.4,102.9c0.1,0.2,0.2,0.3,0.4,0.3c0.2,0,0.2-0.1,0.2-0.3c-0.1-0.2-0.2-0.3-0.4-0.3
				C151.4,102.6,151.4,102.7,151.4,102.9z"/>
		</g>
	</g>
	<g>
		<path class="st22" d="M194.1,91.5c0,0,1.3,0.7,1.7,0.7c0.4,0,1.8-0.3,2.2-0.1c0.4,0.2,1.1,1,1.3,1.3c0.2,0.5-1,0.3-1.6-0.1
			c-0.1-0.1-0.2-0.1-0.3-0.1c-0.3,0.1-0.9,0.2-1.2,0.1c-0.4-0.2-2.5-0.3-2.5-0.3L194.1,91.5z"/>
		<path class="st23" d="M184.2,81.4c0,0,1.4,9.6,3.6,10.4c1.1,0.4,6,1.4,7.4,1.5c0,0,0.4-0.3,0.3-1.4c0,0-5.1-1.9-5.8-2.9
			c-1.1-1.5,0.7-6.2-0.7-7.6C187.6,80,185.4,79.4,184.2,81.4z"/>
		<path class="st4" d="M184.7,101.6c0.4,0.7,0.8,1.3,1.3,1.9c1.4,1.8,3,3.3,3.3,4.8c0.1,0.3,0.1,0.6,0.3,0.9s0.3,0.7,0.4,1
			c0.6,1.3,1.5,2.8,2.5,4.2c1.6,2.3,3.1,4.3,3.1,4.3l2.7-0.1c-0.1-0.3-1.3-3.5-2.9-7.5c-0.6-1.6-1.3-3.3-2-5
			c-0.1-0.2-0.2-0.4-0.3-0.7c-0.2-0.5-0.4-1-0.6-1.5c-1.5-3.7-2.7-6.7-2.7-6.7s-6-2.3-6.6-0.8C182.7,97.7,183.1,98.9,184.7,101.6z"
			/>
		<path class="st6" d="M195.6,118.2c0,0,0.1,2.3,0.6,2.3c0.1,0,2.2,0,2.2,0l2.8,0c0,0,0-0.7-0.8-0.8c-0.8-0.1-2.2-0.7-2.6-1.8
			C197.2,116.8,195.6,118.2,195.6,118.2z"/>
		<path class="st6" d="M185.9,111.1c0,0-2,1-1.9,1.4c0,0.1,0.8,2.1,0.8,2.1l1,2.6c0,0,0.6-0.3,0.4-1.1c-0.2-0.8-0.1-2.3,0.7-3.1
			C187.8,112,185.9,111.1,185.9,111.1z"/>
		<path class="st20" d="M186.6,113.3c0,0-1.1-1.2-1.4-1.9c0,0,3.9-3.8,5.4-4.8c1.6-1.1,2.7-1.1,2.4-1.3c-0.9-0.9-8-3.4-9.2-5.2
			c-0.4-0.6-0.6-1.2-0.8-1.7c-0.3-1.1-0.1-1.9-0.1-1.9l8.9-0.3c0,0,6.6,6.9,6.6,9.5C198.5,108.5,186.6,113.3,186.6,113.3z"/>
		<path class="st3" d="M189.5,80.8c-1.8,0.5-4.8-1.2-4.8-1.2s1.2-0.8,1.6-2.5c0-0.1,0-0.2,0.1-0.3c0.2,0,0.5-0.1,0.9-0.2l1.4,1.2
			c0,0,0,0.5-0.2,1.4c0,0.2-0.1,0.3-0.1,0.5C189.1,80.2,189.5,80.8,189.5,80.8z"/>
		<path class="st8" d="M182.8,88.3c0.3,3.5-0.1,8.8,0.2,9.7c0.3,0.8,3.1,0.3,4.3,0.1c0.4-0.1,0.9-0.2,1.5-0.4
			c1.5-0.5,3.1-1.1,3.3-1.6c0,0,0,0,0-0.1c0-0.1,0-0.1,0-0.2c-0.1-0.2-0.3-0.5-0.3-1.1c0-0.7,0-1.5-0.1-2.4c0-0.1,0-0.2,0-0.3v0
			c0,0,0,0,0-0.1c0-1-0.1-2-0.1-3c0-0.6-0.1-1.3-0.1-1.9c-0.1-1.6-0.3-2.9-0.5-3.8c-0.4-1.4-1.2-2.4-2-3l-0.5-0.5
			c-0.6,0.1-1.3,0-2-0.3c-0.7-0.3-1-0.6-1.1-0.5C183.7,80.2,182.5,84,182.8,88.3z"/>
		<path class="st23" d="M188.8,97.6c1.5-0.5,3.1-1.1,3.3-1.6c0,0,0,0,0-0.1c0-0.1,0-0.1,0-0.2c-0.1-0.2-0.3-0.5-0.3-1.1
			c0-0.7,0-1.5-0.1-2.4c0-0.1,0-0.2,0-0.3v0c0,0,0,0,0-0.1l-6-7.6C185.7,84.2,181.7,92.6,188.8,97.6z"/>
		<path class="st22" d="M188.7,77.9c0,0,0,0.5-0.2,1.4c-1.3-0.4-2-1.7-2.2-2.2c0-0.1,0-0.2,0.1-0.3c0.2,0,0.5-0.1,0.9-0.2
			L188.7,77.9z"/>
		<path class="st3" d="M188.8,78.7c0,0-2.9-0.5-2.6-2.3c0.3-1.8,0.2-3.1,2.1-2.9s2.1,1,2.2,1.6C190.5,75.7,189.6,78.8,188.8,78.7z"
			/>
		<g>
			
				<rect x="198.1" y="90.8" transform="matrix(0.3091 -0.951 0.951 0.3091 52.8295 254.5499)" class="st24" width="7.1" height="0.3"/>
			
				<rect x="196.7" y="90.3" transform="matrix(2.139814e-02 -0.9998 0.9998 2.139814e-02 98.7247 288.8608)" class="st24" width="0.5" height="7.5"/>
		</g>
		<path class="st3" d="M193.3,94.5c0,0,2.4,0.6,3.3,0.6c0.9-0.1,1.6-0.5,1.8-0.7c0.1-0.2,0.4-0.6-0.3-0.5c-0.6,0.1-1.4,0.2-1.5,0.1
			c0-0.1,0.5-0.1,0.5-0.1s0.2-0.2,0-0.2c-0.2,0-0.8-0.2-1-0.1c-0.2,0.1-0.4,0.5-0.6,0.5c-0.2,0-2-0.8-2-0.8L193.3,94.5z"/>
		<path class="st8" d="M184.8,81.8c0,0,0.3,9.7,2.4,10.8c1.1,0.5,5.8,2,7.2,2.3c0,0,0.4-0.2,0.4-1.4c0,0-4.9-2.4-5.5-3.5
			c-0.9-1.6,1.4-6.1,0.2-7.6C188.4,80.7,186.2,79.9,184.8,81.8z"/>
		<path class="st20" d="M186.3,77.1c0,0,0-0.6,0.4-1c0,0-0.1-0.6,0.1-0.7c0.2-0.1,0.3,0.4,0.4,0.3s0.6-0.5,0.8-1.1
			c0.2-0.6,2.2,0.1,2.4,0.2s1-0.3,1.1-0.6c0,0-0.4-0.3-0.6-0.6s-1.5-1.9-3.3-1.4c-1.8,0.5-2.1,1.3-2,2.1
			C185.8,75.1,185.6,76.9,186.3,77.1z"/>
	</g>
	<g>
		<g id="man_39_">
			<path class="st3" d="M130.2,83.7c-0.2,0.5-0.5,1.2-0.9,1.3c-0.4,0.2-0.6,0.4-0.6,0.4l-0.3-0.2L128,85c0,0,0,0,0-0.1
				c0-0.1,0.1-0.2,0.1-0.3c0,0,0.1-0.2,0-0.4c-0.1-0.2-0.1-0.5,0.1-0.7c0.1-0.2,0.2-0.6,0.3-0.6c0.2,0-0.1,0.7,0,0.8
				c0.1,0.1,0.2,0.1,0.2,0.1l0,0c0.5-0.2,1.1-1.5,1.4-1.3C130.3,82.6,130.3,83.5,130.2,83.7z"/>
			<g>
				<path class="st20" d="M128.4,84.5l0.7,0.5c0,0,0.1,0,0.1,0l1.7-2.4c0,0,0-0.1,0-0.1l-0.7-0.5c0,0-0.1,0-0.1,0l-1.7,2.4
					C128.4,84.4,128.4,84.4,128.4,84.5z"/>
				<path class="st4" d="M129,84.9l0.4,0.3c0,0,0.1,0,0.1,0l1.7-2.4c0,0,0-0.1,0-0.1l-0.4-0.3c0,0-0.1,0-0.1,0l-1.7,2.4
					C129,84.8,129,84.9,129,84.9z"/>
			</g>
			<path class="st4" d="M119.1,81.1c0,0,3.3,5.8,4.5,6.8l4.4-3.3c0,0,0.6,0.2,0.9,0.8c0,0-2.7,5.5-5.3,5.7s-6.3-6.5-6.3-6.5
				L119.1,81.1z"/>
			<g>
				<path class="st4" d="M111.6,120.4h-1.9c-0.2-0.1-0.5-0.4-0.5-0.9c-0.1-0.6-0.8-1-0.9-1.5c-0.2-0.5,0.6-1.2,0.6-1.2l0.1-0.2
					l0.1-0.2l1.3,0.3c0,0,0,0.3,0.1,0.7c0,0.3,0,0.6,0,0.9c0,0.7,0.2,1.4,0.8,1.5C111.6,120,111.6,120.3,111.6,120.4z"/>
				<path class="st4" d="M122.7,120.4h-4.4c-0.2-0.3-0.1-1.2-0.1-1.5c0-0.1,0-0.1,0-0.1s1.5-1.2,1.7-0.3c0,0,0,0.1,0,0.1
					c0.3,0.9,1.4,1.2,2.1,1.4C122.5,120,122.6,120.2,122.7,120.4z"/>
				<path class="st18" d="M121.9,96c0,0-0.2,2.8-0.5,6.2c-0.4,4.6-0.8,10.3-0.8,11.4c-0.1,1.9-0.4,4.9-0.4,4.9s-0.7,0.7-2.1,0.4
					c0,0-1.3-4.3-1.6-8.8c0-0.1,0-0.2,0-0.2c-0.3-4.6-0.9-14.3-0.9-14.3L121.9,96z"/>
				<path class="st25" d="M121.9,96c0,0-0.2,2.8-0.5,6.2l-5,7.9c0-0.1,0-0.2,0-0.2c-0.3-4.6-0.9-14.3-0.9-14.3L121.9,96z"/>
				<path class="st18" d="M120.8,96.3c0,0-4.1,10.3-6.8,15.1c-2.7,4.8-3.5,6.2-3.5,6.2s-1.5-0.6-1.7-1c0,0,1-9.3,2.8-11.6
					c1-1.3,2.2-5.1,2.3-6.5c0.1-1.3,0.4-4,0.4-4L120.8,96.3z"/>
			</g>
			<path class="st3" d="M119.8,81.3c-1.6,0.5-4.4-0.9-4.4-0.9s1.5-1.1,1.4-3.4l1.2,1l0.8,0.7c0,0,0,0.4-0.1,1.1
				c0,0.2-0.1,0.4-0.1,0.6C119.4,80.8,119.8,81.3,119.8,81.3z"/>
			<path class="st26" d="M118.9,78.7c0,0,0,0.4-0.1,1.1c-0.9-0.2-2-1.7-2-1.7c0.5-0.1,0.9-0.2,1.2-0.1L118.9,78.7z"/>
			<path class="st3" d="M119.4,78.7c0,0-2.6,0.4-2.9-1.2c-0.2-1.7-0.8-2.7,0.9-3.1c1.7-0.4,2.1,0.2,2.3,0.8
				C120,75.7,120.1,78.5,119.4,78.7z"/>
			<path class="st20" d="M122,96.2c0,0-0.1,0.1-0.2,0.1c-0.6,0-2.3,0.3-3.8,0.2c-1.3-0.1-2.4-0.5-3.5-1c-0.2-0.1-0.5-0.3-0.5-0.4
				c0-0.2,0-0.5,0.1-0.8c0.1-1.2,0.2-3.3,0.1-5.8c0-0.5,0-0.9,0-1.3c0-3.3,0.6-6.2,2-7.2c0.1-0.1,0.8,0.3,1.4,0.6
				c0.6,0.3,1.2,0.3,1.7,0.2l0.6,0.5c0.7,0.6,1.4,1.5,1.7,2.8c0.3,1.1,0.4,3.1,0.5,5.1c0,0.9,0.1,1.9,0.1,2.8v0c0,0.1,0,0.2,0,0.3
				C122.1,94.3,122.1,96.2,122,96.2z"/>
			<path class="st4" d="M114,94.1c0.1-1.2,0.2-3.3,0.1-5.8c0-0.5,0-0.9,0-1.3c0.5-1.3,1-2.3,1-2.3h1.4
				C116.5,84.7,117.5,91.6,114,94.1z"/>
			<g>
				<path class="st4" d="M107,102l5.9,0.8c0.8,0.1,1.5-0.4,1.6-1.2l0.4-2.6c0.1-0.8-0.4-1.5-1.2-1.6l-5.9-0.8
					c-0.8-0.1-1.5,0.4-1.6,1.2l-0.4,2.6C105.7,101.1,106.2,101.9,107,102z"/>
				<path class="st20" d="M113.9,98.2L113.9,98.2c-0.2-0.4-0.5-0.7-1-0.8l0,0l0,0c0,0-0.1,0-0.1,0l-1.2-0.2l0.1-0.5
					c0-0.1,0-0.2-0.1-0.3c-0.1-0.1-0.2-0.2-0.3-0.2l-0.3,0l-1.2-0.2l-0.2,0c-0.3,0-0.5,0.1-0.5,0.4l-0.1,0.5l-2-0.3
					c-0.8-0.1-1.5,0.4-1.6,1.2l-0.4,2.6c-0.1,0.8,0.4,1.5,1.2,1.6l5.9,0.8c0.1,0,0.2,0,0.3,0l0,0l0,0c0.2,0,0.3-0.1,0.5-0.1
					c0.4-0.2,0.8-0.6,0.8-1.1L114,99C114.1,98.7,114,98.5,113.9,98.2z M109.3,96.3c0-0.1,0.1-0.1,0.1-0.2c0,0,0,0,0.1,0l0.3,0l1,0.1
					l0.5,0.1c0.1,0,0.2,0.1,0.2,0.2l-0.1,0.5l-2.1-0.3L109.3,96.3z"/>
			</g>
			<path class="st3" d="M111.4,94.4c0,0-0.3,0.4-0.3,0.6c-0.1,1.1,0.4,1.3-0.9,1.9c0,0-0.6,0.2-0.6-0.2c0-0.4,0.4-0.4,0.3-1.1
				c-0.1-0.7-0.1-0.7,0.4-1.1l0.3-0.5L111.4,94.4z"/>
			<path class="st20" d="M110.7,94.7c0.5,0.1,1,0.1,1,0.1s1.5-4.6,1.7-5c0.2-0.4,4.4-5.3,4.4-5.3l-1.7-4.4c0,0-4.5,7.6-5,8.6
				c-0.8,1.8-1,5.7-1,5.7S110.3,94.6,110.7,94.7z"/>
			<path class="st20" d="M116.5,77.3c0,0,0.3,0,0.2-0.4c0-0.4,0-0.9,0.3-0.8c0.3,0.1,0.3,0.3,0.4,0.2c0.1-0.1,0.1-0.7,1-0.8
				s1.3,0.3,1.7,0.1c0.4-0.2,0.4-0.8,0.4-0.8s-0.1,0.2-0.3,0.3c0,0,0.7-1-0.1-1.6c-0.8-0.7-1.6-0.2-2.1-0.2c-1,0.1-1.7,0.1-2,0.8
				C115.7,74.8,115.8,76.7,116.5,77.3z"/>
			<path class="st3" d="M111,94.9c0,0,0.3,0.3,0.3,0.4c0.1,0.4,0.2,0.6,0.1,0.6c-0.1,0.1-0.3-0.2-0.4-0.5
				C110.9,95.2,111,94.9,111,94.9z"/>
		</g>
	</g>
	<path class="st27" d="M222.4,121H9.2c-0.1,0-0.2-0.1-0.2-0.2v-0.1c0-0.1,0.1-0.2,0.2-0.2h213.2c0.1,0,0.2,0.1,0.2,0.2v0.1
		C222.7,120.8,222.5,121,222.4,121z"/>
	<g>
		<path class="st4" d="M61.1,66.8c0.9,1.6,2,2.5,2,2.5H68C68,69.3,60.5,65.6,61.1,66.8z"/>
		<g>
			<path class="st3" d="M64.5,79.3c0.1,0.2,0.1,0.3,0.1,0.5l0,0c-0.1,0.3-0.5,0.7-1,1c-0.1,0-0.1,0.1-0.2,0.1c0,0,0,0,0,0
				c0,0,0,0,0,0c-0.4,0.4-0.3,0.5-1,1.2c-0.9,0.9-1.4,0.9-1.6,0.8c-0.1-0.1,0.2-0.5,0.5-1c0,0,0-0.1,0-0.1c0-0.1,0.1-0.1,0.1-0.2
				c0.4-0.6,0.3-0.9,0.2-1.9c-0.1-0.8-1.1-4.3-1.1-4.3l1.6-0.2c0,0,0.4,2.8,0.9,3.2c0.3,0.2,0.6,0.2,0.9,0.4c0,0,0,0,0.1,0
				C64.2,79.1,64.4,79.2,64.5,79.3z"/>
			<path class="st4" d="M64.5,79.3c0.1,0.2,0.1,0.3,0.1,0.5l0,0c-0.2,0.3-0.5,0.7-1,1c-0.1,0-0.1,0.1-0.2,0.1c0,0,0,0,0,0
				c0,0,0,0,0,0c-0.4,0.4-0.3,0.5-1,1.2c-0.9,0.9-1.4,0.9-1.6,0.8c-0.1-0.1,0.2-0.5,0.5-1c0.2-0.1,0.9-0.3,1.5-1.1
				c0.5-0.6,0.9-1.5,1.2-1.9c0,0,0,0,0.1,0C64.2,79.1,64.4,79.2,64.5,79.3z"/>
			<path class="st3" d="M51.5,78c-0.1,0.5-0.8,0.4-1.6,0.2c-0.8-0.2-0.6,0-1.7-0.1c-1.1-0.2-1.5-0.6-1.5-0.8c0-0.2,0.5-0.2,1.1-0.2
				c0.1,0,0.2,0,0.2,0c0.7-0.1,1.2-0.5,1.8-0.8c0.6-0.3,1.5-1.7,1.5-1.7l1.6,0.2c0,0-0.8,1.2-1.2,1.7c-0.2,0.3-0.2,0.7-0.2,1.1
				C51.5,77.6,51.5,77.8,51.5,78z"/>
			<path class="st4" d="M49.9,78.2c-0.8-0.2-0.6,0-1.7-0.1c-1.1-0.2-1.5-0.6-1.5-0.8c0-0.2,0.5-0.2,1.1-0.2l0,0c0,0,0.7,0.5,1.6,0.5
				c0.8,0,1.6-0.2,2.1-0.1c0,0.2,0,0.4,0,0.5C51.4,78.5,50.6,78.4,49.9,78.2z"/>
			<path class="st4" d="M57.7,68.2l1.3,3.9l1.8,5.2c0,0,0.5,0.1,1-0.1c0.5-0.1,1-0.5,1-0.5s-0.4-5.5-1.3-8.7
				c-0.2-0.8-0.5-1.5-0.8-1.9C59.3,64.4,57.7,68.2,57.7,68.2z"/>
			<path class="st20" d="M59.3,62c1-0.3,3.7,0.2,6.4,0.8l0.6-0.9l5.9-0.3c0,0,1.8,4.4,0.7,7.1c-0.2,0.4-0.5,0.6-1,0.6c0,0,0,0-0.1,0
				c0,0-3.5,0-4.6,0c-2.9-0.1-6.1-2.2-6.6-2.3c-0.7-0.2-1,1.2-1.7,2.7c-0.7,1.4-6.7,6.3-6.7,6.3s-0.9,0-1.3-0.2
				c-0.4-0.2-0.5-0.4-0.5-0.4S57.2,62.7,59.3,62z"/>
			<path class="st4" d="M66.6,53.8c2.1,1.2,6.3,3.7,6.3,3.7c0,0,1.5,0.6,2.5,0.1c1.5-0.9,2.4-3.6-0.3-5.9c-1.3-1.2-2.3-1.5-2.4-3.3
				c-0.1-1-1.3-4.3-3.6-4c-0.2,0-0.4,0-0.6,0c-0.3,0-0.7,0-1.1,0.3C66.1,45.3,63.4,53.3,66.6,53.8z"/>
			<path class="st3" d="M68.4,52.9c0,0,1,0.4,1.7,0.1c0.7-0.3,1.2-1.3,1.2-1.3c-0.3,0-0.6-0.3-0.8-2l-0.1,0l-2.2,0.7
				c0,0,0.1,0.7,0.2,1.3C68.4,52.3,68.5,52.8,68.4,52.9z"/>
			<path class="st26" d="M68.2,50.4c0,0,0.1,0.7,0.2,1.3c1.2-0.2,1.7-1.4,1.9-2L68.2,50.4z"/>
			<path class="st3" d="M67.8,51c0,0,2.9-0.3,2.7-2.1c-0.2-1.8,0-3.1-1.9-3c-1.9,0.1-2.2,0.9-2.2,1.5S67.1,51.1,67.8,51z"/>
			<path class="st4" d="M66.6,46.4c0,0,1.8,1.7,3.1,1.8c1.3,0.2,1.8-0.2,1.8-0.2s-0.7-0.6-1.2-1.7c-0.1-0.3-0.4-0.5-0.7-0.5
				C68.6,45.7,66.9,45.6,66.6,46.4z"/>
			<path class="st4" d="M67.7,46.3c0,0-0.6,0.6-0.8,1c-0.2,0.4-0.3,1.5-0.2,1.9c0,0-0.9-1.9-0.3-2.8C67,45.4,67.7,46.3,67.7,46.3z"
				/>
			<path class="st13" d="M65.8,57.1c-0.1,5.9-0.1,4.7,0.5,5.3c0.2,0.1,0.6,0.2,1.2,0.3c1.8,0.2,5,0,5.1-0.4c0.5-1.1,0.2-1.5,0.6-3.3
				c0-0.2,0.1-0.4,0.2-0.6c0.3-1.2,0.6-1.6-0.4-3.6c-0.9-1.8-1.8-3.3-1.9-3.2c-2.5,1.4-2.7,0.2-2.7,0.2S65.8,54.2,65.8,57.1z"/>
			<path class="st20" d="M59,72.1l1.8,5.2c0,0,0.5,0.1,1-0.1c0.5-0.1,1-0.5,1-0.5s-0.4-5.5-1.3-8.7L59,72.1z"/>
			<path class="st13" d="M68.4,51.7c0,0-2.6,0.4-2.9,1.4s-2.3,7.5-2.3,7.5s1.3,0.3,1.9-0.3c0.6-0.6,2.2-5.5,2.2-5.5L68.4,51.7z"/>
			<path class="st28" d="M67.5,62.6c1.8,0.2,5,0,5.1-0.4c0.5-1.1,0.2-1.5,0.6-3.3l-0.8-2.5c0,0,0.1,2.7-0.8,3.4
				c-0.8,0.7-3.3,1.3-3.8,1.9C67.7,62.1,67.5,62.4,67.5,62.6z"/>
			<path class="st3" d="M69.6,61.5c0,0-1.8-0.5-2.1-0.3c-0.3,0.2-1,0.7-1.1,0.9c-0.1,0.2,0.6-0.1,0.9-0.2c0.2,0,0.6,0.1,0.8,0.2
				c0.8,0.3,1.4,0.2,1.4,0.2L69.6,61.5z"/>
			<path class="st13" d="M71.1,51.5c0,0,2.4,0.2,3.2,1.4c1.1,1.7,3.3,8.7,1.9,9.6c-1.5,1-6.8,0.1-6.8,0.1s-0.2-0.8,0.1-1.2
				s4.3-0.9,4.5-1.1c0.2-0.2-2.2-3.7-2.2-4.2C71.7,55.5,71.1,51.5,71.1,51.5z"/>
			<path class="st3" d="M67.4,61.7c0,0-0.4,0.5-0.5,0.5c-0.1,0.1-0.2,0-0.2,0l0.3-0.5L67.4,61.7z"/>
			<path class="st3" d="M67.5,61.2l-1.1,0.5c0,0,0,0.1,0.2,0.1c0.1,0,0.5-0.1,0.5-0.1L67.5,61.2z"/>
		</g>
		<g>
			<g>
				<polygon class="st8" points="66.9,63 58.3,62.8 55.9,56.2 64.4,56.5 				"/>
				<polygon class="st23" points="58.2,62.5 69.5,62.8 69.5,63.1 58.3,62.8 				"/>
			</g>
			<path class="st13" d="M60.5,59.6c-0.1-0.2,0.1-0.4,0.3-0.4c0.2,0,0.5,0.2,0.5,0.4c0.1,0.2-0.1,0.4-0.3,0.4
				C60.8,60,60.6,59.8,60.5,59.6z"/>
		</g>
	</g>
</g>
</svg>
