<?xml version="1.0" encoding="utf-8"?>
<!-- Generator: Adobe Illustrator 25.4.1, SVG Export Plug-In . SVG Version: 6.00 Build 0)  -->
<svg version="1.1" id="Layer_1" xmlns="http://www.w3.org/2000/svg" xmlns:xlink="http://www.w3.org/1999/xlink" x="0px" y="0px"
	 viewBox="0 0 225 150" style="enable-background:new 0 0 225 150;" xml:space="preserve">
<style type="text/css">
	.st0{display:none;}
	.st1{display:inline;fill:#F5F5F5;}
	.st2{fill:#FAFAFA;}
	.st3{fill:#E0E0E0;}
	.st4{fill:#EBEBEB;}
	.st5{fill:#F5F5F5;}
	.st6{fill:#FFFFFF;}
	.st7{fill:#263338;}
	.st8{fill:#455B64;}
	.st9{fill:#EF7F1A;}
	.st10{opacity:0.3;}
	.st11{fill:none;}
	.st12{fill:#FFBE9D;}
	.st13{fill:#FF986C;}
	.st14{opacity:0.3;enable-background:new    ;}
	.st15{fill:#B56660;}
	.st16{fill:#8A4943;}
	.st17{fill:#052669;}
</style>
<g id="Background_Simple" class="st0">
	<path class="st1" d="M-59.6-81.2l-1.1-1.8c-9.2-15.1-25.8-24.2-43.3-23.2c-2.2,0.1-4.5,0.4-6.7,0.9c-15.9,3.4-29.8,15.4-35.5,30.9
		c-3.4,9.1-4.3,19.5-10.7,26.7c-8.3,9.4-22.5,9.7-34.9,9.3c-12.4-0.4-26.6-0.1-34.9,9.3c-5.2,5.9-6.8,14.3-6.4,22.1
		c1.1,20.9,15.7,39.5,34.2,48.8s40.3,10.1,60.5,6c28.4-5.7,55.3-21.4,71.6-45.7C-50.7-22-46.6-55-59.6-81.2z"/>
	
		<ellipse transform="matrix(0.7071 -0.7071 0.7071 0.7071 127.7231 275.2195)" class="st1" cx="396.1" cy="-16.6" rx="51.1" ry="51.1"/>
</g>
<g>
	<g id="Background_Complete">
		<g>
			<g>
				<g>
					<g>
						<rect x="8.1" y="22.5" class="st2" width="46.3" height="41.4"/>
					</g>
				</g>
				<g>
					<g>
						<g>
							<path class="st3" d="M54.4,63.9c0,0,0-0.3,0-0.8c0-0.5,0-1.3,0-2.2c0-1.9,0-4.8,0-8.4c0-7.2,0-17.6-0.1-30l0.1,0.1
								c-13.3,0-29.2,0-46.3,0h0l0.1-0.1c0,15.1,0,29.2,0,41.4l-0.1-0.1c13.8,0,25.4,0,33.5,0.1c4.1,0,7.3,0,9.4,0
								c1.1,0,1.9,0,2.5,0c0.3,0,0.5,0,0.6,0C54.3,63.9,54.4,63.9,54.4,63.9s-0.1,0-0.2,0c-0.1,0-0.4,0-0.6,0c-0.6,0-1.4,0-2.5,0
								c-2.2,0-5.4,0-9.4,0C33.6,64,22,64,8.1,64H8v-0.1c0-12.2,0-26.3,0-41.4v-0.1h0.1h0c17,0,32.9,0,46.3,0h0.1v0.1
								c0,12.5,0,22.8-0.1,30.1c0,3.6,0,6.4,0,8.4c0,1,0,1.7,0,2.2C54.4,63.7,54.4,63.9,54.4,63.9z"/>
						</g>
					</g>
				</g>
			</g>
			<g>
				<g>
					<g>
						<path class="st3" d="M25.9,29.9c0,0.1-2.4,0.1-5.4,0.1S15,29.9,15,29.9c0-0.1,2.4-0.1,5.4-0.1C23.4,29.8,25.9,29.8,25.9,29.9z
							"/>
					</g>
				</g>
			</g>
			<g>
				<g>
					<g>
						<path class="st3" d="M45.5,33c0,0.1-6.7,0.1-14.9,0.1c-8.3,0-14.9-0.1-14.9-0.1c0-0.1,6.7-0.1,14.9-0.1
							C38.8,32.9,45.5,32.9,45.5,33z"/>
					</g>
				</g>
			</g>
			<g>
				<g>
					<rect x="15.1" y="38.3" class="st3" width="2" height="2"/>
				</g>
			</g>
			<g>
				<g>
					<rect x="19.9" y="38.3" class="st3" width="2" height="2"/>
				</g>
			</g>
			<g>
				<g>
					<rect x="24.8" y="38.2" class="st3" width="2" height="2"/>
				</g>
			</g>
			<g>
				<g>
					<rect x="29.5" y="38.3" class="st3" width="2" height="2"/>
				</g>
			</g>
			<g>
				<g>
					<rect x="34.3" y="38.3" class="st3" width="2" height="2"/>
				</g>
			</g>
			<g>
				<g>
					<rect x="39.1" y="38.3" class="st3" width="2" height="2"/>
				</g>
			</g>
			<g>
				<g>
					<rect x="43.9" y="38.3" class="st4" width="2" height="2"/>
				</g>
			</g>
			<g>
				<g>
					<rect x="15.1" y="42.4" class="st4" width="2" height="2"/>
				</g>
			</g>
			<g>
				<g>
					<rect x="19.9" y="42.4" class="st3" width="2" height="2"/>
				</g>
			</g>
			<g>
				<g>
					<rect x="24.7" y="42.4" class="st4" width="2" height="2"/>
				</g>
			</g>
			<g>
				<g>
					<rect x="29.5" y="42.4" class="st3" width="2" height="2"/>
				</g>
			</g>
			<g>
				<g>
					<rect x="34.3" y="42.4" class="st3" width="2" height="2"/>
				</g>
			</g>
			<g>
				<g>
					<rect x="39.2" y="42.3" class="st3" width="2" height="2"/>
				</g>
			</g>
			<g>
				<g>
					<rect x="43.9" y="42.4" class="st3" width="2" height="2"/>
				</g>
			</g>
			<g>
				<g>
					<rect x="15.1" y="46.5" class="st3" width="2" height="2"/>
				</g>
			</g>
			<g>
				<g>
					<rect x="20" y="46.5" class="st3" width="2" height="2"/>
				</g>
			</g>
			<g>
				<g>
					<rect x="24.7" y="46.5" class="st3" width="2" height="2"/>
				</g>
			</g>
			<g>
				<g>
					<rect x="29.5" y="46.5" class="st4" width="2" height="2"/>
				</g>
			</g>
			<g>
				<g>
					<rect x="34.3" y="46.5" class="st3" width="2" height="2"/>
				</g>
			</g>
			<g>
				<g>
					<rect x="39.1" y="46.5" class="st3" width="2" height="2"/>
				</g>
			</g>
			<g>
				<g>
					<rect x="43.9" y="46.5" class="st3" width="2" height="2"/>
				</g>
			</g>
			<g>
				<g>
					<rect x="15.1" y="50.7" class="st3" width="2" height="2"/>
				</g>
			</g>
			<g>
				<g>
					<rect x="19.9" y="50.7" class="st3" width="2" height="2"/>
				</g>
			</g>
			<g>
				<g>
					<rect x="24.7" y="50.7" class="st3" width="2" height="2"/>
				</g>
			</g>
			<g>
				<g>
					<rect x="29.6" y="50.6" class="st3" width="2" height="2"/>
				</g>
			</g>
			<g>
				<g>
					<rect x="34.3" y="50.7" class="st3" width="2" height="2"/>
				</g>
			</g>
			<g>
				<g>
					<rect x="39.1" y="50.7" class="st4" width="2" height="2"/>
				</g>
			</g>
			<g>
				<g>
					<rect x="43.9" y="50.7" class="st3" width="2" height="2"/>
				</g>
			</g>
			<g>
				<g>
					<rect x="15.1" y="54.8" class="st3" width="2" height="2"/>
				</g>
			</g>
			<g>
				<g>
					<rect x="19.9" y="54.8" class="st4" width="2" height="2"/>
				</g>
			</g>
			<g>
				<g>
					<rect x="24.7" y="54.8" class="st3" width="2" height="2"/>
				</g>
			</g>
			<g>
				<g>
					<rect x="29.5" y="54.8" class="st3" width="2" height="2"/>
				</g>
			</g>
			<g>
				<g>
					<rect x="34.3" y="54.8" class="st3" width="2" height="2"/>
				</g>
			</g>
			<g>
				<g>
					<rect x="39.2" y="54.7" class="st3" width="2" height="2"/>
				</g>
			</g>
			<g>
				<g>
					<rect x="43.9" y="54.8" class="st3" width="2" height="2"/>
				</g>
			</g>
		</g>
		<g>
			<g>
				<rect x="218.9" y="26.2" class="st3" width="2.2" height="48"/>
			</g>
			<g>
				<path class="st5" d="M186.6,26.6v47.6c0,0,0,0,0,0h31.9c0,0,0,0,0,0V26.6c0,0,0,0,0,0L186.6,26.6
					C186.6,26.5,186.6,26.6,186.6,26.6z"/>
			</g>
			<g>
				<g>
					<path class="st4" d="M218.9,74.6h-32.7c0,0,0,0,0,0V26.2c0,0,0,0,0,0h32.7c0,0,0,0,0,0L218.9,74.6
						C219,74.5,219,74.6,218.9,74.6z M187,73.8h31.2c0,0,0,0,0,0V26.9c0,0,0,0,0,0H187c0,0,0,0,0,0L187,73.8
						C187,73.8,187,73.8,187,73.8z"/>
				</g>
			</g>
			<g>
				<path class="st6" d="M189.8,29.5v41.7c0,0,0,0,0,0h25.6c0,0,0,0,0,0V29.5c0,0,0,0,0,0L189.8,29.5
					C189.8,29.5,189.8,29.5,189.8,29.5z"/>
			</g>
			<g>
				<path class="st4" d="M209.8,58.2h-14.3c0,0,0,0,0,0V41.3c0,0,0,0,0,0h14.3c0,0,0,0,0,0L209.8,58.2
					C209.8,58.2,209.8,58.2,209.8,58.2z"/>
			</g>
			<g>
				<g>
					<path class="st3" d="M208.7,56.1c0,0.1-0.7,0.4-2,0.2c-0.7-0.1-1.5-0.3-2.3-0.9c-0.8-0.6-1.5-1.5-1.8-2.8
						c-0.3-1.3,0.2-2.8,1.4-3.8c0.3-0.3,0.6-0.5,1-0.6c0.4-0.2,0.9-0.2,1.3-0.2c0.4,0.1,0.9,0.2,1.3,0.6c0.4,0.4,0.6,1,0.5,1.5
						c-0.1,0.5-0.4,1-0.7,1.3c-0.3,0.3-0.7,0.6-1.1,0.8c-0.8,0.4-1.7,0.7-2.6,0.7c-0.9,0-1.9-0.1-2.8-0.6c-0.9-0.5-1.6-1.2-2-2.1
						c-0.5-0.9-0.6-2-0.4-2.9c0.2-1,0.8-1.8,1.6-2.4c0.4-0.3,0.8-0.5,1.3-0.7c0.5-0.1,1-0.1,1.5,0c0.5,0.1,1,0.3,1.3,0.7
						c0.4,0.4,0.5,0.9,0.5,1.4c0,0.5-0.1,1-0.3,1.4c-0.2,0.4-0.5,0.7-0.8,1c-0.6,0.5-1.3,0.9-2,1.1c-0.7,0.2-1.5,0.3-2.1,0.2
						c-0.7-0.1-1.3-0.4-1.9-0.7c-1.1-0.7-1.7-1.8-1.8-2.8c-0.1-1,0.3-1.9,0.7-2.4c0.4-0.6,0.9-0.8,1.2-1c0.3-0.1,0.5-0.1,0.5-0.1
						c0,0-0.2,0.1-0.4,0.3c-0.3,0.2-0.6,0.5-1,1c-0.3,0.5-0.5,1.3-0.4,2.1c0.1,0.8,0.7,1.7,1.6,2.2c0.9,0.6,2.1,0.7,3.3,0.3
						c0.6-0.2,1.2-0.5,1.6-0.9c0.5-0.4,0.8-1,0.8-1.5c0-0.6-0.4-1-1-1.1c-0.3-0.1-0.6,0-0.9,0c-0.3,0.1-0.6,0.3-0.9,0.5
						c-0.5,0.4-1,1.1-1.1,1.8c-0.2,0.7-0.1,1.5,0.3,2.1c0.3,0.7,0.9,1.2,1.5,1.6c0.6,0.4,1.4,0.5,2.1,0.5c0.7,0,1.5-0.2,2.1-0.6
						c0.3-0.2,0.6-0.4,0.8-0.6c0.2-0.2,0.4-0.5,0.4-0.7c0-0.2,0-0.4-0.2-0.6c-0.2-0.2-0.4-0.3-0.7-0.3c-0.3,0-0.6,0-0.8,0.1
						c-0.3,0.1-0.5,0.2-0.8,0.4c-0.5,0.4-0.8,0.8-1,1.4c-0.2,0.5-0.2,1.1-0.2,1.6c0.2,1,0.7,1.9,1.4,2.4c0.7,0.6,1.4,0.8,2,1
						C207.9,56.1,208.6,56,208.7,56.1z"/>
				</g>
			</g>
		</g>
		<g>
			<rect x="36.8" y="90.5" class="st5" width="15.3" height="4"/>
		</g>
		<g>
			<g>
				<rect x="72.4" y="8.2" class="st5" width="15.3" height="4"/>
			</g>
			<g>
				<g>
					<path class="st3" d="M81.2,16.5C81.2,16.5,81.2,16.5,81.2,16.5c0-0.1,0-0.2,0-0.3c0-0.2,0-0.5,0-0.8c0-0.7,0-1.7,0-3l0,0
						c-3.5,0-9,0-15.3,0c0,0-0.1,0.1,0.1-0.1l0,0v0v0v0v0v0v0.1v0.1V13c0,0.2,0,0.3,0,0.5c0,0.3,0,0.7,0,1c0,0.7,0,1.3,0,2l-0.1-0.1
						c4.3,0,8.1,0,10.9,0c1.4,0,2.4,0,3.2,0c0.4,0,0.7,0,0.9,0C81,16.5,81,16.5,81.2,16.5C81.2,16.5,81.2,16.5,81.2,16.5
						C81.2,16.5,81.2,16.5,81.2,16.5c-0.1,0-0.2,0-0.3,0c-0.2,0-0.5,0-0.8,0c-0.8,0-1.8,0-3.2,0c-2.7,0-6.6,0-10.9,0h-0.1v-0.1
						c0-0.6,0-1.3,0-2c0-0.3,0-0.7,0-1c0-0.2,0-0.3,0-0.5v-0.3v-0.1v-0.1v0v0v0v0v0l0,0c0.2-0.2,0,0,0.1-0.1c6.2,0,11.8,0,15.3,0h0
						v0c0,1.3,0,2.3,0,3c0,0.3,0,0.6,0,0.8C81.2,16.3,81.2,16.4,81.2,16.5C81.2,16.5,81.2,16.5,81.2,16.5z"/>
				</g>
			</g>
		</g>
		<g>
			<g>
				<g>
					<path class="st3" d="M214.2,95.4C214.2,95.4,214.2,95.4,214.2,95.4c0-0.1,0-0.2,0-0.3c0-0.2,0-0.5,0-0.8c0-0.7,0-1.7,0-3l0,0
						c-3.5,0-9,0-15.3,0c0,0-0.1,0.1,0.1-0.1l0,0v0v0v0v0v0v0.1v0.1v0.3c0,0.2,0,0.3,0,0.5c0,0.3,0,0.7,0,1c0,0.7,0,1.3,0,2
						l-0.1-0.1c4.3,0,8.1,0,10.9,0c1.4,0,2.4,0,3.2,0c0.4,0,0.7,0,0.9,0C214,95.4,214,95.4,214.2,95.4
						C214.1,95.4,214.2,95.4,214.2,95.4C214.2,95.4,214.2,95.4,214.2,95.4c-0.1,0-0.2,0-0.3,0c-0.2,0-0.5,0-0.9,0
						c-0.8,0-1.8,0-3.2,0c-2.7,0-6.6,0-10.9,0h-0.1v-0.1c0-0.6,0-1.3,0-2c0-0.3,0-0.7,0-1c0-0.2,0-0.3,0-0.5v-0.3v-0.1v-0.1v0v0v0v0
						v0l0,0c0.2-0.2,0,0,0.1-0.1c6.2,0,11.8,0,15.3,0h0v0c0,1.3,0,2.3,0,3c0,0.3,0,0.6,0,0.8C214.2,95.3,214.2,95.3,214.2,95.4
						C214.2,95.4,214.2,95.4,214.2,95.4z"/>
				</g>
			</g>
			<g>
				<g>
					<path class="st3" d="M216.2,91.4C216.2,91.4,216.2,91.4,216.2,91.4c0-0.1,0-0.2,0-0.3c0-0.2,0-0.5,0-0.8c0-0.7,0-1.7,0-2.9
						l0.1,0.1c-2.4,0-5.6,0-9.2,0c-0.1,0.1,0.1-0.1,0.1-0.1l0,0v0v0v0v0v0v0.1v0.1v0.3c0,0.2,0,0.4,0,0.5c0,0.3,0,0.7,0,1
						c0,0.7,0,1.3,0,2l-0.1-0.1c2.6,0,4.9,0,6.6,0c0.8,0,1.5,0,1.9,0c0.2,0,0.4,0,0.5,0C216.2,91.4,216.2,91.4,216.2,91.4
						c0,0-0.1,0-0.2,0c-0.1,0-0.3,0-0.5,0c-0.5,0-1.1,0-1.9,0c-1.6,0-3.9,0-6.6,0H207v-0.1c0-0.6,0-1.3,0-2c0-0.3,0-0.7,0-1
						c0-0.2,0-0.3,0-0.5v-0.3v-0.1v-0.1v0v0v0v0v0l0,0c0,0,0.1-0.1,0.1-0.1c3.6,0,6.8,0,9.2,0h0.1v0.1c0,1.2,0,2.3,0,3
						c0,0.3,0,0.6,0,0.8C216.2,91.3,216.2,91.4,216.2,91.4z"/>
				</g>
			</g>
		</g>
		<g>
			<g>
				<g>
					<path class="st3" d="M137,120.5C137,120.5,137,120.4,137,120.5c0-0.1,0-0.2,0-0.3c0-0.2,0-0.5,0-0.8c0-0.7,0-1.7,0-3l0,0
						c-3.5,0-9,0-15.3,0c0,0-0.1,0.1,0.1-0.1l0,0v0v0v0v0v0v0.1v0.1v0.3c0,0.2,0,0.3,0,0.5c0,0.3,0,0.7,0,1c0,0.7,0,1.3,0,2
						l-0.1-0.1c4.3,0,8.1,0,10.9,0c1.4,0,2.4,0,3.2,0c0.4,0,0.7,0,0.9,0C136.8,120.5,136.9,120.5,137,120.5
						C137,120.5,137,120.5,137,120.5C137,120.5,137,120.5,137,120.5c-0.1,0-0.2,0-0.3,0c-0.2,0-0.5,0-0.9,0c-0.8,0-1.8,0-3.2,0
						c-2.7,0-6.6,0-10.9,0h-0.1v-0.1c0-0.6,0-1.3,0-2c0-0.3,0-0.7,0-1c0-0.2,0-0.3,0-0.5v-0.3v-0.1v-0.1v0v0v0v0v0l0,0
						c0.2-0.2,0,0,0.1-0.1c6.2,0,11.8,0,15.3,0h0v0c0,1.3,0,2.3,0,3c0,0.3,0,0.6,0,0.8C137,120.3,137,120.3,137,120.5
						C137,120.4,137,120.5,137,120.5z"/>
				</g>
			</g>
			<g>
				<g>
					<path class="st3" d="M139.1,116.4C139.1,116.4,139.1,116.4,139.1,116.4c0-0.1,0-0.2,0-0.3c0-0.2,0-0.5,0-0.8c0-0.7,0-1.7,0-2.9
						l0.1,0.1c-2.4,0-5.6,0-9.2,0c-0.1,0.1,0.1-0.1,0.1-0.1l0,0v0v0v0v0v0v0.1v0.1v0.3c0,0.2,0,0.4,0,0.5c0,0.3,0,0.7,0,1
						c0,0.7,0,1.3,0,2l-0.1-0.1c2.6,0,4.9,0,6.6,0c0.8,0,1.5,0,1.9,0c0.2,0,0.4,0,0.5,0C139,116.4,139.1,116.4,139.1,116.4
						c0,0-0.1,0-0.2,0c-0.1,0-0.3,0-0.5,0c-0.5,0-1.1,0-1.9,0c-1.6,0-3.9,0-6.6,0h-0.1v-0.1c0-0.6,0-1.3,0-2c0-0.3,0-0.7,0-1
						c0-0.2,0-0.3,0-0.5v-0.3v-0.1v-0.1v0v0v0v0v0l0,0c0,0,0.1-0.1,0.1-0.1c3.6,0,6.8,0,9.2,0h0.1v0.1c0,1.2,0,2.3,0,3
						c0,0.3,0,0.6,0,0.8C139.1,116.3,139.1,116.4,139.1,116.4z"/>
				</g>
			</g>
		</g>
		<g>
			<rect x="166.1" y="12.4" class="st5" width="15.3" height="4"/>
		</g>
	</g>
	<g id="Floor">
		<g>
			<path class="st7" d="M224.4,141.7c0,0-50.1,0.1-111.9,0.1c-61.8,0-111.9,0-111.9-0.1s50.1-0.1,111.9-0.1
				C174.3,141.6,224.4,141.7,224.4,141.7z"/>
		</g>
	</g>
	<g id="Chart">
		<g>
			<g>
				<rect x="79.9" y="25.3" class="st6" width="99.1" height="82"/>
				<g>
					<path class="st7" d="M179,107.3c0-0.6,0-32.6-0.1-82l0.1,0.1c-28.4,0-62.5,0-99.1,0h0l0.1-0.1c0,29.7,0,57.7,0,82l-0.1-0.1
						C138.9,107.3,178.4,107.3,179,107.3c-0.6,0-40.1,0-99.1,0.1h-0.1v-0.1c0-24.3,0-52.3,0-82v-0.1h0.1h0c36.6,0,70.7,0,99.1,0h0.1
						v0.1C179.1,74.7,179,106.8,179,107.3z"/>
				</g>
			</g>
			<g>
				<path class="st3" d="M167.6,47.5c0,0-17.8,0.1-39.7,0.1c-21.9,0-39.7,0-39.7-0.1s17.8-0.1,39.7-0.1
					C149.9,47.4,167.6,47.4,167.6,47.5z"/>
			</g>
			<g>
				<path class="st3" d="M167.6,56.2c0,0-17.8,0.1-39.7,0.1c-21.9,0-39.7,0-39.7-0.1s17.8-0.1,39.7-0.1
					C149.9,56.1,167.6,56.2,167.6,56.2z"/>
			</g>
			<g>
				<path class="st3" d="M167.6,65c0,0-17.8,0.1-39.7,0.1c-21.9,0-39.7,0-39.7-0.1c0,0,17.8-0.1,39.7-0.1
					C149.9,64.9,167.6,64.9,167.6,65z"/>
			</g>
			<g>
				<path class="st3" d="M167.6,73.7c0,0-17.8,0.1-39.7,0.1c-21.9,0-39.7,0-39.7-0.1c0,0,17.8-0.1,39.7-0.1
					C149.9,73.7,167.6,73.7,167.6,73.7z"/>
			</g>
			<g>
				<path class="st3" d="M167.6,82.5c0,0-17.8,0.1-39.7,0.1c-21.9,0-39.7,0-39.7-0.1s17.8-0.1,39.7-0.1
					C149.9,82.4,167.6,82.4,167.6,82.5z"/>
			</g>
			<g>
				<path class="st3" d="M167.6,91.3c0,0-17.8,0.1-39.7,0.1c-21.9,0-39.7,0-39.7-0.1s17.8-0.1,39.7-0.1
					C149.9,91.2,167.6,91.2,167.6,91.3z"/>
			</g>
			<rect x="137" y="74.5" class="st8" width="7.9" height="25.4"/>
			<rect x="151.9" y="66.1" class="st8" width="7.9" height="33.9"/>
			<rect x="95.4" y="88" class="st8" width="7.9" height="11.9"/>
			<rect x="108.5" y="84.5" class="st8" width="7.9" height="15.5"/>
			<rect x="122" y="80" class="st8" width="7.9" height="20"/>
			<path class="st7" d="M179.4,29.9H79.6c-1.5,0-2.7-1.2-2.7-2.7v-0.6c0-1.5,1.2-2.7,2.7-2.7h99.7c1.5,0,2.7,1.2,2.7,2.7v0.6
				C182.1,28.6,180.9,29.9,179.4,29.9z"/>
			<g>
				<path class="st7" d="M168.4,99.9c0,0-0.1,0-0.4,0c-0.2,0-0.6,0-1.1,0c-0.9,0-2.3,0-4.1,0c-3.6,0-8.7,0-15.1,0
					c-12.7,0-30.3,0-49.8,0c-3.4,0-6.7,0-9.8,0H88v-0.1c0-17.1,0-32.3,0-43.1c0-5.4,0-9.8,0-12.8c0-1.5,0-2.7,0-3.4
					c0-0.4,0-0.7,0-0.9c0-0.2,0-0.3,0-0.3s0,0.1,0,0.3c0,0.2,0,0.5,0,0.9c0,0.8,0,1.9,0,3.4c0,3,0,7.4,0,12.8c0,10.9,0,26,0,43.1
					l-0.1-0.1c3.2,0,6.5,0,9.8,0c19.4,0,37,0,49.8,0c6.4,0,11.5,0,15.1,0c1.8,0,3.2,0,4.1,0c0.5,0,0.8,0,1.1,0
					C168.2,99.9,168.4,99.9,168.4,99.9z"/>
			</g>
			<g>
				<path class="st9" d="M140.7,72.5c0,0,0,0-0.1,0.1c-0.1,0.1-0.2,0.2-0.4,0.4c-0.3,0.3-0.8,0.8-1.5,1.3c-1.3,1.2-3.2,2.9-5.5,4.9
					c-4.6,4.2-11.1,9.9-18.2,16.3l-0.1,0.1l-0.1-0.1c-0.2-0.2-0.5-0.5-0.7-0.7c-3.2-3.2-6.2-6.3-8.9-9.2l0.1,0
					c-5.1,4.3-9.4,8-12.4,10.6c-1.5,1.3-2.7,2.3-3.6,3c-0.4,0.3-0.7,0.6-1,0.8c-0.1,0.1-0.2,0.2-0.2,0.2c-0.1,0-0.1,0.1-0.1,0.1
					s0,0,0.1-0.1c0.1-0.1,0.1-0.1,0.2-0.2c0.2-0.2,0.5-0.5,0.9-0.8c0.8-0.7,2-1.8,3.5-3.1c3-2.6,7.4-6.3,12.4-10.6l0.1,0l0.1,0.1
					c2.8,2.8,5.8,5.9,9,9.2c0.2,0.2,0.5,0.5,0.7,0.7l-0.1,0c7.1-6.4,13.6-12.1,18.2-16.3c2.3-2.1,4.2-3.7,5.5-4.9
					c0.6-0.6,1.2-1,1.5-1.3c0.2-0.1,0.3-0.3,0.4-0.3C140.7,72.5,140.7,72.5,140.7,72.5z"/>
			</g>
			<g>
				<g>
					<path class="st4" d="M152.2,64.4l-9.5-3.8c-3.1,0.3-4,3.6-3.4,5.6c-1.4-0.4-3,0.2-3.8,1.5c-0.8,1.2-0.7,2.9,0.2,4.1
						c-1.7,0.5-2.7,2.5-2.1,4.1c0.6,1.6,2.8,2.4,4.3,1.6c1-0.5,1.7-1.6,2.8-2c1-0.3,2.1,0,3.2,0.1c2.7,0.2,5.3-1.3,6.8-3.5
						C152.2,69.9,152.6,67.1,152.2,64.4z"/>
				</g>
				<g>
					<g>
						<g>
							<path class="st9" d="M146.1,62.1c-0.9,0.5-1.7,1.1-2.4,1.9c-0.4,0.5,0.1,1.3,0.7,1.1l0,0c-0.9,0.9-1.6,1.9-2.4,2.9
								c-0.5,0.7,0.1,1.5,0.9,1.3c3-0.8,5.8-2.7,7.5-5.4L146.1,62.1z"/>
						</g>
						<g class="st10">
							<g>
								<path d="M145.9,63.3c-0.2,0.1-0.3,0.2-0.4,0.3c-0.1,0.1-0.2,0.3-0.1,0.5c0.1,0.2,0.5,0.3,0.6,0.5c0.1,0.2-0.1,0.5-0.3,0.7
									c-0.2,0.2-0.4,0.4-0.7,0.6c-0.2,0.1-0.3,0.3-0.3,0.5c0.1,0.2,0.4,0.3,0.6,0.2c1.1-0.1,2.1-0.8,2.6-1.8L145.9,63.3z"/>
							</g>
						</g>
						<g>
							<g>
								<g>
									<path class="st9" d="M161,59.5C161,59.5,161,59.5,161,59.5c0.7,3.9-0.4,7.9-2.9,10.8l-1.6,1.9l-1.5-5.8L161,59.5z"/>
								</g>
								<g>
									<g>
										<path class="st7" d="M161,59.5C161,59.5,161,59.5,161,59.5c-0.1,0.1-0.1,0.1-0.1,0.1c-0.1,0.1-0.2,0.2-0.3,0.4
											c-0.3,0.3-0.7,0.8-1.2,1.4c-1.1,1.2-2.5,3-4.3,5l0,0c0.4,1.6,0.9,3.4,1.4,5.2c0,0.2,0.1,0.3,0.1,0.5l-0.1,0
											c0.3-0.4,0.6-0.7,0.9-1.1c0.3-0.4,0.6-0.7,0.9-1.1c0.6-0.7,1.1-1.5,1.4-2.2c0.4-0.7,0.7-1.5,0.9-2.2
											c0.1-0.4,0.2-0.7,0.3-1c0.1-0.3,0.1-0.7,0.2-1c0.2-1.3,0.1-2.3,0.1-3c0-0.4-0.1-0.6-0.1-0.8C161,59.6,161,59.5,161,59.5
											C161,59.5,161,59.5,161,59.5c0,0.1,0,0.2,0.1,0.3c0,0.2,0.1,0.5,0.1,0.8c0.1,0.7,0.1,1.7,0,3c0,0.3-0.1,0.6-0.2,1
											c-0.1,0.3-0.2,0.7-0.3,1.1c-0.2,0.7-0.5,1.5-0.9,2.2c-0.4,0.7-0.9,1.5-1.4,2.2c-0.3,0.4-0.6,0.7-0.9,1.1
											c-0.3,0.4-0.6,0.7-0.9,1.1l0,0.1l0-0.1c0-0.2-0.1-0.3-0.1-0.5c-0.5-1.9-0.9-3.6-1.3-5.2l0,0l0,0c1.8-2,3.3-3.8,4.3-5
											c0.5-0.6,1-1.1,1.2-1.4c0.1-0.2,0.3-0.3,0.3-0.4C160.9,59.6,161,59.5,161,59.5C161,59.5,161,59.5,161,59.5z"/>
									</g>
								</g>
							</g>
							<g>
								<g>
									<path class="st9" d="M150.5,50.4C150.5,50.4,150.4,50.4,150.5,50.4c-3.9-0.1-7.6,1.5-10.2,4.4l-1.6,1.8l5.8,0.6L150.5,50.4
										z"/>
								</g>
								<g>
									<g>
										<path class="st7" d="M150.5,50.4C150.5,50.4,150.5,50.4,150.5,50.4c0,0.1-0.1,0.1-0.1,0.1c-0.1,0.1-0.2,0.2-0.3,0.4
											c-0.3,0.3-0.7,0.8-1.2,1.4c-1,1.2-2.5,2.9-4.3,5l0,0l0,0c-1.6-0.2-3.4-0.4-5.3-0.6c-0.2,0-0.4,0-0.5-0.1l-0.1,0l0-0.1
											c0.3-0.4,0.6-0.7,0.9-1.1c0.3-0.4,0.6-0.7,0.9-1c0.6-0.7,1.3-1.2,2-1.7c0.7-0.5,1.4-0.9,2-1.2c0.3-0.2,0.7-0.3,1-0.4
											c0.3-0.1,0.6-0.2,0.9-0.3c1.2-0.3,2.2-0.4,2.9-0.5c0.3,0,0.6,0,0.8,0C150.3,50.4,150.3,50.4,150.5,50.4
											C150.4,50.4,150.5,50.4,150.5,50.4c0,0-0.1,0-0.3,0c-0.2,0-0.5,0-0.8,0c-0.7,0-1.7,0.1-2.9,0.5c-0.3,0.1-0.6,0.2-0.9,0.3
											c-0.3,0.1-0.6,0.3-1,0.4c-0.7,0.3-1.4,0.7-2,1.2c-0.7,0.5-1.3,1.1-1.9,1.7c-0.3,0.3-0.6,0.7-0.9,1
											c-0.3,0.4-0.6,0.7-0.9,1.1l0-0.1c0.2,0,0.3,0,0.5,0.1c1.9,0.2,3.7,0.4,5.3,0.6l0,0c1.7-2,3.2-3.7,4.3-4.9
											c0.5-0.6,0.9-1.1,1.2-1.4c0.1-0.2,0.3-0.3,0.3-0.4C150.4,50.5,150.4,50.4,150.5,50.4C150.4,50.4,150.5,50.4,150.5,50.4z"
											/>
									</g>
								</g>
							</g>
							<g>
								<g>
									<path class="st5" d="M171.4,36.7c-0.8-0.7-4.2,0.1-8.8,2.5c-4.5,2.3-7.2,5.4-7.2,5.4l-13.4,15.5l4.1,3.5l2.4,2l4.1,3.5
										l12.1-14.1c1.2-1.4,2.2-2.9,3.1-4.4c0.8-1.4,1.7-3.1,2.3-4.9C172,41,172.3,37.4,171.4,36.7"/>
								</g>
							</g>
						</g>
						<g>
							<g>
								<line class="st11" x1="144.2" y1="57.6" x2="154.7" y2="66.6"/>
							</g>
							<g>
								<g>
									<path class="st7" d="M154.7,66.6c0,0-2.4-2-5.3-4.4c-2.9-2.5-5.2-4.5-5.2-4.5c0,0,2.4,2,5.3,4.4S154.7,66.6,154.7,66.6z"/>
								</g>
							</g>
						</g>
						<g>
							<g>
								<line class="st11" x1="143.7" y1="58.1" x2="154.2" y2="67"/>
							</g>
							<g>
								<g>
									<path class="st7" d="M154.2,67c0,0-2.4-2-5.3-4.4c-2.9-2.5-5.2-4.5-5.2-4.5c0,0,2.4,2,5.3,4.4C151.9,65,154.3,67,154.2,67z
										"/>
								</g>
							</g>
						</g>
						<g>
							<g>
								<line class="st11" x1="143.3" y1="58.6" x2="153.8" y2="67.5"/>
							</g>
							<g>
								<g>
									<path class="st7" d="M153.8,67.5c0,0-2.4-2-5.3-4.4c-2.9-2.5-5.2-4.5-5.2-4.5c0,0,2.4,2,5.3,4.4
										C151.5,65.5,153.8,67.5,153.8,67.5z"/>
								</g>
							</g>
						</g>
						<g>
							<g>
								<line class="st11" x1="142.9" y1="59.1" x2="153.4" y2="68"/>
							</g>
							<g>
								<g>
									<path class="st7" d="M153.4,68c0,0-2.4-2-5.3-4.4c-2.9-2.5-5.2-4.5-5.2-4.5c0,0,2.4,2,5.3,4.4C151.1,66,153.4,68,153.4,68z
										"/>
								</g>
							</g>
						</g>
						<g>
							<g>
								<line class="st11" x1="142.5" y1="59.6" x2="153" y2="68.5"/>
							</g>
							<g>
								<g>
									<path class="st7" d="M153,68.5c0,0-2.4-2-5.3-4.4c-2.9-2.5-5.2-4.5-5.2-4.5c0,0,2.4,2,5.3,4.4
										C150.7,66.5,153,68.5,153,68.5z"/>
								</g>
							</g>
						</g>
						<g>
							<g>
								<path class="st7" d="M155.7,55C155.7,55,155.7,55,155.7,55c-0.1,0.1-0.1,0.2-0.2,0.3c-0.2,0.2-0.4,0.5-0.7,0.8
									c-0.6,0.7-1.3,1.6-2.2,2.5c-0.9,1-1.7,1.9-2.2,2.5c-0.3,0.3-0.5,0.6-0.7,0.8c-0.1,0.1-0.1,0.2-0.2,0.2c0,0-0.1,0.1-0.1,0.1
									c0,0,0,0,0.1-0.1c0-0.1,0.1-0.1,0.2-0.2c0.2-0.2,0.4-0.5,0.7-0.8c0.6-0.7,1.4-1.5,2.2-2.5c0.9-1,1.6-1.9,2.2-2.5
									c0.3-0.3,0.5-0.6,0.7-0.8C155.6,55.1,155.6,55.1,155.7,55C155.7,55,155.7,55,155.7,55z"/>
							</g>
						</g>
						<g>
							<g>
								<path class="st7" d="M161,59.5c0,0-2.4-2-5.3-4.5c-2.9-2.5-5.2-4.5-5.2-4.5c0,0,2.4,2,5.3,4.5C158.7,57.4,161,59.5,161,59.5
									z"/>
							</g>
						</g>
						<g>
							<g>
								<path class="st7" d="M152.2,60.8c0,0,0,0,0.1,0c0.1,0,0.2,0.1,0.2,0.2c0.1,0.1,0.1,0.3,0,0.4c-0.1,0.2-0.2,0.3-0.4,0.3
									c-0.2,0-0.4-0.2-0.4-0.3c-0.1-0.2,0-0.3,0.1-0.4c0.1-0.1,0.2-0.1,0.2-0.1C152.1,60.8,152.1,60.8,152.2,60.8c0,0-0.1,0-0.1,0
									c-0.1,0-0.1,0.1-0.2,0.2c-0.1,0.1-0.1,0.2-0.1,0.4c0,0.1,0.2,0.3,0.3,0.3c0.2,0,0.3-0.1,0.4-0.2c0.1-0.1,0-0.3,0-0.4
									C152.4,60.9,152.3,60.9,152.2,60.8C152.2,60.8,152.2,60.8,152.2,60.8z"/>
							</g>
						</g>
						<g>
							<g>
								<path class="st7" d="M154.8,57.9c0,0,0,0,0.1,0c0.1,0,0.2,0.1,0.2,0.2c0.1,0.1,0.1,0.3,0,0.4c-0.1,0.2-0.2,0.3-0.4,0.3
									c-0.2,0-0.4-0.2-0.4-0.3c-0.1-0.2,0-0.3,0.1-0.4c0.1-0.1,0.2-0.1,0.2-0.1C154.7,57.8,154.8,57.8,154.8,57.9c0,0-0.1,0-0.1,0
									c-0.1,0-0.1,0.1-0.2,0.2c-0.1,0.1-0.1,0.2-0.1,0.4c0,0.1,0.2,0.3,0.3,0.3c0.2,0,0.3-0.1,0.4-0.2c0.1-0.1,0-0.3,0-0.4
									C155,58,155,57.9,154.8,57.9C154.9,57.9,154.8,57.9,154.8,57.9z"/>
							</g>
						</g>
						<g class="st10">
							<g>
								<path d="M144.7,57.1c0,0,4-4.4,5.8-6.7c-1.3,0.7-2.9,1.5-3.9,2.5C145.4,54,144.7,55.5,144.7,57.1z"/>
							</g>
						</g>
						<g>
							<path class="st9" d="M142.2,71.2c-0.4-0.1-0.8,0.2-0.8,0.6c-0.1,0.4,0.2,0.8,0.6,0.9c0.4,0.1,0.8-0.2,0.9-0.6
								C142.9,71.8,142.6,71.3,142.2,71.2"/>
						</g>
					</g>
					<g>
						<ellipse class="st6" cx="162.4" cy="47.3" rx="3.8" ry="3.8"/>
						<g>
							<path class="st7" d="M166.1,47.7c0,0,0-0.3,0-0.9c-0.1-0.6-0.3-1.4-1.1-2.2c-0.4-0.4-0.9-0.7-1.5-0.9
								c-0.6-0.2-1.3-0.2-1.9-0.1c-0.3,0.1-0.7,0.2-1,0.4c-0.3,0.2-0.6,0.4-0.9,0.7c-0.5,0.5-0.9,1.3-1,2.1
								c-0.1,0.8,0.1,1.6,0.4,2.2c0.2,0.3,0.4,0.6,0.7,0.9c0.3,0.3,0.6,0.5,0.9,0.6c0.6,0.3,1.3,0.4,1.9,0.4c0.6,0,1.2-0.2,1.6-0.5
								c0.9-0.5,1.4-1.3,1.6-1.8C166.1,48.1,166.1,47.7,166.1,47.7c0,0,0,0.1,0,0.2c0,0.1,0,0.2-0.1,0.3c0,0.1-0.1,0.2-0.1,0.4
								c-0.2,0.6-0.7,1.4-1.6,1.9c-0.5,0.3-1,0.5-1.7,0.5c-0.6,0-1.3-0.1-2-0.4c-0.3-0.2-0.6-0.4-0.9-0.6c-0.3-0.3-0.5-0.6-0.7-0.9
								c-0.4-0.7-0.6-1.5-0.5-2.3c0.1-0.8,0.5-1.6,1-2.2c0.3-0.3,0.6-0.5,0.9-0.7c0.3-0.2,0.7-0.3,1-0.4c0.7-0.2,1.4-0.1,2,0.1
								c0.6,0.2,1.1,0.5,1.5,0.9c0.8,0.8,1,1.7,1.1,2.3c0,0.2,0,0.3,0,0.4c0,0.1,0,0.2,0,0.3C166.1,47.7,166.1,47.7,166.1,47.7z"/>
						</g>
					</g>
					<g>
						<path class="st9" d="M171.4,36.7c-0.8-0.7-4.2,0.1-8.8,2.5l7.6,6.5C172,41,172.3,37.4,171.4,36.7"/>
					</g>
					<g>
						<g>
							<g>
								<path class="st7" d="M171.4,36.7c0,0,0,0,0.1,0.1c0.1,0.1,0.2,0.3,0.2,0.5c0.1,0.5,0.2,1.2,0.1,2.2
									c-0.2,1.9-0.9,4.7-2.2,7.9c-0.7,1.6-1.6,3.3-2.7,5c-0.6,0.9-1.2,1.7-1.9,2.6c-0.7,0.8-1.5,1.7-2.2,2.6
									c-3.1,3.5-6.4,7.5-10,11.6l-0.1,0.1l-0.1-0.1c-1.7-1.5-3.5-3-5.3-4.5c-1.8-1.6-3.6-3.1-5.3-4.5l-0.1-0.1l0.1-0.1
									c3.6-4.2,7-8.1,10-11.6c0.8-0.9,1.5-1.7,2.2-2.6c0.4-0.4,0.7-0.8,1.1-1.2c0.4-0.4,0.7-0.8,1.1-1.1c1.5-1.4,3.1-2.5,4.6-3.4
									c1.5-0.9,2.9-1.6,4.2-2.1c1.3-0.5,2.4-0.9,3.3-1.2c0.9-0.2,1.7-0.3,2.2-0.3c0.1,0,0.2,0,0.3,0.1c0.1,0,0.2,0.1,0.2,0.1
									C171.4,36.7,171.4,36.7,171.4,36.7s-0.1,0-0.2-0.1c-0.1,0-0.1,0-0.2-0.1c-0.1,0-0.2,0-0.3-0.1c-0.5,0-1.2,0.1-2.2,0.3
									c-0.9,0.2-2,0.7-3.3,1.2c-1.3,0.6-2.7,1.2-4.1,2.1c-1.5,0.9-3,2-4.5,3.4c-0.4,0.3-0.8,0.7-1.1,1.1c-0.3,0.4-0.7,0.8-1.1,1.2
									c-0.7,0.8-1.5,1.7-2.2,2.6c-3.1,3.5-6.4,7.5-10,11.6l0-0.1c1.7,1.5,3.5,3,5.3,4.5c1.8,1.6,3.6,3.1,5.3,4.5l-0.1,0
									c3.6-4.2,7-8.1,10-11.6c0.8-0.9,1.5-1.7,2.2-2.6c0.7-0.8,1.4-1.7,1.9-2.5c1.2-1.7,2-3.4,2.8-5c1.4-3.2,2.1-5.9,2.3-7.8
									c0.1-1,0.1-1.7,0-2.2c-0.1-0.2-0.1-0.4-0.2-0.5C171.5,36.8,171.4,36.7,171.4,36.7z"/>
							</g>
						</g>
					</g>
				</g>
				<g>
					<g>
						<path class="st7" d="M162.7,50.1c0,0-0.1-0.3-0.1-0.8c0-0.5-0.1-1.1-0.1-1.8c0-0.7,0-1.3,0-1.8c0-0.5,0-0.8,0-0.8
							c0,0,0.1,0.3,0.1,0.8c0,0.5,0.1,1.1,0.1,1.8c0,0.7,0,1.3,0,1.8C162.7,49.8,162.7,50.1,162.7,50.1z"/>
					</g>
					<g>
						<path class="st7" d="M161.8,49.4c0,0-0.1-0.7-0.2-1.6c-0.1-0.9-0.1-1.7,0-1.7s0.1,0.7,0.2,1.6S161.9,49.4,161.8,49.4z"/>
					</g>
				</g>
			</g>
			<path class="st4" d="M144.7,79.2c-0.7-0.3-1.6,0-2,0.5c-0.4,0.5-0.5,1.2-0.1,1.8c-0.6,0.2-1,0.9-1,1.6c0,0.7,0.4,1.3,1,1.6
				c0.5,0.4,1.2,0.4,1.9,0.3c1.3-0.3,2.3-1.5,2.4-2.8C146.9,80.9,145.9,79.6,144.7,79.2z"/>
			<path class="st4" d="M131,76.8c0,0.9-0.8,1.7-1.7,1.7c-0.9,0-1.7-0.8-1.7-1.7s0.8-1.7,1.7-1.7C130.2,75.1,131,75.9,131,76.8z"/>
			<g>
				<path class="st7" d="M92,44c0,0-0.9,0.1-2,0.1c-1.1,0-2,0-2-0.1s0.9-0.1,2-0.1S92,43.9,92,44z"/>
			</g>
			<g>
				<path class="st7" d="M92,52.3c0,0-0.9,0.1-2,0.1c-1.1,0-2,0-2-0.1s0.9-0.1,2-0.1S92,52.3,92,52.3z"/>
			</g>
			<g>
				<path class="st7" d="M92,60.6c0,0-0.9,0.1-2,0.1c-1.1,0-2,0-2-0.1s0.9-0.1,2-0.1C91.2,60.6,92,60.6,92,60.6z"/>
			</g>
			<g>
				<path class="st7" d="M92,69c0,0-0.9,0.1-2,0.1c-1.1,0-2,0-2-0.1c0,0,0.9-0.1,2-0.1S92,68.9,92,69z"/>
			</g>
			<g>
				<path class="st7" d="M92,77.3c0,0-0.9,0.1-2,0.1c-1.1,0-2,0-2-0.1c0,0,0.9-0.1,2-0.1S92,77.3,92,77.3z"/>
			</g>
			<g>
				<path class="st7" d="M92,85.6c0,0-0.9,0.1-2,0.1c-1.1,0-2,0-2-0.1s0.9-0.1,2-0.1C91.2,85.6,92,85.6,92,85.6z"/>
			</g>
		</g>
	</g>
	<g id="Character_3">
		<g>
			<g>
				<g>
					<g>
						<g>
							<path class="st7" d="M179.8,89.8c-2.2,0.2-3.9,3.7-3.4,5.5c0.2,0.9,0.7,1.9,0,2.6c-0.7,0.7-2.2,0.8-2.8,1.5
								c0,0-0.8,0.9-0.6,2.1c0.2,1.1,0.1,2.7-0.8,3.1l4.6,1.3c0.4-0.5,0.6-1.3,1-1.8c-0.5,0.5-0.9,2.3,1.5,2.4l1.4-1.4
								c4.2,0.8,8.6,1.8,11.8-0.3"/>
						</g>
					</g>
					<g>
						<g>
							<path class="st7" d="M201.5,98.2c-0.4-0.8-0.9-1.6-1.2-2.5c-0.6-1.9,0.2-4.1-0.9-5.7c-0.8-1.2-2.2-1.6-3.6-1.9
								c-1.4-0.3-2.7-0.4-3.7-1.3c-0.8-0.6-1.3-1.6-2.1-2.2c-1.1-0.9-2.7-1.1-4.1-1.1c-1.5,0-3,0.3-4.3,1.1
								c-1.3,0.8-2.3,2.1-2.4,3.6c-0.1,0.7,0.1,1.5-0.1,2.2c-0.2,0.8-0.7,1.4-1,2.2c-0.6,1.6,0,3.5,1.4,4.5l11.4,12.2
								c2.2,0.6,4.4-2.3,5.9-4C198.3,103.5,202.4,100.3,201.5,98.2z"/>
						</g>
					</g>
					<g>
						<g>
							<g>
								<g>
									<g>
										<path class="st12" d="M179.6,95.3c0.1-3,2.1-6.8,5.1-6.5l9.4,2.2c0.9,0.1,1.5,0.8,1.4,1.7l-0.5,22.8c0,0,0,0,0.1,0
											c0,0-2,6.4-8.3,4.6c-1.2-0.4-1.8,0.1-2-1.3l0,0c-0.3-0.1,0,0,0-0.2c-0.1-1.7-0.2-5.2-0.2-5.2l0,0c0-1.8-0.1-2.6-0.1-2.6
											c0,0-3.9-0.6-4.7-5.6C179.4,102.8,179.5,98.7,179.6,95.3z"/>
									</g>
								</g>
							</g>
						</g>
					</g>
					<g>
						<g>
							<g>
								<g>
									<g>
										<g>
											<g>
												<g>
													<g>
														<g>
															<g>
																<g>
																	<g>
																		<g>
																			<g>
																				<g>
																					<g>
																						<g>
																							<g>
																								<g>
																									<g>
																										<path class="st7" d="M187.4,99.1c0,0.3,0.3,0.6,0.6,0.6c0.4,0,0.6-0.3,0.7-0.6c0-0.3-0.3-0.6-0.6-0.6
																											C187.7,98.5,187.4,98.8,187.4,99.1z"/>
																									</g>
																								</g>
																							</g>
																						</g>
																					</g>
																				</g>
																			</g>
																		</g>
																	</g>
																</g>
															</g>
														</g>
													</g>
												</g>
											</g>
											<g>
												<g>
													<g>
														<g>
															<g>
																<g>
																	<g>
																		<g>
																			<g>
																				<g>
																					<g>
																						<g>
																							<g>
																								<g>
																									<g>
																										<path class="st7" d="M180.7,99.2c0,0.3,0.3,0.6,0.6,0.6c0.4,0,0.6-0.3,0.7-0.6c0-0.3-0.3-0.6-0.6-0.6
																											C181,98.6,180.7,98.9,180.7,99.2z"/>
																									</g>
																								</g>
																							</g>
																						</g>
																					</g>
																				</g>
																			</g>
																		</g>
																	</g>
																</g>
															</g>
														</g>
													</g>
												</g>
											</g>
											<g>
												<g>
													<g>
														<g>
															<g>
																<g>
																	<g>
																		<g>
																			<g>
																				<g>
																					<g>
																						<g>
																							<g>
																								<g>
																									<g>
																										<g>
																											<path class="st7" d="M180.4,97.5c0.1,0.1,0.6-0.3,1.4-0.3c0.8,0,1.3,0.5,1.4,0.4c0,0,0-0.2-0.3-0.5
																												c-0.2-0.2-0.6-0.4-1.1-0.5c-0.5,0-0.9,0.2-1.1,0.4C180.5,97.3,180.4,97.5,180.4,97.5z"/>
																										</g>
																									</g>
																								</g>
																							</g>
																						</g>
																					</g>
																				</g>
																			</g>
																		</g>
																	</g>
																</g>
															</g>
														</g>
													</g>
												</g>
											</g>
										</g>
										<g>
											<g>
												<g>
													<g>
														<g>
															<g>
																<g>
																	<g>
																		<g>
																			<g>
																				<g>
																					<g>
																						<g>
																							<g>
																								<g>
																									<g>
																										<g>
																											<path class="st7" d="M187.3,97.7c0.1,0.1,0.6-0.4,1.5-0.4c0.8-0.1,1.4,0.4,1.5,0.3
																												c0-0.1-0.1-0.2-0.3-0.4c-0.3-0.2-0.7-0.4-1.2-0.3s-0.9,0.2-1.2,0.5C187.3,97.4,187.3,97.6,187.3,97.7z"
																												/>
																										</g>
																									</g>
																								</g>
																							</g>
																						</g>
																					</g>
																				</g>
																			</g>
																		</g>
																	</g>
																</g>
															</g>
														</g>
													</g>
												</g>
											</g>
										</g>
										<g>
											<g>
												<g>
													<g>
														<g>
															<g>
																<g>
																	<g>
																		<g>
																			<g>
																				<g>
																					<g>
																						<g>
																							<g>
																								<g>
																									<g>
																										<g>
																											<path class="st7" d="M185,102.6c0,0-0.4-0.1-1.1-0.2c-0.2,0-0.3,0-0.4-0.2c0-0.1,0-0.3,0.1-0.5
																												c0.2-0.4,0.3-0.9,0.5-1.4c0.7-1.9,1.2-3.5,1.1-3.6c-0.1,0-0.7,1.5-1.4,3.5c-0.2,0.5-0.3,0.9-0.5,1.4
																												c-0.1,0.2-0.2,0.4-0.1,0.7c0.1,0.1,0.2,0.2,0.3,0.3c0.1,0,0.2,0,0.3,0C184.5,102.7,185,102.7,185,102.6z
																												"/>
																										</g>
																									</g>
																								</g>
																							</g>
																						</g>
																					</g>
																				</g>
																			</g>
																		</g>
																	</g>
																</g>
															</g>
														</g>
													</g>
												</g>
											</g>
										</g>
										<g>
											<g>
												<g>
													<g>
														<g>
															<g>
																<g>
																	<g>
																		<g>
																			<g>
																				<g>
																					<g>
																						<g>
																							<g>
																								<g>
																									<g>
																										<path class="st13" d="M184.6,110.9c0,0,3.4,0.2,6.7-1.9c0,0-1.6,3.7-6.7,3.3L184.6,110.9z"/>
																									</g>
																								</g>
																							</g>
																						</g>
																					</g>
																				</g>
																			</g>
																		</g>
																	</g>
																</g>
															</g>
														</g>
													</g>
												</g>
											</g>
										</g>
										<g>
											<g>
												<g>
													<g>
														<g>
															<g>
																<g>
																	<g>
																		<g>
																			<g>
																				<g>
																					<g>
																						<g>
																							<g>
																								<g>
																									<g>
																										<path class="st9" d="M185.3,104.3c0.2-0.3,0.7-0.5,1.1-0.5c0.3,0,0.6,0.2,0.8,0.4s0.2,0.6,0.1,0.8
																											c-0.2,0.3-0.6,0.3-0.9,0.2c-0.3-0.1-0.6-0.3-0.9-0.5c-0.1-0.1-0.2-0.1-0.2-0.2
																											C185.2,104.5,185.2,104.4,185.3,104.3"/>
																									</g>
																								</g>
																							</g>
																						</g>
																					</g>
																				</g>
																			</g>
																		</g>
																	</g>
																</g>
															</g>
														</g>
													</g>
												</g>
											</g>
										</g>
										<g>
											<g>
												<g>
													<g>
														<g>
															<g>
																<g>
																	<g>
																		<g>
																			<g>
																				<g>
																					<g>
																						<g>
																							<g>
																								<g>
																									<g>
																										<g>
																											<path class="st7" d="M187,103.1c-0.1,0-0.1,0.7-0.7,1.3c-0.6,0.5-1.4,0.5-1.4,0.6c0,0,0.2,0.1,0.5,0.1
																												c0.3,0,0.8-0.1,1.2-0.4c0.4-0.3,0.6-0.8,0.6-1.1C187.1,103.3,187.1,103.1,187,103.1z"/>
																										</g>
																									</g>
																								</g>
																							</g>
																						</g>
																					</g>
																				</g>
																			</g>
																		</g>
																	</g>
																</g>
															</g>
														</g>
													</g>
												</g>
											</g>
										</g>
									</g>
								</g>
							</g>
							<g>
								<g>
									<g>
										<g>
											<g>
												<g>
													<g>
														<g>
															<g>
																<g>
																	<g>
																		<g>
																			<g>
																				<g>
																					<g>
																						<g>
																							<path class="st7" d="M187.2,95.3c0.1,0.2,0.8,0.1,1.6,0.2c0.8,0.1,1.5,0.3,1.6,0.1c0-0.1-0.1-0.3-0.3-0.4
																								c-0.3-0.2-0.7-0.3-1.2-0.4c-0.5,0-0.9,0-1.2,0.2C187.3,95.1,187.1,95.2,187.2,95.3z"/>
																						</g>
																					</g>
																				</g>
																			</g>
																		</g>
																	</g>
																</g>
															</g>
														</g>
													</g>
												</g>
											</g>
										</g>
									</g>
								</g>
							</g>
							<g>
								<g>
									<g>
										<g>
											<g>
												<g>
													<g>
														<g>
															<g>
																<g>
																	<g>
																		<g>
																			<g>
																				<g>
																					<g>
																						<g>
																							<path class="st7" d="M180.4,95c0.1,0.2,0.7,0,1.3,0c0.7,0,1.2,0.1,1.3-0.1c0.1-0.1,0-0.2-0.3-0.4
																								c-0.2-0.1-0.6-0.3-1.1-0.2c-0.5,0-0.8,0.2-1.1,0.3C180.4,94.8,180.4,95,180.4,95z"/>
																						</g>
																					</g>
																				</g>
																			</g>
																		</g>
																	</g>
																</g>
															</g>
														</g>
													</g>
												</g>
											</g>
										</g>
									</g>
								</g>
							</g>
						</g>
					</g>
					<g>
						<g>
							<path class="st7" d="M204.4,97c-0.5-0.8,0.3-1.9-0.5-2.6c-0.7-0.7-2.5-0.6-3.1-1.3c-0.5-0.6-0.6-0.7-0.6-1.3
								c-0.1-0.7-0.6-3.6-4.9-3.8l-0.4,2.7c-0.3-0.1-0.6-0.2-0.8-0.3c-3.5-1-7.2-1.6-10.9-1.7c-0.4,0.8,0.1,1.8,0.9,2.2
								c0.7,0.5,1.6,0.6,2.5,0.8c0.8,0.2,1.7,0.6,2.1,1.4c0.4,0.8,0.2,1.9,0.6,2.7c0.7,1.4,2.8,1.7,3.5,3.2c0.5,1.1,0,2.4-0.1,3.6
								c-0.1,1.4,0.6,2.8,1.6,3.6c0.9,0.7,2.3,1.9,2.4,1.6l10.8-7.9C208,98.3,205.2,98.2,204.4,97z"/>
						</g>
					</g>
				</g>
				<g>
					<path class="st7" d="M196.3,107.3c0,0-0.4,0-1-0.3c-0.6-0.2-1.5-0.7-2.2-1.7c-0.3-0.5-0.6-1.1-0.8-1.8c-0.1-0.7-0.2-1.5,0-2.2
						c0.1-0.4,0.2-0.8,0.3-1.2c0.1-0.4,0.1-0.8-0.1-1.2c-0.1-0.4-0.4-0.7-0.8-0.9c-0.4-0.2-0.8-0.3-1.2-0.4
						c-0.4-0.1-0.9-0.3-1.2-0.7c-0.3-0.3-0.5-0.8-0.5-1.2c-0.1-0.8,0-1.7-0.4-2.4l-0.1-0.1l-0.1-0.1c-0.1-0.1-0.1-0.1-0.2-0.2
						c-0.1-0.1-0.3-0.2-0.4-0.3c-0.3-0.2-0.7-0.3-1-0.3c-0.7-0.1-1.3-0.3-1.9-0.5c-0.5-0.3-0.9-0.7-1.2-1c-0.3-0.4-0.5-0.7-0.6-1.1
						c-0.1-0.3-0.2-0.6-0.2-0.7c0-0.2,0-0.3,0-0.3c0,0,0,0.4,0.3,1c0.1,0.3,0.3,0.7,0.6,1c0.3,0.4,0.7,0.7,1.2,1
						c0.5,0.3,1.2,0.4,1.8,0.5c0.3,0.1,0.7,0.2,1,0.3c0.2,0.1,0.3,0.2,0.5,0.3c0.1,0.1,0.1,0.1,0.2,0.2l0.1,0.1l0.1,0.1
						c0.4,0.7,0.3,1.6,0.4,2.4c0.1,0.4,0.2,0.8,0.5,1.1c0.3,0.3,0.7,0.5,1.1,0.6c0.4,0.1,0.9,0.2,1.3,0.4c0.2,0.1,0.4,0.2,0.5,0.4
						c0.2,0.2,0.3,0.4,0.3,0.6c0.1,0.4,0.1,0.9,0.1,1.3c-0.1,0.4-0.2,0.8-0.3,1.2c-0.4,1.5,0,3,0.7,3.9c0.7,1,1.5,1.5,2.1,1.7
						c0.3,0.1,0.5,0.2,0.7,0.3C196.2,107.3,196.3,107.3,196.3,107.3z"/>
				</g>
				<g>
					<path class="st7" d="M180.3,90c0,0-0.3-0.1-0.8-0.1c-0.5,0-1.2,0.1-2,0.6c-0.7,0.5-1.5,1.4-1.6,2.5c-0.1,0.6,0,1.2,0.1,1.8
						c0,0.3,0.1,0.6,0.2,1c0.1,0.3,0.1,0.7,0,1c0,0.4-0.2,0.7-0.5,0.9c-0.3,0.2-0.7,0.2-1,0.3c-0.3,0-0.6,0-0.9,0.1
						c-0.3,0.1-0.5,0.3-0.8,0.4c-0.4,0.4-0.7,0.9-0.8,1.4c-0.1,0.5,0,1,0.1,1.4c0.1,0.4,0.2,0.8,0.2,1.2c0,0.4,0,0.7,0,0.9
						c-0.1,0.3-0.1,0.4-0.2,0.5c0,0.1-0.1,0.1-0.1,0.1c0,0,0,0,0,0c0,0,0.2-0.2,0.3-0.7c0-0.2,0.1-0.6,0-0.9c0-0.4-0.1-0.7-0.2-1.2
						c-0.1-0.4-0.2-0.9-0.1-1.5c0.1-0.5,0.3-1.1,0.8-1.5c0.2-0.2,0.5-0.4,0.8-0.5c0.3-0.1,0.6-0.1,1-0.2c0.3,0,0.6-0.1,0.9-0.2
						c0.3-0.2,0.4-0.5,0.5-0.8c0.1-0.7-0.1-1.3-0.2-2c-0.1-0.6-0.1-1.3-0.1-1.9c0.2-1.2,0.9-2.1,1.7-2.6c0.8-0.5,1.6-0.5,2.1-0.5
						c0.3,0,0.4,0.1,0.6,0.1C180.3,90,180.3,90,180.3,90z"/>
				</g>
				<g>
					<g>
						<g>
							<path class="st8" d="M202.4,103.5C202.4,103.5,202.4,103.5,202.4,103.5c0-0.1,0.1-0.2,0.1-0.3c0-0.2,0.1-0.5,0-0.9
								c-0.1-0.4-0.3-0.8-0.8-1.2c-0.2-0.2-0.5-0.3-0.8-0.4c-0.3-0.1-0.7-0.1-1-0.2c-0.2,0-0.4-0.1-0.5-0.2s-0.3-0.3-0.4-0.5
								c-0.2-0.4-0.2-0.8-0.2-1.2c0-0.4,0-0.9-0.1-1.3c0-0.2-0.1-0.4-0.3-0.6c-0.1-0.2-0.3-0.3-0.5-0.4c-0.4-0.2-0.9-0.3-1.4-0.4
								c-0.5-0.1-1-0.2-1.5-0.4c-0.2-0.1-0.4-0.3-0.6-0.5c-0.2-0.2-0.3-0.5-0.3-0.7c-0.1-0.5-0.2-1.1-0.3-1.6
								c-0.3-1.1-1.1-1.9-2.1-2.2c-0.5-0.2-1-0.1-1.5-0.1c-0.3,0-0.5,0-0.7-0.1c-0.2-0.1-0.5-0.2-0.7-0.3c-0.4-0.3-0.5-0.8-0.7-1.2
								c-0.2-0.4-0.4-0.8-0.7-1.1c-0.6-0.6-1.4-0.9-2.1-0.9c-0.7,0-1.4,0.2-1.8,0.5c-0.5,0.3-0.8,0.7-1,1.1
								c-0.2,0.3-0.3,0.6-0.3,0.9c0,0.1,0,0.2-0.1,0.2c0,0.1,0,0.1,0,0.1c0,0,0-0.1,0-0.3c0-0.2,0.1-0.5,0.3-0.9
								c0.2-0.4,0.5-0.8,1-1.1c0.5-0.3,1.1-0.6,1.9-0.6c0.7,0,1.5,0.3,2.2,0.9c0.3,0.3,0.6,0.7,0.8,1.1c0.2,0.4,0.3,0.9,0.7,1.2
								c0.4,0.3,0.9,0.4,1.4,0.4c0.5,0,1,0,1.5,0.1c1,0.3,1.9,1.1,2.2,2.2c0.1,0.5,0.2,1.1,0.3,1.6c0.1,0.3,0.2,0.5,0.3,0.7
								c0.1,0.2,0.3,0.4,0.6,0.5c0.9,0.5,2,0.3,2.9,0.8c0.2,0.1,0.4,0.3,0.5,0.5c0.1,0.2,0.2,0.4,0.3,0.6c0.1,0.5,0.1,0.9,0.1,1.3
								c0,0.4,0.1,0.8,0.2,1.2c0.1,0.2,0.2,0.3,0.3,0.4c0.1,0.1,0.3,0.2,0.5,0.2c0.3,0.1,0.7,0.1,1,0.2c0.3,0.1,0.6,0.2,0.8,0.4
								c0.5,0.4,0.7,0.8,0.8,1.2c0.1,0.4,0.1,0.7,0,0.9C202.5,103.3,202.5,103.4,202.4,103.5C202.5,103.5,202.4,103.5,202.4,103.5z"
								/>
						</g>
					</g>
				</g>
			</g>
			<path class="st9" d="M187.8,141.7h24.5l-2.2-5.4c0,0-7.7-21-9.3-22.7c-2.1-2.2-5.5-4-5.5-4l-10.6,5.4c0,0-3.1,8.7-3.5,12.2
				c-0.1,0.8-0.2,1.6-0.2,2.5c-0.1,4.3,2.5,8.2,6.5,9.8l0,0L187.8,141.7z"/>
			<g>
				<path class="st12" d="M185.5,108l-1.2,1.3c0,0,0.2-2.5-0.1-2.8s-0.7,0-0.7,0s-0.2-0.5-0.6-0.6c-0.5-0.1-1,0.2-1,0.2
					s-1-0.6-1.5-0.3s-0.7,0.7-0.7,0.7s-0.6,0.2-1,0.5c-0.3,0.3-0.4,0.5-0.4,0.5s-0.6,0.2-0.6,0.6c0,0.4-0.6,4.4-0.8,5.9
					c-0.2,1.5-0.5,3.8-0.5,3.8l6-0.1c0,0,0.1-3.1,0.2-3.5c0,0,1-0.4,1.8-1.4s1.5-2.6,1.9-3.4c0.3-0.5,1.1-1.8,1.1-1.9
					c0-0.4-0.4-0.5-0.7-0.4C186.1,107.3,185.8,107.7,185.5,108z"/>
				<g>
					<path class="st13" d="M185.5,108c0,0,0-0.1,0.1-0.1c0.1-0.1,0.2-0.2,0.4-0.4c0.1-0.1,0.2-0.2,0.4-0.2c0.1-0.1,0.3-0.1,0.5-0.1
						c0.1,0,0.2,0,0.3,0.1c0.1,0.1,0.1,0.2,0.1,0.3c0,0.1-0.1,0.2-0.1,0.3c-0.1,0.1-0.1,0.2-0.2,0.3c-0.2,0.4-0.5,0.9-0.8,1.3
						c-0.3,0.5-0.5,1.1-0.8,1.6c-0.3,0.6-0.6,1.2-1.1,1.8c-0.5,0.6-1.1,1.1-1.8,1.4l0,0c-0.1,0.5-0.1,1.1-0.1,1.7
						c0,0.6,0,1.2-0.1,1.8l0,0.1h-0.1c-1.9,0-3.9,0.1-6,0.1l-0.1,0l0-0.1c0-0.3,0.1-0.7,0.1-1.1c0.1-0.9,0.2-1.7,0.3-2.5
						c0.1-0.8,0.2-1.6,0.3-2.4c0.1-0.8,0.2-1.6,0.3-2.3c0.1-0.4,0.1-0.7,0.2-1.1c0-0.1,0-0.2,0-0.3c0-0.1,0.1-0.2,0.2-0.3
						c0.1-0.1,0.3-0.2,0.5-0.3l0,0c0.1-0.2,0.2-0.3,0.3-0.4c0.1-0.1,0.2-0.2,0.3-0.3c0.3-0.2,0.5-0.3,0.8-0.3l0,0
						c0.1-0.2,0.3-0.4,0.5-0.5c0.1-0.1,0.2-0.1,0.3-0.2c0.1-0.1,0.2-0.1,0.3-0.1c0.5,0,0.9,0.2,1.3,0.4h-0.1c0.3-0.2,0.7-0.3,1-0.3
						c0.4,0,0.6,0.3,0.7,0.6l-0.1,0c0.2-0.1,0.4-0.2,0.6-0.1c0.1,0,0.2,0.1,0.2,0.2c0,0,0,0.1,0.1,0.1c0,0,0,0.1,0,0.1
						c0.1,0.3,0.1,0.7,0.1,1c0,0.6,0,1.1-0.1,1.6l-0.1,0c0.4-0.4,0.7-0.7,0.9-0.9C185.3,108.2,185.3,108.1,185.5,108
						C185.4,108,185.5,108,185.5,108C185.5,108,185.5,108,185.5,108c-0.1,0.2-0.2,0.2-0.3,0.3c-0.2,0.2-0.5,0.6-0.9,1l-0.1,0.1
						l0-0.1c0-0.4,0-1,0-1.6c0-0.3,0-0.6-0.1-0.9c0-0.1,0-0.2-0.1-0.2c0-0.1-0.1-0.1-0.2-0.1c-0.1,0-0.3,0-0.5,0.1l-0.1,0l0-0.1
						c-0.1-0.3-0.3-0.5-0.7-0.6c-0.3,0-0.7,0.1-1,0.3l0,0l0,0c-0.3-0.2-0.8-0.4-1.2-0.4c-0.1,0-0.2,0-0.3,0.1
						c-0.1,0.1-0.2,0.1-0.3,0.2c-0.2,0.1-0.3,0.3-0.5,0.5l0,0l0,0c-0.3,0.1-0.5,0.2-0.8,0.3c-0.1,0.1-0.2,0.2-0.3,0.3
						c-0.1,0.1-0.2,0.2-0.3,0.3l0,0l0,0c-0.2,0.1-0.3,0.2-0.4,0.3c-0.1,0.1-0.1,0.1-0.1,0.2c0,0.1,0,0.2,0,0.3
						c0,0.4-0.1,0.7-0.1,1.1c-0.1,0.8-0.2,1.5-0.3,2.3c-0.1,0.8-0.2,1.6-0.3,2.4c-0.1,0.8-0.2,1.7-0.3,2.5c-0.1,0.4-0.1,0.7-0.1,1.1
						l-0.1-0.1c2.1,0,4.1-0.1,6-0.1l-0.1,0.1c0-0.6,0-1.2,0.1-1.8c0-0.6,0-1.1,0.1-1.7l0,0l0,0c0.7-0.3,1.3-0.8,1.8-1.4
						c0.5-0.6,0.8-1.2,1.1-1.8c0.3-0.6,0.6-1.1,0.8-1.6c0.3-0.5,0.6-0.9,0.8-1.3c0.1-0.1,0.1-0.2,0.2-0.3c0-0.1,0.1-0.2,0.1-0.3
						c0-0.2-0.2-0.3-0.3-0.3c-0.2,0-0.3,0-0.5,0.1c-0.1,0.1-0.2,0.1-0.3,0.2C185.7,107.8,185.5,108,185.5,108z"/>
				</g>
			</g>
			<g class="st10">
				<path d="M185.7,134.3l-2.2,1.9c3,0.1,5.6-1.4,8.1-3.2c2.5-1.8,7-5.8,7.8-8.8C195.3,126.5,189.3,131.2,185.7,134.3z"/>
			</g>
			<g>
				<g>
					<path class="st12" d="M154.5,127.7c-0.1,0-4.2-0.5-5.3-0.6c-0.3,0-0.6,0.2-0.7,0.5c-0.1,0.2,0,0.4,0.4,0.6
						c1.1,0.4,4.8,0.8,4.8,0.8s-1.6-0.1-1.7,0.5s0.8,1.1,0.8,1.1s-0.5,0.2-0.4,0.7s0.9,0.8,0.9,0.8l0.4,0.2c0,0-0.7,0-0.7,0.4
						c0,0.4,0.4,0.7,0.7,0.8c0.4,0.1,2.1,0.4,2.1,0.4l1.2-3l-0.9-2.8L154.5,127.7z"/>
					<path class="st12" d="M166.9,129.4c0,0-5.4,0.5-5.8,0.3c-0.4-0.2-4.7-2.4-5.4-2.6c-0.7-0.2-3.8,0.1-3.8,0.1s-0.7,0.7,0.8,1.2
						c1.6,0.5,2.4,0.3,2.2,0.4l-0.4,5c0,0,2.7,1.1,3.9,1l1.7-0.5l7.7,1.4L166.9,129.4z"/>
					<g>
						<path class="st12" d="M153.5,129c0.2,0.1,0.4,0.2,0.6,0.3c0.2,0.1,0.4,0.2,0.6,0.4c0.1,0.2,0.2,0.5,0.1,0.7
							c-0.1,0.2-0.4,0.3-0.7,0.3c-0.4,0-0.7,0-1.1-0.1"/>
						<g>
							<path class="st13" d="M152.9,130.6c0,0,0.2,0,0.6,0c0.2,0,0.4,0,0.6,0c0.2,0,0.5-0.1,0.5-0.4c0.1-0.2,0-0.5-0.2-0.6
								c-0.2-0.2-0.4-0.2-0.5-0.3c-0.3-0.1-0.5-0.3-0.5-0.3c0,0,0.2,0.1,0.6,0.2c0.2,0.1,0.4,0.1,0.6,0.3c0.2,0.2,0.4,0.5,0.3,0.8
								c-0.1,0.2-0.2,0.3-0.3,0.3c-0.1,0.1-0.3,0.1-0.4,0.1c-0.2,0-0.5,0-0.6,0C153.2,130.7,152.9,130.6,152.9,130.6z"/>
						</g>
					</g>
					<g>
						<path class="st12" d="M153.6,132.3c0.9,0.1,1.7,0.1,2.6-0.1c0.3-0.1,0.6-0.2,0.6-0.4c0.1-0.2,0-0.4-0.2-0.6
							c-0.2-0.1-0.4-0.2-0.6-0.2c-0.6-0.1-1.3-0.2-2-0.2"/>
						<g>
							<path class="st13" d="M154.1,130.8c0,0,0.4,0,1,0c0.3,0,0.7,0.1,1.1,0.1c0.2,0,0.4,0.1,0.6,0.3c0.1,0.1,0.2,0.2,0.2,0.3
								c0,0.1,0,0.3,0,0.4c-0.1,0.2-0.4,0.3-0.6,0.4c-0.2,0-0.4,0.1-0.6,0.1c-0.4,0-0.8,0.1-1.1,0.1s-0.5,0-0.7-0.1
								c-0.2,0-0.3,0-0.3-0.1c0,0,0.4,0,1,0c0.3,0,0.6,0,1-0.1c0.2,0,0.4-0.1,0.6-0.1c0.2,0,0.4-0.1,0.5-0.3c0.1-0.2,0-0.4-0.1-0.5
								c-0.1-0.1-0.3-0.2-0.5-0.2c-0.4-0.1-0.7-0.1-1-0.2C154.5,130.9,154.1,130.9,154.1,130.8z"/>
						</g>
					</g>
					<g>
						<path class="st12" d="M154.7,132.5c0.2,0,0.4-0.1,0.5-0.1c0.2,0,0.4,0.1,0.5,0.2c0.1,0.1,0.2,0.3,0.1,0.5
							c-0.1,0.2-0.3,0.3-0.4,0.4c-0.5,0.2-1,0.2-1.6,0.1"/>
						<g>
							<path class="st13" d="M153.8,133.6c0,0,0.2,0,0.6-0.1c0.2,0,0.4,0,0.6-0.1c0.2,0,0.5-0.1,0.6-0.2c0.1-0.1,0.2-0.2,0.2-0.3
								c0-0.1,0-0.2-0.1-0.3c-0.1-0.2-0.3-0.2-0.5-0.2c-0.3,0-0.5,0-0.5,0c0,0,0.2-0.1,0.6-0.1c0.2,0,0.4,0.1,0.6,0.3
								c0.1,0.1,0.1,0.2,0.1,0.4c0,0.2-0.1,0.3-0.2,0.4c-0.2,0.2-0.5,0.2-0.7,0.2c-0.2,0-0.4,0-0.6,0
								C154,133.6,153.8,133.6,153.8,133.6z"/>
						</g>
					</g>
					<g>
						<path class="st13" d="M151.9,127.3c0,0,0,0.1,0,0.3c0,0.1,0,0.2,0.1,0.3c0.1,0.1,0.2,0.2,0.4,0.3c0.2,0.1,0.4,0.1,0.6,0.2
							c0.2,0.1,0.5,0.1,0.7,0.1c0.5,0.1,1.1,0.1,1.7,0.2l0.1,0l0,0.1c0,0.1,0,0.3,0.1,0.4c0.1,0.6,0.4,1.2,0.8,1.6
							c0.3,0.4,0.7,0.8,1,1.1c0.7,0.5,1.2,0.7,1.1,0.8c0,0-0.1,0-0.3-0.1c-0.2-0.1-0.5-0.3-0.9-0.5c-0.3-0.3-0.7-0.6-1.1-1.1
							c-0.3-0.5-0.7-1-0.8-1.7c0-0.1,0-0.3-0.1-0.4l0.1,0.1c-0.6,0-1.2-0.1-1.7-0.2c-0.3,0-0.5-0.1-0.7-0.2
							c-0.2-0.1-0.4-0.1-0.6-0.2c-0.2-0.1-0.4-0.2-0.4-0.3c-0.1-0.1-0.1-0.3-0.1-0.4C151.8,127.5,151.8,127.5,151.9,127.3
							C151.9,127.3,151.9,127.3,151.9,127.3z"/>
					</g>
				</g>
				<polygon class="st9" points="177.3,127.8 164.4,129.2 165,136.7 180.6,137.6 				"/>
			</g>
			<g class="st10">
				<path d="M179.9,135.3c-0.4-1.3-0.7-2.7-1.1-4c-0.2-0.7-0.4-1.3-0.7-1.9c-0.4-0.5-1.2-1.6-1.9-1.5l-2.4,0.3
					c0.1,1.3,0.2,2.6,0.4,3.9c0.1,1.3,0.5,2.6,1.3,3.6c0.8,1,2,1.7,3.3,1.6c0.4,0,0.9-0.2,1.1-0.5
					C180.1,136.3,180,135.7,179.9,135.3z"/>
			</g>
			<g>
				<path class="st9" d="M200.1,123.2c-1.1,3-13.6,11.5-13.6,11.5s-3.9,2.5-6.1,2.5c-2.9,0.1-5.3-2.4-5.3-4.9
					c0-3.2-0.1-15.5-0.1-15.5l8.1-0.4v9c0,0,6.2-6,7.6-7.7c2.8-3.2,5.7-6.1,8.1-5.1"/>
				<g>
					<path class="st7" d="M198.7,112.6c0,0-0.1,0-0.4-0.1c-0.1,0-0.3,0-0.5-0.1c-0.1,0-0.2,0-0.3,0c-0.1,0-0.2,0-0.3,0
						c-1,0.1-2.2,0.9-3.6,2.1c-0.7,0.6-1.4,1.3-2.1,2.2c-0.4,0.4-0.7,0.8-1.1,1.3c-0.4,0.4-0.8,0.9-1.3,1.3
						c-1.8,1.8-3.8,3.9-6.1,6.1l-0.1,0.1v-0.2c0-2.7,0-5.8,0-9l0.1,0.1c-2.6,0.1-5.3,0.2-8.1,0.4l0.1-0.1c0,1.6,0,3.3,0,5.1
						c0,3,0.1,5.9,0.1,8.7c0,0.4,0,0.7,0,1c0,0.3,0,0.7,0,1c0.1,0.7,0.3,1.3,0.6,1.9c0.7,1.1,1.8,2,3,2.4c0.6,0.2,1.2,0.3,1.9,0.2
						c0.6-0.1,1.2-0.2,1.8-0.4c1.1-0.4,2.2-1,3.2-1.5c0.5-0.3,1-0.6,1.4-0.9c0.5-0.3,0.9-0.6,1.3-0.9c0.9-0.6,1.7-1.2,2.5-1.8
						c3.1-2.3,5.6-4.3,7.2-5.8c0.8-0.7,1.4-1.4,1.7-1.8c0.1-0.1,0.2-0.2,0.2-0.3c0.1-0.1,0.1-0.2,0.1-0.2c0.1-0.1,0.1-0.2,0.1-0.2
						s-0.1,0.3-0.4,0.8c-0.3,0.5-0.9,1.1-1.7,1.9c-1.6,1.5-4,3.5-7.1,5.8c-0.8,0.6-1.6,1.2-2.5,1.8c-0.4,0.3-0.9,0.6-1.3,0.9
						c-0.4,0.3-0.9,0.6-1.4,0.9c-1,0.6-2.1,1.1-3.2,1.5c-0.6,0.2-1.2,0.4-1.8,0.4c-0.6,0-1.3,0-1.9-0.2c-1.2-0.4-2.4-1.3-3.1-2.4
						c-0.3-0.6-0.6-1.3-0.6-2c0-0.4,0-0.7,0-1c0-0.3,0-0.7,0-1c0-2.8-0.1-5.7-0.1-8.7c0-1.7,0-3.4,0-5.1v-0.1l0.1,0
						c2.8-0.1,5.5-0.3,8.1-0.4l0.1,0v0.1c0,3.2,0,6.2,0,9l-0.1-0.1c2.2-2.2,4.3-4.2,6.1-6c0.4-0.5,0.9-0.9,1.3-1.3
						c0.4-0.4,0.8-0.9,1.2-1.3c0.7-0.8,1.5-1.5,2.1-2.2c1.3-1.2,2.6-2,3.6-2.1c0.1,0,0.2,0,0.3,0c0.1,0,0.2,0,0.3,0
						c0.2,0,0.3,0,0.5,0.1C198.5,112.6,198.7,112.6,198.7,112.6z"/>
				</g>
			</g>
			<g>
				<path class="st9" d="M176.9,131.7c0,0,0-0.1,0.1-0.3c0.1-0.2,0.2-0.4,0.3-0.7c0.3-0.6,0.7-1.3,1.3-2.2c0.6-0.8,1.1-1.5,1.5-2
					c0.2-0.2,0.4-0.4,0.5-0.6c0.1-0.1,0.2-0.2,0.2-0.2c0,0-0.2,0.3-0.6,0.8c-0.4,0.5-0.9,1.2-1.5,2s-1,1.6-1.3,2.1
					C177.1,131.4,177,131.8,176.9,131.7z"/>
			</g>
			<path class="st7" d="M220.3,113L220.3,113c-1.2-0.3-2.3,0.5-2.6,1.6l-5.9,27l4.3,0l5.8-26.1C222.2,114.4,221.5,113.3,220.3,113z"
				/>
			<g>
				<path class="st13" d="M184.3,109.2c0,0,0.1,0.4,0,0.9c0,0.5-0.1,0.9-0.2,0.9c0,0-0.1-0.4,0-0.9
					C184.2,109.6,184.3,109.2,184.3,109.2z"/>
			</g>
			<g>
				<path class="st7" d="M183,130.8c0,0,0-0.3-0.1-0.8c0-0.5,0-1.2,0-2c0-0.8,0-1.4,0-2c0-0.5,0-0.8,0.1-0.8s0,0.3,0.1,0.8
					c0,0.5,0,1.2,0,2c0,0.8,0,1.5,0,2C183,130.5,183,130.8,183,130.8z"/>
			</g>
		</g>
	</g>
	<g id="Character_2">
		<g>
			<g>
				<path class="st12" d="M107,91.2l1.4-0.9c0,0,1.8-1.6,2.3-2c0.5-0.4,2.4-1.2,2.7-1.2c0.3,0,2.9-0.1,3.6-0.4
					c0.6-0.3,1.3-0.7,1.3-0.7s0.4,0.5,0.1,1.1C118,87.8,116,89,116,89l0.7,4.7c0,0-1.8,1.4-2.9,1.5c-1.1,0.1-2.2-0.1-2.5,0
					c-0.3,0.1-1.1,0.4-1.1,0.4L107,91.2z"/>
				<polygon class="st7" points="112,91.5 124.3,83.3 125,84.4 112.8,92.5 				"/>
				<g>
					<path class="st12" d="M118.9,89.1c0,0,0.9,0.4,0.4,1.2c-0.5,0.9-1.1,0.6-1.1,0.6s0.2,0.9-0.8,1.4c0,0,0.1,0.9-0.6,1.4l-0.6,0.3
						l-0.4-0.7c0,0-2.3-0.2-2.6-1.1l0-0.5c0,0-0.4-0.2-0.4-0.7c0.1-0.4,0-0.4,0.9-0.7c0.8-0.3,2.6-0.1,2.6-0.1s-1-0.4-0.9-0.9
						c0-0.5,0.4-0.8,1.4-0.7C117.9,88.8,118.9,89.1,118.9,89.1z"/>
					<g>
						<path class="st13" d="M118.9,89.1c0,0-0.1,0-0.4-0.1c-0.2-0.1-0.6-0.1-1.1-0.2c-0.2,0-0.5-0.1-0.8-0.1c-0.3,0-0.6,0-0.9,0.1
							c-0.1,0.1-0.3,0.2-0.3,0.3c-0.1,0.1-0.1,0.3,0,0.5c0.1,0.1,0.2,0.3,0.4,0.4c0.2,0.1,0.3,0.2,0.5,0.3l0.4,0.2l-0.5,0
							c-0.7-0.1-1.4-0.1-2.2,0c-0.2,0-0.4,0.1-0.6,0.2c-0.2,0.1-0.4,0.1-0.5,0.2c-0.1,0.1-0.1,0.1-0.1,0.2l0,0.2c0,0,0,0.1,0,0.1
							c0,0.2,0.2,0.3,0.3,0.4l0,0l0,0c0,0.1,0,0.3,0,0.5l0,0c0,0,0,0.1,0.1,0.1c0.1,0.2,0.3,0.3,0.5,0.4c0.2,0.1,0.4,0.2,0.6,0.3
							c0.4,0.1,0.9,0.2,1.3,0.3l0,0l0,0c0.1,0.3,0.3,0.5,0.4,0.7l-0.1,0c0.2-0.1,0.4-0.2,0.6-0.3l0,0c0.5-0.3,0.6-0.9,0.6-1.4l0-0.1
							l0,0c0.3-0.1,0.5-0.3,0.7-0.6c0.1-0.2,0.2-0.5,0.1-0.8l0-0.1l0.1,0c0.2,0.1,0.4,0,0.6-0.1c0.2-0.1,0.3-0.2,0.4-0.4
							c0.1-0.1,0.2-0.3,0.2-0.4c0-0.1,0-0.3,0-0.4c-0.1-0.2-0.2-0.4-0.4-0.4C119,89.1,118.9,89.1,118.9,89.1c0,0,0.1,0,0.2,0.1
							c0.1,0.1,0.3,0.2,0.4,0.4c0.1,0.1,0.1,0.3,0,0.4c0,0.2-0.1,0.3-0.2,0.5c-0.1,0.1-0.2,0.3-0.4,0.4c-0.2,0.1-0.4,0.2-0.7,0.1
							l0.1-0.1c0.1,0.3,0,0.6-0.1,0.9c-0.2,0.3-0.4,0.5-0.7,0.6l0-0.1c0,0.3,0,0.5-0.1,0.8c-0.1,0.3-0.3,0.5-0.5,0.7l0,0l0,0
							c-0.2,0.1-0.4,0.2-0.6,0.3l-0.1,0l0-0.1c-0.1-0.2-0.3-0.5-0.4-0.7l0.1,0c-0.4,0-0.9-0.1-1.4-0.3c-0.2-0.1-0.5-0.1-0.7-0.3
							c-0.2-0.1-0.4-0.3-0.6-0.5c0,0,0-0.1-0.1-0.1l0,0v0c0-0.2,0-0.3,0-0.5l0,0.1c-0.2-0.1-0.4-0.3-0.4-0.6c0-0.1,0-0.1,0-0.2
							l0-0.2c0-0.1,0.1-0.2,0.2-0.3c0.2-0.1,0.4-0.2,0.6-0.3c0.2-0.1,0.4-0.1,0.6-0.2c0.8-0.1,1.6-0.1,2.2,0l0,0.1
							c-0.2-0.1-0.4-0.2-0.5-0.3c-0.2-0.1-0.3-0.2-0.4-0.4c-0.2-0.4,0.1-0.8,0.4-0.9c0.3-0.1,0.6-0.1,0.9-0.1c0.3,0,0.5,0.1,0.8,0.1
							c0.5,0.1,0.8,0.2,1.1,0.2C118.7,89,118.8,89,118.9,89.1C118.9,89.1,118.9,89.1,118.9,89.1z"/>
					</g>
				</g>
				<g>
					<path class="st13" d="M117.1,92.4c0,0-0.8-0.4-1.9-0.6c-1.1-0.2-2,0-2,0c0,0,0.2-0.1,0.6-0.1c0.4-0.1,0.9-0.1,1.5,0
						s1.1,0.3,1.4,0.4C116.9,92.2,117.1,92.4,117.1,92.4z"/>
				</g>
				<g>
					<path class="st13" d="M118.2,91c0,0-0.4-0.2-1-0.4c-0.6-0.2-1.1-0.2-1.1-0.3c0,0,0.5-0.1,1.1,0.1C117.8,90.6,118.2,91,118.2,91
						z"/>
				</g>
			</g>
			<g>
				<g>
					<g>
						<g>
							<g>
								<g>
									<path class="st7" d="M64.5,43.3c0.4-0.8,1.3-1.3,2.2-1.1c1-0.8,2.6-0.8,3.6,0c0.7-0.5,1.7-0.5,2.5-0.1
										c0.8,0.4,1.3,1.2,1.4,2.1c0.9-0.2,1.8,0.3,2.3,1.1c0.4,0.8,0.3,1.8-0.3,2.5c1,0.3,1.6,1.4,1.4,2.4c-0.2,1-1.2,1.8-2.2,1.7
										l-10.4-6.1C64.3,45.1,64.1,44.1,64.5,43.3z"/>
								</g>
							</g>
						</g>
					</g>
				</g>
				<g>
					<g>
						<g>
							<g>
								<g>
									<g>
										<g>
											<g>
												<g>
													<path class="st12" d="M75.6,52.1c-0.5-4.5-4.3-8-8.9-7.9l-0.5,0c-4.9,0.4-7.3,4.7-6.8,9.6l1,16.3l0.7,2l8.4,10.5
														l2.1-9.5l0-4.4c0,0,4.7-0.8,4.6-5.5C76.5,61,76.1,56.4,75.6,52.1z"/>
												</g>
											</g>
										</g>
									</g>
								</g>
							</g>
						</g>
						<g>
							<g>
								<g>
									<g>
										<g>
											<g>
												<g>
													<g>
														<g>
															<path class="st13" d="M71.8,68.8c0,0-3,0.2-6.1-1.7c0,0,1.5,3.4,6.1,2.9L71.8,68.8z"/>
														</g>
													</g>
												</g>
											</g>
										</g>
									</g>
								</g>
							</g>
						</g>
						<g>
							<g>
								<g>
									<g>
										<g>
											<g>
												<g>
													<g>
														<g>
															<g>
																<g>
																	<g>
																		<path class="st7" d="M74.4,56.5c0,0.4-0.3,0.7-0.6,0.7c-0.4,0-0.7-0.2-0.7-0.6c0-0.4,0.3-0.7,0.6-0.7
																			C74,55.9,74.3,56.2,74.4,56.5z"/>
																	</g>
																</g>
															</g>
														</g>
													</g>
												</g>
											</g>
										</g>
									</g>
								</g>
							</g>
						</g>
						<g>
							<g>
								<g>
									<g>
										<g>
											<g>
												<g>
													<g>
														<g>
															<g>
																<g>
																	<g>
																		<g>
																			<path class="st7" d="M74.7,54.7c-0.1,0.1-0.6-0.3-1.3-0.3c-0.7,0-1.2,0.4-1.3,0.3c0,0,0-0.2,0.3-0.4
																				c0.2-0.2,0.6-0.3,1.1-0.4c0.4,0,0.8,0.2,1.1,0.3C74.7,54.5,74.8,54.6,74.7,54.7z"/>
																		</g>
																	</g>
																</g>
															</g>
														</g>
													</g>
												</g>
											</g>
										</g>
									</g>
								</g>
							</g>
						</g>
						<g>
							<g>
								<g>
									<g>
										<g>
											<g>
												<g>
													<g>
														<g>
															<g>
																<g>
																	<g>
																		<path class="st7" d="M68.2,56.9c0,0.4-0.3,0.7-0.6,0.7s-0.7-0.2-0.7-0.6c0-0.4,0.3-0.7,0.6-0.7
																			C67.8,56.3,68.2,56.6,68.2,56.9z"/>
																	</g>
																</g>
															</g>
														</g>
													</g>
												</g>
											</g>
										</g>
									</g>
								</g>
							</g>
						</g>
						<g>
							<g>
								<g>
									<g>
										<g>
											<g>
												<g>
													<g>
														<g>
															<g>
																<g>
																	<g>
																		<g>
																			<path class="st7" d="M67.8,54.7c-0.1,0.1-0.6-0.3-1.3-0.3c-0.7,0-1.2,0.4-1.3,0.3c0,0,0-0.2,0.3-0.4
																				c0.2-0.2,0.6-0.3,1.1-0.4c0.4,0,0.8,0.2,1.1,0.3C67.8,54.5,67.9,54.7,67.8,54.7z"/>
																		</g>
																	</g>
																</g>
															</g>
														</g>
													</g>
												</g>
											</g>
										</g>
									</g>
								</g>
							</g>
						</g>
						<g>
							<g>
								<g>
									<g>
										<g>
											<g>
												<g>
													<g>
														<g>
															<g>
																<g>
																	<g>
																		<path class="st7" d="M70.3,60c0,0,0.4-0.1,1.2-0.2c0.2,0,0.4-0.1,0.4-0.2c0-0.1,0-0.3-0.1-0.5
																			c-0.2-0.4-0.4-0.9-0.6-1.4c-0.8-2-1.4-3.6-1.3-3.6c0.1,0,0.8,1.5,1.6,3.5c0.2,0.5,0.4,1,0.6,1.4
																			c0.1,0.2,0.2,0.4,0.1,0.7c0,0.1-0.2,0.2-0.3,0.3c-0.1,0-0.2,0-0.3,0.1C70.8,60.1,70.3,60.1,70.3,60z"/>
																	</g>
																</g>
															</g>
														</g>
													</g>
												</g>
											</g>
										</g>
									</g>
								</g>
							</g>
						</g>
						<g>
							<g>
								<g>
									<g>
										<g>
											<g>
												<g>
													<g>
														<g>
															<g>
																<g>
																	<g>
																		<path class="st7" d="M68.2,60.6c0.1,0,0.1,0.8,0.8,1.3c0.7,0.5,1.5,0.4,1.5,0.5c0,0.1-0.2,0.2-0.5,0.2
																			c-0.3,0-0.9-0.1-1.3-0.4c-0.4-0.3-0.6-0.8-0.6-1.1C68.1,60.8,68.1,60.6,68.2,60.6z"/>
																	</g>
																</g>
															</g>
														</g>
													</g>
												</g>
											</g>
										</g>
									</g>
								</g>
							</g>
						</g>
						<g>
							<g>
								<g>
									<g>
										<g>
											<g>
												<g>
													<g>
														<path class="st7" d="M67.8,52.7c-0.1,0.2-0.7,0-1.5,0.1c-0.8,0-1.4,0.2-1.5,0c0-0.1,0.1-0.3,0.3-0.4
															c0.3-0.2,0.7-0.3,1.1-0.3c0.5,0,0.9,0.1,1.1,0.3C67.7,52.4,67.8,52.6,67.8,52.7z"/>
													</g>
												</g>
											</g>
										</g>
									</g>
								</g>
							</g>
						</g>
						<g>
							<g>
								<g>
									<g>
										<g>
											<g>
												<g>
													<g>
														<path class="st7" d="M74.5,52.7c-0.1,0.2-0.6,0.1-1.2,0.1c-0.6,0-1.1,0.2-1.2,0.1c-0.1-0.1,0-0.2,0.2-0.4
															c0.2-0.2,0.6-0.3,1-0.4c0.4,0,0.8,0.1,1,0.2C74.5,52.5,74.6,52.6,74.5,52.7z"/>
													</g>
												</g>
											</g>
										</g>
									</g>
								</g>
							</g>
						</g>
						<g>
							<g>
								<g>
									<g>
										<g>
											<g>
												<g>
													<path class="st7" d="M75.1,50c0,0-1.3-2.9-2.7-3.6c-1.7-0.8-2.4,1.1-4.1,0.7c-1.6-0.4-3.3-1.2-4.9,0.1
														c-1.8,1.4-0.9,2.4-1,4.5c-0.3,8.5-1.8,10.9-2.3,6.9c-0.1-0.4-1.3-0.8-1.5-2.6c-0.3-2.4-0.4-5.3,0.1-7
														c0.4-1.4,1.2-2.4,2.7-3.6c2.3-1.8,5.4-1.9,7.6-1.7C71.1,43.9,75.3,46.3,75.1,50z"/>
												</g>
											</g>
										</g>
									</g>
								</g>
							</g>
						</g>
						<g>
							<g>
								<g>
									<g>
										<g>
											<g>
												<g>
													<path class="st12" d="M60.4,58.4c0-0.7-0.7-1.3-1.4-1.2c-0.9,0.1-1.8,0.6-1.7,2.4c0.2,3.2,3.4,2.4,3.4,2.3
														C60.6,61.9,60.5,59.8,60.4,58.4z"/>
												</g>
											</g>
										</g>
									</g>
								</g>
							</g>
						</g>
						<g>
							<g>
								<g>
									<g>
										<g>
											<g>
												<g>
													<path class="st13" d="M59.8,60.8c0,0-0.1,0-0.1,0.1c-0.1,0-0.2,0.1-0.4,0c-0.3-0.1-0.7-0.6-0.7-1.2
														c0-0.3,0-0.6,0.1-0.8c0.1-0.2,0.2-0.4,0.4-0.5c0.2,0,0.3,0,0.3,0.1c0,0.1,0,0.2,0,0.2c0,0,0.1-0.1,0-0.2
														c0-0.1-0.1-0.1-0.1-0.2c-0.1-0.1-0.2-0.1-0.3-0.1c-0.2,0-0.5,0.3-0.6,0.5c-0.1,0.3-0.2,0.6-0.1,0.9
														c0.1,0.6,0.4,1.2,0.9,1.3c0.2,0,0.4,0,0.5-0.1C59.8,60.9,59.8,60.8,59.8,60.8z"/>
												</g>
											</g>
										</g>
									</g>
								</g>
							</g>
						</g>
					</g>
					<g>
						<g>
							<g>
								<g>
									<g>
										<g>
											<path class="st7" d="M60.3,52.2c0.4,0.3,0.9,0.6,1.4,0.6c0.5,0,1.1-0.3,1.1-0.8c0-0.2,0-0.5,0.1-0.7
												c0.2-0.2,0.5-0.2,0.8-0.1c0.9,0.1,1.9-0.6,2.1-1.5c0.2,0.4,0.8,0.3,1.2,0.1c0.4-0.2,0.6-0.6,0.9-1
												c0.3-0.3,0.7-0.6,1.1-0.6c0.2,0,0.5,0.2,0.7,0.1c0.4,0,0.6-0.5,0.7-1c0.1-0.4,0.1-0.9,0.4-1.1c0.3-0.2,0.8-0.1,1.1-0.1
												c0.4,0.1,0.9-0.1,1-0.4c0-0.2,0-0.4-0.2-0.6c-0.5-0.8-1.6-1.1-2.5-0.7c-0.3-1.1-1.3-1.9-2.4-2s-2.2,0.5-2.7,1.5
												c-0.7-0.6-1.7-0.8-2.6-0.6c-0.9,0.2-1.7,0.9-2,1.8c-0.8-0.2-1.7,0.1-2.2,0.8c-0.5,0.6-0.5,1.6-0.1,2.3
												c-0.6,0.3-1.1,0.9-1.1,1.6c0,0.7,0.7,1.3,1.3,1.1c-0.2,0.5,0,1.2,0.5,1.5c0.5,0.3,1.2,0.1,1.5-0.4"/>
										</g>
									</g>
								</g>
							</g>
						</g>
					</g>
				</g>
				<g>
					<g>
						<g>
							<g>
								<g>
									<g>
										<path class="st8" d="M58.2,51c0,0-0.1,0.3,0.2,0.6c0.1,0.2,0.4,0.3,0.7,0.4c0.3,0,0.6,0,0.9-0.3l-0.1,0
											c0.2,0.3,0.4,0.6,0.7,0.8c0.2,0.2,0.4,0.3,0.6,0.4c0.2,0.1,0.5,0.1,0.6,0c0.4-0.1,0.8-0.3,0.9-0.6
											c0.2-0.3,0.2-0.5,0.2-0.7c0-0.2,0-0.3,0-0.3c0,0,0,0.1-0.1,0.2c-0.1,0.2-0.1,0.4-0.3,0.6c-0.3,0.5-1.3,0.7-1.9,0.1
											c-0.3-0.2-0.5-0.5-0.6-0.7L60,51.5l-0.1,0.1c-0.2,0.2-0.5,0.3-0.8,0.3c-0.3,0-0.5-0.2-0.6-0.3C58.3,51.3,58.3,51,58.2,51z
											"/>
									</g>
								</g>
							</g>
						</g>
					</g>
				</g>
				<g>
					<g>
						<g>
							<g>
								<g>
									<g>
										<path class="st8" d="M64.1,43.6c0,0,0.1,0,0.2,0.1c0.1,0.1,0.4,0.2,0.5,0.4l0,0.1l0-0.1c0.3-0.4,0.8-0.9,1.5-1.3
											c0.4-0.2,0.8-0.3,1.3-0.3c0.5,0,0.9,0.1,1.4,0.4c0.3,0.2,0.6,0.5,0.8,0.7c0.2,0.3,0.3,0.6,0.4,1l0,0.1l0.1,0
											c0.5-0.1,1-0.1,1.3,0.1c0.4,0.2,0.6,0.5,0.7,0.8c0.3,0.6,0.2,1,0.2,0.9c0,0,0-0.1,0-0.3c0-0.2,0-0.4-0.2-0.7
											c-0.1-0.3-0.4-0.6-0.8-0.8c-0.4-0.2-0.9-0.3-1.5-0.2l0.1,0.1c0-0.4-0.2-0.7-0.4-1c-0.2-0.3-0.5-0.6-0.9-0.8
											c-0.5-0.3-1-0.4-1.5-0.4c-0.5,0-0.9,0.2-1.3,0.3c-0.8,0.4-1.3,0.9-1.5,1.4H65c-0.2-0.3-0.4-0.4-0.6-0.4
											C64.2,43.5,64.1,43.6,64.1,43.6z"/>
									</g>
								</g>
							</g>
						</g>
					</g>
				</g>
			</g>
			<polygon class="st7" points="53.8,141.7 53.9,124.8 56.3,118.6 56.3,116.9 83.1,116.5 83.1,118.4 86.2,126.1 86.4,141.7 
				70.9,141.7 69.6,134.6 69.3,141.7 			"/>
			<g>
				<path class="st5" d="M60.5,68.8l5.6,4.4l3.5,4.5l1.3-4.7l0.9-3.7l1.5,1.5l3.9,8.2l4.4,39.8c0,0-7.6,2.2-11.5,2.5
					c-3.9,0.3-10.2-0.8-10.2-0.8V99.7L57.7,79l2.7-7.9L60.5,68.8z"/>
				<g>
					<path class="st7" d="M71.8,121.2c0,0,0,0,0-0.1c0-0.1,0-0.2,0-0.3c0-0.3,0-0.7,0-1.3c0-1.1-0.1-2.7-0.2-4.6
						c-0.1-3.9-0.4-9.3-0.7-15.3c-0.3-6-0.7-11.4-0.9-15.3c-0.1-1.9-0.2-3.5-0.3-4.6c0-0.5-0.1-1-0.1-1.3c0-0.1,0-0.2,0-0.3
						c0-0.1,0-0.1,0-0.1s0,0,0,0.1c0,0.1,0,0.2,0,0.3c0,0.3,0.1,0.7,0.1,1.3c0.1,1.1,0.2,2.7,0.4,4.6c0.3,3.9,0.7,9.3,1,15.3
						c0.3,6,0.5,11.4,0.6,15.3c0.1,2,0.1,3.5,0.1,4.6c0,0.5,0,1,0,1.3c0,0.1,0,0.2,0,0.3C71.8,121.1,71.8,121.2,71.8,121.2z"/>
				</g>
				<path class="st9" d="M59.6,70.9l-1.3,1.8l-10.6,5.6l5.9,18l1.6,10.1l-6,24c0,0,7.2,2.5,7.9,1.7c0.3-0.3,1-2.1,1.8-3.9
					c1.6-3.8,2.6-7.7,3-11.8c0.4-4.1,0.9-9.3,0.6-12.8C62,96.9,61.1,86,61,83.2c-0.1-2.9-0.6-13.7-0.6-13.7L59.6,70.9z"/>
				<path class="st9" d="M72.6,69.8l3.5,2.1l11.4,3.7l-0.9,8l-0.5,20.8l3.6,25c0,0-3.8,1.4-5.3,0.8c-1.5-0.6-3.6-4-3.7-6
					s-3-22.1-3-22.1l-2.9-27L72.6,69.8z"/>
				<g>
					<path class="st7" d="M76.4,71.9c0,0,0.1,0.1,0.1,0.2c0.1,0.1,0.2,0.3,0.4,0.5c0.3,0.4,0.8,1.1,1.5,1.8l0,0l0,0
						c-0.4,0.3-0.8,0.6-1.2,0.9l0-0.1c0.5,0.1,0.9,0.3,1.5,0.5l0,0v0c0,2.6-0.1,5.8-0.1,9.4c-0.1,4.3-0.1,8.2-0.2,11
						c0,1.4-0.1,2.5-0.1,3.3c0,0.4,0,0.7,0,0.9c0,0.1,0,0.2,0,0.2c0,0.1,0,0.1,0,0.1c0,0,0,0,0-0.1c0-0.1,0-0.1,0-0.2
						c0-0.2,0-0.5,0-0.9c0-0.8,0-1.9,0-3.3c0-2.8,0.1-6.7,0.1-11c0.1-3.5,0.1-6.8,0.1-9.4l0,0.1c-0.5-0.2-1-0.3-1.4-0.5l-0.1,0
						l0.1-0.1c0.5-0.3,0.9-0.6,1.2-0.9l0,0.1c-0.6-0.8-1.1-1.4-1.4-1.9c-0.2-0.2-0.3-0.4-0.4-0.5C76.4,71.9,76.4,71.9,76.4,71.9z"/>
				</g>
				<g>
					<path class="st7" d="M62.2,100.1C62.2,100.1,62.2,100.1,62.2,100.1c-0.1-0.1-0.1-0.2-0.1-0.3c-0.1-0.2-0.2-0.5-0.3-0.9
						c-0.3-0.8-0.6-1.9-1.1-3.3c-0.2-0.7-0.5-1.4-0.8-2.2c-0.3-0.8-0.6-1.7-0.8-2.6c-0.5-1.9-0.8-4-1.1-6.2
						c-0.4-2.9-0.6-5.6-0.8-7.9l0,0l0,0c0.4-0.4,0.9-0.8,1.3-1.2l0,0.1c-0.4-0.3-0.8-0.6-1.2-0.9l0,0l0,0c0.9-1.2,1.6-2.2,2.1-2.9
						c0.3-0.3,0.4-0.6,0.6-0.8c0.1-0.1,0.1-0.1,0.2-0.2c0,0,0.1-0.1,0.1-0.1c0,0,0,0,0,0.1c0,0.1-0.1,0.1-0.1,0.2
						c-0.1,0.2-0.3,0.5-0.6,0.8c-0.5,0.7-1.2,1.7-2.1,2.9l0-0.1c0.4,0.3,0.8,0.6,1.2,0.9l0.1,0l-0.1,0.1c-0.4,0.4-0.8,0.8-1.2,1.2
						l0-0.1c0.2,2.3,0.4,5,0.8,7.9c0.3,2.2,0.7,4.3,1.1,6.1c0.2,0.9,0.5,1.8,0.8,2.6c0.3,0.8,0.5,1.6,0.8,2.2
						c0.5,1.4,0.8,2.5,1.1,3.3c0.1,0.4,0.2,0.7,0.3,0.9C62.2,99.9,62.2,100,62.2,100.1C62.2,100.1,62.2,100.1,62.2,100.1z"/>
				</g>
				<polygon class="st14" points="53.1,115 59.3,117.4 59.7,116 61.8,117.9 62.2,114.6 60.2,111 53.6,113.1 				"/>
				<g>
					<path class="st12" d="M74.1,114.9l-2.5-1.5l-2.2-2c0,0,0.7,0.6,1.7,0.9c1,0.3,1.6-0.6,1.6-0.6s-0.9-0.6-1.2-0.7
						c-0.3-0.2-3.4-2.5-4.2-2.7c-0.8-0.2-6-1.2-6-1.2l-0.1,0.3l-2.6,5.5l2.3,0.6c0,0,0.7,0.9,1.2,1.9c0.5,1,3,2,4,2.6
						c1,0.5,2.1-0.4,2.1-0.4c1.1,0.3,1.4-0.9,1.4-0.9c1.3-0.2,1.4-1.6,1.4-1.6s2.3,0.9,3,1c0.3,0.1,0.4-0.1,0.5-0.3
						C74.5,115.5,74.4,115.1,74.1,114.9z"/>
					<g>
						<path class="st13" d="M70.8,115.1c0,0-0.7-0.2-1.5-0.7c-0.8-0.4-1.3-0.9-1.3-0.9c0,0,0.6,0.4,1.4,0.8
							C70.2,114.7,70.9,115,70.8,115.1z"/>
					</g>
					<g>
						<path class="st13" d="M66.8,114.9c0,0,0.7,0.3,1.4,0.9c0.8,0.5,1.4,0.9,1.4,1c0,0-0.7-0.3-1.4-0.8
							C67.4,115.3,66.8,114.9,66.8,114.9z"/>
					</g>
					<g>
						<path class="st13" d="M65.8,115.9c0,0,0.5,0.4,1.2,0.8c0.6,0.4,1.2,0.8,1.1,0.9c0,0-0.6-0.3-1.2-0.7
							C66.2,116.4,65.7,116,65.8,115.9z"/>
					</g>
					<g>
						<path class="st13" d="M66.4,109.2c0,0,0.2,0,0.6,0.1c0.3,0.1,0.8,0.3,1.2,0.7c0.4,0.3,0.8,0.7,1,1c0.2,0.3,0.3,0.5,0.3,0.5
							c0,0-0.5-0.7-1.4-1.3C67.3,109.5,66.4,109.2,66.4,109.2z"/>
					</g>
				</g>
				<path class="st9" d="M42.3,108.5c-0.7-0.4-1.1-1.1-1.1-1.9c0-0.7,0-1.7,0.2-3.3c0.4-3.7,6.5-25,6.5-25l6,16.6l-2.1,7.2l10.6,5.1
					l-2.9,8.3C59.4,115.5,45.3,110.4,42.3,108.5z"/>
				<path class="st9" d="M87.5,75.6l9.7,18.5l0.3,0.4l10.6-5.4l3.5,7.1l-14.2,8.7c-1.6,1-3.7,0.5-4.8-1.1l-6.3-9.4l-1.7-7.7
					L87.5,75.6z"/>
				<g>
					<path class="st7" d="M86.3,80.9c0,0,0,0.1,0,0.2c0,0.2,0,0.4,0,0.7c0,0.6,0,1.4,0,2.5c0,2.1,0,4.9,0,8.1c0,3.2-0.1,6-0.2,8.1
						c0,1-0.1,1.9-0.1,2.5c0,0.3,0,0.5,0,0.7c0,0.2,0,0.2,0,0.2c0,0,0-0.1,0-0.2c0-0.2,0-0.4,0-0.7c0-0.6,0-1.4,0-2.5
						c0-2.1,0.1-4.9,0.1-8.1c0-3.2,0-6,0-8.1c0-1,0-1.9,0-2.5c0-0.3,0-0.5,0-0.7C86.3,81,86.3,80.9,86.3,80.9z"/>
				</g>
				<g>
					<path class="st7" d="M50.1,82.9c0,0,0,0.1,0.1,0.2c0,0.1,0.1,0.3,0.2,0.5c0.1,0.5,0.3,1.2,0.6,2c0.5,1.7,1.1,4,1.8,6.6
						c0.7,2.6,1.2,5,1.5,6.7c0.2,0.9,0.3,1.6,0.4,2.1c0,0.2,0.1,0.4,0.1,0.6c0,0.1,0,0.2,0,0.2c0,0,0-0.1-0.1-0.2
						c0-0.1-0.1-0.3-0.1-0.6c-0.1-0.5-0.2-1.2-0.4-2c-0.4-1.7-0.9-4.1-1.6-6.7c-0.7-2.6-1.3-4.9-1.7-6.6c-0.2-0.8-0.4-1.5-0.5-2
						c-0.1-0.2-0.1-0.4-0.1-0.6C50.1,83,50.1,82.9,50.1,82.9z"/>
				</g>
				<g>
					<path class="st7" d="M45.8,110.2C45.8,110.2,45.8,110.2,45.8,110.2c0.1,0,0.2,0.1,0.3,0.1c0.2,0.1,0.4,0.2,0.8,0.3
						c0.7,0.3,1.6,0.6,2.8,1.1c2.4,0.9,5.8,2.3,9.8,3.8l-0.1,0c0.6-1.7,1.3-3.6,2-5.6c0.3-0.9,0.7-1.8,1-2.7l0,0.1
						c-4.1-2-7.7-3.7-10.5-5l0,0c-0.9-0.3-1.7-0.4-2.5-0.3c-0.7,0.1-1.3,0.3-1.8,0.5c-0.5,0.2-0.8,0.4-1.1,0.6
						c-0.1,0.1-0.2,0.1-0.3,0.2c-0.1,0-0.1,0.1-0.1,0.1c0,0,0,0,0.1-0.1c0.1,0,0.1-0.1,0.3-0.2c0.2-0.2,0.6-0.4,1.1-0.6
						c0.5-0.2,1.1-0.4,1.8-0.5c0.7-0.1,1.6,0,2.5,0.3h0l0,0c2.8,1.3,6.4,3.1,10.5,5l0.1,0l0,0.1c-0.3,0.9-0.6,1.8-1,2.7
						c-0.7,2-1.4,3.8-2,5.6l0,0.1l-0.1,0c-3.9-1.6-7.3-2.9-9.8-3.9c-1.2-0.5-2.2-0.9-2.8-1.1c-0.3-0.1-0.6-0.2-0.8-0.3
						C45.9,110.2,45.9,110.2,45.8,110.2C45.8,110.2,45.8,110.2,45.8,110.2z"/>
				</g>
				<g>
					<path class="st7" d="M97.5,94.3c0,0,0,0.3,0,0.7c0,0.4-0.1,1.1-0.2,1.7C97.2,97.4,97,98,97,98.4c-0.1,0.4-0.2,0.7-0.2,0.7
						c0,0,0-0.3,0.1-0.7c0.1-0.4,0.2-1,0.3-1.7c0.1-0.7,0.2-1.3,0.3-1.7C97.5,94.6,97.5,94.3,97.5,94.3z"/>
				</g>
			</g>
			<g>
				<path class="st7" d="M97.5,94.7c0,0-0.2,0.8-0.5,1.7c-0.3,0.9-0.6,1.6-0.7,1.6c0,0,0.2-0.8,0.5-1.7
					C97.2,95.4,97.5,94.7,97.5,94.7z"/>
			</g>
			<g>
				<path class="st7" d="M69.5,77.6c0,0-0.1-0.1-0.3-0.3c-0.2-0.2-0.5-0.5-0.8-0.8c-0.7-0.7-1.6-1.6-2.7-2.7l0.1,0
					c-0.3,0.4-0.6,0.9-0.7,1.5c-0.1,0.3-0.1,0.6-0.1,0.9l0,0.2L65,76.2c-1.3-1.1-2.4-2.2-3.3-2.9c-0.4-0.4-0.7-0.7-1-0.9
					c-0.2-0.2-0.4-0.3-0.3-0.3c0,0,0.1,0.1,0.4,0.3c0.2,0.2,0.6,0.5,1,0.8c0.8,0.7,1.9,1.8,3.3,2.8L65,76.1c0-0.3,0-0.6,0.1-0.9
					c0.1-0.6,0.4-1.1,0.7-1.5l0.1-0.1l0.1,0.1c1,1.1,2,2.1,2.6,2.8c0.3,0.3,0.6,0.6,0.8,0.8C69.4,77.4,69.5,77.6,69.5,77.6z"/>
			</g>
			<g>
				<path class="st7" d="M73.1,71.6c0,0,0,0.1,0,0.3s0,0.4,0,0.7c0,0.6-0.2,1.4-0.4,2.4l-0.1,0.2L72.5,75c-0.2-0.5-0.6-1-1-1.4
					c-0.1-0.1-0.2-0.2-0.4-0.3l0.1,0c-0.3,1.3-0.7,2.4-1,3.2c-0.2,0.4-0.3,0.7-0.4,0.9c-0.1,0.2-0.2,0.3-0.2,0.3c0,0,0-0.1,0.1-0.3
					c0.1-0.2,0.2-0.6,0.3-0.9c0.3-0.8,0.6-1.9,0.9-3.2l0-0.1l0.1,0.1c0.1,0.1,0.2,0.2,0.4,0.3c0.5,0.5,0.8,1,1.1,1.5l-0.1,0
					c0.2-1,0.4-1.8,0.4-2.4C73,72,73.1,71.6,73.1,71.6z"/>
			</g>
			<g>
				<polygon class="st9" points="82.7,113.5 83.7,116.4 89.1,115.9 87.4,113.1 				"/>
				<g>
					<path class="st7" d="M82.7,113.5c0,0,0.1,0,0.3,0c0.2,0,0.6-0.1,0.9-0.1c0.8-0.1,2-0.2,3.4-0.3l0,0l0,0
						c0.5,0.9,1.1,1.8,1.7,2.8l0.1,0.1l-0.1,0c-0.1,0-0.2,0-0.3,0c-1.9,0.2-3.7,0.3-5.1,0.5l-0.1,0l0,0c-0.3-0.9-0.5-1.7-0.7-2.2
						c-0.1-0.2-0.1-0.4-0.2-0.6C82.8,113.5,82.7,113.5,82.7,113.5c0,0,0,0.1,0.1,0.2c0.1,0.2,0.1,0.4,0.2,0.6
						c0.2,0.5,0.4,1.2,0.7,2.1l-0.1,0c1.4-0.1,3.2-0.3,5.1-0.5c0.1,0,0.2,0,0.3,0L89,116c-0.6-1-1.2-2-1.7-2.8l0.1,0
						c-1.4,0.1-2.5,0.2-3.3,0.2c-0.4,0-0.7,0-1,0.1C82.9,113.5,82.7,113.5,82.7,113.5z"/>
				</g>
			</g>
			<g>
				<rect x="79.4" y="90.1" class="st9" width="5.8" height="1.9"/>
				<g>
					<path class="st7" d="M85.2,92c0,0,0-0.1,0-0.1c0-0.1,0-0.2,0-0.4c0-0.3,0-0.8,0-1.4l0.1,0.1c-1.4,0-3.5,0-5.8,0
						c0,0-0.1,0.1,0.1-0.1l0,0l0,0v0v0v0v0v0v0.1v0.1v0.2c0,0.2,0,0.3,0,0.5c0,0.3,0,0.6,0,0.9l-0.1-0.1c1.6,0,3.1,0,4.1,0
						c0.5,0,0.9,0,1.2,0C85,91.9,85.2,92,85.2,92c0,0-0.1,0-0.4,0c-0.3,0-0.7,0-1.2,0c-1,0-2.5,0-4.2,0h-0.1V92c0-0.3,0-0.6,0-0.9
						c0-0.2,0-0.3,0-0.5v-0.2v-0.1v-0.1v0v0v0v0v0l0,0l0,0c0.2-0.2,0,0,0.1-0.1c2.3,0,4.4,0,5.8,0h0.1v0.1c0,0.6,0,1,0,1.4
						C85.2,91.8,85.2,92,85.2,92z"/>
				</g>
			</g>
			<path class="st14" d="M78.5,75.8l0.9,1.2c0,0-0.2,18.5-1.2,23.1L78.5,75.8z"/>
		</g>
	</g>
	<g id="Character_1">
		<g>
			<g>
				<g>
					<g>
						<g>
							<g>
								<g>
									<g>
										<g>
											<g>
												<g>
													<g>
														<path class="st15" d="M31.6,86.7c0-4.5-3.4-8.3-7.9-8.7l-0.4,0c-4.8-0.1-7.6,3.9-7.6,8.7l-1.1,16.9l-0.5,3.5l11.1,2.8
															l0.9-7.3c0,0,4.7-0.3,5.1-4.9C31.5,95.5,31.6,90.8,31.6,86.7z"/>
													</g>
												</g>
											</g>
										</g>
									</g>
								</g>
							</g>
							<g>
								<g>
									<g>
										<g>
											<g>
												<g>
													<g>
														<g>
															<g>
																<path class="st16" d="M26.2,102.6c0,0-3-0.1-5.9-2.3c0,0,1.1,3.5,5.7,3.5L26.2,102.6z"/>
															</g>
														</g>
													</g>
												</g>
											</g>
										</g>
									</g>
								</g>
							</g>
							<g>
								<g>
									<g>
										<g>
											<g>
												<g>
													<g>
														<g>
															<g>
																<g>
																	<g>
																		<g>
																			<path class="st7" d="M29.8,90.9c0,0.3-0.3,0.6-0.7,0.6c-0.4,0-0.6-0.3-0.6-0.7c0-0.3,0.3-0.6,0.7-0.6
																				C29.5,90.3,29.8,90.6,29.8,90.9z"/>
																		</g>
																	</g>
																</g>
															</g>
														</g>
													</g>
												</g>
											</g>
										</g>
									</g>
								</g>
							</g>
							<g>
								<g>
									<g>
										<g>
											<g>
												<g>
													<g>
														<g>
															<g>
																<g>
																	<g>
																		<g>
																			<g>
																				<path class="st7" d="M30.4,88.8c-0.1,0.1-0.6-0.3-1.3-0.4c-0.7-0.1-1.3,0.2-1.3,0.2c0,0,0.1-0.2,0.3-0.3
																					c0.2-0.1,0.6-0.3,1.1-0.2c0.4,0,0.8,0.2,1,0.4C30.4,88.6,30.4,88.8,30.4,88.8z"/>
																			</g>
																		</g>
																	</g>
																</g>
															</g>
														</g>
													</g>
												</g>
											</g>
										</g>
									</g>
								</g>
							</g>
							<g>
								<g>
									<g>
										<g>
											<g>
												<g>
													<g>
														<g>
															<g>
																<g>
																	<g>
																		<g>
																			<path class="st7" d="M23.3,90.6c0,0.3-0.3,0.6-0.7,0.6c-0.4,0-0.6-0.3-0.6-0.7c0-0.3,0.3-0.6,0.7-0.6
																				C23,90,23.3,90.3,23.3,90.6z"/>
																		</g>
																	</g>
																</g>
															</g>
														</g>
													</g>
												</g>
											</g>
										</g>
									</g>
								</g>
							</g>
							<g>
								<g>
									<g>
										<g>
											<g>
												<g>
													<g>
														<g>
															<g>
																<g>
																	<g>
																		<g>
																			<g>
																				<path class="st7" d="M23.4,88.3c-0.1,0.1-0.6-0.3-1.3-0.4c-0.7-0.1-1.3,0.2-1.3,0.2c0,0,0.1-0.2,0.3-0.3
																					c0.2-0.1,0.6-0.3,1.1-0.2c0.4,0,0.8,0.2,1,0.4C23.4,88.2,23.5,88.3,23.4,88.3z"/>
																			</g>
																		</g>
																	</g>
																</g>
															</g>
														</g>
													</g>
												</g>
											</g>
										</g>
									</g>
								</g>
							</g>
							<g>
								<g>
									<g>
										<g>
											<g>
												<g>
													<g>
														<g>
															<g>
																<g>
																	<g>
																		<g>
																			<path class="st7" d="M25.5,93.8c0,0,0.4-0.1,1.2-0.1c0.2,0,0.4,0,0.4-0.1c0.1-0.1,0-0.3-0.1-0.5
																				c-0.1-0.5-0.3-0.9-0.4-1.4c-0.6-2-1-3.7-0.9-3.7s0.6,1.6,1.2,3.6c0.1,0.5,0.3,1,0.4,1.4c0.1,0.2,0.1,0.5,0,0.7
																				c-0.1,0.1-0.2,0.2-0.3,0.2c-0.1,0-0.2,0-0.3,0C26,93.9,25.5,93.9,25.5,93.8z"/>
																		</g>
																	</g>
																</g>
															</g>
														</g>
													</g>
												</g>
											</g>
										</g>
									</g>
								</g>
							</g>
							<g>
								<g>
									<g>
										<g>
											<g>
												<g>
													<g>
														<g>
															<g>
																<g>
																	<g>
																		<g>
																			<path class="st7" d="M23.4,94.1c0.1,0,0.1,0.8,0.7,1.4c0.6,0.6,1.4,0.6,1.4,0.7c0,0.1-0.2,0.1-0.5,0.1
																				c-0.3,0-0.8-0.2-1.2-0.5c-0.4-0.4-0.5-0.8-0.5-1.1C23.3,94.3,23.4,94.1,23.4,94.1z"/>
																		</g>
																	</g>
																</g>
															</g>
														</g>
													</g>
												</g>
											</g>
										</g>
									</g>
								</g>
							</g>
							<g>
								<g>
									<g>
										<g>
											<g>
												<g>
													<g>
														<g>
															<path class="st7" d="M23.9,85.6c-0.1,0.2-0.8,0-1.6,0.1c-0.8,0-1.5,0.2-1.6,0c0-0.1,0.1-0.3,0.4-0.4
																c0.3-0.2,0.7-0.3,1.2-0.3c0.5,0,1,0.1,1.2,0.3C23.8,85.3,23.9,85.5,23.9,85.6z"/>
														</g>
													</g>
												</g>
											</g>
										</g>
									</g>
								</g>
							</g>
							<g>
								<g>
									<g>
										<g>
											<g>
												<g>
													<g>
														<g>
															<path class="st7" d="M30.3,86.8c-0.1,0.2-0.6-0.1-1.2-0.1c-0.6-0.1-1.1,0-1.2-0.2c0-0.1,0.1-0.2,0.3-0.4
																c0.2-0.1,0.6-0.2,1-0.2c0.4,0,0.7,0.2,0.9,0.4C30.3,86.5,30.4,86.7,30.3,86.8z"/>
														</g>
													</g>
												</g>
											</g>
										</g>
									</g>
								</g>
							</g>
							<g>
								<g>
									<g>
										<g>
											<g>
												<g>
													<g>
														<path class="st15" d="M16,91.2c0-0.7-0.5-1.3-1.2-1.3c-0.9,0-1.9,0.4-2,2.2c-0.2,3.2,3,2.7,3,2.6
															C15.8,94.6,15.9,92.5,16,91.2z"/>
													</g>
												</g>
											</g>
										</g>
									</g>
								</g>
							</g>
							<g>
								<g>
									<g>
										<g>
											<g>
												<g>
													<g>
														<path class="st16" d="M15.2,93.4c0,0-0.1,0-0.2,0.1c-0.1,0-0.3,0.1-0.4,0c-0.3-0.1-0.6-0.7-0.6-1.3
															c0-0.3,0.1-0.6,0.2-0.8c0.1-0.2,0.3-0.4,0.4-0.4c0.2,0,0.3,0.1,0.3,0.2c0,0.1,0,0.2,0,0.2c0,0,0.1-0.1,0.1-0.2
															c0-0.1,0-0.1-0.1-0.2c-0.1-0.1-0.2-0.1-0.3-0.1c-0.2,0-0.5,0.2-0.6,0.5c-0.1,0.2-0.2,0.5-0.2,0.9
															c0,0.6,0.3,1.3,0.7,1.4c0.2,0.1,0.4,0,0.5-0.1C15.2,93.5,15.2,93.5,15.2,93.4z"/>
													</g>
												</g>
											</g>
										</g>
									</g>
								</g>
							</g>
						</g>
					</g>
				</g>
				<g>
					<g>
						<g>
							<g>
								<g>
									<g>
										<path class="st7" d="M14,87.6c0.1,0.9-0.2,2.4,0.6,2.3c1.6-0.1,0.7,3,1.5,2.8c0.8-0.2,1.6-1,2-3c0.5-2.5-0.3-4.5,1.2-7.2
											c0.9-1.1,2.2-1.7,3.5-1.5c1.3,0.2,2.5,1.1,3.1,2.3c0.3-0.9,0.9-2.1,1.8-2.4c0.9-0.3,1.9-0.1,2.5,0.6
											c0.6,0.7,0.6,1.8-0.1,2.5c0.3,0.2,0.8,0.1,1.1-0.2c0,0.4-0.2,0.8-0.6,1.1c0.3,0,0.7-0.2,0.9-0.4c-0.1,0.4-0.3,0.7-0.4,1.1
											c1.3,0.3,2.8-0.8,3.4-1.9c0.8-1.6,0.7-3.5,0-5.2c-0.7-1.7-2.3-3.1-4.1-3.4c-1.8-0.3-3.5,0.3-4.5,1.9
											c-1.1-1-3.4-1.7-4.8-1.3s-2.6,1.6-3,3c-0.8-0.5-1.8-0.4-2.6,0.1c-0.1,0-0.1,0.1-0.2,0.1c-1.1,0.7-1.7,2-1.7,3.3
											c0,0.5,0.1,1.1,0.1,1.5C13.9,85,14,87.6,14,87.6z"/>
									</g>
								</g>
							</g>
						</g>
					</g>
					<g>
						<g>
							<g>
								<g>
									<g>
										<g>
											<path class="st17" d="M31.4,83.9c0,0,0,0,0.1-0.1c0.1,0,0.2-0.1,0.3-0.2c0.3-0.2,0.6-0.6,0.7-1.2
												c0.2-0.6,0.2-1.4-0.3-2.1c-0.4-0.7-1.3-1.3-2.2-1.3c-0.5,0-0.9,0.1-1.3,0.3c-0.4,0.2-0.8,0.4-1.1,0.7
												c-0.6,0.5-1,1.2-1.3,1.7c-0.2,0.6-0.3,1.1-0.4,1.4c0,0.2,0,0.3,0,0.4s0,0.1,0,0.1c0,0,0-0.8,0.5-1.9
												c0.3-0.5,0.7-1.2,1.3-1.7c0.6-0.5,1.4-1,2.3-0.9c0.9,0,1.7,0.6,2.1,1.2c0.4,0.7,0.5,1.4,0.3,2c-0.2,0.6-0.4,1-0.7,1.2
												C31.6,83.7,31.4,83.8,31.4,83.9z"/>
										</g>
									</g>
								</g>
							</g>
						</g>
					</g>
					<g>
						<g>
							<g>
								<g>
									<g>
										<g>
											<path class="st17" d="M31.8,85.3c0,0,0,0,0.1-0.1s0.2-0.2,0.3-0.4c0.3-0.4,0.7-0.9,1-1.6c0.2-0.4,0.3-0.8,0.4-1.3
												c0.1-0.5,0.1-1,0-1.5c-0.1-0.5-0.4-1-0.9-1.4c-0.4-0.4-1-0.7-1.6-0.8c-0.6-0.1-1.2-0.1-1.8,0c-0.6,0.1-1.1,0.3-1.6,0.6
												c-0.9,0.5-1.6,1.3-1.9,2c-0.3,0.8-0.3,1.4-0.2,1.9c0,0.2,0.1,0.4,0.2,0.5c0.1,0.1,0.1,0.2,0.1,0.2c0,0-0.1-0.2-0.2-0.7
												c-0.1-0.4-0.1-1.1,0.2-1.8c0.3-0.7,1-1.5,1.9-2c0.9-0.5,2.1-0.8,3.3-0.6c0.6,0.1,1.1,0.4,1.5,0.8
												c0.4,0.4,0.7,0.9,0.8,1.4c0.1,0.5,0.1,1,0,1.5c-0.1,0.5-0.2,0.9-0.4,1.2c-0.3,0.7-0.7,1.3-1,1.6
												c-0.1,0.2-0.2,0.3-0.3,0.4C31.8,85.3,31.8,85.3,31.8,85.3z"/>
										</g>
									</g>
								</g>
							</g>
						</g>
					</g>
					<g>
						<g>
							<g>
								<g>
									<g>
										<g>
											<path class="st17" d="M15.4,85.8c0,0-0.2-0.3-0.6-0.8c-0.3-0.5-0.6-1.3-0.7-2.2c0-0.9,0.2-1.7,0.5-2.2
												c0.3-0.5,0.5-0.8,0.5-0.8c0,0-0.1,0.1-0.2,0.2c-0.1,0.1-0.2,0.3-0.4,0.6c-0.3,0.5-0.6,1.4-0.5,2.3c0,0.9,0.4,1.7,0.7,2.2
												c0.2,0.3,0.3,0.4,0.4,0.6C15.4,85.8,15.4,85.8,15.4,85.8z"/>
										</g>
									</g>
								</g>
							</g>
						</g>
					</g>
					<g>
						<g>
							<g>
								<g>
									<g>
										<g>
											<path class="st17" d="M18.3,86.2c0,0-0.1-0.1-0.4-0.3c-0.2-0.2-0.5-0.6-0.6-1.1l-0.1-0.3l0,0.3c0,0.4-0.1,1-0.1,1.5
												l0.1,0c-0.3-0.3-0.6-0.7-0.9-1.2c-0.3-0.6-0.4-1.2-0.4-1.8c0-0.6,0.1-1.1,0.2-1.5c0.3-0.8,0.7-1.2,0.6-1.2
												c0,0,0,0-0.1,0.1c0,0-0.1,0.1-0.2,0.2c-0.1,0.2-0.3,0.5-0.5,0.9c-0.2,0.4-0.3,0.9-0.3,1.5c0,0.6,0.1,1.2,0.4,1.8
												c0.2,0.5,0.5,0.9,0.9,1.2l0.1,0.1l0-0.1c0-0.6,0.1-1.1,0.1-1.5l-0.1,0c0.2,0.5,0.5,0.9,0.7,1.1c0.1,0.1,0.2,0.2,0.3,0.2
												C18.2,86.2,18.3,86.2,18.3,86.2z"/>
										</g>
									</g>
								</g>
							</g>
						</g>
					</g>
					<g>
						<g>
							<g>
								<g>
									<g>
										<g>
											<path class="st17" d="M20.2,79.8c0,0,0.2-0.4,0.9-0.8c0.3-0.2,0.7-0.3,1.2-0.3c0.5,0,1,0.1,1.5,0.4
												c0.5,0.3,0.9,0.7,1.1,1.1c0.3,0.4,0.4,0.8,0.5,1.2c0.2,0.7,0.1,1.2,0.2,1.2c0,0,0-0.1,0-0.3c0-0.2,0-0.5-0.1-0.9
												c-0.1-0.4-0.2-0.8-0.5-1.2c-0.3-0.4-0.7-0.8-1.2-1.1c-0.5-0.3-1.1-0.4-1.5-0.4c-0.5,0-0.9,0.2-1.2,0.4
												c-0.3,0.2-0.5,0.4-0.7,0.6C20.3,79.6,20.3,79.6,20.2,79.8C20.2,79.7,20.2,79.8,20.2,79.8z"/>
										</g>
									</g>
								</g>
							</g>
						</g>
					</g>
					<g>
						<g>
							<g>
								<g>
									<g>
										<g>
											<path class="st17" d="M21.3,77.5c0,0,0.3-0.2,0.9-0.2c0.6,0,1.4,0.1,2.1,0.6c0.7,0.5,1.1,1.3,1.3,1.8
												c0.2,0.5,0.2,0.9,0.2,0.9c0,0,0-0.1,0-0.3s-0.1-0.4-0.1-0.7c-0.2-0.6-0.5-1.3-1.3-1.9c-0.7-0.6-1.6-0.7-2.2-0.6
												c-0.3,0-0.5,0.1-0.7,0.2C21.4,77.5,21.3,77.5,21.3,77.5z"/>
										</g>
									</g>
								</g>
							</g>
						</g>
					</g>
				</g>
			</g>
			<path class="st17" d="M13.6,103.7c0,0-3.1,2.8-4.1,7c-1.3,5.3,3.5,31,3.5,31l25.7,0l-5.5-20.3c0,0-6.4-12.4-6.5-12.7
				c-0.1-0.3-0.3-2.9-0.3-2.9l-11.7-4.8L13.6,103.7z"/>
			<g>
				<path class="st15" d="M68.9,131.1c-0.2-0.5-2-1.6-2-1.6c-0.1-0.5-1-1.1-1-1.1s-0.4-0.4-1.1-0.7s-6.9,0.5-6.9,0.5l-4.6,0.3
					l0.3,6.1c0,0.1,4.3-1.6,4.3-1.6s1.8,0.4,3.4,0.7S66,133,66,133l1.2,1.2c0.2,0.3,0.4,1.1,0.4,1.6c0,0.5,0.6,0.9,1,0.6
					c0.4-0.3,0.1-2,0.1-2s0.3,0.2,0.7-0.1C69.7,134,69.1,131.7,68.9,131.1z"/>
				<g>
					<path class="st16" d="M66.1,131.4c0,0,0.3-0.1,0.7,0c0.4,0.1,0.9,0.5,1.3,1.1c0.4,0.6,0.5,1.2,0.6,1.6c0.1,0.4,0.1,0.7,0.1,0.7
						c0,0-0.1-0.2-0.2-0.7c-0.1-0.4-0.3-1-0.6-1.5c-0.3-0.5-0.8-0.9-1.2-1C66.4,131.4,66.1,131.4,66.1,131.4z"/>
				</g>
			</g>
			<path class="st14" d="M14.1,120c0,0,11.9,12.7,16.4,15.2c4.9,2.7,7.1,2.6,7.1,2.6l-0.8-3.5L14.1,120z"/>
			<path class="st17" d="M58.3,127.8l-19.8-2.4c0,0-12-14.7-15.1-17c-3.1-2.3-8.2-1.5-9.8,0c-0.8,0.8-1.3,1.9-1.6,3
				c-0.5,2-0.4,4.1,0.4,6l0.6,1.7c0.4,0.3,19,17.1,23.8,17.4s21.8-1,21.8-1L58.3,127.8z"/>
			<g>
				<path class="st7" d="M26.7,108.7c0,0-0.2,0-0.5-0.1c-0.3-0.1-0.8-0.3-1.4-0.5c-1.2-0.4-2.8-1-4.6-1.8c-1.8-0.7-3.4-1.4-4.6-1.8
					c-0.6-0.2-1-0.4-1.4-0.5c-0.3-0.1-0.5-0.2-0.5-0.2c0,0,0.2,0,0.5,0.2c0.3,0.1,0.8,0.3,1.4,0.5c1.2,0.4,2.8,1.1,4.6,1.8
					c1.8,0.7,3.4,1.4,4.6,1.8c0.6,0.2,1.1,0.4,1.4,0.5C26.6,108.6,26.7,108.6,26.7,108.7z"/>
			</g>
			<g>
				<g>
					<path class="st7" d="M21.5,107.3c0,0-0.2-0.1-0.6-0.1c-0.4-0.1-1-0.2-1.7-0.2c-0.7,0-1.6,0-2.5,0.2c-0.5,0.1-0.9,0.3-1.4,0.5
						c-0.5,0.2-0.9,0.5-1.3,0.8c-0.9,0.7-1.5,1.5-1.9,2.4c-0.4,0.9-0.5,1.7-0.6,2.4c-0.1,0.7-0.1,1.3-0.1,1.7c0,0.2,0,0.3,0,0.5
						c0,0.1,0,0.2,0,0.2c0,0,0-0.1,0-0.2c0-0.1,0-0.3,0-0.5c0-0.4,0-1,0-1.7c0.1-0.7,0.2-1.6,0.6-2.5c0.4-0.9,1-1.8,1.9-2.4
						c0.4-0.3,0.9-0.6,1.4-0.8c0.5-0.2,1-0.4,1.4-0.5c0.9-0.2,1.8-0.2,2.5-0.2c0.7,0.1,1.3,0.2,1.7,0.3c0.2,0.1,0.3,0.1,0.4,0.1
						C21.5,107.2,21.5,107.3,21.5,107.3z"/>
				</g>
			</g>
			<g>
				<path class="st7" d="M23.5,108.5c0,0,0.1,0.1,0.3,0.3c0.1,0.1,0.2,0.2,0.4,0.3c0.1,0.1,0.3,0.3,0.5,0.5c0.8,0.7,1.8,1.9,3.2,3.3
					c2.7,2.9,6.4,7.3,10.7,12.6l0,0c5.8,0.7,12.5,1.6,19.8,2.5l0.1,0l0,0.1c0.1,2.4,0.2,5,0.4,7.6l0,0.1l-0.1,0c-0.2,0-0.4,0-0.6,0
					c-3.5,0.3-6.9,0.5-10.2,0.7c-1.7,0.1-3.3,0.2-4.9,0.2c-1.6,0.1-3.2,0.1-4.7,0.1c-0.4,0-0.8,0-1.1,0c-0.1,0-0.2,0-0.3,0l-0.3,0
					c-0.2,0-0.4-0.1-0.5-0.1c-0.7-0.2-1.4-0.5-2-0.9c-1.3-0.7-2.4-1.5-3.6-2.2c-2.2-1.5-4.2-3.1-6-4.5c-3.6-2.9-6.4-5.3-8.4-7
					c-1-0.8-1.7-1.5-2.2-2c-0.3-0.2-0.4-0.4-0.6-0.5c-0.1-0.1-0.2-0.2-0.2-0.2s0.1,0.1,0.2,0.2c0.1,0.1,0.3,0.3,0.6,0.5
					c0.5,0.4,1.3,1.1,2.2,1.9c2,1.7,4.8,4.1,8.4,7c1.8,1.4,3.8,3,6,4.5c1.1,0.8,2.3,1.5,3.6,2.2c0.6,0.3,1.3,0.7,2,0.9
					c0.7,0.2,1.5,0.2,2.2,0.2c1.5,0,3.1,0,4.7-0.1c1.6-0.1,3.2-0.1,4.9-0.2c3.3-0.2,6.7-0.4,10.2-0.7c0.2,0,0.4,0,0.6,0l-0.1,0.1
					c-0.1-2.6-0.3-5.2-0.4-7.6l0.1,0.1c-7.3-0.9-14-1.8-19.8-2.5l0,0l0,0c-4.4-5.3-8-9.7-10.7-12.6c-1.3-1.5-2.4-2.6-3.1-3.3
					c-0.2-0.2-0.4-0.3-0.5-0.5c-0.2-0.1-0.3-0.2-0.4-0.3C23.6,108.6,23.5,108.5,23.5,108.5z"/>
			</g>
			<g>
				<path class="st7" d="M37.6,128.7c0,0,0-0.8,0.3-1.6c0.3-0.9,0.6-1.5,0.7-1.5c0,0-0.3,0.7-0.5,1.6
					C37.8,128,37.7,128.7,37.6,128.7z"/>
			</g>
		</g>
		<path class="st7" d="M7.1,110.7L7.1,110.7c-1.2,0-2.2,1-2.2,2.2v28.9h4.3v-28.9C9.3,111.7,8.3,110.7,7.1,110.7z"/>
	</g>
	<g id="Desk">
		<g>
			<g>
				<polygon class="st6" points="135,124.2 120.1,124.2 124.2,137.2 139.6,137.2 				"/>
				<path class="st3" d="M120.1,124.2c-0.3,0.2-4.4,13-4.4,13h8.8L120.1,124.2z"/>
				<g>
					<path class="st7" d="M139.6,137.2C139.6,137.2,139.6,137.2,139.6,137.2c0-0.1-0.1-0.2-0.1-0.2c-0.1-0.2-0.2-0.4-0.3-0.7
						c-0.2-0.6-0.6-1.5-1-2.7c-0.8-2.3-2-5.5-3.4-9.3l0.1,0.1c-2.3,0-4.8,0-7.4,0c-2.6,0-5.2,0-7.5,0l0.1-0.1c1.3,3.8,2.4,7,3.2,9.3
						c0.4,1.1,0.7,2.1,0.9,2.7c0.1,0.3,0.2,0.5,0.2,0.7c0,0.1,0,0.1,0.1,0.2c0,0,0,0.1,0,0.1c0,0,0,0,0-0.1c0,0,0-0.1-0.1-0.2
						c-0.1-0.2-0.1-0.4-0.3-0.7c-0.2-0.6-0.5-1.5-0.9-2.7c-0.8-2.3-1.9-5.5-3.2-9.3l0-0.1h0.1c2.3,0,4.8,0,7.5,0c2.6,0,5.1,0,7.4,0
						h0.1l0,0.1c1.3,3.8,2.5,7,3.3,9.3c0.4,1.1,0.7,2.1,0.9,2.7c0.1,0.3,0.2,0.5,0.2,0.7C139.6,137.1,139.6,137.1,139.6,137.2
						C139.6,137.2,139.6,137.2,139.6,137.2z"/>
				</g>
				<g>
					<path class="st7" d="M127.7,137.2c0,0-1.1-2.9-2.3-6.5c-1.2-3.6-2.2-6.5-2.1-6.5s1.1,2.9,2.3,6.5
						C126.8,134.3,127.7,137.2,127.7,137.2z"/>
				</g>
				<g>
					<path class="st7" d="M130.8,137.2c0,0-1.1-2.9-2.3-6.5c-1.2-3.6-2.2-6.5-2.1-6.5s1.1,2.9,2.3,6.5
						C129.9,134.3,130.8,137.2,130.8,137.2z"/>
				</g>
				<g>
					<path class="st7" d="M133.9,137.2c0,0-1.1-2.9-2.3-6.5c-1.2-3.6-2.2-6.5-2.1-6.5s1.1,2.9,2.3,6.5
						C133,134.3,134,137.2,133.9,137.2z"/>
				</g>
				<g>
					<path class="st7" d="M137,137.2c0,0-1.1-2.9-2.3-6.5c-1.2-3.6-2.2-6.5-2.1-6.5s1.1,2.9,2.3,6.5
						C136.1,134.3,137.1,137.2,137,137.2z"/>
				</g>
				<g>
					<path class="st7" d="M123.3,125.6c0,0-0.4,0.1-1,0.1c-0.5,0-1,0-1-0.1s0.4-0.1,1-0.1S123.3,125.5,123.3,125.6z"/>
				</g>
				<g>
					<path class="st7" d="M126.3,125.6c0,0-0.4,0.1-1,0.1c-0.5,0-1,0-1-0.1s0.4-0.1,1-0.1C125.8,125.5,126.3,125.5,126.3,125.6z"/>
				</g>
				<g>
					<path class="st7" d="M129.3,125.6c0,0-0.4,0.1-1,0.1c-0.5,0-1,0-1-0.1s0.4-0.1,1-0.1C128.8,125.5,129.3,125.5,129.3,125.6z"/>
				</g>
				<g>
					<path class="st7" d="M134.8,125.6c0,0-0.3,0.1-0.7,0.1c-0.4,0-0.7,0-0.7-0.1s0.3-0.1,0.7-0.1S134.8,125.5,134.8,125.6z"/>
				</g>
				<g>
					<path class="st7" d="M132.5,125.6c0,0-0.4,0.1-1,0.1c-0.5,0-1,0-1-0.1s0.4-0.1,1-0.1C132,125.5,132.5,125.5,132.5,125.6z"/>
				</g>
				<g>
					<path class="st7" d="M135.6,126.5c0,0-3.3,0.1-7.4,0.1c-4.1,0-7.4,0-7.4-0.1s3.3-0.1,7.4-0.1
						C132.3,126.4,135.6,126.4,135.6,126.5z"/>
				</g>
				<g>
					<path class="st7" d="M136.3,128.2c0,0-3.3,0.1-7.4,0.1c-4.1,0-7.4,0-7.4-0.1c0,0,3.3-0.1,7.4-0.1
						C133,128.1,136.3,128.2,136.3,128.2z"/>
				</g>
				<g>
					<path class="st7" d="M136.8,130.2c0,0-3.3,0.1-7.4,0.1c-4.1,0-7.4,0-7.4-0.1s3.3-0.1,7.4-0.1
						C133.5,130.1,136.8,130.1,136.8,130.2z"/>
				</g>
				<g>
					<path class="st7" d="M137.6,132.1c0,0-3.3,0.1-7.4,0.1c-4.1,0-7.4,0-7.4-0.1s3.3-0.1,7.4-0.1
						C134.3,132.1,137.6,132.1,137.6,132.1z"/>
				</g>
				<g>
					<path class="st7" d="M138.2,134.1c0,0-3.3,0.1-7.4,0.1c-4.1,0-7.4,0-7.4-0.1s3.3-0.1,7.4-0.1
						C134.9,134,138.2,134.1,138.2,134.1z"/>
				</g>
				<g>
					<path class="st9" d="M129.8,129.7c0,0,0,0,0.1,0c0.1,0,0.2,0,0.4,0c0.3,0,0.8,0,1.4,0.3c0.3,0.1,0.5,0.3,0.7,0.7
						c0.2,0.3,0.3,0.7,0.2,1.1c-0.1,0.4-0.5,0.7-0.9,0.9c-0.4,0.2-0.9,0.2-1.3,0.1c-0.5-0.1-0.9-0.2-1.3-0.4
						c-0.4-0.2-0.7-0.5-0.9-0.9c-0.2-0.4-0.2-0.8,0-1.1c0.2-0.3,0.5-0.5,0.8-0.6C129.3,129.6,129.6,129.6,129.8,129.7
						c0.3,0,0.5,0,0.6,0.1c0.2,0.1,0.3,0.1,0.4,0.1c0.1,0,0.1,0.1,0.1,0.1c0,0-0.2,0-0.5-0.1c-0.3-0.1-0.8-0.2-1.4-0.1
						c-0.3,0.1-0.6,0.2-0.7,0.5c-0.2,0.3-0.2,0.7,0,1c0.1,0.3,0.5,0.6,0.8,0.8c0.4,0.2,0.8,0.3,1.2,0.4c0.4,0.1,0.9,0.1,1.3-0.1
						c0.4-0.1,0.7-0.4,0.8-0.8c0.1-0.3,0.1-0.7-0.1-1c-0.2-0.3-0.4-0.5-0.7-0.6c-0.5-0.3-1-0.3-1.3-0.3
						C129.9,129.7,129.8,129.7,129.8,129.7z"/>
				</g>
				<g>
					<path class="st9" d="M128.4,132.8c0,0,0.2-0.2,0.5-0.6c0.4-0.4,0.8-0.8,1.3-1.3c0.5-0.5,0.9-0.9,1.3-1.3
						c0.3-0.3,0.6-0.5,0.6-0.5c0,0-0.2,0.2-0.5,0.6c-0.3,0.4-0.8,0.8-1.3,1.4c-0.5,0.5-1,1-1.4,1.3
						C128.7,132.7,128.5,132.8,128.4,132.8z"/>
				</g>
				<g>
					<path class="st9" d="M133.4,132.7c0,0-0.3-0.2-0.8-0.5c-0.5-0.3-1.1-0.7-1.9-1.2c-0.7-0.5-1.4-0.9-1.8-1.3
						c-0.5-0.3-0.7-0.5-0.7-0.6c0,0,0.3,0.2,0.8,0.5c0.5,0.3,1.1,0.7,1.9,1.2c0.7,0.5,1.4,0.9,1.8,1.3
						C133.1,132.5,133.4,132.7,133.4,132.7z"/>
				</g>
				<g>
					<path class="st9" d="M129.5,127.1c0,0-0.4,0.1-0.8,0.1c-0.5,0-0.8-0.1-0.8-0.2c0,0,0.4,0,0.8,0
						C129.1,127.1,129.5,127.1,129.5,127.1z"/>
				</g>
				<g>
					<path class="st9" d="M129.5,127.6c0,0-0.3,0.1-0.6,0.1c-0.3,0-0.6,0-0.6,0c0,0,0.3-0.1,0.6-0.1
						C129.2,127.5,129.5,127.5,129.5,127.6z"/>
				</g>
				<g>
					<path class="st9" d="M132.6,127.2c0,0-0.3,0.1-0.6,0.1c-0.3,0-0.6-0.1-0.6-0.1c0,0,0.3-0.1,0.6-0.1
						C132.3,127.2,132.5,127.2,132.6,127.2z"/>
				</g>
				<g>
					<path class="st9" d="M136,128.9c0,0-0.2,0.1-0.4,0.1c-0.2,0-0.4,0-0.4-0.1c0,0,0.2-0.1,0.4-0.1
						C135.8,128.8,136,128.8,136,128.9z"/>
				</g>
				<g>
					<path class="st9" d="M127.2,129.2c0,0-0.3,0.1-0.7,0.1c-0.4,0-0.7-0.1-0.7-0.1c0,0,0.3,0,0.7,0
						C126.9,129.2,127.2,129.2,127.2,129.2z"/>
				</g>
				<g>
					<path class="st9" d="M124.7,131.4c0,0-0.3,0.1-0.6,0.1s-0.6,0-0.6-0.1c0,0,0.3-0.1,0.6-0.1
						C124.4,131.3,124.7,131.3,124.7,131.4z"/>
				</g>
				<g>
					<path class="st9" d="M129.4,135.4c0,0-0.2,0.1-0.6,0.2c-0.3,0.1-0.6,0.1-0.6,0c0,0,0.2-0.1,0.6-0.2
						C129.1,135.3,129.4,135.3,129.4,135.4z"/>
				</g>
				<g>
					<path class="st9" d="M132,133.5c0,0-0.4,0.1-0.8,0.1c-0.5,0-0.8-0.1-0.8-0.1c0,0,0.4,0,0.8,0C131.7,133.5,132,133.5,132,133.5z
						"/>
				</g>
				<g>
					<path class="st9" d="M135.3,133.2c0,0-0.3,0.1-0.6,0.1s-0.6,0-0.6,0c0,0,0.3-0.1,0.6-0.1C135,133.1,135.3,133.1,135.3,133.2z"
						/>
				</g>
			</g>
			<g>
				<path class="st7" d="M120.1,124.2c0,0-0.9,2.9-2.1,6.5c-1.2,3.6-2.2,6.5-2.3,6.5c0,0,0.9-2.9,2.1-6.5
					C119.1,127.1,120.1,124.2,120.1,124.2z"/>
			</g>
			<g>
				<path class="st7" d="M139.1,136c0,0-3.3,0.1-7.4,0.1c-4.1,0-7.4,0-7.4-0.1s3.3-0.1,7.4-0.1C135.8,135.9,139.1,135.9,139.1,136z"
					/>
			</g>
		</g>
		<g>
			<path class="st3" d="M85.4,116.9l-0.2,0c-0.3-0.1-0.6,0.1-0.7,0.4L80.4,136H60c-0.3,0-0.6,0.3-0.6,0.6l0,0c0,0.3,0.3,0.6,0.6,0.6
				h21.4l0,0l0,0l4.4-19.6C85.9,117.3,85.7,117,85.4,116.9z"/>
			<g>
				<path class="st7" d="M85.4,116.9c0,0,0.2,0,0.3,0.2c0.1,0.1,0.2,0.3,0.1,0.4c0,0.2-0.1,0.4-0.1,0.6c-0.2,1-0.5,2.4-0.9,4.2
					c-0.8,3.6-2,8.7-3.3,14.9l0,0.1h-0.1c-6.2,0-13.6,0-21.4,0c-0.3,0-0.6-0.2-0.6-0.5c-0.1-0.3,0.1-0.6,0.3-0.7
					c0.1-0.1,0.3-0.1,0.4-0.1h0.4c0.3,0,0.5,0,0.8,0c1,0,2,0,3,0c2,0,3.9,0,5.8,0c3.7,0,7.2,0,10.5,0l-0.1,0.1
					c1.3-5.9,2.4-10.9,3.2-14.3c0.4-1.7,0.7-3.1,0.9-4c0.1-0.2,0.1-0.4,0.2-0.6c0.1-0.1,0.3-0.2,0.4-0.2
					C85.1,116.9,85.2,116.9,85.4,116.9C85.3,116.9,85.4,116.9,85.4,116.9S85.3,116.9,85.4,116.9c-0.2,0-0.2-0.1-0.4,0
					c-0.1,0-0.3,0.1-0.4,0.2c-0.1,0.1-0.1,0.4-0.2,0.6c-0.2,0.9-0.5,2.3-0.9,4c-0.8,3.5-1.8,8.4-3.1,14.3l0,0.1h-0.1
					c-3.2,0-6.7,0-10.5,0c-1.9,0-3.8,0-5.8,0c-1,0-2,0-3,0c-0.3,0-0.5,0-0.8,0h-0.4c-0.1,0-0.2,0-0.3,0.1c-0.2,0.1-0.3,0.3-0.3,0.6
					c0,0.2,0.2,0.4,0.5,0.4c7.9,0,15.2,0,21.4,0l-0.1,0.1c1.4-6.1,2.6-11.3,3.4-14.9c0.4-1.8,0.7-3.2,1-4.2c0.1-0.2,0.1-0.5,0.1-0.6
					c0-0.2-0.1-0.3-0.1-0.4C85.5,116.9,85.4,116.9,85.4,116.9z"/>
			</g>
		</g>
		<g>
			<rect x="42.2" y="137.2" class="st3" width="145.7" height="4.4"/>
			<g>
				<path class="st7" d="M187.9,141.7c0-0.1,0-1.4,0-4.4l0,0c-15.3,0-74.8,0-145.7,0.1h0l0.1-0.1c0,1.5,0,3,0,4.4l-0.1-0.1
					C123.2,141.6,187.1,141.7,187.9,141.7c-0.9,0-64.8,0-145.7,0.1h-0.1v-0.1c0-1.4,0-2.9,0-4.4v-0.1h0.1h0
					c70.9,0,130.4,0.1,145.7,0.1h0v0C187.9,140.2,187.9,141.5,187.9,141.7z"/>
			</g>
		</g>
		<g>
			<g>
				<rect x="141.2" y="134.5" class="st2" width="30.2" height="2.7"/>
				<g>
					<path class="st7" d="M171.3,137.2c0,0,0-0.1,0-0.2c0-0.1,0-0.3,0-0.5c0-0.5,0-1.1,0-2l0,0c-5,0-16.6,0.1-30.2,0.1l0,0l0,0l0,0
						l0,0l0,0l0.1-0.1c0,0.9,0,1.8,0,2.7l-0.1-0.1c8.4,0,16,0,21.4,0c2.7,0,4.9,0,6.4,0c0.8,0,1.3,0,1.7,0c0.2,0,0.3,0,0.5,0
						C171.3,137.2,171.3,137.2,171.3,137.2s0,0-0.1,0c-0.1,0-0.3,0-0.4,0c-0.4,0-1,0-1.7,0c-1.5,0-3.7,0-6.4,0c-5.4,0-13,0-21.5,0
						h-0.1v-0.1c0-0.9,0-1.8,0-2.7l0.1-0.1l0,0l0,0l0,0l0,0c13.5,0,25.1,0,30.2,0.1h0v0c0,0.9,0,1.6,0,2c0,0.2,0,0.4,0,0.5
						C171.3,137.1,171.3,137.2,171.3,137.2z"/>
				</g>
			</g>
			<g>
				<rect x="138.4" y="133" class="st2" width="29.8" height="1.5"/>
				<g>
					<path class="st7" d="M168.2,134.5C168.2,134.5,168.2,134.5,168.2,134.5c0-0.2,0-0.3,0-0.4c0-0.3,0-0.6,0-1.1l0,0
						c-3.8,0-15.7,0.1-29.8,0.1l0,0l0,0c0,0-0.1,0.1,0.1-0.1l0,0v0v0v0v0v0v0.1v0.2c0,0.1,0,0.3,0,0.4c0,0.3,0,0.5,0,0.7l-0.1-0.1
						c8.3,0,15.7,0,21.1,0c2.7,0,4.9,0,6.4,0c0.7,0,1.3,0,1.7,0c0.2,0,0.3,0,0.5,0C168.1,134.5,168.2,134.5,168.2,134.5s0,0-0.1,0
						c-0.1,0-0.3,0-0.4,0c-0.4,0-1,0-1.7,0c-1.5,0-3.7,0-6.3,0c-5.4,0-12.9,0-21.2,0h-0.1v-0.1c0-0.2,0-0.5,0-0.7c0-0.1,0-0.3,0-0.4
						v-0.2v-0.1v0v0v0v0v0l0,0c0.2-0.2,0,0,0.1-0.1l0,0l0,0c14.1,0,26,0,29.8,0.1h0v0c0,0.5,0,0.9,0,1.1
						C168.2,134.3,168.2,134.3,168.2,134.5C168.2,134.5,168.2,134.5,168.2,134.5z"/>
				</g>
			</g>
			<g>
				<path class="st7" d="M170.5,136.2c0,0-6.5,0.1-14.6,0.1c-8.1,0-14.6,0-14.6-0.1s6.5-0.1,14.6-0.1
					C163.9,136.1,170.5,136.2,170.5,136.2z"/>
			</g>
			<g>
				<path class="st7" d="M171.2,135.5c0,0-6.5,0.1-14.6,0.1c-8.1,0-14.6,0-14.6-0.1s6.5-0.1,14.6-0.1
					C164.7,135.4,171.2,135.4,171.2,135.5z"/>
			</g>
		</g>
		<g>
			<g>
				
					<rect x="100.1" y="119.2" transform="matrix(0.9974 -7.190085e-02 7.190085e-02 0.9974 -8.8577 7.563)" class="st3" width="1.1" height="15.3"/>
				<path class="st8" d="M100.1,129.8l1.5-0.1l0.4,4.9c0,0.4-0.3,0.8-0.7,0.8l0,0c-0.4,0-0.8-0.3-0.8-0.7L100.1,129.8z"/>
				
					<rect x="99.9" y="127.6" transform="matrix(0.9974 -7.190085e-02 7.190085e-02 0.9974 -9.1442 7.5309)" class="st8" width="0.3" height="6.4"/>
				<g>
					<path class="st7" d="M101.6,129.7c0,0-0.6,0.1-1.5,0.2l0.1-0.1c0,0.3,0.1,0.7,0.1,1.1c0.1,0.7,0.1,1.4,0.1,1.9
						c0,0.5,0,0.8,0,0.8c0,0-0.1-0.3-0.1-0.8c-0.1-0.5-0.1-1.1-0.2-1.9c0-0.4-0.1-0.8-0.1-1.1l0-0.1l0.1,0
						C101,129.7,101.6,129.7,101.6,129.7z"/>
				</g>
			</g>
			<g>
				<rect x="101.7" y="119.6" class="st3" width="1.1" height="11.9"/>
				<path class="st8" d="M103,124.2h-1.5v-4.9c0-0.4,0.3-0.8,0.8-0.8l0,0c0.4,0,0.8,0.3,0.8,0.8L103,124.2L103,124.2z"/>
				<rect x="103" y="120.1" class="st8" width="0.3" height="6.4"/>
				<g>
					<path class="st7" d="M101.5,124.2c0,0,0.6-0.1,1.5-0.1l-0.1,0.1c0-0.3,0-0.7,0-1.1c0-0.7,0-1.4,0-1.9c0-0.5,0-0.8,0.1-0.8
						s0,0.3,0.1,0.8c0,0.5,0,1.1,0,1.9c0,0.4,0,0.8,0,1.1v0.1H103C102.1,124.3,101.5,124.3,101.5,124.2z"/>
				</g>
			</g>
			<g>
				<rect x="103.9" y="122.4" class="st3" width="1.1" height="11.9"/>
				<path class="st8" d="M105.1,127h-1.5v-4.9c0-0.4,0.3-0.8,0.8-0.8l0,0c0.4,0,0.8,0.3,0.8,0.8L105.1,127L105.1,127z"/>
				<rect x="105.1" y="122.9" class="st8" width="0.3" height="6.4"/>
				<g>
					<path class="st7" d="M103.6,127c0,0,0.6-0.1,1.5-0.1l-0.1,0.1c0-0.3,0-0.7,0-1.1c0-0.7,0-1.4,0-1.9c0-0.5,0-0.8,0.1-0.8
						c0,0,0,0.3,0.1,0.8c0,0.5,0,1.1,0,1.9c0,0.4,0,0.8,0,1.1v0.1h-0.1C104.2,127.1,103.6,127.1,103.6,127z"/>
				</g>
			</g>
			<g>
				<rect x="105.9" y="119.1" class="st3" width="1.1" height="11.9"/>
				<path class="st8" d="M107.1,123.8h-1.5v-4.9c0-0.4,0.3-0.8,0.8-0.8l0,0c0.4,0,0.8,0.3,0.8,0.8L107.1,123.8L107.1,123.8z"/>
				<rect x="107.1" y="119.7" class="st8" width="0.3" height="6.4"/>
				<g>
					<path class="st7" d="M105.6,123.8c0,0,0.6-0.1,1.5-0.1l-0.1,0.1c0-0.3,0-0.7,0-1.1c0-0.7,0-1.4,0-1.9c0-0.5,0-0.8,0.1-0.8
						s0,0.3,0.1,0.8c0,0.5,0,1.1,0,1.9c0,0.4,0,0.8,0,1.1v0.1h-0.1C106.2,123.9,105.6,123.8,105.6,123.8z"/>
				</g>
			</g>
			<polygon class="st9" points="107.3,137.2 100.5,137.2 99.6,127.3 108.3,127.3 			"/>
		</g>
	</g>
</g>
</svg>
