<?xml version="1.0" encoding="utf-8"?>
<!-- Generator: Adobe Illustrator 25.4.1, SVG Export Plug-In . SVG Version: 6.00 Build 0)  -->
<svg version="1.1" id="Illustration" xmlns="http://www.w3.org/2000/svg" xmlns:xlink="http://www.w3.org/1999/xlink" x="0px"
	 y="0px" viewBox="0 0 225 150" style="enable-background:new 0 0 225 150;" xml:space="preserve">
<style type="text/css">
	.st0{fill:#F4F7FA;}
	.st1{fill:url(#SVGID_1_);}
	.st2{fill:url(#SVGID_00000029012289494711266430000003303971173461290139_);}
	.st3{fill:url(#SVGID_00000056385070153659887290000002289961684418744254_);}
	.st4{fill:url(#SVGID_00000122688192666573983510000002385764451955017131_);}
	.st5{fill:url(#SVGID_00000098936848662199773290000006140367782140699288_);}
	.st6{opacity:0.3;fill:url(#SVGID_00000125576207005242647920000018036917792594856088_);}
	.st7{fill:url(#SVGID_00000015356927740318297630000006694239134141807529_);}
	.st8{fill:url(#SVGID_00000033371457870930320210000017222871346647745935_);}
	.st9{opacity:0.3;fill:url(#SVGID_00000100367302157246308380000013798381747418376581_);}
	.st10{fill:url(#SVGID_00000142142689186254685960000000664045150501241988_);}
	.st11{opacity:0.3;fill:url(#SVGID_00000078737030614849642140000008364580814184917379_);}
	.st12{fill:url(#SVGID_00000119799625369964171160000000487351240816705923_);}
	.st13{fill:url(#SVGID_00000007420530578830795970000018438606514412146087_);}
	.st14{fill:url(#SVGID_00000060726985330583329940000010435120727422735541_);}
	.st15{fill:url(#SVGID_00000079461540783234843790000007943627100339974561_);}
	.st16{fill:url(#SVGID_00000083061969501650208180000004432209453182290838_);}
	.st17{fill:url(#SVGID_00000085954010527053525350000005818942771758336150_);}
	.st18{fill:url(#SVGID_00000137822178383223151410000007352848742106192567_);}
	.st19{fill:url(#SVGID_00000032643661833655087370000007567033110726598018_);}
	.st20{fill:url(#SVGID_00000152242007874893827530000006575769002605627060_);}
	.st21{clip-path:url(#SVGID_00000118367079783717771980000012617648777307803838_);}
	.st22{fill:#FCFDFE;}
	.st23{clip-path:url(#SVGID_00000172408841167155648060000014797297077044549762_);}
	.st24{clip-path:url(#SVGID_00000094611283402696168860000010388238809473601667_);}
	.st25{fill:#26264F;}
	.st26{fill:url(#SVGID_00000165950516795288031520000011222420127005516702_);}
	.st27{fill:url(#SVGID_00000103263903687293498440000005283182116680045194_);}
	.st28{opacity:0.35;fill:url(#SVGID_00000029748460105843243620000017414358461194873246_);}
	.st29{fill:#DE8BDF;}
	.st30{fill:url(#SVGID_00000084496789486724969870000004581276709034655629_);}
	.st31{fill:url(#SVGID_00000091734976596172908970000017982615901166569634_);}
	.st32{fill:#D8DEE8;}
	.st33{fill:url(#SVGID_00000129908835941459611000000001592887571463421827_);}
	.st34{fill:url(#SVGID_00000041285168378223292730000013332465869772798360_);}
	.st35{fill:url(#SVGID_00000005976859987288533680000016888350345193761670_);}
	.st36{opacity:0.8;}
	.st37{opacity:0.35;}
	.st38{fill:url(#SVGID_00000047054202880256790850000017570326071409671339_);}
	.st39{fill:url(#SVGID_00000073714008528982184050000013507321224903494323_);}
	.st40{opacity:0.3;}
	.st41{fill:url(#SVGID_00000064327708706730444350000009961596864597362865_);}
	.st42{fill:url(#SVGID_00000124144806146589277680000000656258005385715331_);}
	.st43{fill:url(#SVGID_00000023960535317287617150000009785568874677931654_);}
	.st44{fill:url(#SVGID_00000054239407457798745380000015026489850137021574_);}
	.st45{fill:url(#SVGID_00000114770827872616070190000011110709992839189395_);}
	.st46{fill:url(#SVGID_00000146480363764947752430000000090498054777380996_);}
	.st47{fill:#FFFFFF;}
	.st48{fill:url(#SVGID_00000107558173805869192670000002093866623171679152_);}
	.st49{fill:url(#SVGID_00000005946839177234415080000012536862744514406284_);}
	.st50{opacity:0.52;fill:url(#SVGID_00000127004496241241166920000014116412274074794651_);}
	.st51{fill:url(#SVGID_00000099640280016792424080000016598815906888321162_);}
	.st52{fill:url(#SVGID_00000023982322829111621240000002444304806844134287_);}
	.st53{fill:url(#SVGID_00000067948346279874271480000006650516885880464063_);}
	.st54{fill:url(#SVGID_00000009555451372582555500000000718305493553782961_);}
	.st55{fill:url(#SVGID_00000144329470660755073370000001495575311076627862_);}
</style>
<g>
	<path class="st0" d="M113.8,4.7C98.8,10.6,97.4,25.8,84,27.1c-11.7,1.1-16.2-9.9-24.4-7.9c-12.5,3-20.4,32.9-15.4,57.4
		c5.2,25.3,27,59,63.2,61.3c40.6,2.6,71.3-36.2,73.2-70.2c0.2-3.7,1.4-34.5-22.2-52.7C157.2,14.1,133.9-3.3,113.8,4.7z"/>
	<g>
		
			<linearGradient id="SVGID_1_" gradientUnits="userSpaceOnUse" x1="299.7306" y1="108.5899" x2="305.728" y2="108.5899" gradientTransform="matrix(0.9989 4.640000e-02 -4.640000e-02 0.9989 -136.7677 20.4303)">
			<stop  offset="0" style="stop-color:#444B8C"/>
			<stop  offset="0.9964" style="stop-color:#26264F"/>
		</linearGradient>
		<path class="st1" d="M162.6,139.9c1.1,0.9,1.1,1.5,1.1,1.8c-0.1,0.5-0.4,0.7-1.3,1.6c-1.2,1.2-1,1.4-1.6,1.8
			c-1.3,1-3.2,0.9-3.3,0.6c-0.1-0.2,0.8-0.4,1.7-1.5c0.9-1,1.2-2,1.3-2.3c0.1-0.5,0.2-1,0.2-1.3L162.6,139.9z"/>
		
			<linearGradient id="SVGID_00000105392319160996414910000002283244475416212353_" gradientUnits="userSpaceOnUse" x1="304.392" y1="101.417" x2="301.3793" y2="106.928" gradientTransform="matrix(0.9989 4.640000e-02 -4.640000e-02 0.9989 -136.7677 20.4303)">
			<stop  offset="0" style="stop-color:#FFC444"/>
			<stop  offset="0.9964" style="stop-color:#F36F56"/>
		</linearGradient>
		<path style="fill:url(#SVGID_00000105392319160996414910000002283244475416212353_);" d="M159,137.3l2.1,3.7
			c0.5,0.2,1,0.1,1.4-0.5l-0.8-4.5L159,137.3z"/>
		
			<linearGradient id="SVGID_00000034066679957852249470000016022034884530076318_" gradientUnits="userSpaceOnUse" x1="293.1525" y1="107.8334" x2="303.7588" y2="61.572" gradientTransform="matrix(0.9989 4.640000e-02 -4.640000e-02 0.9989 -136.7677 20.4303)">
			<stop  offset="0" style="stop-color:#311944"/>
			<stop  offset="1" style="stop-color:#6B3976"/>
		</linearGradient>
		<path style="fill:url(#SVGID_00000034066679957852249470000016022034884530076318_);" d="M156.4,90.4c-2,3.5-5.4,10.1-6,19.1
			c-0.7,8.9,1.6,15.7,2.5,18.2c1.8,4.7,4.8,9.7,6.6,12.1c1.2-0.5,1.9-1.3,3.1-1.8c-0.2-0.7-0.7-2.8-1.1-4.1c-0.3-1-0.8-2.8-0.9-3.2
			c-0.9-3.3-0.2-5.8-0.4-9.8c-0.3-4.8-1.4-4.2-1.2-7.1c0.2-4.3,2.7-5.3,5.4-11.4c1.9-4.2,3.9-8.7,2.1-11.1
			C164.2,88.2,157.2,90.1,156.4,90.4z"/>
		
			<linearGradient id="SVGID_00000132770398196121873200000014994180089449025164_" gradientUnits="userSpaceOnUse" x1="372.929" y1="145.2336" x2="381.182" y2="145.2336" gradientTransform="matrix(1 0 0 1 -209.1024 0)">
			<stop  offset="0" style="stop-color:#444B8C"/>
			<stop  offset="0.9964" style="stop-color:#26264F"/>
		</linearGradient>
		<path style="fill:url(#SVGID_00000132770398196121873200000014994180089449025164_);" d="M171.2,143.3c0.6,0.4,1,1.4,0.7,2
			c-0.3,0.6-1,0.4-2.8,1c-1.9,0.6-2.3,1.2-3.7,1.2c-0.6,0-1.6-0.1-1.7-0.5c-0.1-0.3,0.4-0.5,1.8-1.5c2-1.4,2-1.4,2.5-1.6
			C169.3,143.3,170.4,142.8,171.2,143.3z"/>
		
			<linearGradient id="SVGID_00000026162205781109691740000010860757533882052279_" gradientUnits="userSpaceOnUse" x1="377.4204" y1="144.8145" x2="380.6009" y2="138.2315" gradientTransform="matrix(1 0 0 1 -209.1024 0)">
			<stop  offset="0" style="stop-color:#FFC444"/>
			<stop  offset="0.9964" style="stop-color:#F36F56"/>
		</linearGradient>
		<path style="fill:url(#SVGID_00000026162205781109691740000010860757533882052279_);" d="M168.2,140.4l0.8,3.6
			c0.1,0.2,1.2,0.5,2,0l-0.3-3.6H168.2z"/>
		
			<linearGradient id="SVGID_00000073694380933070885850000003076841763497603730_" gradientUnits="userSpaceOnUse" x1="293.2994" y1="107.8671" x2="303.9057" y2="61.6057" gradientTransform="matrix(0.9989 4.640000e-02 -4.640000e-02 0.9989 -136.7677 20.4303)">
			<stop  offset="0" style="stop-color:#AA80F9"/>
			<stop  offset="0.9964" style="stop-color:#6165D7"/>
		</linearGradient>
		<path style="opacity:0.3;fill:url(#SVGID_00000073694380933070885850000003076841763497603730_);" d="M166.5,91.3
			c-2.3-3.1-9.3-1.1-10.1-0.9c-0.8,1.4-1.9,3.4-2.9,5.8c2.5-0.5,3.6,0,4.1,0.5c2,2.3-4.2,7.3-2.9,15c0.5,3,1.8,4.4,1.5,8
			c-0.2,2.7-1,4.1-1.6,6.1c-0.4,1.2-0.6,2.7-0.6,4.5c1.8,3.9,4.1,7.5,5.5,9.5c1.2-0.5,1.9-1.3,3.1-1.8c-0.2-0.7-0.7-2.8-1.1-4.1
			c-0.3-1-0.8-2.8-0.9-3.2c-0.9-3.3-0.2-5.8-0.4-9.8c-0.3-4.8-1.4-4.2-1.2-7.1c0.2-4.3,2.7-5.3,5.4-11.4
			C166.4,98.1,168.4,93.7,166.5,91.3z"/>
		
			<linearGradient id="SVGID_00000021824492685046447990000009590674189176069031_" gradientUnits="userSpaceOnUse" x1="372.5532" y1="121.7716" x2="391.2899" y2="92.2337" gradientTransform="matrix(1 0 0 1 -209.1024 0)">
			<stop  offset="0" style="stop-color:#311944"/>
			<stop  offset="1" style="stop-color:#6B3976"/>
		</linearGradient>
		<path style="fill:url(#SVGID_00000021824492685046447990000009590674189176069031_);" d="M161.9,92.2c-0.2,8,0.1,17.2,1.4,27.3
			c1.1,8.3,2.6,15.7,4.3,22.3c0.2,0.1,1.1,0.6,2.1,0.4c0.8-0.1,1.3-0.5,1.5-0.7c-0.2-1.3-0.4-3.4-0.2-5.8c0.3-4.2,1.3-5.1,1.7-9.4
			c0.4-3.8,0-6.9-0.2-8.4c-0.6-4.4-1.4-4.5-1.4-7.2c0-4.1,1.9-5.6,2.9-9.5c0.7-2.6,1.1-6.5-0.7-11.8
			C169.5,90.3,165.7,91.3,161.9,92.2z"/>
		
			<linearGradient id="SVGID_00000048479335209511539800000007456552811717849760_" gradientUnits="userSpaceOnUse" x1="-1645.9574" y1="72.3443" x2="-1631.0203" y2="72.3443" gradientTransform="matrix(-1 0 0 1 -1487.0925 0)">
			<stop  offset="0" style="stop-color:#AA80F9"/>
			<stop  offset="0.9964" style="stop-color:#6165D7"/>
		</linearGradient>
		<path style="fill:url(#SVGID_00000048479335209511539800000007456552811717849760_);" d="M158.9,60.5c-1.4,0-6.3,0.7-8.6,2.7
			c-9.3,8.2-6.4,16.9-3.4,19.8c2,2,6.9,1.4,8.5-1c1.2-1.7,0.3-3.8-0.1-6.8C154.8,72,156.6,66.6,158.9,60.5z"/>
		
			<linearGradient id="SVGID_00000122681860107249006720000001959826316027369116_" gradientUnits="userSpaceOnUse" x1="374.9668" y1="123.3026" x2="393.7035" y2="93.7647" gradientTransform="matrix(1 0 0 1 -209.1024 0)">
			<stop  offset="0" style="stop-color:#AA80F9"/>
			<stop  offset="0.9964" style="stop-color:#6165D7"/>
		</linearGradient>
		<path style="opacity:0.3;fill:url(#SVGID_00000122681860107249006720000001959826316027369116_);" d="M173.3,89.4
			c-1.1,0.3-2.2,0.6-3.3,0.8c0.6,2,1.1,5,0.5,8.4c-0.9,4.7-3.3,5.7-3.7,10c-0.3,3.8,1.5,4.6,2.4,9.7c0.9,5.2-0.5,7.7-0.7,12.1
			c-0.2,3,0.1,6.9,1.9,11.7c0.4-0.2,0.8-0.4,0.9-0.6c-0.2-1.3-0.4-3.4-0.2-5.8c0.3-4.2,1.3-5.1,1.7-9.4c0.4-3.8,0-6.9-0.2-8.4
			c-0.6-4.4-1.4-4.5-1.4-7.2c0-4.1,1.9-5.6,2.9-9.5C174.7,98.6,175,94.7,173.3,89.4z"/>
		
			<linearGradient id="SVGID_00000014629969320445197230000014250786391619387535_" gradientUnits="userSpaceOnUse" x1="-1644.2882" y1="65.5938" x2="-1660.5874" y2="107.4121" gradientTransform="matrix(-1 0 0 1 -1487.0925 0)">
			<stop  offset="0" style="stop-color:#AA80F9"/>
			<stop  offset="0.9964" style="stop-color:#6165D7"/>
		</linearGradient>
		<path style="fill:url(#SVGID_00000014629969320445197230000014250786391619387535_);" d="M155.5,62.6c0,0-1.7,1.5-2.6,3.7
			c-1.4,3.3,0.1,6.2,0.6,11.6c0.5,6-0.2,15.9-1.9,19.4c0,0.1-0.1,0.2-0.1,0.5c0.5,3.4,24.1,2.7,23.7-1.9c-0.4-5.2-3.4-9.3-3.3-21.3
			c0.1-5.1,1.2-9.2,2.2-12.1c-1.9-0.9-4.8-1.9-8.5-2.2c-2.7-0.3-5.1,0-6.9,0.3C158.3,60.7,156.9,61.3,155.5,62.6z"/>
		
			<linearGradient id="SVGID_00000133500341409319537070000012323294462768804489_" gradientUnits="userSpaceOnUse" x1="362.2532" y1="49.5165" x2="375.666" y2="97.0903" gradientTransform="matrix(1 0 0 1 -209.1024 0)">
			<stop  offset="0" style="stop-color:#AA80F9"/>
			<stop  offset="0.9964" style="stop-color:#6165D7"/>
		</linearGradient>
		<path style="opacity:0.3;fill:url(#SVGID_00000133500341409319537070000012323294462768804489_);" d="M168.6,75.7
			c-2.6,0.9-6,3.4-6.2,6.7c-0.4,5,7.1,7.8,6.1,11.3c-0.3,1-1.1,1.8-6.7,3.8c-2.3,0.8-4.4,1.5-6.3,2c6.8,1,20.8-0.5,19.7-3.7
			c-3.3-9.9-3.8-14.5-3.1-20.6C170.9,75.2,169.7,75.3,168.6,75.7z"/>
		
			<linearGradient id="SVGID_00000052089036652662093420000013809653866993122971_" gradientUnits="userSpaceOnUse" x1="-1653.4082" y1="65.5229" x2="-1667.8704" y2="102.6278" gradientTransform="matrix(-1 0 0 1 -1487.0925 0)">
			<stop  offset="0" style="stop-color:#AA80F9"/>
			<stop  offset="0.9964" style="stop-color:#6165D7"/>
		</linearGradient>
		<path style="fill:url(#SVGID_00000052089036652662093420000013809653866993122971_);" d="M160.5,86c4.2,4.3,10.2,5.6,14.8,3.5
			c6.4-3,9.2-11.1,7.7-16.3c-2.5-8.8-9.5-12.7-13-10.3c-2.5,1.7-8.1,6.7-5.1,10c2.6,2.9,6.7,2.2,7.8,5.2c0.8,2.2-0.8,4.5-0.9,4.7
			c-1.8,2.4-5.7,3.3-9.3,1.6C161.8,84.8,161.1,85.4,160.5,86z"/>
		
			<linearGradient id="SVGID_00000060737613579098338720000015617840604697602489_" gradientUnits="userSpaceOnUse" x1="363.7582" y1="83.0507" x2="364.0611" y2="74.9824" gradientTransform="matrix(1 0 0 1 -209.1024 0)">
			<stop  offset="0" style="stop-color:#FFC444"/>
			<stop  offset="0.9964" style="stop-color:#F36F56"/>
		</linearGradient>
		<path style="fill:url(#SVGID_00000060737613579098338720000015617840604697602489_);" d="M152.2,78.6c0.3-1.1,1.5-1.7,2.3-1.8
			c0.9-0.1,2.3,0.1,2.8,1.2c0.5,1,0.1,2.5-1.1,3.3c-0.2-0.4-0.5-1-1-1.1c-1-0.3-1.8,1-2.6,0.6C152.1,80.6,151.9,79.4,152.2,78.6z"/>
		
			<linearGradient id="SVGID_00000086667367303733343460000000181183998034893697_" gradientUnits="userSpaceOnUse" x1="360.3281" y1="72.3383" x2="369.0471" y2="85.9655" gradientTransform="matrix(1 0 0 1 -209.1024 0)">
			<stop  offset="0" style="stop-color:#444B8C"/>
			<stop  offset="0.9964" style="stop-color:#26264F"/>
		</linearGradient>
		<path style="fill:url(#SVGID_00000086667367303733343460000000181183998034893697_);" d="M156.2,85.3l3.2,0.6
			c0.6,0.1,1.2-0.4,1-1.1l-1.2-5.5c-0.1-0.4-0.4-0.7-0.8-0.7l-3.9-0.2c-0.6,0-1.1,0.6-0.9,1.2l1.8,5.1
			C155.6,85,155.9,85.2,156.2,85.3z"/>
		
			<linearGradient id="SVGID_00000124143012177846268030000005260716732707999889_" gradientUnits="userSpaceOnUse" x1="367.8236" y1="87.4079" x2="368.0808" y2="80.5579" gradientTransform="matrix(1 0 0 1 -209.1024 0)">
			<stop  offset="0" style="stop-color:#FFC444"/>
			<stop  offset="0.9964" style="stop-color:#F36F56"/>
		</linearGradient>
		<path style="fill:url(#SVGID_00000124143012177846268030000005260716732707999889_);" d="M161.8,84.8c-0.3-1.9-1.1-2.4-1.4-2.5
			c-0.5-0.2-0.7-0.1-2.4-0.1c-1.5,0-1.9-0.2-2.1,0.1c-0.4,0.5,0.4,1.8,1.2,2.5c1.2,1.1,2.7,1.2,3.3,1.2L161.8,84.8z"/>
		<g>
			
				<linearGradient id="SVGID_00000115509106418138147640000014699368121077391496_" gradientUnits="userSpaceOnUse" x1="-1216.1315" y1="205.4576" x2="-1215.6001" y2="191.3041" gradientTransform="matrix(-0.917 0.3988 0.3988 0.917 -1032.2057 362.2745)">
				<stop  offset="0" style="stop-color:#FFC444"/>
				<stop  offset="0.9964" style="stop-color:#F36F56"/>
			</linearGradient>
			<path style="fill:url(#SVGID_00000115509106418138147640000014699368121077391496_);" d="M162,55c0.2,2.9,1.1,4.5,1.8,4.8
				c0.7,0.3,1.2,0,2.7,0.6c0.4,0.2,0.5,0.5,0.4,0.7c-0.1,1.3-6.6,0.6-7.7,0.3c-0.1,0-0.9-0.2-0.9-0.3c-0.1-0.3,1.8-0.4,2.2-1.4
				c0.2-0.4,0.3-0.9-0.4-2C160.6,56.8,161.6,55.8,162,55z"/>
			<g>
				
					<linearGradient id="SVGID_00000018207176653630155310000012565940798066246071_" gradientUnits="userSpaceOnUse" x1="869.0978" y1="252.6466" x2="865.0792" y2="242.4401" gradientTransform="matrix(0.9998 -2.000000e-02 2.000000e-02 0.9998 -709.3873 -172.433)">
					<stop  offset="0" style="stop-color:#311944"/>
					<stop  offset="1" style="stop-color:#6B3976"/>
				</linearGradient>
				<path style="fill:url(#SVGID_00000018207176653630155310000012565940798066246071_);" d="M158.5,55.5c-0.5-0.7-0.6-1.8,0-2.6
					c0.5-0.6,1.3-0.8,1.7-0.8c1.4-0.2,3.1,0.3,3.7,1.6c0.4,0.7-0.4,2.3-0.5,2.6c-0.1,0.3-0.4,0.4-0.6,0.7c-0.3,0.3-0.8,0.9-1.6,1.8
					c-0.1-0.3-0.2-0.6-0.3-0.9c-0.1-0.1-0.3-0.6-0.7-1.1C159.6,55.9,159,56.1,158.5,55.5z"/>
				
					<linearGradient id="SVGID_00000097469222019147149910000010417856069359774868_" gradientUnits="userSpaceOnUse" x1="-2961.4744" y1="124.4664" x2="-2961.6592" y2="139.3561" gradientTransform="matrix(-0.9991 -4.120000e-02 -4.120000e-02 0.9991 -2792.762 -190.8775)">
					<stop  offset="0" style="stop-color:#FFC444"/>
					<stop  offset="0.9964" style="stop-color:#F36F56"/>
				</linearGradient>
				<path style="fill:url(#SVGID_00000097469222019147149910000010417856069359774868_);" d="M162.4,57.9c0,0-0.9,1.5-2.6,1.4
					c-1.6-0.1-1.9-3.6-0.9-4.4c0.3-0.3,1-0.4,1.6-0.2c0.3,0.1,0.4,0.2,1,0.3c0.5,0.1,0.6,0.1,0.8,0.2c0.2,0.2,0.3,0.5,0,1.6
					c0.3-0.3,0.7-0.4,0.9-0.3c0,0,0.2,0.1,0.2,0.2C163.6,57.1,163.3,57.6,162.4,57.9z"/>
				
					<linearGradient id="SVGID_00000048491529304343160310000004688225517084179598_" gradientUnits="userSpaceOnUse" x1="867.8704" y1="253.1357" x2="863.8475" y2="242.918" gradientTransform="matrix(0.9998 -2.000000e-02 2.000000e-02 0.9998 -709.3873 -172.433)">
					<stop  offset="0" style="stop-color:#311944"/>
					<stop  offset="1" style="stop-color:#6B3976"/>
				</linearGradient>
				<path style="fill:url(#SVGID_00000048491529304343160310000004688225517084179598_);" d="M162.3,55c-0.1,0.1,0.2,0.3,0.2,0.7
					c0.1,0.8-0.7,1.7-1.5,1.8c-0.5,0.1-0.6-0.2-1.4-0.3c-0.5,0-0.9,0-1.2,0.1c-0.2,0.9,0,1.7,0.6,2.1c0.6,0.4,1.4,0.1,1.7,0
					c0.2-0.1,0.9-0.3,1.3-1c0.4-0.7,0-1.1,0.4-1.6c0.2-0.2,0.5-0.3,0.8-0.8c0.1-0.1,0.1-0.2,0.2-0.3C162.9,55.5,162.4,54.9,162.3,55
					z"/>
				
					<linearGradient id="SVGID_00000065780591216494981040000005448930709388169093_" gradientUnits="userSpaceOnUse" x1="863.9333" y1="246.9794" x2="864.1425" y2="248.8442" gradientTransform="matrix(0.9998 -2.000000e-02 2.000000e-02 0.9998 -709.3873 -172.433)">
					<stop  offset="0" style="stop-color:#FFC444"/>
					<stop  offset="1" style="stop-color:#F36F56"/>
				</linearGradient>
				<path style="fill:url(#SVGID_00000065780591216494981040000005448930709388169093_);" d="M159,57.7c0,0,0.3,0.2,0.9,0.1
					c0,0,0.1,0,0.1,0c0,0.1-0.4,0.3-0.7,0.2c-0.3-0.1-0.5-0.3-0.4-0.4C158.8,57.7,158.9,57.7,159,57.7z"/>
			</g>
		</g>
	</g>
	<g>
		<g>
			<g>
				<g>
					<g>
						<defs>
							<path id="SVGID_00000105418600460678862790000013765518898018979485_" d="M61.5,128.3c-0.6,1.5-1.8,3.5-3,5.9h26.4
								c-4-7.4-9.3-15.1-5.2-29.7c1.9-6.8,7.9-19.2,3.7-26.2c-4.8-8-11.3-3.3-14-9.7c-4.3-10-14.2-15.9-22.9-9.4
								c-8.6,6.4-5.6,25,9.6,43.5C65.5,117.2,64.7,120.6,61.5,128.3z"/>
						</defs>
						
							<linearGradient id="SVGID_00000057128670027677840250000012171948690806151848_" gradientUnits="userSpaceOnUse" x1="96.3654" y1="150.2829" x2="21.2683" y2="20.4277">
							<stop  offset="0" style="stop-color:#AA80F9"/>
							<stop  offset="0.9964" style="stop-color:#6165D7"/>
						</linearGradient>
						
							<use xlink:href="#SVGID_00000105418600460678862790000013765518898018979485_"  style="overflow:visible;fill:url(#SVGID_00000057128670027677840250000012171948690806151848_);"/>
						<clipPath id="SVGID_00000023238813028840392820000007557403403434920364_">
							<use xlink:href="#SVGID_00000105418600460678862790000013765518898018979485_"  style="overflow:visible;"/>
						</clipPath>
						<g style="clip-path:url(#SVGID_00000023238813028840392820000007557403403434920364_);">
							<g>
								<path class="st22" d="M72.1,132.6c-0.3-3.4-0.8-6.6-1.3-10l-0.2-1.1c-0.3-1.6-0.6-3.2-0.9-4.8c-0.6-3.5-1.2-6.8-2.3-10.3
									c0-0.2-0.1-0.4-0.1-0.6c-0.1-0.8-0.2-1.5-0.8-2.2l0,0c-4.5-18.5-12.8-36.3-24.9-53l0.1-0.1c12,16.7,20.4,34.6,24.9,53.1
									c0.6,0.7,0.7,1.6,0.8,2.3c0,0.2,0.1,0.4,0.1,0.6c1.1,3.5,1.7,6.8,2.3,10.3c0.3,1.6,0.6,3.2,0.9,4.8l0.2,1.1
									c0.5,3.4,0.9,6.6,1.3,10L72.1,132.6z"/>
								<path class="st22" d="M69.5,116.1c-1.4-8.8,1.7-20,4.6-27.8c3.1-8.5,6.7-15,6.7-15l0.1,0.1c0,0.1-3.6,6.5-6.7,15
									c-2.9,7.8-6,19-4.6,27.8L69.5,116.1z"/>
								<path class="st22" d="M58,78.5c-2.1-9.3-2.1-19.5-2.1-22.8c0-0.6,0-1.1,0-1.1l0.2,0c0,0.1,0,0.4,0,1.2
									c0,3.4,0,13.6,2.1,22.8L58,78.5z"/>
								<path class="st22" d="M63.5,93c-4.3-7.6-21.9-12.4-22.1-12.4l0-0.1c0.2,0,17.8,4.8,22.2,12.5L63.5,93z"/>
							</g>
						</g>
					</g>
				</g>
				<g>
					<g>
						<defs>
							<path id="SVGID_00000162323822933093603200000014732416240029429382_" d="M63.7,108.9c0.1,12.1,6,8.1,11.4,9.3
								c6.2,9,6.8,17.3-2.5,24.6l-10.3-1.5c-3.8-0.2-8.3-1.4-8.1-6.5c0.3-5.8,1.7-9.5-4.9-12.3c-6.5-2.8-9.3-8-6.7-13.9
								c2.8-6.2-3.7-14.6,1-18.7C51.9,82.6,63.6,96.3,63.7,108.9z"/>
						</defs>
						
							<linearGradient id="SVGID_00000041288929352369335150000005557419135619825079_" gradientUnits="userSpaceOnUse" x1="46.5795" y1="97.8062" x2="85.8217" y2="162.409">
							<stop  offset="3.597120e-03" style="stop-color:#E38DDD"/>
							<stop  offset="1" style="stop-color:#9571F6"/>
						</linearGradient>
						
							<use xlink:href="#SVGID_00000162323822933093603200000014732416240029429382_"  style="overflow:visible;fill:url(#SVGID_00000041288929352369335150000005557419135619825079_);"/>
						<clipPath id="SVGID_00000164480999645690789630000013540923240640125870_">
							<use xlink:href="#SVGID_00000162323822933093603200000014732416240029429382_"  style="overflow:visible;"/>
						</clipPath>
						<g style="clip-path:url(#SVGID_00000164480999645690789630000013540923240640125870_);">
							<g>
								<path class="st22" d="M66.3,130.6c-4.3-4.7-8.1-10-11.1-15.6c-3.1-5.7-5.4-11.7-7-17.8c-0.9-3.5-1.5-7.1-1.9-10.7l0.2,0
									c0.3,3.5,1,7.1,1.9,10.6c1.6,6.1,3.9,12.1,7,17.8c3.1,5.6,6.8,10.9,11.1,15.6L66.3,130.6z"/>
								<path class="st22" d="M55.1,137.2l-0.1-0.1c1.9-1,4.2-1.7,6.7-2.3c1.2-0.3,2.4-0.4,3.6-0.5l0,0.2c-1.2,0.1-2.4,0.2-3.6,0.5
									C59.3,135.5,57,136.3,55.1,137.2z"/>
								<path class="st22" d="M57.2,118.4c-5.3-5.2-16.7-4.7-16.8-4.7l0-0.2c0.1,0,11.6-0.5,16.9,4.7L57.2,118.4z"/>
								<path class="st22" d="M50.6,105c-1.6-8.2,4.6-17.8,4.6-17.9l0.1,0.1c-0.1,0.1-6.2,9.6-4.6,17.7L50.6,105z"/>
							</g>
						</g>
					</g>
				</g>
				<g>
					<g>
						<defs>
							<path id="SVGID_00000023277627131521727550000016786609298595962555_" d="M117.8,95.6c-0.2,13.3-6.6,8.9-12.5,10.2
								c-6.8,9.9-7.5,19,2.7,27l11.4-1.7c4.2-0.2,9.2-1.5,8.9-7.1c-0.3-6.3-1.8-10.4,5.3-13.5c7.2-3.1,10.2-8.8,7.3-15.3
								c-3.1-6.8,4.1-16-1.1-20.5C130.8,66.7,118,81.7,117.8,95.6z"/>
						</defs>
						
							<linearGradient id="SVGID_00000124145442683812542990000001415532967694382506_" gradientUnits="userSpaceOnUse" x1="114.9095" y1="90.124" x2="144.5445" y2="138.9108">
							<stop  offset="3.597120e-03" style="stop-color:#E38DDD"/>
							<stop  offset="1" style="stop-color:#9571F6"/>
						</linearGradient>
						
							<use xlink:href="#SVGID_00000023277627131521727550000016786609298595962555_"  style="overflow:visible;fill:url(#SVGID_00000124145442683812542990000001415532967694382506_);"/>
						<clipPath id="SVGID_00000093897923406072800510000010264274242960006581_">
							<use xlink:href="#SVGID_00000023277627131521727550000016786609298595962555_"  style="overflow:visible;"/>
						</clipPath>
						<g style="clip-path:url(#SVGID_00000093897923406072800510000010264274242960006581_);">
							<g>
								<path class="st22" d="M115,119.4c4.7-5.2,8.9-11,12.2-17.1c3.4-6.2,6-12.8,7.7-19.6c1-3.9,1.7-7.8,2.1-11.7l-0.2,0
									c-0.4,3.9-1.1,7.8-2,11.7c-1.7,6.7-4.3,13.3-7.7,19.5c-3.4,6.2-7.5,11.9-12.2,17.1L115,119.4z"/>
								<path class="st22" d="M127.2,126.7l0.1-0.2c-2.1-1.1-4.6-1.9-7.4-2.5c-1.3-0.3-2.7-0.5-3.9-0.5l0,0.2
									c1.3,0.1,2.6,0.3,3.9,0.5C122.7,124.8,125.2,125.6,127.2,126.7z"/>
								<path class="st22" d="M125,106c5.9-5.7,18.4-5.2,18.5-5.1l0-0.2c-0.1,0-12.7-0.5-18.6,5.2L125,106z"/>
								<path class="st22" d="M132.3,91.2c1.8-9.1-5-19.5-5.1-19.6l-0.1,0.1c0.1,0.1,6.8,10.5,5.1,19.5L132.3,91.2z"/>
							</g>
						</g>
					</g>
				</g>
			</g>
		</g>
	</g>
	<g>
		<g>
			<g>
				<path class="st25" d="M119.9,12.1c4.8,41,9.7,81.5,14.5,121.6c0.2,1.8-1,3.4-2.8,3.5c-19.5,1.8-39,3.7-58.4,5.7
					c-3.5,0.2-5.4-1.8-5.6-3.7c-5-43.3-10-87.1-15-131.3c-0.2-2,1.5-3.7,4.9-3.5c19.6,1.4,39.2,2.8,58.7,4.1
					C118,8.7,119.7,10.3,119.9,12.1z"/>
				
					<linearGradient id="SVGID_00000010992635366836298300000015824432165326965653_" gradientUnits="userSpaceOnUse" x1="71.3172" y1="72.3547" x2="194.934" y2="67.6289" gradientTransform="matrix(1 0 0.1172 1.0028 -15.2887 1.223)">
					<stop  offset="0" style="stop-color:#444B8C"/>
					<stop  offset="0.9964" style="stop-color:#26264F"/>
				</linearGradient>
				<path style="fill:url(#SVGID_00000010992635366836298300000015824432165326965653_);" d="M122.6,12.1
					c4.9,41.1,9.8,81.9,14.6,122.1c0.2,1.8-1,3.4-2.8,3.6c-20.2,1.7-40.5,3.5-60.7,5.2c-1.8,0.2-3.5-1.3-3.8-3.3
					c-5-43.5-10-87.5-15.1-131.9c-0.2-2,1.1-3.5,3-3.4c20.4,1.4,40.7,2.7,61.1,4C120.7,8.6,122.4,10.2,122.6,12.1z"/>
				
					<linearGradient id="SVGID_00000120536675513974297620000010979983618505839769_" gradientUnits="userSpaceOnUse" x1="119.1038" y1="26.5956" x2="0.1654" y2="273.296">
					<stop  offset="0" style="stop-color:#FFC444"/>
					<stop  offset="0.9964" style="stop-color:#F36F56"/>
				</linearGradient>
				<path style="fill:url(#SVGID_00000120536675513974297620000010979983618505839769_);" d="M121.4,18.8
					c4.5,38.1,9,75.9,13.6,113.3c0.2,1.7-1,3.2-2.6,3.3c-19,1.6-38,3.1-57.1,4.8c-1.7,0.1-3.3-1.2-3.5-3
					c-4.6-40.2-9.3-80.7-13.9-121.7c-0.2-1.9,1-3.3,2.8-3.2c19.1,1.1,38.3,2.2,57.4,3.3C119.7,15.6,121.2,17.1,121.4,18.8z"/>
				
					<linearGradient id="SVGID_00000003790960067362023600000000744433301377349792_" gradientUnits="userSpaceOnUse" x1="119.5319" y1="26.8019" x2="0.5936" y2="273.5021">
					<stop  offset="0" style="stop-color:#FFC444"/>
					<stop  offset="0.9964" style="stop-color:#F36F56"/>
				</linearGradient>
				<path style="opacity:0.35;fill:url(#SVGID_00000003790960067362023600000000744433301377349792_);" d="M118,15.5
					c-18.9-1.1-37.8-2.2-56.7-3.3c0.6,3.4,1.6,7,3.3,10.8c6.3,13.6,15.5,14.4,19.1,26.2c3.7,12.2-4.7,16-0.6,27.1
					c4.4,12,15.3,10.2,21.1,23.4c5,11.3-1.4,16.5,3.7,23.4c5.6,7.5,16,5,26.8,7.5c-4.5-36.9-8.9-74.1-13.4-111.8
					C121.2,17.1,119.7,15.6,118,15.5z"/>
			</g>
			<path class="st29" d="M90.4,10.5c0.1,0.7-0.4,1.2-1,1.1c-0.6,0-1.2-0.6-1.3-1.3c-0.1-0.7,0.4-1.2,1-1.1
				C89.8,9.2,90.3,9.8,90.4,10.5z"/>
			
				<linearGradient id="SVGID_00000015337932865631895960000000607869630711535490_" gradientUnits="userSpaceOnUse" x1="92.8676" y1="42.1419" x2="101.6238" y2="42.1419">
				<stop  offset="0" style="stop-color:#FF9085"/>
				<stop  offset="1" style="stop-color:#FB6FBB"/>
			</linearGradient>
			
				<ellipse style="fill:url(#SVGID_00000015337932865631895960000000607869630711535490_);" cx="97.2" cy="42.1" rx="4.4" ry="5.2"/>
			
				<linearGradient id="SVGID_00000022541299701958727390000000940504463378414985_" gradientUnits="userSpaceOnUse" x1="110.2952" y1="42.1419" x2="119.0513" y2="42.1419">
				<stop  offset="0" style="stop-color:#FF9085"/>
				<stop  offset="1" style="stop-color:#FB6FBB"/>
			</linearGradient>
			
				<ellipse style="fill:url(#SVGID_00000022541299701958727390000000940504463378414985_);" cx="114.7" cy="42.1" rx="4.4" ry="5.2"/>
			<ellipse class="st32" cx="105.9" cy="42.1" rx="4.4" ry="5.2"/>
			
				<linearGradient id="SVGID_00000028318716843617261490000004862961590378230942_" gradientUnits="userSpaceOnUse" x1="127.7227" y1="42.1419" x2="136.4789" y2="42.1419">
				<stop  offset="0" style="stop-color:#FF9085"/>
				<stop  offset="1" style="stop-color:#FB6FBB"/>
			</linearGradient>
			
				<ellipse style="fill:url(#SVGID_00000028318716843617261490000004862961590378230942_);" cx="132.1" cy="42.1" rx="4.4" ry="5.2"/>
			<ellipse class="st32" cx="123.3" cy="42.1" rx="4.4" ry="5.2"/>
			<ellipse class="st32" cx="140.8" cy="42.1" rx="4.4" ry="5.2"/>
			<ellipse class="st32" cx="88.5" cy="42.1" rx="4.4" ry="5.2"/>
			
				<linearGradient id="SVGID_00000151521368515051026100000008889562277053717387_" gradientUnits="userSpaceOnUse" x1="56.9702" y1="27.2567" x2="154.2587" y2="27.2567">
				<stop  offset="0" style="stop-color:#FF9085"/>
				<stop  offset="1" style="stop-color:#FB6FBB"/>
			</linearGradient>
			<polygon style="fill:url(#SVGID_00000151521368515051026100000008889562277053717387_);" points="57,11.7 84.1,42.8 154.3,42.8 
				120.3,15.6 			"/>
			<g>
				<polygon class="st0" points="57,11.7 84.1,42.8 92.9,42.8 64.3,12.1 				"/>
				<polygon class="st0" points="72.1,12.6 101.6,42.8 110.3,42.8 80,13.1 				"/>
				<polygon class="st0" points="88,13.6 119,42.8 127.7,42.8 96,14.1 				"/>
				<polygon class="st0" points="112.2,15.1 104.1,14.6 136.4,42.8 145.2,42.8 				"/>
			</g>
			
				<linearGradient id="SVGID_00000101794016858598051100000014099302130339152311_" gradientUnits="userSpaceOnUse" x1="145.1951" y1="45.0742" x2="153.8616" y2="45.0742">
				<stop  offset="0" style="stop-color:#FF9085"/>
				<stop  offset="1" style="stop-color:#FB6FBB"/>
			</linearGradient>
			<path style="fill:url(#SVGID_00000101794016858598051100000014099302130339152311_);" d="M145.2,42.8c0.3,2.5,2.1,4.5,4.3,4.5
				s4-1.9,4.3-4.5H145.2z"/>
		</g>
		<g class="st36">
			<g class="st37">
				
					<linearGradient id="SVGID_00000151544695478394752410000014149823230177861269_" gradientUnits="userSpaceOnUse" x1="74.7512" y1="99.8388" x2="122.6669" y2="99.8388">
					<stop  offset="0" style="stop-color:#FFC444"/>
					<stop  offset="0.9964" style="stop-color:#F36F56"/>
				</linearGradient>
				<path style="fill:url(#SVGID_00000151544695478394752410000014149823230177861269_);" d="M122.7,103.3c0.1,1.2-0.8,2.2-1.9,2.2
					l-42.2,1.7c-1.2,0.1-2.4-0.9-2.5-2.1L74.8,96c-0.2-1.2,0.7-2.3,2-2.3l42.9-1.3c1.2,0,2.2,0.9,2.3,2.1L122.7,103.3z"/>
				
					<linearGradient id="SVGID_00000119099447756873103080000012081803948327707019_" gradientUnits="userSpaceOnUse" x1="77.1513" y1="113.4372" x2="123.4622" y2="113.4372">
					<stop  offset="0" style="stop-color:#FFC444"/>
					<stop  offset="0.9964" style="stop-color:#F36F56"/>
				</linearGradient>
				<path style="fill:url(#SVGID_00000119099447756873103080000012081803948327707019_);" d="M123.5,112.8c0.1,1.1-0.7,2.1-1.9,2.2
					L79.8,117c-1.2,0.1-2.4-0.9-2.5-2l-0.1-0.9c-0.2-1.2,0.7-2.2,1.9-2.3l42-1.9c1.1-0.1,2.2,0.8,2.3,2L123.5,112.8z"/>
			</g>
			<g class="st40">
				
					<linearGradient id="SVGID_00000093164611799563191000000013747444991588573617_" gradientUnits="userSpaceOnUse" x1="76.0604" y1="67.1977" x2="115.2818" y2="67.1977">
					<stop  offset="0" style="stop-color:#FFC444"/>
					<stop  offset="0.9964" style="stop-color:#F36F56"/>
				</linearGradient>
				<path style="fill:url(#SVGID_00000093164611799563191000000013747444991588573617_);" d="M114.4,69.2l-36.7,0.3
					c-0.6,0-1.2-0.5-1.3-1L76.1,66c-0.1-0.6,0.4-1,1-1l36.9,0c0.5,0,1,0.4,1.1,1l0.2,2.3C115.3,68.7,114.9,69.2,114.4,69.2z"/>
				
					<linearGradient id="SVGID_00000101079137941794325090000008815260656705129627_" gradientUnits="userSpaceOnUse" x1="79.2213" y1="76.7474" x2="113.1718" y2="76.7474">
					<stop  offset="0" style="stop-color:#FFC444"/>
					<stop  offset="0.9964" style="stop-color:#F36F56"/>
				</linearGradient>
				<path style="fill:url(#SVGID_00000101079137941794325090000008815260656705129627_);" d="M79.2,70.4l4.7,11.9
					c0.3,0.7,1.1,1.2,1.9,1.2l24-0.8c0.8,0,1.4-0.5,1.5-1.3l1.8-11.3L79.2,70.4z M89.8,81.4c0.1,0.5-0.3,0.9-0.8,0.9l-0.9,0
					c-0.5,0-0.9-0.4-1-0.8L86,72.3c-0.1-0.5,0.3-0.9,0.8-0.9l0.9,0c0.5,0,1,0.4,1,0.8L89.8,81.4z M94.5,81.3
					c0.1,0.5-0.3,0.8-0.8,0.9l-0.8,0c-0.5,0-0.9-0.3-1-0.8l-1-9.1c-0.1-0.5,0.3-0.9,0.8-0.9l0.9,0c0.5,0,0.9,0.4,1,0.8L94.5,81.3z
					 M99.2,81.2c0,0.5-0.3,0.8-0.8,0.9l-0.8,0c-0.5,0-0.9-0.3-1-0.8l-1-9c-0.1-0.5,0.3-0.9,0.8-0.9l0.8,0c0.5,0,0.9,0.4,1,0.8
					L99.2,81.2z M103.8,81c0,0.5-0.3,0.8-0.8,0.8l-0.8,0c-0.5,0-0.9-0.3-0.9-0.8l-0.9-9c0-0.5,0.3-0.8,0.8-0.9l0.8,0
					c0.5,0,0.9,0.4,1,0.8L103.8,81z M108.3,80.9c0,0.4-0.3,0.8-0.8,0.8l-0.8,0c-0.5,0-0.9-0.3-0.9-0.8l-0.9-8.9
					c0-0.5,0.3-0.8,0.8-0.8l0.8,0c0.5,0,0.9,0.4,0.9,0.8L108.3,80.9z"/>
				<g>
					<g>
						
							<linearGradient id="SVGID_00000089570160408421042360000005669366635444028071_" gradientUnits="userSpaceOnUse" x1="80.2204" y1="62.7032" x2="83.0087" y2="62.7032">
							<stop  offset="0" style="stop-color:#FFC444"/>
							<stop  offset="0.9964" style="stop-color:#F36F56"/>
						</linearGradient>
						<path style="fill:url(#SVGID_00000089570160408421042360000005669366635444028071_);" d="M82.6,63.7c-0.5,0.5-1.4,0.4-2-0.1
							c-0.6-0.5-0.6-1.4-0.1-1.8c0.5-0.5,1.4-0.4,2,0.1C83.1,62.4,83.2,63.2,82.6,63.7z"/>
						
							<linearGradient id="SVGID_00000116937511867895828700000007970976401411236027_" gradientUnits="userSpaceOnUse" x1="81.4767" y1="57.364" x2="93.5168" y2="57.364">
							<stop  offset="0" style="stop-color:#FFC444"/>
							<stop  offset="0.9964" style="stop-color:#F36F56"/>
						</linearGradient>
						<path style="fill:url(#SVGID_00000116937511867895828700000007970976401411236027_);" d="M93.4,52c-0.2-0.2-0.6-0.2-0.9,0
							l-10.8,9.8c-0.3,0.2-0.3,0.6-0.1,0.8c0.2,0.2,0.6,0.2,0.9-0.1l10.8-9.8C93.6,52.6,93.6,52.2,93.4,52z"/>
					</g>
					<g>
						
							<linearGradient id="SVGID_00000173125883272207616090000007417297822644264360_" gradientUnits="userSpaceOnUse" x1="108.2466" y1="62.8129" x2="110.7631" y2="62.8129">
							<stop  offset="0" style="stop-color:#FFC444"/>
							<stop  offset="0.9964" style="stop-color:#F36F56"/>
						</linearGradient>
						<path style="fill:url(#SVGID_00000173125883272207616090000007417297822644264360_);" d="M108.8,63.7c0.6,0.5,1.3,0.4,1.8-0.1
							c0.4-0.5,0.3-1.3-0.3-1.7c-0.6-0.5-1.4-0.4-1.8,0.1C108.1,62.5,108.2,63.3,108.8,63.7z"/>
						
							<linearGradient id="SVGID_00000033339662369982590200000015424792469685933498_" gradientUnits="userSpaceOnUse" x1="96.0561" y1="57.4542" x2="109.5792" y2="57.4542">
							<stop  offset="0" style="stop-color:#FFC444"/>
							<stop  offset="0.9964" style="stop-color:#F36F56"/>
						</linearGradient>
						<path style="fill:url(#SVGID_00000033339662369982590200000015424792469685933498_);" d="M96.1,52.1c0.2-0.2,0.6-0.2,0.9,0.1
							l12.3,9.8c0.3,0.2,0.4,0.6,0.2,0.8c-0.2,0.2-0.5,0.2-0.8-0.1l-12.3-9.8C96.1,52.7,96,52.3,96.1,52.1z"/>
					</g>
				</g>
			</g>
			<g>
				<path class="st47" d="M123.4,102.6c0.1,1.2-0.8,2.2-1.9,2.2l-42.2,1.7c-1.2,0.1-2.4-0.9-2.5-2.1l-1.2-9.1
					c-0.2-1.2,0.7-2.3,2-2.3l42.9-1.3c1.2,0,2.2,0.9,2.3,2.1L123.4,102.6z"/>
				<path class="st47" d="M124.2,112c0.1,1.1-0.7,2.1-1.9,2.2l-41.8,2.1c-1.2,0.1-2.4-0.9-2.5-2l-0.1-0.9c-0.2-1.2,0.7-2.2,1.9-2.3
					l42-1.9c1.1-0.1,2.2,0.8,2.3,2L124.2,112z"/>
			</g>
			<g>
				<path class="st47" d="M114.9,68.7L78.1,69c-0.6,0-1.2-0.5-1.3-1l-0.3-2.5c-0.1-0.6,0.4-1,1-1l36.9,0c0.5,0,1,0.4,1.1,1l0.2,2.3
					C115.8,68.2,115.4,68.7,114.9,68.7z"/>
				<path class="st47" d="M79.7,69.9l4.7,11.9c0.3,0.7,1.1,1.2,1.9,1.2l24-0.8c0.8,0,1.4-0.5,1.5-1.3l1.8-11.3L79.7,69.9z
					 M90.3,80.9c0.1,0.5-0.3,0.9-0.8,0.9l-0.9,0c-0.5,0-0.9-0.4-1-0.8l-1.1-9.2c-0.1-0.5,0.3-0.9,0.8-0.9l0.9,0c0.5,0,1,0.4,1,0.8
					L90.3,80.9z M95,80.8c0.1,0.5-0.3,0.8-0.8,0.9l-0.8,0c-0.5,0-0.9-0.3-1-0.8l-1-9.1c-0.1-0.5,0.3-0.9,0.8-0.9l0.9,0
					c0.5,0,0.9,0.4,1,0.8L95,80.8z M99.7,80.7c0,0.5-0.3,0.8-0.8,0.9l-0.8,0c-0.5,0-0.9-0.3-1-0.8l-1-9c-0.1-0.5,0.3-0.9,0.8-0.9
					l0.8,0c0.5,0,0.9,0.4,1,0.8L99.7,80.7z M104.3,80.5c0,0.5-0.3,0.8-0.8,0.8l-0.8,0c-0.5,0-0.9-0.3-0.9-0.8l-0.9-9
					c0-0.5,0.3-0.8,0.8-0.9l0.8,0c0.5,0,0.9,0.4,1,0.8L104.3,80.5z M108.8,80.4c0,0.4-0.3,0.8-0.8,0.8l-0.8,0
					c-0.5,0-0.9-0.3-0.9-0.8l-0.9-8.9c0-0.5,0.3-0.8,0.8-0.8l0.8,0c0.5,0,0.9,0.4,0.9,0.8L108.8,80.4z"/>
				<g>
					<g>
						<path class="st47" d="M83.1,63.2c-0.5,0.5-1.4,0.4-2-0.1c-0.6-0.5-0.6-1.4-0.1-1.8c0.5-0.5,1.4-0.4,2,0.1
							C83.6,61.9,83.7,62.7,83.1,63.2z"/>
						<path class="st47" d="M93.9,51.5c-0.2-0.2-0.6-0.2-0.9,0l-10.8,9.8c-0.3,0.2-0.3,0.6-0.1,0.8c0.2,0.2,0.6,0.2,0.9-0.1
							l10.8-9.8C94,52.1,94.1,51.8,93.9,51.5z"/>
					</g>
					<g>
						<path class="st47" d="M109.3,63.3c0.6,0.5,1.3,0.4,1.8-0.1c0.4-0.5,0.3-1.3-0.3-1.7c-0.6-0.5-1.4-0.4-1.8,0.1
							C108.6,62,108.7,62.8,109.3,63.3z"/>
						<path class="st47" d="M96.6,51.6c0.2-0.2,0.6-0.2,0.9,0.1l12.3,9.8c0.3,0.2,0.4,0.6,0.2,0.8c-0.2,0.2-0.5,0.2-0.8-0.1
							l-12.3-9.8C96.6,52.2,96.5,51.8,96.6,51.6z"/>
					</g>
				</g>
			</g>
		</g>
	</g>
	<g>
		
			<linearGradient id="SVGID_00000091731775303194768420000010222771041448629950_" gradientUnits="userSpaceOnUse" x1="58.5567" y1="109.8023" x2="61.6895" y2="110.9659">
			<stop  offset="0" style="stop-color:#AB316D"/>
			<stop  offset="1" style="stop-color:#792D3D"/>
		</linearGradient>
		<path style="fill:url(#SVGID_00000091731775303194768420000010222771041448629950_);" d="M75.3,118.5c-0.2,0-0.3-0.1-0.4-0.3
			c-0.3-3.3-1.4-6.4-3-8.8c-1.4-2.1-3.2-3.4-4.6-3.4c0,0,0,0,0,0c-5.2,0-6.3,12.1-6.4,12.2c0,0.2-0.2,0.3-0.4,0.3
			c-0.2,0-0.3-0.2-0.3-0.4c0-0.5,1.2-12.8,7.1-12.8c0,0,0,0,0,0c1.7,0,3.6,1.3,5.2,3.7c1.7,2.5,2.8,5.7,3.1,9.1
			C75.7,118.3,75.5,118.5,75.3,118.5C75.3,118.5,75.3,118.5,75.3,118.5z"/>
		
			<linearGradient id="SVGID_00000124869031084687973020000012598479336056167614_" gradientUnits="userSpaceOnUse" x1="49.7817" y1="120.569" x2="58.5084" y2="135.2029">
			<stop  offset="0" style="stop-color:#FF9085"/>
			<stop  offset="1" style="stop-color:#FB6FBB"/>
		</linearGradient>
		<path style="fill:url(#SVGID_00000124869031084687973020000012598479336056167614_);" d="M53.4,143.3l6.9,3.5l4.2-12.8l-6.9-17.2
			l-2,0.5l-3,24.7C52.7,142.5,52.9,143,53.4,143.3z"/>
		
			<linearGradient id="SVGID_00000148663446706173712130000006174468719037010062_" gradientUnits="userSpaceOnUse" x1="51.131" y1="119.7644" x2="59.8576" y2="134.3983">
			<stop  offset="0" style="stop-color:#FF9085"/>
			<stop  offset="1" style="stop-color:#FB6FBB"/>
		</linearGradient>
		<path style="opacity:0.52;fill:url(#SVGID_00000148663446706173712130000006174468719037010062_);" d="M64.5,134l-6.9-17.2
			l-1.2,0.3c-0.2,2.3-0.1,4.2,0,5.6c0.5,5.9,2,7.5,1.3,11.6c-0.6,3.4-2,3.9-1.8,6.1c0.1,2.5,1.9,4.6,3.9,6.2l0.5,0.3L64.5,134z"/>
		
			<linearGradient id="SVGID_00000058553802984392321580000003870070931449764280_" gradientUnits="userSpaceOnUse" x1="64.9732" y1="126.4642" x2="89.542" y2="145.3942">
			<stop  offset="0" style="stop-color:#FF9085"/>
			<stop  offset="1" style="stop-color:#FB6FBB"/>
		</linearGradient>
		<polygon style="fill:url(#SVGID_00000058553802984392321580000003870070931449764280_);" points="57.6,116.8 83.4,116.8 
			91.9,144.3 60.3,146.8 		"/>
		
			<linearGradient id="SVGID_00000060748060952720109010000005918648442064181686_" gradientUnits="userSpaceOnUse" x1="69.8009" y1="104.4032" x2="72.3072" y2="120.3805">
			<stop  offset="0" style="stop-color:#AB316D"/>
			<stop  offset="1" style="stop-color:#792D3D"/>
		</linearGradient>
		<path style="fill:url(#SVGID_00000060748060952720109010000005918648442064181686_);" d="M65.6,119.1c-0.2,0-0.3-0.1-0.3-0.3
			c-0.1-0.3-1.8-7.7,0.6-11.3c0.7-1,1.6-1.7,2.8-1.9c6.2-1.1,10,12.2,10.1,12.7c0.1,0.2-0.1,0.4-0.2,0.4c-0.2,0.1-0.4-0.1-0.4-0.2
			c0-0.1-3.8-13.2-9.3-12.2c-1,0.2-1.8,0.7-2.4,1.6c-2.2,3.4-0.5,10.7-0.5,10.7C66,118.9,65.9,119.1,65.6,119.1
			C65.7,119.1,65.6,119.1,65.6,119.1z"/>
		<g class="st40">
			
				<linearGradient id="SVGID_00000025436911488038579200000004303379331339304580_" gradientUnits="userSpaceOnUse" x1="65.2908" y1="126.0519" x2="89.8596" y2="144.982">
				<stop  offset="0" style="stop-color:#FF9085"/>
				<stop  offset="1" style="stop-color:#FB6FBB"/>
			</linearGradient>
			<path style="fill:url(#SVGID_00000025436911488038579200000004303379331339304580_);" d="M83.4,116.8H70.6
				c-0.6,0.6-1.1,1.4-1.1,2.2c-0.2,3.9,8.7,5.2,9.6,10.5c0.6,3.8-3.2,8.3-6.6,10.3c-3.6,2.1-6,1-8.5,3.3c-1.1,1-1.7,2.3-2.1,3.6
				l30-2.4L83.4,116.8z"/>
		</g>
		
			<linearGradient id="SVGID_00000135653839372191693870000014807241012350558115_" gradientUnits="userSpaceOnUse" x1="64.266" y1="118.6615" x2="64.6693" y2="118.8113">
			<stop  offset="0" style="stop-color:#AB316D"/>
			<stop  offset="1" style="stop-color:#792D3D"/>
		</linearGradient>
		<circle style="fill:url(#SVGID_00000135653839372191693870000014807241012350558115_);" cx="65.6" cy="119.2" r="1"/>
		
			<linearGradient id="SVGID_00000034812383116398627730000002306365351368726932_" gradientUnits="userSpaceOnUse" x1="77.315" y1="118.5687" x2="77.7183" y2="118.7185">
			<stop  offset="0" style="stop-color:#AB316D"/>
			<stop  offset="1" style="stop-color:#792D3D"/>
		</linearGradient>
		<circle style="fill:url(#SVGID_00000034812383116398627730000002306365351368726932_);" cx="78.7" cy="119.1" r="1"/>
	</g>
</g>
</svg>
