<?xml version="1.0" encoding="utf-8"?>
<!-- Generator: Adobe Illustrator 25.4.1, SVG Export Plug-In . SVG Version: 6.00 Build 0)  -->
<svg version="1.1" id="OBJECTS" xmlns="http://www.w3.org/2000/svg" xmlns:xlink="http://www.w3.org/1999/xlink" x="0px" y="0px"
	 viewBox="0 0 225 150" style="enable-background:new 0 0 225 150;" xml:space="preserve">
<style type="text/css">
	.st0{fill:#72AB76;}
	.st1{fill:none;stroke:#A5CF8F;stroke-miterlimit:10;}
	.st2{fill:#A5CF8F;}
	.st3{fill:none;stroke:#72AB76;stroke-miterlimit:10;}
	.st4{fill:#E2E2E2;}
	.st5{fill:#263C8F;}
	.st6{fill:#FCFCFC;}
	.st7{fill:#D9D9D9;}
	.st8{fill:none;stroke:#28478F;stroke-width:3;stroke-miterlimit:10;}
	.st9{fill:none;stroke:#FCFCFC;stroke-width:3;stroke-miterlimit:10;}
	.st10{fill:#EF7F1A;}
	.st11{fill:#E0AB67;}
	.st12{fill:#FFDA78;}
	.st13{fill:#FFE68A;}
	.st14{fill:#FFFFA6;}
	.st15{fill:#052669;}
	.st16{font-family:'Montserrat-Bold';}
	.st17{font-size:20.0496px;}
	.st18{font-size:6.7427px;}
	.st19{fill:#FAD282;}
	.st20{fill:#FAC0AC;}
	.st21{fill:#191919;}
	.st22{fill:#6B6B6B;}
	.st23{fill:#28478F;}
	.st24{fill:#E69E96;}
	.st25{opacity:0.16;fill:#6C467A;enable-background:new    ;}
	.st26{fill:#EDEDED;}
	.st27{fill:none;stroke:#191919;stroke-width:0.5;stroke-linecap:round;stroke-miterlimit:10;}
	.st28{fill:none;stroke:#28478F;stroke-width:0.5;stroke-linecap:round;stroke-miterlimit:10;}
</style>
<g>
	<g>
		<g>
			<path class="st0" d="M149.5,118.4c0,0,6.9,4.6,11.1,0.8c4.2-3.8-0.2-6.5,3.7-11.1c3.9-4.5,9.8-4.1,10.6-9.9
				c0.9-5.8-4.7-4.3,0.1-10.3c4.8-6,2.4-23.3-4.4-21.6c-6.9,1.7-4.3,17.6-6,19.6c-1.7,2-6.1,0.6-6.7,4.8c-0.6,4.2,2.1,9.5-1.1,12.1
				C153.7,105.5,147.6,111.6,149.5,118.4z"/>
		</g>
		<path class="st1" d="M144.7,121.6c0,0,22.1-12.8,28.9-44.4"/>
	</g>
	<g>
		<g>
			<path class="st0" d="M146.9,127c0,0,0.3,4.9,3.5,5.6c3.3,0.7,3-2.4,6.6-2.2c3.6,0.3,5.4,3.2,8.5,1.6c3.1-1.6,0.4-3.8,5-3.6
				c4.6,0.2,12-7.1,8.8-9.8c-3.2-2.7-10,4.2-11.5,4.1c-1.6-0.1-2.4-2.7-4.7-1.5c-2.2,1.2-3.8,4.4-6.2,3.8S149.4,123.6,146.9,127z"/>
		</g>
		<path class="st1" d="M145.5,126.2c0,0,13.1,4.4,30.7-4.9"/>
	</g>
	<g>
		<g>
			<g>
				<path class="st2" d="M148.5,126.1c0,0,4.2,5.1,8.3,3.3c4.1-1.9,1.4-5.1,5.4-7.6c4.1-2.5,8.4-0.8,10.5-5s-2.6-4.4,2.5-7.8
					c5.1-3.4,7.4-17.2,1.7-17.5c-5.6-0.3-7.4,12.4-9.2,13.5c-1.8,1.1-4.8-1-6.2,2.1c-1.4,3.1-0.7,7.7-3.7,9
					C154.7,117.3,148.7,120.5,148.5,126.1z"/>
			</g>
			<path class="st3" d="M146.1,126.2c0,0,17.9-5.6,29.6-29.5"/>
		</g>
		<path class="st0" d="M158.6,124.6c1.7-3.7,6.3-6.1,9.7-6.9c3.3-0.9,3-2.6,3.3-6.1c0.3-3.4,7.8-10.2,8.2-10.6
			c-0.8,3.3-2.4,6.5-4.5,7.9c-5.1,3.4-0.5,3.6-2.5,7.8c-2,4.2-6.4,2.5-10.5,5s-1.3,5.7-5.4,7.6c-2.3,1.1-4.6-0.1-6.2-1.3
			c0,0,0,0,0,0S156.9,128.2,158.6,124.6z"/>
	</g>
	<g>
		<g>
			<path class="st0" d="M102.6,118.4c0,0-6.9,4.6-11.1,0.8c-4.2-3.8,0.2-6.5-3.7-11.1c-3.9-4.5-9.8-4.1-10.6-9.9s4.7-4.3-0.1-10.3
				c-4.8-6-2.4-23.3,4.4-21.6c6.9,1.7,4.3,17.6,6,19.6c1.7,2,6.1,0.6,6.7,4.8c0.6,4.2-2.1,9.5,1.1,12.1
				C98.5,105.5,104.6,111.6,102.6,118.4z"/>
		</g>
		<path class="st1" d="M107.5,121.6c0,0-22.1-12.8-28.9-44.4"/>
	</g>
	<g>
		<g>
			<path class="st0" d="M105.3,127c0,0-0.3,4.9-3.5,5.6c-3.3,0.7-3-2.4-6.6-2.2c-3.6,0.3-5.4,3.2-8.5,1.6c-3.1-1.6-0.4-3.8-5-3.6
				c-4.6,0.2-12-7.1-8.8-9.8c3.2-2.7,10,4.2,11.5,4.1c1.6-0.1,2.4-2.7,4.7-1.5c2.2,1.2,3.8,4.4,6.2,3.8
				C97.7,124.4,102.8,123.6,105.3,127z"/>
		</g>
		<path class="st1" d="M106.7,126.2c0,0-13.1,4.4-30.7-4.9"/>
	</g>
	<g>
		<g>
			<g>
				<path class="st2" d="M103.7,126.1c0,0-4.2,5.1-8.3,3.3c-4.1-1.9-1.4-5.1-5.4-7.6c-4.1-2.5-8.4-0.8-10.5-5s2.6-4.4-2.5-7.8
					c-5.1-3.4-7.4-17.2-1.7-17.5c5.6-0.3,7.4,12.4,9.2,13.5c1.8,1.1,4.8-1,6.2,2.1c1.4,3.1,0.7,7.7,3.7,9
					C97.5,117.3,103.5,120.5,103.7,126.1z"/>
			</g>
			<path class="st3" d="M106.1,126.2c0,0-17.9-5.6-29.6-29.5"/>
		</g>
		<path class="st0" d="M93.6,124.6c-1.7-3.7-6.3-6.1-9.7-6.9c-3.3-0.9-3-2.6-3.3-6.1c-0.3-3.4-7.8-10.2-8.2-10.6
			c0.8,3.3,2.4,6.5,4.5,7.9c5.1,3.4,0.5,3.6,2.5,7.8c2,4.2,6.4,2.5,10.5,5c4.1,2.5,1.3,5.7,5.4,7.6c2.3,1.1,4.6-0.1,6.2-1.3
			c0,0,0,0,0,0S95.3,128.2,93.6,124.6z"/>
	</g>
	<g>
		<ellipse class="st4" cx="125.8" cy="135.3" rx="44.3" ry="2.7"/>
		<g>
			<path class="st5" d="M166.4,135.1H85.3c-1.2,0-2.1-0.9-2.1-2.1V12.2c0-1.2,0.9-2.1,2.1-2.1h81.1c1.2,0,2.1,0.9,2.1,2.1v120.7
				C168.5,134.1,167.6,135.1,166.4,135.1z"/>
			<rect x="87.2" y="14.5" class="st6" width="76.6" height="120.6"/>
			<g>
				<rect x="108.5" y="61.8" class="st7" width="45.3" height="1.9"/>
				<rect x="108.5" y="69.3" class="st7" width="45.3" height="1.9"/>
				<rect x="108.5" y="76.9" class="st7" width="45.3" height="1.9"/>
				<rect x="108.5" y="84.5" class="st7" width="45.3" height="1.9"/>
				<rect x="108.5" y="92" class="st7" width="45.3" height="1.9"/>
				<rect x="108.5" y="99.6" class="st7" width="45.3" height="1.9"/>
				<rect x="118.9" y="108.1" class="st7" width="34.9" height="1.9"/>
				<rect x="118.9" y="115.7" class="st7" width="34.9" height="1.9"/>
				<rect x="118.9" y="122.9" class="st7" width="34.9" height="1.9"/>
				<g>
					<path class="st7" d="M103.9,71.2h-8.6c-0.3,0-0.5-0.2-0.5-0.5v-8.6c0-0.3,0.2-0.5,0.5-0.5h8.6c0.3,0,0.5,0.2,0.5,0.5v8.6
						C104.5,71,104.2,71.2,103.9,71.2z"/>
					<polyline class="st8" points="96.7,66.2 99.1,68.3 102.6,64.6 					"/>
				</g>
				<g>
					<path class="st7" d="M103.9,86.4h-8.6c-0.3,0-0.5-0.2-0.5-0.5v-8.6c0-0.3,0.2-0.5,0.5-0.5h8.6c0.3,0,0.5,0.2,0.5,0.5v8.6
						C104.5,86.1,104.2,86.4,103.9,86.4z"/>
					<polyline class="st9" points="96.7,81.3 99.1,83.5 102.6,79.8 					"/>
				</g>
				<g>
					<path class="st7" d="M103.9,101.5h-8.6c-0.3,0-0.5-0.2-0.5-0.5v-8.6c0-0.3,0.2-0.5,0.5-0.5h8.6c0.3,0,0.5,0.2,0.5,0.5v8.6
						C104.5,101.2,104.2,101.5,103.9,101.5z"/>
					<polyline class="st9" points="96.7,96.4 99.1,98.6 102.6,94.9 					"/>
				</g>
			</g>
			<g>
				<g>
					<polygon class="st10" points="99.6,132.2 97.7,129.4 94.4,130 99.4,118.2 104.7,120.4 					"/>
					<path class="st11" d="M96.4,125.2c0.1,0.1,0.2,0.3,0.3,0.4c0.6,0.5,1.6,0.3,2.4,0.7c0.7,0.3,1.3,1.2,2.1,1.3
						c0.2,0,0.3,0,0.5-0.1l3-7l-5.3-2.3L96.4,125.2z"/>
					<polygon class="st10" points="106.1,132.2 108,129.4 111.4,130 106.3,118.2 101.1,120.4 					"/>
					<path class="st11" d="M109.3,125.2c-0.1,0.1-0.2,0.3-0.3,0.4c-0.6,0.5-1.6,0.3-2.4,0.7c-0.7,0.3-1.3,1.2-2.1,1.3
						c-0.2,0-0.3,0-0.5-0.1l-3-7l5.3-2.3L109.3,125.2z"/>
					<path class="st10" d="M112.8,117.4c0,1-1,1.8-1.3,2.7c-0.3,0.9,0,2.2-0.5,2.9c-0.6,0.8-1.8,0.9-2.6,1.4
						c-0.8,0.6-1.2,1.8-2.2,2.1c-0.9,0.3-2-0.4-3-0.4s-2.1,0.7-3,0.4c-0.9-0.3-1.4-1.5-2.2-2.1c-0.8-0.6-2.1-0.6-2.6-1.4
						c-0.6-0.8-0.2-2-0.5-2.9c-0.3-0.9-1.3-1.7-1.3-2.7c0-1,1-1.8,1.3-2.7c0.3-0.9,0-2.2,0.5-2.9c0.6-0.8,1.8-0.9,2.6-1.4
						c0.8-0.6,1.2-1.8,2.2-2.1c0.9-0.3,2,0.4,3,0.4s2.1-0.7,3-0.4c0.9,0.3,1.4,1.5,2.2,2.1c0.8,0.6,2.1,0.6,2.6,1.4
						c0.6,0.8,0.2,2,0.5,2.9C111.8,115.6,112.8,116.4,112.8,117.4z"/>
					<ellipse class="st11" cx="102.8" cy="117.7" rx="6.7" ry="6.7"/>
					<circle class="st12" cx="103.3" cy="117.4" r="6.7"/>
					<ellipse class="st13" cx="103.5" cy="117" rx="6.1" ry="6.1"/>
					<path class="st14" d="M105.9,115.6c0,0.7-0.5,1.2-1.2,1.2s-1.2-0.5-1.2-1.2c0-0.7,0.5-1.2,1.2-1.2
						C105.4,114.4,105.9,115,105.9,115.6z"/>
					<g>
						<path class="st12" d="M102.8,108.7c0.1,0,0.2,0,0.2,0c-0.8-0.1-1.7-0.5-2.5-0.4C101.3,108.3,102.1,108.7,102.8,108.7z"/>
						<path class="st12" d="M102.8,126.1c-0.7,0-1.5,0.4-2.2,0.5c0.8,0.1,1.6-0.4,2.5-0.4C103,126.1,102.9,126.1,102.8,126.1z"/>
						<path class="st12" d="M111.5,114.7c-0.3-0.9,0-2.2-0.5-2.9c-0.6-0.8-1.8-0.9-2.6-1.4c-0.8-0.6-1.2-1.8-2.2-2.1
							c-0.2-0.1-0.5-0.1-0.7-0.1c0.1,0,0.2,0,0.3,0.1c0.9,0.3,1.4,1.5,2.2,2.1c0.8,0.6,2.1,0.6,2.6,1.4c0.6,0.8,0.2,2,0.5,2.9
							c0.3,0.9,1.3,1.7,1.3,2.7c0,1-1,1.8-1.3,2.7c-0.3,0.9,0,2.2-0.5,2.9c-0.6,0.8-1.8,0.9-2.6,1.4c-0.8,0.6-1.2,1.8-2.2,2.1
							c-0.1,0-0.2,0-0.3,0.1c0.3,0,0.5,0,0.7-0.1c0.9-0.3,1.4-1.5,2.2-2.1c0.8-0.6,2.1-0.6,2.6-1.4c0.6-0.8,0.2-2,0.5-2.9
							c0.3-0.9,1.3-1.7,1.3-2.7C112.8,116.4,111.8,115.6,111.5,114.7z"/>
					</g>
				</g>
			</g>
			<text transform="matrix(1 0 0 1 108.2435 40.5713)" class="st15 st16 st17">ISO</text>
			<text transform="matrix(1 0 0 1 101.6824 50.148)" class="st15 st16 st18">CERTIFICATION</text>
			<g>
				<path class="st10" d="M140.2,9.4h-5.1c-1-4.1-4.7-7.1-9.1-7.1c-4.4,0-8.1,3-9.1,7.1h-5.1c-0.4,0-0.7,0.3-0.7,0.7v4.6
					c0,0.4,0.3,0.7,0.7,0.7h28.4c0.4,0,0.7-0.3,0.7-0.7v-4.6C140.9,9.8,140.6,9.4,140.2,9.4z M124.2,7.8c0-0.9,0.8-1.7,1.7-1.7
					s1.7,0.8,1.7,1.7c0,0.9-0.7,1.6-1.6,1.7h-0.2C124.9,9.4,124.2,8.7,124.2,7.8z"/>
				<path class="st19" d="M138.6,14.4H124c-0.3,0-0.5-0.2-0.5-0.5v-0.4c0-0.3,0.2-0.5,0.5-0.5h14.6c0.3,0,0.5,0.2,0.5,0.5v0.4
					C139.1,14.2,138.9,14.4,138.6,14.4z"/>
				<g>
					<path class="st11" d="M126.3,2.3c-0.1,0-0.2,0-0.3,0c-4.4,0-8.1,3-9.1,7.1h0.7C118.5,5.4,122,2.5,126.3,2.3z"/>
					<path class="st11" d="M127.6,7.8c0,0.8-0.6,1.5-1.4,1.6c0.1,0,0.1,0,0.2,0h0.2c0.9-0.1,1.6-0.8,1.6-1.7c0-0.9-0.8-1.7-1.7-1.7
						c-0.1,0-0.2,0-0.3,0C127,6.3,127.6,6.9,127.6,7.8z"/>
					<path class="st11" d="M111.7,14.8v-4.6c0-0.4,0.3-0.7,0.7-0.7h-0.7c-0.4,0-0.7,0.3-0.7,0.7v4.6c0,0.4,0.3,0.7,0.7,0.7h0.7
						C112,15.5,111.7,15.2,111.7,14.8z"/>
				</g>
				<g>
					<path class="st19" d="M125.6,6.1c-0.1,0-0.2,0-0.3,0c-0.9,0-1.7,0.8-1.7,1.7c0,0.9,0.7,1.6,1.6,1.7h0.2c0.1,0,0.1,0,0.2,0
						c-0.8-0.2-1.4-0.8-1.4-1.6C124.2,6.9,124.8,6.2,125.6,6.1z"/>
					<path class="st19" d="M134.4,9.4h0.6c-1-4.1-4.7-7.1-9.1-7.1c-0.1,0-0.2,0-0.3,0C129.9,2.5,133.5,5.4,134.4,9.4z"/>
					<path class="st19" d="M140.2,9.4h-0.6c0.4,0,0.7,0.3,0.7,0.7v4.6c0,0.4-0.3,0.7-0.7,0.7h0.6c0.4,0,0.7-0.3,0.7-0.7v-4.6
						C140.9,9.8,140.6,9.4,140.2,9.4z"/>
				</g>
			</g>
		</g>
		<polygon class="st7" points="163.7,14.5 163.7,135 160.2,135 		"/>
	</g>
	<g>
		<path class="st4" d="M159.8,145c0,1.5-6,2.7-13.4,2.7c-7.4,0-13.4-1.2-13.4-2.7c0-1.5,6-2.7,13.4-2.7
			C153.8,142.3,159.8,143.5,159.8,145z"/>
		<g>
			<g>
				<g>
					<g>
						<g>
							<path class="st20" d="M155.2,73.4c1.7,1.6,3,2.9,3.6,3.6c0.2,0.2,0.3,0.6,0.3,0.9c-0.5,2.5-4.7,9-6.2,11.3l-2.4-1.5
								c0,0,3.8-8.2,3.6-9.1c0,0-0.9-0.6-2.2-1.6"/>
							<path class="st10" d="M151.4,77.4c-1.6-1.2-3.5-3.6-5.6-5.8c-1.1-1.2-1.5-2.8-1.3-4.1c0.2-1.4,2.3-1,2.3-1
								c2.3,1.8,6,4.7,8.4,6.9"/>
						</g>
					</g>
				</g>
			</g>
		</g>
		<polygon class="st21" points="138,88.8 138,118.8 140.9,144.1 144.4,143.9 144.2,118.6 152,87.2 		"/>
		<polygon class="st21" points="145,89.5 149.3,120.5 156.6,144.2 158.6,142 154.9,119.8 153.5,94.9 153.1,90.1 		"/>
		<path class="st22" d="M140.9,143.1c-0.3,0-3.4,1.6-5.1,2.5c-0.4,0.2-0.3,0.7,0.1,0.8l4.2,0.5l1.4-0.3c0.3-0.1,0.7,0,1,0.2l0.5,0.3
			c0.1,0.1,0.2,0.1,0.4,0.1l0.6,0c0.3,0,0.6-0.3,0.6-0.6l-0.2-4L140.9,143.1z"/>
		<path class="st22" d="M158.6,141.9c-0.4,0-5,1.1-6.9,1.5c-0.2,0.1-0.3,0.4,0,0.5l2.9,1.2l1.1,0c0.4,0,0.8,0.3,0.9,0.6l0,0
			c0,0.1,0.1,0.1,0.2,0.2l0.3,0.2c0.1,0.1,0.2,0.1,0.4,0.1l1.3-0.2c0.4,0,0.6-0.4,0.6-0.7L158.6,141.9z"/>
		<g>
			<g>
				<polygon class="st23" points="107.7,61.9 114,57.4 116,59.3 109.6,64 				"/>
				<g>
					<polygon class="st20" points="107.4,62.3 106.4,64.8 109.1,64.2 					"/>
					<path class="st23" d="M110.2,62.7c0.1,0.7-0.4,1.4-1.3,1.6c-0.8,0.1-1.6-0.4-1.7-1.1c-0.1-0.7,0.4-1.4,1.3-1.6
						C109.3,61.4,110.1,61.9,110.2,62.7z"/>
					<path class="st20" d="M116.5,58.1c0.1,0.7-0.4,1.4-1.3,1.6c-0.8,0.1-1.6-0.4-1.7-1.1c-0.1-0.7,0.4-1.4,1.3-1.6
						C115.6,56.9,116.4,57.4,116.5,58.1z"/>
					<path class="st23" d="M115.6,58.2c0,0.3-0.2,0.5-0.5,0.6c-0.3,0-0.6-0.1-0.6-0.4c0-0.3,0.2-0.5,0.5-0.6
						C115.3,57.7,115.6,57.9,115.6,58.2z"/>
				</g>
				<path class="st23" d="M106.7,64.2l-0.3,0.6l0.7-0.2C106.9,64.5,106.8,64.4,106.7,64.2z"/>
			</g>
			<path class="st20" d="M113.2,60.9c-0.3,0.1-0.7,0-0.9-0.3c-0.8-0.9-1.3-1.9-1.8-1.7c-0.5,0.3-0.2,0.5-0.7,0.9
				c-0.1,0.1-0.6,0-0.7,0.4c-0.1,0.4-0.1,0.7-0.4,1c-0.3,0.3-0.1,1.1,0,1.4c0.1,0.2,0.4,0.6,0.6,0.8c0.7,0.7,1.7,1.4,2.4,1.6
				c0.9,0.4,1.7-0.6,2.3-1.5c0.4-0.7,0.1-2.7,0.1-2.7C113.7,60.8,113.5,60.9,113.2,60.9z"/>
			<polygon class="st20" points="110.6,58.9 112,58.8 111.2,59.4 			"/>
		</g>
		<path class="st20" d="M132.8,59.6l-0.7,1.7c0,0.2,0,0.3,0.2,0.4l0.7,0.2L132.8,59.6z"/>
		<path class="st10" d="M124.6,74.1l10.8,2.5c1.2,0.2,0.7-8.7,0.7-8.7l-5.7,0.7l-4.3-0.2"/>
		<path class="st20" d="M136.2,67.8C136.2,67.8,136.2,67.8,136.2,67.8c0.6-0.3,0.2-4.8-0.5-5.9l3.8-6.9c0,0,0.3,4.4,1.4,8.6
			c0.4,1.4,1.7,2.4,2.2,2.5"/>
		<path class="st24" d="M137.9,63.9l0.5-2.8c0,0-0.9,1.9-0.9,2c0,0.1-1,1-1.2,1.1c0.1,0.9,0.2,2.2,0.2,2.9L137.9,63.9z"/>
		<path class="st20" d="M133.4,64.5c0,0.3,0.3,0.5,0.5,0.5c3.1,0.3,7.3-4.9,6.9-8.1c-0.2-1.6-2-2.1-3.6-2.2
			c-2.5-0.3-4.4-0.3-4.6,4.2C132.6,59,133.4,64.5,133.4,64.5z"/>
		<path class="st21" d="M132.9,56.6l-0.4-0.6c-0.8-1.3,0.3-3,1.8-2.8c4,0.7,7.5,1.8,7.4,3.7c-0.1,5.2-0.8,6.6-0.8,6.6
			s-2.2,1.2-2.8-3.2c-1.8,1.4-2.6-3-2.6-3C135.6,56.7,133.9,56.8,132.9,56.6z"/>
		<g>
			<path class="st20" d="M138.7,60.8c-0.2,0.6-0.8,1-1.3,0.8c-0.5-0.2-0.7-0.8-0.4-1.4c0.2-0.6,0.8-1,1.3-0.8
				C138.7,59.5,138.9,60.2,138.7,60.8z"/>
		</g>
		<polygon class="st20" points="126,68.4 122.5,67.8 113,62.6 110.4,64 121.8,72.6 124.8,73.4 		"/>
		<path class="st10" d="M133.1,73.9c-0.1-2.6-1.1-4.9-0.6-5.1c0,0,3.4-1.4,3.9-1.7c0,0,4.7-0.4,5.5-1.7c0,0,4.7,0.7,4.8,1.1
			c2.6,5.6,2.3,7.1,2.3,7.1l1.8,7.8l2.5,8.7c-1.7,1.1-11,3.6-15.4,3.4c0,0-0.7-8.4-1-9.7C137,83.8,133.2,76.2,133.1,73.9z"/>
	</g>
	<g>
		<path class="st25" d="M70.8,144.5c0,1-5.4,1.9-12.1,2c-6.7,0-12.1-0.8-12.2-1.8c0-1,5.4-1.9,12.1-2
			C65.3,142.6,70.8,143.4,70.8,144.5z"/>
		<path class="st20" d="M66.6,78.6c0,0,0.4,5.5,0.3,7.1c0,0,1.2,17-1.1,11.9l-0.4-1.6c0,0-1.7-3.5-0.7-9.4l-1-7L66.6,78.6z"/>
		<path class="st20" d="M62.7,82.4c0,0,3.1,23.8,3.6,33.3c0.1,1.1-0.6,2.6-1.1,3.6l-0.3,1.6c-0.1,1.5-1,6.4-1.3,8l-2,9.7l2,3.6
			l-1.6,0.7l-3.3-3.6c0,0,0.8-1.5,0.4-7.5c-0.4-5.8-1.3-10.9-0.2-13.3c1.8-3.8,0.3-8-0.5-10.3c-1.9-5.6-10.2-15.7-3.1-25.9
			L62.7,82.4z"/>
		<path class="st20" d="M60.8,68.7c-1.7-0.7-1.3-1.5-1.3-2.2c0.1-2.2-0.6-4.3,0.1-5.8l-3.3-1.5c0,0,0.5,1.6-0.4,7
			c-0.2,1.2-2.4,2.6-2.6,2.7c-1.3,0.7,0.9,8.2,7.5,4.5c0,0,0.1,0,0.1,0C62.2,72.5,62.1,69.2,60.8,68.7z"/>
		<path class="st24" d="M59.6,65.9c0-0.5,0.1-0.6,0.1-1.1c-1.7-0.3-3-1.7-3.6-2c0,0.2,0.1,1.5,0.1,1.6c0.6,0.9,1.6,2.2,3.4,2.4
			C59.5,66.8,59.6,66,59.6,65.9z"/>
		<path class="st21" d="M66.1,143.4c-1.5-0.5-2.3-1-2.5-1.4c0.1,0.3-1.5,0.2-2.8-0.5c0,0-1.7-2.5-2.1-2.2c-0.8,3.1-0.3,1.2,0.5,5.5
			l0.7,0l0.2-0.9c0,0,0.8,0,2.1,0.9c1.3,1,5.5,0.2,5.5,0.2C68.6,144.5,67.8,143.9,66.1,143.4z"/>
		<path class="st20" d="M62.9,85.6c0,0-2,23.6-2.2,31.3l-1.2,4c-0.2,1.5-1.6,8.3-2,9.9l-2.6,9.2l1.5,3.6l-1.7,0.6l-2.4-4.4
			c0,0,0.4,0,0.5-5.2c0.1-5.8-0.4-10.4,0.8-12.6c1.9-3.7,0-10.1-0.7-12.5c-1.7-5.7-2.8-17.3,0.5-22.9L62.9,85.6z"/>
		<path class="st21" d="M58.7,145.4c-1.4-0.8-2-1.5-2.2-1.9c0,0.3-1.5-0.2-2.6-1.1c0,0-1.2-2.8-1.5-2.6c-1.4,2.9-0.3,1.8-0.5,6.3
			l0.9-0.1l0-1.4c0,0,0.8,0.2,1.9,1.4c1.1,1.2,5.3,1.4,5.3,1.4C60.9,147,60.2,146.2,58.7,145.4z"/>
		<path class="st10" d="M66.2,76.8c-0.3-0.5-1.1-3.8-1.5-5.5c-0.1-0.6-0.6-1.7-2-1.9c-0.7-0.1-1.4-0.6-2-0.9l0,0
			c-0.3,0.9-3,1.4-4.7,0.4l-1.6-1.1c-2.2,1.5-2,1.2-2.5,1.6c-2.5,2.1-2.6,2.4-0.6,7.7l1.5,2.9c0.4,3.3-1.1,14-1.1,14
			c6.9,3.2,12.4,0.5,13.6-5.6l-0.4-6.6C66.3,81,67.6,79,66.2,76.8z"/>
		<path class="st20" d="M61.4,57.3c0,0,0.5,0.7,0.4,2.3c0,0.4,0.3,2.5,0.3,2.5c0.1,2.5-1.5,4.1-2.1,4.1c-1.4,0-2.6-0.8-3.3-1.5
			c-1.2-1.3-1.7-6.5-0.3-7.6C58.6,55.4,60.8,56.4,61.4,57.3z"/>
		<path class="st21" d="M52.1,88.6c0,0-2.9,9.4,0.4,28.4c0,0,3.7,2.8,14.9-0.3c0,0,2.2-22.3-1.9-28.4C65.5,88.4,62,89.8,52.1,88.6z"
			/>
		<path class="st26" d="M60.2,92.6l-10.6-4c-0.1,0-0.2-0.2-0.1-0.3l5.4-14.3c0-0.1,0.2-0.2,0.3-0.1l10.6,4c0.1,0,0.2,0.2,0.1,0.3
			l-5.4,14.3C60.4,92.6,60.3,92.6,60.2,92.6z"/>
		<path class="st20" d="M56.4,85.9c0,0,0.9-1,1.5-1c0.6,0,1.7-0.1,1.8,0.1c0.2,0.3-0.7,0.5-1.5,0.6L56.4,85.9z"/>
		<g>
			<path class="st20" d="M57.4,85.3c0,0,2.3,0.5,2.6,0.6c0.5,0.2,0.3,0.7,0,0.9c-0.2,0.1,0.2,0.5-0.3,0.8c-0.3,0.2,0,0.3-0.2,0.6
				c-0.2,0.2-0.6,0.1-0.6,0.4c-0.1,0.5-0.6,0.3-0.9,0.3c-0.3,0-1.6-0.3-2.4-1.3C54.5,86.4,57.4,85.3,57.4,85.3z"/>
		</g>
		<g>
			<g>
				<g>
					<g>
						<path class="st20" d="M46.1,79.4c-1.1,2.7-1.7,3.5-1.2,4.8c0.5,1.4,12.9,4.6,14.5,4l0.5-1.5c0,0-0.5-0.4-1.6-0.6
							c-2.6-0.4-6-3.8-8.6-4.4c0,0,0.4-0.3,1.5-1.9"/>
						<path class="st10" d="M50.3,81.3c1.3-2.3,3.6-5.5,4-7.5c1.4-6.3-3.3-4.8-4.3-2.1c-1.3,3.2-3.4,6-4.1,7.8L50.3,81.3z"/>
					</g>
				</g>
			</g>
		</g>
		<polyline class="st27" points="63.6,71.7 64.5,74.6 65.8,76.2 		"/>
		<path class="st20" d="M61.6,59.9c0,0,0.5,1.2,1.4,2.1c0.3,0.3-0.7,1.1-1,1.1C61,63.1,61.6,59.9,61.6,59.9z"/>
		<path class="st20" d="M59.2,85.8c0,0,1.3,0.2,1.4,0.2s1.1-0.1,1.2-0.1c0.3,0,0.1,0.6-0.5,0.6c-0.7,0.1-1,0.3-1.6,0.2
			C59.1,86.7,59.2,85.8,59.2,85.8z"/>
		<path class="st20" d="M58.7,86.7c0,0,1.9,0.1,2,0.1c0.1,0,1.3-0.2,1.5-0.3c0.3,0,0.2,0.5-0.6,0.7c-0.8,0.2-1.5,0.4-2.1,0.4
			C58.6,87.5,58.7,86.7,58.7,86.7z"/>
		<path class="st21" d="M54.9,57.3c0.5-1,0.3-2.3-0.5-3c-1.2-1.1-3.5-0.7-4.1,0.8c-0.5,1.1,0,2.6,1.1,3.2
			C52.6,59,54.2,58.5,54.9,57.3z"/>
		<path class="st21" d="M56.9,61.3c0,0,0.4-1.2,0-2.8c0,0,2-2.1,4.4-1.4c0,0-3.9-3-6.3-0.5c-2.5,2.5-1.9,6,1.2,7.7L56.9,61.3z"/>
		<path class="st20" d="M55.5,62.8c0.4,0.6,1.1,0.8,1.5,0.5c0.4-0.3,0.4-1.1,0-1.7c-0.4-0.6-1.1-0.8-1.5-0.5
			C55.1,61.4,55.1,62.2,55.5,62.8z"/>
		<path class="st28" d="M58.6,125.6l1-3.2c0,0,1.9-1.7,1.4-4.4"/>
		<line class="st27" x1="52.1" y1="78.5" x2="53.2" y2="75.7"/>
	</g>
</g>
</svg>
