<?xml version="1.0" encoding="utf-8"?>
<!-- Generator: Adobe Illustrator 25.4.1, SVG Export Plug-In . SVG Version: 6.00 Build 0)  -->
<svg version="1.1" id="Layer_1" xmlns="http://www.w3.org/2000/svg" xmlns:xlink="http://www.w3.org/1999/xlink" x="0px" y="0px"
	 viewBox="0 0 225 150" style="enable-background:new 0 0 225 150;" xml:space="preserve">
<style type="text/css">
	.st0{fill:#C9C9C9;}
	.st1{fill:#FEE3CA;}
	.st2{fill:#F2CCAB;}
	.st3{fill:#EF7F1A;}
	.st4{fill:#2A3454;}
	.st5{fill:#FFFFFF;}
	.st6{fill:#CAE4FE;}
	.st7{fill:#61ADFF;}
	.st8{fill:#0074E6;}
	.st9{fill:#0095F3;}
	.st10{fill:#445179;}
	.st11{opacity:0.2;enable-background:new    ;}
	.st12{fill:#17162F;}
	.st13{opacity:0.3;fill:#FFFFFF;enable-background:new    ;}
	.st14{fill:#FDA993;}
	.st15{fill:#FD8B6B;}
	.st16{fill:#0B0B0C;}
	.st17{fill:#FF8C2E;}
	.st18{fill:#D65E48;}
	.st19{fill:#005DD6;}
	.st20{fill:#E66700;}
	.st21{fill:#F36200;}
	.st22{fill:#FFA961;}
	.st23{fill:#0245CA;}
	.st24{fill:#FBA791;}
	.st25{fill:#FEFDFF;}
	.st26{fill:#2A355C;}
	.st27{opacity:0.5;fill:#FFFFFF;enable-background:new    ;}
</style>
<g>
	<g id="OBJECTS">
		<g>
			<g>
				<ellipse class="st0" cx="115.8" cy="142.2" rx="80.2" ry="5.1"/>
			</g>
		</g>
		<g>
			<path class="st1" d="M106.8,13.5c0,0.4-0.2,0.8-0.5,1.1c-0.3,0.3-0.7,0.5-1.1,0.5H71.4c-0.9,0-1.6-0.7-1.6-1.6
				c0-0.4,0.2-0.8,0.5-1.1c0.3-0.3,0.7-0.5,1.1-0.5H73c0.6-1.5,2.1-2.5,3.8-2.5c1.1,0,2.2,0.5,2.9,1.2c1-1.7,2.8-2.8,4.9-2.8
				c0.6,0,1.1,0.1,1.7,0.2c1.1-2.1,3.3-3.5,5.8-3.5c3,0,5.5,2,6.3,4.8C99,9.1,99.6,9,100.2,9c1.9,0,3.5,1.3,4,3h1
				C106.1,12,106.8,12.7,106.8,13.5z"/>
			<path class="st1" d="M140.6,20.6c0,0.4-0.2,0.7-0.4,1s-0.6,0.4-1,0.4h-29.5c-0.8,0-1.4-0.6-1.4-1.4c0-0.4,0.2-0.7,0.4-1
				s0.6-0.4,1-0.4h1.4c0.6-1.3,1.8-2.2,3.3-2.2c1,0,1.9,0.4,2.6,1.1c0.9-1.5,2.5-2.5,4.3-2.5c0.5,0,1,0.1,1.5,0.2c1-1.8,2.9-3,5.1-3
				c2.6,0,4.8,1.8,5.5,4.2c0.5-0.2,1-0.4,1.6-0.4c1.6,0,3,1.1,3.5,2.6h0.9C139.9,19.2,140.6,19.8,140.6,20.6z"/>
		</g>
		<g>
			<g>
				<path class="st2" d="M170.6,100.7l0.8,0.2l0.4,0.1l1.2,0.3c0,0,15.8-15.9,10.5-23.7c-1.6-2.4-5.8-1.8-7.2,7
					C175,92.6,170.6,100.7,170.6,100.7z"/>
				<g>
					<path class="st3" d="M171.4,100.8l0.4,0.1c3.1-4,5.3-8.7,6.7-11.9c1.6-3.9,2.4-6.8,2.4-6.9c0-0.1,0-0.2-0.1-0.2
						c-0.1,0-0.2,0-0.2,0.1c0,0-0.8,2.9-2.4,6.8C176.7,92.1,174.5,96.8,171.4,100.8z"/>
				</g>
			</g>
			<g>
				<path class="st2" d="M68.7,38.7l-1,0l-0.5,0l-1.4,0c0,0-14.6-21.8-6.7-29.6c2.4-2.4,7-0.8,6.6,9.7
					C65.4,28.5,68.7,38.7,68.7,38.7z"/>
				<g>
					<path class="st3" d="M67.8,38.7l-0.5,0c-2.6-5.3-4.1-11.1-5-15.2c-1-4.8-1.2-8.4-1.2-8.4c0-0.1,0.1-0.2,0.2-0.2
						c0.1,0,0.2,0.1,0.2,0.2c0,0,0.2,3.6,1.2,8.4C63.6,27.5,65.1,33.4,67.8,38.7z"/>
				</g>
			</g>
			<g>
				<path class="st1" d="M76.7,41.9l-1.2,0.8l-0.6,0.4l-1.7,1.2c0,0-34.8-15.1-31.3-30.8C43,8.6,49.8,7,57.5,20
					C64.7,32.1,76.7,41.9,76.7,41.9z"/>
				<g>
					<g>
						<path class="st2" d="M75.5,42.7l-0.6,0.4C67.6,38.7,61.2,32.8,57,28.4c-5-5.1-8-9.3-8.1-9.3c-0.1-0.1-0.1-0.4,0.1-0.5
							c0.1-0.1,0.4-0.1,0.5,0.1c0,0,3.1,4.2,8,9.3C61.7,32.3,68.1,38.3,75.5,42.7z"/>
					</g>
				</g>
			</g>
			<g>
				<path class="st1" d="M164.6,104.3l0.9,0.7l0.5,0.4l1.4,1.1c0,0,30.6-10.9,28.5-24.5c-0.6-4.2-6.4-6-13.7,4.7
					C175.4,96.7,164.6,104.3,164.6,104.3z"/>
				<g>
					<path class="st2" d="M165.5,105.1l0.5,0.4c6.5-3.4,12.3-8,16.2-11.5c4.5-4.1,7.4-7.5,7.4-7.5c0.1-0.1,0.1-0.3,0-0.4
						c-0.1-0.1-0.3-0.1-0.4,0c0,0-2.9,3.4-7.4,7.4C177.9,97,172.1,101.7,165.5,105.1z"/>
				</g>
			</g>
			<g>
				<path class="st2" d="M191.4,31.7c-1.4,3.9-5.3,3.6-5.4,6.8c-0.1,3.2-2.2,5.5-4.9,4.8c-2.7-0.7-4.7-1.4-6.1,1.7
					c-1.4,3.1-5.5,4.5-7,1.9c-0.4-0.6-0.8-1.3-1.1-2c-0.1-0.2-0.2-0.4-0.3-0.6c0,0,0-0.1-0.1-0.1c-1.6-2.8-0.8-6.3,1.8-8.1
					c1-0.7,2.3-1.1,3.6-0.7c4.2,1.5,2.9-2.9,5.5-4.6c3-2,5.4,0.5,7.5-1.1C187.8,27.3,192.8,27.8,191.4,31.7z"/>
				<g>
					<g>
						<path class="st3" d="M186.2,33.1l-19.4,11.7c-0.1-0.2-0.2-0.4-0.3-0.6l19.4-11.7c0.2-0.1,0.3,0,0.4,0.1
							C186.4,32.9,186.4,33,186.2,33.1z"/>
					</g>
				</g>
			</g>
			<g>
				<path class="st1" d="M188.9,11.5c0.6,5.2-4.2,7-2.5,10.8c1.7,3.7,0.5,7.6-3.1,8.3c-3.6,0.7-6.2,1-6.1,5.4c0.1,4.4-3.9,8.3-7,6.1
					c-0.8-0.5-1.6-1.1-2.4-1.7c-0.2-0.2-0.4-0.3-0.7-0.5c-0.1,0-0.1-0.1-0.2-0.1c-3.3-2.3-4.4-6.8-2.4-10.3c0.8-1.4,2-2.6,3.8-2.8
					c5.7-0.6,1.7-4.9,3.8-8.4c2.4-3.9,6.6-2.4,8.1-5.5C182.3,8.5,188.3,6.3,188.9,11.5z"/>
				<g>
					<path class="st2" d="M183.7,16.1l-15.9,24.3c-0.2-0.2-0.4-0.3-0.7-0.5L183,15.6c0.1-0.2,0.4-0.2,0.6-0.1
						C183.8,15.6,183.8,15.9,183.7,16.1z"/>
				</g>
			</g>
			<g>
				<g>
					<path class="st2" d="M142.1,37.4c2.6-7.1,5.2-13,7.8-17.6c3.4-6,6.9-9.7,10.2-11c0.2-0.1,0.5,0,0.6,0.2c0.1,0.2,0,0.5-0.2,0.6
						c-5.8,2.3-12.1,12.6-18.2,29.9L142.1,37.4z"/>
				</g>
				<path class="st1" d="M153.4,14.7c0,0-3.3-1.5-0.5-7.2C152.9,7.6,157.3,11.2,153.4,14.7z"/>
				<path class="st1" d="M151.8,17.6c0,0,1.3-3.4,7.1-0.9C158.9,16.7,155.5,21.3,151.8,17.6z"/>
				<path class="st1" d="M157.9,10.6c0,0,0.1-3.6,6.4-3.2C164.3,7.3,162.6,12.8,157.9,10.6z"/>
				<path class="st1" d="M148.4,23.3c0,0-3.6-0.3-2.9-6.6C145.5,16.7,150.9,18.6,148.4,23.3z"/>
				<path class="st1" d="M147.2,26.4c0,0,0.7-3.5,6.9-2.1C154.1,24.3,151.5,29.4,147.2,26.4z"/>
				<path class="st1" d="M145.2,30.6c0,0-3.6-0.2-3-6.5C142.2,24.1,147.6,25.9,145.2,30.6z"/>
			</g>
			<g>
				<g>
					<path class="st2" d="M59.3,105.1c-6.7-3.5-12.2-6.9-16.3-10.2c-5.4-4.2-8.6-8.1-9.5-11.6c-0.1-0.2,0.1-0.5,0.3-0.5
						c0.2-0.1,0.5,0.1,0.5,0.3c1.5,6.1,10.8,13.8,27.1,22.1L59.3,105.1z"/>
				</g>
				<path class="st1" d="M38.5,90.8c0,0-1.9,3.1-7.2-0.5C31.3,90.3,35.6,86.4,38.5,90.8z"/>
				<path class="st1" d="M41.1,92.7c0,0-3.2-1.7,0.1-7.2C41.2,85.6,45.3,89.6,41.1,92.7z"/>
				<path class="st1" d="M35,85.7c0,0-3.6-0.6-2.3-6.8C32.7,78.9,37.9,81.3,35,85.7z"/>
				<path class="st1" d="M46.3,96.9c0,0-0.7,3.5-6.9,2C39.4,98.8,42,93.8,46.3,96.9z"/>
				<path class="st1" d="M49.2,98.5c0,0-3.4-1.1-1.2-7.1C48.1,91.4,52.8,94.6,49.2,98.5z"/>
				<path class="st1" d="M53.1,101.1c0,0-0.7,3.5-6.9,2.1C46.2,103.2,48.8,98,53.1,101.1z"/>
			</g>
		</g>
		<g>
			<g>
				<path class="st4" d="M176.9,28.5V107c0,1.3-1.1,2.4-2.4,2.4H55.5c-1.3,0-2.4-1.1-2.4-2.4V28.5c0-1.3,1.1-2.4,2.4-2.4h119.1
					C175.9,26.1,176.9,27.2,176.9,28.5z"/>
				<path class="st5" d="M173.6,31.9v71.7c0,1.3-1.1,2.4-2.4,2.4H58.8c-0.3,0-0.6-0.1-0.8-0.2c-0.9-0.3-1.6-1.2-1.6-2.3V31.9
					c0-1.3,1.1-2.4,2.4-2.4h112.5c0.3,0,0.6,0.1,0.9,0.2C173,30,173.6,30.9,173.6,31.9z"/>
				<g>
					<path class="st6" d="M173.6,31.9v3.6H56.4v-3.6c0-1.3,1.1-2.4,2.4-2.4h112.5C172.6,29.5,173.6,30.5,173.6,31.9z"/>
					<g>
						<circle class="st7" cx="163.3" cy="32.4" r="1.2"/>
						<circle class="st8" cx="158.9" cy="32.4" r="1.2"/>
						<path class="st9" d="M168.8,32.4c0,0.6-0.5,1.2-1.2,1.2s-1.2-0.5-1.2-1.2c0-0.6,0.5-1.2,1.2-1.2
							C168.3,31.3,168.8,31.8,168.8,32.4z"/>
					</g>
				</g>
				<g>
					<g>
						<g>
							<rect x="78.3" y="43.7" class="st9" width="6.6" height="7.4"/>
							<rect x="78.3" y="43.7" class="st8" width="6.6" height="1.9"/>
						</g>
						<g>
							<path class="st10" d="M86.2,41.2v0.9c0,0.1,0,0.3,0,0.4c-0.2,0.7-0.8,1.3-1.6,1.3h-6c-0.8,0-1.4-0.5-1.6-1.3
								c0-0.1,0-0.2,0-0.4v-0.9H86.2z"/>
							<path class="st4" d="M86.2,42.5c-0.2,0.7-0.8,1.3-1.6,1.3h-6c-0.8,0-1.4-0.5-1.6-1.3H86.2z"/>
						</g>
					</g>
					<polygon class="st4" points="138.6,62.2 64.5,62.2 64.5,62.2 66.2,59.8 74.9,47.8 128.2,47.8 136.9,59.8 138.6,62.2 					"/>
					<rect x="64.5" y="62.2" class="st9" width="74.1" height="30"/>
					<rect x="64.5" y="62.2" class="st5" width="74.1" height="1.9"/>
					<rect x="64.5" y="63.2" class="st11" width="74.1" height="1"/>
					<polygon class="st8" points="116.3,85.2 116.3,86.9 138.6,86.9 138.6,92.2 64.5,92.2 64.5,86.9 87.4,86.9 87.4,85.2 64.5,85.2 
						64.5,83.3 87.4,83.3 87.4,66.5 64.5,66.5 64.5,64.1 89.8,64.1 89.8,83.3 113.8,83.3 113.8,64.1 138.6,64.1 138.6,66.5 
						116.3,66.5 116.3,83.3 138.6,83.3 138.6,85.2 					"/>
					<rect x="89.8" y="64.1" class="st8" width="24" height="2.4"/>
					<g>
						<g>
							<g>
								<polygon class="st9" points="113.8,56 113.8,92.2 89.8,92.2 89.8,56 91.7,54.7 92.9,53.9 93.5,53.5 94.3,52.9 96.1,51.7 
									98,50.4 101.8,47.8 105.6,50.4 107.5,51.7 109.3,52.9 110.1,53.5 110.7,53.9 112,54.7 								"/>
							</g>
						</g>
						<g>
							<g>
								<polygon class="st10" points="120.9,58.2 117.4,58.2 113.8,58.2 101.8,50.1 89.8,58.2 86.2,58.2 82.7,58.2 101.8,45.4 
																	"/>
							</g>
							<g>
								<polygon class="st4" points="117.4,58.2 113.8,58.2 101.8,50.1 89.8,58.2 86.2,58.2 101.8,47.7 								"/>
							</g>
						</g>
					</g>
					<g>
						<g>
							<g>
								<path class="st10" d="M68.1,79.6v-7.3c0-1.7,1.4-3,3-3c1.7,0,3,1.4,3,3v7.3H68.1z"/>
								<path class="st4" d="M68.5,79.2v-6.9c0-1.5,1.2-2.7,2.7-2.7s2.7,1.2,2.7,2.7v6.9H68.5z"/>
								<path class="st6" d="M73.4,72.3v6.5h-4.5v-6.5c0-1.2,1-2.2,2.2-2.2c0.6,0,1.1,0.2,1.5,0.6c0,0,0.1,0.1,0.1,0.1
									c0.3,0.3,0.5,0.6,0.6,0.9C73.4,71.9,73.4,72.1,73.4,72.3z"/>
								<path class="st5" d="M73.3,71.7l-4.4,4.4v-1.7l3.7-3.7c0,0,0.1,0.1,0.1,0.1C73,71,73.2,71.3,73.3,71.7z"/>
								<polygon class="st5" points="73.4,74.4 73.4,75.3 69.9,78.8 69,78.8 								"/>
								<rect x="68.6" y="74.4" class="st4" width="5.1" height="0.5"/>
							</g>
							<path class="st11" d="M73.4,72.3v0.5c0-0.2,0-0.4-0.1-0.6c-0.1-0.4-0.3-0.7-0.6-0.9c0,0-0.1-0.1-0.1-0.1
								c-0.4-0.4-0.9-0.6-1.5-0.6c-1.2,0-2.2,1-2.2,2.2v-0.5c0-1.2,1-2.2,2.2-2.2c0.6,0,1.1,0.2,1.5,0.6c0,0,0.1,0.1,0.1,0.1
								c0.3,0.3,0.5,0.6,0.6,0.9C73.4,71.9,73.4,72.1,73.4,72.3z"/>
						</g>
						<g>
							<g>
								<path class="st10" d="M77.7,79.6v-7.3c0-1.7,1.4-3,3-3c1.7,0,3,1.4,3,3v7.3H77.7z"/>
								<path class="st4" d="M78.1,79.2v-6.9c0-1.5,1.2-2.7,2.7-2.7c1.5,0,2.7,1.2,2.7,2.7v6.9H78.1z"/>
								<path class="st6" d="M83,72.3v6.5h-4.5v-6.5c0-1.2,1-2.2,2.2-2.2c0.6,0,1.1,0.2,1.5,0.6c0,0,0.1,0.1,0.1,0.1
									c0.3,0.3,0.5,0.6,0.6,0.9C83,71.9,83,72.1,83,72.3z"/>
								<path class="st5" d="M82.9,71.7l-4.4,4.4v-1.7l3.7-3.7c0,0,0.1,0.1,0.1,0.1C82.6,71,82.8,71.3,82.9,71.7z"/>
								<polygon class="st5" points="83,74.4 83,75.3 79.5,78.8 78.6,78.8 								"/>
								<rect x="78.2" y="74.4" class="st4" width="5.1" height="0.5"/>
							</g>
							<path class="st11" d="M83,72.3v0.5c0-0.2,0-0.4-0.1-0.6c-0.1-0.4-0.3-0.7-0.6-0.9c0,0-0.1-0.1-0.1-0.1
								c-0.4-0.4-0.9-0.6-1.5-0.6c-1.2,0-2.2,1-2.2,2.2v-0.5c0-1.2,1-2.2,2.2-2.2c0.6,0,1.1,0.2,1.5,0.6c0,0,0.1,0.1,0.1,0.1
								c0.3,0.3,0.5,0.6,0.6,0.9C83,71.9,83,72.1,83,72.3z"/>
						</g>
					</g>
					<g>
						<g>
							<g>
								<path class="st10" d="M119.8,79.6v-7.3c0-1.7,1.4-3,3-3s3,1.4,3,3v7.3H119.8z"/>
								<path class="st4" d="M120.2,79.2v-6.9c0-1.5,1.2-2.7,2.7-2.7c1.5,0,2.7,1.2,2.7,2.7v6.9H120.2z"/>
								<path class="st6" d="M125.1,72.3v6.5h-4.5v-6.5c0-1.2,1-2.2,2.2-2.2c0.6,0,1.1,0.2,1.5,0.6c0,0,0.1,0.1,0.1,0.1
									c0.3,0.3,0.5,0.6,0.6,0.9C125.1,71.9,125.1,72.1,125.1,72.3z"/>
								<path class="st5" d="M125,71.7l-4.4,4.4v-1.7l3.7-3.7c0,0,0.1,0.1,0.1,0.1C124.7,71,124.9,71.3,125,71.7z"/>
								<polygon class="st5" points="125.1,74.4 125.1,75.3 121.6,78.8 120.7,78.8 								"/>
								<rect x="120.3" y="74.4" class="st4" width="5.1" height="0.5"/>
							</g>
							<path class="st11" d="M125.1,72.3v0.5c0-0.2,0-0.4-0.1-0.6c-0.1-0.4-0.3-0.7-0.6-0.9c0,0-0.1-0.1-0.1-0.1
								c-0.4-0.4-0.9-0.6-1.5-0.6c-1.2,0-2.2,1-2.2,2.2v-0.5c0-1.2,1-2.2,2.2-2.2c0.6,0,1.1,0.2,1.5,0.6c0,0,0.1,0.1,0.1,0.1
								c0.3,0.3,0.5,0.6,0.6,0.9C125.1,71.9,125.1,72.1,125.1,72.3z"/>
						</g>
						<g>
							<g>
								<path class="st10" d="M129.4,79.6v-7.3c0-1.7,1.4-3,3-3s3,1.4,3,3v7.3H129.4z"/>
								<path class="st4" d="M129.8,79.2v-6.9c0-1.5,1.2-2.7,2.7-2.7s2.7,1.2,2.7,2.7v6.9H129.8z"/>
								<path class="st6" d="M134.7,72.3v6.5h-4.5v-6.5c0-1.2,1-2.2,2.2-2.2c0.6,0,1.1,0.2,1.5,0.6c0,0,0.1,0.1,0.1,0.1
									c0.3,0.3,0.5,0.6,0.6,0.9C134.7,71.9,134.7,72.1,134.7,72.3z"/>
								<path class="st5" d="M134.6,71.7l-4.4,4.4v-1.7l3.7-3.7c0,0,0.1,0.1,0.1,0.1C134.3,71,134.5,71.3,134.6,71.7z"/>
								<polygon class="st5" points="134.7,74.4 134.7,75.3 131.2,78.8 130.3,78.8 								"/>
								<rect x="129.9" y="74.4" class="st4" width="5.1" height="0.5"/>
							</g>
							<path class="st11" d="M134.7,72.3v0.5c0-0.2,0-0.4-0.1-0.6c-0.1-0.4-0.3-0.7-0.6-0.9c0,0-0.1-0.1-0.1-0.1
								c-0.4-0.4-0.9-0.6-1.5-0.6c-1.2,0-2.2,1-2.2,2.2v-0.5c0-1.2,1-2.2,2.2-2.2c0.6,0,1.1,0.2,1.5,0.6c0,0,0.1,0.1,0.1,0.1
								c0.3,0.3,0.5,0.6,0.6,0.9C134.7,71.9,134.7,72.1,134.7,72.3z"/>
						</g>
					</g>
					<path class="st4" d="M142.2,93.4h-81c-0.4,0-0.7-0.3-0.7-0.7v-0.3c0-0.4,0.3-0.7,0.7-0.7h81c0.4,0,0.7,0.3,0.7,0.7v0.3
						C142.8,93.1,142.5,93.4,142.2,93.4z"/>
					<g>
						<rect x="97.8" y="76.7" class="st4" width="8" height="13.8"/>
						<rect x="98.5" y="77.3" class="st10" width="6.7" height="12.5"/>
						<path class="st4" d="M104.7,83.8c0,0.3-0.3,0.6-0.6,0.6s-0.6-0.3-0.6-0.6c0-0.3,0.3-0.6,0.6-0.6
							C104.4,83.2,104.7,83.5,104.7,83.8z"/>
						<rect x="97" y="89.5" class="st4" width="9.7" height="0.9"/>
						<path class="st4" d="M105.8,77h-7.9c-0.4,0-0.7-0.3-0.7-0.7v-0.2h9.4v0.2C106.5,76.7,106.2,77,105.8,77z"/>
						<rect x="95.9" y="90.5" class="st4" width="11.8" height="1.3"/>
					</g>
					<polygon class="st8" points="89.8,58.2 89.8,61.3 101.8,53 113.8,61.3 113.8,58.2 101.8,50.1 					"/>
					<g>
						<g>
							<rect x="96" y="62.5" class="st10" width="11.6" height="8.1"/>
							<rect x="96.4" y="62.9" class="st4" width="10.8" height="7.3"/>
							<rect x="96.9" y="63.3" class="st6" width="9.9" height="6.4"/>
							<g>
								<polygon class="st5" points="106.8,63.3 106.8,63.9 100.9,69.7 99.4,69.7 105.9,63.3 								"/>
							</g>
							<g>
								<polygon class="st5" points="101.8,63.3 96.9,68.3 96.9,66.8 100.3,63.3 								"/>
							</g>
							<rect x="96.9" y="66.2" class="st10" width="9.9" height="0.6"/>
							<rect x="96.9" y="66.5" class="st4" width="9.9" height="0.3"/>
						</g>
						<rect x="96" y="62.5" class="st11" width="11.6" height="1.7"/>
						<path class="st10" d="M107.6,62.5H96c-0.3,0-0.6-0.3-0.6-0.6v-0.2h12.7v0.2C108.2,62.2,108,62.5,107.6,62.5z"/>
					</g>
					<path class="st5" d="M86.4,91.7v-7l0,0V84c0-0.6-0.5-1-1-1c-0.6,0-1,0.5-1,1v3.7h-1.6V84c0-0.6-0.5-1-1-1c-0.6,0-1,0.5-1,1v3.7
						h-1.6V84c0-0.6-0.5-1-1-1c-0.6,0-1,0.5-1,1v3.7h-1.6V84c0-0.6-0.5-1-1-1l0,0c-0.6,0-1,0.5-1,1v3.7h-1.6V84c0-0.6-0.5-1-1-1
						s-1,0.5-1,1v3.7h-1.6V84c0-0.6-0.5-1-1-1s-1,0.5-1,1v7.7h2v-2h1.6v2h2v-2h1.6v2h2v-2h1.6v2h2v-2h1.6v2h2v-2h1.6v2L86.4,91.7
						L86.4,91.7z"/>
					<path class="st5" d="M137.4,91.7v-7l0,0V84c0-0.6-0.5-1-1-1c-0.6,0-1,0.5-1,1v3.7h-1.6V84c0-0.6-0.5-1-1-1c-0.6,0-1,0.5-1,1
						v3.7h-1.6V84c0-0.6-0.5-1-1-1c-0.6,0-1,0.5-1,1v3.7h-1.6V84c0-0.6-0.5-1-1-1l0,0c-0.6,0-1,0.5-1,1v3.7h-1.6V84c0-0.6-0.5-1-1-1
						c-0.6,0-1,0.5-1,1v3.7h-1.6V84c0-0.6-0.5-1-1-1c-0.6,0-1,0.5-1,1v7.7h2v-2h1.6v2h2v-2h1.6v2h2v-2h1.6v2h2v-2h1.6v2h2v-2h1.6v2
						L137.4,91.7L137.4,91.7z"/>
				</g>
				<g>
					<g>
						<path class="st7" d="M134.9,42.9v8.5c0,0.5-0.4,1-1,1h-8.5c-0.4,0-0.7-0.2-0.9-0.5c0,0,0-0.1,0-0.1c0-0.1,0-0.1-0.1-0.2
							c0,0,0,0,0,0c0,0,0,0,0,0c0-0.1,0-0.1,0-0.2v-8.5c0-0.5,0.4-0.9,0.9-1c0,0,0.1,0,0.1,0h8.5c0.1,0,0.2,0,0.3,0c0,0,0,0,0,0
							C134.6,42.1,134.9,42.5,134.9,42.9z"/>
					</g>
					<g>
						<g>
							<path class="st5" d="M130.3,50.1l0,0.8l-1.1,0l0-0.8c-0.8-0.1-1.5-0.3-2-0.6l0.6-1.3c0.5,0.3,1.2,0.5,1.8,0.5
								c0.5,0,0.7-0.1,0.7-0.3c0-0.7-3-0.2-2.9-2.1c0-0.9,0.6-1.6,1.9-1.7l0-0.8l1.1,0l0,0.8c0.6,0.1,1.1,0.2,1.5,0.5l-0.6,1.3
								c-0.5-0.3-1-0.4-1.5-0.4c-0.5,0-0.7,0.1-0.7,0.3c0,0.6,3,0.1,2.9,2.1C132.1,49.2,131.5,49.9,130.3,50.1z"/>
						</g>
					</g>
				</g>
				<g>
					<path class="st6" d="M166.3,60.8h-21.6c-0.5,0-1-0.4-1-1l0,0c0-0.5,0.4-1,1-1h21.6c0.5,0,1,0.4,1,1l0,0
						C167.3,60.4,166.9,60.8,166.3,60.8z"/>
					<path class="st6" d="M166.3,65.5h-21.6c-0.5,0-1-0.4-1-1l0,0c0-0.5,0.4-1,1-1h21.6c0.5,0,1,0.4,1,1l0,0
						C167.3,65.1,166.9,65.5,166.3,65.5z"/>
					<path class="st6" d="M166.3,70.2h-21.6c-0.5,0-1-0.4-1-1l0,0c0-0.5,0.4-1,1-1h21.6c0.5,0,1,0.4,1,1l0,0
						C167.3,69.8,166.9,70.2,166.3,70.2z"/>
					<path class="st6" d="M166.3,74.9h-21.6c-0.5,0-1-0.4-1-1l0,0c0-0.5,0.4-1,1-1h21.6c0.5,0,1,0.4,1,1l0,0
						C167.3,74.5,166.9,74.9,166.3,74.9z"/>
					<path class="st6" d="M166.3,79.6h-21.6c-0.5,0-1-0.4-1-1l0,0c0-0.5,0.4-1,1-1h21.6c0.5,0,1,0.4,1,1l0,0
						C167.3,79.1,166.9,79.6,166.3,79.6z"/>
					<path class="st6" d="M166.3,84.3h-21.6c-0.5,0-1-0.4-1-1l0,0c0-0.5,0.4-1,1-1h21.6c0.5,0,1,0.4,1,1l0,0
						C167.3,83.8,166.9,84.3,166.3,84.3z"/>
				</g>
			</g>
			<rect x="106.6" y="109.3" class="st12" width="18.5" height="26.3"/>
			<path class="st4" d="M135.8,140.4H95.8v-1.2c0-2.5,2-4.4,4.4-4.4h31.2c2.5,0,4.4,2,4.4,4.4L135.8,140.4L135.8,140.4z"/>
			<g>
				<path class="st12" d="M153.9,110.8h-5.1c-0.6,0-1.1-0.5-1.1-1.1v-0.3h7.4v0.3C155,110.3,154.5,110.8,153.9,110.8z"/>
				<path class="st12" d="M165.2,110.8h-5.1c-0.6,0-1.1-0.5-1.1-1.1v-0.3h7.4v0.3C166.4,110.3,165.8,110.8,165.2,110.8z"/>
				<path class="st12" d="M142.5,110.8h-5.1c-0.6,0-1.1-0.5-1.1-1.1v-0.3h7.4v0.3C143.6,110.3,143.1,110.8,142.5,110.8z"/>
			</g>
			<path class="st13" d="M173.6,31.9v71.7c0,1.3-1.1,2.4-2.4,2.4H58.8c-0.3,0-0.6-0.1-0.8-0.2l114.2-76.2
				C173,30,173.6,30.9,173.6,31.9z"/>
		</g>
		<g>
			<g>
				<g>
					<g>
						<path class="st14" d="M139.6,51.5c0.6-0.2,3.1,1.1,3.2,1.2c0.1,0,0.6-0.1,1.1-0.2c0.5-0.1,0.8,0.1,1.2,0.8
							c0.4,0.7,0.8,1.8,0.8,1.8c0.2,0.1,0.5,0.2,0.8,0.3c-0.4,0.8-0.8,1.5-1.2,2.2c-0.4-0.2-0.8-0.5-1.1-0.7
							c-0.2,0.1-0.5,0.1-0.7,0.1c-0.6-0.1-1.1-0.3-1.4-0.4c-0.2-0.1-0.3-0.1-0.3-0.1s0,0,0,0c-0.1,0-0.3,0.1-0.9,0
							c-0.6-0.2-1-0.6-1.1-0.9c0-0.3,0.3-0.5,0.3-0.5s-0.3-0.2-0.3-0.5c0-0.3,0.6-0.6,0.6-0.6s-0.3-0.3,0-0.7c0.2-0.3,1,0,1,0
							C141.5,53.1,139.1,51.6,139.6,51.5z"/>
						<g>
							<g>
								<path class="st15" d="M144.4,54.4C144.4,54.4,144.4,54.4,144.4,54.4c0.1-0.1,0.2-0.1,0.1-0.2l-0.3-0.6c0,0-0.1-0.1-0.1-0.1
									c0,0-0.1,0-0.1,0c0,0-0.6,0.4-1.2,0.3c-0.2,0-0.3-0.1-0.3-0.2c-0.1-0.1,0-0.2,0-0.2c0-0.1,0-0.1-0.1-0.2s-0.1,0-0.2,0.1
									c0,0-0.1,0.2,0,0.4c0.1,0.2,0.3,0.3,0.5,0.4c0.5,0.1,1.1-0.1,1.3-0.2l0.2,0.4C144.3,54.3,144.3,54.4,144.4,54.4z"/>
							</g>
							<g>
								<path class="st15" d="M141.9,56.5C141.9,56.5,141.9,56.5,141.9,56.5c0,0,0.1,0,0.3,0.1c0.2-0.3,0.3-0.6,0.3-0.9
									c0-0.2,0-0.5,0.2-0.6c0.1-0.2,0.2-0.3,0.2-0.5c0-0.2,0-0.3-0.1-0.4c0,0,0-0.1,0-0.1c0-0.1-0.1-0.2-0.1-0.2
									c0-0.1-0.1-0.1-0.2,0c-0.1,0-0.1,0.1,0,0.2c0,0,0,0,0,0c0,0.1,0.1,0.3,0.1,0.5c0,0.1,0,0.3-0.1,0.4
									c-0.2,0.2-0.2,0.5-0.2,0.8C142.2,56,142.2,56.3,141.9,56.5z"/>
							</g>
							<g>
								<path class="st15" d="M143.8,55.5c0.1,0,0.1,0,0.1-0.1c0-0.1,0-0.1-0.1-0.2l0,0c0,0-0.8-0.4-0.9-1.2c0-0.1-0.1-0.1-0.1-0.1
									c-0.1,0-0.1,0.1-0.1,0.1C142.8,55,143.7,55.4,143.8,55.5C143.8,55.5,143.8,55.5,143.8,55.5z"/>
							</g>
						</g>
					</g>
					<path class="st3" d="M146.6,55.3c5.1,1.7,9,2.9,13,3.9c7.2,1.8,11,0.7,11,0.7l-2.7,4.9l-0.5,0.9c-0.8,0.2-1.7,0.2-2.6,0.1
						c-2.7-0.3-5.5-1.4-5.5-1.4c-7.4-2.9-12.2-5.2-14.1-6.5L146.6,55.3z"/>
					<polygon class="st3" points="146.7,54.9 148,55.5 146.3,58.7 145,58 					"/>
					<path class="st3" d="M164.8,65.8c0.9,0.1,1.9,0.1,2.6-0.1l0.5-0.9c-0.1-0.4-0.4-0.8-0.9-1C167.1,63.8,166.4,65.1,164.8,65.8z"
						/>
				</g>
				<g>
					<g>
						<path class="st14" d="M188.7,131.2l2.1,2.7c0,0-0.4,1.2-1.9,2.1l-2.5-3.1L188.7,131.2z"/>
						<g>
							<g>
								<path class="st16" d="M189.2,135.2c0,0-1-0.2-1.3,0.1c-0.3,0.3-1.2,4.8-2,5.7c-0.8,1,0,1.5,0.5,1.7c0.5,0.2,7.5-6.5,7.5-6.5
									s-1.7-2.3-2.6-2.7C190.5,133.1,190.1,134.8,189.2,135.2z"/>
							</g>
							<g>
								<g>
									<path class="st5" d="M189.1,137.7C189.1,137.7,189.1,137.6,189.1,137.7c0.1-0.2,0.1-0.3,0-0.3c0,0-0.8-0.3-1.3-0.1
										c-0.7,0.2-0.9,0.8-0.9,0.8c0,0.1,0,0.2,0.1,0.2c0.1,0,0.2,0,0.2-0.1c0,0,0.1-0.4,0.7-0.6c0.5-0.1,1.1,0.1,1.1,0.1
										C189,137.7,189,137.7,189.1,137.7z"/>
								</g>
								<g>
									<path class="st5" d="M189.1,137C189.2,137,189.2,137,189.1,137c0.1-0.2,0.1-0.3,0-0.3c0,0-0.8-0.3-1.3-0.1
										c-0.7,0.2-0.9,0.8-0.9,0.8c0,0.1,0,0.2,0.1,0.2c0.1,0,0.2,0,0.2-0.1c0,0,0.1-0.4,0.7-0.6c0.5-0.1,1.1,0.1,1.1,0.1
										C189.1,137,189.1,137,189.1,137z"/>
								</g>
								<g>
									<path class="st5" d="M188.8,138.4C188.8,138.4,188.9,138.4,188.8,138.4c0.1-0.2,0.1-0.3,0-0.3c0,0-0.8-0.3-1.3-0.1
										c-0.7,0.2-0.9,0.8-0.9,0.8c0,0.1,0,0.2,0.1,0.2c0.1,0,0.2,0,0.2-0.1c0,0,0.1-0.4,0.7-0.6c0.5-0.1,1.1,0.1,1.1,0.1
										C188.7,138.5,188.7,138.4,188.8,138.4z"/>
								</g>
							</g>
						</g>
					</g>
					<g>
						<path class="st12" d="M175.4,94.5l1.9,18c0,0,2.5,3,4.3,6.3c1.5,2.8,8,12.7,8,12.7l-3.1,2.5l-16.2-18.2l-3.6-21.5L175.4,94.5z
							"/>
					</g>
				</g>
				<g>
					<g>
						<path class="st14" d="M172.5,136.4l-0.3,3.5c0,0-1.1,0.7-2.9,0.4l0.3-4.1L172.5,136.4z"/>
						<g>
							<g>
								<path class="st16" d="M169.9,139.8c0,0-0.6-0.9-1.1-0.8c-0.5,0-4.4,3-5.7,3.3c-1.3,0.2-1.1,1.2-0.8,1.7
									c0.2,0.5,10.5,0.2,10.5,0.2s0.4-3.3,0.1-4.2S170.9,140,169.9,139.8z"/>
							</g>
							<g>
								<g>
									<path class="st5" d="M167.9,141.6c0,0,0.1,0,0.1,0c0.1,0,0.1-0.1,0.1-0.2c0,0-0.4-0.7-0.9-1c-0.7-0.4-1.2,0-1.2,0
										c-0.1,0.1-0.1,0.2-0.1,0.2c0.1,0.1,0.2,0.1,0.2,0.1c0,0,0.4-0.2,0.9,0C167.5,140.9,167.8,141.5,167.9,141.6
										C167.8,141.5,167.8,141.6,167.9,141.6z"/>
								</g>
								<g>
									<path class="st5" d="M168.4,141.1c0,0,0.1,0,0.1,0c0.1,0,0.1-0.1,0.1-0.2c0,0-0.4-0.7-0.9-1c-0.7-0.4-1.2,0-1.2,0
										c-0.1,0.1-0.1,0.2-0.1,0.2c0.1,0.1,0.2,0.1,0.2,0.1c0,0,0.4-0.2,0.9,0C168,140.4,168.3,141,168.4,141.1
										C168.3,141.1,168.4,141.1,168.4,141.1z"/>
								</g>
								<g>
									<path class="st5" d="M167.1,141.9c0,0,0.1,0,0.1,0c0.1,0,0.1-0.1,0.1-0.2c0,0-0.4-0.7-0.9-1c-0.7-0.4-1.2,0-1.2,0
										c-0.1,0.1-0.1,0.2-0.1,0.2c0.1,0.1,0.2,0.1,0.2,0.1c0,0,0.4-0.2,0.9,0C166.7,141.2,167,141.8,167.1,141.9
										C167.1,141.9,167.1,141.9,167.1,141.9z"/>
								</g>
							</g>
						</g>
					</g>
					<g>
						<g>
							<path class="st4" d="M185.3,95c0,0-3.8,13.5-8.7,20.7c0,0-0.7,7.1-2,10.8c-0.6,1.6-1.9,11.5-1.9,11.5L172,138l-0.4-0.1
								l-2.7-0.4l1.2-23.3l5.9-18.4l7.6-0.6l0.4,0L185.3,95z"/>
						</g>
						<g>
							<path class="st12" d="M184.2,95.1l-8.4,20.7c0,0-1.3,5.6-2,9.6c-0.6,3.5-1.5,9.6-1.8,12.6l-0.4-0.1c0.3-3,1.1-9,1.8-12.6
								c0.7-3.9,2-9.6,2-9.6l8.3-20.5L184.2,95.1z"/>
						</g>
					</g>
				</g>
				<g>
					<g>
						<g>
							<g>
								<path class="st17" d="M166.2,94c0,0.8,0,1.4,0,1.8c1.8,0.5,3.6,0.8,5.4,1.1c0,0,0.1,0,0.1,0c0.1,0,0.2,0,0.2,0
									c0,0,0,0,0.1,0c0.3,0,0.6,0.1,0.9,0.1c1.6,0.1,3.1,0.2,4.7,0.1c0.1,0,0.3,0,0.4,0c0.1,0,0.2,0,0.4,0c0.1,0,0.1,0,0.2,0
									c0.1,0,0.2,0,0.3,0c2.3-0.2,4.6-0.6,6.9-1.2c0-0.9,0-2.7,0-5.1c0-0.1,0-0.3,0-0.4c0-2.6,0-5.8,0-9.1c0-0.3,0-0.5,0-0.8
									c0-0.3,0-0.6,0-0.9c0-0.1,0-0.1,0-0.2c0-0.1,0-0.1,0-0.2c0-0.1,0-0.3,0-0.4c0-0.2,0-0.4,0-0.6c0-0.2,0-0.3,0-0.5
									c0-0.3,0-0.6,0-0.9c-0.1-6.5-0.3-12.6-0.8-14.1c0-0.1-0.1-0.2-0.1-0.3c0-0.1-0.1-0.1-0.2-0.2c-0.1-0.1-0.2-0.2-0.3-0.3
									c-0.7-0.6-1.9-1.4-3.1-2.1c-0.1-0.1-0.3-0.2-0.4-0.2c0,0-3.4-1.1-3.4-1.1l-3.5,0.2c-0.4,0.2-3.7,1.4-4.1,1.6
									c-0.1,0.1-0.2,0.1-0.4,0.2c-0.9,0.6-1.8,1.2-2.1,1.7c-0.5,0.7-0.8,7.4-1,14.7c0,0.2,0,0.3,0,0.5c0,0.8,0,1.5-0.1,2.3
									c0,0.8,0,1.5,0,2.3c0,1.2,0,2.5-0.1,3.6c0,0.1,0,0.3,0,0.4c0,1.1,0,2.2,0,3.3c0,0.1,0,0.3,0,0.4c0,1.5,0,2.9,0,4l0,0
									C166.2,93.7,166.2,93.9,166.2,94z"/>
							</g>
						</g>
					</g>
					<g>
						<path class="st3" d="M182.3,71.1c0-0.2,0.2-0.3,0.3-0.1c1.4,1.8,2.2,3.9,2.7,5.4c0.1,0.4,0.2,0.8,0.3,1.2c0,0.2,0,0.3,0,0.5
							c0,0.2,0,0.4,0,0.6c0,0.1,0,0.3,0,0.4c0,0.1,0,0.1,0,0.2c0,0.1,0,0.1,0,0.2c-0.1-0.8-0.3-1.8-0.7-3c-0.5-1.6-1.3-3.5-2.7-5.3
							C182.3,71.2,182.3,71.2,182.3,71.1L182.3,71.1z"/>
					</g>
					<g>
						<path class="st3" d="M181.6,90.1L181.6,90.1c-3.8,0-7-1.7-9-3.2c-2.2-1.5-3.5-3.1-3.5-3.1c-0.1-0.1-0.1-0.2,0-0.3
							c0.1-0.1,0.2-0.1,0.3,0c0,0,1.3,1.6,3.5,3.1c2,1.4,5.1,3.1,8.8,3.1c0.1,0,0.2,0.1,0.2,0.2C181.8,90,181.7,90.1,181.6,90.1z"/>
					</g>
					<g>
						<path class="st3" d="M177.7,91.4c-3.3,0-6.5-1.9-6.7-1.9c-0.1-0.1-0.1-0.2-0.1-0.2s0.2-0.1,0.2-0.1c0,0,3.9,2.2,7.3,1.9
							c0.1,0,0.2,0.1,0.2,0.2c0,0.1-0.1,0.2-0.2,0.2C178.3,91.4,178,91.4,177.7,91.4z"/>
					</g>
				</g>
				<g>
					<g>
						<path class="st14" d="M192,99.7c0.1,0.9-1,0.4-0.7-1.5c0.3-1.9-0.6-3.6-1-3.5c-0.4,0.1,0.3,2.1,0,2.8
							c-0.3,0.7-0.8-0.7-1.2-1.5c-0.5-0.9-0.4-2.8-0.2-4.2s-2.3-9.7-2.3-12.1l-0.3-1l-1.1-3.8l-1.7-5.9c0,0,1-4.4,2.8-4.1
							c0,0,0.9,3.1,1.9,6.6c0.2,0.6,0.3,1.2,0.5,1.8c0.7,2.5,1.4,5,1.7,6.5c0.8,3.9,0.9,12.1,0.9,12.1s1.4,3,1.5,4.3
							C192.7,97.6,192,98.7,192,99.7z"/>
						<path class="st3" d="M184.7,62.2c0,0.1,0.1-0.1,0.2,0c0.2,0.5,1.1,1.6,1.6,2.8c0.1,0.1,0.1,0.3,0.2,0.4
							c0.6,1.6,4.2,12.5,4.9,21.8l-3.4,0.6c-1.1-6.1-1.8-7.9-2.5-10.9c-0.3-1.2-0.7-2.3-1-3.3c0,0,0,0,0,0c-0.1-0.4-0.3-0.8-0.4-1.2
							c0,0,0,0,0,0c0-0.1-0.1-0.3-0.1-0.4l0,0c-0.5-1.5-0.9-2.7-1-3.4C182.7,66.7,183.5,63,184.7,62.2z"/>
						<polygon class="st3" points="191.7,86.6 191.9,88 187.8,88.6 187.6,87.2 						"/>
						<g>
							<path class="st12" d="M191.4,88.8c0,0-2.3-0.2-3.2,0.5l0.2,1.3c0,0,2.6-0.3,3.3-0.3C191.6,90.3,191.7,89,191.4,88.8z"/>
							<path class="st4" d="M190.3,89.7c0,0.6,0.4,1.1,0.9,1.1c0.5,0,0.9-0.5,0.9-1.1c0-0.6-0.4-1.1-0.9-1.1
								C190.7,88.6,190.3,89,190.3,89.7z"/>
							<path class="st10" d="M190.7,89.6c0,0.4,0.3,0.8,0.7,0.8c0.4,0,0.7-0.4,0.7-0.8s-0.3-0.8-0.7-0.8
								C191,88.8,190.7,89.2,190.7,89.6z"/>
						</g>
					</g>
				</g>
				<g>
					<g>
						<path class="st4" d="M181.5,49.6c0,3.2-2,5.4-5.1,5.4c-3.2,0-5.4-2.4-5.4-5.5c0-3.2,1.9-5.6,5.1-5.6
							C179.8,43.8,181.5,46.4,181.5,49.6z"/>
						<path class="st4" d="M181.5,49.6c0,0,0-1.3,0.4-1.7c0.2-0.2,0.4-0.8,0-1.5c-0.4-0.7-0.7-0.8-0.3-1.7c0.4-0.9-0.4-1.8-0.9-1.8
							c-0.6-0.1-1.9,0.7-2.6-0.2c-0.7-0.9-1.5-1.3-2.5-1c-0.9,0.3-2.2,0.4-2.8-0.1c-0.6-0.5-2.2,0.2-2.1,1.2c0.1,1,1,2,0.5,2.4
							c-0.5,0.4-1.1,1.7,0,2C172.4,47.4,181.5,49.6,181.5,49.6z"/>
						<g>
							<path class="st15" d="M180.8,51c0,0,0.9-1.2,1.5-0.2c0.7,1-0.3,3.8-1.9,3.1L180.8,51z"/>
							<g>
								<g>
									<path class="st18" d="M180.8,53c0.1,0,0.1,0,0.1-0.1c0.3-0.9,1.2-1.2,1.2-1.3c0.1,0,0.1-0.1,0.1-0.2c0-0.1-0.1-0.1-0.2-0.1
										c0,0-1.1,0.4-1.3,1.4C180.6,52.9,180.7,53,180.8,53C180.8,53,180.8,53,180.8,53z"/>
								</g>
							</g>
							<g>
								<path class="st18" d="M181.7,52.6C181.7,52.6,181.8,52.6,181.7,52.6c0.1-0.1,0.2-0.1,0.1-0.2c0,0-0.2-0.3-0.5-0.4
									c-0.1,0-0.1,0-0.2,0.1c0,0.1,0,0.1,0.1,0.2c0.3,0.1,0.4,0.3,0.4,0.3C181.6,52.6,181.7,52.6,181.7,52.6z"/>
							</g>
						</g>
						<g>
							<path class="st15" d="M171.7,51c0,0-0.9-1.2-1.5-0.2c-0.7,1,0.3,3.8,1.9,3.1L171.7,51z"/>
							<g>
								<g>
									<path class="st18" d="M171.7,53c-0.1,0-0.1,0-0.1-0.1c-0.3-0.9-1.2-1.2-1.2-1.3c-0.1,0-0.1-0.1-0.1-0.2
										c0-0.1,0.1-0.1,0.2-0.1c0,0,1.1,0.4,1.3,1.4C171.8,52.9,171.8,53,171.7,53C171.7,53,171.7,53,171.7,53z"/>
								</g>
							</g>
							<g>
								<g>
									<path class="st18" d="M170.7,52.6C170.7,52.6,170.7,52.6,170.7,52.6c-0.1-0.1-0.2-0.1-0.1-0.2c0,0,0.2-0.3,0.5-0.4
										c0.1,0,0.1,0,0.2,0.1c0,0.1,0,0.1-0.1,0.2c-0.3,0.1-0.4,0.3-0.4,0.3C170.8,52.6,170.8,52.6,170.7,52.6z"/>
								</g>
							</g>
						</g>
						<path class="st14" d="M174,56.3v3c0,0,0.3,1.6,1.3,1.7c1.3,0.2,2.9-2.1,2.9-2.1v-2.4L174,56.3z"/>
						<path class="st15" d="M174,56.3v1.3c0.8,0.9,2.1,1.1,4.2,0.8v-1.8L174,56.3z"/>
						<path class="st14" d="M181.2,50.9c0,0.2,0,0.3,0,0.5c0,0.4-0.1,0.9-0.2,1.3c0,0,0,0,0,0c-0.4,2.1-1.2,4.2-3.1,4.8
							c-4.2,1.5-5.7-2.1-6.3-4.2c-0.1-0.2-0.1-0.5-0.2-0.8c0,0,0,0,0,0c-0.1-0.3-0.1-0.6-0.2-1c0-0.3-0.1-0.5-0.1-0.8
							c-0.1-0.6-0.1-1.3-0.1-1.8c-0.1-1.3,0.7-2.5,1.9-2.9c1.7-0.7,4.4-1.2,6.8,0.2c0.9,0.5,1.5,1.5,1.5,2.5
							C181.3,49.4,181.3,50.1,181.2,50.9z"/>
						<path class="st4" d="M180.7,51c0,0-0.4,1.6-0.8,2.8c-0.9-1-3.7,0-3.7,0s-3.1-1.1-3.6,0.2c-0.4-0.6-0.6-2-0.8-3l-0.6-0.2
							c0,0.3,0.1,0.5,0.1,0.8c0,0.3,0.1,0.7,0.2,1c0,0,0,0,0,0c0.1,0.3,0.1,0.5,0.2,0.8c0.6,2.1,2.1,5.7,6.3,4.2
							c1.9-0.7,2.7-2.7,3.1-4.8c0,0,0,0,0,0c0.1-0.4,0.1-0.9,0.2-1.3c0-0.2,0-0.3,0-0.5L180.7,51z M178.7,55.6
							c-1.1,0.9-2.7,0.9-3.4,0.7c-0.6-0.1-1.3-0.5-1.9-1.1c0.1-0.7,0.7-1.2,2.9-0.9C179,53.6,178.9,55.1,178.7,55.6z"/>
						<path class="st4" d="M177.6,51.1c0,0.3,0.2,0.6,0.4,0.6s0.4-0.2,0.4-0.6c0-0.3-0.2-0.6-0.4-0.6
							C177.8,50.6,177.6,50.8,177.6,51.1z"/>
						<path class="st4" d="M173.6,51.1c0,0.3,0.2,0.6,0.4,0.6c0.2,0,0.4-0.2,0.4-0.6c0-0.3-0.2-0.6-0.4-0.6S173.6,50.8,173.6,51.1z"
							/>
						<path class="st4" d="M172.9,49.2c0,0,1.1-0.4,2-0.1l-0.1,0.5c0,0-1.3-0.1-1.9,0.1C172.9,49.6,172.9,49.4,172.9,49.2z"/>
						<path class="st4" d="M179.4,49.2c0,0-1.1-0.4-2-0.1l0.1,0.5c0,0,1.3-0.1,1.9,0.1C179.5,49.6,179.5,49.4,179.4,49.2z"/>
						<g>
							<g>
								<path class="st15" d="M176.1,53.5c0.2,0,0.5,0,0.5,0c0.1,0,0.1-0.1,0.1-0.2c0-0.1-0.1-0.1-0.2-0.1c-0.1,0-0.4,0.1-0.5,0
									c0,0-0.1-0.1-0.1-0.1c0-0.5,0.3-2,0.3-2.1c0-0.1,0-0.1-0.1-0.2c-0.1,0-0.1,0-0.2,0.1c0,0.1-0.3,1.6-0.3,2.1
									c0,0.2,0.1,0.3,0.2,0.4C175.9,53.5,176,53.5,176.1,53.5z"/>
							</g>
						</g>
						<path class="st5" d="M177.9,54.3c-0.1,0.6-0.5,1.6-1.7,1.6c-1.2,0-1.6-0.9-1.7-1.6H177.9z"/>
						<path class="st4" d="M171.2,51h0.6c-0.1-0.6,0.2-1.4,0.3-1.9c0.4-1.1-0.5-1.6,0.3-2.2c0.7-0.6,2.5-0.3,3.8-0.4
							c1.3,0,3.3,0,3.8,0.1c0.5,0.1,0.2,0.9,0,1.6c-0.2,0.6,0.6,1.3,0.7,2c0,0.2,0,0.5,0,0.8h0.5c0.1-0.8,0.1-1.5,0.1-2.1
							c0-1.1-0.6-2-1.5-2.5c-2.5-1.4-5.1-0.9-6.8-0.2c-1.2,0.5-2,1.6-1.9,2.9C171.1,49.6,171.1,50.3,171.2,51z"/>
						<g>
							<g>
								<path class="st5" d="M173.9,53c-0.9,0-1.6-0.7-1.6-1.6s0.7-1.6,1.6-1.6c0.9,0,1.6,0.7,1.6,1.6C175.5,52.3,174.8,53,173.9,53
									z M173.9,50c-0.8,0-1.4,0.6-1.4,1.4s0.6,1.4,1.4,1.4s1.4-0.6,1.4-1.4S174.7,50,173.9,50z"/>
							</g>
							<g>
								<path class="st5" d="M178.4,53c-0.9,0-1.6-0.7-1.6-1.6s0.7-1.6,1.6-1.6s1.6,0.7,1.6,1.6C180,52.3,179.2,53,178.4,53z
									 M178.4,50c-0.8,0-1.4,0.6-1.4,1.4s0.6,1.4,1.4,1.4s1.4-0.6,1.4-1.4S179.1,50,178.4,50z"/>
							</g>
							<g>
								<path class="st5" d="M172.6,50.9C172.5,50.9,172.5,50.9,172.6,50.9L172.6,50.9c-0.1,0-0.8-0.8-1.8-0.5c-0.1,0-0.1,0-0.2-0.1
									c0-0.1,0-0.1,0.1-0.2c1.1-0.3,1.9,0.5,1.9,0.6C172.7,50.7,172.7,50.8,172.6,50.9C172.6,50.9,172.6,50.9,172.6,50.9z"/>
							</g>
							<g>
								<path class="st5" d="M179.7,50.9c0,0-0.1,0-0.1-0.1c0-0.1,0-0.1,0-0.2c0,0,1.2-0.8,2.2-0.6c0.1,0,0.1,0.1,0.1,0.1
									c0,0.1-0.1,0.1-0.1,0.1C180.9,50.2,179.8,50.9,179.7,50.9C179.8,50.9,179.8,50.9,179.7,50.9z"/>
							</g>
							<g>
								<path class="st5" d="M176.8,51c0,0-0.3-0.4-0.7-0.4c-0.4,0-0.7,0.4-0.7,0.4l-0.2-0.1c0,0,0.3-0.5,0.9-0.5
									c0.5,0,0.9,0.5,0.9,0.5L176.8,51z"/>
							</g>
						</g>
					</g>
				</g>
			</g>
		</g>
		<g>
			<g>
				<g>
					<g>
						<g>
							<path class="st8" d="M188.7,57.9c0,1-0.8,1.7-1.7,1.7s-1.7-0.8-1.7-1.7c0-1,0.8-1.7,1.7-1.7C187.9,56.2,188.7,57,188.7,57.9z
								 M185.7,57.9c0,0.7,0.5,1.2,1.2,1.2s1.2-0.5,1.2-1.2s-0.5-1.2-1.2-1.2S185.7,57.3,185.7,57.9z"/>
						</g>
					</g>
					<g>
						<path class="st7" d="M190.5,49.1c0,1-0.8,1.7-1.7,1.7S187,50,187,49.1c0-1,0.8-1.7,1.7-1.7C189.7,47.3,190.5,48.1,190.5,49.1z
							 M187.5,49.1c0,0.7,0.5,1.2,1.2,1.2c0.7,0,1.2-0.5,1.2-1.2s-0.5-1.2-1.2-1.2C188.1,47.9,187.5,48.4,187.5,49.1z"/>
					</g>
					<g>
						<g>
							<g>
								<path class="st8" d="M194,44.9c0,0.2-0.1,0.3-0.3,0.3h-1.2c-0.2,0-0.3-0.1-0.3-0.3c0-0.2,0.1-0.3,0.3-0.3h1.2
									C193.9,44.6,194,44.7,194,44.9z"/>
							</g>
							<g>
								<path class="st8" d="M196.1,44.9c0,0.2-0.1,0.3-0.3,0.3h-1.2c-0.2,0-0.3-0.1-0.3-0.3c0-0.2,0.1-0.3,0.3-0.3h1.2
									C196,44.6,196.1,44.7,196.1,44.9z"/>
							</g>
						</g>
						<g>
							<g>
								<path class="st8" d="M194.5,43.2v1.1c0,0.2-0.1,0.3-0.3,0.3c-0.2,0-0.3-0.1-0.3-0.3v-1.1c0-0.2,0.1-0.3,0.3-0.3
									C194.4,42.9,194.5,43,194.5,43.2z"/>
							</g>
							<g>
								<path class="st8" d="M194.5,45.5v1.1c0,0.2-0.1,0.3-0.3,0.3c-0.2,0-0.3-0.1-0.3-0.3v-1.1c0-0.2,0.1-0.3,0.3-0.3
									C194.4,45.2,194.5,45.3,194.5,45.5z"/>
							</g>
						</g>
					</g>
					<g>
						<g>
							<g>
								<g>
									<path class="st19" d="M192.1,54.2c0,0.2-0.1,0.3-0.3,0.3h-1.2c-0.2,0-0.3-0.1-0.3-0.3s0.1-0.3,0.3-0.3h1.2
										C191.9,53.9,192.1,54,192.1,54.2z"/>
								</g>
								<g>
									<path class="st19" d="M194.2,54.2c0,0.2-0.1,0.3-0.3,0.3h-1.2c-0.2,0-0.3-0.1-0.3-0.3s0.1-0.3,0.3-0.3h1.2
										C194,53.9,194.2,54,194.2,54.2z"/>
								</g>
							</g>
							<g>
								<g>
									<path class="st19" d="M192.5,52.5v1.1c0,0.2-0.1,0.3-0.3,0.3c-0.2,0-0.3-0.1-0.3-0.3v-1.1c0-0.2,0.1-0.3,0.3-0.3
										S192.5,52.3,192.5,52.5z"/>
								</g>
								<g>
									<path class="st19" d="M192.5,54.8v1.1c0,0.2-0.1,0.3-0.3,0.3c-0.2,0-0.3-0.1-0.3-0.3v-1.1c0-0.2,0.1-0.3,0.3-0.3
										C192.4,54.5,192.5,54.6,192.5,54.8z"/>
								</g>
							</g>
						</g>
					</g>
				</g>
			</g>
			<g>
				<g>
					<g>
						<path class="st8" d="M46.6,45.4c1,0,1.7,0.8,1.7,1.7c0,1-0.8,1.7-1.7,1.7c-1,0-1.7-0.8-1.7-1.7C44.9,46.2,45.7,45.4,46.6,45.4
							z M46.6,45.9c-0.7,0-1.2,0.5-1.2,1.2s0.5,1.2,1.2,1.2s1.2-0.5,1.2-1.2S47.3,45.9,46.6,45.9z"/>
					</g>
					<g>
						<path class="st7" d="M44.8,36.5c1,0,1.7,0.8,1.7,1.7c0,1-0.8,1.7-1.7,1.7s-1.7-0.8-1.7-1.7C43.1,37.3,43.9,36.5,44.8,36.5z
							 M44.8,37c-0.7,0-1.2,0.5-1.2,1.2s0.5,1.2,1.2,1.2c0.7,0,1.2-0.5,1.2-1.2S45.5,37,44.8,37z"/>
					</g>
					<g>
						<g>
							<g>
								<path class="st8" d="M39.5,34c0,0.2,0.1,0.3,0.3,0.3H41c0.2,0,0.3-0.1,0.3-0.3c0-0.2-0.1-0.3-0.3-0.3h-1.2
									C39.7,33.8,39.5,33.9,39.5,34z"/>
							</g>
							<g>
								<path class="st8" d="M37.4,34c0,0.2,0.1,0.3,0.3,0.3h1.2c0.2,0,0.3-0.1,0.3-0.3c0-0.2-0.1-0.3-0.3-0.3h-1.2
									C37.5,33.8,37.4,33.9,37.4,34z"/>
							</g>
						</g>
						<g>
							<g>
								<path class="st8" d="M39.1,32.4v1.1c0,0.2,0.1,0.3,0.3,0.3c0.2,0,0.3-0.1,0.3-0.3v-1.1c0-0.2-0.1-0.3-0.3-0.3
									S39.1,32.2,39.1,32.4z"/>
							</g>
							<g>
								<path class="st8" d="M39.1,34.7v1.1c0,0.2,0.1,0.3,0.3,0.3c0.2,0,0.3-0.1,0.3-0.3v-1.1c0-0.2-0.1-0.3-0.3-0.3
									C39.2,34.4,39.1,34.5,39.1,34.7z"/>
							</g>
						</g>
					</g>
					<g>
						<g>
							<g>
								<g>
									<path class="st19" d="M41.5,43.4c0,0.2,0.1,0.3,0.3,0.3H43c0.2,0,0.3-0.1,0.3-0.3s-0.1-0.3-0.3-0.3h-1.2
										C41.6,43.1,41.5,43.2,41.5,43.4z"/>
								</g>
								<g>
									<path class="st19" d="M39.4,43.4c0,0.2,0.1,0.3,0.3,0.3h1.2c0.2,0,0.3-0.1,0.3-0.3s-0.1-0.3-0.3-0.3h-1.2
										C39.5,43.1,39.4,43.2,39.4,43.4z"/>
								</g>
							</g>
							<g>
								<g>
									<path class="st19" d="M41.1,41.7v1.1c0,0.2,0.1,0.3,0.3,0.3c0.2,0,0.3-0.1,0.3-0.3v-1.1c0-0.2-0.1-0.3-0.3-0.3
										C41.2,41.4,41.1,41.5,41.1,41.7z"/>
								</g>
								<g>
									<path class="st19" d="M41.1,44v1.1c0,0.2,0.1,0.3,0.3,0.3c0.2,0,0.3-0.1,0.3-0.3V44c0-0.2-0.1-0.3-0.3-0.3
										C41.2,43.7,41.1,43.8,41.1,44z"/>
								</g>
							</g>
						</g>
					</g>
				</g>
			</g>
		</g>
		<g>
			<g>
				<g>
					<g>
						<path class="st3" d="M92,127.6H80c-0.9,0-1.7-0.7-1.7-1.7v-12c0-0.9,0.7-1.7,1.7-1.7h12c0.9,0,1.7,0.7,1.7,1.7v12
							C93.7,126.8,92.9,127.6,92,127.6z"/>
					</g>
				</g>
				<g>
					<g>
						<path class="st20" d="M91,127.6H79c-0.9,0-1.7-0.7-1.7-1.7v-12c0-0.9,0.7-1.7,1.7-1.7h12c0.9,0,1.7,0.7,1.7,1.7v12
							C92.6,126.8,91.9,127.6,91,127.6z"/>
					</g>
				</g>
				<path class="st5" d="M85.2,114.8c-2-0.1-3.6,1.4-3.6,3.3c0,0.6,0.2,1.2,0.5,1.7c0.4,0.7,0.9,1.5,1.3,2.2L85,125l2.4-4.4
					c0.1-0.3,0.3-0.5,0.4-0.8c0.3-0.5,0.5-1.1,0.5-1.8C88.3,116.4,86.9,114.9,85.2,114.8z M85,119.2c-0.8,0-1.4-0.6-1.4-1.4
					c0-0.8,0.6-1.4,1.4-1.4c0.8,0,1.4,0.6,1.4,1.4S85.7,119.2,85,119.2z"/>
			</g>
			<g>
				<g>
					<g>
						<path class="st20" d="M83.8,142.9h-12c-0.9,0-1.7-0.7-1.7-1.7v-12c0-0.9,0.7-1.7,1.7-1.7h12c0.9,0,1.7,0.7,1.7,1.7v12
							C85.5,142.1,84.7,142.9,83.8,142.9z"/>
					</g>
				</g>
				<g>
					<g>
						<path class="st21" d="M82.8,142.9h-12c-0.9,0-1.7-0.7-1.7-1.7v-12c0-0.9,0.7-1.7,1.7-1.7h12c0.9,0,1.7,0.7,1.7,1.7v12
							C84.4,142.1,83.7,142.9,82.8,142.9z"/>
					</g>
				</g>
				<g>
					<g>
						<path class="st5" d="M76.8,130.2c-2.8,0-5,2.3-5,5c0,2.8,2.3,5,5,5c2.8,0,5-2.3,5-5S79.6,130.2,76.8,130.2z M77,137.1v-1.8
							h2.3c0,0.6-0.1,1.2-0.3,1.8H77z M78.4,139.1c0.4-0.5,0.7-1,0.9-1.6h1.5c-0.6,1.2-1.7,2-3,2.3C78,139.5,78.2,139.3,78.4,139.1z
							 M78.8,137.5c-0.2,0.5-0.4,0.9-0.8,1.3c-0.5,0.6-1,0.9-1.1,1v-2.4H78.8z M77,132.7v-2.1c0.1,0,0.1,0,0.2,0
							c0.3,0.2,1,0.9,1.6,2.1L77,132.7L77,132.7z M79.2,132.7c-0.2-0.4-0.4-0.8-0.7-1.2c-0.2-0.3-0.4-0.5-0.6-0.8
							c1.2,0.3,2.2,1,2.8,2H79.2z M77,134.9v-1.8h1.9c0.2,0.6,0.3,1.2,0.3,1.8H77z M79.7,134.9c0-0.6-0.1-1.2-0.3-1.8h1.6
							c0.3,0.6,0.4,1.1,0.5,1.8H79.7z M81.4,135.3c0,0.6-0.1,1.2-0.4,1.8h-1.6c0.2-0.6,0.2-1.1,0.3-1.8H81.4z M74.2,137.1h-1.7
							c-0.2-0.6-0.4-1.1-0.4-1.8h1.8C74,135.9,74,136.5,74.2,137.1z M74.9,132.7c0.2-0.3,0.3-0.7,0.6-1c0.4-0.6,0.8-1,1-1.1
							c0,0,0.1,0,0.1,0v2.1L74.9,132.7L74.9,132.7z M76.6,133.1v1.8h-2.2c0-0.6,0.1-1.2,0.3-1.8H76.6z M72.9,132.7
							c0.7-1,1.7-1.8,2.9-2c-0.2,0.2-0.4,0.5-0.6,0.8c-0.3,0.4-0.5,0.8-0.7,1.2L72.9,132.7L72.9,132.7z M76.6,135.3v1.8h-2
							c-0.2-0.5-0.3-1.1-0.3-1.8H76.6z M72.2,134.9c0-0.6,0.2-1.2,0.5-1.8h1.6c-0.2,0.6-0.3,1.2-0.3,1.8H72.2z M74.3,137.5
							c0.2,0.6,0.5,1.1,0.9,1.6c0.2,0.2,0.4,0.5,0.6,0.7c-1.3-0.3-2.4-1.1-3.1-2.3L74.3,137.5L74.3,137.5z M76.6,137.5v2.3
							c-0.3-0.2-1.3-0.9-1.8-2.3H76.6z"/>
					</g>
				</g>
			</g>
			<g>
				<g>
					<g>
						<path class="st21" d="M101.9,142.9H90c-0.9,0-1.7-0.7-1.7-1.7v-12c0-0.9,0.7-1.7,1.7-1.7h12c0.9,0,1.7,0.7,1.7,1.7v12
							C103.6,142.1,102.9,142.9,101.9,142.9z"/>
					</g>
				</g>
				<g>
					<g>
						<path class="st22" d="M100.9,142.9h-12c-0.9,0-1.7-0.7-1.7-1.7v-12c0-0.9,0.7-1.7,1.7-1.7h12c0.9,0,1.7,0.7,1.7,1.7v12
							C102.6,142.1,101.8,142.9,100.9,142.9z"/>
					</g>
				</g>
				<g>
					<polygon class="st5" points="99.7,134.4 99.5,134.2 95.3,130.5 91.1,134.2 90.8,134.5 90.1,135 90.1,139.7 93.9,139.7 
						93.9,136.7 96.6,136.7 96.6,139.7 100.4,139.7 100.4,135 					"/>
					<polygon class="st5" points="95.3,129 89,134.5 89.9,134.5 90.1,134.3 90.2,134.2 95.3,129.8 100.3,134.2 100.4,134.3 
						100.6,134.4 101.5,134.4 					"/>
				</g>
			</g>
		</g>
		<g>
			<g>
				<g>
					<path class="st8" d="M150,128.6c0,0-0.3,0.3-0.9,0.3c-0.2,0-0.4,0-0.7,0c-0.3,0-0.6-0.1-0.9-0.3c0,0,0.1-6.2-2.4-10.5
						c-2.5-4.3-5.9-10.2-3.2-13.3c2.7-3,7,1.2,8.4,8.3C151.7,120.2,150,128.6,150,128.6z"/>
				</g>
				<g>
					<path class="st23" d="M149.1,128.9c-0.2,0-0.4,0-0.7,0c0.8-11.1-4.2-19.6-4.3-19.7c-0.1-0.2,0-0.4,0.1-0.5
						c0.2-0.1,0.4,0,0.5,0.1C144.8,108.9,149.9,117.7,149.1,128.9z"/>
				</g>
			</g>
			<g>
				<g>
					<path class="st8" d="M158.7,118.5c-5.9,9.5-5.5,11.7-5.5,11.7l-0.8-0.1l-0.7-0.1l-0.9-0.2c-0.5-4.2,2.7-22.1,8.5-22.1
						C165.2,107.7,160.7,115.3,158.7,118.5z"/>
				</g>
				<g>
					<path class="st23" d="M158.4,113c-0.1,0.1-5,8.9-6,17.1l-0.7-0.1c1.1-8.3,6.1-17.2,6.1-17.3c0.1-0.2,0.3-0.2,0.5-0.1
						C158.5,112.7,158.5,112.9,158.4,113z"/>
				</g>
			</g>
			<g>
				<g>
					<path class="st8" d="M145.7,129.9L145.7,129.9C145.7,129.9,145.7,129.9,145.7,129.9z"/>
					<path class="st8" d="M147.4,129.4l-0.7,0.2l-0.6,0.2l-0.4,0.1c0-0.1-0.3-0.8-4.4-6.4c-1.7-2.3-6.3-8.5-2.1-9.5
						C143.1,113.1,147.6,126.2,147.4,129.4z"/>
				</g>
				<g>
					<path class="st23" d="M146.8,129.6l-0.6,0.2c-1.2-5.3-6.1-11.9-6.1-12c-0.1-0.1-0.1-0.4,0.1-0.5c0.1-0.1,0.4-0.1,0.5,0.1
						C140.8,117.7,145.5,124.2,146.8,129.6z"/>
				</g>
			</g>
			<path class="st7" d="M155.7,143.5h-13.2V129c0-0.8,0.7-1.5,1.5-1.5h10.2c0.8,0,1.5,0.7,1.5,1.5V143.5z"/>
		</g>
		<g>
			<g>
				<g>
					<polygon class="st24" points="65.3,136.3 65.3,139.6 62.9,139.6 62.8,136.1 					"/>
					<g>
						<g>
							<g>
								<path class="st16" d="M64.6,139.3c0,0,0.5-0.8,1-0.7c0.4,0,3.9,2.7,5.1,2.8c1.2,0.2,1,1.1,0.8,1.5c-0.2,0.4-9.3,0-9.3,0
									s-0.3-2.7,0-3.5C62.4,138.6,63.7,139.5,64.6,139.3z"/>
								<g>
									<g>
										<path class="st25" d="M66.6,141.2c0,0-0.1,0-0.1,0c-0.1,0-0.1-0.1-0.1-0.2c0,0,0.4-0.7,0.8-0.9c0.6-0.3,1.1,0,1.2,0
											c0.1,0.1,0.1,0.2,0,0.2c-0.1,0.1-0.2,0.1-0.2,0c0,0-0.4-0.2-0.8,0C67,140.5,66.7,141.1,66.6,141.2
											C66.6,141.1,66.6,141.1,66.6,141.2z"/>
									</g>
									<g>
										<path class="st25" d="M66.1,140.7c0,0-0.1,0-0.1,0c-0.1,0-0.1-0.1-0.1-0.2c0,0,0.4-0.7,0.8-0.9c0.6-0.3,1.1,0,1.2,0
											c0.1,0.1,0.1,0.2,0,0.2c-0.1,0.1-0.2,0.1-0.2,0c0,0-0.4-0.2-0.8,0C66.5,140.1,66.2,140.6,66.1,140.7
											C66.1,140.7,66.1,140.7,66.1,140.7z"/>
									</g>
									<g>
										<path class="st25" d="M67.2,141.5c0,0-0.1,0-0.1,0c-0.1,0-0.1-0.1-0.1-0.2c0,0,0.4-0.7,0.8-0.9c0.6-0.3,1.1,0,1.2,0
											c0.1,0.1,0.1,0.2,0,0.2c-0.1,0.1-0.2,0.1-0.2,0c0,0-0.4-0.2-0.8,0C67.6,140.9,67.3,141.4,67.2,141.5
											C67.3,141.5,67.3,141.5,67.2,141.5z"/>
									</g>
								</g>
							</g>
						</g>
					</g>
				</g>
				<path class="st26" d="M65.8,136.9l-2.4-0.2l-0.3,0l-0.6-0.1c0,0-0.8-17.9-1.1-22.6c-0.2-4.1-1.8-13.4-2.7-19.2
					c-0.3-1.6-0.5-3-0.7-3.9c-0.1-0.7-0.2-1.1-0.2-1.1l8.1-1.1c0,0,0,0.2,0,0.6c0,0.8,0.1,2.4,0.2,4.4c0.3,5.4,0.7,13.9,0.9,18.1
					C67.4,123,65.8,136.9,65.8,136.9z"/>
				<path class="st12" d="M66.2,93.8l-7.5,1c-0.3-1.6-0.5-3-0.7-3.9l8-1.5C66,90.2,66.1,91.8,66.2,93.8z"/>
				<g>
					<path class="st12" d="M63.4,136.7l-0.3,0c0.1-5.5,0.2-19.3-0.5-25.2c-0.8-7.4-2.9-18.1-3-18.2l0.3-0.1c0,0.1,2.1,10.9,3,18.2
						C63.5,117.3,63.4,131.2,63.4,136.7z"/>
				</g>
			</g>
			<g>
				<g>
					<polygon class="st24" points="46.3,135.3 45.3,138.4 43.1,137.7 43.9,134.3 					"/>
					<g>
						<g>
							<g>
								<path class="st16" d="M44.7,137.9c0,0,0.8-0.5,1.2-0.3c0.4,0.2,2.7,3.8,3.8,4.4s0.5,1.3,0.2,1.7c-0.3,0.3-8.7-3.2-8.7-3.2
									s0.7-2.6,1.2-3.3C42.8,136.5,43.7,137.8,44.7,137.9z"/>
								<g>
									<g>
										<path class="st25" d="M45.8,140.3c0,0-0.1,0-0.1-0.1c-0.1-0.1-0.1-0.2,0-0.2c0,0,0.6-0.5,1.1-0.6c0.7-0.1,1.1,0.4,1.1,0.4
											c0.1,0.1,0,0.2,0,0.2c-0.1,0.1-0.2,0-0.2,0c0,0-0.3-0.4-0.8-0.3c-0.4,0.1-0.9,0.5-0.9,0.5
											C45.9,140.3,45.9,140.3,45.8,140.3z"/>
									</g>
									<g>
										<path class="st25" d="M45.5,139.8c0,0-0.1,0-0.1-0.1c-0.1-0.1-0.1-0.2,0-0.2c0,0,0.6-0.5,1.1-0.6c0.7-0.1,1.1,0.4,1.1,0.4
											c0.1,0.1,0,0.2,0,0.2c-0.1,0.1-0.2,0-0.2,0c0,0-0.3-0.4-0.8-0.3c-0.4,0.1-0.9,0.5-0.9,0.5
											C45.6,139.7,45.5,139.8,45.5,139.8z"/>
									</g>
									<g>
										<path class="st25" d="M46.3,140.9c0,0-0.1,0-0.1-0.1c-0.1-0.1-0.1-0.2,0-0.2c0,0,0.6-0.5,1.1-0.6c0.7-0.1,1.1,0.4,1.1,0.4
											c0.1,0.1,0,0.2,0,0.2c-0.1,0.1-0.2,0-0.2,0c0,0-0.3-0.4-0.8-0.3c-0.4,0.1-0.9,0.5-0.9,0.5
											C46.4,140.9,46.4,140.9,46.3,140.9z"/>
									</g>
								</g>
							</g>
						</g>
					</g>
				</g>
				<path class="st26" d="M46.5,135.9l-2.3-0.8L44,135l-0.6-0.2c0,0,4.1-17.4,5.1-22.1c0.9-4,1.9-13.4,2.5-19.2
					c0.2-1.7,0.3-3,0.4-3.9c0.1-0.7,0.1-1.1,0.1-1.1l8.1,1.2c0,0,0,0.2-0.1,0.6c-0.2,0.8-0.5,2.4-1,4.3c-1.2,5.3-3,13.5-4.1,17.7
					C51.8,123,46.5,135.9,46.5,135.9z"/>
				<path class="st12" d="M58.5,94.6L51,93.5c0.2-1.7,0.3-3,0.4-3.9l8.1,0.7C59.3,91.1,59,92.6,58.5,94.6z"/>
				<g>
					<path class="st12" d="M44.2,135.1L44,135c1.6-5.3,5.4-18.6,6.3-24.4c1.2-7.3,2.1-18.2,2.1-18.3l0.3,0c0,0.1-0.9,11-2.1,18.4
						C49.6,116.5,45.8,129.8,44.2,135.1z"/>
				</g>
			</g>
			<path class="st3" d="M64.6,70.3c2.2,3.6,8.5,7,8.5,7c2.4-0.4,3.9-1,5.5-1.8c-0.4-1.1-0.5-2.2-0.7-3.6c-2.2,0.5-4.2,0.7-4.2,0.7
				c-4.6-2.4-9.5-13.5-9.5-13.5C62.5,62.2,64.6,70.3,64.6,70.3z"/>
			<g>
				<path class="st4" d="M50.2,63.9c1.9,1.8,4.2,1.1,7.1-0.2c3-1.3,1,1.5,3.8,2.1c2.8,0.6,2.8-6.4,3.2-9.9c0.2-2.2,1.2-4.9,1.3-6v0
					c0-0.2,0-0.4,0.1-0.6c0.1-2.7-1.3-7.6-7.1-7.1c0,0-4.8,0.3-5.6,5c0,0-0.3,2.2-0.6,3.7c-0.6,4.4-2.2,2-1.9,7.5
					C50.5,60.1,48,61.8,50.2,63.9z"/>
				<g>
					<g>
						<path class="st17" d="M66.6,91.3c-4.9,3.3-15.7-0.6-15.7-0.6c-1.2-1.6,0.7-4.9,1.4-8.9c0.6-3.4,0.3-8-0.1-11.4
							c-0.1-0.6-0.2-1.2-0.3-1.8c-0.6-3.4-0.4-9.1-0.4-9.1c0.6-0.3,1.6-0.6,2.6-1c0.6-0.2,1.2-0.4,1.8-0.6c1-0.3,1.7-0.5,1.7-0.5
							l3.9,0.8l0.8,0.3l1.2,0.4l0.8,0.3c0,0,0.4,3.9,0.9,6.2c0.1,0.6,0.3,1.2,0.4,1.5c0.6,1.4,0.4,2.1-0.4,4
							c-0.2,0.4-0.3,0.9-0.4,1.4c0,0.1,0,0.3-0.1,0.4c-0.2,1.6,0,3.5,0.4,6.2c0.5,3.1,1.6,9.2,2,11.2C67.2,90.5,67,91,66.6,91.3z"/>
						<g>
							<g>
								<path class="st3" d="M64.7,72.2c0,0.1,0,0.3-0.1,0.4c-2,1.5-5.5,3.6-9.3,3.4c-0.1,0-0.1-0.1-0.1-0.1c0-0.1,0.1-0.1,0.1-0.1
									C59.2,76,62.7,73.8,64.7,72.2z"/>
							</g>
							<g>
								<path class="st3" d="M61.1,65.8c-1.9-0.1-3.6-2.2-3.7-2.3c0-0.1,0-0.1,0-0.2c0.1,0,0.1,0,0.2,0c0,0,1.8,2.3,3.7,2.2
									c0.1,0,0.1,0.1,0.1,0.1c0,0.1-0.1,0.1-0.1,0.1C61.2,65.8,61.1,65.8,61.1,65.8z"/>
							</g>
							<g>
								<path class="st3" d="M55.6,85.2c-0.1,0-0.1-0.1-0.1-0.1c0-0.1,0.1-0.1,0.1-0.1c5-0.3,7.5-8.9,7.5-9c0-0.1,0.1-0.1,0.2-0.1
									c0.1,0,0.1,0.1,0.1,0.2C63.3,76.3,60.8,84.8,55.6,85.2C55.6,85.2,55.6,85.2,55.6,85.2z"/>
							</g>
							<g>
								<path class="st3" d="M57.7,82.6c0,0-0.1,0-0.1-0.1c0-0.1,0-0.1,0.1-0.2c2.7-1.5,3.2-3.9,3.3-3.9c0-0.1,0.1-0.1,0.2-0.1
									c0.1,0,0.1,0.1,0.1,0.2C61.2,78.6,60.6,81.1,57.7,82.6C57.8,82.6,57.7,82.6,57.7,82.6z"/>
							</g>
						</g>
					</g>
				</g>
				<g>
					<g>
						<g>
							<path class="st15" d="M63.5,50.1c0,0,0.9-1,1.5-0.1c0.6,0.9-0.4,3.4-1.9,2.7L63.5,50.1z"/>
							<path class="st5" d="M63.8,52.5c0,0.2,0.1,0.3,0.3,0.3c0.2,0,0.3-0.1,0.3-0.3c0-0.2-0.1-0.3-0.3-0.3
								C63.9,52.3,63.8,52.4,63.8,52.5z"/>
							<g>
								<path class="st18" d="M63.4,51.9c0.1,0,0.1,0,0.1-0.1c0.3-0.8,1.1-1.1,1.2-1.1c0.1,0,0.1-0.1,0.1-0.2s-0.1-0.1-0.2-0.1
									c0,0-1,0.3-1.3,1.2C63.3,51.8,63.3,51.9,63.4,51.9C63.4,51.9,63.4,51.9,63.4,51.9z"/>
							</g>
							<g>
								<path class="st18" d="M64.3,51.5C64.4,51.5,64.4,51.5,64.3,51.5c0.1,0,0.1-0.1,0.1-0.2c0,0-0.1-0.2-0.5-0.4
									c-0.1,0-0.1,0-0.2,0.1c0,0.1,0,0.1,0.1,0.2c0.2,0.1,0.4,0.3,0.4,0.3C64.3,51.5,64.3,51.5,64.3,51.5z"/>
							</g>
						</g>
						<path class="st14" d="M56.9,55.1l-0.1,2.8c0,0,1.4,1.5,2.5,1.7c1.1,0.2,1.6-1.2,1.6-1.2l0.1-2.9L56.9,55.1z"/>
						<path class="st15" d="M56.9,55.4l-0.1,1.3c0.7,0.9,2.1,1.2,4.1,1l0.1-1.9L56.9,55.4z"/>
						<path class="st14" d="M64,51.3c-0.1,0.3-0.1,0.6-0.2,0.9c-0.5,2-1.9,4.2-3.5,4.5c-3.6,0.6-4.9-2.2-5.4-4.3
							c-0.1-0.2,0.1-0.5,0-0.8c-0.1-0.6-0.3-1.4-0.3-2.1c0-0.5,0-1,0-1.4c0-1.2,0.8-2.3,1.9-2.7c1.6-0.6,4.1-1,6.4,0.5
							c0.8,0.5,1.3,1.5,1.3,2.5C64.2,49.2,64.1,50.2,64,51.3z"/>
						<g>
							<path class="st15" d="M59.6,52.7c-0.1,0-0.1-0.1-0.1-0.1c0-0.1,0-0.1,0.1-0.2l0.5-0.1l-0.6-1.8c0-0.1,0-0.1,0.1-0.2
								c0.1,0,0.1,0,0.2,0.1l0.7,2.1L59.6,52.7C59.6,52.7,59.6,52.7,59.6,52.7z"/>
						</g>
						<path class="st4" d="M62.8,47.8c1.3,0.7,0.8,2.3,1.3,3.1c0,0.1,0.1,0.1,0.1,0c0.2-1.1,0.3-2.1,0.3-2.9c0-1-0.5-2-1.4-2.6
							c-2.4-1.5-5-1.1-6.7-0.5c-1.2,0.4-2,1.5-2,2.8c0,0.4,0,0.9,0,1.5c0.2,0.1,0.8,0.2,0.8,0.6c0,1,0,1.6,0.2,1.6
							c0.3-0.1,0.6-1.2,0.3-2c0,0,0.3-0.5,1.6-0.9c1.7-0.6,3.3-1.4,3.3-1.4s0.6-0.3,0.9-0.7C61.4,46.3,61.7,47.3,62.8,47.8z"/>
						<path class="st4" d="M61.3,50.5c0,0.3,0.1,0.6,0.3,0.6c0.2,0,0.4-0.2,0.4-0.5c0-0.3-0.1-0.6-0.3-0.6
							C61.5,49.9,61.3,50.2,61.3,50.5z"/>
						<path class="st4" d="M57.6,50.3c0,0.3,0.1,0.6,0.3,0.6c0.2,0,0.4-0.2,0.4-0.5c0-0.3-0.1-0.6-0.3-0.6
							C57.7,49.7,57.6,50,57.6,50.3z"/>
						<path class="st4" d="M62.7,49.1c-0.3-0.1-0.8-0.2-1.4-0.2c-0.2,0-0.3,0.1-0.3,0.2v0c0,0.1,0.1,0.2,0.2,0.2c0.4,0,1.5,0,2,0.2
							c0-0.1,0-0.1-0.1-0.2C63,49.2,62.8,49.1,62.7,49.1z"/>
						<path class="st4" d="M57.1,48.9c0.3,0,0.8-0.1,1.4-0.1c0.2,0,0.3,0.1,0.3,0.3v0c0,0.1-0.1,0.2-0.3,0.1c-0.4,0-1.5-0.1-2,0.1
							c0-0.1,0-0.1,0.1-0.2C56.8,49,56.9,48.9,57.1,48.9z"/>
						<path class="st5" d="M61.1,53.5c-0.1,0.5-0.5,1.3-1.6,1.3c-1.1-0.1-1.4-0.9-1.5-1.4L61.1,53.5z"/>
						<g>
							<path class="st15" d="M59.4,55.7c0.3,0,0.6-0.1,0.6-0.2c0.1,0,0.1-0.1,0.1-0.2s-0.1-0.1-0.2-0.1l0,0c0,0-0.2,0.1-0.5,0.1
								c-0.3,0-0.5-0.2-0.5-0.2c-0.1,0-0.1,0-0.2,0c0,0.1,0,0.1,0,0.2C58.8,55.5,59.1,55.6,59.4,55.7z"/>
						</g>
					</g>
					<g>
						<path class="st14" d="M55,49.7c0,0-0.9-1.2-1.5-0.4c-0.6,0.8,0.1,3.3,1.5,2.8L55,49.7z"/>
						<path class="st5" d="M54.2,52.1c0,0.2,0.1,0.3,0.3,0.3c0.2,0,0.3-0.1,0.3-0.3s-0.1-0.3-0.3-0.3C54.3,51.8,54.2,51.9,54.2,52.1
							z"/>
						<g>
							<path class="st15" d="M54.8,51.3c-0.1,0-0.1,0-0.1-0.1c-0.2-0.8-1-1.1-1-1.1c-0.1,0-0.1-0.1-0.1-0.2c0-0.1,0.1-0.1,0.2-0.1
								c0,0,0.9,0.4,1.1,1.3C54.9,51.2,54.9,51.3,54.8,51.3C54.8,51.3,54.8,51.3,54.8,51.3z"/>
						</g>
						<g>
							<g>
								<path class="st15" d="M54,50.9C54,50.9,53.9,50.8,54,50.9c-0.1-0.1-0.1-0.1-0.1-0.2c0,0,0.2-0.2,0.5-0.3
									c0.1,0,0.1,0,0.2,0.1c0,0.1,0,0.1-0.1,0.2c-0.2,0.1-0.4,0.3-0.4,0.3C54.1,50.8,54,50.9,54,50.9z"/>
							</g>
						</g>
					</g>
				</g>
			</g>
			<g>
				<path class="st7" d="M73.2,76.5l3.3,2.7c0.4,0.3,1,0.3,1.4-0.1l7-8.2l2.9-3.4l-4.7-4l-1.7,2l-8.1,9.6
					C72.7,75.5,72.8,76.1,73.2,76.5z"/>
				<path class="st9" d="M81.2,65.4c0.6,1.6,1.7,3.7,3.6,5.4l2.9-3.4l-4.7-4L81.2,65.4z"/>
				<path class="st4" d="M62.1,92.2l0.6,0.5c0.6,0.5,1.6,0.5,2.1-0.2l11.4-13.5l-2.9-2.5L62,90.1C61.4,90.7,61.5,91.7,62.1,92.2z"/>
				<g>
					<path class="st4" d="M82.2,42.1c-6.3,7.3-5.4,18.4,1.9,24.6c7.3,6.3,18.4,5.4,24.6-1.9s5.4-18.4-1.9-24.6
						C99.5,33.9,88.4,34.7,82.2,42.1z M84.2,43.8c5.3-6.2,14.6-6.9,20.9-1.6c6.2,5.3,6.9,14.6,1.6,20.9c-5.3,6.2-14.6,6.9-20.9,1.6
						C79.6,59.4,78.9,50,84.2,43.8z"/>
					<path class="st27" d="M81.4,48.9C78.9,56.7,83.2,65,91,67.5c0.7,0.2,1.3,0.4,2,0.5c1.7,0.3,3.5,0.3,5.1,0
						c1.7-0.3,3.4-1,4.9-1.9c2.4-1.4,4.4-3.5,5.6-6.1c0.3-0.7,0.6-1.4,0.9-2.1c2.5-7.8-1.8-16.1-9.6-18.6c-0.7-0.2-1.5-0.4-2.2-0.5
						c-2.9-0.4-5.7,0-8.2,1.1c-1.6,0.7-3.1,1.7-4.4,2.9c-1.2,1.2-2.2,2.6-3,4.2C81.8,47.6,81.6,48.3,81.4,48.9z"/>
					<path class="st27" d="M89.5,39.9L103,66.1c2.4-1.4,4.4-3.5,5.6-6.1l-11-21.2C94.9,38.4,92,38.8,89.5,39.9z"/>
					<path class="st27" d="M82.1,47L93,68c1.7,0.3,3.5,0.3,5.1,0l-13-25.1C83.9,44,82.9,45.4,82.1,47z"/>
				</g>
			</g>
			<g>
				<path class="st14" d="M65.7,83.5l0.6,0c0.5,0,1-0.3,1.2-0.7c0.1-0.2,0.3-0.6,0.4-0.7c0.3-0.4,1.1-0.9,1.4-1c0.3,0,0.2,0.5,0,0.7
					c-0.2,0.2-0.5,0.5-0.7,0.8c-0.2,0.3,1.3,1.1,2,1.2c0.6,0.2,1.8-0.1,1.8,0.4c0.1,0.5-0.8,0.6-0.8,0.6s0.2,0.5-0.5,0.8
					c0,0,0.1,0.5-0.4,0.7c0,0,0,0.6-0.5,0.7c-0.5,0.1-2.2,0.5-5.3-1.6L65.7,83.5z"/>
				<g>
					<g>
						<g>
							<g>
								<path class="st3" d="M55.1,69.5c0.4,3.9,2,6.8,2,6.8s1.6,2,4.3,4c1.9,1.4,4.9,3.2,4.9,3.2c-0.6,0.7-1,2-0.8,2.4
									C59.6,84.3,54,79.1,54,79.1c-4.3-5.6-3.7-17.5-3.7-17.5s0.2-1.8,1.2-2.2c0,0,1.9,0.8,2.5,3.1C54.5,64.9,55.1,69.5,55.1,69.5
									z"/>
							</g>
						</g>
					</g>
				</g>
			</g>
			<path class="st14" d="M84.5,71.6c0,0-1.4-0.6-2.1-0.3c-0.7,0.2,1.1,1.3,1.1,1.3s-2.2-1.3-2.6-0.8c-0.4,0.5,1.6,1.8,1.6,1.8
				s-1.6-0.6-1.9-0.3c-0.3,0.3,1.1,1.3,1.1,1.3s-1.3-0.4-1.6-0.2c-0.3,0.2,0.8,1.2,1.6,1.5c0.7,0.3,0.9-0.8,0.9-0.8s0.7-0.6,0.7-1
				c0,0,0.8-0.5,0.8-1C84.1,73.1,85.2,72.2,84.5,71.6z"/>
		</g>
	</g>
	<g id="DESIGNED_BY_FREEPIK">
	</g>
</g>
</svg>
