<?xml version="1.0" encoding="utf-8"?>
<!-- Generator: Adobe Illustrator 25.4.1, SVG Export Plug-In . SVG Version: 6.00 Build 0)  -->
<svg version="1.1" id="Illustration" xmlns="http://www.w3.org/2000/svg" xmlns:xlink="http://www.w3.org/1999/xlink" x="0px"
	 y="0px" viewBox="0 0 225 150" style="enable-background:new 0 0 225 150;" xml:space="preserve">
<style type="text/css">
	.st0{fill:url(#SVGID_1_);}
	.st1{opacity:0.77;}
	.st2{fill:#91B0FA;}
	.st3{opacity:0.5;fill:#FFFFFF;enable-background:new    ;}
	.st4{fill:#FFB980;}
	.st5{fill:#FFFFFF;}
	.st6{fill:#BDCEFB;}
	.st7{fill:#052669;}
	.st8{opacity:0.6;fill:#FFFFFF;enable-background:new    ;}
	.st9{fill:#0A0A0A;}
	.st10{fill:#7D95F4;}
	.st11{fill:url(#SVGID_00000145771370445969899990000000503409661148923293_);}
	.st12{fill:#EF7F1A;}
	.st13{fill:url(#SVGID_00000030456585966291976880000017719066516217513375_);}
	.st14{fill:url(#SVGID_00000172423263909175785630000011386918504819559358_);}
	.st15{fill:url(#SVGID_00000050638595864757462990000017879050789021042343_);}
	.st16{fill:url(#SVGID_00000080176670829609342560000007804232825358182275_);}
	.st17{fill:url(#SVGID_00000124134948630736966270000000897300913216838063_);}
	.st18{fill:url(#SVGID_00000070816061652928588660000015832187605510911647_);}
	.st19{fill:url(#SVGID_00000170969699427686257830000013668624955900290238_);}
	.st20{fill:url(#SVGID_00000029045573989058909900000001843573152756577435_);}
	.st21{fill:url(#SVGID_00000182505382082239653490000001353700029881394847_);}
	.st22{fill:url(#SVGID_00000150061972755774400060000012358385686691946890_);}
	.st23{fill:url(#SVGID_00000098916565494575245620000007111743369949932935_);}
	.st24{fill:url(#SVGID_00000157284972599036340870000009730633755759148731_);}
	.st25{fill:url(#SVGID_00000044177994173198158120000015384480896068946833_);}
	.st26{fill:url(#SVGID_00000083783719131076136850000001389099447784534174_);}
	.st27{fill:url(#SVGID_00000178890482115135267270000000465206509020237996_);}
	.st28{fill:url(#SVGID_00000173873996794893409560000008558072575041195403_);}
	.st29{fill:url(#SVGID_00000059989700113860660970000008450463583805231757_);}
	.st30{fill:url(#SVGID_00000042012131481902387440000003213998125593832349_);}
	.st31{fill:url(#SVGID_00000171692458565310348380000001426462895290447281_);}
	.st32{fill:url(#SVGID_00000018237586550399596320000011338963297737816754_);}
	.st33{fill:url(#SVGID_00000101091109874484617970000012169493567521683840_);}
	.st34{fill:url(#SVGID_00000090982196096386372650000016979001509353262227_);}
	.st35{fill:url(#SVGID_00000155856603494733492900000009468330298559429297_);}
</style>
<g>
	
		<linearGradient id="SVGID_1_" gradientUnits="userSpaceOnUse" x1="196.8345" y1="-18.2179" x2="96.6587" y2="88.4208" gradientTransform="matrix(1 0 0 -1 0 150)">
		<stop  offset="0" style="stop-color:#DAE2FE"/>
		<stop  offset="1" style="stop-color:#E9EEFD"/>
	</linearGradient>
	<path class="st0" d="M166.8,125.4c-3.7,3.8-7,6.1-9.5,7.7c-24.7,16.5-53,11.7-61.7,10.1c-14.1-2.6-26-4.5-36.2-13.7
		c-23.2-21-22.1-64.7-4.3-91.8c2.1-3.2,19.8-29.5,48.1-33.2c0.7-0.1,1.2-0.1,1.7-0.2c4.4-0.5,31.5-2.9,53.6,15.6
		c3.2,2.7,8.3,7.4,13,14.7C188.7,61.4,188.7,102.8,166.8,125.4z"/>
	<g class="st1">
		<path class="st2" d="M167.1,32.4c4.9,9.5,31.3,65.8-16.4,96.9c0,0-26.8-33.2,14.8-97.1C166,31.7,166.8,31.8,167.1,32.4z"/>
		<path class="st3" d="M165.5,42.7c0.4,3.5,0.7,7.1,1,10.6c0.2,3.5,0.4,7,0.5,10.5c0.2,7,0,14-0.6,20.8c-0.3,3.4-0.7,6.8-1.1,10.2
			c-0.5,3.4-1.1,6.7-1.9,10c-0.8,3.3-1.7,6.5-2.7,9.6c-1.1,3.1-2.4,6.1-3.8,9c-0.1,0.2-0.3,0.2-0.5,0.1c-0.2-0.1-0.2-0.3-0.2-0.5
			l0,0l0,0c1.5-2.8,2.7-5.8,3.9-8.9c1.1-3.1,2-6.3,2.8-9.5c0.8-3.2,1.4-6.5,1.9-9.9c0.5-3.3,0.9-6.7,1.2-10.1
			c0.6-6.8,0.8-13.8,0.7-20.8c-0.1-3.5-0.2-7-0.4-10.5c-0.2-3.5-0.5-7.1-0.9-10.6l0,0c0-0.1,0-0.1,0.1-0.1
			C165.4,42.5,165.5,42.6,165.5,42.7z"/>
	</g>
	<g>
		<path class="st4" d="M56.1,7.7c-0.2-0.7,0.6-1.3,1.2-0.9c6.1,4.6,21.2,18.7,21,46.3c-0.3,34.7,8.3,46.3,18,52.9
			c0,0-12.6-2.2-21.7-14C52.3,63.1,60.2,20.4,56.1,7.7z"/>
		<path class="st5" d="M61.5,17.9c1.1,3.7,2.2,7.5,3.1,11.3c0.9,3.8,1.8,7.6,2.5,11.4c0.7,3.8,1.3,7.7,1.7,11.5
			c0.5,3.9,0.8,7.7,1.1,11.6c0.3,3.9,0.6,7.8,1.3,11.7c0.7,3.9,1.8,7.8,3.7,11.3c0.5,0.9,0.9,1.8,1.5,2.6c0.5,0.9,1.1,1.7,1.6,2.5
			c1.1,1.6,2.4,3.2,3.7,4.7c2.7,2.9,5.9,5.4,9.2,7.5c0.4,0.2,0.8,0.1,1-0.3c0.2-0.3,0.1-0.8-0.2-1l0,0c-0.8-0.5-1.6-1-2.4-1.6
			c-0.4-0.3-0.8-0.6-1.2-0.8c-0.4-0.3-0.8-0.6-1.1-0.9c-1.5-1.2-2.9-2.5-4.2-3.9c-2.6-2.8-4.8-6-6.5-9.4c-0.9-1.7-1.6-3.5-2.2-5.3
			c-0.6-1.8-1-3.7-1.4-5.6c-0.7-3.8-1-7.7-1.4-11.5c-0.3-3.9-0.7-7.8-1.2-11.7c-0.3-1.9-0.6-3.9-0.9-5.8c-0.2-1-0.3-1.9-0.5-2.9
			c-0.2-1-0.4-1.9-0.6-2.9c-0.8-3.8-1.7-7.6-2.8-11.4c-1.1-3.8-2.2-7.5-3.5-11.2c0-0.1-0.2-0.2-0.3-0.1
			C61.5,17.7,61.5,17.8,61.5,17.9z"/>
	</g>
	<g>
		<g>
			<path class="st6" d="M78.5,115c-0.2,1.4-1.8,2-3,1.3c-6.5-4.1-23.8-17.3-26.9-43.6c-2.6-22.2-6.2-34-8.2-39.2
				c-0.4-1.1,0.8-2.1,1.8-1.5C53.3,39.1,87.3,65.5,78.5,115z"/>
			<path class="st5" d="M76.7,115.4C76.7,115.4,76.6,115.4,76.7,115.4c-0.3,0.2-0.7,0.2-0.8-0.1c-0.2-0.3-18.3-29-23.3-59.7
				c0-0.3,0.2-0.6,0.4-0.6c0.3,0,0.6,0.2,0.6,0.4c5,30.5,23,59,23.2,59.3C76.9,114.9,76.9,115.2,76.7,115.4z"/>
		</g>
	</g>
	<g>
		<path class="st7" d="M72.4,29.6c0-4.7,3.8-8.5,8.5-8.5h72.4c4,0,7.3,3.1,7.5,7.1l5.3,104.9c0.2,3.1-2.3,5.8-5.4,5.8l-82.9,1.5
			c-2.9,0.1-5.3-2.3-5.3-5.2L72.4,29.6L72.4,29.6z"/>
		<path class="st5" d="M89.9,138.7C89.9,138.7,89.9,138.7,89.9,138.7l-9.3-0.1c-3.1,0-5.6-2.6-5.6-5.7v-14c0-0.1,0.1-0.2,0.2-0.2
			c0.1,0,0.2,0.1,0.2,0.2v14c0,2.9,2.3,5.3,5.2,5.3l9.3,0.1c0.1,0,0.2,0.1,0.2,0.2C90.1,138.6,90,138.7,89.9,138.7z"/>
		<path class="st5" d="M75.2,114.7c-0.1,0-0.2-0.1-0.2-0.2v-2.3c0-0.1,0.1-0.2,0.2-0.2c0.1,0,0.2,0.1,0.2,0.2v2.3
			C75.4,114.6,75.3,114.7,75.2,114.7z"/>
		<g>
			<path class="st2" d="M78.3,22.7c0-1.5,1.3-2.7,2.8-2.5c9.9,1.3,43.9,5.5,72,3.3c1.3-0.1,2.4,0.9,2.5,2.2l5.6,105.4
				c0.1,1.4-1,2.7-2.5,2.8c-11.8,0.7-60.5,3.4-77.8,1.6c-1.1-0.1-1.9-1-1.9-2.1L78.3,22.7z"/>
			<path class="st8" d="M79.5,25.4c0-1.4,1.3-2.6,2.7-2.4c9.5,1.3,42.2,5.3,69.2,3.2c1.2-0.1,2.3,0.8,2.4,2.1l5.4,101.4
				c0.1,1.4-1,2.6-2.4,2.7c-11.4,0.7-58.2,3.3-74.9,1.5c-1-0.1-1.8-1-1.8-2L79.5,25.4z"/>
			<g>
				<path class="st2" d="M80.6,96.9c0.2,0.6,1,1,1.8,1l68.3-0.4c0.8,0,1.4-0.4,1.4-1c0-0.5-0.6-0.9-1.4-0.9l-68.3-0.2
					C81.2,95.3,80.3,96.1,80.6,96.9z"/>
				<path class="st2" d="M80.6,108c0.2,0.6,1,1,1.8,1l68.3-0.4c0.8,0,1.4-0.4,1.4-1c0-0.5-0.6-0.9-1.4-0.9l-68.3-0.2
					C81.2,106.3,80.3,107.1,80.6,108z"/>
				<path class="st2" d="M80.6,119L80.6,119c0.1,0.6,0.5,1,0.9,1l33.9-0.4c0.4,0,0.7-0.4,0.7-1c0-0.5-0.3-0.9-0.7-0.9l-33.9-0.2
					C80.8,117.4,80.4,118.2,80.6,119z"/>
			</g>
			<g>
				<path class="st2" d="M87.9,52.8c0.2,0.6,0.8,1,1.5,1l58.4-0.4c0.7,0,1.2-0.4,1.2-1c0-0.5-0.5-0.9-1.2-0.9l-58.4-0.2
					C88.4,51.2,87.6,52,87.9,52.8z"/>
				<path class="st2" d="M87.8,63.8c0.1,0.6,0.4,1,0.7,1l28.6-0.4c0.3,0,0.6-0.4,0.6-1c0-0.5-0.3-0.9-0.6-0.9l-28.6-0.2
					C88.1,62.2,87.7,63,87.8,63.8z"/>
				<path class="st2" d="M87.9,74.9c0.2,0.6,0.8,1,1.5,1l58.4-0.4c0.7,0,1.2-0.4,1.2-1c0-0.5-0.5-0.9-1.2-0.9l-58.4-0.2
					C88.4,73.3,87.6,74.1,87.9,74.9z"/>
				<path class="st2" d="M87.8,85.9L87.8,85.9c0.1,0.6,0.4,1,0.8,1l30-0.4c0.3,0,0.6-0.4,0.6-1c0-0.5-0.3-0.9-0.6-0.9l-30-0.2
					C88.1,84.3,87.7,85.1,87.8,85.9z"/>
			</g>
			<g>
				<path class="st9" d="M101.5,43.5V33.1h1.9v8.7h2.7v1.7H101.5z"/>
				<path class="st9" d="M114.5,38.3c0,1.7-0.3,3.1-1,4c-0.6,0.9-1.6,1.4-2.8,1.4c-1.2,0-2.1-0.5-2.8-1.4c-0.6-0.9-1-2.3-1-4
					c0-1.7,0.3-3,1-4s1.6-1.4,2.8-1.4c1.2,0,2.1,0.5,2.8,1.4C114.2,35.3,114.5,36.6,114.5,38.3z M109,38.3c0,1.2,0.1,2.1,0.4,2.7
					c0.3,0.6,0.7,0.9,1.3,0.9c1.2,0,1.8-1.2,1.8-3.7c0-2.4-0.6-3.7-1.7-3.7c-0.6,0-1,0.3-1.3,0.9C109.2,36.2,109,37.1,109,38.3z"/>
				<path class="st9" d="M121,43.5l-0.6-2.6h-2.7l-0.6,2.6h-1.9l2.6-10.5h2.6l2.6,10.5H121z M120,39.2l-0.6-2.4
					c0-0.1-0.1-0.5-0.2-1.1c-0.1-0.6-0.2-1-0.2-1.2c-0.1,0.4-0.1,0.9-0.2,1.4c-0.1,0.5-0.3,1.6-0.7,3.4L120,39.2L120,39.2z"/>
				<path class="st9" d="M131.1,43.5h-2.4l-3.2-7.6h-0.1c0.1,0.6,0.2,1.2,0.2,1.9v5.7h-1.8V33.1h2.4l3.2,7.5h0.1
					c-0.1-0.5-0.1-1.1-0.1-1.8v-5.7h1.8V43.5z"/>
			</g>
		</g>
		<path class="st7" d="M121.6,6.8C119,5,116.7,5,115.1,5.5c-1.5,0.4-2.4,1.8-2.3,3.4l0.7,7.5l8.2,0.7
			C121.7,17.1,126.7,10.4,121.6,6.8z M118,12.9c-1.1,0-2-0.9-2-2c0-1.1,0.9-2,2-2c1.1,0,2,0.9,2,2S119.1,12.9,118,12.9z"/>
		<path class="st2" d="M114.3,13.2c-0.1,0-0.2-0.1-0.2-0.2l-0.1-1.2c0-0.1,0.1-0.2,0.2-0.2c0.1,0,0.2,0.1,0.2,0.2l0.1,1.2
			C114.5,13.1,114.5,13.2,114.3,13.2C114.3,13.2,114.3,13.2,114.3,13.2z M114.1,10.9c-0.1,0-0.2-0.1-0.2-0.2l-0.1-0.9
			c-0.1-1.4,0.8-2.8,2.2-3.2c1-0.3,2-0.3,3-0.1c0.1,0,0.2,0.1,0.2,0.2c0,0.1-0.1,0.2-0.2,0.2C118,6.6,117,6.7,116.1,7
			c-1.2,0.4-2,1.5-1.9,2.8l0.1,0.9C114.3,10.8,114.2,10.9,114.1,10.9C114.1,10.9,114.1,10.9,114.1,10.9z"/>
		<path class="st7" d="M102.3,21.2v-3.8c0-1.3,1.1-2.4,2.4-2.3l26.1,0.9c1.2,0,2.1,1,2.2,2.1l0.2,3.6L102.3,21.2z"/>
		<path class="st2" d="M112,16.6h-1.1c-0.1,0-0.2-0.1-0.2-0.2c0-0.1,0.1-0.2,0.2-0.2h1.1c0.1,0,0.2,0.1,0.2,0.2S112.2,16.6,112,16.6
			z"/>
		<path class="st2" d="M103.7,20.1c-0.1,0-0.2-0.1-0.2-0.2v-1.5c0-1.2,1-2.1,2.1-2.1h4.1c0.1,0,0.2,0.1,0.2,0.2
			c0,0.1-0.1,0.2-0.2,0.2h-4.1c-1,0-1.7,0.8-1.7,1.7v1.5C103.9,20,103.8,20.1,103.7,20.1z"/>
		<path class="st10" d="M91.7,22.2c0.1-1.3,1.1-2.3,2.5-2.3l45.7,0c1.6,0,3,1.2,3.3,2.8l0,0.2c0.3,1.8-1.1,3.4-2.9,3.4H93.5
			c-1.1,0-1.9-0.9-1.9-2L91.7,22.2z"/>
		
			<linearGradient id="SVGID_00000027579536458686470350000007704321923902013627_" gradientUnits="userSpaceOnUse" x1="152.3215" y1="64.7887" x2="114.9297" y2="6.3531" gradientTransform="matrix(1 0 0 -1 0 150)">
			<stop  offset="0" style="stop-color:#4F4FFF"/>
			<stop  offset="1" style="stop-color:#4040E2"/>
		</linearGradient>
		<path style="fill:url(#SVGID_00000027579536458686470350000007704321923902013627_);" d="M113.7,126.5c0.2-3.1,1.3-6.2,3-8.9
			c0.8-1.3,1.8-2.6,2.9-3.7c0.3-0.3,0.6-0.6,0.9-0.8c0.3-0.3,0.6-0.5,0.9-0.8c0.3-0.2,0.6-0.5,1-0.7l0.5-0.3l0.2-0.2l0.1-0.1
			c0,0,0.1-0.1,0.2-0.1c0.9-0.5,2.1-0.5,3,0.3c0.2,0.2,0.4,0.5,0.5,0.7c0,0.1,0.1,0.2,0.1,0.4c0,0.1,0.1,0.2,0.1,0.4
			c0.1,0.5,0.1,0.9,0,1.3c0,0.2-0.1,0.4-0.1,0.6l-0.1,0.6c-0.1,0.4-0.2,0.8-0.2,1.1c-0.2,0.8-0.4,1.5-0.6,2.3
			c-0.8,3-1.9,5.9-3.2,8.7l-0.5,1c-0.2,0.3-0.4,0.7-0.5,1l-0.3,0.5l-0.1,0.3l-0.2,0.3c-0.2,0.4-0.4,0.7-0.7,1
			c-0.3,0.3-0.6,0.6-1,0.9c-0.4,0.3-0.9,0.5-1.4,0.5c-0.1,0-0.3,0-0.4,0c-0.1,0-0.3-0.1-0.4-0.1c-0.3-0.1-0.5-0.2-0.7-0.3
			c-0.4-0.3-0.7-0.7-0.9-1.2c-0.2-0.4-0.3-0.9-0.3-1.4c0-0.5,0.1-0.9,0.2-1.3c0.1-0.4,0.2-0.8,0.3-1.2l0.2-0.6l0.2-0.6
			c0.6-1.5,1.3-2.9,2.2-4.2c0.9-1.3,1.9-2.5,3.1-3.6l0.2-0.2l0.2-0.2l0.5-0.4c0.2-0.1,0.3-0.2,0.5-0.4c0.2-0.1,0.3-0.2,0.5-0.4
			c0.3-0.2,0.6-0.5,1-0.7l0.2-0.2l0.1-0.1c0,0,0,0,0.1,0l0.1,0c0.2-0.1,0.5-0.2,0.7-0.2c0.5-0.1,1,0.1,1.4,0.4
			c0.2,0.2,0.4,0.4,0.4,0.7c0.1,0.3,0.1,0.5,0.1,0.7c0,0.2-0.1,0.4-0.1,0.6l-0.2,0.6l-0.3,1.1c-0.4,1.5-0.8,3-1.3,4.4l0,0l-0.6-0.1
			c0-0.5,0.2-1,0.5-1.4c0.1-0.2,0.3-0.4,0.5-0.6c0.2-0.2,0.5-0.3,0.7-0.4c0.3-0.1,0.5-0.1,0.8-0.1c0.1,0,0.3,0.1,0.4,0.1
			c0.1,0,0.1,0.1,0.2,0.1l0.1,0.1c0.3,0.2,0.7,0.2,1,0.1c0.1,0,0.2-0.1,0.2-0.1c0,0,0.1-0.1,0.1-0.1l0,0l0.1-0.1l0.5-0.5l0.9-1
			l0.9-1l0.5-0.5c0.1-0.1,0.3-0.2,0.5-0.3c0.2,0,0.4,0,0.5,0.1c0.2,0.1,0.3,0.2,0.4,0.4c0.1,0.2,0.1,0.4,0.1,0.5c0,0,0,0.1,0,0.1
			c0,0,0,0.1,0,0.1l-0.1,0.2l-0.1,0.3c-0.1,0.4-0.3,0.9-0.4,1.3c-0.1,0.4-0.2,0.9-0.2,1.3c0,0.1,0,0.1,0,0.2l0,0.1c0,0,0,0.1,0,0.1
			c0,0,0,0.1,0,0.1c0,0.2,0.1,0.3,0.2,0.5c0.1,0.1,0.3,0.2,0.4,0.3c0.1,0,0.2,0.1,0.3,0.1c0.1,0,0.2,0,0.3,0c0.2,0,0.4-0.1,0.5-0.2
			l0.1,0l0.1,0l0.1-0.1l0.2-0.2c0.6-0.6,1.3-1.3,1.9-2c1.2-1.4,2.2-2.9,3.1-4.5l0.3-0.6l0.2-0.3l0.1-0.2l0,0c0,0,0,0,0,0
			c0,0,0,0,0,0c0,0,0,0,0,0c0,0,0,0,0,0c0,0,0,0,0,0c0,0,0,0,0,0l0,0l-0.1,0.1c0,0-0.1,0.1-0.1,0.1c-0.1,0.1-0.1,0.2-0.2,0.2
			c-0.3,0.3-0.6,0.7-0.8,1.1c-0.1,0.2-0.2,0.4-0.3,0.6c0,0.1-0.1,0.2-0.1,0.3l-0.1,0.2l0,0.1l0,0.1c-0.1,0.4-0.1,0.7,0,1.1
			c0.2,0.3,0.4,0.6,0.8,0.7c0.2,0.1,0.4,0.1,0.5,0.1c0.2,0,0.4,0,0.5-0.1l0.1-0.1l0.1-0.1c0.1-0.1,0.2-0.1,0.3-0.2
			c0.2-0.1,0.4-0.2,0.6-0.4c1.5-1,2.9-2.2,4-3.6l0,0c0.1-0.1,0.3-0.2,0.5-0.1c0.1,0.1,0.2,0.3,0.1,0.5c-1.2,1.5-2.6,2.8-4.1,3.8
			c-0.2,0.1-0.4,0.3-0.6,0.4c-0.1,0.1-0.2,0.1-0.3,0.2l-0.2,0.1l-0.2,0.1c-0.2,0.1-0.5,0.2-0.8,0.2c-0.3,0-0.6,0-0.8-0.1
			c-0.5-0.2-0.9-0.6-1.2-1.1c-0.2-0.5-0.2-1.1,0-1.6l0-0.1l0-0.1l0.1-0.2c0-0.1,0.1-0.2,0.2-0.3c0.1-0.2,0.2-0.4,0.4-0.6
			c0.2-0.4,0.5-0.8,0.8-1.2c0.1-0.1,0.2-0.2,0.2-0.3c0,0,0.1-0.1,0.1-0.1l0.1-0.1l0,0c0,0,0,0,0.1-0.1c0.1-0.1,0.2-0.1,0.3-0.1
			c0.1,0,0.2,0,0.3,0.1c0.2,0.1,0.3,0.3,0.3,0.6c0,0.1,0,0.1,0,0.2c0,0,0,0.1,0,0.1l0,0l-0.1,0.2l-0.2,0.3l-0.3,0.6
			c-0.9,1.6-2,3.1-3.2,4.6c-0.6,0.7-1.2,1.4-1.9,2l-0.2,0.2l-0.2,0.1l-0.1,0.1l-0.1,0.1c-0.2,0.2-0.5,0.2-0.8,0.3
			c-0.1,0-0.3,0-0.4,0c-0.1,0-0.3-0.1-0.4-0.1c-0.3-0.1-0.5-0.3-0.7-0.5c-0.2-0.2-0.3-0.5-0.4-0.7c0-0.1,0-0.1,0-0.2
			c0-0.1,0-0.1,0-0.2l0-0.2l0-0.2c0.1-0.5,0.1-0.9,0.2-1.4c0.1-0.5,0.2-0.9,0.4-1.4l0.1-0.3l0.1-0.2c0,0,0,0,0-0.1c0,0,0,0,0,0
			c0,0,0-0.1,0-0.1c0,0-0.1-0.1-0.1-0.1c-0.1,0-0.2,0-0.3,0.1l-0.5,0.5l-0.9,1l-0.9,1l-0.5,0.5l-0.1,0.1l-0.1,0.1
			c0,0.1-0.1,0.1-0.2,0.1c-0.1,0.1-0.2,0.2-0.4,0.2c-0.5,0.2-1.1,0.2-1.6-0.1l-0.2-0.1c0,0-0.1,0-0.1-0.1c-0.1,0-0.2-0.1-0.2-0.1
			c-0.2,0-0.4,0-0.5,0c-0.4,0.1-0.7,0.3-0.9,0.7c-0.2,0.3-0.3,0.7-0.4,1.2l-0.6-0.1l0,0c0.4-1.5,0.7-3,1.1-4.5l0.3-1.1l0.1-0.6
			c0-0.2,0.1-0.3,0.1-0.5c0-0.2,0-0.3,0-0.4c0-0.1-0.1-0.2-0.2-0.3c-0.2-0.2-0.5-0.2-0.7-0.2c-0.1,0-0.3,0.1-0.4,0.1l0,0l-0.1,0
			l-0.1,0.1l-0.2,0.2c-0.3,0.2-0.6,0.4-0.9,0.7c-0.2,0.1-0.3,0.2-0.4,0.3c-0.1,0.1-0.3,0.2-0.4,0.4l-0.4,0.4l-0.2,0.2l-0.2,0.2
			c-1.1,1-2.1,2.2-2.9,3.4c-0.8,1.2-1.5,2.6-2,4l-0.2,0.5l-0.2,0.5c-0.1,0.4-0.2,0.7-0.3,1.1c-0.2,0.7-0.2,1.3,0.1,1.9
			c0.1,0.3,0.3,0.5,0.5,0.6c0.1,0.1,0.2,0.1,0.3,0.1c0.1,0,0.2,0,0.4,0c0.2,0,0.5-0.1,0.7-0.3c0.2-0.2,0.5-0.4,0.7-0.7
			c0.2-0.3,0.4-0.6,0.6-0.9l0.1-0.2l0.1-0.3l0.3-0.5c0.2-0.3,0.3-0.7,0.5-1l0.5-1c1.3-2.8,2.3-5.6,3.1-8.5c0.2-0.7,0.4-1.5,0.5-2.2
			c0.1-0.4,0.2-0.7,0.2-1.1l0.1-0.6c0-0.2,0.1-0.3,0.1-0.5c0-0.3,0-0.7,0-1c0-0.3-0.1-0.5-0.3-0.6c-0.1-0.1-0.1-0.1-0.2-0.2
			c-0.1,0-0.2-0.1-0.3-0.1c-0.2,0-0.5,0-0.7,0.2c0,0-0.1,0-0.1,0.1l-0.1,0.1l-0.2,0.2l-0.5,0.3c-0.3,0.2-0.6,0.4-0.9,0.7
			c-0.3,0.2-0.6,0.5-0.9,0.7c-0.3,0.2-0.5,0.5-0.8,0.7c-1.1,1-2,2.2-2.9,3.4c-1.7,2.5-2.8,5.3-3.3,8.3c0,0.2-0.2,0.3-0.4,0.3
			C113.8,126.8,113.6,126.6,113.7,126.5z"/>
	</g>
	<g>
		<path class="st4" d="M62.2,66.6c0.8-1,3-1.1,4.8-2.4c0.1-0.1,0.3-0.2,0.4-0.3c3.2-1.5,6.5-1,8.9,0.5c0,0,0,0,0,0
			c1.8,1.5,4-0.7,7.1,1.2c0.1,0,0.1,0.1,0.1,0.2c-1.8,2.7-4.4,5.7-9.1,8.2c-0.1,0-0.2,0-0.2,0l-12-7C62.1,66.9,62.1,66.7,62.2,66.6z
			"/>
		<path class="st12" d="M67.9,76.8c-14.1,7.7-25.2,35.3-23,58c-2,12.8,73.7,19.3,60.2-16.5c-6.8-15-13.8-33.5-27.8-41.6L67.9,76.8z"
			/>
		<path class="st12" d="M67.3,76.5c-1.7-3.5-3.1-6.3-5.2-9.5c0,0,0-0.1,0.1-0.1c2.2,0.7,4.4,0.3,7.9-0.7c0,0,0,0,0,0
			c2-1.3,4.2-0.8,6.6,0.2c0,0,0,0,0,0c2.5,0.5,3.4,0.9,6.8-0.6c0,0,0.1,0,0.1,0.1c-2.6,3.2-4.7,6.7-6.4,10.4c0,0,0,0,0,0
			C77.5,78.1,67.5,78.5,67.3,76.5z"/>
		<g>
			<path class="st5" d="M70.6,129.3l-0.1-2.7c-2.8,0-5.6-0.6-7.6-1.4c-0.7-0.3-1.1-1.1-0.9-1.8l0.6-2.5c0.2-0.9,1.2-1.4,2.1-1.1
				c2,0.8,4.4,1.3,7,1.2c2.7-0.1,4.7-1.1,4.6-3c-0.1-1.7-1.7-2.7-5.4-3.5c-5.4-1.3-9.4-3.5-9.5-8.2c-0.1-4.3,2.9-7.6,8.2-8.7
				l-0.1-2.7c0-0.9,0.6-1.6,1.5-1.6l1.6-0.1c0.9,0,1.6,0.6,1.6,1.5l0.1,2.4c2.6,0,4.5,0.4,6,0.9c0.8,0.2,1.2,1.1,1,1.9l-0.5,2.3
				c-0.2,0.9-1.2,1.4-2,1.1c-1.4-0.5-3.4-1-5.9-0.9c-3.2,0.1-4.1,1.5-4,2.7c0.1,1.5,2,2.4,6.2,3.5c6,1.6,8.6,4,8.7,8.4
				c0.1,4.1-2.8,7.9-8.6,9l0.1,3c0,0.9-0.6,1.6-1.5,1.6l-1.6,0.1C71.3,130.8,70.6,130.1,70.6,129.3z"/>
		</g>
		<path class="st4" d="M71.9,78.8c-1.2,0-3.4-0.1-4.7-0.9c-1-0.6-1-1.3-0.9-1.6c0.1-0.3,0.3-0.5,0.7-0.4c0.3,0,0.5,0.3,0.5,0.6
			c0,0.1-0.1,0.3,0.4,0.6c0.8,0.5,2.5,0.7,4.5,0.7c1.9,0,3.7-0.4,4.5-0.8c0.3-0.2,0.4-0.3,0.4-0.5c-0.1-0.3,0.2-0.5,0.5-0.6
			c0.3,0,0.6,0.1,0.7,0.4c0.1,0.3,0,0.9-0.9,1.5c-1,0.6-2.9,1-5.1,1C72.2,78.8,72,78.8,71.9,78.8z"/>
	</g>
	<g>
		<g>
			
				<linearGradient id="SVGID_00000127760387113923094730000005082584444766009476_" gradientUnits="userSpaceOnUse" x1="186.8672" y1="138.5908" x2="175.3888" y2="78.0682" gradientTransform="matrix(1 0 0 -1 0 150)">
				<stop  offset="0" style="stop-color:#FF938E"/>
				<stop  offset="1" style="stop-color:#EF7F1A"/>
			</linearGradient>
			<path style="fill:url(#SVGID_00000127760387113923094730000005082584444766009476_);" d="M176.7,62c-1,3.1-2.8,4.3-4.3,3.8
				c-1.5-0.5-2.3-2.5-1.4-5.3c0.9-2.8,2.6-4.3,4.3-3.7C177,57.3,177.5,59.4,176.7,62z M170.4,72l11.1-13.3l1.2,0.4l-11.1,13.3
				L170.4,72z M172.6,60.9c-0.6,1.7-0.5,3.1,0.3,3.4c0.8,0.3,1.6-0.8,2.2-2.6c0.5-1.6,0.6-3.1-0.3-3.3
				C173.9,58.1,173.1,59.3,172.6,60.9z M182.2,70.5c-1,3.1-2.8,4.3-4.3,3.8c-1.5-0.5-2.3-2.5-1.4-5.3c0.9-2.8,2.6-4.3,4.3-3.7
				C182.6,65.8,183.1,67.9,182.2,70.5z M178.1,69.4c-0.5,1.7-0.5,3.1,0.3,3.4c0.8,0.3,1.6-0.8,2.2-2.6c0.5-1.7,0.6-3.1-0.3-3.3
				C179.5,66.6,178.7,67.8,178.1,69.4z"/>
		</g>
		<g>
			
				<linearGradient id="SVGID_00000058547974171894315700000010818447354386032796_" gradientUnits="userSpaceOnUse" x1="176.3907" y1="140.5777" x2="164.9123" y2="80.0552" gradientTransform="matrix(1 0 0 -1 0 150)">
				<stop  offset="0" style="stop-color:#FF938E"/>
				<stop  offset="1" style="stop-color:#EF7F1A"/>
			</linearGradient>
			<path style="fill:url(#SVGID_00000058547974171894315700000010818447354386032796_);" d="M165.1,65.8h-1.9v-1.5h1.9v-2.7h1.4v2.7
				h1.9v1.5h-1.9v2.7h-1.4V65.8z"/>
		</g>
	</g>
	<g>
		<g>
			<g>
				
					<linearGradient id="SVGID_00000001662202499003336230000016282455244229439380_" gradientUnits="userSpaceOnUse" x1="2696.2649" y1="4.4009" x2="2703.9814" y2="4.4009" gradientTransform="matrix(-1 0 0 -1 2853.0586 150)">
					<stop  offset="0" style="stop-color:#4F4FFF"/>
					<stop  offset="1" style="stop-color:#4040E2"/>
				</linearGradient>
				<path style="fill:url(#SVGID_00000001662202499003336230000016282455244229439380_);" d="M149.3,145.2c1.3,0.1,3.6,0.3,5.4,0.4
					c1.1,0,1.7-0.1,2.1-0.2c0,0,0,0.1,0,0.1c0,0.2-0.2,0.3-0.4,0.4c-3.4,0.2-6.1,0.1-7.1,0c-0.2,0-0.3-0.2-0.2-0.4
					C149.2,145.4,149.2,145.3,149.3,145.2z"/>
				
					<linearGradient id="SVGID_00000038380206885404127780000002597711494221351850_" gradientUnits="userSpaceOnUse" x1="2696.2644" y1="5.9133" x2="2703.7634" y2="5.9133" gradientTransform="matrix(-1 0 0 -1 2853.0586 150)">
					<stop  offset="0" style="stop-color:#052669"/>
					<stop  offset="1" style="stop-color:#1C0F91"/>
				</linearGradient>
				<path style="fill:url(#SVGID_00000038380206885404127780000002597711494221351850_);" d="M154.7,145.6c-1.8-0.1-4.1-0.3-5.4-0.4
					c1.3-1.6,5.4-2.7,5.4-2.7h1.2c0.8,1.2,0.9,2.3,0.9,2.8C156.4,145.5,155.8,145.7,154.7,145.6z"/>
				
					<linearGradient id="SVGID_00000176758987105876382740000016661785028826053291_" gradientUnits="userSpaceOnUse" x1="2696.9775" y1="8.0251" x2="2699.1509" y2="8.0251" gradientTransform="matrix(-1 0 0 -1 2853.0586 150)">
					<stop  offset="0" style="stop-color:#FEBCBA"/>
					<stop  offset="1" style="stop-color:#FF938E"/>
				</linearGradient>
				<path style="fill:url(#SVGID_00000176758987105876382740000016661785028826053291_);" d="M156.1,140.7l-0.1,2.2
					c0,0.2-0.2,0.4-0.4,0.5c-0.2,0-0.5,0-0.9-0.1c-0.2-0.1-0.4-0.2-0.4-0.4l-0.4-2.1L156.1,140.7L156.1,140.7z"/>
			</g>
			<g>
				<g>
					
						<linearGradient id="SVGID_00000032620448320401480130000014236695957588990398_" gradientUnits="userSpaceOnUse" x1="2680.8821" y1="4.5671" x2="2683.8389" y2="4.5671" gradientTransform="matrix(-1 0 0 -1 2853.0586 150)">
						<stop  offset="0" style="stop-color:#4F4FFF"/>
						<stop  offset="1" style="stop-color:#4040E2"/>
					</linearGradient>
					<path style="fill:url(#SVGID_00000032620448320401480130000014236695957588990398_);" d="M171.2,145.6c0.6-0.1,0.8-0.4,0.9-0.7
						c0,0,0,0,0,0c0.1,0.3-0.1,0.7-0.5,0.8c-0.5,0.2-1,0.2-1.4,0.2c-0.4,0-0.8-0.2-1-0.5l0,0C169.7,145.7,170.3,145.7,171.2,145.6z"
						/>
					
						<linearGradient id="SVGID_00000158732702569423713410000009840336417361716123_" gradientUnits="userSpaceOnUse" x1="2680.9028" y1="6.8447" x2="2685.2434" y2="6.8447" gradientTransform="matrix(-1 0 0 -1 2853.0586 150)">
						<stop  offset="0" style="stop-color:#052669"/>
						<stop  offset="1" style="stop-color:#1C0F91"/>
					</linearGradient>
					<path style="fill:url(#SVGID_00000158732702569423713410000009840336417361716123_);" d="M168.5,140.6h1c1.5,0,2.4,3.1,2.7,4.3
						c-0.1,0.3-0.4,0.6-0.9,0.7c-1,0.1-1.6,0.1-2-0.1c-0.8-1-1.2-2.6-1.4-3.5C167.6,141,168.5,140.6,168.5,140.6z"/>
				</g>
				
					<linearGradient id="SVGID_00000145738627245274484720000016988812958935602617_" gradientUnits="userSpaceOnUse" x1="2683.1589" y1="9.8371" x2="2685.7561" y2="9.8371" gradientTransform="matrix(-1 0 0 -1 2853.0586 150)">
					<stop  offset="0" style="stop-color:#FEBCBA"/>
					<stop  offset="1" style="stop-color:#FF938E"/>
				</linearGradient>
				<path style="fill:url(#SVGID_00000145738627245274484720000016988812958935602617_);" d="M169.3,138.6l0.5,2.1
					c0.1,0.3-0.1,0.5-0.3,0.7c-0.3,0.2-0.7,0.3-1.1,0.3c-0.2,0-0.3-0.1-0.4-0.3l-0.8-2.2L169.3,138.6z"/>
			</g>
			
				<linearGradient id="SVGID_00000033336380768230426900000010475839181182044331_" gradientUnits="userSpaceOnUse" x1="2703.2449" y1="33.7705" x2="2674.4905" y2="-8.1349" gradientTransform="matrix(-1 0 0 -1 2853.0586 150)">
				<stop  offset="0" style="stop-color:#4F4FFF"/>
				<stop  offset="1" style="stop-color:#4040E2"/>
			</linearGradient>
			<path style="fill:url(#SVGID_00000033336380768230426900000010475839181182044331_);" d="M170,139.3c-0.7,0.6-2.8,0.7-2.8,0.7
				c-7.8-18.7-11-21.3-11-21.3c1.1,7,0.2,22.6,0.2,22.6c-1.3,0.6-2.9,0-2.9,0c-0.1-11.5-1.9-21.6-4-29.5c5.3-0.1,8.1-1.9,9-2.6
				C162.8,116.1,170,139.3,170,139.3z"/>
			
				<linearGradient id="SVGID_00000153685544744818431170000002119576458071946886_" gradientUnits="userSpaceOnUse" x1="2812.355" y1="342.6425" x2="2801.3403" y2="314.0045" gradientTransform="matrix(-1 0 0 -1 2853.0586 150)">
				<stop  offset="0" style="stop-color:#FF938E"/>
				<stop  offset="1" style="stop-color:#EF7F1A"/>
			</linearGradient>
			<path style="fill:url(#SVGID_00000153685544744818431170000002119576458071946886_);" d="M157.1,87.6c1,5,0.6,13.8,0.4,17.9
				c-0.1,1.1,0.7,2.7,1.4,3.8c0.1,0.2,0,0.4-0.1,0.5c-1.1,0.6-4.7,2.3-8.9,2.5c-0.3,0-0.5-0.2-0.6-0.5c-2.7-10-5.7-16.9-6.6-18.7
				c-0.1-0.3-0.1-0.7,0.1-0.9C146.9,86.3,157.1,87.6,157.1,87.6z"/>
			
				<linearGradient id="SVGID_00000047740539924051222990000000960046984221720252_" gradientUnits="userSpaceOnUse" x1="161.4302" y1="50.3924" x2="155.7489" y2="37.0589" gradientTransform="matrix(1 0 0 -1 0 150)">
				<stop  offset="0" style="stop-color:#4F4FFF"/>
				<stop  offset="1" style="stop-color:#4040E2"/>
			</linearGradient>
			<path style="fill:url(#SVGID_00000047740539924051222990000000960046984221720252_);" d="M155.7,118.2c0,0,0.1,0,0.1,0
				c0.1-0.1,0.2-0.2,0.1-0.3c0-0.1-1-1.7-3.1-2.7c-0.1-0.1-0.3,0-0.3,0.1c-0.1,0.1,0,0.3,0.1,0.3c1.9,0.9,2.9,2.5,2.9,2.5
				C155.5,118.1,155.6,118.2,155.7,118.2z"/>
			<g>
				
					<linearGradient id="SVGID_00000065764514826528764870000002904662158542230202_" gradientUnits="userSpaceOnUse" x1="2695.0598" y1="47.7011" x2="2685.8127" y2="39.5125" gradientTransform="matrix(-1 0 0 -1 2853.0586 150)">
					<stop  offset="0" style="stop-color:#FEBCBA"/>
					<stop  offset="1" style="stop-color:#FF938E"/>
				</linearGradient>
				<path style="fill:url(#SVGID_00000065764514826528764870000002904662158542230202_);" d="M163.3,101.9c-0.3,2.3-1.3,4.8-3.2,7.5
					l-0.7-0.6c0,0,0.8-3.4,0.4-7.2C161,101.4,162.4,101.6,163.3,101.9z"/>
				
					<linearGradient id="SVGID_00000104687827000500339830000004401250580873541022_" gradientUnits="userSpaceOnUse" x1="2805.2434" y1="345.3781" x2="2794.2285" y2="316.7399" gradientTransform="matrix(-1 0 0 -1 2853.0586 150)">
					<stop  offset="0" style="stop-color:#FF938E"/>
					<stop  offset="1" style="stop-color:#EF7F1A"/>
				</linearGradient>
				<path style="fill:url(#SVGID_00000104687827000500339830000004401250580873541022_);" d="M156,93.7l1.1-6.1
					c0,0,7.4,5.7,6.2,14.2c-1-0.2-2.3-0.5-3.5-0.3C159.5,98.9,158.5,95.9,156,93.7z"/>
			</g>
			<g>
				
					<linearGradient id="SVGID_00000143582023823432303100000013500138746351136180_" gradientUnits="userSpaceOnUse" x1="2173.2563" y1="573.1768" x2="2162.2419" y2="544.5391" gradientTransform="matrix(-0.8934 0.4493 -0.4493 -0.8934 1995.8104 -680.6304)">
					<stop  offset="0" style="stop-color:#FF938E"/>
					<stop  offset="1" style="stop-color:#EF7F1A"/>
				</linearGradient>
				<path style="fill:url(#SVGID_00000143582023823432303100000013500138746351136180_);" d="M142.7,93.2l6.9,7.5
					c1.3,3.5,0.2,5.9-1.5,7.4c-0.9-1.5-1.9-2.5-2.7-3.2C146.6,101.1,142.7,93.2,142.7,93.2z"/>
				
					<linearGradient id="SVGID_00000157269958895248990900000011105846253799376268_" gradientUnits="userSpaceOnUse" x1="2005.0437" y1="127.112" x2="2012.7039" y2="127.112" gradientTransform="matrix(-0.8934 0.4493 -0.4493 -0.8934 1995.8104 -680.6304)">
					<stop  offset="0" style="stop-color:#FEBCBA"/>
					<stop  offset="1" style="stop-color:#FF938E"/>
				</linearGradient>
				<path style="fill:url(#SVGID_00000157269958895248990900000011105846253799376268_);" d="M145.4,104.9c0.8,0.7,1.8,1.7,2.7,3.2
					c-4.1,4.6-7.1,3-7.1,3l-0.2-0.7c-0.1-0.6,0.1-1.2,0.7-1.5C143.4,107.9,145,106.3,145.4,104.9z"/>
			</g>
			
				<linearGradient id="SVGID_00000004523627041237601950000004518162261069083531_" gradientUnits="userSpaceOnUse" x1="2705.3164" y1="66.3879" x2="2705.2368" y2="52.7883" gradientTransform="matrix(-1 0 0 -1 2853.0586 150)">
				<stop  offset="0" style="stop-color:#FEBCBA"/>
				<stop  offset="1" style="stop-color:#FF938E"/>
			</linearGradient>
			<path style="fill:url(#SVGID_00000004523627041237601950000004518162261069083531_);" d="M145.1,85l1.4,5.1
				c0.2,0.6,0.8,0.9,1.3,0.7c0.6-0.2,1.3-0.6,2-0.9c0.7-0.4,0.9-1.3,0.5-1.9l-2.9-4.3L145.1,85z"/>
		</g>
		<g>
			
				<linearGradient id="SVGID_00000067237720416477616520000009292043062433792665_" gradientUnits="userSpaceOnUse" x1="2525.8389" y1="-1859.5406" x2="2519.1445" y2="-1868.3967" gradientTransform="matrix(-0.9897 -0.1428 0.1428 -0.9897 2908.6946 -1398.3217)">
				<stop  offset="0" style="stop-color:#FEBCBA"/>
				<stop  offset="1" style="stop-color:#FF938E"/>
			</linearGradient>
			<path style="fill:url(#SVGID_00000067237720416477616520000009292043062433792665_);" d="M142,81.2c0,0.1,1.2,5.8,1.2,5.8
				l3.3-0.7l-0.3-5.6C146.1,80.6,142.2,79.7,142,81.2z"/>
			<path class="st9" d="M145.4,81.9l0.4,2.9c0,0,0,0.1,0,0.1c0,0.2-0.2,1-1,0.8c-0.7-0.2-1.4-0.4-1.8-0.2c-0.2,0.1-0.3,0.3-0.3,0.5
				c0.1,0.5,0.4,1.7,0.7,2.7c0.1,0.2,0.3,0.3,0.5,0.2c0.6-0.2,1.9-0.6,2.9-1.2c0.1-0.1,0.2-0.2,0.2-0.4c0-0.7-0.1-3,0-3.6
				c0.1-0.6,0.8-0.9,1.1-1.1c0.1,0,0.2-0.1,0.2-0.2c0.1-0.4,0.3-1.2-0.7-1.6c-0.2-0.1-0.3-0.3-0.3-0.5c0.2-0.4,0.2-1.1-0.6-1.5
				c-0.8-0.4-1.5,0.1-1.8,0.4c-0.1,0.1-0.4,0.2-0.5,0.1c-0.1-0.1-0.2-0.1-0.4,0c-0.2,0.1-0.5,0-0.6-0.2c-0.2-0.4-0.6-0.9-1.4-0.7
				c-1.5,0.2-1.6,1.9-1.2,2.8c0.4,0.9,1.9,0.6,2.7,0.1c0.6-0.4,1.4,0,1.7,0.2C145.3,81.6,145.4,81.8,145.4,81.9z"/>
			
				<linearGradient id="SVGID_00000137100056399306896390000012446133330346048180_" gradientUnits="userSpaceOnUse" x1="2516.0342" y1="-1866.554" x2="2521.4036" y2="-1861.045" gradientTransform="matrix(-0.9897 -0.1428 0.1428 -0.9897 2908.6946 -1398.3217)">
				<stop  offset="0" style="stop-color:#FEBCBA"/>
				<stop  offset="1" style="stop-color:#FF938E"/>
			</linearGradient>
			<path style="fill:url(#SVGID_00000137100056399306896390000012446133330346048180_);" d="M147.1,84.8c0,0-0.6-1.7,0-2.1
				c0.6-0.4,1.5-0.2,1.3,1C148.2,85.2,147.1,84.8,147.1,84.8z"/>
		</g>
		<g>
			<g>
				
					<linearGradient id="SVGID_00000000937968950480607980000000263045907546693261_" gradientUnits="userSpaceOnUse" x1="1396.7948" y1="319.0737" x2="1322.6086" y2="264.9562" gradientTransform="matrix(-0.5796 0.8149 -0.8149 -0.5796 1198.3219 -839.0261)">
					<stop  offset="0" style="stop-color:#052669"/>
					<stop  offset="1" style="stop-color:#1C0F91"/>
				</linearGradient>
				<path style="fill:url(#SVGID_00000000937968950480607980000000263045907546693261_);" d="M178.6,85.5l-44.5,31.1l4.6,6.6
					l44.9-30.8c1-0.7,1.3-1.9,0.8-3c-0.5-1.1-1.5-2.5-3.4-3.9C180.2,85,179.3,85,178.6,85.5z"/>
				<g>
					
						<linearGradient id="SVGID_00000038384954752930333380000018420920685392428959_" gradientUnits="userSpaceOnUse" x1="1399.3961" y1="307.0289" x2="1409.1678" y2="315.5228" gradientTransform="matrix(-0.5796 0.8149 -0.8149 -0.5796 1198.3219 -839.0261)">
						<stop  offset="0" style="stop-color:#052669"/>
						<stop  offset="1" style="stop-color:#1C0F91"/>
					</linearGradient>
					<path style="fill:url(#SVGID_00000038384954752930333380000018420920685392428959_);" d="M123.3,128.4l4.8-5.3
						c0.8,0.6,1.6,1.6,2.2,3.3l-6.6,2.6C123.4,129.1,123.1,128.7,123.3,128.4z"/>
					
						<linearGradient id="SVGID_00000007426587127409795440000009636018142464575134_" gradientUnits="userSpaceOnUse" x1="1407.9396" y1="319.4957" x2="1371.759" y2="282.3128" gradientTransform="matrix(-0.5796 0.8149 -0.8149 -0.5796 1198.3219 -839.0261)">
						<stop  offset="0" style="stop-color:#FEBCBA"/>
						<stop  offset="1" style="stop-color:#FF938E"/>
					</linearGradient>
					<path style="fill:url(#SVGID_00000007426587127409795440000009636018142464575134_);" d="M134.1,116.6c4,2.5,4.6,6.6,4.6,6.6
						l-8.3,3.2c-0.6-1.7-1.4-2.7-2.2-3.3L134.1,116.6z"/>
				</g>
			</g>
			<path class="st10" d="M180.1,87.4c0-0.1,0-0.1,0-0.2c0-0.1-0.1-0.1-0.2,0L137.4,117c-0.1,0-0.1,0.1,0,0.2c0,0.1,0.1,0.1,0.2,0
				L180.1,87.4C180.1,87.4,180.1,87.4,180.1,87.4z"/>
			<path class="st10" d="M182,89.8c0-0.1,0-0.1,0-0.2c0-0.1-0.1-0.1-0.2,0l-42.5,29.9c-0.1,0-0.1,0.1,0,0.2c0,0.1,0.1,0.1,0.2,0
				L182,89.8C182,89.8,182,89.8,182,89.8z"/>
		</g>
		
			<linearGradient id="SVGID_00000144326273650552398320000009100627338041970311_" gradientUnits="userSpaceOnUse" x1="2698.7119" y1="43.5771" x2="2689.4646" y2="35.3885" gradientTransform="matrix(-1 0 0 -1 2853.0586 150)">
			<stop  offset="0" style="stop-color:#FEBCBA"/>
			<stop  offset="1" style="stop-color:#FF938E"/>
		</linearGradient>
		<path style="fill:url(#SVGID_00000144326273650552398320000009100627338041970311_);" d="M159.8,108.7l-3.4-0.3l-1.5,1.3
			c0,0,0.3,0.5,1.4,0.2c1.1-0.3,2.5-0.3,2.5-0.3s1.5,0.7,1.5-0.6L159.8,108.7z"/>
		
			<linearGradient id="SVGID_00000013896463257189418380000017763997059279830684_" gradientUnits="userSpaceOnUse" x1="2710.5513" y1="39.3747" x2="2713.1594" y2="39.3747" gradientTransform="matrix(-1 0 0 -1 2853.0586 150)">
			<stop  offset="0" style="stop-color:#FEBCBA"/>
			<stop  offset="1" style="stop-color:#FF938E"/>
		</linearGradient>
		<path style="fill:url(#SVGID_00000013896463257189418380000017763997059279830684_);" d="M142.2,111.9c-0.3,0.2-1.3-0.2-1.9-0.6
			c-0.3-0.2-0.4-0.5-0.3-0.8c0.1-0.5,0.4-1.1,0.7-1.1C141.1,109.2,143.4,110.9,142.2,111.9z"/>
	</g>
</g>
</svg>
