<?xml version="1.0" encoding="utf-8"?>
<!-- Generator: Adobe Illustrator 25.4.1, SVG Export Plug-In . SVG Version: 6.00 Build 0)  -->
<svg version="1.1" id="Layer_1" xmlns="http://www.w3.org/2000/svg" xmlns:xlink="http://www.w3.org/1999/xlink" x="0px" y="0px"
	 viewBox="0 0 225 150" style="enable-background:new 0 0 225 150;" xml:space="preserve">
<style type="text/css">
	.st0{fill:#052669;}
	.st1{opacity:0.7;fill:#FFFFFF;enable-background:new    ;}
	.st2{fill:#FFFFFF;stroke:#B2B1B1;stroke-width:0.25;stroke-linejoin:round;stroke-miterlimit:10;}
	.st3{fill:#052669;stroke:#B2B1B1;stroke-width:0.25;stroke-linecap:round;stroke-linejoin:round;stroke-miterlimit:10;}
	.st4{fill:#B2B1B1;stroke:#B2B1B1;stroke-width:0.25;stroke-linecap:round;stroke-linejoin:round;stroke-miterlimit:10;}
	.st5{fill:#FFFFFF;stroke:#B2B1B1;stroke-width:0.25;stroke-linecap:round;stroke-linejoin:round;stroke-miterlimit:10;}
	.st6{fill:#B2B1B1;stroke:#B2B1B1;stroke-width:0.25;stroke-linejoin:round;stroke-miterlimit:10;}
	.st7{fill:none;stroke:#253538;stroke-width:0.25;stroke-linecap:round;stroke-linejoin:round;stroke-miterlimit:10;}
	.st8{fill:#253538;stroke:#253538;stroke-width:0.25;stroke-linecap:round;stroke-linejoin:round;stroke-miterlimit:10;}
	.st9{fill:#FFFFFF;stroke:#253538;stroke-width:0.25;stroke-linecap:round;stroke-linejoin:round;stroke-miterlimit:10;}
	.st10{fill:#253538;}
	.st11{fill:#253538;stroke:#253538;stroke-width:0.25;stroke-miterlimit:10;}
	.st12{fill:#EF7F1A;stroke:#253538;stroke-width:0.25;stroke-linejoin:round;stroke-miterlimit:10;}
	.st13{fill:#FFFFFF;stroke:#253538;stroke-width:0.25;stroke-miterlimit:10;}
	.st14{fill:#B0AFAF;stroke:#253538;stroke-width:0.25;stroke-linecap:round;stroke-linejoin:round;stroke-miterlimit:10;}
	.st15{fill:#FFFFFF;stroke:#253538;stroke-width:0.25;stroke-linecap:round;stroke-linejoin:round;stroke-miterlimit:9.9999;}
	.st16{fill:#FFFFFF;stroke:#253538;stroke-width:0.25;stroke-linecap:round;stroke-linejoin:round;stroke-miterlimit:10.0001;}
	.st17{fill:#253538;stroke:#253538;stroke-width:0.25;stroke-linejoin:round;stroke-miterlimit:10;}
	.st18{fill:#615F60;stroke:#253538;stroke-width:0.25;stroke-linecap:round;stroke-linejoin:round;stroke-miterlimit:10;}
	.st19{fill:none;stroke:#253538;stroke-width:0.25;stroke-linejoin:round;stroke-miterlimit:10;}
	.st20{fill:#FFFFFF;stroke:#253538;stroke-width:0.25;stroke-linejoin:round;stroke-miterlimit:10;}
	.st21{fill:none;stroke:#000000;stroke-width:0.25;}
</style>
<g>
	<g id="Background_Simple">
		<g>
			<path class="st0" d="M167.5,42c-0.9-1.5-1.9-3-3-4.4c-9-11.5-20.7-16.3-34.1-19.5c-13.8-3.4-30-4.4-43.3,1.7
				c-3.1,1.4-6.1,3.3-8.4,5.9c-8.9,9.8-11.9,26.1-21.8,39c-9.9,12.9-14.7,29-5.8,44.3c3.8,6.5,8.5,11.8,14.2,16.5
				c7,5.8,13,13.5,21.1,18.1c8.5,4.7,19.8,6.4,29.1,4.2c10.7-2.5,17-12.3,25.1-19c6.4-5.3,14.1-8.7,20.5-14.2
				c9.7-8.4,17-21.8,15.8-35.1C175.7,66.5,174.1,53.1,167.5,42z"/>
			<path class="st1" d="M167.5,42c-0.9-1.5-1.9-3-3-4.4c-9-11.5-20.7-16.3-34.1-19.5c-13.8-3.4-30-4.4-43.3,1.7
				c-3.1,1.4-6.1,3.3-8.4,5.9c-8.9,9.8-11.9,26.1-21.8,39c-9.9,12.9-14.7,29-5.8,44.3c3.8,6.5,8.5,11.8,14.2,16.5
				c7,5.8,13,13.5,21.1,18.1c8.5,4.7,19.8,6.4,29.1,4.2c10.7-2.5,17-12.3,25.1-19c6.4-5.3,14.1-8.7,20.5-14.2
				c9.7-8.4,17-21.8,15.8-35.1C175.7,66.5,174.1,53.1,167.5,42z"/>
		</g>
	</g>
	<g id="Bank">
		<g>
			<polygon class="st2" points="110.4,1.3 58,24.6 162.9,24.6 			"/>
			<g>
				<polygon class="st3" points="110.4,8.3 87.1,20.4 133.8,20.4 				"/>
				<g>
					<g>
						<path class="st4" d="M121.9,17.8c0,0-1.6-1.9-0.9-3.6c0.7-1.7,1.7-2.1,1.7-2.1s0.7,1.2,0.6,2.7
							C123.2,16.4,121.9,17.8,121.9,17.8z"/>
						<path class="st4" d="M127.7,15.7c0,0-0.7,2.4-2.5,2.7c-1.8,0.4-2.7-0.3-2.7-0.3s0.6-1.2,2-2C125.7,15.3,127.7,15.7,127.7,15.7
							z"/>
						<path class="st4" d="M120.5,20.2c0,0-2.1-1.2-2.1-3.1c0.1-1.9,0.9-2.6,0.9-2.6s1,0.9,1.5,2.4
							C121.3,18.4,120.5,20.2,120.5,20.2z"/>
						<path class="st4" d="M126.2,19.5c0,0-1.4,2-3.2,1.8c-1.9-0.2-2.5-1.1-2.5-1.1s1-1,2.5-1.3C124.5,18.6,126.2,19.5,126.2,19.5z"
							/>
						<path class="st4" d="M124,15.7c0,0-0.3-2.4,1.2-3.5s2.6-0.8,2.6-0.8s0,1.7-0.9,3C126,15.6,124,15.7,124,15.7z"/>
					</g>
					<g>
						<path class="st5" d="M121.9,17.4c0,0-1.6-1.9-0.9-3.6c0.7-1.7,1.7-2.1,1.7-2.1s0.7,1.2,0.6,2.7
							C123.2,16,121.9,17.4,121.9,17.4z"/>
						<path class="st5" d="M127.7,15.2c0,0-0.7,2.4-2.5,2.7c-1.8,0.4-2.7-0.3-2.7-0.3s0.6-1.2,2-2C125.7,14.9,127.7,15.2,127.7,15.2
							z"/>
						<path class="st5" d="M120.5,19.8c0,0-2.1-1.2-2.1-3.1c0.1-1.9,0.9-2.6,0.9-2.6s1,0.9,1.5,2.4C121.3,18,120.5,19.8,120.5,19.8z
							"/>
						<path class="st5" d="M126.2,19.1c0,0-1.4,2-3.2,1.8c-1.9-0.2-2.5-1.1-2.5-1.1s1-1,2.5-1.3C124.5,18.1,126.2,19.1,126.2,19.1z"
							/>
						<path class="st5" d="M124,15.3c0,0-0.3-2.4,1.2-3.5s2.6-0.8,2.6-0.8s0,1.7-0.9,3C126,15.2,124,15.3,124,15.3z"/>
					</g>
				</g>
				<g>
					<g>
						<path class="st4" d="M99.1,17.8c0,0,1.6-1.9,0.9-3.6c-0.7-1.7-1.7-2.1-1.7-2.1s-0.7,1.2-0.6,2.7
							C97.7,16.4,99.1,17.8,99.1,17.8z"/>
						<path class="st4" d="M93.2,15.7c0,0,0.7,2.4,2.5,2.7s2.7-0.3,2.7-0.3s-0.6-1.2-2-2C95.2,15.3,93.2,15.7,93.2,15.7z"/>
						<path class="st4" d="M100.5,20.2c0,0,2.1-1.2,2.1-3.1c-0.1-1.9-0.9-2.6-0.9-2.6s-1,0.9-1.5,2.4
							C99.6,18.4,100.5,20.2,100.5,20.2z"/>
						<path class="st4" d="M94.7,19.5c0,0,1.4,2,3.2,1.8c1.9-0.2,2.5-1.1,2.5-1.1s-1-1-2.5-1.3C96.4,18.6,94.7,19.5,94.7,19.5z"/>
						<path class="st4" d="M96.9,15.7c0,0,0.3-2.4-1.2-3.5s-2.6-0.8-2.6-0.8s0,1.7,0.9,3C94.9,15.6,96.9,15.7,96.9,15.7z"/>
					</g>
					<g>
						<path class="st5" d="M99.1,17.4c0,0,1.6-1.9,0.9-3.6c-0.7-1.7-1.7-2.1-1.7-2.1s-0.7,1.2-0.6,2.7C97.7,16,99.1,17.4,99.1,17.4z
							"/>
						<path class="st5" d="M93.2,15.2c0,0,0.7,2.4,2.5,2.7s2.7-0.3,2.7-0.3s-0.6-1.2-2-2C95.2,14.9,93.2,15.2,93.2,15.2z"/>
						<path class="st5" d="M100.5,19.8c0,0,2.1-1.2,2.1-3.1c-0.1-1.9-0.9-2.6-0.9-2.6s-1,0.9-1.5,2.4C99.6,18,100.5,19.8,100.5,19.8
							z"/>
						<path class="st5" d="M94.7,19.1c0,0,1.4,2,3.2,1.8c1.9-0.2,2.5-1.1,2.5-1.1s-1-1-2.5-1.3C96.4,18.1,94.7,19.1,94.7,19.1z"/>
						<path class="st5" d="M96.9,15.3c0,0,0.3-2.4-1.2-3.5s-2.6-0.8-2.6-0.8s0,1.7,0.9,3C94.9,15.2,96.9,15.3,96.9,15.3z"/>
					</g>
				</g>
				<g>
					<path class="st4" d="M110.4,7.9c-3.9,0-7.1,3-7.2,6.8c0,3.8,3.2,6.9,7.2,6.9c4,0,7.2-3.1,7.2-6.9
						C117.6,10.9,114.4,7.9,110.4,7.9z M110.4,19.9c-3,0-5.5-2.4-5.4-5.2c0-2.9,2.5-5.2,5.4-5.2s5.4,2.3,5.4,5.2
						C115.9,17.5,113.5,19.9,110.4,19.9z"/>
					<path class="st5" d="M110.4,7.5c-3.9,0-7.1,3-7.2,6.8c0,3.8,3.2,6.9,7.2,6.9c4,0,7.2-3.1,7.2-6.9
						C117.6,10.6,114.4,7.5,110.4,7.5z M110.4,19.8c-3.1,0-5.7-2.4-5.6-5.4c0-3,2.6-5.4,5.6-5.4c3.1,0,5.6,2.4,5.6,5.4
						C116.1,17.3,113.6,19.8,110.4,19.8z"/>
				</g>
			</g>
			<rect x="60" y="30.6" class="st2" width="100.8" height="79.6"/>
			<rect x="60" y="30.6" class="st6" width="100.8" height="12.9"/>
			<rect x="95.9" y="39.6" class="st2" width="31.7" height="71.7"/>
			<g>
				<rect x="99.1" y="43.4" class="st6" width="11.3" height="64.7"/>
				<rect x="112.6" y="43.4" class="st6" width="11.3" height="64.7"/>
			</g>
			<g>
				<path class="st5" d="M66.7,34h-6.6l-0.6,20.6c-0.3,10.5-0.3,21.1,0,31.6l0.6,21.5h6.6l0.6-21.5c0.3-10.5,0.3-21.1,0-31.6
					L66.7,34z"/>
				<path class="st5" d="M64.9,34h-3l-0.3,20.6c-0.1,10.5-0.1,21.1,0,31.6l0.3,21.5h3l0.3-21.5c0.1-10.5,0.1-21.1,0-31.6L64.9,34z"
					/>
				<g>
					<rect x="58.7" y="107.3" class="st2" width="9.5" height="2.1"/>
					<rect x="57.3" y="109.1" class="st2" width="12.2" height="2.1"/>
				</g>
				<g>
					<rect x="58.7" y="33.2" class="st2" width="9.5" height="2.1"/>
					<rect x="57.3" y="31.3" class="st2" width="12.2" height="2.1"/>
				</g>
			</g>
			<g>
				<path class="st5" d="M90,34h-6.6l-0.6,20.6c-0.3,10.5-0.3,21.1,0,31.6l0.6,21.5H90l0.6-21.5c0.3-10.5,0.3-21.1,0-31.6L90,34z"/>
				<path class="st5" d="M88.2,34h-3l-0.3,20.6c-0.1,10.5-0.1,21.1,0,31.6l0.3,21.5h3l0.3-21.5c0.1-10.5,0.1-21.1,0-31.6L88.2,34z"
					/>
				<g>
					<rect x="82" y="107.3" class="st2" width="9.5" height="2.1"/>
					<rect x="80.6" y="109.1" class="st2" width="12.2" height="2.1"/>
				</g>
				<g>
					<rect x="82" y="33.2" class="st2" width="9.5" height="2.1"/>
					<rect x="80.6" y="31.3" class="st2" width="12.2" height="2.1"/>
				</g>
			</g>
			<g>
				<path class="st5" d="M140.8,34h-6.6l-0.6,20.6c-0.3,10.5-0.3,21.1,0,31.6l0.6,21.5h6.6l0.6-21.5c0.3-10.5,0.3-21.1,0-31.6
					L140.8,34z"/>
				<path class="st5" d="M139,34h-3l-0.3,20.6c-0.1,10.5-0.1,21.1,0,31.6l0.3,21.5h3l0.3-21.5c0.1-10.5,0.1-21.1,0-31.6L139,34z"/>
				<g>
					<rect x="132.8" y="107.3" class="st2" width="9.5" height="2.1"/>
					<rect x="131.4" y="109.1" class="st2" width="12.2" height="2.1"/>
				</g>
				<g>
					<rect x="132.8" y="33.2" class="st2" width="9.5" height="2.1"/>
					<rect x="131.4" y="31.3" class="st2" width="12.2" height="2.1"/>
				</g>
			</g>
			<g>
				<path class="st5" d="M164.1,34h-6.6L157,54.6c-0.3,10.5-0.3,21.1,0,31.6l0.6,21.5h6.6l0.6-21.5c0.3-10.5,0.3-21.1,0-31.6
					L164.1,34z"/>
				<path class="st5" d="M162.3,34h-3l-0.3,20.6c-0.1,10.5-0.1,21.1,0,31.6l0.3,21.5h3l0.3-21.5c0.1-10.5,0.1-21.1,0-31.6L162.3,34z
					"/>
				<g>
					<rect x="156.1" y="107.3" class="st2" width="9.5" height="2.1"/>
					<rect x="154.7" y="109.1" class="st2" width="12.2" height="2.1"/>
				</g>
				<g>
					<rect x="156.1" y="33.2" class="st2" width="9.5" height="2.1"/>
					<rect x="154.7" y="31.3" class="st2" width="12.2" height="2.1"/>
				</g>
			</g>
			<rect x="43.6" y="114.8" class="st3" width="136.6" height="3.8"/>
			<rect x="54.3" y="111.1" class="st3" width="115.2" height="3.8"/>
			<rect x="43.6" y="27.4" class="st3" width="136.6" height="3.8"/>
			<rect x="54.3" y="23.7" class="st3" width="115.2" height="3.8"/>
			<rect x="92.8" y="37.2" class="st2" width="37.9" height="3.1"/>
		</g>
		<g>
			<path class="st5" d="M112.7,12.1H111c0.3,0.2,0.5,0.6,0.6,1.1h1.1v0.5h-1.1c-0.1,1.1-0.9,1.7-2.3,1.8c0.8,0.8,1.7,1.9,2.6,3h-1
				c-0.8-1-1.6-1.9-2.6-2.9v-0.6h0.6c1.1,0,1.7-0.5,1.8-1.2h-2.4v-0.5h2.3c-0.1-0.6-0.7-0.9-1.6-0.9h-0.7v-0.7h4.4L112.7,12.1
				L112.7,12.1z"/>
		</g>
	</g>
	<g id="Floor">
		<line class="st7" x1="38.2" y1="118.6" x2="186.8" y2="118.6"/>
	</g>
	<g id="Binder">
		<g>
			<g>
				<path class="st8" d="M106.2,105.2H55.4c-1.3,0-2.4-1.1-2.4-2.4V36.8c0-1.3,1.1-2.4,2.4-2.4h50.8c1.3,0,2.4,1.1,2.4,2.4v66.1
					C108.5,104.1,107.5,105.2,106.2,105.2z"/>
				<rect x="55.7" y="35.6" class="st9" width="50.1" height="67.7"/>
				<g>
					<path class="st9" d="M90.8,31.5h-9.1v-0.4H85v-1.6c0-0.6-0.5-1-1-1h-6.4c-0.6,0-1,0.5-1,1v1.6h3.3v0.4h-9.1
						c-1.4,0-2.5,1.1-2.5,2.5v3h25.1v-3C93.3,32.6,92.2,31.5,90.8,31.5z"/>
					<line class="st7" x1="69.1" y1="35.2" x2="92.3" y2="35.2"/>
				</g>
				<line class="st7" x1="90.6" y1="56.5" x2="99.1" y2="56.5"/>
				<line class="st7" x1="61.7" y1="56.5" x2="88.5" y2="56.5"/>
				<line class="st7" x1="74.9" y1="60.5" x2="99.1" y2="60.5"/>
				<line class="st7" x1="61.7" y1="60.5" x2="73.6" y2="60.5"/>
				<line class="st7" x1="84.5" y1="64.4" x2="99.1" y2="64.4"/>
				<line class="st7" x1="61.7" y1="64.4" x2="83.1" y2="64.4"/>
				<line class="st7" x1="95.9" y1="68.4" x2="99.1" y2="68.4"/>
				<line class="st7" x1="68.8" y1="68.4" x2="94.1" y2="68.4"/>
				<line class="st7" x1="61.7" y1="68.4" x2="67.2" y2="68.4"/>
				<line class="st7" x1="77.7" y1="72.4" x2="99.1" y2="72.4"/>
				<line class="st7" x1="61.7" y1="72.4" x2="75.9" y2="72.4"/>
				<line class="st7" x1="74.5" y1="76.4" x2="99.1" y2="76.4"/>
				<line class="st7" x1="61.7" y1="76.4" x2="73.2" y2="76.4"/>
				<line class="st7" x1="94.6" y1="80.3" x2="99.1" y2="80.3"/>
				<line class="st7" x1="61.7" y1="80.3" x2="93.1" y2="80.3"/>
			</g>
			<g>
				<g>
					<g>
						<path class="st0" d="M75.8,92.6l-0.9-3.8l0.7-0.3l2.2,3.2l-0.6,0.3l-0.5-0.7l-0.6,0.3l0.2,0.9L75.8,92.6z M76.1,91l0.5-0.2
							l-0.9-1.4L76.1,91z"/>
					</g>
					<g>
						<path class="st0" d="M78.2,91.5L76.7,88l1-0.5c0.2-0.1,0.4-0.1,0.6-0.1c0.2,0,0.3,0.1,0.4,0.2c0.1,0.1,0.2,0.3,0.3,0.5
							c0.1,0.2,0.1,0.4,0.1,0.6c0,0.2-0.1,0.3-0.2,0.4c-0.1,0.1-0.3,0.2-0.5,0.3l-0.3,0.2l0.7,1.5L78.2,91.5z M78,89.3l0.2-0.1
							c0.1-0.1,0.2-0.1,0.2-0.2c0-0.1,0.1-0.1,0.1-0.2c0-0.1,0-0.2-0.1-0.3c-0.1-0.1-0.1-0.2-0.2-0.3c-0.1-0.1-0.1-0.1-0.2-0.1
							c-0.1,0-0.2,0-0.3,0.1l-0.2,0.1L78,89.3z"/>
					</g>
					<g>
						<path class="st0" d="M80.5,90.5L78.9,87l1-0.5c0.2-0.1,0.4-0.1,0.6-0.1c0.2,0,0.3,0.1,0.4,0.2c0.1,0.1,0.2,0.3,0.3,0.5
							c0.1,0.2,0.1,0.4,0.1,0.6s-0.1,0.3-0.2,0.4c-0.1,0.1-0.3,0.2-0.5,0.3l-0.3,0.2l0.7,1.5L80.5,90.5z M80.2,88.3l0.2-0.1
							c0.1-0.1,0.2-0.1,0.2-0.2c0-0.1,0.1-0.1,0.1-0.2c0-0.1,0-0.2-0.1-0.3c-0.1-0.1-0.1-0.2-0.2-0.3c-0.1-0.1-0.1-0.1-0.2-0.1
							c-0.1,0-0.2,0-0.3,0.1l-0.2,0.1L80.2,88.3z"/>
					</g>
					<g>
						<path class="st0" d="M82.7,89.5L81.2,86l0.8-0.4c0.2-0.1,0.4-0.2,0.6-0.2s0.4,0,0.5,0.1c0.1,0.1,0.3,0.3,0.4,0.5
							c0.1,0.1,0.1,0.3,0.1,0.4c0,0.1,0,0.2,0,0.3s-0.1,0.2-0.2,0.3l1.3,1.5l-0.6,0.3l-1.1-1.4l-0.3,0.1l0.7,1.6L82.7,89.5z
							 M82.5,87.2l0.2-0.1c0.1-0.1,0.2-0.1,0.3-0.2c0.1-0.1,0.1-0.1,0.1-0.2c0-0.1,0-0.2-0.1-0.3c-0.1-0.2-0.2-0.3-0.3-0.4
							c-0.1-0.1-0.2,0-0.4,0L82,86.2L82.5,87.2z"/>
					</g>
					<g>
						<path class="st0" d="M86.1,88.1c-0.2,0.1-0.5,0.2-0.7,0.1c-0.2,0-0.4-0.1-0.5-0.3c-0.1-0.1-0.3-0.3-0.4-0.6L84,86.1
							c-0.1-0.2-0.2-0.5-0.2-0.6c0-0.2,0-0.4,0.1-0.5c0.1-0.2,0.3-0.3,0.5-0.4c0.3-0.1,0.5-0.2,0.7-0.1s0.3,0.1,0.5,0.2
							c0.1,0.1,0.3,0.3,0.4,0.6l0.6,1.3c0.1,0.2,0.2,0.4,0.2,0.6c0,0.2,0,0.4-0.1,0.5C86.5,87.8,86.3,88,86.1,88.1z M85.9,87.6
							c0.1,0,0.2-0.1,0.2-0.2c0-0.1,0-0.1,0-0.2c0-0.1,0-0.2-0.1-0.3l-0.7-1.6c0-0.1-0.1-0.2-0.1-0.3C85.1,85,85,85,85,84.9
							c-0.1,0-0.2,0-0.3,0c-0.1,0-0.2,0.1-0.2,0.2c0,0.1,0,0.1,0,0.2c0,0.1,0,0.2,0.1,0.3l0.7,1.6c0,0.1,0.1,0.2,0.1,0.3
							c0.1,0.1,0.1,0.1,0.2,0.1C85.7,87.7,85.8,87.7,85.9,87.6z"/>
					</g>
					<g>
						<path class="st0" d="M88,87.2L85.8,84l0.6-0.3l1.6,2.3l-0.7-2.7l0.6-0.3l0.9,3.8L88,87.2z"/>
					</g>
					<g>
						<path class="st0" d="M89.7,86.4l-1.6-3.5l1.5-0.7l0.2,0.4L89,83.1l0.4,1l0.6-0.3l0.2,0.4l-0.6,0.3l0.5,1.2l0.8-0.4l0.2,0.4
							L89.7,86.4z"/>
					</g>
					<g>
						<path class="st0" d="M91.6,85.6L90,82.1l0.8-0.4c0.3-0.1,0.5-0.2,0.7-0.2c0.2,0,0.4,0.1,0.5,0.2c0.1,0.1,0.3,0.3,0.4,0.6
							l0.6,1.3c0.1,0.3,0.2,0.5,0.2,0.7c0,0.2,0,0.4-0.2,0.5c-0.1,0.2-0.3,0.3-0.6,0.4L91.6,85.6z M92,84.9l0.2-0.1
							c0.1-0.1,0.2-0.1,0.3-0.2c0-0.1,0-0.2,0-0.3c0-0.1-0.1-0.2-0.1-0.4l-0.6-1.3c-0.1-0.1-0.1-0.2-0.2-0.3
							c-0.1-0.1-0.1-0.1-0.2-0.1c-0.1,0-0.2,0-0.3,0.1l-0.2,0.1L92,84.9z"/>
					</g>
				</g>
				<g>
					<path class="st0" d="M97.5,85.9L74.3,96.2c-1,0.5-2.3,0-2.7-1l-2.1-4.8c-0.5-1,0-2.3,1-2.7l23.1-10.3c1-0.5,2.3,0,2.7,1
						l2.1,4.8C99,84.2,98.5,85.4,97.5,85.9z M71,88.7c-0.4,0.2-0.6,0.7-0.4,1.2l2.1,4.8c0.2,0.4,0.7,0.6,1.2,0.4L97,84.8
						c0.4-0.2,0.6-0.7,0.4-1.2l-2.1-4.8c-0.2-0.4-0.7-0.6-1.2-0.4L71,88.7z"/>
				</g>
			</g>
		</g>
	</g>
	<g id="Text">
		<g>
			<path class="st10" d="M70.6,54.1v-7.8H72v6.9h1.9v1H70.6z"/>
			<path class="st10" d="M76.7,54.2c-0.6,0-1-0.1-1.3-0.3c-0.3-0.2-0.6-0.5-0.7-0.9c-0.1-0.4-0.2-0.8-0.2-1.4v-2.9
				c0-0.5,0.1-1,0.2-1.4c0.1-0.4,0.4-0.7,0.7-0.9c0.3-0.2,0.8-0.3,1.3-0.3c0.6,0,1,0.1,1.3,0.3c0.3,0.2,0.6,0.5,0.7,0.9
				c0.1,0.4,0.2,0.8,0.2,1.4v2.9c0,0.5-0.1,1-0.2,1.4c-0.1,0.4-0.4,0.7-0.7,0.9C77.7,54.1,77.3,54.2,76.7,54.2z M76.7,53.1
				c0.2,0,0.4-0.1,0.5-0.2c0.1-0.1,0.2-0.2,0.2-0.4c0-0.2,0.1-0.4,0.1-0.6v-3.6c0-0.2,0-0.4-0.1-0.6c0-0.2-0.1-0.3-0.2-0.4
				c-0.1-0.1-0.3-0.2-0.5-0.2c-0.2,0-0.4,0.1-0.5,0.2c-0.1,0.1-0.2,0.2-0.2,0.4s-0.1,0.4-0.1,0.6v3.6c0,0.2,0,0.4,0.1,0.6
				s0.1,0.3,0.2,0.4C76.3,53.1,76.5,53.1,76.7,53.1z"/>
			<path class="st10" d="M79.6,54.1l1.6-7.8h1.5l1.6,7.8h-1.3l-0.3-1.8h-1.4l-0.3,1.8H79.6z M81.4,51.3h1.1L81.9,48L81.4,51.3z"/>
			<path class="st10" d="M85,54.1v-7.8h1l1.9,4.5v-4.5h1.2v7.8h-0.9l-1.9-4.7v4.7H85z"/>
		</g>
	</g>
	<g id="Money">
		<g>
			<g>
				<g>
					<polygon class="st11" points="80.2,134 54.9,137.8 46,83.6 71.3,79.9 					"/>
					<polygon class="st12" points="82.8,133.7 57.5,137.4 48.7,83.3 74,79.6 					"/>
					<path class="st13" d="M72.5,86.2c-1.7,0.2-3.3-0.9-3.5-2.6c0-0.1,0-0.3,0-0.4l-14.5,2.1c0,0.1,0.1,0.2,0.1,0.4
						c0.2,1.7-0.9,3.3-2.6,3.5c-0.1,0-0.1,0-0.2,0l7,41.6c0.1,0,0.1,0,0.2,0c1.7-0.2,3.3,0.9,3.5,2.6c0,0.1,0,0.3,0,0.4l14.5-2.1
						c0-0.1-0.1-0.2-0.1-0.4c-0.2-1.7,0.9-3.3,2.6-3.5c0.1,0,0.3,0,0.4,0l-7-41.6C72.7,86.2,72.6,86.2,72.5,86.2z M66.1,112.7
						c-2.8,0.4-5.3-1.5-5.7-4.3c-0.4-2.8,1.5-5.3,4.3-5.7c2.8-0.4,5.3,1.5,5.7,4.3C70.8,109.7,68.9,112.3,66.1,112.7z"/>
				</g>
				<g>
					<polygon class="st14" points="49.7,106.3 75.2,102.6 76.3,109.2 50.8,112.9 					"/>
					<polygon class="st9" points="52.6,105.9 77.8,102.3 78.9,108.9 53.7,112.5 					"/>
				</g>
			</g>
			<g>
				<g>
					<polygon class="st11" points="80.2,138.5 54.7,138.4 54,83.6 79.6,83.7 					"/>
					<polygon class="st12" points="82.9,138.6 57.4,138.5 56.7,83.6 82.3,83.7 					"/>
					<path class="st13" d="M79.8,90c-1.7,0-3.1-1.4-3.1-3.1c0-0.1,0-0.3,0-0.4L62,86.5c0,0.1,0,0.3,0,0.4c0,1.7-1.4,3.1-3.1,3.1
						c-0.1,0-0.1,0-0.2,0l0.7,42.2c0.1,0,0.1,0,0.2,0c1.7,0,3.1,1.4,3.1,3.1c0,0.1,0,0.3,0,0.4l14.7,0.1c0-0.1,0-0.3,0-0.4
						c0-1.7,1.4-3.1,3.1-3.1c0.1,0,0.3,0,0.4,0L80.1,90C80,90,79.9,90,79.8,90z M69.5,115.3c-2.8,0-5-2.3-5-5.1c0-2.8,2.3-5,5.1-5
						s5,2.3,5,5.1C74.6,113,72.3,115.3,69.5,115.3z"/>
				</g>
				<g>
					<polygon class="st14" points="54.3,106.5 80,106.7 80.1,113.4 54.3,113.2 					"/>
					<polygon class="st9" points="57.2,106.5 82.7,106.8 82.8,113.5 57.2,113.3 					"/>
				</g>
			</g>
			<g>
				<g>
					<g>
						<path class="st9" d="M90.9,135.6l0,2.2c0,0.3,3.9,0.5,8.6,0.6c4.8,0.1,8.6-0.1,8.6-0.3l0-2.2L90.9,135.6z"/>
						<path class="st9" d="M108.1,135.9c0,0.3-3.9,0.4-8.6,0.3c-4.8-0.1-8.6-0.4-8.6-0.6c0-0.3,3.9-0.4,8.6-0.3
							C104.2,135.4,108.1,135.6,108.1,135.9z"/>
						<path class="st9" d="M106.1,135.8c0,0.2-3,0.3-6.6,0.2c-3.7-0.1-6.6-0.2-6.6-0.4c0-0.2,3-0.3,6.6-0.2
							C103.1,135.4,106.1,135.6,106.1,135.8z"/>
						<line class="st7" x1="107.2" y1="136.1" x2="107.2" y2="137.8"/>
						<line class="st7" x1="106" y1="136.3" x2="106" y2="138"/>
						<line class="st7" x1="104.1" y1="136.3" x2="104.1" y2="137.7"/>
						<line class="st7" x1="101.7" y1="137.1" x2="101.7" y2="138.3"/>
						<line class="st7" x1="99.1" y1="138.4" x2="99.1" y2="136.9"/>
						<line class="st7" x1="91.4" y1="135.9" x2="91.4" y2="136.6"/>
						<line class="st7" x1="92.4" y1="138" x2="92.4" y2="137.1"/>
						<line class="st7" x1="96.4" y1="138.1" x2="96.4" y2="137.1"/>
					</g>
					<g>
						<path class="st9" d="M90.7,133.5l0,2.2c0,0.3,3.9,0.5,8.6,0.6c4.8,0.1,8.6-0.1,8.6-0.3l0-2.2L90.7,133.5z"/>
						<path class="st9" d="M107.9,133.8c0,0.3-3.9,0.4-8.6,0.3c-4.8-0.1-8.6-0.4-8.6-0.6s3.9-0.4,8.6-0.3
							C104,133.2,107.9,133.5,107.9,133.8z"/>
						<path class="st9" d="M105.9,133.7c0,0.2-3,0.3-6.6,0.2c-3.7-0.1-6.6-0.2-6.6-0.4c0-0.2,3-0.3,6.6-0.2
							C102.9,133.3,105.9,133.5,105.9,133.7z"/>
						<line class="st7" x1="107" y1="134" x2="107" y2="135.7"/>
						<line class="st7" x1="105.8" y1="134.1" x2="105.8" y2="135.9"/>
						<line class="st7" x1="103.9" y1="134.2" x2="103.9" y2="135.5"/>
						<line class="st7" x1="101.5" y1="135" x2="101.5" y2="136.2"/>
						<line class="st7" x1="98.9" y1="136.3" x2="98.9" y2="134.8"/>
						<line class="st7" x1="91.2" y1="133.7" x2="91.2" y2="134.5"/>
						<line class="st7" x1="92.2" y1="135.8" x2="92.2" y2="135"/>
						<line class="st7" x1="96.2" y1="136" x2="96.2" y2="134.9"/>
					</g>
					<g>
						<path class="st9" d="M90.7,131.3l0,2.2c0,0.3,3.9,0.5,8.6,0.6c4.8,0.1,8.6-0.1,8.6-0.3l0-2.2L90.7,131.3z"/>
						<path class="st9" d="M107.9,131.6c0,0.3-3.9,0.4-8.6,0.3c-4.8-0.1-8.6-0.4-8.6-0.6c0-0.3,3.9-0.4,8.6-0.3
							C104.1,131.1,107.9,131.3,107.9,131.6z"/>
						<path class="st9" d="M105.9,131.5c0,0.2-3,0.3-6.6,0.2c-3.7-0.1-6.6-0.2-6.6-0.4c0-0.2,3-0.3,6.6-0.2
							C103,131.1,105.9,131.3,105.9,131.5z"/>
						<line class="st7" x1="107.1" y1="131.8" x2="107" y2="133.5"/>
						<line class="st7" x1="105.8" y1="132" x2="105.8" y2="133.7"/>
						<line class="st7" x1="104" y1="132" x2="104" y2="133.4"/>
						<line class="st7" x1="101.5" y1="132.8" x2="101.5" y2="134"/>
						<line class="st7" x1="98.9" y1="134.1" x2="99" y2="132.6"/>
						<line class="st7" x1="91.2" y1="131.6" x2="91.2" y2="132.3"/>
						<line class="st7" x1="92.2" y1="133.7" x2="92.2" y2="132.8"/>
						<line class="st7" x1="96.2" y1="133.8" x2="96.2" y2="132.8"/>
					</g>
					<g>
						<path class="st9" d="M91.1,129.2l0,2.2c0,0.3,3.9,0.5,8.6,0.6c4.8,0.1,8.6-0.1,8.6-0.3l0-2.2L91.1,129.2z"/>
						<path class="st9" d="M108.3,129.4c0,0.3-3.9,0.4-8.6,0.3s-8.6-0.4-8.6-0.6c0-0.3,3.9-0.4,8.6-0.3
							C104.5,128.9,108.4,129.2,108.3,129.4z"/>
						<path class="st9" d="M106.3,129.3c0,0.2-3,0.3-6.6,0.2c-3.7-0.1-6.6-0.2-6.6-0.4c0-0.2,3-0.3,6.6-0.2
							C103.4,129,106.4,129.2,106.3,129.3z"/>
						<line class="st7" x1="107.5" y1="129.7" x2="107.5" y2="131.3"/>
						<line class="st7" x1="106.3" y1="129.8" x2="106.2" y2="131.6"/>
						<line class="st7" x1="104.4" y1="129.8" x2="104.4" y2="131.2"/>
						<line class="st7" x1="102" y1="130.7" x2="102" y2="131.9"/>
						<line class="st7" x1="99.4" y1="132" x2="99.4" y2="130.5"/>
						<line class="st7" x1="91.7" y1="129.4" x2="91.6" y2="130.2"/>
						<line class="st7" x1="92.6" y1="131.5" x2="92.7" y2="130.7"/>
						<line class="st7" x1="96.6" y1="131.7" x2="96.7" y2="130.6"/>
					</g>
					<g>
						<path class="st9" d="M91.2,127l0,2.2c0,0.3,3.9,0.5,8.6,0.6c4.8,0.1,8.6-0.1,8.6-0.3l0-2.2L91.2,127z"/>
						<path class="st9" d="M108.4,127.3c0,0.3-3.9,0.4-8.6,0.3c-4.8-0.1-8.6-0.4-8.6-0.6c0-0.3,3.9-0.4,8.6-0.3
							C104.6,126.7,108.5,127,108.4,127.3z"/>
						<path class="st9" d="M106.5,127.2c0,0.2-3,0.3-6.6,0.2c-3.7-0.1-6.6-0.2-6.6-0.4c0-0.2,3-0.3,6.6-0.2
							C103.5,126.8,106.5,127,106.5,127.2z"/>
						<line class="st7" x1="107.6" y1="127.5" x2="107.6" y2="129.2"/>
						<line class="st7" x1="106.4" y1="127.7" x2="106.3" y2="129.4"/>
						<line class="st7" x1="104.5" y1="127.7" x2="104.5" y2="129.1"/>
						<line class="st7" x1="102.1" y1="128.5" x2="102.1" y2="129.7"/>
						<line class="st7" x1="99.5" y1="129.8" x2="99.5" y2="128.3"/>
						<line class="st7" x1="91.8" y1="127.3" x2="91.7" y2="128"/>
						<line class="st7" x1="92.7" y1="129.4" x2="92.8" y2="128.5"/>
						<line class="st7" x1="96.7" y1="129.5" x2="96.8" y2="128.5"/>
					</g>
					<g>
						<path class="st9" d="M91.2,124.8l0,2.2c0,0.3,3.9,0.5,8.6,0.6c4.8,0.1,8.6-0.1,8.6-0.3l0-2.2L91.2,124.8z"/>
						<path class="st9" d="M108.4,125.1c0,0.3-3.9,0.4-8.6,0.3c-4.8-0.1-8.6-0.4-8.6-0.6c0-0.3,3.9-0.4,8.6-0.3
							C104.6,124.6,108.4,124.9,108.4,125.1z"/>
						<path class="st9" d="M106.4,125c0,0.2-3,0.3-6.6,0.2c-3.7-0.1-6.6-0.2-6.6-0.4c0-0.2,3-0.3,6.6-0.2
							C103.5,124.7,106.4,124.9,106.4,125z"/>
						<line class="st7" x1="107.6" y1="125.4" x2="107.5" y2="127"/>
						<line class="st7" x1="106.3" y1="125.5" x2="106.3" y2="127.3"/>
						<line class="st7" x1="104.5" y1="125.5" x2="104.5" y2="126.9"/>
						<line class="st7" x1="102" y1="126.4" x2="102" y2="127.6"/>
						<line class="st7" x1="99.4" y1="127.6" x2="99.5" y2="126.2"/>
						<line class="st7" x1="91.7" y1="125.1" x2="91.7" y2="125.8"/>
						<line class="st7" x1="92.7" y1="127.2" x2="92.7" y2="126.3"/>
						<line class="st7" x1="96.7" y1="127.4" x2="96.7" y2="126.3"/>
					</g>
					<g>
						<path class="st9" d="M91.3,122.7l0,2.2c0,0.3,3.9,0.5,8.6,0.6c4.8,0.1,8.6-0.1,8.6-0.3l0-2.2L91.3,122.7z"/>
						<path class="st9" d="M108.6,123c0,0.3-3.9,0.4-8.6,0.3c-4.8-0.1-8.6-0.4-8.6-0.6c0-0.3,3.9-0.4,8.6-0.3
							C104.7,122.4,108.6,122.7,108.6,123z"/>
						<path class="st9" d="M106.6,122.9c0,0.2-3,0.3-6.6,0.2c-3.7-0.1-6.6-0.2-6.6-0.4c0-0.2,3-0.3,6.6-0.2
							C103.6,122.5,106.6,122.7,106.6,122.9z"/>
						<line class="st7" x1="107.7" y1="123.2" x2="107.7" y2="124.9"/>
						<line class="st7" x1="106.5" y1="123.4" x2="106.5" y2="125.1"/>
						<line class="st7" x1="104.6" y1="123.4" x2="104.6" y2="124.7"/>
						<line class="st7" x1="102.2" y1="124.2" x2="102.2" y2="125.4"/>
						<line class="st7" x1="99.6" y1="125.5" x2="99.6" y2="124"/>
						<line class="st7" x1="91.9" y1="122.9" x2="91.9" y2="123.7"/>
						<line class="st7" x1="92.9" y1="125.1" x2="92.9" y2="124.2"/>
						<line class="st7" x1="96.9" y1="125.2" x2="96.9" y2="124.2"/>
					</g>
					<g>
						<path class="st9" d="M90.1,120.5l0,2.2c0,0.3,3.9,0.5,8.6,0.6c4.8,0.1,8.6-0.1,8.6-0.3l0-2.2L90.1,120.5z"/>
						<path class="st9" d="M107.3,120.8c0,0.3-3.9,0.4-8.6,0.3c-4.8-0.1-8.6-0.4-8.6-0.6s3.9-0.4,8.6-0.3
							C103.5,120.3,107.4,120.5,107.3,120.8z"/>
						<path class="st9" d="M105.4,120.7c0,0.2-3,0.3-6.6,0.2c-3.7-0.1-6.6-0.2-6.6-0.4s3-0.3,6.6-0.2
							C102.4,120.4,105.4,120.5,105.4,120.7z"/>
						<line class="st7" x1="106.5" y1="121" x2="106.5" y2="122.7"/>
						<line class="st7" x1="105.3" y1="121.2" x2="105.2" y2="123"/>
						<line class="st7" x1="103.4" y1="121.2" x2="103.4" y2="122.6"/>
						<line class="st7" x1="101" y1="122" x2="101" y2="123.2"/>
						<line class="st7" x1="98.4" y1="123.3" x2="98.4" y2="121.8"/>
						<line class="st7" x1="90.7" y1="120.8" x2="90.6" y2="121.5"/>
						<line class="st7" x1="91.6" y1="122.9" x2="91.7" y2="122"/>
						<line class="st7" x1="95.6" y1="123.1" x2="95.7" y2="122"/>
					</g>
					<g>
						<path class="st9" d="M89.9,118.4l0,2.2c0,0.3,3.9,0.5,8.6,0.6c4.8,0.1,8.6-0.1,8.6-0.3l0-2.2L89.9,118.4z"/>
						<path class="st9" d="M107.1,118.6c0,0.3-3.9,0.4-8.6,0.3c-4.8-0.1-8.6-0.4-8.6-0.6c0-0.3,3.9-0.4,8.6-0.3
							C103.3,118.1,107.1,118.4,107.1,118.6z"/>
						<path class="st9" d="M105.1,118.6c0,0.2-3,0.3-6.6,0.2c-3.7-0.1-6.6-0.2-6.6-0.4c0-0.2,3-0.3,6.6-0.2
							C102.2,118.2,105.1,118.4,105.1,118.6z"/>
						<line class="st7" x1="106.3" y1="118.9" x2="106.2" y2="120.6"/>
						<line class="st7" x1="105" y1="119" x2="105" y2="120.8"/>
						<line class="st7" x1="103.2" y1="119" x2="103.2" y2="120.4"/>
						<line class="st7" x1="100.7" y1="119.9" x2="100.7" y2="121.1"/>
						<line class="st7" x1="98.1" y1="121.2" x2="98.2" y2="119.7"/>
						<line class="st7" x1="90.4" y1="118.6" x2="90.4" y2="119.4"/>
						<line class="st7" x1="91.4" y1="120.7" x2="91.4" y2="119.9"/>
						<line class="st7" x1="95.4" y1="120.9" x2="95.4" y2="119.8"/>
					</g>
					<g>
						<path class="st9" d="M89.5,116.2l0,2.2c0,0.3,3.9,0.5,8.6,0.6c4.8,0.1,8.6-0.1,8.6-0.3l0-2.2L89.5,116.2z"/>
						<path class="st9" d="M106.7,116.5c0,0.3-3.9,0.4-8.6,0.3c-4.8-0.1-8.6-0.4-8.6-0.6c0-0.3,3.9-0.4,8.6-0.3
							C102.8,115.9,106.7,116.2,106.7,116.5z"/>
						<path class="st9" d="M104.7,116.4c0,0.2-3,0.3-6.6,0.2c-3.7-0.1-6.6-0.2-6.6-0.4c0-0.2,3-0.3,6.6-0.2
							C101.7,116,104.7,116.2,104.7,116.4z"/>
						<line class="st7" x1="105.8" y1="116.7" x2="105.8" y2="118.4"/>
						<line class="st7" x1="104.6" y1="116.9" x2="104.6" y2="118.6"/>
						<line class="st7" x1="102.8" y1="116.9" x2="102.7" y2="118.2"/>
						<line class="st7" x1="100.3" y1="117.7" x2="100.3" y2="118.9"/>
						<line class="st7" x1="97.7" y1="119" x2="97.7" y2="117.5"/>
						<line class="st7" x1="90" y1="116.5" x2="90" y2="117.2"/>
						<line class="st7" x1="91" y1="118.6" x2="91" y2="117.7"/>
						<line class="st7" x1="95" y1="118.7" x2="95" y2="117.7"/>
					</g>
					<g>
						<path class="st9" d="M91,114.1l0,2.2c0,0.3,3.9,0.5,8.6,0.6c4.8,0.1,8.6-0.1,8.6-0.3l0-2.2L91,114.1z"/>
						<path class="st9" d="M108.2,114.3c0,0.3-3.9,0.4-8.6,0.3c-4.8-0.1-8.6-0.4-8.6-0.6s3.9-0.4,8.6-0.3S108.2,114.1,108.2,114.3z"
							/>
						<path class="st9" d="M106.2,114.2c0,0.2-3,0.3-6.6,0.2c-3.7-0.1-6.6-0.2-6.6-0.4c0-0.2,3-0.3,6.6-0.2
							C103.2,113.9,106.2,114.1,106.2,114.2z"/>
						<line class="st7" x1="107.3" y1="114.6" x2="107.3" y2="116.2"/>
						<line class="st7" x1="106.1" y1="114.7" x2="106.1" y2="116.5"/>
						<line class="st7" x1="104.3" y1="114.7" x2="104.2" y2="116.1"/>
						<line class="st7" x1="101.8" y1="115.6" x2="101.8" y2="116.8"/>
						<line class="st7" x1="99.2" y1="116.9" x2="99.2" y2="115.4"/>
						<line class="st7" x1="91.5" y1="114.3" x2="91.5" y2="115.1"/>
						<line class="st7" x1="92.5" y1="116.4" x2="92.5" y2="115.6"/>
						<line class="st7" x1="96.5" y1="116.6" x2="96.5" y2="115.5"/>
					</g>
					<g>
						<path class="st9" d="M90.4,111.9l0,2.2c0,0.3,3.9,0.5,8.6,0.6c4.8,0.1,8.6-0.1,8.6-0.3l0-2.2L90.4,111.9z"/>
						<path class="st9" d="M107.6,112.2c0,0.3-3.9,0.4-8.6,0.3c-4.8-0.1-8.6-0.4-8.6-0.6c0-0.3,3.9-0.4,8.6-0.3
							C103.8,111.6,107.7,111.9,107.6,112.2z"/>
						<path class="st9" d="M105.7,112.1c0,0.2-3,0.3-6.6,0.2c-3.7-0.1-6.6-0.2-6.6-0.4c0-0.2,3-0.3,6.6-0.2
							C102.7,111.7,105.7,111.9,105.7,112.1z"/>
						<line class="st7" x1="106.8" y1="112.4" x2="106.8" y2="114.1"/>
						<line class="st7" x1="105.6" y1="112.6" x2="105.5" y2="114.3"/>
						<line class="st7" x1="103.7" y1="112.6" x2="103.7" y2="113.9"/>
						<line class="st7" x1="101.3" y1="113.4" x2="101.3" y2="114.6"/>
						<line class="st7" x1="98.7" y1="114.7" x2="98.7" y2="113.2"/>
						<line class="st7" x1="91" y1="112.1" x2="90.9" y2="112.9"/>
						<line class="st7" x1="91.9" y1="114.3" x2="92" y2="113.4"/>
						<line class="st7" x1="95.9" y1="114.4" x2="96" y2="113.4"/>
					</g>
					<g>
						<path class="st9" d="M89,109.6l0,2.2c0,0.3,3.9,0.5,8.6,0.6c4.8,0.1,8.6-0.1,8.6-0.3l0-2.2L89,109.6z"/>
						<path class="st9" d="M106.2,109.9c0,0.3-3.9,0.4-8.6,0.3c-4.8-0.1-8.6-0.4-8.6-0.6s3.9-0.4,8.6-0.3
							C102.4,109.3,106.2,109.6,106.2,109.9z"/>
						<path class="st9" d="M104.2,109.8c0,0.2-3,0.3-6.6,0.2c-3.7-0.1-6.6-0.2-6.6-0.4s3-0.3,6.6-0.2S104.2,109.6,104.2,109.8z"/>
						<line class="st7" x1="105.3" y1="110.1" x2="105.3" y2="111.8"/>
						<line class="st7" x1="104.1" y1="110.3" x2="104.1" y2="112"/>
						<line class="st7" x1="102.3" y1="110.3" x2="102.2" y2="111.6"/>
						<line class="st7" x1="99.8" y1="111.1" x2="99.8" y2="112.3"/>
						<line class="st7" x1="97.2" y1="112.4" x2="97.2" y2="110.9"/>
						<line class="st7" x1="89.5" y1="109.9" x2="89.5" y2="110.6"/>
						<line class="st7" x1="90.5" y1="112" x2="90.5" y2="111.1"/>
						<line class="st7" x1="94.5" y1="112.1" x2="94.5" y2="111.1"/>
					</g>
					<g>
						<path class="st9" d="M89.7,107.5l0,2.2c0,0.3,3.9,0.5,8.6,0.6c4.8,0.1,8.6-0.1,8.6-0.3l0-2.2L89.7,107.5z"/>
						<path class="st9" d="M106.9,107.7c0,0.3-3.9,0.4-8.6,0.3c-4.8-0.1-8.6-0.4-8.6-0.6c0-0.3,3.9-0.4,8.6-0.3
							C103,107.2,106.9,107.5,106.9,107.7z"/>
						<path class="st9" d="M104.9,107.6c0,0.2-3,0.3-6.6,0.2c-3.7-0.1-6.6-0.2-6.6-0.4c0-0.2,3-0.3,6.6-0.2
							C101.9,107.3,104.9,107.5,104.9,107.6z"/>
						<line class="st7" x1="106" y1="108" x2="106" y2="109.6"/>
						<line class="st7" x1="104.8" y1="108.1" x2="104.8" y2="109.9"/>
						<line class="st7" x1="103" y1="108.1" x2="102.9" y2="109.5"/>
						<line class="st7" x1="100.5" y1="109" x2="100.5" y2="110.2"/>
						<line class="st7" x1="97.9" y1="110.3" x2="97.9" y2="108.8"/>
						<line class="st7" x1="90.2" y1="107.7" x2="90.2" y2="108.5"/>
						<line class="st7" x1="91.2" y1="109.8" x2="91.2" y2="109"/>
						<line class="st7" x1="95.2" y1="110" x2="95.2" y2="108.9"/>
					</g>
					<g>
						<path class="st9" d="M89.7,105.4l0,2.2c0,0.3,3.9,0.5,8.6,0.6c4.8,0.1,8.6-0.1,8.6-0.3l0-2.2L89.7,105.4z"/>
						<path class="st9" d="M106.9,105.7c0,0.3-3.9,0.4-8.6,0.3c-4.8-0.1-8.6-0.4-8.6-0.6c0-0.3,3.9-0.4,8.6-0.3
							C103.1,105.2,106.9,105.5,106.9,105.7z"/>
						<path class="st9" d="M104.9,105.6c0,0.2-3,0.3-6.6,0.2c-3.7-0.1-6.6-0.2-6.6-0.4s3-0.3,6.6-0.2
							C102,105.3,104.9,105.5,104.9,105.6z"/>
						<line class="st7" x1="106.1" y1="105.9" x2="106" y2="107.6"/>
						<line class="st7" x1="104.8" y1="106.1" x2="104.8" y2="107.9"/>
						<line class="st7" x1="103" y1="106.1" x2="103" y2="107.5"/>
						<line class="st7" x1="100.6" y1="107" x2="100.5" y2="108.1"/>
						<line class="st7" x1="97.9" y1="108.2" x2="98" y2="106.7"/>
						<line class="st7" x1="90.2" y1="105.7" x2="90.2" y2="106.4"/>
						<line class="st7" x1="91.2" y1="107.8" x2="91.2" y2="106.9"/>
						<line class="st7" x1="95.2" y1="108" x2="95.2" y2="106.9"/>
					</g>
					<g>
						<path class="st9" d="M87.7,103.4l0,2.2c0,0.3,3.9,0.5,8.6,0.6c4.8,0.1,8.6-0.1,8.6-0.3l0-2.2L87.7,103.4z"/>
						<path class="st9" d="M105,103.7c0,0.3-3.9,0.4-8.6,0.3c-4.8-0.1-8.6-0.4-8.6-0.6c0-0.3,3.9-0.4,8.6-0.3
							C101.1,103.1,105,103.4,105,103.7z"/>
						<path class="st9" d="M103,103.6c0,0.2-3,0.3-6.6,0.2c-3.7-0.1-6.6-0.2-6.6-0.4c0-0.2,3-0.3,6.6-0.2
							C100,103.2,103,103.4,103,103.6z"/>
						<line class="st7" x1="104.1" y1="103.9" x2="104.1" y2="105.6"/>
						<line class="st7" x1="102.9" y1="104.1" x2="102.8" y2="105.8"/>
						<line class="st7" x1="101" y1="104.1" x2="101" y2="105.4"/>
						<line class="st7" x1="98.6" y1="104.9" x2="98.6" y2="106.1"/>
						<line class="st7" x1="96" y1="106.2" x2="96" y2="104.7"/>
						<line class="st7" x1="88.3" y1="103.7" x2="88.3" y2="104.4"/>
						<line class="st7" x1="89.2" y1="105.8" x2="89.3" y2="104.9"/>
						<line class="st7" x1="93.2" y1="105.9" x2="93.3" y2="104.9"/>
					</g>
					<g>
						<path class="st9" d="M86.7,101.4l0,2.2c0,0.3,3.9,0.5,8.6,0.6c4.8,0.1,8.6-0.1,8.6-0.3l0-2.2L86.7,101.4z"/>
						<path class="st9" d="M104,101.6c0,0.3-3.9,0.4-8.6,0.3c-4.8-0.1-8.6-0.4-8.6-0.6s3.9-0.4,8.6-0.3
							C100.1,101.1,104,101.4,104,101.6z"/>
						<path class="st9" d="M102,101.5c0,0.2-3,0.3-6.6,0.2c-3.7-0.1-6.6-0.2-6.6-0.4s3-0.3,6.6-0.2C99,101.2,102,101.4,102,101.5z"
							/>
						<line class="st7" x1="103.1" y1="101.9" x2="103.1" y2="103.5"/>
						<line class="st7" x1="101.9" y1="102" x2="101.9" y2="103.8"/>
						<line class="st7" x1="100" y1="102" x2="100" y2="103.4"/>
						<line class="st7" x1="97.6" y1="102.9" x2="97.6" y2="104.1"/>
						<line class="st7" x1="95" y1="104.2" x2="95" y2="102.7"/>
						<line class="st7" x1="87.3" y1="101.6" x2="87.3" y2="102.4"/>
						<line class="st7" x1="88.3" y1="103.7" x2="88.3" y2="102.9"/>
						<line class="st7" x1="92.3" y1="103.9" x2="92.3" y2="102.8"/>
					</g>
				</g>
				<g>
					<g>
						<path class="st9" d="M75.4,135.5l0,2.2c0,0.3,3.9,0.5,8.6,0.6c4.8,0.1,8.6-0.1,8.6-0.3l0-2.2L75.4,135.5z"/>
						<path class="st9" d="M92.6,135.7c0,0.3-3.9,0.4-8.6,0.3c-4.8-0.1-8.6-0.4-8.6-0.6c0-0.3,3.9-0.4,8.6-0.3
							C88.7,135.2,92.6,135.5,92.6,135.7z"/>
						<path class="st9" d="M90.6,135.7c0,0.2-3,0.3-6.6,0.2c-3.7-0.1-6.6-0.2-6.6-0.4c0-0.2,3-0.3,6.6-0.2
							C87.6,135.3,90.6,135.5,90.6,135.7z"/>
						<line class="st7" x1="91.7" y1="136" x2="91.7" y2="137.6"/>
						<line class="st7" x1="90.5" y1="136.1" x2="90.5" y2="137.9"/>
						<line class="st7" x1="88.6" y1="136.1" x2="88.6" y2="137.5"/>
						<line class="st7" x1="86.2" y1="137" x2="86.2" y2="138.2"/>
						<line class="st7" x1="83.6" y1="138.3" x2="83.6" y2="136.8"/>
						<line class="st7" x1="75.9" y1="135.7" x2="75.9" y2="136.5"/>
						<line class="st7" x1="76.9" y1="137.8" x2="76.9" y2="137"/>
						<line class="st7" x1="80.9" y1="138" x2="80.9" y2="136.9"/>
					</g>
					<g>
						<path class="st9" d="M75.2,133.3l0,2.2c0,0.3,3.9,0.5,8.6,0.6s8.6-0.1,8.6-0.3l0-2.2L75.2,133.3z"/>
						<path class="st9" d="M92.5,133.5c0,0.3-3.9,0.4-8.6,0.3c-4.8-0.1-8.6-0.4-8.6-0.6s3.9-0.4,8.6-0.3
							C88.6,133,92.5,133.3,92.5,133.5z"/>
						<path class="st9" d="M90.5,133.4c0,0.2-3,0.3-6.6,0.2c-3.7-0.1-6.6-0.2-6.6-0.4c0-0.2,3-0.3,6.6-0.2
							C87.5,133.1,90.5,133.3,90.5,133.4z"/>
						<line class="st7" x1="91.6" y1="133.8" x2="91.6" y2="135.4"/>
						<line class="st7" x1="90.4" y1="133.9" x2="90.4" y2="135.7"/>
						<line class="st7" x1="88.5" y1="133.9" x2="88.5" y2="135.3"/>
						<line class="st7" x1="86.1" y1="134.8" x2="86.1" y2="136"/>
						<line class="st7" x1="83.5" y1="136.1" x2="83.5" y2="134.6"/>
						<line class="st7" x1="75.8" y1="133.5" x2="75.8" y2="134.3"/>
						<line class="st7" x1="76.8" y1="135.6" x2="76.8" y2="134.8"/>
						<line class="st7" x1="80.8" y1="135.8" x2="80.8" y2="134.7"/>
					</g>
					<g>
						<path class="st9" d="M75.3,131l0,2.2c0,0.3,3.9,0.5,8.6,0.6c4.8,0.1,8.6-0.1,8.6-0.3l0-2.2L75.3,131z"/>
						<path class="st9" d="M92.5,131.3c0,0.3-3.9,0.4-8.6,0.3c-4.8-0.1-8.6-0.4-8.6-0.6c0-0.3,3.9-0.4,8.6-0.3
							C88.7,130.7,92.5,131,92.5,131.3z"/>
						<path class="st9" d="M90.5,131.2c0,0.2-3,0.3-6.6,0.2c-3.7-0.1-6.6-0.2-6.6-0.4c0-0.2,3-0.3,6.6-0.2
							C87.6,130.8,90.5,131,90.5,131.2z"/>
						<line class="st7" x1="91.7" y1="131.5" x2="91.6" y2="133.2"/>
						<line class="st7" x1="90.4" y1="131.6" x2="90.4" y2="133.4"/>
						<line class="st7" x1="88.6" y1="131.7" x2="88.6" y2="133"/>
						<line class="st7" x1="86.1" y1="132.5" x2="86.1" y2="133.7"/>
						<line class="st7" x1="83.5" y1="133.8" x2="83.6" y2="132.3"/>
						<line class="st7" x1="75.8" y1="131.2" x2="75.8" y2="132"/>
						<line class="st7" x1="76.8" y1="133.4" x2="76.8" y2="132.5"/>
						<line class="st7" x1="80.8" y1="133.5" x2="80.8" y2="132.5"/>
					</g>
					<g>
						<path class="st9" d="M75.9,128.8l0,2.2c0,0.3,3.9,0.5,8.6,0.6c4.8,0.1,8.6-0.1,8.6-0.3l0-2.2L75.9,128.8z"/>
						<path class="st9" d="M93.1,129.1c0,0.3-3.9,0.4-8.6,0.3c-4.8-0.1-8.6-0.4-8.6-0.6s3.9-0.4,8.6-0.3
							C89.2,128.5,93.1,128.8,93.1,129.1z"/>
						<path class="st9" d="M91.1,129c0,0.2-3,0.3-6.6,0.2c-3.7-0.1-6.6-0.2-6.6-0.4c0-0.2,3-0.3,6.6-0.2
							C88.1,128.6,91.1,128.8,91.1,129z"/>
						<line class="st7" x1="92.2" y1="129.3" x2="92.2" y2="131"/>
						<line class="st7" x1="91" y1="129.4" x2="91" y2="131.2"/>
						<line class="st7" x1="89.1" y1="129.5" x2="89.1" y2="130.8"/>
						<line class="st7" x1="86.7" y1="130.3" x2="86.7" y2="131.5"/>
						<line class="st7" x1="84.1" y1="131.6" x2="84.1" y2="130.1"/>
						<line class="st7" x1="76.4" y1="129" x2="76.4" y2="129.8"/>
						<line class="st7" x1="77.4" y1="131.2" x2="77.4" y2="130.3"/>
						<line class="st7" x1="81.4" y1="131.3" x2="81.4" y2="130.3"/>
					</g>
					<g>
						<path class="st9" d="M76.2,126.6l0,2.2c0,0.3,3.9,0.5,8.6,0.6c4.8,0.1,8.6-0.1,8.6-0.3l0-2.2L76.2,126.6z"/>
						<path class="st9" d="M93.4,126.8c0,0.3-3.9,0.4-8.6,0.3s-8.6-0.4-8.6-0.6s3.9-0.4,8.6-0.3S93.4,126.6,93.4,126.8z"/>
						<path class="st9" d="M91.4,126.8c0,0.2-3,0.3-6.6,0.2c-3.7-0.1-6.6-0.2-6.6-0.4s3-0.3,6.6-0.2
							C88.5,126.4,91.4,126.6,91.4,126.8z"/>
						<line class="st7" x1="92.6" y1="127.1" x2="92.5" y2="128.7"/>
						<line class="st7" x1="91.3" y1="127.2" x2="91.3" y2="129"/>
						<line class="st7" x1="89.5" y1="127.2" x2="89.5" y2="128.6"/>
						<line class="st7" x1="87" y1="128.1" x2="87" y2="129.3"/>
						<line class="st7" x1="84.4" y1="129.4" x2="84.5" y2="127.9"/>
						<line class="st7" x1="76.7" y1="126.8" x2="76.7" y2="127.6"/>
						<line class="st7" x1="77.7" y1="128.9" x2="77.7" y2="128.1"/>
						<line class="st7" x1="81.7" y1="129.1" x2="81.7" y2="128"/>
					</g>
					<g>
						<path class="st9" d="M75.9,124.3l0,2.2c0,0.3,3.9,0.5,8.6,0.6c4.8,0.1,8.6-0.1,8.6-0.3l0-2.2L75.9,124.3z"/>
						<path class="st9" d="M93.2,124.6c0,0.3-3.9,0.4-8.6,0.3c-4.8-0.1-8.6-0.4-8.6-0.6c0-0.3,3.9-0.4,8.6-0.3
							C89.3,124.1,93.2,124.4,93.2,124.6z"/>
						<path class="st9" d="M91.2,124.5c0,0.2-3,0.3-6.6,0.2c-3.7-0.1-6.6-0.2-6.6-0.4s3-0.3,6.6-0.2
							C88.2,124.2,91.2,124.4,91.2,124.5z"/>
						<line class="st7" x1="92.3" y1="124.9" x2="92.3" y2="126.5"/>
						<line class="st7" x1="91.1" y1="125" x2="91" y2="126.8"/>
						<line class="st7" x1="89.2" y1="125" x2="89.2" y2="126.4"/>
						<line class="st7" x1="86.8" y1="125.9" x2="86.8" y2="127.1"/>
						<line class="st7" x1="84.2" y1="127.1" x2="84.2" y2="125.7"/>
						<line class="st7" x1="76.5" y1="124.6" x2="76.5" y2="125.4"/>
						<line class="st7" x1="77.5" y1="126.7" x2="77.5" y2="125.9"/>
						<line class="st7" x1="81.4" y1="126.9" x2="81.5" y2="125.8"/>
					</g>
					<g>
						<path class="st9" d="M76.4,122.1l0,2.2c0,0.3,3.9,0.5,8.6,0.6c4.8,0.1,8.6-0.1,8.6-0.3l0-2.2L76.4,122.1z"/>
						<path class="st9" d="M93.7,122.4c0,0.3-3.9,0.4-8.6,0.3c-4.8-0.1-8.6-0.4-8.6-0.6s3.9-0.4,8.6-0.3
							C89.8,121.9,93.7,122.2,93.7,122.4z"/>
						<path class="st9" d="M91.7,122.3c0,0.2-3,0.3-6.6,0.2c-3.7-0.1-6.6-0.2-6.6-0.4s3-0.3,6.6-0.2C88.7,122,91.7,122.2,91.7,122.3
							z"/>
						<line class="st7" x1="92.8" y1="122.7" x2="92.8" y2="124.3"/>
						<line class="st7" x1="91.6" y1="122.8" x2="91.5" y2="124.6"/>
						<line class="st7" x1="89.7" y1="122.8" x2="89.7" y2="124.2"/>
						<line class="st7" x1="87.3" y1="123.7" x2="87.3" y2="124.9"/>
						<line class="st7" x1="84.7" y1="124.9" x2="84.7" y2="123.4"/>
						<line class="st7" x1="77" y1="122.4" x2="77" y2="123.1"/>
						<line class="st7" x1="78" y1="124.5" x2="78" y2="123.6"/>
						<line class="st7" x1="82" y1="124.7" x2="82" y2="123.6"/>
					</g>
					<g>
						<path class="st9" d="M75.3,119.9l0,2.2c0,0.3,3.9,0.5,8.6,0.6c4.8,0.1,8.6-0.1,8.6-0.3l0-2.2L75.3,119.9z"/>
						<path class="st9" d="M92.6,120.2c0,0.3-3.9,0.4-8.6,0.3c-4.8-0.1-8.6-0.4-8.6-0.6c0-0.3,3.9-0.4,8.6-0.3
							C88.7,119.7,92.6,119.9,92.6,120.2z"/>
						<path class="st9" d="M90.6,120.1c0,0.2-3,0.3-6.6,0.2c-3.7-0.1-6.6-0.2-6.6-0.4c0-0.2,3-0.3,6.6-0.2
							C87.6,119.7,90.6,119.9,90.6,120.1z"/>
						<line class="st7" x1="91.7" y1="120.4" x2="91.7" y2="122.1"/>
						<line class="st7" x1="90.5" y1="120.6" x2="90.5" y2="122.3"/>
						<line class="st7" x1="88.6" y1="120.6" x2="88.6" y2="122"/>
						<line class="st7" x1="86.2" y1="121.4" x2="86.2" y2="122.6"/>
						<line class="st7" x1="83.6" y1="122.7" x2="83.6" y2="121.2"/>
						<line class="st7" x1="75.9" y1="120.2" x2="75.9" y2="120.9"/>
						<line class="st7" x1="76.9" y1="122.3" x2="76.9" y2="121.4"/>
						<line class="st7" x1="80.9" y1="122.4" x2="80.9" y2="121.4"/>
					</g>
				</g>
				<g>
					<path class="st8" d="M103.9,128.9c-0.1,5.2-4.4,9.4-9.6,9.3s-9.4-4.4-9.3-9.6c0.1-5.2,4.4-9.4,9.6-9.3
						C99.8,119.4,104,123.7,103.9,128.9z"/>
					<ellipse class="st15" cx="93.9" cy="128.8" rx="9.4" ry="9.4"/>
					<ellipse class="st16" cx="93.9" cy="128.8" rx="8.2" ry="8.2"/>
				</g>
			</g>
			<g>
				<path class="st9" d="M80,114.7c0,0,5.6,5.4,5.4,6.8c-0.2,1.4-2.9,3.2-2.9,3.2L80,114.7z"/>
				<path class="st9" d="M66.9,111.4c0,0,15.6,0,15.8,1.1c0.1,1.1-1.5,3.7-1.5,3.7L66.9,111.4z"/>
				<path class="st9" d="M64.3,113.5c0,0,1.8-1.8,2.6-2.2c0.8-0.3,12.3,2.3,13.1,3.3c0.8,1,5.7,10.3,6,11.1c0.2,0.8-5.8,3-8.4,2.5
					c-1.4-0.3-3.1-3.9-3.1-3.9l-4.1-6.9L64.3,113.5z"/>
				<path class="st9" d="M75.7,126.1c0,0,4.3,6.1,4.2,8s-1.2,3.6-2.2,4.3S47,138.8,46,138.5c-1-0.3-2.8-2.7-3.2-4.8
					c-0.3-2-0.3-7.9,3.9-10.9c4.6-3.2,17.6-9.2,17.6-9.2s3.4,0.3,4.3,1.6C69.5,116.4,75.7,126.1,75.7,126.1z"/>
				<path class="st9" d="M61.6,115c0,0,11.1,6.8,10.7,5.2c-0.4-1.6-1.6-3.1-3.6-5.1C66.5,113.1,61.5,112.5,61.6,115z"/>
				<line class="st7" x1="68.6" y1="115.1" x2="73.8" y2="119.5"/>
			</g>
		</g>
	</g>
	<g id="Characters">
		<g>
			<path class="st12" d="M115.7,63.9c0,0,2.1,4.2,3,7.6c0.8,3.4,0.8,7,0.8,7l-6.9-14l2-1.9L115.7,63.9z"/>
			<g>
				<path class="st9" d="M120.3,53.3c0,0,0.3,2.2,0.1,2.7c-0.3,0.5-0.3,0.5-0.3,0.5s0.5,1.7,0.4,2c-0.1,0.3-0.9,0.5-0.9,0.5
					s-0.5,1.9-0.5,2.4c0,0.5-0.7,0.6-1.4,0.6s-1.9-0.4-1.9-0.4l-1,1.4l-4.9-4.5l0.3-0.9c0,0-0.5-3-0.3-4.5c0.2-1.5,0.6-2.4,2.3-3.3
					c1.7-0.8,4.4-0.2,5.1,0.1s2.2,1.2,2.8,1.5c0.6,0.3,1,0.3,0.9,1C120.9,53,120.3,53.3,120.3,53.3z"/>
				<path class="st8" d="M121,52.3c0.1-0.7-0.4-0.7-0.9-1c-0.6-0.3-2.1-1.1-2.8-1.5s-3.4-0.9-5.1-0.1c-1.7,0.8-2.1,1.8-2.3,3.3
					c-0.2,1.5,0.3,4.5,0.3,4.5c0.2,0.5,1.2,0.6,2.2,0c0.9-0.6,0.5-1,0.5-1c0-0.2-0.3-1.6,0.6-1.8s1.3,0.5,1.3,0.9s0.3,0.8,0.6,0.7
					c0.3-0.1,0.5-0.5,0.5-0.5s1.6-0.4,1.8-1.2c0.2-0.8-0.3-2.3-0.3-2.3l2.9,1C120.3,53.3,120.9,53,121,52.3z"/>
				<path class="st7" d="M112.8,56.5c0,0,0.3,1.4,1.1,1.3"/>
				<path class="st7" d="M119.7,55.9c0,0-0.8-0.2-1.4,0.1"/>
				<path class="st10" d="M119.4,56.9c0,0.3-0.1,0.5-0.3,0.5c-0.1,0-0.3-0.2-0.3-0.5c0-0.3,0.1-0.5,0.3-0.5
					C119.3,56.4,119.4,56.6,119.4,56.9z"/>
				<path class="st7" d="M118.6,59.5c0,0-0.9-0.3-1.2-1"/>
			</g>
			<path class="st17" d="M115.2,63.4c0,0,1.5,2.6,1.5,4s0,2.7,0,2.7l-2.3-5L115.2,63.4z"/>
			<polygon class="st9" points="109.8,58 115.3,63 114.5,65.1 109.1,59.2 			"/>
			<path class="st18" d="M118.2,132.4c0,0,0.9,1.6,2.5,2s3.9,0.1,4.2,0.4c0.3,0.4-1.5,1.6-2.7,1.8c-1.1,0.2-3.5-0.2-4.6-0.3
				c-1.1-0.2-2-0.4-2-0.4h-0.5l-0.2,0.5l-2.9-0.3c0,0-0.4-1.9-0.2-3.1C112.1,131.8,118.2,132.4,118.2,132.4z"/>
			<path class="st9" d="M121.9,93c0,0,0,2.3,0.1,2.6c0,0.3-0.5,1.5-0.8,1.8s-1.8,0.4-1.8,0.4l0.3-5.2L121.9,93z"/>
			<path class="st12" d="M120,83.5c0,0,2,8,2,8.7c0,0.7,0,0.7,0,0.7h-1.7L120,83.5z"/>
			<path class="st8" d="M120,95.3c0,0-1,24.8-1,26.3c0.1,1.5-0.5,7.3-0.6,8c-0.1,0.8-0.2,1.3-0.2,1.3s0.7,0.4,0.6,0.8
				c-0.1,0.4-0.1,1-0.1,1.2s-2.8,1-4.2,1.1c-1.4,0.1-3.1-0.8-3.1-0.8l2.3-23.9l1.5-10.3l0.1-3L120,95.3z"/>
			<path class="st18" d="M111.5,134.4l2.9,2.8c0,0,3,0.8,3.3,1.4s-0.5,0.9-1.4,1.2c-0.9,0.3-3.3,0.8-4.8,0.5
				c-1.5-0.3-3.4-0.9-3.4-0.9s-1.7-0.4-2.2-0.7s0.2-3.9,0.2-3.9L111.5,134.4z"/>
			<path class="st8" d="M105,94.1c0,0-0.2,2.9,0.3,4.2c0.5,1.2,1,2.1,1,2.3c0,0.2,0.4,13,0,14.8c-0.4,1.8-1.2,4.2-1.2,6.5
				s0.2,13.1,0.2,13.1s1.8,0.6,2.8,0.4c1-0.2,2.3-0.5,2.9-0.5c0.5,0,1,0.1,1,0.1s0.1-0.8,0.3-1.4c0.1-0.6,0-1.1,0.1-1.5
				c0.1-0.4,2.1-23.1,2.3-23.8c0.2-0.8,2.7-11.8,2.7-11.8L105,94.1z"/>
			<path class="st12" d="M109.1,59.2l-3.9,5.2c0,0-2.3,1.9-2.2,5.8c0.1,4,1.7,11.6,1.7,11.6l-0.7,14.5c0,0,11.7,1.9,14.5,1.1
				c2.8-0.8,2-3.6,2-7.2c0-3.6-1-11-1.5-14.2c-0.5-3.2-4.8-11.2-4.8-11.2L109.1,59.2z"/>
			<path class="st9" d="M149.2,78.9l-2.6,4.2c0,0-5.2-1.4-6.3-1.6c-1.1-0.3-2.6-1-2.6-1s-1.4-0.9-1.9-0.8c-0.5,0-0.7,0.6-0.7,0.6
				s-0.6,1,0.2,1.4c0.9,0.4,4.4,2.2,5.3,2.6c0.8,0.4,1.7,0.8,3.5,1.8c1.8,1,2.4,0.9,2.9,0.8c0.5,0,2.2-1.8,2.2-1.8L149.2,78.9z"/>
			<g>
				<path class="st9" d="M130.4,78.6c0,0,4.1,0.6,4.4,0.7c0.3,0.1,2.5,2,2.6,2.3c0.1,0.3,0.2,1.2-0.1,1.3c-0.3,0.1-0.5-0.4-0.5-0.4
					l-0.7-0.7c0,0,0.6,0.9,0.4,1.1c-0.2,0.2-1.2,0.9-1.6,1c-0.4,0.1-0.6,0.1-0.8,0c-0.2-0.2-0.6-0.5-0.7-0.5
					c-0.1-0.1-0.9-0.2-1.5-0.7c-0.6-0.5-1.5-1.7-1.5-1.7L130.4,78.6z"/>
				<g>
					<path class="st12" d="M105.1,71.8c0,0,9.3,9.3,10.1,9.9s1.2,0.6,1.6,0.8s13.3,1.4,13.3,1.4l0.2-5.2l-9.4-1.5l-3.2-2.3l-3.1-5.7
						c0,0-0.6-3.1-1.6-4.3c-1-1.2-3.9-1.7-5.5-0.8"/>
					<path class="st7" d="M112.7,72.5c0.6,0.1,1.3,0.2,1.9,0.2"/>
					<path class="st7" d="M108.8,71.5c0,0,1.3,0.4,2.8,0.8"/>
					<path class="st7" d="M106,71.5c0,0,1.2,1.1,4.5,1.2"/>
				</g>
			</g>
			<path class="st7" d="M118.2,84.1c0,0-6.1,0.1-6.2,0.7c-0.1,0.5-0.2,1.7,0,1.7c0.2,0.1,6.2-0.4,6.4-0.5c0.2-0.1,0.1-0.7,0.1-1.1"
				/>
			<path class="st8" d="M149.7,136c0,0-0.7,0.6-1.1,0.9c-0.5,0.3-1.7,0.8-2.4,1.2c-0.7,0.5,0.6,0.9,2,1c1.5,0.1,2.9-0.1,3.2-0.3
				c0.2-0.3,1.2-1.4,1.4-1.5c0.2-0.1,0.8-0.1,0.8-0.1l0,1.5c0,0,0.3,0.1,0.5,0c0.2-0.1,0.2-2.3,0.2-2.3L149.7,136z"/>
			<path class="st8" d="M154.3,136.3c0,0-0.3,0.9-1.1,1.7c-0.8,0.8-1.7,1.4-1.7,1.6c0,0.3,0.1,0.6,0.5,0.6c0.3,0,3.8,0.1,4.4-0.2
				c0.7-0.2,0.7-0.6,0.8-1.1c0.1-0.5,0.6-1.1,0.6-1.1l0,1.6l0.5,0l0.1-2.7L154.3,136.3z"/>
			<path class="st8" d="M148.9,97.1c0,0,0,7.6,0.7,10.4c0.7,2.8,0.8,9.1,1,11.4c0.2,2.3-1,16.6-1,16.6c-0.2,0.8-0.2,0.8-0.2,0.8
				s1.2,0.5,1.9,0.6c0.7,0.1,2.9,0.1,3.1,0.1c0.2,0,1.5-0.7,1.5-0.7s0.1-8.2,0.1-11.8s0.4-18,0.4-18l-0.2-10.3l-7.4-0.1L148.9,97.1z
				"/>
			<path class="st8" d="M152.1,98.6c0,0,1.8,11.2,2.2,14.6s0.8,16.3,0.8,17.4s-0.8,4.6-0.8,4.6l-0.5,1.7c0,0,1.2,0.9,2.9,0.8
				c1.8-0.1,4-0.8,4-0.8s0.4-11.7,0.6-16.1c0.2-4.3-1.1-8.8-1.1-8.8l-0.1-1.3l-0.2-1.6c0,0,0.1-6.2,0.5-7.5c0.4-1.3,1.3-4,1.1-5.2
				s-0.2-1.1-0.2-1.1l-9.5,1.7L152.1,98.6z"/>
			<g>
				<path class="st8" d="M161.5,60.8c0,0,0.8,1.9,1.9,2.5c1.1,0.6,1.6,2.1,1.4,3.4s0,1,1.6,2.2c1.5,1.2,1.5,4.6,0.8,5.3
					c-0.7,0.8-1.6,1.3-1.5,1.9c0,0.6-0.2,1.8-1,2.3c-0.8,0.6-1.9,0-1.9,0s-0.1-4-2.3-6.5c-2.2-2.4-2.2-4.4-1.7-5.2
					c0.5-0.9,1.7-2.3,1.9-3.5C160.9,62.1,161.1,60.3,161.5,60.8z"/>
				<path class="st12" d="M155.5,70.3c0,0-0.5,0.6-0.5,0.8s-0.3,0.4-0.3,0.4s-2.4,0.2-3.3,1.1c-0.8,1-2.5,4.6-2.4,6.8
					c0.1,2.2-0.5,14.3-0.5,15.6c0.1,1.3-0.1,3-0.1,3l1.1,0.5l0.3-1.5l0.2,1.7c0,0,2.8,0.9,6.2-0.1c3.4-1,6.1-1.5,6.1-1.5
					s-2.7-9.3-2.7-9.9s4-9.7,4.2-11.9c0.1-2.2,0-3-0.7-3.6s-2.4-1.1-2.4-1.1s0.1-0.8-0.2-1.2c-0.3-0.4-0.6-0.1-0.6-0.1L155.5,70.3z"
					/>
				<path class="st19" d="M153.4,87.3c0.3,0.3,0.6,0.6,0.9,0.8"/>
				<path class="st19" d="M150.6,81.5c0,0,0.8,2.7,2.1,4.8"/>
				<path class="st19" d="M151.3,85.4c0,0,1.6,3,2.9,4"/>
				<line class="st19" x1="160.1" y1="71.2" x2="156.3" y2="73"/>
				<path class="st20" d="M153.6,59.8c0,0-1.2,1.5-1.1,3c0,0.7,0.3,0.9,0.1,1.2c-0.2,0.3-0.9,0.8-0.6,1.2c0.2,0.4,0.7,0.6,0.7,0.6
					s0.2,2.5,0.7,2.6c0.4,0.1,2-0.3,2-0.3s-0.1,2.4-0.1,2.8c0,0.4-1.3,2.1-1.8,3.5c-0.5,1.4-1,2.2-0.6,1.8c0.3-0.3,2.8-3.6,3-3.7
					c0.1-0.1,0.2-0.8,0.5-1.1s3.5-2,3.5-2s-0.5-2-0.3-2.4c0.1-0.4,2.2-1.1,2.3-3.6c0.1-2.5-0.8-3.9-2-4.6c-1.2-0.7-3.6-0.9-4.5-0.6
					c-0.9,0.3-2.4,0.4-2.5,1.2C152.8,59.5,152.7,59.9,153.6,59.8z"/>
				<path class="st8" d="M159.8,58.9c-1.2-0.7-3.6-0.9-4.5-0.6c-0.9,0.3-2.4,0.4-2.5,1.2c0,0-0.1,0.4,0.8,0.3c0,0,0.1,1.5,1.1,2.3
					c1,0.8,2.2,1,2.2,1s0.1,0.5,0.4,0.4c0.3,0,0.7-0.4,0.7-0.4s0.8-0.1,1,0.8c0.2,0.9-0.1,1.6-0.2,2c0,0.4-0.2,1.6,0.6,1.3
					c0.1-0.4,2.2-1.1,2.3-3.6C162,60.9,161,59.6,159.8,58.9z"/>
				<ellipse class="st10" cx="153.4" cy="63.6" rx="0.2" ry="0.5"/>
				<path class="st7" d="M152.9,62.7c0,0,0.6-0.4,0.9,0.1"/>
				<path class="st7" d="M153.4,66.3c0,0,0.7,0.1,1-0.6"/>
				<path class="st7" d="M158.9,64.9c0,0-0.1,0.9-0.7,1.1c-0.6,0.2-1.1,0-1-0.3"/>
			</g>
			<path class="st7" d="M154.9,103.3c0,0-0.4,1.2-0.6,1.4c-0.2,0.2-0.3,0.3,0,0.5c0.3,0.2,0.6-0.1,0.7-0.3c0.1-0.2,0.2-1.7,0.2-1.7
				L154.9,103.3z"/>
			<path class="st20" d="M159.5,80v7.7c0,0-0.7,1.6-1.1,3.2c-0.4,1.5-2,8.7-2,8.9c-0.1,0.2-1.6,3.6-1.6,4.1c0,0.6,0.2,2.6,0.3,2.8
				c0.2,0.3,0.5,0.3,0.6,0c0.1-0.3,0.1-1.9,0.1-1.9l0.2-0.8c0,0,0.1,1.7,0.1,2.2s0.3,0.8,0.5,0.8c0.2-0.1,0.3-0.5,0.3-0.5
				s0.1-1.1,0.1-1.3c0-0.2,0,1.6,0.2,1.6s0.4,0.1,0.5-0.3c0.1-0.4,0.2-1.8,0.3-2c0.1-0.2,0.1,1.7,0.2,1.8s0.4,0,0.5-0.3
				c0.1-0.3,0-1.8,0-1.8s0.2-0.8,0.2-2.1s-0.2-2.6-0.2-2.6s2.8-7.5,3.5-9c0.7-1.5,0.7-3.3,0.7-3.3l1-6.1L159.5,80z"/>
			<path class="st12" d="M159.1,75.1c0,0,0.1,1.7,0.2,2.7c0.1,1,0,2.9,0,2.9l5,0.9c0,0,0.5-6.1,0-8c-0.5-1.9-2-2.3-2.9-2.2"/>
			<line class="st7" x1="157" y1="105.1" x2="157" y2="104"/>
			<path class="st9" d="M137.1,80.2c0,0-1.2-1-1.5-1.1c-0.3-0.1-1.7,0.3-1.9,0.6s0.2,0.4,0.6,0.4c0.4,0,1.5-0.1,1.5-0.1"/>
		</g>
		<g>
			<path d="M64.2,125.6h-2.7c0.5,0.4,0.8,0.9,0.9,1.7h1.8v0.8h-1.8c-0.2,1.7-1.5,2.7-3.6,2.8c1.3,1.3,2.7,3,4.1,4.7h-1.6
				c-1.3-1.5-2.5-3-4-4.6v-1h0.9c1.8,0,2.7-0.7,2.8-1.9h-3.8v-0.8H61c-0.2-1-1.1-1.4-2.5-1.4h-1.2v-1.1h6.9V125.6z"/>
		</g>
		<g>
			<path class="st21" d="M95.6,123.6l-2.4,1.2c0.6,0.1,1.1,0.5,1.6,1.1l1.6-0.8l0.4,0.7l-1.6,0.8c0.6,1.6-0.1,3.1-2,4.1
				c1.7,0.6,3.7,1.5,5.7,2.4l-1.4,0.7c-1.8-0.8-3.6-1.6-5.7-2.3l-0.5-0.9l0.8-0.4c1.6-0.8,2.1-1.9,1.7-2.9l-3.4,1.7l-0.4-0.7
				l3.3-1.7c-0.6-0.8-1.6-0.8-2.9-0.2l-1,0.5l-0.5-1l6.2-3.1L95.6,123.6z"/>
		</g>
	</g>
</g>
</svg>
