<?xml version="1.0" encoding="utf-8"?>
<!-- Generator: Adobe Illustrator 25.4.1, SVG Export Plug-In . SVG Version: 6.00 Build 0)  -->
<svg version="1.1" id="Layer_1" xmlns="http://www.w3.org/2000/svg" xmlns:xlink="http://www.w3.org/1999/xlink" x="0px" y="0px"
	 viewBox="0 0 225 150" style="enable-background:new 0 0 225 150;" xml:space="preserve">
<style type="text/css">
	.st0{opacity:3.000000e-02;fill:#052669;enable-background:new    ;}
	.st1{fill:#A8D29F;}
	.st2{fill:#9C5F33;}
	.st3{fill:#EF7F1A;}
	.st4{fill:#000307;}
	.st5{fill:#052669;}
	.st6{fill:#233762;}
	.st7{fill:#AB7041;}
	.st8{fill:#D67730;}
	.st9{fill:#040D21;}
	.st10{fill:#2B468B;}
	.st11{fill:#D3671E;}
	.st12{opacity:0.4;fill:#D86713;enable-background:new    ;}
	.st13{fill:#CEDFF4;}
	.st14{clip-path:url(#SVGID_00000150098650248483279070000011407616064426682290_);}
	.st15{fill:#82B378;}
	.st16{fill:#4C84D8;}
	.st17{fill:#699EF0;}
	.st18{fill:#719E67;}
	.st19{fill:#9DC0F4;}
	.st20{fill:#EE9949;}
	.st21{fill:#2A4D96;}
	.st22{fill:#FFB973;}
	.st23{fill:#E58638;}
	.st24{fill:#E28311;}
	.st25{fill:#FFB93E;}
	.st26{fill:#FFA412;}
	.st27{opacity:0.5;fill:#82B378;enable-background:new    ;}
	.st28{fill:#FFB27D;}
	.st29{fill:#ED975D;}
	.st30{fill:#1E3D70;}
	.st31{fill:#CCA789;}
	.st32{fill:#C69D7B;}
	.st33{fill:#E8C6A7;}
	.st34{fill:#B7835C;}
	.st35{fill:#E49963;}
	.st36{fill:#AA413E;}
	.st37{fill:#C65447;}
	.st38{fill:#B5453C;}
	.st39{fill:#D68D5D;}
	.st40{fill:#699CEE;}
	.st41{fill:#FFFFFF;}
	.st42{fill:#4A75CB;}
	.st43{fill:#011028;}
	.st44{fill:#000102;}
	.st45{fill:#163560;}
	.st46{fill:#2E3452;}
</style>
<g>
	<g>
		<path class="st0" d="M18.1,122.3c0,0-23.8-22.4-13.9-48.6c8.9-23.6,46.7-32.5,71.7-18c10.2,5.9,20.9-9,50.5-23.9
			c23.3-11.6,77.1-3.5,67.6,38.8c-7.2,32.1,27.4,16.4,19.6,51.8L18.1,122.3z"/>
		<g>
			<path class="st1" d="M6.9,122.3c0,0,9.7-11.4,43.8-4.4c8.6,1.8,17.5-6.7,20.8-8c26.8-10.4,37.4,2.2,54.6,6.1
				c9.4,2.1,28.5,5.5,45.9,3.2c17.4-2.3,42.7-3.9,47.2,3L6.9,122.3z"/>
			<g>
				<g id="man_10_">
					<path class="st2" d="M54.6,68.8c0,0,0.3-1.5,1.1-1.9c0.8-0.3,1.3-1.7,1.6-1.4c0.3,0.4-0.1,2.9-0.7,3.2
						c-0.6,0.3-0.9,0.6-0.9,0.6L54.6,68.8z"/>
					<path class="st3" d="M41.1,62.8c0,0,5,8.7,6.8,10.4l6.7-5c0,0,1,0.3,1.4,1.3c0,0-4.1,8.3-8,8.6c-4,0.4-9.6-9.9-9.6-9.9
						L41.1,62.8z"/>
					<g>
						<path class="st4" d="M25.6,116.9c0,0-1.2,1.1-0.9,1.8c0.2,0.8,1.3,1.3,1.4,2.2c0.1,0.9,0.7,1.4,1.2,1.4c0.5,0,2.4,0,2.4,0
							s0.4-0.7-0.5-0.9c-0.9-0.2-1.2-1.3-1.2-2.3c0.1-1-0.1-2.4-0.1-2.4l-1.9-0.5L25.6,116.9z"/>
						<path class="st4" d="M40.1,122.4c0,0,0.1,0,0.2,0h6.4c0-0.2-0.2-0.7-1-0.8c-1-0.2-2.8-0.8-3.2-2c0,0,0-0.1,0-0.1
							c-0.3-1.4-2.6,0.4-2.6,0.4s0,0.1,0,0.1C39.8,120.5,39.6,122.2,40.1,122.4z"/>
						<path class="st5" d="M45.3,85.3c0,0-0.3,4.3-0.7,9.4c-0.5,7-1.2,15.6-1.3,17.2c-0.1,2.8-0.6,7.4-0.6,7.4s-1.1,1.1-3.2,0.6
							c0,0-1.9-6.5-2.5-13.3c0-0.1,0-0.2,0-0.3c-0.5-7-1.3-21.6-1.3-21.6L45.3,85.3z"/>
						<path class="st6" d="M45.3,85.3c0,0-0.3,4.3-0.7,9.4l-7.5,11.9c0-0.1,0-0.2,0-0.3c-0.5-7-1.3-21.6-1.3-21.6L45.3,85.3z"/>
						<path class="st5" d="M43.8,85.8c0,0-6.2,15.5-10.3,22.8c-4.1,7.3-5.3,9.3-5.3,9.3s-2.3-0.9-2.5-1.6c0,0,1.6-14.1,4.3-17.5
							c1.5-1.9,3.4-7.8,3.4-9.8c0.1-2,0.6-6.1,0.6-6.1L43.8,85.8z"/>
					</g>
					<path class="st2" d="M40.6,61.9c0.3-1.6,0.3-2.6,0.3-2.6l-3.1-2.5c0.1,3.5-2.1,5.2-2.1,5.2s4.2,2.1,6.6,1.3
						C42.2,63.2,41.6,62.4,40.6,61.9z"/>
					<path class="st7" d="M41.6,59.2c0,0-4,0.7-4.4-1.8s-1.1-4.1,1.4-4.6c2.5-0.5,3.2,0.3,3.5,1.2C42.5,54.7,42.6,59,41.6,59.2z"/>
					<path class="st3" d="M45.6,85.7c-0.1,0.1-0.2,0.1-0.3,0.1c-0.9,0-3.6,0.5-5.8,0.3c-1.9-0.2-3.6-0.7-5.4-1.5
						c-0.2-0.1-0.8-0.4-0.8-0.7c0-0.3,0-0.7,0.1-1.2c0.1-1.9,0.3-5,0.1-8.7c0-0.7-0.1-1.4-0.1-2c0-5,1-9.4,3-10.9
						c0.2-0.1,1.2,0.4,2.2,0.9c0.9,0.4,1.8,0.5,2.6,0.3l0.8,0.7c1,0.9,2.1,2.2,2.6,4.2c0.4,1.7,0.7,4.7,0.8,7.8
						c0.1,1.4,0.1,2.8,0.1,4.2v0c0,0.1,0,0.3,0,0.4C45.7,82.9,45.7,85.6,45.6,85.7z"/>
					<path class="st8" d="M33.5,82.6c0.1-1.9,0.3-5,0.1-8.7c0-0.7-0.1-1.4-0.1-2c0.8-2,1.5-3.5,1.5-3.5h2.1
						C37.1,68.4,38.7,78.8,33.5,82.6z"/>
					<path class="st7" d="M29.4,83.2L29,83.9c0,0,0.8,1.6-1.1,2.3c0,0-0.8,0.2-0.9-0.3c-0.1-0.5,0-0.3-0.1-1.1
						c-0.1-0.8,0.2-1.5,0.8-1.7l0.5-0.4L29.4,83.2z"/>
					<path class="st3" d="M28.4,83.4c0.8,0.1,1.6,0.1,1.6,0.1s2.2-6.9,2.5-7.5c0.3-0.6,6.6-8.1,6.6-8.1l-2.6-6.6
						c0,0-6.9,11.5-7.6,13.1C27.7,77,27.3,83,27.3,83S27.8,83.3,28.4,83.4z"/>
					<path class="st9" d="M37.2,57.2c0,0,0.4-0.1,0.3-0.6c-0.1-0.6-0.1-1.3,0.4-1.2c0.5,0.1,0.5,0.5,0.7,0.3
						c0.2-0.2,0.2-1.1,1.6-1.2c1.4-0.1,1.9,0.4,2.6,0.1c0.6-0.3,0.7-1.2,0.7-1.2s-0.2,0.3-0.5,0.5c0,0,1.1-1.5-0.2-2.4
						c-1.2-1-2.5-0.3-3.2-0.3c-1.6,0.1-2.6,0.2-3.1,1.2C36,53.3,36.2,56.2,37.2,57.2z"/>
					<g>
						<path class="st10" d="M54.9,67.5l1.6-3.3c0-0.1,0.1-0.1,0.2-0.1l0.9,0.4c0.1,0,0.1,0.1,0.1,0.2L56,68.1c0,0.1-0.1,0.1-0.2,0.1
							L55,67.7C54.9,67.6,54.9,67.6,54.9,67.5z"/>
						<path class="st6" d="M55.7,68l1.7-3.4c0,0,0.1-0.1,0.1,0l0.5,0.3c0,0,0.1,0.1,0,0.1l-1.7,3.4c0,0-0.1,0.1-0.1,0l-0.5-0.3
							C55.7,68.1,55.7,68,55.7,68z"/>
					</g>
				</g>
			</g>
			<g>
				<g>
					<g>
						<path class="st11" d="M102.3,122.4h-36c-1.1,0-2.1-0.9-2.1-2.1V48.3c0-1.1,0.9-2.1,2.1-2.1h36c1.1,0,2.1,0.9,2.1,2.1v72.1
							C104.4,121.5,103.5,122.4,102.3,122.4z"/>
						<path class="st3" d="M106.2,122.4h-36c-1.1,0-2.1-0.9-2.1-2.1V48.3c0-1.1,0.9-2.1,2.1-2.1h36c1.1,0,2.1,0.9,2.1,2.1v72.1
							C108.3,121.5,107.4,122.4,106.2,122.4z"/>
						<path class="st12" d="M86.1,118.2c0-1.4,1.2-2.6,2.6-2.6s2.6,1.2,2.6,2.6s-1.2,2.6-2.6,2.6C87.3,120.8,86.1,119.7,86.1,118.2z
							"/>
						<rect x="71.5" y="52.3" class="st13" width="33.4" height="61.6"/>
					</g>
				</g>
			</g>
			<g>
				<g>
					<defs>
						<rect id="SVGID_1_" x="71.5" y="32.1" width="63.5" height="81.9"/>
					</defs>
					<clipPath id="SVGID_00000008137455930581910270000015063853761597245600_">
						<use xlink:href="#SVGID_1_"  style="overflow:visible;"/>
					</clipPath>
					<g style="clip-path:url(#SVGID_00000008137455930581910270000015063853761597245600_);">
						<g>
							<g>
								<path class="st15" d="M85.9,107.7l-0.3,0.1c-1-2.2-2.5-3.8-4-5.1c-1.6-1.4-4.7-3.2-8.6-3c-1.6,0.1-2.8,0.4-3.4,0.6l-0.1-0.3
									c7.7-3,12.1,0.5,14.4,3.7C85.4,105.8,85.9,107.7,85.9,107.7z"/>
								<path class="st1" d="M94.7,103.2l-8.7,4.5c-0.6-1.4-1.6-2.6-2.4-3.6c-0.8-0.9-1.5-1.5-1.5-1.5c-5.2-4.8-12.5-2.6-12.5-2.6
									l6.4-6.5c3.9-1.3,7.3-0.6,10,0.9C91.5,97.3,94.7,103.2,94.7,103.2z"/>
							</g>
							<g>
								<path class="st15" d="M86.2,107c0,0-0.7-2.3-2.8-4.5c-1.2-1.3-2.7-2.3-4.5-2.9c-2.2-0.8-4.7-0.9-7.5-0.5L71,99.1l5.2-5.1
									l0,0c0.1,0,1.7-0.7,4.2-0.6c1.5,0.1,2.9,0.4,4.3,1c1.8,0.7,3.5,1.9,5.1,3.4c0.1,0.1,3.2,3.2,4,5.3l0,0L86.2,107z
									 M86.3,106.7l7.1-3.9c-0.3-0.8-1.1-1.9-2.2-3.2c-0.9-1-1.6-1.7-1.6-1.7c-1.6-1.5-3.3-2.6-5-3.3c-1.4-0.6-2.8-0.9-4.2-1
									c-1.5-0.1-2.8,0.2-3.4,0.4c-0.4,0.1-0.7,0.3-0.9,0.6l-3.6,3.6c-0.2,0.2,0,0.5,0.2,0.5c2.4-0.2,4.6,0,6.5,0.7
									c1.8,0.6,3.3,1.6,4.6,3c1.1,1.2,1.8,2.5,2.2,3.4C86.1,106.3,86.2,106.4,86.3,106.7z"/>
							</g>
							<path class="st15" d="M86,96.8c0.6,1.3,0.1,2.4-1.2,3c-1.3,0.6-3,0.3-3.6-1c-0.6-1.3-0.2-2.4,1.2-3
								C83.7,95.3,85.5,95.5,86,96.8z"/>
						</g>
						<path class="st16" d="M91.7,92.5c0,0-0.4,3.1,0.1,5h-7.4c0,0,3.5-12.8,10.6-20.1c2-2.1,3.9-5.1,5.8-8.4
							c4.5-8.2,8.6-18.1,13.8-20.9c0,0-10.3,15.1-12.3,23.8C100.3,80.8,93.4,80.6,91.7,92.5z"/>
						<path class="st17" d="M99.9,72.1c0.2-0.9,0.5-1.9,0.9-3c-1.8,3.3-3.7,6.3-5.8,8.4c-1.1,1.1-2,2.3-2.9,3.5c0,0-0.3-2.8-1.5-5.6
							c-1.1-2.8-3-5.6-6.3-5.9c0,0,7.8,6,3.8,18.2c-2.6,5.3-3.8,10-3.8,10h5c-0.5-2-0.1-5.1-0.1-5.1C90.9,80.6,97.9,80.8,99.9,72.1z
							"/>
						<path class="st16" d="M92.1,81C92.1,81,92.1,81.1,92.1,81c-0.2,0.4-1.4,2.3-1.3,1.1c0.1-1.3-1.3-6.2-1.3-6.2l1.2-0.6
							C91.8,78.2,92.1,81,92.1,81z"/>
						<path class="st15" d="M127.4,58.9C127.4,58.9,127.4,58.9,127.4,58.9l-0.2,0.3c-0.7-0.4-2.1-1-4.1-1.5
							c-3.6-0.9-6.9-0.3-9.3,0.7c-0.8,0.3-1.5,0.7-2.1,1.1c-2.1,1.3-4.3,3-6.1,5.4l-0.3-0.2l-8.1-6.2l-1.7-1.3c0,0,1.1-1.4,3.1-3.2
							c2.3-2,5.6-4.5,9.6-5.8c2.3-0.7,4.8-1,7.4-0.6c1.7,0.3,3.5,0.8,5.2,1.8L127.4,58.9C127.4,58.9,127.4,58.9,127.4,58.9z"/>
						<g>
							<g>
								<path class="st15" d="M89.3,107.4l0.2,0.1c0.9-1.9,2.3-3.4,3.7-4.6c1.4-1.3,4.3-2.8,7.9-2.5c1.5,0.1,2.6,0.4,3.1,0.6
									l0.1-0.3c-6.9-2.9-10.9,0.3-13,3.1C89.9,105.7,89.3,107.4,89.3,107.4z"/>
								<path class="st1" d="M81.5,103.2l7.8,4.2c0.6-1.2,1.5-2.4,2.2-3.2c0.7-0.8,1.3-1.4,1.3-1.4c4.8-4.2,11.4-2.1,11.4-2.1
									l-5.7-6c-3.5-1.2-6.5-0.7-9.1,0.6C84.5,97.9,81.5,103.2,81.5,103.2z"/>
							</g>
							<g>
								<path class="st15" d="M82.3,103L82.3,103c0.8-1.9,3.6-4.6,3.7-4.7c1.5-1.3,3-2.3,4.7-3c1.3-0.5,2.6-0.8,3.9-0.8
									c2.3,0,3.7,0.6,3.7,0.6l0,0l4.6,4.7l-0.4-0.1c-2.6-0.4-4.9-0.3-6.8,0.3c-1.6,0.5-2.9,1.4-4.1,2.6c-1.9,2-2.6,4-2.6,4
									L82.3,103z M89.5,105.6c0.4-0.8,1-1.9,2-3c1.2-1.2,2.6-2.1,4.2-2.6c1.7-0.6,3.7-0.7,5.9-0.5c0.2,0,0.4-0.3,0.2-0.4l-3.2-3.3
									c-0.2-0.2-0.5-0.4-0.8-0.5c-0.6-0.2-1.7-0.5-3.1-0.4c-1.3,0-2.6,0.3-3.8,0.8c-1.6,0.6-3.1,1.6-4.6,2.9c0,0-0.7,0.6-1.5,1.5
									c-1,1.1-1.7,2.1-2,2.9l6.4,3.7C89.1,106.3,89.2,106.2,89.5,105.6z"/>
							</g>
							<path class="st15" d="M89.5,97.6c-0.5,1.2-0.2,2.2,1,2.7c1.2,0.5,2.7,0.4,3.3-0.8c0.5-1.2,0.2-2.2-1-2.7
								C91.6,96.3,90,96.4,89.5,97.6z"/>
						</g>
						<path class="st18" d="M113.8,58.4c-0.8,0.3-1.5,0.7-2.1,1.1c-2.1,1.3-4.3,3-6.1,5.4l-0.3-0.2l-8.1-6.2
							c0.4-1.7,0.9-3.2,1.4-4.5c2.3-2,5.6-4.5,9.6-5.8c2.3-0.7,4.8-1,7.4-0.6c0.1,0.1,0.1,0.1,0.1,0.1S111.7,52.6,113.8,58.4z"/>
						<path class="st15" d="M103.4,56l-12.2,1.4l-0.3,0c-0.1-1.1-0.3-2.2-0.5-3.2c-0.5-1.7-1.1-3.2-1.9-4.6
							c-0.4-0.9-1.1-1.8-1.9-2.8c-1.6-1.8-3.8-3.6-6.9-4.5c-2-0.6-3.5-0.8-4.3-0.8l0-0.4h0l10.4-4.7c1.9,0.1,3.7,0.4,5.2,1
							c2.5,1,4.6,2.6,6.2,4.4c2.4,2.7,3.9,5.9,4.8,8.6C103,53.6,103.4,56,103.4,56z"/>
						<path class="st18" d="M101.9,50.4c-0.2,2.3-1.3,4.1-3.7,4.8c-2.6,0.7-5.5,0.2-8-1c-0.5-1.7-1.1-3.2-1.9-4.6
							c-0.4-0.9-1.1-1.8-1.9-2.8c5.4-1.3,4.5-9.4,4.5-9.4c2.5,1,4.6,2.6,6.2,4.4C99.5,44.5,101,47.7,101.9,50.4z"/>
						<path class="st15" d="M87.5,49c0,0-0.2-2.3-4.6-1.4C83,47.6,84.7,49.7,87.5,49z"/>
						<path class="st15" d="M121,71.4C121,71.4,121,71.4,121,71.4l-6.5-9.4c-4.5-2.5-8.8-2.4-12.6-1.2c-7.4,2.3-12.7,9-12.7,9
							l9.8,7.5l0,0l0.3,0.2c1.7-2.5,3.9-4.1,6.1-5.4c2.3-1.4,6.5-2.9,11.3-1.7c2,0.5,3.4,1.1,4.1,1.5L121,71.4
							C121,71.4,121,71.4,121,71.4z"/>
						<path class="st18" d="M73.3,60.8C73.3,60.8,73.3,60.8,73.3,60.8l6.5-9.4c4.5-2.5,8.8-2.4,12.6-1.2c7.4,2.3,12.7,9,12.7,9
							l-9.8,7.5l0,0L95,66.8c-1.7-2.5-3.9-4.1-6.1-5.4c-2.3-1.4-6.5-2.9-11.3-1.7c-2,0.5-3.4,1.1-4.1,1.5L73.3,60.8
							C73.3,60.8,73.3,60.8,73.3,60.8z"/>
						<g>
							<path class="st17" d="M64.5,97.7c0,13,10.5,23.5,23.5,23.5c1.3,0,2.6-0.1,3.8-0.3c11.2-1.8,19.7-11.5,19.7-23.2L64.5,97.7
								L64.5,97.7z"/>
							<path class="st16" d="M93.6,97.7H64.5c0,13,10.5,23.5,23.5,23.5c1.3,0,2.6-0.1,3.8-0.3c-0.3-0.1-0.6-0.3-1-0.5
								c-9.3-3.9-12-11.7-9.8-16.3c2.2-4.6,15.1-5.6,15.1-5.6L93.6,97.7z"/>
							<path class="st19" d="M93.9,116.8L93.9,116.8c8.6-3,14.7-10.5,14.7-19.2h-5.1C103.5,106.4,100.8,113,93.9,116.8z"/>
							<path class="st20" d="M69.7,122.3H106c0-0.8-0.2-1.5-0.6-2c-0.4-0.5-1-0.8-1.6-0.8H71.9C70.7,119.4,69.7,120.7,69.7,122.3z"
								/>
							<path class="st21" d="M64,98.4h47.9c0.2,0,0.4-0.2,0.4-0.4l0,0c0-0.2-0.2-0.4-0.4-0.4H64V98.4z"/>
							<path class="st22" d="M52,95.9C52,95.9,52,95.9,52,95.9C52,95.9,52,95.9,52,95.9z"/>
							<path class="st23" d="M87.8,121.1c0-1.2,0.8-1.7,0.8-1.7H71.9c-1.2,0-2.2,1.3-2.2,2.9h19C88.6,122.3,87.9,122.3,87.8,121.1z"
								/>
						</g>
						<g>
							<g>
								<path class="st15" d="M94.4,55.9l-0.3-0.2c1.1-2.8,1.2-5.5,1.1-8.1c-0.1-2.7-1.2-7.1-4.9-10.4c-1.5-1.4-2.8-2.2-3.5-2.6
									l0.2-0.4c9.4,4.3,10.1,11.3,9.2,16.2C95.6,53.7,94.4,55.9,94.4,55.9z"/>
								<path class="st1" d="M106.1,59.8l-11.7-3.9c0.7-1.8,1-3.8,1.1-5.3c0.1-1.6,0.1-2.7,0.1-2.7C95.3,39.1,87,34.4,87,34.4
									l11.4,0.1c4.6,2.3,6.9,6,8,9.8C108.6,51.7,106.1,59.8,106.1,59.8z"/>
							</g>
							<g>
								<path class="st15" d="M95.2,55.5c0,0,1.4-2.6,1.6-6.5c0.1-2.3-0.3-4.5-1.3-6.6c-1.2-2.6-3.3-5.1-6.2-7.2L89,34.9l9.2,0.2
									l0,0c0.1,0,2.1,0.9,4.2,3.2c1.2,1.4,2.2,3,2.9,4.8c0.9,2.2,1.4,4.8,1.4,7.6c0,0.2,0,5.7-1.2,8.2l0,0L95.2,55.5z M95.6,55.3
									l9.8,3c0.5-1,0.8-2.7,1-4.8c0.1-1.6,0.1-2.9,0.1-2.9c0-2.7-0.5-5.2-1.4-7.4c-0.7-1.8-1.7-3.3-2.8-4.6
									c-1.3-1.4-2.6-2.3-3.4-2.7c-0.4-0.2-0.9-0.4-1.3-0.4l-6.4-0.1c-0.3,0-0.5,0.4-0.2,0.6c2.3,2,4,4.1,5.1,6.4
									c1,2.1,1.4,4.4,1.3,6.7c-0.1,2.1-0.7,3.8-1.1,4.9C95.8,54.8,95.8,55,95.6,55.3z"/>
							</g>
							<path class="st15" d="M101.9,42.3c-1.7-0.7-3-0.1-3.7,1.6c-0.7,1.7,0.6,3.4,2.3,4.1c1.7,0.7,3.1,0.1,3.8-1.6
								C104.9,44.8,103.6,43,101.9,42.3z"/>
						</g>
						<g>
							<g>
								<path class="st15" d="M88.3,68.3L88,68.4c-1.2-2.7-3.1-4.7-5-6.4c-2-1.8-5.9-4.1-10.8-3.8c-2,0.1-3.6,0.5-4.3,0.7l-0.2-0.4
									c9.6-3.8,15.2,0.7,18,4.7C87.6,65.9,88.3,68.3,88.3,68.3z"/>
								<path class="st1" d="M99.3,62.7l-11,5.6c-0.8-1.7-2-3.3-3-4.5c-1-1.2-1.8-1.9-1.8-1.9c-6.5-6-15.7-3.3-15.7-3.3l8-8.1
									c4.9-1.6,9.1-0.8,12.6,1.1C95.3,55.2,99.3,62.7,99.3,62.7z"/>
							</g>
							<g>
								<path class="st15" d="M88.7,67.5c0,0-0.9-2.8-3.5-5.7c-1.5-1.7-3.4-2.9-5.6-3.7c-2.7-1-5.9-1.2-9.5-0.7l-0.5,0.1l6.5-6.5
									l0,0c0.1,0,2.1-0.9,5.2-0.8c1.8,0.1,3.7,0.5,5.4,1.2c2.2,0.9,4.4,2.4,6.4,4.3c0.2,0.1,4.1,4,5,6.6l0,0L88.7,67.5z M88.8,67
									l9-4.9c-0.4-1-1.3-2.4-2.8-4c-1.1-1.2-2-2.1-2-2.1c-2-1.9-4.1-3.3-6.3-4.2c-1.7-0.7-3.5-1.1-5.3-1.2
									c-1.9-0.1-3.5,0.2-4.3,0.5c-0.4,0.1-0.9,0.4-1.2,0.7l-4.5,4.5c-0.2,0.2,0,0.6,0.3,0.6c3-0.3,5.7,0,8.1,0.9
									c2.2,0.8,4.2,2.1,5.7,3.8c1.4,1.5,2.3,3.1,2.7,4.2C88.6,66.6,88.7,66.7,88.8,67z"/>
							</g>
							<path class="st15" d="M88.4,54.7c-0.7-1.7-2.9-1.9-4.6-1.2c-1.7,0.7-2.2,2.1-1.5,3.7c0.7,1.7,2.8,1.9,4.5,1.2
								C88.6,57.7,89.1,56.3,88.4,54.7z"/>
						</g>
						<g>
							<g>
								<path class="st15" d="M106.5,59.8l0.3,0c0.5-2.9,1.8-5.4,3.2-7.5c1.5-2.3,4.7-5.4,9.5-6.4c2-0.4,3.6-0.4,4.3-0.4l0.1-0.4
									c-10.3-1.2-14.5,4.5-16.2,9.1C106.6,57.3,106.5,59.8,106.5,59.8z"/>
								<path class="st1" d="M94.5,57.1l12,2.7c0.3-1.9,1.1-3.7,1.8-5.1c0.7-1.4,1.3-2.3,1.3-2.3c4.8-7.4,14.4-7.1,14.4-7.1
									l-9.8-5.8c-5.1-0.4-9,1.6-11.9,4.2C96.4,48.9,94.5,57.1,94.5,57.1z"/>
							</g>
							<g>
								<path class="st15" d="M95.4,56.6L95.4,56.6c0.3-2.8,3.1-7.5,3.2-7.7c1.5-2.4,3.2-4.3,5.1-5.8c1.5-1.2,3.2-2,5-2.6
									c3-0.9,5.2-0.6,5.3-0.6l0,0l8,4.6l-0.6,0.1c-3.6,0.4-6.6,1.4-9,3c-1.9,1.3-3.4,3-4.5,5c-1.8,3.4-1.9,6.4-1.9,6.4L95.4,56.6z
									 M105.9,57.3c0.2-1.2,0.6-2.9,1.6-4.8c1.1-2.1,2.6-3.8,4.6-5.1c2.1-1.4,4.7-2.4,7.6-2.9c0.3-0.1,0.4-0.5,0.1-0.7l-5.5-3.2
									c-0.4-0.2-0.9-0.4-1.3-0.4c-0.9,0-2.4,0-4.3,0.6c-1.7,0.5-3.3,1.4-4.8,2.5c-1.9,1.4-3.6,3.3-5,5.6c0,0-0.7,1.1-1.4,2.5
									c-1,1.9-1.5,3.5-1.6,4.6l9.9,2.5C105.7,58.3,105.8,58.2,105.9,57.3z"/>
							</g>
							<path class="st15" d="M107,44.3c-1.8-0.3-3.8,0.5-4.1,2.3c-0.3,1.8,0.6,3,2.4,3.3c1.8,0.3,3.8-0.6,4-2.3
								C109.6,45.8,108.8,44.6,107,44.3z"/>
						</g>
						<g>
							
								<ellipse transform="matrix(0.9419 -0.336 0.336 0.9419 -13.5277 38.0483)" class="st24" cx="103.2" cy="58.1" rx="8.3" ry="8.3"/>
							
								<ellipse transform="matrix(0.4442 -0.8959 0.8959 0.4442 5.0424 124.0228)" class="st25" cx="102.5" cy="57.9" rx="8.3" ry="8.3"/>
							<g>
								<path class="st26" d="M102.5,65.6c-0.6,0-1.2-0.1-1.8-0.2c-2-0.5-3.6-1.7-4.7-3.4c-1-1.7-1.4-3.8-0.9-5.7
									c0.5-2,1.7-3.6,3.4-4.7c1.7-1,3.8-1.4,5.7-0.9c4,1,6.5,5.1,5.6,9.1c-0.5,2-1.7,3.6-3.4,4.7
									C105.2,65.2,103.8,65.6,102.5,65.6z M102.4,50.9c-1.3,0-2.6,0.4-3.7,1c-1.6,1-2.8,2.5-3.2,4.4c-0.4,1.8-0.2,3.8,0.8,5.4
									c1,1.6,2.5,2.8,4.4,3.2c1.8,0.4,3.8,0.2,5.4-0.8c1.6-1,2.8-2.5,3.2-4.4c0.9-3.8-1.4-7.7-5.2-8.6
									C103.6,51,103,50.9,102.4,50.9z"/>
							</g>
							<g>
								<path class="st26" d="M103,60.4c0.1-0.2,0.1-0.3,0.1-0.4s0-0.3-0.1-0.4c-0.1-0.1-0.2-0.3-0.3-0.4s-0.3-0.3-0.5-0.4
									c-0.3-0.3-0.6-0.6-0.9-0.8s-0.5-0.5-0.6-0.8c-0.2-0.3-0.2-0.6-0.3-0.9s0-0.6,0.2-1c0.1-0.3,0.3-0.6,0.5-0.8
									c0.2-0.2,0.4-0.4,0.7-0.5c0.3-0.1,0.6-0.2,0.9-0.2c0.3,0,0.7,0,1,0.1l0.4-1.2l0.9,0.4l-0.4,1.2c0.3,0.2,0.6,0.4,0.8,0.6
									c0.2,0.2,0.4,0.5,0.5,0.8c0.1,0.3,0.2,0.6,0.2,0.9c0,0.3-0.1,0.7-0.2,1l-1.7-0.6c0.2-0.4,0.2-0.8,0.1-1.1
									c-0.1-0.3-0.3-0.5-0.7-0.6c-0.2-0.1-0.3-0.1-0.5-0.1c-0.1,0-0.3,0-0.4,0.1c-0.1,0.1-0.2,0.1-0.3,0.2
									c-0.1,0.1-0.1,0.2-0.2,0.4c-0.1,0.1-0.1,0.3-0.1,0.4s0,0.3,0.1,0.4c0.1,0.1,0.2,0.3,0.3,0.4c0.1,0.1,0.3,0.3,0.5,0.5
									c0.3,0.3,0.6,0.6,0.9,0.8c0.3,0.3,0.5,0.5,0.6,0.8c0.2,0.3,0.2,0.6,0.3,0.9c0,0.3,0,0.6-0.2,1c-0.1,0.3-0.3,0.6-0.5,0.8
									c-0.2,0.2-0.4,0.4-0.7,0.5c-0.3,0.1-0.6,0.2-0.9,0.2c-0.3,0-0.7,0-1-0.1l-0.4,1.1l-0.9-0.4l0.4-1.1
									c-0.3-0.2-0.6-0.3-0.9-0.6S99.2,61,99,60.7c-0.2-0.3-0.3-0.6-0.3-1c0-0.4,0-0.8,0.2-1.2l1.7,0.6c-0.1,0.3-0.1,0.5-0.1,0.7
									c0,0.2,0.1,0.4,0.1,0.5c0.1,0.1,0.2,0.3,0.3,0.4c0.1,0.1,0.3,0.2,0.5,0.2c0.2,0.1,0.4,0.1,0.5,0.1c0.2,0,0.3,0,0.4-0.1
									c0.1,0,0.2-0.1,0.3-0.2C102.8,60.7,102.9,60.5,103,60.4z"/>
							</g>
						</g>
						<g>
							<g>
								
									<rect x="65.2" y="64.3" transform="matrix(0.9624 -0.2717 0.2717 0.9624 -16.2558 24.7763)" class="st1" width="32.3" height="13.6"/>
								<g>
									<path class="st15" d="M66,69.6L69,80l27.5-7.8l-2.9-10.4L66,69.6z M95.5,70.4c0.3,0.9-0.3,1.8-1.2,2.1l-23.7,6.7
										c-0.8,0.2-1.6-0.2-1.8-1L67,71.5c-0.2-0.9,0.3-1.8,1.1-2l23.6-6.7c0.9-0.2,1.7,0.3,2,1.1L95.5,70.4z"/>
								</g>
								<path class="st15" d="M84.5,70c-0.5-1.8-2.4-2.8-4.2-2.3c-1.8,0.5-2.8,2.4-2.3,4.2c0.5,1.8,2.4,2.8,4.2,2.3
									S85.1,71.8,84.5,70z"/>
							</g>
							<path class="st27" d="M95.1,60.2l3.7,13l-24.3,6.9c1.1-0.7,11.4-4.1,13.6-8.8c2.6-5.7,0.6-8.8,0.6-9.3L95.1,60.2z"/>
						</g>
						<g>
							<g>
								
									<rect x="98.9" y="63.9" transform="matrix(1 -4.374808e-03 4.374808e-03 1 -0.3081 0.5043)" class="st1" width="32.3" height="13.6"/>
								<g>
									<path class="st15" d="M100.8,65.2l0,10.8l28.6-0.1l0-10.8L100.8,65.2z M128.9,73.8c0,0.9-0.7,1.7-1.7,1.7l-24.6,0.1
										c-0.8,0-1.5-0.7-1.5-1.5l0-6.9c0-0.9,0.7-1.6,1.6-1.6l24.5-0.1c0.9,0,1.6,0.7,1.6,1.6L128.9,73.8z"/>
								</g>
								<path class="st15" d="M115.1,67.2c-1.9,0-3.4,1.5-3.4,3.4c0,1.9,1.5,3.4,3.4,3.4c1.9,0,3.4-1.5,3.4-3.4
									C118.5,68.7,117,67.2,115.1,67.2z"/>
							</g>
							<path class="st27" d="M131.2,63.8l0.1,13.6L106,77.5c1.3-0.4,12.1-0.9,15.4-4.9c4-4.8,2.9-8.4,3.1-8.8L131.2,63.8z"/>
						</g>
						<g>
							<path class="st24" d="M111.6,73.6c-2.2-4-7.3-5.5-11.3-3.3c-4,2.2-5.5,7.3-3.3,11.3c2.2,4,7.3,5.5,11.3,3.3
								C112.3,82.7,113.8,77.7,111.6,73.6z"/>
							<path class="st25" d="M110.9,74c-2.2-4-7.3-5.5-11.3-3.3c-4,2.2-5.5,7.3-3.3,11.3c2.2,4,7.3,5.5,11.3,3.3
								C111.7,83,113.1,78,110.9,74z"/>
							<g>
								<path class="st26" d="M103.7,85.6c-0.7,0-1.4-0.1-2.1-0.3c-1.9-0.6-3.5-1.8-4.5-3.6c-1-1.8-1.2-3.8-0.6-5.7
									c0.6-1.9,1.8-3.5,3.6-4.5c1.8-1,3.8-1.2,5.7-0.6c1.9,0.6,3.5,1.8,4.5,3.6c2,3.6,0.7,8.3-3,10.3
									C106.2,85.3,105,85.6,103.7,85.6z M103.7,71c-1.2,0-2.4,0.3-3.4,0.9c-3.4,1.9-4.7,6.2-2.8,9.6c0.9,1.7,2.4,2.9,4.2,3.4
									c1.8,0.5,3.7,0.3,5.4-0.6c3.4-1.9,4.7-6.2,2.8-9.6c-0.9-1.7-2.4-2.9-4.2-3.4C105,71.1,104.4,71,103.7,71z"/>
							</g>
							<g>
								<path class="st26" d="M105.7,79.5c-0.1-0.2-0.1-0.3-0.2-0.4c-0.1-0.1-0.2-0.2-0.3-0.2c-0.1-0.1-0.3-0.1-0.5-0.1
									c-0.2,0-0.4,0-0.7,0c-0.4,0-0.8,0-1.2,0c-0.4,0-0.7-0.1-1-0.2s-0.6-0.3-0.8-0.5c-0.2-0.2-0.4-0.5-0.6-0.8
									c-0.1-0.3-0.2-0.6-0.2-0.9c0-0.3,0.1-0.6,0.2-0.9c0.1-0.3,0.3-0.5,0.5-0.8c0.2-0.2,0.5-0.4,0.9-0.6l-0.5-1.2l0.9-0.4
									l0.5,1.2c0.4-0.1,0.7-0.1,1-0.1c0.3,0,0.6,0.1,0.9,0.2s0.5,0.3,0.7,0.6c0.2,0.2,0.4,0.6,0.6,0.9l-1.7,0.7
									c-0.2-0.4-0.4-0.7-0.7-0.9c-0.3-0.1-0.6-0.1-0.9,0c-0.2,0.1-0.3,0.2-0.4,0.3c-0.1,0.1-0.2,0.2-0.2,0.3
									c0,0.1-0.1,0.2-0.1,0.4c0,0.1,0,0.3,0.1,0.4s0.1,0.2,0.2,0.3c0.1,0.1,0.2,0.2,0.3,0.2c0.1,0.1,0.3,0.1,0.5,0.1
									c0.2,0,0.4,0,0.7,0c0.4,0,0.8,0,1.2,0c0.4,0,0.7,0.1,1,0.2c0.3,0.1,0.6,0.3,0.8,0.5c0.2,0.2,0.4,0.5,0.6,0.8
									c0.1,0.3,0.2,0.6,0.2,0.9c0,0.3-0.1,0.6-0.2,0.8c-0.1,0.3-0.3,0.5-0.6,0.7c-0.2,0.2-0.5,0.4-0.9,0.6l0.4,1.1l-0.9,0.4
									l-0.4-1.1c-0.3,0.1-0.7,0.2-1,0.2c-0.3,0-0.7,0-1-0.1c-0.3-0.1-0.6-0.3-0.9-0.5c-0.3-0.3-0.5-0.6-0.7-1l1.7-0.7
									c0.1,0.3,0.2,0.5,0.4,0.6c0.1,0.1,0.3,0.2,0.5,0.3c0.2,0.1,0.3,0.1,0.5,0c0.2,0,0.3-0.1,0.5-0.1c0.2-0.1,0.3-0.2,0.5-0.3
									c0.1-0.1,0.2-0.2,0.3-0.3c0.1-0.1,0.1-0.2,0.1-0.4C105.8,79.8,105.7,79.6,105.7,79.5z"/>
							</g>
						</g>
						<g>
							<path class="st24" d="M95.8,66c-0.3-3.4-3.3-6-6.7-5.7c-3.4,0.3-6,3.3-5.7,6.7c0.3,3.4,3.3,6,6.7,5.7
								C93.5,72.5,96.1,69.5,95.8,66z"/>
							<path class="st25" d="M95.2,66.1c-0.3-3.4-3.3-6-6.7-5.7c-3.4,0.3-6,3.3-5.7,6.7c0.3,3.4,3.3,6,6.7,5.7S95.5,69.5,95.2,66.1z
								"/>
							<g>
								<path class="st26" d="M89,72.4c-2.9,0-5.4-2.2-5.7-5.2l0,0c-0.3-3.1,2-5.9,5.2-6.1c1.5-0.1,3,0.3,4.1,1.3
									c1.2,1,1.9,2.3,2,3.9c0.3,3.1-2,5.9-5.2,6.1C89.4,72.4,89.2,72.4,89,72.4z M83.7,67.1c0.3,2.9,2.8,5.1,5.8,4.9
									c2.9-0.3,5.1-2.8,4.9-5.8c-0.1-1.4-0.8-2.7-1.9-3.6c-1.1-0.9-2.5-1.4-3.9-1.2C85.6,61.6,83.5,64.2,83.7,67.1L83.7,67.1z"/>
							</g>
							<g>
								<path class="st26" d="M90,68.3c0-0.1,0-0.2,0-0.3c0-0.1-0.1-0.2-0.2-0.3c-0.1-0.1-0.2-0.2-0.3-0.2c-0.1-0.1-0.3-0.1-0.5-0.2
									c-0.3-0.1-0.6-0.2-0.8-0.4c-0.2-0.1-0.5-0.3-0.6-0.4c-0.2-0.2-0.3-0.3-0.4-0.6C87,65.7,87,65.4,87,65.1
									c0-0.2,0.1-0.5,0.2-0.7c0.1-0.2,0.2-0.4,0.4-0.5c0.2-0.1,0.4-0.3,0.6-0.4c0.2-0.1,0.5-0.1,0.8-0.2l0-0.9l0.8,0l0,1
									c0.3,0,0.5,0.1,0.7,0.2c0.2,0.1,0.4,0.3,0.5,0.4c0.1,0.2,0.3,0.4,0.3,0.6c0.1,0.2,0.1,0.5,0.1,0.8l-1.4,0
									c0-0.4-0.1-0.6-0.2-0.8s-0.4-0.3-0.6-0.3c-0.1,0-0.3,0-0.4,0c-0.1,0-0.2,0.1-0.3,0.2c-0.1,0.1-0.1,0.1-0.2,0.2
									c0,0.1-0.1,0.2-0.1,0.3c0,0.1,0,0.2,0,0.3c0,0.1,0.1,0.2,0.2,0.2c0.1,0.1,0.2,0.2,0.3,0.2c0.1,0.1,0.3,0.1,0.5,0.2
									c0.3,0.1,0.6,0.3,0.8,0.4c0.2,0.1,0.5,0.3,0.6,0.4c0.2,0.2,0.3,0.4,0.4,0.6c0.1,0.2,0.1,0.5,0.1,0.7c0,0.3-0.1,0.5-0.2,0.7
									c-0.1,0.2-0.2,0.4-0.4,0.5c-0.2,0.1-0.4,0.3-0.6,0.3c-0.2,0.1-0.5,0.1-0.8,0.2l0,0.9l-0.8,0l0-0.9c-0.3,0-0.5-0.1-0.8-0.2
									c-0.2-0.1-0.5-0.2-0.6-0.4c-0.2-0.2-0.3-0.4-0.4-0.6c-0.1-0.3-0.2-0.6-0.1-0.9l1.4,0c0,0.2,0,0.4,0.1,0.5
									c0.1,0.1,0.1,0.3,0.2,0.3c0.1,0.1,0.2,0.1,0.3,0.2c0.1,0,0.3,0.1,0.4,0.1c0.1,0,0.3,0,0.4,0c0.1,0,0.2-0.1,0.3-0.1
									c0.1-0.1,0.1-0.1,0.2-0.2C89.9,68.5,89.9,68.4,90,68.3z"/>
							</g>
						</g>
						<g>
							<path class="st24" d="M94,49.3c-0.9-1.5-2.9-2-4.5-1.1c-1.5,0.9-2,2.9-1.1,4.5c0.9,1.5,2.9,2,4.5,1.1S94.9,50.8,94,49.3z"/>
							<path class="st25" d="M93.7,49.4c-0.9-1.5-2.9-2-4.5-1.1c-1.5,0.9-2,2.9-1.1,4.5c0.9,1.5,2.9,2,4.5,1.1
								C94.1,53,94.6,51,93.7,49.4z"/>
							<g>
								<path class="st26" d="M90.9,54.1c-1,0-2-0.5-2.5-1.4l0,0c-0.8-1.4-0.4-3.2,1-4.1c1.4-0.8,3.2-0.4,4.1,1
									c0.4,0.7,0.5,1.5,0.3,2.2c-0.2,0.8-0.7,1.4-1.4,1.8C92,54,91.5,54.1,90.9,54.1z M88.5,52.6c0.8,1.3,2.5,1.7,3.8,1
									c0.6-0.4,1.1-1,1.3-1.7c0.2-0.7,0.1-1.5-0.3-2.1c-0.8-1.3-2.5-1.7-3.8-1C88.2,49.5,87.8,51.3,88.5,52.6L88.5,52.6z"/>
							</g>
							<g>
								<path class="st26" d="M91.7,51.7c0-0.1-0.1-0.1-0.1-0.1c0,0-0.1-0.1-0.1-0.1c-0.1,0-0.1,0-0.2,0c-0.1,0-0.2,0-0.3,0
									c-0.2,0-0.3,0-0.5,0c-0.1,0-0.3,0-0.4-0.1c-0.1,0-0.2-0.1-0.3-0.2c-0.1-0.1-0.2-0.2-0.2-0.3c-0.1-0.1-0.1-0.2-0.1-0.4
									s0-0.2,0.1-0.3c0-0.1,0.1-0.2,0.2-0.3s0.2-0.2,0.3-0.3l-0.2-0.4l0.4-0.2l0.2,0.5c0.1,0,0.3-0.1,0.4-0.1c0.1,0,0.2,0,0.4,0.1
									c0.1,0,0.2,0.1,0.3,0.2c0.1,0.1,0.2,0.2,0.2,0.4l-0.7,0.3c-0.1-0.2-0.2-0.3-0.3-0.3c-0.1,0-0.2,0-0.4,0
									c-0.1,0-0.1,0.1-0.2,0.1c0,0-0.1,0.1-0.1,0.1c0,0,0,0.1,0,0.1c0,0.1,0,0.1,0,0.2c0,0.1,0.1,0.1,0.1,0.1c0,0,0.1,0.1,0.1,0.1
									c0.1,0,0.1,0,0.2,0c0.1,0,0.2,0,0.3,0c0.2,0,0.3,0,0.5,0c0.1,0,0.3,0,0.4,0.1c0.1,0,0.2,0.1,0.3,0.2
									c0.1,0.1,0.2,0.2,0.2,0.3c0.1,0.1,0.1,0.2,0.1,0.4c0,0.1,0,0.2-0.1,0.3c0,0.1-0.1,0.2-0.2,0.3c-0.1,0.1-0.2,0.2-0.3,0.3
									L92,53l-0.4,0.2l-0.2-0.4c-0.1,0-0.3,0.1-0.4,0.1c-0.1,0-0.3,0-0.4,0c-0.1,0-0.2-0.1-0.4-0.2s-0.2-0.2-0.3-0.4l0.7-0.3
									c0,0.1,0.1,0.2,0.2,0.2c0.1,0.1,0.1,0.1,0.2,0.1c0.1,0,0.1,0,0.2,0c0.1,0,0.1,0,0.2-0.1c0.1,0,0.1-0.1,0.2-0.1
									c0,0,0.1-0.1,0.1-0.1c0,0,0-0.1,0-0.2C91.8,51.8,91.8,51.7,91.7,51.7z"/>
							</g>
						</g>
						<g>
							<path class="st24" d="M105.7,37.8c-1.7-0.5-3.5,0.6-4,2.3c-0.5,1.7,0.6,3.5,2.3,4c1.7,0.5,3.5-0.6,4-2.3
								C108.5,40,107.4,38.3,105.7,37.8z"/>
							<path class="st25" d="M105.4,37.7c-1.7-0.5-3.5,0.6-4,2.3c-0.5,1.7,0.6,3.5,2.3,4c1.7,0.5,3.5-0.6,4-2.3
								C108.2,40,107.2,38.2,105.4,37.7z"/>
							<g>
								<path class="st26" d="M104.6,43.9c-0.2,0-0.5,0-0.7-0.1c-0.8-0.2-1.4-0.7-1.8-1.4c-0.4-0.7-0.5-1.5-0.3-2.2l0,0
									c0.2-0.8,0.7-1.4,1.4-1.8c0.7-0.4,1.5-0.5,2.2-0.3c0.8,0.2,1.4,0.7,1.8,1.4c0.4,0.7,0.5,1.5,0.3,2.2
									C107.1,43,105.9,43.9,104.6,43.9z M104.6,38.1c-0.5,0-1,0.1-1.4,0.4c-0.6,0.4-1.1,1-1.3,1.7l0,0c-0.2,0.7-0.1,1.5,0.3,2.1
									c0.4,0.6,1,1.1,1.7,1.3c0.2,0.1,0.5,0.1,0.7,0.1c1.2,0,2.4-0.8,2.7-2.1c0.4-1.5-0.5-3-2-3.4
									C105.1,38.2,104.8,38.1,104.6,38.1z"/>
							</g>
							<g>
								<path class="st26" d="M104.8,41.9c0-0.1,0-0.1,0-0.2c0-0.1,0-0.1,0-0.2c0-0.1-0.1-0.1-0.1-0.2c0-0.1-0.1-0.1-0.2-0.2
									c-0.1-0.1-0.2-0.2-0.3-0.3c-0.1-0.1-0.2-0.2-0.2-0.3s-0.1-0.2-0.1-0.3s0-0.3,0.1-0.4c0-0.1,0.1-0.2,0.2-0.3s0.2-0.1,0.3-0.2
									c0.1,0,0.2-0.1,0.4-0.1c0.1,0,0.3,0,0.4,0.1l0.2-0.5l0.4,0.1l-0.2,0.5c0.1,0.1,0.2,0.2,0.3,0.2c0.1,0.1,0.2,0.2,0.2,0.3
									c0,0.1,0.1,0.2,0.1,0.4c0,0.1,0,0.3-0.1,0.4l-0.7-0.3c0.1-0.2,0.1-0.3,0-0.4c0-0.1-0.1-0.2-0.3-0.2c-0.1,0-0.1,0-0.2,0
									s-0.1,0-0.2,0c0,0-0.1,0.1-0.1,0.1c0,0-0.1,0.1-0.1,0.1c0,0.1,0,0.1,0,0.2s0,0.1,0,0.2c0,0.1,0.1,0.1,0.1,0.2
									c0,0.1,0.1,0.1,0.2,0.2c0.1,0.1,0.2,0.2,0.3,0.3s0.2,0.2,0.2,0.3c0.1,0.1,0.1,0.2,0.1,0.3c0,0.1,0,0.3-0.1,0.4
									c0,0.1-0.1,0.2-0.2,0.3c-0.1,0.1-0.2,0.1-0.3,0.2c-0.1,0-0.2,0.1-0.4,0.1c-0.1,0-0.3,0-0.4-0.1L104,43l-0.4-0.1l0.2-0.4
									c-0.1-0.1-0.2-0.1-0.3-0.2c-0.1-0.1-0.2-0.2-0.2-0.3s-0.1-0.2-0.1-0.4c0-0.1,0-0.3,0.1-0.5l0.7,0.3c0,0.1-0.1,0.2-0.1,0.3
									c0,0.1,0,0.1,0.1,0.2c0,0.1,0.1,0.1,0.1,0.1c0.1,0,0.1,0.1,0.2,0.1c0.1,0,0.1,0,0.2,0s0.1,0,0.2,0c0,0,0.1,0,0.1-0.1
									C104.7,42,104.7,41.9,104.8,41.9z"/>
							</g>
						</g>
						<g>
							<path class="st24" d="M112,65.2c-0.7-1.2-0.3-2.8,0.9-3.5s2.8-0.3,3.5,0.9c0.7,1.2,0.3,2.8-0.9,3.5
								C114.3,66.8,112.8,66.4,112,65.2z"/>
							<path class="st25" d="M111.8,65.3c-0.7-1.2-0.3-2.8,0.9-3.5c1.2-0.7,2.8-0.3,3.5,0.9c0.7,1.2,0.3,2.8-0.9,3.5
								C114.1,67,112.6,66.6,111.8,65.3z"/>
							<g>
								<path class="st26" d="M114.1,66.4c-0.8,0-1.6-0.4-2-1.1l0,0c-0.7-1.1-0.3-2.5,0.8-3.2c1.1-0.7,2.5-0.3,3.2,0.8
									c0.7,1.1,0.3,2.5-0.8,3.2C114.9,66.3,114.5,66.4,114.1,66.4z M112.2,65.2c0.6,1,2,1.4,3,0.8c1-0.6,1.4-2,0.8-3
									c-0.6-1-2-1.4-3-0.8C111.9,62.8,111.5,64.1,112.2,65.2L112.2,65.2z"/>
							</g>
							<g>
								<path class="st26" d="M114.7,64.5c0,0,0-0.1-0.1-0.1c0,0-0.1-0.1-0.1-0.1c0,0-0.1,0-0.2,0s-0.1,0-0.2,0c-0.1,0-0.3,0-0.4,0
									s-0.2,0-0.3,0c-0.1,0-0.2-0.1-0.2-0.1s-0.1-0.1-0.2-0.3c0-0.1-0.1-0.2-0.1-0.3c0-0.1,0-0.2,0.1-0.3c0-0.1,0.1-0.2,0.2-0.2
									c0.1-0.1,0.2-0.1,0.3-0.2l-0.2-0.4l0.3-0.1l0.2,0.4c0.1,0,0.2,0,0.3,0c0.1,0,0.2,0,0.3,0.1c0.1,0,0.2,0.1,0.2,0.2
									s0.1,0.2,0.2,0.3l-0.5,0.2c-0.1-0.1-0.1-0.2-0.2-0.3c-0.1,0-0.2,0-0.3,0c-0.1,0-0.1,0.1-0.1,0.1c0,0-0.1,0.1-0.1,0.1
									c0,0,0,0.1,0,0.1c0,0,0,0.1,0,0.1c0,0,0,0.1,0.1,0.1c0,0,0.1,0,0.1,0.1c0,0,0.1,0,0.2,0c0.1,0,0.1,0,0.2,0
									c0.1,0,0.3,0,0.4,0c0.1,0,0.2,0,0.3,0c0.1,0,0.2,0.1,0.3,0.1c0.1,0.1,0.1,0.1,0.2,0.3c0,0.1,0.1,0.2,0.1,0.3
									c0,0.1,0,0.2-0.1,0.3c0,0.1-0.1,0.2-0.2,0.2c-0.1,0.1-0.2,0.1-0.3,0.2l0.1,0.3l-0.3,0.1l-0.1-0.3c-0.1,0-0.2,0.1-0.3,0.1
									c-0.1,0-0.2,0-0.3,0c-0.1,0-0.2-0.1-0.3-0.2s-0.2-0.2-0.2-0.3l0.5-0.2c0,0.1,0.1,0.1,0.1,0.2c0,0,0.1,0.1,0.1,0.1
									c0.1,0,0.1,0,0.2,0c0.1,0,0.1,0,0.2,0c0.1,0,0.1-0.1,0.1-0.1c0,0,0.1-0.1,0.1-0.1c0,0,0-0.1,0-0.1
									C114.7,64.6,114.7,64.5,114.7,64.5z"/>
							</g>
						</g>
						<path class="st26" d="M82.8,62.7c0,0-1.8-1.3-3.1-1c-1.3,0.2-2.8,2-2.8,2s2.7,0.3,3.7-0.1C81.5,63.2,82.8,62.7,82.8,62.7z"/>
						<path class="st15" d="M112.2,60.1c0,0,3-1.7,4.2-1.1c1.2,0.5,1.8,1.9,1.8,1.9s-1.4,0.1-2.5,0.1
							C114.6,60.9,113.9,60,112.2,60.1z"/>
						<path class="st26" d="M117.1,47.4c0,0,2-1,3-0.8c0.9,0.2,1.8,0.8,1.8,0.8s-1.1,0.7-2.2,0.6C118.5,48,117.1,47.4,117.1,47.4z"
							/>
						<path class="st26" d="M103.8,37c0,0-1.1-1.3-0.7-2.3c0.4-1,0.7-1.4,0.7-1.4s1,1.1,0.9,1.9C104.7,36,103.8,37,103.8,37z"/>
						<path class="st15" d="M108.1,39.3c0,0-0.2-1.6,0.5-2.1s2-0.5,2-0.5s-0.2,1.4-0.7,1.7C109.4,38.8,108.4,38.9,108.1,39.3z"/>
						<path class="st15" d="M96.4,83.1c0,0,1,1.5,1.1,2c0,0.5-1.5,1.8-1.5,1.8s-0.5-1.3-0.3-1.9C95.9,84.4,96.4,83.1,96.4,83.1z"/>
						<path class="st15" d="M94.5,74.8c0,0-1.5,0.5-1.7,1.4c-0.2,0.8-0.1,1.5-0.1,1.5S94.8,76.5,94.5,74.8z"/>
						<path class="st15" d="M94.9,74.8c0,0,0.5,0.5,0.5,0.9c0,0.4-0.2,0.7-0.2,0.7S94.6,75.9,94.9,74.8z"/>
					</g>
				</g>
			</g>
			<g>
				<path class="st28" d="M141.8,62.9c0,0-2.2,2.3-4.6,1.4c0,0-0.3-1.3-0.3-2.3c0-0.1,0-0.2,0-0.3c0-1.1,0-1.6,0-1.6s0,0,0,0
					c0.1,0,3.7-1.5,3.7-1.4C140.5,61.5,141.8,62.9,141.8,62.9z"/>
				<path class="st29" d="M140.2,59.3c-0.3,0.6-1.5,1.9-3.3,2.4c0-1.1,0-1.6,0-1.6s0,0,0,0C137,60,140.3,59.1,140.2,59.3z"/>
				<path class="st28" d="M136.1,60c0,0,4.1,1,4.6-1.6c0.6-2.5,1.5-4.1-1.1-4.8c-2.6-0.7-3.3,0.1-3.7,0.9
					C135.5,55.3,135.1,59.6,136.1,60z"/>
				<path class="st9" d="M140.6,59.1c0.1,0,0.9,0.3,2.6-3c0.3-0.5,0.4-1.6-0.2-2.6c-0.6-1-2.8-1.8-4.5-2.1c-1.8-0.3-2.2,0.7-2.6,1.7
					c-0.4,1.1-1.7,1.9-1.7,1.9c1.5,0.9,3.4-0.4,4-0.2s0.9,1.2,0.9,1.5c0,0.3,0.1,0.6,0.9,0.3c0.8-0.3,0.4,1.1,0.2,1.4
					C140.2,58,140.1,58.8,140.6,59.1z"/>
				<g>
					<path class="st4" d="M151,122.4h2.5c0.5,0,1.1-0.5,1.2-1.5c0.1-0.9,1.2-1.5,1.4-2.2c0.2-0.8-0.9-1.9-0.9-1.9l-0.2-0.3l-0.2-0.3
						l-1.9,0.5c0,0,0,0.5-0.1,1.1c0,0.4,0,0.9,0,1.4c0.1,1-0.3,2.1-1.2,2.3C150.7,121.7,151,122.4,151,122.4z"/>
					<path class="st4" d="M133.9,122.4h6.5c0.1,0,0.1,0,0.1,0c0.4-0.2,0.3-1.9,0.2-2.4c0-0.1,0-0.2,0-0.2s-2.3-1.8-2.6-0.4
						c0,0,0,0.1,0,0.1v0c-0.4,1.3-2.2,1.9-3.2,2.1C134.2,121.7,134,122.1,133.9,122.4z"/>
					<path class="st3" d="M135.2,84.8c0,0,0.3,4.3,0.8,9.6c0.6,7.1,1.2,15.8,1.3,17.5c0.1,2.9,0.6,7.4,0.6,7.4s1.1,1.1,3.3,0.6
						c0,0,1.9-6.5,2.5-13.5c0-0.1,0-0.2,0-0.3c0.5-7,1.3-21.9,1.3-21.9L135.2,84.8z"/>
					<path class="st8" d="M135.2,84.8c0,0,0.3,4.3,0.8,9.6l7.6,12.1c0-0.1,0-0.2,0-0.3c0.5-7,1.3-21.9,1.3-21.9L135.2,84.8z"/>
					<path class="st3" d="M136.8,85.3c0,0,6.3,15.7,10.4,23.1c4.1,7.4,5.4,9.5,5.4,9.5s2.4-0.9,2.6-1.6c0,0-1.6-14.3-4.3-17.7
						c-1.6-2-3.4-7.9-3.5-9.9c-0.1-2.1-0.6-6.1-0.6-6.1L136.8,85.3z"/>
				</g>
				<g>
					<path class="st28" d="M151.1,82.4l0.1,1c0,0-0.7,1.8,1.2,2.7c0,0,0.8,0.3,0.8-0.3c0-0.6-0.1-0.4,0-1.3c0.1-0.9-0.3-1.7-0.9-2
						l-0.5-0.5L151.1,82.4z"/>
					<path class="st30" d="M151.9,83.2c-0.7,0.2-0.8,0.2-0.8,0.2s-3.4-6.2-3.7-6.7c-0.3-0.6-7.2-6.9-7.2-6.9l1.8-6.5
						c0,0,7.8,10.1,8.6,11.5c1.4,2.4,2.2,7.9,2.2,7.9S152.4,83,151.9,83.2z"/>
				</g>
				<path class="st5" d="M133.9,72.3c0,1.3,0.1,2.9,0.2,4.4c0,0.1,0,0.2,0,0.3c0.1,1,0.1,1.9,0.2,2.8c0,0.4,0.1,0.7,0.1,1.1l0,0
					c0,0.1,0,0.3,0,0.4c0.3,3.5,0.7,6.2,0.8,6.3c0.1,0.1,0.2,0.1,0.3,0.1c0.9-0.1,3.6,0.1,5.9-0.4c1.9-0.4,3.5-1.2,5.2-2.2
					c0.2-0.1,0.7-0.5,0.7-0.8c0-0.3-0.1-0.7-0.2-1.2c-0.3-1.9-0.9-5-1.1-8.8c0-0.7-0.1-1.4-0.2-2.1c-0.2-1.8-0.5-3.4-0.9-4.9
					c-0.8-2.8-2.3-4.8-3.7-5.6c-0.2-0.1-0.8,0.5-1.7,1.1c-0.8,0.5-1.7,0.7-2.6,0.6l-0.8,0.8c-0.9,1.1-1.9,2.5-2.2,4.5
					c0,0.1,0,0.3-0.1,0.5C133.9,70.1,133.9,71.1,133.9,72.3z"/>
				<path class="st30" d="M133.9,72.3c0,1.3,0.1,2.9,0.2,4.4c0,0.1,0,0.2,0,0.3c5.2-3.3,6-9.2,6-9.2c-2.6,0.1-4.6,0.7-6.2,1.5
					C133.9,70.1,133.9,71.1,133.9,72.3z"/>
				<g>
					<path class="st29" d="M118.6,65.1l-0.9-0.5c0,0-0.5-2-2.8-1.9c0,0-0.9,0.1-0.6,0.7c0.4,0.6,0.3,0.3,0.8,1.2
						c0.5,0.8,1.3,1.4,2,1.4l0.8,0.3L118.6,65.1z"/>
					<path class="st5" d="M117.7,65.3c0.3-0.7,0.7-0.6,0.7-0.6s7.6,2.4,8.3,2.5c0.7,0.1,8.5-2.3,8.5-2.3s3.1-1.1,4.4,0.2
						c1.2,1.1,1.1,2.4,0.8,3.5c-0.4,1.3-1.6,2.2-3,2.3c-3.1,0.2-9.4,0.5-10.7,0.2c-2.9-0.6-9.2-4.7-9.2-4.7S117.4,65.8,117.7,65.3z"
						/>
				</g>
			</g>
			<g>
				<g>
					<path class="st5" d="M201.7,100v3.4c0,0.7-0.6,1.3-1.3,1.3h-20c-0.7,0-1.3-0.6-1.3-1.3V100c0-0.7,0.6-1.3,1.3-1.3h20
						C201.1,98.7,201.7,99.3,201.7,100z"/>
					<path class="st30" d="M201.7,102.8v0.6c0,0.7-0.6,1.3-1.3,1.3h-20c-0.7,0-1.3-0.6-1.3-1.3v-0.7h22.2
						C201.4,102.7,201.6,102.7,201.7,102.8z"/>
					<g>
						<path class="st31" d="M183.9,104.6l-0.9,3.4c0,0,0,0,0,0l-3.8,14.2h-0.4l2.2-11.8c0,0,0,0,0,0l1.1-5.8L183.9,104.6z"/>
					</g>
					<path class="st32" d="M183.9,104.6l-0.9,3.4c0,0,0,0,0,0c-0.1,0-1.7,0.9-2,2.4l1.1-5.8L183.9,104.6z"/>
					<g>
						<path class="st31" d="M201.7,122.3h-0.4l-3.1-11.6c0,0,0,0,0,0l-0.7-2.6c0,0,0,0,0,0l-0.9-3.4l1.8,0l0.6,3.3l0.5,2.5
							c0,0,0,0,0,0L201.7,122.3z"/>
					</g>
					<path class="st33" d="M195.6,109.1C195.6,109.1,195.6,109.1,195.6,109.1C195.6,109.1,195.6,109.1,195.6,109.1z"/>
					<path class="st34" d="M199,107.9c-0.3,0.5-0.8,1.4-0.8,2.7l-0.7-2.6c0,0,0,0,0,0l-0.9-3.4l1.8,0L199,107.9z"/>
				</g>
				<g>
					<g>
						<path class="st35" d="M187.3,114.1c0.2,0.2,0.2,0.4,0.1,0.7c0,0,0,0,0,0c-0.2,0.5-0.7,1-1.3,1.5c-0.1,0.1-0.2,0.1-0.2,0.2
							c0,0,0,0,0,0c0,0,0,0,0,0c-0.6,0.5-0.4,0.7-1.4,1.8c-1.2,1.3-2.1,1.3-2.3,1.2c-0.2-0.1,0.2-0.8,0.7-1.5c0,0,0-0.1,0.1-0.1
							c0.1-0.1,0.1-0.2,0.2-0.3c0.5-0.9,0.4-1.3,0.3-2.7c-0.1-1.1-1.7-6.1-1.7-6.1l2.3-0.4c0,0,0.7,4,1.5,4.6
							c0.4,0.3,0.9,0.3,1.3,0.6c0,0,0.1,0,0.1,0.1C186.9,113.7,187.1,113.8,187.3,114.1z"/>
						<path class="st4" d="M187.3,114.1c0.2,0.2,0.2,0.4,0.1,0.7c0,0,0,0,0,0c-0.2,0.5-0.7,1-1.4,1.5c-0.1,0.1-0.2,0.1-0.2,0.2
							c0,0,0,0,0,0c0,0,0,0,0,0c-0.6,0.5-0.4,0.7-1.4,1.8c-1.2,1.3-2.1,1.3-2.3,1.2c-0.2-0.1,0.2-0.8,0.7-1.5
							c0.2-0.1,1.3-0.5,2.2-1.6c0.7-0.9,1.2-2.1,1.7-2.8c0,0,0.1,0,0.1,0.1C186.9,113.7,187.1,113.8,187.3,114.1z"/>
						<path class="st35" d="M168.5,112.6c-0.1,0.7-1.2,0.6-2.3,0.3c-1.1-0.3-0.9,0.1-2.5-0.1s-2.1-0.8-2.2-1c0-0.2,0.8-0.3,1.6-0.4
							c0.1,0,0.2,0,0.3,0c1-0.1,1.7-0.8,2.6-1.3c0.8-0.5,2.1-2.5,2.1-2.5l2.2,0.2c0,0-1.2,1.8-1.6,2.6c-0.3,0.5-0.3,1.1-0.2,1.5
							C168.6,112.1,168.6,112.3,168.5,112.6z"/>
						<path class="st4" d="M166.2,112.9c-1.1-0.3-0.9,0.1-2.5-0.1s-2.1-0.8-2.2-1c0-0.2,0.8-0.3,1.6-0.4l0,0c0,0,1,0.7,2.3,0.7
							c1.1,0,2.3-0.3,3-0.3c0,0.3,0,0.5,0,0.8C168.4,113.3,167.4,113.2,166.2,112.9z"/>
						<path class="st35" d="M173.5,79.8c0,0-0.5-1.3-1.1-1.4c-0.6-0.1-2.4-0.3-2.6-0.1c-0.1,0.3,0,1.2,0.4,1.6
							c0.4,0.3,2.9,0.9,2.9,0.9L173.5,79.8z"/>
						<path class="st36" d="M177.1,98.3l4.8,13c0,0,0.7,0.1,1.4-0.1c0.7-0.2,1.4-0.7,1.4-0.7s-1.2-12.4-3.4-15
							C179.2,92.8,177.1,98.3,177.1,98.3z"/>
						<path class="st37" d="M196.1,93.1c0,0-13.8-4.7-16.9-3.7c-3.1,1-12.4,19.4-12.4,19.4s0.2,0.3,0.8,0.5c0.5,0.2,1.8,0.2,1.8,0.2
							s8.4-7.2,9.4-9.3c1-2.1,1.4-4.1,2.4-3.9c1,0.2,12.8,4.9,15.5,2.1c2.7-2.8,2-6.4,2-6.4L196.1,93.1z"/>
						<path class="st38" d="M187.7,71.3c-0.2-0.5-0.5-1.3-0.6-2.7c0,0.1,0.3,2,1,3c2.9,1.9,8.4,8.2,8.3,9.4c0,0,1.9-3.3,2-3.3
							c0,0,3.6-4.6-0.7-7.2c-2.2-1.3-2.1-3-2.1-4.5c0.1-1.5-0.6-7.8-4.9-6.2c0,0-0.7-0.3-1-0.3c0,0,0.3,0,0.4,0.2
							c-0.5,0-1.2,0-1.8,0.3C186.7,61,185.2,69,187.7,71.3z"/>
						<path class="st35" d="M188.2,71.7c0,0,1.4,0.7,2.4,0.4c1-0.3,1.6-1.6,1.6-1.6c-0.4-0.1-0.5-0.7-0.5-3.1l-0.2,0l-3.2,0.6
							c0,0,0.1,1,0.1,2C188.5,70.8,188.4,71.6,188.2,71.7z"/>
						<path class="st39" d="M188.4,68.1c0,0,0.1,1,0.1,2c1.8-0.1,2.7-1.7,3.1-2.6L188.4,68.1z"/>
						<path class="st38" d="M191.9,67.1c0,0,0.9-1.5,1.2-2.7c0.2-0.9-0.3-4.3-3.7-3.8c0,0-1,0.1-1.9,0.7c-0.7,0.5-1.8,1.6-0.6,4.5
							l0.3,1L191.9,67.1z"/>
						<path class="st35" d="M187.8,69c0,0,4.2,0.1,4.2-2.6c0-2.6,0.6-4.4-2.2-4.6c-2.7-0.2-3.2,0.8-3.4,1.7
							C186.2,64.5,186.7,68.9,187.8,69z"/>
						<path class="st38" d="M187.9,61.8c0,0,1.2,3.1,2.9,3.6c1.8,0.5,2.6,0,2.6,0s-0.1-1.9-0.4-3.8
							C193.1,61.5,188.8,60.3,187.9,61.8z"/>
						<path class="st38" d="M188.2,62c0,0-0.9,0.7-1.1,1.4c-0.2,0.7-0.3,2.1-0.7,2c0,0-0.9-2.1,0.1-3.3
							C187.6,60.8,188.2,62,188.2,62z"/>
						<path class="st40" d="M197.7,83.1c0.4-1.8-1-5.1-2.5-8c-1.3-2.6-2.7-4.6-2.9-4.5c-3.5,2.1-3.9,0.4-3.9,0.4s-3.2,0.4-4.1,2
							c-1.3,2.2-2.6,8.7-4,8.6c-0.6,0-6.9-2.4-6.9-2.4s-1,1-0.8,2.2c0,0,3.1,2.1,5.7,3.4c1.4,0.7,2.6,1.2,3.2,1c1.2-0.3,3-3,4-4.7
							c0,0,0,0,0,0c1.3,7.2-0.5,8.9,0.4,9.6c0.9,0.8,2.3-0.4,5.2,0.9c1.9,0.8,4.6,2,6.4,2.2c0.9,0.1,1.6-0.1,1.9-0.7
							C200.1,91.3,196.9,86.4,197.7,83.1z"/>
						<path class="st41" d="M188.7,67.4c0,0-0.1,0.3-0.9,0.3c0,0-0.7,0-0.7-0.4C187.1,67.2,187.8,67,188.7,67.4z"/>
						<path class="st42" d="M199.4,93.1c-0.2,0.6-0.9,0.8-1.9,0.7c-1.2-0.5-6.6-2.6-6.5-4c0.1-2.1,1-2.1,0.4-4.7
							c-0.5-2.1,4.4-5.9,5.2-6.7c1.5,2.8,1.5,2.9,1.1,4.7C196.9,86.4,200.1,91.3,199.4,93.1z"/>
						<path class="st42" d="M185.6,81.1c-1,1.6-2.9,4.4-4,4.7c-0.6,0.1-1.8-0.3-3.2-1c1,0.3,2,0.3,2.9,0.2c1-0.1,1.3-1.4,3-3.3
							C185.2,80.3,185.5,80.7,185.6,81.1z"/>
						<path class="st35" d="M190.5,85c0,0-0.9-0.7-1.7-0.5c-0.8,0.2-1.3,0.7-1.2,1c0,0.3,0.5,1,1.1,1.1c0.6,0.1,2.5-0.4,2.5-0.4
							L190.5,85z"/>
						<path class="st40" d="M192.3,70.6c0,0,3.5,0.2,4.6,1.9c1.4,1.9,3.5,8.5,3.9,12.1c0.1,1.1-0.7,2-1.8,2l-8.8,0
							c0,0-0.3-1.2,0.1-1.8c0.4-0.6,6.1-1.5,6.4-1.8c0.3-0.3-3.3-5.2-3.3-6C193.4,76.2,192.3,70.6,192.3,70.6z"/>
					</g>
					<g>
						<g>
							<polygon class="st43" points="187.3,81.7 174.6,81.7 176.9,89.7 189.6,89.7 							"/>
							<rect x="176.9" y="89.4" class="st44" width="16.6" height="0.3"/>
						</g>
						<path class="st45" d="M181.9,85.6c-0.1-0.3-0.4-0.5-0.7-0.5c-0.3,0-0.4,0.2-0.4,0.5c0.1,0.3,0.4,0.5,0.7,0.5
							C181.9,86.1,182,85.9,181.9,85.6z"/>
					</g>
				</g>
			</g>
		</g>
		<path class="st46" d="M222.8,123H3.2c-0.2,0-0.4-0.2-0.4-0.4l0,0c0-0.2,0.2-0.4,0.4-0.4h219.6c0.2,0,0.4,0.2,0.4,0.4l0,0
			C223.2,122.9,223,123,222.8,123z"/>
	</g>
</g>
</svg>
