<?xml version="1.0" encoding="utf-8"?>
<!-- Generator: Adobe Illustrator 25.4.1, SVG Export Plug-In . SVG Version: 6.00 Build 0)  -->
<svg version="1.1" id="Layer_1" xmlns="http://www.w3.org/2000/svg" xmlns:xlink="http://www.w3.org/1999/xlink" x="0px" y="0px"
	 viewBox="0 0 225 150" style="enable-background:new 0 0 225 150;" xml:space="preserve">
<style type="text/css">
	.st0{fill:#E0EBFC;}
	.st1{clip-path:url(#SVGID_00000052085184367402702360000003341136666500203688_);}
	.st2{fill:#EF967B;}
	.st3{fill:none;stroke:#000000;stroke-width:2;stroke-miterlimit:10;}
	.st4{fill:none;stroke:#000000;stroke-width:1.5;stroke-miterlimit:10;}
	.st5{fill:#6B3429;}
	.st6{fill:#3F4B9E;}
	.st7{fill:#052669;}
	.st8{fill:#FFFFFF;}
	.st9{fill:#2B2A33;}
	.st10{fill:#EF7F1A;}
	.st11{clip-path:url(#SVGID_00000051382840322251648430000003434749887893854371_);}
	.st12{fill:none;stroke:#E8D9D1;stroke-width:3;stroke-miterlimit:10;}
	.st13{fill:#EF967B;stroke:#000000;stroke-width:1.5;stroke-miterlimit:10;}
	.st14{fill:#FCD98D;}
	.st15{fill:none;stroke:#4E4E72;stroke-width:1.5;stroke-miterlimit:10;}
	.st16{fill:#4E4E72;}
	.st17{fill:none;stroke:#052669;stroke-width:1.5;stroke-miterlimit:10;}
	.st18{fill:none;stroke:#052669;stroke-width:1.5;stroke-miterlimit:10.0002;}
	.st19{fill:none;stroke:#EF7F1A;stroke-width:1.5;stroke-linecap:round;stroke-miterlimit:10;}
</style>
<g id="BACKGROUND">
</g>
<g id="OBJECTS">
	<path class="st0" d="M63,30.9c-8.1,7.9-13.4,18.5-14.3,30c-1,12.7,2.9,25.5,9,36.6c7.6,13.8,18.9,25.7,33,32.7
		c14,7.1,30.8,9,45.8,4.2c13.4-4.4,24.8-14,32.5-25.9c7.7-11.8,11.9-25.7,13.3-39.8c1.1-10.8,0.7-22-2.9-32.3
		c-3-8.6-8.8-17.9-16.8-22.6c-12.8-7.5-29.1-8-43.5-6.6C98.9,9.3,77.6,16.6,63,30.9z"/>
	<g>
		<g>
			<defs>
				<rect id="SVGID_1_" x="33.8" y="-10.7" width="161.1" height="161.1"/>
			</defs>
			<clipPath id="SVGID_00000150793284511212959760000014823405249786195618_">
				<use xlink:href="#SVGID_1_"  style="overflow:visible;"/>
			</clipPath>
			<g style="clip-path:url(#SVGID_00000150793284511212959760000014823405249786195618_);">
				<g>
					<polygon class="st2" points="132.6,64.5 131.7,78.3 160,71.9 158.9,57.2 					"/>
					<path class="st2" d="M158.7,30.1c-0.8-1.2-1.8-2.3-2.9-3.3c-4-3.3-8.9-4.1-13.9-3.7c-2.7,0.2-5.5,1-7.7,2.7
						c-6.6,4.9-6.8,14.3-11.4,20.6c-0.7,0.9-1.7,2-1.9,3.2c-0.2,1.3,1.3,1.8,2.3,2.3c-0.8,3.4-1.2,7.1,0.5,10.3c1.8,3.3,5.8,5,9.5,5
						c5.8,0.1,10.8-2.3,15.8-5c4.6-2.5,8.4-6.5,10.6-11.3C162.6,44.6,162.7,36.2,158.7,30.1z"/>
					<path class="st3" d="M130.5,37.2c1.7-0.1,3.2,0.9,4.2,2.1c1.2,1.3,1.9,3.1,2.7,4.8"/>
					<path class="st4" d="M124.8,54.7c0.4,0.3,0.9,0.5,1.4,0.5c1.6,0.1,3.2-0.8,4-2.2"/>
					<path d="M132.8,43.7c-0.4,0.9-1.1,1.5-1.6,1.3c-0.5-0.2-0.5-1.1-0.1-2.1c0.4-0.9,1.1-1.5,1.6-1.3
						C133.1,41.8,133.2,42.7,132.8,43.7z"/>
					<path class="st5" d="M169.1,37.8c-2.1-2-0.3-3.9-1.9-6.4c-1.4-2.2-4.6-2.8-4.6-2.8c0.3-2.4-0.8-4.8-2.5-6.4
						c-1.7-1.6-4-2.6-6.3-3c-2.3-0.4-4.7-0.3-7-0.1c-1,0.1-2,0.2-2.8-0.4c-0.5-0.3-0.8-0.7-1.2-1c-1.1-0.8-2.6-0.6-3.8-0.2
						c-2.2,0.7-4.2,1.8-6,3.2c-1.2-0.1-2.5-0.2-3.7,0c-3,0.6-6.1,2.6-7.1,5.7c-0.5,1.6,0,3.5,0.9,4.9c1.2,1.7,3.2,2.8,5.2,3.1
						c3.3,0.4,6.9-0.6,9.6-2.5c1-0.7,1.9-1.5,2.9-2.2c1.1-0.7,2.3-1.1,3.6-1.1c0.9,0,1.8,0.3,2.5,0.8c0.4,0.3,1.4,1.2,1.3,1.7
						c0,0.1-0.1,0.3-0.1,0.4c-0.6,1.1-1.5,2.2-1.9,3.4c-0.2,0.7-0.2,1.4,0,2.1c0.1,0.6,0.5,1.2,0.4,1.8c-0.1,0.7-0.6,1.4-0.9,2
						c-0.5,1-0.5,2.3,0.1,3.3c0.6,1,1.6,1.7,2.2,2.7c0.6,1.1,0.8,2.4,1,3.6c0.1,1.1,0.3,2.2,0.6,3.4c0.4,1.6,0.9,4.2,2.5,5.1
						c2.8,1.7,6.7,2.7,7.9,2.3c1.2-0.4,1.9-2,2.9-4.1c1-2.2,4.5-4.5,6.4-8.2C170.6,45.3,171.2,39.8,169.1,37.8z"/>
					<g>
						<path class="st2" d="M144.2,47.1c1.4-2,3.9-2.8,5.5-2.2c2.4,1,3,3.8,2.6,6.1c-0.4,2.1-1.2,3.7-2.8,5.2
							c-1.5,1.4-4.2,2.6-6.1,1.8c-1.3-0.6-1.6-2.4-1.5-3.6"/>
						<line class="st4" x1="143.5" y1="52.9" x2="150" y2="49.4"/>
						<path class="st4" d="M141.7,54.8c0.1,0.7,0.4,3.1,2.6,3.5c1,0.1,3.1,0.2,5.9-2.8"/>
						<path class="st4" d="M144,46.9c0.6-0.7,3.1-3.3,6.5-1.5"/>
					</g>
					<path class="st4" d="M132.9,20.8c0,0-2.1,1.9-1.5,4.7"/>
					<path class="st4" d="M149.7,30.8c0,0,6.2-3.3,13-2.2"/>
					<path class="st4" d="M132.3,67.4c4-0.4,7.8-2.2,10.7-5"/>
				</g>
				<g>
					<path class="st2" d="M77.3,121.3c-2.4-6.9-6.1-15.9-8.5-22.8c-0.6-1.8-1.2-3.5-1.6-5.3c-0.9-3.6-1-7.4-1.1-11.2
						c0-1.1,0-2.2,0-3.3c0.2-2.5,1-4.9,1.8-7.3c0.5-1.5,1-3,1.5-4.6c0.3-0.9,0.7-1.9,1.6-2.2c1.5-0.4,2.2,2.3,2.2,2.3
						s0.4-1.6,0.6-2.3c0.2-0.8,0.8-1.8,1.6-1.6c0.5,0.1,1.2,0.7,1.4,1.2c0.7,1.3,0.8,2.2,0.7,3.6c0.1-0.7,1-1.4,1.6-1
						c1.7,1,2.4,5.6,2.4,5.6s0.4-2.1,1.4-1.2c1.5,1.2,1.7,3.7,1.8,5.1c0.1,4,2,8.9,3.9,12.5c1.1,2.1,2.5,4,3.5,6.1
						c1.4,3.1,0.7,6.8,2.1,9.8c0.9,1.9,1.7,3.8,2.6,5.6"/>
					<path class="st2" d="M133.8,82.5c-2.4-4-5.3-7.6-8.5-10.9c-1.6-1.6-4.1-4.1-6-5.3c-5.5-3.7-11.4-3.9-18-4.3
						c-0.4,0-0.8,0-1.1,0.2c-0.5,0.4-0.5,1.2-0.2,1.7c0.3,0.5,0.9,0.9,1.4,1.2c-0.7-0.2-2.3-0.4-2.4,0.1c-0.3,1.4,1.6,2.6,1.6,2.6
						s-0.7,0-0.8,0.3c-0.2,0.3,0.3,1.5,0.8,2.1c0.5,0.5,1.9,1.2,1.9,1.2s-0.7-0.3-0.9,0c-0.2,0.3,0.1,1.1,0.4,1.5
						c1.4,1.8,3.3,3,5.1,4.3c1.6,1.1,3.3,2.2,4.3,3.9c0.5,0.8,0.8,1.6,1.1,2.4c1.2,2.8,3.1,5.4,5.8,7c1.1,0.7,2.4,1.1,3.5,1.7
						c1.4,0.7,2.8,1.6,4,2.6"/>
					<g>
						<polygon class="st6" points="126.9,92.6 80.4,102 44,51.3 44.4,49.9 90.4,41.5 127.3,91.2 						"/>
						<polygon class="st7" points="127.3,91.2 80.8,100.6 44.4,49.9 91,40.4 						"/>
						<polyline class="st4" points="127.3,91.2 80.8,100.6 44.4,49.9 						"/>
						<polygon class="st8" points="123.6,88.4 81.3,97 48.2,50.9 90.5,42.3 						"/>
						<path class="st9" d="M78.7,42.2L59.9,46c-0.2,0-0.3,0.3-0.2,0.4l2,2.6c0.2,0.3,0.6,0.4,1,0.4l18.8-3.8c0.2,0,0.3-0.3,0.2-0.4
							l-2-2.6C79.4,42.2,79,42.1,78.7,42.2z"/>
						<g>
							<path class="st10" d="M56.9,53c0.3-0.1,0.6-0.1,0.8,0c0.3,0,0.5,0.1,0.7,0.3c0.2,0.1,0.4,0.3,0.6,0.6
								c0.1,0.2,0.2,0.3,0.2,0.4c0.1,0.1,0.1,0.3,0.1,0.4c0,0.1,0,0.2-0.1,0.3l2.1,1.5l-1,0.2l-1.7-1.2l-0.2,0l1,1.4L58.7,57
								l-2.8-3.8L56.9,53z M57.5,53.8l-0.2,0l0.6,0.9l0.2,0c0.1,0,0.2-0.1,0.2-0.2c0-0.1,0-0.2-0.2-0.4c-0.1-0.1-0.2-0.2-0.3-0.3
								C57.7,53.8,57.6,53.8,57.5,53.8z"/>
							<path class="st10" d="M63.9,56L62,56.4l-2.8-3.8l1.9-0.4l0.6,0.8l-1,0.2l0.4,0.6l0.9-0.2l0.6,0.8l-0.9,0.2l0.5,0.7l1-0.2
								L63.9,56z"/>
							<path class="st10" d="M65.9,54.2c0.2,0.2,0.3,0.4,0.3,0.6c0.1,0.2,0,0.4-0.1,0.5c-0.1,0.2-0.3,0.3-0.6,0.3
								c-0.1,0-0.3,0-0.4,0.1c-0.1,0-0.2,0-0.4,0c-0.1,0-0.2,0-0.4-0.1l-0.7-0.9c0.2,0.1,0.5,0.1,0.7,0.1c0.2,0,0.4,0,0.5,0
								c0.1,0,0.1,0,0.2-0.1s0.1-0.1,0-0.1c0,0,0-0.1-0.1-0.2c0-0.1-0.1-0.1-0.2-0.2c-0.1,0-0.2-0.1-0.3-0.1c-0.1,0-0.3-0.1-0.5-0.1
								c-0.2,0-0.3-0.1-0.5-0.1c-0.1-0.1-0.3-0.1-0.4-0.2c-0.1-0.1-0.3-0.2-0.4-0.3c-0.1-0.1-0.2-0.3-0.4-0.4
								c-0.2-0.2-0.3-0.5-0.3-0.6c0-0.2,0-0.3,0.1-0.5c0.1-0.1,0.3-0.2,0.5-0.3c0.2,0,0.4-0.1,0.6,0c0.2,0,0.4,0.1,0.6,0.1l0.3,0.8
								c-0.2,0-0.4-0.1-0.5-0.1c-0.2,0-0.3,0-0.4,0c-0.1,0-0.1,0-0.2,0.1c0,0,0,0.1,0,0.1c0,0,0,0.1,0.1,0.1c0,0.1,0.1,0.1,0.2,0.1
								c0.1,0,0.2,0.1,0.3,0.1c0.1,0,0.3,0.1,0.5,0.1c0.2,0.1,0.4,0.1,0.6,0.2c0.2,0.1,0.3,0.2,0.5,0.3C65.6,53.9,65.8,54,65.9,54.2
								z"/>
							<path class="st10" d="M67.6,55.2l-2.8-3.8l0.8-0.2l2.8,3.8L67.6,55.2z"/>
							<path class="st10" d="M69.1,52.3l1.3-0.3l1.5,2c-0.1,0.1-0.3,0.2-0.4,0.3c-0.2,0.1-0.4,0.2-0.6,0.2c-0.3,0.1-0.6,0-0.9-0.1
								c-0.3-0.1-0.7-0.3-1-0.5c-0.3-0.3-0.7-0.6-1-1.1c-0.3-0.4-0.5-0.8-0.6-1.1c-0.1-0.3-0.1-0.6,0.1-0.8c0.1-0.2,0.4-0.4,0.7-0.4
								c0.2,0,0.4-0.1,0.6,0s0.4,0,0.6,0.1l0.3,0.9c-0.2,0-0.3-0.1-0.5-0.1c-0.1,0-0.3,0-0.4,0c-0.2,0-0.3,0.1-0.3,0.2
								c0,0.1,0,0.3,0.1,0.5c0.1,0.2,0.2,0.4,0.3,0.6c0.2,0.2,0.3,0.4,0.5,0.6c0.2,0.2,0.3,0.3,0.5,0.3s0.3,0.1,0.5,0
								c0,0,0.1,0,0.2-0.1c0.1,0,0.1,0,0.1-0.1L70.3,53l-0.6,0.1L69.1,52.3z"/>
							<path class="st10" d="M76.1,53.5L75,53.7l-3.1-2.4l0,0c0.1,0.1,0.1,0.2,0.2,0.3c0.1,0.1,0.2,0.2,0.3,0.3s0.2,0.2,0.2,0.3
								l1.3,1.7l-0.7,0.2l-2.8-3.8l1.1-0.2l3.1,2.4l0,0c-0.1-0.1-0.1-0.2-0.2-0.3c-0.1-0.1-0.2-0.2-0.3-0.3
								c-0.1-0.1-0.2-0.2-0.2-0.3l-1.3-1.7l0.8-0.2L76.1,53.5z"/>
							<path class="st10" d="M79,52.9l-0.7-0.7l-1,0.2l0.4,0.7l-0.9,0.2l-1.8-4l1.1-0.2l3.9,3.6L79,52.9z M77.5,51.4l-0.6-0.6
								c-0.1-0.1-0.2-0.2-0.3-0.3s-0.2-0.2-0.4-0.4c-0.1-0.1-0.2-0.2-0.3-0.3c0.1,0.1,0.1,0.2,0.2,0.3c0.1,0.1,0.1,0.3,0.2,0.4
								c0.1,0.1,0.1,0.2,0.2,0.3l0.3,0.7L77.5,51.4z"/>
							<path class="st10" d="M82,52.2l-0.8,0.2l-2.2-3l-0.8,0.2l-0.6-0.8l2.4-0.5l0.6,0.8l-0.8,0.2L82,52.2z"/>
							<path class="st10" d="M83.6,51.9l-2.8-3.8l0.8-0.2l2.8,3.8L83.6,51.9z"/>
							<path class="st10" d="M86.9,49c0.2,0.3,0.4,0.6,0.5,0.8c0.1,0.3,0.2,0.5,0.2,0.7c0,0.2-0.1,0.4-0.2,0.5
								c-0.1,0.1-0.3,0.2-0.6,0.3c-0.3,0.1-0.5,0.1-0.8,0c-0.3-0.1-0.5-0.2-0.8-0.3c-0.3-0.1-0.5-0.3-0.7-0.6
								c-0.2-0.2-0.5-0.5-0.7-0.8c-0.3-0.4-0.5-0.8-0.6-1.1c-0.1-0.3-0.1-0.6,0-0.8c0.1-0.2,0.3-0.3,0.7-0.4c0.4-0.1,0.7-0.1,1,0.1
								c0.3,0.1,0.7,0.3,1,0.6C86.3,48.3,86.7,48.6,86.9,49z M84.8,49.5c0.2,0.2,0.3,0.4,0.5,0.6s0.3,0.3,0.5,0.3
								c0.2,0.1,0.3,0.1,0.5,0.1c0.2,0,0.2-0.1,0.3-0.2c0-0.1,0-0.2-0.1-0.4c-0.1-0.2-0.2-0.4-0.4-0.6c-0.3-0.3-0.5-0.6-0.7-0.8
								c-0.2-0.2-0.5-0.2-0.7-0.2c-0.2,0-0.2,0.1-0.3,0.2c0,0.1,0,0.3,0.1,0.4C84.5,49,84.6,49.3,84.8,49.5z"/>
							<path class="st10" d="M92.2,50.1l-1.1,0.2L88,47.9l0,0c0.1,0.1,0.1,0.2,0.2,0.3c0.1,0.1,0.2,0.2,0.3,0.3
								c0.1,0.1,0.2,0.2,0.2,0.3l1.3,1.7l-0.7,0.2L86.5,47l1.1-0.2l3.1,2.4l0,0c-0.1-0.1-0.1-0.2-0.2-0.3s-0.2-0.2-0.3-0.3
								c-0.1-0.1-0.2-0.2-0.2-0.3l-1.3-1.7l0.8-0.2L92.2,50.1z"/>
						</g>
						<g>
							<g>
								<defs>
									<polygon id="SVGID_00000049905702847924554060000013065813885968415878_" points="119.4,87.6 85.3,94.6 58.6,57.4 
										92.7,50.5 									"/>
								</defs>
								<clipPath id="SVGID_00000124878845870467128980000001168795579780254344_">
									<use xlink:href="#SVGID_00000049905702847924554060000013065813885968415878_"  style="overflow:visible;"/>
								</clipPath>
								<g style="clip-path:url(#SVGID_00000124878845870467128980000001168795579780254344_);">
									<line class="st12" x1="100.7" y1="52.2" x2="52.5" y2="62"/>
									<line class="st12" x1="103.6" y1="56.5" x2="55.4" y2="66.3"/>
									<line class="st12" x1="106.5" y1="60.8" x2="58.3" y2="70.6"/>
									<line class="st12" x1="109.5" y1="65.2" x2="61.2" y2="75"/>
									<line class="st12" x1="112.4" y1="69.5" x2="64.1" y2="79.3"/>
									<line class="st12" x1="115.3" y1="73.8" x2="67" y2="83.6"/>
									<line class="st12" x1="118.2" y1="78.2" x2="70" y2="87.9"/>
									<line class="st12" x1="115.5" y1="83.6" x2="100.2" y2="86.7"/>
								</g>
							</g>
						</g>
					</g>
					<path class="st13" d="M119.6,68.5c-1-0.3-2.5-1.2-4.3-1.8c-2.8-0.9-3.7-0.6-6.5-1.4c-0.3-0.1-0.5-0.2-0.8,0
						c-0.3,0.1-0.4,0.4-0.5,0.7c-0.4,1.6,1,3,2.3,3.9c1.4,0.9,3.7,1.7,5,2.6c2.6,1.7,3.6,4.7,5.2,7.2c1.9,2.9,5.1,4.6,8.5,4.6"/>
					<path class="st13" d="M70.8,91.7c0.7-2,0.4-4.3,0.6-7c0.1-2.1,0.2-4.2,0.1-6.4c0-0.3,0-0.6,0.1-0.9c0.4-1,2-0.7,2.6-0.3
						c2.6,1.7,2.3,8,3.2,11.6c0.2,0.9,0.5,1.7,0.9,2.5c0.5,1,1.2,1.9,1.8,2.7c1.2,1.6,2.6,3.4,3.2,5.3c0.6,2,0.5,5,0.5,7"/>
				</g>
				<g>
					<path class="st7" d="M179.4,77.6c2,2.4,3.6,6.5,4.6,9.5c1.2,3.9,1.1,8.1,1.2,12.2c0.1,6.1-0.3,12.2-0.5,18.3
						c-0.3,8.6-0.7,17.3-2.3,25.8c-1.3,7-3.5,20.7-12.9,20.9c-7.6,0.1-14.7-4.4-19.5-10.2c-4.9-5.8-7.9-13-10.8-20
						c-3.3-7.8-6.5-15.6-9.8-23.5l15.6-15.8l21.6,36.6"/>
					<path class="st14" d="M125.4,82.9c0,0,2.4-5.2,3.1-6.2c1.6-2,10.4-6.2,17.8-8.2c5.6-1.5,13.5-1.1,14.5-0.3
						c1,0.8,2.6,6.8,2.6,6.8L125.4,82.9z"/>
					<path class="st7" d="M154.4,183.2c0.1,0.4,2.3,10.9,3.7,17.5c10-1.8,17.3-3.8,17.3-3.8s-1-13-1.8-20.3c-0.8-6.9-2.5-16-1.7-23
						c1.7-13.2,5.5-36.7,5.5-36.7s4.8-12.7,5.4-22.1c0.4-7.1-0.3-11.3-2.2-15.3c-3.7-7.9-13.8-7.6-19.1-7.1C156,73,140,77,140,77
						s-36,52.1-37,66.3c-1,14.2-5.2,48.8-5.2,48.8s11.5,10.2,29.5,11.1c7.9,0.4,16.7-0.4,24.5-1.5
						C152.5,195.9,154.3,182.8,154.4,183.2z"/>
					<path class="st15" d="M182,98.6c-0.9,7-3.1,12.7-4.9,19.5c0,0-5.2,31.8-5.3,36.2c-0.1,4.4,0.2,9.9,0.2,9.9"/>
					<polyline class="st14" points="77.6,126.5 73.7,114.9 94.8,105.8 102.6,122 					"/>
					<g>
						<path class="st7" d="M112.3,135.9L97,109.3l-22.3,10.2c0,0,12.4,39,20.5,49.7c5.7,7.6,17.5,8.2,25.4-7.9
							c7.9-16.1,15.7-50.1,15.7-50.1l15.6-36.8c-3.5,0.8-7.1,1.5-10.6,2.3c-2.2,0.5-4.3,0.9-6.4,1.5c-5.5,1.5-10.9,3.8-16,6.4
							c-1.7,0.8-3.3,1.7-4.8,2.9c-1.9,1.5-3.5,3.4-4.9,5.4c-6.4,8.9-16.1,47.6-16.1,47.6"/>
						<path class="st15" d="M95.2,169.2c5.7,7.6,17.5,8.2,25.4-7.9c7.9-16.1,15.7-50.1,15.7-50.1"/>
						<path class="st15" d="M100.2,114.9c0,0-4.9,21.2-5.6,24.2c-0.8,3-2,10.5-0.7,13.5"/>
					</g>
					<path class="st15" d="M133.4,122.8c2.2-2.6,4.1-5.4,5.7-8.3"/>
					<line class="st15" x1="80.7" y1="116.8" x2="85.7" y2="128.6"/>
					<path class="st16" d="M80.5,120.7c0.2,0.5-0.1,1.1-0.8,1.4c-0.7,0.3-1.4,0.2-1.6-0.3c-0.2-0.5,0.1-1.1,0.8-1.4
						C79.6,120,80.3,120.2,80.5,120.7z"/>
					
						<ellipse transform="matrix(0.9036 -0.4283 0.4283 0.9036 -46.1303 46.8863)" class="st16" cx="81.1" cy="126" rx="1.3" ry="1"/>
					<path class="st15" d="M113.4,88c4.3-1.3,8-1.5,12.6,1.4c4,2.5,10.8,11.8,10.2,21.9"/>
				</g>
			</g>
		</g>
	</g>
	<g>
		<circle class="st17" cx="110.1" cy="43.6" r="1.7"/>
		<circle class="st17" cx="121.6" cy="131.8" r="1.7"/>
		<path class="st17" d="M155.2,93.7c0,0.9-0.8,1.7-1.7,1.7c-0.9,0-1.7-0.8-1.7-1.7c0-0.9,0.8-1.7,1.7-1.7
			C154.5,92,155.2,92.8,155.2,93.7z"/>
		<circle class="st17" cx="56.9" cy="116.3" r="2.9"/>
		<ellipse class="st18" cx="177.5" cy="51.7" rx="2.9" ry="2.9"/>
		<path class="st17" d="M71,37.4c0,0.9-0.8,1.7-1.7,1.7s-1.7-0.8-1.7-1.7s0.8-1.7,1.7-1.7C70.3,35.7,71,36.5,71,37.4z"/>
		<path class="st17" d="M63.8,104.9c0,0.9-0.8,1.7-1.7,1.7c-0.9,0-1.7-0.8-1.7-1.7c0-0.9,0.8-1.7,1.7-1.7
			C63,103.2,63.8,104,63.8,104.9z"/>
		<path class="st17" d="M171.3,62.4c0,0.9-0.8,1.7-1.7,1.7c-0.9,0-1.7-0.8-1.7-1.7c0-0.9,0.8-1.7,1.7-1.7
			C170.5,60.7,171.3,61.4,171.3,62.4z"/>
		<circle class="st17" cx="100.3" cy="11.1" r="3.3"/>
		<g>
			<line class="st19" x1="113.7" y1="17.5" x2="115.4" y2="15.8"/>
			<line class="st19" x1="110.9" y1="20.3" x2="112.5" y2="18.6"/>
			<line class="st19" x1="113.7" y1="18.6" x2="115.4" y2="20.3"/>
			<line class="st19" x1="110.9" y1="15.8" x2="112.5" y2="17.5"/>
		</g>
		<g>
			<line class="st19" x1="177.5" y1="69.2" x2="179.2" y2="67.6"/>
			<line class="st19" x1="174.6" y1="72.1" x2="176.3" y2="70.4"/>
			<line class="st19" x1="177.5" y1="70.4" x2="179.2" y2="72.1"/>
			<line class="st19" x1="174.6" y1="67.6" x2="176.3" y2="69.2"/>
		</g>
		<g>
			<line class="st19" x1="60.4" y1="87.5" x2="61.6" y2="86.2"/>
			<line class="st19" x1="58.2" y1="89.6" x2="59.5" y2="88.3"/>
			<line class="st19" x1="60.4" y1="88.3" x2="61.6" y2="89.6"/>
			<line class="st19" x1="58.2" y1="86.2" x2="59.5" y2="87.5"/>
		</g>
		<g>
			<line class="st19" x1="108.8" y1="117.8" x2="110.9" y2="115.7"/>
			<line class="st19" x1="105.3" y1="121.3" x2="107.3" y2="119.2"/>
			<line class="st19" x1="108.8" y1="119.2" x2="110.9" y2="121.3"/>
			<line class="st19" x1="105.3" y1="115.7" x2="107.3" y2="117.8"/>
		</g>
		<g>
			<line class="st19" x1="167.9" y1="107.8" x2="169.1" y2="106.6"/>
			<line class="st19" x1="165.8" y1="110" x2="167" y2="108.7"/>
			<line class="st19" x1="167.9" y1="108.7" x2="169.1" y2="110"/>
			<line class="st19" x1="165.8" y1="106.6" x2="167" y2="107.8"/>
		</g>
	</g>
</g>
</svg>
