<?xml version="1.0" encoding="utf-8"?>
<!-- Generator: Adobe Illustrator 25.4.1, SVG Export Plug-In . SVG Version: 6.00 Build 0)  -->
<svg version="1.1" id="Layer_1" xmlns="http://www.w3.org/2000/svg" xmlns:xlink="http://www.w3.org/1999/xlink" x="0px" y="0px"
	 viewBox="0 0 225 150" style="enable-background:new 0 0 225 150;" xml:space="preserve">
<style type="text/css">
	.st0{display:none;}
	.st1{display:inline;}
	.st2{fill:#407BFF;}
	.st3{opacity:0.9;fill:#FFFFFF;enable-background:new    ;}
	.st4{fill:none;stroke:#E0E0E0;stroke-width:8;stroke-linecap:round;stroke-linejoin:round;stroke-miterlimit:10;}
	.st5{fill:#E0E0E0;}
	.st6{fill:#EBEBEB;}
	.st7{fill:#E6E6E6;}
	.st8{enable-background:new    ;}
	.st9{fill:#F0F0F0;}
	.st10{opacity:0.6;fill:#FFFFFF;enable-background:new    ;}
	.st11{fill:#FFFFFF;}
	.st12{fill:#F5F5F5;}
	.st13{fill:#263238;}
	.st14{opacity:0.2;fill:#FFFFFF;enable-background:new    ;}
	.st15{fill:#EF7F1A;}
	.st16{fill:none;stroke:#FFFFFF;stroke-width:0.5;stroke-miterlimit:10;}
	.st17{fill:none;stroke:#263238;stroke-miterlimit:10;}
	.st18{opacity:0.3;fill:#FFFFFF;enable-background:new    ;}
	.st19{fill:#052669;}
	.st20{fill:none;stroke:#052669;stroke-linecap:round;stroke-linejoin:round;stroke-miterlimit:10;}
	.st21{fill:#FFB463;}
	.st22{opacity:0.7;fill:#FFFFFF;enable-background:new    ;}
	.st23{fill:#FFBCB4;}
	.st24{opacity:0.3;enable-background:new    ;}
	.st25{opacity:0.2;enable-background:new    ;}
	.st26{fill:#FF7168;}
	.st27{opacity:0.3;}
	.st28{fill:#FF3F3E;}
	.st29{fill:none;stroke:#052669;stroke-width:0.5;stroke-miterlimit:10;}
	.st30{opacity:0.4;fill:#FFFFFF;enable-background:new    ;}
	.st31{fill:#FF904B;}
	
		.st32{opacity:0.2;fill:none;stroke:#000000;stroke-width:0.5;stroke-linecap:round;stroke-linejoin:round;stroke-miterlimit:10;enable-background:new    ;}
</style>
<g id="Background_simple" class="st0">
	<g class="st1">
		<path class="st2" d="M9.4-137.8c-35.1,2.2-68.9,6.8-98.9,14c-35.4,8.5-71.5,21.8-60.8,39.1c19.7,32,114.2,32.6,95.4,54.1
			c-21.4,24.4-7,53,88.9,60.9C216.1,45.4,436.4-43,374.5-91.5C336-121.8,195.7-149.3,9.4-137.8z"/>
		<path class="st3" d="M9.4-137.8c-35.1,2.2-68.9,6.8-98.9,14c-35.4,8.5-71.5,21.8-60.8,39.1c19.7,32,114.2,32.6,95.4,54.1
			c-21.4,24.4-7,53,88.9,60.9C216.1,45.4,436.4-43,374.5-91.5C336-121.8,195.7-149.3,9.4-137.8z"/>
	</g>
</g>
<g>
	<g id="Background_complete">
		<path class="st4" d="M69.9,53c8.2-3.9,18.5-2.9,25.8,2.5"/>
		<polygon class="st5" points="95.8,52.7 93,56.7 97.8,57 		"/>
		<g>
			<path class="st4" d="M125.4,114.8c6.4,2.8,13.6,4.2,20.5,3.1c6.9-1.1,13.6-5,17.2-11"/>
			<polygon class="st5" points="160.7,106.4 164.5,109.2 165,104.9 			"/>
		</g>
		<g>
			<g>
				<g>
					<path class="st6" d="M26.6,103.3c0,0.1-0.2-0.1-0.1-0.7c0-0.4,0.1-0.8,0.2-1.2c0.4-1.4,0.2-2.3,0.6-3.7
						c0.7-2.6,2.2-5.9,4.7-7.5c0.8-0.5,2.2-0.8,2.8-0.1c0.5,0.6,0.2,1.4-0.1,2c-0.4,1-0.8,2.1-1.3,3.1c-0.7,1.6-1.3,3.3-2.4,4.8
						C29.9,101.5,28.4,102.8,26.6,103.3"/>
				</g>
				<g>
					<g>
						<path class="st5" d="M25.2,107.8c0.3-1.3,0.7-2.5,1.3-3.7c0.7-1.7,1.7-3.2,2.5-4.8c0.8-1.5,1.4-3,2-4.5c0.3-0.7,0.6-1.3,1-1.9
							c0.2-0.4,0.5-0.7,0.7-1c0.5-0.7,1-1.4,1.6-2.1c0.1-0.1-0.1-0.2-0.2-0.1c-0.5,0.6-1,1.3-1.4,1.9c-0.2,0.3-0.4,0.5-0.6,0.8
							c-0.4,0.6-0.7,1.2-0.9,1.8c-0.7,1.5-1.3,3.1-2,4.6c-0.8,1.6-1.8,3.1-2.6,4.8c-0.6,1.3-1.2,2.8-1.5,4.2
							C25,107.9,25.2,108,25.2,107.8L25.2,107.8z"/>
					</g>
				</g>
				<g>
					<path class="st6" d="M21.3,106.1c0.7-3,0.3-6.3-1.3-9c-1.6-2.7-4.2-4.9-7.4-6.1c-0.6-0.2-1.3-0.4-2-0.2
						c-0.7,0.3-1.1,0.9-1.1,1.6c0,0.7,0.2,1.3,0.5,1.9c0.9,1.8,2.2,3.5,3.4,5.1c1.2,1.6,2.5,3.2,3.7,4.8c0.4,0.5,0.8,1,1.4,1.4
						S20.7,106.5,21.3,106.1"/>
				</g>
				<g>
					<path class="st6" d="M24.4,98c0.8-0.8,1.4-3.6,1.4-4.1c-0.1-1.9,0.2-1.3,0.1-3.2c-0.1-3.6-1.4-8.3-4.1-11
						c-0.9-0.9-2.5-1.7-3.6-0.9c-0.8,0.6-0.7,1.7-0.6,2.7c0.2,1.5,0.4,2.9,0.6,4.4c0.3,2.3,0.7,4.7,1.6,6.8s2.4,4.2,4.6,5.4"/>
				</g>
				<g>
					<g>
						<path class="st5" d="M24.3,113.3c0.6-1.7-0.2-3.6-1.3-5c-1.2-1.6-2.8-2.9-3.8-4.7c-1-1.8-1.4-3.7-2.1-5.6
							c-0.5-1.3-1.4-2.4-2.4-3.4c-1.4-1.4-3-2.4-4.9-3c-0.1,0-0.2,0.2-0.1,0.2c1.7,0.5,3.2,1.5,4.5,2.7c1,1,2,2.1,2.5,3.4
							c0.7,1.7,1.1,3.5,1.9,5.1c0.8,1.7,2.1,3,3.3,4.4c1.4,1.5,2.8,3.6,2.1,5.8C24,113.3,24.2,113.4,24.3,113.3L24.3,113.3z"/>
					</g>
				</g>
				<g>
					<g>
						<path class="st5" d="M26,113.8c-0.2-2.6-0.7-5.1-1-7.7c-0.2-1.4-0.3-2.7-0.4-4.1c-0.1-1.4,0-2.9-0.1-4.3
							c-0.1-2.8-0.5-5.6-1.1-8.3c-0.3-1.4-0.7-2.8-1.2-4.2c-0.4-1.2-0.9-2.5-1.5-3.7c-0.5-1.1-1.2-2.1-1.7-3.1
							c-0.1-0.1-0.3,0-0.2,0.1c0.5,1,1.1,2,1.6,3c0.5,0.9,0.9,1.9,1.2,2.9c0.5,1.3,0.9,2.7,1.3,4.1c0.7,2.7,1.2,5.6,1.3,8.4
							c0.1,1.4,0,2.9,0.1,4.3c0,1.3,0.2,2.7,0.3,4c0.3,2.9,0.8,5.7,1.1,8.6C25.8,113.9,26,113.9,26,113.8L26,113.8z"/>
					</g>
				</g>
			</g>
			<path class="st7" d="M18.6,107.4h12.3c0,0,0.9,2.1-0.9,2.6l-1.1,6.8h-8.5l-0.9-6.6C19.5,110.2,18.1,109.6,18.6,107.4z"/>
			<g class="st8">
				<path class="st5" d="M19.5,110.2c3.5,0,7.1-0.1,10.5-0.1l-0.1,0.7H19.5L19.5,110.2z"/>
			</g>
		</g>
		<rect x="18.1" y="37.3" class="st9" width="11.1" height="3.5"/>
		<rect x="50.7" y="14.2" class="st9" width="11.1" height="3.5"/>
		<rect x="120.3" y="14.2" class="st9" width="11.1" height="3.5"/>
		<g>
			<rect x="201.7" y="45.9" class="st9" width="11.1" height="3.5"/>
			<rect x="196.1" y="42.6" class="st6" width="11.1" height="3.5"/>
		</g>
		<rect x="170.9" y="111.5" class="st5" width="11.1" height="3.5"/>
		<rect x="128.4" y="74.7" class="st6" width="11.1" height="3.5"/>
		<rect x="133.4" y="71.2" class="st9" width="11.1" height="3.5"/>
		<rect x="30.4" y="68.1" class="st5" width="11.1" height="3.5"/>
		<rect x="70.3" y="87.3" class="st9" width="11.1" height="3.5"/>
		<g>
			<rect x="197.8" y="85.2" class="st6" width="11.1" height="3.5"/>
			<rect x="182.7" y="70.1" class="st9" width="11.1" height="3.5"/>
		</g>
		<g>
			<rect x="81.1" y="25.5" class="st6" width="11.1" height="3.5"/>
			<rect x="75.2" y="29" class="st9" width="11.8" height="3.5"/>
		</g>
		<rect x="143.9" y="30" class="st5" width="11.1" height="3.5"/>
		<rect x="149.1" y="33.1" class="st9" width="11.1" height="3.5"/>
		<g>
			<rect x="33.9" y="23.7" class="st5" width="21.7" height="34.6"/>
			<rect x="35.5" y="25.3" class="st10" width="18.5" height="31.3"/>
			<rect x="36.7" y="26.5" class="st11" width="16" height="29.1"/>
			<rect x="40.4" y="30.3" class="st7" width="8.9" height="21.1"/>
			<path class="st10" d="M37.7,27.1c0,0-0.3,21.1,0.1,21c0.4-0.1,11.4-20.8,11.5-21L37.7,27.1z"/>
		</g>
		<g>
			<rect x="170.3" y="24.4" class="st5" width="21.7" height="34.6"/>
			<rect x="172" y="26" class="st10" width="18.5" height="31.3"/>
			<rect x="173.2" y="27.1" class="st11" width="16" height="29.1"/>
			<rect x="176.9" y="30.9" class="st7" width="8.9" height="21.1"/>
			<path class="st10" d="M174.1,27.7c0,0-0.3,21.1,0.1,21c0.4-0.1,11.4-20.8,11.5-21L174.1,27.7z"/>
		</g>
		<g>
			<rect x="105.7" y="23.9" class="st5" width="21.7" height="34.6"/>
			<rect x="107.4" y="25.5" class="st10" width="18.5" height="31.3"/>
			<rect x="108.6" y="26.6" class="st11" width="16" height="29.1"/>
			<rect x="112.3" y="30.4" class="st7" width="8.9" height="21.1"/>
			<path class="st10" d="M109.5,27.3c0,0-0.3,21.1,0.1,21c0.4-0.1,11.4-20.8,11.5-21L109.5,27.3z"/>
		</g>
		<g>
			<g>
				<g>
					<g>
						<g>
							<g>
								<path class="st5" d="M202.1,98.4h-54.2c-1,0-1.8-0.8-1.8-1.8v-79c0-1,0.8-1.8,1.8-1.8h54.2c1,0,1.8,0.8,1.8,1.8v79
									C203.9,97.6,203.1,98.4,202.1,98.4z M147.9,16c-0.9,0-1.7,0.8-1.7,1.7v79c0,0.9,0.8,1.7,1.7,1.7h54.2c0.9,0,1.7-0.8,1.7-1.7
									v-79c0-0.9-0.8-1.7-1.7-1.7H147.9z"/>
							</g>
						</g>
						<g>
							<g>
								<path class="st5" d="M139.6,98.4H85.4c-1,0-1.8-0.8-1.8-1.8v-79c0-1,0.8-1.8,1.8-1.8h54.2c1,0,1.8,0.8,1.8,1.8v79
									C141.4,97.6,140.6,98.4,139.6,98.4z M85.4,16c-0.9,0-1.7,0.8-1.7,1.7v79c0,0.9,0.8,1.7,1.7,1.7h54.2c0.9,0,1.7-0.8,1.7-1.7
									v-79c0-0.9-0.8-1.7-1.7-1.7H85.4z"/>
							</g>
						</g>
					</g>
					<g>
						<g>
							<g>
								<path class="st5" d="M77.1,98.4H22.9c-1,0-1.8-0.8-1.8-1.8v-79c0-1,0.8-1.8,1.8-1.8h54.2c1,0,1.8,0.8,1.8,1.8v79
									C78.9,97.6,78.1,98.4,77.1,98.4z M22.9,16c-0.9,0-1.7,0.8-1.7,1.7v79c0,0.9,0.8,1.7,1.7,1.7h54.2c0.9,0,1.7-0.8,1.7-1.7v-79
									c0-0.9-0.8-1.7-1.7-1.7H22.9z"/>
							</g>
						</g>
					</g>
				</g>
				<g>
					<g>
						<rect y="116.7" class="st5" width="225" height="0"/>
					</g>
				</g>
			</g>
			<g>
				<rect x="196.1" y="125.5" class="st6" width="16.7" height="0.1"/>
				<rect x="148.5" y="126.9" class="st6" width="4.4" height="0.1"/>
				<rect x="12.2" y="121.7" class="st6" width="21.8" height="0.1"/>
				<rect x="38.5" y="121.7" class="st6" width="3.2" height="0.1"/>
				<rect x="52.1" y="123.8" class="st6" width="47.3" height="0.1"/>
			</g>
		</g>
	</g>
	<g id="Shadow">
		<g>
			<g>
				<path class="st12" d="M211.6,132.2c0,2-44.4,3.6-99.1,3.6s-99.1-1.6-99.1-3.6c0-2,44.4-3.6,99.1-3.6S211.6,130.2,211.6,132.2z"
					/>
			</g>
		</g>
	</g>
	<g id="Lines">
		<g>
			<g>
				<g>
					<path class="st13" d="M106.1,17.3c0.6,0.5,1.3,1,2,1.5c0.1,0.1,0.3-0.1,0.2-0.2c-0.6-0.5-1.3-1-2-1.5
						C106.2,17.1,106,17.2,106.1,17.3L106.1,17.3z"/>
				</g>
			</g>
			<g>
				<g>
					<path class="st13" d="M112.6,18.3c0-1.4,0-2.7,0-4.1c0-0.1-0.2-0.1-0.2,0c0,1.4,0,2.7,0,4.1C112.4,18.5,112.6,18.5,112.6,18.3
						L112.6,18.3z"/>
				</g>
			</g>
			<g>
				<g>
					<path class="st13" d="M116.9,19c0.6-0.6,1.2-1.2,1.7-1.8c0.1-0.1-0.1-0.3-0.2-0.2c-0.6,0.6-1.2,1.2-1.7,1.8
						C116.6,18.9,116.8,19.1,116.9,19L116.9,19z"/>
				</g>
			</g>
		</g>
	</g>
	<g id="Light_Bulb">
		<g>
			<g>
				<path class="st13" d="M107.6,42.6c0,0,0.6,2.5,1,2.9c0.4,0.5,7.6,0.4,7.9,0c0.3-0.4,0.9-2.9,0.9-2.9H107.6z"/>
				<path class="st14" d="M107.6,42.6c0,0,0.6,2.5,1,2.9c0.4,0.5,7.6,0.4,7.9,0c0.3-0.4,0.9-2.9,0.9-2.9H107.6z"/>
				<g>
					<g>
						<g>
							<path class="st15" d="M112.6,20c-5.3-0.1-9.6,4.2-9.7,9.4c0,2.9,1.2,5.6,3.4,7.4c0.4,0.3,1,0.7,1,1.6c0,0,0,2.1,0,2.1h10.1
								c0,0,0-2.1,0-2.2c0-0.7,0.6-1.1,1-1.4c2.2-1.8,3.5-4.5,3.6-7.3C122.1,24.4,117.9,20.1,112.6,20z"/>
							<path class="st14" d="M117.4,24.1c0,1.9-2.2,3.4-4.9,3.4c-2.7,0-4.9-1.5-4.9-3.4c0-1.9,2.2-3.4,4.9-3.4
								C115.2,20.8,117.4,22.3,117.4,24.1z"/>
						</g>
						<path class="st16" d="M105.2,33.2c-0.8-1.4-1.2-3.1-0.9-4.8c0.2-1.6,1.1-3.2,2.3-4.3"/>
						<path class="st17" d="M110.4,38.5c0.7-2.5,0.9-5.2,0.4-7.8c-0.1-0.4-0.3-0.9-0.6-0.9c-0.3,0-0.6,0.4-0.6,0.8
							c-0.3,1.3,0.4,2.6,1.3,3.6c0.5,0.5,1,0.9,1.7,1c0.6,0,1.3-0.3,1.7-0.9c0.9-1,1.3-2.5,1-3.8c-0.1-0.6-0.5-1.2-1-1.1
							c-0.3,0.1-0.5,0.4-0.6,0.7c-0.1,0.3,0,0.7,0,1.1c0.3,2.5,0.9,5,1.8,7.4"/>
					</g>
				</g>
				<path class="st13" d="M118.1,41.1h-11.4c-0.3,0-0.5-0.2-0.5-0.5v-0.3c0-0.3,0.2-0.5,0.5-0.5h11.4c0.3,0,0.5,0.2,0.5,0.5v0.3
					C118.6,40.9,118.4,41.1,118.1,41.1z"/>
				<path class="st18" d="M118.1,41.1h-11.4c-0.3,0-0.5-0.2-0.5-0.5v-0.3c0-0.3,0.2-0.5,0.5-0.5h11.4c0.3,0,0.5,0.2,0.5,0.5v0.3
					C118.6,40.9,118.4,41.1,118.1,41.1z"/>
				<path class="st13" d="M117.9,42.2h-11c-0.3,0-0.5-0.2-0.5-0.5v-0.2c0-0.3,0.2-0.5,0.5-0.5h11c0.3,0,0.5,0.2,0.5,0.5v0.2
					C118.4,42,118.2,42.2,117.9,42.2z"/>
				<path class="st18" d="M117.9,42.2h-11c-0.3,0-0.5-0.2-0.5-0.5v-0.2c0-0.3,0.2-0.5,0.5-0.5h11c0.3,0,0.5,0.2,0.5,0.5v0.2
					C118.4,42,118.2,42.2,117.9,42.2z"/>
				<path class="st13" d="M117.5,43.4h-9.9c-0.3,0-0.5-0.2-0.5-0.5v-0.2c0-0.3,0.2-0.5,0.5-0.5h9.9c0.3,0,0.5,0.2,0.5,0.5v0.2
					C117.9,43.2,117.7,43.4,117.5,43.4z"/>
				<path class="st18" d="M117.5,43.4h-9.9c-0.3,0-0.5-0.2-0.5-0.5v-0.2c0-0.3,0.2-0.5,0.5-0.5h9.9c0.3,0,0.5,0.2,0.5,0.5v0.2
					C117.9,43.2,117.7,43.4,117.5,43.4z"/>
			</g>
		</g>
	</g>
	<g id="Speech_Bubble_2">
		<g>
			<g>
				<g>
					<g>
						<path class="st19" d="M171.3,34.6c-2.9-2.2-7-1.5-9,1.5c-1.8,2.7-1.2,6.3,1.3,8.4c2.2,1.8,5.1,1.8,7.3,0.4l1.5,0.4
							c0.1,0,0.3-0.1,0.3-0.2l-0.2-1.7c0,0,0-0.1,0.1-0.1C174.6,40.6,174,36.7,171.3,34.6z"/>
					</g>
					<path class="st20" d="M160.3,39c-0.1-2,0.9-4.1,2.6-5.3"/>
					<path class="st20" d="M163.6,33.2c0.2-0.2,0.5-0.3,0.8-0.4"/>
				</g>
			</g>
			<g>
				<polygon class="st11" points="167.2,42.9 164,40.5 164.8,39.4 167,41 169.9,37.5 171,38.4 				"/>
			</g>
		</g>
	</g>
	<g id="Speech_Bubble_1">
		<g>
			<g>
				<g>
					<g>
						<path class="st19" d="M75.2,43.2c1.9-3.1,0.8-7.1-2.3-8.8c-2.8-1.5-6.4-0.7-8.2,2c-1.6,2.3-1.4,5.3,0.2,7.3l-0.3,1.5
							c0,0.2,0.1,0.3,0.3,0.3l1.6-0.3c0,0,0.1,0,0.1,0.1C69.5,47.1,73.4,46.2,75.2,43.2z"/>
					</g>
					<path class="st20" d="M69.8,32.7c2-0.3,4.2,0.5,5.5,2.1"/>
					<path class="st20" d="M75.9,35.5c0.2,0.2,0.4,0.5,0.5,0.8"/>
				</g>
			</g>
			<g>
				<polygon class="st11" points="69.5,42.9 66.3,40.5 67.2,39.4 69.3,41 72.3,37.5 73.3,38.4 				"/>
			</g>
		</g>
	</g>
	<g id="Gear">
		<path class="st19" d="M117.2,94.1c-0.6,0.1-1.1,0.3-1.6,0.5L115,94l-1.3,1.1l0.5,0.7c-0.3,0.4-0.6,0.9-0.7,1.5l-0.9,0l-0.1,1.7
			l0.9,0.1c0.1,0.6,0.3,1.1,0.5,1.6l-0.6,0.6l1.1,1.3l0.7-0.5c0.4,0.3,0.9,0.6,1.5,0.7l0,0.9l1.7,0.1l0.1-0.9
			c0.6-0.1,1.1-0.3,1.6-0.5l0.6,0.6l1.3-1.1l-0.5-0.7c0.3-0.4,0.6-0.9,0.7-1.5l0.9,0l0.1-1.7l-0.9-0.1c-0.1-0.6-0.3-1.1-0.5-1.6
			l0.6-0.6l-1.1-1.3l-0.7,0.5c-0.4-0.3-0.9-0.6-1.5-0.7l0-0.9l-1.7-0.1L117.2,94.1z M120.1,98.7c-0.1,1.2-1.2,2.2-2.4,2.1
			c-1.2-0.1-2.2-1.2-2.1-2.4c0.1-1.2,1.2-2.2,2.4-2.1C119.2,96.4,120.2,97.4,120.1,98.7z"/>
	</g>
	<g id="Character_2">
		<g>
			<path class="st21" d="M163.3,70.9c0,0-1.2-0.7-1.6-1.2c-0.4-0.5-0.5-0.5-0.5-0.5c0,0-1.6-0.1-1.8-0.2c-0.2-0.2-0.3-0.5-0.1-0.5
				c0.2,0,1.5,0.2,1.9,0.1s-0.2-0.2-1.1-0.3c-0.9-0.1-1.7-0.3-1.7-0.7c0.1-0.4,2.2,0.1,2.8,0.1c0.6,0-0.5-0.2-1.3-0.4
				c-0.8-0.3-1.5-0.4-1.3-0.8c0.2-0.5,2.8,0.6,3.2,0.4c0.4-0.1,0-0.4-0.4-0.7c-0.4-0.2-1.3-0.2-1.5-0.5c-0.2-0.3,0-0.5,0.3-0.5
				c0.3,0,1.8,0.3,2.1,0.6c0,0,0.2-0.4,0.4-0.3c0.2,0,0.3,0.9,0.6,1.2c0.2,0.3,1,2.4,1,2.4L163.3,70.9z"/>
			<path class="st19" d="M179.1,60.1c-2.1,2-4.7,10.1-4.6,10.4c0.1,0.3-10.1-2.2-10.1-2.2s-1.8,3-1,3.6s12.8,4.7,13.9,3.1
				c1-1.3,3.5-9.3,4.3-12.4L179.1,60.1z"/>
			<path class="st22" d="M179.1,60.1c-2.1,2-4.7,10.1-4.6,10.4c0.1,0.3-10.1-2.2-10.1-2.2s-1.8,3-1,3.6s12.8,4.7,13.9,3.1
				c1-1.3,3.5-9.3,4.3-12.4L179.1,60.1z"/>
		</g>
		<g>
			<g>
				<path class="st23" d="M183,81.8c0,0-0.5,14.8-0.3,24.5c1.4,7.7,11.9,20.9,10.9,23c0,0.5,2.3-1.1,2.7-1.4c0,0-2.3-14.8-7-22.9
					c2.6-9.8,0.9-23.6,0.9-23.6L183,81.8z"/>
				<path class="st24" d="M182.7,104.8c0,0,4.5,0.7,6.9-1.3l0.1-0.6l-7.1,1L182.7,104.8z"/>
				<path class="st23" d="M184.6,78.7c0,0,8.9,15.5,12.9,23.3c4.2,8.1,10.5,22,11.6,27.8c0.6,0.2,1.5-0.1,2.4-0.6
					c0,0-1.4-20.3-7.8-28.4c-3.9-20.8-10.6-24.3-10.6-24.3L184.6,78.7z"/>
				<polygon class="st24" points="196.7,100.6 197.3,101.7 203.2,98.7 203,97.8 				"/>
				<g>
					<path class="st13" d="M211.3,132.5h-0.6l-0.2-0.7l-1.8,0.8h-4.7c0,0-0.7-0.8,1.5-1.3c0.1,0,0.2-0.1,0.3-0.1
						c1.2-0.6,2.9-2.4,2.9-2.4h2.6c0.1,0.1,0.1,0.2,0.2,0.4C211.8,129.7,212.3,130.8,211.3,132.5z"/>
					<path class="st23" d="M211.6,129.1L211.6,129.1c-0.3-0.4-1.9,1.3-3,1.8c-1,0.5-2.1,0.7-2.6,0.2c1.2-0.6,3.1-3,3.1-3h2.1
						C211,128.2,211.5,128.9,211.6,129.1z"/>
				</g>
				<path class="st13" d="M196.6,132.1H196l-0.2-0.7l-1.8,0.8h-4.7c0,0-0.7-0.8,1.5-1.3c0.1,0,0.2-0.1,0.3-0.1
					c1.2-0.6,2.9-2.4,2.9-2.4h2.6c0.1,0.1,0.2,0.2,0.2,0.4C197.1,129.3,197.6,130.5,196.6,132.1z"/>
				<path class="st23" d="M196.8,128.7L196.8,128.7c-0.3-0.4-1.9,1.3-3,1.8c-1,0.5-2.1,0.7-2.6,0.2c1.2-0.6,3.1-3,3.1-3h2.1
					C196.3,127.8,196.7,128.5,196.8,128.7z"/>
				<path class="st13" d="M193.1,73.4l-0.1-0.7c-3.7,1.3-6.8,2.5-10.7,2.9l0.2,1.2c-0.2,2.2-0.1,20.4-0.1,27.1
					c5.3,0.1,14.2-2.8,21.2-6.3C203,94.6,199.2,76.1,193.1,73.4z"/>
				<g>
					<g>
						<path d="M193.1,83c-0.7,4.5-1.1,9-1.2,13.5c0,0.1,0.2,0.1,0.2,0c0.1-4.5,0.5-9,1.2-13.4C193.3,83,193.1,82.9,193.1,83
							L193.1,83z"/>
					</g>
				</g>
			</g>
			<g>
				<path class="st13" d="M186.9,56.5c-0.5-2.1-0.3-4.4-1-6.5c-0.6-1.8-1.8-3.5-3.4-4.4c-1.6-0.9-3.6-1-5.2-0.1
					c-1.1,0.3-2,1.3-2.5,2.3c-0.5,1.2-0.6,2.6-0.8,3.9c-0.2,1.3-0.4,2.7-1.1,3.8c-0.4,0.6-0.9,1-1.3,1.6c-0.4,0.5-0.7,1.2-0.7,1.9
					s0.5,1.4,1.2,1.4c0.6,0,1.2-0.4,1.8-0.2c0.5,0.1,0.7,0.6,1,1.1c0.8,1.2,2.2,1.9,3.7,2.1c1.4,0.2,2.9,0,4.3-0.3
					c0.9-0.2,1.9-0.4,2.7-0.9c0.8-0.5,1.5-1.2,1.8-2.2C187.6,58.8,187.1,57.6,186.9,56.5z"/>
			</g>
			<polygon class="st24" points="179.1,69.1 178.1,66.1 177.6,68.9 			"/>
			<path class="st19" d="M177.8,63c-0.1,2.4,0.6,4.6,1.3,6.1c0.9,2,2,8.7,3.6,8.5c1.4,0.2,6.9-2.2,10.4-4c1.5-1.2-3.1-3.2-3.1-12.9
				c0-1.7-1.7-4.1-3.4-3.7c-0.4,0.1-0.9,0.3-1.4,0.4c-1.7,0.5-3.4,1.2-5,1.9c-0.5,0.3,0.5-0.3,0,0C178.3,60.4,178,61.1,177.8,63z"/>
			<path class="st22" d="M177.8,63c-0.1,2.4,0.6,4.6,1.3,6.1c0.9,2,2,8.7,3.6,8.5c1.4,0.2,6.9-2.2,10.4-4c1.5-1.2-3.1-3.2-3.1-12.9
				c0-1.7-1.7-4.1-3.4-3.7c-0.4,0.1-0.9,0.3-1.4,0.4c-1.7,0.5-3.4,1.2-5,1.9c-0.5,0.3,0.5-0.3,0,0C178.3,60.4,178,61.1,177.8,63z"/>
			<path class="st23" d="M182.7,52.3c0.1,1.8,0.5,4.7,1.9,5.4c0,0-0.5,1.5-2.9,2.7c0,1,0,2,0.1,3c0,0-1.1-2-1-2.7
				c-2.8,0.7-1.1-1-1.1-1c1.7-1.1,1.3-2.4,0.6-3.6L182.7,52.3z"/>
			<path class="st25" d="M181.8,54.3l-1.2,2.4c0.2,0.3,0.3,0.8,0.3,0.8c0.6-0.4,1.4-1.5,1.3-2.3C182.1,54.8,182,54.5,181.8,54.3z"/>
			<path class="st23" d="M183.2,49.1c0.4,2.8,0.7,3.9-0.4,5.7c-1.6,2.7-5,2.8-6.2,0.2c-1.1-2.3-1.6-6.5,0.7-8.3
				c1.5-1.3,3.8-1,5.1,0.5C182.8,47.8,183.1,48.5,183.2,49.1z"/>
			<path class="st13" d="M180.3,48c2.1,1.3,2,10.4,4.9,9.2c2.9-1.2-1.9-10.8-4-11.1C179.1,45.8,180.3,48,180.3,48z"/>
			<path class="st13" d="M181.2,46.2c0.3,1.9,0.1,2.5-1.6,2.5c0.1-0.4,0.1-0.9-0.1-1.3c0,0.5-0.2,0.9-0.5,1.3c-0.5,0-1,0-1.5,0.1
				c0-0.3-0.1-0.5-0.2-0.8c0,0.3-0.1,0.7-0.3,0.9c-0.5,0.2-0.9,0.4-1.3,0.8C174.9,47.8,177.4,44.7,181.2,46.2z"/>
			<path class="st23" d="M184.1,51.1c-0.1,0.5-0.3,1-0.8,1.4c-0.5,0.4-1.1-0.2-1.1-1c0-0.7,0.2-1.7,0.8-1.8
				C183.7,49.6,184.2,50.3,184.1,51.1z"/>
			<g>
				<path class="st13" d="M179.4,51.1c0.1,0.3,0,0.5-0.2,0.6c-0.2,0.1-0.4-0.1-0.5-0.3c-0.1-0.3,0-0.5,0.2-0.6
					C179.1,50.7,179.3,50.8,179.4,51.1z"/>
				<path class="st13" d="M179.7,49.7c0,0-0.1,0-0.1,0c-0.5-0.3-1,0-1,0c-0.1,0-0.1,0-0.2,0c0-0.1,0-0.2,0.1-0.2c0,0,0.6-0.3,1.2,0
					C179.8,49.5,179.8,49.6,179.7,49.7C179.8,49.7,179.7,49.7,179.7,49.7z"/>
				<path class="st13" d="M175.5,50.5C175.4,50.5,175.4,50.5,175.5,50.5c-0.1-0.1-0.1-0.2-0.1-0.2c0.6-0.5,1.2-0.4,1.2-0.4
					c0.1,0,0.1,0.1,0.1,0.2c0,0.1-0.1,0.1-0.2,0.1c0,0-0.5-0.1-1,0.4C175.6,50.5,175.5,50.5,175.5,50.5z"/>
				<path class="st26" d="M177.4,51.3c0,0-0.1,1.1-0.4,1.9c-0.1,0.1,0,0.3,0.2,0.3c0.4,0,0.7-0.2,0.7-0.2L177.4,51.3z"/>
				<path class="st13" d="M179,50.7l-0.7,0.1C178.3,50.8,179.2,51.1,179,50.7z"/>
				<path class="st13" d="M176.9,51.7c0.1,0.3,0,0.5-0.2,0.6c-0.2,0.1-0.4-0.1-0.5-0.3c-0.1-0.3,0-0.5,0.2-0.6
					C176.7,51.3,176.9,51.4,176.9,51.7z"/>
				<path class="st13" d="M176.5,51.4l-0.7,0.1C175.8,51.4,176.4,51.7,176.5,51.4z"/>
				<g class="st27">
					<g>
						<path d="M183.1,50.3c0.2,0.1,0.3,0.3,0.3,0.6c0,0.3-0.1,0.6-0.2,0.8c0,0.1,0,0.1,0,0.2c0,0,0.1,0,0.2,0c0.1-0.3,0.3-0.6,0.3-1
							c0-0.3-0.2-0.6-0.4-0.7C183.1,50,183,50.2,183.1,50.3L183.1,50.3z"/>
					</g>
				</g>
			</g>
			<g>
				<path class="st13" d="M178.1,54.1c0.3,0.2,0.7,0.7,0.7,0.7c0.1,0,0.1-0.1,0.2-0.1c0.7-0.5,0.9-0.9,0.9-1.2
					c0-0.2-0.1-0.4-0.2-0.5c-0.1-0.1-0.2-0.2-0.2-0.2c-0.2,0.5-0.9,0.9-1.2,1.2C178.2,54.1,178.1,54.1,178.1,54.1z"/>
				<path class="st11" d="M178.4,54l0.2,0.2c0.7-0.4,1.1-0.8,1.1-1.2c-0.1-0.1-0.2-0.2-0.2-0.2C179.3,53.3,178.7,53.7,178.4,54z"/>
				<path class="st28" d="M179,54.8c0.7-0.5,0.9-0.9,0.9-1.2c-0.2,0.2-0.5,0.4-0.7,0.7C179.1,54.4,179,54.6,179,54.8z"/>
			</g>
			<path class="st24" d="M180.6,74l0.2,0.6c0,0,4.6,0.3,5.5-0.3c0.8-0.6,3.1-11.4,3.1-11.4s-4.2,9.9-4.4,10.1
				C184.7,73.3,180.6,74,180.6,74z"/>
			<g class="st27">
				<g>
					<path d="M177.4,45.7c-1.5,0.6-2.5,2-2.6,3.6c0,0.1,0.2,0.1,0.2,0c0.1-1.5,1-2.9,2.4-3.4C177.6,45.9,177.6,45.7,177.4,45.7
						L177.4,45.7z"/>
				</g>
			</g>
			<g>
				<path class="st15" d="M126.5,51.5c-2.9,1.9-5.4,4.4-7.3,7.2l-5.1-1.6l-4,9.4l4.7,2.5c-0.7,3.3-0.7,6.8-0.1,10.3l-4.7,2.4
					l3.8,9.5l5.1-1.5c1.9,2.9,4.4,5.4,7.2,7.3l-1.6,5.1l9.4,4l2.5-4.7c3.3,0.7,6.8,0.7,10.3,0.1l2.4,4.7l9.5-3.8l-1.5-5.1
					c2.9-1.9,5.4-4.4,7.3-7.2l5.1,1.6l4-9.4l-4.7-2.5c0.7-3.3,0.7-6.8,0.1-10.3l4.7-2.4l-3.8-9.5l-5.1,1.5c-1.9-2.9-4.4-5.4-7.2-7.3
					l1.6-5.1l-9.4-4l-2.5,4.7c-3.3-0.7-6.8-0.7-10.3-0.1l-2.4-4.7l-9.5,3.8L126.5,51.5z M154.7,69.2c2.9,7.1-0.6,15.2-7.7,18.1
					c-7.1,2.9-15.2-0.6-18.1-7.7c-2.9-7.1,0.6-15.2,7.7-18.1C143.8,58.7,151.9,62.1,154.7,69.2z"/>
				<g>
					<g class="st27">
						<path class="st11" d="M129.2,55.5c-0.3,1.5-0.6,3.2,0.1,4.6c0.9,1.7,2.7,2.4,4.6,2.9c0.8-0.6,1.7-1.1,2.7-1.4
							c2.2-0.9,4.6-1.2,6.8-0.9c-0.6-3.5,1.4-7.3,4-10c2.1-2.2,4.5-4,6.7-6.1l-4.4-1.8l-2.5,4.7c-3.3-0.7-6.8-0.7-10.3-0.1l-2.4-4.7
							l-0.4,0.2C131.9,46.7,130.2,51.1,129.2,55.5z"/>
					</g>
					<g class="st27">
						<path class="st11" d="M155.8,88.4c0.2-3.2,0-6.6-0.8-9.7c-1.2,3.8-4,7-8,8.6c0,0,0,0-0.1,0c-0.8,1.8-1.9,3.5-3.3,5
							c-4.6,4.8-11.7,6.7-16.9,10.8l7.2,3l2.5-4.7c3.3,0.7,6.8,0.7,10.3,0.1l2.4,4.7l2.3-0.9C153.6,99.8,155.4,94.2,155.8,88.4z"/>
					</g>
				</g>
			</g>
			<path class="st23" d="M172.4,70.9c0,0-1.2-0.7-1.6-1.2c-0.4-0.5-0.5-0.5-0.5-0.5c0,0-1.6-0.1-1.8-0.2c-0.2-0.2-0.3-0.5-0.1-0.5
				c0.2,0,1.5,0.2,1.9,0.1s-0.2-0.2-1.1-0.3c-0.9-0.1-1.7-0.3-1.7-0.7c0.1-0.4,2.2,0.1,2.8,0.1c0.6,0-0.5-0.2-1.3-0.4
				c-0.8-0.3-1.5-0.4-1.3-0.8c0.2-0.5,2.8,0.6,3.2,0.4c0.4-0.1,0-0.4-0.4-0.7c-0.4-0.2-1.3-0.2-1.5-0.5c-0.2-0.3,0-0.5,0.3-0.5
				c0.3,0,1.8,0.3,2.1,0.6c0,0,0.2-0.4,0.4-0.3c0.2,0,0.3,0.9,0.6,1.2c0.2,0.3,1,2.4,1,2.4L172.4,70.9z"/>
			<g>
				<path class="st19" d="M187.7,57.3c0.8,0.6,2.1,2.2,2.1,3.2c-0.2,3.1-3.2,12.1-4.1,13.4c-1.2,1.6-12.4-1.5-13.2-2
					c-0.8-0.5,1-3.6,1-3.6s8.9,1.1,8.8,0.8c-0.1-0.3,1.6-7.3,3.1-9.7C186.8,57.1,187,56.7,187.7,57.3
					C187.7,57.3,187.7,57.3,187.7,57.3z"/>
				<path class="st22" d="M187.7,57.3c0.8,0.6,2.1,2.2,2.1,3.2c-0.2,3.1-3.2,12.1-4.1,13.4c-1.2,1.6-12.4-1.5-13.2-2
					c-0.8-0.5,1-3.6,1-3.6s8.9,1.1,8.8,0.8c-0.1-0.3,1.6-7.3,3.1-9.7C186.8,57.1,187,56.7,187.7,57.3
					C187.7,57.3,187.7,57.3,187.7,57.3z"/>
				<g class="st27">
					<g>
						<path d="M182.4,69.2c0.5-2.2,1.1-4.4,1.8-6.5c0.3-0.9,0.6-1.9,1-2.8c0.2-0.5,0.5-1.2,0.9-1.6c0.1-0.1-0.1-0.3-0.2-0.2
							c-0.4,0.4-0.6,1-0.8,1.5c-0.4,0.9-0.7,1.9-1,2.8c-0.7,2.2-1.3,4.5-1.8,6.7C182.2,69.3,182.4,69.3,182.4,69.2L182.4,69.2z"/>
					</g>
				</g>
				<g class="st27">
					<g>
						<path d="M182.3,69.3c0.6,0.3,1,0.7,1.3,1.3c0,0.1,0.1,0.1,0.2,0c0.1,0,0.1-0.1,0-0.2c-0.3-0.6-0.7-1.1-1.3-1.4
							c-0.1,0-0.1,0-0.2,0C182.2,69.2,182.2,69.3,182.3,69.3L182.3,69.3z"/>
					</g>
				</g>
			</g>
			<g>
				<g>
					<path d="M172.3,72c0.7,0.3,1.5,0.6,2.3,0.8c1.1,0.4,2.3,0.7,3.4,0.9c0.1,0,0.2-0.2,0.1-0.2c-1.1-0.2-2.2-0.5-3.4-0.9
						c-0.8-0.2-1.6-0.5-2.3-0.8C172.3,71.7,172.2,71.9,172.3,72L172.3,72z"/>
				</g>
			</g>
		</g>
	</g>
	<g id="Character_1">
		<g>
			<g>
				<g>
					<g>
						<g>
							<g>
								<g>
									<polygon class="st13" points="25.5,123.4 24.9,128.3 27.9,128.4 31.3,121.1 									"/>
								</g>
							</g>
						</g>
					</g>
					<g>
						<g>
							<g>
								<g>
									<g>
										<g>
											<path class="st13" d="M25.2,127.8c0.4,0.4,1.3,0.4,1.7,0.1l0-0.6c0.1-0.5,0.3-0.7,0.8-0.6c0.3,0,0.6,0.4,0.8,0.8
												c0.4,0.8,0.8,1.2,0.8,1.2s2.3,1.2,3.1,1.5c0.5,0.2,1.2,0.4,1.5,1c0.1,0.2,0.2,0.3,0.3,0.6c0.1,0.2,0,0.6,0,0.6l-5.9-0.2
												c0,0-0.6-0.4-0.8-0.4c-0.5,0-0.7,0.4-0.7,0.4l-2.1,0c0,0,0-0.3-0.1-0.8l0,0c0-0.2,0-0.5-0.1-0.7c-0.1-1.1,0.1-2.5,0-2.8
												C24.5,127.2,25.2,127.8,25.2,127.8z"/>
											<g>
												<g>
													<g>
														<g>
															<path class="st19" d="M30.5,129.2C30.5,129.2,30.5,129.2,30.5,129.2c-0.2,0.1-0.4,0.2-0.4,0.3c0,0.1,0.1,0.2,0.1,0.1
																c0.1-0.1,0.2-0.2,0.3-0.3C30.6,129.3,30.6,129.3,30.5,129.2L30.5,129.2z"/>
														</g>
													</g>
												</g>
											</g>
											<g>
												<g>
													<g>
														<g>
															<path class="st19" d="M30.1,129C30.1,129,30,129,30.1,129c-0.2,0.1-0.4,0.2-0.4,0.3c0,0.1,0.1,0.2,0.1,0.1
																c0.1-0.1,0.2-0.2,0.3-0.3C30.1,129.1,30.1,129,30.1,129L30.1,129z"/>
														</g>
													</g>
												</g>
											</g>
											<g>
												<g>
													<g>
														<g>
															<path class="st19" d="M29.6,128.7C29.6,128.7,29.6,128.7,29.6,128.7c-0.2,0.1-0.4,0.2-0.4,0.3c0,0.1,0.1,0.2,0.1,0.1
																c0.1-0.1,0.2-0.2,0.3-0.3C29.6,128.8,29.7,128.8,29.6,128.7L29.6,128.7z"/>
														</g>
													</g>
												</g>
											</g>
										</g>
									</g>
								</g>
							</g>
						</g>
					</g>
					<path class="st14" d="M34.1,131.4c0,0.1,0.1,0.2,0.1,0.3c0.1,0.2,0,0.6,0,0.6l-5.9-0.2c0,0-0.6-0.4-0.8-0.4
						c-0.5,0-0.7,0.4-0.7,0.4l-2.1,0c0,0,0-0.3-0.1-0.8l0,0c0,0,0-0.1,0-0.1L34.1,131.4z"/>
					<path class="st29" d="M29.6,128.8c0-0.2,0-0.4,0-0.6s0.1-0.4,0.2-0.6c0.1-0.1,0.1-0.1,0.2-0.1c0.1,0,0.2,0.1,0.2,0.2
						c0.1,0.2,0,0.4-0.1,0.6C30.1,128.4,29.7,128.7,29.6,128.8"/>
					<path class="st29" d="M29.5,128.8c-0.1-0.2-0.1-0.4-0.3-0.6c-0.1-0.2-0.2-0.3-0.4-0.4c-0.1,0-0.2-0.1-0.3,0
						c-0.1,0.1-0.1,0.2-0.1,0.3c0,0.2,0.1,0.4,0.3,0.5C28.9,128.7,29.4,128.8,29.5,128.8"/>
				</g>
				<g>
					<g>
						<g>
							<g>
								<g>
									<polygon class="st13" points="43.2,122.9 42.5,127.8 45.6,127.9 49,120.6 									"/>
								</g>
							</g>
						</g>
					</g>
					<g>
						<g>
							<g>
								<g>
									<g>
										<g>
											<path class="st13" d="M42.9,127.3c0.4,0.4,1.3,0.4,1.7,0.1l0-0.6c0.1-0.5,0.3-0.7,0.8-0.6c0.3,0,0.6,0.4,0.8,0.8
												c0.4,0.8,0.8,1.2,0.8,1.2s2.3,1.2,3.1,1.5c0.5,0.2,1.2,0.4,1.5,1c0.1,0.2,0.2,0.3,0.3,0.6c0.1,0.2,0,0.6,0,0.6l-5.9-0.2
												c0,0-0.6-0.4-0.8-0.4c-0.5,0-0.7,0.4-0.7,0.4l-2.1,0c0,0,0-0.3-0.1-0.8l0,0c0-0.2,0-0.5-0.1-0.7c-0.1-1.1,0.1-2.5,0-2.8
												C42.2,126.7,42.9,127.3,42.9,127.3z"/>
											<g>
												<g>
													<g>
														<g>
															<path class="st19" d="M48.2,128.7C48.2,128.7,48.2,128.7,48.2,128.7c-0.2,0.1-0.4,0.2-0.4,0.3c0,0.1,0.1,0.2,0.1,0.1
																c0.1-0.1,0.2-0.2,0.3-0.3C48.2,128.8,48.3,128.8,48.2,128.7C48.2,128.7,48.2,128.7,48.2,128.7z"/>
														</g>
													</g>
												</g>
											</g>
											<g>
												<g>
													<g>
														<g>
															<path class="st19" d="M47.8,128.5C47.7,128.5,47.7,128.5,47.8,128.5c-0.2,0.1-0.4,0.2-0.4,0.3c0,0.1,0.1,0.2,0.1,0.1
																c0.1-0.1,0.2-0.2,0.3-0.3C47.8,128.6,47.8,128.5,47.8,128.5C47.8,128.5,47.8,128.5,47.8,128.5z"/>
														</g>
													</g>
												</g>
											</g>
											<g>
												<g>
													<g>
														<g>
															<path class="st19" d="M47.3,128.2C47.3,128.2,47.2,128.2,47.3,128.2c-0.2,0.1-0.4,0.2-0.4,0.3c0,0.1,0.1,0.2,0.1,0.1
																c0.1-0.1,0.2-0.2,0.3-0.3C47.3,128.3,47.3,128.3,47.3,128.2L47.3,128.2z"/>
														</g>
													</g>
												</g>
											</g>
										</g>
									</g>
								</g>
							</g>
						</g>
					</g>
					<path class="st14" d="M51.7,130.9c0,0.1,0.1,0.2,0.1,0.3c0.1,0.2,0,0.6,0,0.6l-5.9-0.2c0,0-0.6-0.4-0.8-0.4
						c-0.5,0-0.7,0.4-0.7,0.4l-2.1,0c0,0,0-0.3-0.1-0.8l0,0c0,0,0-0.1,0-0.1L51.7,130.9z"/>
					<path class="st29" d="M47.3,128.3c0-0.2,0-0.4,0-0.6c0-0.2,0.1-0.4,0.2-0.6c0.1-0.1,0.1-0.1,0.2-0.1c0.1,0,0.2,0.1,0.2,0.2
						c0.1,0.2,0,0.4-0.1,0.6C47.8,127.9,47.4,128.2,47.3,128.3"/>
					<path class="st29" d="M47.2,128.3c-0.1-0.2-0.1-0.4-0.3-0.6c-0.1-0.2-0.2-0.3-0.4-0.4c-0.1,0-0.2-0.1-0.3,0
						c-0.1,0.1-0.1,0.2-0.1,0.3c0,0.2,0.1,0.4,0.3,0.5C46.6,128.2,47,128.3,47.2,128.3"/>
				</g>
				<path class="st13" d="M42.7,73.8c0,0-5,11.1-10.1,26.5c-5.3,16-8.9,26.2-8.9,26.2l6.1,0.7c0,0,10.3-24,11.4-27
					c1.1-3,6.4-14.7,6.4-14.7s2.4,17,1.7,19.1s-7.7,21.4-7.7,21.4l5.4,0.7c0,0,9.3-17.1,10.2-24.5s0.9-25.5,0.9-25.5L42.7,73.8z"/>
				<polygon class="st25" points="47.6,85.7 51.4,84.3 49,87.1 48.4,92.1 				"/>
			</g>
			<g>
				<path class="st19" d="M52.4,51.8c-0.3,0.2-6.8,3.8-6.8,3.8l-0.2,11.5c0,0-3.3,5.8-2.7,7.3c0.6,1.5,9,5.7,12.2,5.2
					c3.2-0.6,4.8-4.9,4.8-4.9s2.5-12.6,2.6-16.2c0.1-3.5-0.9-5.5-1-5.7c0-0.1-0.7-0.3-1.6-0.5c-1.7-0.5-4.2-1-4.2-1L52.4,51.8z"/>
				<path class="st22" d="M52.4,51.8c-0.3,0.2-6.8,3.8-6.8,3.8l-0.2,11.5c0,0-3.3,5.8-2.7,7.3c0.6,1.5,9,5.7,12.2,5.2
					c3.2-0.6,4.8-4.9,4.8-4.9s2.5-12.6,2.6-16.2c0.1-3.5-0.9-5.5-1-5.7c0-0.1-0.7-0.3-1.6-0.5c-1.7-0.5-4.2-1-4.2-1L52.4,51.8z"/>
				<path class="st19" d="M55.9,57.1c0,0,0.2,12.2-4.3,19.5L53,79l2.6-1.9c0,0,4.1-14.6,1.2-20.4l0.5-1.7l-0.9-0.2L55.7,55l-0.8,1
					L55.9,57.1z"/>
				<g>
					<path class="st25" d="M51,53.9c0.2,0.2,3.3,2.7,3.3,2.7l1.6-1.8c0,0-1.2,2.2-1.2,2.2l-0.5,0.2L51,53.9z"/>
					<path class="st25" d="M56,54.8l1.6,0.3c0,0,0.3-1.6,0.2-2c-0.1-0.4-0.2-1.1-0.2-1.1l0.2,0c0,0,0.4,1,0.3,1.9
						c-0.1,0.9-0.2,1.8-0.2,1.8L56,54.8z"/>
				</g>
				<path class="st25" d="M55.7,68.3c-3-6.7-6.8-10.1-6.8-10.1L55,69.2l5.2-1L55.7,68.3z"/>
			</g>
		</g>
		<path class="st19" d="M61.4,52.8c0,0,2.4-0.4,2.8,4c0.4,4.7,0.1,7.9,1.1,7.8c1-0.2,6.3-1.7,6.3-1.7l1.6,5.5c0,0-7.5,3.3-10.7,2.8
			c-3.2-0.5-2.9-6.1-2.9-6.1L61.4,52.8z"/>
		<path class="st22" d="M61.4,52.8c0,0,2.4-0.4,2.8,4c0.4,4.7,0.1,7.9,1.1,7.8c1-0.2,6.3-1.7,6.3-1.7l1.6,5.5c0,0-7.5,3.3-10.7,2.8
			c-3.2-0.5-2.9-6.1-2.9-6.1L61.4,52.8z"/>
		<g>
			<g>
				<path class="st13" d="M61,67.8c0.4-1.9,0.5-3.9,0.7-5.9c0.1-1.4,0.3-2.8,0.3-4.2c0-0.1-0.2-0.1-0.2,0c0,1.4-0.1,2.7-0.3,4.1
					c-0.2,2-0.3,4-0.7,5.9C60.7,67.9,61,67.9,61,67.8L61,67.8z"/>
			</g>
		</g>
		<g>
			<path class="st19" d="M68.8,68.4c-2.4,2-4.4,4.4-5.9,7l-4.6-1l-2.7,8.7l4.4,1.8c-0.3,3-0.1,6.1,0.8,9.1l-4,2.6l4.2,8.1l4.4-1.8
				c2,2.4,4.4,4.4,7,5.9l-1,4.6l8.7,2.7l1.8-4.4c3,0.3,6.1,0.1,9.1-0.8l2.6,4l8.1-4.2l-1.8-4.4c2.4-2,4.4-4.4,5.9-7l4.6,1l2.7-8.7
				l-4.4-1.8c0.3-3,0.1-6.1-0.8-9.1l4-2.6l-4.2-8.1l-4.4,1.8c-2-2.4-4.4-4.4-7-5.9l1-4.6l-8.7-2.7L86.8,63c-3-0.3-6.1-0.1-9.1,0.8
				l-2.6-4L67,64L68.8,68.4z M95.4,81.7c3.2,6.1,0.8,13.5-5.3,16.7c-6.1,3.2-13.5,0.8-16.7-5.3c-3.2-6.1-0.8-13.5,5.3-16.7
				C84.7,73.3,92.2,75.7,95.4,81.7z"/>
			<path class="st30" d="M68.8,68.4c-2.4,2-4.4,4.4-5.9,7l-4.6-1l-2.7,8.7l4.4,1.8c-0.3,3-0.1,6.1,0.8,9.1l-4,2.6l4.2,8.1l4.4-1.8
				c2,2.4,4.4,4.4,7,5.9l-1,4.6l8.7,2.7l1.8-4.4c3,0.3,6.1,0.1,9.1-0.8l2.6,4l8.1-4.2l-1.8-4.4c2.4-2,4.4-4.4,5.9-7l4.6,1l2.7-8.7
				l-4.4-1.8c0.3-3,0.1-6.1-0.8-9.1l4-2.6l-4.2-8.1l-4.4,1.8c-2-2.4-4.4-4.4-7-5.9l1-4.6l-8.7-2.7L86.8,63c-3-0.3-6.1-0.1-9.1,0.8
				l-2.6-4L67,64L68.8,68.4z M95.4,81.7c3.2,6.1,0.8,13.5-5.3,16.7c-6.1,3.2-13.5,0.8-16.7-5.3c-3.2-6.1-0.8-13.5,5.3-16.7
				C84.7,73.3,92.2,75.7,95.4,81.7z"/>
			<g>
				<g class="st27">
					<path class="st11" d="M92.1,77.8c2.9-3,6.2-5.5,9.9-7.5c-1.7-1.7-3.6-3.1-5.6-4.3l1-4.6l-2.2-0.7c0.5,1.8,0.9,3.6,0.9,5.5
						c0.1,2.4-0.5,4.9-2.1,6.8c-1.3,1.5-3.1,2.3-4.9,3.1C90.1,76.4,91.2,77,92.1,77.8z"/>
				</g>
				<g class="st27">
					<path class="st11" d="M85.9,112c-0.3-1-0.7-1.9-1.1-2.9c-1.2-3-1.8-6.1-1.9-9.3c-2-0.2-3.9-1-5.6-2.1c-1.1,2.5-2.9,4.7-5.1,6.5
						c-1.1,0.9-2.2,1.7-3.4,2.4c1.1,0.9,2.3,1.7,3.5,2.4l-1,4.6l8.7,2.7l1.8-4.4C83.2,112,84.6,112.1,85.9,112z"/>
				</g>
			</g>
		</g>
		<g>
			<path class="st21" d="M55.9,48.9l-4.5-2.4c0,0.3,0.1,0.9,0.3,1.3c1.7,3.2,0.7,4.6,0.7,4.6l3.4,2.3l0.9-2.2l0,0
				C56.3,51.7,55.9,49.9,55.9,48.9z"/>
			<path class="st25" d="M56.1,50.3l-2.5-0.4c0.3,0.8,1,1.6,2.8,1.6C56.3,51.5,56.1,50.6,56.1,50.3z"/>
			<path class="st13" d="M58.8,40.9c0.6,1,0.5,3.5-1.2,3.1C56,43.7,57.8,39.2,58.8,40.9z"/>
			<path class="st21" d="M51.2,44.3c0.5,2.7,0.7,4.3,2.2,5.5c6.7,4.1,8-8.3,2.6-9.9C53.2,39.2,50.8,41.6,51.2,44.3z"/>
			<path class="st13" d="M49.4,41.3c0,0,2.5-0.4,2.9-0.4c0.4,0,0.8,1.5,0.8,1.9c-0.1,0.5-0.7,0.7-0.7,1.2c0,0.4,0.7,1.5,0.4,2.1
				c-0.3,0.2-1.8-0.7-1.8-0.7l-0.9,0.3C50.3,45.8,47.8,42.5,49.4,41.3z"/>
			<path class="st13" d="M49.5,41.6c-0.3-0.2-0.5-0.6-0.2-1.4c0,0.2,0.3,0.4,0.4,0.5c0.2-0.6,1-1.7,3.3-2.2c2.8-0.6,3.6,0.3,4.4-0.1
				c0.8-0.4-0.2-0.7-0.2-0.7s1.4-0.3,1.9,0.7c0.5,1.1,0.1,3-2.4,2.8c-2.5-0.1-3,0.7-4.3,0.5C51.3,41.6,50.4,41.6,49.5,41.6z"/>
			<path class="st21" d="M50.4,46.7c0.5,1.4,3,2.2,2.7,0.1C52.9,44.7,49.8,44.2,50.4,46.7z"/>
			<path class="st13" d="M55.3,44.6c0.1,0.7,0.8,0.6,0.7-0.1C55.9,43.9,55.2,44,55.3,44.6z"/>
			<path class="st13" d="M58,44.5c0.1,0.7,0.8,0.6,0.7-0.1C58.7,43.7,58,43.8,58,44.5z"/>
			<path class="st31" d="M57.1,44.4c0,0,1,1.3,1.4,1.8c-0.4,0.4-1,0.3-1,0.3L57.1,44.4z"/>
			<path class="st13" d="M54.4,43.5c0,0,0.1,0,0.1,0c0.4-0.4,0.9-0.3,0.9-0.3c0.6-0.3-0.5-0.5-1.1,0.1
				C54.3,43.3,54.3,43.4,54.4,43.5z"/>
			<path class="st32" d="M50.9,45.9c0.5-0.6,1.3,0.1,1.3,0.7"/>
			<path class="st13" d="M59.1,43.1c0.1,0,0.1-0.2,0-0.2c-0.6-0.5-1.2-0.3-1.2-0.3c-0.2,0.1-0.1,0.3,0.1,0.3
				C58.2,42.8,58.7,42.9,59.1,43.1z"/>
			<path class="st13" d="M57.1,47.5c-0.3,0.3-0.5,0.6-0.7,1c-0.1,0-0.1-0.1-0.2-0.1c-0.9-0.4-1.2-0.8-1.2-1.2c0-0.2,0-0.4,0.1-0.6
				c0-0.1,0.1-0.2,0.1-0.3c0.4,0.5,1.1,0.9,1.6,1.1C57,47.4,57.1,47.5,57.1,47.5z"/>
			<path class="st11" d="M56.8,47.4l-0.2,0.3c-0.8-0.3-1.4-0.7-1.5-1c0-0.1,0.1-0.2,0.2-0.3C55.6,46.8,56.4,47.2,56.8,47.4z"/>
			<path class="st28" d="M56.2,48.4c-0.9-0.4-1.2-0.8-1.2-1.2c0.3,0.1,0.6,0.3,0.9,0.6C56.1,47.9,56.2,48.2,56.2,48.4z"/>
		</g>
		<g>
			<g>
				<g>
					<path class="st19" d="M102,107.2c1.4-1.4,2.7-2.8,3.9-4.5c0.2-0.2-0.2-0.5-0.4-0.2c-1.1,1.6-2.4,3-3.8,4.4
						C101.5,107.1,101.8,107.4,102,107.2L102,107.2z"/>
				</g>
			</g>
			<g>
				<g>
					<path class="st19" d="M106.4,102.1c0.2-0.2,0.3-0.5,0.5-0.7c0.1-0.1,0-0.3-0.1-0.3c-0.1-0.1-0.2,0-0.3,0.1
						c-0.2,0.2-0.3,0.5-0.5,0.7c-0.1,0.1,0,0.3,0.1,0.3C106.2,102.3,106.4,102.2,106.4,102.1L106.4,102.1z"/>
				</g>
			</g>
		</g>
		<g>
			<path class="st21" d="M66.7,70.2c0,0,1.4-1,1.8-1.7c0.4-0.7,0.5-0.6,0.5-0.6c0,0,1.9-0.3,2.1-0.6c0.2-0.2,0.2-0.6,0-0.6
				s-1.8,0.4-2.2,0.4c-0.4,0,0.2-0.3,1.3-0.5c1.1-0.3,2-0.6,1.9-1.2c-0.1-0.5-2.6,0.5-3.3,0.6c-0.7,0.1,0.6-0.3,1.5-0.7
				c0.9-0.5,1.7-0.7,1.4-1.2c-0.3-0.5-3.2,1.1-3.8,1c-0.5-0.1-0.1-0.5,0.4-0.9c0.5-0.4,1.5-0.5,1.6-0.9c0.1-0.4-0.1-0.5-0.5-0.5
				c-0.4,0-2.1,0.7-2.4,1.1c0,0-0.3-0.4-0.5-0.3s-0.3,1.2-0.5,1.6s-0.8,3-0.8,3L66.7,70.2z"/>
			<path class="st25" d="M44.6,57.1c-0.8,0.9-0.2,2.4,0,3.6c0.8,3.7,5.3,13.9,6.7,15.3c1.7,1.7,14.6-3.8,15.4-4.6
				c0.9-0.8-1.8-4.1-1.8-4.1S54.5,70,54.5,69.7c0.1-0.3-3.2-7.3-5.3-10C47.1,57.1,45.4,56.2,44.6,57.1
				C44.6,57.1,44.6,57.1,44.6,57.1z"/>
			<path class="st19" d="M65.5,66.7c0,0-10.5,2.8-10.4,2.5c0.1-0.3-3.2-7.3-5.3-10c-2.1-2.6-4.1-3.7-4.1-3.7
				c-1.4,0.9-2.3,2.6-1.3,4.9c1.4,3.6,6.2,13,7.5,14.5c1.7,1.7,14.6-3.3,15.5-4.1C68.1,70,65.5,66.7,65.5,66.7z"/>
			<path class="st22" d="M65.5,66.7c0,0-10.5,2.8-10.4,2.5c0.1-0.3-3.2-7.3-5.3-10c-2.1-2.6-4.1-3.7-4.1-3.7
				c-1.4,0.9-2.3,2.6-1.3,4.9c1.4,3.6,6.2,13,7.5,14.5c1.7,1.7,14.6-3.3,15.5-4.1C68.1,70,65.5,66.7,65.5,66.7z"/>
		</g>
	</g>
</g>
</svg>
