<?xml version="1.0" encoding="utf-8"?>
<!-- Generator: Adobe Illustrator 25.4.1, SVG Export Plug-In . SVG Version: 6.00 Build 0)  -->
<svg version="1.1" id="Layer_1" xmlns="http://www.w3.org/2000/svg" xmlns:xlink="http://www.w3.org/1999/xlink" x="0px" y="0px"
	 viewBox="0 0 225 150" style="enable-background:new 0 0 225 150;" xml:space="preserve">
<style type="text/css">
	.st0{fill:#EF7F1A;}
	.st1{opacity:0.7;}
	.st2{fill:#FFFFFF;}
	.st3{opacity:0.5;fill:#FFFFFF;enable-background:new    ;}
	.st4{fill:#FFFFFF;stroke:#2E3425;stroke-width:0.75;stroke-linecap:round;stroke-linejoin:round;stroke-miterlimit:10;}
	.st5{fill:none;stroke:#2E3425;stroke-width:0.75;stroke-linecap:round;stroke-linejoin:round;stroke-miterlimit:10;}
	.st6{fill:#2E3425;stroke:#2E3425;stroke-width:0.75;stroke-linecap:round;stroke-linejoin:round;stroke-miterlimit:10;}
	.st7{fill:none;stroke:#FFFFFF;stroke-width:0.75;stroke-linecap:round;stroke-linejoin:round;stroke-miterlimit:10;}
	.st8{fill:#052669;stroke:#2E3425;stroke-width:0.75;stroke-linecap:round;stroke-linejoin:round;stroke-miterlimit:10;}
</style>
<g>
	<g id="Background_Simple">
		<g>
			<g>
				<path class="st0" d="M129.4,15.1V5.8c-7.2,1.8-13.7,4.9-20.2,9.3H129.4z"/>
				<rect x="132.2" y="18.5" class="st0" width="49.4" height="61.3"/>
				<path class="st0" d="M129.4,18.5h-24.8c-5.5,4.1-11.2,8.3-17.9,10.7c-2.2,0.8-4.5,1.5-6.7,2.2v48.4h49.4V18.5z"/>
				<path class="st0" d="M191.3,28.3c-1.9-3.4-4.2-6.5-7-9.1v60.6h5.1C197.2,64.1,199.8,43.7,191.3,28.3z"/>
				<path class="st0" d="M77.2,32.2c-2.7,0.7-5.4,1.4-8.1,2.2c-21.2,5.7-34.4,24.8-32,45.4h40.1V32.2z"/>
				<path class="st0" d="M184.4,83.1v5c0.6-0.8,1.2-1.7,1.8-2.6c0.5-0.8,1-1.6,1.5-2.5H184.4z"/>
				<path class="st0" d="M181.6,83.1h-49.4V109c4.1,0.1,8.2,0.4,12.3-0.1c13.6-1.5,27.6-7.1,37-17.3L181.6,83.1L181.6,83.1z"/>
				<path class="st0" d="M132.2,15.1h47.5C170,8,157.5,4.4,145.7,4.1c-4.8-0.1-9.3,0.3-13.5,1.1V15.1z"/>
				<path class="st0" d="M129.4,83.1H80v36.8c8.6,0.2,17.2-2.3,25.3-5.1c6.4-2.2,13-4.5,19.8-5.5c1.5-0.2,2.9-0.3,4.3-0.4
					L129.4,83.1L129.4,83.1z"/>
				<path class="st0" d="M77.2,83.1H37.7c3.1,15.1,15.1,28.9,30.3,34.6c3.1,1.1,6.2,1.8,9.3,2.1V83.1z"/>
			</g>
			<g class="st1">
				<path class="st2" d="M129.4,15.1V5.8c-7.2,1.8-13.7,4.9-20.2,9.3H129.4z"/>
				<rect x="132.2" y="18.5" class="st2" width="49.4" height="61.3"/>
				<path class="st2" d="M129.4,18.5h-24.8c-5.5,4.1-11.2,8.3-17.9,10.7c-2.2,0.8-4.5,1.5-6.7,2.2v48.4h49.4V18.5z"/>
				<path class="st2" d="M191.3,28.3c-1.9-3.4-4.2-6.5-7-9.1v60.6h5.1C197.2,64.1,199.8,43.7,191.3,28.3z"/>
				<path class="st2" d="M77.2,32.2c-2.7,0.7-5.4,1.4-8.1,2.2c-21.2,5.7-34.4,24.8-32,45.4h40.1V32.2z"/>
				<path class="st2" d="M184.4,83.1v5c0.6-0.8,1.2-1.7,1.8-2.6c0.5-0.8,1-1.6,1.5-2.5H184.4z"/>
				<path class="st2" d="M181.6,83.1h-49.4V109c4.1,0.1,8.2,0.4,12.3-0.1c13.6-1.5,27.6-7.1,37-17.3L181.6,83.1L181.6,83.1z"/>
				<path class="st2" d="M132.2,15.1h47.5C170,8,157.5,4.4,145.7,4.1c-4.8-0.1-9.3,0.3-13.5,1.1V15.1z"/>
				<path class="st2" d="M129.4,83.1H80v36.8c8.6,0.2,17.2-2.3,25.3-5.1c6.4-2.2,13-4.5,19.8-5.5c1.5-0.2,2.9-0.3,4.3-0.4
					L129.4,83.1L129.4,83.1z"/>
				<path class="st2" d="M77.2,83.1H37.7c3.1,15.1,15.1,28.9,30.3,34.6c3.1,1.1,6.2,1.8,9.3,2.1V83.1z"/>
			</g>
		</g>
	</g>
	<g id="Desk">
		<g>
			<polygon class="st0" points="191.2,93.4 189.4,93.4 106.8,93.4 104.9,93.4 104.9,97.1 106.8,97.1 106.8,134.3 189.4,134.3 
				189.4,97.1 191.2,97.1 			"/>
			<polygon class="st3" points="191.2,93.4 189.4,93.4 106.8,93.4 104.9,93.4 104.9,97.1 106.8,97.1 106.8,134.3 189.4,134.3 
				189.4,97.1 191.2,97.1 			"/>
			<g>
				<path class="st2" d="M109,112.9h22.5v-12H109L109,112.9L109,112.9z M109.4,101.3h21.6v11.1h-21.6L109.4,101.3L109.4,101.3z"/>
				<path class="st2" d="M137,112.9h22.5v-12H137V112.9z M137.4,101.3h21.6v11.1h-21.6V101.3z"/>
				<path class="st2" d="M165,100.8v12h22.5v-12H165z M187,112.4h-21.6v-11.1H187V112.4z"/>
				<path class="st2" d="M109,129h22.5v-12H109L109,129L109,129z M109.4,117.4h21.6v11.1h-21.6L109.4,117.4L109.4,117.4z"/>
				<path class="st2" d="M137,129h22.5v-12H137V129z M137.4,117.4h21.6v11.1h-21.6V117.4z"/>
				<path class="st2" d="M165,129h22.5v-12H165V129z M165.4,117.4H187v11.1h-21.6V117.4z"/>
				<ellipse class="st2" cx="120.5" cy="107" rx="3.7" ry="1.4"/>
				<ellipse class="st2" cx="148.3" cy="107" rx="3.7" ry="1.4"/>
				<ellipse class="st2" cx="177" cy="107" rx="3.7" ry="1.4"/>
				<path class="st2" d="M120.5,121.8c-2,0-3.7,0.6-3.7,1.4c0,0.8,1.6,1.4,3.7,1.4c2,0,3.7-0.6,3.7-1.4
					C124.1,122.4,122.5,121.8,120.5,121.8z"/>
				<path class="st2" d="M148.3,121.8c-2,0-3.7,0.6-3.7,1.4c0,0.8,1.6,1.4,3.7,1.4c2,0,3.7-0.6,3.7-1.4
					C152,122.4,150.4,121.8,148.3,121.8z"/>
				<path class="st2" d="M177,121.8c-2,0-3.7,0.6-3.7,1.4c0,0.8,1.6,1.4,3.7,1.4s3.7-0.6,3.7-1.4C180.7,122.4,179,121.8,177,121.8z"
					/>
			</g>
		</g>
	</g>
	<g id="Plants">
		<g>
			<path class="st0" d="M73.5,90.2c-1.7,2.5-4,5.7-5.2,8.3c0.5-1.7,0.9-3.3,1.4-4.8c0.6-1.2,2.3-4.4,4.3-6.5
				c2.5-2.7,3.6-4.4,2.2-4.5c-0.9-0.1-3.6,3.5-5.4,7.1c0.4-1.2,0.7-2.2,0.8-2.7c0.1-0.3,0.2-0.5,0.2-0.8c0.9-1.2,2.9-4.2,4.8-7.7
				c2.5-4.7,3.3-9.1,1.6-7.2c-1.5,1.8-4.2,10.5-6.4,14.6c0.2-0.7,0.3-1.5,0.5-2.3c0.3-0.7,0.7-1.5,0.9-2.2c0.3-1.1,0.7-2.1,0.9-3.2
				c0.4-1.7,0.6-3.4,0.6-5.2c0-2.1-0.5-4.1-1.6-5.8c-0.3-0.4-2.1-3.1-2.6-1.7c-0.1,0.2-0.1,0.5,0,0.7c0.3,2.2,1.1,4.3,1.6,6.5
				c0.8,3.3,0.3,8.8,0,11.1c-0.1,0.4-0.2,0.8-0.4,1.4c0.4-4.1-1.4-8.9-3.1-9.8c-2-1,0,3.1,1.5,6.6c1,2.3,1.1,4.1,1,5
				c-0.3,1.2-0.7,2.5-1.1,3.8c-0.1,0.2-0.1,0.4-0.2,0.5c0.2-0.9,0.3-1.8,0.2-2.7c-0.2-2.3-2.8-7-4.6-6.4c-1.8,0.7,1.2,3.1,2.8,6
				c1.1,2,1.1,4,0.9,5.2c0,0.1,0,0.2,0,0.3c-0.2,0.6-0.4,1.2-0.5,1.8c-0.4,1.3-0.8,2.5-1.2,3.7c0.3-1.5,0.7-3.5,0.6-5.3
				c-0.2-3.4-2.2-6.7-3.9-7.1c-1.7-0.4,1.5,5.1,2.6,8.3c0.8,2.4,0.5,4.7,0.3,5.7c-0.5,1.7-1,3.4-1.5,5.2c0.2-2,0.1-4.5-0.2-7
				c-0.3-3.8-2.6-6.3-4.2-6.2c-1.6,0.1,0.1,2.3,2.3,6.9c1.6,3.3,1.6,6.4,1.5,7.8c-0.2,0.8-0.4,1.5-0.6,2.3c-0.2,0.9-0.4,1.9-0.6,2.9
				c-0.2-0.9-0.6-2.2-1-3.7c-0.4-1.6-0.8-3.3-1-5c-0.2-1.9-0.7-4.4-2.6-5.4c-0.6-0.3-1.3-0.2-1.6,0.4c-0.2,0.4-0.2,0.9-0.1,1.3
				c0.2,1.3,0.7,2.6,1.3,3.8c-0.4,0.7-0.5,1.6-0.5,2.3c0,0.3,0,0.6,0,0.9c-0.2-0.3-0.3-0.6-0.5-0.8c-0.3-0.5-0.6-0.9-1-1.2
				c0.1-0.7,0.2-1.5,0.1-2.2c0-0.9-1.1-3.4-2.1-1.6c-0.4,0.7-0.3,2.1-0.4,3.1c-0.3,0.3-0.4,0.8-0.1,1.6c-0.2,2.2-0.2,4.4,0.3,6.5
				c-0.1-0.2-0.2-0.4-0.3-0.6c-0.1-0.7-0.8-3.9-0.9-7.6c-0.1-4.2,0.5-7.6-0.6-8.9c-1.1-1.3-1.8,3.3-1.3,8.2c0.3,2.8,1.1,5.1,1.8,6.5
				c-1.1-2-2.2-4.1-3.3-6.1c-0.4-1.1-1.5-3.9-1.2-6.8c0.3-3.7,0.6-6.7-0.8-8.7c-1.4-2.1-1.7-0.7-1,3.6c0.5,2.9,1,6.9,1.8,9.6
				c-0.8-1.6-1.6-3.1-2.3-4.4c-0.4-1.3-1.3-4.8-1.3-7.7c0-3.6-0.4-5.6-1.5-4.8c-0.8,0.6-0.3,5.1,0.9,8.9c-0.6-1.2-1-2-1.2-2.6
				c-0.1-0.2-0.2-0.5-0.4-0.8c-0.2-1.5-0.7-5-1.7-8.9c-1.4-5.2-3.8-9-3.7-6.4c0.1,2.3,4.1,10.6,5.3,15c-0.3-0.6-0.8-1.3-1.2-2
				c-0.3-0.8-0.5-1.6-0.8-2.2c-0.5-1-1-2-1.5-3c-0.9-1.5-1.9-3-3.1-4.2c-1.4-1.5-3.1-2.7-5.1-3.1c-0.5-0.1-3.6-0.8-3.1,0.5
				c0.1,0.2,0.3,0.4,0.4,0.5c1.7,1.5,3.7,2.4,5.6,3.7c2.8,1.9,6.2,6.2,7.6,8.1c0.2,0.3,0.4,0.8,0.7,1.2c-2.5-3.2-7.1-5.5-8.9-5
				c-2.2,0.6,2.1,2.3,5.6,3.8c2.3,1,3.6,2.2,4.2,3c0.6,1.1,1.2,2.3,1.8,3.5c0.1,0.2,0.1,0.4,0.2,0.5c-0.5-0.8-1-1.5-1.7-2.1
				c-1.7-1.6-6.8-3.2-7.7-1.5s3,1.5,6.2,2.5c2.1,0.7,3.5,2.2,4.2,3.1c0.1,0.1,0.1,0.2,0.2,0.3c0.3,0.6,0.6,1.1,0.8,1.7
				c0.6,1.2,1.1,2.4,1.7,3.5c-0.7-1.3-1.8-3-3.2-4.3c-2.5-2.4-6.2-3.4-7.7-2.5c-1.5,0.8,4.6,2.7,7.5,4.3c2.2,1.2,3.5,3.1,4.1,4
				c0.8,1.6,1.6,3.2,2.4,4.8c-1.2-1.5-3-3.3-4.9-5c-2.8-2.6-6.2-2.8-7.2-1.7c-1.1,1.1,1.6,1.6,6.4,3.5c3.4,1.3,5.6,3.5,6.5,4.7
				c0.4,0.7,0.7,1.4,1.1,2.1c0.4,0.8,1,1.7,1.6,2.6c-0.8-0.5-1.9-1.3-3.2-2.1c-1.4-0.9-2.8-1.8-4.1-2.9c-1.5-1.3-3.5-2.7-5.6-2.1
				c-0.7,0.2-1.1,0.7-0.9,1.4c0.1,0.4,0.5,0.8,0.8,1c2,1.5,4.6,2.3,6.9,3.2c2.8,1.1,5.3,1.8,6.4,2.1c0.5,0.8,1.1,1.5,1.7,2.3
				c-0.2,0-0.5,0-1,0c-1.2,0-6.7-2.5-9.5-3.3c-2.8-0.8-5.4,0.7-2.5,2.3c2.9,1.6,10.9,1.2,10.9,1.2l2.3-0.1c0.5,0.7,1.1,1.3,1.6,1.9
				H48.9v3H51l1.7,10.7h14.5l1.7-10.7h2.2v-3h-7.2c-0.1-1,0-2.3,0.1-3.9c0.2-0.2,0.6-0.6,1.6-1.3c3.2-2.2,8.5-2.4,10-6.6
				c0.3-1,0-2.3-1.3-2.3c-0.9,0-1.8,0.8-2.3,1.4c-1.8,2.1-3.2,4.3-5.5,5.8c-0.1,0.1-1.6,1.3-2.3,2c0.1-0.7,0.2-1.4,0.3-2.2
				c0.6-1,1.2-2,1.9-2.9c1.9-2.4,4.9-3.8,6.9-6.1c0.6-0.7,1.5-3.2-0.5-2.6c-0.9,0.3-1.9,1.6-2.6,2.2c-1.9,1.7-3.9,3.6-5.1,5.8
				c0.1-0.2,0.1-0.4,0.2-0.7c0.4-0.6,2.1-3.3,4.5-6.1c2.8-3.2,5.6-5.2,5.7-6.9c0-1.7-3.5,1.2-6.6,5.1c-1.7,2.2-2.6,4.4-3.2,6
				c0.6-2.2,1.1-4.5,1.7-6.7c0.4-1.1,1.6-3.9,3.7-5.8c2.7-2.4,5-4.5,5.3-6.9C77,85.8,75.9,86.6,73.5,90.2z M58.2,118
				c-0.4-0.6-0.8-1.2-1.3-1.8c-0.3-1.1-0.5-2.3-0.5-3.4c-0.1-1,0-2,0.1-3c0.7,0.9,1.5,1.8,2.3,2.6c0,0.8-0.1,1.7-0.3,2.6
				C58.5,115.1,58.2,116.9,58.2,118z M60.5,120.8c-0.6-0.6-1.2-1.3-1.8-2.1c0-0.3,0-0.9,0.3-2c0.2-1,0.7-2,1.1-3
				c1,1,1.8,1.6,1.8,1.6l1.7,1.5c-0.1,1.5-0.2,2.9-0.3,4.1L60.5,120.8L60.5,120.8z M63.6,116.5c-0.1-0.1-0.3-0.3-0.8-0.7
				c-0.4-0.4-1.2-1.9-2.1-3.6c0.4-0.7,0.7-1.5,1-2.2c0.9,1.7,1.7,3,2.2,3.7C63.8,114.6,63.7,115.6,63.6,116.5z"/>
			<path class="st3" d="M73.5,90.2c-1.7,2.5-4,5.7-5.2,8.3c0.5-1.7,0.9-3.3,1.4-4.8c0.6-1.2,2.3-4.4,4.3-6.5
				c2.5-2.7,3.6-4.4,2.2-4.5c-0.9-0.1-3.6,3.5-5.4,7.1c0.4-1.2,0.7-2.2,0.8-2.7c0.1-0.3,0.2-0.5,0.2-0.8c0.9-1.2,2.9-4.2,4.8-7.7
				c2.5-4.7,3.3-9.1,1.6-7.2c-1.5,1.8-4.2,10.5-6.4,14.6c0.2-0.7,0.3-1.5,0.5-2.3c0.3-0.7,0.7-1.5,0.9-2.2c0.3-1.1,0.7-2.1,0.9-3.2
				c0.4-1.7,0.6-3.4,0.6-5.2c0-2.1-0.5-4.1-1.6-5.8c-0.3-0.4-2.1-3.1-2.6-1.7c-0.1,0.2-0.1,0.5,0,0.7c0.3,2.2,1.1,4.3,1.6,6.5
				c0.8,3.3,0.3,8.8,0,11.1c-0.1,0.4-0.2,0.8-0.4,1.4c0.4-4.1-1.4-8.9-3.1-9.8c-2-1,0,3.1,1.5,6.6c1,2.3,1.1,4.1,1,5
				c-0.3,1.2-0.7,2.5-1.1,3.8c-0.1,0.2-0.1,0.4-0.2,0.5c0.2-0.9,0.3-1.8,0.2-2.7c-0.2-2.3-2.8-7-4.6-6.4c-1.8,0.7,1.2,3.1,2.8,6
				c1.1,2,1.1,4,0.9,5.2c0,0.1,0,0.2,0,0.3c-0.2,0.6-0.4,1.2-0.5,1.8c-0.4,1.3-0.8,2.5-1.2,3.7c0.3-1.5,0.7-3.5,0.6-5.3
				c-0.2-3.4-2.2-6.7-3.9-7.1c-1.7-0.4,1.5,5.1,2.6,8.3c0.8,2.4,0.5,4.7,0.3,5.7c-0.5,1.7-1,3.4-1.5,5.2c0.2-2,0.1-4.5-0.2-7
				c-0.3-3.8-2.6-6.3-4.2-6.2c-1.6,0.1,0.1,2.3,2.3,6.9c1.6,3.3,1.6,6.4,1.5,7.8c-0.2,0.8-0.4,1.5-0.6,2.3c-0.2,0.9-0.4,1.9-0.6,2.9
				c-0.2-0.9-0.6-2.2-1-3.7c-0.4-1.6-0.8-3.3-1-5c-0.2-1.9-0.7-4.4-2.6-5.4c-0.6-0.3-1.3-0.2-1.6,0.4c-0.2,0.4-0.2,0.9-0.1,1.3
				c0.2,1.3,0.7,2.6,1.3,3.8c-0.4,0.7-0.5,1.6-0.5,2.3c0,0.3,0,0.6,0,0.9c-0.2-0.3-0.3-0.6-0.5-0.8c-0.3-0.5-0.6-0.9-1-1.2
				c0.1-0.7,0.2-1.5,0.1-2.2c0-0.9-1.1-3.4-2.1-1.6c-0.4,0.7-0.3,2.1-0.4,3.1c-0.3,0.3-0.4,0.8-0.1,1.6c-0.2,2.2-0.2,4.4,0.3,6.5
				c-0.1-0.2-0.2-0.4-0.3-0.6c-0.1-0.7-0.8-3.9-0.9-7.6c-0.1-4.2,0.5-7.6-0.6-8.9c-1.1-1.3-1.8,3.3-1.3,8.2c0.3,2.8,1.1,5.1,1.8,6.5
				c-1.1-2-2.2-4.1-3.3-6.1c-0.4-1.1-1.5-3.9-1.2-6.8c0.3-3.7,0.6-6.7-0.8-8.7c-1.4-2.1-1.7-0.7-1,3.6c0.5,2.9,1,6.9,1.8,9.6
				c-0.8-1.6-1.6-3.1-2.3-4.4c-0.4-1.3-1.3-4.8-1.3-7.7c0-3.6-0.4-5.6-1.5-4.8c-0.8,0.6-0.3,5.1,0.9,8.9c-0.6-1.2-1-2-1.2-2.6
				c-0.1-0.2-0.2-0.5-0.4-0.8c-0.2-1.5-0.7-5-1.7-8.9c-1.4-5.2-3.8-9-3.7-6.4c0.1,2.3,4.1,10.6,5.3,15c-0.3-0.6-0.8-1.3-1.2-2
				c-0.3-0.8-0.5-1.6-0.8-2.2c-0.5-1-1-2-1.5-3c-0.9-1.5-1.9-3-3.1-4.2c-1.4-1.5-3.1-2.7-5.1-3.1c-0.5-0.1-3.6-0.8-3.1,0.5
				c0.1,0.2,0.3,0.4,0.4,0.5c1.7,1.5,3.7,2.4,5.6,3.7c2.8,1.9,6.2,6.2,7.6,8.1c0.2,0.3,0.4,0.8,0.7,1.2c-2.5-3.2-7.1-5.5-8.9-5
				c-2.2,0.6,2.1,2.3,5.6,3.8c2.3,1,3.6,2.2,4.2,3c0.6,1.1,1.2,2.3,1.8,3.5c0.1,0.2,0.1,0.4,0.2,0.5c-0.5-0.8-1-1.5-1.7-2.1
				c-1.7-1.6-6.8-3.2-7.7-1.5s3,1.5,6.2,2.5c2.1,0.7,3.5,2.2,4.2,3.1c0.1,0.1,0.1,0.2,0.2,0.3c0.3,0.6,0.6,1.1,0.8,1.7
				c0.6,1.2,1.1,2.4,1.7,3.5c-0.7-1.3-1.8-3-3.2-4.3c-2.5-2.4-6.2-3.4-7.7-2.5c-1.5,0.8,4.6,2.7,7.5,4.3c2.2,1.2,3.5,3.1,4.1,4
				c0.8,1.6,1.6,3.2,2.4,4.8c-1.2-1.5-3-3.3-4.9-5c-2.8-2.6-6.2-2.8-7.2-1.7c-1.1,1.1,1.6,1.6,6.4,3.5c3.4,1.3,5.6,3.5,6.5,4.7
				c0.4,0.7,0.7,1.4,1.1,2.1c0.4,0.8,1,1.7,1.6,2.6c-0.8-0.5-1.9-1.3-3.2-2.1c-1.4-0.9-2.8-1.8-4.1-2.9c-1.5-1.3-3.5-2.7-5.6-2.1
				c-0.7,0.2-1.1,0.7-0.9,1.4c0.1,0.4,0.5,0.8,0.8,1c2,1.5,4.6,2.3,6.9,3.2c2.8,1.1,5.3,1.8,6.4,2.1c0.5,0.8,1.1,1.5,1.7,2.3
				c-0.2,0-0.5,0-1,0c-1.2,0-6.7-2.5-9.5-3.3c-2.8-0.8-5.4,0.7-2.5,2.3c2.9,1.6,10.9,1.2,10.9,1.2l2.3-0.1c0.5,0.7,1.1,1.3,1.6,1.9
				H48.9v3H51l1.7,10.7h14.5l1.7-10.7h2.2v-3h-7.2c-0.1-1,0-2.3,0.1-3.9c0.2-0.2,0.6-0.6,1.6-1.3c3.2-2.2,8.5-2.4,10-6.6
				c0.3-1,0-2.3-1.3-2.3c-0.9,0-1.8,0.8-2.3,1.4c-1.8,2.1-3.2,4.3-5.5,5.8c-0.1,0.1-1.6,1.3-2.3,2c0.1-0.7,0.2-1.4,0.3-2.2
				c0.6-1,1.2-2,1.9-2.9c1.9-2.4,4.9-3.8,6.9-6.1c0.6-0.7,1.5-3.2-0.5-2.6c-0.9,0.3-1.9,1.6-2.6,2.2c-1.9,1.7-3.9,3.6-5.1,5.8
				c0.1-0.2,0.1-0.4,0.2-0.7c0.4-0.6,2.1-3.3,4.5-6.1c2.8-3.2,5.6-5.2,5.7-6.9c0-1.7-3.5,1.2-6.6,5.1c-1.7,2.2-2.6,4.4-3.2,6
				c0.6-2.2,1.1-4.5,1.7-6.7c0.4-1.1,1.6-3.9,3.7-5.8c2.7-2.4,5-4.5,5.3-6.9C77,85.8,75.9,86.6,73.5,90.2z M58.2,118
				c-0.4-0.6-0.8-1.2-1.3-1.8c-0.3-1.1-0.5-2.3-0.5-3.4c-0.1-1,0-2,0.1-3c0.7,0.9,1.5,1.8,2.3,2.6c0,0.8-0.1,1.7-0.3,2.6
				C58.5,115.1,58.2,116.9,58.2,118z M60.5,120.8c-0.6-0.6-1.2-1.3-1.8-2.1c0-0.3,0-0.9,0.3-2c0.2-1,0.7-2,1.1-3
				c1,1,1.8,1.6,1.8,1.6l1.7,1.5c-0.1,1.5-0.2,2.9-0.3,4.1L60.5,120.8L60.5,120.8z M63.6,116.5c-0.1-0.1-0.3-0.3-0.8-0.7
				c-0.4-0.4-1.2-1.9-2.1-3.6c0.4-0.7,0.7-1.5,1-2.2c0.9,1.7,1.7,3,2.2,3.7C63.8,114.6,63.7,115.6,63.6,116.5z"/>
		</g>
	</g>
	<g id="Characters">
		<g>
			<g>
				<ellipse class="st0" cx="75.9" cy="141.6" rx="18.1" ry="3.9"/>
				<ellipse class="st3" cx="75.9" cy="141.6" rx="18.1" ry="3.9"/>
			</g>
			<g>
				<ellipse class="st0" cx="141.7" cy="141.6" rx="18.1" ry="3.9"/>
				<ellipse class="st3" cx="141.7" cy="141.6" rx="18.1" ry="3.9"/>
			</g>
			<g>
				<g>
					<path id="XMLID_122_" class="st4" d="M111.2,69.9c0,0,1.3,0.8,1.8,1.8c0.5,1,2.8,1.6,2.8,1.6h0.8l0.3,4c0,0-2.1,0.1-2.6,0.2
						c-0.4,0.1-1.5,0.2-1.5,0.2s-2.7-3.4-3.1-4s-0.5-2-0.3-2.2C109.8,71.3,111.2,69.9,111.2,69.9z"/>
					<path id="XMLID_121_" class="st4" d="M107.7,76.7c0,0-1.5,0.5-0.8,0.9c0.6,0.4,1.7,0,2-0.4C109.1,76.8,108.3,76.5,107.7,76.7z"
						/>
					<g>
						<path id="XMLID_120_" class="st4" d="M106.1,72.1c0,0,4.4-1.6,4.6-1.4c0.2,0.1,0.5,1.5,0.5,1.5s3.1,1.8,3.3,2.5
							c0.2,0.7,0.1,3,0,3.3c-0.1,0.2-1,0.5-1.3,0.6c-0.3,0.1-0.8,0-0.9,0c-0.1,0-2.5-1.7-2.5-1.7s-2.4,0.2-3,0.2s-1.1,0-1.1,0
							L106.1,72.1z"/>
						<path id="XMLID_119_" class="st5" d="M111.5,74c0,0,1.6,0.9,2,1.4c0.3,0.5,0.7,2.6,0.7,2.6"/>
						<path id="XMLID_118_" class="st5" d="M110.9,74.9c0,0,1.9,1,2.1,1.5c0.2,0.5,0.4,1.9,0.4,1.9"/>
					</g>
					<path id="XMLID_117_" class="st4" d="M111.8,70.9c0,0-2.1,2.4-2.6,2.6c-0.5,0.2-0.6,0-0.8-0.2c-0.2-0.2,1.6-2.9,1.5-3.1
						c0,0,0.9-0.7,1.8,0"/>
					<g>
						<path id="XMLID_116_" class="st4" d="M108.7,76.1c0,0,0,0.1-0.1,0.3c-0.1,0.4-0.3,1.3-0.3,1.5c0.1,0.2,0.7,0.4,0.9,0.1
							c0.2-0.3,0.6-1.8,0.5-2C109.7,75.8,109.3,74.9,108.7,76.1z"/>
						<path id="XMLID_115_" class="st4" d="M110.6,75.9c-0.2,0.2-0.8,2.3-0.7,2.6c0.1,0.2,0.9,0.3,1.1,0s0.9-2.2,0.7-2.6
							C111.5,75.6,111.3,75.1,110.6,75.9z"/>
						<path id="XMLID_114_" class="st4" d="M111.8,76.4c0,0,0,0.1-0.1,0.2c-0.2,0.5-0.8,2.1-0.7,2.4c0.2,0.3,1.1,0.4,1.3,0
							c0.2-0.5,0.9-2.3,0.4-2.8C112.4,75.6,111.9,75.9,111.8,76.4z"/>
					</g>
				</g>
				<g>
					<path id="XMLID_113_" class="st4" d="M77.8,34.8c0,0,0.3,1.6,0,2.2c-0.3,0.6-0.7,2-0.7,2l6.6,5.8c0,0,2-2.5,2.4-3
						c0.4-0.5,0.9-1.1,0.9-1.1s-3.2-2-3.9-3.5c-0.7-1.5-0.3-3.4-1.7-3.7C79.8,33.1,78.2,33.9,77.8,34.8z"/>
					<g>
						<path id="XMLID_112_" class="st6" d="M90.3,24.9c0,0,2.7,0,2.2-2.7s-7-3.2-8.2-2c-1.2,1.2-1,1.7-1,1.7s-5.5-0.1-6.9,2.9
							c-1.4,3-0.8,6.9,0.1,8.9c0.9,2,2.5,2.3,3.3,2s1.4-0.7,1.4-1.5s0.5-2.5,1.1-2.1c0.6,0.4,1.3,0.6,2.4-0.5
							c1.1-1.1,2.7-2.4,2.1-3.5c-0.6-1.1-1.6-1.1-1-1.6c0.6-0.5,3.7-0.9,4-1.2S90.3,24.9,90.3,24.9z"/>
						<path class="st7" d="M90.2,23.4c0,0,0.4,0.8-3.3,1.8c-3.7,1-9.9,1.2-10.1,3.5"/>
						<path class="st7" d="M83,27.8c0,0-4.5,1.4-5.4,2.9c-1,1.6,0.4,2.9,0.4,2.9"/>
					</g>
					<g>
						<path id="XMLID_111_" class="st4" d="M90.3,24.9c0,0,1,3.5,1,4.2s-0.7,1.4-0.4,2.2c0.3,0.8,1.4,2.3,1.4,2.8s-1.6,1-1.6,1
							s-1.4,5.2-1.7,5.8c-0.3,0.7-1.3,0.7-2.5,0.4c-1.2-0.3-4.3-2-5.2-3.3c-0.9-1.3-0.2-3.5-0.2-3.5s-1.7-0.8-2.1-2.4
							c-0.3-1.6,0.9-2.7,2-2.3s1.4,1.2,1.4,1.2s0.1,0.4,0.4,0.3c0.3-0.1,0.6-0.8,0.9-0.8c0.3,0,2.4-0.8,2.2-1.6
							c-0.3-0.8-2.9-0.9-2.7-1.8C83.6,26.3,90.3,24.9,90.3,24.9z"/>
						<line id="XMLID_110_" class="st5" x1="87" y1="34.4" x2="85.9" y2="35.1"/>
						<path id="XMLID_109_" class="st4" d="M86.6,34.8c0,0,0.3,0.9,1.7,1.2"/>
						<path id="XMLID_108_" d="M86.6,35.1c0,0-0.6,1.7,0.1,2.1c0.8,0.4,1.1-1.2,1.1-1.2L86.6,35.1z"/>
						<path id="XMLID_107_" class="st4" d="M90.8,31.6c0,0.9-0.3,1.6-0.5,1.6c-0.2,0-0.4-0.8-0.3-1.7c0-0.9,0.3-1.6,0.5-1.6
							S90.9,30.7,90.8,31.6z"/>
						<line id="XMLID_106_" class="st5" x1="90" y1="30.7" x2="82.4" y2="30.7"/>
						<path id="XMLID_105_" class="st4" d="M89.4,29.7c0,0,0.2-0.7,0.8-0.9C90.9,28.6,91,29,91,29"/>
					</g>
				</g>
				<g>
					<path id="XMLID_104_" class="st4" d="M63.7,92.6l23-0.7c0,0,1.4,15.9,1.1,16.3s-23.2,1.3-23.2,1.3s-1.8,0.1-2-0.7
						C62.4,108,63.7,92.6,63.7,92.6z"/>
					<path id="XMLID_103_" class="st4" d="M63.7,92.6c0,0-2.2,15.8-1.8,16.2c0.4,0.4,2.1,0.8,2.7,0.6
						C65.2,109.4,63.7,92.6,63.7,92.6z"/>
				</g>
				<g>
					<g>
						<path id="XMLID_102_" class="st8" d="M70.5,135.8c-1.3,0.8-1.9,2.1-1.6,3.1c0.3,1,0.4,1.1,1.2,1.3s4.4-0.4,8.2-1
							c3.9-0.6,4.4-0.8,4.7-1.3s0.9-1.1-2.9-1.7c-3.8-0.6-4.2-1.3-4.2-1.3S72.5,134.6,70.5,135.8z"/>
						<path class="st6" d="M82.9,136.9c-0.3,0.5-1.1,1.5-3.6,1.8c-2.7,0.3-7.6,0.8-10.2,1c0.2,0.4,0.4,0.4,0.9,0.6
							c0.8,0.1,4.4-0.4,8.2-1c3.9-0.6,4.4-0.8,4.7-1.3C83.3,137.5,83.6,137.2,82.9,136.9z"/>
					</g>
					<g>
						<path id="XMLID_101_" class="st8" d="M77.3,137.2c0,0,4,1.9,6.1,2.3c2.2,0.4,2.7,0.5,2.5,1.2c-0.2,0.7-0.3,0.9-3.6,1.7
							c-3.3,0.8-6.9-0.1-8.5-0.4c-1.6-0.3-2.1,0.1-2.8-0.1c-0.7-0.3-0.5-1.8-0.5-1.8L77.3,137.2z"/>
						<path class="st6" d="M82.3,142.4c2.8-0.7,3.3-0.9,3.5-1.4c-3,1.3-7,0.8-10.1,0.4c-2-0.2-3.8-0.4-5.2-0.5c0,0.4,0.2,0.8,0.5,1
							c0.7,0.3,1.2-0.1,2.8,0.1C75.4,142.3,79,143.2,82.3,142.4z"/>
					</g>
					<g>
						<path id="XMLID_100_" class="st6" d="M72.9,100.8c0,0-0.7,5.6-2.1,8.1c-1.4,2.4-3.3,4.1-3.6,7.6c-0.3,3.5,0.7,17.9,0.8,19.1
							c0.1,1.2-0.4,1.6,0.1,2.4c0.5,0.8,1.1,1.4,1.1,1.4l1.6-1.4c0,0,1.2-3.8,0.9-11.1c-0.3-7.3-0.2-12.2,1-17
							c1.3-4.8,1.5-6.1,0.9-8C73.1,100,72.9,100.8,72.9,100.8z"/>
						<path id="XMLID_99_" class="st6" d="M69.7,89.1c0,0,1.6,3.1,2,3.9c0.4,0.8,1.2,10.2,0.6,13.3c-0.7,3.1-3.3,8.4-3,13.1
							c0.2,4.6,0.4,17,0.4,17.1s-0.2,0.9,0,2.2c0.2,1.3,1,1.7,1,1.7s1.5-0.7,3.9-1.4c2.4-0.7,3.1-1.7,3.1-1.7s-0.4-1.2-0.7-1.9
							c-0.3-0.7-0.9-1.8-0.8-2.1c0.1-0.3,0.7-11.7,2-15.5s2-7.7,3.1-11.2c1.1-3.5,3.7-12.8,3.7-15.1c0-2.4,0-2.9,0-2.9l-15.4-0.3
							L69.7,89.1z"/>
						<g>
							<path class="st7" d="M71,111.3c-0.4,1.3-0.9,2.8-1.3,4c-0.9,2.8,0,18.6,0,18.6s0.2,2,0.1,3.4s0,2,0.4,2.4"/>
							<path class="st7" d="M72.1,107.9c0,0-0.3,1-0.7,2.3"/>
						</g>
					</g>
				</g>
				<path id="XMLID_98_" class="st4" d="M76.5,37.6c0,0,1.7,0.6,4.3,2.9c2.6,2.3,5.2,4.4,4.7,5.2c-0.6,0.8-1.6,3.4-1.6,3.4
					s-1-1.6-3.8-3.9c-2.9-2.3-5-4.3-5-4.3S76.2,38.1,76.5,37.6z"/>
				<g>
					<path id="XMLID_97_" class="st8" d="M74.2,41.3c0,0-5.5,3.9-6.5,7.7c-0.9,3.8-1.3,5.6-1.3,12.9S67,73.7,67,74
						c0,0.3-1.5,13.8-1.5,13.9c0,0.1,2.6,2.5,9.8,2.7c7.2,0.1,14.7-1.1,14.7-1.1l-3.2-26c0,0-1.2-11.1-2.5-13.2
						C83.1,48.1,74.2,41.3,74.2,41.3z"/>
					<path id="XMLID_96_" class="st5" d="M77.4,77.4c0,0,4.6,0.9,7.8-0.2"/>
					<path id="XMLID_95_" class="st5" d="M77.4,78.7c0,0,4.6,0.9,7.8-0.2"/>
				</g>
				<polygon id="XMLID_94_" class="st4" points="105.3,71.4 106.4,71.9 105.7,77.1 104.6,76.9 				"/>
				<path id="XMLID_93_" class="st8" d="M79.1,48c0,0-0.9,0.2-1.7,1.1c-0.7,0.8-4.7,5.8-4.5,8c0.3,2.2,5.5,10.1,7.2,12.6
					c1.7,2.5,4.4,5.2,8.8,6.8c4.4,1.6,15.7,0.8,15.7,0.8l0.6-6.1c0,0-6.2-2-10.4-3.3c-4.3-1.3-6.9-2.6-6.9-2.6s-1-2.4-1.7-2.8
					c-0.7-0.4-0.8-0.6-0.8-0.6s-1.3-7.3-2-9.6c-0.7-2.4-1.6-3-1.6-3"/>
				<g>
					<g>
						<path id="XMLID_92_" class="st8" d="M137,134.7c0,0-3,1.7-5.5,2.7c-2.5,0.9-3.1,1.3-2.6,1.8c0.5,0.5,4.8,0.9,7.2,0.4
							c2.4-0.5,3.4-0.8,4.5-0.8c1.1,0,2.6,0.3,3.1-0.4c0.5-0.7,0.7-0.9,0.3-2.1C143.6,135.1,137,134.7,137,134.7z"/>
						<path class="st6" d="M136.1,139.6c2.4-0.5,3.4-0.8,4.5-0.8c1.1,0,2.6,0.3,3.1-0.4c0.4-0.5,0.6-0.8,0.5-1.3
							c-1.8-0.1-5.2,0.4-9.2,1.3c-2.9,0.6-5,0.5-6.3,0.3c-0.1,0.1,0,0.3,0.1,0.4C129.4,139.7,133.7,140.1,136.1,139.6z"/>
					</g>
					<g>
						<path id="XMLID_91_" class="st8" d="M146.3,138c0,0-1.5,1.7-3.2,3c-1.6,1.3-4.5,3.2-4.2,4s2.3,1.5,6.6,0.4
							c4.3-1.1,7.6-3.6,7.6-3.6s0.8-0.1,1.2-0.7c0.3-0.6,0-1.5,0-1.5L146.3,138z"/>
						<path class="st6" d="M145.6,145.4c4.3-1.1,7.6-3.6,7.6-3.6s0.8-0.1,1.2-0.7c0.3-0.5,0.1-1.2,0-1.4c-6.2,4.7-11.9,5.6-15,5.7
							C140.2,146,142.2,146.2,145.6,145.4z"/>
					</g>
					<g>
						<path id="XMLID_90_" class="st6" d="M139,80.3c0,0-2.6,0.3-4.5-0.3c-1.9-0.7-3.7-1.2-3.7-1.2s-1,13.5,0.1,18.9
							s4.2,12.1,4.2,13.6c0,1.5,0.3,4.1,0.6,5.4s2,12.1,2.1,13.3c0.1,1.2,0,1.8,0,1.8s-1.2,0.4-1.2,0.7s0,2.5,0,2.5s1.2,0.7,3.1,1.2
							c1.8,0.5,4.4,1,4.4,1s0.5-2.3,0.5-3c0-0.7-0.4-2.5-0.4-3.5c0-1,0.2-12.9,0.2-12.9s2.4,10.1,2.4,13.5c0,3.4,0,4.5,0,4.5
							s-1.1-0.3-1.1,0.4s0,2.5,0,2.5s3.9,1,5.7,1.5s3.4,0.2,3.4,0.2s1-3.8,0.9-5c-0.1-1.2-1.3-2.3-1.3-3s0.6-7.5-0.3-13.5
							c-0.9-5.9-3.4-8.7-3.5-11.6c-0.1-2.9,0.4-13.4,0.5-15.1c0-1.7,1.8-5.2,2-6.8c0.2-1.6,0-6.3,0-6.3S142,80.9,139,80.3z"/>
						<g>
							<line id="XMLID_89_" class="st7" x1="134.2" y1="87.1" x2="136.9" y2="88.8"/>
							<path id="XMLID_88_" class="st7" d="M143.8,116.4c0.4,1,0.6,1.5,0.6,1.5"/>
							<path id="XMLID_87_" class="st7" d="M136,88.4c0,0,1.8,10.4,3.9,17c1.1,3.3,2.3,6.6,3.1,8.9"/>
						</g>
					</g>
				</g>
				<path id="XMLID_86_" class="st6" d="M115.9,72.7c0,0.1,0.3,5.5,0.3,5.5l14.2-1.3l-0.3-7L115.9,72.7z"/>
				<path id="XMLID_85_" class="st4" d="M143.8,44.4c0,0-3.2,1.1-3.9,1.9c-0.6,0.8-4.5,14.2-5.7,18.2c-1.2,4-1.6,15.9-1.6,15.9
					s1,0.4,2.1,0.6c1.1,0.2,2.2,0.1,2.2,0.1s4.2-14,6.2-18.8s5.4-11.7,6.7-14.3s2.4-3.2,2.3-4.5c-0.1-1.3-0.7-1.8-1.5-1.9
					C149.8,41.6,143.8,44.4,143.8,44.4z"/>
				<path id="XMLID_84_" class="st8" d="M144.2,44c0,0-3.2,1.1-3.9,1.9c-0.6,0.8-4.5,14.2-5.7,18.2c-1.2,4-1.6,15.9-1.6,15.9
					s1,0.4,2.1,0.6s2.2,0.1,2.2,0.1s4.2-14,6.2-18.8s5.4-11.7,6.7-14.3s2.4-3.2,2.3-4.5c-0.1-1.3-0.7-1.8-1.5-1.9
					C150.2,41.2,144.2,44,144.2,44z"/>
				<g>
					<path id="XMLID_83_" class="st6" d="M148.5,45.6c0,0-3.3,5.5-5.3,10.7c-2,5.2-3.7,9.9-5.7,16.9c-2.1,7-1.2,13.3-1.2,13.3
						s1,1.7,6.8,1.9s13.2-1.7,13.2-1.7s-1-5.9-1.1-9.4c-0.1-3.5,2.7-15.8,3.9-19c1.2-3.2,3.8-6.4,1.3-9.5c-2.5-3.1-8.4-6.6-8.4-6.6
						S149.1,44.6,148.5,45.6z"/>
					<path id="XMLID_82_" class="st6" d="M141.8,45.6c0,0-1.5,1.9-2.9,6c-1.4,4.1-4,15-5.1,19.7c-1.2,4.6-1.8,15-1.8,15s-0.6,0-2,0
						c-1.3,0-2.5-0.6-2.5-0.6s0.9-10.1,1.8-14.9c0.8-4.7,3.3-13.2,3.8-16.5c0.4-3.3,0.6-4.2,1.2-4.6c0.6-0.4,5.2-3.3,6.2-3.9
						C141.3,45,141.8,45.6,141.8,45.6z"/>
					<g>
						<path id="XMLID_81_" class="st7" d="M153.5,43.2c0,0-2.8,5.6-3.6,6.6c-0.7,1-1.1,1.9-1.1,1.9l-2.5,0.9l1,1.6c0,0-5,9-6.3,11.9
							c-1.3,3-2.6,6.2-2.6,6.2"/>
						<path id="XMLID_80_" class="st7" d="M133.2,68.4c-0.1,1-0.1,1.4-0.1,1.4"/>
						<path id="XMLID_79_" class="st7" d="M139.3,47.3l-2.8,4.3l0.6,1l-1.5,1.9c0,0-1.6,6.8-2.1,10.4c-0.1,0.7-0.2,1.3-0.2,1.9"/>
					</g>
				</g>
				<g>
					<polygon id="XMLID_78_" class="st4" points="139.8,45.5 139.3,48.1 142.1,46.2 					"/>
					<path id="XMLID_77_" class="st4" d="M142.2,43.4c0,0.1-2.4,2.1-2.4,2.1l2.6,1.1l0.5-2.1L142.2,43.4z"/>
				</g>
				<g>
					<path id="XMLID_76_" class="st4" d="M141.3,23.7c0,0-1.6,0.9-2.5,2.9c-0.9,2-1.6,2.9-1.4,3.5s0.3,1.2,0.3,1.3
						c0,0.1-2.1,2.1-2.1,2.7c0,0.6,1.3,1.7,1.3,1.7s0.1,3.4,0.1,3.7c0,0.3,0.1,1.8,1.5,2.2c1.4,0.4,3,0,3,0l0.9,4.8
						c0,0,6.6-4.1,7.3-4.4c0.7-0.3,1.5-0.8,1.6-1.3c0-0.5-0.4-3.6-0.4-3.6s3.5-3.2,3.5-7c0-3.8-2.1-6.1-5.7-7.3
						C145,21.9,141.3,23.7,141.3,23.7z"/>
					<path id="XMLID_75_" class="st6" d="M154.4,30.3c0-3.8-2.1-6.1-5.7-7.3c-3.7-1.1-7.4,0.6-7.4,0.6s-0.3,0.2-0.8,0.6
						c1.2-0.2,3.2-0.4,4.6,0.5c2.2,1.4,0.8,2.8,0,3.5s-0.9,1-0.3,1.7c0.5,0.7,1.6,0.7,1.3,1.3c-0.2,0.6-1,1.5-0.4,1.8
						c0.6,0.2,1.1-0.3,1.4-1c0.2-0.7,1.5-0.7,2,0.8c0.5,1.5-0.4,2.7-1,3.2c-0.6,0.5-1.4,0.4-1.4,0.4s1.7,0.8,2.7,1
						c0.5,0.1,1.1,0,1.6-0.1c0-0.1,0-0.1,0-0.1S154.4,34.1,154.4,30.3z"/>
					<path id="XMLID_74_" d="M140,32.2c0,0.4-0.1,0.7-0.3,0.7s-0.3-0.3-0.3-0.7s0.1-0.7,0.3-0.7S140,31.9,140,32.2z"/>
					<path id="XMLID_73_" class="st4" d="M138.7,30.2c0,0,0.2-0.7,1.3-0.6c1.1,0,1.1,0.8,1.1,0.8"/>
					<path id="XMLID_72_" class="st4" d="M136.9,35.8c0,0,1,0.4,1.8-0.2c0.8-0.6,0.1-1.2,0.1-1.2"/>
					<path id="XMLID_71_" class="st6" d="M137.1,36.6c0,0,2.6-1.3,3.8-1.3c1.2,0,2.4,2,1.9,3.7c-0.5,1.7-1,2.6-2.7,3.3
						c-1.7,0.7-3.3,0.5-3.6-0.6c-0.3-1.1,1-2.8,1.7-3.1c0.6-0.3,1.1-0.3,1,0.2c-0.1,0.5-0.4,0.9,0.8,0.7c1.2-0.2,1.9-0.6,2-1.9
						c0-1.3-0.4-1.8-1.7-1.6s-3.2,1.2-3.2,1.2L137.1,36.6z"/>
					<path id="XMLID_70_" class="st4" d="M138.1,37.7c0,0,2.1-0.1,2.8-0.9"/>
					<path id="XMLID_69_" class="st4" d="M146.5,36.5c0,0,0.1,1.2-1,2.1"/>
				</g>
				<path id="XMLID_68_" class="st4" d="M142.5,46.6l1.4,3.3c0,0,5.4-4.1,6.8-5.6c1.3-1.6,2.4-2.4,1.6-3.5c-0.7-1.1-1.8-0.2-2-0.1
					C150.1,40.8,142.5,46.6,142.5,46.6z"/>
				<path id="XMLID_67_" class="st4" d="M131.6,75.8c0,0-1.1-3.4-1.5-6.1c-0.3-1.9-0.4-3.8-0.4-3.8s-3.6-0.3-6.9-1.8
					c-3.3-1.6-4-2.2-4-2.2s4.4,14.3,5.3,17.4c0.9,3,1.1,3.7,1.1,3.7s2.2,1.1,4.5,1.5c2.2,0.4,3.7,0.4,3.7,0.4L131.6,75.8z"/>
				<path id="XMLID_66_" class="st4" d="M136.5,75.8c-0.1,0-2.2-0.5-3-1c-0.8-0.5-2.1-0.8-2.3-0.8s-0.2,0-0.2,0l0.6,1.8
					c0,0-1,0.2-2.2,0.2c-1.2,0-3.7-0.4-3.8-0.2c-0.1,0.1-0.1,0.7-0.1,1.1s1.8,2.5,2.8,3.2c1,0.7,2,1.2,2.9,1.2c0.9,0,6-0.7,6-0.7
					L136.5,75.8z"/>
				<g>
					<path id="XMLID_65_" class="st6" d="M150.9,56.5c0,0,0.2,5.5,0.4,9.5c0.1,4,0.4,4.4,0.4,4.4s-11.1,4.2-12.8,4.5
						c-1.7,0.3-3,0.7-3,0.7l0.7,5.4c0,0,5.4,0.6,10.8-1c5.4-1.6,13.7-3.2,13.9-3.9c0.1-0.7,0-3,0-3.5c0-0.5-0.1-11.1-0.1-15.9
						s0.3-5.8-0.2-6.8c-0.6-1-3.6-1.5-5.3-0.5"/>
					<polyline class="st7" points="142.6,73.6 151.7,70.4 150.9,58.2 					"/>
					<path class="st7" d="M142.6,73.6"/>
					<path class="st7" d="M141.3,74"/>
					<line class="st7" x1="140" y1="74.5" x2="141.3" y2="74"/>
					<path class="st7" d="M154.1,52.1c0,0,3.4-4.3,6.9-2.1"/>
				</g>
				<path id="XMLID_64_" class="st5" d="M125.7,76.3c0,0,2.3,1.5,3.8,1.8"/>
				<path id="XMLID_63_" class="st5" d="M126.1,77.8c0,0,1.2,1.1,2.3,1.4c1,0.3,1,0.3,1,0.3"/>
				<path id="XMLID_62_" class="st5" d="M128.6,80.3c0,0,1.1,0.4,1.8,0.4"/>
				<path class="st8" d="M86.6,61.7c0,0-0.7-7-1.5-11.9c-0.4-2.7-2.1-5-3.8-7.1c-1.4-1.7-3.6-3.3-4.8-5.1C76.1,37,74,41.6,74,41.6
					c-0.5,1,4.7,4,5.4,4.7c0.9,0.9,1.7,2,2.6,3c0.4,0.4,1.4,2.1,1.9,2.2l0.9,0.2L84,53.8L86.6,61.7z"/>
			</g>
		</g>
	</g>
</g>
</svg>
