<?xml version="1.0" encoding="utf-8"?>
<!-- Generator: Adobe Illustrator 25.4.1, SVG Export Plug-In . SVG Version: 6.00 Build 0)  -->
<svg version="1.1" id="Layer_1" xmlns="http://www.w3.org/2000/svg" xmlns:xlink="http://www.w3.org/1999/xlink" x="0px" y="0px"
	 viewBox="0 0 225 150" style="enable-background:new 0 0 225 150;" xml:space="preserve">
<style type="text/css">
	.st0{display:none;}
	.st1{display:inline;fill:#F5F5F5;}
	.st2{fill:#EBEBEB;}
	.st3{fill:#F5F5F5;}
	.st4{fill:#E0E0E0;}
	.st5{fill:#263238;}
	.st6{fill:#AE7461;}
	.st7{fill:#FFBE9D;}
	.st8{fill:#EB996E;}
	.st9{fill:#6F4439;}
	.st10{fill:#455A64;}
	.st11{opacity:0.3;}
	.st12{fill:#EF7F1A;}
	.st13{opacity:0.3;enable-background:new    ;}
	.st14{fill:#FFCC58;}
	.st15{fill:#FFFFFF;}
	.st16{opacity:0.2;}
	.st17{fill:#FF725E;}
</style>
<g id="Background_Simple" class="st0">
	<path class="st1" d="M287.9-115l-1.7,1.5c-14.2,12.7-20.6,32.1-16,50.5c0.6,2.4,1.4,4.7,2.3,6.9c6.8,16.2,22.3,28.5,39.7,31.5
		c10.3,1.8,21.5,0.7,30.4,6.1c11.6,7,14.7,21.9,16.7,35.2s5.2,28.2,16.8,35.2c7.3,4.3,16.5,4.4,24.8,2.4c21.9-5.3,38.8-24.4,45-45.9
		s2.8-44.7-5.6-65.4c-11.7-28.9-33.7-54.4-62.6-66.8C348.9-136.1,313.1-133.9,287.9-115z"/>
	<circle class="st1" cx="-110.6" cy="-55.8" r="64.7"/>
</g>
<g>
	<g id="Background_Complete">
		<path class="st2" d="M72.3,19.3c-0.7,0.2-1.3,0.5-1.8,0.9c-0.2,0.1-0.4,0.3-0.6,0.3l-2.4-9.6c-0.2-0.7-0.9-1.1-1.6-1l-10,2.4
			l0.3,1.1c0.1,0.3,0.2,0.5,0.3,0.7c0.3,0.4,0.6,0.9,0.7,1.5c0.6,2.4-0.9,4.8-3.4,5.3c-2.2,0.4-4.4-0.8-5-2.9
			c-0.2-0.7-0.3-1.5-0.1-2.2c0.1-0.3,0.1-0.6,0-0.9l-0.2-0.8l-10.1,2.4c-0.9,0.2-1.4,1.1-1.2,2l2.2,8.9l-0.7,0.2
			c-0.1,0-0.2,0-0.2,0.1c-1-0.4-2.1-0.5-3.3-0.2c-2.9,0.7-4.6,3.6-3.9,6.4c0.7,2.9,3.6,4.6,6.4,3.9c0.9-0.2,1.7-0.7,2.4-1.3
			c0.1-0.1,0.3-0.1,0.4-0.1l0.9-0.2l2.4,9.9c0.2,0.9,1.1,1.4,2,1.2l27.6-6.8c0.7-0.2,1.1-0.9,1-1.6l-2.5-10.1c0.2,0,0.4,0,0.5,0.1
			c0.9,0.2,2,0.1,3-0.3c2-0.9,3.2-3,2.9-5.1C77.9,20.5,75,18.6,72.3,19.3z"/>
		<path class="st2" d="M195.3,72.3c0.4,0.2,0.8,0.3,1.2,0.3c0.1,0,0.3,0,0.4,0.1l-2.6,5.6c-0.2,0.4,0,0.9,0.4,1.1l5.9,2.7l0.3-0.7
			c0.1-0.2,0.1-0.3,0.1-0.5c0-0.3,0.1-0.7,0.3-1c0.7-1.4,2.4-2,3.8-1.3c1.2,0.6,1.8,2.1,1.3,3.4c-0.2,0.5-0.5,0.8-0.8,1.1
			c-0.2,0.1-0.3,0.3-0.4,0.5l-0.2,0.5l5.9,2.8c0.5,0.2,1.1,0,1.4-0.5l2.4-5.2l0.4,0.2c0,0,0.1,0,0.1,0.1c0.3,0.6,0.9,1.1,1.5,1.4
			c1.7,0.8,3.7,0.1,4.5-1.6c0.8-1.7,0.1-3.7-1.6-4.5c-0.6-0.3-1.1-0.3-1.7-0.3c-0.1,0-0.2,0-0.3-0.1l-0.5-0.2l2.7-5.8
			c0.2-0.5,0-1.1-0.5-1.4L203,61.4c-0.4-0.2-0.9,0-1.1,0.4l-2.8,6c-0.1-0.1-0.2-0.2-0.2-0.2c-0.4-0.5-0.9-0.8-1.6-1
			c-1.3-0.4-2.7,0.2-3.4,1.4C193,69.5,193.6,71.5,195.3,72.3z"/>
		<path class="st3" d="M205.2,135.5c0.3-0.2,0.5-0.5,0.6-0.8c0-0.1,0.1-0.2,0.2-0.3l3.2,3.7c0.2,0.3,0.6,0.3,0.9,0.1l3.8-3.3
			l-0.4-0.4c-0.1-0.1-0.2-0.2-0.3-0.2c-0.2-0.1-0.5-0.3-0.6-0.5c-0.8-0.9-0.7-2.3,0.3-3.1c0.8-0.7,2.1-0.6,2.9,0.1
			c0.3,0.3,0.5,0.6,0.6,0.9c0,0.2,0.1,0.3,0.2,0.4l0.3,0.3l3.9-3.4c0.3-0.3,0.4-0.8,0.1-1.1l-3-3.4l0.3-0.2c0,0,0.1-0.1,0.1-0.1
			c0.5,0,1.1-0.3,1.5-0.6c1.1-1,1.2-2.6,0.2-3.7c-1-1.1-2.6-1.2-3.7-0.2c-0.4,0.3-0.6,0.7-0.8,1.1c0,0.1-0.1,0.1-0.1,0.2l-0.3,0.3
			l-3.3-3.8c-0.3-0.3-0.8-0.4-1.1-0.1l-10.6,9.3c-0.3,0.2-0.3,0.6-0.1,0.9l3.4,3.9c-0.1,0-0.2,0.1-0.3,0.1c-0.5,0.1-0.9,0.4-1.2,0.8
			c-0.7,0.8-0.7,2-0.1,2.9C202.5,136.3,204.1,136.5,205.2,135.5z"/>
		<path class="st3" d="M167.5,26.1c-0.5-0.1-1.1-0.2-1.6-0.1c-0.2,0-0.4,0-0.5,0l2.1-7.5c0.2-0.6-0.2-1.1-0.7-1.3l-7.8-2.2l-0.2,0.9
			c-0.1,0.2-0.1,0.4,0,0.6c0,0.4,0,0.9-0.1,1.3c-0.5,1.9-2.5,3-4.4,2.4c-1.6-0.5-2.7-2.3-2.3-4c0.1-0.6,0.4-1.1,0.8-1.5
			c0.2-0.2,0.3-0.4,0.4-0.7l0.2-0.6l-7.9-2.2c-0.7-0.2-1.4,0.2-1.6,0.9l-1.9,7l-0.5-0.1c-0.1,0-0.1,0-0.2-0.1
			c-0.5-0.7-1.3-1.2-2.2-1.4c-2.2-0.6-4.5,0.7-5.2,2.9c-0.6,2.2,0.7,4.5,2.9,5.2c0.7,0.2,1.5,0.2,2.2,0c0.1,0,0.2,0,0.3,0.1l0.7,0.2
			l-2.2,7.8c-0.2,0.7,0.2,1.4,0.9,1.6l21.6,6c0.6,0.2,1.1-0.2,1.3-0.7l2.2-7.9c0.1,0.1,0.2,0.2,0.3,0.3c0.6,0.5,1.3,0.9,2.2,0.9
			c1.7,0.2,3.3-0.8,3.9-2.4C170.9,29.1,169.7,26.7,167.5,26.1z"/>
		<path class="st3" d="M5.8,106.9c0.5,0.2,1,0.2,1.5,0.2c0.2,0,0.3,0,0.5,0L5.3,114c-0.2,0.5,0.1,1.1,0.6,1.3l7.1,2.7l0.3-0.8
			c0.1-0.2,0.1-0.4,0.1-0.6c0-0.4,0.1-0.8,0.2-1.2c0.6-1.7,2.6-2.6,4.3-1.9c1.5,0.6,2.3,2.3,1.9,3.9c-0.2,0.6-0.5,1-0.8,1.4
			c-0.2,0.2-0.3,0.4-0.4,0.6l-0.2,0.6l7.2,2.7c0.6,0.2,1.3-0.1,1.5-0.7l2.4-6.4l0.5,0.2c0.1,0,0.1,0,0.2,0.1
			c0.4,0.7,1.1,1.2,1.9,1.5c2,0.8,4.3-0.3,5.1-2.3c0.8-2-0.3-4.3-2.3-5.1c-0.7-0.2-1.4-0.3-2-0.2c-0.1,0-0.2,0-0.3-0.1l-0.6-0.2
			l2.6-7.1c0.2-0.6-0.1-1.3-0.7-1.5L14,93.5c-0.5-0.2-1.1,0.1-1.3,0.6l-2.7,7.2c-0.1-0.1-0.2-0.2-0.3-0.3c-0.5-0.5-1.2-0.9-1.9-1.1
			c-1.6-0.3-3.2,0.5-3.9,1.9C2.9,103.9,3.8,106.2,5.8,106.9z"/>
	</g>
	<g id="Puzzle">
		<g>
			<g>
				<path class="st4" d="M109,91.6c1.8-0.1,3.3,0.4,4.8,1c0.7,0.3,1.4,0.5,2.2,0.5l1.9,0l0-21.4c0-2-1.7-3.7-3.7-3.7l-20.4,0.1v-0.4
					c0-0.9,0.2-1.7,0.6-2.5c1-2,1.4-4.4,1-6.9c-0.8-4.9-5-8.8-10-9.3c-6.9-0.8-12.7,4.6-12.7,11.3c0,1.6,0.3,3.2,1,4.6
					c0.3,0.7,0.5,1.5,0.5,2.3l0.1,1H73H49.7c-2,0-3.7,1.6-3.7,3.7v21h-1.8c-0.8,0-1.6-0.2-2.3-0.6c-1.9-0.9-4.3-1.3-6.6-0.9
					c-4.7,0.8-8.3,4.7-8.8,9.5c-0.7,6.5,4.4,12.1,10.7,12.1c1.5,0,3-0.3,4.3-0.9c0.7-0.3,1.4-0.5,2.2-0.5h2.2l0,25.6
					c0,1.6,1.3,3,3,3h65.7c1.7,0,3-2.1,3-3.7v-23.3H115c-0.6,0-1.2,0.1-1.8,0.4c-1.1,0.5-2.4,0.7-3.7,0.7c-5.6,0-10.2-4.6-9.9-10.3
					C99.7,98.7,104,91.9,109,91.6z"/>
				<g>
					<path class="st5" d="M109,91.6c0,0-0.1,0-0.2,0c-0.1,0-0.3,0-0.5,0.1c-0.5,0.1-1.1,0.3-1.9,0.7c-1.6,0.8-3.7,2.7-5.3,5.8
						c-0.8,1.6-1.5,3.4-1.6,5.6c0,1.1,0.1,2.2,0.5,3.3c0.3,1.1,0.9,2.2,1.7,3.2c0.8,1,1.8,1.8,3,2.5c1.2,0.6,2.5,1.1,4,1.2
						c1.4,0.1,2.9-0.1,4.3-0.6c0.7-0.3,1.5-0.5,2.3-0.4c0.8,0,1.6,0,2.4,0h0.1v0.1c0,3.7,0,7.6,0,11.7c0,2.1,0,4.2,0,6.4
						c0,1.1,0,2.2,0,3.3c0,0.6,0,1.1,0,1.7c0,0.3,0,0.6-0.1,0.9c-0.1,0.3-0.1,0.6-0.2,0.8c-0.2,0.5-0.5,1-0.9,1.5
						c-0.4,0.4-0.9,0.8-1.5,0.8c-0.3,0-0.6,0-0.9,0c-0.3,0-0.6,0-0.9,0c-0.6,0-1.2,0-1.8,0c-2.4,0-4.8,0-7.3,0c-4.9,0-10,0-15.3,0
						c-10.6,0-21.8,0-33.5,0c-1.5,0-2.9,0-4.4,0c-0.7,0-1.5,0-2.2,0c-0.8-0.1-1.5-0.4-2-1c-0.5-0.6-0.8-1.4-0.8-2.1
						c0-0.8,0-1.5,0-2.3c0-1.5,0-3,0-4.6c0-6.1,0-12.4,0-18.7l0.1,0.1c-0.5,0-0.9,0-1.4,0c-0.5,0-0.9,0-1.4,0
						c-0.5,0.1-0.9,0.2-1.4,0.3c-0.4,0.2-0.9,0.4-1.3,0.5c-1.8,0.6-3.8,0.7-5.8,0.2c-1.9-0.5-3.7-1.4-5.1-2.9
						c-0.7-0.7-1.3-1.5-1.8-2.4c-0.2-0.4-0.5-0.9-0.6-1.4c-0.1-0.2-0.2-0.5-0.3-0.7l-0.2-0.7c-0.6-2.4-0.4-5,0.7-7.2
						c1-2.2,2.8-4.1,4.9-5.2c1.1-0.6,2.2-0.9,3.4-1.1c1.2-0.2,2.4-0.1,3.6,0.1c0.6,0.1,1.2,0.3,1.7,0.5c0.3,0.1,0.6,0.2,0.8,0.3
						c0.3,0.1,0.5,0.3,0.8,0.3c1.1,0.4,2.3,0.3,3.5,0.3L46,92.7c0-4.5,0-9,0-13.4c0-2.2,0-4.4,0-6.6c0-0.5,0-1.1,0.1-1.6
						c0.1-0.5,0.3-1.1,0.6-1.5c0.6-0.9,1.7-1.5,2.8-1.5c8.6,0,16.9,0,24.8,0l-0.1,0.1c0-0.3-0.1-0.6-0.1-1v0v0
						c0-0.6-0.1-1.2-0.3-1.7c-0.1-0.3-0.2-0.5-0.3-0.8c-0.1-0.3-0.2-0.6-0.3-0.8c-0.4-1.1-0.5-2.3-0.5-3.5l0-0.9c0-0.1,0-0.3,0-0.4
						l0.1-0.4c0.1-0.3,0.1-0.6,0.2-0.9l0.2-0.8c0-0.1,0.1-0.3,0.1-0.4l0.2-0.4c0.1-0.3,0.2-0.5,0.3-0.8l0.4-0.8l0.5-0.7
						c0.7-0.9,1.4-1.8,2.3-2.5l0.3-0.3l0.4-0.2c0.2-0.2,0.5-0.3,0.7-0.5c0.5-0.2,1-0.5,1.5-0.7c1-0.4,2.1-0.6,3.2-0.8
						c0.5,0,1.1-0.1,1.6,0c0.3,0,0.5,0,0.8,0.1c0.3,0,0.5,0.1,0.8,0.1c2.1,0.4,4.1,1.4,5.6,2.8c1.5,1.4,2.7,3.2,3.2,5.1
						c0.6,1.9,0.6,3.9,0.2,5.8c-0.2,0.9-0.5,1.8-1,2.7c-0.2,0.4-0.3,0.9-0.4,1.3c-0.1,0.5-0.1,0.9-0.1,1.4L93.8,68
						c5.5,0,10.7,0,15.5-0.1c1.2,0,2.4,0,3.5,0c0.3,0,0.6,0,0.9,0c0.3,0,0.6,0,0.9,0c0.6,0.1,1.1,0.2,1.6,0.5c1,0.6,1.6,1.6,1.7,2.6
						c0.1,0.5,0,1.1,0,1.6c0,0.5,0,1,0,1.5c0,8,0,14.4,0,18.9v0h0c-0.8,0-1.5,0-2.2,0c-0.7,0-1.3-0.2-1.8-0.5
						c-1-0.5-1.9-0.8-2.7-0.9c-0.7-0.2-1.3-0.2-1.7-0.2c-0.2,0-0.3,0-0.4,0C109.1,91.6,109,91.6,109,91.6s0.2,0,0.5,0
						c0.4,0,0.9,0,1.7,0.2c0.7,0.1,1.6,0.4,2.7,0.9c0.5,0.2,1.1,0.4,1.8,0.5c0.7,0,1.4,0,2.2,0l0,0c0-4.5,0-10.8,0-18.9
						c0-0.5,0-1,0-1.5c0-0.5,0-1,0-1.6c-0.1-1-0.8-2-1.7-2.6c-0.5-0.3-1-0.5-1.6-0.5c-0.3,0-0.6,0-0.8,0c-0.3,0-0.6,0-0.9,0
						c-1.2,0-2.3,0-3.5,0c-4.8,0-10,0-15.5,0.1h-0.1v-0.1c0-0.5,0-0.9,0.1-1.4c0.1-0.5,0.2-0.9,0.4-1.3c0.4-0.8,0.7-1.7,1-2.7
						c0.4-1.9,0.4-3.9-0.2-5.8c-0.6-1.9-1.7-3.7-3.2-5c-1.5-1.4-3.4-2.4-5.5-2.8c-0.3,0-0.5-0.1-0.8-0.1c-0.3,0-0.5,0-0.8-0.1
						c-0.5-0.1-1.1,0-1.6,0c-1.1,0.1-2.1,0.3-3.2,0.8c-0.5,0.2-1,0.5-1.5,0.7c-0.2,0.1-0.5,0.3-0.7,0.4l-0.3,0.2l-0.3,0.3
						c-0.9,0.7-1.6,1.5-2.3,2.4l-0.5,0.7l-0.4,0.8c-0.1,0.2-0.2,0.5-0.3,0.8l-0.2,0.4c-0.1,0.1-0.1,0.3-0.1,0.4L73,57.7
						c-0.1,0.3-0.1,0.6-0.2,0.8L72.8,59c0,0.1,0,0.3,0,0.4l0,0.9c0,1.2,0.2,2.3,0.5,3.4c0.1,0.3,0.2,0.6,0.3,0.8
						c0.1,0.3,0.2,0.5,0.3,0.8c0.2,0.6,0.3,1.2,0.3,1.8v0c0,0.3,0.1,0.6,0.1,1l0,0.1h-0.1c-8,0-16.2,0-24.8,0
						c-1,0.1-2.1,0.6-2.7,1.5c-0.3,0.4-0.5,0.9-0.6,1.4c-0.1,0.5-0.1,1.1-0.1,1.6c0,2.2,0,4.4,0,6.6c0,4.4,0,8.9,0,13.4v0.1H46
						c-0.6,0-1.2,0-1.8,0c-0.6,0-1.2-0.1-1.8-0.3c-0.3-0.1-0.6-0.2-0.8-0.4c-0.3-0.1-0.5-0.2-0.8-0.3c-0.6-0.2-1.1-0.4-1.7-0.5
						c-1.2-0.2-2.3-0.2-3.5-0.1c-1.2,0.2-2.3,0.5-3.4,1.1c-2.1,1.1-3.9,2.9-4.9,5.1c-1,2.2-1.2,4.7-0.7,7.1l0.2,0.7
						c0.1,0.2,0.2,0.5,0.3,0.7c0.2,0.5,0.4,0.9,0.6,1.3c0.5,0.8,1.1,1.7,1.8,2.3c1.4,1.4,3.2,2.3,5,2.8c1.9,0.4,3.9,0.4,5.7-0.2
						c0.5-0.1,0.9-0.3,1.3-0.5c0.4-0.2,0.9-0.3,1.4-0.4c0.5-0.1,1,0,1.4,0c0.5,0,0.9,0,1.4,0H46v0.1c0,6.3,0,12.6,0,18.7
						c0,1.5,0,3.1,0,4.6c0,0.8,0,1.5,0,2.3c0,0.7,0.2,1.5,0.7,2c0.5,0.6,1.2,0.9,1.9,1c0.7,0,1.5,0,2.2,0c1.5,0,3,0,4.4,0
						c11.7,0,23,0,33.5,0c5.3,0,10.4,0,15.3,0c2.5,0,4.9,0,7.3,0c0.6,0,1.2,0,1.8,0c0.3,0,0.6,0,0.9,0c0.3,0,0.6,0,0.9,0
						c0.6-0.1,1.1-0.4,1.4-0.8c0.4-0.4,0.7-0.9,0.9-1.4c0.1-0.3,0.2-0.5,0.2-0.8c0-0.3,0.1-0.5,0.1-0.8c0-0.6,0-1.1,0-1.7
						c0-1.1,0-2.2,0-3.3c0-2.2,0-4.3,0-6.4c0-4.1,0-8.1,0-11.7l0.1,0.1c-0.8,0-1.6,0-2.4,0c-0.8,0-1.5,0.1-2.2,0.4
						c-1.4,0.5-2.9,0.7-4.4,0.6c-1.4-0.1-2.8-0.6-4-1.2c-1.2-0.7-2.2-1.5-3-2.5c-0.8-1-1.4-2.1-1.7-3.2c-0.3-1.1-0.5-2.2-0.4-3.3
						c0.1-2.2,0.8-4,1.6-5.6c1.6-3.1,3.7-5,5.3-5.8c0.8-0.4,1.5-0.6,1.9-0.7c0.2,0,0.4-0.1,0.5-0.1C109,91.6,109,91.6,109,91.6z"/>
				</g>
			</g>
			<g>
				<path class="st3" d="M195.1,92.5c-1.6,0-3.1,0.3-4.5,0.9c-0.5,0.2-1,0.4-1.5,0.4V71.3c0-1.7-1.3-3-3-3h-23.4V71
					c0,0.6,0.1,1.2,0.4,1.8c0.5,1.1,0.7,2.4,0.7,3.7c0,5.6-4.7,10.2-10.4,9.9c-5-0.2-9.2-4.2-9.5-9.2c-0.1-1.8,0.2-3.4,0.9-4.9
					c0.3-0.7,0.5-1.4,0.5-2.1v-1.9l-23.7-0.1c-2,0-3.7,1.7-3.7,3.7l0,20.9h-1.6c-0.2,0-0.4,0-0.6,0c-2-1.5-4.5-2.3-7.1-2.3
					c-6.7,0-12.1,5.4-12.1,12.1c0,6.7,5.4,12.1,12.1,12.1c2.2,0,4.2-0.6,6-1.6c0.3-0.1,0.7-0.1,1-0.1h2.1v23.3c0,2,1.7,3.7,3.7,3.7
					h64.9c1.7,0,3-1.3,3-3v-23.7c0.4,0.1,0.8,0.2,1.2,0.4c2,1,4.3,1.4,6.7,0.9c4.8-0.8,8.6-4.9,9.1-9.8
					C206.9,98.2,201.7,92.5,195.1,92.5z"/>
				<g>
					<path class="st5" d="M195.1,92.5c0,0,0.2,0,0.7,0c0.2,0,0.5,0,0.9,0.1c0.2,0,0.4,0.1,0.6,0.1c0.2,0,0.4,0.1,0.6,0.1
						c0.2,0.1,0.5,0.1,0.7,0.2c0.2,0.1,0.5,0.2,0.8,0.3c0.1,0.1,0.3,0.1,0.4,0.2c0.1,0.1,0.3,0.1,0.4,0.2c0.3,0.1,0.6,0.3,0.8,0.5
						c1.1,0.7,2.4,1.8,3.3,3.2c1,1.5,1.8,3.3,1.9,5.5c0,0.3,0,0.5,0,0.8c0,0.3,0,0.6,0,0.8c0,0.1,0,0.3,0,0.4c0,0.1,0,0.3-0.1,0.4
						c0,0.1,0,0.3-0.1,0.4c0,0.1-0.1,0.3-0.1,0.4c-0.3,1.1-0.7,2.3-1.4,3.4c-0.7,1.1-1.6,2.1-2.7,2.9c-1.1,0.8-2.4,1.5-3.8,1.9
						c-0.3,0.1-0.7,0.2-1.1,0.2c-0.4,0.1-0.7,0.1-1.1,0.1c-0.8,0.1-1.5,0-2.3-0.1c-0.8-0.1-1.5-0.3-2.3-0.6
						c-0.8-0.3-1.4-0.7-2.2-0.9l0.1-0.1c0,3.6,0,7.5,0,11.6c0,2,0,4.1,0,6.3c0,1.1,0,2.2,0,3.3c0,0.5,0,1.1,0,1.7c0,0.3,0,0.6,0,0.8
						c0,0.1,0,0.3,0,0.4c0,0.1,0,0.3-0.1,0.4c-0.3,1.1-1.2,2.1-2.4,2.3c-0.3,0.1-0.6,0.1-0.9,0.1c-0.3,0-0.6,0-0.9,0
						c-0.6,0-1.2,0-1.7,0c-2.3,0-4.7,0-7.1,0c-4.8,0-9.9,0-15.1,0c-10.4,0-21.4,0-32.9,0c-1.4,0-2.9,0-4.3,0c-0.7,0-1.5,0-2.2,0
						c-0.4,0-0.7,0-1.1-0.1c-0.4-0.1-0.7-0.2-1.1-0.4c-0.7-0.4-1.2-0.9-1.5-1.6c-0.2-0.3-0.3-0.7-0.4-1.1c-0.1-0.4-0.1-0.8-0.1-1.1
						c0-1.5,0-3,0-4.5c0-6,0-12.1,0-18.3l0.1,0.1c-0.5,0-1,0-1.5,0c-0.3,0-0.5,0-0.8,0c-0.3,0-0.5,0-0.8,0.1l0,0
						c-1.5,0.9-3.2,1.4-4.9,1.6c-1.8,0.1-3.6-0.1-5.3-0.7c-1.7-0.6-3.3-1.6-4.5-2.9c-1.3-1.3-2.3-2.9-2.9-4.6
						c-0.4-1.2-0.7-2.6-0.7-3.9c0-1.3,0.2-2.6,0.6-3.9c0.4-1.2,1-2.4,1.8-3.5c0.4-0.5,0.8-1,1.3-1.5l0.7-0.7
						c0.2-0.2,0.5-0.4,0.8-0.6c1.1-0.7,2.2-1.3,3.4-1.7c1.2-0.4,2.5-0.6,3.8-0.6c2.5,0,5.1,0.9,7.1,2.3l0,0c0.7,0,1.4,0,2.2,0
						l-0.1,0.1c0-4.5,0-8.9,0-13.2c0-2.2,0-4.3,0-6.5v-0.8c0-0.3,0-0.5,0-0.8c0.1-0.5,0.2-1.1,0.5-1.5c0.6-0.9,1.5-1.6,2.6-1.8
						c0.5-0.1,1.1,0,1.6-0.1c0.5,0,1,0,1.6,0c1,0,2.1,0,3.1,0c2.1,0,4.1,0,6.2,0c4.1,0,8.1,0,12,0h0.1v0.1c0,0.6,0,1.1,0,1.7
						c0,0.6-0.1,1.1-0.2,1.7c-0.1,0.3-0.2,0.5-0.3,0.8c-0.1,0.2-0.2,0.5-0.3,0.8c-0.2,0.5-0.3,1-0.4,1.6c-0.4,2.1,0,4.4,1,6.2
						c0.5,0.9,1.1,1.8,1.9,2.5c0.7,0.7,1.6,1.3,2.5,1.8c1.8,1,3.9,1.2,5.9,1c2-0.3,3.8-1.2,5.2-2.5c0.7-0.7,1.3-1.4,1.8-2.2
						c0.5-0.8,0.9-1.7,1.1-2.6c0.5-1.8,0.4-3.7-0.1-5.4c-0.1-0.4-0.3-0.8-0.4-1.3c-0.1-0.4-0.2-0.9-0.2-1.3c0-0.9,0-1.8,0-2.6v-0.1
						h0.1c6.2,0,11.9,0,17.2,0c1.3,0,2.6,0,3.9,0c0.6,0,1.2,0,1.9,0c0.3,0,0.6,0,0.9,0c0.3,0,0.6,0.1,0.9,0.2c0.6,0.2,1,0.7,1.3,1.2
						c0.3,0.5,0.5,1.1,0.5,1.7c0,1.1,0,2.2,0,3.3c0,8.6,0,15.1,0,19.2l0,0c1.1-0.1,1.9-0.7,2.6-0.9c0.7-0.2,1.4-0.4,1.9-0.4
						c0.5-0.1,0.9-0.1,1.1-0.1C195,92.5,195.1,92.5,195.1,92.5s-0.1,0-0.4,0c-0.2,0-0.6,0-1.1,0.1c-0.5,0.1-1.1,0.2-1.9,0.4
						c-0.7,0.2-1.5,0.7-2.6,0.9l0,0v0c0-4.1,0-10.7,0-19.2c0-1.1,0-2.2,0-3.3c0-0.6-0.2-1.1-0.5-1.6c-0.3-0.5-0.8-0.9-1.3-1.1
						c-0.3-0.1-0.6-0.2-0.9-0.2c-0.3,0-0.6,0-0.9,0c-0.6,0-1.2,0-1.9,0c-1.3,0-2.5,0-3.9,0c-5.3,0-11,0-17.2,0l0.1-0.1
						c0,0.9,0,1.7,0,2.6c0,0.4,0.1,0.9,0.2,1.3c0.1,0.4,0.3,0.8,0.4,1.3c0.5,1.7,0.6,3.7,0.1,5.5c-0.2,0.9-0.6,1.8-1.1,2.6
						c-0.5,0.8-1.1,1.6-1.8,2.2c-1.4,1.3-3.3,2.2-5.3,2.5c-2,0.3-4.1,0-6-1c-0.9-0.5-1.8-1.1-2.5-1.8c-0.8-0.7-1.4-1.6-1.9-2.6
						c-1-1.9-1.4-4.1-1-6.3c0.1-0.5,0.2-1.1,0.4-1.6c0.1-0.3,0.2-0.5,0.3-0.8c0.1-0.3,0.2-0.5,0.3-0.8c0.2-0.5,0.2-1.1,0.2-1.6
						c0-0.6,0-1.1,0-1.7l0.1,0.1c-3.9,0-7.9,0-12,0c-2,0-4.1,0-6.2,0c-1,0-2.1,0-3.1,0c-0.5,0-1,0-1.6,0c-0.5,0-1.1,0-1.6,0.1
						c-1,0.2-1.9,0.8-2.5,1.7c-0.3,0.4-0.4,0.9-0.5,1.5c0,0.3,0,0.5,0,0.8v0.8c0,2.1,0,4.3,0,6.5c0,4.3,0,8.8,0,13.2v0.1h-0.1
						c-0.7,0-1.4,0-2.2,0h0l0,0c-2-1.5-4.5-2.3-7-2.3c-1.3,0-2.5,0.2-3.7,0.6c-1.2,0.4-2.3,1-3.4,1.7c-0.3,0.2-0.5,0.4-0.8,0.6
						l-0.7,0.6c-0.4,0.5-0.9,0.9-1.2,1.5c-0.7,1-1.4,2.2-1.8,3.4c-0.4,1.2-0.6,2.5-0.6,3.8c0,1.3,0.2,2.6,0.7,3.8
						c0.6,1.7,1.6,3.3,2.8,4.6c1.3,1.3,2.8,2.2,4.5,2.8c1.7,0.6,3.4,0.8,5.2,0.7c1.7-0.2,3.4-0.7,4.9-1.5l0,0l0,0
						c0.3-0.1,0.5-0.1,0.8-0.1c0.3,0,0.5,0,0.8,0c0.5,0,1,0,1.5,0h0.1v0.1c0,6.2,0,12.3,0,18.3c0,1.5,0,3,0,4.5c0,0.4,0,0.7,0.1,1.1
						c0.1,0.4,0.2,0.7,0.3,1c0.3,0.6,0.9,1.2,1.5,1.5c0.3,0.2,0.7,0.3,1,0.4c0.4,0.1,0.7,0.1,1.1,0.1c0.7,0,1.5,0,2.2,0
						c1.5,0,2.9,0,4.3,0c11.5,0,22.5,0,32.9,0c5.2,0,10.2,0,15.1,0c2.4,0,4.8,0,7.1,0c0.6,0,1.2,0,1.7,0c0.3,0,0.6,0,0.9,0
						c0.3,0,0.6,0,0.8-0.1c1.1-0.2,2-1.1,2.3-2.2c0.1-0.3,0.1-0.5,0.1-0.8c0-0.3,0-0.6,0-0.8c0-0.6,0-1.1,0-1.7c0-1.1,0-2.2,0-3.3
						c0-2.1,0-4.2,0-6.3c0-4.1,0-8,0-11.6v-0.1l0.1,0c0.8,0.2,1.5,0.6,2.2,0.9c0.7,0.3,1.5,0.5,2.3,0.6c0.8,0.1,1.5,0.1,2.3,0.1
						c0.4,0,0.7-0.1,1.1-0.1c0.4-0.1,0.7-0.1,1.1-0.2c1.4-0.4,2.7-1,3.7-1.9c1.1-0.8,2-1.8,2.6-2.9c0.7-1.1,1.1-2.2,1.4-3.4
						c0-0.1,0.1-0.3,0.1-0.4c0-0.1,0-0.3,0.1-0.4c0-0.1,0-0.3,0.1-0.4c0-0.1,0-0.3,0-0.4c0-0.3,0-0.6,0-0.8c0-0.3,0-0.5,0-0.8
						c-0.1-2.2-0.9-4-1.9-5.5c-1-1.5-2.2-2.5-3.3-3.2c-0.3-0.2-0.6-0.3-0.8-0.5c-0.1-0.1-0.3-0.1-0.4-0.2c-0.1-0.1-0.3-0.1-0.4-0.2
						c-0.3-0.1-0.5-0.2-0.8-0.3c-0.2-0.1-0.5-0.1-0.7-0.2c-0.2-0.1-0.4-0.1-0.6-0.1c-0.2,0-0.4-0.1-0.6-0.1
						c-0.3-0.1-0.6-0.1-0.9-0.1C195.3,92.5,195.1,92.5,195.1,92.5z"/>
				</g>
			</g>
		</g>
	</g>
	<g id="Characters">
		<g>
			<path class="st6" d="M116.1,96.6c0,0,1.1-0.5,2-0.3c0.9,0.2,4.4,2.4,4.4,2.4l2.8-0.5l1.6,7.8l-10.7,4.5L116.1,96.6L116.1,96.6z"
				/>
			<path class="st7" d="M108.1,99.3c0,0,2.5-0.3,3.3-0.8s3-2.3,3.5-2.3s2.1,0.3,2.1,0.3l-0.7,2c0,0,3.2,2,4.2,2.7s4,3.9,4.1,4.7
				c0.1,0.8-0.1,1.7-0.5,2c-0.4,0.3-1.7-0.3-1.7-0.3s0.2,0.7-0.3,1.4c-0.5,0.7-1.7,0.4-1.7,0.4s-0.1,1.1-0.7,1.3
				c-0.5,0.2-1.8-0.4-1.8-0.4s-0.4,1-0.8,1.1c-0.4,0.1-1.7-0.7-1.7-0.7s-5.5-3.9-6.7-4.5c-1.2-0.6-1.6-0.6-1.6-0.6L108.1,99.3z"/>
			<g>
				<path class="st8" d="M117.9,110.5c0,0,0-0.1-0.1-0.2c-0.1-0.1-0.2-0.3-0.3-0.5c-0.2-0.4-0.5-0.8-0.4-0.8c0,0,0.3,0.3,0.6,0.7
					c0.1,0.2,0.2,0.4,0.2,0.6C118,110.4,118,110.5,117.9,110.5z"/>
			</g>
			<g>
				<path class="st8" d="M120.2,109.8c0,0-0.3-0.5-0.7-1c-0.4-0.6-0.8-0.9-0.7-1c0,0,0.5,0.3,0.9,0.9
					C120.1,109.2,120.3,109.8,120.2,109.8z"/>
			</g>
			<g>
				<path class="st8" d="M122.4,107.8c0,0-0.2-0.6-0.6-1.2c-0.4-0.6-0.8-1.1-0.8-1.1c0,0,0.5,0.3,0.9,1
					C122.4,107.2,122.5,107.8,122.4,107.8z"/>
			</g>
			<g>
				<path class="st8" d="M120.8,103.5c0,0,0.2,0.4,0.2,0.9c0,0.5-0.1,0.9-0.1,0.9c0,0,0-0.4-0.1-0.9
					C120.8,104,120.8,103.6,120.8,103.5z"/>
			</g>
			<path class="st6" d="M112.8,100.5c0,0,0.9-2.7,1.2-3.1c0.3-0.3,3.2-1.1,3.2-1.1l0.9,2.3l-0.6,0.7l-1.4-0.1
				C116.1,99.2,115.2,101.4,112.8,100.5z"/>
			<path class="st6" d="M107.6,105.9c0,0-0.4,0.3,0,1c0.4,0.7,1.5,0.2,1.8,0c0,0-0.5,1.2,0.1,1.6c0.7,0.4,1.4,0.3,1.4,0.3
				s0,0.7,0.9,1.2c0.9,0.5,1.2,0,1.2,0s0.1,1.2,1.2,1.3c1.1,0.1,1.4-0.3,1.4-0.3l-0.5-0.7c0,0,0.6-1.3,0.1-1.8
				c-0.5-0.5-1.3-0.5-1.3-0.5s0.2-1.1-0.4-1.4c-1.1-0.6-1.6,0.5-1.6,0.5s-0.1-1.2-1-1.2c-0.9,0-1.4,0.6-1.4,0.6L107.6,105.9z"/>
			<g>
				<path class="st9" d="M112,107.1c0,0-0.1,0.4-0.4,0.9c-0.3,0.5-0.6,0.8-0.6,0.8s0.2-0.4,0.5-0.9C111.7,107.4,111.9,107,112,107.1
					z"/>
			</g>
			<g>
				<path class="st9" d="M114,108.1c0,0-0.1,0.5-0.5,0.9c-0.3,0.5-0.7,0.8-0.7,0.8c0,0,0.3-0.4,0.6-0.9
					C113.8,108.5,114,108.1,114,108.1z"/>
			</g>
		</g>
		<g>
			<g>
				<g>
					<path class="st5" d="M92.8,121.1h-5.2L86.3,140h5.2c0.9-2.9,3.1-17.9,3.1-17.9L92.8,121.1z"/>
				</g>
				<path class="st5" d="M63.4,121.1c0,0-3.3,7.8-3,11c0.3,3.2,2.2,7.9,2.2,7.9h25.7c0,0,0.7-2.6,1.3-6.5c0.6-3.9,2.1-12.4,2.1-12.4
					L63.4,121.1L63.4,121.1z"/>
			</g>
			<g>
				<g>
					<g>
						<path class="st5" d="M97.4,45.8c-0.9-1.1-1.9-2.2-2.2-3.5C95,41,95.6,39.7,95,38.5c-0.7-1.4-2.7-1.7-3.6-3
							c-0.4-0.6-0.5-1.4-0.9-2.1c-0.7-1.1-2.2-1.4-3.5-1.4c-1.3,0.1-2.6,0.5-3.9,0.5c-1.8,0-3.6-0.6-5.3-0.2
							c-1.9,0.5-3.2,2.1-4.5,3.6l-1.7,1.8c-0.3,0.3-0.7,0.6-1.1,0.8c-0.7,0.4-1.5,0.7-2.1,1.2c-1.3,1.1-1.3,3.4,0,4.6
							C67,44.7,66,46.1,66,47.5c0,0.8,0.3,1.6,0.5,2.3c0.2,0.8,0.3,1.6-0.1,2.3c-0.4,0.7-1.3,1.2-2,0.7c0.2,1,0.9,2,1.8,2.5
							c-0.4,0.4-0.9,0.6-1.5,0.6c1.3,3.5,5.1,5.4,8.8,5.6c3.7,0.2,7.3-1,10.8-2.3l10.1-2.1c0.9-0.2,1.3-1.2,1.3-2.1
							c0-0.9-0.2-1.8,0.2-2.7c0.5-1.1,1.9-1.7,2.4-2.8C99,48.4,98.3,46.9,97.4,45.8z"/>
					</g>
				</g>
				<g>
					<g>
						<g>
							<g>
								<g>
									<g>
										<g>
											<g>
												<g>
													<g>
														<path class="st5" d="M73.4,53.8c-0.6-2.3-1.2-4.6-1.4-6.9c-0.2-2.4,0-4.8,0.9-7c0.1-0.3,1.3-2.5,1.7-2.5
															c0.3,0-0.5,2.1-0.4,2.3c1.1,2.2,1.3,4.7,1,7.1C74.9,49.3,74.3,51.5,73.4,53.8"/>
													</g>
												</g>
											</g>
										</g>
									</g>
								</g>
								<g>
									<path class="st7" d="M73.7,44.8c0.1-5.9,3.7-10.8,9.6-10.5l0.5,0.1c5.5,0.6,9.6,5.3,9.5,10.8c-0.1,5.1-0.3,10.8-0.7,13.5
										c-0.7,5.6-6.4,5.9-6.4,5.9c0,0-0.2,9.3-0.2,9.3l-13.5-9.3L73.7,44.8z"/>
								</g>
								<g>
									<g>
										<g>
											<g>
												<g>
													<g>
														<g>
															<g>
																<path class="st8" d="M86.2,64.6c0,0-3.6-0.2-7.1-3c0,0,1.3,4.8,7,4.9L86.2,64.6z"/>
															</g>
														</g>
													</g>
												</g>
											</g>
										</g>
									</g>
								</g>
								<g>
									<g>
										<g>
											<g>
												<g>
													<g>
														<g>
															<g>
																<g>
																	<g>
																		<g>
																			<g>
																				<g>
																					<g>
																						<path class="st5" d="M91.3,49.5c0,0.4-0.4,0.8-0.9,0.7c-0.4,0-0.8-0.4-0.8-0.8c0-0.4,0.4-0.8,0.9-0.7
																							C91,48.7,91.3,49.1,91.3,49.5z"/>
																					</g>
																				</g>
																			</g>
																		</g>
																	</g>
																</g>
															</g>
														</g>
													</g>
												</g>
											</g>
										</g>
									</g>
								</g>
								<g>
									<g>
										<g>
											<g>
												<g>
													<g>
														<g>
															<g>
																<g>
																	<g>
																		<g>
																			<g>
																				<g>
																					<g>
																						<g>
																							<path class="st5" d="M91.8,47.3c-0.1,0.1-0.7-0.4-1.5-0.5c-0.9-0.1-1.6,0.3-1.6,0.2c0-0.1,0.1-0.2,0.4-0.4
																								c0.3-0.2,0.8-0.3,1.3-0.3c0.5,0.1,1,0.3,1.2,0.5C91.8,47.1,91.9,47.3,91.8,47.3z"/>
																						</g>
																					</g>
																				</g>
																			</g>
																		</g>
																	</g>
																</g>
															</g>
														</g>
													</g>
												</g>
											</g>
										</g>
									</g>
								</g>
								<g>
									<g>
										<g>
											<g>
												<g>
													<g>
														<g>
															<g>
																<g>
																	<g>
																		<g>
																			<g>
																				<g>
																					<g>
																						<path class="st5" d="M83.4,49.5c0,0.4-0.4,0.8-0.9,0.7c-0.4,0-0.8-0.4-0.8-0.8c0-0.4,0.4-0.8,0.9-0.7
																							S83.5,49.1,83.4,49.5z"/>
																					</g>
																				</g>
																			</g>
																		</g>
																	</g>
																</g>
															</g>
														</g>
													</g>
												</g>
											</g>
										</g>
									</g>
								</g>
								<g>
									<g>
										<g>
											<g>
												<g>
													<g>
														<g>
															<g>
																<g>
																	<g>
																		<g>
																			<g>
																				<g>
																					<g>
																						<g>
																							<path class="st5" d="M83.3,46.8c-0.1,0.1-0.7-0.4-1.5-0.5c-0.9-0.1-1.6,0.3-1.6,0.2c0-0.1,0.1-0.2,0.4-0.4
																								c0.3-0.2,0.8-0.3,1.3-0.3c0.5,0.1,1,0.3,1.2,0.5C83.2,46.5,83.3,46.7,83.3,46.8z"/>
																						</g>
																					</g>
																				</g>
																			</g>
																		</g>
																	</g>
																</g>
															</g>
														</g>
													</g>
												</g>
											</g>
										</g>
									</g>
								</g>
								<g>
									<g>
										<g>
											<g>
												<g>
													<g>
														<g>
															<g>
																<g>
																	<g>
																		<g>
																			<g>
																				<g>
																					<g>
																						<path class="st5" d="M85.7,53.8c0-0.1,0.6-0.1,1.4-0.1c0.2,0,0.4,0,0.5-0.2c0.1-0.2,0-0.4-0.1-0.7
																							c-0.2-0.6-0.3-1.1-0.5-1.8c-0.7-2.5-1.1-4.6-1-4.6c0.1,0,0.7,2,1.4,4.5c0.2,0.6,0.3,1.2,0.4,1.8
																							c0.1,0.3,0.2,0.6,0,0.9c-0.1,0.2-0.3,0.3-0.4,0.3c-0.1,0-0.3,0-0.4,0C86.2,53.9,85.7,53.8,85.7,53.8z"/>
																					</g>
																				</g>
																			</g>
																		</g>
																	</g>
																</g>
															</g>
														</g>
													</g>
												</g>
											</g>
										</g>
									</g>
								</g>
								<g>
									<g>
										<g>
											<g>
												<g>
													<g>
														<g>
															<g>
																<g>
																	<g>
																		<g>
																			<g>
																				<g>
																					<g>
																						<path class="st5" d="M83.1,54.1c0.1,0,0,0.9,0.8,1.7c0.7,0.8,1.8,0.8,1.7,0.9c0,0.1-0.2,0.2-0.7,0.1
																							c-0.4,0-1-0.2-1.5-0.7c-0.4-0.5-0.6-1-0.6-1.4C82.9,54.3,83,54.1,83.1,54.1z"/>
																					</g>
																				</g>
																			</g>
																		</g>
																	</g>
																</g>
															</g>
														</g>
													</g>
												</g>
											</g>
										</g>
									</g>
								</g>
								<g>
									<g>
										<g>
											<g>
												<g>
													<g>
														<g>
															<g>
																<g>
																	<g>
																		<path class="st5" d="M83.6,43.3c-0.1,0.2-1,0-2,0c-1,0-1.9,0.2-2,0c-0.1-0.1,0.1-0.3,0.5-0.5
																			c0.4-0.2,0.9-0.4,1.5-0.4c0.6,0,1.2,0.2,1.5,0.3C83.5,42.9,83.6,43.1,83.6,43.3z"/>
																	</g>
																</g>
															</g>
														</g>
													</g>
												</g>
											</g>
										</g>
									</g>
								</g>
								<g>
									<g>
										<g>
											<g>
												<g>
													<g>
														<g>
															<g>
																<g>
																	<g>
																		<path class="st5" d="M91.8,44.4c-0.2,0.2-0.8-0.1-1.5-0.2c-0.7-0.1-1.3,0-1.5-0.2c-0.1-0.1,0.1-0.3,0.4-0.5
																			c0.3-0.2,0.7-0.3,1.2-0.2c0.5,0.1,0.9,0.3,1.1,0.5C91.8,44.1,91.8,44.3,91.8,44.4z"/>
																	</g>
																</g>
															</g>
														</g>
													</g>
												</g>
											</g>
										</g>
									</g>
								</g>
								<g>
									<g>
										<g>
											<g>
												<g>
													<g>
														<path class="st7" d="M73.7,49c-0.1-0.1-3.8-1.6-4.1,2.3s3.7,3.4,3.7,3.3C73.3,54.5,73.7,49,73.7,49z"/>
													</g>
												</g>
											</g>
										</g>
									</g>
								</g>
								<g>
									<g>
										<g>
											<g>
												<g>
													<g>
														<g>
															<path class="st8" d="M72.2,53c0,0-0.1,0-0.2,0.1c-0.1,0-0.3,0.1-0.5,0c-0.4-0.2-0.7-0.9-0.7-1.6c0-0.4,0.1-0.7,0.3-1
																c0.1-0.3,0.3-0.5,0.5-0.5c0.2,0,0.3,0.1,0.4,0.2c0,0.1,0,0.2,0,0.2c0,0,0.1-0.1,0.1-0.2c0-0.1-0.1-0.2-0.1-0.3
																c-0.1-0.1-0.2-0.1-0.4-0.1c-0.3,0-0.6,0.3-0.8,0.6c-0.2,0.3-0.3,0.7-0.3,1.1c0,0.8,0.3,1.5,0.9,1.7
																c0.3,0.1,0.5,0,0.6-0.1C72.2,53.1,72.2,53,72.2,53z"/>
														</g>
													</g>
												</g>
											</g>
										</g>
									</g>
								</g>
								<g>
									<g>
										<g>
											<g>
												<g>
													<g>
														<path class="st5" d="M91.2,38.5c0.7-0.3-1.1-2.5-2.6-3.3c-2.3-1.2-5.8-2.1-8-1.6c-2.6,0.6-4.9,1.7-6.3,4
															s-2.1,5-2.2,7.7c0,0.8,0,1.7,0.4,2.4c0.5,0.9,1.5,1.5,1.4,2.7c0,0.4,0.1,0.9,0.3,1.2c0.7,0.8,1.6,0.1,2-0.5
															c1-1.5,1.2-3.3,1.4-5c0.1-1.2,0.3-2.5,0-3.7c-0.1-0.7-0.4-1.3-0.5-2c-0.1-0.7,0-1.4,0.4-1.9c0.1-0.1,0.2-0.2,0.3-0.3
															c1.2-0.9,2.7-1.1,4.1-0.5c2.1,0.9,5.8,2.3,6.8,1.6c1.5-1,1.9-1.7,1.9-1.7L91.2,38.5z"/>
													</g>
												</g>
											</g>
										</g>
									</g>
								</g>
							</g>
						</g>
						<g>
							<g>
								<g>
									<g>
										<g>
											<g>
												<path class="st5" d="M80.8,33.1c2.2-0.6,4.6-0.4,6.5,0.8c1,0.6,1.9,1.6,2.2,2.7c0.3,1.2-0.3,2.6-1.5,2.9l-0.1,0
													c-1.7,0.5-2.8,0.2-4.4-0.5c-1.4-0.6-2.5-1.5-3.9-2.1c-1.4-0.6-3.1-0.8-4.6-0.4C76.7,35,78.6,33.7,80.8,33.1z"/>
											</g>
										</g>
									</g>
								</g>
							</g>
						</g>
					</g>
				</g>
				<g>
					<path class="st10" d="M81.8,32.5c0,0,0.1,0,0.4,0c0.3,0,0.6,0.1,1,0.3s0.9,0.4,1.4,0.7c0.5,0.3,1,0.8,1.4,1.4
						c0.4,0.6,0.6,1.2,0.8,1.8c0.1,0.6,0.2,1.1,0.2,1.6c0,0.5,0,0.8,0,1.1c0,0.3,0,0.4,0,0.4c0,0,0-0.1,0-0.4c0-0.3,0-0.6-0.1-1.1
						c0-0.4-0.1-1-0.3-1.6c-0.2-0.6-0.4-1.2-0.8-1.8c-0.4-0.6-0.9-1-1.4-1.3c-0.5-0.3-1-0.6-1.4-0.8C82.4,32.5,81.8,32.5,81.8,32.5z
						"/>
				</g>
				<g>
					<path class="st10" d="M85.4,32.2c0,0,0.1,0,0.3,0.1c0.1,0,0.2,0.1,0.4,0.1c0.1,0.1,0.3,0.2,0.5,0.2c0.7,0.4,1.5,1.2,2,2.4
						c0.1,0.3,0.2,0.6,0.3,0.9c0.1,0.3,0.1,0.6,0.1,0.8c0,0.3,0,0.5,0,0.8c0,0.2,0,0.5-0.1,0.7c0,0.2-0.1,0.4-0.1,0.5
						c-0.1,0.1-0.1,0.3-0.2,0.4c-0.1,0.2-0.2,0.3-0.2,0.3c0,0,0.2-0.4,0.4-1.2c0-0.2,0-0.4,0.1-0.6c0-0.2,0-0.5,0-0.7
						c0-0.3-0.1-0.5-0.1-0.8c-0.1-0.3-0.2-0.6-0.3-0.8c-0.5-1.1-1.3-1.9-1.9-2.3c-0.2-0.1-0.3-0.2-0.5-0.3c-0.1-0.1-0.3-0.1-0.4-0.2
						C85.5,32.3,85.4,32.2,85.4,32.2z"/>
				</g>
			</g>
			<g>
				<path class="st10" d="M87.9,73c0,0.5,2.7,12.3,3.7,15.1c1,2.9,4.3,31.8,3.8,33.8c-0.4,2.1-1.5,2-1.5,2s-26.1-1.6-28.9-1.4
					c-2.8,0.2-4,0.2-4.7-3c-0.7-3.2,0-19.9-0.6-23.9c-0.6-4-0.6-6-0.8-12c-0.2-5.2,1-9.4,3.4-12.4c2.5-3,7.9-6,7.9-6l1.9-2.8
					l13.7,7.3l0.3-1.7l0.8,2.6L87.9,73z"/>
				<g class="st11">
					<path d="M93.8,108.7c-0.2-0.6-1-0.7-1.6-0.8c-5.8-0.6-11.9-2.1-16.1-6.1c-1.7-1.6-3-3.5-4.2-5.4c-2.8-4.2-5.4-8.5-7.9-12.7
						l-2,0.8c1.2,6,2.4,10.4,4.5,15.4c2,5,3.6,9.8,8.7,11.4c3.3,1,9.6,0.2,13,0c1.4-0.1,2.9-0.3,4.3-0.7c0.4-0.1,0.8-0.3,1.2-0.6
						S94,109.1,93.8,108.7z"/>
				</g>
				<g>
					<path class="st10" d="M61.2,82.9c0.2,0.3,11.8,25.1,17,26.1c5.2,1,21.3,1.3,24.5,0.7c3.1-0.6,6.2-1.2,6.2-1.2s2.3-5.4,0.2-10
						l-4.3,0.1c0,0-12.1-0.6-13.8-1.1c-1.7-0.5-3.2-2.1-4.7-2l-9.2-21.3c0,0-6-5.5-10.2-3.8C62.7,72.1,60,80.7,61.2,82.9z"/>
					<g>
						<path class="st5" d="M105.1,109.4c0,0,0-0.2,0.1-0.4c0.1-0.3,0.2-0.7,0.2-1.1c0.1-0.5,0.2-1.1,0.2-1.7c0.1-0.6,0.1-1.4,0-2.1
							c-0.1-1.5-0.3-2.8-0.6-3.8c-0.1-0.5-0.2-0.8-0.3-1.1c-0.1-0.3-0.1-0.4-0.1-0.4c0,0,0.1,0.1,0.2,0.4c0.1,0.3,0.2,0.6,0.4,1.1
							c0.3,0.9,0.6,2.3,0.6,3.8c0,0.8,0,1.5-0.1,2.1c-0.1,0.6-0.2,1.2-0.3,1.7c-0.1,0.5-0.2,0.9-0.3,1.1
							C105.2,109.2,105.1,109.4,105.1,109.4z"/>
					</g>
					<g>
						<path class="st5" d="M77.1,74.2c0,0,0.1,0.1,0.2,0.4c0.1,0.3,0.3,0.6,0.5,1.1c0.4,1,1.1,2.4,1.9,4.3c1.6,3.7,3.9,9,6.7,15.5
							l-0.1,0c0.7,0,1.4,0.3,2,0.6c0.6,0.3,1.2,0.8,1.9,1.1c0.7,0.3,1.4,0.4,2.2,0.5c0.8,0.1,1.5,0.2,2.3,0.2
							c3.2,0.3,6.5,0.5,10,0.7h0c1.4,0,2.8-0.1,4.3-0.1l0.1,0l0,0c0.7,1.5,0.9,3.3,0.9,5c-0.1,1.7-0.4,3.5-1.1,5.1l0,0l0,0
							c-0.9,0.2-1.8,0.3-2.8,0.5c-1,0.2-2,0.4-3,0.6c-1,0.2-2,0.3-3,0.3c-2,0.1-4,0.1-5.9,0.1c-1.9,0-3.8-0.1-5.7-0.1
							c-1.9-0.1-3.7-0.2-5.5-0.3c-0.9-0.1-1.8-0.1-2.6-0.2c-0.9-0.1-1.7-0.2-2.5-0.4c-0.4-0.2-0.8-0.4-1.1-0.6
							c-0.3-0.3-0.6-0.5-0.9-0.8c-0.6-0.6-1.1-1.2-1.6-1.8c-2-2.5-3.5-5-4.9-7.3c-2.7-4.7-4.7-8.6-6-11.3c-0.7-1.4-1.2-2.4-1.5-3.1
							c-0.3-0.7-0.5-1.1-0.5-1.1s0.1,0.1,0.1,0.3c0.1,0.2,0.2,0.5,0.4,0.8c0.4,0.7,0.9,1.8,1.6,3.1c1.4,2.7,3.4,6.6,6.1,11.2
							c1.4,2.3,2.9,4.8,4.9,7.3c0.5,0.6,1,1.2,1.6,1.8c0.3,0.3,0.6,0.6,0.9,0.8c0.3,0.2,0.7,0.5,1.1,0.6c0.8,0.2,1.7,0.3,2.5,0.4
							c0.9,0.1,1.7,0.2,2.6,0.2c1.8,0.1,3.6,0.2,5.5,0.3c1.9,0.1,3.8,0.1,5.7,0.1c1.9,0,3.9,0,5.9-0.1c1,0,2-0.1,3-0.3
							c1-0.2,2-0.4,3-0.6c0.9-0.2,1.9-0.3,2.8-0.5l-0.1,0c0.6-1.6,1-3.4,1.1-5.1c0.1-1.7-0.2-3.4-0.9-4.9l0.1,0
							c-1.5,0-3,0.1-4.3,0.1h0h0c-3.5-0.2-6.8-0.4-10-0.7c-0.8-0.1-1.6-0.1-2.3-0.2c-0.4,0-0.8-0.1-1.1-0.2
							c-0.4-0.1-0.7-0.2-1.1-0.4c-0.7-0.3-1.3-0.7-1.9-1.1c-0.6-0.3-1.3-0.6-2-0.6l0,0l0,0C83.5,89,81.2,83.7,79.6,80
							c-0.8-1.9-1.4-3.3-1.8-4.3c-0.2-0.5-0.4-0.9-0.5-1.1C77.2,74.3,77.1,74.2,77.1,74.2z"/>
					</g>
					<g>
						<path class="st5" d="M75.9,72.5c0,0-0.2-0.1-0.5-0.4c-0.3-0.3-0.7-0.6-1.3-1c-0.6-0.4-1.4-0.7-2.3-1c-0.9-0.2-1.9-0.4-3-0.3
							c-1.1,0.1-2.1,0.4-2.9,0.8c-0.8,0.4-1.5,0.9-2,1.4c-0.5,0.5-0.9,0.9-1.1,1.2c-0.2,0.3-0.3,0.5-0.4,0.5c0,0,0-0.1,0.1-0.1
							c0.1-0.1,0.1-0.2,0.2-0.4c0.2-0.3,0.6-0.8,1.1-1.3c0.5-0.5,1.2-1,2-1.5c0.8-0.4,1.8-0.8,2.9-0.9c1.1-0.1,2.1,0,3,0.3
							c0.9,0.3,1.7,0.6,2.3,1c0.6,0.4,1,0.8,1.3,1.1c0.1,0.1,0.2,0.3,0.3,0.3C75.9,72.5,75.9,72.5,75.9,72.5z"/>
					</g>
					<g>
						<path class="st5" d="M86.3,95.5c0,0-0.2,0.8-0.6,1.8c-0.4,1-0.7,1.8-0.7,1.7c0,0,0.2-0.8,0.6-1.8
							C85.9,96.3,86.2,95.5,86.3,95.5z"/>
					</g>
				</g>
				<g>
					<path class="st5" d="M107.3,99.6c0,0,0,0,0.1,0c0.1,0,0.2,0.1,0.2,0.2c0.1,0.1,0.1,0.3,0,0.5c-0.1,0.2-0.3,0.3-0.6,0.3
						c-0.2,0-0.4-0.3-0.4-0.4c0-0.2,0-0.4,0.2-0.5c0.1-0.1,0.2-0.1,0.3-0.1C107.3,99.6,107.3,99.6,107.3,99.6c0,0-0.2,0-0.4,0.2
						c-0.1,0.1-0.1,0.2-0.1,0.4c0,0.1,0.1,0.3,0.3,0.3c0.2,0,0.3-0.1,0.4-0.2c0.1-0.1,0.1-0.3,0-0.4
						C107.5,99.7,107.3,99.7,107.3,99.6z"/>
				</g>
				<g>
					<path class="st5" d="M86.2,70.4c0,0-0.1-0.1-0.3-0.2c-0.2-0.1-0.5-0.3-0.9-0.5l0.1,0c-0.2,0.9-0.3,2.1-0.6,3.7l0,0.1l-0.1-0.1
						c-1.3-0.8-2.8-1.7-4.4-2.7c-1.2-0.7-2.4-1.5-3.4-2.1c-1.1-0.6-2-1.2-2.8-1.6c-0.8-0.4-1.4-0.8-1.9-1.1
						c-0.2-0.1-0.4-0.2-0.5-0.3c-0.1-0.1-0.2-0.1-0.2-0.1c0,0,0.1,0,0.2,0.1c0.1,0.1,0.3,0.2,0.5,0.3c0.5,0.2,1.1,0.6,1.9,1
						c0.8,0.4,1.8,1,2.8,1.6c1,0.6,2.2,1.3,3.4,2.1c1.6,1,3.2,1.9,4.4,2.7l-0.1,0c0.3-1.5,0.5-2.8,0.7-3.7l0-0.1l0,0
						c0.4,0.2,0.6,0.4,0.8,0.5C86.1,70.3,86.2,70.4,86.2,70.4z"/>
				</g>
				<g class="st11">
					<path d="M73,66.6c2.4,1.8,4.8,3.6,7.2,5.3c1.6,1.2,3.2,2.4,5.1,3c0-1.7-0.1-3.3-0.1-5l-0.7,3.5L73,66.6z"/>
				</g>
			</g>
		</g>
		<g>
			<g>
				<g>
					<g>
						<g>
							<g>
								<path class="st5" d="M146.8,41.7c-1.2,0.2-2.5-0.7-2.8-1.9c-0.3-1.2,0.5-2.6,1.7-3c-0.8-0.8-1-2.1-0.5-3.1
									c0.5-1,1.7-1.6,2.8-1.5c0-1.1,0.7-2.2,1.6-2.7c1-0.5,2.2-0.5,3.2,0c1.2-1.1,3.1-1.1,4.4-0.2c1.1-0.2,2.2,0.3,2.8,1.3
									c0.5,1,0.3,2.2-0.4,3"/>
							</g>
						</g>
						<g>
							<g>
								<g>
									<g>
										<g>
											<path class="st6" d="M146.4,42c0.3-5.7,5-10.1,10.6-10.2l0.6,0c6.1,0.2,9.3,5.5,8.9,11.6l0.4,21.7l0,0l-14.8,5.3
												l-0.1-7.8c0,0-5.9-0.8-6.1-6.6C145.8,53.1,146.1,47.3,146.4,42z"/>
										</g>
									</g>
								</g>
								<g>
									<g>
										<g>
											<g>
												<g>
													<path class="st9" d="M151.9,62.6c0,0,3.7,0.1,7.6-2.4c0,0-1.7,4.2-7.6,3.8L151.9,62.6z"/>
												</g>
											</g>
										</g>
									</g>
								</g>
								<g>
									<g>
										<g>
											<g>
												<g>
													<g>
														<g>
															<g>
																<path class="st5" d="M148,47.3c0,0.4,0.4,0.8,0.8,0.8c0.5,0,0.8-0.3,0.8-0.8c0-0.4-0.4-0.8-0.8-0.8
																	C148.4,46.5,148,46.9,148,47.3z"/>
															</g>
														</g>
													</g>
												</g>
											</g>
										</g>
									</g>
								</g>
								<g>
									<g>
										<g>
											<g>
												<g>
													<g>
														<g>
															<g>
																<g>
																	<path class="st5" d="M147.7,44.9c0.1,0.1,0.7-0.4,1.6-0.4c0.9,0,1.6,0.4,1.7,0.3c0-0.1-0.1-0.2-0.4-0.4
																		c-0.3-0.2-0.8-0.4-1.3-0.4s-1,0.2-1.3,0.4C147.7,44.6,147.7,44.8,147.7,44.9z"/>
																</g>
															</g>
														</g>
													</g>
												</g>
											</g>
										</g>
									</g>
								</g>
								<g>
									<g>
										<g>
											<g>
												<g>
													<g>
														<g>
															<g>
																<path class="st5" d="M156.2,47.3c0,0.4,0.4,0.8,0.8,0.8c0.5,0,0.8-0.3,0.8-0.8c0-0.4-0.4-0.8-0.8-0.8
																	C156.6,46.5,156.2,46.9,156.2,47.3z"/>
															</g>
														</g>
													</g>
												</g>
											</g>
										</g>
									</g>
								</g>
								<g>
									<g>
										<g>
											<g>
												<g>
													<g>
														<g>
															<g>
																<g>
																	<path class="st5" d="M156.5,44.8c0.1,0.1,0.7-0.4,1.6-0.4c0.9,0,1.6,0.4,1.7,0.3c0-0.1-0.1-0.2-0.4-0.4
																		c-0.3-0.2-0.8-0.4-1.3-0.4c-0.6,0-1,0.2-1.3,0.4C156.6,44.6,156.5,44.8,156.5,44.8z"/>
																</g>
															</g>
														</g>
													</g>
												</g>
											</g>
										</g>
									</g>
								</g>
								<g>
									<g>
										<g>
											<g>
												<g>
													<g>
														<g>
															<g>
																<path class="st5" d="M153.4,51.6c0-0.1-0.6-0.1-1.5-0.2c-0.2,0-0.4-0.1-0.5-0.2c-0.1-0.2,0-0.4,0.1-0.7
																	c0.2-0.6,0.4-1.1,0.6-1.8c0.9-2.5,1.5-4.6,1.4-4.6c-0.1,0-0.9,2-1.8,4.5c-0.2,0.6-0.4,1.2-0.6,1.8
																	c-0.1,0.3-0.2,0.6-0.1,0.9c0.1,0.2,0.2,0.3,0.4,0.3c0.1,0,0.3,0,0.4,0C152.8,51.6,153.4,51.6,153.4,51.6z"/>
															</g>
														</g>
													</g>
												</g>
											</g>
										</g>
									</g>
								</g>
								<g>
									<g>
										<g>
											<g>
												<path class="st5" d="M156.2,41.8c0.1,0.2,0.9,0,1.8-0.1c0.9-0.1,1.7,0.1,1.8-0.1c0-0.1-0.1-0.3-0.5-0.5
													c-0.3-0.2-0.9-0.3-1.4-0.3c-0.6,0-1.1,0.2-1.4,0.4C156.3,41.5,156.1,41.7,156.2,41.8z"/>
											</g>
										</g>
									</g>
								</g>
								<g>
									<g>
										<g>
											<g>
												<path class="st5" d="M147.5,41.7c0.2,0.2,0.9,0,1.8-0.1c0.9-0.1,1.6,0.1,1.8-0.1c0.1-0.1,0-0.3-0.4-0.5
													c-0.3-0.2-0.9-0.3-1.5-0.3s-1.1,0.2-1.4,0.4C147.5,41.4,147.5,41.6,147.5,41.7z"/>
											</g>
										</g>
									</g>
								</g>
								<g>
									<g>
										<g>
											<path class="st5" d="M146.9,39.3c0,0,1.5-3.7,3.2-4.6c2.1-1.1,3.1,1.2,5.1,0.6c2-0.6,4-1.6,6.2-0.1
												c2.3,1.7,1.3,2.9,1.5,5.5c0.8,10.5,2.8,13.4,3.2,8.5c0-0.5,1.5-1,1.7-3.3c0.2-3,0.3-6.6-0.4-8.7c-0.6-1.8-1.6-3-3.5-4.3
												c-2.9-2.1-6.9-2-9.5-1.7C151.7,31.6,146.6,34.8,146.9,39.3z"/>
										</g>
									</g>
								</g>
								<g>
									<g>
										<g>
											<path class="st6" d="M165.7,49.1c0-0.9,0.8-1.6,1.7-1.6c1.1,0.1,2.3,0.7,2.3,2.9c0,4-4,3.1-4.1,3
												C165.6,53.4,165.6,50.8,165.7,49.1z"/>
										</g>
									</g>
								</g>
								<g>
									<g>
										<g>
											<path class="st9" d="M166.5,52c0,0,0.1,0.1,0.2,0.1c0.1,0.1,0.3,0.1,0.5,0c0.4-0.1,0.8-0.8,0.8-1.5c0-0.4-0.1-0.7-0.2-1
												c-0.1-0.3-0.3-0.5-0.5-0.5c-0.2-0.1-0.4,0.1-0.4,0.2c-0.1,0.1,0,0.2-0.1,0.2c0,0-0.1-0.1-0.1-0.2c0-0.1,0.1-0.2,0.2-0.3
												c0.1-0.1,0.2-0.1,0.4-0.1c0.3,0,0.6,0.3,0.7,0.6c0.2,0.3,0.2,0.7,0.2,1.1c0,0.8-0.5,1.6-1,1.7c-0.3,0.1-0.5,0-0.6-0.1
												C166.5,52.1,166.5,52,166.5,52z"/>
										</g>
									</g>
								</g>
							</g>
							<g>
								<g>
									<path class="st5" d="M165.4,41.4c-0.5,0.4-1.1,0.7-1.7,0.8c-0.6,0.1-1.3-0.3-1.5-0.9c-0.1-0.3,0-0.6-0.2-0.8
										c-0.2-0.3-0.6-0.2-1-0.1c-1.2,0.1-2.4-0.6-2.7-1.8c-0.3,0.4-1,0.4-1.4,0.2c-0.5-0.3-0.8-0.7-1.1-1.1
										c-0.4-0.4-0.9-0.7-1.4-0.7c-0.3,0-0.6,0.2-0.9,0.2c-0.5,0-0.8-0.6-0.9-1.2c-0.1-0.5-0.2-1.1-0.6-1.4
										c-0.4-0.3-0.9-0.1-1.4,0c-0.5,0.1-1.1,0-1.2-0.5c-0.1-0.2,0-0.5,0.2-0.7c0.6-1,1.9-1.5,3-1c0.4-1.3,1.6-2.4,2.9-2.6
										s2.8,0.5,3.5,1.7c0.8-0.8,2-1.1,3.2-0.9s2.1,1,2.5,2.1c1-0.3,2.1,0.1,2.7,0.9c0.6,0.8,0.7,1.9,0.3,2.8
										c0.7,0.4,1.4,1.1,1.4,1.9c0,0.8-0.8,1.7-1.6,1.5c0.3,0.6,0.1,1.5-0.5,1.9c-0.6,0.4-1.5,0.2-1.9-0.4"/>
								</g>
							</g>
							<g>
								<g>
									<g>
										<path class="st10" d="M152.4,33.5C152.4,33.5,152.4,33.5,152.4,33.5c0,0.1,0,0.2,0,0.3c0,0.2,0.1,0.5,0.3,0.8
											c0.2,0.3,0.5,0.7,0.9,0.9c0.4,0.3,1,0.5,1.6,0.4l-0.1-0.1c-0.1,0.3-0.1,0.8,0.1,1.1c0.2,0.4,0.4,0.7,0.7,1
											c0.1,0.1,0.3,0.3,0.5,0.4c0.2,0.1,0.4,0.2,0.6,0.2c0.5,0,1-0.1,1.3-0.5l-0.1,0c0.1,0.8,0.6,1.6,1.3,2
											c0.4,0.3,0.9,0.4,1.3,0.4c0.5,0,0.9-0.2,1.3-0.3l-0.1,0c0.2,0.5,0.6,0.9,1,1.2c0.4,0.3,0.9,0.5,1.4,0.4
											c0.9-0.2,1.5-1,1.7-1.8l-0.1,0c0.5,0.2,1,0.3,1.4,0.2c0.4-0.1,0.7-0.3,0.9-0.4c0.2-0.2,0.4-0.4,0.4-0.5
											c0.1-0.1,0.1-0.2,0.1-0.2c0,0-0.1,0.3-0.6,0.7c-0.2,0.2-0.5,0.3-0.9,0.4c-0.4,0.1-0.9,0.1-1.3-0.2l-0.1,0l0,0.1
											c-0.1,0.7-0.7,1.4-1.6,1.6c-0.4,0.1-0.9,0-1.3-0.3c-0.4-0.3-0.7-0.7-0.9-1.2l0-0.1l-0.1,0c-0.4,0.1-0.8,0.3-1.2,0.3
											c-0.4,0-0.9-0.1-1.2-0.4c-0.7-0.4-1.1-1.2-1.2-1.9l0-0.2l-0.1,0.1c-0.3,0.3-0.7,0.5-1.1,0.4c-0.2,0-0.4-0.1-0.6-0.2
											c-0.2-0.1-0.3-0.3-0.4-0.4c-0.3-0.3-0.5-0.6-0.7-0.9c-0.2-0.3-0.2-0.7-0.1-1l0-0.1l-0.1,0c-0.6,0.1-1.2-0.1-1.6-0.4
											c-0.4-0.3-0.7-0.6-0.9-0.9C152.5,33.9,152.5,33.5,152.4,33.5z"/>
									</g>
								</g>
							</g>
						</g>
					</g>
				</g>
				<g>
					<g>
						<g>
							<g>
								<g>
									<g>
										<g>
											<g>
												<g>
													<g>
														<g>
															<g>
																<g>
																	<g>
																		<path class="st5" d="M156.5,51.9c-0.1,0,0,1-0.7,1.8c-0.7,0.8-1.7,0.9-1.7,1c0,0.1,0.3,0.1,0.7,0.1
																			c0.4-0.1,1-0.3,1.4-0.8c0.4-0.5,0.5-1.1,0.5-1.5C156.7,52.1,156.6,51.9,156.5,51.9z"/>
																	</g>
																</g>
															</g>
														</g>
													</g>
												</g>
											</g>
										</g>
									</g>
								</g>
							</g>
						</g>
					</g>
				</g>
			</g>
			<g>
				<g>
					<path class="st12" d="M123.9,97.3c0.5-0.2,17.2-2.2,17.2-2.2l6.8-5.7l-0.6,16.6l-21.4,2.1L123.9,97.3z"/>
					<path class="st13" d="M144.9,91.9c-0.2,0.1-1.9,1.6-1.9,1.6l0.5,12.8L144.9,91.9z"/>
				</g>
				<g>
					<path class="st5" d="M173.4,122h-28.3c0,0,1.5,8,2.1,11.6c0.6,3.7,1.4,6.3,1.4,6.3h25.6c0,0,1.9-4.6,2.2-7.6
						C176.7,129.4,173.4,122,173.4,122z"/>
					<path class="st5" d="M143,123c0,0-0.8,9.1,0,17h9.8v-7.3L143,123z"/>
					<path class="st2" d="M148.5,78.4l3-6.7l0.4-4.1c0,0,5.8-3.7,8.6-5.1c2.8-1.4,6.5-2.6,6.5-2.6v3.9L148.5,78.4z"/>
					<path class="st12" d="M173.9,112.5c0,0,1.7-22.2,1.8-23.9c0,0,1-11.9-1.1-16.4c-2.1-4.5-6.8-8.5-6.8-8.5l-0.4-2.4l-9.2,5.8
						l-4.3,3.7c0,0-2.4,2.6-4,5c-1.2,1.7-2.6,3.8-3.2,6.5c-0.2,1-2.8,12.8-2.8,21.1c0,0-0.4,7.2-0.8,11.3c-0.5,5-1.3,16.5-1.1,23.4
						l29.9-0.9c7.4-1.1,6.1-1.9,6.1-1.9L173.9,112.5z"/>
					<g>
						<path class="st5" d="M167,63.9c0,0-0.1,0-0.2,0.1c-0.1,0.1-0.3,0.1-0.6,0.3c-0.3,0.1-0.6,0.3-0.9,0.5
							c-0.4,0.2-0.8,0.4-1.2,0.8c-1.8,1.2-4.2,3.2-6.6,6.1l0,0l0,0c-0.9,0.2-1.9,0.3-2.9,0.5l0.1-0.1c0,1.3-0.1,2.7-0.1,4.2v0l0,0
							c-1.4,1.4-2.9,2.9-4.2,4.6c-0.5,0.7-1,1.4-1.4,2.2l-0.2,0.3l-0.1,0.3c-0.1,0.2-0.2,0.4-0.2,0.6c-0.1,0.4-0.3,0.8-0.4,1.2
							c-0.4,1.6-0.8,3.2-1.1,4.7c-0.7,3-1.2,5.7-1.7,8c-0.9,4.6-1.5,7.4-1.5,7.4s0-0.2,0.1-0.5c0.1-0.3,0.1-0.8,0.3-1.5
							c0.2-1.3,0.6-3.1,1-5.4c0.5-2.3,1-5,1.7-8c0.3-1.5,0.7-3.1,1.1-4.7c0.1-0.4,0.2-0.8,0.4-1.2c0.1-0.2,0.1-0.4,0.2-0.6l0.1-0.3
							l0.2-0.3c0.4-0.8,0.9-1.5,1.5-2.2c1.3-1.7,2.8-3.3,4.2-4.6l0,0.1c0.1-1.4,0.1-2.8,0.1-4.2l0-0.1l0.1,0c1-0.2,2-0.4,2.9-0.5
							l0,0c2.4-2.8,4.8-4.9,6.6-6c0.4-0.3,0.9-0.5,1.2-0.8c0.4-0.2,0.7-0.3,1-0.5c0.3-0.1,0.5-0.2,0.6-0.2
							C166.9,63.9,167,63.9,167,63.9z"/>
					</g>
					<g>
						<path class="st12" d="M157,81.4l0.4,29.7l-4.5,28.9h11.9c0,0,5.4-21.9,6.7-26.5c1.2-4.5,3.1-27,3.2-28.1
							c0.1-0.4,1.4-8.2-2.4-11.9"/>
						<g>
							<path class="st5" d="M172.2,73.4c0,0,0.1,0.1,0.3,0.2c0.2,0.2,0.4,0.4,0.6,0.8c0.5,0.7,1.1,2,1.5,3.7
								c0.4,1.7,0.5,3.8,0.2,6.3c-0.2,1.2-0.3,2.5-0.4,3.9c-0.1,1.4-0.3,2.8-0.4,4.4c-0.3,3.1-0.6,6.4-1,10
								c-0.2,1.8-0.4,3.7-0.7,5.6c-0.3,1.9-0.5,3.9-1,5.9c-2,7.9-4.2,16.6-6.5,25.8l0,0.1h-0.1c-0.4,0-0.8,0-1.3,0
								c-3.6,0-7.2,0-10.6,0h-0.1l0-0.1c1.7-10.7,3.2-20.5,4.5-28.9v0c-0.1-9-0.2-16.4-0.2-21.6c0-2.6,0-4.6-0.1-6
								c0-0.7,0-1.2,0-1.6c0-0.4,0-0.5,0-0.5s0,0.2,0,0.5c0,0.4,0,0.9,0,1.6c0,1.4,0.1,3.4,0.1,6c0.1,5.2,0.2,12.6,0.3,21.6v0v0
								c-1.3,8.4-2.8,18.2-4.5,28.9l-0.1-0.1c3.5,0,7,0,10.6,0c0.4,0,0.9,0,1.3,0l-0.1,0.1c2.3-9.2,4.5-17.9,6.5-25.8
								c0.5-2,0.8-3.9,1.1-5.9c0.3-1.9,0.5-3.8,0.7-5.6c0.4-3.6,0.7-7,1-10c0.1-1.5,0.3-3,0.4-4.4c0.1-1.4,0.2-2.7,0.4-3.9
								c0.3-2.4,0.1-4.6-0.2-6.2c-0.3-1.7-0.9-2.9-1.5-3.6c-0.3-0.4-0.5-0.6-0.6-0.8C172.2,73.5,172.2,73.4,172.2,73.4z"/>
						</g>
					</g>
					<g>
						<path class="st5" d="M163.3,114c0,0-0.4-0.1-0.9-0.3c-0.6-0.2-1.3-0.5-2.1-0.8s-1.6-0.7-2.1-1c-0.5-0.3-0.8-0.5-0.8-0.5
							c0,0,0.3,0.1,0.9,0.4s1.3,0.6,2.1,1c0.8,0.4,1.6,0.7,2.1,0.9C162.9,113.8,163.3,114,163.3,114z"/>
					</g>
					<g>
						<path class="st5" d="M142.9,116C142.9,116,142.9,115.9,142.9,116c0-0.1,0-0.2,0-0.3c0-0.2,0-0.5,0-0.9
							c0.1-0.8,0.1-1.9,0.2-3.2c0.2-2.7,0.4-6.4,0.8-10.6s0.8-7.8,1.1-10.5c0.2-1.3,0.3-2.4,0.4-3.2c0.1-0.4,0.1-0.7,0.1-0.9
							c0-0.1,0-0.2,0-0.2c0-0.1,0-0.1,0-0.1c0,0,0,0,0,0.1c0,0.1,0,0.1,0,0.2c0,0.2-0.1,0.5-0.1,0.9c-0.1,0.8-0.2,1.9-0.4,3.2
							c-0.3,2.7-0.7,6.4-1.1,10.5c-0.4,4.1-0.6,7.9-0.9,10.6c-0.1,1.3-0.2,2.4-0.3,3.2c0,0.4-0.1,0.7-0.1,0.9
							C142.9,115.7,142.9,115.8,142.9,116C142.9,115.9,142.9,116,142.9,116z"/>
					</g>
					<g>
						<path class="st5" d="M167,69.7c-0.1,0-0.3-1.1-1.1-2.4c-0.8-1.2-1.7-2-1.6-2c0,0,0.3,0.2,0.6,0.5c0.3,0.3,0.8,0.8,1.2,1.5
							c0.4,0.6,0.7,1.2,0.8,1.7C167,69.4,167,69.7,167,69.7z"/>
					</g>
					<g>
						<path class="st5" d="M146,106.5c0,0,0,0.1,0,0.2c0,0.1-0.1,0.4-0.3,0.5c-0.2,0.2-0.5,0.3-0.9,0.2c-0.2-0.1-0.3-0.2-0.4-0.3
							c-0.1-0.2-0.2-0.4-0.2-0.6c0-0.3,0.1-0.5,0.2-0.7c0.1-0.1,0.2-0.2,0.3-0.2c0.1,0,0.2-0.1,0.3-0.1l0,0h0c0.2,0,0.4,0.1,0.6,0.2
							c0.2,0.1,0.2,0.3,0.3,0.4C146,106.4,146,106.5,146,106.5c0,0,0-0.1-0.1-0.4c0-0.1-0.1-0.2-0.3-0.3c-0.1-0.1-0.3-0.1-0.5-0.1
							l0,0c-0.1,0-0.2,0.1-0.3,0.1c-0.1,0-0.2,0.1-0.2,0.2c-0.1,0.2-0.2,0.4-0.2,0.6c0,0.3,0.2,0.6,0.5,0.7c0.3,0.1,0.6,0,0.7-0.1
							c0.2-0.2,0.2-0.3,0.3-0.5C146,106.6,146,106.5,146,106.5z"/>
					</g>
					<g>
						<path class="st5" d="M145.6,117c0,0,0,0.1,0,0.2c0,0.1-0.1,0.4-0.3,0.5c-0.2,0.2-0.5,0.3-0.9,0.2c-0.2-0.1-0.3-0.2-0.4-0.3
							c-0.1-0.2-0.2-0.4-0.2-0.6c0-0.3,0.1-0.5,0.2-0.7c0.1-0.1,0.2-0.2,0.3-0.2c0.1,0,0.2-0.1,0.3-0.1l0,0h0c0.2,0,0.4,0.1,0.6,0.2
							c0.2,0.1,0.2,0.3,0.3,0.4C145.6,116.9,145.6,117,145.6,117c0,0,0-0.1-0.1-0.4c0-0.1-0.1-0.2-0.3-0.3c-0.1-0.1-0.3-0.1-0.5-0.1
							l0,0c-0.1,0-0.2,0.1-0.3,0.1c-0.1,0-0.2,0.1-0.2,0.2c-0.1,0.2-0.2,0.4-0.2,0.6c0,0.3,0.2,0.6,0.5,0.7c0.3,0.1,0.6,0,0.7-0.1
							c0.2-0.2,0.2-0.3,0.3-0.5C145.5,117.1,145.5,117,145.6,117z"/>
					</g>
				</g>
				<g>
					<path class="st5" d="M170.8,71.7c0,0-0.4-0.2-1.1-0.5c-0.3-0.1-0.8-0.3-1.3-0.4c-0.5-0.1-1-0.1-1.6-0.1c-0.6,0-1.1,0.1-1.6,0.2
						c-0.5,0.1-0.9,0.2-1.2,0.4c-0.7,0.3-1.1,0.5-1.1,0.5c0,0,0.1-0.1,0.3-0.2c0.1-0.1,0.2-0.1,0.3-0.2c0.1-0.1,0.3-0.2,0.5-0.2
						c0.3-0.2,0.8-0.3,1.3-0.4c0.5-0.1,1-0.2,1.6-0.2c0.6,0,1.1,0.1,1.6,0.2c0.5,0.1,0.9,0.2,1.3,0.4c0.2,0.1,0.3,0.2,0.5,0.2
						c0.1,0.1,0.2,0.1,0.3,0.2C170.7,71.6,170.8,71.7,170.8,71.7z"/>
				</g>
				<g class="st11">
					<path d="M144.8,99.4c1.3-1.9,1.8-3.6,2.5-5.8c1-3.2,1.3-6.9,2.9-9.8c0.9-1.8,2.1-3.6,3.7-4.7c1.6-1.1,1.8-2.5,1.8-6.3
						c1.1,0,2.4-0.9,2.5-1c0.8-0.8,1.3-2.2,1.4-2.6c-0.8,0.9-2.1,2.3-2.1,2.3s-2.9,0.5-2.9,0.5c-0.1,1.4-0.1,2.7-0.1,4.2
						c0,0-5.6,5.9-6,7.1C147.9,84.5,144.8,99.4,144.8,99.4z"/>
				</g>
				<g class="st11">
					<path d="M165.5,136.4c7.1-13.4,9.3-31,8.8-47.8c0,0-2,20.4-2.7,23.9C170.9,116,165.5,136.4,165.5,136.4z"/>
				</g>
				<g>
					<path class="st5" d="M166.5,61.7c0,0-0.1,0-0.2,0.1c-0.1,0.1-0.3,0.2-0.5,0.3c-0.4,0.3-1,0.7-1.8,1.1c-1.5,1-3.5,2.3-5.8,3.7
						c-0.9,0.6-1.7,1.1-2.5,1.6l0,0c-0.3,0.2-0.5,0.4-0.8,0.6c-0.3,0.2-0.5,0.4-0.7,0.6c-0.4,0.4-0.8,0.8-1.2,1.2l-0.1,0.1l0-0.1
						c-0.4-0.9-0.7-1.6-0.9-2.1c-0.1-0.2-0.2-0.4-0.2-0.6c-0.1-0.1-0.1-0.2-0.1-0.2c0,0,0,0.1,0.1,0.2c0.1,0.1,0.2,0.3,0.3,0.6
						c0.2,0.5,0.6,1.2,1,2.1l-0.1,0c0.3-0.4,0.7-0.8,1.2-1.2c0.2-0.2,0.5-0.4,0.7-0.6c0.3-0.2,0.5-0.4,0.8-0.6l0,0l0,0
						c0.8-0.5,1.6-1,2.5-1.6c2.3-1.4,4.3-2.7,5.8-3.7c0.7-0.5,1.3-0.8,1.8-1.1c0.2-0.1,0.4-0.2,0.5-0.3
						C166.5,61.7,166.5,61.7,166.5,61.7z"/>
				</g>
			</g>
		</g>
	</g>
	<g id="Light_Bulb">
		<g>
			<g>
				<g>
					<path class="st5" d="M17.7,47.9c0,0-1.4-2.3-3-5.2s-2.9-5.3-2.9-5.3c0,0,1.4,2.3,3,5.2C16.5,45.6,17.8,47.9,17.7,47.9z"/>
				</g>
				<g>
					<path class="st5" d="M22.3,37.9c0,0,0,1.8-0.1,4c-0.1,2.2-0.3,4-0.3,4c0,0,0-1.8,0.1-4C22.1,39.7,22.2,37.9,22.3,37.9z"/>
				</g>
				<g>
					<path class="st5" d="M14.5,50.4c0,0-1.5-0.4-3.4-1.1c-1.9-0.6-3.4-1.2-3.3-1.2c0,0,1.5,0.4,3.4,1.1
						C13,49.8,14.5,50.4,14.5,50.4z"/>
				</g>
			</g>
			<g>
				<g>
					<g>
						<g>
							<g>
								<path class="st14" d="M37.2,54.9c-2.8-6.4-10.2-9.3-16.6-6.5c-6.4,2.8-9.3,10.2-6.5,16.6c2,4.6,6.5,7.4,11.2,7.6
									c0.6,1.4,1.3,2.9,1.3,2.9l10.1-4.4c0,0-0.7-1.7-1.3-3.1C38.3,64.4,39.2,59.4,37.2,54.9z"/>
							</g>
						</g>
					</g>
				</g>
			</g>
			<g>
				<path class="st15" d="M35.2,71.7c0,0,0,0-0.1-0.1c-0.1-0.1-0.1-0.2-0.2-0.4c-0.2-0.4-0.5-0.9-0.9-1.6c-0.7-1.4-1.8-3.3-2.9-5.9
					c-0.3-0.6-0.6-1.3-0.9-2c-0.1-0.3-0.3-0.7-0.4-1.1c-0.1-0.4-0.3-0.7-0.3-1.2c0-0.2,0-0.4,0.1-0.6c0.1-0.2,0.2-0.4,0.4-0.5
					c0.2-0.1,0.5,0,0.6,0.1c0.2,0.1,0.4,0.3,0.5,0.5c0.2,0.4,0.2,0.9,0,1.3c-0.2,0.4-0.5,0.8-0.9,1c-0.4,0.2-0.9,0.3-1.4,0.3
					c-0.5,0-0.9-0.2-1.3-0.5c-0.4-0.3-0.7-0.7-0.9-1.1c-0.1-0.2-0.2-0.5-0.2-0.7c0-0.2,0-0.5,0.2-0.7c0.1-0.1,0.2-0.2,0.3-0.2
					c0.1,0,0.3,0,0.4,0c0.3,0,0.5,0.2,0.7,0.4s0.3,0.4,0.4,0.6c0.1,0.2,0.2,0.5,0.3,0.7c0.2,0.5,0.3,1,0.4,1.5c0,0.5,0,1.1-0.3,1.6
					c-0.1,0.2-0.3,0.5-0.5,0.6c-0.2,0.2-0.4,0.3-0.7,0.4c-0.3,0.1-0.5,0.1-0.8,0s-0.5-0.2-0.7-0.3c-0.4-0.3-0.8-0.7-1.1-1.1
					c-0.2-0.2-0.3-0.4-0.5-0.6c-0.1-0.2-0.3-0.4-0.4-0.6C24.1,61.2,24,61,24,60.7c0-0.1,0.1-0.3,0.2-0.4c0.1-0.1,0.2-0.2,0.3-0.2
					c0.1,0,0.3,0,0.4,0.1c0.1,0.1,0.2,0.1,0.3,0.2c0.2,0.2,0.3,0.4,0.5,0.6c0.5,0.8,0.9,1.7,0.8,2.7c0,0.5-0.2,0.9-0.5,1.3
					c-0.3,0.4-0.6,0.7-1,0.8c-0.4,0.1-0.9,0.1-1.3-0.1c-0.4-0.2-0.7-0.5-0.9-0.8c-0.1-0.2-0.2-0.4-0.2-0.6c0-0.2,0-0.4,0.1-0.6
					c0.1-0.1,0.1-0.2,0.2-0.2c0.1,0,0.2,0,0.3,0c0.2,0.1,0.3,0.2,0.5,0.3c0.3,0.3,0.4,0.6,0.6,1c0.2,0.3,0.3,0.6,0.5,0.9
					c1.2,2.5,2.2,4.5,2.8,5.9c0.3,0.7,0.6,1.3,0.7,1.6c0.1,0.2,0.1,0.3,0.2,0.4c0,0.1,0.1,0.1,0.1,0.1s0,0-0.1-0.1
					c0-0.1-0.1-0.2-0.2-0.4c-0.2-0.4-0.4-0.9-0.7-1.6c-0.6-1.4-1.6-3.4-2.9-5.9c-0.2-0.3-0.3-0.6-0.5-0.9c-0.2-0.3-0.3-0.7-0.6-0.9
					c-0.1-0.1-0.3-0.3-0.4-0.3c-0.2-0.1-0.4,0-0.5,0.2c-0.1,0.2-0.1,0.4-0.1,0.5c0,0.2,0.1,0.4,0.2,0.6c0.2,0.3,0.5,0.6,0.9,0.8
					c0.4,0.2,0.8,0.2,1.2,0.1c0.4-0.1,0.8-0.4,1-0.8c0.2-0.4,0.4-0.8,0.4-1.2c0.1-0.9-0.2-1.8-0.8-2.6c-0.1-0.2-0.3-0.4-0.5-0.5
					c-0.2-0.1-0.4-0.3-0.6-0.2c-0.2,0-0.4,0.3-0.4,0.5c0,0.2,0,0.5,0.1,0.7c0.1,0.2,0.2,0.4,0.4,0.6c0.1,0.2,0.3,0.4,0.4,0.6
					c0.3,0.4,0.7,0.8,1.1,1c0.2,0.1,0.4,0.2,0.7,0.3s0.5,0,0.7,0c0.5-0.1,0.9-0.5,1.1-1c0.2-0.5,0.3-1,0.3-1.5c0-0.5-0.2-1-0.4-1.5
					c-0.2-0.5-0.4-0.9-0.8-1.3c-0.2-0.2-0.4-0.3-0.6-0.3c-0.2,0-0.5,0-0.6,0.2c-0.1,0.2-0.2,0.4-0.1,0.7c0,0.2,0.1,0.5,0.2,0.7
					c0.2,0.4,0.5,0.8,0.9,1.1s0.8,0.5,1.3,0.5c0.5,0,0.9-0.1,1.3-0.3c0.4-0.2,0.7-0.5,0.9-0.9c0.2-0.4,0.2-0.9,0-1.2
					c-0.1-0.2-0.3-0.3-0.4-0.4c-0.2-0.1-0.4-0.1-0.6-0.1c-0.2,0.1-0.3,0.2-0.4,0.4c-0.1,0.2-0.1,0.4-0.1,0.6c0,0.4,0.2,0.8,0.3,1.1
					c0.1,0.4,0.3,0.7,0.4,1.1c0.3,0.7,0.6,1.4,0.9,2c1.1,2.5,2.1,4.5,2.9,5.9c0.4,0.7,0.7,1.2,0.8,1.6c0.1,0.2,0.2,0.3,0.2,0.4
					C35.2,71.7,35.2,71.7,35.2,71.7z"/>
			</g>
			<g>
				<path class="st5" d="M26.3,71.7c0,0-0.1,0-0.2,0c-0.1,0-0.3,0-0.4,0c-0.4,0-0.9,0-1.6-0.1c-0.7-0.1-1.5-0.3-2.4-0.6
					c-0.9-0.3-1.8-0.7-2.7-1.3c-0.9-0.6-1.6-1.3-2.2-2c-0.6-0.7-1.1-1.4-1.4-2c-0.3-0.6-0.6-1.1-0.7-1.5c-0.1-0.2-0.1-0.3-0.2-0.4
					c0-0.1,0-0.1,0-0.1c0,0,0,0,0.1,0.1c0,0.1,0.1,0.2,0.2,0.4c0.1,0.4,0.4,0.9,0.7,1.5c0.3,0.6,0.8,1.3,1.4,1.9
					c0.6,0.7,1.4,1.4,2.2,1.9c0.9,0.6,1.8,1,2.6,1.3c0.9,0.3,1.7,0.5,2.3,0.6c0.7,0.1,1.2,0.1,1.6,0.1c0.2,0,0.3,0,0.4,0
					C26.3,71.7,26.3,71.7,26.3,71.7z"/>
			</g>
			<g>
				<path class="st5" d="M14,61.4c0,0,0.1,0.3,0.2,0.6c0.1,0.4,0.1,0.6,0.1,0.7c0,0-0.1-0.3-0.2-0.6C14,61.6,14,61.4,14,61.4z"/>
			</g>
			<g>
				<path class="st5" d="M37.1,58.2c0,0,0,0,0-0.1c0-0.1,0-0.2-0.1-0.4c0-0.1,0-0.2-0.1-0.3c0-0.1-0.1-0.2-0.1-0.3
					c-0.1-0.2-0.1-0.5-0.2-0.8c-0.1-0.1-0.1-0.3-0.2-0.4c-0.1-0.2-0.1-0.3-0.2-0.5c-0.1-0.3-0.3-0.6-0.5-1c-0.4-0.7-0.9-1.4-1.5-2.1
					c-0.6-0.7-1.3-1.2-1.9-1.7c-0.3-0.2-0.6-0.4-0.9-0.6c-0.2-0.1-0.3-0.2-0.4-0.3c-0.1-0.1-0.3-0.1-0.4-0.2
					c-0.3-0.1-0.5-0.2-0.7-0.3c-0.1,0-0.2-0.1-0.3-0.1c-0.1,0-0.2-0.1-0.3-0.1c-0.2-0.1-0.3-0.1-0.4-0.1c-0.1,0-0.1,0-0.1-0.1
					c0,0,0,0,0.1,0c0.1,0,0.2,0.1,0.4,0.1c0.1,0,0.2,0.1,0.3,0.1c0.1,0,0.2,0.1,0.3,0.1c0.2,0.1,0.5,0.2,0.7,0.3
					c0.1,0.1,0.3,0.1,0.4,0.2c0.1,0.1,0.3,0.2,0.4,0.3c0.3,0.2,0.6,0.4,0.9,0.6c0.6,0.5,1.3,1,1.9,1.7c0.6,0.7,1.1,1.4,1.5,2.1
					c0.2,0.4,0.4,0.7,0.5,1c0.1,0.2,0.1,0.3,0.2,0.5c0.1,0.2,0.1,0.3,0.2,0.4c0.1,0.3,0.2,0.5,0.2,0.8c0,0.1,0.1,0.2,0.1,0.3
					c0,0.1,0,0.2,0.1,0.3c0,0.2,0,0.3,0.1,0.4C37.1,58.1,37.1,58.2,37.1,58.2z"/>
			</g>
			<g class="st16">
				<path class="st15" d="M21.6,51.9c-0.4-0.4-1.1-0.5-1.8-0.4c-1,0.1-2,0.7-2.6,1.5c-1.9,2.4-2.6,4.6-2.3,7.8
					c0.1,1.1,0.7,2.7,1.5,3.4c0.4,0.4,1,0.6,1.6,0.5c1.5-0.2,2-1.9,1.8-3.3c-0.1-1.3-0.5-2.6-0.1-3.9c0.3-1,1.2-1.8,1.8-2.7
					C22.1,53.9,22.3,52.6,21.6,51.9z"/>
			</g>
			<g class="st16">
				<path class="st15" d="M26,49.4c-0.8-0.6-2-0.4-2.5,0.2c-0.4,0.5-0.6,1.1-0.5,1.7c0.2,0.7,0.8,1.3,1.5,1.4c0.7,0.1,1.5-0.3,1.8-1
					C26.8,51,26.6,49.8,26,49.4z"/>
			</g>
			<g>
				<g id="_x32_gGvdE.tif_1_">
					<path class="st5" d="M32,80.1c0,0,0.5,0.1,0.9,0.3c0.2,0.1,0.4,0.1,0.6,0l2-0.9c0.2-0.1,0.4-0.3,0.4-0.6
						c0.1-0.3,0.2-0.7,0.5-0.8L32,80.1z"/>
				</g>
				<path class="st4" d="M27.3,75.4c0,0,1.9,3,2.6,4.2c0.3,0.5,0.8,0.8,1.3,0.8c0.2,0,0.4,0,0.6-0.1c0.9-0.4,4.5-2,4.5-2
					s1.2-0.5,1-1.6c-0.1-1.1-1.3-5.2-1.3-5.2L27.3,75.4z"/>
				<g>
					<path class="st4" d="M37.5,76.2l-7.8,3.4c-0.1,0.1-0.3,0-0.3-0.1l0,0c-0.1-0.1,0-0.3,0.1-0.3l7.8-3.4c0.1-0.1,0.3,0,0.3,0.1
						l0,0C37.6,76,37.6,76.1,37.5,76.2z"/>
					<g>
						<path class="st5" d="M37.5,76.2c0,0,0.1,0,0.1-0.1c0-0.1,0-0.1,0-0.2c0-0.1-0.1-0.1-0.2-0.1c-0.4,0.2-1,0.5-1.8,0.8
							c-1.5,0.7-3.6,1.6-6,2.7c-0.1,0-0.1,0.1-0.1,0.2c0,0,0,0.1,0,0.1c0,0,0,0.1,0,0.1c0,0.1,0.1,0.1,0.2,0.1
							c0.1,0,0.1-0.1,0.2-0.1c0.3-0.1,0.6-0.3,0.8-0.4c0.6-0.2,1.1-0.5,1.6-0.7c1-0.4,1.9-0.8,2.7-1.2c0.8-0.3,1.4-0.6,1.8-0.8
							c0.2-0.1,0.4-0.2,0.5-0.2C37.3,76.2,37.4,76.2,37.5,76.2C37.4,76.2,37.5,76.2,37.5,76.2C37.5,76.2,37.4,76.2,37.5,76.2
							c-0.1,0-0.1,0.1-0.2,0.1c-0.1,0.1-0.3,0.1-0.5,0.2c-0.4,0.2-1.1,0.5-1.8,0.8c-0.8,0.3-1.7,0.8-2.7,1.2c-0.5,0.2-1,0.5-1.6,0.7
							c-0.3,0.1-0.6,0.2-0.8,0.4l-0.1,0c0,0-0.1,0-0.1,0c-0.1,0-0.2,0-0.2-0.1c0,0,0-0.1-0.1-0.1c0,0,0-0.1,0-0.1
							c0-0.1,0.1-0.2,0.2-0.2c2.3-1,4.5-2,6-2.6c0.8-0.3,1.4-0.6,1.8-0.8c0.1,0,0.2,0.1,0.3,0.1c0,0.1,0,0.2,0,0.2
							C37.5,76.2,37.5,76.2,37.5,76.2z"/>
					</g>
				</g>
				<g>
					<path class="st4" d="M37.2,75.1l-8.1,3.6c-0.1,0.1-0.3,0-0.3-0.1l0,0c-0.1-0.1,0-0.3,0.1-0.3l8.1-3.6c0.1-0.1,0.3,0,0.3,0.1
						l0,0C37.4,74.9,37.3,75.1,37.2,75.1z"/>
					<g>
						<path class="st5" d="M37.2,75.1c0,0,0.1,0,0.1-0.1c0-0.1,0-0.1,0-0.2c0-0.1-0.2-0.1-0.3-0.1c-0.4,0.2-1.1,0.5-1.9,0.8
							c-1.6,0.7-3.8,1.7-6.2,2.8c-0.1,0-0.1,0.1-0.1,0.2c0,0,0,0.1,0,0.1c0,0,0,0.1,0.1,0.1c0,0,0.1,0.1,0.2,0.1
							c0.1,0,0.1-0.1,0.2-0.1c0.3-0.1,0.6-0.3,0.9-0.4c0.6-0.3,1.1-0.5,1.7-0.7c1.1-0.5,2-0.9,2.8-1.2c0.8-0.3,1.4-0.6,1.9-0.8
							c0.2-0.1,0.4-0.2,0.5-0.2C37.1,75.2,37.1,75.1,37.2,75.1C37.2,75.1,37.2,75.1,37.2,75.1S37.2,75.1,37.2,75.1
							c-0.1,0-0.1,0.1-0.2,0.1c-0.1,0.1-0.3,0.1-0.5,0.2c-0.4,0.2-1.1,0.5-1.9,0.8c-0.8,0.4-1.7,0.8-2.8,1.2
							c-0.5,0.2-1.1,0.5-1.7,0.7c-0.3,0.1-0.6,0.3-0.9,0.4c-0.1,0-0.1,0.1-0.2,0.1c-0.1,0-0.2,0-0.3-0.1c0,0-0.1-0.1-0.1-0.1
							c0,0,0-0.1,0-0.1c0-0.1,0.1-0.2,0.2-0.2c2.4-1.1,4.6-2,6.2-2.7c0.8-0.3,1.4-0.6,1.9-0.8c0.1,0,0.3,0,0.3,0.1
							c0.1,0.1,0.1,0.2,0,0.2C37.3,75.1,37.2,75.1,37.2,75.1z"/>
					</g>
				</g>
				<g>
					<path class="st4" d="M36.8,74.1l-8.3,3.7c-0.1,0.1-0.3,0-0.3-0.1l0,0c-0.1-0.1,0-0.3,0.1-0.3l8.3-3.7c0.1-0.1,0.3,0,0.3,0.1
						l0,0C37,73.9,37,74,36.8,74.1z"/>
					<g>
						<path class="st5" d="M36.8,74.1c0,0,0.1,0,0.1-0.1c0-0.1,0-0.1,0-0.2c0-0.1-0.2-0.1-0.3-0.1c-0.5,0.2-1.1,0.5-1.9,0.9
							c-1.6,0.7-3.9,1.7-6.4,2.8c-0.1,0-0.1,0.1-0.1,0.2c0,0,0,0.1,0,0.1c0,0,0,0.1,0.1,0.1c0.1,0,0.1,0.1,0.2,0
							c0.1,0,0.2-0.1,0.2-0.1c0.3-0.1,0.6-0.3,0.9-0.4c0.6-0.3,1.2-0.5,1.7-0.7c1.1-0.5,2.1-0.9,2.9-1.3c0.8-0.4,1.5-0.6,1.9-0.8
							c0.2-0.1,0.4-0.2,0.5-0.2C36.7,74.1,36.8,74.1,36.8,74.1C36.8,74.1,36.8,74.1,36.8,74.1S36.8,74.1,36.8,74.1
							c-0.1,0-0.1,0.1-0.2,0.1c-0.1,0.1-0.3,0.1-0.5,0.2c-0.5,0.2-1.1,0.5-1.9,0.9c-0.8,0.4-1.8,0.8-2.9,1.3
							c-0.5,0.2-1.1,0.5-1.7,0.8c-0.3,0.1-0.6,0.3-0.9,0.4c-0.1,0-0.1,0.1-0.2,0.1c-0.1,0-0.2,0-0.3-0.1c0,0-0.1-0.1-0.1-0.1
							c0,0,0-0.1,0-0.1c0-0.1,0.1-0.2,0.2-0.2c2.5-1.1,4.7-2.1,6.4-2.8c0.8-0.4,1.5-0.6,1.9-0.8c0.1-0.1,0.3,0,0.3,0.1
							c0.1,0.1,0.1,0.2,0,0.2C36.9,74.1,36.8,74.1,36.8,74.1z"/>
					</g>
				</g>
				<g>
					<path class="st4" d="M36.6,73l-8.6,3.8c-0.1,0.1-0.3,0-0.3-0.1l0,0c-0.1-0.1,0-0.3,0.1-0.3l8.6-3.8c0.1-0.1,0.3,0,0.3,0.1l0,0
						C36.8,72.8,36.7,72.9,36.6,73z"/>
					<g>
						<path class="st5" d="M36.6,73c0,0,0.1,0,0.1-0.2c0-0.1,0-0.1-0.1-0.2c-0.1-0.1-0.2-0.1-0.3-0.1c-0.5,0.2-1.2,0.5-2,0.9
							c-1.7,0.8-4,1.8-6.6,2.9c-0.1,0-0.1,0.1-0.1,0.2c0,0.1,0,0.2,0.1,0.2c0.1,0,0.1,0.1,0.2,0c0.1,0,0.2-0.1,0.2-0.1
							c0.3-0.1,0.6-0.3,0.9-0.4c0.6-0.3,1.2-0.5,1.8-0.8c1.1-0.5,2.1-0.9,3-1.3c0.8-0.4,1.5-0.7,2-0.9c0.2-0.1,0.4-0.2,0.5-0.2
							C36.4,73,36.5,73,36.6,73C36.6,73,36.6,73,36.6,73S36.6,73,36.6,73c-0.1,0-0.1,0.1-0.2,0.1c-0.1,0.1-0.3,0.1-0.5,0.2
							c-0.5,0.2-1.2,0.5-2,0.9c-0.8,0.4-1.9,0.8-3,1.3c-0.6,0.3-1.1,0.5-1.8,0.8c-0.3,0.1-0.6,0.3-0.9,0.4c-0.1,0-0.2,0.1-0.2,0.1
							c-0.1,0-0.2,0-0.3,0c0,0-0.1-0.1-0.1-0.1c0,0,0-0.1,0-0.1c0-0.1,0.1-0.2,0.2-0.2c2.6-1.1,4.9-2.2,6.6-2.9
							c0.8-0.4,1.5-0.7,2-0.9c0.1-0.1,0.3,0,0.3,0.1c0.1,0.1,0.1,0.2,0,0.2C36.7,72.9,36.7,72.9,36.6,73C36.6,73,36.6,73,36.6,73z"
							/>
					</g>
				</g>
				<path class="st17" d="M25,73.2c0,0.1,1.1,2,1.6,2.9c0.2,0.4,0.5,0.6,0.9,0.7l0.6,0.1l8.6-3.8l0.3-0.5c0.2-0.3,0.3-0.8,0.1-1.2
					l-1.1-3.1L25,73.2z"/>
				<g class="st11">
					<path d="M30,79.5c0.9-0.2,1.7-0.5,2.7-0.9c0.7-0.3,1.5-0.6,2.3-1c0.6-0.3,1.1-0.5,1.7-0.8c0.3-0.1,0.6-0.4,0.6-0.4L30,79.5z"/>
				</g>
				<g class="st11">
					<path d="M29.2,78.6c1-0.2,1.9-0.6,2.9-1c0.8-0.4,1.6-0.7,2.4-1.1c0.6-0.3,1.2-0.6,1.8-0.9c0.3-0.2,0.6-0.4,0.7-0.5L29.2,78.6z"
						/>
				</g>
				<g class="st11">
					<path d="M28.8,77.6c1-0.2,1.9-0.6,2.9-1c0.8-0.4,1.6-0.7,2.4-1.1c0.6-0.3,1.2-0.6,1.8-0.9c0.3-0.2,0.6-0.4,0.7-0.5L28.8,77.6z"
						/>
				</g>
				<g class="st11">
					<path d="M28.4,76.6c1-0.2,1.9-0.6,2.9-1c0.8-0.4,1.6-0.7,2.4-1.1c0.6-0.3,1.2-0.6,1.8-0.9c0.3-0.2,0.6-0.4,0.7-0.5L28.4,76.6z"
						/>
				</g>
				<path class="st13" d="M25,73.2c0,0.1,1.1,2,1.6,2.9c0.2,0.4,0.5,0.6,0.9,0.7l0.6,0.1l8.6-3.8l0.3-0.5c0.2-0.3,0.3-0.8,0.1-1.2
					l-1.1-3.1L25,73.2z"/>
				<g>
					<path class="st5" d="M37.2,71.9c0,0-2.3,1.1-5.1,2.3c-2.8,1.3-5.2,2.2-5.2,2.2c0,0,2.3-1.1,5.1-2.3
						C34.8,72.9,37.1,71.9,37.2,71.9z"/>
				</g>
				<g>
					<path class="st5" d="M36,68.3c0,0-2.5,1.1-5.6,2.5c-3.1,1.4-5.6,2.5-5.6,2.4c0,0,2.5-1.1,5.6-2.5C33.5,69.3,36,68.2,36,68.3z"
						/>
				</g>
			</g>
		</g>
	</g>
	<g id="Speech_Bubble_1_">
		<g>
			<g>
				<g>
					<g>
						<g>
							<g>
								<g>
									<g>
										<path class="st15" d="M137.4,47.1l-4-0.5c-1.6,1.6-3.6,2.8-6,3.4c-6.8,1.7-13.7-2.5-15.4-9.3c-1.7-6.8,2.5-13.7,9.3-15.4
											c6.8-1.7,13.7,2.5,15.4,9.3c0.7,2.8,0.4,5.7-0.7,8.2l0,0L137.4,47.1z"/>
									</g>
								</g>
								<g>
									<g>
										<g>
											<path class="st5" d="M137.4,47.1c0,0,0-0.1-0.1-0.3c-0.1-0.2-0.2-0.5-0.3-0.8c-0.2-0.7-0.6-1.8-1.1-3.1l0.1,0l0,0
												c0,0,0,0-0.1,0c0,0,0,0,0,0c0.7-1.5,1.2-3.6,1-6.2c-0.1-0.6-0.2-1.3-0.3-1.9c-0.2-0.6-0.4-1.3-0.7-2
												c-0.6-1.3-1.4-2.6-2.5-3.8c-1.1-1.2-2.5-2.1-4.1-2.8c-1.6-0.7-3.4-1.1-5.3-1c-3.7,0-7.6,2-10,5.3c-1.2,1.7-2,3.7-2.2,5.6
												c-0.3,2,0,4,0.6,5.8c0.6,1.8,1.6,3.4,2.9,4.6c1.2,1.3,2.7,2.2,4.2,2.8c1.5,0.6,3,0.9,4.5,1c0.2,0,0.4,0,0.5,0
												c0.2,0,0.4,0,0.5,0c0.4,0,0.7-0.1,1-0.1c0.7-0.1,1.3-0.2,1.9-0.4c2.4-0.7,4.2-2,5.3-3.2c0,0,0,0,0,0
												c1.3,0.2,2.3,0.3,2.9,0.4c0.3,0,0.6,0.1,0.8,0.1C137.3,47.1,137.4,47.1,137.4,47.1s-0.1,0-0.3,0c-0.2,0-0.4,0-0.8-0.1
												c-0.7-0.1-1.7-0.2-3-0.3l0,0c-1.1,1.2-2.9,2.5-5.4,3.3c-0.6,0.2-1.3,0.3-1.9,0.4c-0.3,0-0.7,0.1-1,0.1
												c-0.2,0-0.4,0-0.5,0c-0.2,0-0.4,0-0.5,0c-1.5,0-3-0.3-4.5-1c-1.5-0.6-3-1.6-4.2-2.9c-1.3-1.3-2.3-2.9-2.9-4.7
												c-0.6-1.8-0.9-3.8-0.6-5.8c0.2-2,1-4,2.2-5.7c0.1-0.2,0.3-0.4,0.5-0.6l0.5-0.6l0.5-0.5c0.2-0.2,0.4-0.4,0.6-0.5
												c0.2-0.2,0.4-0.3,0.6-0.5c0.2-0.2,0.4-0.3,0.6-0.4c0.2-0.1,0.4-0.3,0.6-0.4c0.2-0.1,0.4-0.2,0.7-0.4
												c1.8-0.9,3.7-1.4,5.6-1.4c1.9,0,3.7,0.4,5.3,1.1c1.6,0.7,3,1.7,4.1,2.9c1.1,1.2,2,2.5,2.5,3.8c0.3,0.7,0.5,1.3,0.7,2
												c0.2,0.7,0.3,1.3,0.3,2c0.2,2.5-0.4,4.7-1.1,6.2l-0.1,0l0,0c0,0,0,0,0.1,0c0,0,0,0,0,0c0.4,1.4,0.8,2.4,1,3.2
												c0.1,0.4,0.2,0.6,0.3,0.8C137.3,47,137.4,47.1,137.4,47.1z"/>
										</g>
									</g>
								</g>
							</g>
						</g>
					</g>
				</g>
			</g>
			<g>
				<g>
					<g>
						<g>
							<polygon class="st5" points="118.5,38 120,36.3 123.3,38.9 128,33.4 129.6,34.9 123.2,42 							"/>
						</g>
					</g>
				</g>
			</g>
			<g>
				<path class="st3" d="M102.5,48.2c0.6-0.1,1.4-0.2,2.5-0.3c0,0,0,0,0,0c1,1,2.5,2.1,4.6,2.7c0.5,0.2,1.1,0.2,1.6,0.4
					c0.3,0,0.6,0.1,0.9,0.1c0.1,0,0.3,0,0.5,0c0.2,0,0.3,0,0.5,0c1.2,0,2.6-0.3,3.9-0.8c0.3-0.1,0.7-0.3,1-0.5
					c-0.1,0-0.2-0.1-0.3-0.1c-1.5-0.6-2.9-1.6-4.2-2.8c-1.2-1.3-2.3-2.8-2.9-4.6c-0.6-1.8-0.8-3.8-0.6-5.7c0.2-2,1-3.9,2.2-5.6
					c0.1-0.2,0.3-0.4,0.5-0.6l0.5-0.6l0.2-0.2c-0.1,0-0.2,0-0.4,0c-1.6,0-3.1,0.3-4.5,0.9c-1.4,0.6-2.6,1.4-3.5,2.4
					c-1,1-1.7,2.1-2.1,3.2c-0.3,0.6-0.4,1.1-0.6,1.7c-0.1,0.6-0.2,1.1-0.3,1.7c-0.2,2.2,0.3,4,0.9,5.3c0,0,0,0,0,0
					c-0.4,1.2-0.7,2.1-0.9,2.7c-0.1,0.3-0.2,0.5-0.2,0.7c-0.1,0.2-0.1,0.2-0.1,0.2s0.1,0,0.2,0C102,48.2,102.2,48.2,102.5,48.2z"/>
				<g>
					<path class="st5" d="M102.5,48.2c0,0-0.1,0-0.2,0c-0.2,0-0.4,0.1-0.7,0.1l0,0l0,0c0.2-0.7,0.7-2,1.2-3.6l0,0c0,0,0,0,0,0l0-0.1
						l0-0.1c0-0.1-0.1-0.1-0.1-0.2c-0.1-0.1-0.1-0.3-0.2-0.4c-0.1-0.3-0.2-0.6-0.3-1c-0.2-0.7-0.3-1.4-0.3-2.2c0-0.8,0-1.6,0.2-2.5
						c0.1-0.4,0.2-0.9,0.3-1.3c0.1-0.4,0.3-0.9,0.5-1.3c0.8-1.7,2.1-3.4,4-4.5c1.8-1.2,4.1-1.9,6.5-1.7l0.2,0l-0.1,0.1
						c-0.1,0.1-0.1,0.1-0.2,0.2l0,0c-1.5,1.6-2.6,3.7-3,6c-0.6,3.1,0,6.3,1.6,8.8c1.5,2.5,3.8,4.3,6.2,5.2l0.2,0.1l-0.1,0.1
						c-0.6,0.3-1.1,0.6-1.7,0.7c-0.6,0.2-1.2,0.3-1.7,0.4c-1.1,0.2-2.2,0.2-3.2,0h0h0c-0.4-0.1-0.7-0.1-1.1-0.2
						c-0.4-0.1-0.7-0.2-1-0.3c-0.6-0.2-1.2-0.5-1.7-0.8c-1-0.6-1.8-1.2-2.4-1.8c0,0-0.1,0-0.1,0c-0.1,0-0.1,0-0.1,0
						c-0.1,0-0.2,0-0.3,0c-0.2,0-0.4,0-0.5,0.1c-0.3,0-0.6,0.1-0.8,0.1c-0.2,0-0.4,0-0.5,0.1C102.6,48.2,102.5,48.2,102.5,48.2
						s0.1,0,0.2,0c0.1,0,0.3,0,0.5-0.1c0.2,0,0.5-0.1,0.8-0.1c0.2,0,0.3,0,0.5-0.1c0.1,0,0.2,0,0.3,0c0,0,0.1,0,0.1,0l0.1,0
						c0,0,0,0,0,0c0,0,0,0,0,0l0,0c0.6,0.6,1.4,1.2,2.4,1.8c1,0.6,2.3,1,3.8,1.3h0c0.5,0,1,0.1,1.6,0.1c0.5,0,1.1-0.1,1.7-0.1
						c0.6-0.1,1.1-0.2,1.7-0.4c0.6-0.2,1.1-0.5,1.7-0.7l0,0.1c-2.4-0.9-4.7-2.7-6.2-5.2c-1.5-2.5-2.2-5.8-1.6-8.9
						c0.4-2.3,1.6-4.4,3-6.1l0,0l0,0c0.1-0.1,0.1-0.1,0.2-0.2l0.1,0.1c-2.3-0.1-4.6,0.5-6.4,1.7c-1.8,1.2-3.1,2.8-3.9,4.5
						c-0.2,0.4-0.4,0.8-0.5,1.3c-0.1,0.4-0.3,0.9-0.3,1.3c-0.2,0.8-0.2,1.7-0.2,2.4c0,0.8,0.1,1.5,0.3,2.2c0.1,0.3,0.2,0.7,0.3,1
						c0.1,0.1,0.1,0.3,0.2,0.4c0,0.1,0.1,0.1,0.1,0.2l0,0.1l0,0.1c0,0,0,0.1,0,0.1l0,0c-0.6,1.6-1,2.9-1.2,3.6l0,0
						c0.3,0,0.5-0.1,0.7-0.1C102.5,48.2,102.5,48.2,102.5,48.2z"/>
				</g>
			</g>
		</g>
	</g>
	<g id="Chart_x0A_">
		<g>
			<path class="st10" d="M208.9,50.1H205c-0.8,0-1.4-0.6-1.4-1.4V27.2c0-0.8,0.6-1.4,1.4-1.4h3.9c0.8,0,1.4,0.6,1.4,1.4v21.5
				C210.3,49.5,209.7,50.1,208.9,50.1z"/>
			<g>
				<g>
					<path class="st10" d="M187.7,51.1h-3.8c-0.8,0-1.5-0.7-1.5-1.5v-8.1c0-0.8,0.7-1.5,1.5-1.5h3.8c0.8,0,1.5,0.7,1.5,1.5v8.1
						C189.1,50.5,188.5,51.1,187.7,51.1z"/>
				</g>
				<g>
					<path class="st10" d="M198,51.1h-3.6c-0.9,0-1.6-0.7-1.6-1.6V35.6c0-0.9,0.7-1.6,1.6-1.6h3.6c0.9,0,1.6,0.7,1.6,1.6v13.9
						C199.6,50.4,198.9,51.1,198,51.1z"/>
				</g>
				<g>
					<g>
						<path class="st5" d="M207.8,17.7c0,0-0.1,0.1-0.2,0.2c-0.1,0.2-0.3,0.3-0.5,0.6c-0.5,0.5-1.1,1.3-1.9,2.2
							c-1.7,1.9-4,4.5-6.6,7.5l-0.1,0.1l-0.1-0.1c-1.3-0.9-2.7-1.8-4.1-2.7l0.2,0c-0.1,0.1-0.1,0.1-0.2,0.2c-3.4,4-6.5,7.6-8.8,10.3
							l-0.1,0.1l-0.1-0.1c-1.4-1-2.5-1.9-3.3-2.4c-0.4-0.3-0.7-0.5-0.9-0.7c-0.2-0.2-0.3-0.2-0.3-0.3c0,0,0.1,0.1,0.3,0.2
							c0.2,0.2,0.5,0.4,0.9,0.6c0.8,0.6,1.9,1.4,3.3,2.4l-0.1,0c2.2-2.7,5.3-6.3,8.7-10.3c0.1-0.1,0.1-0.1,0.2-0.2l0.1-0.1l0.1,0.1
							c1.4,0.9,2.8,1.9,4.1,2.7l-0.2,0c2.7-3,5-5.5,6.7-7.4c0.8-0.9,1.5-1.6,2-2.1c0.2-0.2,0.4-0.4,0.5-0.6
							C207.7,17.8,207.8,17.7,207.8,17.7z"/>
					</g>
				</g>
				<g>
					<g>
						<path class="st5" d="M208,22.8c0,0-0.1-0.6-0.1-1.6s0-2.3,0-3.8l0.2,0.1c0,0-0.1,0-0.1,0c-1.5,0.2-2.8,0.5-3.8,0.6
							c-1,0.1-1.6,0.2-1.6,0.2c0,0,0.6-0.2,1.6-0.4c1-0.2,2.3-0.4,3.8-0.7c0,0,0.1,0,0.1,0l0.2,0v0.2c0,1.5,0,2.8,0,3.8
							C208.1,22.3,208.1,22.8,208,22.8z"/>
					</g>
				</g>
			</g>
		</g>
	</g>
</g>
</svg>
