<?xml version="1.0" encoding="utf-8"?>
<!-- Generator: Adobe Illustrator 25.4.1, SVG Export Plug-In . SVG Version: 6.00 Build 0)  -->
<svg version="1.1" id="Illustration" xmlns="http://www.w3.org/2000/svg" xmlns:xlink="http://www.w3.org/1999/xlink" x="0px"
	 y="0px" viewBox="0 0 225 150" style="enable-background:new 0 0 225 150;" xml:space="preserve">
<style type="text/css">
	.st0{fill:url(#SVGID_1_);}
	.st1{fill:url(#SVGID_00000034071447205697237750000006921519276086987184_);}
	.st2{fill:#BDFBFA;}
	.st3{fill:url(#SVGID_00000112602211071476548020000005526531525992476548_);}
	.st4{fill:#91FAF7;}
	.st5{fill:#7DE8F4;}
	.st6{fill:url(#SVGID_00000016780211164457913380000006970674041446026939_);}
	.st7{clip-path:url(#SVGID_00000175323902701274535270000012932681015927870348_);}
	.st8{filter:url(#Adobe_OpacityMaskFilter);}
	.st9{clip-path:url(#SVGID_00000120550531667915267460000009134572666426402995_);}
	.st10{clip-path:url(#SVGID_00000098910964930776781790000014258630469139685513_);}
	.st11{clip-path:url(#SVGID_00000090272739898645223760000002565504347294151336_);}
	.st12{clip-path:url(#SVGID_00000036217962235754732910000012859080100109341108_);}
	.st13{clip-path:url(#SVGID_00000158751044914567142880000017828295236486131586_);}
	.st14{clip-path:url(#SVGID_00000063625786043784217070000003515226401047679886_);}
	.st15{clip-path:url(#SVGID_00000107573810389545182200000006288479167668113304_);}
	
		.st16{clip-path:url(#SVGID_00000106121717482301153010000003692716036990983583_);fill:url(#SVGID_00000047056064058736050370000004356404684972274571_);}
	
		.st17{clip-path:url(#SVGID_00000120550531667915267460000009134572666426402995_);mask:url(#SVGID_00000110442083856744003690000003177285545021760182_);fill:url(#SVGID_00000145747507181270356400000004321393010930515646_);}
	.st18{opacity:0.53;fill:url(#SVGID_00000151543855789225238630000002413216101561360785_);enable-background:new    ;}
	.st19{fill:url(#SVGID_00000067199179709888438730000009293044336703783573_);}
	.st20{fill:url(#SVGID_00000022525738543456050300000000425654429084461698_);}
	.st21{fill:url(#SVGID_00000096742133589870282730000011309683897116139940_);}
	.st22{fill:url(#SVGID_00000043442270973019504890000016973657142913347481_);}
	.st23{fill:url(#SVGID_00000130605934060718201140000012836362162846364346_);}
	.st24{opacity:0.78;fill:#FFFFFF;enable-background:new    ;}
	.st25{fill:url(#SVGID_00000044170758644102283210000012736621753782118577_);}
	.st26{fill:url(#SVGID_00000164480673986082657030000010537180287977540232_);}
	.st27{fill:url(#SVGID_00000098203161310172669210000015776323600928752306_);}
	.st28{fill:#FFFFFF;}
	.st29{fill:url(#SVGID_00000107553633489358262930000012919377731735509914_);}
	.st30{fill:url(#SVGID_00000032620851070919704280000013578843519519303569_);}
	.st31{fill:url(#SVGID_00000142163443325640678340000013684787034981354657_);}
	.st32{fill:url(#SVGID_00000023995406920309700040000000153109804469368736_);}
	.st33{fill:url(#SVGID_00000178179228485730229150000017377078125009938846_);}
	.st34{fill:url(#SVGID_00000158012013275245318450000005198354635022782652_);}
	.st35{fill:url(#SVGID_00000131368551039532745780000008750833046996662931_);}
	.st36{fill:url(#SVGID_00000038387928439351504550000002989146844000170630_);}
	.st37{fill:url(#SVGID_00000052806352237936713620000014522526781804979107_);}
	.st38{fill:url(#SVGID_00000146496291677997490860000002603769189646973581_);}
	.st39{fill:url(#SVGID_00000024685232598545492920000016122904032126118313_);}
	.st40{fill:url(#SVGID_00000090280022805757165140000003873113671719428483_);}
	.st41{fill:url(#SVGID_00000104666251246189060830000004784531937733145230_);}
	.st42{fill:url(#SVGID_00000039821935477716314680000012968847016394251166_);}
	.st43{fill:url(#SVGID_00000095298628934047285520000016373161026756435888_);}
	.st44{fill:url(#SVGID_00000037682885751681755810000005434387607309520035_);}
	.st45{fill:url(#SVGID_00000069360308298955295600000017880495583377332405_);}
	.st46{fill:url(#SVGID_00000033359028854784927010000018390261439487437729_);}
	.st47{fill:url(#SVGID_00000134223984709389877840000015625765332483982994_);}
	.st48{fill:url(#SVGID_00000072968720343430568570000004207024800896463763_);}
	.st49{fill:url(#SVGID_00000078758848752643441700000017194439333927719323_);}
	.st50{fill:url(#SVGID_00000002352312922992100480000009699597327960653975_);}
	.st51{fill:url(#SVGID_00000090289820174723658390000004293620299041122200_);}
	.st52{fill:url(#SVGID_00000160911609168002618400000009490013211379212477_);}
	.st53{fill:url(#SVGID_00000029728706215963294050000007657158995567391391_);}
	.st54{fill:url(#SVGID_00000179607994819532752130000010435654411950194831_);}
	.st55{fill:url(#SVGID_00000010298249024484850540000006167150984764757914_);}
	.st56{fill:url(#SVGID_00000118378186052664940450000014310300000680081563_);}
	.st57{fill:url(#SVGID_00000049218920242664528640000012116109180381630641_);}
	.st58{fill:url(#SVGID_00000129926419718791279420000004800950879647623842_);}
	.st59{fill:url(#SVGID_00000168083155858585700590000003574656355036362123_);}
	.st60{fill:url(#SVGID_00000003107108028209541260000008686659196333940126_);}
	.st61{fill:url(#SVGID_00000104689689512258749680000012058115069807667629_);}
	.st62{fill:url(#SVGID_00000144332146124880120420000002769809552985759114_);}
	.st63{fill:url(#SVGID_00000027588383552672778070000013156334209833927081_);}
	.st64{fill:url(#SVGID_00000054960322686607727830000013299465218700898974_);}
	.st65{fill:url(#SVGID_00000090255165726062991060000007465934840347447475_);}
	.st66{fill:url(#SVGID_00000116193061097617344270000004754079257054097024_);}
	.st67{fill:url(#SVGID_00000092424000118693367530000008761859138439758231_);}
	.st68{fill:url(#SVGID_00000065076222841509371150000016086319126076283537_);}
	.st69{fill:url(#SVGID_00000147206985296377793790000007687566333693280689_);}
	.st70{fill:url(#SVGID_00000059302666755387435340000006143183999145608833_);}
	.st71{fill:url(#SVGID_00000081621568906519499630000018070854312716397996_);}
	.st72{fill:url(#SVGID_00000037675668475181235120000010948993717342358939_);}
	.st73{fill:url(#SVGID_00000160188064484280821770000011168634049341929660_);}
	.st74{fill:url(#SVGID_00000039849557584199373470000000586464672843815609_);}
	.st75{fill:url(#SVGID_00000019666522873461630700000018160205403096120448_);}
	.st76{fill:url(#SVGID_00000036243705494485237760000008782389715940846525_);}
</style>
<g>
	
		<linearGradient id="SVGID_1_" gradientUnits="userSpaceOnUse" x1="199.7544" y1="1090.4445" x2="105.0191" y2="989.5972" gradientTransform="matrix(1 0 0 1 0 -930)">
		<stop  offset="0" style="stop-color:#DAFCFE"/>
		<stop  offset="1" style="stop-color:#E9FDFD"/>
	</linearGradient>
	<path class="st0" d="M171.3,120.1c-3.5,3.6-6.6,5.7-9,7.3c-23.4,15.6-50.1,11.1-58.3,9.6c-13.3-2.5-24.6-4.2-34.2-13
		c-22-19.8-20.9-61.2-4.1-86.9c2-3,18.7-27.9,45.5-31.4c0.7-0.1,1.1-0.1,1.6-0.2c4.1-0.4,29.8-2.8,50.7,14.8c3,2.5,7.8,7,12.3,13.9
		C192,59.6,192,98.7,171.3,120.1z"/>
	<g>
		
			<linearGradient id="SVGID_00000065053075291119557330000007159346556639426183_" gradientUnits="userSpaceOnUse" x1="149.8507" y1="1021.8828" x2="180.2784" y2="1021.8828" gradientTransform="matrix(1 0 0 1 0 -930)">
			<stop  offset="0" style="stop-color:#4FADFF"/>
			<stop  offset="1" style="stop-color:#4095E2"/>
		</linearGradient>
		<path style="fill:url(#SVGID_00000065053075291119557330000007159346556639426183_);" d="M158.6,54l11.9-2.8c0,0,8-0.7,9,6.4
			s0.8,49,0.4,57.7c-0.1,2.9-0.1,5.5,0.1,7.8c0.5,4.8-3.2,9-8,9.1l-22.2,0.4L158.6,54z"/>
		<g>
			<path class="st2" d="M152.3,135.9c0,0,2.4-33.4,19.3-53.7c0.2-0.3,0.6-0.2,0.7,0.1C174.1,87.4,184.5,120.6,152.3,135.9z"/>
			
				<linearGradient id="SVGID_00000001628865175925191430000013006260010311864712_" gradientUnits="userSpaceOnUse" x1="152.8751" y1="1043.0969" x2="170.7973" y2="1043.0969" gradientTransform="matrix(1 0 0 1 0 -930)">
				<stop  offset="0" style="stop-color:#DAFCFE"/>
				<stop  offset="1" style="stop-color:#E9FDFD"/>
			</linearGradient>
			<path style="fill:url(#SVGID_00000001628865175925191430000013006260010311864712_);" d="M170.8,91.9c-0.1,1.9-0.4,3.9-0.8,5.8
				c-0.3,1.9-0.7,3.8-1.2,5.7c-0.9,3.8-2.1,7.5-3.5,11.1c-0.7,1.8-1.5,3.6-2.3,5.4c-0.4,0.9-0.9,1.7-1.3,2.6
				c-0.5,0.9-0.9,1.7-1.4,2.5c-2,3.4-4.3,6.5-7,9.4c-0.1,0.1-0.2,0.1-0.3,0s-0.1-0.2,0-0.3l0,0c2.4-3.1,4.5-6.3,6.3-9.6
				c0.5-0.8,0.9-1.7,1.3-2.5c0.4-0.9,0.9-1.7,1.3-2.6c0.2-0.4,0.4-0.9,0.6-1.3l0.6-1.3c0.2-0.4,0.4-0.9,0.6-1.3
				c0.2-0.4,0.4-0.9,0.5-1.3c0.4-0.9,0.7-1.8,1-2.7c0.3-0.9,0.6-1.8,0.9-2.7c0.6-1.8,1.2-3.7,1.7-5.5c0.5-1.9,1-3.7,1.4-5.6
				s0.8-3.8,1.2-5.7l0,0c0-0.1,0.1-0.2,0.2-0.2C170.8,91.7,170.8,91.7,170.8,91.9z"/>
		</g>
		<g>
			<path class="st4" d="M154.4,132.2c0,0,17.5-29.4,36.5-29.8c0.3,0,0.6,0.3,0.5,0.6C190.5,106.9,184.9,127,154.4,132.2z"/>
			<path class="st2" d="M186.8,107.1c-1.2,1.2-2.3,2.4-3.5,3.5c-0.6,0.6-1.2,1.1-1.8,1.7s-1.2,1.1-1.9,1.7c-2.5,2.2-5.1,4.3-7.7,6.3
				c-1.3,1-2.7,2-4,3l-2,1.4c-0.3,0.2-0.7,0.5-1,0.7l-1,0.7c-2.8,1.9-5.6,3.5-8.5,5.1c-0.1,0.1-0.2,0-0.3-0.1s0-0.2,0.1-0.3l0,0
				l2.1-1.3l1.1-0.6c0.4-0.2,0.7-0.4,1.1-0.7l2.1-1.3c0.7-0.5,1.4-0.9,2.1-1.4l1-0.7l1-0.7l2-1.4c1.3-1,2.7-2,4-3s2.6-2,3.9-3.1
				l1.9-1.6l1.9-1.6c0.6-0.5,1.2-1.1,1.9-1.6c0.6-0.6,1.2-1.1,1.8-1.7c1.2-1.1,2.4-2.3,3.6-3.4l0,0c0.1-0.1,0.2-0.1,0.3,0
				C186.9,106.9,186.9,107,186.8,107.1z"/>
		</g>
		<path class="st5" d="M134.4,54.6c0,0,21.7,1.2,36.1-3.4c0,0-9.6-0.7-9.6,21.5c0,17,2.5,49.3,0.3,55.5c-2.2,6.1-10.4,14.4-22.2,7.3
			C127.3,128.4,134.4,54.6,134.4,54.6z"/>
		
			<linearGradient id="SVGID_00000148652604701000723770000016312015632673600434_" gradientUnits="userSpaceOnUse" x1="154.0385" y1="975.4639" x2="110.6942" y2="885.3663" gradientTransform="matrix(1 0 0 1 0 -930)">
			<stop  offset="0" style="stop-color:#4095E2"/>
			<stop  offset="1" style="stop-color:#4FADFF"/>
		</linearGradient>
		<path style="fill:url(#SVGID_00000148652604701000723770000016312015632673600434_);" d="M128.6,21.3c0,0,23.9,2.6,27-1.4
			c0,0-2.5-7.3-9.7-6.8C138.6,13.5,128.6,21.3,128.6,21.3z"/>
		<path class="st4" d="M50.7,29.5c2.1,23.5,6.5,73.1,8.4,97.3c0.4,5.4,4.7,9.6,10.1,10c19.2,1.2,62.5,3.6,79.1,1.4l0,0
			c-3.8-1.9-6.2-5.8-6.2-10L143,19.7c0-3.8,3.8-6.6,7.4-5.2c2.3,0.8,4,2.7,5.1,5.4c-1.6-4.6-4-7.9-9.7-6.8c0,0-55.8,0.6-82.9,2.2
			C55.6,15.7,50.1,22.2,50.7,29.5z"/>
		<g>
			<g>
				<g>
					<defs>
						<polygon id="SVGID_00000056428751876448945680000006455391491593725828_" points="26.4,-17.9 26.5,-17.9 26.4,-17.8 						"/>
					</defs>
					<clipPath id="SVGID_00000095325402621546470580000010141842164785991605_">
						<use xlink:href="#SVGID_00000056428751876448945680000006455391491593725828_"  style="overflow:visible;"/>
					</clipPath>
				</g>
				<g>
					<defs>
						<polygon id="SVGID_00000176726599689260512390000015380120575140111240_" points="26.4,-17.9 26.5,-17.9 26.4,-17.8 						"/>
					</defs>
					<defs>
						<path id="SVGID_00000165945104858296570270000016737072667212877470_" d="M26.3-18L26.3-18L26.3-18z"/>
					</defs>
					<clipPath id="SVGID_00000041276205384232233410000015768750273462879676_">
						<use xlink:href="#SVGID_00000176726599689260512390000015380120575140111240_"  style="overflow:visible;"/>
					</clipPath>
					
						<clipPath id="SVGID_00000063608319114364321290000012811946812568711831_" style="clip-path:url(#SVGID_00000041276205384232233410000015768750273462879676_);">
						<use xlink:href="#SVGID_00000165945104858296570270000016737072667212877470_"  style="overflow:visible;"/>
					</clipPath>
					<defs>
						<filter id="Adobe_OpacityMaskFilter" filterUnits="userSpaceOnUse" x="52.8" y="15.5" width="90.1" height="121.9">
							<feColorMatrix  type="matrix" values="1 0 0 0 0  0 1 0 0 0  0 0 1 0 0  0 0 0 1 0"/>
						</filter>
					</defs>
					
						<mask maskUnits="userSpaceOnUse" x="52.8" y="15.5" width="90.1" height="121.9" id="SVGID_00000110442083856744003690000003177285545021760182_">
						<g class="st8">
							<g>
								<g>
									<defs>
										<polygon id="SVGID_00000005234550377754812850000002666924403111977350_" points="26.4,-17.9 26.5,-17.9 26.4,-17.8 
																					"/>
									</defs>
									<defs>
										<path id="SVGID_00000063628499289265177400000010625163756290244261_" d="M26.3-18L26.3-18L26.3-18z"/>
									</defs>
									
										<clipPath id="SVGID_00000143581389955134637710000006081926537232547244_" style="clip-path:url(#SVGID_00000063608319114364321290000012811946812568711831_);">
										<use xlink:href="#SVGID_00000005234550377754812850000002666924403111977350_"  style="overflow:visible;"/>
									</clipPath>
									
										<clipPath id="SVGID_00000116209263204534903390000007937463826423783042_" style="clip-path:url(#SVGID_00000143581389955134637710000006081926537232547244_);">
										<use xlink:href="#SVGID_00000063628499289265177400000010625163756290244261_"  style="overflow:visible;"/>
									</clipPath>
								</g>
								<g>
									<defs>
										<polygon id="SVGID_00000106868915081387103470000001328102065935126151_" points="26.4,-17.9 26.5,-17.9 26.4,-17.8 
																					"/>
									</defs>
									<defs>
										<path id="SVGID_00000137813834279035533570000003854729133694229421_" d="M26.3-18L26.3-18L26.3-18z"/>
									</defs>
									<defs>
										<polygon id="SVGID_00000163074862749809267710000007088096256674500522_" points="26.4,-17.9 26.5,-17.9 26.4,-17.8 
																					"/>
									</defs>
									
										<clipPath id="SVGID_00000139995883478802223990000012926278530515873680_" style="clip-path:url(#SVGID_00000063608319114364321290000012811946812568711831_);">
										<use xlink:href="#SVGID_00000106868915081387103470000001328102065935126151_"  style="overflow:visible;"/>
									</clipPath>
									
										<clipPath id="SVGID_00000030467028568728369940000003714323985557760155_" style="clip-path:url(#SVGID_00000139995883478802223990000012926278530515873680_);">
										<use xlink:href="#SVGID_00000137813834279035533570000003854729133694229421_"  style="overflow:visible;"/>
									</clipPath>
									
										<clipPath id="SVGID_00000171711238872591180140000001995190453712867514_" style="clip-path:url(#SVGID_00000030467028568728369940000003714323985557760155_);">
										<use xlink:href="#SVGID_00000163074862749809267710000007088096256674500522_"  style="overflow:visible;"/>
									</clipPath>
								</g>
								<g>
									<defs>
										<polygon id="SVGID_00000095315191662867966900000012727263357059718055_" points="26.4,-17.9 26.5,-17.9 26.4,-17.8 
																					"/>
									</defs>
									<defs>
										<path id="SVGID_00000160154785138981388350000012544859284277387453_" d="M26.3-18L26.3-18L26.3-18z"/>
									</defs>
									<defs>
										<polygon id="SVGID_00000092442150794137785540000017308651167804683440_" points="26.4,-17.9 26.5,-17.9 26.4,-17.8 
																					"/>
									</defs>
									<defs>
										<path id="SVGID_00000116915939338615813190000017935425196710186112_" d="M26.3-18L26.3-18L26.3-18z"/>
									</defs>
									
										<clipPath id="SVGID_00000048501981470007306260000015137706079756101297_" style="clip-path:url(#SVGID_00000063608319114364321290000012811946812568711831_);">
										<use xlink:href="#SVGID_00000095315191662867966900000012727263357059718055_"  style="overflow:visible;"/>
									</clipPath>
									
										<clipPath id="SVGID_00000159428235035875886030000005448441518183344016_" style="clip-path:url(#SVGID_00000048501981470007306260000015137706079756101297_);">
										<use xlink:href="#SVGID_00000160154785138981388350000012544859284277387453_"  style="overflow:visible;"/>
									</clipPath>
									
										<clipPath id="SVGID_00000026130902572381883930000013762905433753074605_" style="clip-path:url(#SVGID_00000159428235035875886030000005448441518183344016_);">
										<use xlink:href="#SVGID_00000092442150794137785540000017308651167804683440_"  style="overflow:visible;"/>
									</clipPath>
									
										<clipPath id="SVGID_00000041985864398549779400000000037063562504444328_" style="clip-path:url(#SVGID_00000026130902572381883930000013762905433753074605_);">
										<use xlink:href="#SVGID_00000116915939338615813190000017935425196710186112_"  style="overflow:visible;"/>
									</clipPath>
									
										<linearGradient id="SVGID_00000027576363487995547290000011266762334437637790_" gradientUnits="userSpaceOnUse" x1="131.7954" y1="968.4706" x2="16.2763" y2="1116.2994" gradientTransform="matrix(1 0 0 1 0 -930)">
										<stop  offset="0" style="stop-color:#FFFFFF"/>
										<stop  offset="1" style="stop-color:#000000"/>
									</linearGradient>
									
										<path style="clip-path:url(#SVGID_00000041985864398549779400000000037063562504444328_);fill:url(#SVGID_00000027576363487995547290000011266762334437637790_);" d="
										M64.5,18.4l75-2.9c-3.1,22.9-1.8,69.6-0.6,115.5c0.1,2.7,1.7,5.2,4.1,6.3l0,0c0,0-50,0.6-71.5-0.9
										c-5.1-0.4-9.2-4.2-9.9-9.2c-3-19.7-10-70.6-8.5-97.5C53.4,23.5,58.4,18.6,64.5,18.4z"/>
								</g>
							</g>
						</g>
					</mask>
					
						<linearGradient id="SVGID_00000072961489181727900640000014408095875265701820_" gradientUnits="userSpaceOnUse" x1="131.7954" y1="968.4706" x2="16.2763" y2="1116.2994" gradientTransform="matrix(1 0 0 1 0 -930)">
						<stop  offset="0" style="stop-color:#FFFFFF"/>
						<stop  offset="1" style="stop-color:#000000"/>
					</linearGradient>
					
						<path style="clip-path:url(#SVGID_00000063608319114364321290000012811946812568711831_);mask:url(#SVGID_00000110442083856744003690000003177285545021760182_);fill:url(#SVGID_00000072961489181727900640000014408095875265701820_);" d="
						M64.5,18.4l75-2.9c-3.1,22.9-1.8,69.6-0.6,115.5c0.1,2.7,1.7,5.2,4.1,6.3l0,0c0,0-50,0.6-71.5-0.9c-5.1-0.4-9.2-4.2-9.9-9.2
						c-3-19.7-10-70.6-8.5-97.5C53.4,23.5,58.4,18.6,64.5,18.4z"/>
				</g>
			</g>
		</g>
		
			<linearGradient id="SVGID_00000031181637577024859270000005183012970968089005_" gradientUnits="userSpaceOnUse" x1="131.7954" y1="968.4706" x2="16.2763" y2="1116.2994" gradientTransform="matrix(1 0 0 1 0 -930)">
			<stop  offset="0" style="stop-color:#FFFFFF"/>
			<stop  offset="1" style="stop-color:#FFFFFF"/>
		</linearGradient>
		<path style="opacity:0.53;fill:url(#SVGID_00000031181637577024859270000005183012970968089005_);enable-background:new    ;" d="
			M64.5,18.4l75-2.9c-3.1,22.9-1.8,69.6-0.6,115.5c0.1,2.7,1.7,5.2,4.1,6.3l0,0c0,0-50,0.6-71.5-0.9c-5.1-0.4-9.2-4.2-9.9-9.2
			c-3-19.7-10-70.6-8.5-97.5C53.4,23.5,58.4,18.6,64.5,18.4z"/>
		<g>
			
				<linearGradient id="SVGID_00000059276123761242616180000001322996802945916083_" gradientUnits="userSpaceOnUse" x1="63.4708" y1="987.6358" x2="75.4639" y2="987.6358" gradientTransform="matrix(1 0 0 1 0 -930)">
				<stop  offset="0" style="stop-color:#DAFCFE"/>
				<stop  offset="1" style="stop-color:#E9FDFD"/>
			</linearGradient>
			<path style="fill:url(#SVGID_00000059276123761242616180000001322996802945916083_);" d="M63.5,53.9l0.9,8.4
				c0.2,1.5,1.4,2.7,3,2.8l4.9,0.2c1.8,0.1,3.2-1.3,3.2-3.1v-9.1c0-1.8-1.6-3.3-3.4-3.1l-5.8,0.5C64.6,50.6,63.4,52.2,63.5,53.9z"/>
			
				<linearGradient id="SVGID_00000055684839187183411190000002010952507656413825_" gradientUnits="userSpaceOnUse" x1="78.9416" y1="982.4922" x2="129.7501" y2="982.4922" gradientTransform="matrix(1 0 0 1 0 -930)">
				<stop  offset="0" style="stop-color:#DAFCFE"/>
				<stop  offset="1" style="stop-color:#E9FDFD"/>
			</linearGradient>
			<path style="fill:url(#SVGID_00000055684839187183411190000002010952507656413825_);" d="M80.7,51.3c8.1-0.3,39.4-1.3,47.3-1.5
				c1,0,1.8,0.8,1.8,1.8l0,0c0,0.9-0.7,1.7-1.7,1.8l-47.3,1.8c-0.9,0-1.7-0.6-1.8-1.5v-0.2C78.9,52.3,79.7,51.4,80.7,51.3z"/>
			
				<linearGradient id="SVGID_00000148646368575969114600000008160603204083413407_" gradientUnits="userSpaceOnUse" x1="79.8939" y1="990.6845" x2="114.0055" y2="990.6845" gradientTransform="matrix(1 0 0 1 0 -930)">
				<stop  offset="0" style="stop-color:#DAFCFE"/>
				<stop  offset="1" style="stop-color:#E9FDFD"/>
			</linearGradient>
			<path style="fill:url(#SVGID_00000148646368575969114600000008160603204083413407_);" d="M80.2,62.4L80.2,62.4
				c0.1,0.2,0.4,0.4,0.7,0.4l32.5-0.7c0.4,0,0.7-0.3,0.7-0.7v-2.1c0-0.4-0.4-0.8-0.8-0.7l-31.5,1.2C80.3,59.7,79.5,61.2,80.2,62.4z"
				/>
		</g>
		<g>
			
				<linearGradient id="SVGID_00000173162248878242170180000011458959788492175518_" gradientUnits="userSpaceOnUse" x1="63.4708" y1="1010.9358" x2="75.4639" y2="1010.9358" gradientTransform="matrix(1 0 0 1 0 -930)">
				<stop  offset="0" style="stop-color:#DAFCFE"/>
				<stop  offset="1" style="stop-color:#E9FDFD"/>
			</linearGradient>
			<path style="fill:url(#SVGID_00000173162248878242170180000011458959788492175518_);" d="M63.5,77.2l0.9,8.4
				c0.2,1.5,1.4,2.7,3,2.8l4.9,0.2c1.8,0.1,3.2-1.3,3.2-3.1v-9.1c0-1.8-1.6-3.3-3.4-3.1l-5.8,0.5C64.6,74,63.4,75.5,63.5,77.2z"/>
			
				<linearGradient id="SVGID_00000111909665785721855290000013815038389641875849_" gradientUnits="userSpaceOnUse" x1="78.9416" y1="1005.8923" x2="129.7501" y2="1005.8923" gradientTransform="matrix(1 0 0 1 0 -930)">
				<stop  offset="0" style="stop-color:#DAFCFE"/>
				<stop  offset="1" style="stop-color:#E9FDFD"/>
			</linearGradient>
			<path style="fill:url(#SVGID_00000111909665785721855290000013815038389641875849_);" d="M80.7,74.7c8.1-0.3,39.4-1.3,47.3-1.5
				c1,0,1.8,0.8,1.8,1.8l0,0c0,0.9-0.7,1.7-1.7,1.8l-47.3,1.8c-0.9,0-1.7-0.6-1.8-1.5v-0.2C78.9,75.6,79.7,74.7,80.7,74.7z"/>
			<path class="st24" d="M80.2,85.7L80.2,85.7c0.1,0.2,0.4,0.4,0.7,0.4l32.5-0.7c0.4,0,0.7-0.3,0.7-0.7v-2.1c0-0.4-0.4-0.8-0.8-0.7
				l-31.5,1C80.3,83,79.5,84.5,80.2,85.7z"/>
		</g>
		<g>
			
				<linearGradient id="SVGID_00000165231791279611619750000001302543999946325927_" gradientUnits="userSpaceOnUse" x1="63.4708" y1="1034.2358" x2="75.4639" y2="1034.2358" gradientTransform="matrix(1 0 0 1 0 -930)">
				<stop  offset="0" style="stop-color:#DAFCFE"/>
				<stop  offset="1" style="stop-color:#E9FDFD"/>
			</linearGradient>
			<path style="fill:url(#SVGID_00000165231791279611619750000001302543999946325927_);" d="M63.5,100.6l0.9,8.4
				c0.2,1.5,1.4,2.7,3,2.8l4.9,0.1c1.8,0.1,3.2-1.3,3.2-3.1v-9.1c0-1.8-1.6-3.3-3.4-3.1l-5.8,0.5C64.6,97.3,63.4,98.8,63.5,100.6z"
				/>
			
				<linearGradient id="SVGID_00000160902389711014121070000014009824985063644067_" gradientUnits="userSpaceOnUse" x1="78.9416" y1="1029.1923" x2="129.7501" y2="1029.1923" gradientTransform="matrix(1 0 0 1 0 -930)">
				<stop  offset="0" style="stop-color:#DAFCFE"/>
				<stop  offset="1" style="stop-color:#E9FDFD"/>
			</linearGradient>
			<path style="fill:url(#SVGID_00000160902389711014121070000014009824985063644067_);" d="M80.7,98c8.1-0.3,39.4-1.3,47.3-1.5
				c1,0,1.8,0.8,1.8,1.8l0,0c0,0.9-0.7,1.7-1.7,1.8l-47.3,1.8c-0.9,0-1.7-0.6-1.8-1.5v-0.2C78.9,98.9,79.7,98,80.7,98z"/>
			
				<linearGradient id="SVGID_00000145752885580012213550000004169358605903907722_" gradientUnits="userSpaceOnUse" x1="79.8939" y1="1037.3845" x2="114.0055" y2="1037.3845" gradientTransform="matrix(1 0 0 1 0 -930)">
				<stop  offset="0" style="stop-color:#DAFCFE"/>
				<stop  offset="1" style="stop-color:#E9FDFD"/>
			</linearGradient>
			<path style="fill:url(#SVGID_00000145752885580012213550000004169358605903907722_);" d="M80.2,109.1L80.2,109.1
				c0.1,0.2,0.4,0.4,0.7,0.4l32.5-0.7c0.4,0,0.7-0.3,0.7-0.7V106c0-0.4-0.4-0.8-0.8-0.7l-31.5,1.2C80.3,106.3,79.5,107.8,80.2,109.1
				z"/>
		</g>
		<path class="st28" d="M158.1,103c-0.2,0-0.4-0.2-0.4-0.4c0,0,0-1.2-0.1-5.1c0-0.2,0.2-0.4,0.4-0.4s0.4,0.2,0.4,0.4
			c0.1,3.9,0.1,5.1,0.1,5.1C158.5,102.9,158.3,103,158.1,103L158.1,103z"/>
		<path class="st28" d="M157.8,93.4c-0.2,0-0.4-0.2-0.4-0.4c-0.1-2.6-0.2-5.4-0.3-8.4c-0.2-4.1-0.4-8.3-0.5-12.3
			c-0.3-10.7,1.5-14.8,3-16.3c0.8-0.8,1.5-0.9,1.6-0.9c0.2,0,0.4,0.2,0.4,0.4s-0.2,0.4-0.4,0.4c-0.1,0-4.3,0.5-3.9,16.4
			c0.1,4,0.3,8.2,0.5,12.3c0.1,3,0.3,5.8,0.3,8.4C158.2,93.2,158,93.4,157.8,93.4L157.8,93.4z"/>
		
			<linearGradient id="SVGID_00000048466362556011167050000015286432558868104871_" gradientUnits="userSpaceOnUse" x1="120.2625" y1="1029.3477" x2="104.2952" y2="1070.2284" gradientTransform="matrix(1 0 0 1 0 -930)">
			<stop  offset="0" style="stop-color:#052669"/>
			<stop  offset="1" style="stop-color:#0F3D91"/>
		</linearGradient>
		<path style="fill:url(#SVGID_00000048466362556011167050000015286432558868104871_);" d="M104.9,132.8c-0.4,0-0.7-0.2-1.1-0.5
			c-1.4-1.3-1.8-3.4-1.9-5.3c-0.7,0.7-1.3,1.5-2,2.2l-0.4-0.3c0.8-0.8,1.6-1.7,2.4-2.6c-0.1-2.6,0.1-5.3,0.4-7.9
			c0.2-1.6,0.5-3.3,1.2-4.9c0.2-0.5,0.6-1.2,1.2-1.7c0.7-0.5,1.5-0.5,2.1-0.1c0.7,0.4,0.8,1.3,0.9,1.9c0.4,3.5-0.9,6.6-2.1,8.7
			c-0.9,1.5-2,2.9-3.1,4.2c0.1,2,0.3,4.1,1.8,5.5c0.3,0.3,0.6,0.4,0.8,0.4c0.4,0,0.7-0.4,1-0.8c1.2-1.7,2.2-3.6,2.8-5.6
			c0.1-0.6,0.2-1.2,0.5-1.7l0.5,0.2c-0.1,0.6-0.3,1.1-0.5,1.7c-0.1,0.6,0,1.1,0.1,1.7c0.1,0.3,0.3,1.3,1,1.4
			c0.5,0.1,1.1-0.3,1.7-1.3l2.6-3.9l-0.3,1.4c-0.1,0.5-0.3,1.7,0.4,1.9c0.4,0.2,0.8-0.1,1.3-0.3c0.5-0.3,1-0.5,1.5-0.5h0.3v0.3
			c0,0.1-0.2,1.5,0.4,1.6c0.3,0.1,0.6-0.1,1-0.5c0.3-0.3,0.6-0.6,1-0.7l0.1,0.5c-0.3,0.1-0.5,0.3-0.8,0.6c-0.4,0.4-0.8,0.8-1.4,0.6
			c-0.8-0.2-1-1-0.9-1.9c-0.3,0-0.6,0.2-0.9,0.4c-0.5,0.3-1.1,0.6-1.7,0.4c-0.5-0.2-0.8-0.7-0.8-1.4l-1.2,1.8
			c-0.5,0.7-1.2,1.7-2.2,1.5c-0.7-0.1-1.2-0.8-1.4-1.8c0-0.1-0.1-0.3-0.1-0.4c-0.6,1.6-1.4,3-2.4,4.4
			C106,132.2,105.6,132.7,104.9,132.8L104.9,132.8z M105.8,111.8c-0.3,0-0.7,0.1-0.9,0.3c-0.5,0.4-0.9,1-1.1,1.4
			c-0.7,1.5-0.9,3.2-1.1,4.7c-0.3,2.4-0.4,4.9-0.4,7.3c1-1.2,1.9-2.4,2.7-3.7c1.2-2,2.5-5,2-8.4c-0.1-0.8-0.3-1.3-0.7-1.5
			C106.2,111.9,106,111.8,105.8,111.8z"/>
		<path class="st24" d="M127.3,40.8l-59.8,1.8c-2.1,0.1-3.9-1.6-4.1-3.7l-0.2-4.5c-0.1-2.2,1.6-4.1,3.8-4.1l60.1-1.6
			c2.2-0.1,4.1,1.8,4,4L131,37C131,39.1,129.4,40.8,127.3,40.8z"/>
	</g>
	<g>
		
			<linearGradient id="SVGID_00000032627369085686747790000005051572977346602159_" gradientUnits="userSpaceOnUse" x1="-2457.2419" y1="-9277.8066" x2="-2454.3438" y2="-9277.8066" gradientTransform="matrix(-0.9813 0.1926 -0.1926 -0.9813 -4089.8254 -8543.1855)">
			<stop  offset="0" style="stop-color:#FEBAE5"/>
			<stop  offset="1" style="stop-color:#FF8ECF"/>
		</linearGradient>
		<path style="fill:url(#SVGID_00000032627369085686747790000005051572977346602159_);" d="M108.4,87.9c0,0-2-1.3-2.3-1
			c-0.1,0.1-0.3,0.5-0.5,0.9c-0.2,0.3-0.1,0.6,0.1,0.9l0.5,0.5c0.5,0.5,1.3,0.5,1.8-0.1C108.2,88.8,108.4,88.4,108.4,87.9z"/>
		<g>
			<g>
				
					<linearGradient id="SVGID_00000024723374875886523420000010439360726746128562_" gradientUnits="userSpaceOnUse" x1="-1184.1285" y1="1015.0157" x2="-1170.9286" y2="1015.0157" gradientTransform="matrix(1 0 0 1 1290.1023 -930)">
					<stop  offset="0" style="stop-color:#FEBAE5"/>
					<stop  offset="1" style="stop-color:#FF8ECF"/>
				</linearGradient>
				<path style="fill:url(#SVGID_00000024723374875886523420000010439360726746128562_);" d="M110.5,85.4c0,0-0.7-1.8-1.5-1.6
					c-0.8,0.2-1.7,0.8-1.7,0.8l-1.3,1.7c0,0,3.6,1.4,4.9,0.6c0,0,3.7,0.6,8.3-0.1c-0.7-1.4-1.1-2.8-1.3-3.9
					C115.6,84.2,113,85.2,110.5,85.4z"/>
				
					<linearGradient id="SVGID_00000104663790251273048060000011456257328074222996_" gradientUnits="userSpaceOnUse" x1="145.2027" y1="970.7315" x2="137.1624" y2="986.5856" gradientTransform="matrix(1 0 0 1 0 -930)">
					<stop  offset="0" style="stop-color:#052669"/>
					<stop  offset="1" style="stop-color:#0F3D91"/>
				</linearGradient>
				<path style="fill:url(#SVGID_00000104663790251273048060000011456257328074222996_);" d="M130,72.4c0,0-5.3,6.6-12,10.5
					c0.2,1.1,0.6,2.5,1.3,3.9c3.5-0.6,7.6-2,11-5L130,72.4z"/>
			</g>
			
				<linearGradient id="SVGID_00000080171684570412673150000012842908282732223908_" gradientUnits="userSpaceOnUse" x1="157.9065" y1="977.1742" x2="149.8663" y2="993.0283" gradientTransform="matrix(1 0 0 1 0 -930)">
				<stop  offset="0" style="stop-color:#052669"/>
				<stop  offset="1" style="stop-color:#0F3D91"/>
			</linearGradient>
			<path style="fill:url(#SVGID_00000080171684570412673150000012842908282732223908_);" d="M136.5,101.8c-1-4.9-2.1-7.7-5.5-17
				c-1.1-2.9-2.1-5.9-1.6-9l0.5-3.5c0,0,6.7-2.3,14.1-0.1c0,0,10.1,4.4,3.3,26.2C144.2,101.9,140.6,102.9,136.5,101.8z"/>
			
				<linearGradient id="SVGID_00000050636800021710083320000005942196937496788923_" gradientUnits="userSpaceOnUse" x1="-1154.6571" y1="1001.8184" x2="-1156.7736" y2="995.4688" gradientTransform="matrix(1 0 0 1 1290.1023 -930)">
				<stop  offset="0" style="stop-color:#FEBAE5"/>
				<stop  offset="1" style="stop-color:#FF8ECF"/>
			</linearGradient>
			<path style="fill:url(#SVGID_00000050636800021710083320000005942196937496788923_);" d="M131.1,68l1.7,4.2
				c0.1,0.3,0.3,0.5,0.6,0.5c1,0.2,3.4,0.4,5-0.6c0.2-0.1,0.2-0.4,0.1-0.6l-3.2-4.6L131.1,68z"/>
			<g>
				
					<linearGradient id="SVGID_00000119835245792842405400000018304221931559797150_" gradientUnits="userSpaceOnUse" x1="130.5574" y1="994.0178" x2="138.1646" y2="997.3253" gradientTransform="matrix(1 0 0 1 0 -930)">
					<stop  offset="0" style="stop-color:#FEBAE5"/>
					<stop  offset="1" style="stop-color:#FF8ECF"/>
				</linearGradient>
				<path style="fill:url(#SVGID_00000119835245792842405400000018304221931559797150_);" d="M132.9,61.6c-0.1,0.1-3.1,6-3.1,6
					l3.4,1.6l3.7-5.2C136.9,64,134.1,60.4,132.9,61.6z"/>
				
					<linearGradient id="SVGID_00000100374458542313229810000000485772660434956209_" gradientUnits="userSpaceOnUse" x1="5409.3164" y1="6186.25" x2="5418.4038" y2="6186.25" gradientTransform="matrix(-0.6854 -0.7281 -0.7281 0.6854 8347.9268 -233.0616)">
					<stop  offset="0" style="stop-color:#052669"/>
					<stop  offset="1" style="stop-color:#0F3D91"/>
				</linearGradient>
				<path style="fill:url(#SVGID_00000100374458542313229810000000485772660434956209_);" d="M135.4,64.6l-1.7,2.8l-0.1,0.1
					c-0.2,0.2-0.9,0.7-1.4,0c-0.5-0.6-0.9-1.2-1.3-1.5c-0.3-0.1-0.6,0-0.7,0.2c-0.3,0.6-0.8,1.7-1.2,2.8c-0.1,0.3,0.1,0.6,0.3,0.7
					c0.7,0.3,2.1,0.8,3.3,1c0.2,0,0.4-0.1,0.5-0.2c0.5-0.7,2-2.7,2.5-3.2s1.3-0.3,1.7-0.2c0.1,0,0.3,0,0.4-0.1
					c0.4-0.2,1.1-0.8,0.5-1.8c-0.2-0.2-0.1-0.6,0.2-0.7c0.4-0.3,0.9-0.8,0.5-1.7c-0.5-0.9-1.3-1-1.8-0.9c-0.2,0-0.5-0.1-0.6-0.3
					c0-0.1-0.1-0.2-0.3-0.2c-0.3-0.1-0.5-0.3-0.4-0.6c0.1-0.5,0-1.2-0.8-1.6c-1.5-0.8-2.8,0.5-3.1,1.6s1.3,1.9,2.4,2
					c0.8,0.1,1.2,0.9,1.3,1.4C135.5,64.3,135.4,64.5,135.4,64.6z"/>
				
					<linearGradient id="SVGID_00000059286779903764262500000013185952980289041843_" gradientUnits="userSpaceOnUse" x1="130.0967" y1="995.0772" x2="137.704" y2="998.3847" gradientTransform="matrix(1 0 0 1 0 -930)">
					<stop  offset="0" style="stop-color:#FEBAE5"/>
					<stop  offset="1" style="stop-color:#FF8ECF"/>
				</linearGradient>
				<path style="fill:url(#SVGID_00000059286779903764262500000013185952980289041843_);" d="M134.8,68.2c0,0,0.7-1.7,1.6-1.7
					c0.8,0.1,1.5,0.9,0.5,1.8C135.5,69.5,134.8,68.2,134.8,68.2z"/>
			</g>
			<g>
				
					<linearGradient id="SVGID_00000094617639741971432900000009826971510542119834_" gradientUnits="userSpaceOnUse" x1="2899.7507" y1="1075.35" x2="2909.2051" y2="1075.35" gradientTransform="matrix(-1 0 0 1 3044.7588 -930)">
					<stop  offset="0" style="stop-color:#4095E2"/>
					<stop  offset="1" style="stop-color:#4FADFF"/>
				</linearGradient>
				<path style="fill:url(#SVGID_00000094617639741971432900000009826971510542119834_);" d="M135.9,144.9c1.6,0.1,4.4,0.4,6.6,0.5
					c1.3,0.1,2.1-0.1,2.5-0.2c0,0.1,0,0.1,0,0.1c0,0.2-0.2,0.4-0.4,0.4c-4.2,0.2-7.5,0.1-8.7,0c-0.2,0-0.4-0.3-0.3-0.5
					C135.7,145.1,135.8,145,135.9,144.9z"/>
				
					<linearGradient id="SVGID_00000067198297826039101240000001788924421036428181_" gradientUnits="userSpaceOnUse" x1="167.8153" y1="1066.4893" x2="133.5827" y2="1076.2463" gradientTransform="matrix(1 0 0 1 0 -930)">
					<stop  offset="0" style="stop-color:#052669"/>
					<stop  offset="1" style="stop-color:#0F3D91"/>
				</linearGradient>
				<path style="fill:url(#SVGID_00000067198297826039101240000001788924421036428181_);" d="M142.5,145.4c-2.2-0.1-5-0.3-6.6-0.5
					c1.6-2,6.6-3.3,6.6-3.3h1.4c1,1.4,1.1,2.8,1.1,3.5C144.6,145.3,143.9,145.5,142.5,145.4z"/>
				
					<linearGradient id="SVGID_00000157309568594192597520000011704280897016205699_" gradientUnits="userSpaceOnUse" x1="2900.623" y1="1070.8922" x2="2903.2861" y2="1070.8922" gradientTransform="matrix(-1 0 0 1 3044.7588 -930)">
					<stop  offset="0" style="stop-color:#FEBAE5"/>
					<stop  offset="1" style="stop-color:#FF8ECF"/>
				</linearGradient>
				<path style="fill:url(#SVGID_00000157309568594192597520000011704280897016205699_);" d="M144.2,139.3l-0.1,2.6
					c0,0.3-0.2,0.5-0.5,0.6c-0.3,0-0.7,0-1.1-0.1c-0.2-0.1-0.4-0.3-0.5-0.5l-0.5-2.6H144.2z"/>
			</g>
			<g>
				<g>
					
						<linearGradient id="SVGID_00000170245687018409908380000014800590840304642944_" gradientUnits="userSpaceOnUse" x1="2880.9026" y1="1075.1422" x2="2884.5276" y2="1075.1422" gradientTransform="matrix(-1 0 0 1 3044.7588 -930)">
						<stop  offset="0" style="stop-color:#4095E2"/>
						<stop  offset="1" style="stop-color:#4FADFF"/>
					</linearGradient>
					<path style="fill:url(#SVGID_00000170245687018409908380000014800590840304642944_);" d="M162.7,145.4c0.7-0.1,1-0.5,1.2-0.9
						l0,0c0.1,0.4-0.1,0.8-0.6,1c-0.6,0.2-1.2,0.3-1.7,0.3s-1-0.2-1.3-0.6l0,0C160.8,145.5,161.6,145.5,162.7,145.4z"/>
					
						<linearGradient id="SVGID_00000137119071723215592190000007462832405433553081_" gradientUnits="userSpaceOnUse" x1="148.736" y1="1064.5632" x2="170.0694" y2="1078.4547" gradientTransform="matrix(1 0 0 1 0 -930)">
						<stop  offset="0" style="stop-color:#052669"/>
						<stop  offset="1" style="stop-color:#0F3D91"/>
					</linearGradient>
					<path style="fill:url(#SVGID_00000137119071723215592190000007462832405433553081_);" d="M159.4,139.3h1.2
						c1.8,0,2.9,3.7,3.3,5.2c-0.1,0.4-0.5,0.8-1.2,0.9c-1.2,0.2-1.9,0.1-2.4-0.1c-1-1.3-1.4-3.1-1.7-4.2
						C158.3,139.8,159.4,139.3,159.4,139.3z"/>
				</g>
				
					<linearGradient id="SVGID_00000144299386417023572610000006571488381825407901_" gradientUnits="userSpaceOnUse" x1="2883.6936" y1="1068.7556" x2="2886.8762" y2="1068.7556" gradientTransform="matrix(-1 0 0 1 3044.7588 -930)">
					<stop  offset="0" style="stop-color:#FEBAE5"/>
					<stop  offset="1" style="stop-color:#FF8ECF"/>
				</linearGradient>
				<path style="fill:url(#SVGID_00000144299386417023572610000006571488381825407901_);" d="M160.4,136.9l0.7,2.6
					c0.1,0.3-0.1,0.6-0.4,0.8c-0.4,0.2-0.9,0.4-1.4,0.3c-0.2,0-0.4-0.2-0.5-0.4l-1-2.7L160.4,136.9z"/>
			</g>
			
				<linearGradient id="SVGID_00000022542438619435795660000015450070850361382276_" gradientUnits="userSpaceOnUse" x1="550.2654" y1="1073.4082" x2="598.829" y2="1006.2665" gradientTransform="matrix(-1 0 0 1 711.7585 -930)">
				<stop  offset="0" style="stop-color:#052669"/>
				<stop  offset="1" style="stop-color:#0F3D91"/>
			</linearGradient>
			<path style="fill:url(#SVGID_00000022542438619435795660000015450070850361382276_);" d="M161.2,137.6c-0.8,0.7-3.5,0.8-3.5,0.8
				c-9.5-22.9-13.5-29.2-13.5-29.2c1.4,8.6,0.3,30.8,0.3,30.8c-1.6,0.7-3.6,0-3.6,0c-0.1-14.1-2.1-29.3-4.7-39
				c6.4-0.1,9.9-1.5,11.1-2.4C152.7,107.2,161.2,137.6,161.2,137.6z"/>
			<g>
				
					<linearGradient id="SVGID_00000165922243999521847770000009258729884609390994_" gradientUnits="userSpaceOnUse" x1="-2044.6621" y1="1535.5225" x2="-2044.9574" y2="1508.2528" gradientTransform="matrix(0.9919 -0.127 0.127 0.9919 1982.9485 -1648.1104)">
					<stop  offset="0" style="stop-color:#FF8ECF"/>
					<stop  offset="1" style="stop-color:#FE62A8"/>
				</linearGradient>
				<path style="fill:url(#SVGID_00000165922243999521847770000009258729884609390994_);" d="M134.7,107.4l1.2,7.4
					c0.2,1.3,1.4,2.2,2.7,2l17.7-2.2c0.9-0.1,1.5-0.8,1.5-1.7c0-1.9,0-5.3-0.8-8.4L134.7,107.4z"/>
				<path class="st28" d="M139.1,116.3L139.1,116.3C139,116.2,139.1,116.2,139.1,116.3l0.5-0.2c0,0,0.1,0,0.1,0.1c0,0,0,0.1-0.1,0.1
					H139.1L139.1,116.3z M138,116.3L138,116.3c-0.2,0-0.3-0.1-0.5-0.2c0,0,0,0,0-0.1c0,0,0,0,0.1,0
					C137.7,116.1,137.9,116.1,138,116.3C138.1,116.2,138.1,116.2,138,116.3C138.1,116.3,138.1,116.3,138,116.3z M140.7,116.1
					C140.6,116.1,140.6,116.1,140.7,116.1C140.6,116,140.7,116,140.7,116.1l0.5-0.2c0,0,0.1,0,0.1,0.1c0,0,0,0.1-0.1,0.1H140.7
					L140.7,116.1z M142.2,115.9L142.2,115.9C142.1,115.8,142.2,115.8,142.2,115.9l0.5-0.2c0,0,0.1,0,0.1,0.1c0,0,0,0.1-0.1,0.1
					H142.2L142.2,115.9z M143.8,115.7C143.7,115.7,143.7,115.7,143.8,115.7C143.7,115.6,143.8,115.6,143.8,115.7l0.5-0.2
					c0,0,0.1,0,0.1,0.1c0,0,0,0.1-0.1,0.1H143.8L143.8,115.7z M145.3,115.5L145.3,115.5C145.2,115.4,145.3,115.4,145.3,115.5
					l0.5-0.2c0,0,0.1,0,0.1,0.1c0,0,0,0.1-0.1,0.1H145.3L145.3,115.5z M136.8,115.4C136.8,115.4,136.7,115.4,136.8,115.4
					c-0.1-0.1-0.2-0.3-0.3-0.4v-0.1h0.1C136.6,115.1,136.7,115.2,136.8,115.4L136.8,115.4L136.8,115.4z M146.9,115.4
					C146.8,115.4,146.8,115.3,146.9,115.4C146.8,115.3,146.9,115.3,146.9,115.4l0.5-0.2c0,0,0.1,0,0.1,0.1c0,0,0,0.1-0.1,0.1H146.9
					L146.9,115.4z M148.4,115.2C148.4,115.2,148.3,115.2,148.4,115.2C148.3,115.1,148.4,115.1,148.4,115.2l0.5-0.2
					c0,0,0.1,0,0.1,0.1c0,0,0,0.1-0.1,0.1H148.4L148.4,115.2z M149.9,115L149.9,115C149.8,114.9,149.9,114.9,149.9,115l0.5-0.2
					c0,0,0.1,0,0.1,0.1c0,0,0,0.1-0.1,0.1H149.9L149.9,115z M151.5,114.8C151.5,114.8,151.4,114.8,151.5,114.8
					C151.4,114.7,151.5,114.7,151.5,114.8l0.5-0.2c0,0,0.1,0,0.1,0.1c0,0,0,0.1-0.1,0.1H151.5L151.5,114.8z M153,114.6L153,114.6
					C152.9,114.5,153,114.5,153,114.6l0.5-0.2c0,0,0.1,0,0.1,0.1c0,0,0,0.1-0.1,0.1H153L153,114.6z M154.6,114.4
					C154.5,114.4,154.5,114.4,154.6,114.4C154.5,114.3,154.6,114.3,154.6,114.4l0.5-0.2c0,0,0.1,0,0.1,0.1c0,0,0,0.1-0.1,0.1H154.6
					L154.6,114.4z M156.1,114.2L156.1,114.2C156,114.1,156.1,114.1,156.1,114.2c0.1-0.1,0.3-0.2,0.4-0.3h0.1v0.1
					C156.4,114.1,156.3,114.1,156.1,114.2L156.1,114.2z M136.3,114C136.2,114,136.2,114,136.3,114l-0.1-0.5v-0.1h0.1V114L136.3,114
					L136.3,114z M157.2,113.1C157.2,113.1,157.1,113.1,157.2,113.1C157.1,113.1,157.1,113.1,157.2,113.1c0-0.2,0-0.4,0-0.5
					c0,0,0-0.1,0.1-0.1l0,0c0,0,0.1,0,0.1,0.1C157.3,112.8,157.3,112.9,157.2,113.1L157.2,113.1z M136,112.5
					C136,112.5,136,112.4,136,112.5l-0.1-0.5v-0.1h0.1V112.5C136.1,112.4,136.1,112.5,136,112.5L136,112.5z M157.2,111.6
					C157.2,111.6,157.2,111.5,157.2,111.6c-0.1-0.2-0.1-0.4-0.1-0.5c0,0,0-0.1,0.1-0.1c0,0,0.1,0,0.1,0.1
					C157.3,111.2,157.3,111.4,157.2,111.6C157.3,111.5,157.3,111.6,157.2,111.6L157.2,111.6z M135.8,110.9
					C135.7,110.9,135.7,110.9,135.8,110.9l-0.1-0.5v-0.1h0.1V110.9L135.8,110.9L135.8,110.9z M157.2,110
					C157.2,110,157.1,110,157.2,110c-0.1-0.2-0.1-0.4-0.1-0.5c0,0,0-0.1,0.1-0.1c0,0,0.1,0,0.1,0.1
					C157.2,109.6,157.2,109.8,157.2,110C157.3,110,157.2,110,157.2,110L157.2,110z M135.5,109.4L135.5,109.4l-0.1-0.5v-0.1h0.1
					V109.4C135.6,109.4,135.6,109.4,135.5,109.4L135.5,109.4z M157.1,108.5C157.1,108.5,157,108.4,157.1,108.5
					c-0.1-0.2-0.1-0.4-0.1-0.5c0,0,0-0.1,0.1-0.1c0,0,0.1,0,0.1,0.1C157.1,108.1,157.1,108.2,157.1,108.5
					C157.1,108.4,157.1,108.5,157.1,108.5L157.1,108.5z M135.3,107.9C135.2,107.9,135.2,107.8,135.3,107.9l-0.1-0.6l0.4-0.1
					c0,0,0.1,0,0.1,0.1c0,0,0,0.1-0.1,0.1h-0.3L135.3,107.9C135.3,107.8,135.3,107.9,135.3,107.9L135.3,107.9z M136.6,107.2
					L136.6,107.2C136.5,107.1,136.6,107.1,136.6,107.2l0.5-0.2c0,0,0.1,0,0.1,0.1c0,0,0,0.1-0.1,0.1H136.6L136.6,107.2z M138.2,107
					C138.2,107,138.1,107,138.2,107C138.1,106.9,138.2,106.9,138.2,107l0.5-0.2c0,0,0.1,0,0.1,0.1c0,0,0,0.1-0.1,0.1H138.2
					L138.2,107z M156.9,106.9C156.9,106.9,156.8,106.9,156.9,106.9c-0.1-0.2-0.1-0.4-0.1-0.5v-0.1h0.1
					C156.9,106.5,156.9,106.7,156.9,106.9C157,106.9,156.9,106.9,156.9,106.9L156.9,106.9z M139.7,106.8L139.7,106.8
					C139.6,106.7,139.7,106.7,139.7,106.8l0.5-0.2c0,0,0.1,0,0.1,0.1c0,0,0,0.1-0.1,0.1H139.7L139.7,106.8z M141.3,106.6
					C141.2,106.6,141.2,106.6,141.3,106.6C141.2,106.5,141.3,106.5,141.3,106.6l0.5-0.2c0,0,0.1,0,0.1,0.1c0,0,0,0.1-0.1,0.1H141.3
					L141.3,106.6z M142.8,106.4L142.8,106.4C142.7,106.3,142.8,106.3,142.8,106.4l0.5-0.2c0,0,0.1,0,0.1,0.1c0,0,0,0.1-0.1,0.1
					H142.8L142.8,106.4z M144.4,106.2C144.3,106.2,144.3,106.2,144.4,106.2C144.3,106.1,144.4,106.1,144.4,106.2l0.5-0.2
					c0,0,0.1,0,0.1,0.1c0,0,0,0.1-0.1,0.1H144.4L144.4,106.2z M145.9,106C145.9,106,145.8,106,145.9,106
					C145.8,105.9,145.9,105.9,145.9,106l0.5-0.2c0,0,0.1,0,0.1,0.1c0,0,0,0.1-0.1,0.1H145.9L145.9,106z M147.4,105.8L147.4,105.8
					C147.3,105.7,147.4,105.7,147.4,105.8l0.5-0.2c0,0,0.1,0,0.1,0.1c0,0,0,0.1-0.1,0.1H147.4C147.5,105.8,147.4,105.8,147.4,105.8z
					 M149,105.6C149,105.6,148.9,105.6,149,105.6C148.9,105.5,149,105.5,149,105.6l0.5-0.2c0,0,0.1,0,0.1,0.1c0,0,0,0.1-0.1,0.1H149
					L149,105.6z M150.5,105.4L150.5,105.4C150.4,105.3,150.5,105.3,150.5,105.4l0.5-0.2c0,0,0.1,0,0.1,0.1c0,0,0,0.1-0.1,0.1H150.5
					L150.5,105.4z M156.6,105.4L156.6,105.4c-0.1-0.2-0.1-0.3-0.2-0.5v-0.1h0.1C156.6,105,156.6,105.2,156.6,105.4
					C156.7,105.4,156.7,105.4,156.6,105.4L156.6,105.4z M152.1,105.2C152,105.2,152,105.2,152.1,105.2
					C152,105.1,152.1,105.1,152.1,105.2l0.5-0.2c0,0,0.1,0,0.1,0.1c0,0,0,0.1-0.1,0.1H152.1L152.1,105.2z M153.6,105L153.6,105
					C153.5,104.9,153.6,104.9,153.6,105l0.5-0.2c0,0,0.1,0,0.1,0.1c0,0,0,0.1-0.1,0.1H153.6L153.6,105z M155.2,104.8
					C155.1,104.8,155.1,104.8,155.2,104.8C155.1,104.7,155.2,104.7,155.2,104.8l0.5-0.2c0,0,0.1,0,0.1,0.1c0,0,0,0.1-0.1,0.1H155.2
					L155.2,104.8z"/>
				
					<linearGradient id="SVGID_00000106836812237223404730000006733532772698654105_" gradientUnits="userSpaceOnUse" x1="-2049.447" y1="1502.6328" x2="-2049.5781" y2="1499.4498" gradientTransform="matrix(0.9919 -0.127 0.127 0.9919 1982.9485 -1648.1104)">
					<stop  offset="0" style="stop-color:#E13D92"/>
					<stop  offset="1" style="stop-color:#E95AAB"/>
				</linearGradient>
				<path style="fill:url(#SVGID_00000106836812237223404730000006733532772698654105_);" d="M139.2,101.4v-0.6
					c0-0.1,0.2-0.3,0.3-0.3c0.5-0.2,1.9-0.5,2.6-0.1l0.2,0.7L139.2,101.4z"/>
				
					<linearGradient id="SVGID_00000013902330184951498130000001252912451718797735_" gradientUnits="userSpaceOnUse" x1="-2049.6702" y1="1497.8568" x2="-2049.0139" y2="1506.9783" gradientTransform="matrix(0.9919 -0.127 0.127 0.9919 1982.9485 -1648.1104)">
					<stop  offset="0" style="stop-color:#E13D92"/>
					<stop  offset="1" style="stop-color:#E95AAB"/>
				</linearGradient>
				<path style="fill:url(#SVGID_00000013902330184951498130000001252912451718797735_);" d="M140.8,100.6c-0.1,0-0.3,0.1-0.4,0
					c-0.2,0-0.3-0.1-0.3-0.3l-0.2-1.8l0.9-0.1l0.2,1.8C141.1,100.4,141,100.5,140.8,100.6z"/>
				
					<linearGradient id="SVGID_00000129170917769813250230000005587347099462593215_" gradientUnits="userSpaceOnUse" x1="-2040.5778" y1="1502.2676" x2="-2040.709" y2="1499.0846" gradientTransform="matrix(0.9919 -0.127 0.127 0.9919 1982.9485 -1648.1104)">
					<stop  offset="0" style="stop-color:#E13D92"/>
					<stop  offset="1" style="stop-color:#E95AAB"/>
				</linearGradient>
				<path style="fill:url(#SVGID_00000129170917769813250230000005587347099462593215_);" d="M148,100.2v-0.6c0-0.1,0.2-0.3,0.3-0.3
					c0.5-0.2,1.9-0.5,2.6-0.1l0.2,0.7L148,100.2z"/>
				
					<linearGradient id="SVGID_00000066480028178866197360000003125050283187470212_" gradientUnits="userSpaceOnUse" x1="-2040.8784" y1="1497.225" x2="-2040.2222" y2="1506.3463" gradientTransform="matrix(0.9919 -0.127 0.127 0.9919 1982.9485 -1648.1104)">
					<stop  offset="0" style="stop-color:#E13D92"/>
					<stop  offset="1" style="stop-color:#E95AAB"/>
				</linearGradient>
				<path style="fill:url(#SVGID_00000066480028178866197360000003125050283187470212_);" d="M149.6,99.5c-0.1,0-0.3,0.1-0.4,0
					c-0.2,0-0.3-0.1-0.3-0.3l-0.3-2l0.9-0.1l0.3,2C149.9,99.3,149.8,99.4,149.6,99.5z"/>
				
					<linearGradient id="SVGID_00000132078456153496243610000003599718266345621140_" gradientUnits="userSpaceOnUse" x1="-2044.4492" y1="1492.7805" x2="-2045.335" y2="1499.2761" gradientTransform="matrix(0.9919 -0.127 0.127 0.9919 1982.9485 -1648.1104)">
					<stop  offset="0" style="stop-color:#E13D92"/>
					<stop  offset="1" style="stop-color:#E95AAB"/>
				</linearGradient>
				<path style="fill:url(#SVGID_00000132078456153496243610000003599718266345621140_);" d="M139.9,99l9.7-1.6
					c0.2,0,0.4-0.2,0.4-0.4c0-0.3,0-0.8-0.1-1.2c-0.1-0.5-0.7-0.9-1.2-0.8c-1.8,0.2-6.5,0.8-8.9,2.1c-0.3,0.1-0.4,0.4-0.5,0.7
					c0,0.3,0,0.6,0.1,1C139.5,98.9,139.7,99,139.9,99z"/>
				
					<linearGradient id="SVGID_00000049904417980312663530000012999160661582413705_" gradientUnits="userSpaceOnUse" x1="140.7948" y1="1026.7942" x2="137.7939" y2="1009.7511" gradientTransform="matrix(1 0 0 1 0 -930)">
					<stop  offset="0" style="stop-color:#FEBAE5"/>
					<stop  offset="1" style="stop-color:#FF8ECF"/>
				</linearGradient>
				<path style="fill:url(#SVGID_00000049904417980312663530000012999160661582413705_);" d="M139.6,98.6c-0.1,0-0.1,0-0.2-0.1
					c0,0-0.1-0.4,0-0.8c0-0.3,0.3-0.6,0.5-0.7c0.5-0.2,1.5-0.6,2.4-0.8c0.1,0,0.2,0,0.2,0.1s0,0.2-0.1,0.2c-0.9,0.1-1.9,0.6-2.3,0.8
					c-0.2,0.1-0.3,0.3-0.4,0.5c0,0.3,0,0.7,0,0.7C139.8,98.5,139.7,98.6,139.6,98.6L139.6,98.6z"/>
				
					<linearGradient id="SVGID_00000017494260766645365020000005641250756045420451_" gradientUnits="userSpaceOnUse" x1="-2044.186" y1="1497.8395" x2="-2047.4341" y2="1528.1542" gradientTransform="matrix(0.9919 -0.127 0.127 0.9919 1982.9485 -1648.1104)">
					<stop  offset="0" style="stop-color:#FF8ECF"/>
					<stop  offset="1" style="stop-color:#FE62A8"/>
				</linearGradient>
				<path style="fill:url(#SVGID_00000017494260766645365020000005641250756045420451_);" d="M134.6,101.7
					c3.2-0.4,16.8-2.3,20.8-2.4c0.3,0,0.7,0.2,0.8,0.5c0.4,1,1.2,3.4,1.4,5.9c0,0.3-0.2,0.6-0.5,0.7l-8.8,2.9l-3.2,0.4l-9.9-0.7
					c-0.3,0-0.6-0.3-0.7-0.6c-0.2-1.2-0.7-4.1-0.6-6C133.9,102.1,134.2,101.8,134.6,101.7z"/>
				<path class="st28" d="M145,109.1h-0.5c0,0-0.1,0-0.1-0.1c0,0,0-0.1,0.1-0.1h0.5h0.2c0,0,0.1,0,0.1,0.1c0,0,0,0.1-0.1,0.1H145z
					 M143.5,109L143.5,109H143c0,0-0.1,0-0.1-0.1c0,0,0-0.1,0.1-0.1h0.5C143.5,108.9,143.5,108.9,143.5,109L143.5,109z M146.4,108.9
					C146.4,108.9,146.3,108.9,146.4,108.9C146.3,108.8,146.4,108.8,146.4,108.9l0.5-0.2c0,0,0.1,0,0.1,0.1c0,0,0,0.1-0.1,0.1H146.4
					L146.4,108.9z M141.9,108.9L141.9,108.9h-0.5c0,0-0.1,0-0.1-0.1c0,0,0-0.1,0.1-0.1h0.5C142,108.8,142,108.8,141.9,108.9
					C142,108.8,142,108.9,141.9,108.9z M140.4,108.8L140.4,108.8h-0.5c0,0-0.1,0-0.1-0.1c0,0,0-0.1,0.1-0.1h0.5
					C140.4,108.7,140.4,108.7,140.4,108.8C140.4,108.7,140.4,108.8,140.4,108.8z M147.9,108.7L147.9,108.7
					C147.8,108.6,147.9,108.6,147.9,108.7l0.2-0.1l0.3-0.1h0.1v0.1l-0.3,0.1H147.9L147.9,108.7z M138.8,108.7L138.8,108.7h-0.5
					c0,0-0.1,0-0.1-0.1c0,0,0-0.1,0.1-0.1h0.5C138.9,108.5,138.9,108.6,138.8,108.7C138.9,108.6,138.9,108.7,138.8,108.7z
					 M137.3,108.6L137.3,108.6h-0.5c0,0-0.1,0-0.1-0.1c0,0,0-0.1,0.1-0.1h0.5C137.3,108.4,137.3,108.5,137.3,108.6
					C137.3,108.5,137.3,108.6,137.3,108.6z M135.7,108.4L135.7,108.4h-0.5c0,0-0.1,0-0.1-0.1s0-0.1,0.1-0.1h0.5
					C135.8,108.3,135.8,108.4,135.7,108.4C135.8,108.4,135.8,108.4,135.7,108.4z M149.4,108.3L149.4,108.3
					C149.3,108.2,149.4,108.2,149.4,108.3l0.4-0.2h0.1v0.1L149.4,108.3L149.4,108.3z M150.9,107.8
					C150.9,107.8,150.8,107.8,150.9,107.8C150.8,107.7,150.9,107.7,150.9,107.8l0.4-0.2h0.1v0.1L150.9,107.8L150.9,107.8z
					 M135.1,107.4C135,107.4,135,107.3,135.1,107.4c-0.1-0.2-0.1-0.4-0.1-0.5v-0.1h0.1C135.1,107,135.1,107.2,135.1,107.4
					C135.1,107.3,135.1,107.4,135.1,107.4L135.1,107.4z M152.4,107.3C152.3,107.3,152.3,107.3,152.4,107.3
					C152.3,107.2,152.4,107.2,152.4,107.3l0.4-0.2h0.1v0.1L152.4,107.3L152.4,107.3z M153.8,106.8L153.8,106.8
					C153.7,106.7,153.8,106.7,153.8,106.8l0.4-0.2h0.1v0.1L153.8,106.8C153.9,106.8,153.9,106.8,153.8,106.8z M155.3,106.3
					L155.3,106.3C155.2,106.2,155.3,106.2,155.3,106.3l0.4-0.2h0.1v0.1L155.3,106.3L155.3,106.3z M156.8,105.9L156.8,105.9
					C156.7,105.8,156.8,105.8,156.8,105.9c-0.1-0.2-0.1-0.4-0.1-0.5c0,0,0-0.1,0.1-0.1h0.1C156.9,105.5,156.9,105.6,156.8,105.9
					L156.8,105.9L156.8,105.9L156.8,105.9z M134.8,105.8L134.8,105.8c-0.1-0.2-0.1-0.4-0.1-0.5c0,0,0-0.1,0.1-0.1c0,0,0.1,0,0.1,0.1
					C134.9,105.5,134.9,105.6,134.8,105.8C134.9,105.8,134.9,105.8,134.8,105.8L134.8,105.8z M156.6,104.3
					C156.6,104.3,156.5,104.3,156.6,104.3c-0.1-0.2-0.1-0.4-0.1-0.5v-0.1h0.1C156.6,104,156.6,104.1,156.6,104.3
					C156.7,104.3,156.6,104.3,156.6,104.3L156.6,104.3z M134.7,104.3C134.7,104.3,134.6,104.3,134.7,104.3c-0.1-0.2-0.1-0.4-0.1-0.5
					c0,0,0-0.1,0.1-0.1c0,0,0.1,0,0.1,0.1C134.7,103.9,134.7,104.1,134.7,104.3C134.7,104.2,134.7,104.3,134.7,104.3L134.7,104.3z
					 M156.3,102.8C156.2,102.8,156.2,102.8,156.3,102.8c-0.1-0.2-0.1-0.3-0.2-0.5v-0.1h0.1C156.2,102.4,156.3,102.6,156.3,102.8
					L156.3,102.8L156.3,102.8z M134.6,102.7L134.6,102.7L134.6,102.7l-0.1-0.2c0-0.1,0-0.1,0.1-0.1h0.3h0.1v0.1h-0.3L134.6,102.7
					C134.7,102.7,134.7,102.7,134.6,102.7z M136.1,102.4C136,102.4,136,102.4,136.1,102.4C136,102.3,136.1,102.3,136.1,102.4
					l0.5-0.2h0.1c0,0,0,0.1-0.1,0.1L136.1,102.4L136.1,102.4z M137.6,102.2C137.6,102.2,137.6,102.1,137.6,102.2
					C137.5,102.1,137.6,102.1,137.6,102.2l0.5-0.2h0.1v0.1L137.6,102.2L137.6,102.2z M139.2,102C139.1,102,139.1,101.9,139.2,102
					C139.1,101.9,139.2,101.9,139.2,102l0.5-0.2c0,0,0.1,0,0.1,0.1c0,0,0,0.1-0.1,0.1H139.2L139.2,102z M140.7,101.8
					C140.7,101.8,140.6,101.7,140.7,101.8C140.6,101.7,140.7,101.7,140.7,101.8l0.5-0.2c0,0,0.1,0,0.1,0.1s0,0.1-0.1,0.1H140.7
					L140.7,101.8z M142.2,101.6C142.2,101.6,142.2,101.5,142.2,101.6C142.1,101.5,142.2,101.5,142.2,101.6l0.5-0.2
					c0,0,0.1,0,0.1,0.1c0,0,0,0.1-0.1,0.1H142.2C142.2,101.5,142.2,101.6,142.2,101.6z M143.8,101.4L143.8,101.4l0.5-0.2
					c0,0,0.1,0,0.1,0.1c0,0,0,0.1-0.1,0.1H143.8z M155.8,101.3L155.8,101.3c-0.1-0.2-0.2-0.3-0.2-0.5v-0.1h0.1
					C155.8,100.9,155.8,101.1,155.8,101.3C155.9,101.3,155.9,101.3,155.8,101.3L155.8,101.3z M143.8,101.3L143.8,101.3L143.8,101.3z
					 M145.3,101.2C145.3,101.2,145.3,101.1,145.3,101.2C145.2,101.1,145.3,101.1,145.3,101.2l0.5-0.2c0,0,0.1,0,0.1,0.1
					c0,0,0,0.1-0.1,0.1H145.3L145.3,101.2z M146.9,101C146.8,101,146.8,101,146.9,101C146.8,100.9,146.9,100.9,146.9,101l0.5-0.2
					c0,0,0.1,0,0.1,0.1c0,0,0,0.1-0.1,0.1H146.9L146.9,101z M148.4,100.8L148.4,100.8C148.3,100.7,148.4,100.7,148.4,100.8l0.5-0.2
					c0,0,0.1,0,0.1,0.1c0,0,0,0.1-0.1,0.1H148.4L148.4,100.8z M150,100.6C149.9,100.6,149.9,100.6,150,100.6
					C149.9,100.5,150,100.5,150,100.6l0.5-0.1c0,0,0.1,0,0.1,0.1c0,0,0,0.1-0.1,0.1L150,100.6L150,100.6z M151.5,100.5L151.5,100.5
					C151.4,100.4,151.5,100.4,151.5,100.5c0.2-0.1,0.3-0.1,0.5-0.1c0,0,0.1,0,0.1,0.1c0,0,0,0.1-0.1,0.1
					C151.8,100.4,151.7,100.5,151.5,100.5L151.5,100.5z M153.1,100.3C153,100.3,153,100.3,153.1,100.3
					C153,100.2,153.1,100.2,153.1,100.3c0.2-0.1,0.3-0.1,0.5-0.1c0,0,0.1,0,0.1,0.1c0,0,0,0.1-0.1,0.1
					C153.4,100.3,153.2,100.3,153.1,100.3L153.1,100.3z M154.6,100.2L154.6,100.2C154.5,100.1,154.6,100.1,154.6,100.2
					c0.2-0.1,0.3-0.1,0.5-0.1l0,0c0,0,0.1,0,0.1,0.1c0,0,0,0.1-0.1,0.1C154.9,100.2,154.8,100.2,154.6,100.2L154.6,100.2z"/>
				
					<linearGradient id="SVGID_00000017491590204164876250000000098058396889585314_" gradientUnits="userSpaceOnUse" x1="-2043.9294" y1="1501.5834" x2="-2045.209" y2="1511.7214" gradientTransform="matrix(0.9919 -0.127 0.127 0.9919 1982.9485 -1648.1104)">
					<stop  offset="0" style="stop-color:#E13D92"/>
					<stop  offset="1" style="stop-color:#E95AAB"/>
				</linearGradient>
				<path style="fill:url(#SVGID_00000017491590204164876250000000098058396889585314_);" d="M148.2,110.8l-2.8,0.4
					c-0.4,0-0.7-0.2-0.8-0.5l-0.7-2.7c-0.1-0.4,0.2-0.8,0.6-0.9l3.4-0.4c0.4-0.1,0.8,0.3,0.8,0.7l0.1,2.7
					C148.8,110.4,148.5,110.7,148.2,110.8z"/>
				
					<linearGradient id="SVGID_00000077308639334257550550000000418623254876943271_" gradientUnits="userSpaceOnUse" x1="-2046.7001" y1="1509.54" x2="-2042.9794" y2="1509.54" gradientTransform="matrix(0.9919 -0.127 0.127 0.9919 1982.9485 -1648.1104)">
					<stop  offset="0" style="stop-color:#FF8ECF"/>
					<stop  offset="1" style="stop-color:#FE62A8"/>
				</linearGradient>
				<path style="fill:url(#SVGID_00000077308639334257550550000000418623254876943271_);" d="M147.7,110.3l-2.1,0.3
					c-0.3,0-0.5-0.1-0.6-0.4l-0.5-2c-0.1-0.3,0.1-0.6,0.5-0.7l2.6-0.3c0.3,0,0.6,0.2,0.6,0.5l0.1,2.1
					C148.2,110.1,148,110.3,147.7,110.3z"/>
			</g>
			
				<linearGradient id="SVGID_00000175320124479436439490000000040716276955640757_" gradientUnits="userSpaceOnUse" x1="148.6498" y1="1020.2914" x2="141.4429" y2="1034.1509" gradientTransform="matrix(1 0 0 1 0 -930)">
				<stop  offset="0" style="stop-color:#FEBAE5"/>
				<stop  offset="1" style="stop-color:#FF8ECF"/>
			</linearGradient>
			<path style="fill:url(#SVGID_00000175320124479436439490000000040716276955640757_);" d="M146.1,88.7c0.7,2.7,0.7,5.4,0.6,6.4
				c0,0.4-0.3,0.7-0.7,0.7s-1,0.1-1.5,0.1c-0.6,0-1.2-0.3-1.6-0.6c-0.2-0.2-0.5,0.1-0.4,0.3c0.2,0.4,0.6,0.7,0.9,1
				c0.2,0.2,0.9,0.4,0.9,0.8c0,0.1-0.1,0.2-0.1,0.3c-0.4,0.5-1,0.7-1.6,0.9c-0.1,0-0.2,0-0.2,0.1c0,0.4,1.2,0.8,1.5,0.9
				c0.5,0.1,0.9,0.2,1.4,0.2c1.2-0.1,2.3-0.9,2.9-1.9c1.7-2.6,2.6-5.8,2.9-8.2C149.4,88,147,88.4,146.1,88.7z"/>
			<g>
				
					<linearGradient id="SVGID_00000172402951682808676720000000507519427464082596_" gradientUnits="userSpaceOnUse" x1="163.149" y1="979.8329" x2="155.1087" y2="995.687" gradientTransform="matrix(1 0 0 1 0 -930)">
					<stop  offset="0" style="stop-color:#052669"/>
					<stop  offset="1" style="stop-color:#0F3D91"/>
				</linearGradient>
				<path style="fill:url(#SVGID_00000172402951682808676720000000507519427464082596_);" d="M151,89.9c1.3-9.5-6-16.8-6-16.8
					l-4.3,5.1c3.3,4.1,4.9,7.9,5.6,10.8C147.1,88.7,149.4,88.3,151,89.9z"/>
				
					<linearGradient id="SVGID_00000053502991028233538350000008182809304605506179_" gradientUnits="userSpaceOnUse" x1="165.6276" y1="987.8731" x2="119.9791" y2="1039.5017" gradientTransform="matrix(1 0 0 1 0 -930)">
					<stop  offset="0" style="stop-color:#4095E2"/>
					<stop  offset="1" style="stop-color:#4FADFF"/>
				</linearGradient>
				<path style="fill:url(#SVGID_00000053502991028233538350000008182809304605506179_);" d="M146,89c-0.1,0-0.2-0.1-0.3-0.2
					c-0.9-3.6-2.7-7.3-5.5-10.7c-0.1-0.1-0.1-0.3,0-0.4s0.3-0.1,0.4,0c2.8,3.5,4.7,7.2,5.6,10.9C146.3,88.8,146.3,88.9,146,89
					C146.1,88.9,146.1,89,146,89z"/>
			</g>
		</g>
		<g>
			<g>
				
					<linearGradient id="SVGID_00000081624976768495291120000014649214089987173799_" gradientUnits="userSpaceOnUse" x1="-1209.1299" y1="1072.9003" x2="-1202.928" y2="1072.9003" gradientTransform="matrix(1 0 0 1 1290.1023 -930)">
					<stop  offset="0" style="stop-color:#052669"/>
					<stop  offset="1" style="stop-color:#0F3D91"/>
				</linearGradient>
				<path style="fill:url(#SVGID_00000081624976768495291120000014649214089987173799_);" d="M87.2,145.1V145
					c-0.7-2.8-4.2-4.5-4.2-4.5l-1.4,0.1c-0.8,2.4-0.7,3.9-0.6,4.6c0,0,0,0,0,0.1C82.3,145.3,84.6,145.4,87.2,145.1z"/>
				
					<linearGradient id="SVGID_00000031901063121205200650000006245447461227123628_" gradientUnits="userSpaceOnUse" x1="-1193.6486" y1="1065.5186" x2="-1216.2117" y2="1083.2352" gradientTransform="matrix(1 0 0 1 1290.1023 -930)">
					<stop  offset="0" style="stop-color:#4095E2"/>
					<stop  offset="1" style="stop-color:#4FADFF"/>
				</linearGradient>
				<path style="fill:url(#SVGID_00000031901063121205200650000006245447461227123628_);" d="M81.1,145.2c0.1,0.2,0.2,0.4,0.4,0.4
					c1.6,0.3,4.2,0.1,5.3-0.1c0.2,0,0.4-0.3,0.4-0.5C84.6,145.4,82.3,145.3,81.1,145.2z"/>
				
					<linearGradient id="SVGID_00000142154011958346272920000007946539664858204807_" gradientUnits="userSpaceOnUse" x1="-1207.4004" y1="1065.8323" x2="-1208.5851" y2="1076.1715" gradientTransform="matrix(1 0 0 1 1290.1023 -930)">
					<stop  offset="0" style="stop-color:#A2256A"/>
					<stop  offset="1" style="stop-color:#C03C85"/>
				</linearGradient>
				<path style="fill:url(#SVGID_00000142154011958346272920000007946539664858204807_);" d="M81.1,138.5l0.6,2.8
					c0,0.2,0.2,0.4,0.4,0.4c0.2,0,0.6,0,0.9,0s0.5-0.3,0.5-0.7l-0.4-2.5H81.1L81.1,138.5z"/>
				
					<linearGradient id="SVGID_00000113344657943825329120000009574511293439068292_" gradientUnits="userSpaceOnUse" x1="-1189.5967" y1="1070.6715" x2="-1212.1599" y2="1088.3882" gradientTransform="matrix(1 0 0 1 1290.1023 -930)">
					<stop  offset="0" style="stop-color:#4095E2"/>
					<stop  offset="1" style="stop-color:#4FADFF"/>
				</linearGradient>
				<path style="fill:url(#SVGID_00000113344657943825329120000009574511293439068292_);" d="M93.2,145.2c-1.5,0-2.3-0.2-2.7-0.4
					c0,0.2,0,0.3,0,0.5s0.1,0.3,0.3,0.3l8.3-0.1c0.3,0,0.4-0.3,0.3-0.6C98.3,145.1,95.5,145.3,93.2,145.2z"/>
				
					<linearGradient id="SVGID_00000010307607484395680820000007901850932195714714_" gradientUnits="userSpaceOnUse" x1="-1199.686" y1="1073.0559" x2="-1190.7582" y2="1073.0559" gradientTransform="matrix(1 0 0 1 1290.1023 -930)">
					<stop  offset="0" style="stop-color:#052669"/>
					<stop  offset="1" style="stop-color:#0F3D91"/>
				</linearGradient>
				<path style="fill:url(#SVGID_00000010307607484395680820000007901850932195714714_);" d="M99.4,145
					C99.4,145,99.4,144.9,99.4,145c-0.8-1.1-2.6-3.1-6.3-4l-1.8-0.1c0,0-0.8,1.4-0.8,3.9c0.4,0.2,1.2,0.3,2.7,0.4
					C95.5,145.3,98.3,145.1,99.4,145z"/>
				
					<linearGradient id="SVGID_00000013158545280054767390000013580820574702049921_" gradientUnits="userSpaceOnUse" x1="-963.8455" y1="996.2708" x2="-965.0302" y2="1006.6101" gradientTransform="matrix(0.998 -6.290000e-02 6.290000e-02 0.998 991.437 -917.9803)">
					<stop  offset="0" style="stop-color:#A2256A"/>
					<stop  offset="1" style="stop-color:#C03C85"/>
				</linearGradient>
				<path style="fill:url(#SVGID_00000013158545280054767390000013580820574702049921_);" d="M90.9,138.3c0,0.1,0.4,2.1,0.5,2.9
					c0,0.2,0.2,0.3,0.3,0.3c0.3,0,0.8,0,1.2-0.1c0.2-0.1,0.4-0.3,0.4-0.6l-0.2-3.2L90.9,138.3z"/>
				
					<linearGradient id="SVGID_00000036958732473061733220000012826057654660279466_" gradientUnits="userSpaceOnUse" x1="82.3265" y1="1077.649" x2="91.0974" y2="1013.4619" gradientTransform="matrix(1 0 0 1 0 -930)">
					<stop  offset="0" style="stop-color:#4FADFF"/>
					<stop  offset="1" style="stop-color:#4095E2"/>
				</linearGradient>
				<path style="fill:url(#SVGID_00000036958732473061733220000012826057654660279466_);" d="M89.5,101.5c0,0,2.4,16.8,4.2,36.8
					c0,0.4-0.3,0.7-0.6,0.8c-0.5,0.1-1.3,0.2-2,0.2c-0.3,0-0.6-0.3-0.7-0.6c-0.6-3.5-4.9-22.4-6-26.6c0,0-1.3,17.7-0.9,26.8
					c0,0.2-0.2,0.4-0.4,0.5c-0.3,0-0.9,0.1-1.6,0c-0.3,0-0.5-0.2-0.5-0.5c-0.4-3-2.9-20.7-2.8-33.5c0-0.7,0.8-6.6,0.8-6.6
					L89.5,101.5z"/>
			</g>
			
				<linearGradient id="SVGID_00000159460281100305814630000005110751299878141057_" gradientUnits="userSpaceOnUse" x1="-579.5625" y1="742.2414" x2="-617.046" y2="780.291" gradientTransform="matrix(0.991 -0.1339 0.1339 0.991 682.7758 -886.5975)">
				<stop  offset="0" style="stop-color:#FF8ECF"/>
				<stop  offset="1" style="stop-color:#FE62A8"/>
			</linearGradient>
			<path style="fill:url(#SVGID_00000159460281100305814630000005110751299878141057_);" d="M78.7,102.5c-0.3-0.1-0.4-0.3-0.5-0.6
				c-0.3-3.2-1.9-22.7,8-30.7c0,0,0.6-1.5,5.3,2.2c4.7,3.7,2.2,7.5,1.1,12.8c-1.4,6.4-3.7,11.6-2.7,15.6c0.1,0.3-0.1,0.6-0.3,0.7
				C85.9,103.7,82.3,103.7,78.7,102.5z"/>
			
				<linearGradient id="SVGID_00000109018789327386292210000007912329437181912759_" gradientUnits="userSpaceOnUse" x1="86.2765" y1="1007.0328" x2="92.6553" y2="992.6805" gradientTransform="matrix(1 0 0 1 0 -930)">
				<stop  offset="0" style="stop-color:#A2256A"/>
				<stop  offset="1" style="stop-color:#C03C85"/>
			</linearGradient>
			<path style="fill:url(#SVGID_00000109018789327386292210000007912329437181912759_);" d="M90.2,65.3c0,0.3-4,5.9-4,5.9
				s0.7,1.4,4.1,2.5l2.9-6L90.2,65.3z"/>
			<g>
				
					<linearGradient id="SVGID_00000114041957940660287190000007770374741530413459_" gradientUnits="userSpaceOnUse" x1="84.228" y1="984.5363" x2="93.2874" y2="998.352" gradientTransform="matrix(1 0 0 1 0 -930)">
					<stop  offset="0" style="stop-color:#A2256A"/>
					<stop  offset="1" style="stop-color:#C03C85"/>
				</linearGradient>
				<path style="fill:url(#SVGID_00000114041957940660287190000007770374741530413459_);" d="M93.3,62c0,0,1.4,3.2,1.5,4.9
					c0.1,1.7,0.5,2.8-1.5,3.1c-2,0.3-3.6-0.6-4.5-2.3c0,0-1.4-2.6-1.1-3.7C88,63.1,93.3,62,93.3,62z"/>
				
					<linearGradient id="SVGID_00000004517354517200099990000002180397944036119712_" gradientUnits="userSpaceOnUse" x1="84.9764" y1="987.0277" x2="91.7793" y2="994.9954" gradientTransform="matrix(1 0 0 1 0 -930)">
					<stop  offset="0" style="stop-color:#052669"/>
					<stop  offset="1" style="stop-color:#0F3D91"/>
				</linearGradient>
				<path style="fill:url(#SVGID_00000004517354517200099990000002180397944036119712_);" d="M89.4,66.6L89.4,66.6
					c0.2-0.1,0.3-0.2,0.2-0.4c-0.3-0.5-0.8-1.8-0.1-2.1c0.9-0.4,4.5-1.1,5.2-2.4c0.7-1.2,0.1-2.8-0.9-3.2c-0.1,0-0.1,0-0.2,0.1
					l-0.1,0.2c-0.1,0.1-0.2,0.1-0.2,0l0,0c0-0.1-0.2-0.1-0.2,0c-0.2,0.4-0.9,1-2.6,1.3c-2.4,0.4-4,1.4-4.1,3.1
					c0,0.1-0.1,0.2-0.2,0.1c-0.2-0.1-0.5-0.2-0.8,0.2c-0.7,0.6-0.4,2,1.1,3.2c0.1,0.1,0.1,0.2,0,0.2c-0.3,0.2-0.7,0.6,0.4,1.1
					c1.1,0.6,1.8,0.5,2.2,0.5c0.1,0,0.1-0.1,0.1-0.2l-0.3-1.5c0-0.1,0-0.2,0.1-0.2L89.4,66.6L89.4,66.6z"/>
				
					<linearGradient id="SVGID_00000157307472554243066250000001018147269724374402_" gradientUnits="userSpaceOnUse" x1="81.8103" y1="986.1217" x2="90.8698" y2="999.9373" gradientTransform="matrix(1 0 0 1 0 -930)">
					<stop  offset="0" style="stop-color:#A2256A"/>
					<stop  offset="1" style="stop-color:#C03C85"/>
				</linearGradient>
				<path style="fill:url(#SVGID_00000157307472554243066250000001018147269724374402_);" d="M89.5,66.9c0,0-0.5-2.1-1.5-1.5
					c-0.9,0.6,0.5,2.3,1.2,2.4L89.5,66.9z"/>
			</g>
			<g>
				
					<linearGradient id="SVGID_00000089573272108870818390000009768535748414189467_" gradientUnits="userSpaceOnUse" x1="135.4698" y1="967.1507" x2="97.9864" y2="1005.2003" gradientTransform="matrix(1 0 0 1 0 -930)">
					<stop  offset="0" style="stop-color:#FF8ECF"/>
					<stop  offset="1" style="stop-color:#FE62A8"/>
				</linearGradient>
				<path style="fill:url(#SVGID_00000089573272108870818390000009768535748414189467_);" d="M93.1,75l0.3,7.3
					c0.8,0.3,1.5,0.5,2.2,0.6c0.4-1.4,1.4-3.2,2.2-4.5C94.8,77.5,93.1,75,93.1,75z"/>
				
					<linearGradient id="SVGID_00000005245200713270315510000006107766750225170346_" gradientUnits="userSpaceOnUse" x1="112.846" y1="1004.239" x2="95.5375" y2="1012.8489" gradientTransform="matrix(1 0 0 1 0 -930)">
					<stop  offset="0" style="stop-color:#A2256A"/>
					<stop  offset="1" style="stop-color:#C03C85"/>
				</linearGradient>
				<path style="fill:url(#SVGID_00000005245200713270315510000006107766750225170346_);" d="M107.6,74.9c-4,4.3-7.2,4.6-9.9,3.6
					c-0.8,1.3-1.8,3-2.2,4.5c10.7,2.4,13.2-7.5,13.2-7.5L107.6,74.9z"/>
				
					<linearGradient id="SVGID_00000023976398467073165930000011312415017973339798_" gradientUnits="userSpaceOnUse" x1="112.5749" y1="1002.0709" x2="106.6545" y2="1008.2543" gradientTransform="matrix(1 0 0 1 0 -930)">
					<stop  offset="0" style="stop-color:#A2256A"/>
					<stop  offset="1" style="stop-color:#C03C85"/>
				</linearGradient>
				<path style="fill:url(#SVGID_00000023976398467073165930000011312415017973339798_);" d="M108.4,74.4c0,0,0.5-0.5,1.3-0.3
					c0.9,0.2,1.6,0.5,2.1,0s0.7,0.2,0.7,0.2l-1.6,1.2L108.4,74.4z"/>
				
					<linearGradient id="SVGID_00000115482620672624616990000005537737939213558661_" gradientUnits="userSpaceOnUse" x1="112.9329" y1="1004.146" x2="95.6245" y2="1012.756" gradientTransform="matrix(1 0 0 1 0 -930)">
					<stop  offset="0" style="stop-color:#A2256A"/>
					<stop  offset="1" style="stop-color:#C03C85"/>
				</linearGradient>
				<path style="fill:url(#SVGID_00000115482620672624616990000005537737939213558661_);" d="M107.5,75.3c0,0,0.3-1.3,1.3-1.1
					c1,0.2,3.1,1.4,3.7,1.1c0.6-0.2,1.3-0.7,1.6-0.6l-0.6,0.8c0,0,1.7-1,1.9-0.4l-2.8,1.5C112.6,76.7,108.6,76.3,107.5,75.3z"/>
			</g>
			
				<linearGradient id="SVGID_00000148656569171040692360000012890478218932269758_" gradientUnits="userSpaceOnUse" x1="120.1846" y1="1018.6765" x2="69.9539" y2="1009.5934" gradientTransform="matrix(1 0 0 1 0 -930)">
				<stop  offset="0" style="stop-color:#A2256A"/>
				<stop  offset="1" style="stop-color:#C03C85"/>
			</linearGradient>
			<path style="fill:url(#SVGID_00000148656569171040692360000012890478218932269758_);" d="M88.6,84.6c0,0,7.5,6.3,15.7,3.6
				c0.5-0.2,1.1-0.1,1.5,0.1l2.3,1.2c1,0.5,2.2,0.2,2.8-0.8c0.3-0.5,0.6-1.2,0.7-1.8L107,85l0.3-0.6c0,0-2.2-0.2-2.8,1.4
				c0,0-4.3,1.8-11.4-6.1C93.1,79.9,89.8,82.6,88.6,84.6z"/>
			
				<linearGradient id="SVGID_00000134239541131882064110000017181647597156425901_" gradientUnits="userSpaceOnUse" x1="102.4011" y1="980.5224" x2="57.0495" y2="1066.1301" gradientTransform="matrix(1 0 0 1 0 -930)">
				<stop  offset="0" style="stop-color:#E13D92"/>
				<stop  offset="1" style="stop-color:#E95AAB"/>
			</linearGradient>
			<path style="fill:url(#SVGID_00000134239541131882064110000017181647597156425901_);" d="M88.2,84.6
				C88.2,84.6,88.2,84.5,88.2,84.6c-3.2-2.2-4.7-5.6-4.7-5.7s0-0.1,0.1-0.2c0.1,0,0.1,0,0.2,0.1c0,0,1.5,3.4,4.6,5.5
				c0.1,0,0.1,0.1,0,0.2C88.3,84.5,88.2,84.6,88.2,84.6z"/>
			
				<linearGradient id="SVGID_00000010272811033403632880000007313353108910215325_" gradientUnits="userSpaceOnUse" x1="102.5199" y1="980.5856" x2="57.1683" y2="1066.1932" gradientTransform="matrix(1 0 0 1 0 -930)">
				<stop  offset="0" style="stop-color:#E13D92"/>
				<stop  offset="1" style="stop-color:#E95AAB"/>
			</linearGradient>
			<path style="fill:url(#SVGID_00000010272811033403632880000007313353108910215325_);" d="M92.9,79.8
				C92.9,79.8,92.8,79.8,92.9,79.8c-0.1-0.1-1.1-1.6-2.9-4.9c-0.6-1-1.3-1.7-2.2-1.9c-1.5-0.4-2.9,0.4-2.9,0.4c-0.1,0-0.1,0-0.2,0
				c0-0.1,0-0.1,0-0.2c0.1,0,1.5-0.9,3.1-0.4c1,0.3,1.8,1,2.4,2c1.8,3.3,2.8,4.8,2.8,4.8C93.1,79.6,93.1,79.7,92.9,79.8
				C93,79.8,92.9,79.8,92.9,79.8z"/>
		</g>
	</g>
</g>
</svg>
