<?xml version="1.0" encoding="utf-8"?>
<!-- Generator: Adobe Illustrator 25.4.1, SVG Export Plug-In . SVG Version: 6.00 Build 0)  -->
<svg version="1.1" id="Layer_1" xmlns="http://www.w3.org/2000/svg" xmlns:xlink="http://www.w3.org/1999/xlink" x="0px" y="0px"
	 viewBox="0 0 225 150" style="enable-background:new 0 0 225 150;" xml:space="preserve">
<style type="text/css">
	.st0{display:none;}
	.st1{display:inline;fill:#EBEBEB;}
	.st2{fill:#D2AE9B;}
	.st3{fill:#E6BFAA;}
	.st4{fill:#DCB7A3;}
	.st5{fill:#171634;}
	.st6{fill:#EF7F1A;}
	.st7{opacity:0.3;}
	.st8{fill:#FFFFFF;}
	.st9{fill:#EAC3AD;}
	.st10{fill:#29285E;}
	.st11{fill:none;stroke:#43425B;stroke-miterlimit:10;}
	.st12{fill:#052669;}
	.st13{fill:#EFBA55;}
	.st14{opacity:0.6;}
	.st15{fill:#04040C;}
	.st16{fill:#DCA12E;}
</style>
<g id="Background_Simple" class="st0">
	<path class="st1" d="M273.9-72.1l-2.2-3.6c-18.6-30.7-52.3-49.2-87.8-46.9c-4.6,0.3-9.1,0.9-13.6,1.9c-32.3,6.9-60.4,31.3-72,62.6
		c-6.9,18.4-8.8,39.5-21.8,54.1c-16.9,19-45.6,19.6-70.8,18.8c-25.2-0.8-53.9-0.1-70.8,18.9c-10.5,11.9-13.9,28.9-13,44.9
		c2.2,42.3,31.8,80.2,69.3,99s81.7,20.5,122.7,12.2c57.5-11.6,112.2-43.4,145.1-92.6C291.9,48,300.2-19,273.9-72.1z"/>
</g>
<g>
	<g id="Background_Complete">
		<g>
			<g>
				<g>
					<g>
						<rect x="150" y="138.7" class="st2" width="37.1" height="9.4"/>
						<polygon class="st2" points="164.8,138.7 165.4,148.1 170.6,148.1 170.9,138.7 						"/>
					</g>
					<g>
						<rect x="141" y="138.7" class="st3" width="37.1" height="9.4"/>
						<g>
							<path class="st4" d="M178,140.2c0,0.1-8.3,0.2-18.4,0.2c-10.2,0-18.4-0.1-18.4-0.2c0-0.1,8.3-0.2,18.4-0.2
								C169.8,140,178,140.1,178,140.2z"/>
						</g>
						<g>
							<path class="st4" d="M178,142.3c0,0.1-8.3,0.2-18.4,0.2c-10.2,0-18.4-0.1-18.4-0.2c0-0.1,8.3-0.2,18.4-0.2
								C169.8,142.1,178,142.2,178,142.3z"/>
						</g>
						<g>
							<path class="st4" d="M178,144.5c0,0.1-8.3,0.2-18.4,0.2c-10.2,0-18.4-0.1-18.4-0.2c0-0.1,8.3-0.2,18.4-0.2
								C169.8,144.2,178,144.3,178,144.5z"/>
						</g>
						<g>
							<path class="st4" d="M178,146.6c0,0.1-8.3,0.2-18.4,0.2c-10.2,0-18.4-0.1-18.4-0.2c0-0.1,8.3-0.2,18.4-0.2
								C169.8,146.4,178,146.5,178,146.6z"/>
						</g>
						<polygon class="st4" points="155.8,138.7 156.4,148.1 161.6,148.1 161.9,138.7 						"/>
					</g>
				</g>
			</g>
		</g>
		<g>
			<g>
				<g>
					<g>
						<rect x="147" y="129.6" class="st2" width="37.1" height="9.4"/>
						<polygon class="st2" points="161.8,129.6 162.4,138.9 167.6,138.9 167.9,129.6 						"/>
					</g>
					<g>
						<rect x="138" y="129.6" class="st3" width="37.1" height="9.4"/>
						<g>
							<path class="st4" d="M175,131c0,0.1-8.3,0.2-18.4,0.2c-10.2,0-18.4-0.1-18.4-0.2c0-0.1,8.3-0.2,18.4-0.2
								C166.8,130.8,175,130.9,175,131z"/>
						</g>
						<g>
							<path class="st4" d="M175,133.2c0,0.1-8.3,0.2-18.4,0.2c-10.2,0-18.4-0.1-18.4-0.2s8.3-0.2,18.4-0.2
								C166.8,132.9,175,133,175,133.2z"/>
						</g>
						<g>
							<path class="st4" d="M175,135.3c0,0.1-8.3,0.2-18.4,0.2c-10.2,0-18.4-0.1-18.4-0.2c0-0.1,8.3-0.2,18.4-0.2
								C166.8,135.1,175,135.2,175,135.3z"/>
						</g>
						<g>
							<path class="st4" d="M175,137.4c0,0.1-8.3,0.2-18.4,0.2c-10.2,0-18.4-0.1-18.4-0.2c0-0.1,8.3-0.2,18.4-0.2
								C166.8,137.2,175,137.3,175,137.4z"/>
						</g>
						<polygon class="st4" points="152.8,129.6 153.4,138.9 158.6,138.9 158.9,129.6 						"/>
					</g>
				</g>
			</g>
		</g>
		<g>
			<rect x="49.1" y="6.7" class="st3" width="5.7" height="23"/>
			<rect x="57.6" y="11.7" class="st3" width="5.7" height="17.9"/>
			<rect x="66.1" y="15.8" class="st3" width="5.7" height="13.8"/>
			<rect x="74.1" y="21.4" class="st3" width="5.7" height="8.2"/>
		</g>
		<g>
			<g>
				<g>
					<g>
						<rect x="52.8" y="132.4" class="st2" width="37.1" height="8"/>
						<polygon class="st2" points="67.5,132.4 68.1,140.4 73.3,140.4 73.6,132.4 						"/>
					</g>
					<g>
						<rect x="43.8" y="132.4" class="st3" width="37.1" height="8"/>
						<g>
							<path class="st4" d="M80.7,133.6c0,0.1-8.3,0.2-18.4,0.2c-10.2,0-18.4-0.1-18.4-0.2s8.3-0.2,18.4-0.2
								C72.5,133.5,80.7,133.5,80.7,133.6z"/>
						</g>
						<g>
							<path class="st4" d="M80.7,135.5c0,0.1-8.3,0.2-18.4,0.2c-10.2,0-18.4-0.1-18.4-0.2c0-0.1,8.3-0.2,18.4-0.2
								C72.5,135.3,80.7,135.4,80.7,135.5z"/>
						</g>
						<g>
							<path class="st4" d="M80.7,137.3c0,0.1-8.3,0.2-18.4,0.2c-10.2,0-18.4-0.1-18.4-0.2c0-0.1,8.3-0.2,18.4-0.2
								C72.5,137.1,80.7,137.2,80.7,137.3z"/>
						</g>
						<g>
							<path class="st4" d="M80.7,139.1c0,0.1-8.3,0.2-18.4,0.2c-10.2,0-18.4-0.1-18.4-0.2c0-0.1,8.3-0.2,18.4-0.2
								C72.5,139,80.7,139,80.7,139.1z"/>
						</g>
						<polygon class="st4" points="58.5,132.4 59.1,140.4 64.3,140.4 64.6,132.4 						"/>
					</g>
				</g>
			</g>
		</g>
		<g>
			<g>
				<g>
					<g>
						<rect x="47.8" y="140.4" class="st2" width="34.8" height="7.5"/>
						<polygon class="st2" points="61.6,140.4 62.2,147.9 67.1,147.9 67.3,140.4 						"/>
					</g>
					<g>
						<rect x="39.3" y="140.4" class="st4" width="34.8" height="7.5"/>
						<g>
							<path class="st2" d="M74,141.6c0,0.1-7.7,0.2-17.3,0.2c-9.6,0-17.3-0.1-17.3-0.2s7.7-0.2,17.3-0.2
								C66.3,141.4,74,141.5,74,141.6z"/>
						</g>
						<g>
							<path class="st2" d="M74,143.3c0,0.1-7.7,0.2-17.3,0.2c-9.6,0-17.3-0.1-17.3-0.2c0-0.1,7.7-0.2,17.3-0.2
								C66.3,143.1,74,143.2,74,143.3z"/>
						</g>
						<g>
							<path class="st2" d="M74,145c0,0.1-7.7,0.2-17.3,0.2c-9.6,0-17.3-0.1-17.3-0.2s7.7-0.2,17.3-0.2C66.3,144.9,74,144.9,74,145z
								"/>
						</g>
						<g>
							<path class="st2" d="M74,146.8c0,0.1-7.7,0.2-17.3,0.2c-9.6,0-17.3-0.1-17.3-0.2c0-0.1,7.7-0.2,17.3-0.2
								C66.3,146.6,74,146.7,74,146.8z"/>
						</g>
						<polygon class="st2" points="53.1,140.4 53.7,147.9 58.6,147.9 58.9,140.4 						"/>
					</g>
				</g>
			</g>
		</g>
		<g>
			<g>
				<g>
					<path class="st3" d="M68.8,57c1.5,6.4-2.5,12.8-8.9,14.3S47,68.8,45.5,62.4c-1.5-6.4,2.5-12.8,8.9-14.3
						C60.9,46.6,67.3,50.6,68.8,57z"/>
				</g>
				<g>
					<path class="st4" d="M66,57.6c1.1,4.9-1.9,9.8-6.8,10.9c-4.9,1.1-9.8-1.9-10.9-6.8c-1.1-4.9,1.9-9.8,6.8-10.9
						C60,49.7,64.9,52.7,66,57.6z"/>
				</g>
				<g>
					<g>
						<path class="st2" d="M65.9,57.3c-0.1,0-0.2-0.4-0.5-1c-0.3-0.6-0.8-1.6-1.7-2.5c-0.4-0.5-0.9-0.9-1.5-1.3
							c-0.6-0.4-1.3-0.8-2.1-1.1c-0.4-0.1-0.8-0.3-1.2-0.3C58.5,51,58.1,51,57.7,51s-0.9,0-1.4,0c-0.5,0-0.9,0.1-1.4,0.3
							c-0.5,0.1-0.9,0.3-1.3,0.5s-0.8,0.4-1.2,0.6c-0.4,0.2-0.7,0.5-1.1,0.8c-0.3,0.3-0.6,0.6-0.9,0.9c-0.5,0.6-1,1.3-1.3,2
							c-0.3,0.7-0.5,1.3-0.7,1.9c-0.3,1.2-0.3,2.3-0.2,3c0.1,0.7,0.1,1.1,0.1,1.1c0,0-0.2-0.4-0.4-1.1c-0.1-0.7-0.2-1.8,0-3.1
							c0.1-0.7,0.3-1.4,0.6-2.1c0.3-0.7,0.7-1.4,1.3-2.1c0.3-0.3,0.6-0.7,0.9-1c0.3-0.3,0.7-0.6,1.1-0.9c0.4-0.3,0.8-0.5,1.3-0.7
							s0.9-0.4,1.4-0.5c0.5-0.1,1-0.2,1.5-0.3c0.5-0.1,1-0.1,1.5,0c0.5,0,1,0.1,1.4,0.2c0.5,0.1,0.9,0.2,1.3,0.4
							c0.8,0.3,1.6,0.7,2.2,1.2c0.6,0.5,1.2,1,1.6,1.5c0.9,1,1.3,2,1.5,2.7C65.9,56.9,66,57.3,65.9,57.3z"/>
					</g>
				</g>
			</g>
			<g>
				<g>
					<g>
						<path class="st2" d="M59.4,64.7l0.4,1.5l-1.4,0.3L58,65.1c-1.4,0.3-2.8,0.2-3.7-0.3l0.3-1.9c0.8,0.3,1.9,0.5,2.9,0.3L57,61
							c-1.6,0-3.4-0.1-3.9-2c-0.4-1.5,0.4-3,2.5-3.7l-0.4-1.5l1.4-0.3l0.4,1.5c1.1-0.2,2.1-0.1,3,0.1l-0.3,1.9
							c-0.8-0.2-1.6-0.3-2.3-0.2L58,59c1.6,0,3.4,0.1,3.9,2C62.2,62.4,61.5,63.9,59.4,64.7z M56.5,59L56,57
							c-0.7,0.3-0.9,0.8-0.8,1.3C55.4,58.8,55.9,59,56.5,59z M59.7,61.7c-0.1-0.5-0.6-0.6-1.2-0.7l0.5,1.9
							C59.6,62.6,59.8,62.2,59.7,61.7z"/>
					</g>
				</g>
			</g>
		</g>
		<g>
			<g>
				<g>
					<path class="st3" d="M62.4,88.1c3,2.7,3.2,7.4,0.4,10.4c-2.7,3-7.4,3.2-10.4,0.5c-3-2.7-3.2-7.4-0.4-10.4
						C54.8,85.6,59.5,85.4,62.4,88.1z"/>
				</g>
				<g>
					<path class="st4" d="M61.3,89.4c2.3,2.1,2.4,5.6,0.3,7.9s-5.6,2.4-7.9,0.4c-2.3-2.1-2.4-5.6-0.3-7.9
						C55.4,87.5,59,87.3,61.3,89.4z"/>
				</g>
				<g>
					<g>
						<path class="st2" d="M61.1,89.3c0,0-0.2-0.1-0.6-0.3c-0.4-0.2-0.9-0.5-1.7-0.7c-0.4-0.1-0.8-0.1-1.3-0.1
							c-0.5,0-0.9,0.1-1.4,0.2c-0.2,0.1-0.5,0.1-0.7,0.3c-0.2,0.1-0.5,0.2-0.7,0.4c-0.2,0.1-0.5,0.3-0.7,0.5
							c-0.2,0.2-0.4,0.4-0.6,0.6c-0.2,0.2-0.4,0.5-0.5,0.7c-0.2,0.2-0.3,0.5-0.4,0.7c-0.1,0.3-0.2,0.5-0.3,0.8s-0.1,0.5-0.1,0.8
							c-0.1,0.5,0,1,0,1.4c0.1,0.4,0.2,0.9,0.3,1.2c0.3,0.7,0.7,1.2,0.9,1.6c0.3,0.3,0.5,0.5,0.4,0.5c0,0-0.2-0.1-0.6-0.4
							c-0.3-0.3-0.7-0.8-1.1-1.6c-0.2-0.4-0.3-0.8-0.4-1.3c-0.1-0.5-0.1-1-0.1-1.5c0-0.3,0.1-0.5,0.1-0.8c0.1-0.3,0.2-0.6,0.3-0.8
							s0.2-0.5,0.4-0.8c0.2-0.3,0.3-0.5,0.5-0.8c0.2-0.2,0.4-0.5,0.7-0.7c0.2-0.2,0.5-0.4,0.7-0.5s0.5-0.3,0.8-0.4
							c0.3-0.1,0.5-0.2,0.8-0.3c0.5-0.1,1.1-0.2,1.5-0.2c0.5,0,0.9,0.1,1.3,0.2c0.8,0.2,1.4,0.6,1.7,0.8
							C61,89.1,61.1,89.3,61.1,89.3z"/>
					</g>
				</g>
			</g>
			<g>
				<g>
					<g>
						<path class="st2" d="M60.4,95.3l0.7,0.7l-0.6,0.7L59.8,96c-0.6,0.6-1.4,1-2,1.2l-0.5-1.1c0.5-0.1,1.1-0.4,1.6-0.9l-1.1-1
							c-0.8,0.6-1.8,1.2-2.7,0.3c-0.7-0.6-0.8-1.6,0-2.8l-0.7-0.6l0.6-0.7l0.7,0.6c0.5-0.5,1-0.8,1.6-1l0.5,1
							c-0.5,0.2-0.9,0.4-1.2,0.7l1.1,1c0.8-0.6,1.8-1.2,2.7-0.3C61,93.2,61.2,94.2,60.4,95.3z M56.9,93.4L56,92.6
							c-0.2,0.4-0.2,0.7,0.1,0.9C56.3,93.7,56.6,93.6,56.9,93.4z M59.5,93.7c-0.2-0.2-0.5-0.1-0.9,0.1l0.9,0.8
							C59.7,94.2,59.7,93.9,59.5,93.7z"/>
					</g>
				</g>
			</g>
		</g>
		<g>
			<g>
				<g>
					<path class="st3" d="M176.8,46.9c0.9,4.5-2,8.9-6.5,9.9c-4.5,0.9-8.9-1.9-9.9-6.4c-0.9-4.5,2-8.9,6.5-9.9
						C171.4,39.5,175.8,42.4,176.8,46.9z"/>
				</g>
				<g>
					<path class="st4" d="M174.8,47.3c0.7,3.4-1.5,6.8-4.9,7.5c-3.4,0.7-6.8-1.5-7.5-4.9c-0.7-3.4,1.5-6.8,4.9-7.5
						C170.7,41.7,174.1,43.9,174.8,47.3z"/>
				</g>
				<g>
					<g>
						<path class="st2" d="M174.8,47.1c0,0-0.1-0.3-0.3-0.7c-0.2-0.5-0.5-1.1-1.1-1.8c-0.3-0.3-0.6-0.7-1.1-1
							c-0.4-0.3-0.9-0.6-1.4-0.8c-0.3-0.1-0.6-0.2-0.8-0.3c-0.3-0.1-0.6-0.1-0.9-0.1c-0.3,0-0.6,0-1,0c-0.3,0-0.6,0.1-1,0.2
							c-0.3,0.1-0.6,0.2-0.9,0.3c-0.3,0.1-0.6,0.3-0.8,0.4c-0.3,0.2-0.5,0.3-0.7,0.5c-0.2,0.2-0.4,0.4-0.6,0.6
							c-0.4,0.4-0.7,0.9-0.9,1.3c-0.2,0.5-0.4,0.9-0.5,1.3c-0.2,0.9-0.2,1.6-0.2,2.1s0.1,0.8,0,0.8c0,0-0.1-0.3-0.2-0.8
							c-0.1-0.5-0.1-1.3,0-2.2c0.1-0.5,0.2-0.9,0.5-1.4c0.2-0.5,0.5-1,1-1.5c0.2-0.2,0.4-0.5,0.7-0.7c0.2-0.2,0.5-0.4,0.8-0.6
							c0.3-0.2,0.6-0.3,0.9-0.5c0.3-0.1,0.7-0.2,1-0.3c0.4-0.1,0.7-0.1,1-0.2c0.3,0,0.7,0,1,0c0.3,0,0.7,0.1,1,0.2
							c0.3,0.1,0.6,0.2,0.9,0.3c0.6,0.2,1.1,0.5,1.5,0.9c0.4,0.3,0.8,0.7,1.1,1.1c0.6,0.7,0.9,1.4,1,1.9
							C174.8,46.9,174.8,47.1,174.8,47.1z"/>
					</g>
				</g>
			</g>
			<g>
				<g>
					<g>
						<path class="st2" d="M170.1,52.2l0.2,1.1l-1,0.2l-0.2-1.1c-1,0.2-2,0.1-2.6-0.2l0.3-1.3c0.6,0.2,1.3,0.4,2,0.3l-0.4-1.6
							c-1.1,0-2.4-0.1-2.7-1.5c-0.2-1,0.3-2.1,1.8-2.6l-0.2-1.1l1-0.2l0.2,1.1c0.7-0.1,1.5-0.1,2.1,0.1l-0.2,1.3
							c-0.6-0.2-1.1-0.2-1.6-0.2l0.4,1.6c1.1,0,2.4,0.1,2.7,1.5C172.1,50.6,171.5,51.7,170.1,52.2z M168.1,48.2l-0.3-1.4
							c-0.5,0.2-0.6,0.6-0.6,0.9C167.4,48,167.7,48.1,168.1,48.2z M170.3,50.1c-0.1-0.3-0.4-0.5-0.8-0.5l0.3,1.3
							C170.2,50.7,170.4,50.4,170.3,50.1z"/>
					</g>
				</g>
			</g>
		</g>
		<g>
			<g>
				<g>
					<path class="st3" d="M128.9,24.9c1.9,2.6,1.3,6.3-1.4,8.2c-2.6,1.9-6.3,1.3-8.2-1.4c-1.9-2.6-1.3-6.3,1.4-8.2
						C123.4,21.6,127,22.2,128.9,24.9z"/>
				</g>
				<g>
					<path class="st4" d="M127.8,25.7c1.4,2,1,4.8-1.1,6.2s-4.8,1-6.2-1c-1.4-2-1-4.8,1.1-6.2C123.6,23.2,126.3,23.7,127.8,25.7z"/>
				</g>
				<g>
					<g>
						<path class="st2" d="M127.7,25.5c0,0-0.2-0.1-0.4-0.4c-0.3-0.2-0.7-0.6-1.2-0.8c-0.3-0.1-0.6-0.2-1-0.3
							c-0.4-0.1-0.7-0.1-1.1-0.1c-0.2,0-0.4,0-0.6,0.1c-0.2,0-0.4,0.1-0.6,0.2c-0.2,0.1-0.4,0.2-0.6,0.3c-0.2,0.1-0.4,0.2-0.6,0.4
							c-0.2,0.1-0.4,0.3-0.5,0.5c-0.2,0.2-0.3,0.3-0.4,0.5c-0.1,0.2-0.2,0.4-0.3,0.6c-0.1,0.2-0.2,0.4-0.2,0.6
							c-0.1,0.4-0.2,0.8-0.2,1.1c0,0.4,0,0.7,0.1,1c0.1,0.6,0.3,1.1,0.5,1.4c0.2,0.3,0.3,0.5,0.2,0.5c0,0-0.2-0.1-0.4-0.4
							c-0.2-0.3-0.4-0.8-0.6-1.4c-0.1-0.3-0.1-0.7-0.1-1.1c0-0.4,0.1-0.8,0.2-1.2c0.1-0.2,0.1-0.4,0.2-0.6c0.1-0.2,0.2-0.4,0.3-0.6
							c0.1-0.2,0.3-0.4,0.5-0.6c0.2-0.2,0.4-0.3,0.6-0.5c0.2-0.2,0.4-0.3,0.6-0.4c0.2-0.1,0.4-0.2,0.7-0.3c0.2-0.1,0.4-0.1,0.7-0.2
							c0.2,0,0.4-0.1,0.7-0.1c0.4,0,0.8,0,1.2,0.1c0.4,0.1,0.7,0.2,1,0.4c0.6,0.3,1,0.7,1.2,0.9C127.6,25.4,127.7,25.5,127.7,25.5z"
							/>
					</g>
				</g>
			</g>
			<g>
				<g>
					<g>
						<path class="st2" d="M126.1,30.1l0.5,0.6l-0.6,0.4l-0.4-0.6c-0.6,0.4-1.2,0.6-1.7,0.6l-0.2-0.9c0.4,0,0.9-0.1,1.4-0.4
							l-0.7-0.9c-0.7,0.3-1.6,0.6-2.2-0.2c-0.4-0.6-0.4-1.4,0.4-2.2l-0.5-0.6l0.6-0.4l0.4,0.6c0.4-0.3,0.9-0.5,1.4-0.5l0.2,0.9
							c-0.4,0-0.8,0.2-1.1,0.3l0.7,1c0.7-0.3,1.6-0.6,2.1,0.2C126.9,28.6,126.9,29.4,126.1,30.1z M123.7,28.1l-0.6-0.8
							c-0.2,0.3-0.2,0.5-0.1,0.7C123.2,28.2,123.4,28.2,123.7,28.1z M125.7,28.7c-0.1-0.2-0.4-0.2-0.7-0.1l0.6,0.8
							C125.8,29.1,125.8,28.9,125.7,28.7z"/>
					</g>
				</g>
			</g>
		</g>
		<g>
			<g>
				<g>
					<path class="st3" d="M173.1,10.6c1.2,5.9-2.6,11.6-8.4,12.9c-5.9,1.2-11.7-2.5-12.9-8.4c-1.2-5.9,2.6-11.6,8.4-12.9
						C166.1,0.9,171.9,4.7,173.1,10.6z"/>
				</g>
				<g>
					<path class="st4" d="M170.5,11.1c0.9,4.5-1.9,8.9-6.4,9.8c-4.5,0.9-8.9-1.9-9.8-6.4c-0.9-4.5,1.9-8.9,6.4-9.8
						C165.2,3.8,169.6,6.6,170.5,11.1z"/>
				</g>
				<g>
					<g>
						<path class="st2" d="M170.5,10.9c0,0-0.2-0.3-0.4-0.9c-0.3-0.6-0.7-1.4-1.5-2.3c-0.4-0.4-0.8-0.9-1.4-1.3
							c-0.5-0.4-1.2-0.7-1.9-1c-0.4-0.1-0.7-0.3-1.1-0.3c-0.4-0.1-0.8-0.2-1.2-0.2c-0.4,0-0.8,0-1.2,0c-0.4,0-0.8,0.1-1.3,0.2
							c-0.4,0.1-0.8,0.2-1.2,0.4c-0.4,0.2-0.8,0.4-1.1,0.6c-0.4,0.2-0.7,0.4-1,0.7c-0.3,0.3-0.6,0.5-0.8,0.8
							c-0.5,0.6-0.9,1.2-1.2,1.8c-0.3,0.6-0.5,1.2-0.7,1.7c-0.3,1.1-0.3,2.1-0.2,2.7c0,0.6,0.1,1,0.1,1c0,0-0.2-0.3-0.3-1
							c-0.1-0.7-0.2-1.6,0.1-2.8c0.1-0.6,0.3-1.2,0.6-1.9c0.3-0.6,0.7-1.3,1.2-1.9c0.3-0.3,0.6-0.6,0.9-0.9c0.3-0.3,0.7-0.5,1-0.8
							c0.4-0.2,0.8-0.4,1.2-0.6c0.4-0.2,0.9-0.3,1.3-0.4c0.5-0.1,0.9-0.2,1.4-0.2c0.5,0,0.9,0,1.3,0c0.4,0,0.9,0.1,1.3,0.2
							c0.4,0.1,0.8,0.2,1.2,0.4c0.7,0.3,1.4,0.7,2,1.1c0.6,0.4,1,0.9,1.4,1.4c0.8,0.9,1.1,1.9,1.3,2.5
							C170.5,10.5,170.5,10.9,170.5,10.9z"/>
					</g>
				</g>
			</g>
			<g>
				<g>
					<g>
						<path class="st2" d="M164.3,17.5l0.3,1.4l-1.3,0.3l-0.3-1.4c-1.3,0.2-2.5,0.1-3.4-0.3l0.3-1.7c0.7,0.3,1.7,0.5,2.6,0.3
							l-0.5-2.1c-1.5,0-3.1-0.1-3.5-1.9c-0.3-1.3,0.4-2.7,2.4-3.4l-0.3-1.4L162,7l0.3,1.4c1-0.1,1.9-0.1,2.7,0.2l-0.3,1.7
							c-0.7-0.2-1.4-0.3-2.1-0.2l0.5,2.1c1.5,0,3.1,0.1,3.5,1.9C167,15.4,166.3,16.8,164.3,17.5z M161.8,12.2l-0.4-1.8
							c-0.6,0.3-0.8,0.7-0.7,1.1C160.8,12,161.2,12.1,161.8,12.2z M164.7,14.7c-0.1-0.4-0.5-0.6-1.1-0.7l0.4,1.7
							C164.6,15.5,164.8,15.1,164.7,14.7z"/>
					</g>
				</g>
			</g>
		</g>
	</g>
	<g id="Money">
		<g>
			<g>
				<g>
					<g>
						<g>
							<g>
								<rect x="121.1" y="138.5" class="st2" width="43.2" height="9.3"/>
							</g>
						</g>
						<g>
							<g>
								<polygon class="st2" points="138.2,138.5 138.9,147.9 145,147.9 145.3,138.5 								"/>
							</g>
						</g>
					</g>
					<g>
						<g>
							<g>
								<rect x="110.5" y="138.5" class="st4" width="43.2" height="9.3"/>
							</g>
						</g>
						<g>
							<g>
								<g>
									<path class="st2" d="M153.6,140c0,0.1-9.6,0.2-21.5,0.2c-11.9,0-21.5-0.1-21.5-0.2c0-0.1,9.6-0.2,21.5-0.2
										C144,139.8,153.6,139.9,153.6,140z"/>
								</g>
							</g>
						</g>
						<g>
							<g>
								<g>
									<path class="st2" d="M153.6,142.1c0,0.1-9.6,0.2-21.5,0.2c-11.9,0-21.5-0.1-21.5-0.2c0-0.1,9.6-0.2,21.5-0.2
										C144,141.9,153.6,142,153.6,142.1z"/>
								</g>
							</g>
						</g>
						<g>
							<g>
								<g>
									<path class="st2" d="M153.6,144.3c0,0.1-9.6,0.2-21.5,0.2c-11.9,0-21.5-0.1-21.5-0.2c0-0.1,9.6-0.2,21.5-0.2
										C144,144.1,153.6,144.2,153.6,144.3z"/>
								</g>
							</g>
						</g>
						<g>
							<g>
								<g>
									<path class="st2" d="M153.6,146.4c0,0.1-9.6,0.2-21.5,0.2c-11.9,0-21.5-0.1-21.5-0.2s9.6-0.2,21.5-0.2
										C144,146.2,153.6,146.3,153.6,146.4z"/>
								</g>
							</g>
						</g>
						<g>
							<g>
								<polygon class="st2" points="127.7,138.5 128.4,147.9 134.5,147.9 134.9,138.5 								"/>
							</g>
						</g>
					</g>
				</g>
			</g>
		</g>
		<g>
			<g>
				<g>
					<path class="st5" d="M118.6,147.9c0,0,0.1,0,0.2,0c0.2,0,0.4,0,0.7,0c0.6,0,1.5,0,2.6,0c2.3,0,5.6,0,9.7,0c8.2,0,19.6,0,32.5,0
						l-0.1,0.1c0-1.5,0-3.1,0-4.7c0-1.6,0-3.2,0-4.7l0.1,0.1c-12.8,0-24.3,0-32.5,0c-4.1,0-7.4,0-9.7,0c-1.1,0-2,0-2.6,0
						c-0.3,0-0.5,0-0.7,0c-0.2,0-0.2,0-0.2,0s0.1,0,0.2,0c0.2,0,0.4,0,0.7,0c0.6,0,1.5,0,2.6,0c2.3,0,5.6,0,9.7,0
						c8.2,0,19.6,0,32.5,0h0.1v0.1c0,1.5,0,3.1,0,4.7c0,1.6,0,3.2,0,4.7v0.1h-0.1c-12.8,0-24.3,0-32.5,0c-4.1,0-7.4,0-9.7,0
						c-1.1,0-2,0-2.6,0c-0.3,0-0.5,0-0.7,0C118.6,147.9,118.6,147.9,118.6,147.9z"/>
				</g>
			</g>
		</g>
		<g>
			<g>
				<g>
					<path class="st5" d="M153.8,147.8c0,0-0.1-2-0.1-4.5c0-2.5,0-4.6,0.1-4.6c0,0,0.1,2,0.1,4.6
						C153.9,145.8,153.9,147.8,153.8,147.8z"/>
				</g>
			</g>
		</g>
		<g>
			<g>
				<g>
					<g>
						<g>
							<g>
								<rect x="123" y="121" class="st2" width="40.8" height="8.8"/>
							</g>
						</g>
						<g>
							<g>
								<polygon class="st2" points="139.2,121 139.9,129.8 145.6,129.8 145.9,121 								"/>
							</g>
						</g>
					</g>
					<g>
						<g>
							<g>
								<rect x="113.1" y="121" class="st4" width="40.8" height="8.8"/>
							</g>
						</g>
						<g>
							<g>
								<g>
									<path class="st2" d="M153.8,122.4c0,0.1-9.1,0.2-20.3,0.2c-11.2,0-20.3-0.1-20.3-0.2s9.1-0.2,20.3-0.2
										C144.7,122.2,153.8,122.3,153.8,122.4z"/>
								</g>
							</g>
						</g>
						<g>
							<g>
								<g>
									<path class="st2" d="M153.7,124.4c0,0.1-9.1,0.2-20.3,0.2c-11.2,0-20.3-0.1-20.3-0.2s9.1-0.2,20.3-0.2
										C144.7,124.2,153.7,124.3,153.7,124.4z"/>
								</g>
							</g>
						</g>
						<g>
							<g>
								<g>
									<path class="st2" d="M153.7,126.4c0,0.1-9.1,0.2-20.3,0.2c-11.2,0-20.3-0.1-20.3-0.2s9.1-0.2,20.3-0.2
										C144.7,126.2,153.7,126.3,153.7,126.4z"/>
								</g>
							</g>
						</g>
						<g>
							<g>
								<g>
									<path class="st2" d="M153.7,128.4c0,0.1-9.1,0.2-20.3,0.2c-11.2,0-20.3-0.1-20.3-0.2s9.1-0.2,20.3-0.2
										C144.7,128.2,153.7,128.3,153.7,128.4z"/>
								</g>
							</g>
						</g>
						<g>
							<g>
								<polygon class="st2" points="129.3,121 130,129.8 135.7,129.8 136,121 								"/>
							</g>
						</g>
					</g>
				</g>
			</g>
		</g>
		<g>
			<g>
				<g>
					<path class="st5" d="M120.6,129.8c0,0,0.1,0,0.2,0c0.1,0,0.4,0,0.6,0c0.6,0,1.4,0,2.5,0c2.2,0,5.3,0,9.1,0c7.8,0,18.5,0,30.7,0
						l-0.1,0.1c0-1.5,0-3,0-4.6c0-1.5,0-2.9,0-4.3l0.1,0.1c-12.2,0-23.1,0.1-30.9,0.1c-3.9,0-7,0-9.2,0c-1.1,0-1.9,0-2.5,0
						c-0.3,0-0.5,0-0.6,0c-0.1,0-0.2,0-0.2,0s0.1,0,0.2,0c0.2,0,0.4,0,0.6,0c0.6,0,1.4,0,2.5,0c2.2,0,5.3,0,9.2-0.1
						c7.8,0,18.7-0.1,30.9-0.2h0.1v0.1c0,1.4,0,2.8,0,4.3c0,1.6,0,3.1,0,4.6v0.1h-0.1c-12.1,0-22.9,0-30.7,0c-3.9,0-7,0-9.1,0
						c-1.1,0-1.9,0-2.5,0c-0.3,0-0.5,0-0.6,0C120.7,129.8,120.6,129.8,120.6,129.8z"/>
				</g>
			</g>
		</g>
		<g>
			<g>
				<g>
					<g>
						<g>
							<g>
								<rect x="127.4" y="129.8" class="st2" width="40.8" height="8.8"/>
							</g>
						</g>
						<g>
							<g>
								<polygon class="st2" points="143.6,129.8 144.2,138.6 150,138.6 150.3,129.8 								"/>
							</g>
						</g>
					</g>
					<g>
						<g>
							<g>
								<rect x="117.4" y="129.8" class="st4" width="40.8" height="8.8"/>
							</g>
						</g>
						<g>
							<g>
								<g>
									<path class="st2" d="M158.1,131.2c0,0.1-9.1,0.2-20.3,0.2c-11.2,0-20.3-0.1-20.3-0.2s9.1-0.2,20.3-0.2
										C149.1,131,158.1,131.1,158.1,131.2z"/>
								</g>
							</g>
						</g>
						<g>
							<g>
								<g>
									<path class="st2" d="M158.1,133.2c0,0.1-9.1,0.2-20.3,0.2c-11.2,0-20.3-0.1-20.3-0.2s9.1-0.2,20.3-0.2
										C149,133,158.1,133.1,158.1,133.2z"/>
								</g>
							</g>
						</g>
						<g>
							<g>
								<g>
									<path class="st2" d="M158.1,135.2c0,0.1-9.1,0.2-20.3,0.2c-11.2,0-20.3-0.1-20.3-0.2s9.1-0.2,20.3-0.2
										C149,135,158.1,135.1,158.1,135.2z"/>
								</g>
							</g>
						</g>
						<g>
							<g>
								<g>
									<path class="st2" d="M158.1,137.3c0,0.1-9.1,0.2-20.3,0.2c-11.2,0-20.3-0.1-20.3-0.2s9.1-0.2,20.3-0.2
										C149,137.1,158.1,137.1,158.1,137.3z"/>
								</g>
							</g>
						</g>
						<g>
							<g>
								<polygon class="st2" points="133.7,129.8 134.3,138.6 140.1,138.6 140.4,129.8 								"/>
							</g>
						</g>
					</g>
				</g>
			</g>
		</g>
		<g>
			<g>
				<g>
					<path class="st5" d="M125,138.6c0,0,0.1,0,0.2,0c0.1,0,0.4,0,0.6,0c0.6,0,1.4,0,2.5,0c2.2,0,5.3,0,9.2,0c7.8,0,18.5,0,30.7,0
						l-0.1,0.1c0-1.4,0-2.9,0-4.4c0-1.5,0-3,0-4.4l0.1,0.1c-12.1,0-22.9,0-30.6,0c-3.9,0-7,0-9.1,0c-1.1,0-1.9,0-2.5,0
						c-0.3,0-0.5,0-0.6,0c-0.1,0-0.2,0-0.2,0s0.1,0,0.2,0c0.1,0,0.4,0,0.6,0c0.6,0,1.4,0,2.5,0c2.2,0,5.3,0,9.1,0
						c7.8,0,18.5,0,30.6,0h0.1v0.1c0,1.4,0,2.9,0,4.4c0,1.5,0,3,0,4.4v0.1h-0.1c-12.1,0-22.9,0-30.7,0c-3.9,0-7,0-9.2,0
						c-1.1,0-1.9,0-2.5,0c-0.3,0-0.5,0-0.6,0C125.1,138.6,125,138.6,125,138.6z"/>
				</g>
			</g>
		</g>
		<g>
			<g>
				<g>
					<path class="st5" d="M153.9,129.9c0,0-0.1-2-0.1-4.4c0-2.4,0-4.4,0.1-4.4c0,0,0.1,2,0.1,4.4S154,129.9,153.9,129.9z"/>
				</g>
			</g>
		</g>
		<g>
			<g>
				<g>
					<path class="st5" d="M158.3,138.6c0,0-0.1-1.9-0.1-4.3s0-4.3,0.1-4.3c0,0,0.1,1.9,0.1,4.3S158.4,138.6,158.3,138.6z"/>
				</g>
			</g>
		</g>
	</g>
	<g id="Plant">
		<g>
			<g>
				<g>
					<g>
						<path class="st6" d="M103.9,25.9c0.1-1.2,1.2-2.2,2.4-2.1s2.2,1.2,2.1,2.4c-0.1,1.2-1.2,2.2-2.4,2.1
							C104.7,28.2,103.8,27.1,103.9,25.9z"/>
					</g>
				</g>
				<g class="st7">
					<g>
						<path d="M106,25l0-0.3l0.3,0l0,0.3c0.3,0,0.5,0.1,0.7,0.3l-0.2,0.3c-0.1-0.1-0.3-0.2-0.5-0.2l0,0.4c0.3,0.1,0.6,0.2,0.6,0.6
							c0,0.3-0.2,0.5-0.7,0.5l0,0.3l-0.3,0l0-0.3c-0.2,0-0.4-0.1-0.5-0.2l0.2-0.3c0.1,0.1,0.3,0.1,0.4,0.2l0-0.5
							c-0.3-0.1-0.6-0.2-0.6-0.6C105.4,25.2,105.6,25,106,25z M106.2,26.2l0,0.4c0.1,0,0.2-0.1,0.2-0.2
							C106.4,26.3,106.3,26.2,106.2,26.2z M105.8,25.5c0,0.1,0.1,0.1,0.2,0.2l0-0.4C105.9,25.4,105.8,25.4,105.8,25.5z"/>
					</g>
				</g>
				<g class="st7">
					<g>
						<g>
							<g>
								<path d="M104.4,26.1c0,0,0,0.1,0,0.2c0,0.1,0.1,0.3,0.2,0.5c0,0.1,0.1,0.2,0.2,0.3c0.1,0.1,0.2,0.2,0.3,0.3
									c0.1,0,0.1,0.1,0.2,0.1c0.1,0,0.1,0.1,0.2,0.1c0.1,0,0.2,0.1,0.2,0.1c0.1,0,0.2,0,0.3,0c0.1,0,0.2,0,0.3,0
									c0.1,0,0.2,0,0.3,0c0.1,0,0.2,0,0.2-0.1c0.1,0,0.1-0.1,0.2-0.1c0.1-0.1,0.2-0.2,0.3-0.3c0.1-0.1,0.2-0.2,0.2-0.3
									c0.1-0.2,0.2-0.4,0.2-0.5c0-0.1,0-0.2,0-0.2c0,0,0,0.1,0,0.2c0,0.1-0.1,0.3-0.2,0.6c-0.1,0.1-0.1,0.2-0.2,0.3
									c-0.1,0.1-0.2,0.2-0.4,0.3c-0.1,0-0.1,0.1-0.2,0.1c-0.1,0-0.2,0.1-0.3,0.1c-0.1,0-0.2,0-0.3,0.1c-0.1,0-0.2,0-0.3,0
									c-0.1,0-0.2,0-0.3,0s-0.2,0-0.3-0.1s-0.2-0.1-0.2-0.1c-0.1,0-0.1-0.1-0.2-0.1c-0.1-0.1-0.2-0.2-0.3-0.3
									c-0.1-0.1-0.2-0.2-0.2-0.4c-0.1-0.2-0.1-0.4-0.1-0.6C104.4,26.2,104.4,26.1,104.4,26.1z"/>
							</g>
						</g>
					</g>
				</g>
				<g>
					<g>
						<g>
							<g>
								<path class="st5" d="M104.4,25.9c0,0,0,0.2,0,0.4c0,0.3,0.2,0.7,0.6,1c0.4,0.3,1,0.5,1.6,0.4c0.6-0.2,1.2-0.8,1.2-1.5
									c0.1-0.7-0.4-1.4-1-1.7c-0.6-0.3-1.2-0.1-1.6,0.1c-0.4,0.3-0.6,0.6-0.7,0.9C104.4,25.8,104.4,25.9,104.4,25.9
									c0,0,0-0.2,0.1-0.4c0.1-0.3,0.3-0.6,0.7-0.9c0.4-0.3,1.1-0.4,1.7-0.1c0.6,0.3,1.1,1,1,1.8c0,0.8-0.6,1.4-1.3,1.6
									c-0.6,0.2-1.3,0-1.6-0.4c-0.4-0.3-0.5-0.7-0.5-1C104.4,26.1,104.4,25.9,104.4,25.9z"/>
							</g>
						</g>
					</g>
				</g>
				<g>
					<g>
						<g>
							<path class="st8" d="M106.9,24c0,0,0.1,0,0.2,0.1c0.1,0.1,0.3,0.2,0.5,0.4c0.2,0.2,0.3,0.4,0.4,0.5c0.1,0.1,0.1,0.2,0.1,0.2
								c0,0-0.2-0.4-0.5-0.7C107.3,24.2,106.9,24,106.9,24z"/>
						</g>
					</g>
				</g>
				<g>
					<g>
						<g>
							<path class="st8" d="M106.5,23.9c0,0,0.1,0,0.1,0c0.1,0,0.1,0,0.1,0.1C106.7,24,106.7,24,106.5,23.9
								C106.6,23.9,106.5,23.9,106.5,23.9z"/>
						</g>
					</g>
				</g>
			</g>
			<g>
				<g>
					<path class="st9" d="M129.7,84.6V81h0.9c0.6,0,1.1-0.5,1.1-1.1c0-0.6-0.5-1.1-1.1-1.1h-0.9v-1.3h0.9c0.6,0,1.1-0.5,1.1-1.1
						c0-0.6-0.5-1.1-1.1-1.1h-0.9v-1.8H76.6v1.8h-0.9c-0.6,0-1.1,0.5-1.1,1.1s0.5,1.1,1.1,1.1h0.9v1.3h-0.9c-0.6,0-1.1,0.5-1.1,1.1
						c0,0.6,0.5,1.1,1.1,1.1h0.9v3.1h0c-3.8,0-6.9,3.1-6.9,6.9v47.4c0,5.2,4.3,9.5,9.5,9.5h47.9c5.2,0,9.5-4.3,9.5-9.5V91.5
						C136.6,87.7,133.5,84.6,129.7,84.6z"/>
				</g>
			</g>
			<g>
				<g>
					<g>
						<path class="st5" d="M129.7,84.6c0,0,0.3,0,0.7,0c0.5,0.1,1.2,0.2,2.1,0.5c0.4,0.2,0.9,0.4,1.4,0.8c0.5,0.3,0.9,0.8,1.4,1.3
							c0.9,1.1,1.5,2.6,1.5,4.4c0,7.1,0,17.4,0,30.1c0,3.2,0,6.5,0,10c0,1.7,0,3.5,0,5.3c0,0.5,0,0.9,0,1.4c0,0.5,0,0.9-0.1,1.4
							c0,0.5-0.2,0.9-0.3,1.4c-0.1,0.2-0.2,0.4-0.2,0.7c-0.1,0.2-0.2,0.4-0.3,0.6c-0.2,0.4-0.4,0.8-0.7,1.2
							c-0.3,0.4-0.6,0.8-0.9,1.1c-0.6,0.7-1.4,1.3-2.2,1.8c-0.8,0.5-1.8,0.9-2.7,1.1c-1,0.2-2,0.3-3,0.2c-4,0-8.1,0-12.3,0
							c-8.4,0-17.2,0-26.4,0c-2.3,0-4.6,0-6.9,0c-1.2,0-2.3,0-3.5-0.2c-1.2-0.2-2.3-0.7-3.3-1.4c-2-1.3-3.5-3.4-4-5.8
							c-0.3-1.2-0.3-2.4-0.3-3.6c0-1.2,0-2.4,0-3.6c0-9.5,0-18.7,0-27.6c0-4.5,0-8.8,0-13.1c0-0.5,0-1.1,0-1.6c0-0.3,0-0.5,0-0.8
							c0-0.3,0.1-0.5,0.1-0.8c0.2-1,0.7-2,1.4-2.9c1.3-1.7,3.4-2.6,5.5-2.6l-0.1,0.1c0-1.1,0-2.1,0-3.1l0.1,0.1c-0.2,0-0.4,0-0.7,0
							c-0.2,0-0.5,0-0.7-0.1c-0.4-0.2-0.8-0.6-0.7-1.1c0-0.5,0.3-0.9,0.8-1.1c0.2-0.1,0.5-0.1,0.7-0.1h0.7l-0.1,0.1
							c0-0.4,0-0.8,0-1.3l0.1,0.1c-0.2,0-0.5,0-0.7,0c-0.2,0-0.5,0-0.7-0.1c-0.4-0.2-0.8-0.6-0.7-1.1c0-0.5,0.3-0.9,0.8-1.1
							c0.2-0.1,0.5-0.1,0.7-0.1h0.7l-0.1,0.1c0-0.6,0-1.2,0-1.8v-0.1h0.1c22.8,0,41.2,0,53.1,0h0v0c0,0.7,0,1.3,0,1.8l0,0
							c0.3,0,0.5,0,0.8,0c0.3,0,0.5,0,0.7,0.2c0.4,0.3,0.6,0.8,0.5,1.2c-0.1,0.4-0.5,0.8-0.9,0.8c-0.2,0-0.4,0-0.6,0
							c-0.2,0-0.4,0-0.6,0l0,0c0,0.6,0,0.9,0,1.3l0,0c0.3,0,0.6,0,0.8,0c0.3,0,0.6,0.1,0.8,0.2c0.4,0.3,0.5,0.9,0.4,1.3
							c-0.2,0.4-0.6,0.7-0.9,0.7c-0.4,0-0.7,0-1,0l0,0C129.7,83.4,129.7,84.5,129.7,84.6c0-0.1,0-1.2,0-3.7v0h0c0.3,0,0.7,0,1,0
							c0.4,0,0.7-0.3,0.9-0.7c0.2-0.4,0-0.9-0.4-1.2c-0.2-0.1-0.5-0.2-0.7-0.2c-0.3,0-0.6,0-0.8,0h0v0c0-0.3,0-0.7,0-1.3v0h0
							c0.2,0,0.4,0,0.6,0c0.2,0,0.4,0,0.6,0c0.4-0.1,0.7-0.4,0.8-0.8c0.1-0.4-0.1-0.9-0.5-1.1c-0.2-0.1-0.4-0.2-0.7-0.2
							c-0.3,0-0.5,0-0.8,0h0v0c0-0.5,0-1.1,0-1.8l0,0c-11.9,0-30.3,0-53.1,0l0.1-0.1c0,0.6,0,1.2,0,1.8v0.1h-0.1h-0.7
							c-0.2,0-0.4,0-0.6,0.1c-0.4,0.1-0.7,0.5-0.7,0.9c0,0.4,0.2,0.8,0.6,1c0.2,0.1,0.4,0.1,0.6,0.1c0.2,0,0.4,0,0.7,0h0.1v0.1
							c0,0.4,0,0.8,0,1.3v0.1h-0.1h-0.7c-0.2,0-0.4,0-0.6,0.1c-0.4,0.1-0.7,0.5-0.7,0.9c0,0.4,0.3,0.8,0.6,1
							c0.2,0.1,0.4,0.1,0.6,0.1c0.2,0,0.4,0,0.7,0h0.1V81c0,1,0,2.1,0,3.1v0.1h-0.1c-2,0-4,0.9-5.3,2.6c-0.6,0.8-1.1,1.8-1.3,2.8
							c-0.1,0.3-0.1,0.5-0.1,0.8c0,0.3,0,0.5,0,0.8c0,0.5,0,1.1,0,1.6c0,4.3,0,8.7,0,13.1c0,8.9,0,18.2,0,27.6c0,1.2,0,2.4,0,3.6
							c0,1.2,0,2.4,0.3,3.6c0.5,2.3,2,4.4,4,5.7c1,0.6,2.1,1.1,3.2,1.3c1.1,0.3,2.3,0.2,3.5,0.2c2.3,0,4.6,0,6.9,0
							c9.1,0,18,0,26.4,0c4.2,0,8.3,0,12.3,0c1,0,2,0,2.9-0.2c1-0.2,1.9-0.6,2.7-1.1c0.8-0.5,1.6-1.1,2.2-1.8
							c0.3-0.3,0.6-0.7,0.9-1.1c0.2-0.4,0.5-0.8,0.7-1.2c0.1-0.2,0.2-0.4,0.3-0.6c0.1-0.2,0.2-0.4,0.2-0.7c0.1-0.4,0.2-0.9,0.3-1.3
							c0.1-0.9,0.1-1.8,0.1-2.7c0-1.8,0-3.6,0-5.3c0-3.5,0-6.8,0-10c0-12.7,0-23,0-30.1c0-1.8-0.6-3.3-1.4-4.4
							c-0.4-0.5-0.9-1-1.3-1.3c-0.5-0.4-0.9-0.6-1.3-0.8c-0.9-0.4-1.6-0.5-2-0.6C129.9,84.6,129.7,84.6,129.7,84.6z"/>
					</g>
				</g>
			</g>
			<g>
				<g>
					<g>
						<path class="st6" d="M123.3,123.3c-4.6,1.8-9.8-0.4-11.6-5c-1.8-4.6,0.4-9.8,4.9-11.7c4.6-1.8,9.8,0.4,11.6,5
							C130.1,116.2,127.9,121.5,123.3,123.3z"/>
					</g>
				</g>
				<g class="st7">
					<g>
						<path d="M116.4,117.2l-1.1,0.5l-0.4-1l1.1-0.4c-0.3-1-0.4-2.1-0.2-2.8l1.4,0c-0.2,0.6-0.1,1.5,0.1,2.2l1.6-0.7
							c-0.2-1.2-0.3-2.6,1.1-3.2c1-0.4,2.2-0.1,3.1,1.4l1.1-0.5l0.4,1l-1.1,0.4c0.3,0.8,0.4,1.6,0.2,2.2l-1.4,0
							c0.1-0.6,0-1.2-0.1-1.7l-1.7,0.7c0.2,1.2,0.3,2.5-1,3.1C118.5,119.1,117.3,118.7,116.4,117.2z M120.4,114.4l1.4-0.6
							c-0.3-0.5-0.7-0.6-1-0.4C120.4,113.6,120.3,114,120.4,114.4z M118.7,117.1c0.3-0.1,0.4-0.5,0.4-1l-1.4,0.6
							C118,117.1,118.4,117.2,118.7,117.1z"/>
					</g>
				</g>
				<g class="st7">
					<g>
						<g>
							<g>
								<path d="M123.2,121c0,0,0.3-0.2,0.7-0.5c0.4-0.3,1.1-0.8,1.6-1.5c0.3-0.4,0.6-0.8,0.8-1.3c0.2-0.5,0.4-1.1,0.5-1.7
									c0.1-0.3,0.1-0.6,0.1-0.9c0-0.3,0-0.7,0-1c0-0.3-0.1-0.7-0.2-1c-0.1-0.3-0.2-0.7-0.3-1c-0.1-0.3-0.3-0.6-0.5-0.9
									c-0.2-0.3-0.4-0.6-0.6-0.8c-0.2-0.3-0.5-0.5-0.7-0.7c-0.2-0.2-0.5-0.4-0.8-0.6c-0.5-0.3-1.1-0.6-1.6-0.7
									c-0.5-0.2-1-0.2-1.5-0.3c-0.9-0.1-1.7,0.1-2.2,0.2c-0.5,0.1-0.8,0.2-0.8,0.2c0,0,0.2-0.2,0.8-0.4c0.5-0.2,1.3-0.4,2.3-0.4
									c0.5,0,1,0.1,1.6,0.2c0.6,0.2,1.2,0.4,1.7,0.7c0.3,0.2,0.6,0.4,0.8,0.6c0.3,0.2,0.5,0.5,0.8,0.7s0.5,0.6,0.7,0.9
									s0.4,0.7,0.5,1c0.2,0.4,0.3,0.7,0.4,1.1c0.1,0.4,0.2,0.7,0.2,1.1c0,0.4,0,0.7,0,1.1c0,0.3-0.1,0.7-0.1,1
									c-0.1,0.7-0.4,1.2-0.6,1.8c-0.3,0.5-0.6,1-0.9,1.3c-0.7,0.8-1.3,1.2-1.8,1.4C123.5,120.9,123.2,121,123.2,121z"/>
							</g>
						</g>
					</g>
				</g>
				<g>
					<g>
						<g>
							<g>
								<path class="st5" d="M122.6,121.3C122.6,121.3,122.6,121.3,122.6,121.3c0.2-0.1,0.3-0.1,0.4-0.2c0.1-0.1,0.3-0.1,0.5-0.3
									c0.2-0.1,0.4-0.2,0.6-0.4c0.4-0.3,0.9-0.8,1.4-1.4c0.5-0.6,0.9-1.4,1.2-2.3c0.3-0.9,0.4-2,0.1-3.1c-0.2-1.1-0.7-2.3-1.6-3.2
									c-0.2-0.2-0.5-0.4-0.7-0.7c-0.3-0.2-0.5-0.4-0.8-0.6c-0.6-0.3-1.2-0.6-1.9-0.8c-0.7-0.2-1.4-0.2-2.1-0.2
									c-0.7,0.1-1.4,0.2-2.1,0.5c-0.7,0.3-1.3,0.7-1.9,1.1c-0.6,0.5-1,1-1.4,1.6c-0.4,0.6-0.7,1.2-0.8,1.9c-0.1,0.3-0.1,0.7-0.2,1
									c0,0.3-0.1,0.6,0,1c0,1.3,0.4,2.5,1.1,3.4c0.6,1,1.4,1.7,2.3,2.2c0.8,0.5,1.7,0.8,2.5,0.9c0.8,0.1,1.4,0.1,2,0
									c0.3,0,0.5-0.1,0.7-0.1c0.2,0,0.4-0.1,0.5-0.1c0.1,0,0.2-0.1,0.3-0.1C122.6,121.3,122.6,121.3,122.6,121.3c0,0,0,0-0.1,0
									c-0.1,0-0.2,0.1-0.3,0.1c-0.1,0.1-0.3,0.1-0.5,0.2c-0.2,0-0.4,0.1-0.7,0.1c-0.5,0.1-1.2,0.1-2,0c-0.8-0.1-1.6-0.4-2.5-0.9
									c-0.8-0.5-1.7-1.2-2.3-2.2c-0.6-1-1.1-2.2-1.1-3.5c0-0.3,0-0.7,0-1c0.1-0.3,0.1-0.7,0.2-1c0.2-0.7,0.5-1.3,0.8-1.9
									c0.4-0.6,0.9-1.2,1.4-1.6c0.6-0.5,1.2-0.9,1.9-1.1c0.7-0.3,1.4-0.4,2.2-0.5c0.7-0.1,1.5,0,2.2,0.2c0.7,0.2,1.3,0.4,1.9,0.8
									c0.3,0.2,0.6,0.4,0.8,0.6c0.2,0.2,0.5,0.4,0.7,0.7c0.9,1,1.4,2.1,1.6,3.3c0.2,1.1,0.1,2.3-0.2,3.2c-0.3,0.9-0.7,1.7-1.2,2.4
									c-0.5,0.6-1,1.1-1.4,1.4c-0.2,0.2-0.4,0.3-0.6,0.4c-0.2,0.1-0.3,0.2-0.5,0.2c-0.1,0.1-0.2,0.1-0.3,0.1
									C122.6,121.3,122.6,121.3,122.6,121.3z"/>
							</g>
						</g>
					</g>
				</g>
				<g>
					<g>
						<g>
							<path class="st8" d="M111.5,115.9c0,0,0-0.1-0.1-0.3c0-0.2-0.1-0.4-0.1-0.7c0-0.6,0.1-1.5,0.3-2.5c0.3-0.9,0.7-1.7,1.1-2.2
								c0.2-0.3,0.4-0.5,0.5-0.6c0.1-0.1,0.2-0.2,0.2-0.2c0,0-0.2,0.3-0.6,0.8c-0.3,0.5-0.7,1.3-1,2.2c-0.3,0.9-0.4,1.8-0.4,2.4
								C111.4,115.5,111.5,115.9,111.5,115.9z"/>
						</g>
					</g>
				</g>
				<g>
					<g>
						<g>
							<path class="st8" d="M111.7,117.4c0,0-0.1-0.2-0.2-0.4c0-0.2,0-0.4,0-0.4c0,0,0.1,0.2,0.2,0.4
								C111.7,117.2,111.7,117.4,111.7,117.4z"/>
						</g>
					</g>
				</g>
			</g>
			<g>
				<g>
					<path class="st10" d="M117.6,117.2c-4,1.8-7.9,4.3-12.2,4.9c-6.1,0.9-12-1.7-17.6-4.4c-8.2-4.1-15.8-4.5-18.1-2.9v23.7
						c0,5.2,4.3,9.5,9.5,9.5h47.9c5.2,0,9.5-4.3,9.5-9.5v-25.3C130.5,113.4,122.8,114.8,117.6,117.2z"/>
				</g>
			</g>
			<g>
				<g>
					<g>
						<path class="st5" d="M129.5,84.1c0,0-12.1,0.1-27,0.1c-14.9,0-27,0-27-0.1s12.1-0.1,27-0.1C117.4,84,129.5,84,129.5,84.1z"/>
					</g>
				</g>
			</g>
			<g>
				<g>
					<g>
						<path class="st5" d="M136.1,113.1c0,0-0.1,0-0.2,0c-0.1,0-0.3,0-0.5,0c-0.5,0-1.1,0.1-2,0.1c-1.7,0.1-4.3,0.4-7.3,1.2
							c-3,0.7-6.6,1.9-10.3,3.8c-1.9,0.9-3.8,1.9-5.9,2.8c-1.1,0.4-2.1,0.8-3.3,1c-0.3,0.1-0.6,0.1-0.9,0.2l-0.4,0.1l-0.4,0
							c-0.3,0-0.6,0.1-0.9,0.1c-0.3,0-0.6,0-0.9,0c-1.2,0-2.4-0.1-3.5-0.3c-1.1-0.2-2.3-0.5-3.3-0.8c-2.2-0.7-4.2-1.5-6.1-2.4
							c-1.9-0.8-3.7-1.7-5.4-2.4c-1.7-0.7-3.3-1.3-4.8-1.7c-3-0.9-5.6-1-7.3-0.9c-0.4,0-0.8,0.1-1.2,0.1c-0.2,0-0.3,0-0.5,0.1
							c-0.1,0-0.3,0.1-0.4,0.1c-0.2,0-0.4,0.1-0.5,0.1c-0.1,0-0.2,0-0.2,0s0.1,0,0.2,0c0.1,0,0.3-0.1,0.5-0.1c0.1,0,0.2-0.1,0.4-0.1
							c0.1,0,0.3,0,0.5-0.1c0.3,0,0.7-0.1,1.2-0.1c1.7-0.2,4.3,0,7.3,0.9c1.5,0.4,3.1,1,4.8,1.7c1.7,0.7,3.5,1.5,5.4,2.4
							c1.9,0.8,3.9,1.7,6,2.3c1.1,0.3,2.2,0.6,3.3,0.8c1.1,0.2,2.3,0.3,3.5,0.3c0.3,0,0.6,0,0.9,0c0.3,0,0.6-0.1,0.9-0.1l0.4,0
							l0.4-0.1c0.3,0,0.6-0.1,0.9-0.2c1.1-0.3,2.2-0.6,3.3-1c2.1-0.8,4-1.8,5.9-2.7c3.7-1.9,7.3-3,10.3-3.8c3-0.7,5.6-1,7.3-1.1
							c0.9-0.1,1.6-0.1,2-0.1c0.2,0,0.4,0,0.5,0C136,113.1,136.1,113.1,136.1,113.1z"/>
					</g>
				</g>
			</g>
			<g>
				<g>
					<g>
						<path class="st6" d="M85,125.8c1.2,0.3,2.3,0.8,3.4,1.1c0.2-0.3,0.3-0.5,0.5-0.8c1.3-3,0-6.5-3-7.9c-3-1.3-6.5,0-7.8,3
							c-0.8,1.8-0.6,3.9,0.3,5.5C80.4,125.6,82.8,125.3,85,125.8z"/>
					</g>
				</g>
				<g>
					<g>
						<g>
							<path class="st8" d="M77.9,124.2c0,0-0.1-0.3-0.1-0.7c0-0.4,0-1,0.2-1.6c0.2-0.6,0.5-1.1,0.7-1.5c0.3-0.3,0.4-0.5,0.5-0.5
								c0,0-0.7,0.8-1,2C77.8,123.2,77.9,124.2,77.9,124.2z"/>
						</g>
					</g>
				</g>
				<g>
					<g>
						<g>
							<path class="st8" d="M78,125.2c0,0-0.1-0.1-0.1-0.2c0-0.1,0-0.3,0-0.3c0,0,0.1,0.1,0.1,0.2C78.1,125.1,78.1,125.2,78,125.2z"
								/>
						</g>
					</g>
				</g>
				<g>
					<g>
						<path class="st5" d="M79.7,126.1C79.7,126.1,79.8,126.1,79.7,126.1c-0.2-0.4-0.4-0.9-0.5-1.5c-0.1-0.6-0.2-1.3,0-2.1
							c0.2-0.7,0.6-1.5,1.2-2.1c0.3-0.3,0.6-0.6,1-0.8c0.4-0.2,0.8-0.4,1.3-0.5c0.9-0.2,1.9-0.1,2.8,0.3c0.9,0.4,1.6,1.1,2.1,1.9
							c0.2,0.4,0.4,0.8,0.5,1.2c0.1,0.4,0.1,0.9,0.1,1.3c0,0.8-0.4,1.6-0.8,2.2c-0.1,0.1-0.1,0.2-0.2,0.2c0,0,0.1,0,0.1,0
							c0.1-0.1,0.1-0.1,0.2-0.2c0.4-0.6,0.8-1.4,0.8-2.3c0-0.4,0-0.9-0.1-1.3c-0.1-0.4-0.3-0.9-0.5-1.3c-0.5-0.8-1.2-1.5-2.1-1.9
							c-0.9-0.4-1.9-0.5-2.9-0.3c-0.5,0.1-0.9,0.3-1.3,0.5c-0.4,0.2-0.8,0.5-1.1,0.8c-0.6,0.6-1,1.4-1.2,2.1c-0.2,0.8-0.1,1.5,0,2.1
							C79.2,125.2,79.4,125.7,79.7,126.1z"/>
					</g>
				</g>
				<g class="st7">
					<g>
						<path d="M86,119.8c0.3,0.2,0.7,0.5,1.1,1c0.2,0.2,0.4,0.5,0.6,0.9c0.2,0.3,0.3,0.7,0.4,1.1c0,0.2,0.1,0.4,0.1,0.6
							c0,0.2,0,0.4,0,0.7s-0.1,0.4-0.1,0.7c-0.1,0.2-0.1,0.4-0.2,0.7c-0.1,0.2-0.2,0.4-0.3,0.6c-0.1,0.2-0.2,0.3-0.3,0.5
							c0.1,0,0.2,0.1,0.3,0.1c0.1-0.1,0.2-0.3,0.3-0.4c0.1-0.2,0.2-0.4,0.3-0.7c0.1-0.2,0.2-0.5,0.2-0.7c0.1-0.2,0.1-0.5,0.1-0.7
							c0-0.2,0-0.5,0-0.7c0-0.2-0.1-0.5-0.1-0.7c-0.1-0.4-0.3-0.8-0.4-1.2c-0.2-0.3-0.4-0.6-0.6-0.9c-0.4-0.5-0.9-0.8-1.2-0.9
							c-0.3-0.2-0.5-0.2-0.5-0.2C85.6,119.6,85.7,119.7,86,119.8z"/>
					</g>
				</g>
				<g class="st7">
					<g>
						<path d="M81.6,125.1c0.9,0.4,1.5-0.3,2-0.9l1.1,0.5c-0.2,0.3-0.4,0.6-0.8,0.8l0.2,0.2c0.3,0,0.6,0.1,0.9,0.1
							c0.2-0.2,0.4-0.5,0.6-0.8l0.7,0.3l0.3-0.6l-0.7-0.3c0.3-1.1,0-1.8-0.7-2.1c-0.9-0.4-1.5,0.3-2,0.9l-1.1-0.5
							c0.2-0.4,0.6-0.8,1-1.1l-0.6-0.7c-0.4,0.2-0.9,0.8-1.2,1.4l-0.7-0.3l-0.3,0.6l0.7,0.3C80.5,124,80.9,124.8,81.6,125.1z
							 M84.6,123.3c0.2,0.1,0.3,0.3,0.3,0.7l-0.9-0.4C84.2,123.3,84.4,123.2,84.6,123.3z M81.7,123.3l0.9,0.4
							c-0.2,0.2-0.4,0.4-0.6,0.3C81.7,123.9,81.6,123.7,81.7,123.3z"/>
					</g>
				</g>
			</g>
			<g>
				<g>
					<g>
						<path class="st5" d="M92.1,127.7c0,0-0.1,0-0.2,0c-0.1,0-0.3,0-0.5,0c-0.4,0-1,0-1.7-0.2c-0.7-0.1-1.5-0.4-2.4-0.6
							c-0.9-0.3-1.9-0.7-2.9-0.9c-1-0.3-2.1-0.2-3,0c-0.9,0.2-1.7,0.5-2.4,0.7c-0.7,0.3-1.2,0.5-1.5,0.7c-0.4,0.2-0.6,0.3-0.6,0.2
							c0,0,0,0,0.1-0.1c0.1-0.1,0.2-0.1,0.4-0.2c0.4-0.2,0.9-0.4,1.5-0.7c0.7-0.3,1.5-0.6,2.4-0.8c0.9-0.2,2-0.3,3.1,0
							c1.1,0.3,2,0.6,2.9,0.9c0.9,0.3,1.7,0.5,2.4,0.7c0.7,0.1,1.3,0.2,1.7,0.2C91.9,127.6,92.1,127.6,92.1,127.7z"/>
					</g>
				</g>
			</g>
			<g>
				<g>
					<g>
						<path class="st5" d="M99.9,20.9c0,0-0.1,0-0.2,0.1c-0.2,0.1-0.4,0.2-0.7,0.4c-0.6,0.4-1.4,1-2.4,1.8c-0.5,0.4-1.1,0.9-1.7,1.4
							c-0.5,0.6-0.9,1.4-1.1,2.3c-0.4,1.9,0,4,0.8,6.3c0.4,1.1,0.9,2.3,1.4,3.5c0.5,1.2,1.2,2.4,1.8,3.7c0.3,0.6,0.6,1.3,0.8,2
							c0.3,0.7,0.5,1.4,0.8,2.1c0.5,1.4,1,2.9,1.4,4.4c0.8,3,1.3,6.3,1.5,9.8c0.1,1.7,0.1,3.5,0,5.2c0,1.8-0.1,3.6-0.2,5.4
							c-0.2,3.6-0.4,7.2-0.5,10.6c-0.1,3.4-0.2,6.7-0.2,9.9c0,6.3,0.2,12,0.6,16.7c0.3,4.7,0.7,8.6,1,11.2c0.1,1.3,0.3,2.3,0.4,3
							c0,0.3,0.1,0.6,0.1,0.8c0,0.2,0,0.3,0,0.3s0-0.1,0-0.3c0-0.2-0.1-0.4-0.1-0.8c-0.1-0.7-0.2-1.7-0.4-3
							c-0.3-2.6-0.7-6.5-1.1-11.2c-0.3-4.7-0.6-10.4-0.6-16.7c0-3.2,0.1-6.5,0.2-9.9c0.1-3.4,0.4-7,0.5-10.6
							c0.1-1.8,0.2-3.6,0.2-5.4c0-1.8,0.1-3.5,0-5.2c-0.2-3.4-0.7-6.7-1.5-9.7c-0.4-1.5-0.8-3-1.3-4.4c-0.2-0.7-0.5-1.4-0.8-2.1
							c-0.3-0.7-0.5-1.3-0.8-2c-0.6-1.3-1.2-2.5-1.7-3.7c-0.5-1.2-1-2.3-1.4-3.5c-0.8-2.3-1.1-4.5-0.7-6.3c0.2-0.9,0.5-1.8,1.1-2.4
							c0.6-0.5,1.2-1,1.7-1.4c1-0.8,1.9-1.4,2.5-1.8C99.6,21.1,99.9,20.9,99.9,20.9z"/>
					</g>
				</g>
			</g>
			<g>
				<g>
					<g>
						<path class="st5" d="M72.2,99.8c0,0,0.1,7.7,0.1,17.1c0,9.5,0,17.1-0.1,17.1c0,0-0.1-7.7-0.1-17.1
							C72.1,107.5,72.1,99.8,72.2,99.8z"/>
					</g>
				</g>
			</g>
			<g>
				<g>
					<g>
						<path class="st8" d="M133.5,135.9c0,0-0.1-3.4-0.1-7.5c0-4.1,0-7.5,0.1-7.5c0,0,0.1,3.4,0.1,7.5
							C133.6,132.5,133.6,135.9,133.5,135.9z"/>
					</g>
				</g>
			</g>
			<g>
				<g>
					<g>
						<path class="st8" d="M133.5,115.3c0,0,0.1,0.3,0.1,0.8c0,0.4,0,0.8-0.1,0.8c0,0-0.1-0.3-0.1-0.8
							C133.4,115.6,133.5,115.3,133.5,115.3z"/>
					</g>
				</g>
			</g>
			<g>
				<g>
					<g>
						<path class="st10" d="M111.2,91.3c3.7-1.8,7.9-2.4,12-2.9c-0.6,4.5-3.3,8.6-7.1,11c-3.9,2.4-8.8,2.9-13,1.4
							C103.9,96.6,107.5,93.1,111.2,91.3z"/>
					</g>
				</g>
				<g>
					<g>
						<g>
							<path class="st5" d="M101.4,101.8c0,0,0,0,0.1-0.1c0.1-0.1,0.2-0.2,0.4-0.3c0.4-0.3,0.9-0.6,1.6-1c1.4-0.8,3.3-1.9,5.5-3.1
								c2.1-1.2,4.1-2.2,5.5-3c0.7-0.4,1.2-0.7,1.7-0.9c0.2-0.1,0.3-0.2,0.5-0.3c0.1-0.1,0.2-0.1,0.2-0.1c0,0,0,0-0.1,0.1
								c-0.1,0.1-0.3,0.2-0.4,0.3c-0.4,0.2-0.9,0.6-1.6,1c-1.4,0.8-3.3,1.9-5.5,3.1c-2.1,1.2-4.1,2.2-5.5,3c-0.7,0.4-1.3,0.7-1.6,1
								C101.6,101.7,101.4,101.8,101.4,101.8z"/>
						</g>
					</g>
				</g>
			</g>
			<g>
				<g>
					<g>
						<path class="st10" d="M111.1,48.8c3.5-1.7,7.4-2.2,11.2-2.7c-0.5,4.1-3,8-6.6,10.2c-3.6,2.2-8.1,2.7-12.1,1.3
							C104.4,53.8,107.7,50.5,111.1,48.8z"/>
					</g>
				</g>
				<g>
					<g>
						<g>
							<path class="st5" d="M102.2,58.5c0,0,0,0,0.1-0.1s0.2-0.2,0.4-0.3c0.3-0.2,0.8-0.5,1.5-0.9c1.3-0.7,3-1.7,5-2.8
								c1.9-1.1,3.7-2,5-2.8c0.6-0.4,1.1-0.6,1.5-0.8c0.2-0.1,0.3-0.2,0.4-0.2c0.1,0,0.1-0.1,0.2-0.1c0,0,0,0-0.1,0.1
								c-0.1,0.1-0.2,0.2-0.4,0.3c-0.3,0.2-0.9,0.5-1.5,0.9c-1.3,0.7-3,1.7-5,2.8c-2,1.1-3.7,2-5,2.8c-0.6,0.4-1.1,0.7-1.5,0.9
								C102.4,58.4,102.2,58.5,102.2,58.5z"/>
						</g>
					</g>
				</g>
			</g>
			<g>
				<g>
					<g>
						<path class="st10" d="M94.7,66.3c-2.8-1.4-5.9-1.9-9-2.4c0.4,3.4,2.3,6.5,5.2,8.4c2.9,1.8,6.5,2.3,9.8,1.3
							C100.1,70.4,97.5,67.7,94.7,66.3z"/>
					</g>
				</g>
				<g>
					<g>
						<g>
							<path class="st5" d="M101.7,74.3c0,0-0.2-0.1-0.4-0.3c-0.3-0.2-0.7-0.4-1.2-0.7c-1.1-0.6-2.5-1.4-4-2.3c-1.6-0.9-3-1.8-4-2.4
								c-0.5-0.3-0.9-0.6-1.2-0.8s-0.4-0.3-0.4-0.3c0,0,0.2,0.1,0.5,0.2c0.3,0.2,0.7,0.4,1.2,0.7c1.1,0.6,2.5,1.4,4,2.3
								c1.6,0.9,3,1.7,4,2.4c0.5,0.3,0.9,0.6,1.2,0.8C101.5,74,101.6,74.1,101.7,74.3C101.7,74.2,101.7,74.2,101.7,74.3z"/>
						</g>
					</g>
				</g>
			</g>
			<g>
				<g>
					<g>
						<path class="st10" d="M91.3,38c-3.7-1.9-7.9-2.6-12-3.2c0.5,4.5,3.1,8.7,6.9,11.2s8.7,3.1,13,1.7C98.5,43.5,95,39.9,91.3,38z"
							/>
					</g>
				</g>
				<g>
					<g>
						<g>
							<path class="st5" d="M100.7,48.6c0,0-0.2-0.1-0.6-0.4c-0.4-0.2-0.9-0.6-1.6-1c-1.4-0.8-3.2-1.9-5.3-3.1
								c-2.1-1.2-4-2.3-5.3-3.2c-0.7-0.4-1.2-0.8-1.6-1c-0.2-0.1-0.3-0.2-0.4-0.3c-0.1-0.1-0.1-0.1-0.1-0.1c0,0,0.1,0,0.2,0.1
								c0.1,0.1,0.3,0.2,0.4,0.3c0.4,0.2,0.9,0.6,1.6,1c1.4,0.8,3.3,1.9,5.3,3.1c2.1,1.2,4,2.3,5.3,3.2c0.7,0.4,1.2,0.8,1.6,1
								c0.2,0.1,0.3,0.2,0.4,0.3C100.6,48.6,100.7,48.6,100.7,48.6z"/>
						</g>
					</g>
				</g>
			</g>
			<g>
				<g>
					<g>
						<path class="st10" d="M92.3,100.1c-3.7-1.8-7.9-2.4-12-2.9c0.6,4.5,3.3,8.6,7.1,11c3.9,2.4,8.8,2.9,13,1.4
							C99.6,105.4,96.1,101.9,92.3,100.1z"/>
					</g>
				</g>
				<g>
					<g>
						<g>
							<path class="st5" d="M102.2,110.6c0,0-0.2-0.1-0.6-0.4c-0.4-0.2-0.9-0.6-1.6-1c-1.4-0.8-3.4-1.9-5.5-3s-4.1-2.3-5.5-3.1
								c-0.7-0.4-1.3-0.7-1.6-1c-0.2-0.1-0.3-0.2-0.4-0.3c-0.1-0.1-0.1-0.1-0.1-0.1c0,0,0.1,0,0.2,0.1c0.1,0.1,0.3,0.1,0.5,0.3
								c0.4,0.2,1,0.5,1.7,0.9c1.4,0.8,3.4,1.9,5.5,3c2.2,1.2,4.1,2.3,5.5,3.1c0.7,0.4,1.2,0.8,1.6,1c0.2,0.1,0.3,0.2,0.4,0.3
								C102.2,110.6,102.2,110.6,102.2,110.6z"/>
						</g>
					</g>
				</g>
			</g>
			<g>
				<g>
					<g>
						<path class="st5" d="M130.2,75.4c0,0-12.1,0.1-27,0.1c-14.9,0-27,0-27-0.1c0,0,12.1-0.1,27-0.1S130.2,75.3,130.2,75.4z"/>
					</g>
				</g>
			</g>
			<g>
				<g>
					<g>
						<path class="st5" d="M130,77.6c0,0-12.1,0.1-27,0.1c-14.9,0-27,0-27-0.1s12.1-0.1,27-0.1C117.9,77.5,130,77.5,130,77.6z"/>
					</g>
				</g>
			</g>
			<g>
				<g>
					<g>
						<path class="st5" d="M130,78.8c0,0-12.1,0.1-27,0.1c-14.9,0-27,0-27-0.1s12.1-0.1,27-0.1S130,78.7,130,78.8z"/>
					</g>
				</g>
			</g>
			<g>
				<g>
					<g>
						<path class="st5" d="M130,81c0,0-12.1,0.1-27,0.1c-14.9,0-27,0-27-0.1s12.1-0.1,27-0.1C117.9,80.9,130,80.9,130,81z"/>
					</g>
				</g>
			</g>
			<g>
				<g>
					<g>
						<path class="st10" d="M100.4,88.2c-0.1-0.2-0.2-0.5-0.4-0.7c-2-2-4.9-3.1-7.7-2.8c-0.1,0-0.2,0-0.3,0.1
							c-0.1,0.2,0,0.4,0.1,0.5C94.2,87.7,97.4,88.8,100.4,88.2L100.4,88.2z"/>
					</g>
				</g>
				<g>
					<g>
						<g>
							<path class="st5" d="M101.3,88.9c0,0-0.3-0.2-0.9-0.5c-0.5-0.3-1.3-0.7-2.2-1.1c-0.9-0.4-1.7-0.6-2.4-0.7
								c-0.6-0.1-1-0.2-1-0.2c0,0,0.1,0,0.3,0c0.2,0,0.4,0.1,0.7,0.1c0.6,0.1,1.5,0.3,2.4,0.7c0.9,0.4,1.7,0.8,2.2,1.2
								c0.3,0.2,0.5,0.3,0.6,0.4C101.2,88.8,101.3,88.9,101.3,88.9z"/>
						</g>
					</g>
				</g>
			</g>
			<g>
				<g>
					<g>
						<path class="st10" d="M100.4,44.3c0-0.3,0.1-0.5,0.2-0.7c1.5-2.4,4.2-4,7-4.3c0.1,0,0.3,0,0.3,0.1c0.1,0.1,0.1,0.4,0,0.5
							C106.4,42.6,103.5,44.3,100.4,44.3L100.4,44.3z"/>
					</g>
				</g>
				<g>
					<g>
						<g>
							<path class="st5" d="M99.5,45.3c0,0,0.1-0.1,0.2-0.2c0.1-0.1,0.3-0.3,0.5-0.6c0.5-0.5,1.1-1.1,2-1.6c0.8-0.6,1.7-1,2.3-1.2
								c0.3-0.1,0.6-0.2,0.7-0.3c0.2-0.1,0.3-0.1,0.3-0.1c0,0-0.4,0.2-1,0.4c-0.6,0.3-1.4,0.7-2.2,1.3c-0.8,0.6-1.5,1.1-2,1.6
								C99.8,45,99.5,45.3,99.5,45.3z"/>
						</g>
					</g>
				</g>
			</g>
			<g>
				<g>
					<g>
						<g>
							<polygon class="st6" points="114.6,121.9 107.5,123.8 107.5,123.8 111.3,142.1 126.4,137.9 123.5,127 							"/>
						</g>
					</g>
					<g class="st7">
						<g>
							<polygon points="114.6,121.9 107.5,123.8 107.5,123.8 111.3,142.1 126.4,137.9 123.5,127 							"/>
						</g>
					</g>
					<g>
						<g>
							<polygon class="st6" points="107.5,123.8 102.2,132.4 105.3,143.7 119.5,139.8 116.5,128.8 							"/>
						</g>
					</g>
					<g>
						<g>
							<g>
								<path class="st5" d="M110,142.4c0,0-0.1-0.1-0.1-0.4c-0.1-0.3-0.2-0.7-0.3-1.2c-0.3-1-0.7-2.4-1.1-4l0-0.1l0.1,0
									c0.6-0.2,1.1-0.3,1.8-0.5c0.6-0.2,1.2-0.3,1.8-0.5l0.1,0l0,0.1c0.4,1.6,0.8,3,1,4c0.1,0.5,0.2,0.9,0.3,1.2
									c0.1,0.3,0.1,0.4,0.1,0.4c0,0-0.1-0.1-0.1-0.4c-0.1-0.3-0.2-0.7-0.3-1.2c-0.3-1-0.7-2.4-1.1-4l0.1,0.1
									c-0.6,0.2-1.2,0.3-1.8,0.5c-0.6,0.2-1.2,0.3-1.8,0.5l0.1-0.1c0.4,1.6,0.8,3,1,4c0.1,0.5,0.2,0.9,0.3,1.2
									C110,142.2,110,142.4,110,142.4z"/>
							</g>
						</g>
					</g>
					<g class="st7">
						<g>
							<g>
								
									<rect x="112" y="130.7" transform="matrix(0.9654 -0.2607 0.2607 0.9654 -30.5559 34.1744)" class="st8" width="3.1" height="3.1"/>
							</g>
						</g>
					</g>
					<g class="st7">
						<g>
							<g>
								
									<rect x="104.6" y="132.7" transform="matrix(0.9654 -0.2607 0.2607 0.9654 -31.3313 32.3158)" class="st8" width="3.1" height="3.1"/>
							</g>
						</g>
					</g>
					<g>
						<g>
							
								<rect x="103" y="126.2" transform="matrix(0.9654 -0.2607 0.2607 0.9654 -29.9135 31.4998)" class="st6" width="1.6" height="4.7"/>
						</g>
					</g>
					<g>
						<g>
							<g>
								<path class="st5" d="M107.5,123.8c0,0,0,0,0.1,0c0.1,0,0.2-0.1,0.4-0.1c0.3-0.1,0.8-0.2,1.4-0.4c1.2-0.3,3-0.8,5.2-1.4l0,0
									l0,0c2.5,1.4,5.5,3.2,8.9,5.1l0.2,0.1l-0.2,0.1c-1.5,0.4-3.2,0.8-4.8,1.2c-0.7,0.2-1.5,0.4-2.2,0.6l0,0l0,0
									C113.1,127,110.1,125.3,107.5,123.8L107.5,123.8c-1.6,2.6-2.9,4.8-3.8,6.3c-0.5,0.7-0.8,1.3-1.1,1.7
									c-0.1,0.2-0.2,0.3-0.3,0.4c-0.1,0.1-0.1,0.2-0.1,0.2c0,0,0-0.1,0.1-0.2c0.1-0.1,0.2-0.3,0.3-0.5c0.3-0.4,0.6-1,1.1-1.7
									C104.5,128.5,105.9,126.3,107.5,123.8L107.5,123.8L107.5,123.8c2.6,1.4,5.7,3.1,9,4.9l-0.1,0c0.7-0.2,1.4-0.4,2.2-0.6
									c1.7-0.4,3.3-0.8,4.8-1.2l0,0.2c-3.4-1.9-6.4-3.7-8.9-5.1l0,0c-2.2,0.6-4,1-5.2,1.4c-0.6,0.2-1.1,0.3-1.4,0.4
									c-0.2,0-0.3,0.1-0.4,0.1C107.6,123.8,107.5,123.8,107.5,123.8z"/>
							</g>
						</g>
					</g>
					<g class="st7">
						<g>
							<g>
								<polyline points="113.5,141.4 112,135.9 108.5,136.8 110,142.4 								"/>
							</g>
						</g>
					</g>
				</g>
				<g>
					<g>
						<path class="st10" d="M130.5,140.1c-2.7-2.7-7-3.7-10.6-2.4c-2.5,0.9-4.8,2.8-7.5,2.6c-1.5-0.1-2.8-0.9-4.2-1.3
							c-3-0.9-6.6-0.1-8.9,2l-1.2,4c0,0,34,1.3,34,0C132.1,143.7,130.5,140.1,130.5,140.1z"/>
					</g>
				</g>
			</g>
			<g>
				<g>
					<g>
						<path class="st5" d="M129,138.7c0,0-0.1,0-0.3-0.1c-0.2-0.1-0.4-0.2-0.7-0.4c-0.6-0.3-1.6-0.7-2.9-0.9
							c-1.2-0.2-2.8-0.2-4.4,0.3c-1.6,0.5-3.3,1.3-5,2.1c-0.9,0.4-1.8,0.8-2.8,0.8c-1,0-1.8-0.4-2.6-0.7c-1.5-0.7-3-1-4.3-1.1
							c-1.3-0.1-2.3,0.1-3,0.3c-0.3,0.1-0.6,0.1-0.8,0.2c-0.2,0.1-0.3,0.1-0.3,0.1c0,0,0.1,0,0.3-0.1c0.2-0.1,0.4-0.1,0.8-0.2
							c0.7-0.2,1.7-0.4,3-0.3c1.3,0,2.8,0.3,4.4,1c0.8,0.3,1.6,0.7,2.5,0.7c0.9,0,1.8-0.4,2.7-0.8c1.8-0.8,3.4-1.7,5.1-2.1
							c1.6-0.5,3.2-0.5,4.5-0.3c1.3,0.2,2.2,0.6,2.9,0.9c0.3,0.2,0.6,0.3,0.7,0.4C128.9,138.6,129,138.6,129,138.7z"/>
					</g>
				</g>
			</g>
			<g>
				<g>
					<g>
						<g>
							
								<rect x="85.1" y="131" transform="matrix(0.1645 -0.9864 0.9864 0.1645 -62.0759 201.1856)" class="st6" width="5.2" height="12.5"/>
						</g>
					</g>
					<g>
						<g>
							
								<rect x="88" y="125.4" transform="matrix(0.1645 -0.9864 0.9864 0.1645 -59.056 200.0286)" class="st6" width="1" height="19"/>
						</g>
					</g>
					<g class="st7">
						<g>
							<rect x="94.6" y="133.1" transform="matrix(0.1645 -0.9864 0.9864 0.1645 -54.6197 207.4592)" width="1" height="5.7"/>
						</g>
					</g>
					<g class="st7">
						<g>
							<rect x="88.7" y="135.2" transform="matrix(0.1645 -0.9864 0.9864 0.1645 -60.2196 205.0884)" width="4.5" height="5.8"/>
						</g>
					</g>
					<g>
						<g>
							<g>
								<path class="st5" d="M97.9,136.9c0,0-4.2-0.6-9.4-1.5c-5.2-0.9-9.4-1.6-9.3-1.6c0,0,4.2,0.6,9.4,1.5
									C93.7,136.2,97.9,136.9,97.9,136.9z"/>
							</g>
						</g>
					</g>
				</g>
				<g>
					<g>
						<g>
							<path class="st10" d="M79.4,138.3c1.8-0.3,3.8-0.5,5.5,0.1c1.1,0.4,2,1.1,3.1,1.3c1.3,0.2,2.7-0.4,4-0.3
								c1.2,0.1,2.3,0.7,3,1.7c-0.2,0.5-0.7,0.8-1.1,0.9s-1,0.1-1.5,0c-3-0.2-6-0.5-9-1c-0.9-0.2-1.8-0.3-2.6-0.8
								C80.2,139.9,79.5,139.2,79.4,138.3"/>
						</g>
					</g>
					<g>
						<g>
							<g>
								<path class="st5" d="M78.4,137.8c0,0,0.1-0.1,0.3-0.3c0.2-0.2,0.4-0.6,0.6-1c0.5-0.9,1.2-2.1,2.3-3.2c0.6-0.5,1.2-0.9,1.9-1
									c0.7-0.1,1.3,0,1.7,0.3c0.4,0.3,0.7,0.6,0.8,0.9c0.1,0.1,0.1,0.2,0.1,0.3c0,0.1,0,0.1,0,0.1c0,0,0-0.2-0.2-0.4
									c-0.1-0.2-0.4-0.6-0.8-0.8c-0.4-0.2-1-0.4-1.6-0.2c-0.6,0.1-1.3,0.5-1.8,1c-0.6,0.5-1,1.1-1.4,1.6c-0.4,0.5-0.7,1.1-0.9,1.5
									c-0.3,0.4-0.5,0.8-0.7,1C78.5,137.7,78.4,137.8,78.4,137.8z"/>
							</g>
						</g>
					</g>
					<g>
						<g>
							<g>
								<path class="st5" d="M97.2,141c0,0-0.3,0.1-0.8,0c-0.5-0.1-1.2-0.4-2.1-0.8c-0.4-0.2-0.9-0.4-1.4-0.6
									c-0.3-0.1-0.5-0.1-0.8-0.1c-0.3,0-0.6,0-0.9,0.1c-0.6,0.1-1.2,0.3-1.9,0.4c-0.3,0.1-0.7,0.1-1.1,0c-0.4,0-0.7-0.2-1-0.4
									c-0.6-0.3-1.2-0.8-1.8-1.1c-0.6-0.3-1.2-0.4-1.8-0.5c-1.2-0.1-2.3,0-3.3,0c-0.9,0-1.7-0.2-2.2-0.3c-0.3-0.1-0.4-0.2-0.6-0.2
									c-0.1-0.1-0.2-0.1-0.2-0.1c0,0,0.3,0.1,0.8,0.2c0.5,0.1,1.3,0.3,2.2,0.3c0.9,0,2.1-0.1,3.3,0c0.6,0.1,1.3,0.2,1.9,0.5
									c0.6,0.3,1.1,0.8,1.8,1.1c0.3,0.2,0.6,0.3,1,0.3c0.3,0,0.7,0,1,0c0.7-0.1,1.3-0.3,1.9-0.4c0.3,0,0.6-0.1,0.9-0.1
									c0.3,0,0.6,0.1,0.9,0.2c0.5,0.2,1,0.4,1.4,0.6c0.8,0.4,1.5,0.7,2,0.8C96.9,141,97.2,141,97.2,141z"/>
							</g>
						</g>
					</g>
				</g>
			</g>
			<g>
				<g>
					<g>
						<path class="st11" d="M100.7,46.9"/>
					</g>
				</g>
			</g>
			<g>
				<g>
					<g>
						<path class="st5" d="M104.1,27c0,0-0.2,0.1-0.4,0.3c-0.1,0.1-0.3,0.2-0.5,0.4c-0.2,0.2-0.4,0.3-0.7,0.5
							c-0.2,0.2-0.5,0.4-0.8,0.7c-0.3,0.2-0.6,0.5-0.9,0.8c-0.6,0.6-1.2,1.3-1.7,2.2c-0.5,0.8-0.9,1.6-1.3,2.4
							c-0.2,0.4-0.3,0.8-0.4,1.1c-0.1,0.4-0.2,0.7-0.3,1C97,36.7,97,37,96.9,37.3s-0.1,0.5-0.1,0.6c-0.1,0.4-0.1,0.5-0.1,0.5
							c0,0,0-0.2,0-0.6c0-0.2,0-0.4,0.1-0.7c0-0.3,0.1-0.5,0.2-0.9c0.1-0.3,0.2-0.7,0.3-1c0.1-0.4,0.2-0.7,0.4-1.1
							c0.3-0.8,0.7-1.6,1.3-2.5c0.5-0.8,1.1-1.5,1.7-2.2c0.3-0.3,0.6-0.6,0.9-0.8c0.3-0.3,0.6-0.5,0.8-0.7c0.2-0.2,0.5-0.4,0.7-0.5
							c0.2-0.2,0.4-0.3,0.5-0.4C103.9,27.1,104.1,27,104.1,27z"/>
					</g>
				</g>
			</g>
			<g>
				<g>
					<g>
						<path class="st6" d="M91.7,58.3c-2.2,0.9-4.6-0.2-5.5-2.3c-0.9-2.2,0.2-4.6,2.3-5.5s4.6,0.2,5.5,2.3
							C94.9,55,93.9,57.4,91.7,58.3z"/>
					</g>
				</g>
				<g class="st7">
					<g>
						<path d="M88.5,55.4L88,55.6l-0.2-0.5l0.5-0.2c-0.2-0.5-0.2-1-0.1-1.3l0.7,0c-0.1,0.3-0.1,0.7,0,1l0.8-0.3
							c-0.1-0.6-0.2-1.2,0.5-1.5c0.5-0.2,1.1,0,1.4,0.7l0.5-0.2l0.2,0.5L91.8,54c0.1,0.4,0.2,0.7,0.1,1.1l-0.7,0
							c0-0.3,0-0.6-0.1-0.8l-0.8,0.3c0.1,0.6,0.2,1.2-0.5,1.5C89.4,56.3,88.9,56.1,88.5,55.4z M90.3,54.1l0.7-0.3
							c-0.2-0.2-0.3-0.3-0.5-0.2C90.3,53.7,90.3,53.9,90.3,54.1z M89.5,55.4c0.2-0.1,0.2-0.2,0.2-0.5l-0.6,0.3
							C89.2,55.4,89.4,55.4,89.5,55.4z"/>
					</g>
				</g>
				<g class="st7">
					<g>
						<g>
							<g>
								<path d="M91.6,57.2c0,0,0.1-0.1,0.3-0.2c0.2-0.1,0.5-0.4,0.8-0.7c0.1-0.2,0.3-0.4,0.4-0.6c0.1-0.2,0.2-0.5,0.3-0.8
									c0-0.1,0-0.3,0.1-0.4c0-0.2,0-0.3,0-0.5c0-0.2,0-0.3-0.1-0.5c0-0.2-0.1-0.3-0.2-0.5c-0.1-0.2-0.1-0.3-0.2-0.4
									c-0.1-0.1-0.2-0.3-0.3-0.4c-0.1-0.1-0.2-0.2-0.3-0.3c-0.1-0.1-0.2-0.2-0.4-0.3c-0.2-0.2-0.5-0.3-0.8-0.3
									c-0.2-0.1-0.5-0.1-0.7-0.1c-0.4,0-0.8,0-1.1,0.1c-0.2,0.1-0.4,0.1-0.4,0.1c0,0,0.1-0.1,0.4-0.2s0.6-0.2,1.1-0.2
									c0.2,0,0.5,0,0.8,0.1c0.3,0.1,0.5,0.2,0.8,0.3c0.1,0.1,0.3,0.2,0.4,0.3c0.1,0.1,0.3,0.2,0.4,0.3c0.1,0.1,0.2,0.3,0.3,0.4
									c0.1,0.1,0.2,0.3,0.3,0.5c0.1,0.2,0.1,0.3,0.2,0.5c0,0.2,0.1,0.3,0.1,0.5c0,0.2,0,0.3,0,0.5c0,0.2,0,0.3-0.1,0.5
									c-0.1,0.3-0.2,0.6-0.3,0.8c-0.1,0.2-0.3,0.5-0.4,0.6c-0.3,0.4-0.6,0.6-0.9,0.7C91.8,57.2,91.7,57.2,91.6,57.2z"/>
							</g>
						</g>
					</g>
				</g>
				<g>
					<g>
						<g>
							<g>
								<path class="st5" d="M91.4,57.3c0,0,0.3-0.1,0.7-0.4c0.4-0.3,0.9-0.9,1.2-1.7c0.1-0.4,0.2-0.9,0.1-1.5
									c-0.1-0.5-0.3-1.1-0.8-1.5c-0.2-0.2-0.4-0.4-0.7-0.6c-0.3-0.2-0.6-0.3-0.9-0.4c-0.6-0.2-1.3-0.1-2,0.1
									c-0.6,0.3-1.2,0.7-1.5,1.3c-0.2,0.3-0.3,0.6-0.4,0.9C87,53.9,87,54.2,87,54.5c0,0.6,0.2,1.1,0.5,1.6c0.3,0.4,0.7,0.8,1.1,1
									c0.8,0.5,1.6,0.5,2.1,0.4C91.1,57.4,91.4,57.3,91.4,57.3c0,0-0.3,0.1-0.8,0.2c-0.5,0.1-1.3,0.1-2.1-0.4
									c-0.4-0.2-0.8-0.6-1.1-1c-0.3-0.5-0.5-1-0.5-1.7c0-0.3,0-0.6,0.1-0.9c0.1-0.3,0.2-0.6,0.4-0.9c0.4-0.6,0.9-1.1,1.6-1.3
									c0.7-0.3,1.4-0.3,2.1-0.1c0.3,0.1,0.6,0.2,0.9,0.4c0.3,0.2,0.5,0.4,0.7,0.6c0.4,0.5,0.7,1,0.8,1.6c0.1,0.5,0.1,1.1-0.1,1.5
									c-0.3,0.9-0.8,1.5-1.3,1.8C91.7,57.3,91.4,57.3,91.4,57.3z"/>
							</g>
						</g>
					</g>
				</g>
				<g>
					<g>
						<g>
							<path class="st8" d="M86.1,54.8c0,0-0.2-0.7,0.1-1.6c0.3-0.9,0.9-1.4,0.9-1.4c0,0-0.5,0.6-0.7,1.4
								C86.1,54.1,86.2,54.8,86.1,54.8z"/>
						</g>
					</g>
				</g>
				<g>
					<g>
						<g>
							<path class="st8" d="M86.2,55.5c0,0-0.1-0.1-0.1-0.2c0-0.1,0-0.2,0-0.2c0,0,0.1,0.1,0.1,0.2C86.3,55.4,86.3,55.5,86.2,55.5z"
								/>
						</g>
					</g>
				</g>
			</g>
			<g>
				<g>
					<path class="st10" d="M87.2,58.2c2.6,1.1,5.9,0.9,8.3-0.7l0,0c-1.2-1-2.8-1.8-4.4-1.6C89.6,56,88.1,56.9,87.2,58.2z"/>
				</g>
			</g>
			<g>
				<g>
					<path class="st10" d="M91.7,50.1c2.4,1.6,3.9,4.4,3.8,7.2l-0.1,0.2C94,57.1,92.7,56,92,54.7C91.3,53.3,91.2,51.6,91.7,50.1z"/>
				</g>
			</g>
			<g>
				<g>
					<g>
						<path class="st5" d="M102.2,63.4c0,0-0.1-0.1-0.2-0.4c-0.2-0.3-0.4-0.6-0.7-1.1c-0.3-0.4-0.8-0.9-1.3-1.4
							c-0.5-0.5-1.2-1-1.8-1.5c-1.3-1.1-2.6-1.9-3.6-2.3c-0.5-0.2-0.9-0.4-1.2-0.5C93,56,92.9,56,92.9,56c0,0,0.2,0,0.5,0.1
							c0.3,0.1,0.7,0.2,1.2,0.4c1,0.4,2.4,1.2,3.7,2.3c0.7,0.5,1.3,1,1.8,1.5c0.5,0.5,1,1,1.3,1.5c0.3,0.5,0.5,0.8,0.7,1.1
							C102.1,63.2,102.2,63.4,102.2,63.4z"/>
					</g>
				</g>
			</g>
			<g>
				<g>
					<g>
						<g>
							<path class="st6" d="M108.8,73.8c0.1-1.2,1.2-2.2,2.4-2.1c1.2,0.1,2.2,1.2,2.1,2.4c-0.1,1.2-1.2,2.2-2.4,2.1
								C109.6,76.1,108.7,75,108.8,73.8z"/>
						</g>
					</g>
					<g class="st7">
						<g>
							<path d="M110.9,72.9l0-0.3l0.3,0l0,0.3c0.3,0,0.5,0.1,0.7,0.3l-0.2,0.3c-0.1-0.1-0.3-0.2-0.5-0.2l0,0.4
								c0.3,0.1,0.6,0.2,0.6,0.6c0,0.3-0.2,0.5-0.7,0.5l0,0.3l-0.3,0l0-0.3c-0.2,0-0.4-0.1-0.5-0.2l0.2-0.3c0.1,0.1,0.3,0.1,0.4,0.2
								l0-0.5c-0.3-0.1-0.6-0.2-0.6-0.6C110.2,73.1,110.5,72.9,110.9,72.9z M111.1,74.1l0,0.4c0.1,0,0.2-0.1,0.2-0.2
								C111.3,74.2,111.2,74.1,111.1,74.1z M110.7,73.4c0,0.1,0.1,0.1,0.2,0.2l0-0.4C110.7,73.3,110.7,73.3,110.7,73.4z"/>
						</g>
					</g>
					<g class="st7">
						<g>
							<g>
								<g>
									<path d="M109.3,74c0,0,0,0.1,0,0.2c0,0.1,0.1,0.3,0.2,0.5c0,0.1,0.1,0.2,0.2,0.3c0.1,0.1,0.2,0.2,0.3,0.3
										c0.1,0,0.1,0.1,0.2,0.1c0.1,0,0.1,0.1,0.2,0.1c0.1,0,0.2,0.1,0.2,0.1c0.1,0,0.2,0,0.3,0c0.1,0,0.2,0,0.3,0
										c0.1,0,0.2,0,0.3,0c0.1,0,0.2,0,0.2-0.1c0.1,0,0.1-0.1,0.2-0.1c0.1-0.1,0.2-0.2,0.3-0.3c0.1-0.1,0.2-0.2,0.2-0.3
										c0.1-0.2,0.2-0.4,0.2-0.5s0-0.2,0-0.2c0,0,0,0.1,0,0.2c0,0.1-0.1,0.3-0.2,0.6c-0.1,0.1-0.1,0.2-0.2,0.3
										c-0.1,0.1-0.2,0.2-0.4,0.3c-0.1,0-0.1,0.1-0.2,0.1s-0.2,0.1-0.3,0.1c-0.1,0-0.2,0-0.3,0.1c-0.1,0-0.2,0-0.3,0
										c-0.1,0-0.2,0-0.3,0c-0.1,0-0.2,0-0.3-0.1c-0.1,0-0.2-0.1-0.2-0.1s-0.1-0.1-0.2-0.1c-0.1-0.1-0.2-0.2-0.3-0.3
										c-0.1-0.1-0.2-0.2-0.2-0.4c-0.1-0.2-0.1-0.4-0.1-0.6C109.3,74.1,109.3,74,109.3,74z"/>
								</g>
							</g>
						</g>
					</g>
					<g>
						<g>
							<g>
								<g>
									<path class="st5" d="M109.3,73.8c0,0,0,0.2,0,0.4c0,0.3,0.2,0.7,0.6,1c0.4,0.3,1,0.5,1.6,0.4c0.6-0.2,1.2-0.8,1.2-1.5
										c0.1-0.7-0.4-1.4-1-1.7c-0.6-0.3-1.2-0.1-1.6,0.1c-0.4,0.3-0.6,0.6-0.7,0.9C109.3,73.7,109.3,73.8,109.3,73.8
										c0,0,0-0.2,0.1-0.4c0.1-0.3,0.3-0.6,0.7-0.9c0.4-0.3,1.1-0.4,1.7-0.1c0.6,0.3,1.1,1,1,1.8c0,0.8-0.6,1.4-1.3,1.6
										c-0.6,0.2-1.3,0-1.6-0.4c-0.4-0.3-0.5-0.7-0.5-1C109.3,74,109.3,73.8,109.3,73.8z"/>
								</g>
							</g>
						</g>
					</g>
					<g>
						<g>
							<g>
								<path class="st8" d="M111.7,71.9c0,0,0.1,0,0.2,0.1c0.1,0.1,0.3,0.2,0.5,0.4c0.2,0.2,0.3,0.4,0.4,0.5
									c0.1,0.1,0.1,0.2,0.1,0.2c0,0-0.2-0.4-0.5-0.7C112.1,72.1,111.7,71.9,111.7,71.9z"/>
							</g>
						</g>
					</g>
					<g>
						<g>
							<g>
								<path class="st8" d="M111.4,71.8c0,0,0.1,0,0.1,0c0.1,0,0.1,0,0.1,0.1C111.6,71.9,111.5,71.9,111.4,71.8
									C111.4,71.8,111.4,71.8,111.4,71.8z"/>
							</g>
						</g>
					</g>
				</g>
				<g>
					<g>
						<path class="st10" d="M110.4,71.1c-1.5,0.9-2.5,2.6-2.5,4.3l0,0.2c0.9-0.2,1.8-0.9,2.2-1.7C110.6,73.1,110.7,72,110.4,71.1z"
							/>
					</g>
				</g>
				<g>
					<g>
						<path class="st10" d="M113,75.9c-1.6,0.8-3.5,0.7-5-0.3l-0.1-0.1c0.7-0.6,1.7-1,2.6-0.9C111.4,74.7,112.4,75.2,113,75.9z"/>
					</g>
				</g>
				<g>
					<g>
						<g>
							<path class="st5" d="M108.9,74.9c0,0-0.2,0.1-0.5,0.3c-0.2,0.1-0.3,0.2-0.5,0.4c-0.2,0.2-0.4,0.3-0.7,0.6
								c-0.3,0.2-0.5,0.4-0.8,0.7c-0.3,0.3-0.6,0.6-0.9,0.9c-0.6,0.7-1.2,1.4-1.7,2.2c-0.5,0.9-1,1.7-1.3,2.5
								c-0.2,0.4-0.3,0.8-0.4,1.2c-0.1,0.2-0.1,0.4-0.2,0.5c0,0.2-0.1,0.3-0.1,0.5c-0.1,0.3-0.1,0.6-0.2,0.9
								c-0.1,0.3-0.1,0.5-0.1,0.7c-0.1,0.4-0.1,0.6-0.1,0.6c0,0,0-0.2,0-0.6c0-0.2,0-0.4,0.1-0.7c0-0.3,0.1-0.6,0.2-0.9
								c0-0.2,0.1-0.3,0.1-0.5c0-0.2,0.1-0.4,0.2-0.5c0.1-0.4,0.3-0.8,0.4-1.2c0.3-0.8,0.8-1.7,1.3-2.5c0.6-0.9,1.2-1.6,1.7-2.3
								c0.3-0.3,0.6-0.6,0.9-0.9c0.3-0.3,0.6-0.5,0.8-0.7c0.3-0.2,0.5-0.4,0.7-0.5c0.2-0.2,0.4-0.3,0.6-0.4
								C108.7,75,108.9,74.9,108.9,74.9z"/>
						</g>
					</g>
				</g>
			</g>
			<g>
				<g>
					<g>
						<path class="st6" d="M96.6,25.5c-4.8,1.1-9.6-2-10.7-6.8c-1.1-4.8,2-9.6,6.8-10.7s9.6,2,10.7,6.8S101.5,24.4,96.6,25.5z"/>
					</g>
				</g>
				<g class="st7">
					<g>
						<path d="M90.9,18.4l-1.2,0.3l-0.2-1l1.1-0.3c-0.2-1-0.1-2.1,0.2-2.8l1.4,0.3C92,15.4,91.9,16.2,92,17l1.7-0.4
							c0-1.2,0.1-2.6,1.6-2.9c1.1-0.3,2.2,0.3,2.8,1.9l1.1-0.3l0.2,1l-1.1,0.3c0.1,0.8,0.1,1.6-0.1,2.2l-1.4-0.2
							C97,18,97,17.4,97,16.9l-1.8,0.4c0,1.2-0.1,2.6-1.5,2.9C92.6,20.5,91.5,19.9,90.9,18.4z M95.2,16.2l1.5-0.4
							c-0.3-0.5-0.6-0.7-0.9-0.6C95.4,15.4,95.2,15.7,95.2,16.2z M93.1,18.6c0.4-0.1,0.5-0.4,0.5-0.9L92.2,18
							C92.5,18.5,92.8,18.7,93.1,18.6z"/>
					</g>
				</g>
				<g class="st7">
					<g>
						<g>
							<g>
								<path d="M96.9,23.1c0,0,0.3-0.1,0.8-0.4c0.5-0.2,1.2-0.6,1.9-1.2c0.3-0.3,0.7-0.7,1-1.2c0.3-0.5,0.6-1,0.8-1.6
									c0.1-0.3,0.2-0.6,0.3-0.9c0.1-0.3,0.1-0.6,0.1-1c0-0.3,0-0.7,0-1c0-0.3-0.1-0.7-0.2-1c-0.1-0.3-0.2-0.7-0.3-1
									c-0.1-0.3-0.3-0.6-0.5-0.9c-0.2-0.3-0.4-0.5-0.6-0.8c-0.2-0.2-0.4-0.5-0.7-0.7c-0.5-0.4-1-0.7-1.5-1c-0.5-0.2-1-0.4-1.4-0.5
									c-0.9-0.2-1.7-0.2-2.2-0.2c-0.5,0-0.8,0.1-0.8,0.1c0,0,0.3-0.2,0.8-0.3c0.5-0.1,1.4-0.2,2.3,0c0.5,0.1,1,0.3,1.6,0.5
									c0.5,0.2,1.1,0.6,1.6,1c0.3,0.2,0.5,0.4,0.7,0.7c0.2,0.3,0.4,0.5,0.6,0.8c0.2,0.3,0.4,0.6,0.5,1s0.3,0.7,0.4,1.1
									c0.1,0.4,0.2,0.7,0.2,1.1c0,0.4,0,0.7,0,1.1c0,0.4-0.1,0.7-0.2,1.1c-0.1,0.3-0.2,0.7-0.3,1c-0.2,0.6-0.6,1.2-0.9,1.6
									c-0.4,0.5-0.7,0.9-1.1,1.2c-0.8,0.6-1.5,1-2,1.1C97.2,23.2,96.9,23.2,96.9,23.1z"/>
							</g>
						</g>
					</g>
				</g>
				<g>
					<g>
						<g>
							<g>
								<path class="st5" d="M96.3,23.3c0,0,0,0,0.1,0c0.1,0,0.2-0.1,0.3-0.1c0.1,0,0.3-0.1,0.5-0.2c0.2-0.1,0.4-0.2,0.7-0.3
									c0.5-0.2,1.1-0.6,1.6-1.1c0.6-0.5,1.1-1.2,1.5-2.1c0.4-0.9,0.7-1.9,0.6-3.1c-0.1-1.1-0.4-2.4-1.1-3.4
									c-0.2-0.3-0.4-0.5-0.6-0.8c-0.2-0.2-0.4-0.5-0.7-0.7c-0.5-0.4-1.1-0.8-1.7-1.1c-0.6-0.3-1.3-0.5-2-0.5
									c-0.7-0.1-1.4,0-2.2,0.1c-0.7,0.2-1.4,0.4-2,0.8c-0.6,0.4-1.2,0.8-1.6,1.3c-0.5,0.5-0.8,1.1-1.1,1.7
									c-0.2,0.3-0.2,0.6-0.4,0.9c-0.1,0.3-0.2,0.6-0.2,0.9c-0.2,1.3,0,2.5,0.5,3.6c0.4,1.1,1.1,1.9,1.9,2.5c0.7,0.6,1.5,1,2.3,1.3
									c0.7,0.2,1.4,0.3,1.9,0.3c0.3,0,0.5,0,0.7,0c0.2,0,0.4,0,0.5-0.1c0.1,0,0.2,0,0.3,0C96.3,23.3,96.3,23.3,96.3,23.3
									s0,0-0.1,0c-0.1,0-0.2,0-0.3,0.1c-0.1,0-0.3,0.1-0.5,0.1c-0.2,0-0.5,0-0.7,0c-0.5,0-1.2-0.1-2-0.3c-0.7-0.2-1.6-0.6-2.3-1.2
									c-0.8-0.6-1.5-1.5-1.9-2.5c-0.4-1.1-0.7-2.3-0.5-3.6c0-0.3,0.1-0.6,0.2-1c0.1-0.3,0.2-0.6,0.4-1c0.3-0.6,0.7-1.2,1.1-1.8
									c0.5-0.5,1-1,1.7-1.4c0.6-0.4,1.3-0.6,2.1-0.8c0.7-0.2,1.5-0.2,2.2-0.1c0.7,0.1,1.4,0.3,2.1,0.5c0.7,0.3,1.3,0.7,1.8,1.1
									c0.3,0.2,0.5,0.5,0.7,0.7c0.2,0.3,0.4,0.5,0.6,0.8c0.7,1.1,1,2.3,1.1,3.5c0,1.2-0.3,2.2-0.7,3.1c-0.4,0.9-1,1.6-1.6,2.1
									c-0.6,0.5-1.2,0.9-1.7,1.1c-0.2,0.1-0.5,0.2-0.7,0.3c-0.2,0.1-0.4,0.1-0.5,0.2c-0.1,0-0.2,0.1-0.3,0.1
									C96.3,23.3,96.3,23.3,96.3,23.3z"/>
							</g>
						</g>
					</g>
				</g>
				<g>
					<g>
						<g>
							<path class="st8" d="M86.2,16.2c0,0,0-0.1,0-0.3c0-0.2,0-0.4,0.1-0.7c0.1-0.6,0.3-1.5,0.7-2.4c0.4-0.9,1-1.6,1.4-2
								c0.2-0.2,0.4-0.4,0.6-0.5c0.1-0.1,0.2-0.2,0.2-0.2c0,0-0.3,0.3-0.7,0.7c-0.4,0.5-1,1.2-1.4,2c-0.4,0.9-0.7,1.7-0.8,2.3
								C86.2,15.8,86.2,16.2,86.2,16.2z"/>
						</g>
					</g>
				</g>
				<g>
					<g>
						<g>
							<path class="st8" d="M86.1,17.8c0,0-0.1-0.2-0.1-0.4s0-0.4,0.1-0.4c0,0,0.1,0.2,0.1,0.4S86.2,17.8,86.1,17.8z"/>
						</g>
					</g>
				</g>
			</g>
		</g>
	</g>
	<g id="Character">
		<g>
			<g>
				<g>
					<path class="st5" d="M157.5,42.2c-0.3-0.7-0.8-1.3-0.9-2.1c-0.2-0.8,0.1-1.8-0.4-2.5c-0.5-0.9-1.7-1.1-2.6-1.6
						c-1.4-0.9-1-5.4-4.4-6.9l-1.2,6.8c0,4.5-0.1,8.9-0.3,13.4c2.2,0.2,4.4,0.3,6.7,0.2c0.6,0,1.2,0,1.7-0.3c1-0.4,1.6-1.5,1.9-2.6
						C158.3,45.1,158.2,43.5,157.5,42.2z"/>
				</g>
			</g>
			<g>
				<g>
					<path class="st12" d="M149.9,40l-4,8.8l-1-5.8l-0.7,1.2c0,0-1.2,7.9-0.9,9.3c0.4,1.8,1.8,3.3,1.8,3.3l1.4,6.8
						c0.1,0.7,0.8,1.2,1.1,1.1l10-4.9c0.6-0.4,0.6-0.9,0.2-1.6l-0.6-1.3l-0.2-8.2c0-0.5-0.2-4.5-0.5-6c-0.2-0.9-0.9-2.2-2.3-2.7
						C153.3,39.8,150.9,39.4,149.9,40z"/>
				</g>
			</g>
			<g>
				<g>
					<path class="st5" d="M147.8,34.8l-9.4-5.9c-1.2,3-0.2,6.6,0.2,7.6c0.4,1,0.9,2,0.7,3c-0.1,0.7-0.6,1.4-0.9,2.1
						c-0.4,1-0.4,2.2,0.1,3.2c0.3,0.7,0.8,1.3,0.8,2c0,0.8-0.7,1.4-0.8,2.2c-0.1,0.8,0.4,1.6,1,2.2c0.4,0.4,0.9,0.8,1.5,0.9
						c0.7,0,1.2-0.4,1.7-0.9c1-1.1,1.4-2.6,1.7-4c0.2-1.5,0.3-2.9,0.8-4.4c0.4-1.4,1.2-2.6,1.8-3.9
						C147.5,37.7,147.9,36.2,147.8,34.8z"/>
				</g>
			</g>
			<g>
				<g>
					<g>
						<g>
							<g>
								<polygon class="st13" points="173.7,86.4 180.5,78.9 177.4,75.8 169.4,82.6 								"/>
							</g>
						</g>
					</g>
				</g>
				<g>
					<g>
						<g>
							<g>
								<g>
									<g>
										<g>
											<path class="st6" d="M179.6,79.9l0.2-0.2c0,0,4.9,2.1,5.6,1.5l-6.9-7l-2.2,2.4C177.8,77.2,178.9,78.2,179.6,79.9z"/>
										</g>
									</g>
								</g>
							</g>
						</g>
					</g>
				</g>
				<g class="st14">
					<g>
						<g>
							<g>
								<g>
									<g>
										<g>
											<g>
												<path class="st8" d="M177.7,76.6c-0.1-0.2,0-0.4,0.1-0.5c0.2-0.1,0.4,0,0.5,0.1s0,0.5-0.1,0.5S177.8,76.8,177.7,76.6"/>
											</g>
										</g>
									</g>
								</g>
							</g>
						</g>
					</g>
				</g>
				<g class="st14">
					<g>
						<g>
							<g>
								<g>
									<g>
										<g>
											<path class="st8" d="M178.5,74.3l-0.5,0.6l6.8,6.5c0,0,0.4,0.2,0.6-0.1L178.5,74.3z"/>
										</g>
									</g>
								</g>
							</g>
						</g>
					</g>
				</g>
				<g>
					<g>
						<g>
							<g>
								<g>
									<g>
										<g>
											<g>
												<path class="st5" d="M179.9,79.7c0,0-0.1-0.2-0.2-0.5c-0.1-0.3,0-0.5,0-0.5c0,0-0.2,0.2-0.1,0.6
													C179.6,79.6,179.8,79.8,179.9,79.7z"/>
											</g>
										</g>
									</g>
								</g>
							</g>
						</g>
					</g>
				</g>
				<g>
					<g>
						<g>
							<g>
								<g>
									<g>
										<g>
											<g>
												<path class="st5" d="M180.9,80.2c0,0,0-0.2,0-0.5c0-0.3,0.1-0.4,0.1-0.5c0,0-0.2,0.1-0.3,0.5S180.8,80.2,180.9,80.2z"/>
											</g>
										</g>
									</g>
								</g>
							</g>
						</g>
					</g>
				</g>
				<g>
					<g>
						<g>
							<g>
								<g>
									<g>
										<g>
											<g>
												<path class="st5" d="M182.2,79.7c0,0-0.2,0.1-0.3,0.4c-0.1,0.3,0,0.5,0,0.5c0,0,0-0.2,0.1-0.4
													C182.1,79.9,182.2,79.7,182.2,79.7z"/>
											</g>
										</g>
									</g>
								</g>
							</g>
						</g>
					</g>
				</g>
			</g>
			<g>
				<g>
					<g>
						<g>
							<g>
								<path class="st5" d="M152.2,44.2c0,0-0.1-0.3-0.1-0.7c-0.1-0.4-0.1-1.1,0.1-1.7c0.1-0.7,0.4-1.2,0.7-1.5
									c0.3-0.3,0.6-0.3,0.6-0.3c0,0-0.1,0-0.2,0c-0.1,0-0.3,0.1-0.5,0.2c-0.4,0.3-0.7,0.9-0.8,1.5c-0.1,0.7-0.1,1.3,0,1.8
									C152.1,44,152.2,44.2,152.2,44.2z"/>
							</g>
						</g>
					</g>
				</g>
			</g>
			<g>
				<g>
					<g>
						<g>
							<g>
								<polygon class="st13" points="153.8,109 154.9,119.2 159.3,119 159.6,108.3 								"/>
							</g>
						</g>
					</g>
				</g>
				<g>
					<g>
						<g>
							<g>
								<g>
									<g>
										<g>
											<path class="st6" d="M154.7,117.9l0,0.3c0,0-4.9,2.2-5,3.2l10-0.4l-0.3-3.3C158,118.3,156.4,118.5,154.7,117.9z"/>
										</g>
									</g>
								</g>
							</g>
						</g>
					</g>
				</g>
				<g>
					<g>
						<g>
							<g>
								<g>
									<g>
										<g>
											<g>
												<path class="st5" d="M153.2,119.8c0,0,0.1-0.2,0-0.4c-0.1-0.2-0.3-0.3-0.3-0.3c0,0,0.1,0.2,0.2,0.3
													C153.1,119.6,153.1,119.8,153.2,119.8z"/>
											</g>
										</g>
									</g>
								</g>
							</g>
						</g>
					</g>
				</g>
				<g class="st14">
					<g>
						<g>
							<g>
								<g>
									<g>
										<g>
											<g>
												<path class="st8" d="M158.5,118.7c0.2,0,0.3,0.3,0.3,0.5c0,0.2-0.3,0.3-0.4,0.3c-0.2,0-0.4-0.3-0.3-0.5
													C158.1,118.8,158.3,118.6,158.5,118.7"/>
											</g>
										</g>
									</g>
								</g>
							</g>
						</g>
					</g>
				</g>
				<g class="st14">
					<g>
						<g>
							<g>
								<g>
									<g>
										<g>
											<path class="st8" d="M159.7,120.9l-0.1-0.8l-9.5,0.7c0,0-0.4,0.2-0.4,0.5L159.7,120.9z"/>
										</g>
									</g>
								</g>
							</g>
						</g>
					</g>
				</g>
				<g>
					<g>
						<g>
							<g>
								<g>
									<g>
										<g>
											<g>
												<path class="st5" d="M154.7,118.2c0,0,0.2,0.1,0.5,0.2c0.3,0.1,0.4,0.3,0.4,0.3c0,0,0-0.3-0.3-0.5
													C155,118.1,154.7,118.1,154.7,118.2z"/>
											</g>
										</g>
									</g>
								</g>
							</g>
						</g>
					</g>
				</g>
				<g>
					<g>
						<g>
							<g>
								<g>
									<g>
										<g>
											<g>
												<path class="st5" d="M153.7,118.7c0,0,0.2,0.1,0.4,0.3c0.2,0.2,0.2,0.4,0.3,0.4c0,0,0.1-0.3-0.2-0.5
													C153.9,118.6,153.7,118.6,153.7,118.7z"/>
											</g>
										</g>
									</g>
								</g>
							</g>
						</g>
					</g>
				</g>
			</g>
			<g>
				<g>
					<g>
						<path class="st15" d="M173.7,78.9l-7.3,5.5c0,0-2.4-7.2-3-11.4c0,0,0.9-3.7-0.5-6.3c-1.8-3-3.7-4.3-3.7-4.3l-1.7-2.5l-10,4.9
							l2.5,7.9l0.4,23.3l4,19.7l5.3,0c0,0,0.5-11.5-0.9-15.7c-1.4-4.3-1-6.4-1-6.4l1-9.9c3.3,12.6,8.4,9.5,10.1,8.3
							c2.7-1.9,8.6-9.4,8.6-9.4L173.7,78.9z"/>
					</g>
				</g>
				<g>
					<g>
						<g>
							<g>
								<path class="st10" d="M149.2,64c0,0,0.1,0.1,0.2,0.2c0.1,0.1,0.2,0.1,0.3,0.2c0.1,0.1,0.2,0.2,0.4,0.3
									c0.2,0.1,0.3,0.2,0.5,0.3c0.2,0.1,0.4,0.2,0.6,0.3c0.4,0.2,1,0.3,1.5,0.4c0.5,0.1,1.1,0.1,1.6,0c0.2,0,0.5-0.1,0.7-0.1
									c0.2,0,0.4-0.1,0.6-0.1c0.2,0,0.3-0.1,0.5-0.2c0.1,0,0.2-0.1,0.3-0.1c0.2-0.1,0.3-0.1,0.3-0.2c0,0-0.4,0.2-1.1,0.4
									c-0.2,0-0.4,0.1-0.6,0.1c-0.2,0-0.4,0.1-0.7,0.1c-0.5,0-1,0-1.5,0c-0.5-0.1-1-0.2-1.5-0.4c-0.2-0.1-0.4-0.2-0.6-0.3
									c-0.2-0.1-0.4-0.2-0.5-0.3C149.6,64.3,149.3,64,149.2,64z"/>
							</g>
						</g>
					</g>
				</g>
			</g>
			<g>
				<g>
					<g>
						<g>
							<g>
								<g>
									<path class="st5" d="M149.9,30c-1-1.6-2.2-3.1-4-3.7c-1.6-0.5-3.5-0.3-5.1,0.3c-0.8,0.3-1.5,1-2,1.6
										c-0.7,0.8-0.7,2-0.8,3.1c-0.2,2.2,0.8,4.8,1.7,5.3l9.5,1.3c1.1-1.2,2.3-2.8,2.1-4.5C151.2,32.4,150.5,31,149.9,30z"/>
								</g>
							</g>
						</g>
						<g>
							<g>
								<g>
									<g>
										<g>
											<path class="st13" d="M145.8,28l-5.6,0.3c-1.7,0.3-2.2,2.7-1.7,4.4c0.5,1.9,1.1,4.1,1.8,5.4c1.3,2.6,3.5,2.3,3.5,2.3
												c0,0,0,0,0.3,0.9l0.7,2.1l0.9,6.3l4.2-9L147,28.7C146.8,28.2,146.3,27.9,145.8,28z"/>
										</g>
									</g>
								</g>
							</g>
							<g>
								<g>
									<g>
										<g>
											<path class="st5" d="M139.6,34.6c0.1,0.2,0.3,0.3,0.5,0.2c0.2,0,0.3-0.2,0.3-0.4c-0.1-0.2-0.3-0.3-0.5-0.3
												C139.7,34.2,139.6,34.4,139.6,34.6z"/>
										</g>
									</g>
								</g>
							</g>
							<g>
								<g>
									<g>
										<g>
											<path class="st5" d="M139.3,33.7c0.1,0,0.3-0.3,0.6-0.4c0.4-0.1,0.7,0,0.7-0.1c0,0-0.1-0.1-0.2-0.1c-0.1,0-0.4-0.1-0.6,0
												c-0.2,0.1-0.4,0.2-0.5,0.4C139.3,33.6,139.3,33.7,139.3,33.7z"/>
										</g>
									</g>
								</g>
							</g>
							<g>
								<g>
									<g>
										<g>
											<path class="st5" d="M143.3,33.5c0.1,0.2,0.3,0.3,0.5,0.2c0.2,0,0.3-0.2,0.3-0.4s-0.3-0.3-0.5-0.3
												C143.4,33.1,143.3,33.3,143.3,33.5z"/>
										</g>
									</g>
								</g>
							</g>
							<g>
								<g>
									<g>
										<g>
											<path class="st5" d="M143.1,32.6c0.1,0,0.3-0.3,0.6-0.4c0.4-0.1,0.7,0,0.7-0.1c0,0-0.1-0.1-0.2-0.1c-0.1,0-0.4-0.1-0.6,0
												c-0.2,0.1-0.4,0.2-0.5,0.4C143.1,32.5,143.1,32.6,143.1,32.6z"/>
										</g>
									</g>
								</g>
							</g>
							<g>
								<g>
									<g>
										<g>
											<path class="st5" d="M142.6,35.9c0,0-0.3,0-0.7,0.1c-0.1,0-0.2,0-0.2,0c0-0.1,0-0.2,0-0.3c0-0.3,0-0.5,0.1-0.8
												c0.1-1.2,0.1-2.1,0-2.1c0,0-0.1,1-0.2,2.1c0,0.3,0,0.6,0,0.8c0,0.1,0,0.3,0.1,0.4c0,0.1,0.1,0.1,0.2,0.1
												c0.1,0,0.1,0,0.2,0C142.4,35.9,142.6,35.9,142.6,35.9z"/>
										</g>
									</g>
								</g>
							</g>
							<g>
								<g>
									<g>
										<g>
											<path class="st16" d="M143.8,40.4c0,0,1.9-0.5,3.4-2.2c0,0-0.3,2.2-3.1,2.8L143.8,40.4z"/>
										</g>
									</g>
								</g>
							</g>
							<g>
								<g>
									<g>
										<path class="st16" d="M144.1,36.2c-0.2-0.1-0.4-0.2-0.6-0.1c-0.3,0.1-0.5,0.3-0.6,0.6c0,0.1,0,0.3,0.1,0.4
											c0,0.1,0,0,0.1,0.1c0.2,0.1,0.4,0.2,0.7,0.2c0.2,0,0.5-0.2,0.6-0.4C144.3,36.6,144.3,36.3,144.1,36.2z"/>
									</g>
								</g>
							</g>
							<g>
								<g>
									<g>
										<g>
											<path class="st5" d="M143.8,35.8c-0.1,0,0.1,0.4-0.2,0.8c-0.3,0.4-0.7,0.5-0.7,0.6c0,0,0.1,0,0.3,0
												c0.2-0.1,0.4-0.2,0.6-0.4c0.2-0.2,0.2-0.5,0.1-0.7C143.9,35.8,143.8,35.8,143.8,35.8z"/>
										</g>
									</g>
								</g>
							</g>
							<g>
								<g>
									<g>
										<g>
											<path class="st5" d="M142.7,31.8c0.1,0.1,0.4-0.1,0.9-0.2c0.5-0.1,0.9-0.1,0.9-0.2c0-0.1-0.1-0.1-0.3-0.2
												c-0.2-0.1-0.4-0.1-0.7,0c-0.3,0.1-0.5,0.2-0.7,0.3C142.7,31.6,142.6,31.7,142.7,31.8z"/>
										</g>
									</g>
								</g>
							</g>
							<g>
								<g>
									<g>
										<g>
											<path class="st5" d="M139.1,32.3c0.1,0.1,0.3-0.1,0.6-0.2c0.3-0.1,0.6-0.1,0.6-0.2c0-0.1-0.1-0.1-0.2-0.2
												c-0.1,0-0.4-0.1-0.6,0s-0.4,0.2-0.5,0.3C139,32.2,139,32.3,139.1,32.3z"/>
										</g>
									</g>
								</g>
							</g>
							<g>
								<g>
									<g>
										<g>
											<path class="st13" d="M147.3,32.3c0,0,1.4-1,1.9,0.6c0.5,1.5-1.2,1.7-1.2,1.7C148,34.4,147.3,32.3,147.3,32.3z"/>
										</g>
									</g>
								</g>
							</g>
							<g>
								<g>
									<g>
										<g>
											<path class="st16" d="M148.3,33.7C148.3,33.7,148.3,33.8,148.3,33.7c0.1,0,0.2,0,0.3,0c0.1-0.1,0.2-0.4,0.1-0.7
												c0-0.1-0.1-0.3-0.2-0.4c-0.1-0.1-0.2-0.2-0.3-0.1c-0.1,0-0.1,0.1-0.1,0.1c0,0,0,0.1,0,0.1c0,0,0,0,0-0.1c0,0,0-0.1,0-0.1
												c0,0,0.1-0.1,0.1-0.1c0.1,0,0.3,0,0.4,0.2c0.1,0.1,0.2,0.2,0.2,0.4c0.1,0.3,0,0.7-0.2,0.8
												C148.5,33.8,148.4,33.8,148.3,33.7C148.3,33.8,148.3,33.7,148.3,33.7z"/>
										</g>
									</g>
								</g>
							</g>
						</g>
						<g>
							<g>
								<path class="st5" d="M139.1,28.3c-0.6,0.6-1,1.5-1.1,2.4c-0.1,0.9,0,1.8,0.3,2.6l0.2-0.2c0.1-0.5,0.4-1,0.7-1.3
									c0.3-0.4,0.8-0.7,1.1-1.1c0.8-0.9,1.2-2.1,1.2-3.2C140.7,27.3,139.7,27.7,139.1,28.3z"/>
							</g>
						</g>
						<g>
							<g>
								<g>
									<g>
										<path class="st5" d="M146.1,27.4c-1.5-0.7-3.8-0.6-5.1,0.4c0.6,1.2,2.1,2.4,3.3,3.1c1.2,0.7,2.3,2.3,4,1.1
											c0.1-0.1,0.3,0,0.4-0.1c0.1-0.1,0.1-0.2,0.1-0.3C148.7,29.8,147.6,28.1,146.1,27.4z"/>
									</g>
								</g>
							</g>
						</g>
					</g>
				</g>
			</g>
			<g>
				<g>
					<g>
						<g>
							<path class="st8" d="M144.2,51.2c0,0-1.1,0.3-2.4,0.5c-1.3,0.2-2.4,0.4-2.5,0.3c0,0,1.1-0.3,2.4-0.5
								C143.1,51.3,144.2,51.2,144.2,51.2z"/>
						</g>
					</g>
				</g>
			</g>
			<g>
				<g>
					<g>
						<path class="st5" d="M150.9,40.9c0,0-2.1,2.5-4.7,5.4c-2.6,3-4.8,5.3-4.8,5.3c0,0,2.1-2.5,4.7-5.4
							C148.7,43.2,150.8,40.8,150.9,40.9z"/>
					</g>
				</g>
			</g>
			<g>
				<g>
					<g>
						<path class="st10" d="M163.6,69.9c0,0,0,0.1,0,0.2c0,0.1,0,0.2,0,0.4c0,0.4,0,0.9-0.2,1.6c-0.3,1.3-1,3.1-2.1,4.9
							c-0.3,0.4-0.6,0.8-0.9,1.2s-0.5,0.8-0.7,1.2c-0.4,0.8-0.6,1.6-0.7,2.2c-0.1,0.7-0.2,1.2-0.3,1.6c-0.1,0.4-0.1,0.6-0.1,0.6
							s0-0.2,0-0.6c0-0.4,0.1-0.9,0.2-1.6c0.1-0.7,0.3-1.5,0.7-2.3c0.2-0.4,0.4-0.8,0.7-1.2c0.3-0.4,0.6-0.8,0.8-1.2
							c1.1-1.7,1.8-3.5,2.1-4.8c0.2-0.7,0.2-1.2,0.2-1.6C163.6,70.1,163.6,69.9,163.6,69.9z"/>
					</g>
				</g>
			</g>
			<g>
				<g>
					<g>
						<g>
							<g>
								<polygon class="st12" points="145.3,48.9 131.6,70.1 135.3,72.1 152.8,49.5 								"/>
							</g>
						</g>
					</g>
				</g>
				<g>
					<g>
						<g>
							<g>
								<g>
									<path class="st5" d="M143.9,44.9c0,0,0,0,0,0.1c0,0.1-0.1,0.2-0.1,0.4c-0.1,0.3-0.2,0.8-0.3,1.3c-0.3,1.1-0.6,2.7-0.6,4.4
										c0,1.8,0.5,3.3,1.1,4.3c0.3,0.5,0.6,0.9,0.8,1.1c0.1,0.1,0.2,0.2,0.3,0.3c0.1,0.1,0.1,0.1,0.1,0.1c0,0-0.1-0.1-0.3-0.4
										c-0.2-0.2-0.5-0.6-0.8-1.1c-0.6-1-1-2.5-1-4.3c0-1.7,0.3-3.3,0.6-4.4c0.1-0.5,0.2-1,0.3-1.3c0-0.1,0.1-0.3,0.1-0.4
										C143.9,44.9,143.9,44.9,143.9,44.9z"/>
								</g>
							</g>
						</g>
					</g>
					<g>
						<g>
							<g>
								<g>
									<path class="st5" d="M146,52.8c0,0,0,0.1,0.1,0.2c0,0.1,0.1,0.1,0.2,0.2c0.1,0.1,0.1,0.2,0.2,0.3c0.2,0.2,0.4,0.4,0.7,0.6
										c0.3,0.2,0.6,0.4,1,0.5c0.4,0.1,0.7,0.2,1.1,0.2c0.3,0,0.6,0,0.9,0c0.3,0,0.5-0.1,0.6-0.1c0.1,0,0.2-0.1,0.2-0.1
										c0,0-0.3,0.1-0.8,0.1c-0.2,0-0.5,0-0.9,0c-0.3,0-0.7-0.1-1-0.2c-0.4-0.1-0.7-0.3-1-0.5c-0.3-0.2-0.5-0.4-0.7-0.5
										C146.2,53.1,146,52.8,146,52.8z"/>
								</g>
							</g>
						</g>
					</g>
				</g>
				<g>
					<g>
						<path class="st12" d="M128,59.1c1.5-0.3,15.1-2.2,15.1-2.2s0.6-0.2,1.2-0.7c3.1-2.3,11.6-9.1,12.1-10.8c0.6-2-0.1-4.1-1.6-5
							c-1.2-0.7-2.4-1.1-5,1.9c-2.6,3-8.4,9.4-8.4,9.4l-13.5,3.3L128,59.1z"/>
					</g>
				</g>
				<g>
					<g>
						<g>
							<path class="st5" d="M147.4,64.7c0,0,0,0-0.1,0c-0.1,0-0.2,0-0.4,0c-0.3-0.1-0.6-0.6-0.6-1.1v0c-0.2-0.7-0.3-1.6-0.5-2.5
								c-0.2-1.2-0.5-2.2-0.6-3c-0.1-0.4-0.1-0.7-0.2-0.9c0-0.2,0-0.3,0-0.3s0,0.1,0.1,0.3c0.1,0.2,0.1,0.5,0.2,0.9
								c0.2,0.8,0.4,1.8,0.7,3c0.2,1,0.4,1.8,0.5,2.5v0v0c0.1,0.5,0.3,0.9,0.5,1.1C147.2,64.7,147.4,64.7,147.4,64.7z"/>
						</g>
					</g>
				</g>
			</g>
			<g>
				<g>
					<g>
						<path class="st10" d="M166.3,88.6c0,0-0.1-0.2-0.1-0.5c0-0.3,0-0.8,0-1.3c0.1-1,0.5-1.8,0.5-1.8c0,0-0.2,0.8-0.3,1.8
							c-0.1,0.5-0.1,0.9-0.1,1.3C166.3,88.4,166.3,88.6,166.3,88.6z"/>
					</g>
				</g>
			</g>
			<g>
				<g>
					<path class="st5" d="M148.4,34.4c-0.3,0.4-0.2,0.6-0.1,1.1c0.2,0.5,0.4,1.1,0.4,1.6c-0.1,0.9-0.8,1.6-0.8,2.5
						c0,0.6,0.4,1.2,0.4,1.9c0,0.7-0.7,1.3-1.2,1.9c-0.5,0.6-1.3,2.2-0.9,2.8c1.3-1.4,3.1-3.1,4.3-4.5c1.1-1.4,2-3.1,1.7-4.9
						L148.4,34.4z"/>
				</g>
			</g>
			<g>
				<g>
					<g>
						<path class="st10" d="M156.2,41.6c0,0,0-0.1,0-0.4c0-0.3,0-0.6-0.1-1.1c-0.1-0.2-0.2-0.4-0.3-0.7c-0.1-0.2-0.4-0.4-0.6-0.6
							c-0.5-0.3-1.1-0.5-1.8-0.7c-0.7-0.2-1.4-0.4-1.9-0.8c-0.5-0.4-0.8-0.9-0.9-1.4c-0.1-0.5-0.2-0.8-0.2-1.1c0-0.3,0-0.4,0-0.4
							c0,0,0,0.1,0,0.4c0,0.3,0.1,0.6,0.2,1.1c0.1,0.4,0.4,0.9,0.9,1.3c0.5,0.4,1.1,0.5,1.8,0.7c0.7,0.2,1.3,0.4,1.9,0.8
							c0.3,0.2,0.5,0.4,0.6,0.6c0.2,0.2,0.2,0.5,0.3,0.7c0.1,0.5,0.1,0.9,0,1.1C156.3,41.5,156.2,41.6,156.2,41.6z"/>
					</g>
				</g>
			</g>
			<g>
				<g>
					<g>
						<path class="st10" d="M150.2,29.8c0,0-0.1-0.1-0.3-0.2s-0.6-0.2-1-0.3c-0.4-0.1-0.9-0.2-1.5-0.3c-0.6-0.1-1.2-0.1-1.9-0.2
							c-1.3-0.3-2.5-0.8-3.2-1.3c-0.4-0.2-0.6-0.5-0.8-0.6c-0.2-0.2-0.3-0.3-0.3-0.3c0,0,0.4,0.3,1.2,0.8c0.7,0.5,1.9,1,3.2,1.2
							c0.7,0.1,1.3,0.1,1.9,0.2c0.6,0.1,1.1,0.2,1.5,0.3c0.4,0.1,0.8,0.3,1,0.4C150,29.7,150.1,29.7,150.2,29.8
							C150.2,29.8,150.2,29.8,150.2,29.8z"/>
					</g>
				</g>
			</g>
			<g>
				<g>
					<g>
						<g>
							<path class="st3" d="M116.8,68.1c-0.3-0.2-0.6-0.3-0.9-0.4c-0.5-0.2-1.1-0.5-1.5-0.8l0,0.2c0.2,1,0.8,1.9,1.6,2.5
								c0.2,0.1,0.4,0.3,0.7,0.3s0.5,0,0.7-0.1c0.3-0.2,0.3-0.6,0.2-0.9C117.3,68.5,117.1,68.2,116.8,68.1z"/>
						</g>
					</g>
				</g>
				<g>
					<g>
						<g>
							<path class="st6" d="M119.9,56.7c0,0,4-3.5,5.9,0.1c0,0,0.6,0.7-0.3,2.6c-0.8,2-2.5,5.4-2.5,5.4l-0.5-1.2
								c0,0,2.3-4.2,2.5-5.1c0.3-0.9,0.2-1.6,0-2c-0.2-0.5-0.8-1.2-2-0.8c-2.4,0.8-2.5,2.1-2.5,2.1L119.9,56.7z"/>
						</g>
					</g>
					<g>
						<g>
							<path class="st6" d="M124.8,68.8c0,0-3.8,3.7-9.2,2.8L113,58.9l6.8-2.4L124.8,68.8z"/>
						</g>
					</g>
					<g>
						<g>
							<path class="st6" d="M115.9,69.8l-7.1-3.7c0,0-0.7,0.7-1.4,0.8l1.7-3.5c0,0,0.3,0.9,0.1,1.6l5.9,2.5L115.9,69.8z"/>
						</g>
					</g>
					<g>
						<g>
							<g>
								<path class="st13" d="M127.8,55.7l-2.7-1.1l-3-0.2c0,0-0.2,0.7,0.8,0.8l1.3,0.2l0.2,0.6c0,0,1.3,1.9,2.9,1.7L127.8,55.7z"/>
							</g>
						</g>
						<g>
							<g>
								<path class="st13" d="M127.8,55.4l-2.2-0.1l-1.4,0c-0.5,0.1-0.9,0.5-1.6,0.7c-0.2,0.1-0.4,0.1-0.6,0.3
									c-0.2,0.1-0.3,0.3-0.3,0.5c0,0.2,0.3,0.4,0.4,0.3c-0.1,0.4,0.2,0.8,0.6,0.9c-0.2,0.2,0,0.6,0.2,0.6c0.1,0,0.2,0,0.2,0
									c0.1,0.1,0.1,0.2,0.1,0.3c0.1,0.3,0.4,0.3,0.7,0.3c0.3-0.1,0.5-0.2,0.8-0.1c0.3,0,0.5,0.3,0.8,0.3c0.4,0.1,0.8-0.2,1.1-0.4
									c0.3-0.3,0.8-0.6,1.1-0.7L127.8,55.4z"/>
							</g>
						</g>
					</g>
				</g>
				<g>
					<g>
						<g>
							<path class="st5" d="M115.6,71.6c0,0-0.1-0.2-0.1-0.5c-0.1-0.4-0.2-0.8-0.3-1.4c-0.3-1.1-0.6-2.7-0.9-4.5
								c-0.4-1.8-0.7-3.3-0.9-4.5c-0.1-0.6-0.2-1-0.3-1.4c-0.1-0.3-0.1-0.5-0.1-0.5c0,0,0.1,0.2,0.1,0.5c0.1,0.4,0.2,0.8,0.3,1.4
								c0.3,1.1,0.6,2.7,0.9,4.5c0.4,1.8,0.7,3.3,0.9,4.5c0.1,0.6,0.2,1,0.3,1.4C115.6,71.4,115.6,71.6,115.6,71.6z"/>
						</g>
					</g>
				</g>
				<g>
					<g>
						<g>
							<path class="st5" d="M124.8,68.8c0,0-1.2-2.7-2.5-6.2c-1.4-3.4-2.4-6.2-2.4-6.2c0,0,1.2,2.7,2.5,6.2
								C123.8,66,124.8,68.8,124.8,68.8z"/>
						</g>
					</g>
				</g>
				<g>
					<g>
						<g>
							<path class="st5" d="M119.9,56.5c0,0-0.1,0.1-0.2,0.2c-0.1,0.1-0.3,0.3-0.6,0.6c-0.3,0.2-0.6,0.5-1,0.7
								c-0.4,0.2-0.9,0.5-1.4,0.6c-0.5,0.2-1,0.3-1.5,0.4c-0.5,0.1-0.9,0.1-1.2,0.1c-0.4,0-0.6,0-0.8-0.1c-0.2,0-0.3-0.1-0.3-0.1
								c0,0,0.4,0,1.1,0c0.3,0,0.8,0,1.2-0.1c0.4-0.1,0.9-0.2,1.4-0.4c0.5-0.2,0.9-0.4,1.3-0.6c0.4-0.2,0.7-0.5,1-0.7
								C119.6,56.8,119.9,56.5,119.9,56.5z"/>
						</g>
					</g>
				</g>
				<g>
					<g>
						<g>
							<path class="st5" d="M109,63.4c0,0,0.1,0.2,0.1,0.6c0,0.4-0.1,0.9-0.4,1.4s-0.6,0.9-0.9,1.2c-0.3,0.2-0.5,0.4-0.5,0.3
								c0,0,0.7-0.6,1.2-1.6c0.2-0.5,0.4-1,0.4-1.3C109,63.7,109,63.4,109,63.4z"/>
						</g>
					</g>
				</g>
			</g>
			<g>
				<g>
					<g>
						<path class="st10" d="M106.2,65.2c-0.2,0-0.5,0-0.6,0.2c-0.2,0.2-0.2,0.5,0,0.6c0.2,0.1,0.4,0,0.6-0.1
							c0.3-0.2,0.5-0.4,0.8-0.6C106.7,65.3,106.4,65.2,106.2,65.2z"/>
					</g>
				</g>
				<g>
					<g>
						<path class="st10" d="M104.8,64.6c-0.2,0-0.4,0-0.5,0.1c-0.1,0.1-0.1,0.4,0,0.5c0.1,0.1,0.3,0,0.5-0.1
							c0.2-0.1,0.4-0.3,0.6-0.4C105.2,64.6,105,64.6,104.8,64.6z"/>
					</g>
				</g>
				<g>
					<g>
						<path class="st10" d="M107.3,63.6c-0.2-0.3-0.4-0.5-0.8-0.5c-0.3,0-0.7,0.2-0.6,0.5c0,0.3,0.4,0.5,0.7,0.6
							c0.4,0.1,0.9,0.2,1.3,0.3C107.7,64.2,107.5,63.9,107.3,63.6z"/>
					</g>
				</g>
			</g>
			<g>
				<g>
					<g>
						<path class="st8" d="M151.5,50.1c0,0-0.2-0.3-0.5-0.8c-0.3-0.5-0.8-1.1-1.4-1.8c-0.6-0.6-1.3-1.1-1.7-1.5
							c-0.5-0.3-0.8-0.5-0.8-0.6c0,0,0.3,0.1,0.8,0.5c0.5,0.3,1.2,0.8,1.8,1.5c0.6,0.7,1.1,1.3,1.4,1.8
							C151.4,49.8,151.5,50.1,151.5,50.1z"/>
					</g>
				</g>
			</g>
			<g>
				<g>
					<g>
						<path class="st8" d="M155.5,46.4c0,0-0.2-0.3-0.6-0.9c-0.4-0.5-0.9-1.2-1.6-1.9c-0.7-0.7-1.4-1.2-2-1.5
							c-0.5-0.3-0.9-0.5-0.9-0.5c0,0,0.1,0,0.3,0.1c0.2,0.1,0.4,0.2,0.7,0.3c0.6,0.3,1.3,0.8,2,1.5c0.7,0.7,1.3,1.4,1.6,1.9
							c0.2,0.3,0.3,0.5,0.4,0.7C155.5,46.3,155.5,46.3,155.5,46.4z"/>
					</g>
				</g>
			</g>
			<g>
				<g>
					<g>
						<path class="st8" d="M146.6,54.3c0,0-0.6-1.1-1.7-2.3c-1.1-1.2-2.1-1.9-2.1-2c0,0,0.3,0.1,0.7,0.5s1,0.8,1.5,1.4
							c0.5,0.6,0.9,1.2,1.2,1.7C146.5,53.9,146.6,54.2,146.6,54.3z"/>
					</g>
				</g>
			</g>
			<g>
				<g>
					<g>
						<path class="st8" d="M138.7,57.4c0,0,0-0.3-0.1-0.7c0-0.5-0.1-1.1-0.1-1.8c-0.1-0.7-0.1-1.2-0.1-1.8c0-0.5-0.1-0.7,0-0.7
							c0,0,0.1,0.3,0.2,0.7c0.1,0.4,0.1,1.1,0.2,1.8c0.1,0.7,0.1,1.3,0.1,1.8C138.8,57.1,138.7,57.4,138.7,57.4z"/>
					</g>
				</g>
			</g>
			<g>
				<g>
					<g>
						<path class="st8" d="M131.7,58.7c0,0-0.1-0.3-0.1-0.7c-0.1-0.4-0.1-1-0.1-1.7c0-0.7,0-1.2,0.1-1.7c0-0.4,0.1-0.7,0.1-0.7
							c0,0,0,1.1,0,2.4C131.6,57.6,131.8,58.7,131.7,58.7z"/>
					</g>
				</g>
			</g>
			<g>
				<g>
					<g>
						<path class="st8" d="M138,68.5c0,0-0.9-0.4-2-1c-1.1-0.6-2-1.1-1.9-1.1c0,0,0.9,0.4,2,1C137.2,67.9,138,68.4,138,68.5z"/>
					</g>
				</g>
			</g>
			<g>
				<g>
					<g>
						<path class="st8" d="M141.6,63.7c0,0-0.9-0.5-2-1.2c-1.1-0.7-1.9-1.3-1.9-1.4c0,0,0.9,0.5,2,1.2
							C140.8,63,141.7,63.6,141.6,63.7z"/>
					</g>
				</g>
			</g>
			<g>
				<g>
					<g>
						<path class="st8" d="M144.9,59.2c0,0-0.6-0.5-1.3-1.1c-0.7-0.6-1.4-1-1.3-1.1c0,0,0.7,0.3,1.5,0.9
							C144.5,58.6,144.9,59.2,144.9,59.2z"/>
					</g>
				</g>
			</g>
			<g>
				<g>
					<g>
						<path class="st8" d="M157.1,57.2c0,0-0.1,0.1-0.4,0.2c-0.3,0.1-0.7,0.3-1.2,0.4c-1,0.4-2.4,0.9-3.9,1.5
							c-1.5,0.6-2.9,1.1-3.9,1.5c-0.5,0.2-0.9,0.3-1.2,0.5c-0.3,0.1-0.4,0.2-0.4,0.2c0,0,0.1-0.1,0.4-0.2c0.3-0.1,0.7-0.3,1.2-0.5
							c1-0.4,2.4-1,3.9-1.6c1.5-0.6,2.9-1.1,4-1.4c0.5-0.2,0.9-0.3,1.2-0.4C157,57.2,157.1,57.2,157.1,57.2z"/>
					</g>
				</g>
			</g>
			<g>
				<g>
					<g>
						<path class="st8" d="M157,53.3c0,0-0.2,0.1-0.4,0.2c-0.3,0.1-0.7,0.3-1.3,0.5c-1.1,0.4-2.5,0.8-4.2,1.3
							c-1.7,0.5-3.2,0.9-4.3,1.1c-0.5,0.1-1,0.2-1.3,0.3s-0.5,0.1-0.5,0.1c0,0,0.2-0.1,0.5-0.2c0.3-0.1,0.8-0.2,1.3-0.4
							c1.1-0.3,2.6-0.7,4.2-1.2c1.7-0.5,3.1-0.9,4.2-1.3c0.5-0.2,0.9-0.3,1.3-0.4C156.8,53.3,156.9,53.3,157,53.3z"/>
					</g>
				</g>
			</g>
			<g>
				<g>
					<g>
						<path class="st8" d="M156.7,49.8c0,0-0.3,0.2-0.9,0.4c-0.6,0.2-1.4,0.4-2.3,0.6c-0.9,0.2-1.7,0.3-2.3,0.3c-0.6,0-1,0-1,0
							c0,0,0.4-0.1,1-0.1c0.6-0.1,1.4-0.2,2.3-0.4c0.9-0.2,1.7-0.4,2.3-0.6C156.4,49.9,156.7,49.8,156.7,49.8z"/>
					</g>
				</g>
			</g>
			<g>
				<g>
					<g>
						<path class="st5" d="M154.6,47.5C154.7,47.5,154.6,47.5,154.6,47.5c-0.1,0.1-0.2,0.1-0.2,0.2c-0.2,0.1-0.4,0.3-0.7,0.6
							c-0.6,0.5-1.4,1.2-2.5,2.1c-1,0.9-2.3,1.9-3.7,3.1c-0.7,0.6-1.4,1.2-2.2,1.8c-0.2,0.2-0.4,0.3-0.6,0.5
							c-0.2,0.2-0.4,0.3-0.6,0.5c-0.4,0.3-0.9,0.5-1.4,0.6c-1,0.3-2,0.4-3,0.5c-1,0.1-1.9,0.3-2.8,0.4c-1.8,0.3-3.4,0.5-4.7,0.7
							c-1.3,0.2-2.4,0.3-3.2,0.4c-0.4,0-0.7,0.1-0.9,0.1c-0.1,0-0.2,0-0.2,0c-0.1,0-0.1,0-0.1,0c0,0,0,0,0.1,0c0.1,0,0.1,0,0.2,0
							c0.2,0,0.5-0.1,0.9-0.1c0.8-0.1,1.9-0.3,3.2-0.5c1.4-0.2,3-0.4,4.7-0.7c0.9-0.1,1.8-0.3,2.8-0.4c1-0.2,2-0.2,3-0.5
							c0.5-0.1,1-0.3,1.4-0.6c0.2-0.1,0.4-0.3,0.6-0.5c0.2-0.2,0.4-0.3,0.6-0.5c0.8-0.6,1.5-1.2,2.2-1.8c1.4-1.2,2.6-2.2,3.7-3.1
							c1-0.9,1.9-1.6,2.5-2.1c0.3-0.2,0.5-0.4,0.7-0.6C154.5,47.6,154.5,47.5,154.6,47.5C154.6,47.5,154.6,47.5,154.6,47.5z"/>
					</g>
				</g>
			</g>
			<g class="st7">
				<g>
					<g>
						<path d="M145.2,57.9c-0.1-0.7-0.3-1.4-0.9-1.7c-1.5,0.6-3,1-4.6,1.2l0,0c0.5,0.7,1.5,1.1,2.4,0.9c0.3-0.1,0.6-0.2,0.9-0.1
							c0.4,0.1,0.6,0.5,0.8,0.8c0.2,0.4,0.4,0.8,0.7,1.1l0.8-1.1C145.5,58.7,145.3,58.3,145.2,57.9z"/>
					</g>
				</g>
			</g>
			<g class="st7">
				<g>
					<g>
						<path d="M144.6,55.8c4.1-1.3,7.6-4.3,9.6-8.1L144.6,55.8z"/>
					</g>
				</g>
			</g>
			<g>
				<g>
					<g>
						<path class="st13" d="M131.3,71.7l-3.4-0.8l-2.4,0.6c0,0-0.2,0.4,0.4,0.5l1.3-0.1l-1.2,0.7c0,0,0.1,0.5,0.7,0.4
							c0.6-0.1,1-0.4,1-0.4l2,0.5c0,0-2,0.9-1.8,1.4c0.1,0.5,0.4,0.4,0.6,0.4c0.3-0.1,0.5-0.5,1.1-0.5c0.5,0,1.5-0.2,2.5-0.3
							c0.9-0.1,2.5-2.4,2.5-2.4l-2.3-1.4L131.3,71.7z"/>
					</g>
				</g>
				<g>
					<g>
						<g>
							<path class="st16" d="M129.4,72c0,0-0.5-0.1-1.2-0.2c-0.2,0-0.3-0.1-0.4-0.1c-0.1,0-0.2,0.1-0.3,0.1
								c-0.2,0.1-0.3,0.2-0.3,0.2c0,0,0-0.1,0.2-0.3c0.1-0.1,0.2-0.2,0.4-0.2c0.1,0,0.2,0,0.3,0c0.1,0,0.2,0,0.2,0.1
								C128.9,71.8,129.4,71.9,129.4,72z"/>
						</g>
					</g>
				</g>
			</g>
		</g>
	</g>
	<g id="Floor">
		<g>
			<g>
				<g>
					<path class="st5" d="M188,147.9c0,0-33.8,0.1-75.5,0.1c-41.7,0-75.5,0-75.5-0.1c0,0,33.8-0.1,75.5-0.1
						C154.2,147.8,188,147.8,188,147.9z"/>
				</g>
			</g>
		</g>
	</g>
</g>
</svg>
