<?xml version="1.0" encoding="utf-8"?>
<!-- Generator: Adobe Illustrator 25.4.1, SVG Export Plug-In . SVG Version: 6.00 Build 0)  -->
<svg version="1.1" id="Layer_1" xmlns="http://www.w3.org/2000/svg" xmlns:xlink="http://www.w3.org/1999/xlink" x="0px" y="0px"
	 viewBox="0 0 225 150" style="enable-background:new 0 0 225 150;" xml:space="preserve">
<style type="text/css">
	.st0{opacity:0.7;fill:#F0F0F0;enable-background:new    ;}
	.st1{fill:#E0E0E0;}
	.st2{fill:#37374F;}
	.st3{fill:#454664;}
	.st4{fill:#262638;}
	.st5{fill:#FAFAFA;}
	.st6{fill:#052669;}
	.st7{opacity:0.9;fill:#FFFFFF;enable-background:new    ;}
	.st8{opacity:0.8;fill:#FFFFFF;enable-background:new    ;}
	.st9{opacity:0.3;fill:#FFFFFF;enable-background:new    ;}
	.st10{opacity:0.1;fill:#052669;enable-background:new    ;}
	.st11{opacity:0.5;fill:#FFFFFF;enable-background:new    ;}
	.st12{opacity:0.7;fill:#FFFFFF;enable-background:new    ;}
	.st13{opacity:0.15;enable-background:new    ;}
	.st14{opacity:0.25;fill:#FFFFFF;enable-background:new    ;}
	.st15{opacity:0.2;fill:#052669;enable-background:new    ;}
	.st16{opacity:0.6;fill:#FFFFFF;enable-background:new    ;}
	.st17{opacity:0.2;fill:#FFFFFF;enable-background:new    ;}
	.st18{opacity:5.000000e-02;fill:#454664;enable-background:new    ;}
	.st19{opacity:0.15;fill:#052669;enable-background:new    ;}
	.st20{fill:#FFFFFF;}
	.st21{opacity:0.85;fill:#FFFFFF;enable-background:new    ;}
	.st22{opacity:0.3;enable-background:new    ;}
	.st23{opacity:0.5;}
	.st24{opacity:0.1;fill:#FFFFFF;enable-background:new    ;}
	.st25{opacity:0.35;fill:#FFFFFF;enable-background:new    ;}
	.st26{opacity:0.2;enable-background:new    ;}
	.st27{opacity:0.6;fill:#052669;enable-background:new    ;}
	.st28{fill:#FFC5A7;}
	.st29{opacity:0.25;enable-background:new    ;}
	.st30{fill:#F2AF8F;}
	.st31{opacity:0.1;enable-background:new    ;}
</style>
<g>
	<g id="Floor">
		<g id="Floor_1_">
			<ellipse id="Floor_4_" class="st0" cx="112.5" cy="100.2" rx="82.2" ry="47.5"/>
		</g>
	</g>
	<g id="Shadows">
		<ellipse id="Shadow_8_" class="st1" cx="156.3" cy="117.8" rx="20.1" ry="11.6"/>
		<path id="Shadow_6_" class="st1" d="M181.9,118.9l4.7-2.7c0.4-0.2,0.4-0.6,0-0.9l-15.6-9c-0.4-0.2-1.1-0.2-1.5,0l-4.7,2.7
			c-0.4,0.2-0.4,0.6,0,0.9l15.6,9C180.8,119.1,181.5,119.1,181.9,118.9z"/>
		<path id="Shadow_30_" class="st1" d="M78.1,124.2L35.4,99.6c-1.6-0.9-1.6-2.5,0-3.4l64.7-37.3c0.7-0.4,1.8-0.4,2.4,0L147.8,85
			c0.2,0.1,0.2,0.3,0,0.4l-67.3,38.8C79.8,124.6,78.7,124.6,78.1,124.2z"/>
	</g>
	<g id="Device">
		<g id="Laptop_1_">
			<path id="XMLID_5482_" class="st2" d="M40.6,97.9c0,1,0.7,2.2,1.6,2.7L78,121.3c0.9,0.5,2.4,0.5,3.3,0l63-36.3
				c0.9-0.5,1.6-1.7,1.6-2.7s-0.7-2.2-1.6-2.7l-35.8-20.6c-0.9-0.5-2.4-0.5-3.3,0l-63,36.3C41.3,95.7,40.6,96.9,40.6,97.9z"/>
			<path id="XMLID_5480_" class="st3" d="M42.2,97.1L78,117.7c0.9,0.5,2.4,0.5,3.3,0l63-36.4c0.9-0.5,0.9-1.4,0-1.9l-35.8-20.6
				c-0.9-0.5-2.4-0.5-3.3,0l-63,36.3C41.3,95.7,41.3,96.5,42.2,97.1z"/>
			<path id="XMLID_5466_" class="st4" d="M79.6,118.1v3.6c-0.6,0-1.2-0.1-1.6-0.4l-35.8-20.6c-0.9-0.5-1.6-1.7-1.6-2.7
				c0-0.9,0.6-2.1,1.5-2.6c-0.7,0.5-0.7,1.3,0.2,1.8L78,117.7C78.4,118,79,118.1,79.6,118.1z"/>
			<path id="XMLID_5465_" class="st2" d="M39,95.2c-0.8-0.5-0.8-1.3-0.8-2.4V43.5c0-1,0.7-2.3,1.6-2.8l63-36.3
				c0.9-0.5,2.3-0.6,3.2-0.1c0.8,0.5,0.8,1.3,0.8,2.4V56c0,1-0.7,2.3-1.6,2.8l-63,36.3C41.3,95.7,39.9,95.7,39,95.2z"/>
			<path id="XMLID_5464_" class="st3" d="M106.8,6.6c0-1-0.7-1.5-1.6-0.9L42.2,42c-0.5,0.3-0.9,0.7-1.2,1.2l-2.3-1.4h0
				c0.3-0.5,0.7-1,1.2-1.2l63-36.3c0.9-0.5,2.3-0.6,3.2-0.1C106.9,4.7,106.8,5.5,106.8,6.6z"/>
			<path id="XMLID_5462_" class="st4" d="M42,95.3c-0.9,0.4-2.2,0.4-3,0c-0.8-0.5-0.8-1.3-0.8-2.4V43.5c0-0.5,0.2-1.1,0.5-1.6
				l2.3,1.4v0c-0.3,0.5-0.5,1.1-0.5,1.6v49.4C40.6,95.2,41.2,95.6,42,95.3z"/>
			<path id="XMLID_5461_" class="st5" d="M43.1,43.9l60.7-35c0.5-0.3,1-0.1,1,0.6v43.1c0,0.6-0.4,1.4-1,1.7l-60.7,35
				c-0.5,0.3-1,0.1-1-0.6V45.6C42.1,45,42.6,44.2,43.1,43.9z"/>
			<path id="XMLID_5460_" class="st4" d="M46.8,95.3l58.4-33.7c0.5-0.3,1.2-0.3,1.6,0l1,0.5c0.5,0.3,0.5,0.7,0,0.9L49.4,96.7
				c-0.5,0.3-1.2,0.3-1.6,0l-1-0.5C46.3,95.9,46.3,95.5,46.8,95.3z"/>
			<g id="XMLID_374_">
				<path id="XMLID_5459_" class="st4" d="M51.3,98l58.4-33.7c0.5-0.3,1.1-0.3,1.5-0.1l15.2,8.8c0.4,0.2,0.3,0.6-0.1,0.9L68,107.5
					c-0.5,0.3-1.1,0.3-1.5,0.1l-15.3-8.7C50.8,98.6,50.9,98.2,51.3,98z"/>
				<path id="XMLID_5268_" class="st3" d="M102,78.4l1.8-1.1c0.1,0,0.1-0.1,0-0.2l-1.7-1c-0.1,0-0.2,0-0.3,0l-1.8,1.1
					c-0.1,0-0.1,0.1,0,0.2l1.7,1C101.8,78.5,101.9,78.5,102,78.4z M99.3,74.8l-1.8,1.1c-0.1,0-0.1,0.1,0,0.2l1.7,1
					c0.1,0,0.2,0,0.3,0l1.8-1.1c0.1,0,0.1-0.1,0-0.2l-1.7-1C99.5,74.7,99.4,74.7,99.3,74.8z M93.4,78.2L90.3,80
					c-0.1,0-0.1,0.1,0,0.2l1.7,1c0.1,0,0.2,0,0.3,0l3.1-1.8c0.1,0,0.1-0.1,0-0.2l-1.7-1C93.6,78.1,93.5,78.1,93.4,78.2z M96.6,76.3
					l-1.8,1.1c-0.1,0-0.1,0.1,0,0.2l1.7,1c0.1,0,0.2,0,0.3,0l1.8-1.1c0.1,0,0.1-0.1,0-0.2l-1.7-1C96.8,76.3,96.7,76.3,96.6,76.3z
					 M89.5,80.4l-1.8,1.1c-0.1,0-0.1,0.1,0,0.2l1.7,1c0.1,0,0.2,0,0.3,0l1.8-1.1c0.1,0,0.1-0.1,0-0.2l-1.7-1
					C89.7,80.4,89.5,80.4,89.5,80.4z M86.8,82L85,83.1c-0.1,0-0.1,0.1,0,0.2l1.7,1c0.1,0,0.2,0,0.3,0l1.8-1.1c0.1,0,0.1-0.1,0-0.2
					l-1.7-1C87,81.9,86.9,81.9,86.8,82z M93.6,86.1l1.8-1.1c0.1,0,0.1-0.1,0-0.2l-1.7-1c-0.1,0-0.2,0-0.3,0L91.6,85
					c-0.1,0-0.1,0.1,0,0.2l1.7,1C93.4,86.2,93.6,86.2,93.6,86.1z M91,87.7l1.8-1.1c0.1,0,0.1-0.1,0-0.2l-1.7-1c-0.1,0-0.2,0-0.3,0
					L89,86.5c-0.1,0-0.1,0.1,0,0.2l1.7,1C90.8,87.7,90.9,87.7,91,87.7z M88.3,89.2l1.8-1.1c0.1,0,0.1-0.1,0-0.2l-1.7-1
					c-0.1,0-0.2,0-0.3,0L86.3,88c-0.1,0-0.1,0.1,0,0.2l1.7,1C88.1,89.3,88.2,89.2,88.3,89.2z M85.6,90.7l1.8-1.1
					c0.1,0,0.1-0.1,0-0.2l-1.7-1c-0.1,0-0.2,0-0.3,0l-1.8,1.1c-0.1,0-0.1,0.1,0,0.2l1.7,1C85.4,90.8,85.5,90.8,85.6,90.7z M99.3,80
					l1.8-1.1c0.1,0,0.1-0.1,0-0.2l-1.7-1c-0.1,0-0.2,0-0.3,0l-1.8,1.1c-0.1,0-0.1,0.1,0,0.2l1.7,1C99.1,80,99.2,80,99.3,80z
					 M96.3,84.6l4.1-2.4c0.1,0,0.1-0.1,0-0.2l-4.3-2.5c-0.1,0-0.2,0-0.3,0l-2.1,1.2c-0.1,0-0.1,0.1,0,0.2l2.2,1.3
					c0.1,0,0.1,0.1,0,0.2l-1.7,1c-0.1,0-0.1,0.1,0,0.2l1.7,1C96.1,84.6,96.2,84.6,96.3,84.6z M84.1,83.5l-1.8,1.1
					c-0.1,0-0.1,0.1,0,0.2l1.7,1c0.1,0,0.2,0,0.3,0l1.8-1.1c0.1,0,0.1-0.1,0-0.2l-1.7-1C84.3,83.5,84.2,83.5,84.1,83.5z M81.4,85.1
					l-1.8,1.1c-0.1,0-0.1,0.1,0,0.2l1.7,1c0.1,0,0.2,0,0.3,0l1.8-1.1c0.1,0,0.1-0.1,0-0.2l-1.7-1C81.6,85,81.5,85,81.4,85.1z
					 M66.6,101.6c0.1,0,0.2,0,0.3,0l1.8-1.1c0.1,0,0.1-0.1,0-0.2l-1.7-1c-0.1,0-0.2,0-0.3,0l-1.8,1.1c-0.1,0-0.1,0.1,0,0.2
					L66.6,101.6z M60,97.4l-1.8,1.1c-0.1,0-0.1,0.1,0,0.2l1.7,1c0.1,0,0.2,0,0.3,0l1.8-1.1c0.1,0,0.1-0.1,0-0.2l-1.7-1
					C60.2,97.4,60.1,97.4,60,97.4z M63.4,100.5c0.1,0,0.2,0,0.3,0l1.8-1.1c0.1,0,0.1-0.1,0-0.2l-1.7-1c-0.1,0-0.2,0-0.3,0l-1.8,1.1
					c-0.1,0-0.1,0.1,0,0.2L63.4,100.5z M70.8,102.2l1.8-1.1c0.1,0,0.1-0.1,0-0.2l-1.7-1c-0.1,0-0.2,0-0.3,0l-1.8,1.1
					c-0.1,0-0.1,0.1,0,0.2l1.7,1C70.6,102.2,70.7,102.2,70.8,102.2z M67.9,103.7c0.1,0,0.2,0,0.3,0l1.8-1.1c0.1,0,0.1-0.1,0-0.2
					l-1.7-1c-0.1,0-0.2,0-0.3,0l-1.8,1.1c-0.1,0-0.1,0.1,0,0.2L67.9,103.7z M62.7,95.9l-1.8,1.1c-0.1,0-0.1,0.1,0,0.2l1.7,1
					c0.1,0,0.2,0,0.3,0l1.8-1.1c0.1,0,0.1-0.1,0-0.2l-1.7-1C62.9,95.8,62.8,95.8,62.7,95.9z M76.1,88.2l-1.8,1.1
					c-0.1,0-0.1,0.1,0,0.2l1.7,1c0.1,0,0.2,0,0.3,0l1.8-1.1c0.1,0,0.1-0.1,0-0.2l-1.7-1C76.3,88.1,76.2,88.1,76.1,88.2z M65.4,94.3
					l-1.8,1.1c-0.1,0-0.1,0.1,0,0.2l1.7,1c0.1,0,0.2,0,0.3,0l1.8-1.1c0.1,0,0.1-0.1,0-0.2l-1.7-1C65.6,94.3,65.5,94.3,65.4,94.3z
					 M78.8,86.6l-1.8,1.1c-0.1,0-0.1,0.1,0,0.2l1.7,1c0.1,0,0.2,0,0.3,0l1.8-1.1c0.1,0,0.1-0.1,0-0.2l-1.7-1
					C79,86.6,78.8,86.6,78.8,86.6z M73.4,89.7l-1.8,1.1c-0.1,0-0.1,0.1,0,0.2l1.7,1c0.1,0,0.2,0,0.3,0l1.8-1.1c0.1,0,0.1-0.1,0-0.2
					l-1.7-1C73.6,89.7,73.5,89.7,73.4,89.7z M70.7,91.3l-1.8,1.1c-0.1,0-0.1,0.1,0,0.2l1.7,1c0.1,0,0.2,0,0.3,0l1.8-1.1
					c0.1,0,0.1-0.1,0-0.2l-1.7-1C70.9,91.2,70.8,91.2,70.7,91.3z M68.1,92.8l-1.8,1.1c-0.1,0-0.1,0.1,0,0.2l1.7,1c0.1,0,0.2,0,0.3,0
					l1.8-1.1c0.1,0,0.1-0.1,0-0.2l-1.7-1C68.3,92.8,68.1,92.8,68.1,92.8z M80.3,93.8l1.8-1.1c0.1,0,0.1-0.1,0-0.2l-1.7-1
					c-0.1,0-0.2,0-0.3,0l-1.8,1.1c-0.1,0-0.1,0.1,0,0.2l1.7,1C80.1,93.9,80.2,93.9,80.3,93.8z M105.2,71.3l-1.8,1.1
					c-0.1,0-0.1,0.1,0,0.2l1.7,1c0.1,0,0.2,0,0.3,0l1.8-1.1c0.1,0,0.1-0.1,0-0.2l-1.7-1C105.4,71.3,105.3,71.3,105.2,71.3z
					 M102,73.2l-1.8,1.1c-0.1,0-0.1,0.1,0,0.2l1.7,1c0.1,0,0.2,0,0.3,0l1.8-1.1c0.1,0,0.1-0.1,0-0.2l-1.7-1
					C102.2,73.2,102.1,73.2,102,73.2z M107.9,69.8l-1.8,1.1c-0.1,0-0.1,0.1,0,0.2l1.7,1c0.1,0,0.2,0,0.3,0l1.8-1.1
					c0.1,0,0.1-0.1,0-0.2l-1.7-1C108.1,69.8,108,69.8,107.9,69.8z M93.1,83.5l1.8-1.1c0.1,0,0.1-0.1,0-0.2l-1.7-1
					c-0.1,0-0.2,0-0.3,0l-1.8,1.1c-0.1,0-0.1,0.1,0,0.2l1.7,1C92.9,83.6,93,83.6,93.1,83.5z M110.8,68.2c-0.1,0-0.2,0-0.3,0
					l-1.8,1.1c-0.1,0-0.1,0.1,0,0.2l1.7,1c0.1,0,0.2,0,0.3,0l1.8-1.1c0.1,0,0.1-0.1,0-0.2L110.8,68.2z M82.9,92.3l1.8-1.1
					c0.1,0,0.1-0.1,0-0.2l-1.7-1c-0.1,0-0.2,0-0.3,0l-1.8,1.1c-0.1,0-0.1,0.1,0,0.2l1.7,1C82.8,92.3,82.9,92.3,82.9,92.3z
					 M115.7,73.4l1.8-1.1c0.1,0,0.1-0.1,0-0.2l-1.7-1c-0.1,0-0.2,0-0.3,0l-1.8,1.1c-0.1,0-0.1,0.1,0,0.2l1.7,1
					C115.5,73.4,115.7,73.4,115.7,73.4z M110.6,73.5l1.8-1.1c0.1,0,0.1-0.1,0-0.2l-1.7-1c-0.1,0-0.2,0-0.3,0l-1.8,1.1
					c-0.1,0-0.1,0.1,0,0.2l1.7,1C110.4,73.5,110.5,73.5,110.6,73.5z M113.3,69.7c-0.1,0-0.2,0-0.3,0l-1.8,1.1c-0.1,0-0.1,0.1,0,0.2
					l1.7,1c0.1,0,0.2,0,0.3,0l1.8-1.1c0.1,0,0.1-0.1,0-0.2L113.3,69.7z M113.9,69.4l4.3,2.5c0.1,0,0.2,0,0.3,0l1.8-1.1
					c0.1,0,0.1-0.1,0-0.2l-4.3-2.5c-0.1,0-0.2,0-0.3,0l-1.8,1.1C113.8,69.3,113.8,69.3,113.9,69.4z M107.7,72.8l-1.8,1.1
					c-0.1,0-0.1,0.1,0,0.2l1.7,1c0.1,0,0.2,0,0.3,0l1.8-1.1c0.1,0,0.1-0.1,0-0.2l-1.7-1C107.9,72.7,107.8,72.7,107.7,72.8z
					 M87.6,84.4l-1.8,1.1c-0.1,0-0.1,0.1,0,0.2l1.7,1c0.1,0,0.2,0,0.3,0l1.8-1.1c0.1,0,0.1-0.1,0-0.2l-1.7-1
					C87.8,84.4,87.7,84.4,87.6,84.4z M112.8,74.9c0.1,0,0.2,0,0.3,0l1.8-1.1c0.1,0,0.1-0.1,0-0.2l-1.7-1c-0.1,0-0.2,0-0.3,0
					l-1.8,1.1c-0.1,0-0.1,0.1,0,0.2L112.8,74.9z M90.3,82.9l-1.8,1.1c-0.1,0-0.1,0.1,0,0.2l1.7,1c0.1,0,0.2,0,0.3,0l1.8-1.1
					c0.1,0,0.1-0.1,0-0.2l-1.7-1C90.5,82.8,90.3,82.8,90.3,82.9z M69.3,100c0.1,0,0.2,0,0.3,0l1.8-1.1c0.1,0,0.1-0.1,0-0.2l-1.7-1
					c-0.1,0-0.2,0-0.3,0l-1.8,1.1c-0.1,0-0.1,0.1,0,0.2L69.3,100z M66.2,96.8l-1.8,1.1c-0.1,0-0.1,0.1,0,0.2l1.7,1
					c0.1,0,0.2,0,0.3,0l1.8-1.1c0.1,0,0.1-0.1,0-0.2l-1.7-1C66.4,96.7,66.3,96.7,66.2,96.8z M72.2,98.5l1.8-1.1c0.1,0,0.1-0.1,0-0.2
					l-1.7-1c-0.1,0-0.2,0-0.3,0l-1.8,1.1c-0.1,0-0.1,0.1,0,0.2l1.7,1C72.1,98.5,72.2,98.5,72.2,98.5z M74.9,96.9l1.8-1.1
					c0.1,0,0.1-0.1,0-0.2l-1.7-1c-0.1,0-0.2,0-0.3,0l-1.8,1.1c-0.1,0-0.1,0.1,0,0.2l1.7,1C74.7,97,74.8,97,74.9,96.9z M77.6,95.4
					l1.8-1.1c0.1,0,0.1-0.1,0-0.2l-1.7-1c-0.1,0-0.2,0-0.3,0l-1.8,1.1c-0.1,0-0.1,0.1,0,0.2l1.7,1C77.4,95.4,77.5,95.4,77.6,95.4z
					 M68.9,95.2L67,96.3c-0.1,0-0.1,0.1,0,0.2l1.7,1c0.1,0,0.2,0,0.3,0l1.8-1.1c0.1,0,0.1-0.1,0-0.2l-1.7-1
					C69.1,95.2,69,95.2,68.9,95.2z M71.6,93.7l-1.8,1.1c-0.1,0-0.1,0.1,0,0.2l1.7,1c0.1,0,0.2,0,0.3,0l1.8-1.1c0.1,0,0.1-0.1,0-0.2
					l-1.7-1C71.7,93.6,71.6,93.6,71.6,93.7z M82.2,87.5l-1.8,1.1c-0.1,0-0.1,0.1,0,0.2l1.7,1c0.1,0,0.2,0,0.3,0l1.8-1.1
					c0.1,0,0.1-0.1,0-0.2l-1.7-1C82.4,87.5,82.3,87.5,82.2,87.5z M79.6,89l-1.8,1.1c-0.1,0-0.1,0.1,0,0.2l1.7,1c0.1,0,0.2,0,0.3,0
					l1.8-1.1c0.1,0,0.1-0.1,0-0.2l-1.7-1C79.8,89,79.6,89,79.6,89z M84.9,86L83.1,87c-0.1,0-0.1,0.1,0,0.2l1.7,1c0.1,0,0.2,0,0.3,0
					l1.8-1.1c0.1,0,0.1-0.1,0-0.2l-1.7-1C85.1,85.9,85,85.9,84.9,86z M74.2,92.1l-1.8,1.1c-0.1,0-0.1,0.1,0,0.2l1.7,1
					c0.1,0,0.2,0,0.3,0l1.8-1.1c0.1,0,0.1-0.1,0-0.2l-1.7-1C74.4,92.1,74.3,92.1,74.2,92.1z M76.9,90.6l-1.8,1.1
					c-0.1,0-0.1,0.1,0,0.2l1.7,1c0.1,0,0.2,0,0.3,0l1.8-1.1c0.1,0,0.1-0.1,0-0.2l-1.7-1C77.1,90.5,77,90.5,76.9,90.6z M73.5,100.6
					l1.8-1.1c0.1,0,0.1-0.1,0-0.2l-1.7-1c-0.1,0-0.2,0-0.3,0l-1.8,1.1c-0.1,0-0.1,0.1,0,0.2l1.7,1C73.3,100.7,73.4,100.7,73.5,100.6
					z M59.4,100l-1.7-1c-0.1,0-0.2,0-0.3,0l-1.8,1.1c-0.1,0-0.1,0.1,0,0.2l1.7,1c0.1,0,0.2,0,0.3,0l1.8-1.1
					C59.4,100.1,59.5,100,59.4,100z M62.9,100.9l-1.7-1c-0.1,0-0.2,0-0.3,0l-2.8,1.6c-0.1,0-0.1,0.1,0,0.2l1.7,1c0.1,0,0.2,0,0.3,0
					l2.8-1.6C62.9,101,62.9,100.9,62.9,100.9z M56.8,98L55,97c-0.1,0-0.2,0-0.3,0l-2.3,1.3c-0.1,0-0.1,0.1,0,0.2l1.7,1
					c0.1,0,0.2,0,0.3,0l2.3-1.3C56.8,98.1,56.8,98,56.8,98z M58.5,97c0.1,0,0.2,0,0.3,0l1.8-1.1c0.1,0,0.1-0.1,0-0.2l-1.7-1
					c-0.1,0-0.2,0-0.3,0l-1.8,1.1c-0.1,0-0.1,0.1,0,0.2L58.5,97z M66.1,101.9l-1.7-1c-0.1,0-0.2,0-0.3,0l-3.5,2
					c-0.1,0-0.1,0.1,0,0.2l1.7,1c0.1,0,0.2,0,0.3,0l3.5-2C66.1,102,66.1,101.9,66.1,101.9z M67.3,104.1l-1.7-1c-0.1,0-0.2,0-0.3,0
					l-2.3,1.3c-0.1,0-0.1,0.1,0,0.2l1.7,1c0.1,0,0.2,0,0.3,0l2.3-1.3C67.4,104.2,67.4,104.1,67.3,104.1z M78.4,85.5
					c0.1,0,0.2,0,0.3,0l1.8-1.1c0.1,0,0.1-0.1,0-0.2l-1.7-1c-0.1,0-0.2,0-0.3,0l-1.8,1.1c-0.1,0-0.1,0.1,0,0.2L78.4,85.5z M73,88.6
					c0.1,0,0.2,0,0.3,0l1.8-1.1c0.1,0,0.1-0.1,0-0.2l-1.7-1c-0.1,0-0.2,0-0.3,0l-1.8,1.1c-0.1,0-0.1,0.1,0,0.2L73,88.6z M61.2,95.4
					c0.1,0,0.2,0,0.3,0l1.8-1.1c0.1,0,0.1-0.1,0-0.2l-1.7-1c-0.1,0-0.2,0-0.3,0l-1.8,1.1c-0.1,0-0.1,0.1,0,0.2L61.2,95.4z M75.7,87
					c0.1,0,0.2,0,0.3,0l1.8-1.1c0.1,0,0.1-0.1,0-0.2l-1.7-1c-0.1,0-0.2,0-0.3,0L74,85.9c-0.1,0-0.1,0.1,0,0.2L75.7,87z M70.4,90.1
					c0.1,0,0.2,0,0.3,0l1.8-1.1c0.1,0,0.1-0.1,0-0.2l-1.7-1c-0.1,0-0.2,0-0.3,0L68.6,89c-0.1,0-0.1,0.1,0,0.2L70.4,90.1z
					 M68.6,104.2c-0.1,0-0.2,0-0.3,0l-2.8,1.6c-0.1,0-0.1,0.1,0,0.2l1.7,1c0.1,0,0.2,0,0.3,0l2.8-1.6c0.1,0,0.1-0.1,0-0.2
					L68.6,104.2z M66.5,92.4c0.1,0,0.2,0,0.3,0l1.8-1.1c0.1,0,0.1-0.1,0-0.2l-1.7-1c-0.1,0-0.2,0-0.3,0l-1.8,1.1
					c-0.1,0-0.1,0.1,0,0.2L66.5,92.4z M63.8,93.9c0.1,0,0.2,0,0.3,0l1.8-1.1c0.1,0,0.1-0.1,0-0.2l-1.7-1c-0.1,0-0.2,0-0.3,0
					l-1.8,1.1c-0.1,0-0.1,0.1,0,0.2L63.8,93.9z M118.2,75.6c-0.1,0-0.2,0-0.3,0l-4.5,2.6c-0.1,0-0.1,0.1,0,0.2l1.7,1
					c0.1,0,0.2,0,0.3,0l4.5-2.6c0.1,0,0.1-0.1,0-0.2L118.2,75.6z M112.3,79c-0.1,0-0.2,0-0.3,0l-1.8,1.1c-0.1,0-0.1,0.1,0,0.2l1.7,1
					c0.1,0,0.2,0,0.3,0l1.8-1.1c0.1,0,0.1-0.1,0-0.2L112.3,79z M76.2,99.1L78,98c0.1,0,0.1-0.1,0-0.2l-1.7-1c-0.1,0-0.2,0-0.3,0
					l-1.8,1.1c-0.1,0-0.1,0.1,0,0.2l1.7,1C76,99.1,76.1,99.1,76.2,99.1z M106.9,82.1c-0.1,0-0.2,0-0.3,0l-1.8,1.1
					c-0.1,0-0.1,0.1,0,0.2l1.7,1c0.1,0,0.2,0,0.3,0l1.8-1.1c0.1,0,0.1-0.1,0-0.2L106.9,82.1z M120.8,74c-0.1,0-0.2,0-0.3,0l-1.8,1.1
					c-0.1,0-0.1,0.1,0,0.2l1.7,1c0.1,0,0.2,0,0.3,0l1.8-1.1c0.1,0,0.1-0.1,0-0.2L120.8,74z M125.3,73.5L121,71c-0.1,0-0.2,0-0.3,0
					l-1.8,1.1c-0.1,0-0.1,0.1,0,0.2l4.3,2.5c0.1,0,0.2,0,0.3,0l1.8-1.1C125.3,73.6,125.3,73.5,125.3,73.5z M96.9,87.8
					c-0.1,0-0.2,0-0.3,0l-2.3,1.3c-0.1,0-0.1,0.1,0,0.2l1.7,1c0.1,0,0.2,0,0.3,0l2.3-1.3c0.1,0,0.1-0.1,0-0.2L96.9,87.8z
					 M103.7,83.9c-0.1,0-0.2,0-0.3,0l-2.8,1.6c-0.1,0-0.1,0.1,0,0.2l1.7,1c0.1,0,0.2,0,0.3,0l2.8-1.6c0.1,0,0.1-0.1,0-0.2
					L103.7,83.9z M90.7,91.4c-0.1,0-0.2,0-0.3,0l-15.1,8.7c-0.1,0-0.1,0.1,0,0.2l1.7,1c0.1,0,0.2,0,0.3,0l15.1-8.7
					c0.1,0,0.1-0.1,0-0.2L90.7,91.4z M74.8,100.6c-0.1,0-0.2,0-0.3,0l-2.3,1.3c-0.1,0-0.1,0.1,0,0.2l1.7,1c0.1,0,0.2,0,0.3,0
					l2.3-1.3c0.1,0,0.1-0.1,0-0.2L74.8,100.6z M93.8,89.6c-0.1,0-0.2,0-0.3,0l-2.3,1.3c-0.1,0-0.1,0.1,0,0.2l1.7,1
					c0.1,0,0.2,0,0.3,0l2.3-1.3c0.1,0,0.1-0.1,0-0.2L93.8,89.6z M71.7,102.4c-0.1,0-0.2,0-0.3,0l-2.3,1.3c-0.1,0-0.1,0.1,0,0.2
					l1.7,1c0.1,0,0.2,0,0.3,0l2.3-1.3c0.1,0,0.1-0.1,0-0.2L71.7,102.4z M100,86.1c-0.1,0-0.2,0-0.3,0l-2.3,1.3c-0.1,0-0.1,0.1,0,0.2
					l1.7,1c0.1,0,0.2,0,0.3,0l2.3-1.3c0.1,0,0.1-0.1,0-0.2L100,86.1z M109.6,80.5c-0.1,0-0.2,0-0.3,0l-1.8,1.1c-0.1,0-0.1,0.1,0,0.2
					l1.7,1c0.1,0,0.2,0,0.3,0l1.8-1.1c0.1,0,0.1-0.1,0-0.2L109.6,80.5z M115.6,76.3l1.8-1.1c0.1,0,0.1-0.1,0-0.2l-1.7-1
					c-0.1,0-0.2,0-0.3,0l-1.8,1.1c-0.1,0-0.1,0.1,0,0.2l1.7,1C115.4,76.4,115.5,76.4,115.6,76.3z M104.7,76.9l1.8-1.1
					c0.1,0,0.1-0.1,0-0.2l-1.7-1c-0.1,0-0.2,0-0.3,0l-1.8,1.1c-0.1,0-0.1,0.1,0,0.2l1.7,1C104.5,76.9,104.6,76.9,104.7,76.9z
					 M97.6,86.7l5.3-3.1c0.1,0,0.1-0.1,0-0.2l-1.7-1c-0.1,0-0.2,0-0.3,0l-5.3,3.1c-0.1,0-0.1,0.1,0,0.2l1.7,1
					C97.4,86.8,97.5,86.8,97.6,86.7z M112.6,77.9c0.1,0,0.2,0,0.3,0l1.8-1.1c0.1,0,0.1-0.1,0-0.2l-1.7-1c-0.1,0-0.2,0-0.3,0
					l-1.8,1.1c-0.1,0-0.1,0.1,0,0.2L112.6,77.9z M110.4,76.4l1.8-1.1c0.1,0,0.1-0.1,0-0.2l-1.7-1c-0.1,0-0.2,0-0.3,0l-1.8,1.1
					c-0.1,0-0.1,0.1,0,0.2l1.7,1C110.2,76.5,110.3,76.5,110.4,76.4z M94.9,88.3l1.8-1.1c0.1,0,0.1-0.1,0-0.2l-1.7-1
					c-0.1,0-0.2,0-0.3,0l-1.8,1.1c-0.1,0-0.1,0.1,0,0.2l1.7,1C94.7,88.3,94.8,88.3,94.9,88.3z M106.7,81.3c0.1,0,0.2,0,0.3,0
					l1.8-1.1c0.1,0,0.1-0.1,0-0.2l-1.7-1c-0.1,0-0.2,0-0.3,0l-1.8,1.1c-0.1,0-0.1,0.1,0,0.2L106.7,81.3z M81.5,96l1.8-1.1
					c0.1,0,0.1-0.1,0-0.2l-1.7-1c-0.1,0-0.2,0-0.3,0l-1.8,1.1c-0.1,0-0.1,0.1,0,0.2l1.7,1C81.3,96.1,81.4,96.1,81.5,96z M84.2,94.5
					l1.8-1.1c0.1,0,0.1-0.1,0-0.2l-1.7-1c-0.1,0-0.2,0-0.3,0l-1.8,1.1c-0.1,0-0.1,0.1,0,0.2l1.7,1C84,94.5,84.1,94.5,84.2,94.5z
					 M78.8,97.6l1.8-1.1c0.1,0,0.1-0.1,0-0.2l-1.7-1c-0.1,0-0.2,0-0.3,0l-1.8,1.1c-0.1,0-0.1,0.1,0,0.2l1.7,1
					C78.6,97.6,78.8,97.6,78.8,97.6z M89.5,91.4l1.8-1.1c0.1,0,0.1-0.1,0-0.2l-1.7-1c-0.1,0-0.2,0-0.3,0l-1.8,1.1
					c-0.1,0-0.1,0.1,0,0.2l1.7,1C89.3,91.4,89.5,91.4,89.5,91.4z M86.9,92.9l1.8-1.1c0.1,0,0.1-0.1,0-0.2l-1.7-1c-0.1,0-0.2,0-0.3,0
					l-1.8,1.1c-0.1,0-0.1,0.1,0,0.2l1.7,1C86.7,93,86.8,93,86.9,92.9z M92.2,89.8l1.8-1.1c0.1,0,0.1-0.1,0-0.2l-1.7-1
					c-0.1,0-0.2,0-0.3,0l-1.8,1.1c-0.1,0-0.1,0.1,0,0.2l1.7,1C92,89.9,92.1,89.9,92.2,89.8z M106.8,68.4c0.1,0,0.2,0,0.3,0l1.8-1.1
					c0.1,0,0.1-0.1,0-0.2l-0.5-0.3c-0.1,0-0.2,0-0.3,0l-1.8,1.1c-0.1,0-0.1,0.1,0,0.2L106.8,68.4z M93.5,76.8c0.1,0,0.2,0,0.3,0
					l1.8-1.1c0.1,0,0.1-0.1,0-0.2l-1.7-1c-0.1,0-0.2,0-0.3,0l-1.8,1.1c-0.1,0-0.1,0.1,0,0.2L93.5,76.8z M98.9,73.7
					c0.1,0,0.2,0,0.3,0l1.8-1.1c0.1,0,0.1-0.1,0-0.2l-1.7-1c-0.1,0-0.2,0-0.3,0l-1.8,1.1c-0.1,0-0.1,0.1,0,0.2L98.9,73.7z
					 M90.2,78.7c0.1,0,0.2,0,0.3,0l1.8-1.1c0.1,0,0.1-0.1,0-0.2l-1.7-1c-0.1,0-0.2,0-0.3,0l-1.8,1.1c-0.1,0-0.1,0.1,0,0.2L90.2,78.7
					z M96.2,75.2c0.1,0,0.2,0,0.3,0l1.8-1.1c0.1,0,0.1-0.1,0-0.2l-1.7-1c-0.1,0-0.2,0-0.3,0l-1.8,1.1c-0.1,0-0.1,0.1,0,0.2
					L96.2,75.2z M84.9,81.7c0.1,0,0.2,0,0.3,0l1.8-1.1c0.1,0,0.1-0.1,0-0.2l-1.7-1c-0.1,0-0.2,0-0.3,0l-1.8,1.1
					c-0.1,0-0.1,0.1,0,0.2L84.9,81.7z M87.6,80.2c0.1,0,0.2,0,0.3,0l1.8-1.1c0.1,0,0.1-0.1,0-0.2l-1.7-1c-0.1,0-0.2,0-0.3,0L85.8,79
					c-0.1,0-0.1,0.1,0,0.2L87.6,80.2z M101.5,71.4c0.1,0,0.2,0,0.3,0l1.8-1.1c0.1,0,0.1-0.1,0-0.2l-0.5-0.3c-0.1,0-0.2,0-0.3,0
					L101,71c-0.1,0-0.1,0.1,0,0.2L101.5,71.4z M109.5,66.8c0.1,0,0.2,0,0.3,0l1.8-1.1c0.1,0,0.1-0.1,0-0.2l-0.5-0.3
					c-0.1,0-0.2,0-0.3,0l-1.8,1.1c-0.1,0-0.1,0.1,0,0.2L109.5,66.8z M113.2,68.9c0.1,0,0.2,0,0.3,0l1.8-1.1c0.1,0,0.1-0.1,0-0.2
					l-1.7-1c-0.1,0-0.2,0-0.3,0l-1.8,1.1c-0.1,0-0.1,0.1,0,0.2L113.2,68.9z M118.2,74.8l1.8-1.1c0.1,0,0.1-0.1,0-0.2l-1.7-1
					c-0.1,0-0.2,0-0.3,0l-1.8,1.1c-0.1,0-0.1,0.1,0,0.2l1.7,1C118,74.9,118.2,74.8,118.2,74.8z M104.1,69.9c0.1,0,0.2,0,0.3,0
					l1.8-1.1c0.1,0,0.1-0.1,0-0.2l-0.5-0.3c-0.1,0-0.2,0-0.3,0l-1.8,1.1c-0.1,0-0.1,0.1,0,0.2L104.1,69.9z M82.2,83.3
					c0.1,0,0.2,0,0.3,0l1.8-1.1c0.1,0,0.1-0.1,0-0.2l-1.7-1c-0.1,0-0.2,0-0.3,0l-1.8,1.1c-0.1,0-0.1,0.1,0,0.2L82.2,83.3z"/>
			</g>
			<polygon id="XMLID_368_" class="st2" points="90.1,97.1 90.5,97.3 100.5,103.1 118.2,92.8 118.6,92.6 108.2,86.6 			"/>
			<g id="XMLID_259_">
				<polygon id="XMLID_367_" class="st4" points="90.5,97.3 100.5,103.1 118.2,92.8 108.2,87.1 				"/>
			</g>
			<g>
				<path class="st6" d="M49.3,48.3c0.4-0.2,0.8-0.4,1.2-0.4c0.4,0,0.7,0.1,0.9,0.2c0.3,0.1,0.5,0.4,0.6,0.6
					c0.1,0.3,0.2,0.6,0.2,0.9c0,0.1,0,0.2-0.1,0.3c0,0.1-0.1,0.2-0.1,0.2l-1.3,0.7c-0.1,0.1-0.2,0.1-0.2,0.1c-0.1,0-0.1,0-0.2-0.1
					c0,0-0.1-0.1-0.1-0.1c0,0-0.1-0.1-0.2-0.1c-0.1,0-0.2,0-0.3,0c-0.1,0-0.3,0.1-0.4,0.2c-0.1,0.1-0.2,0.2-0.4,0.2
					c-0.1,0.1-0.2,0.2-0.3,0.3c-0.1,0.1-0.2,0.2-0.2,0.4c-0.1,0.1-0.1,0.3-0.1,0.4s0,0.3,0.1,0.3s0.2,0.1,0.3,0.1s0.3,0,0.6-0.1
					c0.2-0.1,0.5-0.1,0.9-0.2c0.4-0.1,0.7-0.1,1-0.1c0.3,0,0.5,0.1,0.7,0.3c0.2,0.2,0.3,0.4,0.4,0.7c0.1,0.3,0.1,0.7,0.1,1.2
					c0,0.5-0.1,1-0.2,1.5c-0.2,0.5-0.4,1-0.6,1.4c-0.3,0.4-0.6,0.9-1,1.2c-0.4,0.4-0.8,0.7-1.2,0.9c-0.4,0.3-0.9,0.4-1.2,0.4
					c-0.4,0-0.7,0-1-0.2c-0.3-0.1-0.5-0.4-0.6-0.6c-0.2-0.3-0.2-0.6-0.2-1c0-0.1,0-0.2,0.1-0.3c0-0.1,0.1-0.2,0.1-0.2l1.3-0.7
					c0.1-0.1,0.2-0.1,0.2-0.1c0.1,0,0.1,0,0.2,0.1c0,0,0.1,0.1,0.1,0.1c0.1,0.1,0.1,0.1,0.2,0.2c0.1,0,0.2,0.1,0.3,0.1
					c0.1,0,0.3-0.1,0.5-0.2c0.3-0.2,0.6-0.4,0.9-0.7c0.2-0.3,0.3-0.5,0.3-0.8c0-0.2,0-0.3-0.1-0.3c-0.1-0.1-0.2-0.1-0.4-0.1
					c-0.2,0-0.4,0.1-0.7,0.1c-0.3,0.1-0.6,0.2-0.9,0.2c-0.7,0.2-1.2,0.1-1.5-0.3c-0.3-0.3-0.5-0.9-0.5-1.8c0-0.4,0.1-0.9,0.2-1.4
					c0.1-0.5,0.3-0.9,0.6-1.4c0.2-0.4,0.5-0.9,0.9-1.2C48.5,48.8,48.8,48.5,49.3,48.3z"/>
				<path class="st6" d="M57.9,43.4c0.1,0,0.1,0,0.2,0c0.1,0.1,0.1,0.1,0.1,0.2v1.6c0,0.1,0,0.2-0.1,0.3c-0.1,0.1-0.1,0.2-0.2,0.2
					l-1.7,1v7.8c0,0.1,0,0.2-0.1,0.3c-0.1,0.1-0.1,0.2-0.2,0.2l-1.3,0.7c-0.1,0-0.1,0-0.2,0c-0.1-0.1-0.1-0.1-0.1-0.2v-7.8l-1.7,1
					c-0.1,0-0.1,0-0.2,0c-0.1-0.1-0.1-0.1-0.1-0.2V47c0-0.1,0-0.2,0.1-0.3c0.1-0.1,0.1-0.2,0.2-0.2L57.9,43.4z"/>
				<path class="st6" d="M61.7,41.2c0.1-0.1,0.2-0.1,0.3,0c0.1,0.1,0.1,0.2,0.1,0.3l2.2,8.3c0,0.1,0,0.2,0,0.2c0,0.1,0,0.2-0.1,0.3
					c0,0.1-0.1,0.2-0.2,0.2l-1.2,0.7c-0.1,0.1-0.2,0.1-0.3,0c-0.1-0.1-0.1-0.1-0.1-0.2l-0.3-1.1l-2.6,1.5l-0.3,1.4
					c0,0.1,0,0.2-0.1,0.3c-0.1,0.1-0.2,0.2-0.3,0.3l-1.2,0.7c-0.1,0-0.1,0-0.2,0c0,0-0.1-0.1-0.1-0.2c0-0.1,0-0.1,0-0.3l2.2-10.8
					c0-0.1,0.1-0.3,0.1-0.4c0.1-0.2,0.2-0.3,0.3-0.3L61.7,41.2z M60.1,48.8l1.6-0.9l-0.8-3.2L60.1,48.8z"/>
				<path class="st6" d="M67.7,37.7c0.4-0.3,0.8-0.4,1.2-0.5c0.3-0.1,0.6,0,0.9,0.1s0.4,0.4,0.6,0.8s0.2,0.8,0.2,1.4
					c0,0.8-0.1,1.5-0.3,2.1c-0.2,0.6-0.5,1.2-0.9,1.7l1.2,2.9c0,0.1,0,0.1,0,0.2c0,0.1,0,0.2-0.1,0.3c0,0.1-0.1,0.2-0.2,0.2L69,47.6
					c-0.1,0.1-0.2,0.1-0.3,0c-0.1-0.1-0.1-0.1-0.1-0.2l-1.1-2.6l-0.9,0.5v3.3c0,0.1,0,0.2-0.1,0.3c-0.1,0.1-0.1,0.2-0.2,0.2L65,49.9
					c-0.1,0-0.1,0-0.2,0c-0.1-0.1-0.1-0.1-0.1-0.2v-9.8c0-0.1,0-0.2,0.1-0.3c0.1-0.1,0.1-0.2,0.2-0.2L67.7,37.7z M66.6,43l1.1-0.6
					c0.3-0.2,0.5-0.4,0.7-0.6c0.2-0.3,0.3-0.6,0.3-1c0-0.4-0.1-0.7-0.3-0.7c-0.2-0.1-0.4,0-0.7,0.2l-1.1,0.6
					C66.6,40.7,66.6,43,66.6,43z"/>
				<path class="st6" d="M76.3,32.8c0.1,0,0.1,0,0.2,0c0.1,0.1,0.1,0.1,0.1,0.2v1.6c0,0.1,0,0.2-0.1,0.3c-0.1,0.1-0.1,0.2-0.2,0.2
					l-1.7,1V44c0,0.1,0,0.2-0.1,0.3c-0.1,0.1-0.1,0.2-0.2,0.2L73,45.3c-0.1,0-0.1,0-0.2,0c-0.1-0.1-0.1-0.1-0.1-0.2v-7.8l-1.7,1
					c-0.1,0-0.1,0-0.2,0c-0.1-0.1-0.1-0.1-0.1-0.2v-1.6c0-0.1,0-0.2,0.1-0.3c0.1-0.1,0.1-0.2,0.2-0.2L76.3,32.8z"/>
				<path class="st6" d="M52.4,61.8c0.1,0,0.1,0,0.2,0c0.1,0.1,0.1,0.1,0.1,0.2v6.1c0,0.7-0.1,1.4-0.2,2c-0.1,0.6-0.3,1.2-0.6,1.7
					c-0.3,0.5-0.6,1-1,1.4c-0.4,0.4-0.8,0.7-1.2,1c-0.4,0.3-0.9,0.4-1.2,0.4c-0.4,0-0.7-0.1-0.9-0.3c-0.3-0.2-0.5-0.5-0.6-1
					s-0.2-1-0.2-1.7v-6.1c0-0.1,0-0.2,0.1-0.3s0.1-0.2,0.2-0.2l1.3-0.7c0.1,0,0.1,0,0.2,0c0.1,0.1,0.1,0.1,0.1,0.2v6
					c0,0.6,0.1,1,0.3,1.3c0.2,0.2,0.5,0.2,0.9,0c0.4-0.2,0.7-0.6,0.9-1c0.2-0.5,0.3-1,0.3-1.6v-6c0-0.1,0-0.2,0.1-0.3
					c0.1-0.1,0.1-0.2,0.2-0.2L52.4,61.8z"/>
				<path class="st6" d="M56.8,59.2c0.4-0.2,0.8-0.4,1.1-0.4c0.3,0,0.6,0,0.9,0.2c0.2,0.2,0.4,0.4,0.5,0.8c0.1,0.4,0.2,0.9,0.2,1.4
					c0,0.6-0.1,1.2-0.2,1.7c-0.1,0.5-0.3,1-0.5,1.4c-0.2,0.4-0.5,0.8-0.9,1.2c-0.3,0.3-0.7,0.6-1.1,0.9l-1.3,0.7v3.1
					c0,0.1,0,0.2-0.1,0.3c-0.1,0.1-0.1,0.2-0.2,0.2L54,71.5c-0.1,0-0.1,0-0.2,0c-0.1-0.1-0.1-0.1-0.1-0.2v-9.8c0-0.1,0-0.2,0.1-0.3
					s0.1-0.2,0.2-0.2L56.8,59.2z M55.5,64.7l1.2-0.7c0.3-0.2,0.5-0.4,0.7-0.7c0.2-0.3,0.3-0.7,0.3-1.1c0-0.4-0.1-0.7-0.3-0.8
					c-0.2-0.1-0.4,0-0.7,0.1l-1.2,0.7V64.7z"/>
			</g>
		</g>
	</g>
	<g id="Rocket_1_">
		<g id="Rocket">
			<g id="XMLID_5167_">
				<ellipse id="XMLID_5223_" class="st6" cx="90.1" cy="89" rx="15.1" ry="6.2"/>
				<ellipse id="XMLID_5222_" class="st6" cx="90.1" cy="89" rx="15.1" ry="6.2"/>
				<ellipse id="XMLID_5220_" class="st7" cx="91.4" cy="89" rx="16.3" ry="6.7"/>
				<g id="XMLID_5207_">
					<path id="XMLID_5218_" class="st6" d="M74.8,85.8c0.1-3.6,3.1-6.5,6.7-6.5c3.6,0,6.6,2.9,6.7,6.5c0,0.1,0,0.1,0,0.2
						c0,0.1,0,0.1,0,0.2c-0.1,0.9-0.7,1.8-2,2.5c-2.6,1.5-6.9,1.5-9.5,0c-1.2-0.7-1.9-1.6-2-2.5c0-0.1,0-0.1,0-0.2
						C74.8,86,74.8,85.9,74.8,85.8z"/>
					<path id="XMLID_5216_" class="st8" d="M74.8,85.8c0.1-3.6,3.1-6.5,6.7-6.5c3.6,0,6.6,2.9,6.7,6.5c0,0.1,0,0.1,0,0.2
						c0,0.1,0,0.1,0,0.2c-0.1,0.9-0.7,1.8-2,2.5c-2.6,1.5-6.9,1.5-9.5,0c-1.2-0.7-1.9-1.6-2-2.5c0-0.1,0-0.1,0-0.2
						C74.8,86,74.8,85.9,74.8,85.8z"/>
					<path id="XMLID_5214_" class="st9" d="M78.6,80L78.6,80c0.9-0.4,1.9-0.7,2.9-0.7c3.6,0,6.6,2.9,6.7,6.5c0,0.1,0,0.1,0,0.2
						c0,0.1,0,0.1,0,0.2c-0.1,0.9-0.7,1.8-2,2.5c-1,0.6-2.1,0.9-3.4,1c1.7-0.3,2.9-2.2,2.3-4.4C84.6,82.9,82.1,79.3,78.6,80z"/>
					<path id="XMLID_5212_" class="st10" d="M74.8,86.2c0-0.1,0-0.1,0-0.2c0-0.1,0-0.1,0-0.2c0.1-1.9,0.9-3.6,2.3-4.8
						c-0.7,0.7-2.3,3.6-0.6,5.7c1.2,1.4,6.6,3.4,11.2,0.8c-0.3,0.4-0.8,0.8-1.4,1.2c-2.6,1.5-6.9,1.5-9.5,0
						C75.5,88,74.9,87.1,74.8,86.2z"/>
					<path id="XMLID_5210_" class="st11" d="M81.6,80.8c-0.3,0.7,0.3,1.6,1.3,2c1,0.4,2.1,0.2,2.4-0.4c0.3-0.7-0.3-1.6-1.3-2
						C82.9,79.9,81.9,80.1,81.6,80.8z"/>
					<path id="XMLID_5208_" class="st11" d="M85.4,83.6c-0.2,0.4,0.1,0.8,0.5,1s0.9,0.1,1.1-0.3c0.2-0.4-0.1-0.8-0.5-1
						C86.1,83.1,85.6,83.2,85.4,83.6z"/>
				</g>
				<g id="XMLID_5194_">
					<path id="XMLID_5205_" class="st6" d="M102.8,85.7c-0.1-3.1-2.6-5.5-5.7-5.5c-3.1,0-5.6,2.5-5.7,5.5c0,0.1,0,0.1,0,0.2
						s0,0.1,0,0.2c0.1,0.8,0.6,1.6,1.7,2.2c2.2,1.3,5.8,1.3,8,0c1-0.6,1.6-1.4,1.7-2.2c0-0.1,0-0.1,0-0.2
						C102.8,85.8,102.8,85.8,102.8,85.7z"/>
					<path id="XMLID_5203_" class="st8" d="M102.8,85.7c-0.1-3.1-2.6-5.5-5.7-5.5c-3.1,0-5.6,2.5-5.7,5.5c0,0.1,0,0.1,0,0.2
						s0,0.1,0,0.2c0.1,0.8,0.6,1.6,1.7,2.2c2.2,1.3,5.8,1.3,8,0c1-0.6,1.6-1.4,1.7-2.2c0-0.1,0-0.1,0-0.2
						C102.8,85.8,102.8,85.8,102.8,85.7z"/>
					<path id="XMLID_5201_" class="st9" d="M99.6,80.8L99.6,80.8c-0.7-0.4-1.6-0.6-2.5-0.6c-3.1,0-5.6,2.5-5.7,5.5
						c0,0.1,0,0.1,0,0.2s0,0.1,0,0.2c0.1,0.8,0.6,1.6,1.7,2.2c0.8,0.5,1.8,0.8,2.9,0.9c-1.5-0.3-2.4-1.9-2-3.7
						C94.5,83.3,96.6,80.2,99.6,80.8z"/>
					<path id="XMLID_5199_" class="st10" d="M102.8,86c0-0.1,0-0.1,0-0.2s0-0.1,0-0.2c0-1.6-0.8-3.1-1.9-4.1c0.6,0.6,2,3,0.5,4.9
						c-1,1.2-5.6,2.9-9.5,0.7c0.3,0.4,0.7,0.7,1.2,1c2.2,1.3,5.8,1.3,8,0C102.2,87.6,102.7,86.8,102.8,86z"/>
					<path id="XMLID_5197_" class="st11" d="M97,81.5c0.3,0.6-0.2,1.4-1.1,1.7c-0.9,0.4-1.8,0.2-2-0.4s0.2-1.4,1.1-1.7
						C95.9,80.7,96.8,80.9,97,81.5z"/>
					<path id="XMLID_5195_" class="st11" d="M93.7,83.8c0.1,0.3-0.1,0.7-0.4,0.8c-0.4,0.2-0.8,0.1-0.9-0.3c-0.1-0.3,0.1-0.7,0.4-0.8
						C93.2,83.4,93.6,83.5,93.7,83.8z"/>
				</g>
				<g id="XMLID_5181_">
					<path id="XMLID_5192_" class="st6" d="M108.3,86.4c-0.1-2-1.7-3.7-3.8-3.7s-3.7,1.6-3.8,3.7c0,0,0,0.1,0,0.1c0,0,0,0.1,0,0.1
						c0,0.5,0.4,1,1.1,1.4c1.5,0.8,3.9,0.8,5.3,0c0.7-0.4,1.1-0.9,1.1-1.4c0,0,0-0.1,0-0.1C108.3,86.4,108.3,86.4,108.3,86.4z"/>
					<path id="XMLID_5190_" class="st7" d="M108.3,86.4c-0.1-2-1.7-3.7-3.8-3.7s-3.7,1.6-3.8,3.7c0,0,0,0.1,0,0.1c0,0,0,0.1,0,0.1
						c0,0.5,0.4,1,1.1,1.4c1.5,0.8,3.9,0.8,5.3,0c0.7-0.4,1.1-0.9,1.1-1.4c0,0,0-0.1,0-0.1C108.3,86.4,108.3,86.4,108.3,86.4z"/>
					<path id="XMLID_5188_" class="st11" d="M106.2,83.1L106.2,83.1c-0.5-0.2-1-0.4-1.6-0.4c-2,0-3.7,1.6-3.8,3.7c0,0,0,0.1,0,0.1
						c0,0,0,0.1,0,0.1c0,0.5,0.4,1,1.1,1.4c0.5,0.3,1.2,0.5,1.9,0.6c-1-0.2-1.6-1.3-1.3-2.5C102.8,84.8,104.3,82.7,106.2,83.1z"/>
					<path id="XMLID_5186_" class="st10" d="M108.3,86.6c0,0,0-0.1,0-0.1c0,0,0-0.1,0-0.1c0-1.1-0.5-2-1.3-2.7
						c0.4,0.4,1.3,2,0.3,3.2c-0.6,0.8-3.7,1.9-6.3,0.5c0.2,0.2,0.4,0.5,0.8,0.7c1.5,0.8,3.9,0.8,5.3,0
						C107.9,87.6,108.3,87.1,108.3,86.6z"/>
					<path id="XMLID_5184_" class="st11" d="M104.5,83.6c0.2,0.4-0.2,0.9-0.7,1.1c-0.6,0.2-1.2,0.1-1.3-0.2
						c-0.2-0.4,0.2-0.9,0.7-1.1C103.8,83.1,104.4,83.2,104.5,83.6z"/>
					<path id="XMLID_5182_" class="st11" d="M102.4,85.1c0.1,0.2,0,0.4-0.3,0.6c-0.2,0.1-0.5,0-0.6-0.2c-0.1-0.2,0-0.4,0.3-0.6
						C102,84.9,102.3,84.9,102.4,85.1z"/>
				</g>
				<g id="XMLID_5168_">
					<path id="XMLID_5179_" class="st6" d="M116.3,88c-0.1-2.8-2.3-5-5.1-5c-2.8,0-5,2.2-5.1,5c0,0.1,0,0.1,0,0.1c0,0.1,0,0.1,0,0.1
						c0.1,0.7,0.6,1.4,1.5,1.9c2,1.2,5.2,1.2,7.2,0c0.9-0.5,1.4-1.2,1.5-1.9c0-0.1,0-0.1,0-0.1C116.3,88.1,116.3,88.1,116.3,88z"/>
					<path id="XMLID_5177_" class="st12" d="M116.3,88c-0.1-2.8-2.3-5-5.1-5c-2.8,0-5,2.2-5.1,5c0,0.1,0,0.1,0,0.1
						c0,0.1,0,0.1,0,0.1c0.1,0.7,0.6,1.4,1.5,1.9c2,1.2,5.2,1.2,7.2,0c0.9-0.5,1.4-1.2,1.5-1.9c0-0.1,0-0.1,0-0.1
						C116.3,88.1,116.3,88.1,116.3,88z"/>
					<path id="XMLID_5175_" class="st9" d="M113.5,83.6L113.5,83.6c-0.7-0.3-1.4-0.5-2.2-0.5c-2.8,0-5,2.2-5.1,5c0,0.1,0,0.1,0,0.1
						c0,0.1,0,0.1,0,0.1c0.1,0.7,0.6,1.4,1.5,1.9c0.7,0.4,1.6,0.7,2.6,0.8c-1.3-0.2-2.2-1.7-1.8-3.3
						C108.9,85.8,110.8,83.1,113.5,83.6z"/>
					<path id="XMLID_5173_" class="st10" d="M116.3,88.3c0-0.1,0-0.1,0-0.1s0-0.1,0-0.1c0-1.5-0.7-2.8-1.7-3.7
						c0.6,0.6,1.8,2.7,0.4,4.4c-0.9,1.1-5.1,2.6-8.5,0.6c0.2,0.3,0.6,0.6,1.1,0.9c2,1.2,5.2,1.2,7.2,0
						C115.8,89.7,116.3,89,116.3,88.3z"/>
					<path id="XMLID_5171_" class="st11" d="M111.2,84.2c0.2,0.5-0.2,1.2-1,1.6c-0.8,0.3-1.6,0.2-1.8-0.3s0.2-1.2,1-1.6
						C110.1,83.5,111,83.7,111.2,84.2z"/>
					<path id="XMLID_5169_" class="st11" d="M108.2,86.3c0.1,0.3-0.1,0.6-0.4,0.8c-0.3,0.1-0.7,0-0.8-0.2s0.1-0.6,0.4-0.8
						C107.7,85.9,108.1,86,108.2,86.3z"/>
				</g>
			</g>
			<g id="XMLID_5125_">
				<path id="XMLID_5164_" class="st6" d="M96.3,76.9c0,1.9-0.8,3.5-2.2,4.7c-0.9,0.8-1.4,1.8-1.4,3V97c0,0.4-0.2,0.7-0.7,1
					c-0.3,0.2-0.6,0.3-0.9,0.3c-0.6,0.1-1.2,0.1-1.7,0c-0.3-0.1-0.7-0.2-0.9-0.3c-0.5-0.3-0.7-0.7-0.7-1V84.6c0-1.2-0.6-2.2-1.4-3
					c-1.3-1.1-2.2-2.8-2.2-4.7c0-3.2,2.6-5.9,5.8-6.1C93.3,70.6,96.3,73.4,96.3,76.9z"/>
				<path id="XMLID_5161_" class="st11" d="M96.3,76.9c0,1.9-0.8,3.5-2.2,4.7c-0.9,0.8-1.4,1.8-1.4,3V97c0,0.4-0.2,0.7-0.7,1
					c-0.3,0.2-0.6,0.3-0.9,0.3c-0.6,0.1-1.2,0.1-1.7,0c-0.3-0.1-0.7-0.2-0.9-0.3c-0.5-0.3-0.7-0.7-0.7-1V84.6c0-1.2-0.6-2.2-1.4-3
					c-1.3-1.1-2.2-2.8-2.2-4.7c0-3.2,2.6-5.9,5.8-6.1C93.3,70.6,96.3,73.4,96.3,76.9z"/>
				<path id="XMLID_4458_" class="st13" d="M96.3,76.9c0,1.9-0.8,3.5-2.2,4.7c-0.9,0.8-1.4,1.8-1.4,3V97c0,0.4-0.2,0.7-0.7,1
					c-0.3,0.2-0.6,0.3-0.9,0.3c-0.6,0.1-1.2,0.1-1.7,0c-0.3-0.1-0.7-0.2-0.9-0.3c-0.5-0.3-0.7-0.7-0.7-1V84.6c0-1.2-0.6-2.2-1.4-3
					c-1.3-1.1-2.2-2.8-2.2-4.7c0-3.2,2.6-5.9,5.8-6.1C93.3,70.6,96.3,73.4,96.3,76.9z"/>
				<path id="XMLID_5158_" class="st6" d="M93.6,76.9c0,1.1-0.6,2.2-1.4,2.8C91.4,80.2,91,81.1,91,82v15.4c0,0.5-0.4,0.9-0.8,0.9
					c0,0,0,0,0,0c-0.5,0-0.8-0.4-0.8-0.9V81.9c0-0.9-0.4-1.7-1.1-2.2c-0.9-0.6-1.5-1.7-1.4-2.9c0.1-1.8,1.5-3.2,3.3-3.3
					C92,73.4,93.6,75,93.6,76.9z"/>
				<path id="XMLID_5156_" class="st14" d="M93.6,76.9c0,1.1-0.6,2.2-1.4,2.8C91.4,80.2,91,81.1,91,82v15.4c0,0.5-0.4,0.9-0.8,0.9
					c0,0,0,0,0,0c-0.5,0-0.8-0.4-0.8-0.9V81.9c0-0.9-0.4-1.7-1.1-2.2c-0.9-0.6-1.5-1.7-1.4-2.9c0.1-1.8,1.5-3.2,3.3-3.3
					C92,73.4,93.6,75,93.6,76.9z"/>
				<circle id="XMLID_5153_" class="st12" cx="93.2" cy="79.8" r="1.3"/>
				<circle id="XMLID_5149_" class="st12" cx="92.7" cy="76" r="1"/>
				<path id="XMLID_5145_" class="st12" d="M89.9,74.5c0-0.3,0.2-0.5,0.5-0.5c0.3,0,0.5,0.2,0.5,0.5s-0.2,0.5-0.5,0.5
					C90.1,74.9,89.9,74.7,89.9,74.5z"/>
				<path id="XMLID_5141_" class="st12" d="M86,75c0-0.7,0.6-1.3,1.3-1.3s1.3,0.6,1.3,1.3c0,0.7-0.6,1.3-1.3,1.3S86,75.8,86,75z"/>
				<path id="XMLID_5138_" class="st12" d="M85.8,77.4c0,0.3,0.3,0.6,0.6,0.6c0.3,0,0.6-0.3,0.6-0.6c0-0.3-0.3-0.6-0.6-0.6
					C86.1,76.8,85.8,77.1,85.8,77.4z"/>
				<path id="XMLID_5136_" class="st12" d="M85.9,79.7c0-0.7,0.5-1.2,1.2-1.2c0.7,0,1.2,0.5,1.2,1.2c0,0.7-0.5,1.2-1.2,1.2
					C86.4,80.9,85.9,80.4,85.9,79.7z"/>
				<path id="XMLID_5134_" class="st12" d="M88.5,81.5c0-0.5,0.4-0.8,0.8-0.8c0.5,0,0.8,0.4,0.8,0.8s-0.4,0.8-0.8,0.8
					C88.9,82.3,88.5,81.9,88.5,81.5z"/>
				<circle id="XMLID_5132_" class="st12" cx="85" cy="76" r="0.4"/>
				<circle id="XMLID_5130_" class="st12" cx="94.3" cy="74.3" r="0.6"/>
				<path id="XMLID_5128_" class="st12" d="M94.3,77c0-0.3,0.2-0.6,0.6-0.6s0.6,0.2,0.6,0.6c0,0.3-0.2,0.6-0.6,0.6
					C94.5,77.5,94.3,77.3,94.3,77z"/>
				<path id="XMLID_5126_" class="st12" d="M88.5,77.4c0-0.3,0.2-0.6,0.6-0.6s0.6,0.2,0.6,0.6S89.4,78,89.1,78
					C88.8,78,88.5,77.7,88.5,77.4z"/>
			</g>
			<g id="XMLID_511_">
				<g id="XMLID_4347_">
					<path id="XMLID_4449_" class="st6" d="M122.1,88.9c0-1.7-1.4-3-3.1-3c-1.7,0-3.1,1.3-3.1,3c0,0,0,0.1,0,0.1s0,0.1,0,0.1
						c0,0.4,0.3,0.9,0.9,1.2c1.2,0.7,3.2,0.7,4.4,0c0.6-0.3,0.9-0.8,0.9-1.2C122.1,89,122.1,89,122.1,88.9
						C122.1,89,122.1,88.9,122.1,88.9z"/>
					<path id="XMLID_4445_" class="st11" d="M122.1,88.9c0-1.7-1.4-3-3.1-3c-1.7,0-3.1,1.3-3.1,3c0,0,0,0.1,0,0.1s0,0.1,0,0.1
						c0,0.4,0.3,0.9,0.9,1.2c1.2,0.7,3.2,0.7,4.4,0c0.6-0.3,0.9-0.8,0.9-1.2C122.1,89,122.1,89,122.1,88.9
						C122.1,89,122.1,88.9,122.1,88.9z"/>
					<path id="XMLID_4441_" class="st11" d="M120.3,86.2L120.3,86.2c-0.4-0.2-0.9-0.3-1.3-0.3c-1.7,0-3.1,1.3-3.1,3c0,0,0,0.1,0,0.1
						s0,0.1,0,0.1c0,0.4,0.3,0.9,0.9,1.2c0.4,0.3,1,0.4,1.6,0.5c-0.8-0.1-1.3-1-1.1-2C117.6,87.6,118.7,85.9,120.3,86.2z"/>
					<path id="XMLID_4437_" class="st15" d="M122.1,89.1C122.1,89,122.1,89,122.1,89.1c0-0.1,0-0.1,0-0.2c0-0.9-0.4-1.7-1.1-2.2
						c0.3,0.3,1.1,1.7,0.3,2.7c-0.5,0.7-3.1,1.6-5.2,0.4c0.2,0.2,0.4,0.4,0.7,0.6c1.2,0.7,3.2,0.7,4.4,0
						C121.8,89.9,122.1,89.5,122.1,89.1z"/>
					<path id="XMLID_4431_" class="st11" d="M119,86.6c0.1,0.3-0.1,0.7-0.6,0.9c-0.5,0.2-1,0.1-1.1-0.2c-0.1-0.3,0.1-0.7,0.6-0.9
						C118.3,86.2,118.8,86.3,119,86.6z"/>
					<path id="XMLID_4425_" class="st11" d="M117.2,87.9c0.1,0.2,0,0.4-0.2,0.5s-0.4,0-0.5-0.1c-0.1-0.2,0-0.4,0.2-0.5
						C116.9,87.6,117.1,87.7,117.2,87.9z"/>
				</g>
				<g id="XMLID_4198_">
					<path id="XMLID_4345_" class="st6" d="M117.4,91.5c-0.1-2.3-2-4.2-4.3-4.2c-2.3,0-4.2,1.9-4.3,4.2c0,0,0,0.1,0,0.1
						c0,0,0,0.1,0,0.1c0,0.6,0.5,1.2,1.3,1.6c1.7,1,4.4,1,6.1,0c0.8-0.5,1.2-1,1.3-1.6c0,0,0-0.1,0-0.1
						C117.4,91.5,117.4,91.5,117.4,91.5z"/>
					<path id="XMLID_4343_" class="st16" d="M117.4,91.5c-0.1-2.3-2-4.2-4.3-4.2c-2.3,0-4.2,1.9-4.3,4.2c0,0,0,0.1,0,0.1
						c0,0,0,0.1,0,0.1c0,0.6,0.5,1.2,1.3,1.6c1.7,1,4.4,1,6.1,0c0.8-0.5,1.2-1,1.3-1.6c0,0,0-0.1,0-0.1
						C117.4,91.5,117.4,91.5,117.4,91.5z"/>
					<path id="XMLID_4341_" class="st11" d="M115,87.7L115,87.7c-0.6-0.3-1.2-0.4-1.9-0.4c-2.3,0-4.2,1.9-4.3,4.2c0,0,0,0.1,0,0.1
						s0,0.1,0,0.1c0,0.6,0.5,1.2,1.3,1.6c0.6,0.4,1.4,0.6,2.2,0.7c-1.1-0.2-1.8-1.4-1.5-2.8C111.2,89.6,112.8,87.3,115,87.7z"/>
					<path id="XMLID_4339_" class="st10" d="M117.4,91.7c0,0,0-0.1,0-0.1s0-0.1,0-0.1c0-1.2-0.6-2.3-1.5-3.1
						c0.5,0.5,1.5,2.3,0.4,3.7c-0.7,0.9-4.3,2.2-7.1,0.5c0.2,0.3,0.5,0.5,0.9,0.8c1.7,1,4.4,1,6.1,0C117,92.9,117.4,92.3,117.4,91.7
						z"/>
					<path id="XMLID_4243_" class="st9" d="M113.1,88.3c0.2,0.4-0.2,1-0.8,1.3c-0.6,0.3-1.3,0.2-1.5-0.3c-0.2-0.4,0.2-1,0.8-1.3
						C112.2,87.7,112.9,87.8,113.1,88.3z"/>
					<path id="XMLID_4202_" class="st9" d="M110.6,90c0.1,0.2,0,0.5-0.3,0.6c-0.3,0.1-0.6,0-0.7-0.2c-0.1-0.2,0-0.5,0.3-0.6
						C110.2,89.7,110.5,89.8,110.6,90z"/>
				</g>
				<g id="XMLID_4155_">
					<path id="XMLID_4194_" class="st6" d="M109.8,93.5c-0.1-2.9-2.4-5.2-5.3-5.2c-2.9,0-5.2,2.3-5.3,5.2c0,0.1,0,0.1,0,0.1
						s0,0.1,0,0.1c0.1,0.7,0.6,1.5,1.6,2c2.1,1.2,5.4,1.2,7.5,0c1-0.6,1.5-1.3,1.6-2c0-0.1,0-0.1,0-0.1
						C109.8,93.6,109.8,93.6,109.8,93.5z"/>
					<path id="XMLID_4192_" class="st8" d="M109.8,93.5c-0.1-2.9-2.4-5.2-5.3-5.2c-2.9,0-5.2,2.3-5.3,5.2c0,0.1,0,0.1,0,0.1
						s0,0.1,0,0.1c0.1,0.7,0.6,1.5,1.6,2c2.1,1.2,5.4,1.2,7.5,0c1-0.6,1.5-1.3,1.6-2c0-0.1,0-0.1,0-0.1
						C109.8,93.6,109.8,93.6,109.8,93.5z"/>
					<path id="XMLID_4190_" class="st9" d="M106.8,88.9L106.8,88.9c-0.7-0.3-1.5-0.5-2.3-0.5c-2.9,0-5.2,2.3-5.3,5.2
						c0,0.1,0,0.1,0,0.1s0,0.1,0,0.1c0.1,0.7,0.6,1.5,1.6,2c0.8,0.4,1.7,0.7,2.7,0.8c-1.4-0.2-2.3-1.8-1.8-3.5
						C102.1,91.2,104.1,88.4,106.8,88.9z"/>
					<path id="XMLID_4187_" class="st10" d="M109.8,93.8c0-0.1,0-0.1,0-0.1c0-0.1,0-0.1,0-0.1c0-1.5-0.7-2.9-1.8-3.8
						c0.6,0.6,1.9,2.8,0.5,4.5c-0.9,1.1-5.3,2.7-8.9,0.7c0.3,0.3,0.6,0.7,1.1,1c2.1,1.2,5.4,1.2,7.5,0
						C109.3,95.3,109.8,94.6,109.8,93.8z"/>
					<path id="XMLID_4166_" class="st9" d="M104.5,89.6c0.2,0.5-0.2,1.3-1,1.6s-1.6,0.2-1.9-0.3c-0.2-0.5,0.2-1.3,1-1.6
						C103.4,88.9,104.2,89,104.5,89.6z"/>
					<path id="XMLID_4156_" class="st9" d="M101.4,91.8c0.1,0.3-0.1,0.6-0.4,0.8c-0.3,0.2-0.7,0-0.9-0.2c-0.1-0.3,0.1-0.6,0.4-0.8
						C100.9,91.4,101.3,91.5,101.4,91.8z"/>
				</g>
				<g id="XMLID_4076_">
					<path id="XMLID_4152_" class="st6" d="M124.7,89.6c0-1-0.9-1.8-1.9-1.8c-1,0-1.9,0.8-1.9,1.8c0,0,0,0,0,0.1s0,0,0,0.1
						c0,0.3,0.2,0.5,0.6,0.7c0.7,0.4,1.9,0.4,2.7,0c0.3-0.2,0.5-0.5,0.6-0.7C124.7,89.7,124.7,89.7,124.7,89.6
						C124.7,89.7,124.7,89.6,124.7,89.6z"/>
					<path id="XMLID_4098_" class="st17" d="M124.7,89.6c0-1-0.9-1.8-1.9-1.8c-1,0-1.9,0.8-1.9,1.8c0,0,0,0,0,0.1s0,0,0,0.1
						c0,0.3,0.2,0.5,0.6,0.7c0.7,0.4,1.9,0.4,2.7,0c0.3-0.2,0.5-0.5,0.6-0.7C124.7,89.7,124.7,89.7,124.7,89.6
						C124.7,89.7,124.7,89.6,124.7,89.6z"/>
					<path id="XMLID_4096_" class="st11" d="M123.7,88L123.7,88c-0.2-0.1-0.5-0.2-0.8-0.2c-1,0-1.9,0.8-1.9,1.8c0,0,0,0,0,0.1
						s0,0,0,0.1c0,0.3,0.2,0.5,0.6,0.7c0.3,0.2,0.6,0.3,0.9,0.3c-0.5-0.1-0.8-0.6-0.7-1.2C122,88.8,122.7,87.8,123.7,88z"/>
					<path id="XMLID_4094_" class="st18" d="M124.7,89.7C124.7,89.7,124.7,89.7,124.7,89.7c0-0.1,0-0.1,0-0.1c0-0.5-0.3-1-0.6-1.4
						c0.2,0.2,0.7,1,0.2,1.6c-0.3,0.4-1.9,1-3.1,0.2c0.1,0.1,0.2,0.2,0.4,0.3c0.7,0.4,1.9,0.4,2.7,0C124.5,90.3,124.7,90,124.7,89.7
						z"/>
					<path id="XMLID_4092_" class="st9" d="M122.8,88.2c0.1,0.2-0.1,0.4-0.4,0.6c-0.3,0.1-0.6,0.1-0.7-0.1c-0.1-0.2,0.1-0.4,0.4-0.6
						C122.5,88,122.8,88,122.8,88.2z"/>
					<path id="XMLID_4077_" class="st9" d="M121.8,89c0,0.1,0,0.2-0.1,0.3c-0.1,0.1-0.3,0-0.3-0.1c0-0.1,0-0.2,0.1-0.3
						C121.6,88.9,121.7,88.9,121.8,89z"/>
				</g>
				<g id="XMLID_4044_">
					<path id="XMLID_4069_" class="st6" d="M60.2,87.3c0-1.7,1.4-3,3.1-3c1.7,0,3.1,1.3,3.1,3c0,0,0,0.1,0,0.1s0,0.1,0,0.1
						c0,0.4-0.3,0.9-0.9,1.2c-1.2,0.7-3.2,0.7-4.4,0c-0.6-0.3-0.9-0.8-0.9-1.2C60.2,87.5,60.2,87.4,60.2,87.3
						C60.2,87.4,60.2,87.3,60.2,87.3z"/>
					<path id="XMLID_4059_" class="st11" d="M60.2,87.3c0-1.7,1.4-3,3.1-3c1.7,0,3.1,1.3,3.1,3c0,0,0,0.1,0,0.1s0,0.1,0,0.1
						c0,0.4-0.3,0.9-0.9,1.2c-1.2,0.7-3.2,0.7-4.4,0c-0.6-0.3-0.9-0.8-0.9-1.2C60.2,87.5,60.2,87.4,60.2,87.3
						C60.2,87.4,60.2,87.3,60.2,87.3z"/>
					<path id="XMLID_4057_" class="st11" d="M61.9,84.6L61.9,84.6c0.4-0.2,0.9-0.3,1.3-0.3c1.7,0,3.1,1.3,3.1,3c0,0,0,0.1,0,0.1
						s0,0.1,0,0.1c0,0.4-0.3,0.9-0.9,1.2c-0.4,0.3-1,0.4-1.6,0.5c0.8-0.1,1.3-1,1.1-2C64.7,86,63.6,84.3,61.9,84.6z"/>
					<path id="XMLID_4053_" class="st15" d="M60.2,87.5C60.2,87.5,60.2,87.4,60.2,87.5c0-0.1,0-0.1,0-0.2c0-0.9,0.4-1.7,1.1-2.2
						c-0.3,0.3-1.1,1.7-0.3,2.7c0.5,0.7,3.1,1.6,5.2,0.4c-0.2,0.2-0.4,0.4-0.7,0.6c-1.2,0.7-3.2,0.7-4.4,0
						C60.5,88.3,60.2,87.9,60.2,87.5z"/>
					<path id="XMLID_4051_" class="st9" d="M63.3,85c-0.1,0.3,0.1,0.7,0.6,0.9c0.5,0.2,1,0.1,1.1-0.2c0.1-0.3-0.1-0.7-0.6-0.9
						C64,84.6,63.5,84.7,63.3,85z"/>
					<path id="XMLID_4045_" class="st9" d="M65.1,86.3c-0.1,0.2,0,0.4,0.2,0.5c0.2,0.1,0.4,0,0.5-0.1c0.1-0.2,0-0.4-0.2-0.5
						C65.4,86.1,65.2,86.1,65.1,86.3z"/>
				</g>
				<g id="XMLID_4020_">
					<path id="XMLID_4042_" class="st6" d="M66.9,88.5c0.1-2.4,2.1-4.4,4.5-4.4c2.5,0,4.5,2,4.5,4.4c0,0,0,0.1,0,0.1
						c0,0,0,0.1,0,0.1c-0.1,0.6-0.5,1.2-1.3,1.7c-1.8,1-4.6,1-6.4,0c-0.8-0.5-1.3-1.1-1.3-1.7c0,0,0-0.1,0-0.1
						C66.9,88.6,66.9,88.5,66.9,88.5z"/>
					<path id="XMLID_4040_" class="st12" d="M66.9,88.5c0.1-2.4,2.1-4.4,4.5-4.4c2.5,0,4.5,2,4.5,4.4c0,0,0,0.1,0,0.1
						c0,0,0,0.1,0,0.1c-0.1,0.6-0.5,1.2-1.3,1.7c-1.8,1-4.6,1-6.4,0c-0.8-0.5-1.3-1.1-1.3-1.7c0,0,0-0.1,0-0.1
						C66.9,88.6,66.9,88.5,66.9,88.5z"/>
					<path id="XMLID_4038_" class="st9" d="M69.4,84.6L69.4,84.6c0.6-0.3,1.3-0.4,2-0.4c2.5,0,4.5,2,4.5,4.4c0,0,0,0.1,0,0.1
						c0,0,0,0.1,0,0.1c-0.1,0.6-0.5,1.2-1.3,1.7c-0.6,0.4-1.4,0.6-2.3,0.7c1.2-0.2,1.9-1.5,1.6-3C73.5,86.5,71.8,84.1,69.4,84.6z"/>
					<path id="XMLID_4036_" class="st10" d="M66.9,88.8c0,0,0-0.1,0-0.1c0,0,0-0.1,0-0.1c0-1.3,0.6-2.5,1.5-3.3
						c-0.5,0.5-1.6,2.4-0.4,3.9c0.8,1,4.5,2.3,7.5,0.6c-0.2,0.3-0.5,0.6-1,0.8c-1.8,1-4.6,1-6.4,0C67.3,90,66.9,89.4,66.9,88.8z"/>
					<path id="XMLID_4023_" class="st11" d="M71.4,85.1c-0.2,0.5,0.2,1.1,0.9,1.4c0.7,0.3,1.4,0.2,1.6-0.3c0.2-0.5-0.2-1.1-0.9-1.4
						C72.3,84.5,71.6,84.7,71.4,85.1z"/>
					<path id="XMLID_4021_" class="st11" d="M74,87c-0.1,0.2,0,0.5,0.3,0.7c0.3,0.1,0.6,0,0.7-0.2c0.1-0.2,0-0.5-0.3-0.7
						C74.5,86.7,74.1,86.8,74,87z"/>
				</g>
				<g id="XMLID_4006_">
					<path id="XMLID_4017_" class="st6" d="M62.9,91.2c0.1-2.3,2-4.2,4.3-4.2c2.3,0,4.2,1.9,4.3,4.2c0,0,0,0.1,0,0.1s0,0.1,0,0.1
						c0,0.6-0.5,1.2-1.3,1.6c-1.7,1-4.4,1-6.1,0c-0.8-0.5-1.2-1-1.3-1.6c0,0,0-0.1,0-0.1S62.9,91.2,62.9,91.2z"/>
					<path id="XMLID_4015_" class="st16" d="M62.9,91.2c0.1-2.3,2-4.2,4.3-4.2c2.3,0,4.2,1.9,4.3,4.2c0,0,0,0.1,0,0.1s0,0.1,0,0.1
						c0,0.6-0.5,1.2-1.3,1.6c-1.7,1-4.4,1-6.1,0c-0.8-0.5-1.2-1-1.3-1.6c0,0,0-0.1,0-0.1S62.9,91.2,62.9,91.2z"/>
					<path id="XMLID_4013_" class="st11" d="M65.3,87.4L65.3,87.4c0.6-0.3,1.2-0.4,1.9-0.4c2.3,0,4.2,1.9,4.3,4.2c0,0,0,0.1,0,0.1
						s0,0.1,0,0.1c0,0.6-0.5,1.2-1.3,1.6c-0.6,0.4-1.4,0.6-2.2,0.7c1.1-0.2,1.8-1.4,1.5-2.8C69.1,89.3,67.5,87,65.3,87.4z"/>
					<path id="XMLID_4011_" class="st19" d="M62.9,91.4c0,0,0-0.1,0-0.1c0,0,0-0.1,0-0.1c0-1.2,0.6-2.3,1.5-3.1
						c-0.5,0.5-1.5,2.3-0.4,3.7c0.7,0.9,4.3,2.2,7.1,0.5c-0.2,0.3-0.5,0.5-0.9,0.8c-1.7,1-4.4,1-6.1,0C63.3,92.6,62.9,92,62.9,91.4z
						"/>
					<path id="XMLID_4009_" class="st9" d="M67.2,87.9c-0.2,0.4,0.2,1,0.8,1.3c0.6,0.3,1.3,0.2,1.5-0.3c0.2-0.4-0.2-1-0.8-1.3
						S67.4,87.5,67.2,87.9z"/>
					<path id="XMLID_4007_" class="st9" d="M69.7,89.7c-0.1,0.2,0,0.5,0.3,0.6c0.3,0.1,0.6,0,0.7-0.2c0.1-0.2,0-0.5-0.3-0.6
						C70.1,89.4,69.8,89.5,69.7,89.7z"/>
				</g>
				<g id="XMLID_3977_">
					<path id="XMLID_4004_" class="st6" d="M72,93c0.1-2.9,2.4-5.2,5.3-5.2c2.9,0,5.2,2.3,5.3,5.2c0,0.1,0,0.1,0,0.1
						c0,0.1,0,0.1,0,0.1c-0.1,0.7-0.6,1.5-1.6,2c-2.1,1.2-5.4,1.2-7.5,0c-1-0.6-1.5-1.3-1.6-2c0-0.1,0-0.1,0-0.1
						C72,93.1,72,93.1,72,93z"/>
					<path id="XMLID_4002_" class="st8" d="M72,93c0.1-2.9,2.4-5.2,5.3-5.2c2.9,0,5.2,2.3,5.3,5.2c0,0.1,0,0.1,0,0.1
						c0,0.1,0,0.1,0,0.1c-0.1,0.7-0.6,1.5-1.6,2c-2.1,1.2-5.4,1.2-7.5,0c-1-0.6-1.5-1.3-1.6-2c0-0.1,0-0.1,0-0.1
						C72,93.1,72,93.1,72,93z"/>
					<path id="XMLID_3986_" class="st9" d="M75,88.4L75,88.4c0.7-0.3,1.5-0.5,2.3-0.5c2.9,0,5.2,2.3,5.3,5.2c0,0.1,0,0.1,0,0.1
						c0,0.1,0,0.1,0,0.1c-0.1,0.7-0.6,1.5-1.6,2c-0.8,0.4-1.7,0.7-2.7,0.8c1.4-0.2,2.3-1.8,1.8-3.5C79.7,90.7,77.7,87.9,75,88.4z"/>
					<path id="XMLID_3984_" class="st10" d="M72,93.3c0-0.1,0-0.1,0-0.1c0-0.1,0-0.1,0-0.1c0-1.5,0.7-2.9,1.8-3.8
						c-0.6,0.6-1.9,2.8-0.5,4.5c0.9,1.1,5.3,2.7,8.9,0.7c-0.3,0.3-0.6,0.7-1.1,1c-2.1,1.2-5.4,1.2-7.5,0C72.6,94.8,72,94.1,72,93.3z
						"/>
					<path id="XMLID_3980_" class="st9" d="M77.3,89.1c-0.2,0.5,0.2,1.3,1,1.6s1.6,0.2,1.9-0.3c0.2-0.5-0.2-1.3-1-1.6
						C78.4,88.4,77.6,88.5,77.3,89.1z"/>
					<path id="XMLID_3978_" class="st9" d="M80.4,91.3c-0.1,0.3,0.1,0.6,0.4,0.8c0.3,0.2,0.7,0,0.9-0.2c0.1-0.3-0.1-0.6-0.4-0.8
						C80.9,90.9,80.6,91,80.4,91.3z"/>
				</g>
				<g id="XMLID_3964_">
					<path id="XMLID_3975_" class="st6" d="M100.5,96.6c-0.1-2.6-2.2-4.7-4.9-4.7c-2.6,0-4.8,2.1-4.9,4.7c0,0,0,0.1,0,0.1
						c0,0,0,0.1,0,0.1c0.1,0.7,0.5,1.3,1.4,1.8c1.9,1.1,5,1.1,6.9,0c0.9-0.5,1.4-1.2,1.4-1.8c0,0,0-0.1,0-0.1
						C100.5,96.6,100.5,96.6,100.5,96.6z"/>
					<path id="XMLID_3973_" class="st7" d="M100.5,96.6c-0.1-2.6-2.2-4.7-4.9-4.7c-2.6,0-4.8,2.1-4.9,4.7c0,0,0,0.1,0,0.1
						c0,0,0,0.1,0,0.1c0.1,0.7,0.5,1.3,1.4,1.8c1.9,1.1,5,1.1,6.9,0c0.9-0.5,1.4-1.2,1.4-1.8c0,0,0-0.1,0-0.1
						C100.5,96.6,100.5,96.6,100.5,96.6z"/>
					<path id="XMLID_3971_" class="st11" d="M97.7,92.3L97.7,92.3c-0.6-0.3-1.4-0.5-2.1-0.5c-2.6,0-4.8,2.1-4.9,4.7c0,0,0,0.1,0,0.1
						c0,0,0,0.1,0,0.1c0.1,0.7,0.5,1.3,1.4,1.8c0.7,0.4,1.5,0.7,2.4,0.8c-1.3-0.2-2.1-1.6-1.7-3.2C93.4,94.5,95.2,91.9,97.7,92.3z"
						/>
					<path id="XMLID_3969_" class="st10" d="M100.5,96.8c0,0,0-0.1,0-0.1c0,0,0-0.1,0-0.1c0-1.4-0.7-2.6-1.6-3.5
						c0.5,0.5,1.7,2.6,0.4,4.1c-0.8,1-4.8,2.5-8.1,0.6c0.2,0.3,0.6,0.6,1,0.9c1.9,1.1,5,1.1,6.9,0C100,98.2,100.4,97.5,100.5,96.8z"
						/>
					<path id="XMLID_3967_" class="st11" d="M95.6,92.9c0.2,0.5-0.2,1.2-0.9,1.5c-0.7,0.3-1.5,0.2-1.7-0.3c-0.2-0.5,0.2-1.2,0.9-1.5
						C94.6,92.3,95.4,92.4,95.6,92.9z"/>
					<path id="XMLID_3965_" class="st11" d="M92.8,94.9c0.1,0.3-0.1,0.6-0.4,0.7c-0.3,0.1-0.7,0-0.8-0.2c-0.1-0.3,0.1-0.6,0.4-0.7
						C92.3,94.6,92.7,94.7,92.8,94.9z"/>
				</g>
				<g id="XMLID_3949_">
					<path id="XMLID_3962_" class="st6" d="M80.2,97.1c0.1-2.5,2.1-4.5,4.6-4.5c2.5,0,4.6,2,4.6,4.5c0,0,0,0.1,0,0.1
						c0,0,0,0.1,0,0.1c-0.1,0.6-0.5,1.3-1.4,1.8c-1.8,1-4.7,1-6.5,0c-0.8-0.5-1.3-1.1-1.3-1.8c0,0,0-0.1,0-0.1
						C80.2,97.2,80.2,97.1,80.2,97.1z"/>
					<path id="XMLID_3960_" class="st7" d="M80.2,97.1c0.1-2.5,2.1-4.5,4.6-4.5c2.5,0,4.6,2,4.6,4.5c0,0,0,0.1,0,0.1
						c0,0,0,0.1,0,0.1c-0.1,0.6-0.5,1.3-1.4,1.8c-1.8,1-4.7,1-6.5,0c-0.8-0.5-1.3-1.1-1.3-1.8c0,0,0-0.1,0-0.1
						C80.2,97.2,80.2,97.1,80.2,97.1z"/>
					<path id="XMLID_3956_" class="st11" d="M82.8,93.1L82.8,93.1c0.6-0.3,1.3-0.5,2-0.5c2.5,0,4.6,2,4.6,4.5c0,0,0,0.1,0,0.1
						c0,0,0,0.1,0,0.1c-0.1,0.6-0.5,1.3-1.4,1.8c-0.7,0.4-1.5,0.6-2.3,0.7c1.2-0.2,2-1.5,1.6-3C87,95.1,85.2,92.6,82.8,93.1z"/>
					<path id="XMLID_3954_" class="st10" d="M80.2,97.3c0,0,0-0.1,0-0.1c0,0,0-0.1,0-0.1c0-1.3,0.6-2.5,1.6-3.3
						c-0.5,0.5-1.6,2.5-0.4,3.9c0.8,1,4.6,2.4,7.7,0.6c-0.2,0.3-0.6,0.6-1,0.8c-1.8,1-4.7,1-6.5,0C80.7,98.6,80.3,98,80.2,97.3z"/>
					<path id="XMLID_3952_" class="st11" d="M84.9,93.6c-0.2,0.5,0.2,1.1,0.9,1.4c0.7,0.3,1.4,0.2,1.6-0.3c0.2-0.5-0.2-1.1-0.9-1.4
						C85.8,93,85.1,93.2,84.9,93.6z"/>
					<path id="XMLID_3950_" class="st11" d="M87.5,95.5c-0.1,0.2,0.1,0.6,0.3,0.7c0.3,0.1,0.6,0,0.7-0.2c0.1-0.2-0.1-0.6-0.3-0.7
						C88,95.2,87.7,95.3,87.5,95.5z"/>
				</g>
				<g id="XMLID_3935_">
					<path id="XMLID_3947_" class="st6" d="M92.2,98.7c0-1-0.9-1.8-1.9-1.8s-1.9,0.8-1.9,1.8c0,0,0,0,0,0.1s0,0,0,0.1
						c0,0.3,0.2,0.5,0.6,0.7c0.7,0.4,1.9,0.4,2.7,0c0.3-0.2,0.5-0.5,0.5-0.7C92.2,98.8,92.2,98.8,92.2,98.7
						C92.2,98.7,92.2,98.7,92.2,98.7z"/>
					<path id="XMLID_3944_" class="st7" d="M92.2,98.7c0-1-0.9-1.8-1.9-1.8s-1.9,0.8-1.9,1.8c0,0,0,0,0,0.1s0,0,0,0.1
						c0,0.3,0.2,0.5,0.6,0.7c0.7,0.4,1.9,0.4,2.7,0c0.3-0.2,0.5-0.5,0.5-0.7C92.2,98.8,92.2,98.8,92.2,98.7
						C92.2,98.7,92.2,98.7,92.2,98.7z"/>
					<path id="XMLID_3942_" class="st16" d="M91.1,97.1L91.1,97.1c-0.2-0.1-0.5-0.2-0.8-0.2c-1,0-1.9,0.8-1.9,1.8c0,0,0,0,0,0.1
						s0,0,0,0.1c0,0.3,0.2,0.5,0.6,0.7c0.3,0.2,0.6,0.3,0.9,0.3c-0.5-0.1-0.8-0.6-0.7-1.2C89.4,97.9,90.2,96.9,91.1,97.1z"/>
					<path id="XMLID_3940_" class="st10" d="M92.2,98.8C92.2,98.8,92.2,98.8,92.2,98.8c0-0.1,0-0.1,0-0.1c0-0.5-0.3-1-0.6-1.4
						c0.2,0.2,0.7,1,0.2,1.6c-0.3,0.4-1.9,1-3.1,0.2c0.1,0.1,0.2,0.2,0.4,0.3c0.7,0.4,1.9,0.4,2.7,0C92,99.3,92.2,99.1,92.2,98.8z"
						/>
					<path id="XMLID_3938_" class="st11" d="M90.3,97.3c0.1,0.2-0.1,0.4-0.4,0.6c-0.3,0.1-0.6,0.1-0.7-0.1c-0.1-0.2,0.1-0.4,0.4-0.6
						S90.2,97.1,90.3,97.3z"/>
					<path id="XMLID_3936_" class="st11" d="M89.2,98.1c0,0.1,0,0.2-0.1,0.3c-0.1,0.1-0.3,0-0.3-0.1c0-0.1,0-0.2,0.1-0.3
						C89,97.9,89.2,98,89.2,98.1z"/>
				</g>
				<g id="XMLID_512_">
					<path id="XMLID_3933_" class="st6" d="M57.5,88c0-1,0.9-1.8,1.9-1.8s1.9,0.8,1.9,1.8c0,0,0,0,0,0.1s0,0,0,0.1
						c0,0.3-0.2,0.5-0.6,0.7c-0.7,0.4-1.9,0.4-2.7,0c-0.3-0.2-0.5-0.5-0.6-0.7C57.5,88.1,57.5,88.1,57.5,88
						C57.5,88.1,57.5,88.1,57.5,88z"/>
					<path id="XMLID_3931_" class="st17" d="M57.5,88c0-1,0.9-1.8,1.9-1.8s1.9,0.8,1.9,1.8c0,0,0,0,0,0.1s0,0,0,0.1
						c0,0.3-0.2,0.5-0.6,0.7c-0.7,0.4-1.9,0.4-2.7,0c-0.3-0.2-0.5-0.5-0.6-0.7C57.5,88.1,57.5,88.1,57.5,88
						C57.5,88.1,57.5,88.1,57.5,88z"/>
					<path id="XMLID_3929_" class="st11" d="M58.6,86.4L58.6,86.4c0.2-0.1,0.5-0.2,0.8-0.2c1,0,1.9,0.8,1.9,1.8c0,0,0,0,0,0.1
						s0,0,0,0.1c0,0.3-0.2,0.5-0.6,0.7c-0.3,0.2-0.6,0.3-0.9,0.3c0.5-0.1,0.8-0.6,0.7-1.2C60.3,87.2,59.6,86.2,58.6,86.4z"/>
					<path id="XMLID_3927_" class="st18" d="M57.5,88.1C57.5,88.1,57.5,88.1,57.5,88.1c0-0.1,0-0.1,0-0.1c0-0.5,0.3-1,0.6-1.4
						c-0.2,0.2-0.7,1-0.2,1.6c0.3,0.4,1.9,1,3.1,0.2c-0.1,0.1-0.2,0.2-0.4,0.3c-0.7,0.4-1.9,0.4-2.7,0
						C57.7,88.7,57.6,88.4,57.5,88.1z"/>
					<path id="XMLID_516_" class="st9" d="M59.4,86.6c-0.1,0.2,0.1,0.4,0.4,0.6c0.3,0.1,0.6,0.1,0.7-0.1c0.1-0.2-0.1-0.4-0.4-0.6
						C59.8,86.4,59.5,86.4,59.4,86.6z"/>
					<path id="XMLID_513_" class="st9" d="M60.5,87.4c0,0.1,0,0.2,0.1,0.3c0.1,0.1,0.3,0,0.3-0.1c0-0.1,0-0.2-0.1-0.3
						C60.7,87.3,60.6,87.3,60.5,87.4z"/>
				</g>
			</g>
			<g>
				<g>
					<g id="XMLID_5313_">
						<g id="XMLID_5371_">
							<g id="XMLID_5374_">
								<g id="XMLID_5395_">
									<path id="XMLID_5403_" class="st6" d="M97.7,68.6H96h-1.6c-0.5,2.8,1,5,1.6,5C96.6,73.6,98.1,71.5,97.7,68.6z"/>
									<path id="XMLID_5398_" class="st12" d="M97.7,68.6H96h-1.6c-0.5,2.8,1,5,1.6,5C96.6,73.6,98.1,71.5,97.7,68.6z"/>
									<path id="XMLID_5396_" class="st20" d="M96,68.6h0.6c0,0,0.4,0.6,0.3,1.5c-0.1,0.8-0.5,1.8-0.9,1.8c-0.3,0-0.8-1-0.9-1.8
										c-0.1-0.9,0.3-1.5,0.3-1.5H96"/>
								</g>
								<g id="XMLID_5375_">
									<g id="XMLID_5376_">
										<g id="XMLID_5377_">
											<path id="XMLID_5389_" class="st6" d="M97.6,63.5l-3.4,1.2L94,65.9c0,0.4,0.2,0.9,0.6,1.2c0.2,0.1,0.3,0.2,0.5,0.3
												c0.6,0.2,1.3,0.2,2,0c0.2-0.1,0.3-0.2,0.5-0.3c0.4-0.3,0.6-0.8,0.6-1.2L97.6,63.5z"/>
											<path id="XMLID_5387_" class="st17" d="M97.6,63.5l-3.4,1.2L94,65.9c0,0.4,0.2,0.9,0.6,1.2c0.2,0.1,0.3,0.2,0.5,0.3
												c0.6,0.2,1.3,0.2,2,0c0.2-0.1,0.3-0.2,0.5-0.3c0.4-0.3,0.6-0.8,0.6-1.2L97.6,63.5z"/>
											<g id="XMLID_5380_">
												<path id="XMLID_5383_" class="st6" d="M98.3,66.2l0.1,0.5c0,0.4-0.2,0.9-0.7,1.2c-0.2,0.1-0.4,0.2-0.6,0.3
													c-0.7,0.3-1.5,0.3-2.1,0c-0.2-0.1-0.4-0.2-0.6-0.3c-0.5-0.3-0.7-0.8-0.7-1.3L93.5,68l0,0c0,0.4,0.3,0.9,0.8,1.2
													c0.2,0.1,0.4,0.2,0.7,0.3c0.7,0.3,1.6,0.3,2.4,0c0.2-0.1,0.5-0.2,0.7-0.3c0.5-0.3,0.8-0.8,0.8-1.2L98.3,66.2z"/>
												<path id="XMLID_5381_" class="st17" d="M98.3,66.2l0.1,0.5c0,0.4-0.2,0.9-0.7,1.2c-0.2,0.1-0.4,0.2-0.6,0.3
													c-0.7,0.3-1.5,0.3-2.1,0c-0.2-0.1-0.4-0.2-0.6-0.3c-0.5-0.3-0.7-0.8-0.7-1.3L93.5,68l0,0c0,0.4,0.3,0.9,0.8,1.2
													c0.2,0.1,0.4,0.2,0.7,0.3c0.7,0.3,1.6,0.3,2.4,0c0.2-0.1,0.5-0.2,0.7-0.3c0.5-0.3,0.8-0.8,0.8-1.2L98.3,66.2z"/>
											</g>
											<path id="XMLID_5378_" class="st3" d="M98.3,66.2l0-0.1l-0.1-0.2c0,0.4-0.2,0.9-0.6,1.2c-0.2,0.1-0.3,0.2-0.5,0.3
												c-0.6,0.2-1.3,0.2-2,0c-0.2-0.1-0.4-0.2-0.5-0.3c-0.4-0.3-0.6-0.8-0.6-1.2l-0.2,0.8c0,0.4,0.2,0.9,0.7,1.3
												c0.2,0.1,0.4,0.2,0.6,0.3c0.7,0.3,1.5,0.3,2.1,0c0.2-0.1,0.4-0.2,0.6-0.3c0.5-0.3,0.7-0.8,0.7-1.2L98.3,66.2z"/>
										</g>
									</g>
								</g>
							</g>
							<path id="XMLID_5372_" class="st13" d="M97.9,64.8l-0.3-1.2l-3.4,1.2L94,65.9l0,0l-0.1,0.3l-0.1,0.5l0,0l-0.2,0.9
								C95.5,67.1,97.1,66,97.9,64.8z"/>
						</g>
						<g id="XMLID_5343_">
							<g id="XMLID_5346_">
								<g id="XMLID_5364_">
									<path id="XMLID_5369_" class="st6" d="M86.1,68.6h-1.6h-1.6c-0.5,2.8,1,5,1.6,5C85.1,73.6,86.6,71.5,86.1,68.6z"/>
									<path id="XMLID_5367_" class="st12" d="M86.1,68.6h-1.6h-1.6c-0.5,2.8,1,5,1.6,5C85.1,73.6,86.6,71.5,86.1,68.6z"/>
									<path id="XMLID_5365_" class="st20" d="M84.4,68.6H85c0,0,0.4,0.6,0.3,1.5c-0.1,0.8-0.5,1.8-0.9,1.8c-0.3,0-0.8-1-0.9-1.8
										c-0.1-0.9,0.3-1.5,0.3-1.5H84.4"/>
								</g>
								<g id="XMLID_5347_">
									<g id="XMLID_5348_">
										<g id="XMLID_5349_">
											<path id="XMLID_5358_" class="st6" d="M86.1,63.5H83l-0.6,2.3c0,0.4,0.2,0.9,0.6,1.2c0.2,0.1,0.3,0.2,0.5,0.3
												c0.6,0.2,1.3,0.2,2,0c0.2-0.1,0.3-0.2,0.5-0.3c0.4-0.3,0.6-0.8,0.6-1.2L86.1,63.5z"/>
											<path id="XMLID_5356_" class="st17" d="M86.1,63.5H83l-0.6,2.3c0,0.4,0.2,0.9,0.6,1.2c0.2,0.1,0.3,0.2,0.5,0.3
												c0.6,0.2,1.3,0.2,2,0c0.2-0.1,0.3-0.2,0.5-0.3c0.4-0.3,0.6-0.8,0.6-1.2L86.1,63.5z"/>
											<path id="XMLID_5354_" class="st6" d="M86.7,66.1l0,0.1l0.1,0.5c0,0.4-0.2,0.9-0.7,1.2c-0.2,0.1-0.4,0.2-0.6,0.3
												c-0.7,0.3-1.5,0.3-2.1,0c-0.2-0.1-0.4-0.2-0.6-0.3c-0.5-0.3-0.7-0.8-0.7-1.3L81.9,68l0,0c0,0.4,0.3,0.9,0.8,1.2
												c0.2,0.1,0.4,0.2,0.7,0.3c0.7,0.3,1.6,0.3,2.4,0c0.2-0.1,0.5-0.2,0.7-0.3c0.5-0.3,0.8-0.8,0.8-1.2L86.7,66.1z"/>
											<path id="XMLID_5352_" class="st17" d="M86.7,66.1l0,0.1l0.1,0.5c0,0.4-0.2,0.9-0.7,1.2c-0.2,0.1-0.4,0.2-0.6,0.3
												c-0.7,0.3-1.5,0.3-2.1,0c-0.2-0.1-0.4-0.2-0.6-0.3c-0.5-0.3-0.7-0.8-0.7-1.3L81.9,68l0,0c0,0.4,0.3,0.9,0.8,1.2
												c0.2,0.1,0.4,0.2,0.7,0.3c0.7,0.3,1.6,0.3,2.4,0c0.2-0.1,0.5-0.2,0.7-0.3c0.5-0.3,0.8-0.8,0.8-1.2L86.7,66.1z"/>
											<path id="XMLID_5350_" class="st3" d="M86.7,66.2l0-0.1l-0.1-0.2c0,0.4-0.2,0.9-0.6,1.2c-0.2,0.1-0.3,0.2-0.5,0.3
												c-0.6,0.2-1.3,0.2-2,0c-0.2-0.1-0.4-0.2-0.5-0.3c-0.4-0.3-0.6-0.8-0.6-1.2l-0.2,0.8c0,0.4,0.2,0.9,0.7,1.3
												c0.2,0.1,0.4,0.2,0.6,0.3c0.7,0.3,1.5,0.3,2.1,0c0.2-0.1,0.4-0.2,0.6-0.3c0.5-0.3,0.7-0.8,0.7-1.2L86.7,66.2z"/>
										</g>
									</g>
								</g>
							</g>
							<path id="XMLID_5344_" class="st13" d="M83,63.5l-0.3,1.2c0.9,1.3,2.4,2.3,4.3,2.8l-0.4-1.5l-0.1-0.2l0,0l-0.5-2.3L83,63.5
								L83,63.5z"/>
						</g>
						<g id="XMLID_5314_">
							<g id="XMLID_5334_">
								<path id="XMLID_5341_" class="st6" d="M93.5,70.7l-3.2-0.8l-3.2,0.8c0,0-0.4,1.7,0,4.4c0.4,2.7,2.3,5.4,3.2,5.4
									s2.7-2.7,3.2-5.4C93.9,72.4,93.5,70.7,93.5,70.7z"/>
								<path id="XMLID_5339_" class="st21" d="M93.5,70.7l-3.2-0.8l-3.2,0.8c0,0-0.4,1.7,0,4.4c0.4,2.7,2.3,5.4,3.2,5.4
									s2.7-2.7,3.2-5.4C93.9,72.4,93.5,70.7,93.5,70.7z"/>
								<path id="XMLID_5337_" class="st6" d="M92.4,71.1h-2.2H88c-0.6,3.8,1.4,6.7,2.2,6.7S93,74.8,92.4,71.1z"/>
								<path id="XMLID_5335_" class="st20" d="M90.2,71.1H91c0,0,0.5,0.8,0.4,2c-0.1,1-0.7,2.3-1.2,2.3s-1.1-1.3-1.2-2.3
									c-0.1-1.2,0.4-2,0.4-2H90.2"/>
							</g>
							<g id="XMLID_5315_">
								<g id="XMLID_5318_">
									<g id="XMLID_5319_">
										<path id="XMLID_5328_" class="st6" d="M93.1,67.1l-0.4-1.5h-1.5h-2h-1.5l-0.4,1.5c0,0.6,0.2,1.2,0.8,1.6
											c0.2,0.2,0.4,0.3,0.7,0.4c0.8,0.3,1.8,0.3,2.6,0c0.2-0.1,0.5-0.2,0.7-0.4C92.9,68.3,93.1,67.7,93.1,67.1z"/>
										<path id="XMLID_5326_" class="st11" d="M93.1,67.1l-0.4-1.5h-1.5h-2h-1.5l-0.4,1.5c0,0.6,0.2,1.2,0.8,1.6
											c0.2,0.2,0.4,0.3,0.7,0.4c0.8,0.3,1.8,0.3,2.6,0c0.2-0.1,0.5-0.2,0.7-0.4C92.9,68.3,93.1,67.7,93.1,67.1z"/>
										<path id="XMLID_5324_" class="st6" d="M93.2,67.4l0,0.1l0.2,0.6c0,0.6-0.3,1.2-0.9,1.7c-0.2,0.2-0.5,0.3-0.7,0.4
											c-0.9,0.3-1.9,0.3-2.8,0c-0.3-0.1-0.5-0.2-0.8-0.4c-0.6-0.5-0.9-1.1-0.9-1.7L86.8,70l0,0c0,0.6,0.3,1.2,1,1.6
											c0.3,0.2,0.6,0.3,0.9,0.4c1,0.3,2.2,0.3,3.1,0c0.3-0.1,0.6-0.2,0.9-0.4c0.7-0.5,1-1,1-1.6L93.2,67.4z"/>
										<path id="XMLID_5322_" class="st11" d="M93.2,67.4l0,0.1l0.2,0.6c0,0.6-0.3,1.2-0.9,1.7c-0.2,0.2-0.5,0.3-0.7,0.4
											c-0.9,0.3-1.9,0.3-2.8,0c-0.3-0.1-0.5-0.2-0.8-0.4c-0.6-0.5-0.9-1.1-0.9-1.7L86.8,70l0,0c0,0.6,0.3,1.2,1,1.6
											c0.3,0.2,0.6,0.3,0.9,0.4c1,0.3,2.2,0.3,3.1,0c0.3-0.1,0.6-0.2,0.9-0.4c0.7-0.5,1-1,1-1.6L93.2,67.4z"/>
										<path id="XMLID_5320_" class="st3" d="M93.2,67.6l0-0.1l-0.1-0.3c0,0.6-0.2,1.2-0.8,1.6c-0.2,0.2-0.4,0.3-0.7,0.4
											c-0.8,0.3-1.8,0.3-2.6,0c-0.2-0.1-0.5-0.2-0.7-0.4c-0.6-0.4-0.9-1-0.8-1.6l-0.3,1.1c0,0.6,0.3,1.2,0.9,1.7
											c0.2,0.2,0.5,0.3,0.8,0.4c0.9,0.3,1.9,0.3,2.8,0c0.3-0.1,0.5-0.2,0.7-0.4c0.6-0.5,0.9-1.1,0.9-1.7L93.2,67.6z"/>
									</g>
								</g>
								<path id="XMLID_5316_" class="st13" d="M90.3,68.1c1,0,2-0.1,2.9-0.3l0-0.1l0-0.1l-0.1-0.3l-0.4-1.5h-1.5h-2h-1.5l-0.4,1.5
									l-0.1,0.6C88.3,67.9,89.3,68.1,90.3,68.1z"/>
							</g>
						</g>
					</g>
					<g id="XMLID_4696_">
						<path id="XMLID_4715_" class="st2" d="M87.3,53.6l-9.5-3.5c0-0.4,0-0.8,0-1.2c0-0.1,0-0.2,0-0.4c0-0.1,0-0.2,0.1-0.3
							c0-0.1,0.1-0.2,0.1-0.3c0-0.1,0-0.1,0.1-0.2c0,0,0-0.1,0-0.1h0c0.3-0.7,0.7-1.2,1.2-1.6l1.2-0.7l0.1-0.1
							c0.4-0.2,0.8-0.3,1.2-0.4c1-0.1,1.9-0.3,2.7-0.7c0.3-0.2,0.5-0.5,0.7-0.8c0.9-1.4,1.2-4.5,1.1-6l1.4-0.8l0.8,16.2l-1.4-0.5v0
							L87.3,53.6z"/>
						<path id="XMLID_4706_" class="st4" d="M77.8,50.1l9.5,3.5l-0.1-1.3v0l-0.5-9.7l-0.3-5.2c0.1,1.5-0.2,4.6-1.1,6
							c-0.2,0.3-0.4,0.5-0.7,0.8c-0.9,0.8-2.3,1.2-4.1,1.4c-0.2,0-0.4,0.1-0.5,0.1c-0.3,0.1-0.5,0.2-0.7,0.3c-0.6,0.3-1,0.8-1.2,1.6
							h0c0,0,0,0.1,0,0.1c0,0.1,0,0.1-0.1,0.2c0,0.1-0.1,0.2-0.1,0.3c0,0.1,0,0.2-0.1,0.3c0,0.1,0,0.2,0,0.4
							C77.8,49.2,77.8,49.6,77.8,50.1z"/>
						<path id="XMLID_4697_" class="st6" d="M87.1,50.9l-9-3.3c-0.1,0.4-0.2,0.8-0.3,1.3l9.4,3.5L87.1,50.9z"/>
						<path id="XMLID_4690_" class="st22" d="M87.1,50.9l-9-3.3c-0.1,0.4-0.2,0.8-0.3,1.3l9.4,3.5L87.1,50.9z"/>
					</g>
					<g id="XMLID_5420_">
						<g id="XMLID_5421_">
							<path id="XMLID_5430_" class="st3" d="M94.7,50.5c1.2,3.9,2.4,7.7,3.7,11.5c0.2,0.7-0.1,1.5-0.7,2.1c-2,1.7-4.7,2.7-7.4,2.6
								c-2.7,0-5.3-1-7.4-2.7c-0.6-0.6-0.9-1.4-0.7-2.1c1.3-3.8,2.5-7.6,3.7-11.4C88.8,50.5,91.8,50.5,94.7,50.5z"/>
							<path id="XMLID_5429_" class="st4" d="M90.3,63.7c2.7,0.1,5.7-0.9,7.7-2.7c0.1,0.4,0.2,0.6,0.4,1.1c0.2,0.7-0.1,1.5-0.7,2.1
								c-2,1.7-4.7,2.6-7.4,2.6c-2.7,0-5.3-1-7.4-2.7c-0.6-0.6-0.9-1.4-0.7-2.1c0.1-0.4,0.2-0.6,0.4-1
								C84.7,62.8,87.5,63.6,90.3,63.7z"/>
							<path id="XMLID_5428_" class="st4" d="M90.3,54.8c-2.4,0-4.1-0.4-5.4-0.9c0.4-1.3,0.6-2,1-3.4c1.6,0,2.4,0,3.9,0
								c0.1,0,0.3,0,0.4,0c0.2,0,0.3,0,0.4,0c1.6,0,2.4,0,3.9,0c0.4,1.4,0.6,2,1,3.4C94.4,54.4,92.7,54.8,90.3,54.8z"/>
							<g id="XMLID_5425_" class="st23">
								<path id="XMLID_5427_" class="st3" d="M93.1,50.5c0.1,1.1,0.3,2.5,0.5,4c0.5-0.1,1-0.2,1.5-0.4c-0.3-1.4-0.4-2.2-0.6-3.6
									C93.9,50.5,93.6,50.5,93.1,50.5z"/>
							</g>
							<g id="XMLID_5423_" class="st23">
								<path id="XMLID_5424_" class="st3" d="M82.9,64c2,1.8,4.7,2.7,7.4,2.7c0.2,0,0.4,0,0.5,0c0.2,0,0.4,0,0.5,0
									c0.1,0,0.2,0,0.3,0c0.1,0,0.3,0,0.4,0c0.1,0,0.2,0,0.3,0c0.1,0,0.2,0,0.3,0c0.1,0,0.3-0.1,0.4-0.1c0,0,0.1,0,0.1,0
									c0.2,0,0.3-0.1,0.5-0.1c0.2-0.1,0.4-0.1,0.6-0.2c0.1,0,0.2-0.1,0.3-0.1c0.1,0,0.3-0.1,0.4-0.2c0.3-0.1,0.5-0.2,0.7-0.3
									c0.1,0,0.1-0.1,0.2-0.1c0.1,0,0.1-0.1,0.2-0.1c0.1-0.1,0.2-0.1,0.3-0.2c0.1-0.1,0.2-0.1,0.3-0.2c0.1-0.1,0.2-0.1,0.3-0.2
									c0.1-0.1,0.2-0.1,0.2-0.2c-0.2-1-0.3-1.5-0.5-2.6c-0.5,0.3-1.1,0.6-1.8,0.9c0.1,0.5,0.2,0.9,0.1,1
									C94.1,66.5,87.9,67,82.9,64z"/>
							</g>
							<path id="XMLID_5422_" class="st24" d="M93.6,54.5c0.4,2.8,0.7,5.6,1.1,8.5c0.7-0.3,1.3-0.6,1.8-0.9c-0.5-2.7-1-5.3-1.4-8
								C94.6,54.2,94.1,54.4,93.6,54.5z"/>
						</g>
					</g>
					<g id="XMLID_5306_">
						<path id="XMLID_5312_" class="st2" d="M93,53.6l9.5-3.5c0-0.4,0-0.8,0-1.2c0-0.1,0-0.2,0-0.4c0-0.1,0-0.2-0.1-0.3
							c0-0.1-0.1-0.2-0.1-0.3c0-0.1,0-0.1-0.1-0.2c0,0,0-0.1,0-0.1h0c-0.3-0.7-0.7-1.2-1.2-1.6l-1.2-0.7l-0.1-0.1
							c-0.4-0.2-0.8-0.3-1.2-0.4c-1-0.1-1.9-0.3-2.7-0.7c-0.3-0.2-0.5-0.5-0.7-0.8c-0.9-1.4-1.2-4.5-1.1-6l-1.4-0.8l-0.8,16.2
							l1.4-0.5v0L93,53.6z"/>
						<path id="XMLID_5310_" class="st4" d="M102.5,50.1L93,53.6l0.1-1.3v0l0.5-9.7l0.3-5.2c-0.1,1.5,0.2,4.6,1.1,6
							c0.2,0.3,0.4,0.5,0.7,0.8c0.9,0.8,2.3,1.2,4.1,1.4c0.2,0,0.4,0.1,0.5,0.1c0.3,0.1,0.5,0.2,0.7,0.3c0.6,0.3,1,0.8,1.2,1.6h0
							c0,0,0,0.1,0,0.1c0,0.1,0,0.1,0.1,0.2c0,0.1,0.1,0.2,0.1,0.3c0,0.1,0,0.2,0.1,0.3c0,0.1,0,0.2,0,0.4
							C102.5,49.2,102.5,49.6,102.5,50.1z"/>
						<path id="XMLID_5307_" class="st6" d="M93.1,50.9l9-3.3c0.1,0.4,0.2,0.8,0.3,1.3l-9.4,3.5L93.1,50.9z"/>
						<path id="XMLID_4557_" class="st22" d="M93.1,50.9l9-3.3c0.1,0.4,0.2,0.8,0.3,1.3l-9.4,3.5L93.1,50.9z"/>
					</g>
					<g id="XMLID_5288_">
						<path id="XMLID_5304_" class="st6" d="M99.7,21.3c0-0.7,0-1.4-0.2-2.1c-1.3-6.1-4.9-11.1-7-14.3C92.2,4.3,91.3,3,91,2.7
							c-0.2-0.1-0.4-0.2-0.7-0.2c-0.3,0-0.5,0.1-0.7,0.2c-0.3,0.2-1.2,1.6-1.5,2.2c-1.9,2.8-5.7,8.2-7,14.3
							c-0.1,0.7-0.2,1.4-0.2,2.1l1.2,34l0,0c0,1.7,1.5,3.4,4.6,4.3c2.4,0.7,4.9,0.7,7.2,0c3.1-0.9,4.6-2.6,4.6-4.3l0,0L99.7,21.3z"
							/>
						<path id="XMLID_4477_" class="st11" d="M99.7,21.3c0-0.7,0-1.4-0.2-2.1c-1.3-6.1-4.9-11.1-7-14.3C92.2,4.3,91.3,3,91,2.7
							c-0.2-0.1-0.4-0.2-0.7-0.2c-0.3,0-0.5,0.1-0.7,0.2c-0.3,0.2-1.2,1.6-1.5,2.2c-1.9,2.8-5.7,8.2-7,14.3
							c-0.1,0.7-0.2,1.4-0.2,2.1l1.2,34l0,0c0,1.7,1.5,3.4,4.6,4.3c2.4,0.7,4.9,0.7,7.2,0c3.1-0.9,4.6-2.6,4.6-4.3l0,0L99.7,21.3z"
							/>
						<path class="st25" d="M99.6,19.2c-1.3-6.1-4.9-11.1-7-14.3c-0.1-0.1-0.2-0.3-0.3-0.5c0,0,0,0,0,0c1.7,4.4,4.4,11.4,4.6,21.2
							c0.1,5.8-0.3,21.3-0.7,33l0,0c0.4-0.2,0.7-0.5,1-0.7c0,0,0,0,0,0c0.2-0.2,0.4-0.4,0.5-0.6c0,0,0,0,0.1-0.1
							c0-0.1,0.1-0.1,0.1-0.2c0,0,0-0.1,0.1-0.1c0.1-0.1,0.1-0.2,0.1-0.2c0,0,0.1-0.1,0.1-0.1c0,0,0-0.1,0.1-0.1
							c0-0.1,0-0.1,0.1-0.2c0,0,0-0.1,0-0.1c0-0.1,0.1-0.2,0.1-0.3c0,0,0-0.1,0-0.1c0-0.1,0-0.1,0-0.2c0,0,0-0.1,0-0.1
							c0-0.1,0-0.2,0-0.3l0,0l1.2-34C99.8,20.6,99.7,19.9,99.6,19.2z"/>
						<path id="XMLID_4470_" class="st3" d="M83,22.7c4,2.3,10.4,2.3,14.4,0c1-0.6,1.8-1.3,2.3-2c0-0.5-0.1-1-0.2-1.5
							c-0.1-0.3-0.1-0.5-0.2-0.8c-0.5,0.6-1.1,1.1-1.9,1.6c-4,2.3-10.4,2.3-14.4,0c-0.8-0.4-1.4-0.9-1.8-1.5
							c-0.1,0.2-0.1,0.4-0.2,0.7c-0.1,0.6-0.2,1.1-0.2,1.7C81.4,21.5,82.1,22.1,83,22.7z"/>
						<path class="st24" d="M99.7,20.6c0-0.5-0.1-1-0.2-1.4c-0.1-0.3-0.1-0.6-0.2-0.9c-0.5,0.6-1.1,1.1-1.9,1.5
							c-0.3,0.2-0.6,0.3-0.9,0.5c0.1,0.9,0.2,1.8,0.2,2.7c0.2-0.1,0.5-0.2,0.7-0.4C98.5,22.1,99.2,21.4,99.7,20.6z"/>
						<path id="XMLID_5299_" class="st13" d="M90.9,2.7c-0.2-0.1-0.4-0.2-0.6-0.2c-0.3,0-0.5,0.1-0.7,0.2c-0.3,0.2-1.2,1.6-1.5,2.2
							c-1.9,2.8-5.7,8.2-7,14.3c-0.1,0.7-0.2,1.4-0.2,2.1l1.2,34c0,1.7,1.5,3.4,4.6,4.3c0,0,0.1,0,0.1,0
							c-0.6-14.2-3.4-37.1-0.6-46.3C87.8,8.3,89.9,2.3,90.9,2.7z"/>
						<path id="XMLID_5295_" class="st24" d="M92.2,4.4c0.6,1.5,1.3,3.2,1.9,5.3c0.4-0.2,0.7-0.5,1-0.7c-0.7-1.2-1.5-2.3-2.1-3.3
							c-0.2-0.3-0.4-0.6-0.5-0.8c-0.1-0.1-0.1-0.2-0.2-0.3C92.3,4.5,92.3,4.5,92.2,4.4z"/>
					</g>
					<g id="XMLID_5225_">
						<path id="XMLID_5233_" class="st3" d="M86.2,57.4l-9.5,7.5l-1.3-0.8c-0.1-2.7,0.8-5.2,2.8-7.7c0.8-1.1,1.6-2.1,2.3-3.1
							c1.1-1.6,2.1-3,2.8-4.3c1.1-2.3,1.4-3.7,1.4-5.2c0-0.1,0-0.1,0-0.2c0-0.1,0-0.1,0-0.2l0.7,0.3L86.2,57.4z"/>
						<path id="XMLID_5229_" class="st6" d="M75.7,61.2c-0.1,0.5-0.2,1.1-0.3,1.6l1.3,0.8l0,0c0.1-0.5,0.1-1.1,0.3-1.6v0L75.7,61.2z
							"/>
						<path id="XMLID_4471_" class="st16" d="M75.7,61.2c-0.1,0.5-0.2,1.1-0.3,1.6l1.3,0.8l0,0c0.1-0.5,0.1-1.1,0.3-1.6v0L75.7,61.2
							z"/>
						<path id="XMLID_5227_" class="st2" d="M85.4,43.8c0.1,1.4-0.2,3.2-1.1,5.7c-0.8,2.3-2.5,4.8-4.8,7.7c-2,2.6-2.9,5-2.8,7.7
							l9.5-7.5L85.4,43.8z"/>
						<path id="XMLID_5226_" class="st6" d="M86.1,54.9l-9,7.1c-0.1,0.5-0.2,1.1-0.3,1.6l9.4-7.4L86.1,54.9z"/>
					</g>
					<g id="XMLID_510_">
						<path id="XMLID_4694_" class="st3" d="M94,57.4l9.5,7.5l1.3-0.8c0.1-2.7-0.8-5.2-2.8-7.7c-0.8-1.1-1.6-2.1-2.3-3.1
							c-1.1-1.6-2.1-3-2.8-4.3c-1.1-2.3-1.4-3.7-1.4-5.2c0-0.1,0-0.1,0-0.2c0-0.1,0-0.1,0-0.2l-0.7,0.3L94,57.4z"/>
						<path id="XMLID_4558_" class="st6" d="M104.6,61.2c0.1,0.5,0.2,1.1,0.3,1.6l-1.3,0.8l0,0c-0.1-0.5-0.1-1.1-0.3-1.6v0
							L104.6,61.2z"/>
						<path id="XMLID_4455_" class="st16" d="M104.6,61.2c0.1,0.5,0.2,1.1,0.3,1.6l-1.3,0.8l0,0c-0.1-0.5-0.1-1.1-0.3-1.6v0
							L104.6,61.2z"/>
						<path id="XMLID_4556_" class="st2" d="M94.9,43.8c-0.1,1.4,0.2,3.2,1.1,5.7c0.8,2.3,2.5,4.8,4.8,7.7c2,2.6,2.9,5,2.8,7.7
							L94,57.5L94.9,43.8z"/>
						<path id="XMLID_4555_" class="st6" d="M94.2,54.9l9,7.1c0.1,0.5,0.2,1.1,0.3,1.6l-9.4-7.4L94.2,54.9z"/>
					</g>
				</g>
				<g id="XMLID_5237_">
					<path id="XMLID_5244_" class="st2" d="M82.6,24.6c0.3,0.2,0.5,0.6,0.5,0.9s-0.2,0.5-0.5,0.3c-0.3-0.2-0.5-0.6-0.5-0.9
						C82.1,24.5,82.4,24.4,82.6,24.6z"/>
					<path id="XMLID_5243_" class="st2" d="M82.6,26.7c0.3,0.2,0.5,0.5,0.5,0.8c0,0.3-0.2,0.4-0.5,0.3c-0.3-0.2-0.5-0.5-0.5-0.8
						C82.1,26.6,82.4,26.5,82.6,26.7z"/>
					<path id="XMLID_5242_" class="st2" d="M82.7,28.8c0.3,0.1,0.5,0.5,0.5,0.8s-0.2,0.4-0.5,0.3c-0.3-0.1-0.5-0.5-0.5-0.8
						S82.4,28.6,82.7,28.8z"/>
					<path id="XMLID_5241_" class="st2" d="M82.7,30.9c0.2,0.1,0.4,0.5,0.4,0.8c0,0.3-0.2,0.4-0.4,0.3c-0.2-0.1-0.4-0.5-0.4-0.8
						C82.3,30.9,82.5,30.8,82.7,30.9z"/>
					<path id="XMLID_5240_" class="st2" d="M82.8,33c0.2,0.1,0.4,0.4,0.4,0.7c0,0.3-0.2,0.4-0.4,0.2c-0.2-0.1-0.4-0.4-0.4-0.7
						C82.4,33,82.6,32.9,82.8,33z"/>
					<path id="XMLID_5239_" class="st2" d="M82.9,35.1c0.2,0.1,0.4,0.4,0.4,0.7s-0.2,0.3-0.4,0.2c-0.2-0.1-0.4-0.4-0.4-0.7
						S82.7,35,82.9,35.1z"/>
					<path id="XMLID_5238_" class="st2" d="M83,37.2c0.2,0.1,0.4,0.4,0.4,0.6s-0.2,0.3-0.4,0.2c-0.2-0.1-0.4-0.4-0.4-0.6
						C82.6,37.2,82.8,37.1,83,37.2z"/>
				</g>
				<g id="XMLID_4480_">
					<path id="XMLID_4741_" class="st3" d="M98,24.6c-0.3,0.2-0.5,0.6-0.5,0.9s0.2,0.5,0.5,0.3c0.3-0.2,0.5-0.6,0.5-0.9
						C98.5,24.5,98.2,24.4,98,24.6z"/>
					<path id="XMLID_4740_" class="st3" d="M98,26.7c-0.3,0.2-0.5,0.5-0.5,0.8c0,0.3,0.2,0.4,0.5,0.3c0.3-0.2,0.5-0.5,0.5-0.8
						C98.5,26.6,98.3,26.5,98,26.7z"/>
					<path id="XMLID_4739_" class="st3" d="M98,28.8c-0.3,0.1-0.5,0.5-0.5,0.8s0.2,0.4,0.5,0.3c0.3-0.1,0.5-0.5,0.5-0.8
						S98.2,28.6,98,28.8z"/>
					<path id="XMLID_4738_" class="st3" d="M97.9,30.9c-0.2,0.1-0.4,0.5-0.4,0.8c0,0.3,0.2,0.4,0.4,0.3c0.2-0.1,0.4-0.5,0.4-0.8
						C98.3,30.9,98.1,30.8,97.9,30.9z"/>
					<path id="XMLID_4737_" class="st3" d="M97.8,33c-0.2,0.1-0.4,0.4-0.4,0.7c0,0.3,0.2,0.4,0.4,0.2c0.2-0.1,0.4-0.4,0.4-0.7
						C98.2,33,98,32.9,97.8,33z"/>
					<path id="XMLID_4735_" class="st3" d="M97.7,35.1c-0.2,0.1-0.4,0.4-0.4,0.7s0.2,0.3,0.4,0.2c0.2-0.1,0.4-0.4,0.4-0.7
						S97.9,35,97.7,35.1z"/>
					<path id="XMLID_4724_" class="st3" d="M97.6,37.2c-0.2,0.1-0.4,0.4-0.4,0.6s0.2,0.3,0.4,0.2c0.2-0.1,0.4-0.4,0.4-0.6
						S97.8,37.1,97.6,37.2z"/>
				</g>
				<ellipse class="st2" cx="90.3" cy="34" rx="3.8" ry="3.8"/>
				<circle class="st6" cx="90.3" cy="34" r="2.8"/>
			</g>
		</g>
	</g>
	<g id="Speech_Bubble">
		<g id="Speach_Bubble_7_">
			<g id="XMLID_5118_">
				<path id="XMLID_5123_" class="st6" d="M160.8,25.2l-1.2-3.3l0.9-2.7v-1.6l-2.9,1.6v1.6l1.2,3.2c0,0,0.1,0.1,0.1,0.1l0,0
					L160.8,25.2z"/>
				<path id="XMLID_5122_" class="st26" d="M160.8,25.2l-1.2-3.3l0.9-2.7v-1.6l-2.9,1.6v1.6l1.2,3.2c0,0,0.1,0.1,0.1,0.1l0,0
					L160.8,25.2z"/>
				<path id="XMLID_5121_" class="st6" d="M167.7,4.4c0-0.5-0.4-1.2-0.9-1.5l-0.7-0.4c-0.5-0.3-1.2-0.3-1.7,0l-10.7,6.2
					c-0.5,0.3-0.9,0.9-0.9,1.5V22c0,0.5,0.4,1.2,0.9,1.5l0.7,0.4c0.5,0.3,1.2,0.3,1.7,0l3.4-2l1.2,3.2c0.1,0.1,0.3,0.1,0.3,0
					l1.3-4.9l4.4-2.5c0.5-0.3,0.9-0.9,0.9-1.5V4.4z"/>
				<path id="XMLID_5120_" class="st26" d="M152.8,22c0,0.5,0.4,1.2,0.9,1.5l0.7,0.4c0.4,0.2,1.1,0.3,1.6,0.1
					c-0.4,0.2-0.7-0.1-0.7-0.6V11.6c0-0.3,0.1-0.6,0.3-0.8l-2.4-1.4c-0.2,0.3-0.3,0.6-0.3,0.8V22z"/>
				<path id="XMLID_5119_" class="st9" d="M167.6,4.2c-0.1-0.4-0.4-0.5-0.8-0.3l-10.7,6.2c-0.2,0.1-0.4,0.4-0.6,0.6l-2.4-1.4
					c0.2-0.3,0.4-0.5,0.6-0.6l10.7-6.2c0.5-0.3,1.2-0.3,1.7,0l0.7,0.4C167.2,3.2,167.6,3.7,167.6,4.2z"/>
			</g>
			<g id="XMLID_5107_">
				<g id="XMLID_5109_">
					<path id="XMLID_5111_" class="st20" d="M165.7,12.8L165.7,12.8C165.7,12.8,165.7,12.8,165.7,12.8l-0.9-0.1
						c-0.1,0-0.1-0.1-0.1-0.1c0-0.1,0-0.3,0-0.4c0-0.1,0-0.3,0-0.4c0-0.1,0-0.2,0.1-0.2l0.9-1.1c0.1-0.1,0.1-0.2,0.1-0.2l-0.4-1
						c0,0,0,0,0,0c0,0,0,0,0,0c0,0-0.1,0-0.1,0l-1,0.9c-0.1,0.1-0.2,0.1-0.2,0c-0.1-0.1-0.3-0.2-0.4-0.2c-0.1,0-0.1-0.1-0.1-0.2
						l0.3-1.4c0,0,0-0.1,0-0.1c0,0-0.1,0-0.1,0l-1,0.1c-0.1,0-0.2,0.1-0.2,0.1L162,9.9c0,0.1-0.1,0.2-0.2,0.2
						c-0.2,0.1-0.4,0.2-0.6,0.3c-0.1,0.1-0.2,0.1-0.2,0l-0.5-0.7c0-0.1-0.1,0-0.2,0l-1,1.1c-0.1,0.1-0.1,0.2-0.1,0.2l0.3,1
						c0,0.1,0,0.2-0.1,0.2c-0.2,0.3-0.3,0.6-0.5,0.8c0,0.1-0.1,0.1-0.2,0.2l-0.9,0.2c-0.1,0-0.2,0.1-0.2,0.2l-0.4,1.5
						c0,0.1,0,0.1,0.1,0.1l0.8,0c0.1,0,0.1,0.1,0.1,0.1c0,0.3,0,0.5,0,0.8c0,0.1,0,0.2-0.1,0.2l-0.9,1.1c-0.1,0.1-0.1,0.2-0.1,0.2
						l0.4,1c0,0,0,0,0,0l0,0c0,0,0,0,0,0c0,0,0,0,0,0l0,0c0,0,0.1,0,0.1-0.1l1-0.9c0.1-0.1,0.2-0.1,0.2,0c0.1,0.1,0.3,0.2,0.4,0.2
						c0.1,0,0.1,0.1,0.1,0.2l-0.3,1.4c0,0,0,0.1,0,0.1c0,0,0,0,0,0c0,0,0.1,0,0.1,0l1-0.1c0.1,0,0.2-0.1,0.2-0.1l0.5-1.4
						c0-0.1,0.1-0.2,0.2-0.2c0.1,0,0.2-0.1,0.3-0.2c0.1-0.1,0.2-0.1,0.3-0.2c0.1-0.1,0.2-0.1,0.2,0l0.5,0.7c0,0,0,0,0,0
						c0,0,0.1,0,0.2,0l1-1.1c0.1-0.1,0.1-0.2,0.1-0.2l-0.3-1c0-0.1,0-0.2,0.1-0.2c0.2-0.3,0.3-0.6,0.5-0.8c0-0.1,0.1-0.1,0.2-0.2
						l0.9-0.2c0.1,0,0.2-0.1,0.2-0.2l0.5-1.5C165.8,12.9,165.8,12.8,165.7,12.8z M161,16.5C160.9,16.5,160.9,16.5,161,16.5
						C160.9,16.5,160.9,16.5,161,16.5c-0.1,0-0.1,0-0.2,0c0,0-0.1,0-0.1,0c0,0,0,0-0.1,0c0,0,0,0,0,0c-0.4,0-0.7-0.2-0.9-0.6
						c-0.1-0.2-0.1-0.3-0.1-0.5c0-0.1,0-0.2,0-0.3c0-0.9,0.4-1.9,1.2-2.7c0.2-0.3,0.5-0.4,0.7-0.6c0.1,0,0.2-0.1,0.2-0.1
						c0.2-0.1,0.5-0.2,0.7-0.1c0,0,0,0,0,0c0,0,0,0,0,0c0,0,0,0,0,0c0,0,0,0,0,0c0.3,0,0.6,0.2,0.8,0.6c0.4,0.9-0.1,2.5-1,3.5
						C161.8,16.1,161.4,16.4,161,16.5z"/>
				</g>
			</g>
		</g>
	</g>
	<g id="Character">
		<g id="Briefcase">
			<g id="XMLID_5000_">
				<g id="XMLID_5005_">
					<path id="XMLID_5007_" class="st6" d="M185,101.4v12.9c0,0.6-0.5,1.4-1,1.8l-1.2,0.7c-0.4,0.2-0.9,0.3-1.4,0.2
						c-0.2,0-0.4-0.1-0.6-0.2c0,0,0,0,0,0l-0.1,0l-14.3-8.2c-1-0.6-1.7-1.7-1.7-2.9V93.5c0-0.3,0.2-0.6,0.4-0.8l2.4-1.4
						c0.2-0.1,0.6-0.1,0.9,0l16.2,9.4c0.1,0.1,0.2,0.2,0.3,0.3C185,101.1,185,101.3,185,101.4z"/>
					<path id="XMLID_5006_" class="st26" d="M185,101.4v12.9c0,0.6-0.5,1.4-1,1.8l-1.2,0.7c-0.4,0.2-0.9,0.3-1.4,0.2
						c-0.2,0-0.4-0.1-0.6-0.2v0c0.6,0.3,1,0,1-0.7v-12.5c0-0.2-0.1-0.4-0.2-0.6l3.3-1.9C185,101.1,185,101.3,185,101.4z"/>
				</g>
				<path id="XMLID_5004_" class="st22" d="M181.8,103.6c0-0.4-0.3-0.9-0.7-1.1l-15.3-8.8c-0.6-0.3-1.1-0.1-1.1,0.6v11.3
					c0,1.2,0.6,2.3,1.7,2.9l14.3,8.2c0.6,0.3,1.1,0.1,1.1-0.6V103.6z"/>
				<path id="XMLID_5003_" class="st27" d="M164.7,97.7c0,0.8,0.6,1.8,1.3,2.2l14.6,8.4c0.7,0.4,1.3,0.1,1.3-0.7v-4.3
					c0-0.2,0.1-0.5,0.3-0.6l2.2-1.3l-16.8-10l-2.5,1.4c-0.2,0.1-0.3,0.4-0.3,0.6L164.7,97.7L164.7,97.7z"/>
				<path id="XMLID_5002_" class="st6" d="M167.5,91.3l-2.5,1.4c-0.1,0.1-0.2,0.2-0.3,0.3l17.1,9.8c0.1-0.1,0.1-0.2,0.2-0.2l2.2-1.3
					L167.5,91.3z"/>
				<path id="XMLID_5001_" class="st2" d="M172.1,102.4l2.3,1.3c0.3,0.2,0.6,0.7,0.6,1.1l0,0.5c0,0.4-0.3,0.6-0.6,0.4l-2.3-1.3
					c-0.3-0.2-0.6-0.7-0.6-1.1v-0.5C171.5,102.4,171.7,102.2,172.1,102.4z"/>
			</g>
			<g id="XMLID_4979_">
				<path id="XMLID_4998_" class="st4" d="M173,93.6v1.8l-1,0.6v-2.7c0-0.1,0.1-0.2,0.2-0.1L173,93.6z"/>
				<path id="XMLID_4994_" class="st3" d="M178.5,95.5v3.3l-0.8,0.4l-0.5-0.3v-2.7c0-0.1-0.1-0.3-0.2-0.4l-3.9-2.3l-0.8-0.5
					c-0.1-0.1-0.2,0-0.2,0.1V96l-0.5-0.3v-3.3c0,0,0,0,0,0c0-0.1,0.1-0.3,0.2-0.3l0.3-0.2c0.1-0.1,0.3-0.1,0.4,0l5.8,3.3
					C178.4,95.2,178.5,95.3,178.5,95.5z"/>
				<path id="XMLID_4991_" class="st2" d="M177.7,95.9v3.3l-0.5-0.3v-2.7c0-0.1-0.1-0.3-0.2-0.4l-3.9-2.3l-0.8-0.5
					c-0.1-0.1-0.2,0-0.2,0.1V96l-0.5-0.3v-3.3c0,0,0,0,0,0c0-0.1,0.1-0.1,0.2-0.1l5.8,3.3C177.6,95.6,177.7,95.8,177.7,95.9z"/>
			</g>
		</g>
		<g id="Character_4_">
			<g>
				<g id="XMLID_4914_">
					<g id="XMLID_4970_">
						<path id="XMLID_4978_" class="st4" d="M168.7,111.8c0.2,0.1,0.4,0.5,0.5,1.7c0.1,0.7,0.3,1.6-0.7,2.2c-0.6,0.3-1.7,0.5-2.5,0
							c-0.9-0.6-1.2-1.8-2.3-2.7c-0.9-0.7-2.4-1.5-3-2.6c-0.4-0.9-0.4-2.3,1.1-2.2c1.9,0.1,3,1.6,4.2,1.6
							C166.8,109.7,168.4,111.7,168.7,111.8z"/>
					</g>
					<g id="XMLID_4942_">
						<path id="XMLID_4947_" class="st28" d="M168.7,111.2l0,1.1c0,0.6-2.3,1.4-3,0.1c-0.1-0.1-0.3-1.6-0.3-1.6L168.7,111.2z"/>
					</g>
					<g id="XMLID_4939_">
						<path id="XMLID_4940_" class="st4" d="M157.9,118.3c0,0,0.4,0,0.6,1.8c0.1,0.7,0.2,2.1,0,2.6c-0.2,0.5-1.5,0.7-2.9,0.9
							c-1.1,0.1-2,0.6-3,1.2c-0.9,0.5-2,0.8-3.1,0.8c-1.3,0-2.5-0.1-3.5-0.9c-0.5-0.4-1.2-1.3-0.7-1.9c0.2-0.2,0.5-0.3,0.7-0.4
							c0.6-0.2,1.2-0.4,1.8-0.6c0.9-0.3,1.8-0.6,2.7-1c1.3-0.6,2.7-1.3,3.6-2.4L157.9,118.3z"/>
					</g>
					<g id="XMLID_4937_">
						<path id="XMLID_4938_" class="st28" d="M157.9,117.4c0,0,0,0.8,0,1.3c0,0.5-0.6,1.2-2,1.1c-1,0-1.7-0.3-1.7-1.1l0-1.2
							L157.9,117.4z"/>
					</g>
					<g id="XMLID_4915_">
						<path id="XMLID_4936_" class="st2" d="M169.3,96.4c-0.5-3.7-1.4-5.8-1.4-5.8s0.4-5,0.5-9.8c0.2-5.2-0.1-11.5-0.4-14.7
							c0,0-16.2-1.5-16.5,4.4c-0.3,6,0.1,21.1,0.3,23.8c0.2,2.6,0.4,5.1,1,9.9c0.5,4.2,1.2,13.3,1.2,13.3c1.9,1,3.7-0.1,3.7-0.1
							s1.2-12.2,1.4-15.3c0.2-3.9-0.7-6.1-0.7-6.1s0.3-2.5,1-7.5c0.4-3.6,1-7.7,1-7.7s0.6,5,0.9,7.9c0.3,2.6,0.8,4.7,1.6,9.5
							c0.7,4.2,2.5,13.1,2.5,13.1c1.9,1,3.2-0.2,3.2-0.2S169.9,100,169.3,96.4z"/>
					</g>
				</g>
				<path class="st4" d="M160.4,80.9l0.8-5c0,0,3.2-1,4.8-2.9c0,0-0.9,2.2-3.8,3.4l-1.2,4.2l-0.2,3.5L160.4,80.9z"/>
			</g>
			<g>
				<path class="st6" d="M164.8,46c2.5-0.6,4.1,0.6,5.1,4.1c0.8,3,2,9.1,2.4,11.3c0.2,0.8,0.5,1.8-1.3,2.9c-3.5,2.1-8,4-8,4l-1-3.6
					l3.9-8L164.8,46z"/>
				<path class="st29" d="M164.8,46c2.5-0.6,4.1,0.6,5.1,4.1c0.8,3,2,9.1,2.4,11.3c0.2,0.8,0.5,1.8-1.3,2.9c-3.5,2.1-8,4-8,4l-1-3.6
					l3.9-8L164.8,46z"/>
			</g>
			<g>
				<polygon id="XMLID_4912_" class="st28" points="157.8,44.4 158.5,49.8 163.3,49.6 162.9,43.4 				"/>
				<g id="XMLID_4910_">
					<path id="XMLID_4911_" class="st30" d="M154.3,37.9c0,0-1.3,1.9-1.1,2.1c0.1,0.2,1.1,0.4,1.1,0.4L154.3,37.9z"/>
				</g>
				<g id="XMLID_4899_">
					<path id="XMLID_4900_" class="st4" d="M154.8,39.1c-0.9,0-1.6-0.7-1.5-1.6c0-0.9,0.7-1.6,1.6-1.5c0.9,0,1.6,0.7,1.5,1.6
						C156.3,38.4,155.6,39.1,154.8,39.1z M154.8,36.3c-0.7,0-1.2,0.5-1.2,1.2c0,0.7,0.5,1.2,1.2,1.2s1.2-0.5,1.2-1.2
						C156,36.9,155.5,36.3,154.8,36.3z"/>
				</g>
				<g id="XMLID_4880_">
					<path id="XMLID_4882_" class="st28" d="M157.9,32.6c-2.5,0.5-3.3,1.6-3.6,5.6c-0.3,4.2,0.1,5.5,0.6,6.1
						c0.4,0.4,2.4,0.5,3.5,0.2c1.3-0.3,4.3-1.3,5.7-3.4c1.7-2.5,2.2-5.8,0.4-7.3C162.2,31.9,158.9,32.4,157.9,32.6z"/>
				</g>
				<path class="st30" d="M157.8,44.7c-1.1,0.1-2.6,0-2.9-0.3c1.2,0.1,2.7-0.5,2.7-0.5L157.8,44.7z"/>
				<g id="XMLID_4872_">
					<g id="XMLID_4874_">
						<path id="XMLID_4878_" class="st4" d="M154.3,33.6c0.1,0.1,0.1,0.2,0.2,0.3c0.4,0.6,0.9,1.1,1.5,1.5c0.5,0.4,0.7,0.9,0.9,1.5
							c0.2,0.6,0.2,1.3,0.9,1.6c0,0,0.4-1.6,1.8-1.4c1.4,0.2,1.5,2,0.7,3.1c-0.9,1.1-1.7,0.6-1.7,0.6s0,2.3,1,3.7c0,0,1.2,0.4,3.3,0
							c1.3-0.3,3.2-1.9,4.1-3.6c1.7-3.7,1.9-7-0.5-8.1c-0.1,0-0.2-0.9-0.3-1c-0.1-0.3-0.3-0.6-0.6-0.8c-0.5-0.5-1.2-0.9-2-1
							c-1.9-0.3-3.9,0.1-5.8-0.3c-0.9-0.2-1.7-0.5-2.6-0.2c-0.8,0.3-1.4,1.1-1.5,2C153.6,32.2,153.9,33,154.3,33.6z"/>
					</g>
				</g>
				<g id="XMLID_4856_">
					<g id="XMLID_4865_">
						<g id="XMLID_4869_">
							<path id="XMLID_4871_" class="st4" d="M166.1,33.6l1.5-0.9c-0.2-0.4-0.8-0.6-1.2-0.3C166,32.7,165.9,33.2,166.1,33.6z"/>
						</g>
					</g>
					<g id="XMLID_4860_">
						<g id="XMLID_4861_">
							<path id="XMLID_4863_" class="st4" d="M157.7,39.5l0.1-1.8c-0.5,0-0.9,0.4-0.9,0.8C156.8,39.1,157.2,39.5,157.7,39.5z"/>
						</g>
					</g>
				</g>
				<polygon id="XMLID_4855_" class="st4" points="153.4,37.2 158.1,37.9 157.9,38.2 153.4,37.5 				"/>
			</g>
			<g id="XMLID_514_">
				<path id="XMLID_4853_" class="st6" d="M168.6,48.8c-0.6-2.2-1.3-2.9-3.3-3c-0.6,0-2.5,0.3-2.9,0.4c-0.2,0.9-2.6,1.6-5,1.1
					c-0.7,0.2-2.6,0.7-3.2,0.9c-1.7,0.6-2.5,2.4-2.7,8c0,0-0.3,13.4,0,15.7c4.3,1.7,8.8,1.6,11.3,1.1c5.1-1.2,5.8-3.3,5.8-3.3
					s-0.3-5.4-0.4-9.4c0.3-2.6,0.6-4.6,0.8-6.6C169.1,51.6,168.8,49.7,168.6,48.8z"/>
				<path id="XMLID_5026_" class="st31" d="M168.6,48.8c-0.6-2.2-1.3-2.9-3.3-3c-0.6,0-2.5,0.3-2.9,0.4c-0.2,0.9-2.6,1.6-5,1.1
					c-0.7,0.2-2.6,0.7-3.2,0.9c-1.7,0.6-2.5,2.4-2.7,8c0,0-0.3,13.4,0,15.7c4.3,1.7,8.8,1.6,11.3,1.1c5.1-1.2,5.8-3.3,5.8-3.3
					s-0.3-5.4-0.4-9.4c0.3-2.6,0.6-4.6,0.8-6.6C169.1,51.6,168.8,49.7,168.6,48.8z"/>
			</g>
			<g>
				<path class="st6" d="M163,44.9l0,0.5c0,0-0.3,0.7-1.7,1c-2.4,0.5-3.3-0.3-3.3-0.3l-0.1-0.4c0,0-0.2-0.1-0.6,0.2
					c-0.4,0.3-1.7,2-1.7,2s0.5-0.1,2,0.5c1.6,0.7,3.5,0.6,4.8,0.2s1.7-1.5,1.7-2C164.2,46.1,163.4,44.7,163,44.9z"/>
				<path class="st29" d="M163,44.9l0,0.5c0,0-0.3,0.7-1.7,1c-2.4,0.5-3.3-0.3-3.3-0.3l-0.1-0.4c0,0-0.2-0.1-0.6,0.2
					c-0.4,0.3-1.7,2-1.7,2s0.5-0.1,2,0.5c1.6,0.7,3.5,0.6,4.8,0.2s1.7-1.5,1.7-2C164.2,46.1,163.4,44.7,163,44.9z"/>
			</g>
			<g>
				<g>
					<g id="XMLID_4999_">
						<path id="XMLID_5008_" class="st28" d="M154.6,48.1c-3.4,0.3-3.7,1.3-4.9,5c-1.1,3.5-2.4,8.2-2.6,9.1
							c-0.3,1.2-0.2,4.4,0.6,5.1c0.7,0.7,2.4,1.9,3.8-1.9c1.3-3.5,3.3-9.2,3.3-9.2S156.3,51.2,154.6,48.1z"/>
					</g>
					<g id="XMLID_5009_">
						<path class="st2" d="M146.6,54.3l-3.1-9.4c0-0.1-0.1-0.1-0.1-0.1c0,0-0.4-0.1-0.4-0.1c0,0-0.1,0-0.1,0l-4.7,2.7
							c-0.1,0.1-0.1,0.2-0.1,0.3l3.4,9.3c0,0.1,0.1,0.1,0.2,0.1l0.1-0.1l0,0.1c0,0.1,0.1,0.1,0.2,0.1l4.3-2.5
							C146.6,54.6,146.6,54.4,146.6,54.3z"/>
						<path id="XMLID_5062_" class="st3" d="M143.3,44.8l-4.7,2.7c-0.1,0.1-0.1,0.2-0.1,0.3l3.4,9.3c0,0.1,0.1,0.1,0.2,0.1l4.3-2.5
							c0.1-0.1,0.1-0.2,0.1-0.3l-3.1-9.4C143.5,44.8,143.4,44.7,143.3,44.8z"/>
						<polygon id="XMLID_5060_" class="st20" points="139.2,48.3 143.5,45.9 146,53.8 142,56.1 						"/>
						<g id="XMLID_5023_">
							<path id="XMLID_5024_" class="st2" d="M140.9,46.9C140.9,46.9,140.8,46.9,140.9,46.9c-0.1-0.1-0.1-0.2-0.1-0.2l1-0.6
								c0,0,0.1,0,0.1,0c0,0,0,0.1,0,0.1L140.9,46.9C140.9,46.9,140.9,46.9,140.9,46.9z"/>
						</g>
						<path id="XMLID_5022_" class="st2" d="M140.6,47c0,0.1,0,0.1-0.1,0.1c-0.1,0-0.1,0-0.1-0.1c0-0.1,0-0.1,0.1-0.1
							C140.6,46.9,140.6,47,140.6,47z"/>
						<path id="XMLID_5010_" class="st2" d="M144.5,55.3c0,0.1-0.1,0.3-0.3,0.3c-0.1,0-0.3-0.1-0.3-0.3c0-0.1,0.1-0.3,0.3-0.3
							C144.4,55.1,144.5,55.2,144.5,55.3z"/>
					</g>
					<path id="XMLID_4988_" class="st28" d="M141.5,53.7c0.1-0.3,0.1-0.7,0.2-1c0.1-0.3,0.3-0.6,0.6-0.9c0.1-0.1,0.4-0.2,0.5-0.1
						c0.1,0.1,0.2,0.2,0.2,0.3c0,0.1,0,0.2,0,0.4c-0.1,0.5-0.1,1,0.1,1.5c0.1,0.2,0.2,0.4,0.2,0.7c0.1,0.2,0.2,0.6,0.2,0.8
						c0.1,0.5,0.3,0.9,0.6,1.4c0.4,0.6,6.1,6.2,6.1,6.2l-0.9,5.1c-1.5,0.1-5.2-5-6.4-6.7c-1.1-1.6-2.2-2.7-3.3-4
						c-0.8-1.1-1.4-4.2-1.1-6.2c0.1-0.8,0.5-1.3,0.5-1.3l1,2.8l0.9,1.3c0.1,0.2,0.3,0.4,0.6,0.2C141.4,54,141.5,53.9,141.5,53.7z"/>
				</g>
				<g>
					<path class="st6" d="M154.9,48c0,0-1.9,0-3.2,0.7c-1.3,0.8-2,3.5-2.4,4.8c-0.4,1.3-1.8,6.6-1.8,6.6l-2.9-2.7
						c0,0-1.8,0.5-2.5,3.1c0,0,0.9,1.5,2.6,3.8c1.7,2.3,3.4,4.2,4.7,4c1.3-0.3,1.9-1.6,3.1-4.7c1.2-3.1,2.9-8.4,2.9-8.4
						S156.4,50.7,154.9,48z"/>
					<path class="st29" d="M154.9,48c0,0-1.9,0-3.2,0.7c-1.3,0.8-2,3.5-2.4,4.8c-0.4,1.3-1.8,6.6-1.8,6.6l-2.9-2.7
						c0,0-1.8,0.5-2.5,3.1c0,0,0.9,1.5,2.6,3.8c1.7,2.3,3.4,4.2,4.7,4c1.3-0.3,1.9-1.6,3.1-4.7c1.2-3.1,2.9-8.4,2.9-8.4
						S156.4,50.7,154.9,48z"/>
					<path class="st29" d="M147.6,60.2c0,0-0.3,1-0.6,2.2c0,0,0-1.3,0.2-2.5L147.6,60.2z"/>
				</g>
			</g>
		</g>
	</g>
</g>
</svg>
