<?xml version="1.0" encoding="utf-8"?>
<!-- Generator: Adobe Illustrator 25.4.1, SVG Export Plug-In . SVG Version: 6.00 Build 0)  -->
<svg version="1.1" id="Illustration" xmlns="http://www.w3.org/2000/svg" xmlns:xlink="http://www.w3.org/1999/xlink" x="0px"
	 y="0px" viewBox="0 0 225 150" style="enable-background:new 0 0 225 150;" xml:space="preserve">
<style type="text/css">
	.st0{opacity:7.000000e-02;fill:url(#SVGID_1_);enable-background:new    ;}
	.st1{opacity:0.3;}
	.st2{fill:url(#SVGID_00000144322348969403649680000002206789116229291947_);}
	.st3{fill:url(#SVGID_00000040533949124552977810000002788980588145611154_);}
	.st4{fill:url(#SVGID_00000039816371516802144020000007857803266973771943_);}
	.st5{fill:url(#SVGID_00000078747601419000441240000008384222945233408660_);}
	.st6{fill:url(#SVGID_00000129185284190283994160000001558890090376201388_);}
	.st7{fill:url(#SVGID_00000010993698432492258040000012595290432278959244_);}
	.st8{opacity:0.56;fill:#FFFFFF;enable-background:new    ;}
	.st9{fill:url(#SVGID_00000049925913074855632320000008967449341555997110_);}
	.st10{fill:url(#SVGID_00000142896282305132981870000000412338518840631458_);}
	.st11{fill:url(#SVGID_00000098912020814431080810000014546185428878104728_);}
	.st12{fill:url(#SVGID_00000052793704639017012640000015050384827715761327_);}
	.st13{fill:url(#SVGID_00000032630427702947723470000016196676141493691526_);}
	.st14{fill:url(#SVGID_00000111896000881387352770000017963470467901783995_);}
	.st15{fill:#FFFFFF;}
	.st16{fill:url(#SVGID_00000178193907599712603830000014925646553621579199_);}
	.st17{fill:#052669;}
	.st18{fill:url(#SVGID_00000048465819696255347410000006790776041584224658_);}
	.st19{opacity:0.6;fill:#FFFFFF;enable-background:new    ;}
	.st20{opacity:0.58;fill:#FFFFFF;enable-background:new    ;}
	.st21{opacity:0.25;fill:#FFFFFF;enable-background:new    ;}
	.st22{fill:url(#SVGID_00000128466780210983081750000006304494868183717264_);}
	.st23{fill:url(#SVGID_00000154387343527604350920000016709799898980926350_);}
	.st24{fill:url(#SVGID_00000026869964552568697870000009801069352752505265_);}
	.st25{fill:url(#SVGID_00000176739875495944710760000009868238747896283037_);}
	.st26{fill:url(#SVGID_00000010277148228330699150000006344540512010598038_);}
	.st27{fill:url(#SVGID_00000016038683726695222620000014413627671894347679_);}
	.st28{fill:url(#SVGID_00000121993229089450163390000010195161139220760453_);}
	.st29{fill:url(#SVGID_00000148637053417496710040000012271524151965619353_);}
	.st30{fill:url(#SVGID_00000063607314856153603970000006668225613322791817_);}
	.st31{fill:#070707;}
	.st32{fill:url(#SVGID_00000023268060266620320710000017246124941563513230_);}
	.st33{fill:url(#SVGID_00000177481429065607408410000004323087399791803022_);}
	.st34{fill:url(#SVGID_00000064350972479988789730000009351845524921385404_);}
	.st35{fill:url(#SVGID_00000037674441380253432450000010813104524842598799_);}
	.st36{fill:url(#SVGID_00000020357293124809223800000012434909531524169355_);}
	.st37{fill:url(#SVGID_00000071542525547576287130000011857584099965574309_);}
	.st38{fill:url(#SVGID_00000078040216897477373270000004277574297631990185_);}
	.st39{fill:url(#SVGID_00000052799125612276792920000004594772839343755419_);}
	.st40{fill:url(#SVGID_00000132800396013510419260000012711763846564658103_);}
	.st41{fill:url(#SVGID_00000045593757467084147960000014854898224364029878_);}
	.st42{fill:url(#SVGID_00000118370581932651977150000000784695923027601316_);}
	.st43{fill:url(#SVGID_00000090270971949218292680000004620020894014183308_);}
	.st44{fill:url(#SVGID_00000073000101270608589580000009169718664274624411_);}
	.st45{fill:url(#SVGID_00000026876231931181083490000005195535237378777017_);}
	.st46{fill:url(#SVGID_00000071536678499918664480000010782200947911456695_);}
	.st47{fill:url(#SVGID_00000030473054207745605890000004047903812615827636_);}
</style>
<g>
	
		<linearGradient id="SVGID_1_" gradientUnits="userSpaceOnUse" x1="201.9223" y1="-36.4358" x2="76.0029" y2="119.9482" gradientTransform="matrix(1 0 0 -1 0 150)">
		<stop  offset="0" style="stop-color:#7A1DBC"/>
		<stop  offset="0.8184" style="stop-color:#EF7F1A"/>
	</linearGradient>
	<path class="st0" d="M167.3,124.8c-2.9,3-5.6,5-7.8,6.6c-25.4,18.2-55.5,12.9-61.9,11.6c-9.4-1.9-27.7-5.6-40.9-21.1
		c-20-23.5-16.8-60.4-1.4-84.8c2.8-4.5,17.8-29.2,48.2-33.2c18.4-2.4,39.8,2.4,55.4,15.5C191.5,46.5,189.2,101.7,167.3,124.8z"/>
	<g>
		<g>
			<g class="st1">
				
					<linearGradient id="SVGID_00000119099669563575448720000014809872174242887088_" gradientUnits="userSpaceOnUse" x1="-1806.2612" y1="-1522.6456" x2="-1777.2258" y2="-1522.6456" gradientTransform="matrix(-7.040000e-02 -0.9975 -0.9975 7.040000e-02 -1496.876 -1649.3314)">
					<stop  offset="0" style="stop-color:#B37CFF"/>
					<stop  offset="1" style="stop-color:#F895E7"/>
				</linearGradient>
				<path style="fill:url(#SVGID_00000119099669563575448720000014809872174242887088_);" d="M160.5,43.8c0,0.3-0.2,0.5-0.4,0.5
					c-0.6,0.1-1.1,0.2-1.7,0.2c-0.3,0-0.5-0.2-0.6-0.5c0,0,0,0,0,0c0-0.3,0.2-0.5,0.5-0.5c0.5,0,1.1-0.1,1.6-0.2
					C160.2,43.3,160.5,43.5,160.5,43.8C160.5,43.8,160.5,43.8,160.5,43.8z M156.1,44.1C156.1,44.1,156.1,44.1,156.1,44.1
					c0,0.3-0.3,0.6-0.5,0.5c-0.6,0-1.2-0.1-1.7-0.2c-0.3,0-0.5-0.3-0.4-0.6c0-0.3,0.3-0.5,0.6-0.4c0.5,0.1,1.1,0.1,1.6,0.1
					C155.9,43.6,156.1,43.8,156.1,44.1z M151.7,43.4c0,0.1,0,0.1,0,0.2c-0.1,0.3-0.4,0.4-0.6,0.4c-0.6-0.2-1.1-0.3-1.7-0.5
					c-0.3-0.1-0.4-0.4-0.3-0.7c0.1-0.3,0.4-0.4,0.7-0.3c0.5,0.2,1,0.4,1.6,0.5C151.6,43,151.7,43.2,151.7,43.4z M147.6,41.7
					c0,0.1,0,0.2-0.1,0.3c-0.1,0.2-0.4,0.3-0.7,0.2c-0.5-0.3-1-0.6-1.5-0.9c-0.2-0.2-0.3-0.5-0.1-0.7c0.2-0.2,0.5-0.3,0.7-0.1
					c0.5,0.3,0.9,0.6,1.4,0.8C147.5,41.4,147.6,41.5,147.6,41.7z M144,39.2c0,0.1,0,0.3-0.1,0.4c-0.2,0.2-0.5,0.2-0.7,0
					c-0.4-0.4-0.9-0.8-1.3-1.2c-0.2-0.2-0.2-0.5,0-0.7c0.2-0.2,0.5-0.2,0.7,0c0.4,0.4,0.8,0.8,1.2,1.1C143.9,38.9,144,39,144,39.2z
					 M141,35.9c0,0.2-0.1,0.3-0.2,0.4c-0.2,0.2-0.5,0.1-0.7-0.1c-0.3-0.5-0.7-1-1-1.4c-0.1-0.2-0.1-0.6,0.2-0.7
					c0.2-0.1,0.6-0.1,0.7,0.2c0.3,0.5,0.6,0.9,0.9,1.4C140.9,35.7,141,35.8,141,35.9z M138.5,17.4c0,0.1,0,0.1,0,0.2
					c-0.2,0.5-0.4,1-0.5,1.6c-0.1,0.3-0.4,0.4-0.6,0.4c-0.3-0.1-0.4-0.4-0.4-0.6c0.2-0.6,0.3-1.1,0.5-1.7c0.1-0.3,0.4-0.4,0.7-0.3
					C138.3,17,138.4,17.2,138.5,17.4z M138.8,32c0,0.2-0.1,0.4-0.3,0.5c-0.3,0.1-0.6,0-0.7-0.3c-0.2-0.5-0.4-1.1-0.6-1.6
					c-0.1-0.3,0.1-0.6,0.3-0.6c0.3-0.1,0.6,0.1,0.6,0.3c0.2,0.5,0.4,1,0.6,1.5C138.8,31.9,138.8,32,138.8,32z M137.4,21.7
					c0,0,0,0.1,0,0.1c-0.1,0.5-0.1,1.1-0.1,1.6c0,0.3-0.3,0.5-0.5,0.5c-0.3,0-0.5-0.3-0.5-0.5c0-0.6,0.1-1.2,0.2-1.7
					c0-0.3,0.3-0.5,0.6-0.4C137.2,21.2,137.4,21.4,137.4,21.7z M137.5,27.8c0,0.3-0.2,0.5-0.4,0.5c-0.3,0-0.5-0.1-0.6-0.4
					c-0.1-0.6-0.2-1.1-0.2-1.7c0,0,0,0,0,0c0-0.3,0.2-0.5,0.5-0.5c0.3,0,0.5,0.2,0.6,0.5C137.4,26.7,137.4,27.2,137.5,27.8
					C137.5,27.8,137.5,27.8,137.5,27.8z"/>
				
					<linearGradient id="SVGID_00000065782228015259568490000001820426421917667986_" gradientUnits="userSpaceOnUse" x1="-1775.8141" y1="-1514.9969" x2="-1774.1184" y2="-1514.9969" gradientTransform="matrix(-7.040000e-02 -0.9975 -0.9975 7.040000e-02 -1496.876 -1649.3314)">
					<stop  offset="0" style="stop-color:#B37CFF"/>
					<stop  offset="1" style="stop-color:#F895E7"/>
				</linearGradient>
				<path style="fill:url(#SVGID_00000065782228015259568490000001820426421917667986_);" d="M140,14.2c0,0.1,0,0.2-0.1,0.3
					c-0.1,0.2-0.3,0.5-0.4,0.7c-0.1,0.2-0.4,0.3-0.7,0.2c-0.2-0.1-0.3-0.4-0.2-0.7c0.1-0.2,0.3-0.5,0.4-0.7c0.1-0.2,0.5-0.3,0.7-0.2
					C139.9,13.8,140,14,140,14.2z"/>
			</g>
			<g class="st1">
				
					<linearGradient id="SVGID_00000098911925613303958710000001090124022829492630_" gradientUnits="userSpaceOnUse" x1="-1767.0116" y1="-1527.9551" x2="-1765.8479" y2="-1527.9551" gradientTransform="matrix(-7.040000e-02 -0.9975 -0.9975 7.040000e-02 -1496.876 -1649.3314)">
					<stop  offset="0" style="stop-color:#B37CFF"/>
					<stop  offset="1" style="stop-color:#F895E7"/>
				</linearGradient>
				<path style="fill:url(#SVGID_00000098911925613303958710000001090124022829492630_);" d="M152.5,5c0,0.2-0.1,0.5-0.4,0.5
					c-0.3,0.1-0.5,0.1-0.8,0.2c-0.3,0.1-0.6-0.1-0.6-0.4c-0.1-0.3,0.1-0.6,0.4-0.6c0.3-0.1,0.5-0.1,0.8-0.2
					C152.2,4.5,152.4,4.6,152.5,5C152.5,4.9,152.5,5,152.5,5z"/>
				
					<linearGradient id="SVGID_00000111184945616999578350000012425769924128178847_" gradientUnits="userSpaceOnUse" x1="-1795.5065" y1="-1541.1919" x2="-1765.5984" y2="-1541.1919" gradientTransform="matrix(-7.040000e-02 -0.9975 -0.9975 7.040000e-02 -1496.876 -1649.3314)">
					<stop  offset="0" style="stop-color:#B37CFF"/>
					<stop  offset="1" style="stop-color:#F895E7"/>
				</linearGradient>
				<path style="fill:url(#SVGID_00000111184945616999578350000012425769924128178847_);" d="M176.8,22.9c0,0.2,0,0.5,0,0.7
					c0,0.3-0.2,0.5-0.5,0.5c-0.3,0-0.5-0.2-0.5-0.5c0-0.5-0.1-1.1-0.1-1.6c0-0.3,0.2-0.5,0.4-0.6c0.3,0,0.5,0.2,0.6,0.4
					C176.8,22.2,176.8,22.5,176.8,22.9z M176.8,26.3C176.8,26.3,176.8,26.3,176.8,26.3c-0.1,0.7-0.1,1.2-0.2,1.8
					c-0.1,0.3-0.3,0.5-0.6,0.4s-0.5-0.3-0.4-0.6c0.1-0.5,0.2-1.1,0.2-1.6c0-0.3,0.3-0.5,0.6-0.5C176.6,25.8,176.8,26,176.8,26.3z
					 M176.2,19.2c0,0.2-0.1,0.5-0.4,0.5c-0.3,0.1-0.6-0.1-0.6-0.4c-0.1-0.5-0.3-1-0.5-1.6c-0.1-0.3,0-0.6,0.3-0.7
					c0.3-0.1,0.6,0,0.7,0.3C175.9,18,176.1,18.6,176.2,19.2C176.2,19.2,176.2,19.2,176.2,19.2z M175.9,30.5c0,0.1,0,0.1,0,0.2
					c-0.2,0.5-0.4,1.1-0.6,1.6c-0.1,0.3-0.4,0.4-0.7,0.3c-0.3-0.1-0.4-0.4-0.3-0.7c0.2-0.5,0.4-1,0.6-1.5c0.1-0.3,0.4-0.4,0.6-0.3
					C175.7,30.1,175.8,30.3,175.9,30.5z M174.7,15.2c0,0.2-0.1,0.4-0.3,0.5c-0.2,0.1-0.6,0-0.7-0.2c-0.2-0.5-0.5-1-0.8-1.4
					c-0.1-0.2-0.1-0.6,0.2-0.7c0.2-0.1,0.6-0.1,0.7,0.2c0.3,0.5,0.6,1,0.8,1.5C174.6,15,174.6,15.1,174.7,15.2z M172.2,11.5
					c0,0.2-0.1,0.3-0.2,0.4c-0.2,0.2-0.5,0.2-0.7-0.1c-0.3-0.4-0.7-0.8-1.1-1.2c-0.2-0.2-0.2-0.5,0-0.7c0.2-0.2,0.5-0.2,0.7,0
					c0.4,0.4,0.8,0.8,1.2,1.3C172.2,11.3,172.2,11.4,172.2,11.5z M169.1,8.5c0,0.1,0,0.2-0.1,0.3c-0.2,0.2-0.5,0.3-0.7,0.1
					c-0.4-0.3-0.9-0.6-1.3-0.9c-0.2-0.2-0.3-0.5-0.2-0.7c0.2-0.2,0.5-0.3,0.7-0.2c0.5,0.3,0.9,0.6,1.4,1
					C169,8.2,169.1,8.4,169.1,8.5z M165.3,6.3c0,0.1,0,0.2,0,0.2c-0.1,0.3-0.4,0.4-0.7,0.2c-0.5-0.2-1-0.4-1.5-0.6
					c-0.3-0.1-0.4-0.4-0.3-0.7c0.1-0.3,0.4-0.4,0.7-0.3c0.5,0.2,1.1,0.4,1.6,0.6C165.2,5.9,165.3,6.1,165.3,6.3z M161.2,4.9
					c0,0,0,0.1,0,0.1c-0.1,0.3-0.3,0.5-0.6,0.4c-0.5-0.1-1.1-0.2-1.6-0.3c-0.3,0-0.5-0.3-0.4-0.6c0-0.3,0.3-0.5,0.6-0.4
					c0.6,0.1,1.1,0.2,1.7,0.3C161,4.5,161.2,4.7,161.2,4.9z M156.9,4.5C156.9,4.5,156.9,4.5,156.9,4.5c0,0.3-0.2,0.5-0.5,0.5
					c-0.4,0-0.8,0-1.2,0c-0.1,0-0.3,0-0.4,0c-0.3,0-0.5-0.2-0.6-0.5c0-0.3,0.2-0.5,0.5-0.6c0.1,0,0.3,0,0.4,0c0.4,0,0.8,0,1.3-0.1
					C156.6,4,156.8,4.2,156.9,4.5z"/>
				
					<linearGradient id="SVGID_00000138554142389281708250000002904536719970621864_" gradientUnits="userSpaceOnUse" x1="-1798.488" y1="-1547.4971" x2="-1796.8138" y2="-1547.4971" gradientTransform="matrix(-7.040000e-02 -0.9975 -0.9975 7.040000e-02 -1496.876 -1649.3314)">
					<stop  offset="0" style="stop-color:#B37CFF"/>
					<stop  offset="1" style="stop-color:#F895E7"/>
				</linearGradient>
				<path style="fill:url(#SVGID_00000138554142389281708250000002904536719970621864_);" d="M174,34.5c0,0.1,0,0.2-0.1,0.3
					c-0.1,0.2-0.3,0.5-0.4,0.7c-0.2,0.2-0.5,0.3-0.7,0.1c-0.2-0.2-0.3-0.5-0.1-0.7c0.1-0.2,0.3-0.4,0.4-0.7c0.1-0.2,0.5-0.3,0.7-0.2
					C173.9,34.2,174,34.3,174,34.5z"/>
			</g>
			<g>
				
					<linearGradient id="SVGID_00000076567014919953461590000013170140891260942477_" gradientUnits="userSpaceOnUse" x1="-1716.9832" y1="-1561.6187" x2="-1823.6655" y2="-1514.7826" gradientTransform="matrix(-7.040000e-02 -0.9975 -0.9975 7.040000e-02 -1496.876 -1649.3314)">
					<stop  offset="0.6285" style="stop-color:#EF7F1A"/>
					<stop  offset="1" style="stop-color:#7A1DBC"/>
				</linearGradient>
				<path style="fill:url(#SVGID_00000076567014919953461590000013170140891260942477_);" d="M168.1,34.2c0.1-0.1,0.1-0.2,0.1-0.3
					l-1.2-2.6c0.7-1.1,1.3-2.4,1.7-3.7l2.8-0.9c0.1,0,0.2-0.1,0.2-0.2l0.1-3.5c0-0.1-0.1-0.2-0.2-0.2l-2.7-1
					c-0.3-1.4-0.8-2.7-1.4-3.8l1.3-2.6c0-0.1,0-0.2,0-0.3l-2.4-2.5c-0.1-0.1-0.2-0.1-0.3-0.1l-2.6,1.2c-1.1-0.7-2.4-1.3-3.7-1.7
					l-0.9-2.8c0-0.1-0.1-0.2-0.2-0.2L155.1,9c-0.1,0-0.2,0.1-0.2,0.2l-1,2.7c-1.4,0.3-2.7,0.8-3.8,1.4l-2.6-1.3c-0.1,0-0.2,0-0.3,0
					l-2.5,2.4c-0.1,0.1-0.1,0.2-0.1,0.3l1.2,2.6c-0.7,1.1-1.3,2.4-1.7,3.7l-2.8,0.9c-0.1,0-0.2,0.1-0.2,0.2l-0.1,3.5
					c0,0.1,0.1,0.2,0.2,0.2l2.7,1c0.3,1.4,0.8,2.7,1.4,3.8l-1.3,2.6c0,0.1,0,0.2,0,0.3l2.4,2.5c0.1,0.1,0.2,0.1,0.3,0.1l2.6-1.2
					c1.1,0.7,2.4,1.3,3.7,1.7l0.9,2.8c0,0.1,0.1,0.2,0.2,0.2l3.5,0.1c0.1,0,0.2-0.1,0.2-0.2l1-2.7c1.4-0.3,2.7-0.8,3.8-1.4l2.6,1.3
					c0.1,0,0.2,0,0.3,0L168.1,34.2z"/>
				<path class="st8" d="M159.9,24.1c0.1,1.7-1,3.3-2.7,3.7c-1.9,0.4-3.7-0.8-4.2-2.7c-0.2-0.9,0-1.8,0.5-2.6
					c0.5-0.8,1.3-1.3,2.2-1.5c1.9-0.4,3.7,0.8,4.2,2.7C159.8,23.7,159.8,23.9,159.9,24.1z M153.7,24.5c0,0.1,0,0.3,0.1,0.4
					c0.3,1.4,1.7,2.4,3.2,2c1.4-0.3,2.4-1.7,2-3.2c-0.3-1.4-1.7-2.4-3.2-2c-0.7,0.2-1.3,0.6-1.7,1.2
					C153.8,23.4,153.7,23.9,153.7,24.5z"/>
				<path class="st8" d="M164.9,23.6c0,0.3,0,0.6,0,0.9l0,0c0,0.1,0,0.2,0,0.3c0,0.5-0.1,0.9-0.2,1.4c0,0,0,0,0,0c0,0,0,0,0,0.1
					c0,0,0,0.1,0,0.1c0,0.1-0.1,0.1-0.2,0.2c0,0,0,0-0.1,0c-0.1,0-0.2-0.1-0.1-0.2c0.1-0.6,0.2-1.1,0.2-1.7c0.1-2.9-1.3-5.5-3.6-7
					c-1.2-0.8-2.7-1.4-4.3-1.4c-0.3,0-0.6,0-0.8,0c-1.9,0.1-3.6,0.9-5,2.2c-1.6,1.5-2.5,3.5-2.6,5.7c-0.1,4.5,3.4,8.3,7.9,8.4
					c0.3,0,0.6,0,0.8,0c1.2-0.1,2.4-0.4,3.4-1c0,0,0.1,0,0.1,0c0.1,0,0.2,0,0.2,0.1c0.1,0.1,0,0.2-0.1,0.3c-1.1,0.6-2.3,1-3.6,1.1
					c-0.3,0-0.6,0-0.9,0c-4.7-0.1-8.5-4.1-8.3-8.8c0.1-2.3,1-4.4,2.7-6c1.5-1.4,3.3-2.2,5.3-2.3c0.3,0,0.6,0,0.9,0
					c2.3,0.1,4.4,1,6,2.7C163.9,19.8,164.7,21.7,164.9,23.6z"/>
			</g>
		</g>
		<g>
			<g class="st1">
				
					<linearGradient id="SVGID_00000029032325528845073350000010858083368945559205_" gradientUnits="userSpaceOnUse" x1="-1823.5332" y1="-1546.8306" x2="-1822.7051" y2="-1546.8306" gradientTransform="matrix(-7.040000e-02 -0.9975 -0.9975 7.040000e-02 -1496.876 -1649.3314)">
					<stop  offset="0" style="stop-color:#B37CFF"/>
					<stop  offset="1" style="stop-color:#F895E7"/>
				</linearGradient>
				<path style="fill:url(#SVGID_00000029032325528845073350000010858083368945559205_);" d="M175.1,60.2c0,0.1-0.1,0.3-0.2,0.3
					c-0.3,0.1-0.5,0.2-0.8,0.3c-0.2,0.1-0.3,0-0.4-0.2c-0.1-0.2,0-0.3,0.2-0.4c0.2-0.1,0.5-0.2,0.7-0.2
					C174.9,59.9,175,59.9,175.1,60.2C175.1,60.1,175.1,60.2,175.1,60.2z"/>
				
					<linearGradient id="SVGID_00000035517053651787793840000017333265998968410795_" gradientUnits="userSpaceOnUse" x1="-1823.8688" y1="-1537.5321" x2="-1807.6483" y2="-1537.5321" gradientTransform="matrix(-7.040000e-02 -0.9975 -0.9975 7.040000e-02 -1496.876 -1649.3314)">
					<stop  offset="0" style="stop-color:#B37CFF"/>
					<stop  offset="1" style="stop-color:#F895E7"/>
				</linearGradient>
				<path style="fill:url(#SVGID_00000035517053651787793840000017333265998968410795_);" d="M172.8,60.8c0,0.2-0.1,0.3-0.3,0.3
					c-0.5,0.1-0.9,0.1-1.4,0.2c-0.1,0-0.2,0-0.3,0c-0.2,0-0.3-0.1-0.3-0.3c0-0.2,0.1-0.3,0.3-0.3c0.1,0,0.2,0,0.3,0
					c0.4,0,0.9-0.1,1.3-0.2C172.6,60.5,172.8,60.6,172.8,60.8C172.8,60.8,172.8,60.8,172.8,60.8z M169.5,61
					C169.5,61,169.5,61,169.5,61c0,0.2-0.2,0.3-0.3,0.3c-0.6,0-1.1-0.1-1.7-0.2c-0.2,0-0.3-0.2-0.2-0.4c0-0.2,0.2-0.3,0.4-0.2
					c0.5,0.1,1.1,0.2,1.6,0.2C169.4,60.7,169.5,60.8,169.5,61z M166.3,60.3c0,0,0,0.1,0,0.1c-0.1,0.2-0.2,0.3-0.4,0.2
					c-0.5-0.2-1.1-0.4-1.6-0.6c-0.2-0.1-0.2-0.3-0.1-0.4c0.1-0.2,0.3-0.2,0.4-0.1c0.5,0.2,1,0.4,1.5,0.6
					C166.2,60.1,166.3,60.2,166.3,60.3z M163.4,58.9c0,0.1,0,0.1,0,0.2c-0.1,0.1-0.3,0.2-0.4,0.1c-0.5-0.3-0.9-0.6-1.4-1
					c-0.1-0.1-0.2-0.3,0-0.4c0.1-0.1,0.3-0.2,0.4,0c0.4,0.3,0.8,0.7,1.3,0.9C163.3,58.8,163.4,58.8,163.4,58.9z M160.9,56.9
					c0,0.1,0,0.2-0.1,0.3c-0.1,0.1-0.3,0.1-0.4,0c-0.4-0.4-0.7-0.8-1.1-1.3c-0.1-0.1-0.1-0.3,0.1-0.4c0.1-0.1,0.3-0.1,0.4,0.1
					c0.3,0.4,0.7,0.8,1,1.2C160.8,56.7,160.9,56.8,160.9,56.9z M158.9,54.2c0,0.1-0.1,0.2-0.2,0.3c-0.2,0.1-0.3,0-0.4-0.1
					c-0.3-0.5-0.5-1-0.7-1.5c-0.1-0.2,0-0.3,0.2-0.4c0.2-0.1,0.3,0,0.4,0.2c0.2,0.5,0.4,1,0.7,1.4C158.9,54.1,158.9,54.2,158.9,54.2
					z M157.7,51.2c0,0.1-0.1,0.3-0.2,0.3c-0.2,0-0.3-0.1-0.4-0.2c-0.1-0.5-0.3-1.1-0.3-1.6c0-0.2,0.1-0.3,0.3-0.4
					c0.2,0,0.3,0.1,0.4,0.3C157.4,50.1,157.5,50.6,157.7,51.2C157.7,51.2,157.7,51.2,157.7,51.2z M157.3,46.3
					C157.3,46.4,157.3,46.4,157.3,46.3c0,0.5-0.1,1-0.1,1.4c0,0.1,0,0.1,0,0.2c0,0.2-0.1,0.3-0.3,0.3c-0.2,0-0.3-0.1-0.3-0.3
					c0-0.1,0-0.1,0-0.2c0-0.5,0-1,0.1-1.5c0-0.2,0.2-0.3,0.3-0.3C157.2,46.1,157.3,46.2,157.3,46.3z"/>
			</g>
			<g class="st1">
				
					<linearGradient id="SVGID_00000060002451265279040900000012204271566189362575_" gradientUnits="userSpaceOnUse" x1="-1816.6289" y1="-1553.0823" x2="-1798.1156" y2="-1553.0823" gradientTransform="matrix(-7.040000e-02 -0.9975 -0.9975 7.040000e-02 -1496.876 -1649.3314)">
					<stop  offset="0" style="stop-color:#B37CFF"/>
					<stop  offset="1" style="stop-color:#F895E7"/>
				</linearGradient>
				<path style="fill:url(#SVGID_00000060002451265279040900000012204271566189362575_);" d="M183.7,46.6c0,0.2-0.1,0.3-0.3,0.3
					c-0.2,0-0.3-0.1-0.3-0.3c0-0.5-0.1-1-0.2-1.6c0-0.2,0.1-0.3,0.2-0.4s0.3,0.1,0.4,0.2C183.6,45.5,183.7,46.1,183.7,46.6
					C183.7,46.6,183.7,46.6,183.7,46.6z M183.8,48.2C183.8,48.2,183.8,48.3,183.8,48.2c0,0.6-0.1,1.1-0.2,1.7c0,0.2-0.2,0.3-0.4,0.3
					c-0.2,0-0.3-0.2-0.3-0.4c0.1-0.5,0.1-1,0.2-1.6c0-0.2,0.2-0.3,0.3-0.3C183.6,48,183.7,48.1,183.8,48.2z M183.1,43.5
					c0,0.1-0.1,0.3-0.2,0.3c-0.2,0.1-0.3,0-0.4-0.2c-0.2-0.5-0.4-1-0.6-1.5c-0.1-0.2,0-0.3,0.1-0.4c0.2-0.1,0.3,0,0.4,0.1
					C182.7,42.4,182.9,42.9,183.1,43.5C183.1,43.4,183.1,43.5,183.1,43.5z M183.3,51.4c0,0,0,0.1,0,0.1c-0.2,0.5-0.3,1-0.6,1.6
					c-0.1,0.2-0.3,0.2-0.4,0.2c-0.2-0.1-0.2-0.3-0.2-0.4c0.2-0.5,0.4-1,0.5-1.5c0-0.2,0.2-0.3,0.4-0.2
					C183.2,51.2,183.2,51.3,183.3,51.4z M181.7,40.6c0,0.1,0,0.2-0.1,0.3c-0.1,0.1-0.3,0.1-0.4-0.1c-0.3-0.4-0.6-0.9-0.9-1.3
					c-0.1-0.1-0.1-0.3,0-0.4c0.1-0.1,0.3-0.1,0.4,0c0.3,0.4,0.7,0.9,1,1.3C181.7,40.5,181.7,40.5,181.7,40.6z M179.6,38.1
					c0,0.1,0,0.2-0.1,0.2c-0.1,0.1-0.3,0.1-0.4,0c-0.4-0.4-0.8-0.7-1.2-1c-0.1-0.1-0.2-0.3-0.1-0.4c0.1-0.1,0.3-0.2,0.4-0.1
					c0.4,0.3,0.9,0.7,1.3,1.1C179.6,38,179.6,38,179.6,38.1z M177,36.2c0,0.1,0,0.1,0,0.2c-0.1,0.2-0.3,0.2-0.4,0.1
					c-0.5-0.3-0.9-0.5-1.4-0.7c-0.2-0.1-0.2-0.3-0.2-0.4c0.1-0.2,0.3-0.2,0.4-0.2c0.5,0.2,1,0.5,1.5,0.7C177,36,177,36.1,177,36.2z"
					/>
				
					<linearGradient id="SVGID_00000151502117782353430130000003934142823676325773_" gradientUnits="userSpaceOnUse" x1="-1818.6642" y1="-1554.2408" x2="-1817.3982" y2="-1554.2408" gradientTransform="matrix(-7.040000e-02 -0.9975 -0.9975 7.040000e-02 -1496.876 -1649.3314)">
					<stop  offset="0" style="stop-color:#B37CFF"/>
					<stop  offset="1" style="stop-color:#F895E7"/>
				</linearGradient>
				<path style="fill:url(#SVGID_00000151502117782353430130000003934142823676325773_);" d="M182,54.4c0,0.1,0,0.1,0,0.2
					c-0.1,0.2-0.3,0.5-0.4,0.7c-0.1,0.1-0.3,0.2-0.4,0.1c-0.1-0.1-0.2-0.3-0.1-0.4c0.1-0.2,0.3-0.4,0.4-0.7c0.1-0.2,0.3-0.2,0.4-0.1
					C181.9,54.2,182,54.3,182,54.4z"/>
			</g>
			<g>
				
					<linearGradient id="SVGID_00000019670093159672804550000012431261051406649517_" gradientUnits="userSpaceOnUse" x1="-1725.354" y1="-1580.6552" x2="-1832.0364" y2="-1533.8191" gradientTransform="matrix(-7.040000e-02 -0.9975 -0.9975 7.040000e-02 -1496.876 -1649.3314)">
					<stop  offset="0.6285" style="stop-color:#EF7F1A"/>
					<stop  offset="1" style="stop-color:#7A1DBC"/>
				</linearGradient>
				<path style="fill:url(#SVGID_00000019670093159672804550000012431261051406649517_);" d="M177.9,54.4c0,0,0.1-0.1,0-0.2
					l-0.8-1.8c0.5-0.8,0.9-1.6,1.1-2.5l1.8-0.6c0.1,0,0.1-0.1,0.1-0.1l0.1-2.3c0-0.1,0-0.1-0.1-0.2l-1.8-0.7c-0.2-0.9-0.5-1.8-1-2.6
					l0.9-1.7c0-0.1,0-0.1,0-0.2l-1.6-1.7c0,0-0.1-0.1-0.2,0l-1.8,0.8c-0.8-0.5-1.6-0.9-2.5-1.1l-0.6-1.8c0-0.1-0.1-0.1-0.1-0.1
					l-2.3-0.1c-0.1,0-0.1,0-0.2,0.1l-0.7,1.8c-0.9,0.2-1.8,0.5-2.6,1l-1.7-0.9c-0.1,0-0.1,0-0.2,0l-1.7,1.6c0,0-0.1,0.1,0,0.2
					l0.8,1.8c-0.5,0.8-0.9,1.6-1.1,2.5l-1.8,0.6c-0.1,0-0.1,0.1-0.1,0.1l-0.1,2.3c0,0.1,0,0.1,0.1,0.2l1.8,0.7
					c0.2,0.9,0.5,1.8,1,2.6l-0.9,1.7c0,0.1,0,0.1,0,0.2l1.6,1.7c0,0,0.1,0.1,0.2,0l1.8-0.8c0.8,0.5,1.6,0.9,2.5,1.1l0.6,1.8
					c0,0.1,0.1,0.1,0.1,0.1l2.3,0.1c0.1,0,0.1,0,0.2-0.1l0.7-1.8c0.9-0.2,1.8-0.5,2.6-1L176,56c0.1,0,0.1,0,0.2,0L177.9,54.4z"/>
				<path class="st8" d="M172.5,47.6c0,0.5-0.1,1-0.4,1.4c-0.3,0.5-0.9,0.9-1.5,1c-1.3,0.3-2.6-0.5-2.8-1.8
					c-0.3-1.3,0.5-2.6,1.8-2.8c0.6-0.1,1.3,0,1.8,0.3c0.5,0.3,0.9,0.9,1,1.5C172.4,47.4,172.4,47.5,172.5,47.6z M168.3,47.9
					c0,0.1,0,0.2,0,0.3c0.2,0.9,1.1,1.5,2.1,1.3c0.5-0.1,0.8-0.4,1.1-0.8c0.3-0.4,0.3-0.9,0.2-1.3l0,0c-0.1-0.5-0.4-0.8-0.8-1.1
					c-0.4-0.3-0.9-0.3-1.3-0.2C168.8,46.2,168.3,47,168.3,47.9z"/>
				<path class="st8" d="M176,47.3c0,0.2,0,0.4,0,0.6c0,0.4-0.1,0.8-0.2,1.2c0,0,0,0,0,0.1c0,0.1-0.2,0.2-0.3,0.2c0,0-0.1,0-0.1,0
					c-0.2,0-0.3-0.2-0.2-0.4c0.1-0.4,0.1-0.7,0.2-1.1l0,0c0,0,0,0,0-0.1c0-0.9-0.2-1.8-0.6-2.5c-0.2-0.4-0.5-0.8-0.8-1.2
					c0,0,0,0,0,0c0,0,0,0,0,0c-1-1-2.3-1.6-3.7-1.7c-0.2,0-0.4,0-0.5,0c-1.2,0.1-2.3,0.6-3.2,1.4c-1,1-1.6,2.3-1.7,3.7
					c0,1.4,0.5,2.8,1.4,3.8c1,1,2.3,1.6,3.7,1.7c0.2,0,0.4,0,0.5,0c0.8-0.1,1.5-0.3,2.2-0.7c0,0,0.1,0,0.1,0c0.1,0,0.2,0.1,0.3,0.2
					c0.1,0.2,0,0.3-0.1,0.4c-0.8,0.4-1.6,0.7-2.5,0.7c-0.2,0-0.4,0-0.6,0c-1.6,0-3-0.7-4.1-1.9c-1.1-1.2-1.7-2.7-1.6-4.2
					c0-1.6,0.7-3,1.9-4.1c1-0.9,2.3-1.5,3.6-1.6c0.2,0,0.4,0,0.6,0C173.3,41.9,175.7,44.3,176,47.3z"/>
			</g>
		</g>
	</g>
	<g>
		<g>
			
				<linearGradient id="SVGID_00000072976984245575943480000017430029940030966696_" gradientUnits="userSpaceOnUse" x1="71.1836" y1="186.0485" x2="66.0141" y2="25.7925" gradientTransform="matrix(1 0 0 -1 0 150)">
				<stop  offset="0.6285" style="stop-color:#EF7F1A"/>
				<stop  offset="1" style="stop-color:#7A1DBC"/>
			</linearGradient>
			<path style="fill:url(#SVGID_00000072976984245575943480000017430029940030966696_);" d="M82.3,91.9c0,0,0.5-19.2-8.4-24.3
				s-25.7-8.4-26.3-35.9c-0.4-16.1-0.8-23.2-1-26.3c-0.1-1.2,1-2.2,2.1-1.9C57.1,5,84.3,11.5,90,30C96.8,52.1,82.3,91.9,82.3,91.9z"
				/>
			<path class="st15" d="M55.2,11.1c9.2,8.2,19.8,22.7,25.5,37.2c0.7,2.4,2.9,7.5,3.8,16.5c0.8,7.5,0.4,15.5-0.6,20.8
				c-0.1,0.3-0.4,0.6-0.7,0.5c-0.6-0.1-0.5-0.7-0.5-0.7c1.1-9,0.7-20.2-2-30.3c-3.3-12.4-10.8-24.5-18.5-34.7l-0.8-1
				c-6-7.7-7.2-7.7-6.7-8.3C54.9,11,55.1,11,55.2,11.1z"/>
		</g>
		<g>
			
				<linearGradient id="SVGID_00000063626085645887703530000014398651253458652054_" gradientUnits="userSpaceOnUse" x1="2494.1799" y1="110.3995" x2="2455.2195" y2="61.8977" gradientTransform="matrix(-1 0 0 -1 2535.9084 150)">
				<stop  offset="0" style="stop-color:#7A1DBC"/>
				<stop  offset="0.8184" style="stop-color:#EF7F1A"/>
			</linearGradient>
			<path style="fill:url(#SVGID_00000063626085645887703530000014398651253458652054_);" d="M96.5,128.8
				c1.2,0.6-11.3-15.2-15.3-39.9c-1.8-11.7-1.9-26.3-8.5-31.9c-5.5-4.7-24.3-1.7-30.5-0.6c-0.8,0.1-1,1.1-0.4,1.6
				c3,2.5,9.3,8.3,10.9,14.2c2.2,7.8,9.6,12.7,16.2,14c6.6,1.3,10.3,2.6,13.5,13.2C85.6,110.1,93.1,127.2,96.5,128.8z"/>
			<path class="st15" d="M50.9,59.7c7.9,0.3,16.3,3.9,20.6,10.6l0.4,0.6c0.9,1.5,6.2,12.2,9.2,21c0,0.1,0,0.2-0.1,0.3
				c-0.2,0.1-0.3-0.1-0.3-0.1c-2-5-5-11.3-7.3-16.1c-2.5-5.2-4.3-8.7-10-12c-6.4-3.6-12.5-4-12.4-4c-0.1,0-0.2-0.1-0.2-0.2
				C50.8,59.8,50.8,59.7,50.9,59.7z"/>
		</g>
	</g>
	<g>
		<path class="st17" d="M68.1,29.4c0-4.8,3.9-8.7,8.7-8.7h73.9c4.1,0,7.4,3.2,7.7,7.3l5.5,107.2c0.2,3.2-2.3,5.9-5.5,5.9l-84.8,1.5
			c-3,0.1-5.5-2.4-5.5-5.4L68.1,29.4L68.1,29.4z"/>
		<path class="st15" d="M86,140.8C86,140.8,86,140.8,86,140.8l-9.5-0.1c-3.2,0-5.8-2.7-5.8-5.8v-14.3c0-0.1,0.1-0.2,0.2-0.2
			s0.2,0.1,0.2,0.2v14.3c0,3,2.4,5.4,5.4,5.4l9.5,0.1c0.1,0,0.2,0.1,0.2,0.2C86.2,140.8,86.1,140.8,86,140.8z"/>
		<path class="st15" d="M70.9,116.3c-0.1,0-0.2-0.1-0.2-0.2v-2.3c0-0.1,0.1-0.2,0.2-0.2c0.1,0,0.2,0.1,0.2,0.2v2.3
			C71.1,116.3,71,116.3,70.9,116.3z"/>
		<g>
			
				<linearGradient id="SVGID_00000023965879774488698510000005991899457361313450_" gradientUnits="userSpaceOnUse" x1="79.281" y1="-6.7363" x2="163.9044" y2="172.6651" gradientTransform="matrix(1 0 0 -1 0 150)">
				<stop  offset="0" style="stop-color:#53D8FF"/>
				<stop  offset="1" style="stop-color:#3840F7"/>
			</linearGradient>
			<path style="fill:url(#SVGID_00000023965879774488698510000005991899457361313450_);" d="M74.2,22.4c0-1.5,1.3-2.7,2.9-2.5
				c10.1,1.4,44.8,5.6,73.5,3.4c1.3-0.1,2.4,0.9,2.5,2.2l5.7,107.7c0.1,1.5-1,2.7-2.5,2.8c-12.1,0.7-61.8,3.5-79.5,1.6
				c-1.1-0.1-1.9-1-1.9-2.1L74.2,22.4z"/>
			<path class="st19" d="M75.4,25.1c0-1.5,1.3-2.6,2.8-2.4c9.7,1.3,43.1,5.4,70.8,3.3c1.3-0.1,2.4,0.9,2.4,2.1l5.5,103.6
				c0.1,1.4-1,2.6-2.4,2.7c-11.6,0.7-59.5,3.3-76.5,1.6c-1-0.1-1.8-1-1.8-2L75.4,25.1z"/>
			<path class="st20" d="M147.1,42.4H113c-0.3,0-0.5-0.2-0.5-0.5V32c0-0.3,0.2-0.5,0.5-0.5h34.2c0.3,0,0.5,0.2,0.5,0.5v9.9
				C147.7,42.2,147.4,42.4,147.1,42.4z"/>
			<path class="st20" d="M148.6,82.1H82c-0.2,0-0.3-0.1-0.3-0.3V78c0-0.2,0.1-0.3,0.3-0.3h66.6c0.2,0,0.3,0.1,0.3,0.3v3.8
				C148.9,82,148.8,82.1,148.6,82.1z"/>
			<path class="st20" d="M148.7,89H81.9c-0.1,0-0.2-0.1-0.2-0.2v-4c0-0.1,0.1-0.2,0.2-0.2h66.8c0.1,0,0.2,0.1,0.2,0.2v4
				C148.9,88.9,148.8,89,148.7,89z"/>
			<path class="st20" d="M150.1,128.1H82c-0.1,0-0.3-0.1-0.3-0.3v-3.9c0-0.1,0.1-0.3,0.3-0.3h68.1c0.1,0,0.3,0.1,0.3,0.3v3.9
				C150.4,128,150.3,128.1,150.1,128.1z"/>
			<path class="st21" d="M147.2,73H83.3c-0.9,0-1.6-0.7-1.6-1.6V47.5c0-0.9,0.7-1.6,1.6-1.6h62.9c0.9,0,1.6,0.7,1.6,1.5l1.1,23.9
				C148.9,72.2,148.2,73,147.2,73z"/>
			<path class="st15" d="M147.3,73.3H83.3c-1,0-1.9-0.8-1.9-1.9V47.5c0-1,0.8-1.9,1.9-1.9h62.9c1,0,1.8,0.8,1.9,1.8l1.1,23.9
				c0,0.5-0.2,1-0.5,1.4C148.3,73.1,147.8,73.3,147.3,73.3z M83.3,46.1c-0.7,0-1.4,0.6-1.4,1.4v23.9c0,0.7,0.6,1.4,1.4,1.4h63.9
				c0.4,0,0.7-0.1,1-0.4c0.3-0.3,0.4-0.6,0.4-1l-1.1-23.9c0-0.7-0.6-1.3-1.4-1.3L83.3,46.1L83.3,46.1z"/>
			<path class="st21" d="M148.3,120.9H83.8c-1.1,0-2-0.9-2-2V95.8c0-1.1,0.9-2,2-2h63.6c1.1,0,2,0.9,2,2l0.9,23.1
				C150.3,120,149.4,120.9,148.3,120.9z"/>
			<path class="st15" d="M148.3,121.2H83.8c-1.3,0-2.3-1-2.3-2.3V95.8c0-1.3,1-2.3,2.3-2.3h63.6c1.2,0,2.3,1,2.3,2.2l0.9,23.1
				c0,0.6-0.2,1.2-0.6,1.7C149.5,121,148.9,121.2,148.3,121.2z M83.8,94c-1,0-1.8,0.8-1.8,1.8v23.1c0,1,0.8,1.8,1.8,1.8h64.5
				c0.5,0,0.9-0.2,1.3-0.5c0.3-0.4,0.5-0.8,0.5-1.3l-0.9-23.1c0-1-0.8-1.7-1.8-1.7L83.8,94L83.8,94z"/>
			
				<rect x="101.6" y="45.8" transform="matrix(0.9999 -1.659937e-02 1.659937e-02 0.9999 -0.9725 1.6985)" class="st15" width="0.5" height="27.2"/>
			
				<rect x="126.3" y="45.8" transform="matrix(0.9996 -2.700096e-02 2.700096e-02 0.9996 -1.5584 3.4389)" class="st15" width="0.5" height="27.2"/>
			
				<rect x="114.9" y="21.8" transform="matrix(3.517041e-03 -1 1 3.517041e-03 59.6456 170.1269)" class="st15" width="0.5" height="66.6"/>
			<rect x="81.9" y="64.4" class="st15" width="66.6" height="0.5"/>
			
				<rect x="88.2" y="107.1" transform="matrix(1.240029e-02 -0.9999 0.9999 1.240029e-02 -6.8532 207.7981)" class="st15" width="27.2" height="0.5"/>
			<rect x="81.9" y="100.1" class="st15" width="67.8" height="0.5"/>
			<rect x="81.9" y="106.4" class="st15" width="67.9" height="0.5"/>
			
				<rect x="115.7" y="79.6" transform="matrix(1.250027e-02 -0.9999 0.9999 1.250027e-02 0.6845 228.3063)" class="st15" width="0.5" height="68.4"/>
		</g>
		<path class="st17" d="M118.4,6.1c-2.7-1.9-5-1.8-6.6-1.3c-1.5,0.4-2.5,1.9-2.3,3.4l0.7,7.7l8.4,0.7
			C118.5,16.6,123.6,9.7,118.4,6.1z M114.7,12.3c-1.2,0-2.1-0.9-2.1-2.1s0.9-2.1,2.1-2.1s2.1,0.9,2.1,2.1S115.8,12.3,114.7,12.3z"/>
		<path class="st15" d="M111,12.6c-0.1,0-0.2-0.1-0.2-0.2l-0.1-1.2c0-0.1,0.1-0.2,0.2-0.2c0.1,0,0.2,0.1,0.2,0.2l0.1,1.2
			C111.2,12.5,111.1,12.6,111,12.6C111,12.6,111,12.6,111,12.6z M110.8,10.2c-0.1,0-0.2-0.1-0.2-0.2l-0.1-0.9
			c-0.1-1.5,0.8-2.8,2.2-3.3c1-0.3,2-0.3,3.1-0.1c0.1,0,0.2,0.1,0.2,0.2c0,0.1-0.1,0.2-0.2,0.2c-1-0.2-1.9-0.2-2.9,0.1
			c-1.2,0.4-2,1.6-1.9,2.8L111,10C111,10.1,110.9,10.2,110.8,10.2C110.8,10.2,110.8,10.2,110.8,10.2z"/>
		<path class="st17" d="M98.7,20.9V17c0-1.3,1.1-2.4,2.4-2.4l26.7,0.9c1.2,0,2.1,1,2.2,2.2l0.2,3.7L98.7,20.9z"/>
		<path class="st15" d="M108.6,16.1h-1.1c-0.1,0-0.2-0.1-0.2-0.2s0.1-0.2,0.2-0.2h1.1c0.1,0,0.2,0.1,0.2,0.2S108.7,16.1,108.6,16.1z
			"/>
		<path class="st15" d="M100.1,19.6c-0.1,0-0.2-0.1-0.2-0.2v-1.6c0-1.2,1-2.2,2.2-2.2h4.2c0.1,0,0.2,0.1,0.2,0.2
			c0,0.1-0.1,0.2-0.2,0.2h-4.2c-1,0-1.8,0.8-1.8,1.8v1.6C100.3,19.5,100.2,19.6,100.1,19.6z"/>
		
			<linearGradient id="SVGID_00000118382635279519434320000009302377862636105612_" gradientUnits="userSpaceOnUse" x1="126.0732" y1="149.3703" x2="102.5877" y2="106.2461" gradientTransform="matrix(1 0 0 -1 0 150)">
			<stop  offset="0" style="stop-color:#53D8FF"/>
			<stop  offset="1" style="stop-color:#3840F7"/>
		</linearGradient>
		<path style="fill:url(#SVGID_00000118382635279519434320000009302377862636105612_);" d="M87.8,21.8c0.1-1.3,1.2-2.4,2.5-2.4
			l46.7,0c1.7,0,3.1,1.2,3.4,2.9l0,0.2c0.3,1.8-1.1,3.5-2.9,3.5H89.6c-1.1,0-2-0.9-1.9-2L87.8,21.8z"/>
		<g>
			<path class="st15" d="M89.6,30.9l-0.2,1.7h-3.2l-1.2,9.9h-2.1l1.2-9.9h-3.2l0.2-1.7H89.6z"/>
			<path class="st15" d="M97.6,42.6H96c-0.2,0-0.3,0-0.4-0.1s-0.2-0.2-0.2-0.3l-0.5-2.4h-4.3l-1.1,2.4c-0.1,0.1-0.2,0.2-0.3,0.3
				c-0.1,0.1-0.3,0.1-0.5,0.1H87l5.6-11.7h2.1L97.6,42.6z M91.2,38.2h3.4l-0.8-4c0-0.2-0.1-0.4-0.1-0.6s-0.1-0.5-0.1-0.7
				c-0.1,0.3-0.2,0.5-0.3,0.7c-0.1,0.2-0.2,0.4-0.3,0.6L91.2,38.2z"/>
			<path class="st15" d="M101.9,36.4l-2.6-5.4h1.9c0.1,0,0.2,0,0.3,0.1c0.1,0,0.1,0.1,0.2,0.2l1.8,4c0.1-0.1,0.1-0.2,0.2-0.3
				l2.5-3.7c0.1-0.2,0.3-0.3,0.5-0.3h2.2l-4,5.3l2.9,6.3h-1.9c-0.1,0-0.2,0-0.3-0.1c-0.1-0.1-0.1-0.2-0.2-0.3l-2-4.7
				c0,0-0.1,0.1-0.1,0.1c0,0,0,0.1-0.1,0.1l-3,4.4c-0.1,0.1-0.2,0.2-0.3,0.3c-0.1,0.1-0.2,0.1-0.4,0.1h-2.1L101.9,36.4z"/>
		</g>
	</g>
	<g>
		
			<linearGradient id="SVGID_00000088110629151544603520000016302496899856183728_" gradientUnits="userSpaceOnUse" x1="147.373" y1="62.882" x2="158.045" y2="41.7454" gradientTransform="matrix(1 0 0 -1 0 150)">
			<stop  offset="0" style="stop-color:#F9B776"/>
			<stop  offset="1" style="stop-color:#F47960"/>
		</linearGradient>
		<polygon style="fill:url(#SVGID_00000088110629151544603520000016302496899856183728_);" points="155.6,88.6 141.3,89.8 145,92.6 
			154.6,91.4 		"/>
		
			<linearGradient id="SVGID_00000106862905697340014510000015995540952591757493_" gradientUnits="userSpaceOnUse" x1="-892.2667" y1="66.0004" x2="-888.6236" y2="66.0004" gradientTransform="matrix(-1 0 0 -1 -771.9888 150)">
			<stop  offset="0" style="stop-color:#F9B776"/>
			<stop  offset="1" style="stop-color:#F47960"/>
		</linearGradient>
		<path style="fill:url(#SVGID_00000106862905697340014510000015995540952591757493_);" d="M119.8,85.7c-0.4,0.3-1.8-0.3-2.6-0.8
			c-0.4-0.2-0.6-0.7-0.5-1.2c0.2-0.6,0.5-1.5,1-1.6C118.3,82,121.5,84.4,119.8,85.7z"/>
		<g>
			<g>
				<path class="st17" d="M177.1,101.9L104.2,76l-3.9,10.7l72.8,26.6c1.5,0.6,3.3-0.1,4.1-1.5c0.9-1.5,1.7-3.7,1.7-7.2
					C179,103.4,178.2,102.3,177.1,101.9z"/>
				<g>
					
						<linearGradient id="SVGID_00000123415840137821835300000005055627295970770310_" gradientUnits="userSpaceOnUse" x1="81.1211" y1="73.534" x2="91.7501" y2="73.534" gradientTransform="matrix(1 0 0 -1 0 150)">
						<stop  offset="0" style="stop-color:#CB236D"/>
						<stop  offset="1" style="stop-color:#4C246D"/>
					</linearGradient>
					<path style="fill:url(#SVGID_00000123415840137821835300000005055627295970770310_);" d="M81.7,73.2l10.1,1.2
						c0,1.4-0.5,3.2-2,5.2l-8.4-5.5C80.9,73.9,81.2,73.2,81.7,73.2z"/>
					
						<linearGradient id="SVGID_00000134942944925323676590000000356983827706882432_" gradientUnits="userSpaceOnUse" x1="-858.6328" y1="82.7776" x2="-910.1522" y2="29.831" gradientTransform="matrix(-1 0 0 -1 -771.9888 150)">
						<stop  offset="0" style="stop-color:#FDF53F"/>
						<stop  offset="1" style="stop-color:#D93C65"/>
					</linearGradient>
					<path style="fill:url(#SVGID_00000134942944925323676590000000356983827706882432_);" d="M104.2,76c0.5,6.7-3.9,10.7-3.9,10.7
						l-10.6-7c1.5-2.1,2-3.8,2-5.2L104.2,76z"/>
				</g>
			</g>
			
				<linearGradient id="SVGID_00000149374468819148211460000000580930847076466108_" gradientUnits="userSpaceOnUse" x1="-890.0505" y1="81.2324" x2="-936.5455" y2="33.4495" gradientTransform="matrix(-1 0 0 -1 -771.9888 150)">
				<stop  offset="0" style="stop-color:#A737D5"/>
				<stop  offset="1" style="stop-color:#EF497A"/>
			</linearGradient>
			<path style="fill:url(#SVGID_00000149374468819148211460000000580930847076466108_);" d="M176.1,105.2c0.1,0,0.2-0.1,0.2-0.1
				c0-0.1,0-0.2-0.1-0.3l-69.7-24.6c-0.1,0-0.2,0-0.3,0.1c0,0.1,0,0.2,0.1,0.3L176.1,105.2C176.1,105.2,176.1,105.2,176.1,105.2z"/>
			
				<linearGradient id="SVGID_00000163039574560800955840000010138166054492074882_" gradientUnits="userSpaceOnUse" x1="-888.8486" y1="77.0327" x2="-935.3434" y2="29.2499" gradientTransform="matrix(-1 0 0 -1 -771.9888 150)">
				<stop  offset="0" style="stop-color:#A737D5"/>
				<stop  offset="1" style="stop-color:#EF497A"/>
			</linearGradient>
			<path style="fill:url(#SVGID_00000163039574560800955840000010138166054492074882_);" d="M174.9,109.4c0.1,0,0.2-0.1,0.2-0.1
				c0-0.1,0-0.2-0.1-0.3l-69.7-24.6c-0.1,0-0.2,0-0.3,0.1s0,0.2,0.1,0.3L174.9,109.4C174.9,109.4,174.9,109.4,174.9,109.4z"/>
		</g>
		
			<linearGradient id="SVGID_00000137101377754963689390000010946158248375525005_" gradientUnits="userSpaceOnUse" x1="-920.4752" y1="60.1263" x2="-933.3936" y2="48.6867" gradientTransform="matrix(-1 0 0 -1 -771.9888 150)">
			<stop  offset="0" style="stop-color:#F9B776"/>
			<stop  offset="1" style="stop-color:#F47960"/>
		</linearGradient>
		<path style="fill:url(#SVGID_00000137101377754963689390000010946158248375525005_);" d="M156.1,93l-4.7-0.4l-2,1.9
			c0,0,0.5,0.7,2,0.3c1.5-0.4,3.6-0.5,3.6-0.5s2.1,0.9,2.1-0.8L156.1,93z"/>
		<g>
			
				<linearGradient id="SVGID_00000085946655328346654460000012563529792476620948_" gradientUnits="userSpaceOnUse" x1="162.3185" y1="18.2681" x2="174.439" y2="18.2681" gradientTransform="matrix(1 0 0 -1 0 150)">
				<stop  offset="0" style="stop-color:#F9B776"/>
				<stop  offset="1" style="stop-color:#F47960"/>
			</linearGradient>
			<path style="fill:url(#SVGID_00000085946655328346654460000012563529792476620948_);" d="M162.3,120.5c0,0,6.5,14.1,9.9,20
				c0,0,0.7,3.7,0,4.8l-0.6,0.3l2.7-0.1c0,0,0.2-5,0.1-5.2c-0.2-0.3-0.6-0.3-0.6-0.3s-1.2-9.1-4.5-11.1l-3.2-11.1L162.3,120.5z"/>
			<path class="st31" d="M170.5,146.3c0,0.1,2.1,0,3.2,0c0.4,0,0.8-0.3,0.9-0.7l0.9-4.5c0.1-0.4-0.2-0.8-0.6-0.9l-0.5-0.1
				c0,0-0.7,0.9-0.5,1.8c0.2,0.9,0.4,3.2-0.1,3.5c-0.5,0.3-2.1,0.3-2.1,0.3S170.5,145.7,170.5,146.3z"/>
			<path class="st31" d="M156.2,146.4c-0.2,0.1-0.1,0.4,0.1,0.4c1.9,0,6.2-0.1,6.6-0.2c0.5-0.2-0.2-2-0.9-2.6l-3.9,1.3L156.2,146.4z
				"/>
			
				<linearGradient id="SVGID_00000147923995877558704360000016649820758675772298_" gradientUnits="userSpaceOnUse" x1="154.9639" y1="17.367" x2="161.9821" y2="17.367" gradientTransform="matrix(1 0 0 -1 0 150)">
				<stop  offset="0" style="stop-color:#F9B776"/>
				<stop  offset="1" style="stop-color:#F47960"/>
			</linearGradient>
			<path style="fill:url(#SVGID_00000147923995877558704360000016649820758675772298_);" d="M155,119.6c0,0,4.2,20.3,5.4,24.2
				l-2.8,1.8c0,0,1.4-0.2,2.4-0.3c1-0.1,2-1.3,2-1.3l-0.3-0.5c0,0-1.1-20.2-0.8-22.4L155,119.6z"/>
			
				<linearGradient id="SVGID_00000074441615045987054130000015530667862887869363_" gradientUnits="userSpaceOnUse" x1="-1278.4495" y1="-1807.9562" x2="-1262.3689" y2="-1807.9562" gradientTransform="matrix(0.1696 -0.9855 -0.9855 -0.1696 -1424.3729 -1464.394)">
				<stop  offset="0" style="stop-color:#F9B776"/>
				<stop  offset="1" style="stop-color:#F47960"/>
			</linearGradient>
			<path style="fill:url(#SVGID_00000074441615045987054130000015530667862887869363_);" d="M134.5,96.3c0.6,0,11.3-0.2,18.1-8.4
				c0.1-0.1,0.2-0.1,0.2,0l2.7,3.5c0,0,0,0.1,0,0.2c-0.6,0.9-6.4,9.2-19.7,6.6c-0.4-0.1-0.9,0-1.3,0.2l-2.3,1.4
				c-1,0.6-2.1,0.7-3.2,0.2l-0.7-0.3c-0.4-0.2-0.5-0.7-0.2-1l0,0c0.5-0.6,1.1-1,1.8-1.2l2.1-0.5c0.6-0.1-0.3-0.7-0.8-1
				c-0.1-0.1-0.1-0.2,0.1-0.3C132.4,95.7,133.5,95.9,134.5,96.3C134.4,96.3,134.4,96.3,134.5,96.3z"/>
			
				<linearGradient id="SVGID_00000169524142348417012120000008301722840211472292_" gradientUnits="userSpaceOnUse" x1="154.6585" y1="62.3814" x2="180.3479" y2="11.5014" gradientTransform="matrix(1 0 0 -1 0 150)">
				<stop  offset="0" style="stop-color:#FDF53F"/>
				<stop  offset="1" style="stop-color:#D93C65"/>
			</linearGradient>
			<path style="fill:url(#SVGID_00000169524142348417012120000008301722840211472292_);" d="M153.3,87.5c3.8-1.3,8.3,0.9,10.4,1.8
				l-2.1,11.8l0.2,1.9l-6.8,0c0,0-1.8-3.6-3.5-5.7c-1.1-1.4-0.7-3.8-0.7-3.8l1.9-5.7C152.7,87.6,153,87.6,153.3,87.5z"/>
			<path class="st31" d="M154.4,102l0.1,1.2c0,0-1.9,5.8,1,19.2c0,0,6.2,1.8,11.4-2.5c0,0-1.4-12.7-1.8-13.3c-2-2.9-3.3-3.6-3.3-3.6
				l-0.1-1.3C161.7,101.7,156.2,102.7,154.4,102z"/>
			
				<linearGradient id="SVGID_00000015313362797220266770000005353099410514733462_" gradientUnits="userSpaceOnUse" x1="155.9483" y1="63.362" x2="160.2433" y2="63.362" gradientTransform="matrix(1 0 0 -1 0 150)">
				<stop  offset="0" style="stop-color:#F9B776"/>
				<stop  offset="1" style="stop-color:#F47960"/>
			</linearGradient>
			<path style="fill:url(#SVGID_00000015313362797220266770000005353099410514733462_);" d="M155.9,88.4c0,0,1.4-4.4,1.4-4.4
				l2.1,0.2l0.8,4.9C160.2,89.1,157,89.8,155.9,88.4z"/>
			
				<linearGradient id="SVGID_00000124866689062231681160000013816064730904444587_" gradientUnits="userSpaceOnUse" x1="166.0231" y1="-35.9389" x2="197.2847" y2="-38.0647" gradientTransform="matrix(0.9981 -6.180000e-02 -6.180000e-02 -0.9981 -5.55 55.506)">
				<stop  offset="0" style="stop-color:#F9B776"/>
				<stop  offset="1" style="stop-color:#F47960"/>
			</linearGradient>
			<path style="fill:url(#SVGID_00000124866689062231681160000013816064730904444587_);" d="M158.3,77.5c-0.1,0.1-4.3,2.1-3.1,6.5
				c0.1,0.3,0.3,0.5,0.5,0.6c0.6,0.2,2,0.6,3.6,0.4c2.2-0.4,3.4-4.4,3.3-5.5C162.5,78.3,159.6,76.5,158.3,77.5z"/>
			<path class="st31" d="M159.1,76c-0.1,0-2.4,1-1.1,2.6c1.3,1.6,1.8,2.6,1.3,3.4c-0.5,0.7-1.6,0.4-1.4,1.8c0,0.3-0.1,0.6-0.3,0.7
				c-1,0.8-3.4,3.1-0.7,6.1c0.2,0.2,0.3,0.6,0.1,0.9c-0.7,1.4-2,5.4,3.8,7.2c5.7,1.8,7.5-2,8-3.5c0.1-0.3,0.4-0.5,0.7-0.5
				c0.6,0,1.5-0.2,1.4-1c-0.1-0.5-0.4-0.9-0.8-1.3c-0.4-0.3-0.4-1,0.1-1.2c0.3-0.2,0.6-0.5,0.7-1c0.3-1.3-0.6-5-4.3-5.4
				c-0.3,0-0.6-0.3-0.7-0.6c0,0,0,0,0,0c-0.1-0.3,0-0.6,0.2-0.8c0.5-0.5,1.2-1.4,0.6-2.7c-0.6-1.2-1.6-1.5-2.4-1.6
				c-0.4,0-0.8-0.5-0.7-0.9C163.8,77.1,163.4,75.2,159.1,76z"/>
		</g>
	</g>
	<g>
		<g>
			
				<linearGradient id="SVGID_00000121971068121303559110000017607234533606903965_" gradientUnits="userSpaceOnUse" x1="65.7075" y1="48.7462" x2="43.1374" y2="12.5527" gradientTransform="matrix(1 0 0 -1 0 150)">
				<stop  offset="0" style="stop-color:#FDFF3F"/>
				<stop  offset="5.640000e-02" style="stop-color:#FBEB39"/>
				<stop  offset="0.1696" style="stop-color:#F7CA30"/>
				<stop  offset="0.2914" style="stop-color:#F4AF28"/>
				<stop  offset="0.4229" style="stop-color:#F29A22"/>
				<stop  offset="0.5688" style="stop-color:#F08B1D"/>
				<stop  offset="0.7401" style="stop-color:#EF821B"/>
				<stop  offset="1" style="stop-color:#EF7F1A"/>
			</linearGradient>
			<path style="fill:url(#SVGID_00000121971068121303559110000017607234533606903965_);" d="M71.9,118.3H41.5
				c-0.2,0-0.3-0.1-0.3-0.3v-4.7c0-0.2,0.1-0.3,0.3-0.3h30.4c0.2,0,0.3,0.1,0.3,0.3v4.7C72.2,118.2,72.1,118.3,71.9,118.3z"/>
		</g>
		<g>
			
				<linearGradient id="SVGID_00000072987665762092493190000010979178167850644149_" gradientUnits="userSpaceOnUse" x1="65.7076" y1="54.3867" x2="43.1375" y2="18.1932" gradientTransform="matrix(1 0 0 -1 0 150)">
				<stop  offset="0" style="stop-color:#FDFF3F"/>
				<stop  offset="5.640000e-02" style="stop-color:#FBEB39"/>
				<stop  offset="0.1696" style="stop-color:#F7CA30"/>
				<stop  offset="0.2914" style="stop-color:#F4AF28"/>
				<stop  offset="0.4229" style="stop-color:#F29A22"/>
				<stop  offset="0.5688" style="stop-color:#F08B1D"/>
				<stop  offset="0.7401" style="stop-color:#EF821B"/>
				<stop  offset="1" style="stop-color:#EF7F1A"/>
			</linearGradient>
			<path style="fill:url(#SVGID_00000072987665762092493190000010979178167850644149_);" d="M71.9,112.7H41.5
				c-0.2,0-0.3-0.1-0.3-0.3v-4.7c0-0.2,0.1-0.3,0.3-0.3h30.4c0.2,0,0.3,0.1,0.3,0.3v4.7C72.2,112.6,72.1,112.7,71.9,112.7z"/>
		</g>
		<g>
			
				<linearGradient id="SVGID_00000170956932779667860980000017642569331639269032_" gradientUnits="userSpaceOnUse" x1="65.7075" y1="43.0111" x2="43.1374" y2="6.8176" gradientTransform="matrix(1 0 0 -1 0 150)">
				<stop  offset="0" style="stop-color:#FDFF3F"/>
				<stop  offset="5.640000e-02" style="stop-color:#FBEB39"/>
				<stop  offset="0.1696" style="stop-color:#F7CA30"/>
				<stop  offset="0.2914" style="stop-color:#F4AF28"/>
				<stop  offset="0.4229" style="stop-color:#F29A22"/>
				<stop  offset="0.5688" style="stop-color:#F08B1D"/>
				<stop  offset="0.7401" style="stop-color:#EF821B"/>
				<stop  offset="1" style="stop-color:#EF7F1A"/>
			</linearGradient>
			<path style="fill:url(#SVGID_00000170956932779667860980000017642569331639269032_);" d="M71.9,124.1H41.5
				c-0.2,0-0.3-0.1-0.3-0.3V119c0-0.2,0.1-0.3,0.3-0.3h30.4c0.2,0,0.3,0.1,0.3,0.3v4.7C72.2,123.9,72.1,124.1,71.9,124.1z"/>
		</g>
		<g>
			
				<linearGradient id="SVGID_00000021077484115807752190000004135795044550400915_" gradientUnits="userSpaceOnUse" x1="65.7076" y1="37.2759" x2="43.1375" y2="1.0824" gradientTransform="matrix(1 0 0 -1 0 150)">
				<stop  offset="0" style="stop-color:#FDFF3F"/>
				<stop  offset="5.640000e-02" style="stop-color:#FBEB39"/>
				<stop  offset="0.1696" style="stop-color:#F7CA30"/>
				<stop  offset="0.2914" style="stop-color:#F4AF28"/>
				<stop  offset="0.4229" style="stop-color:#F29A22"/>
				<stop  offset="0.5688" style="stop-color:#F08B1D"/>
				<stop  offset="0.7401" style="stop-color:#EF821B"/>
				<stop  offset="1" style="stop-color:#EF7F1A"/>
			</linearGradient>
			<path style="fill:url(#SVGID_00000021077484115807752190000004135795044550400915_);" d="M71.9,129.8H41.5
				c-0.2,0-0.3-0.1-0.3-0.3v-4.7c0-0.2,0.1-0.3,0.3-0.3h30.4c0.2,0,0.3,0.1,0.3,0.3v4.7C72.2,129.7,72.1,129.8,71.9,129.8z"/>
		</g>
		<g>
			
				<linearGradient id="SVGID_00000133512951037662126020000005385369070067284121_" gradientUnits="userSpaceOnUse" x1="65.7075" y1="31.5409" x2="43.1374" y2="-4.6527" gradientTransform="matrix(1 0 0 -1 0 150)">
				<stop  offset="0" style="stop-color:#FDFF3F"/>
				<stop  offset="5.640000e-02" style="stop-color:#FBEB39"/>
				<stop  offset="0.1696" style="stop-color:#F7CA30"/>
				<stop  offset="0.2914" style="stop-color:#F4AF28"/>
				<stop  offset="0.4229" style="stop-color:#F29A22"/>
				<stop  offset="0.5688" style="stop-color:#F08B1D"/>
				<stop  offset="0.7401" style="stop-color:#EF821B"/>
				<stop  offset="1" style="stop-color:#EF7F1A"/>
			</linearGradient>
			<path style="fill:url(#SVGID_00000133512951037662126020000005385369070067284121_);" d="M71.9,135.5H41.5
				c-0.2,0-0.3-0.1-0.3-0.3v-4.7c0-0.2,0.1-0.3,0.3-0.3h30.4c0.2,0,0.3,0.1,0.3,0.3v4.7C72.2,135.4,72.1,135.5,71.9,135.5z"/>
		</g>
		<g>
			
				<linearGradient id="SVGID_00000170264671203618376930000001138927095067819403_" gradientUnits="userSpaceOnUse" x1="65.7075" y1="25.9781" x2="43.1374" y2="-10.2154" gradientTransform="matrix(1 0 0 -1 0 150)">
				<stop  offset="0" style="stop-color:#FDFF3F"/>
				<stop  offset="5.640000e-02" style="stop-color:#FBEB39"/>
				<stop  offset="0.1696" style="stop-color:#F7CA30"/>
				<stop  offset="0.2914" style="stop-color:#F4AF28"/>
				<stop  offset="0.4229" style="stop-color:#F29A22"/>
				<stop  offset="0.5688" style="stop-color:#F08B1D"/>
				<stop  offset="0.7401" style="stop-color:#EF821B"/>
				<stop  offset="1" style="stop-color:#EF7F1A"/>
			</linearGradient>
			<path style="fill:url(#SVGID_00000170264671203618376930000001138927095067819403_);" d="M71.9,141.1H41.5
				c-0.2,0-0.3-0.1-0.3-0.3v-4.7c0-0.2,0.1-0.3,0.3-0.3h30.4c0.2,0,0.3,0.1,0.3,0.3v4.7C72.2,141,72.1,141.1,71.9,141.1z"/>
		</g>
		<g>
			
				<linearGradient id="SVGID_00000109751892550047178800000006596686022085083030_" gradientUnits="userSpaceOnUse" x1="65.7076" y1="20.4152" x2="43.1375" y2="-15.7783" gradientTransform="matrix(1 0 0 -1 0 150)">
				<stop  offset="0" style="stop-color:#FDFF3F"/>
				<stop  offset="5.640000e-02" style="stop-color:#FBEB39"/>
				<stop  offset="0.1696" style="stop-color:#F7CA30"/>
				<stop  offset="0.2914" style="stop-color:#F4AF28"/>
				<stop  offset="0.4229" style="stop-color:#F29A22"/>
				<stop  offset="0.5688" style="stop-color:#F08B1D"/>
				<stop  offset="0.7401" style="stop-color:#EF821B"/>
				<stop  offset="1" style="stop-color:#EF7F1A"/>
			</linearGradient>
			<path style="fill:url(#SVGID_00000109751892550047178800000006596686022085083030_);" d="M71.9,146.7H41.5
				c-0.2,0-0.3-0.1-0.3-0.3v-4.7c0-0.2,0.1-0.3,0.3-0.3h30.4c0.2,0,0.3,0.1,0.3,0.3v4.7C72.2,146.5,72.1,146.7,71.9,146.7z"/>
		</g>
	</g>
	<g>
		<g>
			
				<linearGradient id="SVGID_00000051374873953466287940000014881721025542713782_" gradientUnits="userSpaceOnUse" x1="97.9238" y1="38.0335" x2="75.3537" y2="1.8401" gradientTransform="matrix(1 0 0 -1 0 150)">
				<stop  offset="0" style="stop-color:#FDFF3F"/>
				<stop  offset="5.640000e-02" style="stop-color:#FBEB39"/>
				<stop  offset="0.1696" style="stop-color:#F7CA30"/>
				<stop  offset="0.2914" style="stop-color:#F4AF28"/>
				<stop  offset="0.4229" style="stop-color:#F29A22"/>
				<stop  offset="0.5688" style="stop-color:#F08B1D"/>
				<stop  offset="0.7401" style="stop-color:#EF821B"/>
				<stop  offset="1" style="stop-color:#EF7F1A"/>
			</linearGradient>
			<path style="fill:url(#SVGID_00000051374873953466287940000014881721025542713782_);" d="M104.1,129H73.7c-0.2,0-0.3-0.1-0.3-0.3
				V124c0-0.2,0.1-0.3,0.3-0.3h30.4c0.2,0,0.3,0.1,0.3,0.3v4.7C104.4,128.9,104.3,129,104.1,129z"/>
		</g>
		<g>
			
				<linearGradient id="SVGID_00000161621121986904112510000014990645250748007562_" gradientUnits="userSpaceOnUse" x1="97.9238" y1="32.2984" x2="75.3537" y2="-3.8951" gradientTransform="matrix(1 0 0 -1 0 150)">
				<stop  offset="0" style="stop-color:#FDFF3F"/>
				<stop  offset="5.640000e-02" style="stop-color:#FBEB39"/>
				<stop  offset="0.1696" style="stop-color:#F7CA30"/>
				<stop  offset="0.2914" style="stop-color:#F4AF28"/>
				<stop  offset="0.4229" style="stop-color:#F29A22"/>
				<stop  offset="0.5688" style="stop-color:#F08B1D"/>
				<stop  offset="0.7401" style="stop-color:#EF821B"/>
				<stop  offset="1" style="stop-color:#EF7F1A"/>
			</linearGradient>
			<path style="fill:url(#SVGID_00000161621121986904112510000014990645250748007562_);" d="M104.1,134.8H73.7
				c-0.2,0-0.3-0.1-0.3-0.3v-4.7c0-0.2,0.1-0.3,0.3-0.3h30.4c0.2,0,0.3,0.1,0.3,0.3v4.7C104.4,134.6,104.3,134.8,104.1,134.8z"/>
		</g>
		<g>
			
				<linearGradient id="SVGID_00000181771335459799725260000003390486816430936244_" gradientUnits="userSpaceOnUse" x1="97.9239" y1="26.7356" x2="75.3538" y2="-9.4579" gradientTransform="matrix(1 0 0 -1 0 150)">
				<stop  offset="0" style="stop-color:#FDFF3F"/>
				<stop  offset="5.640000e-02" style="stop-color:#FBEB39"/>
				<stop  offset="0.1696" style="stop-color:#F7CA30"/>
				<stop  offset="0.2914" style="stop-color:#F4AF28"/>
				<stop  offset="0.4229" style="stop-color:#F29A22"/>
				<stop  offset="0.5688" style="stop-color:#F08B1D"/>
				<stop  offset="0.7401" style="stop-color:#EF821B"/>
				<stop  offset="1" style="stop-color:#EF7F1A"/>
			</linearGradient>
			<path style="fill:url(#SVGID_00000181771335459799725260000003390486816430936244_);" d="M104.1,140.3H73.7
				c-0.2,0-0.3-0.1-0.3-0.3v-4.7c0-0.2,0.1-0.3,0.3-0.3h30.4c0.2,0,0.3,0.1,0.3,0.3v4.7C104.4,140.2,104.3,140.3,104.1,140.3z"/>
		</g>
		<g>
			
				<linearGradient id="SVGID_00000085245075161038079650000004093160476722410624_" gradientUnits="userSpaceOnUse" x1="97.9239" y1="21.1729" x2="75.3538" y2="-15.0206" gradientTransform="matrix(1 0 0 -1 0 150)">
				<stop  offset="0" style="stop-color:#FDFF3F"/>
				<stop  offset="5.640000e-02" style="stop-color:#FBEB39"/>
				<stop  offset="0.1696" style="stop-color:#F7CA30"/>
				<stop  offset="0.2914" style="stop-color:#F4AF28"/>
				<stop  offset="0.4229" style="stop-color:#F29A22"/>
				<stop  offset="0.5688" style="stop-color:#F08B1D"/>
				<stop  offset="0.7401" style="stop-color:#EF821B"/>
				<stop  offset="1" style="stop-color:#EF7F1A"/>
			</linearGradient>
			<path style="fill:url(#SVGID_00000085245075161038079650000004093160476722410624_);" d="M104.1,145.9H73.7
				c-0.2,0-0.3-0.1-0.3-0.3v-4.7c0-0.2,0.1-0.3,0.3-0.3h30.4c0.2,0,0.3,0.1,0.3,0.3v4.7C104.4,145.8,104.3,145.9,104.1,145.9z"/>
		</g>
	</g>
</g>
</svg>
