<?xml version="1.0" encoding="utf-8"?>
<!-- Generator: Adobe Illustrator 25.4.1, SVG Export Plug-In . SVG Version: 6.00 Build 0)  -->
<svg version="1.1" id="Layer_1" xmlns="http://www.w3.org/2000/svg" xmlns:xlink="http://www.w3.org/1999/xlink" x="0px" y="0px"
	 viewBox="0 0 225 150" style="enable-background:new 0 0 225 150;" xml:space="preserve">
<style type="text/css">
	.st0{opacity:0.2;fill:#FFC1C2;enable-background:new    ;}
	.st1{fill:#EDB162;}
	.st2{enable-background:new    ;}
	.st3{fill:#FFFFFF;}
	.st4{fill:#FF899A;}
	.st5{opacity:0.5;fill:#DD5F80;enable-background:new    ;}
	.st6{fill:#4082BE;}
	.st7{fill:#84BBD3;}
	.st8{fill:#A5D3EA;}
	.st9{fill:#3379AA;}
	.st10{fill:#052669;}
	.st11{fill:#FFC1D9;}
	.st12{fill:#DD5F80;}
	.st13{fill:#E87292;}
	.st14{fill:#010E1E;}
	.st15{fill:#8FC3D8;}
	.st16{fill:#B8E3F4;}
	.st17{fill:#EF7F1A;}
	.st18{fill:#E09247;}
	.st19{fill:#FFDBBD;}
	.st20{fill:#FCAD57;}
	.st21{clip-path:url(#SVGID_00000039816524263959314440000008654161462127180955_);}
	.st22{fill:#FFCA85;}
</style>
<g id="OBJECTS">
	<g>
		<g>
			<path class="st0" d="M138,94.3c0,0-12.4-12.2-25.6-2.5s-32.7,30.9-51.2,11.9C42.6,84.6,37.6,20.6,85.6,9.1
				c43.5-10.4,95.7,12.8,95.7,54.3C181.3,106.2,151.2,106.2,138,94.3z"/>
			<ellipse class="st0" cx="114.1" cy="138.1" rx="64.2" ry="7.8"/>
		</g>
		<g>
			<g>
				<path class="st1" d="M113.7,61.4c-5.2,0-10.3-2-14.2-5.9c-7.9-7.9-7.9-20.6,0-28.5c7.9-7.9,20.6-7.9,28.5,0
					c7.9,7.9,7.9,20.6,0,28.5C124,59.4,118.8,61.4,113.7,61.4z M113.7,22.3c-4.8,0-9.7,1.8-13.4,5.5c-7.4,7.4-7.4,19.4,0,26.7
					c7.4,7.4,19.4,7.4,26.7,0c7.4-7.4,7.4-19.4,0-26.7C123.4,24.2,118.5,22.3,113.7,22.3z"/>
				<path class="st1" d="M113.7,59.5c-2.3,0-4.6-0.4-6.7-1.3c-4.5-1.8-8.1-5.2-10-9.7C95,44,95,39,96.8,34.5c1.8-4.5,5.2-8.1,9.7-10
					l0,0c4.5-1.9,9.4-2,13.9-0.2c4.5,1.8,8.1,5.2,10,9.7c4,9.2-0.3,19.9-9.5,23.9C118.6,59,116.1,59.5,113.7,59.5z M106.6,24.9
					c-4.4,1.9-7.7,5.3-9.5,9.7c-1.8,4.4-1.7,9.2,0.2,13.6c1.9,4.4,5.3,7.7,9.7,9.5c4.4,1.8,9.2,1.7,13.6-0.2
					c9-3.9,13.2-14.3,9.3-23.3c-1.9-4.4-5.3-7.7-9.7-9.5C115.8,23,111,23.1,106.6,24.9L106.6,24.9z"/>
				<path class="st1" d="M113.7,72c-7.9,0-15.8-3-21.8-9c-12-12-12-31.5,0-43.5l0,0c12-12,31.5-12,43.5,0c5.8,5.8,9,13.5,9,21.8
					s-3.2,15.9-9,21.8C129.4,69,121.5,72,113.7,72z M92.4,20l0.5,0.5C81.5,32,81.5,50.5,93,62c11.4,11.4,30,11.4,41.4,0
					c5.5-5.5,8.6-12.9,8.6-20.7s-3-15.2-8.6-20.7c-11.4-11.4-30-11.4-41.4,0L92.4,20z"/>
				<path class="st1" d="M113.7,69.5c-7.2,0-14.5-2.8-20-8.3c-11-11-11-28.9,0-39.9s28.9-11,39.9,0s11,28.9,0,39.9
					C128.1,66.7,120.9,69.5,113.7,69.5z M113.7,13.5c-7.1,0-14.2,2.7-19.7,8.1c-10.8,10.8-10.8,28.5,0,39.3
					c10.8,10.8,28.5,10.8,39.3,0c10.8-10.8,10.8-28.5,0-39.3C127.9,16.2,120.8,13.5,113.7,13.5z"/>
				<g>
					<path class="st1" d="M96.9,26.5l-1.4-0.1l0,0l-0.5,0.7l0.9,0.7l-0.6,0.8L91.9,26l1.1-1.4c0.7-0.9,1.6-1.1,2.3-0.5
						c0.5,0.4,0.7,0.9,0.5,1.5l1.6,0.1L96.9,26.5z M93.6,25.1l-0.5,0.6l1.1,0.9l0.5-0.6c0.4-0.5,0.3-0.9,0-1.2
						C94.4,24.6,94,24.7,93.6,25.1z"/>
					<path class="st1" d="M99.5,22.3l-1.8,1.6c0.3,0.2,0.8,0.2,1.1-0.1c0.3-0.2,0.4-0.5,0.4-0.8l0.7,0.1c0,0.5-0.2,0.9-0.7,1.3
						c-0.8,0.7-1.9,0.7-2.5-0.1c-0.6-0.7-0.5-1.7,0.2-2.4c0.7-0.6,1.7-0.6,2.4,0.2C99.4,22.1,99.4,22.2,99.5,22.3z M97.3,23.5l1.2-1
						c-0.3-0.3-0.7-0.3-1,0C97.1,22.7,97,23.1,97.3,23.5z"/>
					<path class="st1" d="M102.1,18.4l1.4,2.3c0.6,1,0.3,1.8-0.7,2.4c-0.5,0.3-1.1,0.5-1.6,0.4l0-0.8c0.4,0,0.8-0.1,1.2-0.3
						c0.6-0.3,0.7-0.7,0.4-1.2l-0.1-0.1c-0.1,0.4-0.3,0.7-0.7,0.9c-0.8,0.5-1.7,0.3-2.2-0.5c-0.5-0.8-0.2-1.7,0.6-2.2
						c0.4-0.2,0.8-0.3,1.2-0.1l-0.2-0.4L102.1,18.4z M102,20.2c-0.2-0.4-0.7-0.5-1.1-0.2c-0.4,0.3-0.6,0.7-0.3,1.1
						c0.2,0.4,0.7,0.5,1.1,0.2C102.1,21.1,102.3,20.6,102,20.2z"/>
					<path class="st1" d="M102.8,17.1c-0.1-0.3,0-0.6,0.3-0.7c0.3-0.1,0.6,0,0.7,0.2c0.1,0.3,0,0.6-0.3,0.7
						C103.2,17.5,102.9,17.3,102.8,17.1z M103.3,17.9l0.9-0.4l1.3,3l-0.9,0.4L103.3,17.9z"/>
					<path class="st1" d="M105.9,20l0.1-0.7c0.3,0.1,0.8,0.1,1.2,0c0.4-0.1,0.5-0.3,0.5-0.4c-0.1-0.5-1.9,0.6-2.2-0.7
						c-0.2-0.6,0.2-1.2,1.1-1.4c0.4-0.1,0.9-0.2,1.3-0.1l-0.1,0.7c-0.4-0.1-0.7-0.1-1,0c-0.4,0.1-0.5,0.3-0.5,0.5
						c0.2,0.5,1.9-0.5,2.2,0.7c0.2,0.6-0.2,1.1-1.2,1.4C106.8,20.1,106.2,20.1,105.9,20z"/>
					<path class="st1" d="M111.4,18.9c-0.2,0.2-0.4,0.3-0.7,0.3c-0.8,0.1-1.3-0.2-1.4-1l-0.2-1.3l-0.5,0.1l-0.1-0.7l0.5-0.1
						l-0.1-0.8l0.9-0.1l0.1,0.8l0.8-0.1l0.1,0.7l-0.8,0.1l0.2,1.3c0,0.3,0.2,0.4,0.5,0.4c0.1,0,0.3-0.1,0.4-0.2L111.4,18.9z"/>
					<path class="st1" d="M113.8,15.7l0,0.9c-0.1,0-0.1,0-0.2,0c-0.5,0-0.8,0.3-0.8,0.9l0.1,1.5l-0.9,0l-0.1-3.2l0.9,0l0,0.4
						C112.9,15.8,113.3,15.7,113.8,15.7z"/>
					<path class="st1" d="M117.5,17.4l-0.2,1.8l-0.9-0.1l0-0.4c-0.2,0.3-0.6,0.4-1,0.3c-0.8-0.1-1.2-0.5-1.1-1.1
						c0.1-0.6,0.5-0.9,1.5-0.8l0.7,0.1c0-0.4-0.2-0.7-0.7-0.7c-0.3,0-0.7,0-1,0.2l-0.3-0.7c0.4-0.2,0.9-0.3,1.4-0.2
						C117.1,15.9,117.6,16.4,117.5,17.4z M116.5,18.1l0-0.3l-0.6-0.1c-0.4,0-0.6,0.1-0.6,0.3c0,0.2,0.2,0.4,0.5,0.4
						C116.1,18.5,116.4,18.4,116.5,18.1z"/>
					<path class="st1" d="M120.2,19.7c-0.2,0.1-0.5,0.1-0.8,0c-0.7-0.2-1.1-0.7-0.9-1.4l0.3-1.3l-0.5-0.1l0.2-0.7l0.5,0.1l0.2-0.8
						l0.9,0.2l-0.2,0.8l0.8,0.2l-0.2,0.7l-0.8-0.2l-0.3,1.3c-0.1,0.3,0,0.4,0.3,0.5c0.1,0,0.3,0,0.4,0L120.2,19.7z"/>
					<path class="st1" d="M121.8,17.1l0.9,0.3l-1.1,3l-0.9-0.3L121.8,17.1z M122,16.1c0.1-0.3,0.4-0.4,0.7-0.3
						c0.3,0.1,0.5,0.4,0.4,0.7c-0.1,0.3-0.4,0.4-0.7,0.3C122.1,16.7,121.9,16.4,122,16.1z"/>
					<path class="st1" d="M123,19.1c0.4-0.9,1.4-1.1,2.3-0.7c0.9,0.5,1.3,1.4,0.8,2.3s-1.4,1.1-2.3,0.7C122.9,21,122.5,20,123,19.1z
						 M125.3,20.3c0.3-0.5,0.1-1-0.3-1.2c-0.4-0.2-0.9-0.1-1.1,0.4c-0.3,0.5-0.1,1,0.3,1.2C124.6,21,125,20.8,125.3,20.3z"/>
					<path class="st1" d="M129.6,23.1l-1.1,1.5l-0.7-0.6l1-1.4c0.3-0.4,0.3-0.8-0.1-1c-0.4-0.3-0.8-0.3-1.1,0.2l-1,1.3l-0.7-0.6
						l2-2.6l0.7,0.5l-0.2,0.3c0.4-0.1,0.8,0,1.1,0.3C130.1,21.6,130.2,22.3,129.6,23.1z"/>
				</g>
				<g>
					<path class="st1" d="M97.9,62l0.1-1.4l0,0L97.3,60L96.5,61l-0.7-0.6l2.7-3.2l1.4,1.2c0.9,0.7,1,1.6,0.4,2.3
						c-0.4,0.5-0.9,0.6-1.5,0.5l-0.1,1.6L97.9,62z M99.3,58.8l-0.6-0.5l-0.9,1.1l0.6,0.5c0.5,0.4,0.9,0.4,1.2,0
						C99.8,59.6,99.8,59.2,99.3,58.8z"/>
					<path class="st1" d="M103.1,63.7l-2.1-1.2c-0.1,0.4,0.1,0.8,0.5,1c0.3,0.2,0.6,0.2,0.9,0.1l0.2,0.7c-0.4,0.2-0.9,0.1-1.4-0.2
						c-1-0.5-1.3-1.5-0.8-2.3c0.5-0.8,1.5-1.1,2.3-0.6c0.8,0.5,1.2,1.4,0.7,2.3C103.2,63.6,103.2,63.6,103.1,63.7z M101.3,62
						l1.4,0.8c0.1-0.4,0-0.8-0.4-1C101.9,61.6,101.5,61.7,101.3,62z"/>
					<path class="st1" d="M107.8,63.4L107,66c-0.4,1.1-1.2,1.4-2.3,1.1c-0.6-0.2-1.1-0.5-1.4-0.9l0.6-0.5c0.2,0.3,0.6,0.6,1,0.7
						c0.6,0.2,1,0,1.2-0.5l0-0.1c-0.3,0.2-0.7,0.2-1.1,0.1c-0.8-0.3-1.3-1.1-1-2c0.3-0.9,1.2-1.2,2-1c0.4,0.1,0.7,0.4,0.9,0.8
						l0.1-0.4L107.8,63.4z M106.5,64.6c0.2-0.4-0.1-0.9-0.5-1c-0.5-0.2-0.9,0-1.1,0.5c-0.2,0.4,0.1,0.9,0.5,1
						C105.9,65.2,106.3,65,106.5,64.6z"/>
					<path class="st1" d="M108.7,63.6l0.9,0.2l-0.6,3.2l-0.9-0.2L108.7,63.6z M108.8,62.6c0.1-0.3,0.3-0.5,0.7-0.4s0.5,0.3,0.5,0.6
						c-0.1,0.3-0.3,0.5-0.7,0.4C108.9,63.2,108.8,62.9,108.8,62.6z"/>
					<path class="st1" d="M110,66.8l0.4-0.6c0.3,0.2,0.7,0.4,1.1,0.4c0.4,0,0.6-0.1,0.6-0.2c0-0.5-1.9-0.2-1.8-1.4
						c0.1-0.6,0.6-1,1.6-0.9c0.4,0,0.9,0.2,1.2,0.4l-0.4,0.6c-0.3-0.2-0.6-0.3-0.9-0.3c-0.4,0-0.6,0.1-0.6,0.2
						c0,0.5,1.9,0.2,1.8,1.4c0,0.6-0.6,1-1.6,0.9C110.9,67.2,110.3,67.1,110,66.8z"/>
					<path class="st1" d="M116.1,67.1c-0.2,0.1-0.5,0.2-0.8,0.2c-0.8,0-1.2-0.3-1.3-1.1l-0.1-1.3l-0.5,0l0-0.7l0.5,0l0-0.8l0.9,0
						l0,0.8l0.8,0l0,0.7l-0.8,0l0.1,1.3c0,0.3,0.2,0.4,0.4,0.4c0.1,0,0.3-0.1,0.4-0.1L116.1,67.1z"/>
					<path class="st1" d="M118.5,63.6l0.1,0.9c-0.1,0-0.1,0-0.2,0c-0.5,0.1-0.8,0.4-0.7,1L118,67l-0.9,0.2l-0.5-3.2l0.9-0.1l0.1,0.4
						C117.6,63.9,118,63.7,118.5,63.6z"/>
					<path class="st1" d="M122.2,64l0.5,1.8l-0.8,0.3l-0.1-0.4c-0.1,0.3-0.4,0.6-0.8,0.7c-0.7,0.2-1.3,0-1.4-0.6
						c-0.2-0.5,0.1-1,1-1.3l0.7-0.2c-0.1-0.4-0.4-0.5-0.9-0.4c-0.3,0.1-0.6,0.3-0.8,0.6l-0.5-0.5c0.3-0.3,0.7-0.6,1.2-0.8
						C121.3,62.8,121.9,63.1,122.2,64z M121.6,65l-0.1-0.3l-0.6,0.2c-0.4,0.1-0.5,0.3-0.4,0.5c0.1,0.2,0.3,0.3,0.6,0.2
						C121.4,65.6,121.6,65.4,121.6,65z"/>
					<path class="st1" d="M125.8,64.2c-0.1,0.2-0.3,0.4-0.6,0.5c-0.7,0.3-1.3,0.2-1.6-0.5l-0.6-1.2l-0.4,0.2l-0.3-0.7l0.4-0.2
						l-0.3-0.7l0.8-0.4l0.3,0.7l0.7-0.3l0.3,0.7l-0.7,0.3l0.6,1.2c0.1,0.2,0.3,0.3,0.5,0.2c0.1-0.1,0.2-0.2,0.3-0.3L125.8,64.2z"/>
					<path class="st1" d="M124.5,60.3c-0.2-0.3-0.1-0.6,0.2-0.7c0.3-0.2,0.6-0.1,0.8,0.1c0.2,0.3,0.1,0.6-0.2,0.8
						C124.9,60.6,124.6,60.6,124.5,60.3z M125.1,61.1l0.8-0.5l1.7,2.8l-0.8,0.5L125.1,61.1z"/>
					<path class="st1" d="M127.5,61.5c-0.6-0.8-0.4-1.8,0.4-2.4c0.8-0.6,1.8-0.6,2.4,0.2c0.6,0.8,0.5,1.8-0.4,2.4
						C129.1,62.4,128.1,62.3,127.5,61.5z M129.5,59.9c-0.3-0.4-0.8-0.5-1.2-0.2c-0.4,0.3-0.4,0.8-0.1,1.2c0.3,0.4,0.8,0.5,1.2,0.2
						C129.8,60.8,129.9,60.4,129.5,59.9z"/>
					<path class="st1" d="M133,56l1.4,1.2l-0.6,0.7l-1.3-1.1c-0.4-0.3-0.7-0.3-1,0c-0.3,0.3-0.3,0.8,0.1,1.2l1.2,1.1l-0.6,0.7
						l-2.4-2.1l0.6-0.7l0.3,0.2c0-0.4,0.1-0.8,0.4-1.1C131.5,55.5,132.2,55.4,133,56z"/>
				</g>
			</g>
		</g>
		<g>
			
				<rect x="80.6" y="32.3" transform="matrix(0.9883 -0.1526 0.1526 0.9883 -4.9639 17.8284)" class="st1" width="66" height="17.9"/>
			<g>
				<g class="st2">
					<path class="st3" d="M96.6,42.7l-1.2,0.2l-0.2-1l3.6-0.6l0.2,1l-1.2,0.2l0.4,2.9L97,45.6L96.6,42.7z"/>
					<path class="st3" d="M101.8,41.6l0.2,1.1c-0.1,0-0.2,0-0.3,0c-0.4,0.1-0.6,0.3-0.6,0.8l0.2,1.4l-1.3,0.2L99.6,42l1.2-0.2
						l0.1,0.3C101.1,41.9,101.4,41.7,101.8,41.6z"/>
					<path class="st3" d="M105.8,42.6l0.3,1.7l-1.2,0.2l-0.1-0.4c-0.1,0.3-0.4,0.5-0.8,0.6c-0.8,0.1-1.2-0.3-1.3-0.8
						c-0.1-0.6,0.3-1,1.3-1.1l0.5-0.1c-0.1-0.2-0.3-0.3-0.6-0.3c-0.3,0-0.6,0.2-0.8,0.4l-0.5-0.8c0.3-0.3,0.9-0.5,1.3-0.6
						C104.9,41.2,105.6,41.5,105.8,42.6z M104.6,43.4l0-0.2l-0.3,0c-0.3,0-0.4,0.1-0.3,0.3c0,0.1,0.2,0.2,0.3,0.2
						C104.4,43.7,104.6,43.6,104.6,43.4z"/>
					<path class="st3" d="M109.7,39.4l0.6,4.2l-1.2,0.2l0-0.3c-0.2,0.2-0.4,0.4-0.8,0.4c-0.8,0.1-1.6-0.4-1.7-1.4
						c-0.2-1,0.4-1.7,1.2-1.8c0.3-0.1,0.6,0,0.8,0.1l-0.2-1.3L109.7,39.4z M108.9,42.2c-0.1-0.4-0.3-0.6-0.6-0.5
						c-0.3,0-0.5,0.3-0.4,0.7c0.1,0.4,0.3,0.6,0.6,0.5C108.8,42.8,109,42.6,108.9,42.2z"/>
					<path class="st3" d="M114.4,41.6l-2.1,0.3c0.1,0.2,0.4,0.3,0.7,0.3c0.3,0,0.4-0.1,0.6-0.3l0.8,0.6c-0.2,0.4-0.7,0.6-1.3,0.7
						c-1.1,0.2-2-0.4-2.1-1.3c-0.1-0.9,0.5-1.7,1.5-1.9c0.9-0.1,1.8,0.3,1.9,1.3C114.3,41.4,114.4,41.6,114.4,41.6z M112.1,41.4
						l1-0.2c-0.1-0.3-0.3-0.4-0.6-0.3C112.3,40.9,112.1,41.1,112.1,41.4z"/>
					<path class="st3" d="M120.3,40.2l0.3,1.8l-1.3,0.2l-0.2-1.5c-0.1-0.4-0.2-0.5-0.4-0.5c-0.2,0-0.4,0.2-0.3,0.6l0.2,1.5l-1.3,0.2
						l-0.2-1.5c-0.1-0.4-0.2-0.5-0.4-0.5c-0.2,0-0.4,0.2-0.3,0.6l0.2,1.5l-1.3,0.2l-0.5-3.1l1.2-0.2l0,0.3c0.2-0.3,0.5-0.4,0.8-0.5
						c0.4-0.1,0.8,0,1,0.3c0.2-0.3,0.5-0.6,1-0.6C119.6,38.9,120.2,39.2,120.3,40.2z"/>
					<path class="st3" d="M124.3,39.7l0.3,1.7l-1.2,0.2l-0.1-0.4c-0.1,0.3-0.4,0.5-0.8,0.6c-0.8,0.1-1.2-0.3-1.3-0.8
						c-0.1-0.6,0.3-1,1.3-1.1l0.5-0.1c-0.1-0.2-0.3-0.3-0.6-0.3c-0.3,0-0.6,0.2-0.8,0.4l-0.5-0.8c0.3-0.3,0.9-0.5,1.3-0.6
						C123.5,38.3,124.2,38.7,124.3,39.7z M123.1,40.5l0-0.2l-0.3,0c-0.3,0-0.4,0.1-0.3,0.3c0,0.1,0.2,0.2,0.3,0.2
						C123,40.9,123.1,40.7,123.1,40.5z"/>
					<path class="st3" d="M127.2,37.7l0.2,1.1c-0.1,0-0.2,0-0.3,0c-0.4,0.1-0.6,0.3-0.6,0.8l0.2,1.4l-1.3,0.2l-0.5-3.1l1.2-0.2
						l0.1,0.3C126.4,38,126.8,37.8,127.2,37.7z"/>
					<path class="st3" d="M129.7,39.6l-0.2,0.3l0.1,0.7l-1.3,0.2l-0.6-4.2l1.3-0.2l0.3,2l0.7-1l1.5-0.2l-1.1,1.5l1.6,1.5l-1.5,0.2
						L129.7,39.6z"/>
				</g>
				<g>
					<polygon class="st3" points="89.2,41.1 90.7,43.1 93.2,43 91.8,45.1 92.6,47.4 90.3,46.7 88.3,48.2 88.3,45.7 86.2,44.3 
						88.6,43.5 					"/>
					<polygon class="st3" points="136.5,34.4 138,36.4 140.5,36.3 139,38.4 139.9,40.7 137.5,40 135.5,41.5 135.5,39 133.4,37.6 
						135.8,36.8 					"/>
				</g>
			</g>
		</g>
	</g>
	<g>
		<g>
			<g>
				<g>
					<g>
						<path class="st4" d="M74.3,115.9c0,0,2.9,7.7-1.4,19.9c0,0-9.9,2.6-2-1c0,0-4.4-14.2-4.4-19.3
							C66.4,110.4,74.3,115.9,74.3,115.9z"/>
						<path class="st5" d="M74.3,115.9c0,0,2.9,7.7-1.4,19.9c0,0-9.9,2.6-2-1c0,0-4.4-14.2-4.4-19.3
							C66.4,110.4,74.3,115.9,74.3,115.9z"/>
					</g>
					<path class="st6" d="M73.2,135.1l-0.1,1.1c0,0-11.1,2.3-3-1.1C70,135.1,68.6,136.3,73.2,135.1z"/>
				</g>
				<g>
					<g>
						<path class="st4" d="M82.4,117.5c0,0,2.1,8-3.5,19.6c0,0-10.1,1.6-1.9-1.2c0,0-3-14.6-2.4-19.6
							C75.1,111.3,82.4,117.5,82.4,117.5z"/>
						<path class="st5" d="M77.9,122.6c-1,0-2,0-3.1,0c-0.3-2.5-0.4-4.8-0.3-6.3c0.5-5,7.8,1.2,7.8,1.2s0.5,1.8,0.4,5
							C81.1,122.5,79.5,122.6,77.9,122.6z"/>
					</g>
					<path class="st6" d="M79.5,136.3l-0.2,1c0,0-11.3,1.6-2.9-1.3C76.3,136,74.8,137.1,79.5,136.3z"/>
				</g>
			</g>
			<g>
				<path class="st7" d="M70.4,83.6l-1.2-7.5c0,0-12.2,6.6-3.1,43.6c0,0,4.7,1,9.5-0.9l2.1-25.5L70.4,83.6z"/>
				<path class="st8" d="M82.4,77.6c0,0,6.4,6.9,6.3,14.6c-0.2,7.6-5,28-5,28s-4.5,1.2-9.9,0l-1.9-24.7c0,0-4.3-2.1-8.3-7.1
					c0,0,0.4-7.7,5.7-12.8C74.6,70.5,82.4,72.5,82.4,77.6z"/>
				<path class="st7" d="M83.9,80.6c-3.9,0-7.8,0-11.7-0.3c-2-0.1-3.9-0.4-5.9-0.6c0.8-1.2,1.7-2.5,2.9-3.6c5.4-5,13.2-3.6,13.2,1.4
					c0,0,1.1,1.1,2.3,3C84.4,80.6,84.1,80.6,83.9,80.6z"/>
			</g>
		</g>
		<g>
			<path class="st9" d="M77.6,38.3c0,0-5.4-2.6-8.5,0.9c-3.1,3.5-0.8,11.4-3.9,14.2c-3.1,2.7-0.5,9.9,4.1,10.1
				c4.6,0.2,9.1-7.2,9.1-7.2L77.6,38.3z"/>
			<g>
				<g>
					<g>
						<path class="st4" d="M75.6,54.2c0,0,1,4.6,0.1,4.7c-0.9,0.1-4.3-0.6-5.1,1.1c-0.7,1.7,1.9,6.1,7.7,4.7s4.6-5.7,4.6-5.7
							s-2.3,0.4-2.3-4.9S75.6,54.2,75.6,54.2z"/>
						<path class="st5" d="M75.6,54.2c0,0,1,4.6,0.1,4.7c-0.9,0.1-4.3-0.6-5.1,1.1c-0.7,1.7,1.9,6.1,7.7,4.7s4.6-5.7,4.6-5.7
							s-2.3,0.4-2.3-4.9S75.6,54.2,75.6,54.2z"/>
					</g>
					<path class="st10" d="M68.3,74.5c0,0,6.5,3,14.1,1.5c0,0,7.6-14.5,5.2-16.2c-2.5-1.7-4.9-1.6-4.9-1.6s-3,6-7.7,5.9
						c-4.7-0.1-2.7-5.7-2.7-5.7s-3.6-0.5-4.6,3.1C66.7,65.2,68.3,74.5,68.3,74.5z"/>
				</g>
				<g>
					<g>
						<g>
							<path class="st3" d="M70.2,70.5c-0.1,0.1-0.1,0.4,0.1,0.4l0,0c0.1,0.1,0.4,0.1,0.4-0.1l5.4-8.2c0.1-0.1,0.1-0.4-0.1-0.4l0,0
								c-0.1-0.1-0.4-0.1-0.4,0.1L70.2,70.5z"/>
							<g>
								<path class="st4" d="M88.7,67.9c0,0-1.3,8.7-4.2,9.8C81.7,78.7,71,68,71,68s1.2-1.4,3.5-0.5c2.3,0.9,7.6,3.3,7.6,3.3
									l1.2-4.4L88.7,67.9z"/>
								<path class="st5" d="M82.4,69.3l0.8-3l5.5,1.6c0,0-0.2,1.3-0.6,3C86.2,70.4,84.3,69.9,82.4,69.3z"/>
							</g>
						</g>
						<path class="st10" d="M82.6,58.3c0,0,5.5,0.1,6.8,3.5c1.3,3.4,0.4,7.2,0.4,7.2s-4.9,0.1-7.9-0.9L82.6,58.3z"/>
					</g>
					<g>
						<polygon class="st11" points="77.3,75.6 69.2,60.9 59,65 67,79.7 						"/>
						<g>
							<path class="st4" d="M63.1,72c0,0,5.1-3.2,0.5,0.6c0,0,4.8-2.5,0.2,0.9c0,0,4.2-2.1,0.2,0.7l0.1,0.2c-1.3-1.2-2.4-2.4-2-2.7
								C62.8,70.8,66.3,68,63.1,72z"/>
						</g>
					</g>
				</g>
			</g>
			<g>
				<path class="st4" d="M82.1,47.5c0,0,0.1-6.1-5.3-6.5c-5.4-0.4-7.5,3.3-7.1,8.3c0.4,5,3.6,7.7,6.1,7.6
					C78.3,56.8,82.6,53.5,82.1,47.5z"/>
				<path class="st6" d="M77,40.9c0,0,0.5,21.5,5.7,19.2c5.1-2.2,6.6,1.6,6.6,1.6s3.1-2.4-2.4-6.7c-3.1-2.5,1.2-11.8-3.3-16.6
					C80.5,35.1,73.3,36.6,77,40.9z"/>
			</g>
		</g>
		<g>
			<g>
				<path class="st10" d="M72.5,48.9c0.1,0.3,0.1,0.7-0.1,1.1c-0.1,0.2-0.2,0.3-0.3,0.5c-0.2,0.1-0.4,0.2-0.6,0.2
					c-0.2,0-0.4-0.1-0.6-0.2c-0.2-0.1-0.3-0.3-0.3-0.5c-0.1-0.4-0.2-0.7-0.1-1.1c0.1,0.3,0.2,0.7,0.4,0.9c0.2,0.3,0.4,0.4,0.7,0.4
					c0.3,0,0.5-0.2,0.7-0.4C72.3,49.5,72.4,49.2,72.5,48.9z"/>
			</g>
			<g>
				<path class="st10" d="M77.2,48.7c0.1,0.3,0.1,0.7,0,1c-0.1,0.2-0.2,0.3-0.3,0.5c-0.2,0.1-0.4,0.2-0.6,0.2
					c-0.2,0-0.4-0.1-0.6-0.2c-0.2-0.1-0.3-0.3-0.3-0.5c-0.1-0.3-0.1-0.7-0.1-1c0.1,0.3,0.2,0.6,0.4,0.9c0.2,0.3,0.4,0.4,0.6,0.4
					c0.3,0,0.5-0.2,0.6-0.4C77.1,49.4,77.2,49.1,77.2,48.7z"/>
			</g>
			<g>
				<path class="st10" d="M72.9,47.6c-0.3-0.2-0.6-0.3-0.8-0.5c-0.3-0.1-0.5-0.2-0.7-0.2c-0.2,0-0.5,0.1-0.7,0.2
					c-0.1,0.1-0.3,0.1-0.4,0.2c-0.1,0.1-0.3,0.2-0.4,0.2c0-0.2,0.1-0.3,0.2-0.5c0.1-0.1,0.2-0.3,0.3-0.4c0.3-0.3,0.6-0.5,1.1-0.5
					c0.4,0,0.8,0.2,1.1,0.5C72.6,46.9,72.8,47.2,72.9,47.6z"/>
			</g>
			<g>
				<path class="st10" d="M74.3,47.6c0.1-0.4,0.3-0.7,0.6-1c0.3-0.3,0.7-0.5,1.2-0.5c0.4,0,0.9,0.1,1.2,0.3c0.2,0.1,0.3,0.2,0.5,0.4
					c0.1,0.2,0.3,0.3,0.4,0.5c-0.2,0-0.4-0.1-0.5-0.2c-0.2,0-0.3-0.1-0.5-0.1c-0.3-0.1-0.6-0.1-0.9-0.1c-0.3,0-0.6,0.1-0.9,0.2
					C74.9,47.2,74.6,47.3,74.3,47.6z"/>
			</g>
			<g>
				<path class="st12" d="M73.3,49.7c0.1,0.2,0.1,0.4,0.1,0.6c0,0.2,0,0.4,0,0.6s-0.1,0.4-0.2,0.7c-0.1,0.2-0.2,0.4-0.5,0.6
					l-0.1-0.4c0.2,0.1,0.4,0.1,0.5,0.2c0.2,0.1,0.3,0.2,0.5,0.3c-0.2,0-0.4,0-0.6,0c-0.2,0-0.4,0-0.6-0.1l-0.4-0.1l0.3-0.3
					c0.2-0.2,0.4-0.6,0.5-0.9C73.1,50.5,73.2,50.1,73.3,49.7z"/>
			</g>
			<g>
				<path class="st12" d="M76.9,53.1c-0.2,0.3-0.4,0.6-0.8,0.8c-0.3,0.2-0.7,0.4-1,0.4c-0.2,0-0.4,0-0.6,0c-0.2,0-0.4,0-0.6-0.1
					c-0.4-0.1-0.7-0.3-0.9-0.6c0.4,0.1,0.7,0.2,1,0.2c0.2,0,0.3,0,0.5,0c0.2,0,0.3,0,0.5-0.1C75.7,53.8,76.3,53.5,76.9,53.1z"/>
			</g>
		</g>
	</g>
	<g>
		<g>
			<g>
				<g>
					<path class="st13" d="M164.4,71.2c0,0,4.2,13.3,4.7,15.4c0.5,2-5.5-0.9-8.1-14L164.4,71.2z"/>
					<g>
						<polygon class="st11" points="159.8,81.4 171.1,75.8 175.7,88.9 163.3,93.9 						"/>
						<polygon class="st3" points="161,82.1 170.1,77.6 173.9,88.2 163.8,92.2 						"/>
						<polygon class="st8" points="170.8,80.8 173.1,79.5 174.5,83.9 172.2,84.8 						"/>
					</g>
				</g>
				<g>
					<path class="st13" d="M170.2,91c0,0-3-7.8-1.1,0.2c0,0-3.3-6.7-0.9,0.8c0,0-2.8-5.8-0.9,0.6l-0.2,0.1c2.4-0.3,4.6-0.6,4.5-1.3
						C171.5,90,169.9,84,170.2,91z"/>
				</g>
			</g>
			<g>
				<path class="st14" d="M164.1,82.5c0,0,7.2,21.2,7.2,26.1c0,5-18.6,23.2-18.6,23.2l-3.9-5.2l11.2-18l-1.3-16.9L164.1,82.5z"/>
				<g>
					<path class="st14" d="M169.8,133.1c0,0,4.7,7.3,5.2,7.2c0.6-0.1,14.8-16.3,1.5-4.6l-4.6-10.6L169.8,133.1z"/>
					<path class="st10" d="M145.3,86.8c0,0,8.6,26.1,26.5,51l4.4-4.2c0,0-8.8-26.7-15.3-40.3l5.3-3.3L163,80L145.3,86.8z"/>
				</g>
			</g>
			<g>
				<g>
					<path class="st8" d="M152.5,53.2c0,0,6.7,1.1,7.6,2.1c0.9,1,2.4,10.7,4.5,15.2c2.1,4.5-7.1,2.8-7.1,2.8L152.5,53.2z"/>
					<path class="st15" d="M161.8,60.8c-0.8,0.8-1.5,1.6-2.4,2.3c-1.2,1-2.4,1.9-3.7,2.9l1.8,7.3c0,0,9.2,1.7,7.1-2.8
						C163.5,68.1,162.6,64.1,161.8,60.8z"/>
				</g>
				<g>
					<path class="st4" d="M159.5,56.9c-0.3-0.9-7.7-3.1-8.1-3.1c-0.8-0.1-1.2-1.5-1.5-2.7c0.4,0.1,0.8,0.3,1.3,0.4
						c7,1.8,7.6-14.7,4.2-17.1c-2.8-1.9-10.4-3.5-11.3,3c-0.5,3.2,0.4,4.3,0.1,11.9c-0.1,10.2-7.5,0.8-6.7,6.1
						C138.4,60.7,160.8,61.1,159.5,56.9z"/>
					<g>
						<path class="st8" d="M143.2,49.7l5,3l2.5-1.1l0.7,1.5c0,0,5.5,0.4,7.6,1.7c2.1,1.2,2.6,22.4,5.9,28.8c0,0-1.9,6.1-5.2,8.7
							l-2.1-4.8l-0.1,5.9c0,0-8.1-0.6-13-4.8c0,0-8.3-27.3-8.1-32.6c0.1-5.2,6.5-4.4,6.5-4.4L143.2,49.7z"/>
						<path class="st15" d="M149.8,70.1c-3.7-2.3-6.8-5.2-9.3-8.8c-1.6-2.3-2.8-4.7-3.9-7.3c-0.3,0.5-0.4,1.2-0.4,1.9
							c-0.1,5.2,8.1,32.6,8.1,32.6c4.8,4.3,13,4.8,13,4.8l0.1-5.9l2.1,4.8c3.3-2.6,5.2-8.7,5.2-8.7c-1-1.9-1.7-5-2.3-8.6
							C158.1,74.1,153.7,72.6,149.8,70.1z"/>
					</g>
				</g>
				<g>
					<path class="st8" d="M143.6,52c0,0-1.4-1.2-6.8,0c-4.5,1-14.3,13.5-13.6,16.4c0.7,2.9,4.4,2.9,4.4,2.9l16-12.7L143.6,52z"/>
					<g>
						<polygon class="st6" points="148.1,53.2 146.3,55.4 147.8,57.2 150.2,78.3 154.4,81.4 155.8,77.3 149.9,56.8 151.3,53.1 
													"/>
						<polygon class="st16" points="142.4,51.8 143.2,49.7 148.2,52.7 150.6,51.6 152.5,53.2 150.6,55.5 148.1,53.2 146,56.5 						
							"/>
					</g>
				</g>
			</g>
			<g>
				<g>
					<path class="st10" d="M144.8,42.3c0,0-1.3,7.4,1.8,8.8c3.1,1.4,10.9,4.2,10.6-5.5c0,0-1.4,4.4-1.7,3.5c-0.3-0.9,1.4-3-1.5-3.7
						c-3-0.7-5.3-2-5.7,0.1s-1.9,2.6-1.7-0.6c0.2-3.4,0.5-5.8,0.5-5.8s2.1,0.2,2.2-2.6s10.6,6.5,11.2-0.8l-1.7,0.3
						c0,0,1.9-1,1.5-3.1c0,0-2.8,0.8-6.3-1.9s-7.2,1.2-7.2,1.2s-1.5-1.4-3.1,1c-2.2,3.4,0.6,12.4,0.6,12.4l-0.1-4.8"/>
				</g>
				<g>
					<path class="st4" d="M144.5,43.8c0,0,0.7-3.7,0.1-4.1c-0.6-0.4-2.2-0.8-1.9,2.4C143,44.6,144.2,44.3,144.5,43.8z"/>
					<path class="st10" d="M150.4,40.4c0,0.6-0.2,1-0.5,1c-0.2,0-0.3-0.5-0.3-1c0-0.6,0.2-1,0.5-1S150.4,39.9,150.4,40.4z"/>
					<path class="st10" d="M155.4,41.8c0,0.6-0.2,1-0.5,1c-0.2,0-0.3-0.5-0.3-1c0-0.6,0.2-1,0.5-1C155.3,40.7,155.4,41.2,155.4,41.8
						z"/>
					<g>
						<path class="st12" d="M151.8,44.8c0.4-0.1,0.8-0.1,1.2-0.1c0.2,0,0.4,0,0.6,0c0.2,0,0.4,0,0.6,0l-0.2,0.3
							c-0.1-0.4-0.2-0.8-0.2-1.2c0-0.4-0.1-0.8,0-1.2c0-0.4,0.1-0.8,0.2-1.2c0.1-0.4,0.2-0.8,0.4-1.2c0,0.4-0.1,0.8-0.1,1.2
							c0,0.4,0,0.8,0,1.2c0,0.4,0,0.8,0.1,1.2c0,0.4,0.1,0.8,0.2,1.1l0.1,0.3l-0.3,0c-0.2,0-0.4,0-0.6,0c-0.2,0-0.4,0-0.6-0.1
							C152.6,45,152.2,44.9,151.8,44.8z"/>
					</g>
					<g>
						<path class="st12" d="M144.1,43.9c-0.1-0.1-0.2-0.1-0.3-0.2c-0.1-0.1-0.2-0.2-0.2-0.4c0-0.2,0.1-0.3,0.2-0.4
							c0.1-0.1,0.2-0.1,0.4-0.2l-0.1,0.1c0.1-0.3,0.2-0.7,0.3-1.1c0-0.4,0.1-0.7,0-1c0-0.2-0.1-0.3-0.3-0.4
							c-0.1-0.1-0.3-0.1-0.4-0.1c-0.1,0.1-0.2,0.2-0.3,0.4c-0.1,0.2-0.1,0.4-0.1,0.5c0-0.2,0-0.4,0-0.6c0-0.2,0.1-0.4,0.3-0.5
							c0.1-0.1,0.2-0.1,0.3-0.1c0.1,0,0.1,0,0.2,0l0.1,0.1c0.2,0.1,0.4,0.3,0.4,0.5c0.1,0.4,0.1,0.8,0,1.2c-0.1,0.4-0.2,0.7-0.3,1.1
							l0,0l0,0L144,43c-0.1,0-0.1,0.1-0.2,0.1c-0.1,0.1-0.2,0.1-0.2,0.2c0,0.1,0.1,0.2,0.1,0.3C143.9,43.7,144,43.8,144.1,43.9z"/>
					</g>
					<g>
						<path class="st10" d="M148.9,38.6c0.1-0.4,0.4-0.7,0.7-1c0.3-0.3,0.8-0.4,1.3-0.4c0.5,0.1,0.9,0.4,1.1,0.8
							c0.1,0.2,0.2,0.4,0.3,0.6c0,0.2,0.1,0.4,0.1,0.6c-0.2-0.1-0.3-0.3-0.4-0.4l-0.4-0.3c-0.3-0.2-0.5-0.3-0.8-0.4
							c-0.2,0-0.5,0-0.8,0.1C149.6,38.3,149.3,38.4,148.9,38.6z"/>
					</g>
					<g>
						<path class="st10" d="M154.3,40.2c0-0.4,0.2-0.7,0.5-0.9c0.1-0.1,0.2-0.1,0.2-0.2c0.1-0.1,0.2-0.1,0.3-0.1c0.1,0,0.2,0,0.3,0
							c0.1,0,0.2,0,0.3,0.1c0.1,0.1,0.2,0.1,0.3,0.2c0.1,0.1,0.1,0.1,0.2,0.2c0.1,0.1,0.1,0.2,0.2,0.2c0,0.1,0.1,0.2,0.1,0.2
							c0.1,0.2,0.1,0.3,0.1,0.5c0,0.2,0,0.3,0,0.5c-0.1-0.1-0.2-0.2-0.4-0.4c-0.1-0.1-0.2-0.2-0.3-0.3c-0.1-0.1-0.2-0.2-0.3-0.3
							c-0.1,0-0.1-0.1-0.1-0.1c0,0-0.1,0-0.1-0.1c-0.1,0-0.2,0-0.3-0.1c-0.1,0-0.1,0-0.2,0c-0.1,0-0.1,0-0.2,0.1
							C154.8,39.8,154.6,40,154.3,40.2z"/>
					</g>
					<path class="st3" d="M149.1,45.4c0,0,3.6,1.2,5.1,1.7C154.2,47.1,151.5,48.7,149.1,45.4z"/>
				</g>
			</g>
		</g>
		<g>
			<g>
				<g>
					<g>
						<path class="st17" d="M101.8,127.7c0.9,6.9,12.1,12.8,27.1,12.8c15,0,26.1-5.9,27.1-12.8c2.6-18.5-12.1-12.8-27.1-12.8
							C113.9,115,99.3,109.6,101.8,127.7z"/>
					</g>
					<g>
						<ellipse class="st18" cx="128.9" cy="119.9" rx="27.1" ry="8.6"/>
						<g>
							<path class="st19" d="M101.6,119.9c0,1.1,0.6,2,1.3,2.7c1,1,2.4,1.7,3.7,2.3c4,1.8,8.5,2.6,12.9,3.1
								c5.6,0.6,11.3,0.7,16.9,0.2c4.6-0.4,9.3-1.2,13.6-2.8c1.5-0.6,2.9-1.3,4.2-2.2c0.8-0.7,1.7-1.5,1.9-2.6
								c0.6-2.4-2-4.2-3.8-5.1c-3.7-2-8-2.8-12.1-3.4c-5.6-0.8-11.2-1-16.9-0.6c-4.8,0.3-9.7,1-14.3,2.5c-1.6,0.5-3.2,1.2-4.7,2.1
								c-1,0.6-2,1.4-2.5,2.5C101.7,119,101.6,119.5,101.6,119.9c0,0.2,0.4,0.1,0.4,0c0-1,0.6-1.9,1.3-2.6c1.1-1,2.4-1.7,3.7-2.3
								c4-1.7,8.4-2.5,12.7-3c5.5-0.6,11-0.7,16.5-0.2c4.5,0.4,9.1,1.1,13.3,2.7c1.5,0.6,2.9,1.2,4.2,2.2c0.9,0.6,1.7,1.5,2,2.6
								c0.6,2.4-2.1,4.1-3.9,5.1c-3.7,1.9-7.9,2.7-12,3.3c-5.4,0.8-10.9,0.9-16.4,0.6c-4.7-0.3-9.5-1-14-2.4
								c-1.6-0.5-3.2-1.2-4.7-2.1c-1-0.6-2-1.4-2.6-2.5c-0.2-0.4-0.3-0.9-0.3-1.3C102,119.7,101.6,119.8,101.6,119.9z"/>
						</g>
					</g>
				</g>
				<g>
					<g>
						<path class="st20" d="M128.7,122.5c12.1,0.6,16.6-7,8.6-11.9c-7.3-4.4-8-17.4-4.3-21c4.6-4.4,4.8-9.1,4.8-9.1
							c0-4.4-2.7-6.9-6.5-7.8c-0.8-0.3-1.7-0.4-2.7-0.4c-0.2,0-0.4,0-0.6,0c-0.2,0-0.4,0-0.6,0c-0.9,0-1.6,0.1-2.3,0.3
							c-4.1,0.9-7,3.4-7,7.9c0,0,0.9,4.6,4.3,8.6c2.8,3.2,4.6,17.1-3.7,21.5c-8.3,4.4-3.6,12.4,8.6,11.9"/>
						<g>
							<g>
								<defs>
									<path id="SVGID_1_" d="M128.7,122.5c12.1,0.6,16.6-7,8.6-11.9c-7.3-4.4-8-17.4-4.3-21c4.6-4.4,4.8-9.1,4.8-9.1
										c0-4.4-2.7-6.9-6.5-7.8c-0.8-0.3-1.7-0.4-2.7-0.4c-0.2,0-0.4,0-0.6,0c-0.2,0-0.4,0-0.6,0c-0.9,0-1.6,0.1-2.3,0.3
										c-4.1,0.9-7,3.4-7,7.9c0,0,0.9,4.6,4.3,8.6c2.8,3.2,4.6,17.1-3.7,21.5c-8.3,4.4-3.6,12.4,8.6,11.9"/>
								</defs>
								<clipPath id="SVGID_00000072960569434598473520000013716701749413102985_">
									<use xlink:href="#SVGID_1_"  style="overflow:visible;"/>
								</clipPath>
								<g style="clip-path:url(#SVGID_00000072960569434598473520000013716701749413102985_);">
									<g>
										<path class="st19" d="M118.6,108.1c-2.3,1.2-4.9,3.5-4.2,6.4c0.7,2.9,4,4.5,6.7,5.1c2,0.5,4.1,0.5,6.2,0.5
											c1.9,0,3.7,0.1,5.6-0.2c3-0.4,6.7-1.5,8.2-4.4c0.6-1,0.7-2.3,0.3-3.4c-0.5-1.4-1.5-2.5-2.7-3.4c-0.4-0.3-0.8-0.5-1.2-0.8
											c-0.1-0.1-0.6,0.1-0.5,0.2c2.2,1.3,4.6,3.7,3.9,6.5c-0.7,2.9-4.1,4.3-6.7,4.8c-1.9,0.4-3.8,0.4-5.8,0.4
											c-1.9,0-3.7,0.1-5.5-0.2c-2.8-0.4-6.3-1.7-7.6-4.4c-0.5-1-0.5-2.2-0.2-3.2c0.5-1.3,1.5-2.3,2.6-3.1
											c0.4-0.3,0.8-0.5,1.2-0.7C119.2,108.1,118.7,108,118.6,108.1L118.6,108.1z"/>
									</g>
								</g>
							</g>
						</g>
					</g>
					<g>
						<ellipse class="st20" cx="128" cy="78.9" rx="10.4" ry="9.3"/>
						<g>
							<path class="st19" d="M117.5,78.9c0,4.2,3.1,7.6,7,8.9c4,1.3,8.8,0.3,11.7-2.9c1.3-1.4,2.2-3.3,2.4-5.3c0.2-2-0.3-4-1.5-5.7
								c-2.4-3.6-7-5.1-11.2-4.4c-3.9,0.7-7.5,3.7-8.3,7.7C117.5,77.9,117.5,78.4,117.5,78.9c0,0.2,0.4,0.1,0.4,0
								c0-4,2.9-7.4,6.7-8.7c3.9-1.3,8.5-0.3,11.3,2.8c2.7,2.9,3.1,7.2,0.9,10.6c-2.3,3.5-6.8,5.1-10.8,4.3c-3.8-0.7-7.3-3.6-8-7.6
								c-0.1-0.5-0.1-1-0.1-1.5C117.8,78.7,117.5,78.7,117.5,78.9z"/>
						</g>
					</g>
				</g>
			</g>
			<path class="st22" d="M132.2,74.3c0,0-10.5-3.1-8.9-7c1.6-3.9,4.9-1.9,8.5,0c2.1,1.1,11.9,5,12.2,6.7s0.8,11.2-1,3.3
				c0,0-0.7,9.8-1.2,0.1c0,0-1.3,8.7-1.2-0.6c0,0-1.1,7.5-1.1-0.4L132.2,74.3z"/>
		</g>
	</g>
</g>
</svg>
