<?xml version="1.0" encoding="utf-8"?>
<!-- Generator: Adobe Illustrator 25.4.1, SVG Export Plug-In . SVG Version: 6.00 Build 0)  -->
<svg version="1.1" id="OBJECTS" xmlns="http://www.w3.org/2000/svg" xmlns:xlink="http://www.w3.org/1999/xlink" x="0px" y="0px"
	 viewBox="0 0 225 150" style="enable-background:new 0 0 225 150;" xml:space="preserve">
<style type="text/css">
	.st0{opacity:0.4;fill:#E5E5FF;enable-background:new    ;}
	.st1{fill:#9192FF;}
	.st2{fill:#FFFFFF;}
	.st3{fill:#052669;}
	.st4{opacity:0.5;fill:#D1D1FF;enable-background:new    ;}
	.st5{fill:#D1D1FF;}
	.st6{fill:#EBEBFF;}
	.st7{fill:none;}
	.st8{fill:#1B1B43;}
	.st9{fill:#EF7F1A;}
	.st10{fill:#BE443D;}
	.st11{fill:#FFBC96;}
	.st12{fill:#D28572;}
	.st13{opacity:0.2;fill:#FE5B52;enable-background:new    ;}
	.st14{fill:#26289C;}
</style>
<g>
	<g>
		<ellipse class="st0" cx="193.5" cy="98.8" rx="9" ry="9"/>
		<ellipse class="st0" cx="45.7" cy="36.2" rx="13.7" ry="13.7"/>
		<circle class="st0" cx="93.1" cy="15.8" r="7.1"/>
		<path class="st1" d="M82.8,19.4c-0.4,0-0.9,0-1.3-0.1l0-0.3c0.4,0.1,0.9,0.1,1.3,0.1h0.1L82.8,19.4L82.8,19.4z M84.3,19.3l0-0.3
			c0.4-0.1,0.9-0.2,1.3-0.3l0.1,0.3C85.2,19.1,84.7,19.2,84.3,19.3z M80.2,18.9c-0.4-0.1-0.9-0.3-1.3-0.5l0.1-0.2
			c0.4,0.2,0.8,0.4,1.2,0.5L80.2,18.9z M86.9,18.4l-0.1-0.2c0.4-0.2,0.8-0.5,1.1-0.7l0.2,0.2C87.7,17.9,87.3,18.1,86.9,18.4z
			 M77.7,17.7c-0.4-0.3-0.7-0.6-1-0.9l0.2-0.2c0.3,0.3,0.6,0.6,1,0.9L77.7,17.7z M89.1,16.7l-0.2-0.2c0.3-0.3,0.6-0.7,0.8-1l0.2,0.2
			C89.7,16,89.4,16.4,89.1,16.7z M75.8,15.7c-0.3-0.4-0.5-0.8-0.7-1.2l0.2-0.1c0.2,0.4,0.4,0.8,0.7,1.2L75.8,15.7z M90.6,14.4
			l-0.2-0.1c0.2-0.4,0.3-0.8,0.5-1.3l0.3,0.1C91,13.6,90.8,14,90.6,14.4z M74.6,13.2c-0.1-0.4-0.2-0.9-0.3-1.4l0.3,0
			c0.1,0.4,0.2,0.9,0.3,1.3L74.6,13.2z M91.4,11.8l-0.3,0c0-0.3,0.1-0.6,0.1-1c0-0.1,0-0.2,0-0.4l0.3,0c0,0.1,0,0.3,0,0.4
			C91.4,11.1,91.4,11.4,91.4,11.8z M74.5,10.5l-0.3,0c0-0.5,0.1-0.9,0.2-1.4l0.3,0.1C74.6,9.6,74.5,10.1,74.5,10.5z M91,9.1
			c-0.1-0.4-0.2-0.9-0.4-1.3l0.3-0.1C91,8.1,91.2,8.6,91.3,9L91,9.1z M75,7.9l-0.3-0.1c0.2-0.4,0.4-0.9,0.6-1.3l0.2,0.1
			C75.4,7.1,75.2,7.5,75,7.9z M90.6,7.7c-0.2-0.4-0.4-0.8-0.6-1.2l0.2-0.1c0.2,0.4,0.4,0.8,0.6,1.2L90.6,7.7z M76.3,5.6l-0.2-0.2
			c0.3-0.4,0.6-0.7,0.9-1l0.2,0.2C76.9,4.9,76.6,5.2,76.3,5.6z M89.2,5.4c-0.3-0.3-0.6-0.7-0.9-1l0.2-0.2c0.3,0.3,0.7,0.6,1,1
			L89.2,5.4z M78.3,3.8l-0.1-0.2c0.4-0.2,0.8-0.5,1.2-0.7l0.1,0.2C79.1,3.3,78.7,3.5,78.3,3.8z M87.2,3.7c-0.4-0.2-0.8-0.4-1.2-0.6
			l0.1-0.3C86.5,3,87,3.2,87.4,3.5L87.2,3.7z M80.8,2.7l-0.1-0.3c0.4-0.1,0.9-0.2,1.4-0.2l0,0.3C81.6,2.5,81.2,2.6,80.8,2.7z
			 M84.7,2.7c-0.4-0.1-0.9-0.2-1.3-0.2l0-0.3c0.5,0,0.9,0.1,1.4,0.2L84.7,2.7z"/>
		<path class="st1" d="M168.6,114.5l0-0.3c0.5,0,0.9,0,1.4-0.1l0,0.3C169.5,114.5,169,114.5,168.6,114.5z M167.2,114.5
			c-0.5,0-0.9,0-1.4-0.1l0-0.3c0.4,0,0.9,0.1,1.4,0.1L167.2,114.5z M171.3,114.3l0-0.3c0.4-0.1,0.9-0.1,1.3-0.2l0,0.3
			C172.2,114.2,171.8,114.3,171.3,114.3z M164.5,114.3c-0.4-0.1-0.9-0.1-1.4-0.2l0-0.3c0.4,0.1,0.9,0.1,1.3,0.2L164.5,114.3z
			 M174,113.9l-0.1-0.3c0.4-0.1,0.9-0.2,1.3-0.3l0.1,0.3C174.9,113.7,174.5,113.8,174,113.9z M161.8,113.8c-0.4-0.1-0.9-0.2-1.3-0.3
			l0.1-0.3c0.4,0.1,0.9,0.2,1.3,0.3L161.8,113.8z M176.7,113.2l-0.1-0.3c0.4-0.1,0.9-0.3,1.3-0.4l0.1,0.3
			C177.5,112.9,177.1,113.1,176.7,113.2z M159.2,113.1c-0.4-0.1-0.9-0.3-1.3-0.5l0.1-0.3c0.4,0.2,0.9,0.3,1.3,0.4L159.2,113.1z
			 M179.2,112.3l-0.1-0.3c0.4-0.2,0.8-0.4,1.2-0.5l0.1,0.2C180.1,111.9,179.6,112.1,179.2,112.3z M156.6,112.1
			c-0.4-0.2-0.8-0.4-1.2-0.6l0.1-0.2c0.4,0.2,0.8,0.4,1.2,0.6L156.6,112.1z M181.7,111.1l-0.1-0.2c0.4-0.2,0.8-0.4,1.2-0.7l0.1,0.2
			C182.5,110.7,182.1,110.9,181.7,111.1z M154.1,110.9c-0.4-0.2-0.8-0.4-1.2-0.7l0.1-0.2c0.4,0.2,0.8,0.5,1.2,0.7L154.1,110.9z
			 M184,109.7l-0.2-0.2c0.4-0.2,0.8-0.5,1.1-0.8l0.2,0.2C184.8,109.2,184.4,109.5,184,109.7z M151.8,109.5c-0.4-0.3-0.7-0.5-1.1-0.8
			l0.2-0.2c0.4,0.3,0.7,0.5,1.1,0.8L151.8,109.5z M186.2,108.1l-0.2-0.2c0.3-0.3,0.7-0.6,1-0.9l0.2,0.2
			C186.9,107.5,186.6,107.8,186.2,108.1z M149.6,107.9c-0.4-0.3-0.7-0.6-1-0.9l0.2-0.2c0.3,0.3,0.7,0.6,1,0.9L149.6,107.9z
			 M188.3,106.3l-0.2-0.2c0.3-0.3,0.6-0.6,0.9-1l0.2,0.2C188.9,105.7,188.6,106,188.3,106.3z M147.6,106c-0.3-0.3-0.6-0.7-0.9-1
			l0.2-0.2c0.3,0.3,0.6,0.7,0.9,1L147.6,106z M190.2,104.3l-0.2-0.2c0.3-0.3,0.6-0.7,0.9-1.1l0.2,0.2
			C190.7,103.6,190.5,104,190.2,104.3z M145.7,104c-0.3-0.3-0.6-0.7-0.8-1.1l0.2-0.2c0.3,0.4,0.6,0.7,0.8,1.1L145.7,104z
			 M191.8,102.1l-0.2-0.2c0.3-0.4,0.5-0.7,0.8-1.1l0.2,0.1C192.4,101.4,192.1,101.8,191.8,102.1z M144.1,101.8
			c-0.3-0.4-0.5-0.8-0.7-1.1l0.2-0.1c0.2,0.4,0.5,0.8,0.7,1.1L144.1,101.8z M193.3,99.8l-0.2-0.1c0.2-0.4,0.4-0.8,0.6-1.2l0.2,0.1
			C193.7,99,193.5,99.4,193.3,99.8z M142.7,99.5c-0.2-0.4-0.4-0.8-0.6-1.2l0.2-0.1c0.2,0.4,0.4,0.8,0.6,1.2L142.7,99.5z M194.5,97.4
			l-0.2-0.1c0.2-0.4,0.4-0.8,0.5-1.2l0.3,0.1C194.9,96.6,194.7,97,194.5,97.4z M141.5,97.1c-0.2-0.4-0.4-0.8-0.5-1.3l0.3-0.1
			c0.2,0.4,0.3,0.8,0.5,1.2L141.5,97.1z M195.6,94.9l-0.3-0.1c0.1-0.4,0.3-0.9,0.4-1.3l0.3,0.1C195.8,94,195.7,94.4,195.6,94.9z
			 M140.5,94.5c-0.1-0.4-0.3-0.9-0.4-1.3l0.3-0.1c0.1,0.4,0.3,0.9,0.4,1.3L140.5,94.5z M196.3,92.2l-0.3-0.1
			c0.1-0.4,0.2-0.9,0.3-1.3l0.3,0.1C196.5,91.3,196.4,91.8,196.3,92.2z M139.7,91.9c-0.1-0.4-0.2-0.9-0.3-1.3l0.3,0
			c0.1,0.4,0.2,0.9,0.3,1.3L139.7,91.9z M196.8,89.5l-0.3,0c0.1-0.4,0.1-0.9,0.2-1.3l0.3,0C196.9,88.6,196.9,89.1,196.8,89.5z
			 M139.3,89.2c-0.1-0.4-0.1-0.9-0.1-1.4l0.3,0c0,0.4,0.1,0.9,0.1,1.3L139.3,89.2z M197.1,86.8l-0.3,0c0-0.4,0-0.9,0-1.4h0.3
			C197.1,85.9,197.1,86.4,197.1,86.8z M139.1,86.5c0-0.3,0-0.7,0-1c0-0.1,0-0.2,0-0.3l0.3,0c0,0.1,0,0.2,0,0.3c0,0.3,0,0.7,0,1
			L139.1,86.5z M196.8,84.8c0-0.4,0-0.9-0.1-1.4l0.3,0c0,0.5,0.1,0.9,0.1,1.4L196.8,84.8z M139.4,83.8l-0.3,0c0-0.5,0.1-0.9,0.1-1.4
			l0.3,0C139.4,82.9,139.4,83.3,139.4,83.8z M196.6,82.1c-0.1-0.4-0.1-0.9-0.2-1.3l0.3,0c0.1,0.4,0.1,0.9,0.2,1.4L196.6,82.1z
			 M139.6,81.1l-0.3,0c0.1-0.4,0.1-0.9,0.2-1.3l0.3,0.1C139.8,80.2,139.7,80.6,139.6,81.1z M196.2,79.4c-0.1-0.4-0.2-0.9-0.3-1.3
			l0.3-0.1c0.1,0.4,0.2,0.9,0.3,1.3L196.2,79.4z M140.2,78.4l-0.3-0.1c0.1-0.4,0.2-0.9,0.4-1.3l0.3,0.1
			C140.4,77.5,140.3,78,140.2,78.4z M195.5,76.8c-0.1-0.4-0.3-0.9-0.4-1.3l0.3-0.1c0.2,0.4,0.3,0.9,0.4,1.3L195.5,76.8z M141,75.8
			l-0.3-0.1c0.2-0.4,0.3-0.9,0.5-1.3l0.3,0.1C141.3,75,141.1,75.4,141,75.8z M194.6,74.3c-0.2-0.4-0.4-0.8-0.6-1.2l0.2-0.1
			c0.2,0.4,0.4,0.8,0.6,1.2L194.6,74.3z M142,73.3l-0.2-0.1c0.2-0.4,0.4-0.8,0.6-1.2l0.2,0.1C142.4,72.5,142.2,72.9,142,73.3z
			 M193.4,71.8c-0.2-0.4-0.4-0.8-0.7-1.2l0.2-0.1c0.2,0.4,0.5,0.8,0.7,1.2L193.4,71.8z M143.2,70.9l-0.2-0.1
			c0.2-0.4,0.5-0.8,0.7-1.2l0.2,0.1C143.7,70.1,143.5,70.5,143.2,70.9z M192,69.5c-0.2-0.4-0.5-0.7-0.8-1.1l0.2-0.2
			c0.3,0.4,0.5,0.7,0.8,1.1L192,69.5z M144.7,68.6l-0.2-0.2c0.3-0.4,0.5-0.7,0.8-1.1l0.2,0.2C145.3,67.9,145,68.3,144.7,68.6z
			 M190.4,67.3c-0.3-0.3-0.6-0.7-0.9-1l0.2-0.2c0.3,0.3,0.6,0.7,0.9,1L190.4,67.3z M146.4,66.5l-0.2-0.2c0.3-0.3,0.6-0.7,0.9-1
			l0.2,0.2C147,65.9,146.7,66.2,146.4,66.5z M188.6,65.3c-0.3-0.3-0.6-0.6-1-0.9l0.2-0.2c0.3,0.3,0.7,0.6,1,1L188.6,65.3z
			 M148.3,64.6l-0.2-0.2c0.3-0.3,0.7-0.6,1-0.9l0.2,0.2C149,64,148.6,64.3,148.3,64.6z M186.6,63.5c-0.3-0.3-0.7-0.6-1.1-0.8
			l0.2-0.2c0.4,0.3,0.7,0.6,1.1,0.9L186.6,63.5z M150.3,62.8l-0.2-0.2c0.4-0.3,0.7-0.6,1.1-0.8l0.2,0.2
			C151.1,62.3,150.7,62.5,150.3,62.8z M184.5,61.8c-0.4-0.3-0.8-0.5-1.1-0.7l0.1-0.2c0.4,0.2,0.8,0.5,1.1,0.8L184.5,61.8z
			 M152.5,61.2l-0.1-0.2c0.4-0.2,0.8-0.5,1.2-0.7l0.1,0.2C153.3,60.8,152.9,61,152.5,61.2z M182.2,60.4c-0.4-0.2-0.8-0.4-1.2-0.6
			l0.1-0.2c0.4,0.2,0.8,0.4,1.2,0.6L182.2,60.4z M154.9,59.9l-0.1-0.2c0.4-0.2,0.8-0.4,1.2-0.6l0.1,0.2
			C155.7,59.5,155.3,59.7,154.9,59.9z M179.8,59.2c-0.4-0.2-0.8-0.4-1.3-0.5l0.1-0.3c0.4,0.2,0.8,0.3,1.3,0.5L179.8,59.2z
			 M157.3,58.8l-0.1-0.3c0.4-0.2,0.9-0.3,1.3-0.5l0.1,0.3C158.2,58.4,157.8,58.6,157.3,58.8z M177.2,58.2c-0.4-0.1-0.9-0.3-1.3-0.4
			l0.1-0.3c0.4,0.1,0.9,0.3,1.3,0.4L177.2,58.2z M159.9,57.9l-0.1-0.3c0.4-0.1,0.9-0.2,1.3-0.4l0.1,0.3
			C160.8,57.6,160.3,57.7,159.9,57.9z M174.6,57.4c-0.4-0.1-0.9-0.2-1.3-0.3l0-0.3c0.4,0.1,0.9,0.2,1.3,0.3L174.6,57.4z M162.5,57.2
			l-0.1-0.3c0.4-0.1,0.9-0.2,1.3-0.2l0,0.3C163.4,57.1,163,57.1,162.5,57.2z M172,57c-0.4-0.1-0.9-0.1-1.3-0.2l0-0.3
			c0.5,0,0.9,0.1,1.4,0.2L172,57z M165.2,56.8l0-0.3c0.5,0,0.9-0.1,1.4-0.1l0,0.3C166.1,56.8,165.7,56.8,165.2,56.8z M169.3,56.7
			c-0.4,0-0.8,0-1.2,0c-0.1,0-0.1,0-0.2,0l0-0.3c0.1,0,0.1,0,0.2,0c0.4,0,0.8,0,1.2,0L169.3,56.7z"/>
		<path class="st1" d="M50.3,82.7c-0.5,0-0.9,0-1.4-0.1l0-0.3c0.4,0,0.9,0.1,1.3,0.1L50.3,82.7z M51.6,82.6l0-0.3
			c0.4,0,0.9-0.1,1.3-0.1l0,0.3C52.5,82.5,52.1,82.6,51.6,82.6z M47.5,82.4c-0.5-0.1-0.9-0.2-1.3-0.3l0.1-0.3
			c0.4,0.1,0.9,0.2,1.3,0.2L47.5,82.4z M54.3,82.2L54.3,82c0.4-0.1,0.9-0.2,1.3-0.3l0.1,0.3C55.2,82,54.8,82.1,54.3,82.2z
			 M44.9,81.8c-0.4-0.1-0.9-0.3-1.3-0.4l0.1-0.3c0.4,0.2,0.9,0.3,1.3,0.4L44.9,81.8z M57,81.5l-0.1-0.3c0.4-0.2,0.8-0.3,1.2-0.5
			l0.1,0.2C57.8,81.2,57.4,81.3,57,81.5z M42.3,80.9c-0.4-0.2-0.8-0.4-1.2-0.6l0.1-0.2c0.4,0.2,0.8,0.4,1.2,0.6L42.3,80.9z
			 M59.5,80.4l-0.1-0.2c0.4-0.2,0.8-0.4,1.2-0.7l0.1,0.2C60.3,79.9,59.9,80.1,59.5,80.4z M39.9,79.5c-0.4-0.2-0.8-0.5-1.1-0.8
			l0.2-0.2c0.4,0.3,0.7,0.5,1.1,0.8L39.9,79.5z M61.8,78.9l-0.2-0.2c0.4-0.3,0.7-0.6,1.1-0.8l0.2,0.2C62.5,78.3,62.1,78.6,61.8,78.9
			z M37.7,77.9c-0.3-0.3-0.7-0.6-1-0.9l0.2-0.2c0.3,0.3,0.6,0.6,1,0.9L37.7,77.9z M63.9,77.1l-0.2-0.2c0.3-0.3,0.6-0.6,0.9-1
			l0.2,0.2C64.5,76.4,64.2,76.8,63.9,77.1z M35.8,75.9c-0.3-0.3-0.6-0.7-0.9-1.1l0.2-0.2c0.3,0.4,0.5,0.7,0.8,1.1L35.8,75.9z
			 M65.7,75l-0.2-0.2c0.3-0.4,0.5-0.7,0.8-1.1l0.2,0.1C66.2,74.3,65.9,74.7,65.7,75z M34.2,73.7c-0.2-0.4-0.5-0.8-0.7-1.2l0.2-0.1
			c0.2,0.4,0.4,0.8,0.7,1.2L34.2,73.7z M67.1,72.7l-0.2-0.1c0.2-0.4,0.4-0.8,0.6-1.2l0.2,0.1C67.6,71.9,67.4,72.3,67.1,72.7z
			 M32.9,71.3c-0.2-0.4-0.4-0.8-0.5-1.3l0.3-0.1c0.2,0.4,0.3,0.8,0.5,1.3L32.9,71.3z M68.3,70.2L68,70.1c0.2-0.4,0.3-0.9,0.4-1.3
			l0.3,0.1C68.6,69.4,68.4,69.8,68.3,70.2z M32,68.7c-0.1-0.4-0.2-0.9-0.3-1.3l0.3-0.1c0.1,0.4,0.2,0.9,0.3,1.3L32,68.7z M69.1,67.6
			l-0.3-0.1c0.1-0.4,0.2-0.9,0.2-1.3l0.3,0C69.2,66.7,69.2,67.2,69.1,67.6z M31.4,66c-0.1-0.5-0.1-0.9-0.1-1.4l0.3,0
			c0,0.4,0.1,0.9,0.1,1.3L31.4,66z M69.4,64.9l-0.3,0c0-0.4,0-0.9,0-1.3h0.3C69.5,64,69.5,64.5,69.4,64.9z M31.5,63.3l-0.3,0
			c0-0.5,0-0.9,0.1-1.4l0.3,0C31.6,62.4,31.5,62.9,31.5,63.3z M69.2,62.6c0-0.4-0.1-0.9-0.1-1.3l0.3,0c0.1,0.5,0.1,0.9,0.1,1.4
			L69.2,62.6z M31.8,60.6l-0.3,0c0.1-0.4,0.2-0.9,0.3-1.3l0.3,0.1C31.9,59.7,31.8,60.2,31.8,60.6z M68.9,60
			c-0.1-0.4-0.2-0.9-0.3-1.3l0.3-0.1c0.1,0.4,0.2,0.9,0.3,1.3L68.9,60z M32.4,58l-0.3-0.1c0.1-0.4,0.3-0.9,0.4-1.3l0.3,0.1
			C32.6,57.1,32.5,57.6,32.4,58z M68.2,57.3c-0.1-0.4-0.3-0.8-0.5-1.3l0.3-0.1c0.2,0.4,0.3,0.8,0.5,1.3L68.2,57.3z M33.3,55.5
			l-0.2-0.1c0.2-0.4,0.4-0.8,0.6-1.2l0.2,0.1C33.7,54.7,33.5,55.1,33.3,55.5z M67.1,54.9c-0.2-0.4-0.4-0.8-0.7-1.2l0.2-0.1
			c0.2,0.4,0.5,0.8,0.7,1.2L67.1,54.9z M34.7,53.1L34.4,53c0.3-0.4,0.5-0.8,0.8-1.1l0.2,0.2C35.2,52.4,34.9,52.8,34.7,53.1z
			 M65.7,52.6c-0.3-0.4-0.5-0.7-0.8-1.1l0.2-0.2c0.3,0.3,0.6,0.7,0.8,1.1L65.7,52.6z M36.3,51l-0.2-0.2c0.3-0.3,0.6-0.7,0.9-1
			l0.2,0.2C36.9,50.3,36.6,50.7,36.3,51z M64,50.5c-0.3-0.3-0.6-0.6-1-0.9l0.2-0.2c0.3,0.3,0.7,0.6,1,1L64,50.5z M38.3,49.1
			l-0.2-0.2c0.3-0.3,0.7-0.6,1.1-0.8l0.2,0.2C39,48.5,38.6,48.8,38.3,49.1z M62,48.7c-0.4-0.3-0.7-0.5-1.1-0.8l0.2-0.2
			c0.4,0.3,0.8,0.5,1.1,0.8L62,48.7z M40.4,47.5l-0.1-0.2c0.4-0.2,0.8-0.5,1.2-0.7l0.1,0.2C41.2,47.1,40.8,47.3,40.4,47.5z
			 M59.7,47.2c-0.4-0.2-0.8-0.4-1.2-0.6l0.1-0.2c0.4,0.2,0.8,0.4,1.2,0.6L59.7,47.2z M42.8,46.3L42.7,46c0.4-0.2,0.8-0.4,1.3-0.5
			l0.1,0.3C43.7,45.9,43.2,46.1,42.8,46.3z M57.3,46c-0.4-0.2-0.8-0.3-1.3-0.5l0.1-0.3c0.4,0.1,0.9,0.3,1.3,0.5L57.3,46z M45.4,45.4
			l-0.1-0.3c0.4-0.1,0.9-0.2,1.3-0.3l0.1,0.3C46.2,45.1,45.8,45.2,45.4,45.4z M54.7,45.2c-0.4-0.1-0.9-0.2-1.3-0.3l0-0.3
			c0.4,0.1,0.9,0.2,1.3,0.3L54.7,45.2z M48,44.8l0-0.3c0.5-0.1,0.9-0.1,1.4-0.1l0,0.3C48.9,44.7,48.5,44.8,48,44.8z M52.1,44.8
			c-0.4,0-0.9-0.1-1.3-0.1l0-0.3c0.5,0,0.9,0,1.4,0.1L52.1,44.8z"/>
		<path class="st1" d="M126.9,17.7c-2.5,0-4.6-2.1-4.6-4.6c0-2.5,2.1-4.6,4.6-4.6s4.6,2.1,4.6,4.6C131.5,15.7,129.5,17.7,126.9,17.7
			z M126.9,8.7c-2.4,0-4.4,2-4.4,4.4s2,4.4,4.4,4.4c2.4,0,4.4-2,4.4-4.4S129.3,8.7,126.9,8.7z"/>
	</g>
	<g>
		<g>
			<g>
				<path class="st2" d="M174.7,34.2V117c0,1.7-1.4,3.1-3.1,3.1H51.3c-1.7,0-3.1-1.4-3.1-3.1V34.2c0-1.7,1.4-3.1,3.1-3.1h120.3
					C173.3,31.1,174.7,32.5,174.7,34.2z"/>
				<path class="st1" d="M171.6,120.2H51.3c-1.8,0-3.3-1.5-3.3-3.3V34.2c0-1.8,1.5-3.3,3.3-3.3h120.3c1.8,0,3.3,1.5,3.3,3.3V117
					C174.8,118.8,173.4,120.2,171.6,120.2z M51.3,31.2c-1.6,0-3,1.3-3,3V117c0,1.6,1.3,3,3,3h120.3c1.6,0,3-1.3,3-3V34.2
					c0-1.6-1.3-3-3-3H51.3z"/>
			</g>
			<g>
				<path class="st2" d="M174.7,34.2v4.9H48.2v-4.9c0-1.7,1.4-3.1,3.1-3.1h120.3C173.3,31.1,174.7,32.5,174.7,34.2z"/>
				<path class="st1" d="M174.8,39.2H48.1v-5c0-1.8,1.5-3.3,3.3-3.3h120.3c1.8,0,3.3,1.5,3.3,3.3L174.8,39.2L174.8,39.2z M48.3,39
					h126.2v-4.8c0-1.6-1.3-3-3-3H51.3c-1.6,0-3,1.3-3,3V39z"/>
			</g>
			<circle class="st3" cx="55.2" cy="35.1" r="1.5"/>
			<path class="st3" d="M60.8,33.6c-0.8,0-1.5,0.7-1.5,1.5c0,0.8,0.7,1.5,1.5,1.5c0.8,0,1.5-0.7,1.5-1.5S61.6,33.6,60.8,33.6z"/>
			<path class="st1" d="M66.3,36.5c-0.8,0-1.5-0.7-1.5-1.5c0-0.8,0.7-1.5,1.5-1.5c0.8,0,1.5,0.7,1.5,1.5
				C67.7,35.9,67.1,36.5,66.3,36.5z M66.3,33.9c-0.6,0-1.2,0.5-1.2,1.2c0,0.6,0.5,1.2,1.2,1.2c0.6,0,1.2-0.5,1.2-1.2
				C67.5,34.4,66.9,33.9,66.3,33.9z"/>
			<path class="st1" d="M102,36.7H75c-0.9,0-1.6-0.7-1.6-1.6c0-0.9,0.7-1.6,1.6-1.6h27c0.9,0,1.6,0.7,1.6,1.6
				C103.6,36,102.9,36.7,102,36.7z M75,33.7c-0.7,0-1.3,0.6-1.3,1.3c0,0.7,0.6,1.3,1.3,1.3h27c0.7,0,1.3-0.6,1.3-1.3
				c0-0.7-0.6-1.3-1.3-1.3H75z"/>
		</g>
		<g>
			<path class="st1" d="M136.3,77.6c0,13-10.6,23.6-23.6,23.6S89.1,90.6,89.1,77.6c0-12.2,9.3-22.3,21.2-23.5l0.8,7.7
				c-8,0.8-14.2,7.5-14.2,15.7c0,8.7,7.1,15.8,15.8,15.8c8.7,0,15.8-7.1,15.8-15.8c0-1.5-0.2-3-0.6-4.4l7.5-2.2
				C136,73.1,136.3,75.3,136.3,77.6z"/>
			<circle class="st2" cx="112.7" cy="77.6" r="19.1"/>
			<circle class="st4" cx="112.7" cy="77.6" r="19.1"/>
			<g>
				<ellipse class="st2" cx="112.7" cy="77.6" rx="13.5" ry="13.5"/>
				<g>
					<path class="st1" d="M114.3,84.3v2.1h-2.6v-2c-1.8-0.1-3.6-0.6-4.7-1.3l1.4-3.2c1.2,0.7,2.8,1.2,4.3,1.2c1.2,0,1.7-0.3,1.7-0.7
						c0-1.6-7.2-0.3-7.2-5.1c0-2.1,1.5-3.8,4.5-4.3v-2h2.6v2c1.4,0.1,2.7,0.5,3.8,1.1l-1.3,3.2c-1.3-0.6-2.5-1-3.6-1
						c-1.3,0-1.7,0.4-1.7,0.8c0,1.6,7.2,0.3,7.2,5C118.6,82,117.1,83.8,114.3,84.3z"/>
				</g>
			</g>
		</g>
		<g>
			<g>
				<rect x="145.4" y="14.9" class="st2" width="51.3" height="31.4"/>
				<path class="st1" d="M196.9,46.5h-51.6V14.8h51.6V46.5z M145.5,46.2h51.1V15.1h-51.1V46.2z"/>
			</g>
			<g>
				<g>
					<rect x="151.9" y="36.3" class="st5" width="3" height="5.4"/>
					<rect x="157.8" y="33.9" class="st5" width="3" height="7.9"/>
					<rect x="163.7" y="35.9" class="st5" width="3" height="5.9"/>
					<rect x="169.6" y="31.7" class="st5" width="3" height="10"/>
					<rect x="175.5" y="29.1" class="st5" width="3" height="12.7"/>
					<rect x="181.4" y="25.3" class="st5" width="3" height="16.4"/>
					<rect x="187.3" y="19.5" class="st5" width="3" height="22.3"/>
				</g>
				<g>
					<rect x="151.9" y="22.1" class="st5" width="2.3" height="2.7"/>
					<rect x="157.8" y="23.4" class="st5" width="15.9" height="0.7"/>
				</g>
			</g>
		</g>
		<g>
			<path class="st6" d="M150.5,62.2l-3.3-9c-3.7,1.3-6.3,4.8-6.3,9c0,5.3,4.3,9.5,9.5,9.5c5.3,0,9.5-4.3,9.5-9.5
				c0-1.6-0.4-3.1-1.1-4.4L150.5,62.2z"/>
			<path class="st1" d="M160.3,54.4c-1.6-3.1-4.8-5.2-8.5-5.2c-1.1,0-2.2,0.2-3.3,0.6l3.3,9L160.3,54.4z"/>
		</g>
		<g>
			<rect x="141.5" y="92.8" class="st6" width="22.6" height="21.5"/>
			<rect x="145" y="98.6" class="st2" width="12.7" height="0.9"/>
			<rect x="145" y="101.3" class="st2" width="12.7" height="0.9"/>
		</g>
		<g>
			<rect x="58.2" y="51.7" class="st6" width="19.6" height="33.2"/>
			<g>
				<rect x="61.2" y="56.5" class="st2" width="12.9" height="11.8"/>
				
					<rect x="67.5" y="53.7" transform="matrix(0.6753 -0.7376 0.7376 0.6753 -24.102 70.149)" class="st6" width="0.3" height="17.5"/>
				
					<rect x="58.9" y="62.3" transform="matrix(0.7375 -0.6753 0.6753 0.7375 -24.4261 62.0464)" class="st6" width="17.5" height="0.3"/>
			</g>
		</g>
		<g>
			<g>
				<rect x="22.7" y="65.3" class="st2" width="44.9" height="29.6"/>
				<path class="st1" d="M67.7,95H22.6V65.2h45.2V95z M22.8,94.8h44.7V65.4H22.8V94.8z"/>
			</g>
			<g>
				<g>
					<polyline class="st2" points="27.4,87.8 30.3,82.3 36.3,87.9 40.3,76.3 47.7,84.5 52.6,82.5 61.5,70.9 					"/>
					<polygon class="st1" points="36.4,88.2 30.4,82.5 27.5,87.8 27.3,87.7 30.3,82.1 36.3,87.7 40.2,76.1 47.8,84.3 52.6,82.4 
						61.4,70.8 61.6,71 52.7,82.6 47.7,84.7 47.6,84.6 40.4,76.6 					"/>
				</g>
				<circle class="st1" cx="30.3" cy="82.3" r="0.7"/>
				<circle class="st1" cx="36.3" cy="87.8" r="0.7"/>
				<circle class="st1" cx="40.3" cy="76.4" r="0.7"/>
			</g>
			<g>
				<line class="st7" x1="35.6" y1="70.2" x2="54.7" y2="70.2"/>
				<rect x="35.6" y="70" class="st1" width="19.1" height="0.3"/>
			</g>
		</g>
	</g>
	<g>
		<g>
			<path class="st1" d="M129.5,136.9c-0.8-5.3,0.3-10.8,3.1-15.4c2.8-4.6,7.2-8.1,12.2-9.8c-2.9,2-4.6,5.2-5.8,8.5
				c-1.2,3.3-2,6.7-3.5,9.9c-1.5,3.2-3.9,6.1-7.2,7.3L129.5,136.9z"/>
			<path class="st1" d="M128.7,136.9c-0.1-6.1-1.3-12.2-3.5-17.9c-0.8-2-1.7-4-3.2-5.6c-1.5-1.6-3.7-2.6-5.8-2.2
				c2.7,2,4,5.3,4.8,8.5c0.8,3.2,1.1,6.6,2.2,9.7c1.1,3.1,3.2,6.2,6.3,7.3L128.7,136.9z"/>
			<path class="st5" d="M128.3,137.3c-1.5-4.1-3.2-8.3-6.2-11.4c-3.1-3.1-7.9-4.9-11.9-3.2c3.2,0.7,6.2,2.6,8.3,5.2
				c1.5,1.9,2.5,4.2,4.1,6.1s3.9,3.4,6.3,2.9L128.3,137.3z"/>
			<path class="st5" d="M127.8,137c-0.6-4.5-1.2-9-0.6-13.5s2.8-9,6.6-11.4c-2.1,2.1-2.8,5.2-2.8,8.1c0,2.9,0.6,5.9,0.6,8.8
				c0.1,2.9-0.5,6.1-2.5,8.2L127.8,137z"/>
			<path class="st5" d="M129.9,136.4c1.5-3.7,3-7.6,6-10.2c1.9-1.7,4.3-2.8,6.9-3.2c-1.8,1.4-2.9,3.5-3.8,5.6
				c-0.9,2.1-1.7,4.2-3.1,6.1c-1.3,1.8-3.3,3.4-5.6,3.5L129.9,136.4z"/>
		</g>
		<g>
			<polygon class="st2" points="137.3,147.7 121,147.7 118.4,135.1 139.8,135.1 			"/>
			<path class="st1" d="M137.4,147.8h-16.6l-2.6-12.8H140L137.4,147.8z M121.1,147.5h16.1l2.5-12.3h-21.1L121.1,147.5z"/>
		</g>
	</g>
	<g>
		<g>
			<g>
				<polygon class="st5" points="166.6,140.1 166.6,147.7 156.8,147.7 161.3,144 161.5,139.4 				"/>
				
					<rect x="162.1" y="143.6" transform="matrix(0.6892 -0.7246 0.7246 0.6892 -54.56 162.566)" class="st8" width="0.3" height="2.6"/>
				<rect x="162.3" y="142.1" class="st8" width="3.4" height="0.3"/>
			</g>
			<g>
				<polygon class="st5" points="178.1,140.4 178.4,147.7 168.6,147.7 172.7,144.1 172.7,139.7 				"/>
				
					<rect x="173.4" y="143.8" transform="matrix(0.662 -0.7495 0.7495 0.662 -49.8643 178.9647)" class="st8" width="0.3" height="2"/>
				<rect x="173.8" y="142.2" class="st8" width="3.3" height="0.3"/>
			</g>
			<path class="st9" d="M167.6,96.6c0.2,15.1,1.4,29.9,3.8,44.5h8.3c-1.7-11.1-2.5-24.7-1.5-42.6l-6-4.9L167.6,96.6z"/>
			<path class="st9" d="M161,98.6l-3.7,16.6c-0.9,4-1,8.1-0.2,12.2l2.6,13.6h8.3l-2.5-17.8l6-27.2L161,98.6z"/>
			<path class="st10" d="M168.1,114.5c0-0.3-0.5-8-0.5-9l-2.2-0.8l0.1-0.3l2.3,0.8v0.1c0,0.2,0.4,6,0.5,9L168.1,114.5z"/>
		</g>
		<g>
			<path class="st11" d="M186,61.1l0.4-1.1c0,0-1.6-3.4-1.1-3.8c0.5-0.4,1.3,0.8,1.3,0.8s-0.2-4.1,0.5-4.1c0.7,0,0.6,1.2,0.7,2.9
				c0,0,0.4-0.5,1.2,0c0.3-0.6,1.1-0.2,1.3,0.2c0.2-0.3,1.2-0.2,1.1,1c-0.2,1.5-0.9,4.2-0.9,4.2l-2.2,1.8L186,61.1z"/>
			<path class="st3" d="M168.5,75.1l3.3,0c5.8-0.5,10.3-5.2,10.3-5.2l3.8-8.8l4.6,0.1l-2.7,10.4c-0.4,1.5-1.2,2.8-2.4,3.8l-9.5,8.3
				L168.5,75.1z"/>
			<polygon class="st3" points="159.5,82.7 161,98.6 178.1,98.5 177.5,79.2 168.5,75.1 162.3,77.8 			"/>
			<g>
				<path class="st11" d="M148.9,84.2c-0.3-0.2-0.6-0.4-1-0.4c-1.9-0.2-7.8-0.6-7.7-0.2c0.1,0.5,4.6,2.6,4.6,2.6
					c1,1.1,1.9,2.2,2.9,3.2l2.6-4L148.9,84.2z"/>
				<path class="st3" d="M161.8,76.7c-1.2,0.2-2.3,1-2.8,2.1l-5,9.9l-3.7-3.3l-2.6,4c0.3,0.4,0.6,0.7,1,1.1c1.4,1.6,3.1,3.8,5.3,4.2
					c1.1,0.2,2.2-0.2,3-1c0.6-0.6,1.1-1.3,1.6-2l2-3.3l6.4-12.7L161.8,76.7z"/>
			</g>
			
				<rect x="159.8" y="82.6" transform="matrix(0.9953 -9.680037e-02 9.680037e-02 0.9953 -7.7258 15.8933)" class="st5" width="0.3" height="9.9"/>
			<polygon class="st8" points="177.6,82.2 176,83.6 177.7,86.4 			"/>
			<path class="st12" d="M188.5,57.9c-0.6,0-0.7-0.8-0.7-2h0.2c0,1.4,0.1,1.8,0.5,1.8c0.1,0,0.1,0,0.2-0.1c0.2-0.2,0.3-0.7,0.3-1.1
				c0-0.3,0-0.6,0-0.7l0.2,0c0,0,0,0.3,0,0.6c0,0.6,0.1,1.1,0.3,1.2c0.1,0,0.2,0,0.3,0c0.2-0.2,0.3-0.6,0.4-1c0-0.2,0-0.4,0.1-0.6
				l0.2,0c0,0,0,0.3-0.1,0.5c0,0.4,0,0.8,0.2,0.9c0.1,0.1,0.2,0.1,0.3,0c0.2-0.1,0.3-0.6,0.3-0.8l0.2,0c0,0-0.1,0.7-0.4,1
				c-0.1,0.1-0.3,0.1-0.5,0c0,0-0.2-0.1-0.3-0.4c-0.1,0.2-0.2,0.4-0.3,0.5c-0.1,0.1-0.3,0.1-0.5,0.1c-0.2-0.1-0.3-0.3-0.4-0.6
				c-0.1,0.2-0.1,0.3-0.2,0.4C188.8,57.8,188.7,57.9,188.5,57.9z"/>
		</g>
		<g>
			<path class="st11" d="M167.1,79c-1.5,0.1-2.7-1-2.8-2.4l0-0.4l-0.4-5.1l3.2-0.3l2.1-0.2l0.4,5.5C169.6,77.6,168.5,78.9,167.1,79z
				"/>
			<path class="st8" d="M168,72.6c-1,1.8-2.4,3-3.8,3.7l-0.4-5.1l3.2-0.3L168,72.6z"/>
			<path class="st11" d="M169.1,67.2l-0.6,5.4c0,0-2,2-5,1.9c-1.1,0-1.7-1.1-2.1-2.4c-0.2-0.5-0.3-1.1-0.3-1.7
				c-0.3-2-0.1-3.9-0.1-3.9l4.6-1.5L169.1,67.2z"/>
			<path class="st8" d="M168.4,69.4c-0.5-1.7-1.3-2.6-2.5-2.8c-3.7,2-6.1,0.8-7.9-1.4c4.3,0.8,6.2-5.3,10.3-1.2
				c3.1,0.9,3,3.9,1.3,6.2L168.4,69.4z"/>
			<g>
				
					<ellipse transform="matrix(0.1917 -0.9815 0.9815 0.1917 68.0951 222.3222)" class="st11" cx="169" cy="69.8" rx="1.5" ry="1.3"/>
				<path class="st8" d="M169.5,69.3c-0.2,0-0.4,0.2-0.5,0.4c-0.1,0.2-0.2,0.4-0.2,0.6l-0.1,0c0-0.1,0-0.2,0-0.4
					c0-0.1,0.1-0.2,0.1-0.4c0.1-0.1,0.1-0.2,0.3-0.3C169.2,69.2,169.4,69.1,169.5,69.3L169.5,69.3z"/>
			</g>
			<g>
				<path class="st8" d="M161.9,69.6c0,0.2-0.1,0.4-0.2,0.4s-0.2-0.2-0.2-0.4c0-0.2,0.1-0.4,0.2-0.4S161.9,69.4,161.9,69.6z"/>
				<path class="st8" d="M164,69.5c0,0.3-0.1,0.5-0.3,0.5s-0.3-0.2-0.3-0.5s0.1-0.5,0.3-0.5S164,69.2,164,69.5z"/>
				<path class="st8" d="M162.5,70c0,0.1,0,0.2-0.1,0.2c0,0.1-0.1,0.1-0.1,0.2c-0.1,0.1-0.2,0.2-0.2,0.3c0,0.1,0,0.2,0.1,0.3
					c0.1,0.1,0.2,0.2,0.3,0.3l0,0.1c-0.1-0.1-0.3-0.1-0.4-0.2c-0.1-0.1-0.1-0.1-0.1-0.2c0-0.1,0-0.2,0-0.3c0-0.1,0.1-0.2,0.1-0.2
					c0.1-0.1,0.1-0.1,0.2-0.2C162.3,70.2,162.4,70.1,162.5,70L162.5,70z"/>
				<path class="st8" d="M162.7,72.2c0.3-0.1,0.6-0.2,0.8-0.3c0.1-0.1,0.2-0.2,0.3-0.3c0.1-0.1,0.2-0.2,0.3-0.3l0.1,0
					c-0.1,0.3-0.3,0.5-0.6,0.7C163.3,72.3,163,72.3,162.7,72.2L162.7,72.2z"/>
				<path class="st8" d="M163.4,68.3c-0.1,0.3,0.9,0.4,1.1,0.4c0.1,0,0.3,0,0.4-0.2c0-0.3-0.3-0.3-0.4-0.3
					C164.3,68.2,163.5,68,163.4,68.3z"/>
				<path class="st8" d="M162.1,68.5c0,0.3-0.8,0.3-0.9,0.3c-0.1,0-0.3,0-0.3-0.2c0-0.3,0.2-0.3,0.4-0.3
					C161.4,68.4,162.1,68.2,162.1,68.5z"/>
			</g>
			<circle class="st13" cx="165.7" cy="70.4" r="1"/>
			<path class="st13" d="M161.7,71.2c0,0.3-0.2,0.6-0.4,0.8c-0.2-0.5-0.3-1.1-0.3-1.7C161.4,70.4,161.7,70.8,161.7,71.2z"/>
		</g>
	</g>
	<g>
		<g>
			<rect x="72.4" y="103" class="st1" width="18.9" height="1.3"/>
			<g>
				<polygon class="st2" points="91.4,103 75.4,103 81.4,88.3 97.4,88.3 				"/>
				<path class="st1" d="M91.5,103.2H75.2l6.2-15h16.3L91.5,103.2z M75.6,102.9h15.7l5.9-14.5H81.5L75.6,102.9z"/>
			</g>
			<polygon class="st6" points="90,101.8 77.4,101.8 82.2,90.2 94.8,90.2 			"/>
		</g>
		<g>
			<rect x="84.7" y="104.7" class="st8" width="0.3" height="43"/>
			<rect x="69.6" y="104.3" class="st5" width="30.5" height="2.4"/>
		</g>
		<g>
			<rect x="44.7" y="122.8" class="st8" width="0.3" height="24.9"/>
			<path class="st5" d="M52.3,123.9H37.4l0,0c0.3-1.5,1.7-2.6,3.2-2.6h8.5C50.6,121.3,52,122.4,52.3,123.9L52.3,123.9z"/>
			<path class="st5" d="M48.7,147.7h-7.8l0,0c0-0.9,0.8-1.7,1.7-1.7H47C47.9,145.9,48.7,146.7,48.7,147.7L48.7,147.7z"/>
		</g>
		<g>
			<g>
				<path class="st12" d="M56.3,85.8c0.4,0.5,0.9,1.3,1,2c0.1,1-1.5,0.3-1.5,0.4C55.8,88.2,56.3,85.8,56.3,85.8z"/>
				<g>
					<rect x="48.9" y="86.9" class="st11" width="5" height="7.3"/>
					<path class="st8" d="M53.9,88.2v5.2c-1.6-1-2.9-2.5-4.1-4.2L53.9,88.2z"/>
				</g>
				<path class="st11" d="M56.7,86.2c-0.2,2.5-1.1,5.4-3.8,4.7c-2.1-0.6-4.4-2.3-4.4-4.8s1.8-4.6,3.9-4.6c1.4,0,3.1,0.7,3.9,1.9
					C56.8,84.2,56.8,85.1,56.7,86.2z"/>
				<path class="st8" d="M52.3,85.5c0.7-1.9,2.3-2.1,2.3-2.1s3.8,3.7,3.5-0.1c-0.2-3-3.2-2.8-3.2-2.8c-1.5-1.9-3.8-1.2-4.6-0.1
					c-0.9,1.1-0.5,0.5-2.6,1.2c-2,0.7-0.9,3.8-1.3,4c-2.7,0-2.2,2.6-2.2,2.6l6.3,2.1l1.5-4.1L52.3,85.5z"/>
				<g>
					<ellipse transform="matrix(0.866 -0.5 0.5 0.866 -36.1555 37.5728)" class="st11" cx="52" cy="86.3" rx="1.1" ry="1.4"/>
					<path class="st8" d="M52.2,86.5c-0.1-0.2-0.2-0.3-0.3-0.5c-0.1-0.1-0.1-0.1-0.2-0.1c-0.1,0-0.2-0.1-0.3-0.1l0-0.1
						c0.1,0,0.2,0,0.3,0c0.1,0,0.2,0.1,0.3,0.2c0.1,0.1,0.1,0.2,0.2,0.3C52.2,86.3,52.2,86.4,52.2,86.5L52.2,86.5z"/>
				</g>
				
					<ellipse transform="matrix(0.9989 -4.729909e-02 4.729909e-02 0.9989 -3.714 2.4403)" class="st8" cx="49.7" cy="79.7" rx="2.1" ry="2.3"/>
				<circle class="st13" cx="54.6" cy="87.7" r="1"/>
			</g>
			<g>
				<path class="st9" d="M58.3,112.3l-16-2l3-15.9c0.2-1.1,1-2.1,2-2.5c0.9-0.4,1.8-0.4,2.7-0.1l5.5,2.4c1.1,0.5,1.8,1.5,1.9,2.6
					l0.3,5.2l0.4,5.9L58.3,112.3z"/>
				<path class="st11" d="M73,100.9l4.2-1.2c0.3-0.1,0.6,0,0.9,0.1c1.2,0.8,4.2,2.9,3.5,3.8c-0.4,0.4-3.9-0.6-3.9-0.6l-5.1,1.4
					L73,100.9z"/>
				<path class="st8" d="M58,107.9c-1.3-1.7-2.1-3.9-2.4-6.7l2,0.8L58,107.9z"/>
				<path class="st9" d="M55,94l0.6,0.3c1.3,0.6,2.5,1.4,3.5,2.5l5.3,5.8l8.6-1.6l1.1,4.6l-10.8,3.4c-0.9,0.2-1.7-0.1-2.3-0.8
					l-7.8-8.5L55,94z"/>
				<path class="st8" d="M64.2,102.6c0,0-2.6-2.8-4.8-5.3c-2.2-2.5-5.5-3.7-5.6-3.7l0.1-0.3c0,0,3.4,1.2,5.7,3.7
					c2.2,2.5,4.8,5.3,4.8,5.3L64.2,102.6z"/>
				
					<rect x="57.2" y="99.1" transform="matrix(0.7182 -0.6958 0.6958 0.7182 -56.4498 69.2823)" class="st8" width="0.3" height="10.4"/>
			</g>
			<g>
				<g>
					<g>
						<polygon class="st5" points="57.7,136.4 54.3,143.1 63,147.6 60.7,142.3 62.6,138.1 						"/>
						
							<rect x="58.2" y="142.5" transform="matrix(0.9593 -0.2824 0.2824 0.9593 -37.8584 22.5923)" class="st8" width="2.6" height="0.3"/>
					</g>
					<path class="st14" d="M63.2,140.8l-7.9-2.9l5.4-16.8c0.9-2.5,3.8-3.7,6.4-2.8l0,0c2.6,1,4,3.8,3,6.3L63.2,140.8z"/>
				</g>
				<g>
					<g>
						<polygon class="st5" points="70.8,139.6 71.6,147.7 81.4,147.7 76.9,144 75.9,139.4 						"/>
						
							<rect x="74.4" y="144.5" transform="matrix(0.8757 -0.4828 0.4828 0.8757 -60.4123 54.5505)" class="st8" width="2.7" height="0.3"/>
					</g>
					<path class="st3" d="M77.9,140.6l-8.6,1.4l-5.9-17.3l-1.1-3.1l-14.6,0.1c-3.6,0.1-6.5-3-6.1-6.6l0.6-4.8l14.4,1.8l9.5,1
						c3.9,0.7,5.2,3.1,6,6.1L77.9,140.6z"/>
					<path class="st8" d="M63.5,124.7l-1.1-3.1l2-0.1C64.5,122.7,64.1,124,63.5,124.7z"/>
				</g>
			</g>
		</g>
	</g>
	<rect x="28.4" y="147.5" class="st8" width="165.2" height="0.3"/>
</g>
</svg>
