<?xml version="1.0" encoding="utf-8"?>
<!-- Generator: Adobe Illustrator 25.4.1, SVG Export Plug-In . SVG Version: 6.00 Build 0)  -->
<svg version="1.1" id="Слой_1" xmlns="http://www.w3.org/2000/svg" xmlns:xlink="http://www.w3.org/1999/xlink" x="0px" y="0px"
	 viewBox="0 0 225 150" style="enable-background:new 0 0 225 150;" xml:space="preserve">
<style type="text/css">
	.st0{fill:url(#SVGID_1_);}
	.st1{fill:url(#SVGID_00000137093958094339079620000015857631798777180327_);}
	.st2{fill:#FFB955;}
	.st3{fill:url(#SVGID_00000049942381962138744780000000155602022035241911_);}
	.st4{fill:#323657;}
	.st5{fill:url(#SVGID_00000173845669384006284750000008132724684649951390_);}
	.st6{fill:#2D3038;}
	.st7{fill:#3F444F;}
	.st8{opacity:0.3;fill:#C2C2C2;enable-background:new    ;}
	.st9{fill:#CAC7D1;}
	.st10{fill:#1D2033;}
	.st11{fill:#EEA987;}
	.st12{fill:#C78D71;}
	.st13{fill:#A09EA6;}
	.st14{fill:#EAE6F2;}
	.st15{fill:#3A4066;}
	.st16{fill:#EFAA88;}
	.st17{fill:url(#SVGID_00000076585682899821136750000012980942915359138437_);}
	.st18{fill:#50558A;}
	.st19{fill:#1A598C;}
	.st20{fill:#BFB9B7;}
	.st21{fill:#F2EBE9;}
	.st22{fill:#3D8ED1;}
	.st23{fill:#F5EEEC;}
	.st24{fill:#DED7D5;}
	.st25{fill:#EEA886;}
	.st26{fill:#FFC355;}
	.st27{fill:#202338;}
	.st28{fill:#2F6B8C;}
	.st29{fill:#292C47;}
	.st30{fill:#A67F37;}
	.st31{fill:#FCCCA2;}
	.st32{fill:#81A358;}
	.st33{fill:#71A334;}
	.st34{fill:#60892C;}
	.st35{fill:#86BC44;}
	.st36{fill:#7BA840;}
	.st37{fill:#70A333;}
	.st38{fill:#699331;}
	.st39{fill:#B1D045;}
	.st40{fill:#9EB24E;}
	.st41{fill:url(#SVGID_00000129183053441767845500000015659987060470171285_);}
	.st42{clip-path:url(#SVGID_00000082349890696696966400000004699700438851909308_);}
	.st43{filter:url(#Adobe_OpacityMaskFilter);}
	.st44{clip-path:url(#SVGID_00000048486633637932621320000011715803527204957071_);}
	.st45{clip-path:url(#SVGID_00000130605883902406435370000010260143912239605408_);}
	.st46{clip-path:url(#SVGID_00000159451381707018158800000010397398324509802409_);}
	.st47{clip-path:url(#SVGID_00000114054263626080006770000018103383054515090086_);}
	.st48{clip-path:url(#SVGID_00000163039042660564105270000012070068815994285702_);}
	.st49{clip-path:url(#SVGID_00000092428542593165903850000001364951660662131116_);}
	.st50{clip-path:url(#SVGID_00000046325751255585589030000010730757405871880082_);}
	
		.st51{clip-path:url(#SVGID_00000007394074416627170180000014473441403449896077_);fill:url(#SVGID_00000049193338488531742710000002879707314196762786_);}
	
		.st52{clip-path:url(#SVGID_00000048486633637932621320000011715803527204957071_);mask:url(#SVGID_00000098942874662975687940000009150288180573869717_);fill:url(#SVGID_00000026875413560104347330000000652038348395231365_);}
	.st53{fill:url(#SVGID_00000139995820390109587400000015733972342794471073_);}
	.st54{fill:#454342;}
	.st55{fill:#918783;}
	.st56{fill:#1D3B54;}
	.st57{fill:#DB9C7C;}
	.st58{fill:#152C3D;}
	.st59{fill:#A77860;}
	.st60{fill:url(#SVGID_00000096052975533909637260000004081360248927808675_);}
	.st61{fill:url(#SVGID_00000093884220320933546570000007499535279211908014_);}
	.st62{fill:url(#SVGID_00000163788894843714463400000011862207251047652493_);}
	.st63{fill:#BFB2AC;}
	.st64{fill:#FFD1A1;}
	.st65{fill:#B37952;}
	.st66{fill:#D6985E;}
	.st67{fill:#807066;}
	.st68{fill:#6E6760;}
	.st69{fill:#918880;}
	.st70{fill:#BC8551;}
	.st71{opacity:0.72;fill:#D9D9D9;enable-background:new    ;}
	.st72{fill:#FFFFFF;}
	.st73{fill:#FFDC7D;}
</style>
<g>
	<g>
		
			<linearGradient id="SVGID_1_" gradientUnits="userSpaceOnUse" x1="158.7689" y1="-864.2895" x2="174.3895" y2="-899.0898" gradientTransform="matrix(1 0 0 1 0 920)">
			<stop  offset="0" style="stop-color:#FF9F55"/>
			<stop  offset="1" style="stop-color:#EF7F1A"/>
		</linearGradient>
		<path class="st0" d="M180.2,38.7c0.4-1.1,0.7-2.3,0.7-3.4l2.3-0.9l-0.5-2.6l-0.5-2.6l-2.5,0c-0.5-1.1-1.1-2-1.9-2.9l1-2.3
			l-2.2-1.5l-2.2-1.5l-1.8,1.7c-1.1-0.4-2.3-0.7-3.4-0.7l-0.9-2.3l-2.6,0.5l-2.6,0.5l0,2.5c-1.1,0.5-2,1.1-2.9,1.9l-2.3-1l-1.5,2.2
			l-1.5,2.2l1.7,1.8c-0.4,1.1-0.7,2.3-0.7,3.4l-2.3,0.9L154,37l0.5,2.6l2.5,0c0.5,1.1,1.1,2,1.9,2.9l-1,2.3l2.2,1.5l2.2,1.5l1.8-1.7
			c1.1,0.4,2.3,0.7,3.4,0.7l0.9,2.3l2.6-0.5l2.6-0.5l0-2.5c1.1-0.5,2-1.1,2.9-1.9l2.3,1l1.5-2.2l1.5-2.2L180.2,38.7z M164.6,39.8
			c-3-2.1-3.7-6.1-1.7-9.1s6.1-3.7,9.1-1.7s3.7,6.1,1.7,9.1C171.7,41.1,167.6,41.8,164.6,39.8z"/>
		
			<linearGradient id="SVGID_00000071556925959243819660000013784149717658166912_" gradientUnits="userSpaceOnUse" x1="151.91" y1="-896.8999" x2="166.1465" y2="-914.4977" gradientTransform="matrix(1 0 0 1 0 920)">
			<stop  offset="0" style="stop-color:#FF9F55"/>
			<stop  offset="1" style="stop-color:#EF7F1A"/>
		</linearGradient>
		<path style="fill:url(#SVGID_00000071556925959243819660000013784149717658166912_);" d="M165.8,14.7c0.2-0.5,0.3-1.1,0.3-1.6
			l1.1-0.4l-0.2-1.2l-0.2-1.2l-1.1,0c-0.2-0.5-0.5-0.9-0.9-1.4l0.4-1l-1-0.7l-1-0.7l-0.8,0.8c-0.5-0.2-1.1-0.3-1.6-0.3l-0.4-1.1
			L159.1,6l-1.2,0.2l0,1.1c-0.5,0.2-0.9,0.5-1.4,0.9l-1-0.4l-0.7,1l-0.7,1l0.8,0.8c-0.2,0.5-0.3,1.1-0.3,1.6l-1.1,0.4l0.2,1.2
			l0.2,1.2l1.1,0c0.2,0.5,0.5,0.9,0.9,1.4l-0.4,1l1,0.7l1,0.7l0.8-0.8c0.5,0.2,1.1,0.3,1.6,0.3l0.4,1.1l1.2-0.2l1.2-0.2l0-1.1
			c0.5-0.2,0.9-0.5,1.4-0.9l1,0.4l0.7-1l0.7-1L165.8,14.7z M158.6,15.2c-1.4-0.9-1.7-2.8-0.8-4.2c0.9-1.4,2.8-1.7,4.2-0.8
			s1.7,2.8,0.8,4.2C161.9,15.8,160,16.1,158.6,15.2z"/>
		<g>
			<polygon class="st2" points="141.8,89.9 153.7,89.9 153.7,98.4 143.6,98.4 141.8,100.3 			"/>
		</g>
		<g>
			
				<linearGradient id="SVGID_00000048500972862130438050000010748979452496018568_" gradientUnits="userSpaceOnUse" x1="90.6434" y1="-844.476" x2="165.8828" y2="-844.476" gradientTransform="matrix(1 0 0 1 0 920)">
				<stop  offset="0" style="stop-color:#FF9F55"/>
				<stop  offset="1" style="stop-color:#EF7F1A"/>
			</linearGradient>
			<path style="fill:url(#SVGID_00000048500972862130438050000010748979452496018568_);" d="M106.5,104.9c0-12.4,1-17.7,2.9-22.4
				c1.9-4.7,5.9-8.8,11.9-12.3c1.8-1.1,4-2.3,6.7-3.7c2.6-1.4,5.2-3,7.8-5c2.5-1.9,4.7-4.2,6.4-6.8c1.7-2.6,2.6-5.6,2.6-8.9
				c0-2.5-0.5-4.8-1.4-6.7c-1-1.9-2.2-3.5-3.8-4.9c-1.6-1.3-3.4-2.3-5.5-3c-2.1-0.7-4.2-1-6.4-1c-2.6,0-5,0.5-7.2,1.4
				c-2.2,0.9-4.1,2-5.9,3.4c-1.7,1.4-3.3,2.9-4.7,4.7c-1.4,1.7-2.6,3.4-3.5,5L90.6,33.9c1.6-3.7,3.6-7,6.2-9.9s5.5-5.3,8.8-7.3
				c3.3-2,6.9-3.5,10.7-4.5s7.8-1.5,11.9-1.5c4.6,0,9.1,0.7,13.5,2s8.5,3.4,12,6.3c3.5,2.9,6.4,6.6,8.7,11.1s3.3,9.9,3.3,16.1
				c0,3.8-0.5,7.3-1.4,10.2c-0.9,2.9-2.2,5.6-3.9,8c-1.7,2.4-3.7,4.6-5.9,6.5c-2.3,1.9-4.9,3.8-7.8,5.6c-2.4,1.4-4.8,2.8-7.2,4.1
				c-2.4,1.3-4.6,2.8-6.6,4.4c-2,1.6-3.6,3.5-4.9,5.6c-1.3,2.1-1.9,4.7-1.9,14.2L106.5,104.9L106.5,104.9z M106.9,140.4v-24.9h20
				v24.9H106.9z"/>
		</g>
		<g>
			<g>
				<path class="st4" d="M142.3,76.1c0,0-6.5,5.8-8.5,7.3c-0.9,0.7-3,0.8-5.3,0.8c-0.8,0-1.6,0-2.3,0l0,0c-3-0.1-5.6-0.4-5.6-0.4
					s-7.7,0.4-7.4-4.4c0,0,0.9-1.5,2.1-1.8c1.1-0.3,6.2,0.5,7.1,0.6c0.9,0,7.4,1.3,7.7,1.3c0.3,0,3.1-1.7,4.6-2.6
					c2.3-1.4,4.4-2.5,4.4-2.5L142.3,76.1z"/>
			</g>
			<g>
				
					<linearGradient id="SVGID_00000031906439869549877120000013533316075135542152_" gradientUnits="userSpaceOnUse" x1="120.0959" y1="-846.1426" x2="161.3992" y2="-837.7062" gradientTransform="matrix(1 0 0 1 0 920)">
					<stop  offset="0" style="stop-color:#9A5CFF"/>
					<stop  offset="0.5425" style="stop-color:#695ADC"/>
					<stop  offset="0.9948" style="stop-color:#4059BF"/>
				</linearGradient>
				<polygon style="fill:url(#SVGID_00000031906439869549877120000013533316075135542152_);" points="155,83.8 105.6,75.2 
					106.7,68.3 156.2,76.9 				"/>
				
					<rect x="101.7" y="70.5" transform="matrix(0.1679 -0.9858 0.9858 0.1679 16.8373 163.1588)" class="st6" width="6.7" height="2.2"/>
				<path class="st7" d="M79.5,40.4C65.4,40.4,54,51.8,54,65.9s11.4,25.5,25.5,25.5s25.5-11.4,25.5-25.5S93.6,40.4,79.5,40.4z
					 M79.5,87.3c-8.2,0-15.3-4.6-18.9-11.3l0,0c-1.6-3-2.5-6.4-2.5-10c0-11.8,9.6-21.3,21.3-21.3c5.5,0,10.6,2.1,14.4,5.6
					c4.3,3.9,7,9.5,7,15.8C100.9,77.7,91.3,87.3,79.5,87.3z"/>
				<path class="st8" d="M93.9,50.1c0,0-27.7-3.4-33.2,25.8l0,0c-1.6-3-2.5-6.4-2.5-10c0-11.8,9.6-21.3,21.3-21.3
					C85.1,44.6,90.1,46.7,93.9,50.1z"/>
			</g>
			<g>
				<path class="st9" d="M95,112.7c0,0,2.5,0.8,3.6,0.6s0.5-13.2,0.6-15.9c0-2.2,1.2-8,1.2-8s0,0,0,0v0v0c0.1,0.4,1.7,6.4,1.8,9.3
					c0.1,3-0.4,14.4-0.4,14.4l4.5,0.4L119,114l2.7-0.3c0,0-0.3-4.9-0.4-7.2c-0.1-1.5-0.4-4.1-0.3-6.7c0,0,0-2.7,0.2-3.9
					c0-5.2,0.3-10.3,0.3-10.3c0.2-2.3,0.3-4.5,0.4-6.6c-0.6-0.3-1.2-0.7-1.8-0.9c-1.7-0.8-4-1.9-5.5-2.6c-0.9-0.4-1.7-0.7-1.7-0.7
					s-6-0.6-6.5-0.5c-0.2,0-0.9,0.3-1.9,0.6c-2.1,0.8-6.2,2.5-6.9,2.9c-1,0.7-3,17-3.1,18.1C94.4,98.1,95,112.7,95,112.7z"/>
			</g>
			<path class="st10" d="M121.3,111.6c0,0-8.8,0.7-16.5,0v2.5c0,0,11.6,1.7,16.9-0.5L121.3,111.6z"/>
			<g>
				<path class="st4" d="M123.1,114.1c-0.5-3-1.1-6.8-1.6-10.2v0c0-0.3-0.1-0.6-0.1-0.9c0,0,0,0,0,0c-0.1-1.2-0.3-2.4-0.3-3.5
					c-0.1-0.8,0-1.6,0.1-2.4c0.3-5.5,0.5-11.3,0.5-11.3c0.2-2.4,0.7-5.5,0.7-7.5c-0.8-0.2-1.4-0.2-2.1-0.4c0,0-4.8-1.7-6.5-2.5
					c0,0,1.4,3.4,2.5,10.9c0.4,2.9,1.2,7.7,1.7,12.7c0.2,2,0.6,3.9,0.9,5.8c0.3,1.9,0.7,3.6,0.8,5.1c0.1,1,0.3,2.7,0.5,4.4
					c0,0.3,0.1,0.5,0.1,0.8h2.9C123.2,114.6,123.2,114.4,123.1,114.1z"/>
			</g>
			<path class="st9" d="M113.4,77c0,0,0.2,2.3-1.8,2.4c-1.9,0.1-3.5-1.8-3.5-1.8l3.2,0.8l2-1.7L113.4,77z"/>
			<g>
				<path class="st11" d="M110.8,59.4c0,0,4.5,0.8,3.7,7.7c-0.8,7-4.7,6.4-5,6.3c-0.3,0-4,0.1-4.2-8.5
					C105.4,65,105.3,58.7,110.8,59.4z"/>
			</g>
			<g>
				<path class="st11" d="M112.7,71.4c0,0,0,2.9,0.1,3.5c0.1,0.7-3.6,2.6-6,0.4c0,0,0.5-3.1,0.3-4.2C107,69.9,112.7,71.4,112.7,71.4
					z"/>
			</g>
			<g>
				<path class="st11" d="M114.5,65.5c0,0,0.5-0.5,0.7,0s-0.6,2.8-0.7,3c0,0-0.1,0.2-0.2,0.1C114.1,68.5,114.5,65.5,114.5,65.5z"/>
			</g>
			<g>
				<path class="st11" d="M105.4,64.9c0,0-0.5-0.5-0.7,0c-0.2,0.5,0.5,2.9,0.6,3c0,0,0.2,0.2,0.3,0.1
					C105.7,68,105.4,64.9,105.4,64.9z"/>
			</g>
			<g>
				<path class="st4" d="M114.8,64.5c-0.2,1-0.3,1.7-0.3,1.7l-0.7,0.8c0,0,0-1.9-0.1-2.2c0-0.1-0.1-0.3-0.1-0.5
					c-0.1-0.4-0.1-0.8-0.2-0.9c-0.1-0.2-3.8-1.3-7.1,0.2c0,0,0,0.3,0,0.6c0,0.4,0,0.8-0.2,0.9c-0.3,0.1-0.2,2.2-0.2,2.2l-0.5-0.6
					c0,0-0.1-1.1-0.3-2.3c0,0,0,0,0,0c0-0.3-0.1-0.6-0.1-0.9c-0.1-1.3,0-3.5,1.7-4.9c1.1-0.5,2.9-0.9,5.8,0c0,0,0.7,0,0.9,0.2
					C115.2,60.9,114.8,64.5,114.8,64.5z"/>
			</g>
			<path class="st12" d="M107.5,72.5c0,0,0.7,1,2.4,0.9c1.7,0,2.4-0.9,2.4-0.9s-0.8,1.6-2.4,1.6C108.3,74.2,107.5,72.5,107.5,72.5z"
				/>
			<path class="st13" d="M113,77.1l-1.7,1.2c0,0,1.4-3,1.4-4.1L113,77.1z"/>
			<polygon class="st14" points="112.8,74.2 113.9,75.2 115.1,78.8 113,77.1 			"/>
			<path class="st11" d="M112.6,75.3c0,0-0.5,1.6-1.2,3.1c0,0-1.7-1.5-2.3-2.1S112.6,75.3,112.6,75.3z"/>
			<path class="st13" d="M109.5,76.6l1.8,1.7c0,0-2.2-0.1-2.6-0.5L109.5,76.6z"/>
			<path class="st14" d="M107.1,73.5c0,0,1.5,2.4,2.4,3.2l-1.6,2.7l-2.6-4.7L107.1,73.5z"/>
			<g>
				<path class="st4" d="M109.8,90.6c-0.4-6.8-4.1-15.5-4.5-16c-0.3,0.1-1.5,0.6-1.9,0.8c-2,0.8-6.1,2.2-6.7,2.6
					c-1,0.7-2.8,17.8-2.9,18.9c-0.2,1.6,0.3,16.5,0.3,16.5s2.5,0.5,4,0.7c0.3,0,0.6,0,0.8,0c-0.1,0.3-0.2,0.5-0.3,0.8h8.7
					c0-0.3,0.1-0.5,0.1-0.8c0.1-1.1,0.2-2.3,0.3-3.5c0.3-3.2,0.8-6.2,1.2-10C109.4,97.1,109.9,92.7,109.8,90.6z M99.3,97.5
					c0.2-3.2,1.2-7.2,1.2-7.2c0.5,1.9,1.2,10.6,1.2,10.6c0,2.7-1.1,7.4-2.2,11.3C99.8,108.4,99.2,99.5,99.3,97.5z"/>
			</g>
			<g>
				<path class="st4" d="M99.5,104.5l-0.1,9.5l0,0.8H96c-0.5-0.1-1.2-0.3-1.8-0.6v-0.2L94,98.8L99.5,104.5z"/>
			</g>
			<rect x="110.9" y="111.8" class="st15" width="4.1" height="3.1"/>
			<g>
				<g>
					<path class="st16" d="M138.9,73.9c0,0-0.4,1.8,0,2.3c0.4,0.5,0.6-0.1,0.6-0.1s-0.2,0.6,0.3,0.8s0.7-0.5,0.7-0.5s0,0.5,0.5,0.5
						c0.6,0,0.5-0.6,0.5-0.6s0.4,0.7,0.8,0.2c0.8-0.9,0.5-2.2,0.5-2.2s-0.1-0.3-0.6-0.3c0,0-0.2-0.8-1.1-0.5c0,0-0.7-0.6-1.1,0
						C140,73.5,139.3,72.9,138.9,73.9z"/>
				</g>
			</g>
			
				<linearGradient id="SVGID_00000079453622207753310950000003930073126903581112_" gradientUnits="userSpaceOnUse" x1="92.2818" y1="-805.1708" x2="125.8643" y2="-805.1708" gradientTransform="matrix(1 0 0 1 0 920)">
				<stop  offset="0" style="stop-color:#9A5CFF"/>
				<stop  offset="0.9948" style="stop-color:#4059BF"/>
			</linearGradient>
			
				<rect x="92.3" y="114.1" style="fill:url(#SVGID_00000079453622207753310950000003930073126903581112_);" width="33.6" height="1.5"/>
		</g>
		<g>
			<g>
				<path class="st11" d="M72.9,87.8c0,0,2.5,0.4,2,4.3c-0.4,3.9-2.6,3.5-2.7,3.5c-0.1,0-2.2,0-2.3-4.7
					C69.9,90.9,69.8,87.4,72.9,87.8z"/>
			</g>
			<g>
				<path class="st11" d="M73.9,94.5c0,0-0.1,1.6,0.1,1.9c0.1,0.3-2,1.4-3.3,0.2c0,0,0.3-1.7,0.2-2.4C70.8,93.7,73.9,94.5,73.9,94.5
					z"/>
			</g>
			<g>
				<path class="st11" d="M74.9,91c0,0,0.3-0.3,0.4,0c0.1,0.3-0.3,1.6-0.4,1.7c0,0-0.1,0.1-0.1,0C74.7,92.6,74.9,91,74.9,91z"/>
			</g>
			<g>
				<path class="st11" d="M69.9,90.9c0,0-0.3-0.3-0.4,0c-0.1,0.3,0.3,1.6,0.3,1.7c0,0,0.1,0.1,0.1,0.1
					C70.1,92.6,69.9,90.9,69.9,90.9z"/>
			</g>
			<path class="st12" d="M71.1,95.1c0,0,0.4,0.5,1.3,0.5c0.9,0,1.3-0.5,1.3-0.5S73.2,96,72.4,96C71.5,96,71.1,95.1,71.1,95.1z"/>
			<path class="st10" d="M64.8,144.7c0,0-0.3,0.8-0.6,1.1c-0.3,0.3-1.4,0.8-1.4,1.7c0,1,1.8,0.7,2.6,0.7s0.8-0.5,1.1-1.1
				c0.3-0.5,0.6-0.5,0.7-0.9c0.1-0.4-0.2-1.4-0.2-1.4L64.8,144.7z"/>
			<path class="st18" d="M64.7,144.4l-0.1,0.5c0,0,1.1,0.4,2.2,0l-0.1-0.6L64.7,144.4z"/>
			<g>
				<g>
					<g>
						<polygon class="st19" points="110.1,146.5 109.9,146.5 111.2,113.7 88.6,113.7 87.3,146.5 87.1,146.5 88.4,113.5 111.4,113.5 
													"/>
					</g>
				</g>
			</g>
			<g>
				<g>
					<g>
						<polygon class="st19" points="112.2,146.5 110.9,113.7 88.4,113.7 89.7,146.5 89.4,146.5 88.1,113.5 111.2,113.5 112.5,146.5 
													"/>
					</g>
				</g>
			</g>
			<g>
				<g>
					<polygon class="st20" points="89.6,135.8 112.4,135.8 111.1,103 88.3,103 					"/>
				</g>
			</g>
			<g>
				<g>
					<polygon class="st21" points="109.4,135.8 86.6,135.8 87.9,103 110.7,103 					"/>
				</g>
			</g>
			<g>
				<g>
					<polygon class="st22" points="93.9,125.9 93.6,125.8 95.8,119.8 100.5,118.5 102.1,111.9 105.8,110.3 106.6,105.1 106.8,105.2 
						106,110.5 102.4,112.1 100.7,118.8 96,120 					"/>
				</g>
			</g>
			<g>
				<path class="st23" d="M101.1,118.2c0.2,0.3,0.2,0.7-0.1,1c-0.3,0.2-0.7,0.2-1-0.1s-0.2-0.7,0.1-1
					C100.4,117.9,100.9,117.9,101.1,118.2z"/>
			</g>
			<g>
				<path class="st22" d="M101.1,119.3c-0.4,0.3-0.9,0.2-1.2-0.1s-0.2-0.9,0.1-1.2c0.4-0.3,0.9-0.2,1.2,0.1
					C101.5,118.5,101.5,119,101.1,119.3z M100.2,118.2c-0.2,0.2-0.3,0.6-0.1,0.8c0.2,0.2,0.6,0.3,0.8,0.1c0.2-0.2,0.3-0.6,0.1-0.8
					S100.5,118,100.2,118.2z"/>
			</g>
			<g>
				<path class="st23" d="M102.8,111.6c0.2,0.3,0.2,0.7-0.1,1s-0.7,0.2-1-0.1c-0.2-0.3-0.2-0.7,0.1-1
					C102.1,111.2,102.6,111.3,102.8,111.6z"/>
			</g>
			<g>
				<path class="st22" d="M102.8,112.7c-0.4,0.3-0.9,0.2-1.2-0.1c-0.3-0.4-0.2-0.9,0.1-1.2c0.4-0.3,0.9-0.2,1.2,0.1
					C103.2,111.8,103.2,112.4,102.8,112.7z M101.9,111.6c-0.2,0.2-0.3,0.6-0.1,0.8c0.2,0.2,0.6,0.3,0.8,0.1c0.2-0.2,0.3-0.6,0.1-0.8
					S102.2,111.4,101.9,111.6z"/>
			</g>
			<g>
				<path class="st23" d="M106.4,109.9c0.2,0.3,0.2,0.7-0.1,1c-0.3,0.2-0.7,0.2-1-0.1s-0.2-0.7,0.1-1
					C105.7,109.6,106.1,109.6,106.4,109.9z"/>
			</g>
			<g>
				<path class="st23" d="M96.4,119.5c0.2,0.3,0.2,0.7-0.1,1c-0.3,0.2-0.7,0.2-1-0.1s-0.2-0.7,0.1-1
					C95.8,119.2,96.2,119.2,96.4,119.5z"/>
			</g>
			<g>
				<path class="st22" d="M96.4,120.6c-0.4,0.3-0.9,0.2-1.2-0.1c-0.3-0.4-0.2-0.9,0.1-1.2c0.4-0.3,0.9-0.2,1.2,0.1
					S96.8,120.3,96.4,120.6z M95.5,119.5c-0.2,0.2-0.3,0.6-0.1,0.8c0.2,0.2,0.6,0.3,0.8,0.1c0.2-0.2,0.3-0.6,0.1-0.8
					C96.1,119.3,95.8,119.3,95.5,119.5z"/>
			</g>
			<g>
				<g>
					<g>
						<path class="st24" d="M97.5,111.5h-6.7c-0.1,0-0.2-0.1-0.2-0.2v-1.1c0-0.1,0.1-0.2,0.2-0.2h6.7c0.1,0,0.2,0.1,0.2,0.2v1.1
							C97.7,111.5,97.6,111.5,97.5,111.5z"/>
					</g>
				</g>
			</g>
			<g>
				<g>
					<g>
						<path class="st24" d="M97.5,109h-6.7c-0.1,0-0.2-0.1-0.2-0.2v-1.1c0-0.1,0.1-0.2,0.2-0.2h6.7c0.1,0,0.2,0.1,0.2,0.2v1.1
							C97.7,108.9,97.6,109,97.5,109z"/>
					</g>
				</g>
			</g>
			<g>
				<path class="st22" d="M106.4,111c-0.4,0.3-0.9,0.2-1.2-0.1c-0.3-0.4-0.2-0.9,0.1-1.2c0.4-0.3,0.9-0.2,1.2,0.1
					C106.8,110.2,106.7,110.7,106.4,111z M105.5,109.9c-0.2,0.2-0.3,0.6-0.1,0.8c0.2,0.2,0.6,0.3,0.8,0.1c0.2-0.2,0.3-0.6,0.1-0.8
					C106.1,109.8,105.7,109.7,105.5,109.9z"/>
			</g>
			<g>
				<g>
					<polygon class="st22" points="91.9,131.8 91.8,131.7 94.6,127.8 98.2,127.9 100.7,123.5 103.6,123.1 105.2,119.6 105.4,119.7 
						103.8,123.3 100.8,123.7 98.3,128.1 94.7,128 					"/>
				</g>
			</g>
			<g>
				<path class="st23" d="M98.7,127.8c0.1,0.3,0,0.6-0.3,0.7c-0.3,0.1-0.6,0-0.7-0.3c-0.1-0.3,0-0.6,0.3-0.7
					C98.3,127.4,98.6,127.5,98.7,127.8z"/>
			</g>
			<g>
				<path class="st22" d="M98.5,128.6c-0.3,0.1-0.7,0-0.8-0.3c-0.1-0.3,0-0.7,0.3-0.8c0.3-0.1,0.7,0,0.8,0.3
					C98.9,128,98.8,128.4,98.5,128.6z M98,127.6c-0.2,0.1-0.3,0.3-0.2,0.6c0.1,0.2,0.3,0.3,0.6,0.2c0.2-0.1,0.3-0.3,0.2-0.6
					C98.5,127.6,98.3,127.5,98,127.6z"/>
			</g>
			<g>
				<path class="st23" d="M101.3,123.4c0.1,0.3,0,0.6-0.3,0.7c-0.3,0.1-0.6,0-0.7-0.3c-0.1-0.3,0-0.6,0.3-0.7
					C100.8,123,101.1,123.2,101.3,123.4z"/>
			</g>
			<g>
				<path class="st22" d="M101,124.2c-0.3,0.1-0.7,0-0.8-0.3c-0.1-0.3,0-0.7,0.3-0.8c0.3-0.1,0.7,0,0.8,0.3
					C101.5,123.7,101.3,124.1,101,124.2z M100.6,123.2c-0.2,0.1-0.3,0.3-0.2,0.6c0.1,0.2,0.3,0.3,0.6,0.2c0.2-0.1,0.3-0.3,0.2-0.6
					C101.1,123.2,100.8,123.1,100.6,123.2z"/>
			</g>
			<g>
				<path class="st23" d="M104.1,123c0.1,0.3,0,0.6-0.3,0.7c-0.3,0.1-0.6,0-0.7-0.3c-0.1-0.3,0-0.6,0.3-0.7
					C103.7,122.6,104,122.7,104.1,123z"/>
			</g>
			<g>
				<path class="st23" d="M95.1,127.7c0.1,0.3,0,0.6-0.3,0.7c-0.3,0.1-0.6,0-0.7-0.3c-0.1-0.3,0-0.6,0.3-0.7
					C94.7,127.4,95,127.5,95.1,127.7z"/>
			</g>
			<g>
				<path class="st22" d="M94.9,128.5c-0.3,0.1-0.7,0-0.8-0.3c-0.1-0.3,0-0.7,0.3-0.8s0.7,0,0.8,0.3C95.3,128,95.2,128.4,94.9,128.5
					z M94.5,127.6c-0.2,0.1-0.3,0.3-0.2,0.6c0.1,0.2,0.3,0.3,0.6,0.2c0.2-0.1,0.3-0.3,0.2-0.6C94.9,127.6,94.7,127.5,94.5,127.6z"/>
			</g>
			<g>
				<path class="st22" d="M103.9,123.7c-0.3,0.1-0.7,0-0.8-0.3c-0.1-0.3,0-0.7,0.3-0.8c0.3-0.1,0.7,0,0.8,0.3
					C104.4,123.3,104.2,123.6,103.9,123.7z M103.5,122.8c-0.2,0.1-0.3,0.3-0.2,0.6c0.1,0.2,0.3,0.3,0.6,0.2c0.2-0.1,0.3-0.3,0.2-0.6
					C103.9,122.8,103.7,122.7,103.5,122.8z"/>
			</g>
			<g>
				<g>
					<g>
						<path class="st25" d="M87.2,104.2c0,0,0.7-0.2,0.8-0.7c0.1-0.4,0.4-0.8,0.5-1c0.1-0.2,0.4-0.9,0.6-0.7
							c0.2,0.2-0.3,1.2-0.4,1.5c-0.1,0.2,0.9-0.2,1.2-0.2c0.3,0.1,0.9,1.8,0.2,2c-0.7,0.2-1.7,0-1.8,0.1c-0.1,0.1-0.5,0.2-0.5,0.2
							L87.2,104.2z"/>
					</g>
				</g>
			</g>
			<g>
				<g>
					<g>
						<path class="st25" d="M89.7,103.2c0,0,2.3-0.6,2.5-0.5c0.2,0.1,0.2,0.2,0,0.3c-0.2,0.1-2.2,0.6-2.2,0.6s2.8-0.2,3-0.2
							c0.1,0,0.2,0.3,0,0.3c-0.1,0-2.9,0.4-2.9,0.4s2.6-0.2,2.8-0.1c0.1,0.1,0.1,0.3-0.1,0.3c-0.2,0-2.6,0.3-2.6,0.3s1.9,0,2,0.1
							c0,0.1,0.1,0.3-0.4,0.3c-0.5,0-1.7,0.1-1.7,0.1L89.7,103.2z"/>
					</g>
				</g>
			</g>
			<g>
				<path class="st26" d="M76.3,101.7c0,0,0.6,1.1,1.4,2.2c0.1,0.1,0.1,0.2,0.2,0.3l0,0c0.1,0.1,0.2,0.3,0.3,0.4
					c0.1,0.2,0.3,0.4,0.4,0.5c0.7,1,1.5,1.8,2.1,1.9c1.3,0.3,7.7-1.1,7.7-1.1l-0.5-2.5c0,0-2.2,0.8-3.8,0.9
					c-0.9,0.1-2.1,0.4-2.2,0.3c-0.1-0.1-2.8-3.9-3-4.3c-0.2-0.4-1-2-1.7-2.8c-0.7-0.8-1.5-0.5-1.5-0.5
					C73.6,98.6,76.3,101.7,76.3,101.7z"/>
			</g>
			<g>
				<path class="st27" d="M79.2,144.5c0,0,1,1,2,1.3c1,0.2,1.7,0.5,1.7,1.1c0,0.6-2.9,1-4.1,0.4c-1.7-0.9-1.9-0.6-2.1-1.1
					s0.2-1.7,0.2-1.8C76.9,144.2,79.2,144.5,79.2,144.5z"/>
			</g>
			<g>
				<path class="st28" d="M79,144c0,0,0.1,0.5,0.1,0.5s-2.3,0.3-2.2-0.1c0.1-0.3,0.1-0.7,0.1-0.7L79,144z"/>
			</g>
			<g>
				<path class="st29" d="M76.8,114.7c0,0,1,7.6,1.5,10.1c0.5,3,0.7,5.5,0.8,7c0.2,2,0.4,11.9,0.5,12.5c0.1,0.6-3,0.3-3,0.3
					s-1.7-13-2.2-15.1c-0.5-1.9-1.9-10.3-2.3-9.8s-2.3,10-2.7,11.6c-0.3,1.5-2.2,13.7-2.2,13.7s-2,0.4-3.2-0.2
					c0,0,0.9-10.7,1.1-13.5c0.1-1.1,0.3-13.1,2.1-17.9C68.3,110.9,76.8,114.7,76.8,114.7z"/>
			</g>
			<path class="st26" d="M73.7,96.5c0,0,2.8,0.6,3.1,0.9c0.4,0.3,1,3.3,1,4.2s-0.3,4.4-0.7,5.7c-0.4,1.3-0.2,7.8,0,9.6
				c0,0-4.1,1.8-11,0.2c0,0,1.2-6,1-7.8c-0.3-2.3-0.8-7.9-0.8-7.9s0-3.4,0.5-3.9c0.5-0.4,4.1-0.9,4.1-0.9L73.7,96.5L73.7,96.5z"/>
			<path class="st26" d="M68.3,97.2c0,0,1.7,0.5,0.8,3.6c-0.7,2.5-0.8,3-0.8,3l-4-1c0,0,1-5.3,2.9-5.7C67.2,97.2,68,97,68.3,97.2z"
				/>
			<path class="st30" d="M77.7,104c0.1,0.1,0.1,0.2,0.2,0.3l0,0c0.1,0.1,0.2,0.3,0.3,0.4c0.1-1.5-0.3-3.5-0.3-3.5
				C78,101.9,77.7,104,77.7,104z"/>
			<path class="st26" d="M73.9,96.1c0,0-1.7,0.5-3.1-0.1l-0.1,0.7c0,0,1.9,0.7,3.4,0.4L73.9,96.1z"/>
			<path class="st25" d="M64.1,116.7c0,0,0.1,0.9,0.3,1.1c0.1,0.2,0.4,1,0.5,1.1c0,0.1,0.2,1,0.3,1.1s-0.2,0.3-0.4,0
				c-0.1-0.1-0.3-0.7-0.3-0.9s-0.3-0.7-0.3-0.6c-0.1,0.1-0.1,0.8-0.1,1c0,0.2,0.1,0.8,0.1,1c0.1,0.2,0.3,1.3,0.2,1.3s-0.2,0-0.4-0.2
				c0,0-0.3,0.1-0.4-0.2c0,0-0.2,0.1-0.4-0.4c0,0-0.2-0.1-0.2-0.3c-0.1-0.2-0.4-1.5-0.4-2c0-0.5,0.2-0.9,0.1-1.3s-0.2-1.2-0.2-1.2
				L64.1,116.7z"/>
			<g>
				<path class="st26" d="M64.6,117.6c0,0-0.9,0.1-2.3,0c0,0,0.8-8.8,0.7-9.3c0-0.5,1.8-8.6,2.8-9.9l1.5,4.8c-0.1,0-1.6,4.9-1.7,5.4
					C65.6,109.3,64.6,117.6,64.6,117.6z"/>
			</g>
			<path class="st31" d="M75.1,90.3c0.1-1,0-1.9-0.1-2.4c-0.2-0.6-1.2-0.5-1.2-0.5l0,0c-1.6-0.5-2.5-0.3-3.2,0c-0.9,0.7-1,2-0.9,2.7
				c0,0.2,0,0.3,0.1,0.5v0c0.1,0.7,0.2,1.3,0.2,1.3l0.3,0.3c0,0-0.1-1.1,0.1-1.2c0.1,0,0.1-0.3,0.1-0.5c0-0.2,0-0.3,0-0.3
				c1.8-0.8,3.9-0.2,4-0.1c0,0.1,0.1,0.3,0.1,0.5c0,0.1,0,0.2,0.1,0.3c0.1,0.2,0,1.2,0,1.2l0.4-0.5c0,0,0-0.2,0.1-0.6l0,0l0,0
				c0-0.1,0-0.2,0.1-0.4C75.1,90.7,75.1,90.5,75.1,90.3z"/>
		</g>
		<g>
			<g>
				<g>
					
						<rect x="171.1" y="129.6" transform="matrix(0.9977 -6.740350e-02 6.740350e-02 0.9977 -8.6909 11.8441)" class="st32" width="0.1" height="10.2"/>
				</g>
				<g>
					
						<rect x="168.9" y="112.1" transform="matrix(0.9982 -6.039690e-02 6.039690e-02 0.9982 -7.292 10.4355)" class="st32" width="0.1" height="27.5"/>
				</g>
				<g>
					<rect x="170.5" y="108.1" class="st32" width="0.1" height="32"/>
				</g>
				<g>
					
						<rect x="162.3" y="130.3" transform="matrix(2.250211e-02 -0.9997 0.9997 2.250211e-02 37.6572 299.2332)" class="st32" width="19.2" height="0.1"/>
				</g>
				<g>
					<path class="st33" d="M170.5,114.7c0,0-3.3-2.8-2.3-5.7c1-2.8,5.9-1.3,4.3,3.8C172.5,112.8,172,114.1,170.5,114.7z"/>
				</g>
				<g>
					<polygon class="st34" points="171.5,113.2 171.4,113.2 171.6,110.2 171.8,109.7 					"/>
				</g>
				<g>
					<polygon class="st34" points="169.9,113.3 169.7,113.3 169.8,108.5 169.9,109.3 					"/>
				</g>
				<g>
					<polygon class="st34" points="169.2,112.5 168.7,109.2 168.9,109.7 169.4,112.5 					"/>
				</g>
				<g>
					<path class="st35" d="M168.4,119.3c0,0-2.9-3.7-1.4-6.4c1.5-2.6,11.2-0.5,6.8,9.1c-4.4,9.5-7.8,3.1-7.8,3.1L168.4,119.3z"/>
				</g>
				<g>
					<polygon class="st36" points="170.9,126.1 170.8,126.1 173.4,116.3 173.7,115.5 					"/>
				</g>
				<g>
					<polygon class="st36" points="170.1,125.2 170,125.2 170.5,114.1 170.6,113.5 					"/>
				</g>
				<g>
					<polygon class="st36" points="168.9,121.6 168.4,113.6 168.6,114.3 169,121.6 					"/>
				</g>
				<g>
					<path class="st37" d="M170.5,122.7c0,0-0.4-6.4-4.1-4.1c-3.7,2.4-4.6,11.6,4.1,14.4V122.7z"/>
				</g>
				<g>
					<polygon class="st38" points="171.1,128.9 167.4,119.9 167.2,119.1 171.2,128.8 					"/>
				</g>
				<g>
					<path class="st38" d="M171.7,129.5c-0.3,0-0.9-0.4-1.7-1.3c-0.6-0.7-1.4-1.6-2.3-2.7c-1.5-1.9-2.4-3.3-2.5-3.3l-0.3-0.7
						c0,0,1.4,2,2.9,3.9c2.5,3.2,3.5,3.9,3.9,3.9L171.7,129.5z"/>
				</g>
				<g>
					<path class="st38" d="M172.3,130.7c-0.8,0-2.3-0.9-4.7-2.5c-1.7-1.2-3.3-2.5-3.3-2.5l0.5,0.2c0.6,0.5,5.7,4.7,7.4,4.7
						L172.3,130.7L172.3,130.7z"/>
				</g>
				<g>
					<path class="st38" d="M167.1,130.3c0.1,0,0.7,0.1,2.1,0.4c0.8,0.1,2.8,0.5,3.6,0.5v0.1c-0.9,0-2.8-0.4-3.7-0.5
						c-0.7-0.1-1.3-0.2-1.8-0.3c-0.8-0.2-0.8-0.2-0.9-0.2L167.1,130.3z"/>
				</g>
				<g>
					<path class="st39" d="M171.7,136.8c0,0-3-3.2-2.3-8.1c0.7-4.9,6.2-4.9,6.2-0.1C175.6,133.3,174.6,134.6,171.7,136.8z"/>
				</g>
				<g>
					<polygon class="st40" points="172,136.4 171.9,136.3 173.4,126.3 173.6,125.6 172.1,135.7 175,127.4 175,127.7 					"/>
				</g>
				<g>
					<polygon class="st40" points="171.7,136.5 170.1,128.7 170.1,128.1 171.7,135.7 171.2,126 171.4,127 171.8,136.4 					"/>
				</g>
				
					<linearGradient id="SVGID_00000004513117259438644320000011710651163297723828_" gradientUnits="userSpaceOnUse" x1="166.4786" y1="-777.3539" x2="174.6234" y2="-777.3539" gradientTransform="matrix(1 0 0 1 0 920)">
					<stop  offset="0" style="stop-color:#BAD0DE"/>
					<stop  offset="1" style="stop-color:#F5F2FF"/>
				</linearGradient>
				<polygon style="fill:url(#SVGID_00000004513117259438644320000011710651163297723828_);" points="174.6,139.6 172.7,145.7 
					168.4,145.7 166.5,139.6 				"/>
				<g>
					<g>
						<g>
							<defs>
								<polygon id="SVGID_00000078724175119536142010000006012439426679031203_" points="22,2 22.1,2 22,2.1 								"/>
							</defs>
							<clipPath id="SVGID_00000083052597960051818490000003342701199654451120_">
								<use xlink:href="#SVGID_00000078724175119536142010000006012439426679031203_"  style="overflow:visible;"/>
							</clipPath>
						</g>
						<g>
							<defs>
								<polygon id="SVGID_00000049181278138781731240000011696215407678965180_" points="22,2 22.1,2 22,2.1 								"/>
							</defs>
							<defs>
								<polygon id="SVGID_00000006689932319631348650000005174233765178019972_" points="21.9,1.8 21.8,1.8 21.9,1.8 								"/>
							</defs>
							<clipPath id="SVGID_00000038396791414924841530000015788271049904457879_">
								<use xlink:href="#SVGID_00000049181278138781731240000011696215407678965180_"  style="overflow:visible;"/>
							</clipPath>
							
								<clipPath id="SVGID_00000061430364672667595990000011884593594058882713_" style="clip-path:url(#SVGID_00000038396791414924841530000015788271049904457879_);">
								<use xlink:href="#SVGID_00000006689932319631348650000005174233765178019972_"  style="overflow:visible;"/>
							</clipPath>
							<defs>
								<filter id="Adobe_OpacityMaskFilter" filterUnits="userSpaceOnUse" x="166.5" y="139.6" width="8.1" height="6.1">
									<feColorMatrix  type="matrix" values="1 0 0 0 0  0 1 0 0 0  0 0 1 0 0  0 0 0 1 0"/>
								</filter>
							</defs>
							
								<mask maskUnits="userSpaceOnUse" x="166.5" y="139.6" width="8.1" height="6.1" id="SVGID_00000098942874662975687940000009150288180573869717_">
								<g class="st43">
									<g>
										<g>
											<defs>
												<polygon id="SVGID_00000137121925523631525590000000718770830674326199_" points="22,2 22.1,2 22,2.1 												"/>
											</defs>
											<defs>
												<polygon id="SVGID_00000062172580618049521320000007530461716460208053_" points="21.9,1.8 21.8,1.8 21.9,1.8 
																									"/>
											</defs>
											
												<clipPath id="SVGID_00000164477174658653952690000005135432136585000599_" style="clip-path:url(#SVGID_00000061430364672667595990000011884593594058882713_);">
												<use xlink:href="#SVGID_00000137121925523631525590000000718770830674326199_"  style="overflow:visible;"/>
											</clipPath>
											
												<clipPath id="SVGID_00000140719423587345228290000016857296670548173230_" style="clip-path:url(#SVGID_00000164477174658653952690000005135432136585000599_);">
												<use xlink:href="#SVGID_00000062172580618049521320000007530461716460208053_"  style="overflow:visible;"/>
											</clipPath>
										</g>
										<g>
											<defs>
												<polygon id="SVGID_00000053545620469398891400000014575143895582103169_" points="22,2 22.1,2 22,2.1 												"/>
											</defs>
											<defs>
												<polygon id="SVGID_00000052094865049832925920000008401911081289251518_" points="21.9,1.8 21.8,1.8 21.9,1.8 
																									"/>
											</defs>
											<defs>
												<polygon id="SVGID_00000147928750008855103670000017939677791750857110_" points="22,2 22.1,2 22,2.1 												"/>
											</defs>
											
												<clipPath id="SVGID_00000026846353648784087570000014623305667436679355_" style="clip-path:url(#SVGID_00000061430364672667595990000011884593594058882713_);">
												<use xlink:href="#SVGID_00000053545620469398891400000014575143895582103169_"  style="overflow:visible;"/>
											</clipPath>
											
												<clipPath id="SVGID_00000010287524967619478190000006116164964239405218_" style="clip-path:url(#SVGID_00000026846353648784087570000014623305667436679355_);">
												<use xlink:href="#SVGID_00000052094865049832925920000008401911081289251518_"  style="overflow:visible;"/>
											</clipPath>
											
												<clipPath id="SVGID_00000140008151464311393620000016837578212521420426_" style="clip-path:url(#SVGID_00000010287524967619478190000006116164964239405218_);">
												<use xlink:href="#SVGID_00000147928750008855103670000017939677791750857110_"  style="overflow:visible;"/>
											</clipPath>
										</g>
										<g>
											<defs>
												<polygon id="SVGID_00000165929260692635373000000012027917448393624723_" points="22,2 22.1,2 22,2.1 												"/>
											</defs>
											<defs>
												<polygon id="SVGID_00000178193578676299458120000000373161966973727933_" points="21.9,1.8 21.8,1.8 21.9,1.8 
																									"/>
											</defs>
											<defs>
												<polygon id="SVGID_00000052068406119594486010000005409193828561985438_" points="22,2 22.1,2 22,2.1 												"/>
											</defs>
											<defs>
												<polygon id="SVGID_00000168818784786795046110000010727250788874400679_" points="21.9,1.8 21.8,1.8 21.9,1.8 
																									"/>
											</defs>
											
												<clipPath id="SVGID_00000002371822952659674110000007312705020621734301_" style="clip-path:url(#SVGID_00000061430364672667595990000011884593594058882713_);">
												<use xlink:href="#SVGID_00000165929260692635373000000012027917448393624723_"  style="overflow:visible;"/>
											</clipPath>
											
												<clipPath id="SVGID_00000119816092343506061800000003746394144553914548_" style="clip-path:url(#SVGID_00000002371822952659674110000007312705020621734301_);">
												<use xlink:href="#SVGID_00000178193578676299458120000000373161966973727933_"  style="overflow:visible;"/>
											</clipPath>
											
												<clipPath id="SVGID_00000038397473815209030620000000785224630194513829_" style="clip-path:url(#SVGID_00000119816092343506061800000003746394144553914548_);">
												<use xlink:href="#SVGID_00000052068406119594486010000005409193828561985438_"  style="overflow:visible;"/>
											</clipPath>
											
												<clipPath id="SVGID_00000029729859773632854640000004467333207688223895_" style="clip-path:url(#SVGID_00000038397473815209030620000000785224630194513829_);">
												<use xlink:href="#SVGID_00000168818784786795046110000010727250788874400679_"  style="overflow:visible;"/>
											</clipPath>
											
												<linearGradient id="SVGID_00000080926218168228376870000013640293390263423161_" gradientUnits="userSpaceOnUse" x1="166.4786" y1="-777.3539" x2="174.6234" y2="-777.3539" gradientTransform="matrix(1 0 0 1 0 920)">
												<stop  offset="0" style="stop-color:#FFFFFF"/>
												<stop  offset="0.9948" style="stop-color:#000000"/>
											</linearGradient>
											
												<path style="clip-path:url(#SVGID_00000029729859773632854640000004467333207688223895_);fill:url(#SVGID_00000080926218168228376870000013640293390263423161_);" d="
												M174.6,139.6c0,0-4.2,0.7-4.2,6.1h-2l-1.9-6.1H174.6z"/>
										</g>
									</g>
								</g>
							</mask>
							
								<linearGradient id="SVGID_00000105413046013610591420000005096163969116416427_" gradientUnits="userSpaceOnUse" x1="166.4786" y1="-777.3539" x2="174.6234" y2="-777.3539" gradientTransform="matrix(1 0 0 1 0 920)">
								<stop  offset="0" style="stop-color:#FFFFFF"/>
								<stop  offset="0.9948" style="stop-color:#000000"/>
							</linearGradient>
							
								<path style="clip-path:url(#SVGID_00000061430364672667595990000011884593594058882713_);mask:url(#SVGID_00000098942874662975687940000009150288180573869717_);fill:url(#SVGID_00000105413046013610591420000005096163969116416427_);" d="
								M174.6,139.6c0,0-4.2,0.7-4.2,6.1h-2l-1.9-6.1H174.6z"/>
						</g>
					</g>
				</g>
				
					<linearGradient id="SVGID_00000142887042996496473460000014351361965168292232_" gradientUnits="userSpaceOnUse" x1="166.4786" y1="-777.3539" x2="174.6234" y2="-777.3539" gradientTransform="matrix(1 0 0 1 0 920)">
					<stop  offset="0" style="stop-color:#9FA0AD"/>
					<stop  offset="0.9948" style="stop-color:#55B5FF"/>
				</linearGradient>
				<path style="fill:url(#SVGID_00000142887042996496473460000014351361965168292232_);" d="M174.6,139.6c0,0-4.2,0.7-4.2,6.1h-2
					l-1.9-6.1H174.6z"/>
				<path class="st54" d="M167.7,146.2L167.7,146.2L167.7,146.2L167.7,146.2z"/>
			</g>
			<path class="st25" d="M145,115.6c0,0,0.6,0.1,0.9,0.1c0.3,0,1.6-0.6,2.1-0.5s3.3,1.3,3.4,1.3c0.1,0.1-0.1,0.3-0.1,0.3l-6.5,0.1
				L145,115.6z"/>
			<rect x="129.8" y="128.7" class="st55" width="1.1" height="13.7"/>
			<path class="st56" d="M143.9,140.8c0,0,0,0.6,0.2,1.3c0.1,0.5,0.4,2.5,0.8,2.8c0.4,0.3,1.6,1,1.4,1.8c-0.2,0.8-0.3,1.3-1.6,0.8
				c-1.3-0.5-2.1-0.7-2.4-1.8s-0.9-2.1-0.9-2.1l-0.9,2.3l-0.5-0.2c0,0,0.7-2.5,0.7-2.7s0.3-2.2,1.9-2.7
				C144,139.7,143.9,140.8,143.9,140.8z"/>
			<path class="st56" d="M152.5,141.5c0,0,0.2,0.6,0.7,1.1c0.3,0.4,1.3,2.2,1.8,2.3c0.4,0.1,1.8,0.4,1.9,1.1s0.2,1.3-1.2,1.4
				c-1.4,0.1-2.2,0.1-2.9-0.8c-0.7-1-1.7-1.6-1.7-1.6v2.5h-0.5c0,0-0.2-2.6-0.4-2.8c-0.1-0.2-0.5-2.2,0.8-3.2
				C152.2,140.5,152.5,141.5,152.5,141.5z"/>
			<path class="st25" d="M138.7,107.7c0,0,0.3-1.1,0.3-1.2c0-0.1,0.3-0.4,0.7-0.7c0.4-0.3,1-0.5,1-0.5c0.1,0,0.2,0,0.3,0.2
				c0.1,0.2,0.1,0.4,0.1,0.4s0.2,0.1,0.3,0.4c0,0,0.2,0.1,0.2,0.4c0,0,0.2,0.1,0.2,0.3c0,0-0.3,0.3-0.4,0.4
				c-0.1,0.1-0.7,0.7-1.4,1.1C140,108.5,139.1,109.1,138.7,107.7z"/>
			<path class="st56" d="M128.1,109.6c0.4-0.7,1-1,2.8,0.3c1.8,1.2,1.4,1,1.8,1.4c0.4,0.4,2.3,1.4,2.3,1.4s1.1-1.1,1.6-1.9
				c0.6-0.9,1.9-3.2,1.9-3.2l1.8,1.3c0,0-3.4,6.2-4.1,6.6c-0.7,0.5-2.9-0.3-4-0.8c-1.1-0.5-2.3-1.1-2.8-1.2
				C128.9,113.3,127,111.4,128.1,109.6z"/>
			<path class="st57" d="M140.6,105.4c0,0-0.9,0.8-0.8,0.9c0.1,0.2,0.2,0.1,0.2,0.1l-0.2,0.5c0,0,0,0.4,0.5,0.3c0,0,0,0.4,0.4,0.2
				c0,0,0.1,0.3,0.3,0.2c0.2-0.1,0.7-0.6,0.7-0.6s0.1-0.2-0.2-0.3c0,0,0.1-0.3-0.2-0.4c0,0,0-0.2-0.3-0.4
				C141.1,105.9,141.1,105.4,140.6,105.4C140.7,105.3,140.6,105.4,140.6,105.4z"/>
			<path class="st58" d="M136.5,113.3c0,0,0.4-1.3-0.1-2.3c0,0,0.2,1-0.3,1.8C135.8,113.3,136.5,113.3,136.5,113.3z"/>
			<path class="st25" d="M150,127.7c0,0-1.6,3.6-2.8,6.2c-0.2,0.4-0.4,0.8-0.5,1.2c-0.2,0.4-0.3,0.8-0.4,1c-0.7,1.7-2.5,5.3-2.5,5.3
				s-1.4,0.1-1.4-1.1c0,0,1.3-2.5,1.3-4.3s0.2-6.9,1.9-8.1C147.6,126.6,148.9,126.3,150,127.7z"/>
			<path class="st25" d="M135.1,120.8c0,0,0.3,0.3,0.6,0.4c0.3,0.1,5.1,0.4,7.3,1.2s5.2,1.2,5.7,1.8c0.5,0.6,1.5,4.1,1.4,4.8
				c0,0.7,2,11.7,2.2,12.6c0.1,0.5-1.8,0.3-1.8,0.3s-2.7-6.5-3.3-7.7c-1.1-2.2-1.1-4.9-1.5-5.4c-0.4-0.4-4.8-1.4-7.3-1.4
				s-8.2,0.2-8.8-0.1c-0.6-0.3-4.4-2.8-2.8-6.2C128.5,117.7,135.1,120.8,135.1,120.8z"/>
			<path class="st26" d="M146,123.2l-4,7.6c0,0-1.2-2.9-3.3-3.3c-2.1-0.5-10.5-0.2-10.5-0.2s-3.8-4.9-0.6-7.4
				c3.3-2.6,7.1,0.4,7.1,0.4s0.8,0.9,1.2,0.9C136.4,121.1,139.4,121.1,146,123.2z"/>
			<path class="st25" d="M154.9,144.9c0,0-1.2,0.3-1.7,0c-0.5-0.3-2.1-3-2.6-3.1c0,0,0.5-1,1.8-0.3
				C152.5,141.5,154.6,144.5,154.9,144.9z"/>
			<path class="st25" d="M144.9,144.9c0,0-1.2-0.2-1.6-0.6c-0.3-0.5-0.8-3.5-1.2-3.9c0,0,0.9-0.8,1.8,0.4
				C143.9,140.8,144.7,144.3,144.9,144.9z"/>
			<path class="st25" d="M132.9,104.1c0,0-0.1,0.2-0.2,0.6c0,0.2-0.1,0.4-0.1,0.6c-0.1,0.6-0.2,1.4,0,1.9c0,0-1.3,0.5-2.4-1.4
				c0,0,0.5-2.1-0.1-3.3C129.5,101.3,132.9,104.1,132.9,104.1z"/>
			<path class="st59" d="M132.8,104.6c0,0.2-0.1,0.5-0.2,0.7c-1.3-0.8-1.7-2.1-1.7-2.1C131.7,103.9,132.8,104.6,132.8,104.6z"/>
			<path class="st56" d="M136.4,112c-0.3,1.3-1,1.4-1,2.4s0.3,1.1-0.2,2.6c-0.1,0.3-0.2,0.6-0.2,0.9c0,0,0,0.1,0,0.1
				c0,0.2-0.1,0.4-0.1,0.5c0,0.3-0.1,0.6-0.1,0.9c-0.1,0.8,0.5,1.3,0.5,1.3s-4.9,2.9-8.3,2.5c0,0,0.9-3.7,1.4-4.9
				c0.5-1.3,0.3-7.1,0-8.3c-0.5-1.8,0.5-4.6,1.9-5l2.2,1c0,0,2.2,2.7,2.7,3.1C135.8,109.5,136.7,110.7,136.4,112z"/>
			<path class="st56" d="M129.1,106.6c0.6-0.5,1.5-1.4,2.8,0.4c1.3,1.8,2.3,2.9,2.6,3.4c0.3,0.5,2.8,4.1,2.8,4.1s2.4,0.3,3.4,0.4
				c1.2,0.1,5.4,0.5,5.4,0.5l0.1,1.8c0,0-7.4,0-8.2,0.2s-3.1-1.9-4-2.7c-0.9-0.8-3.5-3.7-3.9-4C129.6,110.5,127.5,108,129.1,106.6z"
				/>
			<path class="st59" d="M147.3,133.9c-0.2,0.4-0.4,0.8-0.5,1.2c-0.6-1.9-0.5-5.1-0.5-5.1C146.6,132.2,147.3,133.9,147.3,133.9z"/>
			
				<linearGradient id="SVGID_00000003106395028951264140000001797799910376475564_" gradientUnits="userSpaceOnUse" x1="129.5365" y1="-787.9703" x2="134.8094" y2="-819.3436" gradientTransform="matrix(1 0 0 1 0 920)">
				<stop  offset="0" style="stop-color:#E36C44"/>
				<stop  offset="1" style="stop-color:#F75A5A"/>
			</linearGradient>
			
				<rect x="121.7" y="127.3" style="fill:url(#SVGID_00000003106395028951264140000001797799910376475564_);" width="17" height="1.9"/>
			
				<linearGradient id="SVGID_00000183948922984107209590000000638349822217575590_" gradientUnits="userSpaceOnUse" x1="132.2133" y1="-787.5204" x2="137.4861" y2="-818.8934" gradientTransform="matrix(1 0 0 1 0 920)">
				<stop  offset="0" style="stop-color:#E36C44"/>
				<stop  offset="1" style="stop-color:#F75A5A"/>
			</linearGradient>
			<path style="fill:url(#SVGID_00000183948922984107209590000000638349822217575590_);" d="M130.5,121.3c0,0-0.4,1.7,1.6,2.1
				c2,0.4,4.5,0.9,4.5,4h-7L130.5,121.3z"/>
			
				<linearGradient id="SVGID_00000153698173001411908090000000544902508186121657_" gradientUnits="userSpaceOnUse" x1="122.3509" y1="-789.178" x2="127.6237" y2="-820.551" gradientTransform="matrix(1 0 0 1 0 920)">
				<stop  offset="0" style="stop-color:#E36C44"/>
				<stop  offset="1" style="stop-color:#F75A5A"/>
			</linearGradient>
			<path style="fill:url(#SVGID_00000153698173001411908090000000544902508186121657_);" d="M121.7,129.1l-5.9-25
				c0,0,10.8-1.7,12,3.2c1.3,4.8,3.4,19.2,5.9,20.1C136.3,128.2,121.7,129.1,121.7,129.1z"/>
			<path class="st58" d="M135.5,116.1c0,0-0.1,0.5-0.2,0.8l-2.6-3.4L135.5,116.1z"/>
			<polygon class="st56" points="132.7,106.2 132.7,105.7 130.4,104.6 129.6,105.5 			"/>
			<path class="st63" d="M140.8,145.9c0,0.5-0.4,0.9-0.9,0.9c-0.5,0-0.9-0.4-0.9-0.9c0-0.5,0.4-0.9,0.9-0.9
				C140.4,145,140.8,145.4,140.8,145.9z"/>
			<polygon class="st55" points="120.8,145 121,145.7 130.5,142.7 130.1,141.4 			"/>
			<polygon class="st55" points="139.9,145 139.7,145.7 130.2,142.7 130.6,141.4 			"/>
			<polygon class="st55" points="133.2,145.6 133.2,146.3 130.2,142.7 130.6,141.4 			"/>
			<path class="st63" d="M133.3,145.9c0,0.5-0.4,0.9-0.9,0.9c-0.5,0-0.9-0.4-0.9-0.9c0-0.5,0.4-0.9,0.9-0.9
				C132.9,145,133.3,145.4,133.3,145.9z"/>
			<path class="st63" d="M121.7,145.9c0,0.5-0.4,0.9-0.9,0.9c-0.5,0-0.9-0.4-0.9-0.9c0-0.5,0.4-0.9,0.9-0.9
				C121.3,145,121.7,145.4,121.7,145.9z"/>
			<polygon class="st64" points="141.6,104 142.1,106.3 142.4,107.7 140.8,108.4 140.1,107.1 138.9,105 			"/>
			<polygon class="st65" points="142.1,106.3 142.4,107.7 140.8,108.4 140.1,107.1 			"/>
			
				<rect x="138.7" y="103.9" transform="matrix(0.9285 -0.3713 0.3713 0.9285 -28.6781 59.4642)" class="st65" width="2.7" height="0.5"/>
			
				<rect x="138.7" y="104.3" transform="matrix(0.9285 -0.3712 0.3712 0.9285 -28.7813 59.5112)" class="st65" width="3" height="0.4"/>
			<path class="st25" d="M139,106.5c0,0,0.6-0.5,1-0.7c0.1,0,0.2,0,0.3,0c0.1,0.1,0,0.3-0.2,0.5s-0.4,0.7-0.4,0.7
				S139.3,107.3,139,106.5z"/>
			<path class="st4" d="M131.6,96.7c-1,0.2-0.4,2.8-1.1,6.3s-2.8,4.1-2.8,4.1s1-1.6,0.8-3.2c-0.1-1.3-1.6-4.8-0.1-7.1
				c1.2-1.8,3.3-0.2,3.3-0.2L131.6,96.7z"/>
			<path class="st25" d="M133.2,96.9c0.9,0.1,2.9,0.8,2.9,3.2c0,0-0.1,0.6-0.4,1.1s0.1,2-0.1,2.1c-0.1,0.1-0.6,0.1-0.6,0.1
				s-0.7,1.6-1.3,1.5c-0.6-0.1-2.7-0.8-3.5-2.9C129.5,99.9,129.6,96.7,133.2,96.9z"/>
			<path class="st4" d="M136.1,100.1c0,0-1.6,0.8-3.1,0.9c-1.5,0-2.7,2.4-2.7,2.4s-1.8-4,0.3-6.1C132.7,95.3,136.8,97.4,136.1,100.1
				z"/>
			<path class="st25" d="M132.7,101c0-0.3-0.2-0.7-0.8-0.4c-0.5,0.3,0,1.7,0.4,1.7C132.7,102.1,132.7,101.3,132.7,101z"/>
			<path class="st66" d="M146.1,117.8v0.6h26.8v-0.6c0-0.5-0.4-0.9-0.8-0.9h-25.2C146.5,116.8,146.1,117.2,146.1,117.8z"/>
			<path class="st67" d="M163.3,145.7h8.1v-1.3h-7.6c-0.3,0-0.5,0.2-0.5,0.5V145.7L163.3,145.7z"/>
			<rect x="169.8" y="118.3" class="st67" width="1.1" height="27.4"/>
			<rect x="167.7" y="118.3" class="st67" width="1.1" height="27.4"/>
			<rect x="160.1" y="101" class="st68" width="0.6" height="14"/>
			<g>
				<path class="st69" d="M161.6,116.8h4.7v-0.3h-4.7c-0.2,0-0.4-0.1-0.5-0.2c-0.1-0.1-0.1-0.3-0.1-0.3v0v0v-6.1h-0.3v6.1
					c0,0.1,0,0.3,0.2,0.5C161,116.7,161.3,116.8,161.6,116.8z"/>
			</g>
			<path class="st68" d="M155.2,116.3h5v0.5h-5.3v-0.2C154.9,116.4,155,116.3,155.2,116.3z"/>
			<path class="st70" d="M157.5,118.3h15.4v-0.6c0-0.5-0.4-0.9-0.8-0.9h-12.2L157.5,118.3z"/>
		</g>
		<g>
			<g>
				<path class="st71" d="M148.1,47.9h-21.9c-0.2,0-0.3-0.1-0.3-0.3v-1.4c0-0.2,0.1-0.3,0.3-0.3h21.9c0.2,0,0.3,0.1,0.3,0.3v1.4
					C148.4,47.7,148.3,47.9,148.1,47.9z"/>
				<path class="st71" d="M151.2,51.2h-25c-0.2,0-0.3-0.1-0.3-0.3v-1.4c0-0.2,0.1-0.3,0.3-0.3h25c0.2,0,0.3,0.1,0.3,0.3v1.4
					C151.5,51,151.4,51.2,151.2,51.2z"/>
			</g>
			<path class="st26" d="M117.7,51.8h5c0.4,0,0.8-0.3,0.8-0.8v-5c0-0.4-0.3-0.8-0.8-0.8h-5c-0.4,0-0.8,0.3-0.8,0.8v5
				C117,51.4,117.3,51.8,117.7,51.8z"/>
			<g>
				<path class="st71" d="M142.5,57.1h-16.4c-0.2,0-0.3-0.1-0.3-0.3v-1.5c0-0.2,0.1-0.3,0.3-0.3h16.4c0.2,0,0.3,0.1,0.3,0.3v1.5
					C142.8,57,142.7,57.1,142.5,57.1z"/>
				<path class="st71" d="M146.4,60.4h-20.2c-0.2,0-0.3-0.1-0.3-0.3v-1.4c0-0.2,0.1-0.3,0.3-0.3h20.2c0.2,0,0.3,0.1,0.3,0.3v1.4
					C146.7,60.2,146.6,60.4,146.4,60.4z"/>
			</g>
			<g>
				<path class="st72" d="M119.4,49c0-0.1,0-0.2,0-0.2c0-0.1,0-0.1,0.1-0.2c0-0.1,0.1-0.1,0.1-0.2c0.1-0.1,0.1-0.1,0.2-0.2
					c0,0,0.1-0.1,0.2-0.1c0.1,0,0.2-0.1,0.2-0.1c0.1-0.1,0.1-0.1,0.2-0.2s0.1-0.1,0.1-0.2c0-0.1,0-0.2-0.1-0.3
					c-0.1-0.1-0.2-0.1-0.3-0.1c-0.1,0-0.1,0-0.2,0c-0.1,0-0.1,0.1-0.2,0.1c0,0-0.1,0.1-0.1,0.1c0,0-0.1,0.1-0.1,0.1l-0.6-0.4
					c0.1-0.2,0.3-0.4,0.5-0.5c0.2-0.1,0.4-0.2,0.7-0.2c0.1,0,0.3,0,0.4,0.1c0.1,0,0.3,0.1,0.4,0.2c0.1,0.1,0.2,0.2,0.3,0.3
					c0.1,0.1,0.1,0.3,0.1,0.5c0,0.2,0,0.4-0.1,0.5s-0.2,0.3-0.4,0.4c-0.1,0.1-0.2,0.1-0.2,0.1c-0.1,0-0.1,0.1-0.2,0.1
					c-0.1,0-0.1,0.1-0.2,0.1s-0.1,0.1-0.1,0.2L119.4,49L119.4,49z M119.5,50.4v-0.8h0.7v0.8H119.5z"/>
			</g>
			<path class="st26" d="M117.7,60.9h5c0.4,0,0.8-0.3,0.8-0.8v-5c0-0.4-0.3-0.8-0.8-0.8h-5c-0.4,0-0.8,0.3-0.8,0.8v5
				C117,60.6,117.3,60.9,117.7,60.9z"/>
			<g>
				<path class="st72" d="M119.4,58.2c0-0.1,0-0.2,0-0.2c0-0.1,0-0.1,0.1-0.2c0-0.1,0.1-0.1,0.1-0.2c0.1-0.1,0.1-0.1,0.2-0.2
					c0,0,0.1-0.1,0.2-0.1c0.1,0,0.2-0.1,0.2-0.1c0.1-0.1,0.1-0.1,0.2-0.2c0.1-0.1,0.1-0.1,0.1-0.2c0-0.1,0-0.2-0.1-0.3
					c-0.1-0.1-0.2-0.1-0.3-0.1c-0.1,0-0.1,0-0.2,0c-0.1,0-0.1,0.1-0.2,0.1c0,0-0.1,0.1-0.1,0.1c0,0-0.1,0.1-0.1,0.1l-0.6-0.4
					c0.1-0.2,0.3-0.4,0.5-0.5c0.2-0.1,0.4-0.2,0.7-0.2c0.1,0,0.3,0,0.4,0.1c0.1,0,0.3,0.1,0.4,0.2c0.1,0.1,0.2,0.2,0.3,0.3
					c0.1,0.1,0.1,0.3,0.1,0.5c0,0.2,0,0.4-0.1,0.5s-0.2,0.3-0.4,0.4c-0.1,0.1-0.2,0.1-0.2,0.1c-0.1,0-0.1,0.1-0.2,0.1
					c-0.1,0-0.1,0.1-0.2,0.1s-0.1,0.1-0.1,0.2L119.4,58.2L119.4,58.2z M119.5,59.5v-0.8h0.7v0.8H119.5z"/>
			</g>
		</g>
		<rect x="170.9" y="61.5" class="st73" width="8" height="0.6"/>
		<rect x="170.9" y="62.4" class="st73" width="8" height="1.6"/>
	</g>
</g>
</svg>
