<?xml version="1.0" encoding="utf-8"?>
<!-- Generator: Adobe Illustrator 25.4.1, SVG Export Plug-In . SVG Version: 6.00 Build 0)  -->
<svg version="1.1" id="Layer_1" xmlns="http://www.w3.org/2000/svg" xmlns:xlink="http://www.w3.org/1999/xlink" x="0px" y="0px"
	 viewBox="0 0 225 150" style="enable-background:new 0 0 225 150;" xml:space="preserve">
<style type="text/css">
	.st0{display:none;}
	.st1{display:inline;}
	.st2{fill:#407BFF;}
	.st3{opacity:0.9;fill:#FFFFFF;enable-background:new    ;}
	.st4{fill:#EBEBEB;}
	.st5{fill:#FAFAFA;}
	.st6{fill:#F0F0F0;}
	.st7{fill:#E0E0E0;}
	.st8{fill:#F5F5F5;}
	.st9{fill:#263238;}
	.st10{opacity:0.2;fill:#FFFFFF;enable-background:new    ;}
	.st11{opacity:0.4;fill:#FFFFFF;enable-background:new    ;}
	.st12{fill:#EF7F1A;}
	.st13{opacity:0.2;enable-background:new    ;}
	.st14{opacity:0.4;enable-background:new    ;}
	.st15{fill:#FFFFFF;}
	.st16{fill:#9E9E9E;}
	.st17{opacity:0.2;fill:#B7B7B7;enable-background:new    ;}
	.st18{fill:#052669;}
	.st19{opacity:0.3;fill:#FFFFFF;enable-background:new    ;}
	.st20{opacity:0.6;enable-background:new    ;}
	.st21{opacity:0.7;fill:#FFFFFF;enable-background:new    ;}
	.st22{opacity:0.2;fill:#EF7F1A;enable-background:new    ;}
	.st23{fill:#EEC1BB;}
	.st24{fill:#D4817D;}
	.st25{fill:#DE5653;}
	.st26{fill:#B3BECE;}
	.st27{opacity:0.6;fill:#FFFFFF;enable-background:new    ;}
	.st28{fill:none;stroke:#052669;stroke-width:1;stroke-miterlimit:10.0001;}
	.st29{fill:none;stroke:#052669;stroke-miterlimit:10;}
	.st30{fill:none;stroke:#052669;stroke-linecap:round;stroke-linejoin:round;stroke-miterlimit:10;}
</style>
<g id="Background_Simple" class="st0">
	<g class="st1">
		<path class="st2" d="M-22.2-24c12.8-39.2,61.9-60.7,98.8-68.5c43.4-9.1,90.7-4.5,131.1,14.2c21.8,10.1,41.3,26.9,50.5,49.1
			c9.1,21.9,5.1,46.8-8,66.2c-15.6,22.9-41.5,30.2-64.1,44.5c-4.6,3-9.3,6.1-12.7,10.4c-18.2,23.1,4.1,57.9,7.7,82.4
			c3.4,22.6-12.3,36.9-33.1,41.9c-53.9,13-149.3,2.9-137.2-74.5C15,115,38.9,95.8,48.9,71.1C63.5,35.2,1.7,37.3-14.6,20.7
			c-9-9.2-12-23.2-9.8-35.9C-23.8-18.2-23.1-21.2-22.2-24z"/>
		<path class="st3" d="M-22.2-24c12.8-39.2,61.9-60.7,98.8-68.5c43.4-9.1,90.7-4.5,131.1,14.2c21.8,10.1,41.3,26.9,50.5,49.1
			c9.1,21.9,5.1,46.8-8,66.2c-15.6,22.9-41.5,30.2-64.1,44.5c-4.6,3-9.3,6.1-12.7,10.4c-18.2,23.1,4.1,57.9,7.7,82.4
			c3.4,22.6-12.3,36.9-33.1,41.9c-53.9,13-149.3,2.9-137.2-74.5C15,115,38.9,95.8,48.9,71.1C63.5,35.2,1.7,37.3-14.6,20.7
			c-9-9.2-12-23.2-9.8-35.9C-23.8-18.2-23.1-21.2-22.2-24z"/>
	</g>
</g>
<g>
	<g id="Background_Complete">
		<g>
			<rect x="15.9" y="129.5" class="st4" width="193.2" height="0.1"/>
			<rect x="176.9" y="135.8" class="st4" width="12.8" height="0.1"/>
			<rect x="140.5" y="136.8" class="st4" width="3.4" height="0.1"/>
			<rect x="169.1" y="132.2" class="st4" width="7.4" height="0.1"/>
			<rect x="36.2" y="132.8" class="st4" width="16.7" height="0.1"/>
			<rect x="56.3" y="132.8" class="st4" width="2.4" height="0.1"/>
			<rect x="66.7" y="134.4" class="st4" width="36.2" height="0.1"/>
			<path class="st4" d="M107.5,112.3H32.9c-1.2,0-2.2-1-2.2-2.2V5.2c0-1.2,1-2.2,2.2-2.2h74.6c1.2,0,2.2,1,2.2,2.2v104.9
				C109.7,111.3,108.7,112.3,107.5,112.3z M32.9,3.1c-1.2,0-2.1,0.9-2.1,2.1v104.9c0,1.2,0.9,2.1,2.1,2.1h74.6
				c1.2,0,2.1-0.9,2.1-2.1V5.2c0-1.2-0.9-2.1-2.1-2.1H32.9z"/>
			<path class="st4" d="M191.1,112.3h-74.6c-1.2,0-2.2-1-2.2-2.2V5.2c0-1.2,1-2.2,2.2-2.2h74.6c1.2,0,2.2,1,2.2,2.2v104.9
				C193.3,111.3,192.3,112.3,191.1,112.3z M116.4,3.1c-1.2,0-2.1,0.9-2.1,2.1v104.9c0,1.2,0.9,2.1,2.1,2.1h74.6
				c1.2,0,2.1-0.9,2.1-2.1V5.2c0-1.2-0.9-2.1-2.1-2.1H116.4z"/>
		</g>
		<g>
			<g>
				<g>
					<rect x="124.5" y="19.6" class="st5" width="26.3" height="89.7"/>
					<rect x="123.9" y="18.4" class="st6" width="27.5" height="4.4"/>
					<g>
						<rect x="123.9" y="23.3" class="st6" width="27.5" height="2.2"/>
						<rect x="123.9" y="26.5" class="st6" width="27.5" height="2.2"/>
						<rect x="123.9" y="29.8" class="st6" width="27.5" height="2.2"/>
						<rect x="123.9" y="33.1" class="st6" width="27.5" height="2.2"/>
						<rect x="123.9" y="36.3" class="st6" width="27.5" height="2.2"/>
						<rect x="123.9" y="39.6" class="st6" width="27.5" height="2.2"/>
						<rect x="123.9" y="42.9" class="st6" width="27.5" height="2.2"/>
						<rect x="123.9" y="46.1" class="st6" width="27.5" height="2.2"/>
						<rect x="123.9" y="49.4" class="st6" width="27.5" height="2.2"/>
						<rect x="123.9" y="52.7" class="st6" width="27.5" height="2.2"/>
						<rect x="123.9" y="55.9" class="st6" width="27.5" height="2.2"/>
						<rect x="123.9" y="59.2" class="st6" width="27.5" height="2.2"/>
						<rect x="123.9" y="62.5" class="st6" width="27.5" height="2.2"/>
						<rect x="123.9" y="65.7" class="st6" width="27.5" height="2.2"/>
						<rect x="123.9" y="69" class="st6" width="27.5" height="2.2"/>
						<rect x="123.9" y="72.3" class="st6" width="27.5" height="2.2"/>
						<rect x="123.9" y="75.5" class="st6" width="27.5" height="2.2"/>
						<rect x="123.9" y="78.8" class="st6" width="27.5" height="2.2"/>
						<rect x="123.9" y="82.1" class="st6" width="27.5" height="2.2"/>
						<rect x="123.9" y="85.3" class="st6" width="27.5" height="2.2"/>
						<rect x="123.9" y="88.6" class="st6" width="27.5" height="2.2"/>
						<rect x="123.9" y="91.8" class="st6" width="27.5" height="2.2"/>
						<rect x="123.9" y="95.1" class="st6" width="27.5" height="2.2"/>
						<rect x="123.9" y="98.4" class="st6" width="27.5" height="2.2"/>
						<rect x="123.9" y="101.6" class="st6" width="27.5" height="2.2"/>
						<rect x="123.9" y="104.9" class="st6" width="27.5" height="2.2"/>
						<rect x="123.9" y="108.2" class="st6" width="27.5" height="2.2"/>
					</g>
				</g>
				<g>
					<rect x="157.4" y="19.6" class="st5" width="26.3" height="89.7"/>
					<rect x="156.8" y="18.4" class="st6" width="27.5" height="4.4"/>
					<g>
						<rect x="156.8" y="23.3" class="st6" width="27.5" height="2.2"/>
						<rect x="156.8" y="26.5" class="st6" width="27.5" height="2.2"/>
						<rect x="156.8" y="29.8" class="st6" width="27.5" height="2.2"/>
						<rect x="156.8" y="33.1" class="st6" width="27.5" height="2.2"/>
						<rect x="156.8" y="36.3" class="st6" width="27.5" height="2.2"/>
						<rect x="156.8" y="39.6" class="st6" width="27.5" height="2.2"/>
						<rect x="156.8" y="42.9" class="st6" width="27.5" height="2.2"/>
						<rect x="156.8" y="46.1" class="st6" width="27.5" height="2.2"/>
						<rect x="156.8" y="49.4" class="st6" width="27.5" height="2.2"/>
						<rect x="156.8" y="52.7" class="st6" width="27.5" height="2.2"/>
						<rect x="156.8" y="55.9" class="st6" width="27.5" height="2.2"/>
						<rect x="156.8" y="59.2" class="st6" width="27.5" height="2.2"/>
						<rect x="156.8" y="62.5" class="st6" width="27.5" height="2.2"/>
						<rect x="156.8" y="65.7" class="st6" width="27.5" height="2.2"/>
						<rect x="156.8" y="69" class="st6" width="27.5" height="2.2"/>
						<rect x="156.8" y="72.3" class="st6" width="27.5" height="2.2"/>
						<rect x="156.8" y="75.5" class="st6" width="27.5" height="2.2"/>
						<rect x="156.8" y="78.8" class="st6" width="27.5" height="2.2"/>
						<rect x="156.8" y="82.1" class="st6" width="27.5" height="2.2"/>
						<rect x="156.8" y="85.3" class="st6" width="27.5" height="2.2"/>
						<rect x="156.8" y="88.6" class="st6" width="27.5" height="2.2"/>
						<rect x="156.8" y="91.8" class="st6" width="27.5" height="2.2"/>
						<rect x="156.8" y="95.1" class="st6" width="27.5" height="2.2"/>
						<rect x="156.8" y="98.4" class="st6" width="27.5" height="2.2"/>
						<rect x="156.8" y="101.6" class="st6" width="27.5" height="2.2"/>
						<rect x="156.8" y="104.9" class="st6" width="27.5" height="2.2"/>
						<rect x="156.8" y="108.2" class="st6" width="27.5" height="2.2"/>
					</g>
				</g>
				<g>
					<rect x="75.6" y="20.2" class="st5" width="26.3" height="89.7"/>
					<rect x="75" y="18.9" class="st6" width="27.5" height="4.4"/>
					<g>
						<rect x="75" y="23.8" class="st6" width="27.5" height="0.4"/>
						<rect x="75" y="24.7" class="st6" width="27.5" height="0.4"/>
						<rect x="75" y="25.7" class="st6" width="27.5" height="0.4"/>
						<rect x="75" y="26.6" class="st6" width="27.5" height="0.4"/>
						<rect x="75" y="27.5" class="st6" width="27.5" height="0.4"/>
						<rect x="75" y="28.4" class="st6" width="27.5" height="0.4"/>
						<rect x="75" y="29.3" class="st6" width="27.5" height="0.4"/>
						<rect x="75" y="30.3" class="st6" width="27.5" height="0.4"/>
						<rect x="75" y="31.2" class="st6" width="27.5" height="0.4"/>
						<rect x="75" y="32.1" class="st6" width="27.5" height="0.4"/>
						<rect x="75" y="33" class="st6" width="27.5" height="0.4"/>
						<rect x="75" y="33.9" class="st6" width="27.5" height="0.4"/>
						<rect x="75" y="34.8" class="st6" width="27.5" height="0.4"/>
						<rect x="75" y="35.8" class="st6" width="27.5" height="0.4"/>
						<rect x="75" y="36.7" class="st6" width="27.5" height="0.4"/>
						<rect x="75" y="37.6" class="st6" width="27.5" height="0.4"/>
						<rect x="75" y="38.5" class="st6" width="27.5" height="0.4"/>
						<rect x="75" y="39.4" class="st6" width="27.5" height="0.4"/>
					</g>
				</g>
				<g>
					<rect x="42.7" y="20.2" class="st5" width="26.3" height="89.7"/>
					<rect x="42.1" y="18.9" class="st6" width="27.5" height="4.4"/>
					<g>
						<rect x="42.1" y="23.8" class="st6" width="27.5" height="0.4"/>
						<rect x="42.1" y="24.7" class="st6" width="27.5" height="0.4"/>
						<rect x="42.1" y="25.7" class="st6" width="27.5" height="0.4"/>
						<rect x="42.1" y="26.6" class="st6" width="27.5" height="0.4"/>
						<rect x="42.1" y="27.5" class="st6" width="27.5" height="0.4"/>
						<rect x="42.1" y="28.4" class="st6" width="27.5" height="0.4"/>
						<rect x="42.1" y="29.3" class="st6" width="27.5" height="0.4"/>
						<rect x="42.1" y="30.3" class="st6" width="27.5" height="0.4"/>
						<rect x="42.1" y="31.2" class="st6" width="27.5" height="0.4"/>
						<rect x="42.1" y="32.1" class="st6" width="27.5" height="0.4"/>
						<rect x="42.1" y="33" class="st6" width="27.5" height="0.4"/>
						<rect x="42.1" y="33.9" class="st6" width="27.5" height="0.4"/>
						<rect x="42.1" y="34.8" class="st6" width="27.5" height="0.4"/>
						<rect x="42.1" y="35.8" class="st6" width="27.5" height="0.4"/>
						<rect x="42.1" y="36.7" class="st6" width="27.5" height="0.4"/>
						<rect x="42.1" y="37.6" class="st6" width="27.5" height="0.4"/>
						<rect x="42.1" y="38.5" class="st6" width="27.5" height="0.4"/>
						<rect x="42.1" y="39.4" class="st6" width="27.5" height="0.4"/>
					</g>
				</g>
			</g>
			<g>
				<path class="st7" d="M113,121c0,0-1.8-4,0.3-7.9c2.1-3.9,2.7-4.9,1.4-5.7c-1.3-0.8-1.9,3.2-1.9,3.2s-1.1-2.7-0.2-5.6
					c0.9-2.9,1.5-7.5,0.2-8c-1.3-0.5-0.2,5.8-1.3,7.9c0,0-0.9-2.4-1.1-4.7c-0.2-2.3,0.1-6-0.9-6.9c-1-0.9-1.6-0.3-0.7,4.8
					c1,5.1,1,9.2,1,9.2s-2.2-6.6-3.6-6.8s-1.5,2-0.2,3.8s3.7,5.2,4.1,6.9c0,0-2.4-5-4.5-3.5c-2.1,1.5,1.9,4.5,3.7,5.6
					c1.8,1.1,3,7.9,3,7.9L113,121z"/>
				<path class="st4" d="M111.5,122.6c0,0,1.8-4-0.4-7.9s-2.8-4.8-1.4-5.7c1.3-0.8,2,3.1,2,3.1s1.1-2.7,0.1-5.6
					c-1-2.8-1.6-7.5-0.3-8c1.3-0.5,0.3,5.8,1.4,7.9c0,0,0.9-2.4,1-4.7c0.1-2.3-0.2-5.9,0.8-6.9c1-1,1.6-0.3,0.7,4.8
					c-0.9,5.1-0.9,9.2-0.9,9.2s2.1-6.7,3.6-6.9s1.5,1.9,0.3,3.8c-1.2,1.9-3.6,5.3-4,7c0,0,2.3-5,4.5-3.5c2.2,1.5-1.8,4.6-3.6,5.7
					c-1.8,1.1-2.9,8-2.9,8L111.5,122.6z"/>
				<g>
					<polygon class="st4" points="119.7,119.8 105,119.8 106.2,130.3 118.6,130.3 					"/>
				</g>
			</g>
		</g>
	</g>
	<g id="Shadow_1_">
		<ellipse id="_x3C_Path_x3E__359_" class="st8" cx="112.5" cy="142.6" rx="74.9" ry="4.4"/>
	</g>
	<g id="Chair">
		<g>
			<path class="st9" d="M166.1,98.8c0,0-9.6-1.9-18.8-1c-9.2,0.9,4.3,13,4.3,13h1.9c0,0-7.2-7.6-6.8-9.6c0.4-1.9,18.5,0.6,18.5,0.6
				L166.1,98.8z"/>
			<path class="st10" d="M166.1,98.8c0,0-9.6-1.9-18.8-1c-9.2,0.9,4.3,13,4.3,13h1.9c0,0-7.2-7.6-6.8-9.6c0.4-1.9,18.5,0.6,18.5,0.6
				L166.1,98.8z"/>
			<path class="st9" d="M162.6,110.4c0,0,4.5-15.9,5.2-36.1c0.1-2.4,2.1-4.3,4.5-4.3h8c2.5,0,4.5,2,4.5,4.5c0,7.3-0.5,23.8-4.6,36
				H162.6z"/>
			<path class="st11" d="M162.6,110.4c0,0,4.5-15.9,5.2-36.1c0.1-2.4,2.1-4.3,4.5-4.3h8c2.5,0,4.5,2,4.5,4.5c0,7.3-0.5,23.8-4.6,36
				H162.6z"/>
			<path class="st12" d="M160.3,108.3c1.3-4.9,4.3-17.7,4.9-34.6c0.1-2.6,2.2-4.7,4.9-4.7h8.7c2.7,0,4.9,2.2,4.9,4.8
				c0,7.9-0.5,24.2-5,37.4l-16.6-0.6C160.8,110.6,160,109.5,160.3,108.3z"/>
			<path class="st13" d="M160.3,108.3c1.3-4.9,4.3-17.7,4.9-34.6c0.1-2.6,2.2-4.7,4.9-4.7h8.7c2.7,0,4.9,2.2,4.9,4.8
				c0,7.9-0.5,24.2-5,37.4l-16.6-0.6C160.8,110.6,160,109.5,160.3,108.3z"/>
			<path class="st12" d="M150,104.2h25.6c1.1,0,1.9,0.9,1.9,1.9v4.6H148v-4.6C148,105.1,148.9,104.2,150,104.2z"/>
			<path class="st9" d="M176.6,133.8l-9.5-0.9v-13.3h-3.7v13.3l-9.5,0.9c-0.9,0.1-1.7,0.9-1.7,1.8v1.4h12.7h0.7h12.7v-1.4
				C178.3,134.6,177.5,133.8,176.6,133.8z"/>
			<path class="st11" d="M176.6,133.8l-9.5-0.9v-13.3h-3.7v13.3l-9.5,0.9c-0.9,0.1-1.7,0.9-1.7,1.8v1.4h12.7h0.7h12.7v-1.4
				C178.3,134.6,177.5,133.8,176.6,133.8z"/>
			<path class="st9" d="M155.7,138.8c0,1.4-1.1,2.4-2.4,2.4s-2.4-1.1-2.4-2.4s1.1-2.4,2.4-2.4S155.7,137.4,155.7,138.8z"/>
			<path class="st11" d="M153.2,140.1c-0.7,0-1.3-0.6-1.3-1.3c0-0.7,0.6-1.3,1.3-1.3s1.3,0.6,1.3,1.3
				C154.5,139.5,153.9,140.1,153.2,140.1z"/>
			<path class="st9" d="M174.8,138.8c0,1.4,1.1,2.4,2.4,2.4s2.4-1.1,2.4-2.4s-1.1-2.4-2.4-2.4C175.9,136.3,174.8,137.4,174.8,138.8z
				"/>
			<path class="st11" d="M177.2,140.1c-0.7,0-1.3-0.6-1.3-1.3c0-0.7,0.6-1.3,1.3-1.3c0.7,0,1.3,0.6,1.3,1.3
				C178.5,139.5,178,140.1,177.2,140.1z"/>
			<path class="st9" d="M166.2,122.4h-1.8c-0.9,0-1.6-0.7-1.6-1.6v-10.2h5v10.2C167.8,121.7,167.1,122.4,166.2,122.4z"/>
			<path class="st10" d="M166.2,122.4h-1.8c-0.9,0-1.6-0.7-1.6-1.6v-10.2h5v10.2C167.8,121.7,167.1,122.4,166.2,122.4z"/>
			<g>
				<path class="st9" d="M147.8,110h32c0.4,0,0.8,0.3,0.8,0.8v0.4c0,0.4-0.3,0.8-0.8,0.8h-32c-0.4,0-0.8-0.3-0.8-0.8v-0.4
					C147,110.3,147.3,110,147.8,110z"/>
			</g>
			<g class="st14">
				<path class="st15" d="M147.8,110h32c0.4,0,0.8,0.3,0.8,0.8v0.4c0,0.4-0.3,0.8-0.8,0.8h-32c-0.4,0-0.8-0.3-0.8-0.8v-0.4
					C147,110.3,147.3,110,147.8,110z"/>
			</g>
			<g>
				<path class="st9" d="M183.1,98.8c0,0-9.6-1.9-18.8-1c-9.2,0.9,4.3,13,4.3,13h1.9c0,0-7.2-7.6-6.8-9.6c0.4-1.9,18.5,0.6,18.5,0.6
					L183.1,98.8z"/>
				<path class="st11" d="M183.1,98.8c0,0-9.6-1.9-18.8-1c-9.2,0.9,4.3,13,4.3,13h1.9c0,0-7.2-7.6-6.8-9.6
					c0.4-1.9,18.5,0.6,18.5,0.6L183.1,98.8z"/>
			</g>
		</g>
	</g>
	<g id="Table">
		<g>
			<g>
				<g>
					<path class="st9" d="M65.1,100.9v0.4h-5.9v-0.3c0-0.7,0.7-1.3,1.7-1.3l0.3,0l2-0.1C64.2,99.5,65.1,100.1,65.1,100.9z"/>
					<path class="st10" d="M62.4,100.9v0.4h-3.2v-0.3c0-0.7,0.7-1.3,1.7-1.3l0.3,0C61.9,99.8,62.4,100.3,62.4,100.9z"/>
				</g>
				<g>
					<path class="st9" d="M113.1,141.2h0.6c0.1,0,0.1-0.1,0.1-0.1l0.9-36.3H112l0.9,36.3C113,141.1,113,141.2,113.1,141.2z"/>
				</g>
				<g>
					<polygon class="st9" points="134.2,141.2 135.6,141.2 131.7,104.8 129,104.8 					"/>
				</g>
				<polygon class="st9" points="46,141.2 46,141.2 51.3,104.8 48.5,104.8 44.7,141.2 				"/>
				<polygon class="st9" points="66.1,141.2 67.7,141.2 67.7,141.2 68.2,104.8 65.5,104.8 				"/>
				<g class="st14">
					<polygon class="st15" points="134.2,141.2 135.6,141.2 131.7,104.8 129,104.8 					"/>
				</g>
				<polygon class="st11" points="66.1,141.2 67.7,141.2 67.7,141.2 68.2,104.8 65.5,104.8 				"/>
				<g class="st13">
					<path class="st15" d="M113.1,141.2h0.6c0.1,0,0.1-0.1,0.1-0.1l0.9-36.3H112l0.9,36.3C113,141.1,113,141.2,113.1,141.2z"/>
				</g>
				<polygon class="st10" points="46,141.2 46,141.2 51.3,104.8 48.5,104.8 44.7,141.2 				"/>
				<g>
					<path class="st9" d="M70.9,101.4h7.8l1.2-10.9c0-0.4-0.4-0.7-0.8-0.7h-5.2c-0.4,0-0.7,0.3-0.8,0.7L70.9,101.4z"/>
					<path class="st9" d="M59,73.8h1.9l2.2,20.5h-1.9c-0.3,0-0.6-0.3-0.6-0.6l-2.1-19.4C58.4,74.1,58.6,73.8,59,73.8z"/>
					<path class="st9" d="M62,94.4h29.2c0.3,0,0.6-0.3,0.5-0.6l-2.1-19.4c0-0.3-0.3-0.6-0.6-0.6H59.8c-0.3,0-0.6,0.3-0.5,0.6
						l2.1,19.4C61.4,94.1,61.6,94.4,62,94.4z"/>
					<path class="st9" d="M70.5,100.6h9.7c0.2,0,0.4,0.2,0.4,0.4v0.1c0,0.2-0.2,0.4-0.4,0.4h-9.7c-0.2,0-0.4-0.2-0.4-0.4V101
						C70.1,100.8,70.3,100.6,70.5,100.6z"/>
					<path class="st10" d="M62,94.4h29.2c0.3,0,0.6-0.3,0.5-0.6l-2.1-19.4c0-0.3-0.3-0.6-0.6-0.6H59.8c-0.3,0-0.6,0.3-0.5,0.6
						l2.1,19.4C61.4,94.1,61.6,94.4,62,94.4z"/>
					<path class="st16" d="M62.5,92.5H90c0.3,0,0.5-0.2,0.5-0.5l-1.8-16.9c0-0.3-0.3-0.5-0.6-0.5H60.6c-0.3,0-0.5,0.2-0.5,0.5L62,92
						C62,92.3,62.2,92.5,62.5,92.5z"/>
					<path class="st10" d="M70.5,100.6h9.7c0.2,0,0.4,0.2,0.4,0.4v0.1c0,0.2-0.2,0.4-0.4,0.4h-9.7c-0.2,0-0.4-0.2-0.4-0.4V101
						C70.1,100.8,70.3,100.6,70.5,100.6z"/>
					<path class="st17" d="M62.5,92.5H90c0.3,0,0.5-0.2,0.5-0.5l-1.8-16.9c0-0.3-0.3-0.5-0.6-0.5H60.6c-0.3,0-0.5,0.2-0.5,0.5L62,92
						C62,92.3,62.2,92.5,62.5,92.5z"/>
				</g>
				<polygon class="st18" points="70.7,101.2 63.9,101.2 47,101.2 47,104.8 63.9,104.8 70.7,104.8 133.3,104.8 133.3,101.2 				"/>
				<g>
					<g>
						<path class="st18" d="M88.3,100.6H89c0.1,0,0.1-0.1,0.1-0.1v-0.8c0-0.1-0.1-0.1-0.1-0.1h-0.5c-0.1,0-0.1,0-0.1,0.1l-0.2,0.8
							C88.1,100.5,88.2,100.6,88.3,100.6z"/>
						<path class="st18" d="M87.3,100.6H88c0.1,0,0.1-0.1,0.1-0.1v-0.8c0-0.1-0.1-0.1-0.1-0.1h-0.5c-0.1,0-0.1,0-0.1,0.1l-0.2,0.8
							C87.1,100.5,87.2,100.6,87.3,100.6z"/>
						<path class="st18" d="M86.2,100.6H87c0.1,0,0.1-0.1,0.1-0.1v-0.8c0-0.1-0.1-0.1-0.1-0.1h-0.5c-0.1,0-0.1,0-0.1,0.1l-0.2,0.8
							C86.1,100.5,86.2,100.6,86.2,100.6z"/>
						<path class="st18" d="M85.2,100.6H86c0.1,0,0.1-0.1,0.1-0.1v-0.8c0-0.1-0.1-0.1-0.1-0.1h-0.5c-0.1,0-0.1,0-0.1,0.1l-0.2,0.8
							C85.1,100.5,85.2,100.6,85.2,100.6z"/>
						<path class="st18" d="M84.2,100.6H85c0.1,0,0.1-0.1,0.1-0.1v-0.8c0-0.1-0.1-0.1-0.1-0.1h-0.5c-0.1,0-0.1,0-0.1,0.1l-0.2,0.8
							C84.1,100.5,84.1,100.6,84.2,100.6z"/>
						<path class="st18" d="M83.2,100.6H84c0.1,0,0.1-0.1,0.1-0.1v-0.8c0-0.1-0.1-0.1-0.1-0.1h-0.5c-0.1,0-0.1,0-0.1,0.1l-0.2,0.8
							C83.1,100.5,83.1,100.6,83.2,100.6z"/>
						<path class="st18" d="M82.2,100.6H83c0.1,0,0.1-0.1,0.1-0.1v-0.8c0-0.1-0.1-0.1-0.1-0.1h-0.5c-0.1,0-0.1,0-0.1,0.1l-0.2,0.8
							C82.1,100.5,82.1,100.6,82.2,100.6z"/>
						<path class="st18" d="M81.2,100.6H82c0.1,0,0.1-0.1,0.1-0.1v-0.8c0-0.1-0.1-0.1-0.1-0.1h-0.5c-0.1,0-0.1,0-0.1,0.1l-0.2,0.8
							C81.1,100.5,81.1,100.6,81.2,100.6z"/>
						<path class="st18" d="M80.2,100.6h0.7c0.1,0,0.1-0.1,0.1-0.1v-0.8c0-0.1-0.1-0.1-0.1-0.1h-0.5c-0.1,0-0.1,0-0.1,0.1l-0.2,0.8
							C80.1,100.5,80.1,100.6,80.2,100.6z"/>
						<path class="st18" d="M79.2,100.6h0.7c0.1,0,0.1-0.1,0.1-0.1v-0.8c0-0.1-0.1-0.1-0.1-0.1h-0.5c-0.1,0-0.1,0-0.1,0.1l-0.2,0.8
							C79.1,100.5,79.1,100.6,79.2,100.6z"/>
						<path class="st18" d="M78.2,100.6h0.7c0.1,0,0.1-0.1,0.1-0.1v-0.8c0-0.1-0.1-0.1-0.1-0.1h-0.5c-0.1,0-0.1,0-0.1,0.1l-0.2,0.8
							C78.1,100.5,78.1,100.6,78.2,100.6z"/>
						<path class="st18" d="M77.2,100.6h0.7c0.1,0,0.1-0.1,0.1-0.1v-0.8c0-0.1-0.1-0.1-0.1-0.1h-0.5c-0.1,0-0.1,0-0.1,0.1l-0.2,0.8
							C77,100.5,77.1,100.6,77.2,100.6z"/>
						<path class="st18" d="M76.2,100.6h0.7c0.1,0,0.1-0.1,0.1-0.1v-0.8c0-0.1-0.1-0.1-0.1-0.1h-0.5c-0.1,0-0.1,0-0.1,0.1l-0.2,0.8
							C76,100.5,76.1,100.6,76.2,100.6z"/>
						<path class="st18" d="M75.2,100.6h0.7c0.1,0,0.1-0.1,0.1-0.1v-0.8c0-0.1-0.1-0.1-0.1-0.1h-0.5c-0.1,0-0.1,0-0.1,0.1l-0.2,0.8
							C75,100.5,75.1,100.6,75.2,100.6z"/>
						<path class="st18" d="M74.2,100.6h0.7c0.1,0,0.1-0.1,0.1-0.1v-0.8c0-0.1-0.1-0.1-0.1-0.1h-0.5c-0.1,0-0.1,0-0.1,0.1l-0.2,0.8
							C74,100.5,74.1,100.6,74.2,100.6z"/>
					</g>
					<rect x="73.5" y="100" class="st9" width="16.3" height="1.2"/>
					<rect x="73.5" y="100" class="st10" width="16.3" height="1.2"/>
					<rect x="73.5" y="100" class="st10" width="5.3" height="1.2"/>
				</g>
				<rect x="63.9" y="101.2" class="st10" width="69.4" height="3.6"/>
			</g>
		</g>
	</g>
	<g id="Trash_bin">
		<g>
			<g>
				<path class="st18" d="M50,135.4c0.2-0.4-0.1-1-0.6-1c0.2-0.6,0-1.3-0.5-1.6c-0.1,0-0.1-0.1-0.2-0.1c-0.1,0-0.2,0.1-0.2,0.1
					c-0.4,0.3-0.9,0.6-1.3,0.9c-0.1,0.1-0.2,0.1-0.3,0.3c-0.3,0.5,0.7,1.2,0.3,1.6c-0.1,0.1-0.3,0.1-0.4,0.2c-0.3,0.2-0.4,0.6-0.5,1
					c-0.1,0.3-0.7,0.6-0.8,0.3c0.1-0.3-0.3-0.6-0.6-0.6c-0.3,0-0.7-0.1-0.9-0.4c-0.5,0.4-1.6-0.8-1.6-1.3c-0.4,0-0.7,0.4-0.8,0.8
					c-0.1,0.4,0,0.8,0,1.2c0,0.8-0.3,1.6-0.3,2.4c0,0.6,0.3,1.3,0.8,1.6c0.3,0.1,0.6,0.1,0.9,0.1c2.2,0,4.3,0,6.5,0
					c0.2,0,0.3,0,0.5-0.1c0.3-0.2,0.4-0.5,0.4-0.9c0.1-1.4,0.2-2.8,0.3-4.2C50.4,135.5,50.2,135.5,50,135.4z"/>
				<path class="st19" d="M50,135.4c0.2-0.4-0.1-1-0.6-1c0.2-0.6,0-1.3-0.5-1.6c-0.1,0-0.1-0.1-0.2-0.1c-0.1,0-0.2,0.1-0.2,0.1
					c-0.4,0.3-0.9,0.6-1.3,0.9c-0.1,0.1-0.2,0.1-0.3,0.3c-0.3,0.5,0.7,1.2,0.3,1.6c-0.1,0.1-0.3,0.1-0.4,0.2c-0.3,0.2-0.4,0.6-0.5,1
					c-0.1,0.3-0.7,0.6-0.8,0.3c0.1-0.3-0.3-0.6-0.6-0.6c-0.3,0-0.7-0.1-0.9-0.4c-0.5,0.4-1.6-0.8-1.6-1.3c-0.4,0-0.7,0.4-0.8,0.8
					c-0.1,0.4,0,0.8,0,1.2c0,0.8-0.3,1.6-0.3,2.4c0,0.6,0.3,1.3,0.8,1.6c0.3,0.1,0.6,0.1,0.9,0.1c2.2,0,4.3,0,6.5,0
					c0.2,0,0.3,0,0.5-0.1c0.3-0.2,0.4-0.5,0.4-0.9c0.1-1.4,0.2-2.8,0.3-4.2C50.4,135.5,50.2,135.5,50,135.4z"/>
			</g>
			<g>
				<g>
					<path class="st18" d="M50.4,128.5h-0.7h-2h-0.7h-2h-0.7h-2h-0.7h-1.1l0.1,1l0.1,0.7l0.2,1.9l0.1,1.1l0.1,1.4l0.1,0.6l0,0.2
						l0.1,0.7l0.1,1l0.1,0.6l0.1,0.6l0.1,0.7l0,0.5l0.1,0.6l0,0.3h1.3h1.1h1.6h1.1h1.6h1.1h1.3l0-0.3l0.1-0.6l0-0.6l0.1-0.7l0.1-0.6
						l0.1-0.6l0.1-1l0.1-0.7l0-0.2l0.1-0.6l0.1-1.4l0.1-1.1l0.2-1.9l0.1-0.7l0.1-1L50.4,128.5L50.4,128.5z M51,129.2L51,129.2
						l-0.2-0.2H51L51,129.2z M50.9,129.8l0,0.2L50,131l-1-1l0.9-0.9h0.2L50.9,129.8z M50.7,133l-0.7,0.7l-1-1l1-1l0.7,0.7L50.7,133z
						 M41.1,132.3L41.1,132.3l0.7-0.7l1,1l-1,1l-0.7-0.7L41.1,132.3z M49.7,131.3l-1,1l-1-1l1-1L49.7,131.3z M48.1,129h1.2l-0.6,0.6
						L48.1,129z M48.3,132.7l-1,1l-1-1l1-1L48.3,132.7z M44.9,134l1-1l1,1l-1,1L44.9,134z M45.6,135.4l-1,1l-1-1l1-1L45.6,135.4z
						 M47.3,134.4l1,1l-1,1l-1-1L47.3,134.4z M45.9,132.3l-1-1l1-1l1,1L45.9,132.3z M45.6,132.7l-1,1l-1-1l1-1L45.6,132.7z
						 M43.2,132.3l-1-1l1-1l1,1L43.2,132.3z M43.2,133l1,1l-1,1l-1-1L43.2,133z M44.2,136.8l-1,1l-1-1l1-1L44.2,136.8z M44.6,137.1
						l1,1l-1,1l-1-1L44.6,137.1z M44.9,136.8l1-1l1,1l-1,1L44.9,136.8z M47.3,137.1l1,1l-1,1l-1-1L47.3,137.1z M48.7,138.4l1,1
						l-0.7,0.7h-0.7l-0.7-0.7L48.7,138.4z M47.6,136.8l1-1l1,1l-1,1L47.6,136.8z M47.6,134l1-1l1,1l-1,1L47.6,134z M48.3,129.9l-1,1
						l-1-1l0.9-0.9h0.2L48.3,129.9z M45.9,129.6l-0.6-0.6h1.2L45.9,129.6z M45.6,129.9l-1,1l-1-1l0.9-0.9h0.2L45.6,129.9z M43.8,129
						l-0.6,0.6l-0.6-0.6H43.8z M42,129l0.9,0.9l-1,1l-0.9-0.9l0-0.2l0.8-0.8H42z M41.1,129l-0.2,0.2l0,0l0-0.2H41.1z M41,130.8
						l0.5,0.5l-0.4,0.4L41,130.8z M41.3,134.2l0-0.5l0,0l0.3,0.3L41.3,134.2L41.3,134.2z M41.3,134.9l0.5-0.5l1,1l-1,1l-0.4-0.4
						L41.3,134.9z M41.5,136.8L41.5,136.8L41.5,136.8L41.5,136.8L41.5,136.8z M41.7,139l-0.1-1.6l0.3-0.3l1,1l-1,1L41.7,139
						L41.7,139z M41.8,140.1l0-0.2l0.1-0.1l0.3,0.3H41.8z M42.2,139.5l1-1l1,1l-0.7,0.7h-0.7L42.2,139.5z M44.2,140.1l0.3-0.3
						l0.3,0.3H44.2z M45.6,140.1l-0.7-0.7l1-1l1,1l-0.7,0.7H45.6z M47,140.1l0.3-0.3l0.3,0.3H47z M50.1,140.1h-0.4l0.3-0.3l0.1,0.1
						L50.1,140.1z M50.2,139l-0.2,0.2l-1-1l1-1l0.3,0.3L50.2,139z M50.4,136.7L50.4,136.7L50.4,136.7L50.4,136.7L50.4,136.7z
						 M50.4,136l-0.4,0.4l-1-1l1-1l0.5,0.5L50.4,136z M50.6,134.3l-0.2-0.2l0.3-0.3L50.6,134.3z M50.8,130.8l-0.1,0.9l-0.4-0.4
						L50.8,130.8L50.8,130.8z"/>
				</g>
				<g class="st20">
					<path class="st15" d="M50.4,128.5h-0.7h-2h-0.7h-2h-0.7h-2h-0.7h-1.1l0.1,1l0.1,0.7l0.2,1.9l0.1,1.1l0.1,1.4l0.1,0.6l0,0.2
						l0.1,0.7l0.1,1l0.1,0.6l0.1,0.6l0.1,0.7l0,0.5l0.1,0.6l0,0.3h1.3h1.1h1.6h1.1h1.6h1.1h1.3l0-0.3l0.1-0.6l0-0.6l0.1-0.7l0.1-0.6
						l0.1-0.6l0.1-1l0.1-0.7l0-0.2l0.1-0.6l0.1-1.4l0.1-1.1l0.2-1.9l0.1-0.7l0.1-1L50.4,128.5L50.4,128.5z M51,129.2L51,129.2
						l-0.2-0.2H51L51,129.2z M50.9,129.8l0,0.2L50,131l-1-1l0.9-0.9h0.2L50.9,129.8z M50.7,133l-0.7,0.7l-1-1l1-1l0.7,0.7L50.7,133z
						 M41.1,132.3L41.1,132.3l0.7-0.7l1,1l-1,1l-0.7-0.7L41.1,132.3z M49.7,131.3l-1,1l-1-1l1-1L49.7,131.3z M48.1,129h1.2l-0.6,0.6
						L48.1,129z M48.3,132.7l-1,1l-1-1l1-1L48.3,132.7z M44.9,134l1-1l1,1l-1,1L44.9,134z M45.6,135.4l-1,1l-1-1l1-1L45.6,135.4z
						 M47.3,134.4l1,1l-1,1l-1-1L47.3,134.4z M45.9,132.3l-1-1l1-1l1,1L45.9,132.3z M45.6,132.7l-1,1l-1-1l1-1L45.6,132.7z
						 M43.2,132.3l-1-1l1-1l1,1L43.2,132.3z M43.2,133l1,1l-1,1l-1-1L43.2,133z M44.2,136.8l-1,1l-1-1l1-1L44.2,136.8z M44.6,137.1
						l1,1l-1,1l-1-1L44.6,137.1z M44.9,136.8l1-1l1,1l-1,1L44.9,136.8z M47.3,137.1l1,1l-1,1l-1-1L47.3,137.1z M48.7,138.4l1,1
						l-0.7,0.7h-0.7l-0.7-0.7L48.7,138.4z M47.6,136.8l1-1l1,1l-1,1L47.6,136.8z M47.6,134l1-1l1,1l-1,1L47.6,134z M48.3,129.9l-1,1
						l-1-1l0.9-0.9h0.2L48.3,129.9z M45.9,129.6l-0.6-0.6h1.2L45.9,129.6z M45.6,129.9l-1,1l-1-1l0.9-0.9h0.2L45.6,129.9z M43.8,129
						l-0.6,0.6l-0.6-0.6H43.8z M42,129l0.9,0.9l-1,1l-0.9-0.9l0-0.2l0.8-0.8H42z M41.1,129l-0.2,0.2l0,0l0-0.2H41.1z M41,130.8
						l0.5,0.5l-0.4,0.4L41,130.8z M41.3,134.2l0-0.5l0,0l0.3,0.3L41.3,134.2L41.3,134.2z M41.3,134.9l0.5-0.5l1,1l-1,1l-0.4-0.4
						L41.3,134.9z M41.5,136.8L41.5,136.8L41.5,136.8L41.5,136.8L41.5,136.8z M41.7,139l-0.1-1.6l0.3-0.3l1,1l-1,1L41.7,139
						L41.7,139z M41.8,140.1l0-0.2l0.1-0.1l0.3,0.3H41.8z M42.2,139.5l1-1l1,1l-0.7,0.7h-0.7L42.2,139.5z M44.2,140.1l0.3-0.3
						l0.3,0.3H44.2z M45.6,140.1l-0.7-0.7l1-1l1,1l-0.7,0.7H45.6z M47,140.1l0.3-0.3l0.3,0.3H47z M50.1,140.1h-0.4l0.3-0.3l0.1,0.1
						L50.1,140.1z M50.2,139l-0.2,0.2l-1-1l1-1l0.3,0.3L50.2,139z M50.4,136.7L50.4,136.7L50.4,136.7L50.4,136.7L50.4,136.7z
						 M50.4,136l-0.4,0.4l-1-1l1-1l0.5,0.5L50.4,136z M50.6,134.3l-0.2-0.2l0.3-0.3L50.6,134.3z M50.8,130.8l-0.1,0.9l-0.4-0.4
						L50.8,130.8L50.8,130.8z"/>
				</g>
			</g>
			<path class="st18" d="M40.3,129.4h11.2c0.4,0,0.6-0.3,0.6-0.6v0c0-0.4-0.3-0.6-0.6-0.6H40.3c-0.4,0-0.6,0.3-0.6,0.6v0
				C39.7,129.2,40,129.4,40.3,129.4z"/>
			<path class="st18" d="M50.6,141.2h-9.4c-0.4,0-0.6-0.3-0.6-0.6v0c0-0.4,0.3-0.6,0.6-0.6h9.4c0.4,0,0.6,0.3,0.6,0.6v0
				C51.2,140.9,51,141.2,50.6,141.2z"/>
		</g>
	</g>
	<g id="Speech_Bubble">
		<g>
			<path class="st12" d="M109.2,33.9l11.4-2c0.8-0.1,1.3-0.9,1.2-1.6l-2-11.4c-0.1-0.8-0.9-1.3-1.6-1.2l-11.4,2
				c-0.8,0.1-1.3,0.9-1.2,1.6l2,11.4C107.7,33.5,108.5,34,109.2,33.9z"/>
			<path class="st12" d="M113.2,32.1c0,0,2.6,3.9,7,4.5c0,0-2.5-0.9-3.1-5.4L113.2,32.1z"/>
			<g>
				<path class="st15" d="M117,24.7l-1.8,0.2c0,0-0.6-1.2-1-4.1c0,0-0.6,0-0.9,0.1c-0.3,0.1,0,3.3,0,3.3s-3.3,0.2-3.5,0.4
					c-0.1,0.1-0.1,0.6,0,0.9c0,0.2,0.2,0.4,0.4,0.4l0.1,0l0.6,3.1c0,0.2,0.3,0.4,0.5,0.4l3.1-0.4c0.3,0,0.6-0.2,0.8-0.4l0.3-0.3
					l1.9-0.1L117,24.7z"/>
				<path class="st21" d="M117,24.7l-1.8,0.2c0,0-0.6-1.2-1-4.1c0,0-0.6,0-0.9,0.1c-0.3,0.1,0,3.3,0,3.3s-3.3,0.2-3.5,0.4
					c-0.1,0.1-0.1,0.6,0,0.9c0,0.2,0.2,0.4,0.4,0.4l0.1,0l0.6,3.1c0,0.2,0.3,0.4,0.5,0.4l3.1-0.4c0.3,0,0.6-0.2,0.8-0.4l0.3-0.3
					l1.9-0.1L117,24.7z"/>
			</g>
		</g>
	</g>
	<g id="Character">
		<g>
			<g id="_x3C_Group_x3E__126_">
				<path class="st12" d="M123.5,47.4c-1.7-0.1-8.2,10.6-8.2,10.6l-4.5-0.8l-1,2.3c0,0,4,2,5.6,2.1c1.6,0.2,7.8-8.5,7.8-8.5
					L123.5,47.4z"/>
				<path class="st10" d="M123.5,47.4l-0.2,5.7c0,0-0.2,0.2-0.4,0.6c-0.5,0.6-1.3,1.8-2.3,3c-1.9,2.4-4.2,5-5.1,4.9
					c-1.6-0.2-5.6-2.1-5.6-2.1l1-2.3l4.5,0.8C115.3,58,121.8,47.3,123.5,47.4z"/>
				<path class="st13" d="M122.9,53.7c-0.5,0.6-1.3,1.8-2.3,3c0-2.3,2-5.1,2-5.1S122.8,52.5,122.9,53.7z"/>
				<path class="st9" d="M136.3,140.9h3.8c0.1,0,0.2,0.1,0.3,0.2l0.6,2.8c0.1,0.2-0.1,0.5-0.4,0.5c0,0-0.1,0-0.1,0
					c-1.2,0-2.1-0.1-3.6-0.1c-0.9,0-3.8,0.1-5.1,0.1s-1.5-1.3-0.9-1.4c2.4-0.5,4.2-1.2,5-1.9C135.9,141,136.1,140.9,136.3,140.9z"/>
				<path class="st9" d="M120.3,140.8h3.8c0.1,0,0.2,0.1,0.3,0.2l0.6,2.8c0.1,0.2-0.1,0.5-0.4,0.5c0,0-0.1,0-0.1,0
					c-1.2,0-2.1-0.1-3.6-0.1c-0.9,0-3.8,0.1-5.1,0.1s-1.5-1.3-0.9-1.4c2.4-0.5,4.2-1.2,5-1.9C120,140.9,120.1,140.8,120.3,140.8z"/>
				<path class="st9" d="M138.3,71h-16.5c-1.6,8.6-6.5,43.3-3,70.2h5.6c0,0-0.5-40.9,4.4-54.2c0.6,7.1,6.3,54.2,6.3,54.2h5.7
					c0,0-0.8-17.7-1.7-34.4C138.7,96.3,138.3,73.2,138.3,71z"/>
				<path class="st13" d="M128.9,87.1c-0.7,2-1.3,4.4-1.8,7.1c-0.5-6.3,1.4-13,1.4-13L128.9,87.1z"/>
				<polygon points="121.7,71.2 138.3,71.2 138.3,73.2 121.5,73 				"/>
				<rect x="132.4" y="70.3" class="st9" width="0.6" height="3.5"/>
				<rect x="124" y="70.3" class="st9" width="0.6" height="3.5"/>
				<rect x="126.2" y="70.9" class="st15" width="3.1" height="2.2"/>
				<g>
					<path class="st12" d="M138.3,71.5c0.4-9.4,3.2-22.8,3.2-22.8c-7.7-1.9-18-1.4-18-1.4c-2,7.2-2,18.8-1.8,24.2H138.3L138.3,71.5z
						"/>
					<path class="st22" d="M141.6,48.7c0,0-0.3,1.5-0.7,3.8c-0.2,1.1-0.4,2.4-0.7,3.9c-0.1,0.8-0.3,1.7-0.4,2.6
						c-0.1,0.9-0.3,1.8-0.4,2.7c-0.5,3.3-0.8,6.7-1,9.8h-16.6c-0.2-5.3-0.2-17,1.8-24.2C123.5,47.4,133.9,46.9,141.6,48.7z"/>
					<path class="st22" d="M140.8,52.6c-0.2,1.1-0.4,2.4-0.7,3.9c-0.1,0.8-0.3,1.7-0.4,2.6c-1.2-3.2,0.9-7.5,0.9-7.5L140.8,52.6z"/>
				</g>
				<path class="st9" d="M129,48.6l0.4,2c0,0-2.4,9.9-2.9,15.1l0.9,0.9l1.4-0.9c0,0,0.1-10.5,1.3-14.9l2.2-1.8l-1.7-0.5L129,48.6z"
					/>
				<path class="st23" d="M135.5,47.7c-1.4,1.3-4.9,0.8-4.9,0.8s-2.2-0.6-1.7-1.3c1.3-0.2,1.9-0.8,2.2-1.6c0.1-0.4,0.2-0.9,0.1-1.5
					c0-0.3-0.1-0.5-0.1-0.8l4.3-3.2C134.7,42.3,134.1,46.2,135.5,47.7z"/>
				<path class="st13" d="M134.3,42.2c-0.2,2.6-2.3,3.3-3.3,3.4c0.1-0.4,0.2-0.9,0.1-1.5L134.3,42.2z"/>
				<g>
					<path class="st12" d="M134.8,46.1l-4.1,1.9l-0.2-1.5l-1.5,0.5c-0.5,0.2-0.9,0.7-0.8,1.3l0.2,1.6l2.1-1.1l1,1.5l5-2.4
						L134.8,46.1z"/>
					<path class="st19" d="M134.8,46.1l-4.1,1.9l-0.2-1.5l-1.5,0.5c-0.5,0.2-0.9,0.7-0.8,1.3l0.2,1.6l2.1-1.1l1,1.5l5-2.4
						L134.8,46.1z"/>
				</g>
				<g>
					<path class="st9" d="M126.5,34.2c0,0-0.6,4.2,1.6,5.8c2.2,1.6,2.2-6.1,2.2-6.1L126.5,34.2z"/>
					<path class="st23" d="M134.4,43.3c-1.1,1.5-2.8,1.9-4.3,1.4c-1-0.3-1.9-1-2.4-2c-0.1-0.1-0.1-0.3-0.2-0.4
						c-1.1-2.5-1.4-7,1.3-8.6c1.9-1.2,4.4-0.6,5.6,1.3c0.3,0.5,0.5,1.2,0.6,1.8C135.3,39.8,135.7,41.5,134.4,43.3z"/>
					<path class="st9" d="M130.7,38.4c0.1,0.2-0.1,0.5-0.2,0.5c-0.2,0-0.3-0.2-0.4-0.4c0-0.2,0.1-0.5,0.2-0.5
						C130.5,38,130.6,38.2,130.7,38.4z"/>
					<path class="st9" d="M128,38.9c0.1,0.2-0.1,0.5-0.2,0.5c-0.2,0-0.3-0.2-0.4-0.4c0-0.2,0.1-0.5,0.2-0.5
						C127.8,38.4,127.9,38.6,128,38.9z"/>
					<path class="st24" d="M128.8,38.8c-0.2,0.8-0.4,1.5-0.8,2.2c0.4,0.2,0.8,0.2,1.2,0L128.8,38.8z"/>
					<path class="st9" d="M126.8,37.9c0.1,0,0.1,0,0.1,0c0.3-0.2,0.6-0.4,1-0.3c0.1,0,0.2,0,0.2-0.1c0-0.1,0-0.2-0.1-0.2l0,0
						c-0.4-0.1-0.9,0-1.3,0.3C126.7,37.7,126.7,37.8,126.8,37.9C126.7,37.8,126.7,37.8,126.8,37.9C126.7,37.8,126.7,37.8,126.8,37.9
						z"/>
					<path class="st9" d="M131,37.2C131.1,37.2,131.1,37.2,131,37.2c0.1-0.1,0.1-0.2,0-0.2c0,0,0,0,0,0c-0.4-0.2-0.9-0.3-1.3-0.1
						c-0.1,0-0.1,0.1-0.1,0.2l0,0c0,0.1,0.1,0.1,0.2,0.1l0,0c0.3-0.1,0.7-0.1,1,0.1C131,37.2,131,37.2,131,37.2z"/>
					<path class="st9" d="M132.2,33.5l0,1.3c0.5,0.2,0.8,0.6,0.6,1.2c-0.3,1.2,0.5,2.8,1.5,3.4c0,0,0-0.5,0.4-0.4s0.6,2.6,0,3.8
						c0,0,1.1-1.2,1.4-3.9c0.3-2.5,0.2-4.5-0.4-5.4L132.2,33.5z"/>
					<path class="st23" d="M136.7,39c-0.2,0.7-0.7,1.3-1.4,1.7c-0.9,0.5-1.5-0.3-1.5-1.2c0.1-0.8,0.6-2.1,1.6-2.2
						C136.4,37.2,137,38.1,136.7,39z"/>
					<g>
						<path class="st9" d="M129.5,41.8c0.2,0.3,0.6,1,0.6,1c0.1,0,0.1,0,0.2-0.1c0.9-0.3,1.2-0.7,1.3-1c0.1-0.2,0-0.4,0-0.6
							c0-0.2-0.1-0.3-0.1-0.3c-0.4,0.4-1.2,0.7-1.6,0.9C129.7,41.8,129.5,41.8,129.5,41.8z"/>
						<path class="st15" d="M129.8,41.7L130,42c0.8-0.2,1.4-0.5,1.5-0.8c0-0.2-0.1-0.3-0.1-0.3C131.1,41.3,130.3,41.6,129.8,41.7z"
							/>
						<path class="st25" d="M130.3,42.8c0.9-0.3,1.2-0.7,1.3-1c-0.3,0.1-0.6,0.3-0.9,0.5C130.5,42.4,130.3,42.6,130.3,42.8z"/>
					</g>
					<path class="st9" d="M135.5,34.1c0,0,1.4-1.7-2-2.8c-3.4-1.1-8.4,2.1-7.4,3.4c1,1.3,4.5,0.7,4.5,0.7s-0.9-0.1-1.3-0.6
						C129.2,34.9,134.3,35.2,135.5,34.1z"/>
				</g>
				<path class="st12" d="M141.6,48.7c2.2,0.7,3.6,14.2,3.6,15.4c0,1.2-3.3,1.7-3.6-0.8c-0.3-2.4-1.4-7.7-1.4-7.7s-0.3-2.4,0-3.8
					C140.4,50.5,141.6,48.7,141.6,48.7z"/>
				<path class="st10" d="M141.6,48.7c2.2,0.7,3.6,14.2,3.6,15.4c0,1.2-3.3,1.7-3.6-0.8c-0.3-2.4-1.4-7.7-1.4-7.7s-0.3-2.4,0-3.8
					C140.4,50.5,141.6,48.7,141.6,48.7z"/>
			</g>
			<g>
				
					<rect x="91.5" y="48" transform="matrix(0.1076 -0.9942 0.9942 0.1076 19.7494 193.9961)" class="st26" width="52.9" height="76.1"/>
				
					<rect x="91.5" y="48" transform="matrix(0.1076 -0.9942 0.9942 0.1076 19.7494 193.9961)" class="st27" width="52.9" height="76.1"/>
				
					<rect x="93.3" y="49.9" transform="matrix(0.1076 -0.9942 0.9942 0.1076 19.7565 193.9898)" class="st28" width="49.3" height="72.2"/>
				<polygon class="st29" points="157.1,68.4 157.5,64.6 153.7,64.2 153.5,65.7 87.6,58.5 87.7,57 83.9,56.6 83.5,60.5 85,60.6 
					80.3,103.7 78.8,103.6 78.4,107.4 82.2,107.8 82.4,106.3 148.3,113.5 148.2,114.9 152,115.4 152.4,111.5 150.9,111.4 
					155.5,68.2 				"/>
				<g>
					<g>
						<path class="st18" d="M85.6,58.7l0.9,0.1l-0.1,0.9l-0.9-0.1L85.6,58.7 M85.2,58.3l0,0.4l-0.1,0.9l0,0.4l0.4,0l0.9,0.1l0.4,0
							l0-0.4l0.1-0.9l0-0.4l-0.4,0l-0.9-0.1L85.2,58.3L85.2,58.3z"/>
					</g>
					<g>
						<path class="st18" d="M80.6,104.8l0.9,0.1l-0.1,0.9l-0.9-0.1L80.6,104.8 M80.2,104.4l0,0.4l-0.1,0.9l0,0.4l0.4,0l0.9,0.1
							l0.4,0l0-0.4l0.1-0.9l0-0.4l-0.4,0l-0.9-0.1L80.2,104.4L80.2,104.4z"/>
					</g>
					<g>
						<path class="st18" d="M154.5,66.2l0.9,0.1l-0.1,0.9l-0.9-0.1L154.5,66.2 M154.2,65.8l0,0.4L154,67l0,0.4l0.4,0l0.9,0.1l0.4,0
							l0-0.4l0.1-0.9l0-0.4l-0.4,0l-0.9-0.1L154.2,65.8L154.2,65.8z"/>
					</g>
					<g>
						<path class="st18" d="M149.5,112.3l0.9,0.1l-0.1,0.9l-0.9-0.1L149.5,112.3 M149.2,111.9l0,0.4l-0.1,0.9l0,0.4l0.4,0l0.9,0.1
							l0.4,0l0-0.4l0.1-0.9l0-0.4l-0.4,0l-0.9-0.1L149.2,111.9L149.2,111.9z"/>
					</g>
				</g>
				<g>
					<path class="st18" d="M99.7,66.9c0.1-1.1,1-1.7,2.1-1.6c0.6,0.1,1.1,0.3,1.3,0.7l-0.5,0.4c-0.2-0.3-0.5-0.5-0.9-0.5
						c-0.7-0.1-1.3,0.4-1.4,1.1c-0.1,0.7,0.4,1.3,1.1,1.4c0.4,0,0.7-0.1,1-0.3l0.4,0.5c-0.4,0.4-0.9,0.5-1.5,0.4
						C100.3,68.8,99.6,67.9,99.7,66.9z"/>
					<path class="st18" d="M106.2,68.8l-0.1,0.6l-2.7-0.3l0.4-3.6l2.6,0.3l-0.1,0.6l-1.9-0.2l-0.1,0.9l1.7,0.2l-0.1,0.5l-1.7-0.2
						l-0.1,1L106.2,68.8z"/>
					<path class="st18" d="M109.2,69.7l-0.6-1.1c0,0-0.1,0-0.1,0l-0.8-0.1l-0.1,1l-0.7-0.1l0.4-3.6l1.5,0.2c0.9,0.1,1.5,0.6,1.4,1.4
						c-0.1,0.5-0.4,0.9-0.9,1l0.7,1.3L109.2,69.7z M108.6,66.6l-0.8-0.1l-0.2,1.4l0.8,0.1c0.6,0.1,0.9-0.2,1-0.6
						C109.5,67,109.2,66.7,108.6,66.6z"/>
					<path class="st18" d="M111.6,66.9l-1.2-0.1l0.1-0.6l3,0.3l-0.1,0.6l-1.2-0.1l-0.3,3l-0.7-0.1L111.6,66.9z"/>
					<path class="st18" d="M114,66.6l0.7,0.1l-0.4,3.6l-0.7-0.1L114,66.6z"/>
					<path class="st18" d="M116.2,67.4l-0.1,1.1l1.7,0.2l-0.1,0.6l-1.7-0.2l-0.1,1.4l-0.7-0.1l0.4-3.6l2.6,0.3l-0.1,0.6L116.2,67.4z
						"/>
					<path class="st18" d="M118.8,67.1l0.7,0.1l-0.4,3.6l-0.7-0.1L118.8,67.1z"/>
					<path class="st18" d="M120,69.1c0.1-1.1,1-1.7,2.1-1.6c0.6,0.1,1.1,0.3,1.3,0.7l-0.5,0.4c-0.2-0.3-0.5-0.5-0.9-0.5
						c-0.7-0.1-1.3,0.4-1.4,1.1c-0.1,0.7,0.4,1.3,1.1,1.4c0.4,0,0.7-0.1,1-0.3l0.4,0.5c-0.4,0.4-0.9,0.5-1.5,0.4
						C120.6,71,119.9,70.1,120,69.1z"/>
					<path class="st18" d="M126.1,70.7l-1.8-0.2l-0.4,0.8l-0.7-0.1l2-3.4l0.6,0.1l1.2,3.7l-0.7-0.1L126.1,70.7z M125.9,70.1
						l-0.5-1.6l-0.8,1.5L125.9,70.1z"/>
					<path class="st18" d="M128.3,68.7l-1.2-0.1l0.1-0.6l3,0.3l-0.1,0.6l-1.2-0.1l-0.3,3l-0.7-0.1L128.3,68.7z"/>
					<path class="st18" d="M130.7,68.4l0.7,0.1l-0.4,3.6l-0.7-0.1L130.7,68.4z"/>
					<path class="st18" d="M131.9,70.4c0.1-1.1,1-1.7,2.1-1.6c1.1,0.1,1.8,1,1.7,2c-0.1,1.1-1,1.7-2.1,1.6
						C132.5,72.3,131.8,71.4,131.9,70.4z M135.1,70.7c0.1-0.7-0.4-1.3-1.1-1.4s-1.3,0.4-1.4,1.1c-0.1,0.7,0.4,1.3,1.1,1.4
						C134.4,71.9,135,71.4,135.1,70.7z"/>
					<path class="st18" d="M139.8,69.4l-0.4,3.6l-0.5-0.1l-1.7-2.6l-0.3,2.4l-0.7-0.1l0.4-3.6l0.5,0.1l1.7,2.6l0.3-2.4L139.8,69.4z"
						/>
				</g>
				<path class="st27" d="M136.1,83.1l-35.4-3.8c-0.8-0.1-1.6,0.5-1.7,1.3c-0.1,0.8,0.5,1.6,1.3,1.7l35.4,3.8
					c0.8,0.1,1.6-0.5,1.7-1.3C137.6,84,137,83.2,136.1,83.1z"/>
				<g>
					<line class="st30" x1="144.7" y1="90.7" x2="90.8" y2="84.9"/>
					<line class="st30" x1="144.9" y1="89.1" x2="95.2" y2="83.7"/>
					<line class="st30" x1="123.4" y1="90.1" x2="90.6" y2="86.5"/>
				</g>
				<g>
					<line class="st30" x1="96.4" y1="72.3" x2="146.1" y2="77.7"/>
					<line class="st30" x1="92" y1="73.4" x2="146" y2="79.3"/>
					<line class="st30" x1="91.6" y1="76.8" x2="116" y2="79.5"/>
					<line class="st30" x1="91.8" y1="75.1" x2="145.8" y2="81"/>
				</g>
				<g>
					<g>
						<polygon class="st18" points="139,108.8 136.7,107.2 134.2,108.2 135.1,100.2 139.8,100.7 						"/>
						<polygon class="st13" points="139,108.8 136.7,107.2 134.2,108.2 135.1,100.2 139.8,100.7 						"/>
					</g>
					<polygon class="st18" points="138.1,94.3 138.9,93.9 139.4,94.7 140.3,94.4 140.6,95.3 141.5,95.2 141.5,96.1 142.4,96.4 
						142.3,97.2 143.1,97.7 142.7,98.5 143.4,99.1 142.8,99.8 143.3,100.5 142.6,101.1 142.9,101.9 142,102.3 142.1,103.2 
						141.2,103.3 141.1,104.2 140.2,104.1 139.8,104.9 139,104.6 138.4,105.3 137.7,104.8 136.9,105.3 136.4,104.7 135.5,105 
						135.1,104.2 134.2,104.3 134.1,103.4 133.2,103.3 133.2,102.4 132.4,102.1 132.6,101.3 131.9,100.7 132.4,100 131.8,99.3 
						132.4,98.7 132,97.9 132.8,97.4 132.6,96.5 133.5,96.3 133.5,95.4 134.4,95.4 134.7,94.5 135.6,94.7 136,93.9 136.8,94.4 
						137.5,93.7 					"/>
					<polygon class="st10" points="138,95.4 138.6,95 139,95.6 139.7,95.4 140,96.1 140.7,96.1 140.7,96.8 141.5,97 141.3,97.7 
						142,98 141.7,98.7 142.2,99.2 141.8,99.7 142.2,100.3 141.6,100.8 141.8,101.5 141.1,101.7 141.2,102.5 140.5,102.6 
						140.4,103.3 139.7,103.2 139.4,103.9 138.7,103.6 138.2,104.2 137.6,103.7 137.1,104.2 136.6,103.6 135.9,103.9 135.6,103.3 
						134.9,103.4 134.8,102.7 134,102.6 134.1,101.9 133.4,101.6 133.6,100.9 133,100.5 133.4,99.9 132.9,99.3 133.5,98.9 
						133.1,98.2 133.8,97.8 133.6,97.1 134.3,96.9 134.3,96.2 135.1,96.2 135.3,95.5 136,95.7 136.3,95.1 137,95.4 137.5,94.9 					
						"/>
					<g>
						<path class="st18" d="M137.6,99.9l0.5,0.1l0,0.4l-0.6-0.1l-0.2,0.7l-0.4,0l0.2-0.7l-0.7-0.1l-0.2,0.7l-0.4,0l0.2-0.7l-0.5-0.1
							l0-0.4l0.6,0.1l0.2-0.7l-0.5-0.1l0-0.4l0.6,0.1l0.2-0.7l0.4,0l-0.2,0.7l0.7,0.1l0.2-0.7l0.4,0l-0.2,0.7l0.5,0.1l0,0.4
							l-0.6-0.1L137.6,99.9z M137.2,99.9l0.2-0.7l-0.7-0.1l-0.2,0.7L137.2,99.9z"/>
						<path class="st18" d="M139.7,98.4l-0.3,2.8l-0.5-0.1l0.3-2.4l-0.6-0.1l0-0.4L139.7,98.4z"/>
					</g>
				</g>
				<g>
					<path class="st18" d="M94.8,91.6L94.8,91.6c0.2-0.1,0.4-0.1,0.6,0.1l0,0c0.1,0.2,0.3,0.2,0.5,0.2l0,0c0.2-0.1,0.4,0.1,0.5,0.3
						l0,0c0.1,0.2,0.2,0.3,0.4,0.3l0,0c0.2,0,0.4,0.2,0.4,0.4l0,0c0,0.2,0.1,0.3,0.3,0.4l0,0c0.2,0.1,0.4,0.3,0.3,0.5l0,0
						c0,0.2,0.1,0.4,0.2,0.4l0,0c0.2,0.1,0.3,0.3,0.2,0.5l0,0c-0.1,0.2,0,0.4,0.1,0.5l0,0c0.2,0.1,0.2,0.4,0,0.6l0,0
						c-0.1,0.1-0.1,0.3,0,0.5l0,0c0.1,0.2,0.1,0.4-0.1,0.6l0,0C98,96.8,98,97,98,97.2l0,0c0.1,0.2,0,0.4-0.2,0.5l0,0
						c-0.2,0.1-0.3,0.2-0.3,0.4l0,0c0,0.2-0.1,0.4-0.4,0.4l0,0c-0.2,0-0.3,0.2-0.4,0.3l0,0c0,0.2-0.2,0.4-0.5,0.3l0,0
						c-0.2,0-0.4,0.1-0.4,0.2l0,0c-0.1,0.2-0.3,0.3-0.5,0.2l0,0c-0.2-0.1-0.4,0-0.5,0.1l0,0c-0.1,0.2-0.4,0.2-0.6,0.1l0,0
						c-0.1-0.1-0.3-0.1-0.5,0l0,0c-0.2,0.1-0.4,0.1-0.6-0.1l0,0c-0.1-0.1-0.3-0.2-0.5-0.1l0,0c-0.2,0.1-0.4,0-0.5-0.2l0,0
						c-0.1-0.2-0.3-0.3-0.4-0.2l0,0c-0.2,0-0.4-0.1-0.5-0.3l0,0c0-0.2-0.2-0.3-0.4-0.3l0,0c-0.2,0-0.4-0.2-0.4-0.4l0,0
						c0-0.2-0.1-0.3-0.3-0.4l0,0c-0.2-0.1-0.3-0.3-0.3-0.5l0,0c0.1-0.2,0-0.4-0.2-0.5l0,0c-0.2-0.1-0.2-0.4-0.1-0.6l0,0
						c0.1-0.2,0.1-0.4,0-0.5l0,0c-0.1-0.2-0.1-0.4,0-0.6l0,0c0.1-0.1,0.2-0.3,0.1-0.5l0,0c-0.1-0.2,0-0.4,0.2-0.5l0,0
						c0.2-0.1,0.2-0.3,0.2-0.4l0,0c0-0.2,0.1-0.4,0.3-0.5l0,0c0.2,0,0.3-0.2,0.3-0.4l0,0c0-0.2,0.2-0.4,0.4-0.4l0,0
						c0.2,0,0.3-0.1,0.4-0.3l0,0c0.1-0.2,0.3-0.3,0.5-0.3l0,0c0.2,0,0.4,0,0.5-0.2l0,0c0.1-0.2,0.4-0.3,0.5-0.2l0,0
						c0.2,0.1,0.4,0.1,0.5-0.1l0,0c0.2-0.2,0.4-0.2,0.6,0l0,0C94.4,91.7,94.6,91.7,94.8,91.6z"/>
					<circle class="st10" cx="94.1" cy="95.8" r="3.6"/>
					<polygon class="st18" points="94.3,94 94.7,95.2 96,95.5 95,96.3 95,97.6 94,96.9 92.7,97.4 93.1,96.1 92.3,95.1 93.6,95.1 
											"/>
				</g>
				<g>
					<ellipse class="st18" cx="107.2" cy="97.2" rx="4.3" ry="4.3"/>
					<path class="st10" d="M110.4,97.5c-0.2,1.8-1.8,3.1-3.6,2.9c-1.8-0.2-3.1-1.8-2.9-3.6c0.2-1.8,1.8-3.1,3.6-2.9
						C109.3,94.1,110.6,95.7,110.4,97.5z"/>
					<g class="st13">
						<path class="st15" d="M106.8,100.9c-2.1-0.2-3.5-2.1-3.3-4.1c0.2-2.1,2.1-3.5,4.1-3.3c2.1,0.2,3.5,2.1,3.3,4.1
							C110.7,99.6,108.8,101.1,106.8,100.9z M107.5,93.7c-1.9-0.2-3.7,1.2-3.9,3.1c-0.2,1.9,1.2,3.7,3.1,3.9
							c1.9,0.2,3.7-1.2,3.9-3.1C110.9,95.6,109.5,93.9,107.5,93.7z"/>
					</g>
					<polygon class="st18" points="107.8,97.3 107.3,95.9 106.5,97.2 105.1,95.7 105.4,98.3 106.2,98.4 106.9,98.5 107.1,98.5 
						107.8,98.6 108.6,98.7 109.5,96.2 					"/>
				</g>
			</g>
			<path class="st23" d="M109.3,59.4l1-0.9l0.8,0.1l0.1-1.1l-1.4-0.3c0,0-1.9-0.3-2.6-0.3c-0.3,0-0.6,0-1.4,1.7
				C105.6,59,109.3,59.4,109.3,59.4z"/>
			<path class="st23" d="M140.8,61.8c0,0,0.5-1,0.7-1.2s2.6,0.3,3,0.6c0.4,0.3,0.2,1,0.2,1s-0.7,1-1.1,1c-0.4-0.1-2.7-0.2-2.9-0.3
				C140.7,62.7,140.8,61.8,140.8,61.8z"/>
		</g>
	</g>
</g>
</svg>
